<svg id="SvgjsSvg1006" width="1083" height="479.5781071980794" xmlns="http://www.w3.org/2000/svg" version="1.1" xmlns:xlink="http://www.w3.org/1999/xlink" xmlns:svgjs="http://svgjs.com/svgjs"><defs id="SvgjsDefs1007"><pattern patternUnits="userSpaceOnUse" id="pattern_mark_0" width="300" height="300"><text x="150" y="100" fill="rgba(221,213,173,0.8)" font-size="18" transform="rotate(-45, 150, 150)" style="dominant-baseline: middle; text-anchor: middle;"></text></pattern><pattern patternUnits="userSpaceOnUse" id="pattern_mark_1" width="300" height="300"><text x="150" y="200" fill="rgba(221,213,173,0.8)" font-size="18" transform="rotate(-45, 150, 150)" style="dominant-baseline: middle; text-anchor: middle;"></text></pattern><pattern id="SvgjsPattern1013" x="0" y="0" width="1000" height="55" patternUnits="userSpaceOnUse"><image id="SvgjsImage1014" xlink:href="https://cdn.processon.com/659075849306be2fed0d515e-659076ef2b4cb726485c5e10?e=1703970047&amp;token=trhI0BY8QfVrIGn9nENop6JAc6l5nZuxhjQ62UfM:0O3u2u2wCci6C9qYvMeFKSU7FGs=" width="1000" height="55" preserveAspectRatio="none" crossOrigin="anonymous" x="0" y="0"></image></pattern><marker id="SvgjsMarker1097" markerWidth="13" markerHeight="9" refX="9.5" refY="4.5" viewBox="0 0 13 9" orient="auto" markerUnits="userSpaceOnUse" stroke-dasharray="0,0"><path id="SvgjsPath1098" d="M0,0 L13,4.5 L0,9 L0,0" fill="#323232" stroke="#323232" stroke-width="1"></path></marker><marker id="SvgjsMarker1101" markerWidth="13" markerHeight="9" refX="9.5" refY="4.5" viewBox="0 0 13 9" orient="auto" markerUnits="userSpaceOnUse" stroke-dasharray="0,0"><path id="SvgjsPath1102" d="M0,0 L13,4.5 L0,9 L0,0" fill="#323232" stroke="#323232" stroke-width="1"></path></marker><marker id="SvgjsMarker1105" markerWidth="13" markerHeight="9" refX="9.5" refY="4.5" viewBox="0 0 13 9" orient="auto" markerUnits="userSpaceOnUse" stroke-dasharray="0,0"><path id="SvgjsPath1106" d="M0,0 L13,4.5 L0,9 L0,0" fill="#323232" stroke="#323232" stroke-width="1"></path></marker><marker id="SvgjsMarker1121" markerWidth="13" markerHeight="9" refX="9.5" refY="4.5" viewBox="0 0 13 9" orient="auto" markerUnits="userSpaceOnUse" stroke-dasharray="0,0"><path id="SvgjsPath1122" d="M0,0 L13,4.5 L0,9 L0,0" fill="#323232" stroke="#323232" stroke-width="1"></path></marker><marker id="SvgjsMarker1125" markerWidth="13" markerHeight="9" refX="9.5" refY="4.5" viewBox="0 0 13 9" orient="auto" markerUnits="userSpaceOnUse" stroke-dasharray="0,0"><path id="SvgjsPath1126" d="M0,0 L13,4.5 L0,9 L0,0" fill="#323232" stroke="#323232" stroke-width="1"></path></marker><marker id="SvgjsMarker1129" markerWidth="13" markerHeight="9" refX="9.5" refY="4.5" viewBox="0 0 13 9" orient="auto" markerUnits="userSpaceOnUse" stroke-dasharray="0,0"><path id="SvgjsPath1130" d="M0,0 L13,4.5 L0,9 L0,0" fill="#323232" stroke="#323232" stroke-width="1"></path></marker><marker id="SvgjsMarker1133" markerWidth="13" markerHeight="9" refX="9.5" refY="4.5" viewBox="0 0 13 9" orient="auto" markerUnits="userSpaceOnUse" stroke-dasharray="0,0"><path id="SvgjsPath1134" d="M0,0 L13,4.5 L0,9 L0,0" fill="#323232" stroke="#323232" stroke-width="1"></path></marker><marker id="SvgjsMarker1137" markerWidth="13" markerHeight="9" refX="9.5" refY="4.5" viewBox="0 0 13 9" orient="auto" markerUnits="userSpaceOnUse" stroke-dasharray="0,0"><path id="SvgjsPath1138" d="M0,0 L13,4.5 L0,9 L0,0" fill="#323232" stroke="#323232" stroke-width="1"></path></marker><marker id="SvgjsMarker1141" markerWidth="13" markerHeight="9" refX="9.5" refY="4.5" viewBox="0 0 13 9" orient="auto" markerUnits="userSpaceOnUse" stroke-dasharray="0,0"><path id="SvgjsPath1142" d="M0,0 L13,4.5 L0,9 L0,0" fill="#323232" stroke="#323232" stroke-width="1"></path></marker><marker id="SvgjsMarker1145" markerWidth="13" markerHeight="9" refX="9.5" refY="4.5" viewBox="0 0 13 9" orient="auto" markerUnits="userSpaceOnUse" stroke-dasharray="0,0"><path id="SvgjsPath1146" d="M0,0 L13,4.5 L0,9 L0,0" fill="#323232" stroke="#323232" stroke-width="1"></path></marker><marker id="SvgjsMarker1149" markerWidth="13" markerHeight="9" refX="9.5" refY="4.5" viewBox="0 0 13 9" orient="auto" markerUnits="userSpaceOnUse" stroke-dasharray="0,0"><path id="SvgjsPath1150" d="M0,0 L13,4.5 L0,9 L0,0" fill="#323232" stroke="#323232" stroke-width="1"></path></marker><marker id="SvgjsMarker1153" markerWidth="13" markerHeight="9" refX="9.5" refY="4.5" viewBox="0 0 13 9" orient="auto" markerUnits="userSpaceOnUse" stroke-dasharray="0,0"><path id="SvgjsPath1154" d="M0,0 L13,4.5 L0,9 L0,0" fill="#323232" stroke="#323232" stroke-width="1"></path></marker></defs><rect id="svgbackgroundid" width="1083" height="479.5781071980794" fill="#f6edc1"></rect><rect id="SvgjsRect1009" width="1083" height="479.5781071980794" fill="url(#pattern_mark_0)"></rect><rect id="SvgjsRect1010" width="1083" height="479.5781071980794" fill="url(#pattern_mark_1)"></rect><g id="SvgjsG1011" transform="translate(41.718719482422046,24.99480438232422)"><path id="SvgjsPath1012" d="M 0 0L 1000 0L 1000 55L 0 55Z" stroke="none" fill="url(#SvgjsPattern1013)"></path></g><g id="SvgjsG1015" transform="translate(486.4478861490885,53.70313771565756)"><path id="SvgjsPath1016" d="M 0 0L 91.02083333333337 0L 91.02083333333337 20.749999999999993L 0 20.749999999999993Z" stroke-dasharray="10,6,3,6" stroke="rgba(239,236,235,0.55)" stroke-width="2" fill-opacity="0.55" fill="#c1bfb7"></path><g id="SvgjsG1017"><text id="SvgjsText1018" font-family="微软雅黑" text-anchor="middle" font-size="13px" width="72px" fill="#323232" font-weight="400" align="middle" lineHeight="125%" anchor="middle" family="微软雅黑" size="13px" weight="400" font-style="" opacity="0.55" y="-0.25000000000000355" transform="rotate(0)"></text></g></g><g id="SvgjsG1019" transform="translate(25.010386149088504,264.07813771565753)"><path id="SvgjsPath1020" d="M 0 4Q 0 0 4 0L 1029.4166666666667 0Q 1033.4166666666667 0 1033.4166666666667 4L 1033.4166666666667 38Q 1033.4166666666667 42 1029.4166666666667 42L 4 42Q 0 42 0 38Z" stroke="rgba(33,41,48,1)" stroke-width="1.5" fill-opacity="1" fill="#e7ebed"></path><g id="SvgjsG1021"><text id="SvgjsText1022" font-family="微软雅黑" text-anchor="middle" font-size="13px" width="1014px" fill="#323232" font-weight="400" align="middle" lineHeight="125%" anchor="middle" family="微软雅黑" size="13px" weight="400" font-style="" opacity="1" y="10.375" transform="rotate(0)"></text></g></g><g id="SvgjsG1023" transform="translate(30.510386149088546,275.5781377156576)"><path id="SvgjsPath1024" d="M 0 0L 85.50000000000001 0L 85.50000000000001 18.666666666666515L 0 18.666666666666515Z" stroke="rgba(33,41,48,1)" stroke-width="1.5" fill-opacity="1" fill="#ffffff"></path><g id="SvgjsG1025"><text id="SvgjsText1026" font-family="微软雅黑" text-anchor="middle" font-size="13px" width="66px" fill="#323232" font-weight="400" align="middle" lineHeight="125%" anchor="middle" family="微软雅黑" size="13px" weight="400" font-style="" opacity="1" y="-1.2916666666667425" transform="rotate(0)"></text></g></g><g id="SvgjsG1027" transform="translate(284.6770528157552,275.5781377156576)"><path id="SvgjsPath1028" d="M 0 0L 138.62500000000006 0L 138.62500000000006 18.666666666666515L 0 18.666666666666515Z" stroke="rgba(33,41,48,1)" stroke-width="1.5" fill-opacity="1" fill="#ffffff"></path><g id="SvgjsG1029"><text id="SvgjsText1030" font-family="微软雅黑" text-anchor="middle" font-size="13px" width="119px" fill="#323232" font-weight="400" align="middle" lineHeight="125%" anchor="middle" family="微软雅黑" size="13px" weight="400" font-style="" opacity="1" y="-1.2916666666667425" transform="rotate(0)"></text></g></g><g id="SvgjsG1031" transform="translate(629.4687194824219,275.5781377156576)"><path id="SvgjsPath1032" d="M 0 0L 115.70833333333337 0L 115.70833333333337 18.999999999999886L 0 18.999999999999886Z" stroke="rgba(33,41,48,1)" stroke-width="1.5" fill-opacity="1" fill="#ffffff"></path><g id="SvgjsG1033"><text id="SvgjsText1034" font-family="微软雅黑" text-anchor="middle" font-size="13px" width="96px" fill="#323232" font-weight="400" align="middle" lineHeight="125%" anchor="middle" family="微软雅黑" size="13px" weight="400" font-style="" opacity="1" y="-1.1250000000000568" transform="rotate(0)"></text></g></g><g id="SvgjsG1035" transform="translate(759.6770528157551,275.5781377156576)"><path id="SvgjsPath1036" d="M 0 0L 119.87500000000011 0L 119.87500000000011 18.999999999999886L 0 18.999999999999886Z" stroke="rgba(33,41,48,1)" stroke-width="1.5" fill-opacity="1" fill="#ffffff"></path><g id="SvgjsG1037"><text id="SvgjsText1038" font-family="微软雅黑" text-anchor="middle" font-size="13px" width="100px" fill="#323232" font-weight="400" align="middle" lineHeight="125%" anchor="middle" family="微软雅黑" size="13px" weight="400" font-style="" opacity="1" y="-1.1250000000000568" transform="rotate(0)"></text></g></g><g id="SvgjsG1039" transform="translate(30.218719482421875,264.91147104899085)"><path id="SvgjsPath1040" d="M 0 0L 1023 0L 1023 40L 0 40Z" stroke="none" fill="none"></path><g id="SvgjsG1041"><text id="SvgjsText1042" font-family="微软雅黑" text-anchor="middle" font-size="17px" width="1023px" fill="#323232" font-weight="400" align="middle" lineHeight="125%" anchor="middle" family="微软雅黑" size="17px" weight="400" font-style="" opacity="1" y="5.375" transform="rotate(0)"><tspan id="SvgjsTspan1043" dy="21.25" x="511.5"><tspan id="SvgjsTspan1044" style="font-weight: bold;fill: rgb(162, 55, 53);">execution（modifiers-pattern? ret-type-pattern declaring-type-pattern? name-pattern（param-pattern） throws-pattern?）</tspan></tspan></text></g></g><g id="SvgjsG1045" transform="translate(447.0937194824219,419.57813771565753)"><path id="SvgjsPath1046" d="M 0 4Q 0 0 4 0L 185.25 0Q 189.25 0 189.25 4L 189.25 31Q 189.25 35 185.25 35L 4 35Q 0 35 0 31Z" stroke="rgba(33,41,48,1)" stroke-width="1.5" fill-opacity="1" fill="#fcf9ea"></path><g id="SvgjsG1047"><text id="SvgjsText1048" font-family="微软雅黑" text-anchor="middle" font-size="13px" width="170px" fill="#5b79e8" font-weight="400" align="middle" lineHeight="125%" anchor="middle" family="微软雅黑" size="13px" weight="400" font-style="" opacity="1" y="6.875" transform="rotate(0)"></text></g></g><g id="SvgjsG1049" transform="translate(442.6562194824219,419.57813771565753)"><path id="SvgjsPath1050" d="M 0 0L 198.125 0L 198.125 35L 0 35Z" stroke="none" fill="none"></path><g id="SvgjsG1051"><text id="SvgjsText1052" font-family="微软雅黑" text-anchor="middle" font-size="17px" width="199px" fill="#5b79e8" font-weight="700" align="middle" lineHeight="125%" anchor="middle" family="微软雅黑" size="17px" weight="700" font-style="italic" opacity="1" y="2.875" transform="rotate(0)"><tspan id="SvgjsTspan1053" dy="21.25" x="99.5"><tspan id="SvgjsTspan1054" style="">一个表达式必选的部份</tspan></tspan></text></g></g><g id="SvgjsG1055" transform="translate(467.0937194824219,151.16147104899082)"><path id="SvgjsPath1056" d="M 0 4Q 0 0 4 0L 79.02083333333337 0Q 83.02083333333337 0 83.02083333333337 4L 83.02083333333337 22.416666666666742Q 83.02083333333337 26.416666666666742 79.02083333333337 26.416666666666742L 4 26.416666666666742Q 0 26.416666666666742 0 22.416666666666742Z" stroke="rgba(33,41,48,1)" stroke-width="1.5" fill-opacity="1" fill="#fcf9ea"></path><g id="SvgjsG1057"><text id="SvgjsText1058" font-family="微软雅黑" text-anchor="middle" font-size="13px" width="64px" fill="#5b79e8" font-weight="400" align="middle" lineHeight="125%" anchor="middle" family="微软雅黑" size="13px" weight="400" font-style="" opacity="1" y="2.5833333333333712" transform="rotate(0)"></text></g></g><g id="SvgjsG1059" transform="translate(462.6562194824219,144.3698043823242)"><path id="SvgjsPath1060" d="M 0 0L 91.89583333333337 0L 91.89583333333337 40L 0 40Z" stroke="none" fill="none"></path><g id="SvgjsG1061"><text id="SvgjsText1062" font-family="微软雅黑" text-anchor="middle" font-size="13px" width="92px" fill="#5b79e8" font-weight="700" align="middle" lineHeight="125%" anchor="middle" family="微软雅黑" size="13px" weight="700" font-style="italic" opacity="1" y="9.375" transform="rotate(0)"><tspan id="SvgjsTspan1063" dy="16.25" x="46"><tspan id="SvgjsTspan1064" style="">切入点指示符</tspan></tspan></text></g></g><g id="SvgjsG1065" transform="translate(592.6353861490885,151.16147104899082)"><path id="SvgjsPath1066" d="M 0 4Q 0 0 4 0L 79.02083333333337 0Q 83.02083333333337 0 83.02083333333337 4L 83.02083333333337 22.416666666666742Q 83.02083333333337 26.416666666666742 79.02083333333337 26.416666666666742L 4 26.416666666666742Q 0 26.416666666666742 0 22.416666666666742Z" stroke="rgba(33,41,48,1)" stroke-width="1.5" fill-opacity="1" fill="#fcf9ea"></path><g id="SvgjsG1067"><text id="SvgjsText1068" font-family="微软雅黑" text-anchor="middle" font-size="13px" width="64px" fill="#5b79e8" font-weight="400" align="middle" lineHeight="125%" anchor="middle" family="微软雅黑" size="13px" weight="400" font-style="" opacity="1" y="2.5833333333333712" transform="rotate(0)"></text></g></g><g id="SvgjsG1069" transform="translate(588.1978861490884,144.3698043823242)"><path id="SvgjsPath1070" d="M 0 0L 91.89583333333337 0L 91.89583333333337 40L 0 40Z" stroke="none" fill="none"></path><g id="SvgjsG1071"><text id="SvgjsText1072" font-family="微软雅黑" text-anchor="middle" font-size="13px" width="92px" fill="#5b79e8" font-weight="700" align="middle" lineHeight="125%" anchor="middle" family="微软雅黑" size="13px" weight="700" font-style="italic" opacity="1" y="9.375" transform="rotate(0)"><tspan id="SvgjsTspan1073" dy="16.25" x="46"><tspan id="SvgjsTspan1074" style="">返回类型</tspan></tspan></text></g></g><g id="SvgjsG1075" transform="translate(735.4270528157552,151.16147104899082)"><path id="SvgjsPath1076" d="M 0 4Q 0 0 4 0L 79.02083333333337 0Q 83.02083333333337 0 83.02083333333337 4L 83.02083333333337 22.416666666666742Q 83.02083333333337 26.416666666666742 79.02083333333337 26.416666666666742L 4 26.416666666666742Q 0 26.416666666666742 0 22.416666666666742Z" stroke="rgba(33,41,48,1)" stroke-width="1.5" fill-opacity="1" fill="#fcf9ea"></path><g id="SvgjsG1077"><text id="SvgjsText1078" font-family="微软雅黑" text-anchor="middle" font-size="13px" width="64px" fill="#5b79e8" font-weight="400" align="middle" lineHeight="125%" anchor="middle" family="微软雅黑" size="13px" weight="400" font-style="" opacity="1" y="2.5833333333333712" transform="rotate(0)"></text></g></g><g id="SvgjsG1079" transform="translate(730.9895528157551,144.3698043823242)"><path id="SvgjsPath1080" d="M 0 0L 91.89583333333337 0L 91.89583333333337 40L 0 40Z" stroke="none" fill="none"></path><g id="SvgjsG1081"><text id="SvgjsText1082" font-family="微软雅黑" text-anchor="middle" font-size="13px" width="92px" fill="#5b79e8" font-weight="700" align="middle" lineHeight="125%" anchor="middle" family="微软雅黑" size="13px" weight="700" font-style="italic" opacity="1" y="9.375" transform="rotate(0)"><tspan id="SvgjsTspan1083" dy="16.25" x="46"><tspan id="SvgjsTspan1084" style="">包和类</tspan></tspan></text></g></g><g id="SvgjsG1085" transform="translate(940.8437194824219,151.16147104899082)"><path id="SvgjsPath1086" d="M 0 4Q 0 0 4 0L 79.02083333333337 0Q 83.02083333333337 0 83.02083333333337 4L 83.02083333333337 22.416666666666742Q 83.02083333333337 26.416666666666742 79.02083333333337 26.416666666666742L 4 26.416666666666742Q 0 26.416666666666742 0 22.416666666666742Z" stroke="rgba(33,41,48,1)" stroke-width="1.5" fill-opacity="1" fill="#fcf9ea"></path><g id="SvgjsG1087"><text id="SvgjsText1088" font-family="微软雅黑" text-anchor="middle" font-size="13px" width="64px" fill="#5b79e8" font-weight="400" align="middle" lineHeight="125%" anchor="middle" family="微软雅黑" size="13px" weight="400" font-style="" opacity="1" y="2.5833333333333712" transform="rotate(0)"></text></g></g><g id="SvgjsG1089" transform="translate(936.4062194824218,144.3698043823242)"><path id="SvgjsPath1090" d="M 0 0L 91.89583333333337 0L 91.89583333333337 40L 0 40Z" stroke="none" fill="none"></path><g id="SvgjsG1091"><text id="SvgjsText1092" font-family="微软雅黑" text-anchor="middle" font-size="13px" width="92px" fill="#5b79e8" font-weight="700" align="middle" lineHeight="125%" anchor="middle" family="微软雅黑" size="13px" weight="700" font-style="italic" opacity="1" y="9.375" transform="rotate(0)"><tspan id="SvgjsTspan1093" dy="16.25" x="46"><tspan id="SvgjsTspan1094" style="">参数</tspan></tspan></text></g></g><g id="SvgjsG1095"><path id="SvgjsPath1096" d="M529.1539351146305 80.6621387248903C 529.5520528157552 106.91892688936714 469.13538614908856 91.11980438232422 507.29129052836106 142.01047473682388" stroke="#323232" stroke-width="1.5" fill="none" marker-end="url(#SvgjsMarker1097)"></path></g><g id="SvgjsG1099"><path id="SvgjsPath1100" d="M68.60851966919036 264.60345323436246C 247.26038614908856 148.4114710489909 491.0103861490886 255.70313771565753 507.7034481322178 186.91514543928793" stroke="#323232" stroke-width="1.5" fill="none" marker-end="url(#SvgjsMarker1101)"></path></g><g id="SvgjsG1103"><path id="SvgjsPath1104" d="M590.1860694405856 80.67923145894568C 589.9687194824219 111.02952906766116 634.1458028157551 113.04341303032058 633.5589579287132 141.73435127544622" stroke="#323232" stroke-width="1.5" fill="none" marker-end="url(#SvgjsMarker1105)"></path></g><g id="SvgjsG1107" transform="translate(582.5520528157551,53.70313771565755)"><path id="SvgjsPath1108" d="M 0 0L 20 0L 20 20.75L 0 20.75Z" stroke-dasharray="10,6,3,6" stroke="rgba(239,236,235,0.55)" stroke-width="2" fill-opacity="0.55" fill="#c1bfb7"></path><g id="SvgjsG1109"><text id="SvgjsText1110" font-family="微软雅黑" text-anchor="middle" font-size="13px" width="0px" fill="#323232" font-weight="400" align="middle" lineHeight="125%" anchor="middle" family="微软雅黑" size="13px" weight="400" font-style="" opacity="0.55" y="-0.25" transform="rotate(0)"></text></g></g><g id="SvgjsG1111" transform="translate(607.6353861490884,53.70313771565755)"><path id="SvgjsPath1112" d="M 0 0L 354.2083333333335 0L 354.2083333333335 20.75L 0 20.75Z" stroke-dasharray="10,6,3,6" stroke="rgba(239,236,235,0.55)" stroke-width="2" fill-opacity="0.55" fill="#c1bfb7"></path><g id="SvgjsG1113"><text id="SvgjsText1114" font-family="微软雅黑" text-anchor="middle" font-size="13px" width="335px" fill="#323232" font-weight="400" align="middle" lineHeight="125%" anchor="middle" family="微软雅黑" size="13px" weight="400" font-style="" opacity="0.55" y="-0.25" transform="rotate(0)"></text></g></g><g id="SvgjsG1115" transform="translate(967.4062194824221,53.70313771565755)"><path id="SvgjsPath1116" d="M 0 0L 34.02083333333326 0L 34.02083333333326 20.75L 0 20.75Z" stroke-dasharray="10,6,3,6" stroke="rgba(239,236,235,0.55)" stroke-width="2" fill-opacity="0.55" fill="#c1bfb7"></path><g id="SvgjsG1117"><text id="SvgjsText1118" font-family="微软雅黑" text-anchor="middle" font-size="13px" width="15px" fill="#323232" font-weight="400" align="middle" lineHeight="125%" anchor="middle" family="微软雅黑" size="13px" weight="400" font-style="" opacity="0.55" y="-0.25" transform="rotate(0)"></text></g></g><g id="SvgjsG1119"><path id="SvgjsPath1120" d="M369.8137591127522 264.54994484726205C 459.76038614908856 215.07813771565756 634.1458028157551 295.1566418256524 633.9519497506581 187.06283631476623" stroke="#323232" stroke-width="1.5" fill="none" marker-end="url(#SvgjsMarker1121)"></path></g><g id="SvgjsG1123"><path id="SvgjsPath1124" d="M63.23595543781731 305.4078286456813C 112.88538614908856 417.1614710489909 429.55205281575525 290.07813771565753 539.860105928362 417.61968024696824" stroke="#323232" stroke-width="1.5" fill="none" marker-end="url(#SvgjsMarker1125)"></path></g><g id="SvgjsG1127"><path id="SvgjsPath1128" d="M357.99319953668305 305.424915587089C 384.76038614908856 384.8698043823242 541.7187194824219 332.8066866374243 541.4348831096947 416.8930982534676" stroke="#323232" stroke-width="1.5" fill="none" marker-end="url(#SvgjsMarker1129)"></path></g><g id="SvgjsG1131"><path id="SvgjsPath1132" d="M677.3674931227814 306.52960846839187C 677.4687194824219 376.6402426101749 541.7187194824219 348.72436615447356 542.0831343771274 416.902843005814" stroke="#323232" stroke-width="1.5" fill="none" marker-end="url(#SvgjsMarker1133)"></path></g><g id="SvgjsG1135"><path id="SvgjsPath1136" d="M811.7888817784956 306.53446357985473C 811.8437194824219 423.0322361940248 611.8437194824219 337.9948043823242 543.6315859823997 417.6726346972231" stroke="#323232" stroke-width="1.5" fill="none" marker-end="url(#SvgjsMarker1137)"></path></g><g id="SvgjsG1139"><path id="SvgjsPath1140" d="M784.6941427914028 75.45210614843624C 784.7395528157551 102.59339438006783 776.9374694824219 116.2295477179139 777.0600765481734 141.6725896138217" stroke="#323232" stroke-width="1.5" fill="none" marker-end="url(#SvgjsMarker1141)"></path></g><g id="SvgjsG1143"><path id="SvgjsPath1144" d="M984.4045138174529 75.45306423749588C 984.4166361490888 102.43197024034384 982.3541361490884 116.39097185763788 982.3868664445058 141.6700027733607" stroke="#323232" stroke-width="1.5" fill="none" marker-end="url(#SvgjsMarker1145)"></path></g><g id="SvgjsG1147"><path id="SvgjsPath1148" d="M684.9053124727684 264.17560668601044C 684.7603861490886 215.94850584256622 776.9374694824219 233.33276958874887 776.4157347171747 187.0189160890539" stroke="#323232" stroke-width="1.5" fill="none" marker-end="url(#SvgjsMarker1149)"></path></g><g id="SvgjsG1151"><path id="SvgjsPath1152" d="M809.8751456073472 264.25363620522796C 809.7603861490886 188.7961239065444 982.3541361490884 260.568484858104 981.9410020993574 187.03800981987072" stroke="#323232" stroke-width="1.5" fill="none" marker-end="url(#SvgjsMarker1153)"></path></g></svg>