<svg id="SvgjsSvg1155" width="1083" height="479.5781071980794" xmlns="http://www.w3.org/2000/svg" version="1.1" xmlns:xlink="http://www.w3.org/1999/xlink" xmlns:svgjs="http://svgjs.com/svgjs"><defs id="SvgjsDefs1156"><pattern patternUnits="userSpaceOnUse" id="pattern_mark_0" width="300" height="300"><text x="150" y="100" fill="rgba(229,229,229,0.8)" font-size="18" transform="rotate(-45, 150, 150)" style="dominant-baseline: middle; text-anchor: middle;"></text></pattern><pattern patternUnits="userSpaceOnUse" id="pattern_mark_1" width="300" height="300"><text x="150" y="200" fill="rgba(229,229,229,0.8)" font-size="18" transform="rotate(-45, 150, 150)" style="dominant-baseline: middle; text-anchor: middle;"></text></pattern><pattern id="SvgjsPattern1162" x="0" y="0" width="1000" height="55" patternUnits="userSpaceOnUse"><image id="SvgjsImage1163" xlink:href="https://cdn.processon.com/659075849306be2fed0d515e-659076ef2b4cb726485c5e10?e=1703970047&amp;token=trhI0BY8QfVrIGn9nENop6JAc6l5nZuxhjQ62UfM:0O3u2u2wCci6C9qYvMeFKSU7FGs=" width="1000" height="55" preserveAspectRatio="none" crossOrigin="anonymous" x="0" y="0"></image></pattern><marker id="SvgjsMarker1246" markerWidth="13" markerHeight="9" refX="9.5" refY="4.5" viewBox="0 0 13 9" orient="auto" markerUnits="userSpaceOnUse" stroke-dasharray="0,0"><path id="SvgjsPath1247" d="M0,0 L13,4.5 L0,9 L0,0" fill="#323232" stroke="#323232" stroke-width="1"></path></marker><marker id="SvgjsMarker1250" markerWidth="13" markerHeight="9" refX="9.5" refY="4.5" viewBox="0 0 13 9" orient="auto" markerUnits="userSpaceOnUse" stroke-dasharray="0,0"><path id="SvgjsPath1251" d="M0,0 L13,4.5 L0,9 L0,0" fill="#323232" stroke="#323232" stroke-width="1"></path></marker><marker id="SvgjsMarker1254" markerWidth="13" markerHeight="9" refX="9.5" refY="4.5" viewBox="0 0 13 9" orient="auto" markerUnits="userSpaceOnUse" stroke-dasharray="0,0"><path id="SvgjsPath1255" d="M0,0 L13,4.5 L0,9 L0,0" fill="#323232" stroke="#323232" stroke-width="1"></path></marker><marker id="SvgjsMarker1270" markerWidth="13" markerHeight="9" refX="9.5" refY="4.5" viewBox="0 0 13 9" orient="auto" markerUnits="userSpaceOnUse" stroke-dasharray="0,0"><path id="SvgjsPath1271" d="M0,0 L13,4.5 L0,9 L0,0" fill="#323232" stroke="#323232" stroke-width="1"></path></marker><marker id="SvgjsMarker1274" markerWidth="13" markerHeight="9" refX="9.5" refY="4.5" viewBox="0 0 13 9" orient="auto" markerUnits="userSpaceOnUse" stroke-dasharray="0,0"><path id="SvgjsPath1275" d="M0,0 L13,4.5 L0,9 L0,0" fill="#323232" stroke="#323232" stroke-width="1"></path></marker><marker id="SvgjsMarker1278" markerWidth="13" markerHeight="9" refX="9.5" refY="4.5" viewBox="0 0 13 9" orient="auto" markerUnits="userSpaceOnUse" stroke-dasharray="0,0"><path id="SvgjsPath1279" d="M0,0 L13,4.5 L0,9 L0,0" fill="#323232" stroke="#323232" stroke-width="1"></path></marker><marker id="SvgjsMarker1282" markerWidth="13" markerHeight="9" refX="9.5" refY="4.5" viewBox="0 0 13 9" orient="auto" markerUnits="userSpaceOnUse" stroke-dasharray="0,0"><path id="SvgjsPath1283" d="M0,0 L13,4.5 L0,9 L0,0" fill="#323232" stroke="#323232" stroke-width="1"></path></marker><marker id="SvgjsMarker1286" markerWidth="13" markerHeight="9" refX="9.5" refY="4.5" viewBox="0 0 13 9" orient="auto" markerUnits="userSpaceOnUse" stroke-dasharray="0,0"><path id="SvgjsPath1287" d="M0,0 L13,4.5 L0,9 L0,0" fill="#323232" stroke="#323232" stroke-width="1"></path></marker><marker id="SvgjsMarker1290" markerWidth="13" markerHeight="9" refX="9.5" refY="4.5" viewBox="0 0 13 9" orient="auto" markerUnits="userSpaceOnUse" stroke-dasharray="0,0"><path id="SvgjsPath1291" d="M0,0 L13,4.5 L0,9 L0,0" fill="#323232" stroke="#323232" stroke-width="1"></path></marker><marker id="SvgjsMarker1294" markerWidth="13" markerHeight="9" refX="9.5" refY="4.5" viewBox="0 0 13 9" orient="auto" markerUnits="userSpaceOnUse" stroke-dasharray="0,0"><path id="SvgjsPath1295" d="M0,0 L13,4.5 L0,9 L0,0" fill="#323232" stroke="#323232" stroke-width="1"></path></marker><marker id="SvgjsMarker1298" markerWidth="13" markerHeight="9" refX="9.5" refY="4.5" viewBox="0 0 13 9" orient="auto" markerUnits="userSpaceOnUse" stroke-dasharray="0,0"><path id="SvgjsPath1299" d="M0,0 L13,4.5 L0,9 L0,0" fill="#323232" stroke="#323232" stroke-width="1"></path></marker><marker id="SvgjsMarker1302" markerWidth="13" markerHeight="9" refX="9.5" refY="4.5" viewBox="0 0 13 9" orient="auto" markerUnits="userSpaceOnUse" stroke-dasharray="0,0"><path id="SvgjsPath1303" d="M0,0 L13,4.5 L0,9 L0,0" fill="#323232" stroke="#323232" stroke-width="1"></path></marker></defs><rect id="svgbackgroundid" width="1083" height="479.5781071980794" fill="transparent"></rect><rect id="SvgjsRect1158" width="1083" height="479.5781071980794" fill="url(#pattern_mark_0)"></rect><rect id="SvgjsRect1159" width="1083" height="479.5781071980794" fill="url(#pattern_mark_1)"></rect><g id="SvgjsG1160" transform="translate(41.718719482422046,24.99480438232422)"><path id="SvgjsPath1161" d="M 0 0L 1000 0L 1000 55L 0 55Z" stroke="none" fill="url(#SvgjsPattern1162)"></path></g><g id="SvgjsG1164" transform="translate(486.4478861490885,53.70313771565756)"><path id="SvgjsPath1165" d="M 0 0L 91.02083333333337 0L 91.02083333333337 20.749999999999993L 0 20.749999999999993Z" stroke-dasharray="10,6,3,6" stroke="rgba(239,236,235,0.55)" stroke-width="2" fill-opacity="0.55" fill="#c1bfb7"></path><g id="SvgjsG1166"><text id="SvgjsText1167" font-family="微软雅黑" text-anchor="middle" font-size="13px" width="72px" fill="#323232" font-weight="400" align="middle" lineHeight="125%" anchor="middle" family="微软雅黑" size="13px" weight="400" font-style="" opacity="0.55" y="-0.25000000000000355" transform="rotate(0)"></text></g></g><g id="SvgjsG1168" transform="translate(25.010386149088504,264.07813771565753)"><path id="SvgjsPath1169" d="M 0 4Q 0 0 4 0L 1029.4166666666667 0Q 1033.4166666666667 0 1033.4166666666667 4L 1033.4166666666667 38Q 1033.4166666666667 42 1029.4166666666667 42L 4 42Q 0 42 0 38Z" stroke="rgba(33,41,48,1)" stroke-width="1.5" fill-opacity="1" fill="#e7ebed"></path><g id="SvgjsG1170"><text id="SvgjsText1171" font-family="微软雅黑" text-anchor="middle" font-size="13px" width="1014px" fill="#323232" font-weight="400" align="middle" lineHeight="125%" anchor="middle" family="微软雅黑" size="13px" weight="400" font-style="" opacity="1" y="10.375" transform="rotate(0)"></text></g></g><g id="SvgjsG1172" transform="translate(30.510386149088546,275.5781377156576)"><path id="SvgjsPath1173" d="M 0 0L 85.50000000000001 0L 85.50000000000001 18.666666666666515L 0 18.666666666666515Z" stroke="rgba(33,41,48,1)" stroke-width="1.5" fill-opacity="1" fill="#ffffff"></path><g id="SvgjsG1174"><text id="SvgjsText1175" font-family="微软雅黑" text-anchor="middle" font-size="13px" width="66px" fill="#323232" font-weight="400" align="middle" lineHeight="125%" anchor="middle" family="微软雅黑" size="13px" weight="400" font-style="" opacity="1" y="-1.2916666666667425" transform="rotate(0)"></text></g></g><g id="SvgjsG1176" transform="translate(284.6770528157552,275.5781377156576)"><path id="SvgjsPath1177" d="M 0 0L 138.62500000000006 0L 138.62500000000006 18.666666666666515L 0 18.666666666666515Z" stroke="rgba(33,41,48,1)" stroke-width="1.5" fill-opacity="1" fill="#ffffff"></path><g id="SvgjsG1178"><text id="SvgjsText1179" font-family="微软雅黑" text-anchor="middle" font-size="13px" width="119px" fill="#323232" font-weight="400" align="middle" lineHeight="125%" anchor="middle" family="微软雅黑" size="13px" weight="400" font-style="" opacity="1" y="-1.2916666666667425" transform="rotate(0)"></text></g></g><g id="SvgjsG1180" transform="translate(629.4687194824219,275.5781377156576)"><path id="SvgjsPath1181" d="M 0 0L 115.70833333333337 0L 115.70833333333337 18.999999999999886L 0 18.999999999999886Z" stroke="rgba(33,41,48,1)" stroke-width="1.5" fill-opacity="1" fill="#ffffff"></path><g id="SvgjsG1182"><text id="SvgjsText1183" font-family="微软雅黑" text-anchor="middle" font-size="13px" width="96px" fill="#323232" font-weight="400" align="middle" lineHeight="125%" anchor="middle" family="微软雅黑" size="13px" weight="400" font-style="" opacity="1" y="-1.1250000000000568" transform="rotate(0)"></text></g></g><g id="SvgjsG1184" transform="translate(759.6770528157551,275.5781377156576)"><path id="SvgjsPath1185" d="M 0 0L 119.87500000000011 0L 119.87500000000011 18.999999999999886L 0 18.999999999999886Z" stroke="rgba(33,41,48,1)" stroke-width="1.5" fill-opacity="1" fill="#ffffff"></path><g id="SvgjsG1186"><text id="SvgjsText1187" font-family="微软雅黑" text-anchor="middle" font-size="13px" width="100px" fill="#323232" font-weight="400" align="middle" lineHeight="125%" anchor="middle" family="微软雅黑" size="13px" weight="400" font-style="" opacity="1" y="-1.1250000000000568" transform="rotate(0)"></text></g></g><g id="SvgjsG1188" transform="translate(30.218719482421875,264.91147104899085)"><path id="SvgjsPath1189" d="M 0 0L 1023 0L 1023 40L 0 40Z" stroke="none" fill="none"></path><g id="SvgjsG1190"><text id="SvgjsText1191" font-family="微软雅黑" text-anchor="middle" font-size="17px" width="1023px" fill="#323232" font-weight="400" align="middle" lineHeight="125%" anchor="middle" family="微软雅黑" size="17px" weight="400" font-style="" opacity="1" y="5.375" transform="rotate(0)"><tspan id="SvgjsTspan1192" dy="21.25" x="511.5"><tspan id="SvgjsTspan1193" style="font-weight: bold;fill: rgb(162, 55, 53);">execution（modifiers-pattern? ret-type-pattern declaring-type-pattern? name-pattern（param-pattern） throws-pattern?）</tspan></tspan></text></g></g><g id="SvgjsG1194" transform="translate(447.0937194824219,419.57813771565753)"><path id="SvgjsPath1195" d="M 0 4Q 0 0 4 0L 185.25 0Q 189.25 0 189.25 4L 189.25 31Q 189.25 35 185.25 35L 4 35Q 0 35 0 31Z" stroke="rgba(33,41,48,1)" stroke-width="1.5" fill-opacity="1" fill="#fcf9ea"></path><g id="SvgjsG1196"><text id="SvgjsText1197" font-family="微软雅黑" text-anchor="middle" font-size="13px" width="170px" fill="#5b79e8" font-weight="400" align="middle" lineHeight="125%" anchor="middle" family="微软雅黑" size="13px" weight="400" font-style="" opacity="1" y="6.875" transform="rotate(0)"></text></g></g><g id="SvgjsG1198" transform="translate(442.6562194824219,419.57813771565753)"><path id="SvgjsPath1199" d="M 0 0L 198.125 0L 198.125 35L 0 35Z" stroke="none" fill="none"></path><g id="SvgjsG1200"><text id="SvgjsText1201" font-family="微软雅黑" text-anchor="middle" font-size="17px" width="199px" fill="#5b79e8" font-weight="700" align="middle" lineHeight="125%" anchor="middle" family="微软雅黑" size="17px" weight="700" font-style="italic" opacity="1" y="2.875" transform="rotate(0)"><tspan id="SvgjsTspan1202" dy="21.25" x="99.5"><tspan id="SvgjsTspan1203" style="">一个表达式必选的部份</tspan></tspan></text></g></g><g id="SvgjsG1204" transform="translate(467.0937194824219,151.16147104899082)"><path id="SvgjsPath1205" d="M 0 4Q 0 0 4 0L 79.02083333333337 0Q 83.02083333333337 0 83.02083333333337 4L 83.02083333333337 22.416666666666742Q 83.02083333333337 26.416666666666742 79.02083333333337 26.416666666666742L 4 26.416666666666742Q 0 26.416666666666742 0 22.416666666666742Z" stroke="rgba(33,41,48,1)" stroke-width="1.5" fill-opacity="1" fill="#fcf9ea"></path><g id="SvgjsG1206"><text id="SvgjsText1207" font-family="微软雅黑" text-anchor="middle" font-size="13px" width="64px" fill="#5b79e8" font-weight="400" align="middle" lineHeight="125%" anchor="middle" family="微软雅黑" size="13px" weight="400" font-style="" opacity="1" y="2.5833333333333712" transform="rotate(0)"></text></g></g><g id="SvgjsG1208" transform="translate(462.6562194824219,144.3698043823242)"><path id="SvgjsPath1209" d="M 0 0L 91.89583333333337 0L 91.89583333333337 40L 0 40Z" stroke="none" fill="none"></path><g id="SvgjsG1210"><text id="SvgjsText1211" font-family="微软雅黑" text-anchor="middle" font-size="13px" width="92px" fill="#5b79e8" font-weight="700" align="middle" lineHeight="125%" anchor="middle" family="微软雅黑" size="13px" weight="700" font-style="italic" opacity="1" y="9.375" transform="rotate(0)"><tspan id="SvgjsTspan1212" dy="16.25" x="46"><tspan id="SvgjsTspan1213" style="">切入点指示符</tspan></tspan></text></g></g><g id="SvgjsG1214" transform="translate(592.6353861490885,151.16147104899082)"><path id="SvgjsPath1215" d="M 0 4Q 0 0 4 0L 79.02083333333337 0Q 83.02083333333337 0 83.02083333333337 4L 83.02083333333337 22.416666666666742Q 83.02083333333337 26.416666666666742 79.02083333333337 26.416666666666742L 4 26.416666666666742Q 0 26.416666666666742 0 22.416666666666742Z" stroke="rgba(33,41,48,1)" stroke-width="1.5" fill-opacity="1" fill="#fcf9ea"></path><g id="SvgjsG1216"><text id="SvgjsText1217" font-family="微软雅黑" text-anchor="middle" font-size="13px" width="64px" fill="#5b79e8" font-weight="400" align="middle" lineHeight="125%" anchor="middle" family="微软雅黑" size="13px" weight="400" font-style="" opacity="1" y="2.5833333333333712" transform="rotate(0)"></text></g></g><g id="SvgjsG1218" transform="translate(588.1978861490884,144.3698043823242)"><path id="SvgjsPath1219" d="M 0 0L 91.89583333333337 0L 91.89583333333337 40L 0 40Z" stroke="none" fill="none"></path><g id="SvgjsG1220"><text id="SvgjsText1221" font-family="微软雅黑" text-anchor="middle" font-size="13px" width="92px" fill="#5b79e8" font-weight="700" align="middle" lineHeight="125%" anchor="middle" family="微软雅黑" size="13px" weight="700" font-style="italic" opacity="1" y="9.375" transform="rotate(0)"><tspan id="SvgjsTspan1222" dy="16.25" x="46"><tspan id="SvgjsTspan1223" style="">返回类型</tspan></tspan></text></g></g><g id="SvgjsG1224" transform="translate(735.4270528157552,151.16147104899082)"><path id="SvgjsPath1225" d="M 0 4Q 0 0 4 0L 79.02083333333337 0Q 83.02083333333337 0 83.02083333333337 4L 83.02083333333337 22.416666666666742Q 83.02083333333337 26.416666666666742 79.02083333333337 26.416666666666742L 4 26.416666666666742Q 0 26.416666666666742 0 22.416666666666742Z" stroke="rgba(33,41,48,1)" stroke-width="1.5" fill-opacity="1" fill="#fcf9ea"></path><g id="SvgjsG1226"><text id="SvgjsText1227" font-family="微软雅黑" text-anchor="middle" font-size="13px" width="64px" fill="#5b79e8" font-weight="400" align="middle" lineHeight="125%" anchor="middle" family="微软雅黑" size="13px" weight="400" font-style="" opacity="1" y="2.5833333333333712" transform="rotate(0)"></text></g></g><g id="SvgjsG1228" transform="translate(730.9895528157551,144.3698043823242)"><path id="SvgjsPath1229" d="M 0 0L 91.89583333333337 0L 91.89583333333337 40L 0 40Z" stroke="none" fill="none"></path><g id="SvgjsG1230"><text id="SvgjsText1231" font-family="微软雅黑" text-anchor="middle" font-size="13px" width="92px" fill="#5b79e8" font-weight="700" align="middle" lineHeight="125%" anchor="middle" family="微软雅黑" size="13px" weight="700" font-style="italic" opacity="1" y="9.375" transform="rotate(0)"><tspan id="SvgjsTspan1232" dy="16.25" x="46"><tspan id="SvgjsTspan1233" style="">包和类</tspan></tspan></text></g></g><g id="SvgjsG1234" transform="translate(940.8437194824219,151.16147104899082)"><path id="SvgjsPath1235" d="M 0 4Q 0 0 4 0L 79.02083333333337 0Q 83.02083333333337 0 83.02083333333337 4L 83.02083333333337 22.416666666666742Q 83.02083333333337 26.416666666666742 79.02083333333337 26.416666666666742L 4 26.416666666666742Q 0 26.416666666666742 0 22.416666666666742Z" stroke="rgba(33,41,48,1)" stroke-width="1.5" fill-opacity="1" fill="#fcf9ea"></path><g id="SvgjsG1236"><text id="SvgjsText1237" font-family="微软雅黑" text-anchor="middle" font-size="13px" width="64px" fill="#5b79e8" font-weight="400" align="middle" lineHeight="125%" anchor="middle" family="微软雅黑" size="13px" weight="400" font-style="" opacity="1" y="2.5833333333333712" transform="rotate(0)"></text></g></g><g id="SvgjsG1238" transform="translate(936.4062194824218,144.3698043823242)"><path id="SvgjsPath1239" d="M 0 0L 91.89583333333337 0L 91.89583333333337 40L 0 40Z" stroke="none" fill="none"></path><g id="SvgjsG1240"><text id="SvgjsText1241" font-family="微软雅黑" text-anchor="middle" font-size="13px" width="92px" fill="#5b79e8" font-weight="700" align="middle" lineHeight="125%" anchor="middle" family="微软雅黑" size="13px" weight="700" font-style="italic" opacity="1" y="9.375" transform="rotate(0)"><tspan id="SvgjsTspan1242" dy="16.25" x="46"><tspan id="SvgjsTspan1243" style="">参数</tspan></tspan></text></g></g><g id="SvgjsG1244"><path id="SvgjsPath1245" d="M529.1539351146305 80.6621387248903C 529.5520528157552 106.91892688936714 469.13538614908856 91.11980438232422 507.29129052836106 142.01047473682388" stroke="#323232" stroke-width="1.5" fill="none" marker-end="url(#SvgjsMarker1246)"></path></g><g id="SvgjsG1248"><path id="SvgjsPath1249" d="M68.60851966919036 264.60345323436246C 247.26038614908856 148.4114710489909 491.0103861490886 255.70313771565753 507.7034481322178 186.91514543928793" stroke="#323232" stroke-width="1.5" fill="none" marker-end="url(#SvgjsMarker1250)"></path></g><g id="SvgjsG1252"><path id="SvgjsPath1253" d="M590.1860694405856 80.67923145894568C 589.9687194824219 111.02952906766116 634.1458028157551 113.04341303032058 633.5589579287132 141.73435127544622" stroke="#323232" stroke-width="1.5" fill="none" marker-end="url(#SvgjsMarker1254)"></path></g><g id="SvgjsG1256" transform="translate(582.5520528157551,53.70313771565755)"><path id="SvgjsPath1257" d="M 0 0L 20 0L 20 20.75L 0 20.75Z" stroke-dasharray="10,6,3,6" stroke="rgba(239,236,235,0.55)" stroke-width="2" fill-opacity="0.55" fill="#c1bfb7"></path><g id="SvgjsG1258"><text id="SvgjsText1259" font-family="微软雅黑" text-anchor="middle" font-size="13px" width="0px" fill="#323232" font-weight="400" align="middle" lineHeight="125%" anchor="middle" family="微软雅黑" size="13px" weight="400" font-style="" opacity="0.55" y="-0.25" transform="rotate(0)"></text></g></g><g id="SvgjsG1260" transform="translate(607.6353861490884,53.70313771565755)"><path id="SvgjsPath1261" d="M 0 0L 354.2083333333335 0L 354.2083333333335 20.75L 0 20.75Z" stroke-dasharray="10,6,3,6" stroke="rgba(239,236,235,0.55)" stroke-width="2" fill-opacity="0.55" fill="#c1bfb7"></path><g id="SvgjsG1262"><text id="SvgjsText1263" font-family="微软雅黑" text-anchor="middle" font-size="13px" width="335px" fill="#323232" font-weight="400" align="middle" lineHeight="125%" anchor="middle" family="微软雅黑" size="13px" weight="400" font-style="" opacity="0.55" y="-0.25" transform="rotate(0)"></text></g></g><g id="SvgjsG1264" transform="translate(967.4062194824221,53.70313771565755)"><path id="SvgjsPath1265" d="M 0 0L 34.02083333333326 0L 34.02083333333326 20.75L 0 20.75Z" stroke-dasharray="10,6,3,6" stroke="rgba(239,236,235,0.55)" stroke-width="2" fill-opacity="0.55" fill="#c1bfb7"></path><g id="SvgjsG1266"><text id="SvgjsText1267" font-family="微软雅黑" text-anchor="middle" font-size="13px" width="15px" fill="#323232" font-weight="400" align="middle" lineHeight="125%" anchor="middle" family="微软雅黑" size="13px" weight="400" font-style="" opacity="0.55" y="-0.25" transform="rotate(0)"></text></g></g><g id="SvgjsG1268"><path id="SvgjsPath1269" d="M369.8137591127522 264.54994484726205C 459.76038614908856 215.07813771565756 634.1458028157551 295.1566418256524 633.9519497506581 187.06283631476623" stroke="#323232" stroke-width="1.5" fill="none" marker-end="url(#SvgjsMarker1270)"></path></g><g id="SvgjsG1272"><path id="SvgjsPath1273" d="M63.23595543781731 305.4078286456813C 112.88538614908856 417.1614710489909 429.55205281575525 290.07813771565753 539.860105928362 417.61968024696824" stroke="#323232" stroke-width="1.5" fill="none" marker-end="url(#SvgjsMarker1274)"></path></g><g id="SvgjsG1276"><path id="SvgjsPath1277" d="M357.99319953668305 305.424915587089C 384.76038614908856 384.8698043823242 541.7187194824219 332.8066866374243 541.4348831096947 416.8930982534676" stroke="#323232" stroke-width="1.5" fill="none" marker-end="url(#SvgjsMarker1278)"></path></g><g id="SvgjsG1280"><path id="SvgjsPath1281" d="M677.3674931227814 306.52960846839187C 677.4687194824219 376.6402426101749 541.7187194824219 348.72436615447356 542.0831343771274 416.902843005814" stroke="#323232" stroke-width="1.5" fill="none" marker-end="url(#SvgjsMarker1282)"></path></g><g id="SvgjsG1284"><path id="SvgjsPath1285" d="M811.7888817784956 306.53446357985473C 811.8437194824219 423.0322361940248 611.8437194824219 337.9948043823242 543.6315859823997 417.6726346972231" stroke="#323232" stroke-width="1.5" fill="none" marker-end="url(#SvgjsMarker1286)"></path></g><g id="SvgjsG1288"><path id="SvgjsPath1289" d="M784.6941427914028 75.45210614843624C 784.7395528157551 102.59339438006783 776.9374694824219 116.2295477179139 777.0600765481734 141.6725896138217" stroke="#323232" stroke-width="1.5" fill="none" marker-end="url(#SvgjsMarker1290)"></path></g><g id="SvgjsG1292"><path id="SvgjsPath1293" d="M984.4045138174529 75.45306423749588C 984.4166361490888 102.43197024034384 982.3541361490884 116.39097185763788 982.3868664445058 141.6700027733607" stroke="#323232" stroke-width="1.5" fill="none" marker-end="url(#SvgjsMarker1294)"></path></g><g id="SvgjsG1296"><path id="SvgjsPath1297" d="M684.9053124727684 264.17560668601044C 684.7603861490886 215.94850584256622 776.9374694824219 233.33276958874887 776.4157347171747 187.0189160890539" stroke="#323232" stroke-width="1.5" fill="none" marker-end="url(#SvgjsMarker1298)"></path></g><g id="SvgjsG1300"><path id="SvgjsPath1301" d="M809.8751456073472 264.25363620522796C 809.7603861490886 188.7961239065444 982.3541361490884 260.568484858104 981.9410020993574 187.03800981987072" stroke="#323232" stroke-width="1.5" fill="none" marker-end="url(#SvgjsMarker1302)"></path></g></svg>