<svg id="SvgjsSvg1093" width="350" height="410" xmlns="http://www.w3.org/2000/svg" version="1.1" xmlns:xlink="http://www.w3.org/1999/xlink" xmlns:svgjs="http://svgjs.com/svgjs"><defs id="SvgjsDefs1094"><pattern patternUnits="userSpaceOnUse" id="pattern_mark_0" width="300" height="300"><text x="150" y="100" fill="rgba(223,221,218,0.8)" font-size="18" transform="rotate(-45, 150, 150)" style="dominant-baseline: middle; text-anchor: middle;"></text></pattern><pattern patternUnits="userSpaceOnUse" id="pattern_mark_1" width="300" height="300"><text x="150" y="200" fill="rgba(223,221,218,0.8)" font-size="18" transform="rotate(-45, 150, 150)" style="dominant-baseline: middle; text-anchor: middle;"></text></pattern><marker id="SvgjsMarker1104" markerWidth="13" markerHeight="9" refX="3.5" refY="4.5" viewBox="0 0 13 9" orient="auto" markerUnits="userSpaceOnUse" stroke-dasharray="0,0"><path id="SvgjsPath1105" d="M13,0 L0,4.5 L13,9 L13,0" fill="#a7932c" stroke="#a7932c" stroke-width="1"></path></marker><marker id="SvgjsMarker1108" markerWidth="13" markerHeight="9" refX="3.5" refY="4.5" viewBox="0 0 13 9" orient="auto" markerUnits="userSpaceOnUse" stroke-dasharray="0,0"><path id="SvgjsPath1109" d="M13,0 L0,4.5 L13,9 L13,0" fill="#5b79e8" stroke="#5b79e8" stroke-width="1"></path></marker><pattern id="SvgjsPattern1120" x="0" y="0" width="100" height="23" patternUnits="userSpaceOnUse"><image id="SvgjsImage1121" xlink:href="https://cdn.processon.com/userId2-65f73259ea48f76ef0303dcc?e=1710702698&amp;token=trhI0BY8QfVrIGn9nENop6JAc6l5nZuxhjQ62UfM:XzJzpNK4L5owb-JzzVtp1H3QVpo=" width="100" height="23" preserveAspectRatio="none" crossOrigin="anonymous" x="0" y="0"></image></pattern></defs><rect id="svgbackgroundid" width="350" height="410" fill="#f8f6f3"></rect><rect id="SvgjsRect1096" width="350" height="410" fill="url(#pattern_mark_0)"></rect><rect id="SvgjsRect1097" width="350" height="410" fill="url(#pattern_mark_1)"></rect><g id="SvgjsG1098" transform="translate(25,85)"><path id="SvgjsPath1099" d="M 0 150C 0 -50 300 -50 300 150C 300 350 0 350 0 150Z" stroke="rgba(33,41,48,1)" stroke-width="1.5" fill-opacity="1" fill="#d2e7ea"></path><g id="SvgjsG1100"><text id="SvgjsText1101" font-family="&quot;Comic Sans MS&quot;" text-anchor="middle" font-size="13px" width="280px" fill="#323232" font-weight="700" align="middle" lineHeight="125%" anchor="middle" family="&quot;Comic Sans MS&quot;" size="13px" weight="700" font-style="" opacity="1" y="139.375" transform="rotate(0)"></text></g></g><g id="SvgjsG1102"><path id="SvgjsPath1103" d="M173.05761605633302 83.12459481301117L130.38461538461542 41.92307692307692" stroke="#a7932c" stroke-width="1.5" fill="none" marker-start="url(#SvgjsMarker1104)"></path></g><g id="SvgjsG1106"><path id="SvgjsPath1107" d="M176.92571714211016 83.1074848775814L219.61538461538464 41.153846153846146" stroke="#5b79e8" stroke-width="1.5" fill="none" marker-start="url(#SvgjsMarker1108)"></path></g><g id="SvgjsG1110" transform="translate(178.07692307692315,25)"><path id="SvgjsPath1111" d="M 0 0L 100 0L 100 40L 0 40Z" stroke="none" fill="none"></path><g id="SvgjsG1112"><text id="SvgjsText1113" font-family="&quot;Comic Sans MS&quot;" text-anchor="middle" font-size="13px" width="100px" fill="#323232" font-weight="700" align="middle" lineHeight="125%" anchor="middle" family="&quot;Comic Sans MS&quot;" size="13px" weight="700" font-style="" opacity="1" y="9.375" transform="rotate(0)"><tspan id="SvgjsTspan1114" dy="16.25" x="50"><tspan id="SvgjsTspan1115" style="">0</tspan></tspan></text></g></g><g id="SvgjsG1116" transform="translate(53.46153846153845,25)"><path id="SvgjsPath1117" d="M 0 0L 100 0L 100 40L 0 40Z" stroke="none" fill="none"></path><g id="SvgjsG1118"><rect id="SvgjsRect1119" width="100" height="23" transform="translate(0,8.5)" fill="url(#SvgjsPattern1120)"></rect></g></g></svg>