<svg id="SvgjsSvg1006" width="694.1818181818182" height="576" xmlns="http://www.w3.org/2000/svg" version="1.1" xmlns:xlink="http://www.w3.org/1999/xlink" xmlns:svgjs="http://svgjs.com/svgjs"><defs id="SvgjsDefs1007"><pattern patternUnits="userSpaceOnUse" id="pattern_mark_0" width="300" height="300"><text x="150" y="100" fill="rgba(229,229,229,0.8)" font-size="18" transform="rotate(-45, 150, 150)" style="dominant-baseline: middle; text-anchor: middle;"></text></pattern><pattern patternUnits="userSpaceOnUse" id="pattern_mark_1" width="300" height="300"><text x="150" y="200" fill="rgba(229,229,229,0.8)" font-size="18" transform="rotate(-45, 150, 150)" style="dominant-baseline: middle; text-anchor: middle;"></text></pattern><marker id="SvgjsMarker1025" markerWidth="13" markerHeight="9" refX="9.5" refY="4.5" viewBox="0 0 13 9" orient="auto" markerUnits="userSpaceOnUse" stroke-dasharray="0,0"><path id="SvgjsPath1026" d="M0,0 L13,4.5 L0,9 L0,0" fill="#e9d66f" stroke="#e9d66f" stroke-width="1"></path></marker><marker id="SvgjsMarker1029" markerWidth="13" markerHeight="9" refX="9.5" refY="4.5" viewBox="0 0 13 9" orient="auto" markerUnits="userSpaceOnUse" stroke-dasharray="0,0"><path id="SvgjsPath1030" d="M0,0 L13,4.5 L0,9 L0,0" fill="#323232" stroke="#323232" stroke-width="1"></path></marker><marker id="SvgjsMarker1033" markerWidth="13" markerHeight="9" refX="9.5" refY="4.5" viewBox="0 0 13 9" orient="auto" markerUnits="userSpaceOnUse" stroke-dasharray="0,0"><path id="SvgjsPath1034" d="M0,0 L13,4.5 L0,9 L0,0" fill="#323232" stroke="#323232" stroke-width="1"></path></marker><marker id="SvgjsMarker1043" markerWidth="13" markerHeight="9" refX="9.5" refY="4.5" viewBox="0 0 13 9" orient="auto" markerUnits="userSpaceOnUse" stroke-dasharray="0,0"><path id="SvgjsPath1044" d="M0,0 L13,4.5 L0,9 L0,0" fill="#323232" stroke="#323232" stroke-width="1"></path></marker><marker id="SvgjsMarker1097" markerWidth="13" markerHeight="9" refX="9.5" refY="4.5" viewBox="0 0 13 9" orient="auto" markerUnits="userSpaceOnUse" stroke-dasharray="0,0"><path id="SvgjsPath1098" d="M0,0 L13,4.5 L0,9 L0,0" fill="#323232" stroke="#323232" stroke-width="1"></path></marker><marker id="SvgjsMarker1101" markerWidth="13" markerHeight="9" refX="9.5" refY="4.5" viewBox="0 0 13 9" orient="auto" markerUnits="userSpaceOnUse" stroke-dasharray="0,0"><path id="SvgjsPath1102" d="M0,0 L13,4.5 L0,9 L0,0" fill="#323232" stroke="#323232" stroke-width="1"></path></marker><marker id="SvgjsMarker1105" markerWidth="13" markerHeight="9" refX="9.5" refY="4.5" viewBox="0 0 13 9" orient="auto" markerUnits="userSpaceOnUse" stroke-dasharray="0,0"><path id="SvgjsPath1106" d="M0,0 L13,4.5 L0,9 L0,0" fill="#323232" stroke="#323232" stroke-width="1"></path></marker><marker id="SvgjsMarker1109" markerWidth="13" markerHeight="9" refX="9.5" refY="4.5" viewBox="0 0 13 9" orient="auto" markerUnits="userSpaceOnUse" stroke-dasharray="0,0"><path id="SvgjsPath1110" d="M0,0 L13,4.5 L0,9 L0,0" fill="#323232" stroke="#323232" stroke-width="1"></path></marker><marker id="SvgjsMarker1113" markerWidth="13" markerHeight="9" refX="9.5" refY="4.5" viewBox="0 0 13 9" orient="auto" markerUnits="userSpaceOnUse" stroke-dasharray="0,0"><path id="SvgjsPath1114" d="M0,0 L13,4.5 L0,9 L0,0" fill="#323232" stroke="#323232" stroke-width="1"></path></marker><marker id="SvgjsMarker1163" markerWidth="13" markerHeight="9" refX="9.5" refY="4.5" viewBox="0 0 13 9" orient="auto" markerUnits="userSpaceOnUse" stroke-dasharray="0,0"><path id="SvgjsPath1164" d="M0,0 L13,4.5 L0,9 L0,0" fill="#e9d66f" stroke="#e9d66f" stroke-width="1"></path></marker><marker id="SvgjsMarker1167" markerWidth="13" markerHeight="9" refX="9.5" refY="4.5" viewBox="0 0 13 9" orient="auto" markerUnits="userSpaceOnUse" stroke-dasharray="0,0"><path id="SvgjsPath1168" d="M0,0 L13,4.5 L0,9 L0,0" fill="#e9d66f" stroke="#e9d66f" stroke-width="1"></path></marker><marker id="SvgjsMarker1171" markerWidth="13" markerHeight="9" refX="9.5" refY="4.5" viewBox="0 0 13 9" orient="auto" markerUnits="userSpaceOnUse" stroke-dasharray="0,0"><path id="SvgjsPath1172" d="M0,0 L13,4.5 L0,9 L0,0" fill="#e9d66f" stroke="#e9d66f" stroke-width="1"></path></marker><marker id="SvgjsMarker1175" markerWidth="13" markerHeight="9" refX="9.5" refY="4.5" viewBox="0 0 13 9" orient="auto" markerUnits="userSpaceOnUse" stroke-dasharray="0,0"><path id="SvgjsPath1176" d="M0,0 L13,4.5 L0,9 L0,0" fill="#323232" stroke="#323232" stroke-width="1"></path></marker><marker id="SvgjsMarker1179" markerWidth="13" markerHeight="9" refX="9.5" refY="4.5" viewBox="0 0 13 9" orient="auto" markerUnits="userSpaceOnUse" stroke-dasharray="0,0"><path id="SvgjsPath1180" d="M0,0 L13,4.5 L0,9 L0,0" fill="#e9d66f" stroke="#e9d66f" stroke-width="1"></path></marker><marker id="SvgjsMarker1183" markerWidth="13" markerHeight="9" refX="9.5" refY="4.5" viewBox="0 0 13 9" orient="auto" markerUnits="userSpaceOnUse" stroke-dasharray="0,0"><path id="SvgjsPath1184" d="M0,0 L13,4.5 L0,9 L0,0" fill="#323232" stroke="#323232" stroke-width="1"></path></marker></defs><rect id="svgbackgroundid" width="694.1818181818182" height="576" fill="transparent"></rect><rect id="SvgjsRect1009" width="694.1818181818182" height="576" fill="url(#pattern_mark_0)"></rect><rect id="SvgjsRect1010" width="694.1818181818182" height="576" fill="url(#pattern_mark_1)"></rect><g id="SvgjsG1011" transform="translate(387,101.5)"><path id="SvgjsPath1012" d="M 0 22.5C 0 -7.5 86 -7.5 86 22.5C 86 52.5 0 52.5 0 22.5Z" stroke="rgba(33,41,48,1)" stroke-width="1.5" fill-opacity="1" fill="#f19594"></path><g id="SvgjsG1013"><text id="SvgjsText1014" font-family="微软雅黑" text-anchor="middle" font-size="13px" width="66px" fill="#323232" font-weight="700" align="middle" lineHeight="125%" anchor="middle" family="微软雅黑" size="13px" weight="700" font-style="" opacity="1" y="11.875" transform="rotate(0)"><tspan id="SvgjsTspan1015" dy="16.25" x="43"><tspan id="SvgjsTspan1016" style="">Object</tspan></tspan></text></g></g><g id="SvgjsG1017" transform="translate(78,25)"><path id="SvgjsPath1018" d="M 0 0L 100 0L 100 20L 0 20Z" stroke="none" fill="none"></path><g id="SvgjsG1019"><text id="SvgjsText1020" font-family="微软雅黑" text-anchor="middle" font-size="13px" width="100px" fill="#323232" font-weight="700" align="middle" lineHeight="125%" anchor="middle" family="微软雅黑" size="13px" weight="700" font-style="" opacity="1" y="-0.625" transform="rotate(0)"><tspan id="SvgjsTspan1021" dy="16.25" x="50"><tspan id="SvgjsTspan1022" style="">以下四种引用</tspan></tspan></text></g></g><g id="SvgjsG1023"><path id="SvgjsPath1024" d="M25 111.5L73 111.5L73 111.5L118.3 111.5" stroke="#e9d66f" stroke-width="1.5" fill="none" marker-end="url(#SvgjsMarker1025)"></path></g><g id="SvgjsG1027"><path id="SvgjsPath1028" d="M25 137L72.5 137L72.5 137L117.3 137" stroke-dasharray="3,3" stroke="#323232" stroke-width="1.5" fill="none" marker-end="url(#SvgjsMarker1029)"></path></g><g id="SvgjsG1031"><path id="SvgjsPath1032" d="M25 162.5L73 162.5L73 162.5L118.3 162.5" stroke-dasharray="10,5,3,5" stroke="#323232" stroke-width="1.5" fill="none" marker-end="url(#SvgjsMarker1033)"></path></g><g id="SvgjsG1035" transform="translate(121,72)"><path id="SvgjsPath1036" d="M 0 0L 80 0L 80 20L 0 20Z" stroke="none" fill="none"></path><g id="SvgjsG1037"><text id="SvgjsText1038" font-family="微软雅黑" text-anchor="middle" font-size="13px" width="80px" fill="#323232" font-weight="400" align="middle" lineHeight="125%" anchor="middle" family="微软雅黑" size="13px" weight="400" font-style="" opacity="1" y="-0.625" transform="rotate(0)"><tspan id="SvgjsTspan1039" dy="16.25" x="40"><tspan id="SvgjsTspan1040" style="">强引用</tspan></tspan></text></g></g><g id="SvgjsG1041"><path id="SvgjsPath1042" d="M25 82L73 82L73 82L118.3 82" stroke="#323232" stroke-width="1.5" fill="none" marker-end="url(#SvgjsMarker1043)"></path></g><g id="SvgjsG1045" transform="translate(121,101.5)"><path id="SvgjsPath1046" d="M 0 0L 80 0L 80 20L 0 20Z" stroke="none" fill="none"></path><g id="SvgjsG1047"><text id="SvgjsText1048" font-family="微软雅黑" text-anchor="middle" font-size="13px" width="80px" fill="#323232" font-weight="400" align="middle" lineHeight="125%" anchor="middle" family="微软雅黑" size="13px" weight="400" font-style="" opacity="1" y="-0.625" transform="rotate(0)"><tspan id="SvgjsTspan1049" dy="16.25" x="40"><tspan id="SvgjsTspan1050" style="">软引用</tspan></tspan></text></g></g><g id="SvgjsG1051" transform="translate(120,127)"><path id="SvgjsPath1052" d="M 0 0L 80 0L 80 20L 0 20Z" stroke="none" fill="none"></path><g id="SvgjsG1053"><text id="SvgjsText1054" font-family="微软雅黑" text-anchor="middle" font-size="13px" width="80px" fill="#323232" font-weight="400" align="middle" lineHeight="125%" anchor="middle" family="微软雅黑" size="13px" weight="400" font-style="" opacity="1" y="-0.625" transform="rotate(0)"><tspan id="SvgjsTspan1055" dy="16.25" x="40"><tspan id="SvgjsTspan1056" style="">弱引用</tspan></tspan></text></g></g><g id="SvgjsG1057" transform="translate(121,152.5)"><path id="SvgjsPath1058" d="M 0 0L 80 0L 80 20L 0 20Z" stroke="none" fill="none"></path><g id="SvgjsG1059"><text id="SvgjsText1060" font-family="微软雅黑" text-anchor="middle" font-size="13px" width="80px" fill="#323232" font-weight="400" align="middle" lineHeight="125%" anchor="middle" family="微软雅黑" size="13px" weight="400" font-style="" opacity="1" y="-0.625" transform="rotate(0)"><tspan id="SvgjsTspan1061" dy="16.25" x="40"><tspan id="SvgjsTspan1062" style="">虚引用</tspan></tspan></text></g></g><g id="SvgjsG1063" transform="translate(211,191)"><path id="SvgjsPath1064" d="M 0 22.5C 0 -7.5 86 -7.5 86 22.5C 86 52.5 0 52.5 0 22.5Z" stroke="rgba(33,41,48,1)" stroke-width="1.5" fill-opacity="1" fill="#f19594"></path><g id="SvgjsG1065"><text id="SvgjsText1066" font-family="微软雅黑" text-anchor="middle" font-size="13px" width="66px" fill="#323232" font-weight="700" align="middle" lineHeight="125%" anchor="middle" family="微软雅黑" size="13px" weight="700" font-style="" opacity="1" y="11.875" transform="rotate(0)"></text></g></g><g id="SvgjsG1067" transform="translate(323,194)"><path id="SvgjsPath1068" d="M 0 22.5C 0 -7.5 86 -7.5 86 22.5C 86 52.5 0 52.5 0 22.5Z" stroke="rgba(33,41,48,1)" stroke-width="1.5" fill-opacity="1" fill="#f19594"></path><g id="SvgjsG1069"><text id="SvgjsText1070" font-family="微软雅黑" text-anchor="middle" font-size="13px" width="66px" fill="#323232" font-weight="700" align="middle" lineHeight="125%" anchor="middle" family="微软雅黑" size="13px" weight="700" font-style="" opacity="1" y="11.875" transform="rotate(0)"></text></g></g><g id="SvgjsG1071" transform="translate(449,194)"><path id="SvgjsPath1072" d="M 0 22.5C 0 -7.5 86 -7.5 86 22.5C 86 52.5 0 52.5 0 22.5Z" stroke="rgba(33,41,48,1)" stroke-width="1.5" fill-opacity="1" fill="#f19594"></path><g id="SvgjsG1073"><text id="SvgjsText1074" font-family="微软雅黑" text-anchor="middle" font-size="13px" width="66px" fill="#323232" font-weight="700" align="middle" lineHeight="125%" anchor="middle" family="微软雅黑" size="13px" weight="700" font-style="" opacity="1" y="11.875" transform="rotate(0)"></text></g></g><g id="SvgjsG1075" transform="translate(575,194)"><path id="SvgjsPath1076" d="M 0 22.5C 0 -7.5 86 -7.5 86 22.5C 86 52.5 0 52.5 0 22.5Z" stroke="rgba(33,41,48,1)" stroke-width="1.5" fill-opacity="1" fill="#f19594"></path><g id="SvgjsG1077"><text id="SvgjsText1078" font-family="微软雅黑" text-anchor="middle" font-size="13px" width="66px" fill="#323232" font-weight="700" align="middle" lineHeight="125%" anchor="middle" family="微软雅黑" size="13px" weight="700" font-style="" opacity="1" y="11.875" transform="rotate(0)"></text></g></g><g id="SvgjsG1079" transform="translate(211,273)"><path id="SvgjsPath1080" d="M 0 22.5C 0 -7.5 86 -7.5 86 22.5C 86 52.5 0 52.5 0 22.5Z" stroke="rgba(33,41,48,1)" stroke-width="1.5" fill-opacity="1" fill="#f19594"></path><g id="SvgjsG1081"><text id="SvgjsText1082" font-family="微软雅黑" text-anchor="middle" font-size="13px" width="66px" fill="#323232" font-weight="700" align="middle" lineHeight="125%" anchor="middle" family="微软雅黑" size="13px" weight="700" font-style="" opacity="1" y="11.875" transform="rotate(0)"></text></g></g><g id="SvgjsG1083" transform="translate(38.181818181818244,367)"><path id="SvgjsPath1084" d="M 0 0L 631 0L 631 184L 0 184Z" stroke="rgba(33,41,48,1)" stroke-width="1.5" fill-opacity="1" fill="#f2f2f2"></path><g id="SvgjsG1085"><text id="SvgjsText1086" font-family="微软雅黑" text-anchor="middle" font-size="13px" width="611px" fill="#323232" font-weight="400" align="middle" lineHeight="125%" anchor="middle" family="微软雅黑" size="13px" weight="400" font-style="" opacity="1" y="81.375" transform="rotate(0)"></text></g></g><g id="SvgjsG1087" transform="translate(87.18181818181824,387)"><path id="SvgjsPath1088" d="M 0 22.5C 0 -7.5 86 -7.5 86 22.5C 86 52.5 0 52.5 0 22.5Z" stroke-dasharray="10,6" stroke="rgba(33,41,48,1)" stroke-width="1.5" fill-opacity="1" fill="#a6aef3"></path><g id="SvgjsG1089"><text id="SvgjsText1090" font-family="微软雅黑" text-anchor="middle" font-size="12px" width="66px" fill="#323232" font-weight="400" align="middle" lineHeight="125%" anchor="middle" family="微软雅黑" size="12px" weight="400" font-style="" opacity="1" y="5" transform="rotate(0)"><tspan id="SvgjsTspan1091" dy="15" x="43"><tspan id="SvgjsTspan1092" style="">与根对象无</tspan></tspan><tspan id="SvgjsTspan1093" dy="15" x="43"><tspan id="SvgjsTspan1094" style="">联系</tspan></tspan></text></g></g><g id="SvgjsG1095"><path id="SvgjsPath1096" d="M429.27288176390476 146.68384523583092L256.61762564994297 190.33815715100874" stroke="#323232" stroke-width="1.5" fill="none" marker-end="url(#SvgjsMarker1097)"></path></g><g id="SvgjsG1099"><path id="SvgjsPath1100" d="M429.3977491156088 146.9469830782591L368.1681031838084 192.3908609182672" stroke="#323232" stroke-width="1.5" fill="none" marker-end="url(#SvgjsMarker1101)"></path></g><g id="SvgjsG1103"><path id="SvgjsPath1104" d="M430.5953592918275 146.95612203809364L489.85670654942106 192.35796066286292" stroke="#323232" stroke-width="1.5" fill="none" marker-end="url(#SvgjsMarker1105)"></path></g><g id="SvgjsG1107"><path id="SvgjsPath1108" d="M430.72714956123093 146.68372129871526L615.3822615795685 193.33860332462504" stroke="#323232" stroke-width="1.5" fill="none" marker-end="url(#SvgjsMarker1109)"></path></g><g id="SvgjsG1111"><path id="SvgjsPath1112" d="M254 236.75L254 270.3" stroke="#323232" stroke-width="1.5" fill="none" marker-end="url(#SvgjsMarker1113)"></path></g><g id="SvgjsG1115" transform="translate(87.18181818181824,483)"><path id="SvgjsPath1116" d="M 0 22.5C 0 -7.5 86 -7.5 86 22.5C 86 52.5 0 52.5 0 22.5Z" stroke-dasharray="10,6" stroke="rgba(33,41,48,1)" stroke-width="1.5" fill-opacity="1" fill="#a6aef3"></path><g id="SvgjsG1117"><text id="SvgjsText1118" font-family="微软雅黑" text-anchor="middle" font-size="12px" width="66px" fill="#323232" font-weight="400" align="middle" lineHeight="125%" anchor="middle" family="微软雅黑" size="12px" weight="400" font-style="" opacity="1" y="12.5" transform="rotate(0)"><tspan id="SvgjsTspan1119" dy="15" x="43"><tspan id="SvgjsTspan1120" style="">被引用</tspan></tspan></text></g></g><g id="SvgjsG1121" transform="translate(205.18181818181824,387)"><path id="SvgjsPath1122" d="M 0 22.5C 0 -7.5 86 -7.5 86 22.5C 86 52.5 0 52.5 0 22.5Z" stroke-dasharray="10,6" stroke="rgba(33,41,48,1)" stroke-width="1.5" fill-opacity="1" fill="#a6aef3"></path><g id="SvgjsG1123"><text id="SvgjsText1124" font-family="微软雅黑" text-anchor="middle" font-size="12px" width="66px" fill="#323232" font-weight="400" align="middle" lineHeight="125%" anchor="middle" family="微软雅黑" size="12px" weight="400" font-style="" opacity="1" y="5" transform="rotate(0)"><tspan id="SvgjsTspan1125" dy="15" x="43"><tspan id="SvgjsTspan1126" style="">与根对象无</tspan></tspan><tspan id="SvgjsTspan1127" dy="15" x="43"><tspan id="SvgjsTspan1128" style="">联系</tspan></tspan></text></g></g><g id="SvgjsG1129" transform="translate(205.18181818181824,483)"><path id="SvgjsPath1130" d="M 0 22.5C 0 -7.5 86 -7.5 86 22.5C 86 52.5 0 52.5 0 22.5Z" stroke-dasharray="10,6" stroke="rgba(33,41,48,1)" stroke-width="1.5" fill-opacity="1" fill="#a6aef3"></path><g id="SvgjsG1131"><text id="SvgjsText1132" font-family="微软雅黑" text-anchor="middle" font-size="12px" width="66px" fill="#323232" font-weight="400" align="middle" lineHeight="125%" anchor="middle" family="微软雅黑" size="12px" weight="400" font-style="" opacity="1" y="5" transform="rotate(0)"><tspan id="SvgjsTspan1133" dy="15" x="43"><tspan id="SvgjsTspan1134" style="">与上一个对</tspan></tspan><tspan id="SvgjsTspan1135" dy="15" x="43"><tspan id="SvgjsTspan1136" style="">象互相引用</tspan></tspan></text></g></g><g id="SvgjsG1137" transform="translate(323.18181818181824,387)"><path id="SvgjsPath1138" d="M 0 22.5C 0 -7.5 86 -7.5 86 22.5C 86 52.5 0 52.5 0 22.5Z" stroke-dasharray="10,6" stroke="rgba(33,41,48,1)" stroke-width="1.5" fill-opacity="1" fill="#a6aef3"></path><g id="SvgjsG1139"><text id="SvgjsText1140" font-family="微软雅黑" text-anchor="middle" font-size="12px" width="66px" fill="#323232" font-weight="400" align="middle" lineHeight="125%" anchor="middle" family="微软雅黑" size="12px" weight="400" font-style="" opacity="1" y="5" transform="rotate(0)"><tspan id="SvgjsTspan1141" dy="15" x="43"><tspan id="SvgjsTspan1142" style="">虚引用必定</tspan></tspan><tspan id="SvgjsTspan1143" dy="15" x="43"><tspan id="SvgjsTspan1144" style="">被回收</tspan></tspan></text></g></g><g id="SvgjsG1145" transform="translate(449,349.72727272727275)"><path id="SvgjsPath1146" d="M 0 22.5C 0 -7.5 86 -7.5 86 22.5C 86 52.5 0 52.5 0 22.5Z" stroke-dasharray="10,6" stroke="rgba(33,41,48,1)" stroke-width="1.5" fill-opacity="1" fill="#a6aef3"></path><g id="SvgjsG1147"><text id="SvgjsText1148" font-family="微软雅黑" text-anchor="middle" font-size="12px" width="66px" fill="#323232" font-weight="400" align="middle" lineHeight="125%" anchor="middle" family="微软雅黑" size="12px" weight="400" font-style="" opacity="1" y="5" transform="rotate(0)"><tspan id="SvgjsTspan1149" dy="15" x="43"><tspan id="SvgjsTspan1150" style="">内存紧张时</tspan></tspan><tspan id="SvgjsTspan1151" dy="15" x="43"><tspan id="SvgjsTspan1152" style="">回收</tspan></tspan></text></g></g><g id="SvgjsG1153" transform="translate(575,416.09090909090907)"><path id="SvgjsPath1154" d="M 0 22.5C 0 -7.5 86 -7.5 86 22.5C 86 52.5 0 52.5 0 22.5Z" stroke-dasharray="10,6" stroke="rgba(33,41,48,1)" stroke-width="1.5" fill-opacity="1" fill="#a6aef3"></path><g id="SvgjsG1155"><text id="SvgjsText1156" font-family="微软雅黑" text-anchor="middle" font-size="12px" width="66px" fill="#323232" font-weight="400" align="middle" lineHeight="125%" anchor="middle" family="微软雅黑" size="12px" weight="400" font-style="" opacity="1" y="5" transform="rotate(0)"><tspan id="SvgjsTspan1157" dy="15" x="43"><tspan id="SvgjsTspan1158" style="">弱引用必定</tspan></tspan><tspan id="SvgjsTspan1159" dy="15" x="43"><tspan id="SvgjsTspan1160" style="">被回收</tspan></tspan></text></g></g><g id="SvgjsG1161"><path id="SvgjsPath1162" d="M130.18181818181824 432.75L130.18181818181824 457.5L130.18181818181824 457.5L130.18181818181824 480.3" stroke="#e9d66f" stroke-width="1.5" fill="none" marker-end="url(#SvgjsMarker1163)"></path></g><g id="SvgjsG1165"><path id="SvgjsPath1166" d="M228.9873714360897 429.8155571977985L228.9873714360897 457.38548876290247L228.9873714360897 457.38548876290247L228.9873714360897 483.00542032800644" stroke="#e9d66f" stroke-width="1.5" fill="none" marker-end="url(#SvgjsMarker1167)"></path></g><g id="SvgjsG1169"><path id="SvgjsPath1170" d="M263.6025174555534 484.3036685057443L263.6025174555534 458.52683425287216L263.6025174555534 458.52683425287216L263.6025174555534 432" stroke="#e9d66f" stroke-width="1.5" fill="none" marker-end="url(#SvgjsMarker1171)"></path></g><g id="SvgjsG1173"><path id="SvgjsPath1174" d="M366.0009213752261 239.74999943404492L366.1785012310043 384.30000203743833" stroke-dasharray="10,5,3,5" stroke="#323232" stroke-width="1.5" fill="none" marker-end="url(#SvgjsMarker1175)"></path></g><g id="SvgjsG1177"><path id="SvgjsPath1178" d="M492 239.75L492 294.3636363636364L492 294.3636363636364L492 347.02727272727276" stroke="#e9d66f" stroke-width="1.5" fill="none" marker-end="url(#SvgjsMarker1179)"></path></g><g id="SvgjsG1181"><path id="SvgjsPath1182" d="M618 239.75L618 325.0454545454545L618 325.0454545454545L618 411.09090909090907" stroke-dasharray="3,3" stroke="#323232" stroke-width="1.5" fill="none" marker-end="url(#SvgjsMarker1183)"></path></g><g id="SvgjsG1185" transform="translate(449,505.4545454545455)"><path id="SvgjsPath1186" d="M 0 0L 100 0L 100 40L 0 40Z" stroke="none" fill="none"></path><g id="SvgjsG1187"><text id="SvgjsText1188" font-family="微软雅黑" text-anchor="middle" font-size="19px" width="100px" fill="#323232" font-weight="400" align="middle" lineHeight="125%" anchor="middle" family="微软雅黑" size="19px" weight="400" font-style="" opacity="1" y="3.625" transform="rotate(0)"><tspan id="SvgjsTspan1189" dy="23.75" x="50"><tspan id="SvgjsTspan1190" style="font-weight: bold;">垃圾回收</tspan></tspan></text></g></g></svg>