<svg id="SvgjsSvg1052" width="518" height="431" xmlns="http://www.w3.org/2000/svg" version="1.1" xmlns:xlink="http://www.w3.org/1999/xlink" xmlns:svgjs="http://svgjs.com/svgjs"><defs id="SvgjsDefs1053"><pattern patternUnits="userSpaceOnUse" id="pattern_mark_0" width="300" height="300"><text x="150" y="100" fill="rgba(229,229,229,0.8)" font-size="18" transform="rotate(-45, 150, 150)" style="dominant-baseline: middle; text-anchor: middle;"></text></pattern><pattern patternUnits="userSpaceOnUse" id="pattern_mark_1" width="300" height="300"><text x="150" y="200" fill="rgba(229,229,229,0.8)" font-size="18" transform="rotate(-45, 150, 150)" style="dominant-baseline: middle; text-anchor: middle;"></text></pattern></defs><rect id="svgbackgroundid" width="518" height="431" fill="transparent"></rect><rect id="SvgjsRect1055" width="518" height="431" fill="url(#pattern_mark_0)"></rect><rect id="SvgjsRect1056" width="518" height="431" fill="url(#pattern_mark_1)"></rect><g id="SvgjsG1057" transform="translate(25,25)"><path id="SvgjsPath1058" d="M 0 0L 468 0L 468 381L 0 381Z" stroke="none" fill-opacity="1" fill="#9d8c88"></path><g id="SvgjsG1059"><text id="SvgjsText1060" font-family="&quot;Comic Sans MS&quot;" text-anchor="start" font-size="13px" width="448px" fill="#ffffff" font-weight="700" align="top" lineHeight="125%" anchor="start" family="&quot;Comic Sans MS&quot;" size="13px" weight="700" font-style="" opacity="1" y="-2.625" transform="rotate(0)"><tspan id="SvgjsTspan1061" dy="16.25" x="10"><tspan id="SvgjsTspan1062" style="">ClassLoader</tspan></tspan></text></g></g><g id="SvgjsG1063" transform="translate(56,47)"><path id="SvgjsPath1064" d="M 0 0L 406 0L 406 337L 0 337Z" stroke="none" fill-opacity="1" fill="#5291d0"></path><g id="SvgjsG1065"><text id="SvgjsText1066" font-family="&quot;Comic Sans MS&quot;" text-anchor="start" font-size="13px" width="386px" fill="#ffffff" font-weight="700" align="top" lineHeight="125%" anchor="start" family="&quot;Comic Sans MS&quot;" size="13px" weight="700" font-style="" opacity="1" y="-2.625" transform="rotate(0)"><tspan id="SvgjsTspan1067" dy="16.25" x="10"><tspan id="SvgjsTspan1068" style="">SecureClassLoader</tspan></tspan></text></g></g><g id="SvgjsG1069" transform="translate(84,82)"><path id="SvgjsPath1070" d="M 0 0L 350 0L 350 267L 0 267Z" stroke="none" fill-opacity="1" fill="#4eb2d6"></path><g id="SvgjsG1071"><text id="SvgjsText1072" font-family="&quot;Comic Sans MS&quot;" text-anchor="start" font-size="13px" width="330px" fill="#ffffff" font-weight="700" align="top" lineHeight="125%" anchor="start" family="&quot;Comic Sans MS&quot;" size="13px" weight="700" font-style="" opacity="1" y="-2.625" transform="rotate(0)"><tspan id="SvgjsTspan1073" dy="16.25" x="10"><tspan id="SvgjsTspan1074" style="">BuiltinClassLoader</tspan></tspan></text></g></g><g id="SvgjsG1075" transform="translate(116,105)"><path id="SvgjsPath1076" d="M 0 0L 286 0L 286 221L 0 221Z" stroke="none" fill-opacity="1" fill="#9d7ab3"></path><g id="SvgjsG1077"><text id="SvgjsText1078" font-family="&quot;Microsoft YaHei&quot;, 微软雅黑, Arial" text-anchor="middle" font-size="13px" width="266px" fill="#323232" font-weight="400" align="middle" lineHeight="125%" anchor="middle" family="&quot;Microsoft YaHei&quot;, 微软雅黑, Arial" size="13px" weight="400" font-style="" opacity="1" y="99.875" transform="rotate(0)"></text></g></g><g id="SvgjsG1079" transform="translate(134,193)"><path id="SvgjsPath1080" d="M 0 4Q 0 0 4 0L 246 0Q 250 0 250 4L 250 41Q 250 45 246 45L 4 45Q 0 45 0 41Z" stroke="rgba(255,255,255,1)" stroke-width="1.5" fill-opacity="1" fill="#f2a541"></path><g id="SvgjsG1081"><text id="SvgjsText1082" font-family="&quot;Comic Sans MS&quot;" text-anchor="middle" font-size="13px" width="230px" fill="#ffffff" font-weight="700" align="middle" lineHeight="125%" anchor="middle" family="&quot;Comic Sans MS&quot;" size="13px" weight="700" font-style="" opacity="1" y="11.875" transform="rotate(0)"><tspan id="SvgjsTspan1083" dy="16.25" x="125"><tspan id="SvgjsTspan1084" style="">PlatformClassLoaser</tspan></tspan></text></g></g><g id="SvgjsG1085" transform="translate(134,268)"><path id="SvgjsPath1086" d="M 0 4Q 0 0 4 0L 246 0Q 250 0 250 4L 250 41Q 250 45 246 45L 4 45Q 0 45 0 41Z" stroke="rgba(255,255,255,1)" stroke-width="1.5" fill-opacity="1" fill="#e46256"></path><g id="SvgjsG1087"><text id="SvgjsText1088" font-family="&quot;Comic Sans MS&quot;" text-anchor="middle" font-size="13px" width="230px" fill="#ffffff" font-weight="700" align="middle" lineHeight="125%" anchor="middle" family="&quot;Comic Sans MS&quot;" size="13px" weight="700" font-style="" opacity="1" y="11.875" transform="rotate(0)"><tspan id="SvgjsTspan1089" dy="16.25" x="125"><tspan id="SvgjsTspan1090" style="">BootClassLoader</tspan></tspan></text></g></g><g id="SvgjsG1091" transform="translate(134,118)"><path id="SvgjsPath1092" d="M 0 4Q 0 0 4 0L 246 0Q 250 0 250 4L 250 41Q 250 45 246 45L 4 45Q 0 45 0 41Z" stroke="rgba(255,255,255,1)" stroke-width="1.5" fill-opacity="1" fill="#9ec265"></path><g id="SvgjsG1093"><text id="SvgjsText1094" font-family="&quot;Comic Sans MS&quot;" text-anchor="middle" font-size="13px" width="230px" fill="#ffffff" font-weight="700" align="middle" lineHeight="125%" anchor="middle" family="&quot;Comic Sans MS&quot;" size="13px" weight="700" font-style="" opacity="1" y="11.875" transform="rotate(0)"><tspan id="SvgjsTspan1095" dy="16.25" x="125"><tspan id="SvgjsTspan1096" style="">AppClassLoader</tspan></tspan></text></g></g><g id="SvgjsG1097"></g></svg>