<svg id="SvgjsSvg1006" width="1202" height="402" xmlns="http://www.w3.org/2000/svg" version="1.1" xmlns:xlink="http://www.w3.org/1999/xlink" xmlns:svgjs="http://svgjs.com/svgjs"><defs id="SvgjsDefs1007"><pattern patternUnits="userSpaceOnUse" id="pattern_mark_0" width="300" height="300"><text x="150" y="100" fill="rgba(229,229,229,0.8)" font-size="18" transform="rotate(-45, 150, 150)" style="dominant-baseline: middle; text-anchor: middle;"></text></pattern><pattern patternUnits="userSpaceOnUse" id="pattern_mark_1" width="300" height="300"><text x="150" y="200" fill="rgba(229,229,229,0.8)" font-size="18" transform="rotate(-45, 150, 150)" style="dominant-baseline: middle; text-anchor: middle;"></text></pattern><marker id="SvgjsMarker1097" markerWidth="13" markerHeight="9" refX="9.5" refY="4.5" viewBox="0 0 13 9" orient="auto" markerUnits="userSpaceOnUse" stroke-dasharray="0,0"><path id="SvgjsPath1098" d="M0,0 L13,4.5 L0,9 L0,0" fill="#323232" stroke="#323232" stroke-width="1"></path></marker><marker id="SvgjsMarker1115" markerWidth="13" markerHeight="9" refX="9.5" refY="4.5" viewBox="0 0 13 9" orient="auto" markerUnits="userSpaceOnUse" stroke-dasharray="0,0"><path id="SvgjsPath1116" d="M0,0 L13,4.5 L0,9 L0,0" fill="#323232" stroke="#323232" stroke-width="1"></path></marker><marker id="SvgjsMarker1135" markerWidth="13" markerHeight="9" refX="9.5" refY="4.5" viewBox="0 0 13 9" orient="auto" markerUnits="userSpaceOnUse" stroke-dasharray="0,0"><path id="SvgjsPath1136" d="M0,0 L13,4.5 L0,9 L0,0" fill="#323232" stroke="#323232" stroke-width="1"></path></marker><marker id="SvgjsMarker1139" markerWidth="13" markerHeight="9" refX="9.5" refY="4.5" viewBox="0 0 13 9" orient="auto" markerUnits="userSpaceOnUse" stroke-dasharray="0,0"><path id="SvgjsPath1140" d="M0,0 L13,4.5 L0,9 L0,0" fill="#323232" stroke="#323232" stroke-width="1"></path></marker><marker id="SvgjsMarker1167" markerWidth="13" markerHeight="9" refX="9.5" refY="4.5" viewBox="0 0 13 9" orient="auto" markerUnits="userSpaceOnUse" stroke-dasharray="0,0"><path id="SvgjsPath1168" d="M0,0 L13,4.5 L0,9 L0,0" fill="#323232" stroke="#323232" stroke-width="1"></path></marker><marker id="SvgjsMarker1171" markerWidth="13" markerHeight="9" refX="9.5" refY="4.5" viewBox="0 0 13 9" orient="auto" markerUnits="userSpaceOnUse" stroke-dasharray="0,0"><path id="SvgjsPath1172" d="M0,0 L13,4.5 L0,9 L0,0" fill="#323232" stroke="#323232" stroke-width="1"></path></marker><marker id="SvgjsMarker1175" markerWidth="13" markerHeight="9" refX="9.5" refY="4.5" viewBox="0 0 13 9" orient="auto" markerUnits="userSpaceOnUse" stroke-dasharray="0,0"><path id="SvgjsPath1176" d="M0,0 L13,4.5 L0,9 L0,0" fill="#323232" stroke="#323232" stroke-width="1"></path></marker><marker id="SvgjsMarker1179" markerWidth="13" markerHeight="9" refX="9.5" refY="4.5" viewBox="0 0 13 9" orient="auto" markerUnits="userSpaceOnUse" stroke-dasharray="0,0"><path id="SvgjsPath1180" d="M0,0 L13,4.5 L0,9 L0,0" fill="#323232" stroke="#323232" stroke-width="1"></path></marker><marker id="SvgjsMarker1189" markerWidth="13" markerHeight="9" refX="9.5" refY="4.5" viewBox="0 0 13 9" orient="auto" markerUnits="userSpaceOnUse" stroke-dasharray="0,0"><path id="SvgjsPath1190" d="M0,0 L13,4.5 L0,9 L0,0" fill="#323232" stroke="#323232" stroke-width="1"></path></marker></defs><rect id="svgbackgroundid" width="1202" height="402" fill="transparent"></rect><rect id="SvgjsRect1009" width="1202" height="402" fill="url(#pattern_mark_0)"></rect><rect id="SvgjsRect1010" width="1202" height="402" fill="url(#pattern_mark_1)"></rect><g id="SvgjsG1011" transform="translate(117,233)"><path id="SvgjsPath1012" d="M 0 0L 60 0L 60 30L 0 30Z" stroke="none" fill-opacity="1" fill="#f4b74e"></path><g id="SvgjsG1013"><text id="SvgjsText1014" font-family="&quot;Comic Sans MS&quot;" text-anchor="middle" font-size="13px" width="40px" fill="#323232" font-weight="400" align="middle" lineHeight="125%" anchor="middle" family="&quot;Comic Sans MS&quot;" size="13px" weight="400" font-style="" opacity="1" y="4.375" transform="rotate(0)"><tspan id="SvgjsTspan1015" dy="16.25" x="30"><tspan id="SvgjsTspan1016" style="">ID1</tspan></tspan></text></g></g><g id="SvgjsG1017" transform="translate(187,233)"><path id="SvgjsPath1018" d="M 0 0L 60 0L 60 30L 0 30Z" stroke="none" fill-opacity="1" fill="#f4b74e"></path><g id="SvgjsG1019"><text id="SvgjsText1020" font-family="&quot;Comic Sans MS&quot;" text-anchor="middle" font-size="13px" width="40px" fill="#323232" font-weight="400" align="middle" lineHeight="125%" anchor="middle" family="&quot;Comic Sans MS&quot;" size="13px" weight="400" font-style="" opacity="1" y="4.375" transform="rotate(0)"><tspan id="SvgjsTspan1021" dy="16.25" x="30"><tspan id="SvgjsTspan1022" style="">ID2</tspan></tspan></text></g></g><g id="SvgjsG1023" transform="translate(257,233)"><path id="SvgjsPath1024" d="M 0 0L 60 0L 60 30L 0 30Z" stroke="none" fill-opacity="1" fill="#f4b74e"></path><g id="SvgjsG1025"><text id="SvgjsText1026" font-family="&quot;Comic Sans MS&quot;" text-anchor="middle" font-size="13px" width="40px" fill="#323232" font-weight="400" align="middle" lineHeight="125%" anchor="middle" family="&quot;Comic Sans MS&quot;" size="13px" weight="400" font-style="" opacity="1" y="4.375" transform="rotate(0)"><tspan id="SvgjsTspan1027" dy="16.25" x="30"><tspan id="SvgjsTspan1028" style="">ID3</tspan></tspan></text></g></g><g id="SvgjsG1029" transform="translate(327,233)"><path id="SvgjsPath1030" d="M 0 0L 60 0L 60 30L 0 30Z" stroke="none" fill-opacity="1" fill="#f4b74e"></path><g id="SvgjsG1031"><text id="SvgjsText1032" font-family="&quot;Comic Sans MS&quot;" text-anchor="middle" font-size="13px" width="40px" fill="#323232" font-weight="400" align="middle" lineHeight="125%" anchor="middle" family="&quot;Comic Sans MS&quot;" size="13px" weight="400" font-style="" opacity="1" y="4.375" transform="rotate(0)"><tspan id="SvgjsTspan1033" dy="16.25" x="30"><tspan id="SvgjsTspan1034" style="">ID4</tspan></tspan></text></g></g><g id="SvgjsG1035" transform="translate(397,233)"><path id="SvgjsPath1036" d="M 0 0L 60 0L 60 30L 0 30Z" stroke="none" fill-opacity="1" fill="#f4b74e"></path><g id="SvgjsG1037"><text id="SvgjsText1038" font-family="&quot;Comic Sans MS&quot;" text-anchor="middle" font-size="13px" width="40px" fill="#323232" font-weight="400" align="middle" lineHeight="125%" anchor="middle" family="&quot;Comic Sans MS&quot;" size="13px" weight="400" font-style="" opacity="1" y="4.375" transform="rotate(0)"><tspan id="SvgjsTspan1039" dy="16.25" x="30"><tspan id="SvgjsTspan1040" style="">ID5</tspan></tspan></text></g></g><g id="SvgjsG1041" transform="translate(467,233)"><path id="SvgjsPath1042" d="M 0 0L 60 0L 60 30L 0 30Z" stroke="none" fill-opacity="1" fill="#f4b74e"></path><g id="SvgjsG1043"><text id="SvgjsText1044" font-family="&quot;Comic Sans MS&quot;" text-anchor="middle" font-size="13px" width="40px" fill="#323232" font-weight="400" align="middle" lineHeight="125%" anchor="middle" family="&quot;Comic Sans MS&quot;" size="13px" weight="400" font-style="" opacity="1" y="4.375" transform="rotate(0)"><tspan id="SvgjsTspan1045" dy="16.25" x="30"><tspan id="SvgjsTspan1046" style="">ID6</tspan></tspan></text></g></g><g id="SvgjsG1047" transform="translate(537,233)"><path id="SvgjsPath1048" d="M 0 0L 60 0L 60 30L 0 30Z" stroke="none" fill-opacity="1" fill="#f4b74e"></path><g id="SvgjsG1049"><text id="SvgjsText1050" font-family="&quot;Comic Sans MS&quot;" text-anchor="middle" font-size="13px" width="40px" fill="#323232" font-weight="400" align="middle" lineHeight="125%" anchor="middle" family="&quot;Comic Sans MS&quot;" size="13px" weight="400" font-style="" opacity="1" y="4.375" transform="rotate(0)"><tspan id="SvgjsTspan1051" dy="16.25" x="30"><tspan id="SvgjsTspan1052" style="">ID7</tspan></tspan></text></g></g><g id="SvgjsG1053" transform="translate(607,233)"><path id="SvgjsPath1054" d="M 0 0L 60 0L 60 30L 0 30Z" stroke="none" fill-opacity="1" fill="#f4b74e"></path><g id="SvgjsG1055"><text id="SvgjsText1056" font-family="&quot;Comic Sans MS&quot;" text-anchor="middle" font-size="13px" width="40px" fill="#323232" font-weight="400" align="middle" lineHeight="125%" anchor="middle" family="&quot;Comic Sans MS&quot;" size="13px" weight="400" font-style="" opacity="1" y="4.375" transform="rotate(0)"><tspan id="SvgjsTspan1057" dy="16.25" x="30"><tspan id="SvgjsTspan1058" style="">ID8</tspan></tspan></text></g></g><g id="SvgjsG1059" transform="translate(677,233)"><path id="SvgjsPath1060" d="M 0 0L 60 0L 60 30L 0 30Z" stroke="none" fill-opacity="1" fill="#f4b74e"></path><g id="SvgjsG1061"><text id="SvgjsText1062" font-family="&quot;Comic Sans MS&quot;" text-anchor="middle" font-size="13px" width="40px" fill="#323232" font-weight="400" align="middle" lineHeight="125%" anchor="middle" family="&quot;Comic Sans MS&quot;" size="13px" weight="400" font-style="" opacity="1" y="4.375" transform="rotate(0)"><tspan id="SvgjsTspan1063" dy="16.25" x="30"><tspan id="SvgjsTspan1064" style="">ID9</tspan></tspan></text></g></g><g id="SvgjsG1065" transform="translate(747,233)"><path id="SvgjsPath1066" d="M 0 0L 60 0L 60 30L 0 30Z" stroke="none" fill-opacity="1" fill="#f4b74e"></path><g id="SvgjsG1067"><text id="SvgjsText1068" font-family="&quot;Comic Sans MS&quot;" text-anchor="middle" font-size="13px" width="40px" fill="#323232" font-weight="400" align="middle" lineHeight="125%" anchor="middle" family="&quot;Comic Sans MS&quot;" size="13px" weight="400" font-style="" opacity="1" y="4.375" transform="rotate(0)"><tspan id="SvgjsTspan1069" dy="16.25" x="30"><tspan id="SvgjsTspan1070" style="">ID10</tspan></tspan></text></g></g><g id="SvgjsG1071" transform="translate(817,233)"><path id="SvgjsPath1072" d="M 0 0L 60 0L 60 30L 0 30Z" stroke="none" fill-opacity="1" fill="#f4b74e"></path><g id="SvgjsG1073"><text id="SvgjsText1074" font-family="&quot;Comic Sans MS&quot;" text-anchor="middle" font-size="13px" width="40px" fill="#323232" font-weight="400" align="middle" lineHeight="125%" anchor="middle" family="&quot;Comic Sans MS&quot;" size="13px" weight="400" font-style="" opacity="1" y="4.375" transform="rotate(0)"><tspan id="SvgjsTspan1075" dy="16.25" x="30"><tspan id="SvgjsTspan1076" style="">ID11</tspan></tspan></text></g></g><g id="SvgjsG1077" transform="translate(887,233)"><path id="SvgjsPath1078" d="M 0 0L 60 0L 60 30L 0 30Z" stroke="none" fill-opacity="1" fill="#f4b74e"></path><g id="SvgjsG1079"><text id="SvgjsText1080" font-family="&quot;Comic Sans MS&quot;" text-anchor="middle" font-size="13px" width="40px" fill="#323232" font-weight="400" align="middle" lineHeight="125%" anchor="middle" family="&quot;Comic Sans MS&quot;" size="13px" weight="400" font-style="" opacity="1" y="4.375" transform="rotate(0)"><tspan id="SvgjsTspan1081" dy="16.25" x="30"><tspan id="SvgjsTspan1082" style="">ID12</tspan></tspan></text></g></g><g id="SvgjsG1083" transform="translate(957,233)"><path id="SvgjsPath1084" d="M 0 0L 60 0L 60 30L 0 30Z" stroke="none" fill-opacity="1" fill="#f4b74e"></path><g id="SvgjsG1085"><text id="SvgjsText1086" font-family="&quot;Comic Sans MS&quot;" text-anchor="middle" font-size="13px" width="40px" fill="#323232" font-weight="400" align="middle" lineHeight="125%" anchor="middle" family="&quot;Comic Sans MS&quot;" size="13px" weight="400" font-style="" opacity="1" y="4.375" transform="rotate(0)"><tspan id="SvgjsTspan1087" dy="16.25" x="30"><tspan id="SvgjsTspan1088" style="">ID13</tspan></tspan></text></g></g><g id="SvgjsG1089" transform="translate(1027,233)"><path id="SvgjsPath1090" d="M 0 0L 60 0L 60 30L 0 30Z" stroke="none" fill-opacity="1" fill="#f4b74e"></path><g id="SvgjsG1091"><text id="SvgjsText1092" font-family="&quot;Comic Sans MS&quot;" text-anchor="middle" font-size="13px" width="40px" fill="#323232" font-weight="400" align="middle" lineHeight="125%" anchor="middle" family="&quot;Comic Sans MS&quot;" size="13px" weight="400" font-style="" opacity="1" y="4.375" transform="rotate(0)"><tspan id="SvgjsTspan1093" dy="16.25" x="30"><tspan id="SvgjsTspan1094" style="">ID14</tspan></tspan></text></g></g><g id="SvgjsG1095"><path id="SvgjsPath1096" d="M287 233L287 203L287 203L287 174.95" stroke="#323232" stroke-width="1.5" fill="none" marker-end="url(#SvgjsMarker1097)"></path></g><g id="SvgjsG1099" transform="translate(216,133)"><path id="SvgjsPath1100" d="M 0 4Q 0 0 4 0L 138 0Q 142 0 142 4L 142 36Q 142 40 138 40L 4 40Q 0 40 0 36Z" stroke="none" fill-opacity="1" fill="#59d1e3"></path><g id="SvgjsG1101"><text id="SvgjsText1102" font-family="&quot;Comic Sans MS&quot;" text-anchor="middle" font-size="13px" width="122px" fill="#323232" font-weight="700" align="middle" lineHeight="125%" anchor="middle" family="&quot;Comic Sans MS&quot;" size="13px" weight="700" font-style="" opacity="1" y="9.375" transform="rotate(0)"><tspan id="SvgjsTspan1103" dy="16.25" x="71"><tspan id="SvgjsTspan1104" style="">Message Content</tspan></tspan></text></g></g><g id="SvgjsG1105" transform="translate(286,323)"><path id="SvgjsPath1106" d="M 0 4Q 0 0 4 0L 138 0Q 142 0 142 4L 142 50Q 142 54 138 54L 4 54Q 0 54 0 50Z" stroke="none" fill-opacity="1" fill="#81c784"></path><g id="SvgjsG1107"><text id="SvgjsText1108" font-family="&quot;Comic Sans MS&quot;" text-anchor="middle" font-size="13px" width="122px" fill="#323232" font-weight="700" align="middle" lineHeight="125%" anchor="middle" family="&quot;Comic Sans MS&quot;" size="13px" weight="700" font-style="" opacity="1" y="7.875" transform="rotate(0)"><tspan id="SvgjsTspan1109" dy="16.25" x="71"><tspan id="SvgjsTspan1110" style="">Consumer group</tspan></tspan><tspan id="SvgjsTspan1111" dy="16.25" x="71"><tspan id="SvgjsTspan1112" style="">Last_delivered_id</tspan></tspan></text></g></g><g id="SvgjsG1113"><path id="SvgjsPath1114" d="M357 323L357 293L357 293L357 264.95" stroke="#323232" stroke-width="1.5" fill="none" marker-end="url(#SvgjsMarker1115)"></path></g><g id="SvgjsG1117" transform="translate(566,99)"><path id="SvgjsPath1118" d="M 0 4Q 0 0 4 0L 138 0Q 142 0 142 4L 142 50Q 142 54 138 54L 4 54Q 0 54 0 50Z" stroke="none" fill-opacity="1" fill="#81c784"></path><g id="SvgjsG1119"><text id="SvgjsText1120" font-family="&quot;Comic Sans MS&quot;" text-anchor="middle" font-size="13px" width="122px" fill="#323232" font-weight="700" align="middle" lineHeight="125%" anchor="middle" family="&quot;Comic Sans MS&quot;" size="13px" weight="700" font-style="" opacity="1" y="7.875" transform="rotate(0)"><tspan id="SvgjsTspan1121" dy="16.25" x="71"><tspan id="SvgjsTspan1122" style="">Consumer group</tspan></tspan><tspan id="SvgjsTspan1123" dy="16.25" x="71"><tspan id="SvgjsTspan1124" style="">Last_delivered_id</tspan></tspan></text></g></g><g id="SvgjsG1125" transform="translate(916,323)"><path id="SvgjsPath1126" d="M 0 4Q 0 0 4 0L 138 0Q 142 0 142 4L 142 50Q 142 54 138 54L 4 54Q 0 54 0 50Z" stroke="none" fill-opacity="1" fill="#81c784"></path><g id="SvgjsG1127"><text id="SvgjsText1128" font-family="&quot;Comic Sans MS&quot;" text-anchor="middle" font-size="13px" width="122px" fill="#323232" font-weight="700" align="middle" lineHeight="125%" anchor="middle" family="&quot;Comic Sans MS&quot;" size="13px" weight="700" font-style="" opacity="1" y="7.875" transform="rotate(0)"><tspan id="SvgjsTspan1129" dy="16.25" x="71"><tspan id="SvgjsTspan1130" style="">Consumer group</tspan></tspan><tspan id="SvgjsTspan1131" dy="16.25" x="71"><tspan id="SvgjsTspan1132" style="">Last_delivered_id</tspan></tspan></text></g></g><g id="SvgjsG1133"><path id="SvgjsPath1134" d="M987 323L987 293L987 293L987 264.95" stroke="#323232" stroke-width="1.5" fill="none" marker-end="url(#SvgjsMarker1135)"></path></g><g id="SvgjsG1137"><path id="SvgjsPath1138" d="M637 153L637 193L637 193L637 231.05" stroke="#323232" stroke-width="1.5" fill="none" marker-end="url(#SvgjsMarker1139)"></path></g><g id="SvgjsG1141" transform="translate(768,99)"><path id="SvgjsPath1142" d="M 0 4Q 0 0 4 0L 138 0Q 142 0 142 4L 142 50Q 142 54 138 54L 4 54Q 0 54 0 50Z" stroke="none" fill-opacity="1" fill="#e2bde7"></path><g id="SvgjsG1143"><text id="SvgjsText1144" font-family="&quot;Comic Sans MS&quot;" text-anchor="middle" font-size="13px" width="122px" fill="#323232" font-weight="700" align="middle" lineHeight="125%" anchor="middle" family="&quot;Comic Sans MS&quot;" size="13px" weight="700" font-style="" opacity="1" y="7.875" transform="rotate(0)"><tspan id="SvgjsTspan1145" dy="16.25" x="71"><tspan id="SvgjsTspan1146" style="">Consumer</tspan></tspan><tspan id="SvgjsTspan1147" dy="16.25" x="71"><tspan id="SvgjsTspan1148" style="">Pending_ids []</tspan></tspan></text></g></g><g id="SvgjsG1149" transform="translate(768,173)"><path id="SvgjsPath1150" d="M 0 4Q 0 0 4 0L 138 0Q 142 0 142 4L 142 50Q 142 54 138 54L 4 54Q 0 54 0 50Z" stroke="none" fill-opacity="1" fill="#e2bde7"></path><g id="SvgjsG1151"><text id="SvgjsText1152" font-family="&quot;Comic Sans MS&quot;" text-anchor="middle" font-size="13px" width="122px" fill="#323232" font-weight="700" align="middle" lineHeight="125%" anchor="middle" family="&quot;Comic Sans MS&quot;" size="13px" weight="700" font-style="" opacity="1" y="7.875" transform="rotate(0)"><tspan id="SvgjsTspan1153" dy="16.25" x="71"><tspan id="SvgjsTspan1154" style="">Consumer</tspan></tspan><tspan id="SvgjsTspan1155" dy="16.25" x="71"><tspan id="SvgjsTspan1156" style="">Pending_ids []</tspan></tspan></text></g></g><g id="SvgjsG1157" transform="translate(768,25)"><path id="SvgjsPath1158" d="M 0 4Q 0 0 4 0L 138 0Q 142 0 142 4L 142 50Q 142 54 138 54L 4 54Q 0 54 0 50Z" stroke="none" fill-opacity="1" fill="#e2bde7"></path><g id="SvgjsG1159"><text id="SvgjsText1160" font-family="&quot;Comic Sans MS&quot;" text-anchor="middle" font-size="13px" width="122px" fill="#323232" font-weight="700" align="middle" lineHeight="125%" anchor="middle" family="&quot;Comic Sans MS&quot;" size="13px" weight="700" font-style="" opacity="1" y="7.875" transform="rotate(0)"><tspan id="SvgjsTspan1161" dy="16.25" x="71"><tspan id="SvgjsTspan1162" style="">Consumer</tspan></tspan><tspan id="SvgjsTspan1163" dy="16.25" x="71"><tspan id="SvgjsTspan1164" style="">Pending_ids []</tspan></tspan></text></g></g><g id="SvgjsG1165"><path id="SvgjsPath1166" d="M708 126L738 126L738 126L766.05 126" stroke="#323232" stroke-width="1.5" fill="none" marker-end="url(#SvgjsMarker1167)"></path></g><g id="SvgjsG1169"><path id="SvgjsPath1170" d="M708 126L738 126L738 52L766.05 52" stroke="#323232" stroke-width="1.5" fill="none" marker-end="url(#SvgjsMarker1171)"></path></g><g id="SvgjsG1173"><path id="SvgjsPath1174" d="M708 126L738 126L738 200L766.05 200" stroke="#323232" stroke-width="1.5" fill="none" marker-end="url(#SvgjsMarker1175)"></path></g><g id="SvgjsG1177"><path id="SvgjsPath1178" d="M25 219L105 219L105 219L185 219" stroke="#323232" stroke-width="1.5" fill="none" marker-end="url(#SvgjsMarker1179)"></path></g><g id="SvgjsG1181" transform="translate(38,180)"><path id="SvgjsPath1182" d="M 0 0L 120 0L 120 40L 0 40Z" stroke="none" fill="none"></path><g id="SvgjsG1183"><text id="SvgjsText1184" font-family="&quot;Comic Sans MS&quot;" text-anchor="middle" font-size="13px" width="120px" fill="#323232" font-weight="400" align="middle" lineHeight="125%" anchor="middle" family="&quot;Comic Sans MS&quot;" size="13px" weight="400" font-style="" opacity="1" y="9.375" transform="rotate(0)"><tspan id="SvgjsTspan1185" dy="16.25" x="60"><tspan id="SvgjsTspan1186" style="font-weight: bold;">Stream direction</tspan></tspan></text></g></g><g id="SvgjsG1187"><path id="SvgjsPath1188" d="M1017 219L1097 219L1097 219L1177 219" stroke="#323232" stroke-width="1.5" fill="none" marker-end="url(#SvgjsMarker1189)"></path></g><g id="SvgjsG1191" transform="translate(1030,180)"><path id="SvgjsPath1192" d="M 0 0L 120 0L 120 40L 0 40Z" stroke="none" fill="none"></path><g id="SvgjsG1193"><text id="SvgjsText1194" font-family="&quot;Comic Sans MS&quot;" text-anchor="middle" font-size="13px" width="120px" fill="#323232" font-weight="400" align="middle" lineHeight="125%" anchor="middle" family="&quot;Comic Sans MS&quot;" size="13px" weight="400" font-style="" opacity="1" y="9.375" transform="rotate(0)"><tspan id="SvgjsTspan1195" dy="16.25" x="60"><tspan id="SvgjsTspan1196" style="font-weight: bold;">Stream direction</tspan></tspan></text></g></g></svg>