<svg id="SvgjsSvg1006" width="495.5" height="378.40909090909093" xmlns="http://www.w3.org/2000/svg" version="1.1" xmlns:xlink="http://www.w3.org/1999/xlink" xmlns:svgjs="http://svgjs.com/svgjs"><defs id="SvgjsDefs1007"><pattern patternUnits="userSpaceOnUse" id="pattern_mark_0" width="300" height="300"><text x="150" y="100" fill="rgba(229,229,229,0.8)" font-size="18" transform="rotate(-45, 150, 150)" style="dominant-baseline: middle; text-anchor: middle;"></text></pattern><pattern patternUnits="userSpaceOnUse" id="pattern_mark_1" width="300" height="300"><text x="150" y="200" fill="rgba(229,229,229,0.8)" font-size="18" transform="rotate(-45, 150, 150)" style="dominant-baseline: middle; text-anchor: middle;"></text></pattern><pattern id="SvgjsPattern1033" x="0" y="0" width="60" height="60" patternUnits="userSpaceOnUse"><image id="SvgjsImage1034" xlink:href="https://iconsapi.com/65e950dce4b02f62633d522f.svg" width="60" height="60" preserveAspectRatio="none" crossOrigin="anonymous" x="0" y="0"></image></pattern><pattern id="SvgjsPattern1069" x="0" y="0" width="60" height="60" patternUnits="userSpaceOnUse"><image id="SvgjsImage1070" xlink:href="https://iconsapi.com/65e950dce4b02f62633d522f.svg" width="60" height="60" preserveAspectRatio="none" crossOrigin="anonymous" x="0" y="0"></image></pattern><pattern id="SvgjsPattern1073" x="0" y="0" width="60" height="60" patternUnits="userSpaceOnUse"><image id="SvgjsImage1074" xlink:href="https://iconsapi.com/65e950dce4b02f62633d522f.svg" width="60" height="60" preserveAspectRatio="none" crossOrigin="anonymous" x="0" y="0"></image></pattern><marker id="SvgjsMarker1107" markerWidth="13" markerHeight="9" refX="9.5" refY="4.5" viewBox="0 0 13 9" orient="auto" markerUnits="userSpaceOnUse" stroke-dasharray="0,0"><path id="SvgjsPath1108" d="M0,0 L13,4.5 L0,9 L0,0" fill="#323232" stroke="#323232" stroke-width="1"></path></marker></defs><rect id="svgbackgroundid" width="495.5" height="378.40909090909093" fill="transparent"></rect><rect id="SvgjsRect1009" width="495.5" height="378.40909090909093" fill="url(#pattern_mark_0)"></rect><rect id="SvgjsRect1010" width="495.5" height="378.40909090909093" fill="url(#pattern_mark_1)"></rect><g id="SvgjsG1011" transform="matrix(6.123233995736766e-17,1,-1,6.123233995736766e-17,155,223.40908813476562)"><path id="SvgjsPath1012" d="M 0 130Q 9 130 9 121L 9 74Q 9 65 22 65Q 9 65 9 56L 9 9Q 9 0 0 0" stroke="rgba(33,41,48,1)" stroke-width="1.5" fill="none"></path><path id="SvgjsPath1013" d="M 0 0L 130 0L 130 130L 0 130Z" stroke="none" fill="none"></path><g id="SvgjsG1014"><text id="SvgjsText1015" font-family="&quot;Comic Sans MS&quot;" text-anchor="start" font-size="13px" width="103px" fill="#323232" font-weight="400" align="middle" lineHeight="125%" anchor="start" family="&quot;Comic Sans MS&quot;" size="13px" weight="400" font-style="" opacity="1" y="54.375" transform="rotate(0)"></text></g></g><g id="SvgjsG1016" transform="matrix(6.123233995736766e-17,1,-1,6.123233995736766e-17,415,223.40908813476562)"><path id="SvgjsPath1017" d="M 0 130Q 9 130 9 121L 9 74Q 9 65 22 65Q 9 65 9 56L 9 9Q 9 0 0 0" stroke="rgba(33,41,48,1)" stroke-width="1.5" fill="none"></path><path id="SvgjsPath1018" d="M 0 0L 130 0L 130 130L 0 130Z" stroke="none" fill="none"></path><g id="SvgjsG1019"><text id="SvgjsText1020" font-family="&quot;Comic Sans MS&quot;" text-anchor="start" font-size="13px" width="103px" fill="#323232" font-weight="400" align="middle" lineHeight="125%" anchor="start" family="&quot;Comic Sans MS&quot;" size="13px" weight="400" font-style="" opacity="1" y="54.375" transform="rotate(0)"></text></g></g><g id="SvgjsG1021" transform="matrix(6.123233995736766e-17,1,-1,6.123233995736766e-17,285,223.40908813476562)"><path id="SvgjsPath1022" d="M 0 130Q 9 130 9 121L 9 74Q 9 65 22 65Q 9 65 9 56L 9 9Q 9 0 0 0" stroke="rgba(33,41,48,1)" stroke-width="1.5" fill="none"></path><path id="SvgjsPath1023" d="M 0 0L 130 0L 130 130L 0 130Z" stroke="none" fill="none"></path><g id="SvgjsG1024"><text id="SvgjsText1025" font-family="&quot;Comic Sans MS&quot;" text-anchor="start" font-size="13px" width="103px" fill="#323232" font-weight="400" align="middle" lineHeight="125%" anchor="start" family="&quot;Comic Sans MS&quot;" size="13px" weight="400" font-style="" opacity="1" y="54.375" transform="rotate(0)"></text></g></g><g id="SvgjsG1026" transform="matrix(6.123233995736766e-17,1,-1,6.123233995736766e-17,415,143.40909099578857)"><path id="SvgjsPath1027" d="M 0 390Q 9 390 9 381L 9 204Q 9 195 22 195Q 9 195 9 186L 9 9Q 9 0 0 0" stroke="rgba(33,41,48,1)" stroke-width="1.5" fill="none"></path><path id="SvgjsPath1028" d="M 0 0L 120 0L 120 390L 0 390Z" stroke="none" fill="none"></path><g id="SvgjsG1029"><text id="SvgjsText1030" font-family="&quot;Comic Sans MS&quot;" text-anchor="start" font-size="13px" width="93px" fill="#323232" font-weight="400" align="middle" lineHeight="125%" anchor="start" family="&quot;Comic Sans MS&quot;" size="13px" weight="400" font-style="" opacity="1" y="184.375" transform="rotate(0)"></text></g></g><g id="SvgjsG1031" transform="translate(60,245.4090909090909)"><path id="SvgjsPath1032" d="M 0 0L 60 0L 60 60L 0 60Z" stroke="none" fill="url(#SvgjsPattern1033)"></path></g><g id="SvgjsG1035" transform="translate(25,124.4090909090909)"><path id="SvgjsPath1036" d="M 0 0L 390 0L 390 20L 0 20Z" stroke="rgba(33,41,48,1)" stroke-width="1.5" fill-opacity="1" fill="#ffffff"></path><g id="SvgjsG1037"><text id="SvgjsText1038" font-family="&quot;Comic Sans MS&quot;" text-anchor="middle" font-size="13px" width="370px" fill="#323232" font-weight="700" align="middle" lineHeight="125%" anchor="middle" family="&quot;Comic Sans MS&quot;" size="13px" weight="700" font-style="" opacity="1" y="-0.625" transform="rotate(0)"><tspan id="SvgjsTspan1039" dy="16.25" x="195"><tspan id="SvgjsTspan1040" style="">0 ～ 16383</tspan></tspan></text></g></g><g id="SvgjsG1041" transform="translate(25,203.4090909090909)"><path id="SvgjsPath1042" d="M 0 0L 130 0L 130 20L 0 20Z" stroke="rgba(33,41,48,1)" stroke-width="1.5" fill-opacity="1" fill="#ffffff"></path><g id="SvgjsG1043"><text id="SvgjsText1044" font-family="&quot;Comic Sans MS&quot;" text-anchor="middle" font-size="13px" width="110px" fill="#323232" font-weight="700" align="middle" lineHeight="125%" anchor="middle" family="&quot;Comic Sans MS&quot;" size="13px" weight="700" font-style="" opacity="1" y="-0.625" transform="rotate(0)"><tspan id="SvgjsTspan1045" dy="16.25" x="65"><tspan id="SvgjsTspan1046" style="">0 ～ 5460</tspan></tspan></text></g></g><g id="SvgjsG1047" transform="translate(155,203.4090909090909)"><path id="SvgjsPath1048" d="M 0 0L 130 0L 130 20L 0 20Z" stroke="rgba(33,41,48,1)" stroke-width="1.5" fill-opacity="1" fill="#ffffff"></path><g id="SvgjsG1049"><text id="SvgjsText1050" font-family="&quot;Comic Sans MS&quot;" text-anchor="middle" font-size="13px" width="110px" fill="#323232" font-weight="700" align="middle" lineHeight="125%" anchor="middle" family="&quot;Comic Sans MS&quot;" size="13px" weight="700" font-style="" opacity="1" y="-0.625" transform="rotate(0)"><tspan id="SvgjsTspan1051" dy="16.25" x="65"><tspan id="SvgjsTspan1052" style="">5461 ～ 10922</tspan></tspan></text></g></g><g id="SvgjsG1053" transform="translate(285,203.4090909090909)"><path id="SvgjsPath1054" d="M 0 0L 130 0L 130 20L 0 20Z" stroke="rgba(33,41,48,1)" stroke-width="1.5" fill-opacity="1" fill="#ffffff"></path><g id="SvgjsG1055"><text id="SvgjsText1056" font-family="&quot;Comic Sans MS&quot;" text-anchor="middle" font-size="13px" width="110px" fill="#323232" font-weight="700" align="middle" lineHeight="125%" anchor="middle" family="&quot;Comic Sans MS&quot;" size="13px" weight="700" font-style="" opacity="1" y="-0.625" transform="rotate(0)"><tspan id="SvgjsTspan1057" dy="16.25" x="65"><tspan id="SvgjsTspan1058" style="">10923 ～ 16383</tspan></tspan></text></g></g><g id="SvgjsG1059" transform="translate(145,166.4090909090909)"><path id="SvgjsPath1060" d="M 0 0L 134 0L 150 16L 150 30L 0 30L 0 0Z" stroke="none" fill-opacity="1" fill="#fff7bc"></path><path id="SvgjsPath1061" d="M 134 0L 134 16L 150 16Z" stroke="none" fill-opacity="1" fill="#e4d089"></path><path id="SvgjsPath1062" d="M 0 0L 134 0L 150 16L 150 30L 0 30L 0 0Z" stroke="none" fill="none"></path><g id="SvgjsG1063"><text id="SvgjsText1064" font-family="&quot;Comic Sans MS&quot;" text-anchor="middle" font-size="13px" width="130px" fill="#323232" font-weight="400" align="middle" lineHeight="125%" anchor="middle" family="&quot;Comic Sans MS&quot;" size="13px" weight="400" font-style="" opacity="1" y="4.375" transform="rotate(0)"><tspan id="SvgjsTspan1065" dy="16.25" x="75"><tspan id="SvgjsTspan1066" style="">将上面数组分成3段</tspan></tspan></text></g></g><g id="SvgjsG1067" transform="translate(190,245.4090909090909)"><path id="SvgjsPath1068" d="M 0 0L 60 0L 60 60L 0 60Z" stroke="none" fill="url(#SvgjsPattern1069)"></path></g><g id="SvgjsG1071" transform="translate(320,245.4090909090909)"><path id="SvgjsPath1072" d="M 0 0L 60 0L 60 60L 0 60Z" stroke="none" fill="url(#SvgjsPattern1073)"></path></g><g id="SvgjsG1075" transform="translate(25,304.40909090909093)"><path id="SvgjsPath1076" d="M 0 0L 114 0L 130 16L 130 30L 0 30L 0 0Z" stroke="none" fill-opacity="1" fill="#fff7bc"></path><path id="SvgjsPath1077" d="M 114 0L 114 16L 130 16Z" stroke="none" fill-opacity="1" fill="#e4d089"></path><path id="SvgjsPath1078" d="M 0 0L 114 0L 130 16L 130 30L 0 30L 0 0Z" stroke="none" fill="none"></path><g id="SvgjsG1079"><text id="SvgjsText1080" font-family="&quot;Comic Sans MS&quot;" text-anchor="middle" font-size="12px" width="110px" fill="#323232" font-weight="400" align="middle" lineHeight="125%" anchor="middle" family="&quot;Comic Sans MS&quot;" size="12px" weight="400" font-style="" opacity="1" y="5" transform="rotate(0)"><tspan id="SvgjsTspan1081" dy="15" x="65"><tspan id="SvgjsTspan1082" style="">存储5461个hash槽</tspan></tspan></text></g></g><g id="SvgjsG1083" transform="translate(155,304.40909090909093)"><path id="SvgjsPath1084" d="M 0 0L 114 0L 130 16L 130 30L 0 30L 0 0Z" stroke="none" fill-opacity="1" fill="#fff7bc"></path><path id="SvgjsPath1085" d="M 114 0L 114 16L 130 16Z" stroke="none" fill-opacity="1" fill="#e4d089"></path><path id="SvgjsPath1086" d="M 0 0L 114 0L 130 16L 130 30L 0 30L 0 0Z" stroke="none" fill="none"></path><g id="SvgjsG1087"><text id="SvgjsText1088" font-family="&quot;Comic Sans MS&quot;" text-anchor="middle" font-size="12px" width="110px" fill="#323232" font-weight="400" align="middle" lineHeight="125%" anchor="middle" family="&quot;Comic Sans MS&quot;" size="12px" weight="400" font-style="" opacity="1" y="5" transform="rotate(0)"><tspan id="SvgjsTspan1089" dy="15" x="65"><tspan id="SvgjsTspan1090" style="">存储5462个hash槽</tspan></tspan></text></g></g><g id="SvgjsG1091" transform="translate(285,304.40909090909093)"><path id="SvgjsPath1092" d="M 0 0L 114 0L 130 16L 130 30L 0 30L 0 0Z" stroke="none" fill-opacity="1" fill="#fff7bc"></path><path id="SvgjsPath1093" d="M 114 0L 114 16L 130 16Z" stroke="none" fill-opacity="1" fill="#e4d089"></path><path id="SvgjsPath1094" d="M 0 0L 114 0L 130 16L 130 30L 0 30L 0 0Z" stroke="none" fill="none"></path><g id="SvgjsG1095"><text id="SvgjsText1096" font-family="&quot;Comic Sans MS&quot;" text-anchor="middle" font-size="12px" width="110px" fill="#323232" font-weight="400" align="middle" lineHeight="125%" anchor="middle" family="&quot;Comic Sans MS&quot;" size="12px" weight="400" font-style="" opacity="1" y="5" transform="rotate(0)"><tspan id="SvgjsTspan1097" dy="15" x="65"><tspan id="SvgjsTspan1098" style="">存储5461个hash槽</tspan></tspan></text></g></g><g id="SvgjsG1099" transform="translate(81.54545454545456,25)"><path id="SvgjsPath1100" d="M 0 0L 276.9090909090909 0L 276.9090909090909 28.5L 0 28.5Z" stroke="none" fill="none"></path><g id="SvgjsG1101"><text id="SvgjsText1102" font-family="&quot;Comic Sans MS&quot;" text-anchor="middle" font-size="13px" width="277px" fill="#323232" font-weight="700" align="middle" lineHeight="125%" anchor="middle" family="&quot;Comic Sans MS&quot;" size="13px" weight="700" font-style="" opacity="1" y="3.625" transform="rotate(0)"><tspan id="SvgjsTspan1103" dy="16.25" x="138.5"><tspan id="SvgjsTspan1104" style="">HASH_SLOT = CRC16(key) mod 16384</tspan></tspan></text></g></g><g id="SvgjsG1105"><path id="SvgjsPath1106" d="M220 54.25L220 121.7090909090909" stroke="#323232" stroke-width="1.5" fill="none" marker-end="url(#SvgjsMarker1107)"></path></g><g id="SvgjsG1109" transform="translate(229.5,57.90909090909091)"><path id="SvgjsPath1110" d="M 0 0L 241 0L 241 49L 0 49Z" stroke="none" fill="none"></path><g id="SvgjsG1111"><text id="SvgjsText1112" font-family="&quot;Comic Sans MS&quot;" text-anchor="middle" font-size="13px" width="241px" fill="#323232" font-weight="400" align="middle" lineHeight="125%" anchor="middle" family="&quot;Comic Sans MS&quot;" size="13px" weight="400" font-style="" opacity="1" y="13.875" transform="rotate(0)"><tspan id="SvgjsTspan1113" dy="16.25" x="120.5"><tspan id="SvgjsTspan1114" style="">每个 key都通过计算得到对应的 slot 槽位</tspan></tspan></text></g></g></svg>