<svg id="SvgjsSvg1006" width="683" height="321" xmlns="http://www.w3.org/2000/svg" version="1.1" xmlns:xlink="http://www.w3.org/1999/xlink" xmlns:svgjs="http://svgjs.com/svgjs"><defs id="SvgjsDefs1007"><pattern patternUnits="userSpaceOnUse" id="pattern_mark_0" width="300" height="300"><text x="150" y="100" fill="rgba(229,229,229,0.8)" font-size="18" transform="rotate(-45, 150, 150)" style="dominant-baseline: middle; text-anchor: middle;"></text></pattern><pattern patternUnits="userSpaceOnUse" id="pattern_mark_1" width="300" height="300"><text x="150" y="200" fill="rgba(229,229,229,0.8)" font-size="18" transform="rotate(-45, 150, 150)" style="dominant-baseline: middle; text-anchor: middle;"></text></pattern><marker id="SvgjsMarker1031" markerWidth="13" markerHeight="9" refX="9.5" refY="4.5" viewBox="0 0 13 9" orient="auto" markerUnits="userSpaceOnUse" stroke-dasharray="0,0"><path id="SvgjsPath1032" d="M0,0 L13,4.5 L0,9 L0,0" fill="#323232" stroke="#323232" stroke-width="1"></path></marker><marker id="SvgjsMarker1041" markerWidth="13" markerHeight="9" refX="9.5" refY="4.5" viewBox="0 0 13 9" orient="auto" markerUnits="userSpaceOnUse" stroke-dasharray="0,0"><path id="SvgjsPath1042" d="M0,0 L13,4.5 L0,9 L0,0" fill="#323232" stroke="#323232" stroke-width="1"></path></marker><marker id="SvgjsMarker1087" markerWidth="13" markerHeight="9" refX="9.5" refY="4.5" viewBox="0 0 13 9" orient="auto" markerUnits="userSpaceOnUse" stroke-dasharray="0,0"><path id="SvgjsPath1088" d="M0,0 L13,4.5 L0,9 L0,0" fill="#323232" stroke="#323232" stroke-width="1"></path></marker><marker id="SvgjsMarker1095" markerWidth="13" markerHeight="9" refX="9.5" refY="4.5" viewBox="0 0 13 9" orient="auto" markerUnits="userSpaceOnUse" stroke-dasharray="0,0"><path id="SvgjsPath1096" d="M0,0 L13,4.5 L0,9 L0,0" fill="#323232" stroke="#323232" stroke-width="1"></path></marker><marker id="SvgjsMarker1103" markerWidth="13" markerHeight="9" refX="9.5" refY="4.5" viewBox="0 0 13 9" orient="auto" markerUnits="userSpaceOnUse" stroke-dasharray="0,0"><path id="SvgjsPath1104" d="M0,0 L13,4.5 L0,9 L0,0" fill="#323232" stroke="#323232" stroke-width="1"></path></marker><marker id="SvgjsMarker1107" markerWidth="13" markerHeight="9" refX="9.5" refY="4.5" viewBox="0 0 13 9" orient="auto" markerUnits="userSpaceOnUse" stroke-dasharray="0,0"><path id="SvgjsPath1108" d="M0,0 L13,4.5 L0,9 L0,0" fill="#323232" stroke="#323232" stroke-width="1"></path></marker><marker id="SvgjsMarker1115" markerWidth="13" markerHeight="9" refX="9.5" refY="4.5" viewBox="0 0 13 9" orient="auto" markerUnits="userSpaceOnUse" stroke-dasharray="0,0"><path id="SvgjsPath1116" d="M0,0 L13,4.5 L0,9 L0,0" fill="#323232" stroke="#323232" stroke-width="1"></path></marker><marker id="SvgjsMarker1119" markerWidth="13" markerHeight="9" refX="9.5" refY="4.5" viewBox="0 0 13 9" orient="auto" markerUnits="userSpaceOnUse" stroke-dasharray="0,0"><path id="SvgjsPath1120" d="M0,0 L13,4.5 L0,9 L0,0" fill="#323232" stroke="#323232" stroke-width="1"></path></marker><marker id="SvgjsMarker1127" markerWidth="13" markerHeight="9" refX="9.5" refY="4.5" viewBox="0 0 13 9" orient="auto" markerUnits="userSpaceOnUse" stroke-dasharray="0,0"><path id="SvgjsPath1128" d="M0,0 L13,4.5 L0,9 L0,0" fill="#323232" stroke="#323232" stroke-width="1"></path></marker><marker id="SvgjsMarker1135" markerWidth="13" markerHeight="9" refX="9.5" refY="4.5" viewBox="0 0 13 9" orient="auto" markerUnits="userSpaceOnUse" stroke-dasharray="0,0"><path id="SvgjsPath1136" d="M0,0 L13,4.5 L0,9 L0,0" fill="#323232" stroke="#323232" stroke-width="1"></path></marker><marker id="SvgjsMarker1143" markerWidth="13" markerHeight="9" refX="9.5" refY="4.5" viewBox="0 0 13 9" orient="auto" markerUnits="userSpaceOnUse" stroke-dasharray="0,0"><path id="SvgjsPath1144" d="M0,0 L13,4.5 L0,9 L0,0" fill="#323232" stroke="#323232" stroke-width="1"></path></marker><marker id="SvgjsMarker1147" markerWidth="13" markerHeight="9" refX="9.5" refY="4.5" viewBox="0 0 13 9" orient="auto" markerUnits="userSpaceOnUse" stroke-dasharray="0,0"><path id="SvgjsPath1148" d="M0,0 L13,4.5 L0,9 L0,0" fill="#323232" stroke="#323232" stroke-width="1"></path></marker></defs><rect id="svgbackgroundid" width="683" height="321" fill="transparent"></rect><rect id="SvgjsRect1009" width="683" height="321" fill="url(#pattern_mark_0)"></rect><rect id="SvgjsRect1010" width="683" height="321" fill="url(#pattern_mark_1)"></rect><g id="SvgjsG1011" transform="translate(247.5,25)"><path id="SvgjsPath1012" d="M 0 4Q 0 0 4 0L 247 0Q 251 0 251 4L 251 267Q 251 271 247 271L 4 271Q 0 271 0 267Z" stroke="rgba(33,41,48,1)" stroke-width="1.5" fill-opacity="1" fill="#ffffff"></path><g id="SvgjsG1013"><text id="SvgjsText1014" font-family="&quot;Microsoft YaHei&quot;, 微软雅黑, Arial" text-anchor="middle" font-size="13px" width="231px" fill="#323232" font-weight="700" align="middle" lineHeight="125%" anchor="middle" family="&quot;Microsoft YaHei&quot;, 微软雅黑, Arial" size="13px" weight="700" font-style="" opacity="1" y="124.875" transform="rotate(0)"></text></g></g><g id="SvgjsG1015" transform="translate(90.5,72)"><path id="SvgjsPath1016" d="M 0 0L 90 0L 90 30L 0 30Z" stroke="rgba(33,41,48,1)" stroke-width="1.5" fill-opacity="1" fill="#93cbff"></path><g id="SvgjsG1017"><text id="SvgjsText1018" font-family="&quot;Microsoft YaHei&quot;, 微软雅黑, Arial" text-anchor="middle" font-size="13px" width="70px" fill="#323232" font-weight="700" align="middle" lineHeight="125%" anchor="middle" family="&quot;Microsoft YaHei&quot;, 微软雅黑, Arial" size="13px" weight="700" font-style="" opacity="1" y="4.375" transform="rotate(0)"><tspan id="SvgjsTspan1019" dy="16.25" x="45"><tspan id="SvgjsTspan1020" style="">Byte Code</tspan></tspan></text></g></g><g id="SvgjsG1021" transform="translate(60.5,152)"><path id="SvgjsPath1022" d="M 0 0L 150 0L 150 40L 0 40Z" stroke="rgba(33,41,48,1)" stroke-width="1.5" fill-opacity="1" fill="#93cbff"></path><g id="SvgjsG1023"><text id="SvgjsText1024" font-family="&quot;Microsoft YaHei&quot;, 微软雅黑, Arial" text-anchor="middle" font-size="13px" width="130px" fill="#323232" font-weight="700" align="middle" lineHeight="125%" anchor="middle" family="&quot;Microsoft YaHei&quot;, 微软雅黑, Arial" size="13px" weight="700" font-style="" opacity="1" y="0.875" transform="rotate(0)"><tspan id="SvgjsTspan1025" dy="16.25" x="75"><tspan id="SvgjsTspan1026" style="">类加载步骤</tspan></tspan><tspan id="SvgjsTspan1027" dy="16.25" x="75"><tspan id="SvgjsTspan1028" style="">(加载、解析、初始化)</tspan></tspan></text></g></g><g id="SvgjsG1029"><path id="SvgjsPath1030" d="M135.5 102.75L135.5 127L135.5 127L135.5 149.3" stroke="#323232" stroke-width="1.5" fill="none" marker-end="url(#SvgjsMarker1031)"></path></g><g id="SvgjsG1033" transform="translate(85.5,242)"><path id="SvgjsPath1034" d="M 0 25L 50 0L 100 25L 50 50L 0 25Z" stroke="rgba(33,41,48,1)" stroke-width="1.5" fill-opacity="1" fill="#f7cc98"></path><g id="SvgjsG1035"><text id="SvgjsText1036" font-family="&quot;Microsoft YaHei&quot;, 微软雅黑, Arial" text-anchor="middle" font-size="13px" width="80px" fill="#323232" font-weight="700" align="middle" lineHeight="125%" anchor="middle" family="&quot;Microsoft YaHei&quot;, 微软雅黑, Arial" size="13px" weight="700" font-style="" opacity="1" y="14.375" transform="rotate(0)"><tspan id="SvgjsTspan1037" dy="16.25" x="50"><tspan id="SvgjsTspan1038" style="">检测是否加载</tspan></tspan></text></g></g><g id="SvgjsG1039"><path id="SvgjsPath1040" d="M135.5 192.75L135.5 217L135.5 217L135.5 239.3" stroke="#323232" stroke-width="1.5" fill="none" marker-end="url(#SvgjsMarker1041)"></path></g><g id="SvgjsG1043" transform="translate(275.5,67)"><path id="SvgjsPath1044" d="M 0 4Q 0 0 4 0L 86 0Q 90 0 90 4L 90 36Q 90 40 86 40L 4 40Q 0 40 0 36Z" stroke="rgba(33,41,48,1)" stroke-width="1.5" fill-opacity="1" fill="#f6a5cb"></path><g id="SvgjsG1045"><text id="SvgjsText1046" font-family="&quot;Microsoft YaHei&quot;, 微软雅黑, Arial" text-anchor="middle" font-size="13px" width="70px" fill="#323232" font-weight="700" align="middle" lineHeight="125%" anchor="middle" family="&quot;Microsoft YaHei&quot;, 微软雅黑, Arial" size="13px" weight="700" font-style="" opacity="1" y="9.375" transform="rotate(0)"><tspan id="SvgjsTspan1047" dy="16.25" x="45"><tspan id="SvgjsTspan1048" style="">Eden分配</tspan></tspan></text></g></g><g id="SvgjsG1049" transform="translate(280.5,152)"><path id="SvgjsPath1050" d="M 0 20L 40 0L 80 20L 40 40L 0 20Z" stroke="rgba(33,41,48,1)" stroke-width="1.5" fill-opacity="1" fill="#f7cc98"></path><g id="SvgjsG1051"><text id="SvgjsText1052" font-family="&quot;Microsoft YaHei&quot;, 微软雅黑, Arial" text-anchor="middle" font-size="13px" width="60px" fill="#323232" font-weight="700" align="middle" lineHeight="125%" anchor="middle" family="&quot;Microsoft YaHei&quot;, 微软雅黑, Arial" size="13px" weight="700" font-style="" opacity="1" y="9.375" transform="rotate(0)"><tspan id="SvgjsTspan1053" dy="16.25" x="40"><tspan id="SvgjsTspan1054" style="">结果</tspan></tspan></text></g></g><g id="SvgjsG1055" transform="translate(275.5,247)"><path id="SvgjsPath1056" d="M 0 4Q 0 0 4 0L 86 0Q 90 0 90 4L 90 36Q 90 40 86 40L 4 40Q 0 40 0 36Z" stroke="rgba(33,41,48,1)" stroke-width="1.5" fill-opacity="1" fill="#f8a8fe"></path><g id="SvgjsG1057"><text id="SvgjsText1058" font-family="&quot;Microsoft YaHei&quot;, 微软雅黑, Arial" text-anchor="middle" font-size="13px" width="70px" fill="#323232" font-weight="700" align="middle" lineHeight="125%" anchor="middle" family="&quot;Microsoft YaHei&quot;, 微软雅黑, Arial" size="13px" weight="700" font-style="" opacity="1" y="9.375" transform="rotate(0)"><tspan id="SvgjsTspan1059" dy="16.25" x="45"><tspan id="SvgjsTspan1060" style="">TLAB分配</tspan></tspan></text></g></g><g id="SvgjsG1061" transform="translate(390.5,67)"><path id="SvgjsPath1062" d="M 0 20L 40 0L 80 20L 40 40L 0 20Z" stroke="rgba(33,41,48,1)" stroke-width="1.5" fill-opacity="1" fill="#f7cc98"></path><g id="SvgjsG1063"><text id="SvgjsText1064" font-family="&quot;Microsoft YaHei&quot;, 微软雅黑, Arial" text-anchor="middle" font-size="13px" width="60px" fill="#323232" font-weight="700" align="middle" lineHeight="125%" anchor="middle" family="&quot;Microsoft YaHei&quot;, 微软雅黑, Arial" size="13px" weight="700" font-style="" opacity="1" y="9.375" transform="rotate(0)"><tspan id="SvgjsTspan1065" dy="16.25" x="40"><tspan id="SvgjsTspan1066" style="">结果</tspan></tspan></text></g></g><g id="SvgjsG1067" transform="translate(550.5,72)"><path id="SvgjsPath1068" d="M 0 0L 90 0L 90 30L 0 30Z" stroke="rgba(33,41,48,1)" stroke-width="1.5" fill-opacity="1" fill="#93cbff"></path><g id="SvgjsG1069"><text id="SvgjsText1070" font-family="&quot;Microsoft YaHei&quot;, 微软雅黑, Arial" text-anchor="middle" font-size="13px" width="70px" fill="#323232" font-weight="700" align="middle" lineHeight="125%" anchor="middle" family="&quot;Microsoft YaHei&quot;, 微软雅黑, Arial" size="13px" weight="700" font-style="" opacity="1" y="4.375" transform="rotate(0)"><tspan id="SvgjsTspan1071" dy="16.25" x="45"><tspan id="SvgjsTspan1072" style="">对象实例化</tspan></tspan></text></g></g><g id="SvgjsG1073" transform="translate(533,157)"><path id="SvgjsPath1074" d="M 0 0L 125 0L 125 30L 0 30Z" stroke="rgba(33,41,48,1)" stroke-width="1.5" fill-opacity="1" fill="#93cbff"></path><g id="SvgjsG1075"><text id="SvgjsText1076" font-family="&quot;Microsoft YaHei&quot;, 微软雅黑, Arial" text-anchor="middle" font-size="13px" width="105px" fill="#323232" font-weight="700" align="middle" lineHeight="125%" anchor="middle" family="&quot;Microsoft YaHei&quot;, 微软雅黑, Arial" size="13px" weight="700" font-style="" opacity="1" y="4.375" transform="rotate(0)"><tspan id="SvgjsTspan1077" dy="16.25" x="62.5"><tspan id="SvgjsTspan1078" style="">将Reference入栈</tspan></tspan></text></g></g><g id="SvgjsG1079" transform="translate(543,252)"><path id="SvgjsPath1080" d="M 0 0L 105 0L 105 30L 0 30Z" stroke="rgba(33,41,48,1)" stroke-width="1.5" fill-opacity="1" fill="#93cbff"></path><g id="SvgjsG1081"><text id="SvgjsText1082" font-family="&quot;Microsoft YaHei&quot;, 微软雅黑, Arial" text-anchor="middle" font-size="13px" width="85px" fill="#323232" font-weight="700" align="middle" lineHeight="125%" anchor="middle" family="&quot;Microsoft YaHei&quot;, 微软雅黑, Arial" size="13px" weight="700" font-style="" opacity="1" y="4.375" transform="rotate(0)"><tspan id="SvgjsTspan1083" dy="16.25" x="52.5"><tspan id="SvgjsTspan1084" style="">更新PC计数器</tspan></tspan></text></g></g><g id="SvgjsG1085"><path id="SvgjsPath1086" d="M84.75 267L30.5 267L30.5 172L57.8 172" stroke="#323232" stroke-width="1.5" fill="none" marker-end="url(#SvgjsMarker1087)"></path><rect id="SvgjsRect1089" width="9" height="18" x="26" y="212.20499999999998" fill="#ffffff"></rect><text id="SvgjsText1090" font-family="&quot;Microsoft YaHei&quot;, 微软雅黑, Arial" text-anchor="middle" font-size="13px" width="9px" fill="#323232" font-weight="700" align="top" lineHeight="16px" anchor="middle" family="&quot;Microsoft YaHei&quot;, 微软雅黑, Arial" size="13px" weight="700" font-style="" opacity="1" y="209.57999999999998" transform="rotate(0)"><tspan id="SvgjsTspan1091" dy="16.25" x="30.5"><tspan id="SvgjsTspan1092" style="">N</tspan></tspan></text></g><g id="SvgjsG1093"><path id="SvgjsPath1094" d="M186.25 267L230.5 267L230.5 267L272.8 267" stroke="#323232" stroke-width="1.5" fill="none" marker-end="url(#SvgjsMarker1095)"></path><rect id="SvgjsRect1097" width="9" height="18" x="223.1016666666667" y="258" fill="#ffffff"></rect><text id="SvgjsText1098" font-family="&quot;Microsoft YaHei&quot;, 微软雅黑, Arial" text-anchor="middle" font-size="13px" width="9px" fill="#323232" font-weight="700" align="top" lineHeight="16px" anchor="middle" family="&quot;Microsoft YaHei&quot;, 微软雅黑, Arial" size="13px" weight="700" font-style="" opacity="1" y="255.375" transform="rotate(0)"><tspan id="SvgjsTspan1099" dy="16.25" x="227.6016666666667"><tspan id="SvgjsTspan1100" style="">Y</tspan></tspan></text></g><g id="SvgjsG1101"><path id="SvgjsPath1102" d="M320.5 246.25L320.5 219.5L320.5 219.5L320.5 194.7" stroke="#323232" stroke-width="1.5" fill="none" marker-end="url(#SvgjsMarker1103)"></path></g><g id="SvgjsG1105"><path id="SvgjsPath1106" d="M320.5 151.25L320.5 129.5L320.5 129.5L320.5 109.7" stroke="#323232" stroke-width="1.5" fill="none" marker-end="url(#SvgjsMarker1107)"></path><rect id="SvgjsRect1109" width="9" height="18" x="316" y="123.78333333333333" fill="#ffffff"></rect><text id="SvgjsText1110" font-family="&quot;Microsoft YaHei&quot;, 微软雅黑, Arial" text-anchor="middle" font-size="13px" width="9px" fill="#323232" font-weight="700" align="top" lineHeight="16px" anchor="middle" family="&quot;Microsoft YaHei&quot;, 微软雅黑, Arial" size="13px" weight="700" font-style="" opacity="1" y="121.15833333333333" transform="rotate(0)"><tspan id="SvgjsTspan1111" dy="16.25" x="320.5"><tspan id="SvgjsTspan1112" style="">N</tspan></tspan></text></g><g id="SvgjsG1113"><path id="SvgjsPath1114" d="M366.25 87L378 87L378 87L387.8 87" stroke="#323232" stroke-width="1.5" fill="none" marker-end="url(#SvgjsMarker1115)"></path></g><g id="SvgjsG1117"><path id="SvgjsPath1118" d="M430.5 66.25L430.5 37L320.5 37L320.5 64.3" stroke="#323232" stroke-width="1.5" fill="none" marker-end="url(#SvgjsMarker1119)"></path><rect id="SvgjsRect1121" width="9" height="18" x="370.0155882352941" y="28" fill="#ffffff"></rect><text id="SvgjsText1122" font-family="&quot;Microsoft YaHei&quot;, 微软雅黑, Arial" text-anchor="middle" font-size="13px" width="9px" fill="#323232" font-weight="700" align="top" lineHeight="16px" anchor="middle" family="&quot;Microsoft YaHei&quot;, 微软雅黑, Arial" size="13px" weight="700" font-style="" opacity="1" y="25.375" transform="rotate(0)"><tspan id="SvgjsTspan1123" dy="16.25" x="374.5155882352941"><tspan id="SvgjsTspan1124" style="">N</tspan></tspan></text></g><g id="SvgjsG1125"><path id="SvgjsPath1126" d="M471.25 87L510.5 87L510.5 87L547.8 87" stroke="#323232" stroke-width="1.5" fill="none" marker-end="url(#SvgjsMarker1127)"></path><rect id="SvgjsRect1129" width="9" height="18" x="484.93062499999996" y="77.99999999999999" fill="#ffffff"></rect><text id="SvgjsText1130" font-family="&quot;Microsoft YaHei&quot;, 微软雅黑, Arial" text-anchor="middle" font-size="13px" width="9px" fill="#323232" font-weight="700" align="top" lineHeight="16px" anchor="middle" family="&quot;Microsoft YaHei&quot;, 微软雅黑, Arial" size="13px" weight="700" font-style="" opacity="1" y="75.37499999999999" transform="rotate(0)"><tspan id="SvgjsTspan1131" dy="16.25" x="489.43062499999996"><tspan id="SvgjsTspan1132" style="">Y</tspan></tspan></text></g><g id="SvgjsG1133"><path id="SvgjsPath1134" d="M361.25 172L504.5 172L504.5 87L547.8 87" stroke="#323232" stroke-width="1.5" fill="none" marker-end="url(#SvgjsMarker1135)"></path><rect id="SvgjsRect1137" width="9" height="18" x="425.8718181818182" y="163" fill="#ffffff"></rect><text id="SvgjsText1138" font-family="&quot;Microsoft YaHei&quot;, 微软雅黑, Arial" text-anchor="middle" font-size="13px" width="9px" fill="#323232" font-weight="700" align="top" lineHeight="16px" anchor="middle" family="&quot;Microsoft YaHei&quot;, 微软雅黑, Arial" size="13px" weight="700" font-style="" opacity="1" y="160.375" transform="rotate(0)"><tspan id="SvgjsTspan1139" dy="16.25" x="430.3718181818182"><tspan id="SvgjsTspan1140" style="">Y</tspan></tspan></text></g><g id="SvgjsG1141"><path id="SvgjsPath1142" d="M595.5 102.75L595.5 129.5L595.5 129.5L595.5 154.3" stroke="#323232" stroke-width="1.5" fill="none" marker-end="url(#SvgjsMarker1143)"></path></g><g id="SvgjsG1145"><path id="SvgjsPath1146" d="M595.5 187.75L595.5 219.5L595.5 219.5L595.5 249.3" stroke="#323232" stroke-width="1.5" fill="none" marker-end="url(#SvgjsMarker1147)"></path></g><g id="SvgjsG1149"></g></svg>