<svg id="SvgjsSvg1544" width="460" height="227.6818181818182" xmlns="http://www.w3.org/2000/svg" version="1.1" xmlns:xlink="http://www.w3.org/1999/xlink" xmlns:svgjs="http://svgjs.com/svgjs"><defs id="SvgjsDefs1545"><pattern patternUnits="userSpaceOnUse" id="pattern_mark_0" width="300" height="300"><text x="150" y="100" fill="rgba(229,229,229,0.8)" font-size="18" transform="rotate(-45, 150, 150)" style="dominant-baseline: middle; text-anchor: middle;"></text></pattern><pattern patternUnits="userSpaceOnUse" id="pattern_mark_1" width="300" height="300"><text x="150" y="200" fill="rgba(229,229,229,0.8)" font-size="18" transform="rotate(-45, 150, 150)" style="dominant-baseline: middle; text-anchor: middle;"></text></pattern><marker id="SvgjsMarker1615" markerWidth="16" markerHeight="12" refX="0" refY="6" viewBox="0 0 16 12" orient="auto" markerUnits="userSpaceOnUse" stroke-dasharray="0,0"><path id="SvgjsPath1616" d="M1,6 L15,1 L15,11L1,6" fill="#ffffff" stroke="#323232" stroke-width="1.5"></path></marker><marker id="SvgjsMarker1617" markerWidth="14" markerHeight="12" refX="16" refY="6" viewBox="0 0 14 12" orient="auto" markerUnits="userSpaceOnUse" stroke-dasharray="0,0"><path id="SvgjsPath1618" d="M1,1 L14,6 L1,11L1,1" fill="#ffffff" stroke="#323232" stroke-width="1.5"></path></marker><marker id="SvgjsMarker1621" markerWidth="16" markerHeight="12" refX="0" refY="6" viewBox="0 0 16 12" orient="auto" markerUnits="userSpaceOnUse" stroke-dasharray="0,0"><path id="SvgjsPath1622" d="M1,6 L15,1 L15,11L1,6" fill="#ffffff" stroke="#323232" stroke-width="1.5"></path></marker><marker id="SvgjsMarker1623" markerWidth="14" markerHeight="12" refX="16" refY="6" viewBox="0 0 14 12" orient="auto" markerUnits="userSpaceOnUse" stroke-dasharray="0,0"><path id="SvgjsPath1624" d="M1,1 L14,6 L1,11L1,1" fill="#ffffff" stroke="#323232" stroke-width="1.5"></path></marker><marker id="SvgjsMarker1627" markerWidth="16" markerHeight="12" refX="0" refY="6" viewBox="0 0 16 12" orient="auto" markerUnits="userSpaceOnUse" stroke-dasharray="0,0"><path id="SvgjsPath1628" d="M1,6 L15,1 L15,11L1,6" fill="#ffffff" stroke="#323232" stroke-width="1.5"></path></marker><marker id="SvgjsMarker1629" markerWidth="14" markerHeight="12" refX="16" refY="6" viewBox="0 0 14 12" orient="auto" markerUnits="userSpaceOnUse" stroke-dasharray="0,0"><path id="SvgjsPath1630" d="M1,1 L14,6 L1,11L1,1" fill="#ffffff" stroke="#323232" stroke-width="1.5"></path></marker><marker id="SvgjsMarker1633" markerWidth="16" markerHeight="12" refX="0" refY="6" viewBox="0 0 16 12" orient="auto" markerUnits="userSpaceOnUse" stroke-dasharray="0,0"><path id="SvgjsPath1634" d="M1,6 L15,1 L15,11L1,6" fill="#ffffff" stroke="#323232" stroke-width="1.5"></path></marker><marker id="SvgjsMarker1635" markerWidth="14" markerHeight="12" refX="16" refY="6" viewBox="0 0 14 12" orient="auto" markerUnits="userSpaceOnUse" stroke-dasharray="0,0"><path id="SvgjsPath1636" d="M1,1 L14,6 L1,11L1,1" fill="#ffffff" stroke="#323232" stroke-width="1.5"></path></marker><marker id="SvgjsMarker1639" markerWidth="16" markerHeight="12" refX="0" refY="6" viewBox="0 0 16 12" orient="auto" markerUnits="userSpaceOnUse" stroke-dasharray="0,0"><path id="SvgjsPath1640" d="M1,6 L15,1 L15,11L1,6" fill="#ffffff" stroke="#323232" stroke-width="1.5"></path></marker><marker id="SvgjsMarker1641" markerWidth="14" markerHeight="12" refX="16" refY="6" viewBox="0 0 14 12" orient="auto" markerUnits="userSpaceOnUse" stroke-dasharray="0,0"><path id="SvgjsPath1642" d="M1,1 L14,6 L1,11L1,1" fill="#ffffff" stroke="#323232" stroke-width="1.5"></path></marker><marker id="SvgjsMarker1645" markerWidth="16" markerHeight="12" refX="0" refY="6" viewBox="0 0 16 12" orient="auto" markerUnits="userSpaceOnUse" stroke-dasharray="0,0"><path id="SvgjsPath1646" d="M1,6 L15,1 L15,11L1,6" fill="#ffffff" stroke="#323232" stroke-width="1.5"></path></marker><marker id="SvgjsMarker1647" markerWidth="14" markerHeight="12" refX="16" refY="6" viewBox="0 0 14 12" orient="auto" markerUnits="userSpaceOnUse" stroke-dasharray="0,0"><path id="SvgjsPath1648" d="M1,1 L14,6 L1,11L1,1" fill="#ffffff" stroke="#323232" stroke-width="1.5"></path></marker><marker id="SvgjsMarker1651" markerWidth="16" markerHeight="12" refX="0" refY="6" viewBox="0 0 16 12" orient="auto" markerUnits="userSpaceOnUse" stroke-dasharray="0,0"><path id="SvgjsPath1652" d="M1,6 L15,1 L15,11L1,6" fill="#ffffff" stroke="#323232" stroke-width="1.5"></path></marker><marker id="SvgjsMarker1653" markerWidth="14" markerHeight="12" refX="16" refY="6" viewBox="0 0 14 12" orient="auto" markerUnits="userSpaceOnUse" stroke-dasharray="0,0"><path id="SvgjsPath1654" d="M1,1 L14,6 L1,11L1,1" fill="#ffffff" stroke="#323232" stroke-width="1.5"></path></marker></defs><rect id="svgbackgroundid" width="460" height="227.6818181818182" fill="transparent"></rect><rect id="SvgjsRect1547" width="460" height="227.6818181818182" fill="url(#pattern_mark_0)"></rect><rect id="SvgjsRect1548" width="460" height="227.6818181818182" fill="url(#pattern_mark_1)"></rect><g id="SvgjsG1549" transform="translate(25,25)"><path id="SvgjsPath1550" d="M 0 4Q 0 0 4 0L 67.86363636363637 0Q 71.86363636363637 0 71.86363636363637 4L 71.86363636363637 16.181818181818187Q 71.86363636363637 20.181818181818187 67.86363636363637 20.181818181818187L 4 20.181818181818187Q 0 20.181818181818187 0 16.181818181818187Z" stroke="rgba(33,41,48,1)" stroke-width="1.5" fill-opacity="1" fill="#ffffff"></path><g id="SvgjsG1551"><text id="SvgjsText1552" font-family="微软雅黑" text-anchor="middle" font-size="13px" width="52px" fill="#323232" font-weight="700" align="middle" lineHeight="125%" anchor="middle" family="微软雅黑" size="13px" weight="700" font-style="" opacity="1" y="-0.5340909090909065" transform="rotate(0)"><tspan id="SvgjsTspan1553" dy="16.25" x="36"><tspan id="SvgjsTspan1554" style="">处理器</tspan></tspan></text></g></g><g id="SvgjsG1555" transform="translate(25,80.22727272727272)"><path id="SvgjsPath1556" d="M 0 4Q 0 0 4 0L 67.86363636363637 0Q 71.86363636363637 0 71.86363636363637 4L 71.86363636363637 16.181818181818187Q 71.86363636363637 20.181818181818187 67.86363636363637 20.181818181818187L 4 20.181818181818187Q 0 20.181818181818187 0 16.181818181818187Z" stroke="rgba(33,41,48,1)" stroke-width="1.5" fill-opacity="1" fill="#ffffff"></path><g id="SvgjsG1557"><text id="SvgjsText1558" font-family="微软雅黑" text-anchor="middle" font-size="13px" width="52px" fill="#323232" font-weight="700" align="middle" lineHeight="125%" anchor="middle" family="微软雅黑" size="13px" weight="700" font-style="" opacity="1" y="-0.5340909090909065" transform="rotate(0)"><tspan id="SvgjsTspan1559" dy="16.25" x="36"><tspan id="SvgjsTspan1560" style="">处理器</tspan></tspan></text></g></g><g id="SvgjsG1561" transform="translate(25,135.45454545454544)"><path id="SvgjsPath1562" d="M 0 4Q 0 0 4 0L 67.86363636363637 0Q 71.86363636363637 0 71.86363636363637 4L 71.86363636363637 16.181818181818187Q 71.86363636363637 20.181818181818187 67.86363636363637 20.181818181818187L 4 20.181818181818187Q 0 20.181818181818187 0 16.181818181818187Z" stroke="rgba(33,41,48,1)" stroke-width="1.5" fill-opacity="1" fill="#ffffff"></path><g id="SvgjsG1563"><text id="SvgjsText1564" font-family="微软雅黑" text-anchor="middle" font-size="13px" width="52px" fill="#323232" font-weight="700" align="middle" lineHeight="125%" anchor="middle" family="微软雅黑" size="13px" weight="700" font-style="" opacity="1" y="-0.5340909090909065" transform="rotate(0)"><tspan id="SvgjsTspan1565" dy="16.25" x="36"><tspan id="SvgjsTspan1566" style="">处理器</tspan></tspan></text></g></g><g id="SvgjsG1567" transform="translate(149,25)"><path id="SvgjsPath1568" d="M 0 4Q 0 0 4 0L 84.22727272727275 0Q 88.22727272727275 0 88.22727272727275 4L 88.22727272727275 16.181818181818187Q 88.22727272727275 20.181818181818187 84.22727272727275 20.181818181818187L 4 20.181818181818187Q 0 20.181818181818187 0 16.181818181818187Z" stroke="rgba(33,41,48,1)" stroke-width="1.5" fill-opacity="1" fill="#ffffff"></path><g id="SvgjsG1569"><text id="SvgjsText1570" font-family="微软雅黑" text-anchor="middle" font-size="13px" width="69px" fill="#323232" font-weight="700" align="middle" lineHeight="125%" anchor="middle" family="微软雅黑" size="13px" weight="700" font-style="" opacity="1" y="-0.5340909090909065" transform="rotate(0)"><tspan id="SvgjsTspan1571" dy="16.25" x="44.5"><tspan id="SvgjsTspan1572" style="">高速缓存</tspan></tspan></text></g></g><g id="SvgjsG1573" transform="translate(149,80.22727272727272)"><path id="SvgjsPath1574" d="M 0 4Q 0 0 4 0L 84.22727272727275 0Q 88.22727272727275 0 88.22727272727275 4L 88.22727272727275 16.181818181818187Q 88.22727272727275 20.181818181818187 84.22727272727275 20.181818181818187L 4 20.181818181818187Q 0 20.181818181818187 0 16.181818181818187Z" stroke="rgba(33,41,48,1)" stroke-width="1.5" fill-opacity="1" fill="#ffffff"></path><g id="SvgjsG1575"><text id="SvgjsText1576" font-family="微软雅黑" text-anchor="middle" font-size="13px" width="69px" fill="#323232" font-weight="700" align="middle" lineHeight="125%" anchor="middle" family="微软雅黑" size="13px" weight="700" font-style="" opacity="1" y="-0.5340909090909065" transform="rotate(0)"><tspan id="SvgjsTspan1577" dy="16.25" x="44.5"><tspan id="SvgjsTspan1578" style="">高速缓存</tspan></tspan></text></g></g><g id="SvgjsG1579" transform="translate(149,135.45454545454544)"><path id="SvgjsPath1580" d="M 0 4Q 0 0 4 0L 84.22727272727275 0Q 88.22727272727275 0 88.22727272727275 4L 88.22727272727275 16.181818181818187Q 88.22727272727275 20.181818181818187 84.22727272727275 20.181818181818187L 4 20.181818181818187Q 0 20.181818181818187 0 16.181818181818187Z" stroke="rgba(33,41,48,1)" stroke-width="1.5" fill-opacity="1" fill="#ffffff"></path><g id="SvgjsG1581"><text id="SvgjsText1582" font-family="微软雅黑" text-anchor="middle" font-size="13px" width="69px" fill="#323232" font-weight="700" align="middle" lineHeight="125%" anchor="middle" family="微软雅黑" size="13px" weight="700" font-style="" opacity="1" y="-0.5340909090909065" transform="rotate(0)"><tspan id="SvgjsTspan1583" dy="16.25" x="44.5"><tspan id="SvgjsTspan1584" style="">高速缓存</tspan></tspan></text></g></g><g id="SvgjsG1585" transform="translate(287,25)"><path id="SvgjsPath1586" d="M 0 0L 34 0L 34 130.63636363636363L 0 130.63636363636363Z" stroke="rgba(33,41,48,1)" stroke-width="1.5" fill-opacity="1" fill="#ffffff"></path><g id="SvgjsG1587"><text id="SvgjsText1588" font-family="微软雅黑" text-anchor="middle" font-size="13px" width="14px" fill="#323232" font-weight="400" align="middle" lineHeight="125%" anchor="middle" family="微软雅黑" size="13px" weight="400" font-style="" opacity="1" y="5.693181818181813" transform="rotate(0)"><tspan id="SvgjsTspan1589" dy="16.25" x="17"><tspan id="SvgjsTspan1590" style="">缓</tspan></tspan><tspan id="SvgjsTspan1591" dy="16.25" x="17"><tspan id="SvgjsTspan1592" style="">存</tspan></tspan><tspan id="SvgjsTspan1593" dy="16.25" x="17"><tspan id="SvgjsTspan1594" style="">一</tspan></tspan><tspan id="SvgjsTspan1595" dy="16.25" x="17"><tspan id="SvgjsTspan1596" style="">致</tspan></tspan><tspan id="SvgjsTspan1597" dy="16.25" x="17"><tspan id="SvgjsTspan1598" style="">性</tspan></tspan><tspan id="SvgjsTspan1599" dy="16.25" x="17"><tspan id="SvgjsTspan1600" style="">协</tspan></tspan><tspan id="SvgjsTspan1601" dy="16.25" x="17"><tspan id="SvgjsTspan1602" style="">议</tspan></tspan></text></g></g><g id="SvgjsG1603" transform="translate(387,55.31818181818181)"><path id="SvgjsPath1604" d="M 0 35C 0 -11.666666666666666 48 -11.666666666666666 48 35C 48 81.66666666666667 0 81.66666666666667 0 35Z" stroke="rgba(33,41,48,1)" stroke-width="1.5" fill-opacity="1" fill="#ffffff"></path><g id="SvgjsG1605"><text id="SvgjsText1606" font-family="微软雅黑" text-anchor="middle" font-size="13px" width="28px" fill="#323232" font-weight="400" align="middle" lineHeight="125%" anchor="middle" family="微软雅黑" size="13px" weight="400" font-style="" opacity="1" y="7.875" transform="rotate(0)"><tspan id="SvgjsTspan1607" dy="16.25" x="24"><tspan id="SvgjsTspan1608" style="">主</tspan></tspan><tspan id="SvgjsTspan1609" dy="16.25" x="24"><tspan id="SvgjsTspan1610" style="">内</tspan></tspan><tspan id="SvgjsTspan1611" dy="16.25" x="24"><tspan id="SvgjsTspan1612" style="">存</tspan></tspan></text></g></g><g id="SvgjsG1613"><path id="SvgjsPath1614" d="M99.56363636363636 35.09090909090909L146.3 35.09090909090909" stroke="#323232" stroke-width="1.5" fill="none" marker-start="url(#SvgjsMarker1615)" marker-end="url(#SvgjsMarker1617)"></path></g><g id="SvgjsG1619"><path id="SvgjsPath1620" d="M99.56363636363636 90.31818181818181L146.3 90.31818181818181" stroke="#323232" stroke-width="1.5" fill="none" marker-start="url(#SvgjsMarker1621)" marker-end="url(#SvgjsMarker1623)"></path></g><g id="SvgjsG1625"><path id="SvgjsPath1626" d="M99.56363636363636 145.54545454545453L146.3 145.54545454545453" stroke="#323232" stroke-width="1.5" fill="none" marker-start="url(#SvgjsMarker1627)" marker-end="url(#SvgjsMarker1629)"></path></g><g id="SvgjsG1631"><path id="SvgjsPath1632" d="M239.92727272727274 35.09090909090909L284.29999999999995 35.09090909090909" stroke="#323232" stroke-width="1.5" fill="none" marker-start="url(#SvgjsMarker1633)" marker-end="url(#SvgjsMarker1635)"></path></g><g id="SvgjsG1637"><path id="SvgjsPath1638" d="M239.92727272727274 90.31818181818181L284.29999999999995 90.31818181818181" stroke="#323232" stroke-width="1.5" fill="none" marker-start="url(#SvgjsMarker1639)" marker-end="url(#SvgjsMarker1641)"></path></g><g id="SvgjsG1643"><path id="SvgjsPath1644" d="M239.92727272727274 145.54545454545453L284.29999999999995 145.54545454545453" stroke="#323232" stroke-width="1.5" fill="none" marker-start="url(#SvgjsMarker1645)" marker-end="url(#SvgjsMarker1647)"></path></g><g id="SvgjsG1649"><path id="SvgjsPath1650" d="M323.70000000000005 90.31818181818181L384.29999999999995 90.31818181818181" stroke="#323232" stroke-width="1.5" fill="none" marker-start="url(#SvgjsMarker1651)" marker-end="url(#SvgjsMarker1653)"></path></g><g id="SvgjsG1655" transform="translate(66.86363636363637,150.1818181818182)"><path id="SvgjsPath1656" d="M 0 0L 249.77272727272725 0L 249.77272727272725 52.5L 0 52.5Z" stroke="none" fill="none"></path><g id="SvgjsG1657"><text id="SvgjsText1658" font-family="微软雅黑" text-anchor="middle" font-size="13px" width="250px" fill="#323232" font-weight="400" align="middle" lineHeight="125%" anchor="middle" family="微软雅黑" size="13px" weight="400" font-style="" opacity="1" y="15.625" transform="rotate(0)"><tspan id="SvgjsTspan1659" dy="16.25" x="125"><tspan id="SvgjsTspan1660" style="font-weight: bold;">处理器，高速缓存，主内存之间的交互关系</tspan></tspan></text></g></g></svg>