<svg id="SvgjsSvg1006" width="770" height="318.99999999999994" xmlns="http://www.w3.org/2000/svg" version="1.1" xmlns:xlink="http://www.w3.org/1999/xlink" xmlns:svgjs="http://svgjs.com/svgjs"><defs id="SvgjsDefs1007"><pattern patternUnits="userSpaceOnUse" id="pattern_mark_0" width="300" height="300"><text x="150" y="100" fill="rgba(229,229,229,0.8)" font-size="18" transform="rotate(-45, 150, 150)" style="dominant-baseline: middle; text-anchor: middle;"></text></pattern><pattern patternUnits="userSpaceOnUse" id="pattern_mark_1" width="300" height="300"><text x="150" y="200" fill="rgba(229,229,229,0.8)" font-size="18" transform="rotate(-45, 150, 150)" style="dominant-baseline: middle; text-anchor: middle;"></text></pattern></defs><rect id="svgbackgroundid" width="770" height="318.99999999999994" fill="transparent"></rect><rect id="SvgjsRect1009" width="770" height="318.99999999999994" fill="url(#pattern_mark_0)"></rect><rect id="SvgjsRect1010" width="770" height="318.99999999999994" fill="url(#pattern_mark_1)"></rect><g id="SvgjsG1011" transform="translate(25,145.1917808219178)"><path id="SvgjsPath1012" d="M 0 0L 80 0L 80 30L 0 30Z" stroke="rgba(121,133,236,1)" stroke-width="1" fill-opacity="1" fill="#dbe9fc"></path><g id="SvgjsG1013"><text id="SvgjsText1014" font-family="&quot;Comic Sans MS&quot;" text-anchor="middle" font-size="13px" width="60px" fill="#323232" font-weight="700" align="middle" lineHeight="125%" anchor="middle" family="&quot;Comic Sans MS&quot;" size="13px" weight="700" font-style="" opacity="1" y="4.375" transform="rotate(0)"><tspan id="SvgjsTspan1015" dy="16.25" x="40"><tspan id="SvgjsTspan1016" style="">zlbytes</tspan></tspan></text></g></g><g id="SvgjsG1017" transform="translate(105,145.1917808219178)"><path id="SvgjsPath1018" d="M 0 0L 80 0L 80 30L 0 30Z" stroke="rgba(121,133,236,1)" stroke-width="1" fill-opacity="1" fill="#dbe9fc"></path><g id="SvgjsG1019"><text id="SvgjsText1020" font-family="&quot;Comic Sans MS&quot;" text-anchor="middle" font-size="13px" width="60px" fill="#323232" font-weight="700" align="middle" lineHeight="125%" anchor="middle" family="&quot;Comic Sans MS&quot;" size="13px" weight="700" font-style="" opacity="1" y="4.375" transform="rotate(0)"><tspan id="SvgjsTspan1021" dy="16.25" x="40"><tspan id="SvgjsTspan1022" style="font-weight: normal;">zltail</tspan></tspan></text></g></g><g id="SvgjsG1023" transform="translate(185,145.1917808219178)"><path id="SvgjsPath1024" d="M 0 0L 80 0L 80 30L 0 30Z" stroke="rgba(121,133,236,1)" stroke-width="1" fill-opacity="1" fill="#dbe9fc"></path><g id="SvgjsG1025"><text id="SvgjsText1026" font-family="&quot;Comic Sans MS&quot;" text-anchor="middle" font-size="13px" width="60px" fill="#323232" font-weight="700" align="middle" lineHeight="125%" anchor="middle" family="&quot;Comic Sans MS&quot;" size="13px" weight="700" font-style="" opacity="1" y="4.375" transform="rotate(0)"><tspan id="SvgjsTspan1027" dy="16.25" x="40"><tspan id="SvgjsTspan1028" style="font-weight: normal;">zllen</tspan></tspan></text></g></g><g id="SvgjsG1029" transform="translate(345,145.1917808219178)"><path id="SvgjsPath1030" d="M 0 0L 80 0L 80 30L 0 30Z" stroke="rgba(121,133,236,1)" stroke-width="1" fill-opacity="1" fill="#d6e9d5"></path><g id="SvgjsG1031"><text id="SvgjsText1032" font-family="&quot;Comic Sans MS&quot;" text-anchor="middle" font-size="13px" width="60px" fill="#323232" font-weight="700" align="middle" lineHeight="125%" anchor="middle" family="&quot;Comic Sans MS&quot;" size="13px" weight="700" font-style="" opacity="1" y="4.375" transform="rotate(0)"><tspan id="SvgjsTspan1033" dy="16.25" x="40"><tspan id="SvgjsTspan1034" style="">e1</tspan></tspan></text></g></g><g id="SvgjsG1035" transform="translate(425,145.1917808219178)"><path id="SvgjsPath1036" d="M 0 0L 80 0L 80 30L 0 30Z" stroke="rgba(121,133,236,1)" stroke-width="1" fill-opacity="1" fill="#d6e9d5"></path><g id="SvgjsG1037"><text id="SvgjsText1038" font-family="&quot;Comic Sans MS&quot;" text-anchor="middle" font-size="13px" width="60px" fill="#323232" font-weight="700" align="middle" lineHeight="125%" anchor="middle" family="&quot;Comic Sans MS&quot;" size="13px" weight="700" font-style="" opacity="1" y="4.375" transform="rotate(0)"><tspan id="SvgjsTspan1039" dy="16.25" x="40"><tspan id="SvgjsTspan1040" style="">e2</tspan></tspan></text></g></g><g id="SvgjsG1041" transform="translate(665,145.1917808219178)"><path id="SvgjsPath1042" d="M 0 0L 80 0L 80 30L 0 30Z" stroke="rgba(121,133,236,1)" stroke-width="1" fill-opacity="1" fill="#f9cfce"></path><g id="SvgjsG1043"><text id="SvgjsText1044" font-family="&quot;Comic Sans MS&quot;" text-anchor="middle" font-size="13px" width="60px" fill="#323232" font-weight="400" align="middle" lineHeight="125%" anchor="middle" family="&quot;Comic Sans MS&quot;" size="13px" weight="400" font-style="" opacity="1" y="4.375" transform="rotate(0)"><tspan id="SvgjsTspan1045" dy="16.25" x="40"><tspan id="SvgjsTspan1046" style="">zlend</tspan></tspan></text></g></g><g id="SvgjsG1047" transform="translate(505,145.1917808219178)"><path id="SvgjsPath1048" d="M 0 0L 80 0L 80 30L 0 30Z" stroke="rgba(121,133,236,1)" stroke-width="1" fill-opacity="1" fill="#d6e9d5"></path><g id="SvgjsG1049"><text id="SvgjsText1050" font-family="&quot;Comic Sans MS&quot;" text-anchor="middle" font-size="13px" width="60px" fill="#323232" font-weight="700" align="middle" lineHeight="125%" anchor="middle" family="&quot;Comic Sans MS&quot;" size="13px" weight="700" font-style="" opacity="1" y="4.375" transform="rotate(0)"><tspan id="SvgjsTspan1051" dy="16.25" x="40"><tspan id="SvgjsTspan1052" style="">...</tspan></tspan></text></g></g><g id="SvgjsG1053" transform="translate(585,145.1917808219178)"><path id="SvgjsPath1054" d="M 0 0L 80 0L 80 30L 0 30Z" stroke="rgba(121,133,236,1)" stroke-width="1" fill-opacity="1" fill="#d6e9d5"></path><g id="SvgjsG1055"><text id="SvgjsText1056" font-family="&quot;Comic Sans MS&quot;" text-anchor="middle" font-size="13px" width="60px" fill="#323232" font-weight="700" align="middle" lineHeight="125%" anchor="middle" family="&quot;Comic Sans MS&quot;" size="13px" weight="700" font-style="" opacity="1" y="4.375" transform="rotate(0)"><tspan id="SvgjsTspan1057" dy="16.25" x="40"><tspan id="SvgjsTspan1058" style="">eN</tspan></tspan></text></g></g><g id="SvgjsG1059" transform="matrix(6.123233995736766e-17,1,-1,6.123233995736766e-17,425.41094970703125,25)"><path id="SvgjsPath1060" d="M 120 0Q 111 0 111 8L 111 32Q 111 40 98 40Q 111 40 111 48L 111 72Q 111 80 120 80" stroke="rgba(33,41,48,1)" stroke-width="1.5" fill="none"></path><path id="SvgjsPath1061" d="M 0 0L 120 0L 120 80L 0 80Z" stroke="none" fill="none"></path><g id="SvgjsG1062"><text id="SvgjsText1063" font-family="&quot;Comic Sans MS&quot;" text-anchor="end" font-size="13px" width="93px" fill="#323232" font-weight="400" align="middle" lineHeight="125%" anchor="end" family="&quot;Comic Sans MS&quot;" size="13px" weight="400" font-style="" opacity="1" y="29.375" transform="rotate(0)"></text></g></g><g id="SvgjsG1064" transform="matrix(6.123233995736766e-17,1,-1,6.123233995736766e-17,665.7123413085938,25.643836975097656)"><path id="SvgjsPath1065" d="M 120 0Q 111 0 111 8L 111 32Q 111 40 98 40Q 111 40 111 48L 111 72Q 111 80 120 80" stroke="rgba(33,41,48,1)" stroke-width="1.5" fill="none"></path><path id="SvgjsPath1066" d="M 0 0L 120 0L 120 80L 0 80Z" stroke="none" fill="none"></path><g id="SvgjsG1067"><text id="SvgjsText1068" font-family="&quot;Comic Sans MS&quot;" text-anchor="end" font-size="13px" width="93px" fill="#323232" font-weight="400" align="middle" lineHeight="125%" anchor="end" family="&quot;Comic Sans MS&quot;" size="13px" weight="400" font-style="" opacity="1" y="29.375" transform="rotate(0)"></text></g></g><g id="SvgjsG1069" transform="matrix(6.123233995736766e-17,1,-1,6.123233995736766e-17,504.8630065917969,25.821918487548828)"><path id="SvgjsPath1070" d="M 120 0Q 111 0 111 8L 111 32Q 111 40 98 40Q 111 40 111 48L 111 72Q 111 80 120 80" stroke="rgba(33,41,48,1)" stroke-width="1.5" fill="none"></path><path id="SvgjsPath1071" d="M 0 0L 120 0L 120 80L 0 80Z" stroke="none" fill="none"></path><g id="SvgjsG1072"><text id="SvgjsText1073" font-family="&quot;Comic Sans MS&quot;" text-anchor="end" font-size="13px" width="93px" fill="#323232" font-weight="400" align="middle" lineHeight="125%" anchor="end" family="&quot;Comic Sans MS&quot;" size="13px" weight="400" font-style="" opacity="1" y="29.375" transform="rotate(0)"></text></g></g><g id="SvgjsG1074" transform="translate(345,66.57534246575342)"><path id="SvgjsPath1075" d="M 0 4Q 0 0 4 0L 76 0Q 80 0 80 4L 80 49.02739726027397Q 80 53.02739726027397 76 53.02739726027397L 4 53.02739726027397Q 0 53.02739726027397 0 49.02739726027397Z" stroke-dasharray="10,6" stroke="rgba(33,41,48,1)" stroke-width="1" fill-opacity="1" fill="#ffffff"></path><g id="SvgjsG1076"><text id="SvgjsText1077" font-family="&quot;Comic Sans MS&quot;" text-anchor="middle" font-size="12px" width="60px" fill="#323232" font-weight="400" align="middle" lineHeight="125%" anchor="middle" family="&quot;Comic Sans MS&quot;" size="12px" weight="400" font-style="" opacity="1" y="1.513698630136986" transform="rotate(0)"><tspan id="SvgjsTspan1078" dy="15" x="40"><tspan id="SvgjsTspan1079" style="">长度介于</tspan></tspan><tspan id="SvgjsTspan1080" dy="15" x="40"><tspan id="SvgjsTspan1081" style="">250～253</tspan></tspan><tspan id="SvgjsTspan1082" dy="15" x="40"><tspan id="SvgjsTspan1083" style="">字节</tspan></tspan></text></g></g><g id="SvgjsG1084" transform="translate(425,66.19178082191779)"><path id="SvgjsPath1085" d="M 0 4Q 0 0 4 0L 76 0Q 80 0 80 4L 80 49.02739726027397Q 80 53.02739726027397 76 53.02739726027397L 4 53.02739726027397Q 0 53.02739726027397 0 49.02739726027397Z" stroke-dasharray="10,6" stroke="rgba(33,41,48,1)" stroke-width="1" fill-opacity="1" fill="#ffffff"></path><g id="SvgjsG1086"><text id="SvgjsText1087" font-family="&quot;Comic Sans MS&quot;" text-anchor="middle" font-size="12px" width="60px" fill="#323232" font-weight="400" align="middle" lineHeight="125%" anchor="middle" family="&quot;Comic Sans MS&quot;" size="12px" weight="400" font-style="" opacity="1" y="1.513698630136986" transform="rotate(0)"><tspan id="SvgjsTspan1088" dy="15" x="40"><tspan id="SvgjsTspan1089" style="">长度介于</tspan></tspan><tspan id="SvgjsTspan1090" dy="15" x="40"><tspan id="SvgjsTspan1091" style="">250～253</tspan></tspan><tspan id="SvgjsTspan1092" dy="15" x="40"><tspan id="SvgjsTspan1093" style="">字节</tspan></tspan></text></g></g><g id="SvgjsG1094" transform="translate(585,66.19178082191779)"><path id="SvgjsPath1095" d="M 0 4Q 0 0 4 0L 76 0Q 80 0 80 4L 80 49.02739726027397Q 80 53.02739726027397 76 53.02739726027397L 4 53.02739726027397Q 0 53.02739726027397 0 49.02739726027397Z" stroke-dasharray="10,6" stroke="rgba(33,41,48,1)" stroke-width="1" fill-opacity="1" fill="#ffffff"></path><g id="SvgjsG1096"><text id="SvgjsText1097" font-family="&quot;Comic Sans MS&quot;" text-anchor="middle" font-size="12px" width="60px" fill="#323232" font-weight="400" align="middle" lineHeight="125%" anchor="middle" family="&quot;Comic Sans MS&quot;" size="12px" weight="400" font-style="" opacity="1" y="1.513698630136986" transform="rotate(0)"><tspan id="SvgjsTspan1098" dy="15" x="40"><tspan id="SvgjsTspan1099" style="">长度介于</tspan></tspan><tspan id="SvgjsTspan1100" dy="15" x="40"><tspan id="SvgjsTspan1101" style="">250～253</tspan></tspan><tspan id="SvgjsTspan1102" dy="15" x="40"><tspan id="SvgjsTspan1103" style="">字节</tspan></tspan></text></g></g><g id="SvgjsG1104" transform="translate(265,145.1917808219178)"><path id="SvgjsPath1105" d="M 0 0L 80 0L 80 30L 0 30Z" stroke="rgba(206,185,79,1)" stroke-width="1" fill-opacity="1" fill="#fbe7cd"></path><g id="SvgjsG1106"><text id="SvgjsText1107" font-family="&quot;Comic Sans MS&quot;" text-anchor="middle" font-size="13px" width="60px" fill="#323232" font-weight="700" align="middle" lineHeight="125%" anchor="middle" family="&quot;Comic Sans MS&quot;" size="13px" weight="700" font-style="" opacity="1" y="4.375" transform="rotate(0)"><tspan id="SvgjsTspan1108" dy="16.25" x="40"><tspan id="SvgjsTspan1109" style="font-weight: normal;">new</tspan></tspan></text></g></g><g id="SvgjsG1110" transform="matrix(-1.8369701987210297e-16,-1,1,-1.8369701987210297e-16,265.4109649658203,294)"><path id="SvgjsPath1111" d="M 120 0Q 111 0 111 8L 111 32Q 111 40 98 40Q 111 40 111 48L 111 72Q 111 80 120 80" stroke="rgba(33,41,48,1)" stroke-width="1.5" fill="none"></path><path id="SvgjsPath1112" d="M 0 0L 120 0L 120 80L 0 80Z" stroke="none" fill="none"></path><g id="SvgjsG1113"><text id="SvgjsText1114" font-family="&quot;Comic Sans MS&quot;" text-anchor="end" font-size="13px" width="93px" fill="#323232" font-weight="400" align="middle" lineHeight="125%" anchor="end" family="&quot;Comic Sans MS&quot;" size="13px" weight="400" font-style="" opacity="1" y="29.375" transform="rotate(0)"></text></g></g><g id="SvgjsG1115" transform="translate(239.29452054794524,200.78082191780817)"><path id="SvgjsPath1116" d="M 0 0L 131.41095890410958 0L 131.41095890410958 20L 0 20Z" stroke="rgba(206,185,79,1)" stroke-width="1.5" fill-opacity="1" fill="#fbe7cd"></path><g id="SvgjsG1117"><text id="SvgjsText1118" font-family="&quot;Comic Sans MS&quot;" text-anchor="middle" font-size="13px" width="112px" fill="#323232" font-weight="400" align="middle" lineHeight="125%" anchor="middle" family="&quot;Comic Sans MS&quot;" size="13px" weight="400" font-style="" opacity="1" y="-0.625" transform="rotate(0)"><tspan id="SvgjsTspan1119" dy="16.25" x="66"><tspan id="SvgjsTspan1120" style="">长度超过 254 字节</tspan></tspan></text></g></g></svg>