<svg id="SvgjsSvg1006" width="431" height="306" xmlns="http://www.w3.org/2000/svg" version="1.1" xmlns:xlink="http://www.w3.org/1999/xlink" xmlns:svgjs="http://svgjs.com/svgjs"><defs id="SvgjsDefs1007"><pattern patternUnits="userSpaceOnUse" id="pattern_mark_0" width="300" height="300"><text x="150" y="100" fill="rgba(229,229,229,0.8)" font-size="18" transform="rotate(-45, 150, 150)" style="dominant-baseline: middle; text-anchor: middle;"></text></pattern><pattern patternUnits="userSpaceOnUse" id="pattern_mark_1" width="300" height="300"><text x="150" y="200" fill="rgba(229,229,229,0.8)" font-size="18" transform="rotate(-45, 150, 150)" style="dominant-baseline: middle; text-anchor: middle;"></text></pattern><marker id="SvgjsMarker1059" markerWidth="13" markerHeight="9" refX="9.5" refY="4.5" viewBox="0 0 13 9" orient="auto" markerUnits="userSpaceOnUse" stroke-dasharray="0,0"><path id="SvgjsPath1060" d="M0,0 L13,4.5 L0,9 L0,0" fill="#323232" stroke="#323232" stroke-width="1"></path></marker><marker id="SvgjsMarker1063" markerWidth="13" markerHeight="9" refX="9.5" refY="4.5" viewBox="0 0 13 9" orient="auto" markerUnits="userSpaceOnUse" stroke-dasharray="0,0"><path id="SvgjsPath1064" d="M0,0 L13,4.5 L0,9 L0,0" fill="#323232" stroke="#323232" stroke-width="1"></path></marker></defs><rect id="svgbackgroundid" width="431" height="306" fill="transparent"></rect><rect id="SvgjsRect1009" width="431" height="306" fill="url(#pattern_mark_0)"></rect><rect id="SvgjsRect1010" width="431" height="306" fill="url(#pattern_mark_1)"></rect><g id="SvgjsG1011" transform="translate(195,33)"><path id="SvgjsPath1012" d="M0 0L200 0L200 48 L0 48Z" stroke="rgba(102, 102, 102,1)" stroke-width="1" fill-opacity="1" fill="#66ff66"></path><path id="SvgjsPath1013" d="M0 48L200 48L200 96 L0 96Z" stroke="rgba(102, 102, 102,1)" stroke-width="1" fill-opacity="1" fill="#f4b368"></path><path id="SvgjsPath1014" d="M0 96L200 96L200 144 L0 144Z" stroke="rgba(102, 102, 102,1)" stroke-width="1" fill-opacity="1" fill="#66ff66"></path><path id="SvgjsPath1015" d="M0 144L200 144L200 192 L0 192Z" stroke="rgba(102, 102, 102,1)" stroke-width="1" fill-opacity="1" fill="#f4b368"></path><path id="SvgjsPath1016" d="M0 192L200 192L200 240 L0 240Z" stroke="rgba(102, 102, 102,1)" stroke-width="1" fill-opacity="1" fill="#66ff66"></path><g id="SvgjsG1017"><text id="SvgjsText1018" font-family="&quot;Comic Sans MS&quot;" text-anchor="middle" font-size="16px" width="200px" fill="#323232" font-weight="700" align="middle" lineHeight="125%" anchor="middle" family="&quot;Comic Sans MS&quot;" size="16px" weight="700" font-style="" opacity="1" y="0" transform="rotate(0)"><tspan id="SvgjsTspan1019" dy="20" x="100"><tspan id="SvgjsTspan1020" style="">type</tspan></tspan><tspan id="SvgjsTspan1021" dy="20" x="100"><tspan id="SvgjsTspan1022" style="">(REDIS_STRING)</tspan></tspan></text></g><g id="SvgjsG1023"><text id="SvgjsText1024" font-family="&quot;Comic Sans MS&quot;" text-anchor="middle" font-size="16px" width="200px" fill="#323232" font-weight="700" align="middle" lineHeight="125%" anchor="middle" family="&quot;Comic Sans MS&quot;" size="16px" weight="700" font-style="" opacity="1" y="48" transform="rotate(0)"><tspan id="SvgjsTspan1025" dy="20" x="100"><tspan id="SvgjsTspan1026" style="">encoding</tspan></tspan><tspan id="SvgjsTspan1027" dy="20" x="100"><tspan id="SvgjsTspan1028" style="">(OBJ_ENCODING_INT)</tspan></tspan></text></g><g id="SvgjsG1029"><text id="SvgjsText1030" font-family="&quot;Comic Sans MS&quot;" text-anchor="middle" font-size="16px" width="200px" fill="#323232" font-weight="700" align="middle" lineHeight="125%" anchor="middle" family="&quot;Comic Sans MS&quot;" size="16px" weight="700" font-style="" opacity="1" y="106" transform="rotate(0)"><tspan id="SvgjsTspan1031" dy="20" x="100"><tspan id="SvgjsTspan1032" style="">lru</tspan></tspan></text></g><g id="SvgjsG1033"><text id="SvgjsText1034" font-family="&quot;Comic Sans MS&quot;" text-anchor="middle" font-size="16px" width="200px" fill="#323232" font-weight="700" align="middle" lineHeight="125%" anchor="middle" family="&quot;Comic Sans MS&quot;" size="16px" weight="700" font-style="" opacity="1" y="154" transform="rotate(0)"><tspan id="SvgjsTspan1035" dy="20" x="100"><tspan id="SvgjsTspan1036" style="">refcount</tspan></tspan></text></g><g id="SvgjsG1037"><text id="SvgjsText1038" font-family="&quot;Comic Sans MS&quot;" text-anchor="middle" font-size="16px" width="200px" fill="#323232" font-weight="700" align="middle" lineHeight="125%" anchor="middle" family="&quot;Comic Sans MS&quot;" size="16px" weight="700" font-style="" opacity="1" y="202" transform="rotate(0)"><tspan id="SvgjsTspan1039" dy="20" x="100"><tspan id="SvgjsTspan1040" style="">ptr(123)</tspan></tspan></text></g></g><g id="SvgjsG1041" transform="translate(184,25)"><path id="SvgjsPath1042" d="M 0 0L 222 0L 222 256L 0 256Z" stroke-dasharray="10,6" stroke="rgba(121,133,236,1)" stroke-width="1.5" fill="none"></path><g id="SvgjsG1043"><text id="SvgjsText1044" font-family="微软雅黑" text-anchor="middle" font-size="13px" width="202px" fill="#323232" font-weight="400" align="middle" lineHeight="125%" anchor="middle" family="微软雅黑" size="13px" weight="400" font-style="" opacity="1" y="117.375" transform="rotate(0)"></text></g></g><g id="SvgjsG1045" transform="translate(25,105)"><path id="SvgjsPath1046" d="M 0 4Q 0 0 4 0L 76 0Q 80 0 80 4L 80 26Q 80 30 76 30L 4 30Q 0 30 0 26Z" stroke="rgba(33,41,48,1)" stroke-width="1.5" fill-opacity="1" fill="#9cceff"></path><g id="SvgjsG1047"><text id="SvgjsText1048" font-family="&quot;Comic Sans MS&quot;" text-anchor="middle" font-size="13px" width="60px" fill="#323232" font-weight="700" align="middle" lineHeight="125%" anchor="middle" family="&quot;Comic Sans MS&quot;" size="13px" weight="700" font-style="" opacity="1" y="4.375" transform="rotate(0)"><tspan id="SvgjsTspan1049" dy="16.25" x="40"><tspan id="SvgjsTspan1050" style="">key1</tspan></tspan></text></g></g><g id="SvgjsG1051" transform="translate(25,167)"><path id="SvgjsPath1052" d="M 0 4Q 0 0 4 0L 76 0Q 80 0 80 4L 80 26Q 80 30 76 30L 4 30Q 0 30 0 26Z" stroke="rgba(33,41,48,1)" stroke-width="1.5" fill-opacity="1" fill="#9cceff"></path><g id="SvgjsG1053"><text id="SvgjsText1054" font-family="&quot;Comic Sans MS&quot;" text-anchor="middle" font-size="13px" width="60px" fill="#323232" font-weight="700" align="middle" lineHeight="125%" anchor="middle" family="&quot;Comic Sans MS&quot;" size="13px" weight="700" font-style="" opacity="1" y="4.375" transform="rotate(0)"><tspan id="SvgjsTspan1055" dy="16.25" x="40"><tspan id="SvgjsTspan1056" style="">key1</tspan></tspan></text></g></g><g id="SvgjsG1057"><path id="SvgjsPath1058" d="M105.75 120L144.5 120L144.5 138L181.3 138" stroke="#323232" stroke-width="1.5" fill="none" marker-end="url(#SvgjsMarker1059)"></path></g><g id="SvgjsG1061"><path id="SvgjsPath1062" d="M105.75 182L144.5 182L144.5 168L181.3 168" stroke="#323232" stroke-width="1.5" fill="none" marker-end="url(#SvgjsMarker1063)"></path></g></svg>