<svg id="SvgjsSvg1006" width="464" height="421" xmlns="http://www.w3.org/2000/svg" version="1.1" xmlns:xlink="http://www.w3.org/1999/xlink" xmlns:svgjs="http://svgjs.com/svgjs"><defs id="SvgjsDefs1007"><pattern patternUnits="userSpaceOnUse" id="pattern_mark_0" width="300" height="300"><text x="150" y="100" fill="rgba(229,229,229,0.8)" font-size="18" transform="rotate(-45, 150, 150)" style="dominant-baseline: middle; text-anchor: middle;"></text></pattern><pattern patternUnits="userSpaceOnUse" id="pattern_mark_1" width="300" height="300"><text x="150" y="200" fill="rgba(229,229,229,0.8)" font-size="18" transform="rotate(-45, 150, 150)" style="dominant-baseline: middle; text-anchor: middle;"></text></pattern></defs><rect id="svgbackgroundid" width="464" height="421" fill="transparent"></rect><rect id="SvgjsRect1009" width="464" height="421" fill="url(#pattern_mark_0)"></rect><rect id="SvgjsRect1010" width="464" height="421" fill="url(#pattern_mark_1)"></rect><g id="SvgjsG1011" transform="translate(33,59)"><path id="SvgjsPath1012" d="M 0 0L 406 0L 406 337L 0 337Z" stroke="none" fill-opacity="1" fill="#5291d0"></path><g id="SvgjsG1013"><text id="SvgjsText1014" font-family="&quot;Comic Sans MS&quot;" text-anchor="start" font-size="13px" width="386px" fill="#ffffff" font-weight="700" align="top" lineHeight="125%" anchor="start" family="&quot;Comic Sans MS&quot;" size="13px" weight="700" font-style="" opacity="1" y="-2.625" transform="rotate(0)"><tspan id="SvgjsTspan1015" dy="16.25" x="10"><tspan id="SvgjsTspan1016" style="">SecureClassLoader</tspan></tspan></text></g></g><g id="SvgjsG1017" transform="translate(61,94)"><path id="SvgjsPath1018" d="M 0 0L 350 0L 350 267L 0 267Z" stroke="none" fill-opacity="1" fill="#4eb2d6"></path><g id="SvgjsG1019"><text id="SvgjsText1020" font-family="&quot;Comic Sans MS&quot;" text-anchor="start" font-size="13px" width="330px" fill="#ffffff" font-weight="700" align="top" lineHeight="125%" anchor="start" family="&quot;Comic Sans MS&quot;" size="13px" weight="700" font-style="" opacity="1" y="-2.625" transform="rotate(0)"><tspan id="SvgjsTspan1021" dy="16.25" x="10"><tspan id="SvgjsTspan1022" style="">BuiltinClassLoader</tspan></tspan></text></g></g><g id="SvgjsG1023" transform="translate(93,117)"><path id="SvgjsPath1024" d="M 0 0L 286 0L 286 221L 0 221Z" stroke="none" fill-opacity="1" fill="#9d7ab3"></path><g id="SvgjsG1025"><text id="SvgjsText1026" font-family="&quot;Microsoft YaHei&quot;, 微软雅黑, Arial" text-anchor="middle" font-size="13px" width="266px" fill="#323232" font-weight="400" align="middle" lineHeight="125%" anchor="middle" family="&quot;Microsoft YaHei&quot;, 微软雅黑, Arial" size="13px" weight="400" font-style="" opacity="1" y="99.875" transform="rotate(0)"></text></g></g><g id="SvgjsG1027" transform="translate(111,205)"><path id="SvgjsPath1028" d="M 0 4Q 0 0 4 0L 246 0Q 250 0 250 4L 250 41Q 250 45 246 45L 4 45Q 0 45 0 41Z" stroke="rgba(255,255,255,1)" stroke-width="1.5" fill-opacity="1" fill="#f2a541"></path><g id="SvgjsG1029"><text id="SvgjsText1030" font-family="&quot;Comic Sans MS&quot;" text-anchor="middle" font-size="13px" width="230px" fill="#ffffff" font-weight="700" align="middle" lineHeight="125%" anchor="middle" family="&quot;Comic Sans MS&quot;" size="13px" weight="700" font-style="" opacity="1" y="11.875" transform="rotate(0)"><tspan id="SvgjsTspan1031" dy="16.25" x="125"><tspan id="SvgjsTspan1032" style="">PlatformClassLoaser</tspan></tspan></text></g></g><g id="SvgjsG1033" transform="translate(111,280)"><path id="SvgjsPath1034" d="M 0 4Q 0 0 4 0L 246 0Q 250 0 250 4L 250 41Q 250 45 246 45L 4 45Q 0 45 0 41Z" stroke="rgba(255,255,255,1)" stroke-width="1.5" fill-opacity="1" fill="#e46256"></path><g id="SvgjsG1035"><text id="SvgjsText1036" font-family="&quot;Comic Sans MS&quot;" text-anchor="middle" font-size="13px" width="230px" fill="#ffffff" font-weight="700" align="middle" lineHeight="125%" anchor="middle" family="&quot;Comic Sans MS&quot;" size="13px" weight="700" font-style="" opacity="1" y="11.875" transform="rotate(0)"><tspan id="SvgjsTspan1037" dy="16.25" x="125"><tspan id="SvgjsTspan1038" style="">BootClassLoader</tspan></tspan></text></g></g><g id="SvgjsG1039" transform="translate(111,130)"><path id="SvgjsPath1040" d="M 0 4Q 0 0 4 0L 246 0Q 250 0 250 4L 250 41Q 250 45 246 45L 4 45Q 0 45 0 41Z" stroke="rgba(255,255,255,1)" stroke-width="1.5" fill-opacity="1" fill="#9ec265"></path><g id="SvgjsG1041"><text id="SvgjsText1042" font-family="&quot;Comic Sans MS&quot;" text-anchor="middle" font-size="13px" width="230px" fill="#ffffff" font-weight="700" align="middle" lineHeight="125%" anchor="middle" family="&quot;Comic Sans MS&quot;" size="13px" weight="700" font-style="" opacity="1" y="11.875" transform="rotate(0)"><tspan id="SvgjsTspan1043" dy="16.25" x="125"><tspan id="SvgjsTspan1044" style="">AppClassLoader</tspan></tspan></text></g></g><g id="SvgjsG1045" transform="translate(25,25)"><path id="SvgjsPath1046" d="M 0 0L 100 0L 100 40L 0 40Z" stroke="none" fill="none"></path><g id="SvgjsG1047"><text id="SvgjsText1048" font-family="&quot;Comic Sans MS&quot;" text-anchor="middle" font-size="13px" width="100px" fill="#5886bf" font-weight="400" align="middle" lineHeight="125%" anchor="middle" family="&quot;Comic Sans MS&quot;" size="13px" weight="400" font-style="" opacity="1" y="9.375" transform="rotate(0)"><tspan id="SvgjsTspan1049" dy="16.25" x="50"><tspan id="SvgjsTspan1050" style="font-weight: bold;">ClassLoader</tspan></tspan></text></g></g><g id="SvgjsG1051"></g></svg>