<svg id="SvgjsSvg1006" width="634.21875" height="453.18478260869574" xmlns="http://www.w3.org/2000/svg" version="1.1" xmlns:xlink="http://www.w3.org/1999/xlink" xmlns:svgjs="http://svgjs.com/svgjs"><defs id="SvgjsDefs1007"><pattern patternUnits="userSpaceOnUse" id="pattern_mark_0" width="300" height="300"><text x="150" y="100" fill="rgba(73,76,88,0.8)" font-size="18" transform="rotate(-45, 150, 150)" style="dominant-baseline: middle; text-anchor: middle;"></text></pattern><pattern patternUnits="userSpaceOnUse" id="pattern_mark_1" width="300" height="300"><text x="150" y="200" fill="rgba(73,76,88,0.8)" font-size="18" transform="rotate(-45, 150, 150)" style="dominant-baseline: middle; text-anchor: middle;"></text></pattern><marker id="SvgjsMarker1083" markerWidth="16" markerHeight="16" refX="11" refY="8" viewBox="0 0 16 16" orient="auto" markerUnits="userSpaceOnUse" stroke-dasharray="0,0"><path id="SvgjsPath1084" d="M0,0 L10,8 L0,16" fill="none" stroke="#ffffff" stroke-width="2"></path></marker></defs><rect id="svgbackgroundid" width="634.21875" height="453.18478260869574" fill="#515562"></rect><rect id="SvgjsRect1009" width="634.21875" height="453.18478260869574" fill="url(#pattern_mark_0)"></rect><rect id="SvgjsRect1010" width="634.21875" height="453.18478260869574" fill="url(#pattern_mark_1)"></rect><g id="SvgjsG1011" transform="translate(489.21875,54)"><path id="SvgjsPath1012" d="M 0 120Q 9 120 9 111L 9 69Q 9 60 22 60Q 9 60 9 51L 9 9Q 9 0 0 0" stroke="rgba(255,255,255,1)" stroke-width="2" fill="none"></path><path id="SvgjsPath1013" d="M 0 0L 120 0L 120 120L 0 120Z" stroke="none" fill="none"></path><g id="SvgjsG1014"><text id="SvgjsText1015" font-family="&quot;Comic Sans MS&quot;" text-anchor="start" font-size="13px" width="93px" fill="#ffffff" font-weight="700" align="middle" lineHeight="125%" anchor="start" family="&quot;Comic Sans MS&quot;" size="13px" weight="700" font-style="" opacity="1" y="49.375" transform="rotate(0)"><tspan id="SvgjsTspan1016" dy="16.25" x="27"><tspan id="SvgjsTspan1017" style="">等待数据</tspan></tspan></text></g></g><g id="SvgjsG1018" transform="translate(489.21875,184)"><path id="SvgjsPath1019" d="M 0 120Q 9 120 9 111L 9 69Q 9 60 22 60Q 9 60 9 51L 9 9Q 9 0 0 0" stroke="rgba(255,255,255,1)" stroke-width="2" fill="none"></path><path id="SvgjsPath1020" d="M 0 0L 120 0L 120 120L 0 120Z" stroke="none" fill="none"></path><g id="SvgjsG1021"><text id="SvgjsText1022" font-family="&quot;Comic Sans MS&quot;" text-anchor="start" font-size="13px" width="93px" fill="#ffffff" font-weight="700" align="middle" lineHeight="125%" anchor="start" family="&quot;Comic Sans MS&quot;" size="13px" weight="700" font-style="" opacity="1" y="40.875" transform="rotate(0)"><tspan id="SvgjsTspan1023" dy="16.25" x="27"><tspan id="SvgjsTspan1024" style="">将数据从内核复</tspan></tspan><tspan id="SvgjsTspan1025" dy="16.25" x="27"><tspan id="SvgjsTspan1026" style="">制到用户空间</tspan></tspan></text></g></g><g id="SvgjsG1027" transform="translate(46.618206521739154,330.92527173913044)"><path id="SvgjsPath1028" d="M 0 0L 326.6440217391304 0L 326.6440217391304 20L 0 20Z" stroke="none" fill="none"></path><g id="SvgjsG1029"><text id="SvgjsText1030" font-family="&quot;Comic Sans MS&quot;" text-anchor="middle" font-size="12px" width="327px" fill="#323232" font-weight="400" align="middle" lineHeight="125%" anchor="middle" family="&quot;Comic Sans MS&quot;" size="12px" weight="400" font-style="" opacity="1" y="0" transform="rotate(0)"><tspan id="SvgjsTspan1031" dy="15" x="163.5"><tspan id="SvgjsTspan1032" style="fill: rgb(255, 255, 255);">第一阶段处理不同，第二阶段处理相同(阻塞于recvfrom调用)</tspan></tspan></text></g></g><g id="SvgjsG1033" transform="translate(30.21875,29)"><path id="SvgjsPath1034" d="M 0 0L 450 0L 450 275L 0 275Z" stroke="rgba(255,255,255,1)" stroke-width="1.5" fill="none"></path><g id="SvgjsG1035"><text id="SvgjsText1036" font-family="微软雅黑" text-anchor="middle" font-size="13px" width="430px" fill="#323232" font-weight="400" align="middle" lineHeight="125%" anchor="middle" family="微软雅黑" size="13px" weight="400" font-style="" opacity="1" y="126.875" transform="rotate(0)"></text></g></g><g id="SvgjsG1037" transform="translate(390.21875,29)"><path id="SvgjsPath1038" d="M 0 0L 90 0L 90 25L 0 25Z" stroke="rgba(255,255,255,1)" stroke-width="2" fill="none"></path><g id="SvgjsG1039"><text id="SvgjsText1040" font-family="微软雅黑" text-anchor="middle" font-size="13px" width="70px" fill="#ffffff" font-weight="700" align="middle" lineHeight="125%" anchor="middle" family="微软雅黑" size="13px" weight="700" font-style="" opacity="1" y="1.875" transform="rotate(0)"><tspan id="SvgjsTspan1041" dy="16.25" x="45"><tspan id="SvgjsTspan1042" style="">异步I/O</tspan></tspan></text></g></g><g id="SvgjsG1043" transform="translate(300.21875,29)"><path id="SvgjsPath1044" d="M 0 0L 90 0L 90 25L 0 25Z" stroke="rgba(255,255,255,1)" stroke-width="2" fill="none"></path><g id="SvgjsG1045"><text id="SvgjsText1046" font-family="微软雅黑" text-anchor="middle" font-size="13px" width="70px" fill="#ffffff" font-weight="700" align="middle" lineHeight="125%" anchor="middle" family="微软雅黑" size="13px" weight="700" font-style="" opacity="1" y="-6.625" transform="rotate(0)"><tspan id="SvgjsTspan1047" dy="16.25" x="45"><tspan id="SvgjsTspan1048" style="">信号驱动</tspan></tspan><tspan id="SvgjsTspan1049" dy="16.25" x="45"><tspan id="SvgjsTspan1050" style="">I/O</tspan></tspan></text></g></g><g id="SvgjsG1051" transform="translate(210.21875,29)"><path id="SvgjsPath1052" d="M 0 0L 90 0L 90 25L 0 25Z" stroke="rgba(255,255,255,1)" stroke-width="2" fill="none"></path><g id="SvgjsG1053"><text id="SvgjsText1054" font-family="微软雅黑" text-anchor="middle" font-size="13px" width="70px" fill="#ffffff" font-weight="700" align="middle" lineHeight="125%" anchor="middle" family="微软雅黑" size="13px" weight="700" font-style="" opacity="1" y="1.875" transform="rotate(0)"><tspan id="SvgjsTspan1055" dy="16.25" x="45"><tspan id="SvgjsTspan1056" style="">I/O复用</tspan></tspan></text></g></g><g id="SvgjsG1057" transform="translate(119.75,29)"><path id="SvgjsPath1058" d="M 0 0L 90 0L 90 25L 0 25Z" stroke="rgba(255,255,255,1)" stroke-width="2" fill="none"></path><g id="SvgjsG1059"><text id="SvgjsText1060" font-family="微软雅黑" text-anchor="middle" font-size="13px" width="70px" fill="#ffffff" font-weight="700" align="middle" lineHeight="125%" anchor="middle" family="微软雅黑" size="13px" weight="700" font-style="" opacity="1" y="-6.625" transform="rotate(0)"><tspan id="SvgjsTspan1061" dy="16.25" x="45"><tspan id="SvgjsTspan1062" style="">非阻塞式</tspan></tspan><tspan id="SvgjsTspan1063" dy="16.25" x="45"><tspan id="SvgjsTspan1064" style="">I/O</tspan></tspan></text></g></g><g id="SvgjsG1065" transform="translate(30.21875,29)"><path id="SvgjsPath1066" d="M 0 0L 90 0L 90 25L 0 25Z" stroke="rgba(255,255,255,1)" stroke-width="2" fill="none"></path><g id="SvgjsG1067"><text id="SvgjsText1068" font-family="微软雅黑" text-anchor="middle" font-size="13px" width="70px" fill="#ffffff" font-weight="700" align="middle" lineHeight="125%" anchor="middle" family="微软雅黑" size="13px" weight="700" font-style="" opacity="1" y="1.875" transform="rotate(0)"><tspan id="SvgjsTspan1069" dy="16.25" x="45"><tspan id="SvgjsTspan1070" style="">阻塞式I/O</tspan></tspan></text></g></g><g id="SvgjsG1071" transform="translate(30.21875,54)"><path id="SvgjsPath1072" d="M 0 0L 90 0L 90 250L 0 250Z" stroke="rgba(255,255,255,1)" stroke-width="1.5" fill="none"></path><g id="SvgjsG1073"><text id="SvgjsText1074" font-family="微软雅黑" text-anchor="middle" font-size="13px" width="70px" fill="#323232" font-weight="400" align="middle" lineHeight="125%" anchor="middle" family="微软雅黑" size="13px" weight="400" font-style="" opacity="1" y="114.375" transform="rotate(0)"></text></g></g><g id="SvgjsG1075" transform="translate(54.21875,58.9375)"><path id="SvgjsPath1076" d="M 0 0L 41.5625 0L 41.5625 20L 0 20Z" stroke="none" fill="none"></path><g id="SvgjsG1077"><text id="SvgjsText1078" font-family="微软雅黑" text-anchor="middle" font-size="13px" width="42px" fill="#ffffff" font-weight="400" align="middle" lineHeight="125%" anchor="middle" family="微软雅黑" size="13px" weight="400" font-style="" opacity="1" y="-0.625" transform="rotate(0)"><tspan id="SvgjsTspan1079" dy="16.25" x="21"><tspan id="SvgjsTspan1080" style="">发起</tspan></tspan></text></g></g><g id="SvgjsG1081"><path id="SvgjsPath1082" d="M75 79.6875L75 282.765625" stroke="#ffffff" stroke-width="2" fill="none" marker-end="url(#SvgjsMarker1083)"></path></g><g id="SvgjsG1085" transform="translate(25,284)"><path id="SvgjsPath1086" d="M 0 0L 100 0L 100 20L 0 20Z" stroke="none" fill="none"></path><g id="SvgjsG1087"><text id="SvgjsText1088" font-family="微软雅黑" text-anchor="middle" font-size="13px" width="100px" fill="#ffffff" font-weight="400" align="middle" lineHeight="125%" anchor="middle" family="微软雅黑" size="13px" weight="400" font-style="" opacity="1" y="-0.625" transform="rotate(0)"><tspan id="SvgjsTspan1089" dy="16.25" x="50"><tspan id="SvgjsTspan1090" style="">完成</tspan></tspan></text></g></g><g id="SvgjsG1091" transform="matrix(-1.8369701987210297e-16,-1,1,-1.8369701987210297e-16,30.375000663425595,427.7499993365745)"><path id="SvgjsPath1092" d="M 120 0Q 111 0 111 9L 111 171.13926630434784Q 111 180.13926630434784 98 180.13926630434784Q 111 180.13926630434784 111 189.13926630434784L 111 351.2785326086957Q 111 360.2785326086957 120 360.2785326086957" stroke="rgba(255,255,255,1)" stroke-width="2" fill="none"></path><path id="SvgjsPath1093" d="M 0 0L 120 0L 120 360.2785326086957L 0 360.2785326086957Z" stroke="none" fill="none"></path><g id="SvgjsG1094"><text id="SvgjsText1095" font-family="微软雅黑" text-anchor="end" font-size="13px" width="93px" fill="#323232" font-weight="400" align="middle" lineHeight="125%" anchor="end" family="微软雅黑" size="13px" weight="400" font-style="" opacity="1" y="169.51426630434784" transform="rotate(0)"></text></g></g><g id="SvgjsG1096" transform="matrix(-1.8369701987210297e-16,-1,1,-1.8369701987210297e-16,394.9402160644532,428.1847839355468)"><path id="SvgjsPath1097" d="M 120 0Q 111 0 111 8.48437499999999L 111 33.93749999999996Q 111 42.42187499999994 98 42.42187499999994Q 111 42.42187499999994 111 50.90624999999993L 111 76.3593749999999Q 111 84.84374999999989 120 84.84374999999989" stroke="rgba(255,255,255,1)" stroke-width="2" fill="none"></path><path id="SvgjsPath1098" d="M 0 0L 120 0L 120 84.84374999999989L 0 84.84374999999989Z" stroke="none" fill="none"></path><g id="SvgjsG1099"><text id="SvgjsText1100" font-family="微软雅黑" text-anchor="end" font-size="13px" width="93px" fill="#323232" font-weight="400" align="middle" lineHeight="125%" anchor="end" family="微软雅黑" size="13px" weight="400" font-style="" opacity="1" y="31.796874999999943" transform="rotate(0)"></text></g></g><g id="SvgjsG1101" transform="translate(384.9402173913044,330.92527173913044)"><path id="SvgjsPath1102" d="M 0 0L 108.97418478260863 0L 108.97418478260863 20L 0 20Z" stroke="none" fill="none"></path><g id="SvgjsG1103"><text id="SvgjsText1104" font-family="&quot;Comic Sans MS&quot;" text-anchor="middle" font-size="12px" width="109px" fill="#323232" font-weight="400" align="middle" lineHeight="125%" anchor="middle" family="&quot;Comic Sans MS&quot;" size="12px" weight="400" font-style="" opacity="1" y="0" transform="rotate(0)"><tspan id="SvgjsTspan1105" dy="15" x="54.5"><tspan id="SvgjsTspan1106" style="fill: rgb(255, 255, 255);">处理两个阶段</tspan></tspan></text></g></g><g id="SvgjsG1107" transform="translate(36.835597826086996,151.26086956521738)"><path id="SvgjsPath1108" d="M 0 0L 100 0L 100 40L 0 40Z" stroke="none" fill="none"></path><g id="SvgjsG1109"><text id="SvgjsText1110" font-family="微软雅黑" text-anchor="middle" font-size="13px" width="100px" fill="#ffffff" font-weight="400" align="middle" lineHeight="125%" anchor="middle" family="微软雅黑" size="13px" weight="400" font-style="" opacity="1" y="0.875" transform="rotate(0)"><tspan id="SvgjsTspan1111" dy="16.25" x="50"><tspan id="SvgjsTspan1112" style="">阻</tspan></tspan><tspan id="SvgjsTspan1113" dy="16.25" x="50"><tspan id="SvgjsTspan1114" style="">塞</tspan></tspan></text></g></g></svg>