<svg id="SvgjsSvg1006" width="614" height="284" xmlns="http://www.w3.org/2000/svg" version="1.1" xmlns:xlink="http://www.w3.org/1999/xlink" xmlns:svgjs="http://svgjs.com/svgjs"><defs id="SvgjsDefs1007"><pattern patternUnits="userSpaceOnUse" id="pattern_mark_0" width="300" height="300"><text x="150" y="100" fill="rgba(229,229,229,0.8)" font-size="18" transform="rotate(-45, 150, 150)" style="dominant-baseline: middle; text-anchor: middle;"></text></pattern><pattern patternUnits="userSpaceOnUse" id="pattern_mark_1" width="300" height="300"><text x="150" y="200" fill="rgba(229,229,229,0.8)" font-size="18" transform="rotate(-45, 150, 150)" style="dominant-baseline: middle; text-anchor: middle;"></text></pattern><marker id="SvgjsMarker1043" markerWidth="13" markerHeight="9" refX="9.5" refY="4.5" viewBox="0 0 13 9" orient="auto" markerUnits="userSpaceOnUse" stroke-dasharray="0,0"><path id="SvgjsPath1044" d="M0,0 L13,4.5 L0,9 L0,0" fill="#323232" stroke="#323232" stroke-width="1"></path></marker><marker id="SvgjsMarker1047" markerWidth="13" markerHeight="9" refX="9.5" refY="4.5" viewBox="0 0 13 9" orient="auto" markerUnits="userSpaceOnUse" stroke-dasharray="0,0"><path id="SvgjsPath1048" d="M0,0 L13,4.5 L0,9 L0,0" fill="#323232" stroke="#323232" stroke-width="1"></path></marker><marker id="SvgjsMarker1051" markerWidth="13" markerHeight="9" refX="9.5" refY="4.5" viewBox="0 0 13 9" orient="auto" markerUnits="userSpaceOnUse" stroke-dasharray="0,0"><path id="SvgjsPath1052" d="M0,0 L13,4.5 L0,9 L0,0" fill="#323232" stroke="#323232" stroke-width="1"></path></marker><marker id="SvgjsMarker1055" markerWidth="13" markerHeight="9" refX="9.5" refY="4.5" viewBox="0 0 13 9" orient="auto" markerUnits="userSpaceOnUse" stroke-dasharray="0,0"><path id="SvgjsPath1056" d="M0,0 L13,4.5 L0,9 L0,0" fill="#323232" stroke="#323232" stroke-width="1"></path></marker><marker id="SvgjsMarker1059" markerWidth="13" markerHeight="9" refX="9.5" refY="4.5" viewBox="0 0 13 9" orient="auto" markerUnits="userSpaceOnUse" stroke-dasharray="0,0"><path id="SvgjsPath1060" d="M0,0 L13,4.5 L0,9 L0,0" fill="#323232" stroke="#323232" stroke-width="1"></path></marker></defs><rect id="svgbackgroundid" width="614" height="284" fill="transparent"></rect><rect id="SvgjsRect1009" width="614" height="284" fill="url(#pattern_mark_0)"></rect><rect id="SvgjsRect1010" width="614" height="284" fill="url(#pattern_mark_1)"></rect><g id="SvgjsG1011" transform="translate(25,74)"><path id="SvgjsPath1012" d="M 0 4Q 0 0 4 0L 92 0Q 96 0 96 4L 96 50Q 96 54 92 54L 4 54Q 0 54 0 50Z" stroke="rgba(33,41,48,1)" stroke-width="1.5" fill-opacity="1" fill="#ec6b67"></path><g id="SvgjsG1013"><text id="SvgjsText1014" font-family="&quot;Comic Sans MS&quot;" text-anchor="middle" font-size="13px" width="76px" fill="#323232" font-weight="700" align="middle" lineHeight="125%" anchor="middle" family="&quot;Comic Sans MS&quot;" size="13px" weight="700" font-style="" opacity="1" y="16.375" transform="rotate(0)"><tspan id="SvgjsTspan1015" dy="16.25" x="48"><tspan id="SvgjsTspan1016" style="">读取socket</tspan></tspan></text></g></g><g id="SvgjsG1017" transform="translate(181,74)"><path id="SvgjsPath1018" d="M 0 4Q 0 0 4 0L 92 0Q 96 0 96 4L 96 50Q 96 54 92 54L 4 54Q 0 54 0 50Z" stroke="rgba(33,41,48,1)" stroke-width="1.5" fill-opacity="1" fill="#f4b572"></path><g id="SvgjsG1019"><text id="SvgjsText1020" font-family="&quot;Comic Sans MS&quot;" text-anchor="middle" font-size="13px" width="76px" fill="#323232" font-weight="700" align="middle" lineHeight="125%" anchor="middle" family="&quot;Comic Sans MS&quot;" size="13px" weight="700" font-style="" opacity="1" y="16.375" transform="rotate(0)"><tspan id="SvgjsTspan1021" dy="16.25" x="48"><tspan id="SvgjsTspan1022" style="">解析请求</tspan></tspan></text></g></g><g id="SvgjsG1023" transform="translate(337,74)"><path id="SvgjsPath1024" d="M 0 4Q 0 0 4 0L 92 0Q 96 0 96 4L 96 50Q 96 54 92 54L 4 54Q 0 54 0 50Z" stroke="rgba(33,41,48,1)" stroke-width="1.5" fill-opacity="1" fill="#55cdcd"></path><g id="SvgjsG1025"><text id="SvgjsText1026" font-family="&quot;Comic Sans MS&quot;" text-anchor="middle" font-size="13px" width="76px" fill="#323232" font-weight="700" align="middle" lineHeight="125%" anchor="middle" family="&quot;Comic Sans MS&quot;" size="13px" weight="700" font-style="" opacity="1" y="16.375" transform="rotate(0)"><tspan id="SvgjsTspan1027" dy="16.25" x="48"><tspan id="SvgjsTspan1028" style="">执行操作</tspan></tspan></text></g></g><g id="SvgjsG1029" transform="translate(493,74)"><path id="SvgjsPath1030" d="M 0 4Q 0 0 4 0L 92 0Q 96 0 96 4L 96 50Q 96 54 92 54L 4 54Q 0 54 0 50Z" stroke="rgba(33,41,48,1)" stroke-width="1.5" fill-opacity="1" fill="#ef0180"></path><g id="SvgjsG1031"><text id="SvgjsText1032" font-family="&quot;Comic Sans MS&quot;" text-anchor="middle" font-size="13px" width="76px" fill="#323232" font-weight="700" align="middle" lineHeight="125%" anchor="middle" family="&quot;Comic Sans MS&quot;" size="13px" weight="700" font-style="" opacity="1" y="16.375" transform="rotate(0)"><tspan id="SvgjsTspan1033" dy="16.25" x="48"><tspan id="SvgjsTspan1034" style="">写入socket</tspan></tspan></text></g></g><g id="SvgjsG1035" transform="translate(261,196)"><path id="SvgjsPath1036" d="M 13.2 44.099999999999994C -11 31.5 4.4 22.049999999999997 9.9 18.9C 7.700000000000001 3.1500000000000004 35.2 0 46.199999999999996 6.300000000000001C 55 -3.1500000000000004 82.5 0 82.5 9.45C 104.5 6.300000000000001 113.3 18.9 104.5 34.650000000000006C 112.2 47.25 104.5 63 79.2 56.7C 73.7 64.89 51.699999999999996 64.89 46.199999999999996 56.7C 35.2 63 13.2 59.849999999999994 13.2 44.099999999999994Z" stroke="rgba(33,41,48,1)" stroke-width="1.5" fill-opacity="1" fill="#dbe9fc"></path><g id="SvgjsG1037"><text id="SvgjsText1038" font-family="&quot;Comic Sans MS&quot;" text-anchor="middle" font-size="13px" width="90px" fill="#323232" font-weight="700" align="middle" lineHeight="125%" anchor="middle" family="&quot;Comic Sans MS&quot;" size="13px" weight="700" font-style="" opacity="1" y="20.875" transform="rotate(0)"><tspan id="SvgjsTspan1039" dy="16.25" x="55"><tspan id="SvgjsTspan1040" style="">耗时的IO操作</tspan></tspan></text></g></g><g id="SvgjsG1041"><path id="SvgjsPath1042" d="M121.75 101L151 101L151 101L178.3 101" stroke="#323232" stroke-width="1.5" fill="none" marker-end="url(#SvgjsMarker1043)"></path></g><g id="SvgjsG1045"><path id="SvgjsPath1046" d="M277.75 101L307 101L307 101L334.3 101" stroke="#323232" stroke-width="1.5" fill="none" marker-end="url(#SvgjsMarker1047)"></path></g><g id="SvgjsG1049"><path id="SvgjsPath1050" d="M433.75 101L463 101L463 101L490.29999999999995 101" stroke="#323232" stroke-width="1.5" fill="none" marker-end="url(#SvgjsMarker1051)"></path></g><g id="SvgjsG1053"><path id="SvgjsPath1054" d="M260.32094365110345 227.81840614790428C 186.58492105989097 268.74895182107474 73.00000000000001 213.08278321728784 73.20175736148948 130.69245129335422" stroke-dasharray="8,5" stroke="#323232" stroke-width="1.5" fill="none" marker-end="url(#SvgjsMarker1055)"></path></g><g id="SvgjsG1057"><path id="SvgjsPath1058" d="M365.9068224543892 230.82640008409533C 441.3010131979408 201.8623773016542 541 209.51601331549608 540.798159646954 130.6924450731412" stroke-dasharray="8,5" stroke="#323232" stroke-width="1.5" fill="none" marker-end="url(#SvgjsMarker1059)"></path></g><g id="SvgjsG1061" transform="translate(25,25)"><path id="SvgjsPath1062" d="M 0 0L 530 0L 530 40L 0 40Z" stroke="none" fill="none"></path><g id="SvgjsG1063"><text id="SvgjsText1064" font-family="&quot;Comic Sans MS&quot;" text-anchor="middle" font-size="13px" width="530px" fill="#323232" font-weight="400" align="middle" lineHeight="125%" anchor="middle" family="&quot;Comic Sans MS&quot;" size="13px" weight="400" font-style="" opacity="1" y="9.375" transform="rotate(0)"><tspan id="SvgjsTspan1065" dy="16.25" x="265"><tspan id="SvgjsTspan1066" style="">Redis采用Reactor模式的网络模型，对于一个客户端请求，主线程负责一个完整的处理过程</tspan></tspan></text></g></g></svg>