<svg id="SvgjsSvg1006" width="733.2727272727273" height="426.5909090909091" xmlns="http://www.w3.org/2000/svg" version="1.1" xmlns:xlink="http://www.w3.org/1999/xlink" xmlns:svgjs="http://svgjs.com/svgjs"><defs id="SvgjsDefs1007"><pattern patternUnits="userSpaceOnUse" id="pattern_mark_0" width="300" height="300"><text x="150" y="100" fill="rgba(229,229,229,0.8)" font-size="18" transform="rotate(-45, 150, 150)" style="dominant-baseline: middle; text-anchor: middle;"></text></pattern><pattern patternUnits="userSpaceOnUse" id="pattern_mark_1" width="300" height="300"><text x="150" y="200" fill="rgba(229,229,229,0.8)" font-size="18" transform="rotate(-45, 150, 150)" style="dominant-baseline: middle; text-anchor: middle;"></text></pattern><marker id="SvgjsMarker1045" markerWidth="13" markerHeight="9" refX="9.5" refY="4.5" viewBox="0 0 13 9" orient="auto" markerUnits="userSpaceOnUse" stroke-dasharray="0,0"><path id="SvgjsPath1046" d="M0,0 L13,4.5 L0,9 L0,0" fill="#323232" stroke="#323232" stroke-width="1"></path></marker><marker id="SvgjsMarker1049" markerWidth="13" markerHeight="9" refX="3.5" refY="4.5" viewBox="0 0 13 9" orient="auto" markerUnits="userSpaceOnUse" stroke-dasharray="0,0"><path id="SvgjsPath1050" d="M13,0 L0,4.5 L13,9 L13,0" fill="#323232" stroke="#323232" stroke-width="1"></path></marker><marker id="SvgjsMarker1093" markerWidth="13" markerHeight="9" refX="3.5" refY="4.5" viewBox="0 0 13 9" orient="0" markerUnits="userSpaceOnUse" stroke-dasharray="0,0"><path id="SvgjsPath1094" d="M13,0 L0,4.5 L13,9 L13,0" fill="#323232" stroke="#323232" stroke-width="1"></path></marker><marker id="SvgjsMarker1097" markerWidth="13" markerHeight="9" refX="9.5" refY="4.5" viewBox="0 0 13 9" orient="auto" markerUnits="userSpaceOnUse" stroke-dasharray="0,0"><path id="SvgjsPath1098" d="M0,0 L13,4.5 L0,9 L0,0" fill="#323232" stroke="#323232" stroke-width="1"></path></marker><marker id="SvgjsMarker1101" markerWidth="13" markerHeight="9" refX="3.5" refY="4.5" viewBox="0 0 13 9" orient="0" markerUnits="userSpaceOnUse" stroke-dasharray="0,0"><path id="SvgjsPath1102" d="M13,0 L0,4.5 L13,9 L13,0" fill="#323232" stroke="#323232" stroke-width="1"></path></marker><marker id="SvgjsMarker1105" markerWidth="13" markerHeight="9" refX="9.5" refY="4.5" viewBox="0 0 13 9" orient="auto" markerUnits="userSpaceOnUse" stroke-dasharray="0,0"><path id="SvgjsPath1106" d="M0,0 L13,4.5 L0,9 L0,0" fill="#323232" stroke="#323232" stroke-width="1"></path></marker><marker id="SvgjsMarker1151" markerWidth="13" markerHeight="9" refX="9.5" refY="4.5" viewBox="0 0 13 9" orient="auto" markerUnits="userSpaceOnUse" stroke-dasharray="0,0"><path id="SvgjsPath1152" d="M0,0 L13,4.5 L0,9 L0,0" fill="#323232" stroke="#323232" stroke-width="1"></path></marker><marker id="SvgjsMarker1155" markerWidth="13" markerHeight="9" refX="9.5" refY="4.5" viewBox="0 0 13 9" orient="auto" markerUnits="userSpaceOnUse" stroke-dasharray="0,0"><path id="SvgjsPath1156" d="M0,0 L13,4.5 L0,9 L0,0" fill="#323232" stroke="#323232" stroke-width="1"></path></marker><marker id="SvgjsMarker1159" markerWidth="13" markerHeight="9" refX="3.5" refY="4.5" viewBox="0 0 13 9" orient="0" markerUnits="userSpaceOnUse" stroke-dasharray="0,0"><path id="SvgjsPath1160" d="M13,0 L0,4.5 L13,9 L13,0" fill="#323232" stroke="#323232" stroke-width="1"></path></marker><marker id="SvgjsMarker1163" markerWidth="13" markerHeight="9" refX="9.5" refY="4.5" viewBox="0 0 13 9" orient="auto" markerUnits="userSpaceOnUse" stroke-dasharray="0,0"><path id="SvgjsPath1164" d="M0,0 L13,4.5 L0,9 L0,0" fill="#323232" stroke="#323232" stroke-width="1"></path></marker><marker id="SvgjsMarker1167" markerWidth="13" markerHeight="9" refX="9.5" refY="4.5" viewBox="0 0 13 9" orient="auto" markerUnits="userSpaceOnUse" stroke-dasharray="0,0"><path id="SvgjsPath1168" d="M0,0 L13,4.5 L0,9 L0,0" fill="#323232" stroke="#323232" stroke-width="1"></path></marker><marker id="SvgjsMarker1171" markerWidth="13" markerHeight="9" refX="9.5" refY="4.5" viewBox="0 0 13 9" orient="auto" markerUnits="userSpaceOnUse" stroke-dasharray="0,0"><path id="SvgjsPath1172" d="M0,0 L13,4.5 L0,9 L0,0" fill="#323232" stroke="#323232" stroke-width="1"></path></marker><marker id="SvgjsMarker1175" markerWidth="13" markerHeight="9" refX="3.5" refY="4.5" viewBox="0 0 13 9" orient="auto" markerUnits="userSpaceOnUse" stroke-dasharray="0,0"><path id="SvgjsPath1176" d="M13,0 L0,4.5 L13,9 L13,0" fill="#323232" stroke="#323232" stroke-width="1"></path></marker><marker id="SvgjsMarker1179" markerWidth="13" markerHeight="9" refX="9.5" refY="4.5" viewBox="0 0 13 9" orient="auto" markerUnits="userSpaceOnUse" stroke-dasharray="0,0"><path id="SvgjsPath1180" d="M0,0 L13,4.5 L0,9 L0,0" fill="#323232" stroke="#323232" stroke-width="1"></path></marker><marker id="SvgjsMarker1183" markerWidth="13" markerHeight="9" refX="3.5" refY="4.5" viewBox="0 0 13 9" orient="0" markerUnits="userSpaceOnUse" stroke-dasharray="0,0"><path id="SvgjsPath1184" d="M13,0 L0,4.5 L13,9 L13,0" fill="#323232" stroke="#323232" stroke-width="1"></path></marker><marker id="SvgjsMarker1185" markerWidth="13" markerHeight="9" refX="9.5" refY="4.5" viewBox="0 0 13 9" orient="auto" markerUnits="userSpaceOnUse" stroke-dasharray="0,0"><path id="SvgjsPath1186" d="M0,0 L13,4.5 L0,9 L0,0" fill="#323232" stroke="#323232" stroke-width="1"></path></marker></defs><rect id="svgbackgroundid" width="733.2727272727273" height="426.5909090909091" fill="transparent"></rect><rect id="SvgjsRect1009" width="733.2727272727273" height="426.5909090909091" fill="url(#pattern_mark_0)"></rect><rect id="SvgjsRect1010" width="733.2727272727273" height="426.5909090909091" fill="url(#pattern_mark_1)"></rect><g id="SvgjsG1011" transform="translate(80.54545454545456,25.04545454545456)"><path id="SvgjsPath1012" d="M 0 4Q 0 0 4 0L 295.2727272727273 0Q 299.2727272727273 0 299.2727272727273 4L 299.2727272727273 150.90909090909082Q 299.2727272727273 154.90909090909082 295.2727272727273 154.90909090909082L 4 154.90909090909082Q 0 154.90909090909082 0 150.90909090909082Z" stroke="rgba(33,41,48,1)" stroke-width="1.5" fill-opacity="1" fill="#cbe6c7"></path><g id="SvgjsG1013"><text id="SvgjsText1014" font-family="&quot;Comic Sans MS&quot;" text-anchor="middle" font-size="13px" width="280px" fill="#323232" font-weight="400" align="middle" lineHeight="125%" anchor="middle" family="&quot;Comic Sans MS&quot;" size="13px" weight="400" font-style="" opacity="1" y="66.82954545454541" transform="rotate(0)"></text></g></g><g id="SvgjsG1015" transform="translate(497.3636363636364,25)"><path id="SvgjsPath1016" d="M 0 4Q 0 0 4 0L 72.72727272727252 0Q 76.72727272727252 0 76.72727272727252 4L 76.72727272727252 151Q 76.72727272727252 155 72.72727272727252 155L 4 155Q 0 155 0 151Z" stroke="rgba(33,41,48,1)" stroke-width="1.5" fill-opacity="1" fill="#cbe6c7"></path><g id="SvgjsG1017"><text id="SvgjsText1018" font-family="&quot;Comic Sans MS&quot;" text-anchor="middle" font-size="13px" width="57px" fill="#323232" font-weight="400" align="middle" lineHeight="125%" anchor="middle" family="&quot;Comic Sans MS&quot;" size="13px" weight="400" font-style="" opacity="1" y="66.875" transform="rotate(0)"></text></g></g><g id="SvgjsG1019" transform="translate(510.3636363636364,52.72727272727275)"><path id="SvgjsPath1020" d="M 0 4Q 0 0 4 0L 46.36363636363626 0Q 50.36363636363626 0 50.36363636363626 4L 50.36363636363626 95.5454545454545Q 50.36363636363626 99.5454545454545 46.36363636363626 99.5454545454545L 4 99.5454545454545Q 0 99.5454545454545 0 95.5454545454545Z" stroke="rgba(33,41,48,1)" stroke-width="1.5" fill-opacity="1" fill="#f9e0ae"></path><g id="SvgjsG1021"><text id="SvgjsText1022" font-family="&quot;Comic Sans MS&quot;" text-anchor="middle" font-size="13px" width="31px" fill="#323232" font-weight="400" align="middle" lineHeight="125%" anchor="middle" family="&quot;Comic Sans MS&quot;" size="13px" weight="400" font-style="" opacity="1" y="39.14772727272725" transform="rotate(0)"><tspan id="SvgjsTspan1023" dy="16.25" x="25.5"><tspan id="SvgjsTspan1024" style="">SNI</tspan></tspan></text></g></g><g id="SvgjsG1025" transform="translate(94.36363636363637,39.77272727272725)"><path id="SvgjsPath1026" d="M 0 4Q 0 0 4 0L 92 0Q 96 0 96 4L 96 106Q 96 110 92 110L 4 110Q 0 110 0 106Z" stroke="rgba(33,41,48,1)" stroke-width="1.5" fill-opacity="1" fill="#f9e0ae"></path><g id="SvgjsG1027"><text id="SvgjsText1028" font-family="&quot;Comic Sans MS&quot;" text-anchor="middle" font-size="13px" width="76px" fill="#323232" font-weight="400" align="middle" lineHeight="125%" anchor="middle" family="&quot;Comic Sans MS&quot;" size="13px" weight="400" font-style="" opacity="1" y="44.375" transform="rotate(0)"><tspan id="SvgjsTspan1029" dy="16.25" x="48"><tspan id="SvgjsTspan1030" style="">优化器</tspan></tspan></text></g></g><g id="SvgjsG1031" transform="translate(265.3636363636364,39.77272727272725)"><path id="SvgjsPath1032" d="M 0 4Q 0 0 4 0L 92 0Q 96 0 96 4L 96 36Q 96 40 92 40L 4 40Q 0 40 0 36Z" stroke="rgba(33,41,48,1)" stroke-width="1.5" fill-opacity="1" fill="#f9e0ae"></path><g id="SvgjsG1033"><text id="SvgjsText1034" font-family="&quot;Comic Sans MS&quot;" text-anchor="middle" font-size="13px" width="76px" fill="#323232" font-weight="400" align="middle" lineHeight="125%" anchor="middle" family="&quot;Comic Sans MS&quot;" size="13px" weight="400" font-style="" opacity="1" y="9.375" transform="rotate(0)"><tspan id="SvgjsTspan1035" dy="16.25" x="48"><tspan id="SvgjsTspan1036" style="">命令分析器</tspan></tspan></text></g></g><g id="SvgjsG1037" transform="translate(265.3636363636364,109.77272727272725)"><path id="SvgjsPath1038" d="M 0 4Q 0 0 4 0L 92 0Q 96 0 96 4L 96 36Q 96 40 92 40L 4 40Q 0 40 0 36Z" stroke="rgba(33,41,48,1)" stroke-width="1.5" fill-opacity="1" fill="#f9e0ae"></path><g id="SvgjsG1039"><text id="SvgjsText1040" font-family="&quot;Comic Sans MS&quot;" text-anchor="middle" font-size="13px" width="76px" fill="#323232" font-weight="400" align="middle" lineHeight="125%" anchor="middle" family="&quot;Comic Sans MS&quot;" size="13px" weight="400" font-style="" opacity="1" y="9.375" transform="rotate(0)"><tspan id="SvgjsTspan1041" dy="16.25" x="48"><tspan id="SvgjsTspan1042" style="">查询执行器</tspan></tspan></text></g></g><g id="SvgjsG1043"><path id="SvgjsPath1044" d="M264.6136363636364 59.77272727272725L227.86363636363637 59.77272727272725L227.86363636363637 59.77272727272725L193.06363636363636 59.77272727272725" stroke="#323232" stroke-width="1.5" fill="none" marker-end="url(#SvgjsMarker1045)"></path></g><g id="SvgjsG1047"><path id="SvgjsPath1048" d="M262.6636363636364 129.77272727272725L227.86363636363637 129.77272727272725L227.86363636363637 129.77272727272725L191.11363636363637 129.77272727272725" stroke="#323232" stroke-width="1.5" fill="none" marker-start="url(#SvgjsMarker1049)"></path></g><g id="SvgjsG1051" transform="translate(180.18181818181822,31.772727272727252)"><path id="SvgjsPath1052" d="M 0 0L 100 0L 100 40L 0 40Z" stroke="none" fill="none"></path><g id="SvgjsG1053"><text id="SvgjsText1054" font-family="&quot;Microsoft YaHei&quot;, 微软雅黑, Arial" text-anchor="middle" font-size="13px" width="100px" fill="#323232" font-weight="400" align="middle" lineHeight="125%" anchor="middle" family="&quot;Microsoft YaHei&quot;, 微软雅黑, Arial" size="13px" weight="400" font-style="" opacity="1" y="9.375" transform="rotate(0)"><tspan id="SvgjsTspan1055" dy="16.25" x="50"><tspan id="SvgjsTspan1056" style="">查询树</tspan></tspan></text></g></g><g id="SvgjsG1057" transform="translate(180.18181818181822,101.77272727272725)"><path id="SvgjsPath1058" d="M 0 0L 100 0L 100 40L 0 40Z" stroke="none" fill="none"></path><g id="SvgjsG1059"><text id="SvgjsText1060" font-family="&quot;Microsoft YaHei&quot;, 微软雅黑, Arial" text-anchor="middle" font-size="13px" width="100px" fill="#323232" font-weight="400" align="middle" lineHeight="125%" anchor="middle" family="&quot;Microsoft YaHei&quot;, 微软雅黑, Arial" size="13px" weight="400" font-style="" opacity="1" y="9.375" transform="rotate(0)"><tspan id="SvgjsTspan1061" dy="16.25" x="50"><tspan id="SvgjsTspan1062" style="">查询计划</tspan></tspan></text></g></g><g id="SvgjsG1063" transform="translate(180.18181818181824,149.77272727272725)"><path id="SvgjsPath1064" d="M 0 0L 100 0L 100 40L 0 40Z" stroke="none" fill="none"></path><g id="SvgjsG1065"><text id="SvgjsText1066" font-family="&quot;Microsoft YaHei&quot;, 微软雅黑, Arial" text-anchor="middle" font-size="13px" width="100px" fill="#323232" font-weight="400" align="middle" lineHeight="125%" anchor="middle" family="&quot;Microsoft YaHei&quot;, 微软雅黑, Arial" size="13px" weight="400" font-style="" opacity="1" y="9.375" transform="rotate(0)"><tspan id="SvgjsTspan1067" dy="16.25" x="50"><tspan id="SvgjsTspan1068" style="">关系引擎</tspan></tspan></text></g></g><g id="SvgjsG1069" transform="translate(142.36363636363637,236.8636363636365)"><path id="SvgjsPath1070" d="M 0 4Q 0 0 4 0L 386.72727272727263 0Q 390.72727272727263 0 390.72727272727263 4L 390.72727272727263 150.90909090909082Q 390.72727272727263 154.90909090909082 386.72727272727263 154.90909090909082L 4 154.90909090909082Q 0 154.90909090909082 0 150.90909090909082Z" stroke="rgba(33,41,48,1)" stroke-width="1.5" fill-opacity="1" fill="#cbe6c7"></path><g id="SvgjsG1071"><text id="SvgjsText1072" font-family="&quot;Comic Sans MS&quot;" text-anchor="middle" font-size="13px" width="371px" fill="#323232" font-weight="400" align="middle" lineHeight="125%" anchor="middle" family="&quot;Comic Sans MS&quot;" size="13px" weight="400" font-style="" opacity="1" y="66.82954545454541" transform="rotate(0)"></text></g></g><g id="SvgjsG1073" transform="translate(156.1818181818182,251.59090909090912)"><path id="SvgjsPath1074" d="M 0 4Q 0 0 4 0L 92 0Q 96 0 96 4L 96 106Q 96 110 92 110L 4 110Q 0 110 0 106Z" stroke="rgba(33,41,48,1)" stroke-width="1.5" fill-opacity="1" fill="#f9e0ae"></path><g id="SvgjsG1075"><text id="SvgjsText1076" font-family="&quot;Comic Sans MS&quot;" text-anchor="middle" font-size="13px" width="76px" fill="#323232" font-weight="400" align="middle" lineHeight="125%" anchor="middle" family="&quot;Comic Sans MS&quot;" size="13px" weight="400" font-style="" opacity="1" y="44.375" transform="rotate(0)"><tspan id="SvgjsTspan1077" dy="16.25" x="48"><tspan id="SvgjsTspan1078" style="">优化器</tspan></tspan></text></g></g><g id="SvgjsG1079" transform="translate(418.3636363636364,251.59090909090912)"><path id="SvgjsPath1080" d="M 0 4Q 0 0 4 0L 92 0Q 96 0 96 4L 96 106Q 96 110 92 110L 4 110Q 0 110 0 106Z" stroke="rgba(33,41,48,1)" stroke-width="1.5" fill-opacity="1" fill="#f9e0ae"></path><g id="SvgjsG1081"><text id="SvgjsText1082" font-family="&quot;Comic Sans MS&quot;" text-anchor="middle" font-size="13px" width="76px" fill="#323232" font-weight="400" align="middle" lineHeight="125%" anchor="middle" family="&quot;Comic Sans MS&quot;" size="13px" weight="400" font-style="" opacity="1" y="44.375" transform="rotate(0)"><tspan id="SvgjsTspan1083" dy="16.25" x="48"><tspan id="SvgjsTspan1084" style="">优化器</tspan></tspan></text></g></g><g id="SvgjsG1085" transform="translate(280.18181818181824,251.59090909090912)"><path id="SvgjsPath1086" d="M 0 4Q 0 0 4 0L 106.18181818181807 0Q 110.18181818181807 0 110.18181818181807 4L 110.18181818181807 30.727272727272634Q 110.18181818181807 34.727272727272634 106.18181818181807 34.727272727272634L 4 34.727272727272634Q 0 34.727272727272634 0 30.727272727272634Z" stroke="rgba(33,41,48,1)" stroke-width="1.5" fill-opacity="1" fill="#ffffff"></path><g id="SvgjsG1087"><text id="SvgjsText1088" font-family="&quot;Microsoft YaHei&quot;, 微软雅黑, Arial" text-anchor="middle" font-size="13px" width="91px" fill="#323232" font-weight="400" align="middle" lineHeight="125%" anchor="middle" family="&quot;Microsoft YaHei&quot;, 微软雅黑, Arial" size="13px" weight="400" font-style="" opacity="1" y="6.738636363636317" transform="rotate(0)"><tspan id="SvgjsTspan1089" dy="16.25" x="55.5"><tspan id="SvgjsTspan1090" style="">访问方法</tspan></tspan></text></g></g><g id="SvgjsG1091"><path id="SvgjsPath1092" d="M254.7 258.13636363636357L266.22727272727275 258.13636363636357L266.22727272727275 258.13636363636357L279.70454545454544 258.13636363636357" stroke="#323232" stroke-width="1.5" fill="none" marker-start="url(#SvgjsMarker1093)"></path></g><g id="SvgjsG1095"><path id="SvgjsPath1096" d="M252.8409090909091 275.4090909090908L266.27265112030545 275.4090909090908L266.27265112030545 275.4090909090908L277.75439314970185 275.4090909090908" stroke="#323232" stroke-width="1.5" fill="none" marker-end="url(#SvgjsMarker1097)"></path></g><g id="SvgjsG1099"><path id="SvgjsPath1100" d="M392.8818181818182 257.2272727272727L404.45454545454544 257.2272727272727L404.45454545454544 257.2272727272727L417.9772727272727 257.2272727272727" stroke="#323232" stroke-width="1.5" fill="none" marker-start="url(#SvgjsMarker1101)"></path></g><g id="SvgjsG1103"><path id="SvgjsPath1104" d="M390.951282044335 279.6761992526252L404.4188228403493 279.6761992526252L404.4188228403493 279.6761992526252L415.93636363636364 279.6761992526252" stroke="#323232" stroke-width="1.5" fill="none" marker-end="url(#SvgjsMarker1105)"></path></g><g id="SvgjsG1107" transform="translate(605.3636363636364,236.8636363636365)"><path id="SvgjsPath1108" d="M 0 4Q 0 0 4 0L 85.81818181818164 0Q 89.81818181818164 0 89.81818181818164 4L 89.81818181818164 150.90909090909082Q 89.81818181818164 154.90909090909082 85.81818181818164 154.90909090909082L 4 154.90909090909082Q 0 154.90909090909082 0 150.90909090909082Z" stroke="rgba(33,41,48,1)" stroke-width="1.5" fill-opacity="1" fill="#cbe6c7"></path><g id="SvgjsG1109"><text id="SvgjsText1110" font-family="&quot;Comic Sans MS&quot;" text-anchor="middle" font-size="13px" width="70px" fill="#323232" font-weight="400" align="middle" lineHeight="125%" anchor="middle" family="&quot;Comic Sans MS&quot;" size="13px" weight="400" font-style="" opacity="1" y="66.82954545454541" transform="rotate(0)"></text></g></g><g id="SvgjsG1111" transform="translate(625.3636363636364,261.13636363636357)"><path id="SvgjsPath1112" d="M 0 0L 48.90909090909088 0L 48.90909090909088 34.27272727272725L 0 34.27272727272725Z" stroke="rgba(33,41,48,1)" stroke-width="1.5" fill-opacity="1" fill="#ffffff"></path><g id="SvgjsG1113"><text id="SvgjsText1114" font-family="&quot;Microsoft YaHei&quot;, 微软雅黑, Arial" text-anchor="middle" font-size="13px" width="29px" fill="#323232" font-weight="400" align="middle" lineHeight="125%" anchor="middle" family="&quot;Microsoft YaHei&quot;, 微软雅黑, Arial" size="13px" weight="400" font-style="" opacity="1" y="6.511363636363626" transform="rotate(0)"><tspan id="SvgjsTspan1115" dy="16.25" x="24.5"><tspan id="SvgjsTspan1116" style="">D</tspan></tspan></text></g></g><g id="SvgjsG1117" transform="translate(618.3636363636364,351.77272727272725)"><path id="SvgjsPath1118" d="M 0 0L 64.72727272727286 0L 64.72727272727286 40L 0 40Z" stroke="none" fill="none"></path><g id="SvgjsG1119"><text id="SvgjsText1120" font-family="&quot;Microsoft YaHei&quot;, 微软雅黑, Arial" text-anchor="middle" font-size="13px" width="65px" fill="#323232" font-weight="400" align="middle" lineHeight="125%" anchor="middle" family="&quot;Microsoft YaHei&quot;, 微软雅黑, Arial" size="13px" weight="400" font-style="" opacity="1" y="0.875" transform="rotate(0)"><tspan id="SvgjsTspan1121" dy="16.25" x="32.5"><tspan id="SvgjsTspan1122" style="">(L1)</tspan></tspan><tspan id="SvgjsTspan1123" dy="16.25" x="32.5"><tspan id="SvgjsTspan1124" style="">缓冲池</tspan></tspan></text></g></g><g id="SvgjsG1125" transform="translate(485.3636363636364,149.77272727272725)"><path id="SvgjsPath1126" d="M 0 0L 100 0L 100 40L 0 40Z" stroke="none" fill="none"></path><g id="SvgjsG1127"><text id="SvgjsText1128" font-family="&quot;Microsoft YaHei&quot;, 微软雅黑, Arial" text-anchor="middle" font-size="13px" width="100px" fill="#323232" font-weight="400" align="middle" lineHeight="125%" anchor="middle" family="&quot;Microsoft YaHei&quot;, 微软雅黑, Arial" size="13px" weight="400" font-style="" opacity="1" y="9.375" transform="rotate(0)"><tspan id="SvgjsTspan1129" dy="16.25" x="50"><tspan id="SvgjsTspan1130" style="">协议层</tspan></tspan></text></g></g><g id="SvgjsG1131" transform="translate(287.3636363636364,361.5909090909091)"><path id="SvgjsPath1132" d="M 0 0L 100 0L 100 40L 0 40Z" stroke="none" fill="none"></path><g id="SvgjsG1133"><text id="SvgjsText1134" font-family="&quot;Microsoft YaHei&quot;, 微软雅黑, Arial" text-anchor="middle" font-size="13px" width="100px" fill="#323232" font-weight="400" align="middle" lineHeight="125%" anchor="middle" family="&quot;Microsoft YaHei&quot;, 微软雅黑, Arial" size="13px" weight="400" font-style="" opacity="1" y="9.375" transform="rotate(0)"><tspan id="SvgjsTspan1135" dy="16.25" x="50"><tspan id="SvgjsTspan1136" style="">存储引擎</tspan></tspan></text></g></g><g id="SvgjsG1137" transform="translate(25,342.31818181818176)"><path id="SvgjsPath1138" d="M 0 4Q 0 0 4 0L 92 0Q 96 0 96 4L 96 40.90909090909088Q 96 44.90909090909088 92 44.90909090909088L 4 44.90909090909088Q 0 44.90909090909088 0 40.90909090909088Z" stroke="rgba(33,41,48,1)" stroke-width="1.5" fill-opacity="1" fill="#ffffff"></path><g id="SvgjsG1139"><text id="SvgjsText1140" font-family="&quot;Microsoft YaHei&quot;, 微软雅黑, Arial" text-anchor="middle" font-size="13px" width="76px" fill="#323232" font-weight="400" align="middle" lineHeight="125%" anchor="middle" family="&quot;Microsoft YaHei&quot;, 微软雅黑, Arial" size="13px" weight="400" font-style="" opacity="1" y="11.829545454545439" transform="rotate(0)"><tspan id="SvgjsTspan1141" dy="16.25" x="48"><tspan id="SvgjsTspan1142" style="">数据文件</tspan></tspan></text></g></g><g id="SvgjsG1143" transform="translate(612.2727272727273,80.04545454545456)"><path id="SvgjsPath1144" d="M 0 4Q 0 0 4 0L 92 0Q 96 0 96 4L 96 40.90909090909088Q 96 44.90909090909088 92 44.90909090909088L 4 44.90909090909088Q 0 44.90909090909088 0 40.90909090909088Z" stroke="rgba(33,41,48,1)" stroke-width="1.5" fill-opacity="1" fill="#c3defd"></path><g id="SvgjsG1145"><text id="SvgjsText1146" font-family="&quot;Microsoft YaHei&quot;, 微软雅黑, Arial" text-anchor="middle" font-size="13px" width="76px" fill="#323232" font-weight="400" align="middle" lineHeight="125%" anchor="middle" family="&quot;Microsoft YaHei&quot;, 微软雅黑, Arial" size="13px" weight="400" font-style="" opacity="1" y="11.829545454545439" transform="rotate(0)"><tspan id="SvgjsTspan1147" dy="16.25" x="48"><tspan id="SvgjsTspan1148" style="">服务器</tspan></tspan></text></g></g><g id="SvgjsG1149"><path id="SvgjsPath1150" d="M300.3636363636364 149.61363636363632L300.3636363636364 200.5454545454545L300.3636363636364 200.5454545454545L300.3636363636364 249.5272727272727" stroke="#323232" stroke-width="1.5" fill="none" marker-end="url(#SvgjsMarker1151)"></path></g><g id="SvgjsG1153"><path id="SvgjsPath1154" d="M335.27272727272725 250.84090909090912L335.27272727272725 200.68181818181813L335.27272727272725 200.68181818181813L335.27272727272725 152.47272727272718" stroke="#323232" stroke-width="1.5" fill="none" marker-end="url(#SvgjsMarker1155)"></path></g><g id="SvgjsG1157"><path id="SvgjsPath1158" d="M364.06363636363636 59.77272727272725L435.9090909090909 59.77272727272725L435.9090909090909 59.77272727272725L509.70454545454544 59.77272727272725" stroke="#323232" stroke-width="1.5" fill="none" marker-start="url(#SvgjsMarker1159)"></path></g><g id="SvgjsG1161"><path id="SvgjsPath1162" d="M362.1136363636364 129.77272727272725L435.9090909090909 129.77272727272725L435.9090909090909 129.77272727272725L507.75454545454545 129.77272727272725" stroke="#323232" stroke-width="1.5" fill="none" marker-end="url(#SvgjsMarker1163)"></path></g><g id="SvgjsG1165"><path id="SvgjsPath1166" d="M560.9318181818181 89.0454545454545L586.2272727272726 89.0454545454545L586.2272727272726 89.0454545454545L609.5727272727272 89.0454545454545" stroke="#323232" stroke-width="1.5" fill="none" marker-end="url(#SvgjsMarker1167)"></path></g><g id="SvgjsG1169"><path id="SvgjsPath1170" d="M611.6136363636364 113.59090909090907L586.5454545454545 113.59090909090907L586.5454545454545 113.59090909090907L563.4272727272727 113.59090909090907" stroke="#323232" stroke-width="1.5" fill="none" marker-end="url(#SvgjsMarker1171)"></path></g><g id="SvgjsG1173"><path id="SvgjsPath1174" d="M622.7545454545453 268.13636363636357L569.9090909090909 268.13636363636357L569.9090909090909 268.13636363636357L515.1136363636364 268.13636363636357" stroke="#323232" stroke-width="1.5" fill="none" marker-start="url(#SvgjsMarker1175)"></path></g><g id="SvgjsG1177"><path id="SvgjsPath1178" d="M624.7045454545454 286.31818181818176L569.6818181818181 286.31818181818176L569.6818181818181 286.31818181818176L516.6090909090909 286.31818181818176" stroke="#323232" stroke-width="1.5" fill="none" marker-end="url(#SvgjsMarker1179)"></path></g><g id="SvgjsG1181"><path id="SvgjsPath1182" d="M123.7 364.77272727272725L363.6363636363636 364.77272727272725L363.6363636363636 364.77272727272725L603.5727272727272 364.77272727272725" stroke-dasharray="7.5,3" stroke="#323232" stroke-width="1.5" fill="none" marker-start="url(#SvgjsMarker1183)" marker-end="url(#SvgjsMarker1185)"></path></g><g id="SvgjsG1187" transform="translate(385.3636363636364,42.72727272727275)"><path id="SvgjsPath1188" d="M 0 0L 100 0L 100 20L 0 20Z" stroke="none" fill="none"></path><g id="SvgjsG1189"><text id="SvgjsText1190" font-family="&quot;Microsoft YaHei&quot;, 微软雅黑, Arial" text-anchor="middle" font-size="13px" width="100px" fill="#323232" font-weight="400" align="middle" lineHeight="125%" anchor="middle" family="&quot;Microsoft YaHei&quot;, 微软雅黑, Arial" size="13px" weight="400" font-style="" opacity="1" y="-0.625" transform="rotate(0)"><tspan id="SvgjsTspan1191" dy="16.25" x="50"><tspan id="SvgjsTspan1192" style="">命令</tspan></tspan></text></g></g><g id="SvgjsG1193" transform="translate(385.3636363636364,113.18181818181813)"><path id="SvgjsPath1194" d="M 0 0L 100 0L 100 18.63636363636374L 0 18.63636363636374Z" stroke="none" fill="none"></path><g id="SvgjsG1195"><text id="SvgjsText1196" font-family="&quot;Microsoft YaHei&quot;, 微软雅黑, Arial" text-anchor="middle" font-size="13px" width="100px" fill="#323232" font-weight="400" align="middle" lineHeight="125%" anchor="middle" family="&quot;Microsoft YaHei&quot;, 微软雅黑, Arial" size="13px" weight="400" font-style="" opacity="1" y="-1.3068181818181301" transform="rotate(0)"><tspan id="SvgjsTspan1197" dy="16.25" x="50"><tspan id="SvgjsTspan1198" style="">结果集</tspan></tspan></text></g></g><g id="SvgjsG1199" transform="translate(518.3636363636364,237.2272727272727)"><path id="SvgjsPath1200" d="M 0 0L 100 0L 100 40L 0 40Z" stroke="none" fill="none"></path><g id="SvgjsG1201"><text id="SvgjsText1202" font-family="&quot;Microsoft YaHei&quot;, 微软雅黑, Arial" text-anchor="middle" font-size="13px" width="100px" fill="#323232" font-weight="400" align="middle" lineHeight="125%" anchor="middle" family="&quot;Microsoft YaHei&quot;, 微软雅黑, Arial" size="13px" weight="400" font-style="" opacity="1" y="9.375" transform="rotate(0)"><tspan id="SvgjsTspan1203" dy="16.25" x="50"><tspan id="SvgjsTspan1204" style="">获取页</tspan></tspan></text></g></g><g id="SvgjsG1205" transform="translate(519.8636363636364,277.22727272727275)"><path id="SvgjsPath1206" d="M 0 0L 100 0L 100 40L 0 40Z" stroke="none" fill="none"></path><g id="SvgjsG1207"><text id="SvgjsText1208" font-family="&quot;Microsoft YaHei&quot;, 微软雅黑, Arial" text-anchor="middle" font-size="13px" width="100px" fill="#323232" font-weight="400" align="middle" lineHeight="125%" anchor="middle" family="&quot;Microsoft YaHei&quot;, 微软雅黑, Arial" size="13px" weight="400" font-style="" opacity="1" y="9.375" transform="rotate(0)"><tspan id="SvgjsTspan1209" dy="16.25" x="50"><tspan id="SvgjsTspan1210" style="">缓存页</tspan></tspan></text></g></g><g id="SvgjsG1211" transform="translate(519.8636363636364,354.5)"><path id="SvgjsPath1212" d="M 0 0L 100 0L 100 40L 0 40Z" stroke="none" fill="none"></path><g id="SvgjsG1213"><text id="SvgjsText1214" font-family="&quot;Microsoft YaHei&quot;, 微软雅黑, Arial" text-anchor="middle" font-size="13px" width="100px" fill="#323232" font-weight="400" align="middle" lineHeight="125%" anchor="middle" family="&quot;Microsoft YaHei&quot;, 微软雅黑, Arial" size="13px" weight="400" font-style="" opacity="1" y="9.375" transform="rotate(0)"><tspan id="SvgjsTspan1215" dy="16.25" x="50"><tspan id="SvgjsTspan1216" style="">读取I/O</tspan></tspan></text></g></g><g id="SvgjsG1217" transform="translate(324,189.77272727272725)"><path id="SvgjsPath1218" d="M 0 0L 37.363636363636374 0L 37.363636363636374 40L 0 40Z" stroke="none" fill="none"></path><g id="SvgjsG1219"><text id="SvgjsText1220" font-family="&quot;Microsoft YaHei&quot;, 微软雅黑, Arial" text-anchor="middle" font-size="13px" width="38px" fill="#323232" font-weight="400" align="middle" lineHeight="125%" anchor="middle" family="&quot;Microsoft YaHei&quot;, 微软雅黑, Arial" size="13px" weight="400" font-style="" opacity="1" y="0.875" transform="rotate(0)"><tspan id="SvgjsTspan1221" dy="16.25" x="19"><tspan id="SvgjsTspan1222" style="">结</tspan></tspan><tspan id="SvgjsTspan1223" dy="16.25" x="19"><tspan id="SvgjsTspan1224" style="">果</tspan></tspan></text></g></g><g id="SvgjsG1225" transform="translate(270.3636363636364,189.77272727272725)"><path id="SvgjsPath1226" d="M 0 0L 37.363636363636374 0L 37.363636363636374 40L 0 40Z" stroke="none" fill="none"></path><g id="SvgjsG1227"><text id="SvgjsText1228" font-family="&quot;Microsoft YaHei&quot;, 微软雅黑, Arial" text-anchor="middle" font-size="13px" width="38px" fill="#323232" font-weight="400" align="middle" lineHeight="125%" anchor="middle" family="&quot;Microsoft YaHei&quot;, 微软雅黑, Arial" size="13px" weight="400" font-style="" opacity="1" y="0.875" transform="rotate(0)"><tspan id="SvgjsTspan1229" dy="16.25" x="19"><tspan id="SvgjsTspan1230" style="">数</tspan></tspan><tspan id="SvgjsTspan1231" dy="16.25" x="19"><tspan id="SvgjsTspan1232" style="">据</tspan></tspan></text></g></g></svg>