<svg id="SvgjsSvg1006" width="440" height="149" xmlns="http://www.w3.org/2000/svg" version="1.1" xmlns:xlink="http://www.w3.org/1999/xlink" xmlns:svgjs="http://svgjs.com/svgjs"><defs id="SvgjsDefs1007"><pattern patternUnits="userSpaceOnUse" id="pattern_mark_0" width="300" height="300"><text x="150" y="100" fill="rgba(229,229,229,0.8)" font-size="18" transform="rotate(-45, 150, 150)" style="dominant-baseline: middle; text-anchor: middle;"></text></pattern><pattern patternUnits="userSpaceOnUse" id="pattern_mark_1" width="300" height="300"><text x="150" y="200" fill="rgba(229,229,229,0.8)" font-size="18" transform="rotate(-45, 150, 150)" style="dominant-baseline: middle; text-anchor: middle;"></text></pattern><marker id="SvgjsMarker1037" markerWidth="13" markerHeight="9" refX="9.5" refY="4.5" viewBox="0 0 13 9" orient="auto" markerUnits="userSpaceOnUse" stroke-dasharray="0,0"><path id="SvgjsPath1038" d="M0,0 L13,4.5 L0,9 L0,0" fill="#658fbd" stroke="#658fbd" stroke-width="1"></path></marker><marker id="SvgjsMarker1041" markerWidth="13" markerHeight="9" refX="9.5" refY="4.5" viewBox="0 0 13 9" orient="auto" markerUnits="userSpaceOnUse" stroke-dasharray="0,0"><path id="SvgjsPath1042" d="M0,0 L13,4.5 L0,9 L0,0" fill="#658fbd" stroke="#658fbd" stroke-width="1"></path></marker><marker id="SvgjsMarker1045" markerWidth="13" markerHeight="9" refX="9.5" refY="4.5" viewBox="0 0 13 9" orient="auto" markerUnits="userSpaceOnUse" stroke-dasharray="0,0"><path id="SvgjsPath1046" d="M0,0 L13,4.5 L0,9 L0,0" fill="#658fbd" stroke="#658fbd" stroke-width="1"></path></marker></defs><rect id="svgbackgroundid" width="440" height="149" fill="transparent"></rect><rect id="SvgjsRect1009" width="440" height="149" fill="url(#pattern_mark_0)"></rect><rect id="SvgjsRect1010" width="440" height="149" fill="url(#pattern_mark_1)"></rect><g id="SvgjsG1011" transform="translate(25,89)"><path id="SvgjsPath1012" d="M 0 4Q 0 0 4 0L 86 0Q 90 0 90 4L 90 31Q 90 35 86 35L 4 35Q 0 35 0 31Z" stroke="rgba(101,143,189,1)" stroke-width="1.5" fill-opacity="1" fill="#ffffff"></path><g id="SvgjsG1013"><text id="SvgjsText1014" font-family="&quot;Microsoft YaHei&quot;, 微软雅黑, Arial" text-anchor="middle" font-size="13px" width="70px" fill="#323232" font-weight="400" align="middle" lineHeight="125%" anchor="middle" family="&quot;Microsoft YaHei&quot;, 微软雅黑, Arial" size="13px" weight="400" font-style="" opacity="1" y="6.875" transform="rotate(0)"><tspan id="SvgjsTspan1015" dy="16.25" x="45"><tspan id="SvgjsTspan1016" style="">Cat</tspan></tspan></text></g></g><g id="SvgjsG1017" transform="translate(115,25)"><path id="SvgjsPath1018" d="M 0 4Q 0 0 4 0L 86 0Q 90 0 90 4L 90 31Q 90 35 86 35L 4 35Q 0 35 0 31Z" stroke-dasharray="7.5,3" stroke="rgba(101,143,189,1)" stroke-width="1.5" fill-opacity="1" fill="#ffffff"></path><g id="SvgjsG1019"><text id="SvgjsText1020" font-family="&quot;Microsoft YaHei&quot;, 微软雅黑, Arial" text-anchor="middle" font-size="13px" width="70px" fill="#323232" font-weight="400" align="middle" lineHeight="125%" anchor="middle" family="&quot;Microsoft YaHei&quot;, 微软雅黑, Arial" size="13px" weight="400" font-style="" opacity="1" y="6.875" transform="rotate(0)"><tspan id="SvgjsTspan1021" dy="16.25" x="45"><tspan id="SvgjsTspan1022" style="">Friendly</tspan></tspan></text></g></g><g id="SvgjsG1023" transform="translate(325,25)"><path id="SvgjsPath1024" d="M 0 4Q 0 0 4 0L 86 0Q 90 0 90 4L 90 31Q 90 35 86 35L 4 35Q 0 35 0 31Z" stroke="rgba(101,143,189,1)" stroke-width="1.5" fill-opacity="1" fill="#ffffff"></path><g id="SvgjsG1025"><text id="SvgjsText1026" font-family="&quot;Microsoft YaHei&quot;, 微软雅黑, Arial" text-anchor="middle" font-size="13px" width="70px" fill="#323232" font-weight="400" align="middle" lineHeight="125%" anchor="middle" family="&quot;Microsoft YaHei&quot;, 微软雅黑, Arial" size="13px" weight="400" font-style="" opacity="1" y="6.875" transform="rotate(0)"><tspan id="SvgjsTspan1027" dy="16.25" x="45"><tspan id="SvgjsTspan1028" style="">Dog</tspan></tspan></text></g></g><g id="SvgjsG1029" transform="translate(205,89)"><path id="SvgjsPath1030" d="M 0 4Q 0 0 4 0L 116 0Q 120 0 120 4L 120 31Q 120 35 116 35L 4 35Q 0 35 0 31Z" stroke="rgba(101,143,189,1)" stroke-width="1.5" fill-opacity="1" fill="#ffffff"></path><g id="SvgjsG1031"><text id="SvgjsText1032" font-family="&quot;Microsoft YaHei&quot;, 微软雅黑, Arial" text-anchor="middle" font-size="13px" width="100px" fill="#323232" font-weight="400" align="middle" lineHeight="125%" anchor="middle" family="&quot;Microsoft YaHei&quot;, 微软雅黑, Arial" size="13px" weight="400" font-style="" opacity="1" y="6.875" transform="rotate(0)"><tspan id="SvgjsTspan1033" dy="16.25" x="60"><tspan id="SvgjsTspan1034" style="">CockerSpaniel</tspan></tspan></text></g></g><g id="SvgjsG1035"><path id="SvgjsPath1036" d="M70.71385618286561 88.76997967440997L157.4301177416838 60.82807317212411" stroke="#658fbd" stroke-width="1.5" fill="none" marker-end="url(#SvgjsMarker1037)"></path></g><g id="SvgjsG1039"><path id="SvgjsPath1040" d="M264.27706643260814 88.80033263376797L162.60256084261079 60.71880251843535" stroke="#658fbd" stroke-width="1.5" fill="none" marker-end="url(#SvgjsMarker1041)"></path></g><g id="SvgjsG1043"><path id="SvgjsPath1044" d="M265.72293356739186 88.80033263376797L367.3974391573892 60.71880251843535" stroke="#658fbd" stroke-width="1.5" fill="none" marker-end="url(#SvgjsMarker1045)"></path></g><g id="SvgjsG1047"></g></svg>