<svg id="SvgjsSvg1006" width="864" height="137" xmlns="http://www.w3.org/2000/svg" version="1.1" xmlns:xlink="http://www.w3.org/1999/xlink" xmlns:svgjs="http://svgjs.com/svgjs"><defs id="SvgjsDefs1007"><pattern patternUnits="userSpaceOnUse" id="pattern_mark_0" width="300" height="300"><text x="150" y="100" fill="rgba(229,229,229,0.8)" font-size="18" transform="rotate(-45, 150, 150)" style="dominant-baseline: middle; text-anchor: middle;"></text></pattern><pattern patternUnits="userSpaceOnUse" id="pattern_mark_1" width="300" height="300"><text x="150" y="200" fill="rgba(229,229,229,0.8)" font-size="18" transform="rotate(-45, 150, 150)" style="dominant-baseline: middle; text-anchor: middle;"></text></pattern><marker id="SvgjsMarker1019" markerWidth="13" markerHeight="9" refX="9.5" refY="4.5" viewBox="0 0 13 9" orient="auto" markerUnits="userSpaceOnUse" stroke-dasharray="0,0"><path id="SvgjsPath1020" d="M0,0 L13,4.5 L0,9 L0,0" fill="#323232" stroke="#323232" stroke-width="1"></path></marker><marker id="SvgjsMarker1045" markerWidth="13" markerHeight="9" refX="9.5" refY="4.5" viewBox="0 0 13 9" orient="auto" markerUnits="userSpaceOnUse" stroke-dasharray="0,0"><path id="SvgjsPath1046" d="M0,0 L13,4.5 L0,9 L0,0" fill="#323232" stroke="#323232" stroke-width="1"></path></marker><marker id="SvgjsMarker1049" markerWidth="13" markerHeight="9" refX="9.5" refY="4.5" viewBox="0 0 13 9" orient="auto" markerUnits="userSpaceOnUse" stroke-dasharray="0,0"><path id="SvgjsPath1050" d="M0,0 L13,4.5 L0,9 L0,0" fill="#323232" stroke="#323232" stroke-width="1"></path></marker><marker id="SvgjsMarker1059" markerWidth="13" markerHeight="9" refX="9.5" refY="4.5" viewBox="0 0 13 9" orient="auto" markerUnits="userSpaceOnUse" stroke-dasharray="0,0"><path id="SvgjsPath1060" d="M0,0 L13,4.5 L0,9 L0,0" fill="#323232" stroke="#323232" stroke-width="1"></path></marker></defs><rect id="svgbackgroundid" width="864" height="137" fill="transparent"></rect><rect id="SvgjsRect1009" width="864" height="137" fill="url(#pattern_mark_0)"></rect><rect id="SvgjsRect1010" width="864" height="137" fill="url(#pattern_mark_1)"></rect><g id="SvgjsG1011" transform="translate(25,75)"><path id="SvgjsPath1012" d="M 0 0L 61 0L 61 20L 0 20Z" stroke="none" fill="none"></path><g id="SvgjsG1013"><text id="SvgjsText1014" font-family="&quot;Comic Sans MS&quot;" text-anchor="middle" font-size="13px" width="61px" fill="#323232" font-weight="700" align="middle" lineHeight="125%" anchor="middle" family="&quot;Comic Sans MS&quot;" size="13px" weight="700" font-style="" opacity="1" y="-0.625" transform="rotate(0)"><tspan id="SvgjsTspan1015" dy="16.25" x="30.5"><tspan id="SvgjsTspan1016" style="">SQL语句</tspan></tspan></text></g></g><g id="SvgjsG1017"><path id="SvgjsPath1018" d="M86.75 85L136.5 85L136.5 85L184.3 85" stroke="#323232" stroke-width="1.5" fill="none" marker-end="url(#SvgjsMarker1019)"></path></g><g id="SvgjsG1021" transform="translate(187,58)"><path id="SvgjsPath1022" d="M 0 4Q 0 0 4 0L 92 0Q 96 0 96 4L 96 50Q 96 54 92 54L 4 54Q 0 54 0 50Z" stroke="rgba(33,41,48,1)" stroke-width="1.5" fill-opacity="1" fill="#d4e6c8"></path><g id="SvgjsG1023"><text id="SvgjsText1024" font-family="&quot;Comic Sans MS&quot;" text-anchor="middle" font-size="13px" width="76px" fill="#323232" font-weight="400" align="middle" lineHeight="125%" anchor="middle" family="&quot;Comic Sans MS&quot;" size="13px" weight="400" font-style="" opacity="1" y="7.875" transform="rotate(0)"><tspan id="SvgjsTspan1025" dy="16.25" x="48"><tspan id="SvgjsTspan1026" style="">✔️语法分析</tspan></tspan><tspan id="SvgjsTspan1027" dy="16.25" x="48"><tspan id="SvgjsTspan1028" style="">✔️语义检查</tspan></tspan></text></g></g><g id="SvgjsG1029" transform="translate(384,58)"><path id="SvgjsPath1030" d="M 0 4Q 0 0 4 0L 92 0Q 96 0 96 4L 96 50Q 96 54 92 54L 4 54Q 0 54 0 50Z" stroke="rgba(33,41,48,1)" stroke-width="1.5" fill-opacity="1" fill="#d4e6c8"></path><g id="SvgjsG1031"><text id="SvgjsText1032" font-family="&quot;Comic Sans MS&quot;" text-anchor="middle" font-size="13px" width="76px" fill="#323232" font-weight="400" align="middle" lineHeight="125%" anchor="middle" family="&quot;Comic Sans MS&quot;" size="13px" weight="400" font-style="" opacity="1" y="7.875" transform="rotate(0)"><tspan id="SvgjsTspan1033" dy="16.25" x="48"><tspan id="SvgjsTspan1034" style="">✔️逻辑优化</tspan></tspan><tspan id="SvgjsTspan1035" dy="16.25" x="48"><tspan id="SvgjsTspan1036" style="">✔️物理优化</tspan></tspan></text></g></g><g id="SvgjsG1037" transform="translate(581,58)"><path id="SvgjsPath1038" d="M 0 4Q 0 0 4 0L 92 0Q 96 0 96 4L 96 50Q 96 54 92 54L 4 54Q 0 54 0 50Z" stroke="rgba(33,41,48,1)" stroke-width="1.5" fill-opacity="1" fill="#d4e6c8"></path><g id="SvgjsG1039"><text id="SvgjsText1040" font-family="&quot;Comic Sans MS&quot;" text-anchor="middle" font-size="13px" width="76px" fill="#323232" font-weight="400" align="middle" lineHeight="125%" anchor="middle" family="&quot;Comic Sans MS&quot;" size="13px" weight="400" font-style="" opacity="1" y="16.375" transform="rotate(0)"><tspan id="SvgjsTspan1041" dy="16.25" x="48"><tspan id="SvgjsTspan1042" style="">执行器</tspan></tspan></text></g></g><g id="SvgjsG1043"><path id="SvgjsPath1044" d="M283.75 85L333.5 85L333.5 85L381.3 85" stroke="#323232" stroke-width="1.5" fill="none" marker-end="url(#SvgjsMarker1045)"></path></g><g id="SvgjsG1047"><path id="SvgjsPath1048" d="M480.75 85L530.5 85L530.5 85L578.3 85" stroke="#323232" stroke-width="1.5" fill="none" marker-end="url(#SvgjsMarker1049)"></path></g><g id="SvgjsG1051" transform="translate(778,65)"><path id="SvgjsPath1052" d="M 0 0L 61 0L 61 40L 0 40Z" stroke="none" fill="none"></path><g id="SvgjsG1053"><text id="SvgjsText1054" font-family="&quot;Comic Sans MS&quot;" text-anchor="middle" font-size="13px" width="61px" fill="#323232" font-weight="700" align="middle" lineHeight="125%" anchor="middle" family="&quot;Comic Sans MS&quot;" size="13px" weight="700" font-style="" opacity="1" y="9.375" transform="rotate(0)"><tspan id="SvgjsTspan1055" dy="16.25" x="30.5"><tspan id="SvgjsTspan1056" style="">查询结果</tspan></tspan></text></g></g><g id="SvgjsG1057"><path id="SvgjsPath1058" d="M677.75 85L727.5 85L727.5 85L775.3 85" stroke="#323232" stroke-width="1.5" fill="none" marker-end="url(#SvgjsMarker1059)"></path></g><g id="SvgjsG1061" transform="translate(183,25)"><path id="SvgjsPath1062" d="M 0 0L 100 0L 100 40L 0 40Z" stroke="none" fill="none"></path><g id="SvgjsG1063"><text id="SvgjsText1064" font-family="&quot;Comic Sans MS&quot;" text-anchor="middle" font-size="13px" width="100px" fill="#323232" font-weight="400" align="middle" lineHeight="125%" anchor="middle" family="&quot;Comic Sans MS&quot;" size="13px" weight="400" font-style="" opacity="1" y="9.375" transform="rotate(0)"><tspan id="SvgjsTspan1065" dy="16.25" x="50"><tspan id="SvgjsTspan1066" style="">分析器</tspan></tspan></text></g></g><g id="SvgjsG1067" transform="translate(382,29)"><path id="SvgjsPath1068" d="M 0 0L 100 0L 100 40L 0 40Z" stroke="none" fill="none"></path><g id="SvgjsG1069"><text id="SvgjsText1070" font-family="&quot;Comic Sans MS&quot;" text-anchor="middle" font-size="13px" width="100px" fill="#323232" font-weight="400" align="middle" lineHeight="125%" anchor="middle" family="&quot;Comic Sans MS&quot;" size="13px" weight="400" font-style="" opacity="1" y="9.375" transform="rotate(0)"><tspan id="SvgjsTspan1071" dy="16.25" x="50"><tspan id="SvgjsTspan1072" style="">优化器</tspan></tspan></text></g></g><g id="SvgjsG1073" transform="translate(284,55)"><path id="SvgjsPath1074" d="M 0 0L 100 0L 100 40L 0 40Z" stroke="none" fill="none"></path><g id="SvgjsG1075"><text id="SvgjsText1076" font-family="&quot;Comic Sans MS&quot;" text-anchor="middle" font-size="13px" width="100px" fill="#323232" font-weight="400" align="middle" lineHeight="125%" anchor="middle" family="&quot;Comic Sans MS&quot;" size="13px" weight="400" font-style="" opacity="1" y="9.375" transform="rotate(0)"><tspan id="SvgjsTspan1077" dy="16.25" x="50"><tspan id="SvgjsTspan1078" style="">语法分析树</tspan></tspan></text></g></g><g id="SvgjsG1079" transform="translate(480,49)"><path id="SvgjsPath1080" d="M 0 0L 100 0L 100 40L 0 40Z" stroke="none" fill="none"></path><g id="SvgjsG1081"><text id="SvgjsText1082" font-family="&quot;Comic Sans MS&quot;" text-anchor="middle" font-size="13px" width="100px" fill="#323232" font-weight="400" align="middle" lineHeight="125%" anchor="middle" family="&quot;Comic Sans MS&quot;" size="13px" weight="400" font-style="" opacity="1" y="0.875" transform="rotate(0)"><tspan id="SvgjsTspan1083" dy="16.25" x="50"><tspan id="SvgjsTspan1084" style="">查询计划</tspan></tspan><tspan id="SvgjsTspan1085" dy="16.25" x="50"><tspan id="SvgjsTspan1086" style="">(查询树)</tspan></tspan></text></g></g></svg>