<svg id="SvgjsSvg1152" width="683" height="321" xmlns="http://www.w3.org/2000/svg" version="1.1" xmlns:xlink="http://www.w3.org/1999/xlink" xmlns:svgjs="http://svgjs.com/svgjs"><defs id="SvgjsDefs1153"><pattern patternUnits="userSpaceOnUse" id="pattern_mark_0" width="300" height="300"><text x="150" y="100" fill="rgba(229,229,229,0.8)" font-size="18" transform="rotate(-45, 150, 150)" style="dominant-baseline: middle; text-anchor: middle;"></text></pattern><pattern patternUnits="userSpaceOnUse" id="pattern_mark_1" width="300" height="300"><text x="150" y="200" fill="rgba(229,229,229,0.8)" font-size="18" transform="rotate(-45, 150, 150)" style="dominant-baseline: middle; text-anchor: middle;"></text></pattern><marker id="SvgjsMarker1179" markerWidth="13" markerHeight="9" refX="9.5" refY="4.5" viewBox="0 0 13 9" orient="auto" markerUnits="userSpaceOnUse" stroke-dasharray="0,0"><path id="SvgjsPath1180" d="M0,0 L13,4.5 L0,9 L0,0" fill="#323232" stroke="#323232" stroke-width="1"></path></marker><marker id="SvgjsMarker1189" markerWidth="13" markerHeight="9" refX="9.5" refY="4.5" viewBox="0 0 13 9" orient="auto" markerUnits="userSpaceOnUse" stroke-dasharray="0,0"><path id="SvgjsPath1190" d="M0,0 L13,4.5 L0,9 L0,0" fill="#323232" stroke="#323232" stroke-width="1"></path></marker><marker id="SvgjsMarker1235" markerWidth="13" markerHeight="9" refX="9.5" refY="4.5" viewBox="0 0 13 9" orient="auto" markerUnits="userSpaceOnUse" stroke-dasharray="0,0"><path id="SvgjsPath1236" d="M0,0 L13,4.5 L0,9 L0,0" fill="#323232" stroke="#323232" stroke-width="1"></path></marker><marker id="SvgjsMarker1243" markerWidth="13" markerHeight="9" refX="9.5" refY="4.5" viewBox="0 0 13 9" orient="auto" markerUnits="userSpaceOnUse" stroke-dasharray="0,0"><path id="SvgjsPath1244" d="M0,0 L13,4.5 L0,9 L0,0" fill="#323232" stroke="#323232" stroke-width="1"></path></marker><marker id="SvgjsMarker1251" markerWidth="13" markerHeight="9" refX="9.5" refY="4.5" viewBox="0 0 13 9" orient="auto" markerUnits="userSpaceOnUse" stroke-dasharray="0,0"><path id="SvgjsPath1252" d="M0,0 L13,4.5 L0,9 L0,0" fill="#323232" stroke="#323232" stroke-width="1"></path></marker><marker id="SvgjsMarker1255" markerWidth="13" markerHeight="9" refX="9.5" refY="4.5" viewBox="0 0 13 9" orient="auto" markerUnits="userSpaceOnUse" stroke-dasharray="0,0"><path id="SvgjsPath1256" d="M0,0 L13,4.5 L0,9 L0,0" fill="#323232" stroke="#323232" stroke-width="1"></path></marker><marker id="SvgjsMarker1263" markerWidth="13" markerHeight="9" refX="9.5" refY="4.5" viewBox="0 0 13 9" orient="auto" markerUnits="userSpaceOnUse" stroke-dasharray="0,0"><path id="SvgjsPath1264" d="M0,0 L13,4.5 L0,9 L0,0" fill="#323232" stroke="#323232" stroke-width="1"></path></marker><marker id="SvgjsMarker1267" markerWidth="13" markerHeight="9" refX="9.5" refY="4.5" viewBox="0 0 13 9" orient="auto" markerUnits="userSpaceOnUse" stroke-dasharray="0,0"><path id="SvgjsPath1268" d="M0,0 L13,4.5 L0,9 L0,0" fill="#323232" stroke="#323232" stroke-width="1"></path></marker><marker id="SvgjsMarker1275" markerWidth="13" markerHeight="9" refX="9.5" refY="4.5" viewBox="0 0 13 9" orient="auto" markerUnits="userSpaceOnUse" stroke-dasharray="0,0"><path id="SvgjsPath1276" d="M0,0 L13,4.5 L0,9 L0,0" fill="#323232" stroke="#323232" stroke-width="1"></path></marker><marker id="SvgjsMarker1283" markerWidth="13" markerHeight="9" refX="9.5" refY="4.5" viewBox="0 0 13 9" orient="auto" markerUnits="userSpaceOnUse" stroke-dasharray="0,0"><path id="SvgjsPath1284" d="M0,0 L13,4.5 L0,9 L0,0" fill="#323232" stroke="#323232" stroke-width="1"></path></marker><marker id="SvgjsMarker1291" markerWidth="13" markerHeight="9" refX="9.5" refY="4.5" viewBox="0 0 13 9" orient="auto" markerUnits="userSpaceOnUse" stroke-dasharray="0,0"><path id="SvgjsPath1292" d="M0,0 L13,4.5 L0,9 L0,0" fill="#323232" stroke="#323232" stroke-width="1"></path></marker><marker id="SvgjsMarker1295" markerWidth="13" markerHeight="9" refX="9.5" refY="4.5" viewBox="0 0 13 9" orient="auto" markerUnits="userSpaceOnUse" stroke-dasharray="0,0"><path id="SvgjsPath1296" d="M0,0 L13,4.5 L0,9 L0,0" fill="#323232" stroke="#323232" stroke-width="1"></path></marker></defs><rect id="svgbackgroundid" width="683" height="321" fill="transparent"></rect><rect id="SvgjsRect1155" width="683" height="321" fill="url(#pattern_mark_0)"></rect><rect id="SvgjsRect1156" width="683" height="321" fill="url(#pattern_mark_1)"></rect><g id="SvgjsG1157" transform="translate(247.5,25)"><path id="SvgjsPath1158" d="M 0 4Q 0 0 4 0L 247 0Q 251 0 251 4L 251 267Q 251 271 247 271L 4 271Q 0 271 0 267Z" stroke="rgba(33,41,48,1)" stroke-width="1.5" fill-opacity="1" fill="#ffffff"></path><g id="SvgjsG1159"><text id="SvgjsText1160" font-family="&quot;Microsoft YaHei&quot;, 微软雅黑, Arial" text-anchor="end" font-size="13px" width="231px" fill="#a6a6a6" font-weight="700" align="bottom" lineHeight="125%" anchor="end" family="&quot;Microsoft YaHei&quot;, 微软雅黑, Arial" size="13px" weight="700" font-style="" opacity="1" y="252.375" transform="rotate(0)"><tspan id="SvgjsTspan1161" dy="16.25" x="241"><tspan id="SvgjsTspan1162" style="">Eden空间</tspan></tspan></text></g></g><g id="SvgjsG1163" transform="translate(90.5,72)"><path id="SvgjsPath1164" d="M 0 0L 90 0L 90 30L 0 30Z" stroke="rgba(33,41,48,1)" stroke-width="1.5" fill-opacity="1" fill="#93cbff"></path><g id="SvgjsG1165"><text id="SvgjsText1166" font-family="&quot;Microsoft YaHei&quot;, 微软雅黑, Arial" text-anchor="middle" font-size="13px" width="70px" fill="#323232" font-weight="700" align="middle" lineHeight="125%" anchor="middle" family="&quot;Microsoft YaHei&quot;, 微软雅黑, Arial" size="13px" weight="700" font-style="" opacity="1" y="4.375" transform="rotate(0)"><tspan id="SvgjsTspan1167" dy="16.25" x="45"><tspan id="SvgjsTspan1168" style="">Byte Code</tspan></tspan></text></g></g><g id="SvgjsG1169" transform="translate(60.5,152)"><path id="SvgjsPath1170" d="M 0 0L 150 0L 150 40L 0 40Z" stroke="rgba(33,41,48,1)" stroke-width="1.5" fill-opacity="1" fill="#93cbff"></path><g id="SvgjsG1171"><text id="SvgjsText1172" font-family="&quot;Microsoft YaHei&quot;, 微软雅黑, Arial" text-anchor="middle" font-size="13px" width="130px" fill="#323232" font-weight="700" align="middle" lineHeight="125%" anchor="middle" family="&quot;Microsoft YaHei&quot;, 微软雅黑, Arial" size="13px" weight="700" font-style="" opacity="1" y="0.875" transform="rotate(0)"><tspan id="SvgjsTspan1173" dy="16.25" x="75"><tspan id="SvgjsTspan1174" style="">类加载步骤</tspan></tspan><tspan id="SvgjsTspan1175" dy="16.25" x="75"><tspan id="SvgjsTspan1176" style="">(加载、解析、初始化)</tspan></tspan></text></g></g><g id="SvgjsG1177"><path id="SvgjsPath1178" d="M135.5 102.75L135.5 127L135.5 127L135.5 149.3" stroke="#323232" stroke-width="1.5" fill="none" marker-end="url(#SvgjsMarker1179)"></path></g><g id="SvgjsG1181" transform="translate(85.5,242)"><path id="SvgjsPath1182" d="M 0 25L 50 0L 100 25L 50 50L 0 25Z" stroke="rgba(33,41,48,1)" stroke-width="1.5" fill-opacity="1" fill="#f7cc98"></path><g id="SvgjsG1183"><text id="SvgjsText1184" font-family="&quot;Microsoft YaHei&quot;, 微软雅黑, Arial" text-anchor="middle" font-size="13px" width="80px" fill="#323232" font-weight="700" align="middle" lineHeight="125%" anchor="middle" family="&quot;Microsoft YaHei&quot;, 微软雅黑, Arial" size="13px" weight="700" font-style="" opacity="1" y="14.375" transform="rotate(0)"><tspan id="SvgjsTspan1185" dy="16.25" x="50"><tspan id="SvgjsTspan1186" style="">检测是否加载</tspan></tspan></text></g></g><g id="SvgjsG1187"><path id="SvgjsPath1188" d="M135.5 192.75L135.5 217L135.5 217L135.5 239.3" stroke="#323232" stroke-width="1.5" fill="none" marker-end="url(#SvgjsMarker1189)"></path></g><g id="SvgjsG1191" transform="translate(275.5,67)"><path id="SvgjsPath1192" d="M 0 4Q 0 0 4 0L 86 0Q 90 0 90 4L 90 36Q 90 40 86 40L 4 40Q 0 40 0 36Z" stroke="rgba(33,41,48,1)" stroke-width="1.5" fill-opacity="1" fill="#f6a5cb"></path><g id="SvgjsG1193"><text id="SvgjsText1194" font-family="&quot;Microsoft YaHei&quot;, 微软雅黑, Arial" text-anchor="middle" font-size="13px" width="70px" fill="#323232" font-weight="700" align="middle" lineHeight="125%" anchor="middle" family="&quot;Microsoft YaHei&quot;, 微软雅黑, Arial" size="13px" weight="700" font-style="" opacity="1" y="9.375" transform="rotate(0)"><tspan id="SvgjsTspan1195" dy="16.25" x="45"><tspan id="SvgjsTspan1196" style="">Eden分配</tspan></tspan></text></g></g><g id="SvgjsG1197" transform="translate(280.5,152)"><path id="SvgjsPath1198" d="M 0 20L 40 0L 80 20L 40 40L 0 20Z" stroke="rgba(33,41,48,1)" stroke-width="1.5" fill-opacity="1" fill="#f7cc98"></path><g id="SvgjsG1199"><text id="SvgjsText1200" font-family="&quot;Microsoft YaHei&quot;, 微软雅黑, Arial" text-anchor="middle" font-size="13px" width="60px" fill="#323232" font-weight="700" align="middle" lineHeight="125%" anchor="middle" family="&quot;Microsoft YaHei&quot;, 微软雅黑, Arial" size="13px" weight="700" font-style="" opacity="1" y="9.375" transform="rotate(0)"><tspan id="SvgjsTspan1201" dy="16.25" x="40"><tspan id="SvgjsTspan1202" style="">结果</tspan></tspan></text></g></g><g id="SvgjsG1203" transform="translate(275.5,247)"><path id="SvgjsPath1204" d="M 0 4Q 0 0 4 0L 86 0Q 90 0 90 4L 90 36Q 90 40 86 40L 4 40Q 0 40 0 36Z" stroke="rgba(33,41,48,1)" stroke-width="1.5" fill-opacity="1" fill="#f8a8fe"></path><g id="SvgjsG1205"><text id="SvgjsText1206" font-family="&quot;Microsoft YaHei&quot;, 微软雅黑, Arial" text-anchor="middle" font-size="13px" width="70px" fill="#323232" font-weight="700" align="middle" lineHeight="125%" anchor="middle" family="&quot;Microsoft YaHei&quot;, 微软雅黑, Arial" size="13px" weight="700" font-style="" opacity="1" y="9.375" transform="rotate(0)"><tspan id="SvgjsTspan1207" dy="16.25" x="45"><tspan id="SvgjsTspan1208" style="">TLAB分配</tspan></tspan></text></g></g><g id="SvgjsG1209" transform="translate(390.5,67)"><path id="SvgjsPath1210" d="M 0 20L 40 0L 80 20L 40 40L 0 20Z" stroke="rgba(33,41,48,1)" stroke-width="1.5" fill-opacity="1" fill="#f7cc98"></path><g id="SvgjsG1211"><text id="SvgjsText1212" font-family="&quot;Microsoft YaHei&quot;, 微软雅黑, Arial" text-anchor="middle" font-size="13px" width="60px" fill="#323232" font-weight="700" align="middle" lineHeight="125%" anchor="middle" family="&quot;Microsoft YaHei&quot;, 微软雅黑, Arial" size="13px" weight="700" font-style="" opacity="1" y="9.375" transform="rotate(0)"><tspan id="SvgjsTspan1213" dy="16.25" x="40"><tspan id="SvgjsTspan1214" style="">结果</tspan></tspan></text></g></g><g id="SvgjsG1215" transform="translate(550.5,72)"><path id="SvgjsPath1216" d="M 0 0L 90 0L 90 30L 0 30Z" stroke="rgba(33,41,48,1)" stroke-width="1.5" fill-opacity="1" fill="#93cbff"></path><g id="SvgjsG1217"><text id="SvgjsText1218" font-family="&quot;Microsoft YaHei&quot;, 微软雅黑, Arial" text-anchor="middle" font-size="13px" width="70px" fill="#323232" font-weight="700" align="middle" lineHeight="125%" anchor="middle" family="&quot;Microsoft YaHei&quot;, 微软雅黑, Arial" size="13px" weight="700" font-style="" opacity="1" y="4.375" transform="rotate(0)"><tspan id="SvgjsTspan1219" dy="16.25" x="45"><tspan id="SvgjsTspan1220" style="">对象实例化</tspan></tspan></text></g></g><g id="SvgjsG1221" transform="translate(533,157)"><path id="SvgjsPath1222" d="M 0 0L 125 0L 125 30L 0 30Z" stroke="rgba(33,41,48,1)" stroke-width="1.5" fill-opacity="1" fill="#93cbff"></path><g id="SvgjsG1223"><text id="SvgjsText1224" font-family="&quot;Microsoft YaHei&quot;, 微软雅黑, Arial" text-anchor="middle" font-size="13px" width="105px" fill="#323232" font-weight="700" align="middle" lineHeight="125%" anchor="middle" family="&quot;Microsoft YaHei&quot;, 微软雅黑, Arial" size="13px" weight="700" font-style="" opacity="1" y="4.375" transform="rotate(0)"><tspan id="SvgjsTspan1225" dy="16.25" x="62.5"><tspan id="SvgjsTspan1226" style="">将Reference入栈</tspan></tspan></text></g></g><g id="SvgjsG1227" transform="translate(543,252)"><path id="SvgjsPath1228" d="M 0 0L 105 0L 105 30L 0 30Z" stroke="rgba(33,41,48,1)" stroke-width="1.5" fill-opacity="1" fill="#93cbff"></path><g id="SvgjsG1229"><text id="SvgjsText1230" font-family="&quot;Microsoft YaHei&quot;, 微软雅黑, Arial" text-anchor="middle" font-size="13px" width="85px" fill="#323232" font-weight="700" align="middle" lineHeight="125%" anchor="middle" family="&quot;Microsoft YaHei&quot;, 微软雅黑, Arial" size="13px" weight="700" font-style="" opacity="1" y="4.375" transform="rotate(0)"><tspan id="SvgjsTspan1231" dy="16.25" x="52.5"><tspan id="SvgjsTspan1232" style="">更新PC计数器</tspan></tspan></text></g></g><g id="SvgjsG1233"><path id="SvgjsPath1234" d="M84.75 267L30.5 267L30.5 172L57.8 172" stroke="#323232" stroke-width="1.5" fill="none" marker-end="url(#SvgjsMarker1235)"></path><rect id="SvgjsRect1237" width="9" height="18" x="26" y="212.20499999999998" fill="#ffffff"></rect><text id="SvgjsText1238" font-family="&quot;Microsoft YaHei&quot;, 微软雅黑, Arial" text-anchor="middle" font-size="13px" width="9px" fill="#323232" font-weight="700" align="top" lineHeight="16px" anchor="middle" family="&quot;Microsoft YaHei&quot;, 微软雅黑, Arial" size="13px" weight="700" font-style="" opacity="1" y="209.57999999999998" transform="rotate(0)"><tspan id="SvgjsTspan1239" dy="16.25" x="30.5"><tspan id="SvgjsTspan1240" style="">N</tspan></tspan></text></g><g id="SvgjsG1241"><path id="SvgjsPath1242" d="M186.25 267L230.5 267L230.5 267L272.8 267" stroke="#323232" stroke-width="1.5" fill="none" marker-end="url(#SvgjsMarker1243)"></path><rect id="SvgjsRect1245" width="9" height="18" x="223.1016666666667" y="258" fill="#ffffff"></rect><text id="SvgjsText1246" font-family="&quot;Microsoft YaHei&quot;, 微软雅黑, Arial" text-anchor="middle" font-size="13px" width="9px" fill="#323232" font-weight="700" align="top" lineHeight="16px" anchor="middle" family="&quot;Microsoft YaHei&quot;, 微软雅黑, Arial" size="13px" weight="700" font-style="" opacity="1" y="255.375" transform="rotate(0)"><tspan id="SvgjsTspan1247" dy="16.25" x="227.6016666666667"><tspan id="SvgjsTspan1248" style="">Y</tspan></tspan></text></g><g id="SvgjsG1249"><path id="SvgjsPath1250" d="M320.5 246.25L320.5 219.5L320.5 219.5L320.5 194.7" stroke="#323232" stroke-width="1.5" fill="none" marker-end="url(#SvgjsMarker1251)"></path></g><g id="SvgjsG1253"><path id="SvgjsPath1254" d="M320.5 151.25L320.5 129.5L320.5 129.5L320.5 109.7" stroke="#323232" stroke-width="1.5" fill="none" marker-end="url(#SvgjsMarker1255)"></path><rect id="SvgjsRect1257" width="9" height="18" x="316" y="123.78333333333333" fill="#ffffff"></rect><text id="SvgjsText1258" font-family="&quot;Microsoft YaHei&quot;, 微软雅黑, Arial" text-anchor="middle" font-size="13px" width="9px" fill="#323232" font-weight="700" align="top" lineHeight="16px" anchor="middle" family="&quot;Microsoft YaHei&quot;, 微软雅黑, Arial" size="13px" weight="700" font-style="" opacity="1" y="121.15833333333333" transform="rotate(0)"><tspan id="SvgjsTspan1259" dy="16.25" x="320.5"><tspan id="SvgjsTspan1260" style="">N</tspan></tspan></text></g><g id="SvgjsG1261"><path id="SvgjsPath1262" d="M366.25 87L378 87L378 87L387.8 87" stroke="#323232" stroke-width="1.5" fill="none" marker-end="url(#SvgjsMarker1263)"></path></g><g id="SvgjsG1265"><path id="SvgjsPath1266" d="M430.5 66.25L430.5 37L320.5 37L320.5 64.3" stroke="#323232" stroke-width="1.5" fill="none" marker-end="url(#SvgjsMarker1267)"></path><rect id="SvgjsRect1269" width="9" height="18" x="370.0155882352941" y="28" fill="#ffffff"></rect><text id="SvgjsText1270" font-family="&quot;Microsoft YaHei&quot;, 微软雅黑, Arial" text-anchor="middle" font-size="13px" width="9px" fill="#323232" font-weight="700" align="top" lineHeight="16px" anchor="middle" family="&quot;Microsoft YaHei&quot;, 微软雅黑, Arial" size="13px" weight="700" font-style="" opacity="1" y="25.375" transform="rotate(0)"><tspan id="SvgjsTspan1271" dy="16.25" x="374.5155882352941"><tspan id="SvgjsTspan1272" style="">N</tspan></tspan></text></g><g id="SvgjsG1273"><path id="SvgjsPath1274" d="M471.25 87L510.5 87L510.5 87L547.8 87" stroke="#323232" stroke-width="1.5" fill="none" marker-end="url(#SvgjsMarker1275)"></path><rect id="SvgjsRect1277" width="9" height="18" x="484.93062499999996" y="77.99999999999999" fill="#ffffff"></rect><text id="SvgjsText1278" font-family="&quot;Microsoft YaHei&quot;, 微软雅黑, Arial" text-anchor="middle" font-size="13px" width="9px" fill="#323232" font-weight="700" align="top" lineHeight="16px" anchor="middle" family="&quot;Microsoft YaHei&quot;, 微软雅黑, Arial" size="13px" weight="700" font-style="" opacity="1" y="75.37499999999999" transform="rotate(0)"><tspan id="SvgjsTspan1279" dy="16.25" x="489.43062499999996"><tspan id="SvgjsTspan1280" style="">Y</tspan></tspan></text></g><g id="SvgjsG1281"><path id="SvgjsPath1282" d="M361.25 172L504.5 172L504.5 87L547.8 87" stroke="#323232" stroke-width="1.5" fill="none" marker-end="url(#SvgjsMarker1283)"></path><rect id="SvgjsRect1285" width="9" height="18" x="425.8718181818182" y="163" fill="#ffffff"></rect><text id="SvgjsText1286" font-family="&quot;Microsoft YaHei&quot;, 微软雅黑, Arial" text-anchor="middle" font-size="13px" width="9px" fill="#323232" font-weight="700" align="top" lineHeight="16px" anchor="middle" family="&quot;Microsoft YaHei&quot;, 微软雅黑, Arial" size="13px" weight="700" font-style="" opacity="1" y="160.375" transform="rotate(0)"><tspan id="SvgjsTspan1287" dy="16.25" x="430.3718181818182"><tspan id="SvgjsTspan1288" style="">Y</tspan></tspan></text></g><g id="SvgjsG1289"><path id="SvgjsPath1290" d="M595.5 102.75L595.5 129.5L595.5 129.5L595.5 154.3" stroke="#323232" stroke-width="1.5" fill="none" marker-end="url(#SvgjsMarker1291)"></path></g><g id="SvgjsG1293"><path id="SvgjsPath1294" d="M595.5 187.75L595.5 219.5L595.5 219.5L595.5 249.3" stroke="#323232" stroke-width="1.5" fill="none" marker-end="url(#SvgjsMarker1295)"></path></g><g id="SvgjsG1297"></g></svg>