<svg id="SvgjsSvg1006" width="786" height="286" xmlns="http://www.w3.org/2000/svg" version="1.1" xmlns:xlink="http://www.w3.org/1999/xlink" xmlns:svgjs="http://svgjs.com/svgjs"><defs id="SvgjsDefs1007"><pattern patternUnits="userSpaceOnUse" id="pattern_mark_0" width="300" height="300"><text x="150" y="100" fill="rgba(229,229,229,0.8)" font-size="18" transform="rotate(-45, 150, 150)" style="dominant-baseline: middle; text-anchor: middle;"></text></pattern><pattern patternUnits="userSpaceOnUse" id="pattern_mark_1" width="300" height="300"><text x="150" y="200" fill="rgba(229,229,229,0.8)" font-size="18" transform="rotate(-45, 150, 150)" style="dominant-baseline: middle; text-anchor: middle;"></text></pattern><marker id="SvgjsMarker1055" markerWidth="13" markerHeight="9" refX="9.5" refY="4.5" viewBox="0 0 13 9" orient="auto" markerUnits="userSpaceOnUse" stroke-dasharray="0,0"><path id="SvgjsPath1056" d="M0,0 L13,4.5 L0,9 L0,0" fill="#323232" stroke="#323232" stroke-width="1"></path></marker><marker id="SvgjsMarker1059" markerWidth="13" markerHeight="9" refX="9.5" refY="4.5" viewBox="0 0 13 9" orient="auto" markerUnits="userSpaceOnUse" stroke-dasharray="0,0"><path id="SvgjsPath1060" d="M0,0 L13,4.5 L0,9 L0,0" fill="#323232" stroke="#323232" stroke-width="1"></path></marker><marker id="SvgjsMarker1063" markerWidth="13" markerHeight="9" refX="9.5" refY="4.5" viewBox="0 0 13 9" orient="auto" markerUnits="userSpaceOnUse" stroke-dasharray="0,0"><path id="SvgjsPath1064" d="M0,0 L13,4.5 L0,9 L0,0" fill="#323232" stroke="#323232" stroke-width="1"></path></marker><marker id="SvgjsMarker1067" markerWidth="13" markerHeight="9" refX="9.5" refY="4.5" viewBox="0 0 13 9" orient="auto" markerUnits="userSpaceOnUse" stroke-dasharray="0,0"><path id="SvgjsPath1068" d="M0,0 L13,4.5 L0,9 L0,0" fill="#323232" stroke="#323232" stroke-width="1"></path></marker><marker id="SvgjsMarker1071" markerWidth="13" markerHeight="9" refX="9.5" refY="4.5" viewBox="0 0 13 9" orient="auto" markerUnits="userSpaceOnUse" stroke-dasharray="0,0"><path id="SvgjsPath1072" d="M0,0 L13,4.5 L0,9 L0,0" fill="#323232" stroke="#323232" stroke-width="1"></path></marker></defs><rect id="svgbackgroundid" width="786" height="286" fill="transparent"></rect><rect id="SvgjsRect1009" width="786" height="286" fill="url(#pattern_mark_0)"></rect><rect id="SvgjsRect1010" width="786" height="286" fill="url(#pattern_mark_1)"></rect><g id="SvgjsG1011" transform="translate(252,25)"><path id="SvgjsPath1012" d="M 0 4Q 0 0 4 0L 278 0Q 282 0 282 4L 282 92Q 282 96 278 96L 4 96Q 0 96 0 92Z" stroke="rgba(33,41,48,1)" stroke-width="1.5" fill-opacity="1" fill="#eff6d1"></path><g id="SvgjsG1013"><text id="SvgjsText1014" font-family="&quot;Microsoft YaHei&quot;, 微软雅黑, Arial" text-anchor="middle" font-size="13px" width="262px" fill="#323232" font-weight="400" align="middle" lineHeight="125%" anchor="middle" family="&quot;Microsoft YaHei&quot;, 微软雅黑, Arial" size="13px" weight="400" font-style="" opacity="1" y="4.875" transform="rotate(0)"><tspan id="SvgjsTspan1015" dy="16.25" x="141"><tspan id="SvgjsTspan1016" style="">InnoDB</tspan></tspan><tspan id="SvgjsTspan1017" dy="16.25" x="141"><tspan id="SvgjsTspan1018" style=""> </tspan></tspan><tspan id="SvgjsTspan1019" dy="16.25" x="141"><tspan id="SvgjsTspan1020" style=""> </tspan></tspan><tspan id="SvgjsTspan1021" dy="16.25" x="141"><tspan id="SvgjsTspan1022" style=""> </tspan></tspan><tspan id="SvgjsTspan1023" dy="16.25" x="141"><tspan id="SvgjsTspan1024" style=""> </tspan></tspan></text></g></g><g id="SvgjsG1025" transform="translate(25,65)"><path id="SvgjsPath1026" d="M 0 0L 114 0L 130 16L 130 40L 0 40L 0 0Z" stroke="none" fill-opacity="1" fill="#fff7bc"></path><path id="SvgjsPath1027" d="M 114 0L 114 16L 130 16Z" stroke="none" fill-opacity="1" fill="#e4d089"></path><path id="SvgjsPath1028" d="M 0 0L 114 0L 130 16L 130 40L 0 40L 0 0Z" stroke="none" fill="none"></path><g id="SvgjsG1029"><text id="SvgjsText1030" font-family="&quot;Microsoft YaHei&quot;, 微软雅黑, Arial" text-anchor="middle" font-size="13px" width="110px" fill="#323232" font-weight="400" align="middle" lineHeight="125%" anchor="middle" family="&quot;Microsoft YaHei&quot;, 微软雅黑, Arial" size="13px" weight="400" font-style="" opacity="1" y="9.375" transform="rotate(0)"><tspan id="SvgjsTspan1031" dy="16.25" x="65"><tspan id="SvgjsTspan1032" style="">1. 查询数据</tspan></tspan></text></g></g><g id="SvgjsG1033" transform="translate(631,65)"><path id="SvgjsPath1034" d="M 0 0L 114 0L 130 16L 130 40L 0 40L 0 0Z" stroke="none" fill-opacity="1" fill="#fff7bc"></path><path id="SvgjsPath1035" d="M 114 0L 114 16L 130 16Z" stroke="none" fill-opacity="1" fill="#e4d089"></path><path id="SvgjsPath1036" d="M 0 0L 114 0L 130 16L 130 40L 0 40L 0 0Z" stroke="none" fill="none"></path><g id="SvgjsG1037"><text id="SvgjsText1038" font-family="&quot;Microsoft YaHei&quot;, 微软雅黑, Arial" text-anchor="middle" font-size="13px" width="110px" fill="#323232" font-weight="400" align="middle" lineHeight="125%" anchor="middle" family="&quot;Microsoft YaHei&quot;, 微软雅黑, Arial" size="13px" weight="400" font-style="" opacity="1" y="9.375" transform="rotate(0)"><tspan id="SvgjsTspan1039" dy="16.25" x="65"><tspan id="SvgjsTspan1040" style="">2. 更新数据</tspan></tspan></text></g></g><g id="SvgjsG1041" transform="translate(303,65)"><path id="SvgjsPath1042" d="M 0 4Q 0 0 4 0L 176 0Q 180 0 180 4L 180 36Q 180 40 176 40L 4 40Q 0 40 0 36Z" stroke="rgba(33,41,48,1)" stroke-width="1.5" fill-opacity="1" fill="#ffffff"></path><g id="SvgjsG1043"><text id="SvgjsText1044" font-family="&quot;Microsoft YaHei&quot;, 微软雅黑, Arial" text-anchor="middle" font-size="13px" width="160px" fill="#323232" font-weight="400" align="middle" lineHeight="125%" anchor="middle" family="&quot;Microsoft YaHei&quot;, 微软雅黑, Arial" size="13px" weight="400" font-style="" opacity="1" y="9.375" transform="rotate(0)"><tspan id="SvgjsTspan1045" dy="16.25" x="90"><tspan id="SvgjsTspan1046" style="">Buffer Pool</tspan></tspan></text></g></g><g id="SvgjsG1047" transform="translate(252,221)"><path id="SvgjsPath1048" d="M 0 4Q 0 0 4 0L 278 0Q 282 0 282 4L 282 36Q 282 40 278 40L 4 40Q 0 40 0 36Z" stroke="rgba(33,41,48,1)" stroke-width="1.5" fill-opacity="1" fill="#e0fbff"></path><g id="SvgjsG1049"><text id="SvgjsText1050" font-family="&quot;Microsoft YaHei&quot;, 微软雅黑, Arial" text-anchor="middle" font-size="13px" width="262px" fill="#323232" font-weight="400" align="middle" lineHeight="125%" anchor="middle" family="&quot;Microsoft YaHei&quot;, 微软雅黑, Arial" size="13px" weight="400" font-style="" opacity="1" y="9.375" transform="rotate(0)"><tspan id="SvgjsTspan1051" dy="16.25" x="141"><tspan id="SvgjsTspan1052" style="">磁盘</tspan></tspan></text></g></g><g id="SvgjsG1053"><path id="SvgjsPath1054" d="M155 85L229 85L229 85L300.3 85" stroke="#323232" stroke-width="1.5" fill="none" marker-end="url(#SvgjsMarker1055)"></path></g><g id="SvgjsG1057"><path id="SvgjsPath1058" d="M631 85L557 85L557 85L485.70000000000005 85" stroke="#323232" stroke-width="1.5" fill="none" marker-end="url(#SvgjsMarker1059)"></path></g><g id="SvgjsG1061"><path id="SvgjsPath1062" d="M346 220.25L346 163L346 163L346 107.69999999999999" stroke="#323232" stroke-width="1.5" fill="none" marker-end="url(#SvgjsMarker1063)"></path></g><g id="SvgjsG1065"><path id="SvgjsPath1066" d="M454 220.25L454 163L454 163L454 107.69999999999999" stroke="#323232" stroke-width="1.5" fill="none" marker-end="url(#SvgjsMarker1067)"></path></g><g id="SvgjsG1069"><path id="SvgjsPath1070" d="M474 105.75L474 112L587.6363636363636 112L587.6363636363636 241L536.7 241" stroke="#323232" stroke-width="1.5" fill="none" marker-end="url(#SvgjsMarker1071)"></path></g><g id="SvgjsG1073" transform="translate(253,127.5)"><path id="SvgjsPath1074" d="M 0 0L 100 0L 100 81L 0 81Z" stroke="none" fill="none"></path><g id="SvgjsG1075"><text id="SvgjsText1076" font-family="&quot;Microsoft YaHei&quot;, 微软雅黑, Arial" text-anchor="start" font-size="13px" width="100px" fill="#323232" font-weight="400" align="middle" lineHeight="125%" anchor="start" family="&quot;Microsoft YaHei&quot;, 微软雅黑, Arial" size="13px" weight="400" font-style="" opacity="1" y="-2.625" transform="rotate(0)"><tspan id="SvgjsTspan1077" dy="16.25" x="0"><tspan id="SvgjsTspan1078" style="">1.1 如果不存在</tspan></tspan><tspan id="SvgjsTspan1079" dy="16.25" x="0"><tspan id="SvgjsTspan1080" style="">则从磁盘获取</tspan></tspan><tspan id="SvgjsTspan1081" dy="16.25" x="0"><tspan id="SvgjsTspan1082" style=""> </tspan></tspan><tspan id="SvgjsTspan1083" dy="16.25" x="0"><tspan id="SvgjsTspan1084" style="">1.2 将其加载到</tspan></tspan><tspan id="SvgjsTspan1085" dy="16.25" x="0"><tspan id="SvgjsTspan1086" style="">Buffer Pool中</tspan></tspan></text></g></g><g id="SvgjsG1087" transform="translate(464,127.5)"><path id="SvgjsPath1088" d="M 0 0L 117.27272727272725 0L 117.27272727272725 81L 0 81Z" stroke="none" fill="none"></path><g id="SvgjsG1089"><text id="SvgjsText1090" font-family="&quot;Microsoft YaHei&quot;, 微软雅黑, Arial" text-anchor="start" font-size="13px" width="118px" fill="#323232" font-weight="400" align="middle" lineHeight="125%" anchor="start" family="&quot;Microsoft YaHei&quot;, 微软雅黑, Arial" size="13px" weight="400" font-style="" opacity="1" y="-2.625" transform="rotate(0)"><tspan id="SvgjsTspan1091" dy="16.25" x="0"><tspan id="SvgjsTspan1092" style="">2.1 不存在则从磁盘</tspan></tspan><tspan id="SvgjsTspan1093" dy="16.25" x="0"><tspan id="SvgjsTspan1094" style="">加载到Buffer Pool</tspan></tspan><tspan id="SvgjsTspan1095" dy="16.25" x="0"><tspan id="SvgjsTspan1096" style=""> </tspan></tspan><tspan id="SvgjsTspan1097" dy="16.25" x="0"><tspan id="SvgjsTspan1098" style="">2.2 修改Buffer Pool</tspan></tspan><tspan id="SvgjsTspan1099" dy="16.25" x="0"><tspan id="SvgjsTspan1100" style="">的数据</tspan></tspan></text></g></g><g id="SvgjsG1101" transform="translate(578.5454545454545,154.36363636363637)"><path id="SvgjsPath1102" d="M 0 0L 100 0L 100 40L 0 40Z" stroke="none" fill="none"></path><g id="SvgjsG1103"><text id="SvgjsText1104" font-family="&quot;Microsoft YaHei&quot;, 微软雅黑, Arial" text-anchor="middle" font-size="13px" width="100px" fill="#323232" font-weight="400" align="middle" lineHeight="125%" anchor="middle" family="&quot;Microsoft YaHei&quot;, 微软雅黑, Arial" size="13px" weight="400" font-style="" opacity="1" y="9.375" transform="rotate(0)"><tspan id="SvgjsTspan1105" dy="16.25" x="50"><tspan id="SvgjsTspan1106" style="">定期刷入磁盘</tspan></tspan></text></g></g><g id="SvgjsG1107"></g></svg>