<svg id="SvgjsSvg1006" width="729" height="582" xmlns="http://www.w3.org/2000/svg" version="1.1" xmlns:xlink="http://www.w3.org/1999/xlink" xmlns:svgjs="http://svgjs.com/svgjs"><defs id="SvgjsDefs1007"><pattern patternUnits="userSpaceOnUse" id="pattern_mark_0" width="300" height="300"><text x="150" y="100" fill="rgba(229,229,229,0.8)" font-size="18" transform="rotate(-45, 150, 150)" style="dominant-baseline: middle; text-anchor: middle;"></text></pattern><pattern patternUnits="userSpaceOnUse" id="pattern_mark_1" width="300" height="300"><text x="150" y="200" fill="rgba(229,229,229,0.8)" font-size="18" transform="rotate(-45, 150, 150)" style="dominant-baseline: middle; text-anchor: middle;"></text></pattern><marker id="SvgjsMarker1097" markerWidth="13" markerHeight="9" refX="9.5" refY="4.5" viewBox="0 0 13 9" orient="auto" markerUnits="userSpaceOnUse" stroke-dasharray="0,0"><path id="SvgjsPath1098" d="M0,0 L13,4.5 L0,9 L0,0" fill="#323232" stroke="#323232" stroke-width="1"></path></marker><marker id="SvgjsMarker1105" markerWidth="13" markerHeight="9" refX="9.5" refY="4.5" viewBox="0 0 13 9" orient="auto" markerUnits="userSpaceOnUse" stroke-dasharray="0,0"><path id="SvgjsPath1106" d="M0,0 L13,4.5 L0,9 L0,0" fill="#323232" stroke="#323232" stroke-width="1"></path></marker><marker id="SvgjsMarker1113" markerWidth="13" markerHeight="9" refX="9.5" refY="4.5" viewBox="0 0 13 9" orient="auto" markerUnits="userSpaceOnUse" stroke-dasharray="0,0"><path id="SvgjsPath1114" d="M0,0 L13,4.5 L0,9 L0,0" fill="#323232" stroke="#323232" stroke-width="1"></path></marker><marker id="SvgjsMarker1121" markerWidth="13" markerHeight="9" refX="9.5" refY="4.5" viewBox="0 0 13 9" orient="auto" markerUnits="userSpaceOnUse" stroke-dasharray="0,0"><path id="SvgjsPath1122" d="M0,0 L13,4.5 L0,9 L0,0" fill="#323232" stroke="#323232" stroke-width="1"></path></marker><marker id="SvgjsMarker1133" markerWidth="13" markerHeight="9" refX="9.5" refY="4.5" viewBox="0 0 13 9" orient="auto" markerUnits="userSpaceOnUse" stroke-dasharray="0,0"><path id="SvgjsPath1134" d="M0,0 L13,4.5 L0,9 L0,0" fill="#323232" stroke="#323232" stroke-width="1"></path></marker><marker id="SvgjsMarker1141" markerWidth="13" markerHeight="9" refX="9.5" refY="4.5" viewBox="0 0 13 9" orient="auto" markerUnits="userSpaceOnUse" stroke-dasharray="0,0"><path id="SvgjsPath1142" d="M0,0 L13,4.5 L0,9 L0,0" fill="#323232" stroke="#323232" stroke-width="1"></path></marker><marker id="SvgjsMarker1145" markerWidth="13" markerHeight="9" refX="9.5" refY="4.5" viewBox="0 0 13 9" orient="auto" markerUnits="userSpaceOnUse" stroke-dasharray="0,0"><path id="SvgjsPath1146" d="M0,0 L13,4.5 L0,9 L0,0" fill="#323232" stroke="#323232" stroke-width="1"></path></marker><marker id="SvgjsMarker1149" markerWidth="13" markerHeight="9" refX="9.5" refY="4.5" viewBox="0 0 13 9" orient="auto" markerUnits="userSpaceOnUse" stroke-dasharray="0,0"><path id="SvgjsPath1150" d="M0,0 L13,4.5 L0,9 L0,0" fill="#323232" stroke="#323232" stroke-width="1"></path></marker><marker id="SvgjsMarker1153" markerWidth="13" markerHeight="9" refX="9.5" refY="4.5" viewBox="0 0 13 9" orient="auto" markerUnits="userSpaceOnUse" stroke-dasharray="0,0"><path id="SvgjsPath1154" d="M0,0 L13,4.5 L0,9 L0,0" fill="#323232" stroke="#323232" stroke-width="1"></path></marker><marker id="SvgjsMarker1157" markerWidth="13" markerHeight="9" refX="9.5" refY="4.5" viewBox="0 0 13 9" orient="auto" markerUnits="userSpaceOnUse" stroke-dasharray="0,0"><path id="SvgjsPath1158" d="M0,0 L13,4.5 L0,9 L0,0" fill="#323232" stroke="#323232" stroke-width="1"></path></marker><marker id="SvgjsMarker1161" markerWidth="13" markerHeight="9" refX="9.5" refY="4.5" viewBox="0 0 13 9" orient="auto" markerUnits="userSpaceOnUse" stroke-dasharray="0,0"><path id="SvgjsPath1162" d="M0,0 L13,4.5 L0,9 L0,0" fill="#323232" stroke="#323232" stroke-width="1"></path></marker><marker id="SvgjsMarker1165" markerWidth="13" markerHeight="9" refX="9.5" refY="4.5" viewBox="0 0 13 9" orient="auto" markerUnits="userSpaceOnUse" stroke-dasharray="0,0"><path id="SvgjsPath1166" d="M0,0 L13,4.5 L0,9 L0,0" fill="#323232" stroke="#323232" stroke-width="1"></path></marker><marker id="SvgjsMarker1169" markerWidth="13" markerHeight="9" refX="9.5" refY="4.5" viewBox="0 0 13 9" orient="auto" markerUnits="userSpaceOnUse" stroke-dasharray="0,0"><path id="SvgjsPath1170" d="M0,0 L13,4.5 L0,9 L0,0" fill="#323232" stroke="#323232" stroke-width="1"></path></marker><marker id="SvgjsMarker1173" markerWidth="13" markerHeight="9" refX="9.5" refY="4.5" viewBox="0 0 13 9" orient="auto" markerUnits="userSpaceOnUse" stroke-dasharray="0,0"><path id="SvgjsPath1174" d="M0,0 L13,4.5 L0,9 L0,0" fill="#323232" stroke="#323232" stroke-width="1"></path></marker><marker id="SvgjsMarker1177" markerWidth="13" markerHeight="9" refX="9.5" refY="4.5" viewBox="0 0 13 9" orient="auto" markerUnits="userSpaceOnUse" stroke-dasharray="0,0"><path id="SvgjsPath1178" d="M0,0 L13,4.5 L0,9 L0,0" fill="#323232" stroke="#323232" stroke-width="1"></path></marker></defs><rect id="svgbackgroundid" width="729" height="582" fill="transparent"></rect><rect id="SvgjsRect1009" width="729" height="582" fill="url(#pattern_mark_0)"></rect><rect id="SvgjsRect1010" width="729" height="582" fill="url(#pattern_mark_1)"></rect><g id="SvgjsG1011" transform="translate(214,208)"><path id="SvgjsPath1012" d="M 0 4Q 0 0 4 0L 414 0Q 418 0 418 4L 418 128Q 418 132 414 132L 4 132Q 0 132 0 128Z" stroke-dasharray="10,4" stroke="rgba(228,155,60,1)" stroke-width="2" fill-opacity="1" fill="#ffffff"></path><g id="SvgjsG1013"><text id="SvgjsText1014" font-family="&quot;Microsoft YaHei&quot;, 微软雅黑, Arial" text-anchor="start" font-size="15px" width="398px" fill="#38853c" font-weight="700" align="top" lineHeight="125%" anchor="start" family="&quot;Microsoft YaHei&quot;, 微软雅黑, Arial" size="15px" weight="700" font-style="" opacity="1" y="-2.875" transform="rotate(0)"><tspan id="SvgjsTspan1015" dy="18.75" x="10"><tspan id="SvgjsTspan1016" style="">JIT动态编译</tspan></tspan></text></g></g><g id="SvgjsG1017" transform="translate(45,25)"><path id="SvgjsPath1018" d="M 0 22.5C 0 -7.5 100 -7.5 100 22.5C 100 52.5 0 52.5 0 22.5Z" stroke="none" fill-opacity="1" fill="#f07163"></path><g id="SvgjsG1019"><text id="SvgjsText1020" font-family="&quot;Microsoft YaHei&quot;, 微软雅黑, Arial" text-anchor="middle" font-size="13px" width="80px" fill="#ffffff" font-weight="400" align="middle" lineHeight="125%" anchor="middle" family="&quot;Microsoft YaHei&quot;, 微软雅黑, Arial" size="13px" weight="400" font-style="" opacity="1" y="11.875" transform="rotate(0)"><tspan id="SvgjsTspan1021" dy="16.25" x="50"><tspan id="SvgjsTspan1022" style="">Java方法入口</tspan></tspan></text></g></g><g id="SvgjsG1023" transform="translate(45.5,120)"><path id="SvgjsPath1024" d="M 0 22.5L 49.5 0L 99 22.5L 49.5 45Z" stroke="none" fill-opacity="1" fill="#f3b329"></path><g id="SvgjsG1025"><text id="SvgjsText1026" font-family="&quot;Microsoft YaHei&quot;, 微软雅黑, Arial" text-anchor="middle" font-size="13px" width="79px" fill="#ffffff" font-weight="400" align="middle" lineHeight="125%" anchor="middle" family="&quot;Microsoft YaHei&quot;, 微软雅黑, Arial" size="13px" weight="400" font-style="" opacity="1" y="12.100000000000001" transform="rotate(0)"><tspan id="SvgjsTspan1027" dy="16.25" x="49.5"><tspan id="SvgjsTspan1028" style="">已编译？</tspan></tspan></text></g></g><g id="SvgjsG1029" transform="translate(25,302.25)"><path id="SvgjsPath1030" d="M 0 0L 140 0L 140 29.5L 0 29.5Z" stroke="none" fill-opacity="1" fill="#4f95fd"></path><g id="SvgjsG1031"><text id="SvgjsText1032" font-family="&quot;Microsoft YaHei&quot;, 微软雅黑, Arial" text-anchor="middle" font-size="13px" width="120px" fill="#ffffff" font-weight="400" align="middle" lineHeight="125%" anchor="middle" family="&quot;Microsoft YaHei&quot;, 微软雅黑, Arial" size="13px" weight="400" font-style="" opacity="1" y="4.125" transform="rotate(0)"><tspan id="SvgjsTspan1033" dy="16.25" x="70"><tspan id="SvgjsTspan1034" style="">执行编译后的机器码</tspan></tspan></text></g></g><g id="SvgjsG1035" transform="translate(264,127.75)"><path id="SvgjsPath1036" d="M 0 0L 140 0L 140 29.5L 0 29.5Z" stroke="none" fill-opacity="1" fill="#4f95fd"></path><g id="SvgjsG1037"><text id="SvgjsText1038" font-family="&quot;Microsoft YaHei&quot;, 微软雅黑, Arial" text-anchor="middle" font-size="13px" width="120px" fill="#ffffff" font-weight="400" align="middle" lineHeight="125%" anchor="middle" family="&quot;Microsoft YaHei&quot;, 微软雅黑, Arial" size="13px" weight="400" font-style="" opacity="1" y="4.125" transform="rotate(0)"><tspan id="SvgjsTspan1039" dy="16.25" x="70"><tspan id="SvgjsTspan1040" style="">方法调用计数器加1</tspan></tspan></text></g></g><g id="SvgjsG1041" transform="translate(503.5,120)"><path id="SvgjsPath1042" d="M 0 22.5L 69.75 0L 139.5 22.5L 69.75 45Z" stroke="none" fill-opacity="1" fill="#f3b329"></path><g id="SvgjsG1043"><text id="SvgjsText1044" font-family="&quot;Microsoft YaHei&quot;, 微软雅黑, Arial" text-anchor="middle" font-size="13px" width="120px" fill="#ffffff" font-weight="400" align="middle" lineHeight="125%" anchor="middle" family="&quot;Microsoft YaHei&quot;, 微软雅黑, Arial" size="13px" weight="400" font-style="" opacity="1" y="12.100000000000001" transform="rotate(0)"><tspan id="SvgjsTspan1045" dy="16.25" x="70"><tspan id="SvgjsTspan1046" style="">计数是否超过阈值</tspan></tspan></text></g></g><g id="SvgjsG1047" transform="translate(523.125,215)"><path id="SvgjsPath1048" d="M 0 0L 100.25 0L 100.25 29.5L 0 29.5Z" stroke="none" fill-opacity="1" fill="#4f95fd"></path><g id="SvgjsG1049"><text id="SvgjsText1050" font-family="&quot;Microsoft YaHei&quot;, 微软雅黑, Arial" text-anchor="middle" font-size="13px" width="81px" fill="#ffffff" font-weight="400" align="middle" lineHeight="125%" anchor="middle" family="&quot;Microsoft YaHei&quot;, 微软雅黑, Arial" size="13px" weight="400" font-style="" opacity="1" y="4.125" transform="rotate(0)"><tspan id="SvgjsTspan1051" dy="16.25" x="50.5"><tspan id="SvgjsTspan1052" style="">提交编译请求</tspan></tspan></text></g></g><g id="SvgjsG1053" transform="translate(373,215)"><path id="SvgjsPath1054" d="M 0 0L 100 0L 100 29.5L 0 29.5Z" stroke="none" fill-opacity="1" fill="#a89ac7"></path><g id="SvgjsG1055"><text id="SvgjsText1056" font-family="&quot;Microsoft YaHei&quot;, 微软雅黑, Arial" text-anchor="middle" font-size="13px" width="80px" fill="#ffffff" font-weight="400" align="middle" lineHeight="125%" anchor="middle" family="&quot;Microsoft YaHei&quot;, 微软雅黑, Arial" size="13px" weight="400" font-style="" opacity="1" y="4.125" transform="rotate(0)"><tspan id="SvgjsTspan1057" dy="16.25" x="50"><tspan id="SvgjsTspan1058" style="">JIT编译器</tspan></tspan></text></g></g><g id="SvgjsG1059" transform="translate(373,302.25)"><path id="SvgjsPath1060" d="M 0 0L 100 0L 100 29.5L 0 29.5Z" stroke="none" fill-opacity="1" fill="#4f95fd"></path><g id="SvgjsG1061"><text id="SvgjsText1062" font-family="&quot;Microsoft YaHei&quot;, 微软雅黑, Arial" text-anchor="middle" font-size="13px" width="80px" fill="#ffffff" font-weight="400" align="middle" lineHeight="125%" anchor="middle" family="&quot;Microsoft YaHei&quot;, 微软雅黑, Arial" size="13px" weight="400" font-style="" opacity="1" y="4.125" transform="rotate(0)"><tspan id="SvgjsTspan1063" dy="16.25" x="50"><tspan id="SvgjsTspan1064" style="">后台执行编译</tspan></tspan></text></g></g><g id="SvgjsG1065" transform="translate(223,302.25)"><path id="SvgjsPath1066" d="M 0 0L 100 0L 100 29.5L 0 29.5Z" stroke="none" fill-opacity="1" fill="#4f95fd"></path><g id="SvgjsG1067"><text id="SvgjsText1068" font-family="&quot;Microsoft YaHei&quot;, 微软雅黑, Arial" text-anchor="middle" font-size="13px" width="80px" fill="#ffffff" font-weight="400" align="middle" lineHeight="125%" anchor="middle" family="&quot;Microsoft YaHei&quot;, 微软雅黑, Arial" size="13px" weight="400" font-style="" opacity="1" y="4.125" transform="rotate(0)"><tspan id="SvgjsTspan1069" dy="16.25" x="50"><tspan id="SvgjsTspan1070" style="">Code Cache</tspan></tspan></text></g></g><g id="SvgjsG1071" transform="translate(503.25,369.25)"><path id="SvgjsPath1072" d="M 0 0L 140 0L 140 29.5L 0 29.5Z" stroke="none" fill-opacity="1" fill="#4f95fd"></path><g id="SvgjsG1073"><text id="SvgjsText1074" font-family="&quot;Microsoft YaHei&quot;, 微软雅黑, Arial" text-anchor="middle" font-size="13px" width="120px" fill="#ffffff" font-weight="400" align="middle" lineHeight="125%" anchor="middle" family="&quot;Microsoft YaHei&quot;, 微软雅黑, Arial" size="13px" weight="400" font-style="" opacity="1" y="4.125" transform="rotate(0)"><tspan id="SvgjsTspan1075" dy="16.25" x="70"><tspan id="SvgjsTspan1076" style="">执行编译后的机器码</tspan></tspan></text></g></g><g id="SvgjsG1077" transform="translate(383,369.25)"><path id="SvgjsPath1078" d="M 0 0L 80 0L 80 29.5L 0 29.5Z" stroke="none" fill-opacity="1" fill="#89b547"></path><g id="SvgjsG1079"><text id="SvgjsText1080" font-family="&quot;Microsoft YaHei&quot;, 微软雅黑, Arial" text-anchor="middle" font-size="13px" width="60px" fill="#ffffff" font-weight="400" align="middle" lineHeight="125%" anchor="middle" family="&quot;Microsoft YaHei&quot;, 微软雅黑, Arial" size="13px" weight="400" font-style="" opacity="1" y="4.125" transform="rotate(0)"><tspan id="SvgjsTspan1081" dy="16.25" x="40"><tspan id="SvgjsTspan1082" style="">解释器</tspan></tspan></text></g></g><g id="SvgjsG1083" transform="translate(203,432.25)"><path id="SvgjsPath1084" d="M 0 0L 140 0L 140 29.5L 0 29.5Z" stroke="none" fill-opacity="1" fill="#4f95fd"></path><g id="SvgjsG1085"><text id="SvgjsText1086" font-family="&quot;Microsoft YaHei&quot;, 微软雅黑, Arial" text-anchor="middle" font-size="13px" width="120px" fill="#ffffff" font-weight="400" align="middle" lineHeight="125%" anchor="middle" family="&quot;Microsoft YaHei&quot;, 微软雅黑, Arial" size="13px" weight="400" font-style="" opacity="1" y="4.125" transform="rotate(0)"><tspan id="SvgjsTspan1087" dy="16.25" x="70"><tspan id="SvgjsTspan1088" style="">方法返回</tspan></tspan></text></g></g><g id="SvgjsG1089" transform="translate(223,512)"><path id="SvgjsPath1090" d="M 0 22.5C 0 -7.5 100 -7.5 100 22.5C 100 52.5 0 52.5 0 22.5Z" stroke="none" fill-opacity="1" fill="#f07163"></path><g id="SvgjsG1091"><text id="SvgjsText1092" font-family="&quot;Microsoft YaHei&quot;, 微软雅黑, Arial" text-anchor="middle" font-size="13px" width="80px" fill="#ffffff" font-weight="400" align="middle" lineHeight="125%" anchor="middle" family="&quot;Microsoft YaHei&quot;, 微软雅黑, Arial" size="13px" weight="400" font-style="" opacity="1" y="11.875" transform="rotate(0)"><tspan id="SvgjsTspan1093" dy="16.25" x="50"><tspan id="SvgjsTspan1094" style="">即时编译结束</tspan></tspan></text></g></g><g id="SvgjsG1095"><path id="SvgjsPath1096" d="M95 70L95 95L95 95L95 118.05000000000001" stroke="#323232" stroke-width="1.5" fill="none" marker-end="url(#SvgjsMarker1097)"></path><rect id="SvgjsRect1099" width="52" height="18" x="69" y="82.14200000000001" fill="#ffffff"></rect><text id="SvgjsText1100" font-family="&quot;Microsoft YaHei&quot;, 微软雅黑, Arial" text-anchor="middle" font-size="13px" width="52px" fill="#5b79e8" font-weight="400" align="top" lineHeight="16px" anchor="middle" family="&quot;Microsoft YaHei&quot;, 微软雅黑, Arial" size="13px" weight="400" font-style="" opacity="1" y="79.51700000000001" transform="rotate(0)"><tspan id="SvgjsTspan1101" dy="16.25" x="95"><tspan id="SvgjsTspan1102" style="">方法调用</tspan></tspan></text></g><g id="SvgjsG1103"><path id="SvgjsPath1104" d="M144.5 142.5L204.25 142.5L204.25 142.5L262.05 142.5" stroke="#323232" stroke-width="1.5" fill="none" marker-end="url(#SvgjsMarker1105)"></path><rect id="SvgjsRect1107" width="13" height="18" x="195.54539748953977" y="133.5" fill="#ffffff"></rect><text id="SvgjsText1108" font-family="&quot;Microsoft YaHei&quot;, 微软雅黑, Arial" text-anchor="middle" font-size="13px" width="13px" fill="#323232" font-weight="400" align="top" lineHeight="16px" anchor="middle" family="&quot;Microsoft YaHei&quot;, 微软雅黑, Arial" size="13px" weight="400" font-style="" opacity="1" y="130.875" transform="rotate(0)"><tspan id="SvgjsTspan1109" dy="16.25" x="202.04539748953977"><tspan id="SvgjsTspan1110" style="">否</tspan></tspan></text></g><g id="SvgjsG1111"><path id="SvgjsPath1112" d="M95 165L95 233.625L95 233.625L95 300.3" stroke="#323232" stroke-width="1.5" fill="none" marker-end="url(#SvgjsMarker1113)"></path><rect id="SvgjsRect1115" width="13" height="18" x="88.5" y="221.0622950819672" fill="#ffffff"></rect><text id="SvgjsText1116" font-family="&quot;Microsoft YaHei&quot;, 微软雅黑, Arial" text-anchor="middle" font-size="13px" width="13px" fill="#323232" font-weight="400" align="top" lineHeight="16px" anchor="middle" family="&quot;Microsoft YaHei&quot;, 微软雅黑, Arial" size="13px" weight="400" font-style="" opacity="1" y="218.4372950819672" transform="rotate(0)"><tspan id="SvgjsTspan1117" dy="16.25" x="95"><tspan id="SvgjsTspan1118" style="">是</tspan></tspan></text></g><g id="SvgjsG1119"><path id="SvgjsPath1120" d="M404 142.5L453.75 142.5L453.75 142.5L501.54999999999995 142.5" stroke="#323232" stroke-width="1.5" fill="none" marker-end="url(#SvgjsMarker1121)"></path></g><g id="SvgjsG1123" transform="translate(574,64)"><path id="SvgjsPath1124" d="M 0 28C 0 -9.333333333333334 130 -9.333333333333334 130 28Q 127.39999999999999 54.879999999999995 65 56Q 43.333333333333336 56 21.666666666666668 50.4L 0 56L 15.21 47.992Q 0 39.199999999999996 0 28" stroke="none" fill-opacity="1" fill="#f07262"></path><g id="SvgjsG1125"><text id="SvgjsText1126" font-family="&quot;Microsoft YaHei&quot;, 微软雅黑, Arial" text-anchor="middle" font-size="13px" width="110px" fill="#ffffff" font-weight="400" align="middle" lineHeight="125%" anchor="middle" family="&quot;Microsoft YaHei&quot;, 微软雅黑, Arial" size="13px" weight="400" font-style="" opacity="1" y="8.875" transform="rotate(0)"><tspan id="SvgjsTspan1127" dy="16.25" x="65"><tspan id="SvgjsTspan1128" style="">HOT?</tspan></tspan><tspan id="SvgjsTspan1129" dy="16.25" x="65"><tspan id="SvgjsTspan1130" style="">热点代码统计分析</tspan></tspan></text></g></g><g id="SvgjsG1131"><path id="SvgjsPath1132" d="M573.25 165L573.25 190L573.25 190L573.25 213.05" stroke="#323232" stroke-width="1.5" fill="none" marker-end="url(#SvgjsMarker1133)"></path><rect id="SvgjsRect1135" width="13" height="18" x="566.75" y="178.103" fill="#ffffff"></rect><text id="SvgjsText1136" font-family="&quot;Microsoft YaHei&quot;, 微软雅黑, Arial" text-anchor="middle" font-size="13px" width="13px" fill="#323232" font-weight="400" align="top" lineHeight="16px" anchor="middle" family="&quot;Microsoft YaHei&quot;, 微软雅黑, Arial" size="13px" weight="400" font-style="" opacity="1" y="175.478" transform="rotate(0)"><tspan id="SvgjsTspan1137" dy="16.25" x="573.25"><tspan id="SvgjsTspan1138" style="">是</tspan></tspan></text></g><g id="SvgjsG1139"><path id="SvgjsPath1140" d="M523.125 229.75L498.0625 229.75L498.0625 229.75L474.95000000000005 229.75" stroke="#323232" stroke-width="1.5" fill="none" marker-end="url(#SvgjsMarker1141)"></path></g><g id="SvgjsG1143"><path id="SvgjsPath1144" d="M423 244.5L423 273.375L423 273.375L423 300.3" stroke="#323232" stroke-width="1.5" fill="none" marker-end="url(#SvgjsMarker1145)"></path></g><g id="SvgjsG1147"><path id="SvgjsPath1148" d="M373 317L348 317L348 317L324.95 317" stroke="#323232" stroke-width="1.5" fill="none" marker-end="url(#SvgjsMarker1149)"></path></g><g id="SvgjsG1151"><path id="SvgjsPath1152" d="M223 317L194 317L194 317L166.95 317" stroke="#323232" stroke-width="1.5" fill="none" marker-end="url(#SvgjsMarker1153)"></path></g><g id="SvgjsG1155"><path id="SvgjsPath1156" d="M573.25 244.5L573.25 306.875L573.25 306.875L573.25 367.3" stroke="#323232" stroke-width="1.5" fill="none" marker-end="url(#SvgjsMarker1157)"></path></g><g id="SvgjsG1159"><path id="SvgjsPath1160" d="M463 384L483.125 384L483.125 384L501.29999999999995 384" stroke="#323232" stroke-width="1.5" fill="none" marker-end="url(#SvgjsMarker1161)"></path></g><g id="SvgjsG1163"><path id="SvgjsPath1164" d="M573.25 398.75L573.25 447L344.95 447" stroke="#323232" stroke-width="1.5" fill="none" marker-end="url(#SvgjsMarker1165)"></path></g><g id="SvgjsG1167"><path id="SvgjsPath1168" d="M95 331.75L95 447L201.05 447" stroke="#323232" stroke-width="1.5" fill="none" marker-end="url(#SvgjsMarker1169)"></path></g><g id="SvgjsG1171"><path id="SvgjsPath1172" d="M273 461.75L273 486.875L273 486.875L273 510.04999999999995" stroke="#323232" stroke-width="1.5" fill="none" marker-end="url(#SvgjsMarker1173)"></path></g><g id="SvgjsG1175"><path id="SvgjsPath1176" d="M643 142.5L673 142.5L673 384L644.95 384" stroke="#323232" stroke-width="1.5" fill="none" marker-end="url(#SvgjsMarker1177)"></path><rect id="SvgjsRect1179" width="13" height="18" x="666.5" y="254.02014925373135" fill="#ffffff"></rect><text id="SvgjsText1180" font-family="&quot;Microsoft YaHei&quot;, 微软雅黑, Arial" text-anchor="middle" font-size="13px" width="13px" fill="#323232" font-weight="400" align="top" lineHeight="16px" anchor="middle" family="&quot;Microsoft YaHei&quot;, 微软雅黑, Arial" size="13px" weight="400" font-style="" opacity="1" y="251.39514925373135" transform="rotate(0)"><tspan id="SvgjsTspan1181" dy="16.25" x="673"><tspan id="SvgjsTspan1182" style="">否</tspan></tspan></text></g><g id="SvgjsG1183"></g></svg>