<svg id="SvgjsSvg1006" width="867" height="405" xmlns="http://www.w3.org/2000/svg" version="1.1" xmlns:xlink="http://www.w3.org/1999/xlink" xmlns:svgjs="http://svgjs.com/svgjs"><defs id="SvgjsDefs1007"><pattern patternUnits="userSpaceOnUse" id="pattern_mark_0" width="300" height="300"><text x="150" y="100" fill="rgba(229,229,229,0.8)" font-size="18" transform="rotate(-45, 150, 150)" style="dominant-baseline: middle; text-anchor: middle;"></text></pattern><pattern patternUnits="userSpaceOnUse" id="pattern_mark_1" width="300" height="300"><text x="150" y="200" fill="rgba(229,229,229,0.8)" font-size="18" transform="rotate(-45, 150, 150)" style="dominant-baseline: middle; text-anchor: middle;"></text></pattern><marker id="SvgjsMarker1095" markerWidth="13" markerHeight="9" refX="9.5" refY="4.5" viewBox="0 0 13 9" orient="auto" markerUnits="userSpaceOnUse" stroke-dasharray="0,0"><path id="SvgjsPath1096" d="M0,0 L13,4.5 L0,9 L0,0" fill="#323232" stroke="#323232" stroke-width="1"></path></marker><marker id="SvgjsMarker1103" markerWidth="13" markerHeight="9" refX="9.5" refY="4.5" viewBox="0 0 13 9" orient="auto" markerUnits="userSpaceOnUse" stroke-dasharray="0,0"><path id="SvgjsPath1104" d="M0,0 L13,4.5 L0,9 L0,0" fill="#323232" stroke="#323232" stroke-width="1"></path></marker><marker id="SvgjsMarker1111" markerWidth="13" markerHeight="9" refX="3.5" refY="4.5" viewBox="0 0 13 9" orient="auto" markerUnits="userSpaceOnUse" stroke-dasharray="0,0"><path id="SvgjsPath1112" d="M13,0 L0,4.5 L13,9 L13,0" fill="#323232" stroke="#323232" stroke-width="1"></path></marker><marker id="SvgjsMarker1119" markerWidth="13" markerHeight="9" refX="3.5" refY="4.5" viewBox="0 0 13 9" orient="auto" markerUnits="userSpaceOnUse" stroke-dasharray="0,0"><path id="SvgjsPath1120" d="M13,0 L0,4.5 L13,9 L13,0" fill="#323232" stroke="#323232" stroke-width="1"></path></marker><marker id="SvgjsMarker1127" markerWidth="13" markerHeight="9" refX="9.5" refY="4.5" viewBox="0 0 13 9" orient="auto" markerUnits="userSpaceOnUse" stroke-dasharray="0,0"><path id="SvgjsPath1128" d="M0,0 L13,4.5 L0,9 L0,0" fill="#323232" stroke="#323232" stroke-width="1"></path></marker><marker id="SvgjsMarker1135" markerWidth="13" markerHeight="9" refX="9.5" refY="4.5" viewBox="0 0 13 9" orient="auto" markerUnits="userSpaceOnUse" stroke-dasharray="0,0"><path id="SvgjsPath1136" d="M0,0 L13,4.5 L0,9 L0,0" fill="#323232" stroke="#323232" stroke-width="1"></path></marker><marker id="SvgjsMarker1143" markerWidth="13" markerHeight="9" refX="9.5" refY="4.5" viewBox="0 0 13 9" orient="auto" markerUnits="userSpaceOnUse" stroke-dasharray="0,0"><path id="SvgjsPath1144" d="M0,0 L13,4.5 L0,9 L0,0" fill="#323232" stroke="#323232" stroke-width="1"></path></marker></defs><rect id="svgbackgroundid" width="867" height="405" fill="transparent"></rect><rect id="SvgjsRect1009" width="867" height="405" fill="url(#pattern_mark_0)"></rect><rect id="SvgjsRect1010" width="867" height="405" fill="url(#pattern_mark_1)"></rect><g id="SvgjsG1011" transform="translate(238,25)"><path id="SvgjsPath1012" d="M 0 4Q 0 0 4 0L 278 0Q 282 0 282 4L 282 247Q 282 251 278 251L 4 251Q 0 251 0 247Z" stroke="rgba(33,41,48,1)" stroke-width="1.5" fill-opacity="1" fill="#ffffff"></path><g id="SvgjsG1013"><text id="SvgjsText1014" font-family="&quot;Microsoft YaHei&quot;, 微软雅黑, Arial" text-anchor="middle" font-size="13px" width="262px" fill="#323232" font-weight="400" align="middle" lineHeight="125%" anchor="middle" family="&quot;Microsoft YaHei&quot;, 微软雅黑, Arial" size="13px" weight="400" font-style="" opacity="1" y="25.375" transform="rotate(0)"><tspan id="SvgjsTspan1015" dy="16.25" x="141"><tspan id="SvgjsTspan1016" style="">InnoDB</tspan></tspan><tspan id="SvgjsTspan1017" dy="16.25" x="141"><tspan id="SvgjsTspan1018" style=""> </tspan></tspan><tspan id="SvgjsTspan1019" dy="16.25" x="141"><tspan id="SvgjsTspan1020" style=""> </tspan></tspan><tspan id="SvgjsTspan1021" dy="16.25" x="141"><tspan id="SvgjsTspan1022" style=""> </tspan></tspan><tspan id="SvgjsTspan1023" dy="16.25" x="141"><tspan id="SvgjsTspan1024" style=""> </tspan></tspan><tspan id="SvgjsTspan1025" dy="16.25" x="141"><tspan id="SvgjsTspan1026" style=""> </tspan></tspan><tspan id="SvgjsTspan1027" dy="16.25" x="141"><tspan id="SvgjsTspan1028" style=""> </tspan></tspan><tspan id="SvgjsTspan1029" dy="16.25" x="141"><tspan id="SvgjsTspan1030" style=""> </tspan></tspan><tspan id="SvgjsTspan1031" dy="16.25" x="141"><tspan id="SvgjsTspan1032" style=""> </tspan></tspan><tspan id="SvgjsTspan1033" dy="16.25" x="141"><tspan id="SvgjsTspan1034" style=""> </tspan></tspan><tspan id="SvgjsTspan1035" dy="16.25" x="141"><tspan id="SvgjsTspan1036" style=""> </tspan></tspan><tspan id="SvgjsTspan1037" dy="16.25" x="141"><tspan id="SvgjsTspan1038" style=""> </tspan></tspan></text></g></g><g id="SvgjsG1039" transform="translate(25,87)"><path id="SvgjsPath1040" d="M 0 0L 114 0L 130 16L 130 40L 0 40L 0 0Z" stroke="none" fill-opacity="1" fill="#fff7bc"></path><path id="SvgjsPath1041" d="M 114 0L 114 16L 130 16Z" stroke="none" fill-opacity="1" fill="#e4d089"></path><path id="SvgjsPath1042" d="M 0 0L 114 0L 130 16L 130 40L 0 40L 0 0Z" stroke="none" fill="none"></path><g id="SvgjsG1043"><text id="SvgjsText1044" font-family="&quot;Microsoft YaHei&quot;, 微软雅黑, Arial" text-anchor="middle" font-size="13px" width="110px" fill="#323232" font-weight="400" align="middle" lineHeight="125%" anchor="middle" family="&quot;Microsoft YaHei&quot;, 微软雅黑, Arial" size="13px" weight="400" font-style="" opacity="1" y="9.375" transform="rotate(0)"><tspan id="SvgjsTspan1045" dy="16.25" x="65"><tspan id="SvgjsTspan1046" style="">更新数据</tspan></tspan></text></g></g><g id="SvgjsG1047" transform="translate(272,87)"><path id="SvgjsPath1048" d="M 0 4Q 0 0 4 0L 217 0Q 221 0 221 4L 221 91Q 221 95 217 95L 4 95Q 0 95 0 91Z" stroke="rgba(33,41,48,1)" stroke-width="1.5" fill-opacity="1" fill="#e1f6d1"></path><g id="SvgjsG1049"><text id="SvgjsText1050" font-family="&quot;Microsoft YaHei&quot;, 微软雅黑, Arial" text-anchor="middle" font-size="13px" width="201px" fill="#323232" font-weight="400" align="middle" lineHeight="125%" anchor="middle" family="&quot;Microsoft YaHei&quot;, 微软雅黑, Arial" size="13px" weight="400" font-style="" opacity="1" y="36.875" transform="rotate(0)"><tspan id="SvgjsTspan1051" dy="16.25" x="110.5"><tspan id="SvgjsTspan1052" style="">Buffer Pool</tspan></tspan></text></g></g><g id="SvgjsG1053" transform="translate(272,222)"><path id="SvgjsPath1054" d="M 0 4Q 0 0 4 0L 217 0Q 221 0 221 4L 221 44Q 221 48 217 48L 4 48Q 0 48 0 44Z" stroke="rgba(33,41,48,1)" stroke-width="1.5" fill-opacity="1" fill="#dffaff"></path><g id="SvgjsG1055"><text id="SvgjsText1056" font-family="&quot;Microsoft YaHei&quot;, 微软雅黑, Arial" text-anchor="middle" font-size="13px" width="201px" fill="#323232" font-weight="400" align="middle" lineHeight="125%" anchor="middle" family="&quot;Microsoft YaHei&quot;, 微软雅黑, Arial" size="13px" weight="400" font-style="" opacity="1" y="13.375" transform="rotate(0)"><tspan id="SvgjsTspan1057" dy="16.25" x="110.5"><tspan id="SvgjsTspan1058" style="">Redo Log Buffer</tspan></tspan></text></g></g><g id="SvgjsG1059" transform="translate(653,97)"><path id="SvgjsPath1060" d="M 0 4Q 0 0 4 0L 116 0Q 120 0 120 4L 120 26Q 120 30 116 30L 4 30Q 0 30 0 26Z" stroke="rgba(33,41,48,1)" stroke-width="1.5" fill-opacity="1" fill="#f7d7d0"></path><g id="SvgjsG1061"><text id="SvgjsText1062" font-family="&quot;Microsoft YaHei&quot;, 微软雅黑, Arial" text-anchor="middle" font-size="13px" width="100px" fill="#323232" font-weight="400" align="middle" lineHeight="125%" anchor="middle" family="&quot;Microsoft YaHei&quot;, 微软雅黑, Arial" size="13px" weight="400" font-style="" opacity="1" y="4.375" transform="rotate(0)"><tspan id="SvgjsTspan1063" dy="16.25" x="60"><tspan id="SvgjsTspan1064" style="">Undo Log</tspan></tspan></text></g></g><g id="SvgjsG1065" transform="translate(653,142)"><path id="SvgjsPath1066" d="M 0 4Q 0 0 4 0L 96 0Q 100 0 100 4L 100 36Q 100 40 96 40L 4 40Q 0 40 0 36Z" stroke="rgba(33,41,48,1)" stroke-width="1.5" fill-opacity="1" fill="#fbe9d0"></path><g id="SvgjsG1067"><text id="SvgjsText1068" font-family="&quot;Microsoft YaHei&quot;, 微软雅黑, Arial" text-anchor="middle" font-size="13px" width="80px" fill="#323232" font-weight="400" align="middle" lineHeight="125%" anchor="middle" family="&quot;Microsoft YaHei&quot;, 微软雅黑, Arial" size="13px" weight="400" font-style="" opacity="1" y="9.375" transform="rotate(0)"><tspan id="SvgjsTspan1069" dy="16.25" x="50"><tspan id="SvgjsTspan1070" style="">执行器</tspan></tspan></text></g></g><g id="SvgjsG1071" transform="translate(226,340)"><path id="SvgjsPath1072" d="M 0 4Q 0 0 4 0L 73.69503546099291 0Q 77.69503546099291 0 77.69503546099291 4L 77.69503546099291 36Q 77.69503546099291 40 73.69503546099291 40L 4 40Q 0 40 0 36Z" stroke="rgba(33,41,48,1)" stroke-width="1.5" fill-opacity="1" fill="#c0eca1"></path><g id="SvgjsG1073"><text id="SvgjsText1074" font-family="&quot;Microsoft YaHei&quot;, 微软雅黑, Arial" text-anchor="middle" font-size="13px" width="58px" fill="#323232" font-weight="400" align="middle" lineHeight="125%" anchor="middle" family="&quot;Microsoft YaHei&quot;, 微软雅黑, Arial" size="13px" weight="400" font-style="" opacity="1" y="9.375" transform="rotate(0)"><tspan id="SvgjsTspan1075" dy="16.25" x="39"><tspan id="SvgjsTspan1076" style="">磁盘</tspan></tspan></text></g></g><g id="SvgjsG1077" transform="translate(343.6524822695035,340)"><path id="SvgjsPath1078" d="M 0 4Q 0 0 4 0L 73.69503546099291 0Q 77.69503546099291 0 77.69503546099291 4L 77.69503546099291 36Q 77.69503546099291 40 73.69503546099291 40L 4 40Q 0 40 0 36Z" stroke="rgba(33,41,48,1)" stroke-width="1.5" fill-opacity="1" fill="#e0f9fe"></path><g id="SvgjsG1079"><text id="SvgjsText1080" font-family="&quot;Microsoft YaHei&quot;, 微软雅黑, Arial" text-anchor="middle" font-size="13px" width="58px" fill="#323232" font-weight="400" align="middle" lineHeight="125%" anchor="middle" family="&quot;Microsoft YaHei&quot;, 微软雅黑, Arial" size="13px" weight="400" font-style="" opacity="1" y="0.875" transform="rotate(0)"><tspan id="SvgjsTspan1081" dy="16.25" x="39"><tspan id="SvgjsTspan1082" style="">Redo Log</tspan></tspan><tspan id="SvgjsTspan1083" dy="16.25" x="39"><tspan id="SvgjsTspan1084" style="">文件</tspan></tspan></text></g></g><g id="SvgjsG1085" transform="translate(461.3049645390071,340)"><path id="SvgjsPath1086" d="M 0 4Q 0 0 4 0L 73.69503546099291 0Q 77.69503546099291 0 77.69503546099291 4L 77.69503546099291 36Q 77.69503546099291 40 73.69503546099291 40L 4 40Q 0 40 0 36Z" stroke="rgba(33,41,48,1)" stroke-width="1.5" fill-opacity="1" fill="#d8e7ff"></path><g id="SvgjsG1087"><text id="SvgjsText1088" font-family="&quot;Microsoft YaHei&quot;, 微软雅黑, Arial" text-anchor="middle" font-size="13px" width="58px" fill="#323232" font-weight="400" align="middle" lineHeight="125%" anchor="middle" family="&quot;Microsoft YaHei&quot;, 微软雅黑, Arial" size="13px" weight="400" font-style="" opacity="1" y="0.875" transform="rotate(0)"><tspan id="SvgjsTspan1089" dy="16.25" x="39"><tspan id="SvgjsTspan1090" style="">Binlog</tspan></tspan><tspan id="SvgjsTspan1091" dy="16.25" x="39"><tspan id="SvgjsTspan1092" style="">文件</tspan></tspan></text></g></g><g id="SvgjsG1093"><path id="SvgjsPath1094" d="M90 87L90 57L295 57L295 84.30000000000001" stroke="#323232" stroke-width="1.5" fill="none" marker-end="url(#SvgjsMarker1095)"></path><rect id="SvgjsRect1097" width="66" height="18" x="157.65509433962265" y="48" fill="#ffffff"></rect><text id="SvgjsText1098" font-family="&quot;Microsoft YaHei&quot;, 微软雅黑, Arial" text-anchor="middle" font-size="13px" width="66px" fill="#323232" font-weight="400" align="top" lineHeight="16px" anchor="middle" family="&quot;Microsoft YaHei&quot;, 微软雅黑, Arial" size="13px" weight="400" font-style="" opacity="1" y="45.375" transform="rotate(0)"><tspan id="SvgjsTspan1099" dy="16.25" x="190.65509433962265"><tspan id="SvgjsTspan1100" style="">1. 更新数据</tspan></tspan></text></g><g id="SvgjsG1101"><path id="SvgjsPath1102" d="M225.25 360L159 360L159 134.5L269.3 134.5" stroke="#323232" stroke-width="1.5" fill="none" marker-end="url(#SvgjsMarker1103)"></path><rect id="SvgjsRect1105" width="131" height="18" x="93.5" y="245.02948717948715" fill="#ffffff"></rect><text id="SvgjsText1106" font-family="&quot;Microsoft YaHei&quot;, 微软雅黑, Arial" text-anchor="middle" font-size="13px" width="131px" fill="#323232" font-weight="400" align="top" lineHeight="16px" anchor="middle" family="&quot;Microsoft YaHei&quot;, 微软雅黑, Arial" size="13px" weight="400" font-style="" opacity="1" y="242.40448717948715" transform="rotate(0)"><tspan id="SvgjsTspan1107" dy="16.25" x="159"><tspan id="SvgjsTspan1108" style="">2. 不存在则从磁盘加载</tspan></tspan></text></g><g id="SvgjsG1109"><path id="SvgjsPath1110" d="M650.3 112L573 112L573 112L493.75 112" stroke="#323232" stroke-width="1.5" fill="none" marker-start="url(#SvgjsMarker1111)"></path><rect id="SvgjsRect1113" width="93" height="18" x="528.3713636363636" y="103" fill="#ffffff"></rect><text id="SvgjsText1114" font-family="&quot;Microsoft YaHei&quot;, 微软雅黑, Arial" text-anchor="middle" font-size="13px" width="93px" fill="#323232" font-weight="400" align="top" lineHeight="16px" anchor="middle" family="&quot;Microsoft YaHei&quot;, 微软雅黑, Arial" size="13px" weight="400" font-style="" opacity="1" y="100.375" transform="rotate(0)"><tspan id="SvgjsTspan1115" dy="16.25" x="574.8713636363636"><tspan id="SvgjsTspan1116" style="">3. 记录UndoLog</tspan></tspan></text></g><g id="SvgjsG1117"><path id="SvgjsPath1118" d="M650.3 162L573 162L573 162L493.75 162" stroke="#323232" stroke-width="1.5" fill="none" marker-start="url(#SvgjsMarker1119)"></path><rect id="SvgjsRect1121" width="66" height="18" x="540.981875" y="153" fill="#ffffff"></rect><text id="SvgjsText1122" font-family="&quot;Microsoft YaHei&quot;, 微软雅黑, Arial" text-anchor="middle" font-size="13px" width="66px" fill="#323232" font-weight="400" align="top" lineHeight="16px" anchor="middle" family="&quot;Microsoft YaHei&quot;, 微软雅黑, Arial" size="13px" weight="400" font-style="" opacity="1" y="150.375" transform="rotate(0)"><tspan id="SvgjsTspan1123" dy="16.25" x="573.981875"><tspan id="SvgjsTspan1124" style="">4. 更新数据</tspan></tspan></text></g><g id="SvgjsG1125"><path id="SvgjsPath1126" d="M703 182.75L703 246L495.70000000000005 246" stroke="#323232" stroke-width="1.5" fill="none" marker-end="url(#SvgjsMarker1127)"></path><rect id="SvgjsRect1129" width="135" height="18" x="529.9031021897811" y="237" fill="#ffffff"></rect><text id="SvgjsText1130" font-family="&quot;Microsoft YaHei&quot;, 微软雅黑, Arial" text-anchor="middle" font-size="13px" width="135px" fill="#323232" font-weight="400" align="top" lineHeight="16px" anchor="middle" family="&quot;Microsoft YaHei&quot;, 微软雅黑, Arial" size="13px" weight="400" font-style="" opacity="1" y="234.375" transform="rotate(0)"><tspan id="SvgjsTspan1131" dy="16.25" x="597.4031021897811"><tspan id="SvgjsTspan1132" style="">5. 写入Redo Log Buffer</tspan></tspan></text></g><g id="SvgjsG1133"><path id="SvgjsPath1134" d="M382.5 270.75L382.5 305L382.5 305L382.5 337.29999999999995" stroke="#323232" stroke-width="1.5" fill="none" marker-end="url(#SvgjsMarker1135)"></path><rect id="SvgjsRect1137" width="136" height="18" x="314.5" y="294.0742857142857" fill="#ffffff"></rect><text id="SvgjsText1138" font-family="&quot;Microsoft YaHei&quot;, 微软雅黑, Arial" text-anchor="middle" font-size="13px" width="136px" fill="#323232" font-weight="400" align="top" lineHeight="16px" anchor="middle" family="&quot;Microsoft YaHei&quot;, 微软雅黑, Arial" size="13px" weight="400" font-style="" opacity="1" y="291.4492857142857" transform="rotate(0)"><tspan id="SvgjsTspan1139" dy="16.25" x="382.5"><tspan id="SvgjsTspan1140" style="">6. 写入Redo Log到文件</tspan></tspan></text></g><g id="SvgjsG1141"><path id="SvgjsPath1142" d="M753.75 162L783 162L783 360L541.7 360" stroke="#323232" stroke-width="1.5" fill="none" marker-end="url(#SvgjsMarker1143)"></path><rect id="SvgjsRect1145" width="116" height="18" x="725" y="251.8070974576271" fill="#ffffff"></rect><text id="SvgjsText1146" font-family="&quot;Microsoft YaHei&quot;, 微软雅黑, Arial" text-anchor="middle" font-size="13px" width="116px" fill="#323232" font-weight="400" align="top" lineHeight="16px" anchor="middle" family="&quot;Microsoft YaHei&quot;, 微软雅黑, Arial" size="13px" weight="400" font-style="" opacity="1" y="249.1820974576271" transform="rotate(0)"><tspan id="SvgjsTspan1147" dy="16.25" x="783"><tspan id="SvgjsTspan1148" style="">7. 写入Binlog到文件</tspan></tspan></text></g><g id="SvgjsG1149"></g></svg>