<svg xmlns="http://www.w3.org/2000/svg" xlink="http://www.w3.org/1999/xlink" id="mind-svg-con" version="1.1" width="865px" height="770.1953125px" style="position: absolute; left: 0px; top: 0px; width: 865px; height: 770.195px; background: rgb(255, 255, 255); z-index: 999;"><defs></defs><g id="svgbackgroundid"><defs></defs><rect x="0" y="0" width="865" height="770.1953125" fill="#ffffff"></rect></g><g transform="translate(-9855, -9537)" id="sdjakdjak6"><defs></defs><g class="svg-topic-con" transform="translate(0.5,0.5)"><path part="right" sub="true" id="line_cc92c01a0e729f8f" d="M 10000 9936 L 10110 9936 C 10150 9936 10150 9612.89453125 10215 9612.89453125 L 10215 9612.89453125 L 10403 9612.89453125" stroke="#AF9D7D" fill="none" stroke-width="1"></path><path part="right" sub="true" id="line_3a0f4d8d8c28b63e" d="M 10000 9936 L 10110 9936 C 10150 9936 10150 9843.078125 10215 9843.078125 L 10215 9843.078125 L 10355 9843.078125" stroke="#AF9D7D" fill="none" stroke-width="1"></path><path part="right" sub="true" id="line_e0035b56cfb71dc8" d="M 10000 9936 L 10110 9936 C 10150 9936 10150 10073.89453125 10215 10073.89453125 L 10215 10073.89453125 L 10371 10073.89453125" stroke="#AF9D7D" fill="none" stroke-width="1"></path><path part="right" sub="true" id="line_fa1f51bfacb31cc5" d="M 10000 9936 L 10110 9936 C 10150 9936 10150 10166.89453125 10215 10166.89453125 L 10215 10166.89453125 L 10307 10166.89453125" stroke="#AF9D7D" fill="none" stroke-width="1"></path><path part="right" sub="true" id="line_d3607d4351e06457" d="M 10000 9936 L 10110 9936 C 10150 9936 10150 10259.89453125 10215 10259.89453125 L 10215 10259.89453125 L 10275 10259.89453125" stroke="#AF9D7D" fill="none" stroke-width="1"></path></g><g class="svg-connection-con" transform="translate(0.5,0.5)"></g><g class="svg-freesums-con" transform="translate(0.5,0.5)"></g><g class="svg-freebos-con" transform="translate(0.5,0.5)"></g></g><g id="d3607d4351e06457"><rect x="360" y="693.4921875" rx="1px" ry="1px" width="60" height="28" style="fill: transparent; stroke:none;stroke-width:0px;"></rect><g><text text-anchor="start" align="top" anchor="start" font-size="16px" font-weight="normal" fill="rgb(68, 68, 68)" style="font-size:16px;font-family:'Microsoft YaHei',微软雅黑,Arial;color:#444444;font-style:normal;text-align:left;font-weight:normal;"><tspan x="374" y="713"><tspan dx="0">其它</tspan></tspan></text></g></g><g id="733b30a2b1194338"><rect x="496" y="677" rx="1px" ry="1px" width="57" height="22" style="fill: transparent; stroke:none;stroke-width:0px;"></rect><g><text text-anchor="start" align="top" anchor="start" font-size="13px" font-weight="normal" fill="rgb(68, 68, 68)" style="font-size:13px;font-family:'Microsoft YaHei',微软雅黑,Arial;color:#444444;font-style:normal;text-align:left;font-weight:normal;"><tspan x="505" y="693"><tspan dx="0">全局锁</tspan></tspan></text></g></g><g id="0e56a156002e8a80"><rect x="496" y="716.1953125" rx="1px" ry="1px" width="44" height="22" style="fill: transparent; stroke:none;stroke-width:0px;"></rect><g><text text-anchor="start" align="top" anchor="start" font-size="13px" font-weight="normal" fill="rgb(68, 68, 68)" style="font-size:13px;font-family:'Microsoft YaHei',微软雅黑,Arial;color:#444444;font-style:normal;text-align:left;font-weight:normal;"><tspan x="505" y="732"><tspan dx="0">死锁</tspan></tspan></text></g></g><g id="fa1f51bfacb31cc5"><rect x="360" y="600.4921875" rx="1px" ry="1px" width="92" height="28" style="fill: transparent; stroke:none;stroke-width:0px;"></rect><g><text text-anchor="start" align="top" anchor="start" font-size="16px" font-weight="normal" fill="rgb(68, 68, 68)" style="font-size:16px;font-family:'Microsoft YaHei',微软雅黑,Arial;color:#444444;font-style:normal;text-align:left;font-weight:normal;"><tspan x="374" y="620"><tspan dx="0">加锁方式</tspan></tspan></text></g></g><g id="bf7a023b787b1091"><rect x="528" y="584" rx="1px" ry="1px" width="57" height="22" style="fill: transparent; stroke:none;stroke-width:0px;"></rect><g><text text-anchor="start" align="top" anchor="start" font-size="13px" font-weight="normal" fill="rgb(68, 68, 68)" style="font-size:13px;font-family:'Microsoft YaHei',微软雅黑,Arial;color:#444444;font-style:normal;text-align:left;font-weight:normal;"><tspan x="537" y="600"><tspan dx="0">隐式锁</tspan></tspan></text></g></g><g id="ffc3ba04bee9a82c"><rect x="528" y="623.1953125" rx="1px" ry="1px" width="57" height="22" style="fill: transparent; stroke:none;stroke-width:0px;"></rect><g><text text-anchor="start" align="top" anchor="start" font-size="13px" font-weight="normal" fill="rgb(68, 68, 68)" style="font-size:13px;font-family:'Microsoft YaHei',微软雅黑,Arial;color:#444444;font-style:normal;text-align:left;font-weight:normal;"><tspan x="537" y="639"><tspan dx="0">显式锁</tspan></tspan></text></g></g><g id="e0035b56cfb71dc8"><rect x="360" y="507.4921875" rx="1px" ry="1px" width="156" height="28" style="fill: transparent; stroke:none;stroke-width:0px;"></rect><g><text text-anchor="start" align="top" anchor="start" font-size="16px" font-weight="normal" fill="rgb(68, 68, 68)" style="font-size:16px;font-family:'Microsoft YaHei',微软雅黑,Arial;color:#444444;font-style:normal;text-align:left;font-weight:normal;"><tspan x="374" y="527"><tspan dx="0">对待锁的态度划分</tspan></tspan></text></g></g><g id="6d0cc715e0f4aec5"><rect x="592" y="491" rx="1px" ry="1px" width="57" height="22" style="fill: transparent; stroke:none;stroke-width:0px;"></rect><g><text text-anchor="start" align="top" anchor="start" font-size="13px" font-weight="normal" fill="rgb(68, 68, 68)" style="font-size:13px;font-family:'Microsoft YaHei',微软雅黑,Arial;color:#444444;font-style:normal;text-align:left;font-weight:normal;"><tspan x="601" y="507"><tspan dx="0">悲观锁</tspan></tspan></text></g></g><g id="1d06df24adf7cf0b"><rect x="592" y="530.1953125" rx="1px" ry="1px" width="57" height="22" style="fill: transparent; stroke:none;stroke-width:0px;"></rect><g><text text-anchor="start" align="top" anchor="start" font-size="13px" font-weight="normal" fill="rgb(68, 68, 68)" style="font-size:13px;font-family:'Microsoft YaHei',微软雅黑,Arial;color:#444444;font-style:normal;text-align:left;font-weight:normal;"><tspan x="601" y="546"><tspan dx="0">乐观锁</tspan></tspan></text></g></g><g id="3a0f4d8d8c28b63e"><rect x="360" y="276.6796875" rx="1px" ry="1px" width="140" height="28" style="fill: transparent; stroke:none;stroke-width:0px;"></rect><g><text text-anchor="start" align="top" anchor="start" font-size="16px" font-weight="normal" fill="rgb(68, 68, 68)" style="font-size:16px;font-family:'Microsoft YaHei',微软雅黑,Arial;color:#444444;font-style:normal;text-align:left;font-weight:normal;"><tspan x="374" y="297"><tspan dx="0">锁粒度角度划分</tspan></tspan></text></g></g><g id="5fd9ddc373197b8c"><rect x="576" y="181.7890625" rx="1px" ry="1px" width="57" height="22" style="fill: transparent; stroke:none;stroke-width:0px;"></rect><g><text text-anchor="start" align="top" anchor="start" font-size="13px" font-weight="normal" fill="rgb(68, 68, 68)" style="font-size:13px;font-family:'Microsoft YaHei',微软雅黑,Arial;color:#444444;font-style:normal;text-align:left;font-weight:normal;"><tspan x="585" y="198"><tspan dx="0">表级锁</tspan></tspan></text></g></g><g id="ed1d981b477f71c2"><rect x="709" y="123" rx="1px" ry="1px" width="126" height="22" style="fill: transparent; stroke:none;stroke-width:0px;"></rect><g><text text-anchor="start" align="top" anchor="start" font-size="13px" font-weight="normal" fill="rgb(68, 68, 68)" style="font-size:13px;font-family:'Microsoft YaHei',微软雅黑,Arial;color:#444444;font-style:normal;text-align:left;font-weight:normal;"><tspan x="718" y="139"><tspan dx="0">表级别的S锁、X锁</tspan></tspan></text></g></g><g id="a6000f9542660601"><rect x="709" y="162.1953125" rx="1px" ry="1px" width="57" height="22" style="fill: transparent; stroke:none;stroke-width:0px;"></rect><g><text text-anchor="start" align="top" anchor="start" font-size="13px" font-weight="normal" fill="rgb(68, 68, 68)" style="font-size:13px;font-family:'Microsoft YaHei',微软雅黑,Arial;color:#444444;font-style:normal;text-align:left;font-weight:normal;"><tspan x="718" y="178"><tspan dx="0">意向锁</tspan></tspan></text></g></g><g id="daf2f76b824b0adc"><rect x="709" y="201.390625" rx="1px" ry="1px" width="57" height="22" style="fill: transparent; stroke:none;stroke-width:0px;"></rect><g><text text-anchor="start" align="top" anchor="start" font-size="13px" font-weight="normal" fill="rgb(68, 68, 68)" style="font-size:13px;font-family:'Microsoft YaHei',微软雅黑,Arial;color:#444444;font-style:normal;text-align:left;font-weight:normal;"><tspan x="718" y="217"><tspan dx="0">自增锁</tspan></tspan></text></g></g><g id="046f9436451a15e4"><rect x="709" y="240.5859375" rx="1px" ry="1px" width="58" height="22" style="fill: transparent; stroke:none;stroke-width:0px;"></rect><g><text text-anchor="start" align="top" anchor="start" font-size="13px" font-weight="normal" fill="rgb(68, 68, 68)" style="font-size:13px;font-family:'Microsoft YaHei',微软雅黑,Arial;color:#444444;font-style:normal;text-align:left;font-weight:normal;"><tspan x="718" y="257"><tspan dx="0">MDL锁</tspan></tspan></text></g></g><g id="092d1dbca40cf3a3"><rect x="576" y="338.5703125" rx="1px" ry="1px" width="57" height="22" style="fill: transparent; stroke:none;stroke-width:0px;"></rect><g><text text-anchor="start" align="top" anchor="start" font-size="13px" font-weight="normal" fill="rgb(68, 68, 68)" style="font-size:13px;font-family:'Microsoft YaHei',微软雅黑,Arial;color:#444444;font-style:normal;text-align:left;font-weight:normal;"><tspan x="585" y="355"><tspan dx="0">行级锁</tspan></tspan></text></g></g><g id="d5932c3646ef15e2"><rect x="709" y="279.78125" rx="1px" ry="1px" width="97" height="22" style="fill: transparent; stroke:none;stroke-width:0px;"></rect><g><text text-anchor="start" align="top" anchor="start" font-size="13px" font-weight="normal" fill="rgb(68, 68, 68)" style="font-size:13px;font-family:'Microsoft YaHei',微软雅黑,Arial;color:#444444;font-style:normal;text-align:left;font-weight:normal;"><tspan x="718" y="296"><tspan dx="0">Record Locks</tspan></tspan></text></g></g><g id="7f53194447a0ef1d"><rect x="709" y="318.9765625" rx="1px" ry="1px" width="80" height="22" style="fill: transparent; stroke:none;stroke-width:0px;"></rect><g><text text-anchor="start" align="top" anchor="start" font-size="13px" font-weight="normal" fill="rgb(68, 68, 68)" style="font-size:13px;font-family:'Microsoft YaHei',微软雅黑,Arial;color:#444444;font-style:normal;text-align:left;font-weight:normal;"><tspan x="718" y="335"><tspan dx="0">Gap Locks</tspan></tspan></text></g></g><g id="df632a2ab1e1e506"><rect x="709" y="358.171875" rx="1px" ry="1px" width="107" height="22" style="fill: transparent; stroke:none;stroke-width:0px;"></rect><g><text text-anchor="start" align="top" anchor="start" font-size="13px" font-weight="normal" fill="rgb(68, 68, 68)" style="font-size:13px;font-family:'Microsoft YaHei',微软雅黑,Arial;color:#444444;font-style:normal;text-align:left;font-weight:normal;"><tspan x="718" y="374"><tspan dx="0">Next-key Locks</tspan></tspan></text></g></g><g id="17807c1e65fd1ea7"><rect x="709" y="397.3671875" rx="1px" ry="1px" width="83" height="22" style="fill: transparent; stroke:none;stroke-width:0px;"></rect><g><text text-anchor="start" align="top" anchor="start" font-size="13px" font-weight="normal" fill="rgb(68, 68, 68)" style="font-size:13px;font-family:'Microsoft YaHei',微软雅黑,Arial;color:#444444;font-style:normal;text-align:left;font-weight:normal;"><tspan x="718" y="413"><tspan dx="0">插入意向锁</tspan></tspan></text></g></g><g id="b2fb5bc8641a30ca"><rect x="576" y="436.5625" rx="1px" ry="1px" width="57" height="22" style="fill: transparent; stroke:none;stroke-width:0px;"></rect><g><text text-anchor="start" align="top" anchor="start" font-size="13px" font-weight="normal" fill="rgb(68, 68, 68)" style="font-size:13px;font-family:'Microsoft YaHei',微软雅黑,Arial;color:#444444;font-style:normal;text-align:left;font-weight:normal;"><tspan x="585" y="453"><tspan dx="0">页级锁</tspan></tspan></text></g></g><g id="cc92c01a0e729f8f"><rect x="360" y="46.4921875" rx="1px" ry="1px" width="188" height="28" style="fill: transparent; stroke:none;stroke-width:0px;"></rect><g><text text-anchor="start" align="top" anchor="start" font-size="16px" font-weight="normal" fill="rgb(68, 68, 68)" style="font-size:16px;font-family:'Microsoft YaHei',微软雅黑,Arial;color:#444444;font-style:normal;text-align:left;font-weight:normal;"><tspan x="374" y="66"><tspan dx="0">对数据的操作类型划分</tspan></tspan></text></g></g><g id="880796c91fc7dac0"><rect x="624" y="30" rx="1px" ry="1px" width="87" height="22" style="fill: transparent; stroke:none;stroke-width:0px;"></rect><g><text text-anchor="start" align="top" anchor="start" font-size="13px" font-weight="normal" fill="rgb(68, 68, 68)" style="font-size:13px;font-family:'Microsoft YaHei',微软雅黑,Arial;color:#444444;font-style:normal;text-align:left;font-weight:normal;"><tspan x="633" y="46"><tspan dx="0">读锁/共享锁</tspan></tspan></text></g></g><g id="0b9fe680b82e699c"><rect x="624" y="69.1953125" rx="1px" ry="1px" width="87" height="22" style="fill: transparent; stroke:none;stroke-width:0px;"></rect><g><text text-anchor="start" align="top" anchor="start" font-size="13px" font-weight="normal" fill="rgb(68, 68, 68)" style="font-size:13px;font-family:'Microsoft YaHei',微软雅黑,Arial;color:#444444;font-style:normal;text-align:left;font-weight:normal;"><tspan x="633" y="85"><tspan dx="0">写锁/排他锁</tspan></tspan></text></g></g><g transform="translate(360, 677)" id="sdjakdjak0"><g id="subline_d3607d4351e06457" transform="translate(0.5, 0.5)"><path id="line_733b30a2b1194338" d="M 60 45.89453125 C 106 45.89453125 98 23.1953125 136 23.1953125 L 193 23.1953125" p="d3607d4351e06457" stroke="#AF9D7D" fill="none" stroke-linecap="square" stroke-width="1"></path><path id="line_0e56a156002e8a80" d="M 60 45.89453125 C 106 45.89453125 98 62.390625 136 62.390625 L 180 62.390625" p="d3607d4351e06457" stroke="#AF9D7D" fill="none" stroke-linecap="square" stroke-width="1"></path></g><g transform="translate(0.5,0.5)"></g><g class="svg-summary-con" transform="translate(0.5,0.5)"></g><g class="svg-boundary-con" transform="translate(0.5,0.5)"></g></g><g transform="translate(360, 584)" id="sdjakdjak1"><g id="subline_fa1f51bfacb31cc5" transform="translate(0.5, 0.5)"><path id="line_bf7a023b787b1091" d="M 92 45.89453125 C 138 45.89453125 130 23.1953125 168 23.1953125 L 225 23.1953125" p="fa1f51bfacb31cc5" stroke="#AF9D7D" fill="none" stroke-linecap="square" stroke-width="1"></path><path id="line_ffc3ba04bee9a82c" d="M 92 45.89453125 C 138 45.89453125 130 62.390625 168 62.390625 L 225 62.390625" p="fa1f51bfacb31cc5" stroke="#AF9D7D" fill="none" stroke-linecap="square" stroke-width="1"></path></g><g transform="translate(0.5,0.5)"></g><g class="svg-summary-con" transform="translate(0.5,0.5)"></g><g class="svg-boundary-con" transform="translate(0.5,0.5)"></g></g><g transform="translate(360, 491)" id="sdjakdjak2"><g id="subline_e0035b56cfb71dc8" transform="translate(0.5, 0.5)"><path id="line_6d0cc715e0f4aec5" d="M 156 45.89453125 C 202 45.89453125 194 23.1953125 232 23.1953125 L 289 23.1953125" p="e0035b56cfb71dc8" stroke="#AF9D7D" fill="none" stroke-linecap="square" stroke-width="1"></path><path id="line_1d06df24adf7cf0b" d="M 156 45.89453125 C 202 45.89453125 194 62.390625 232 62.390625 L 289 62.390625" p="e0035b56cfb71dc8" stroke="#AF9D7D" fill="none" stroke-linecap="square" stroke-width="1"></path></g><g transform="translate(0.5,0.5)"></g><g class="svg-summary-con" transform="translate(0.5,0.5)"></g><g class="svg-boundary-con" transform="translate(0.5,0.5)"></g></g><g transform="translate(360, 123)" id="sdjakdjak3"><g id="subline_3a0f4d8d8c28b63e" transform="translate(0.5, 0.5)"><path id="line_5fd9ddc373197b8c" d="M 140 183.078125 C 186 183.078125 178 81.984375 216 81.984375 L 273 81.984375" p="3a0f4d8d8c28b63e" stroke="#AF9D7D" fill="none" stroke-linecap="square" stroke-width="1"></path><path id="line_ed1d981b477f71c2" d="M 273 81.984375 C 319 81.984375 311 23.1953125 349 23.1953125 L 475 23.1953125" p="5fd9ddc373197b8c" stroke="#AF9D7D" fill="none" stroke-linecap="square" stroke-width="1"></path><path id="line_a6000f9542660601" d="M 273 81.984375 C 319 81.984375 311 62.390625 349 62.390625 L 406 62.390625" p="5fd9ddc373197b8c" stroke="#AF9D7D" fill="none" stroke-linecap="square" stroke-width="1"></path><path id="line_daf2f76b824b0adc" d="M 273 81.984375 C 319 81.984375 311 101.5859375 349 101.5859375 L 406 101.5859375" p="5fd9ddc373197b8c" stroke="#AF9D7D" fill="none" stroke-linecap="square" stroke-width="1"></path><path id="line_046f9436451a15e4" d="M 273 81.984375 C 319 81.984375 311 140.78125 349 140.78125 L 407 140.78125" p="5fd9ddc373197b8c" stroke="#AF9D7D" fill="none" stroke-linecap="square" stroke-width="1"></path><path id="line_092d1dbca40cf3a3" d="M 140 183.078125 C 186 183.078125 178 238.765625 216 238.765625 L 273 238.765625" p="3a0f4d8d8c28b63e" stroke="#AF9D7D" fill="none" stroke-linecap="square" stroke-width="1"></path><path id="line_d5932c3646ef15e2" d="M 273 238.765625 C 319 238.765625 311 179.9765625 349 179.9765625 L 446 179.9765625" p="092d1dbca40cf3a3" stroke="#AF9D7D" fill="none" stroke-linecap="square" stroke-width="1"></path><path id="line_7f53194447a0ef1d" d="M 273 238.765625 C 319 238.765625 311 219.171875 349 219.171875 L 429 219.171875" p="092d1dbca40cf3a3" stroke="#AF9D7D" fill="none" stroke-linecap="square" stroke-width="1"></path><path id="line_df632a2ab1e1e506" d="M 273 238.765625 C 319 238.765625 311 258.3671875 349 258.3671875 L 456 258.3671875" p="092d1dbca40cf3a3" stroke="#AF9D7D" fill="none" stroke-linecap="square" stroke-width="1"></path><path id="line_17807c1e65fd1ea7" d="M 273 238.765625 C 319 238.765625 311 297.5625 349 297.5625 L 432 297.5625" p="092d1dbca40cf3a3" stroke="#AF9D7D" fill="none" stroke-linecap="square" stroke-width="1"></path><path id="line_b2fb5bc8641a30ca" d="M 140 183.078125 C 186 183.078125 178 336.7578125 216 336.7578125 L 273 336.7578125" p="3a0f4d8d8c28b63e" stroke="#AF9D7D" fill="none" stroke-linecap="square" stroke-width="1"></path></g><g transform="translate(0.5,0.5)"></g><g class="svg-summary-con" transform="translate(0.5,0.5)"></g><g class="svg-boundary-con" transform="translate(0.5,0.5)"></g></g><g transform="translate(360, 30)" id="sdjakdjak4"><g id="subline_cc92c01a0e729f8f" transform="translate(0.5, 0.5)"><path id="line_880796c91fc7dac0" d="M 188 45.89453125 C 234 45.89453125 226 23.1953125 264 23.1953125 L 351 23.1953125" p="cc92c01a0e729f8f" stroke="#AF9D7D" fill="none" stroke-linecap="square" stroke-width="1"></path><path id="line_0b9fe680b82e699c" d="M 188 45.89453125 C 234 45.89453125 226 62.390625 264 62.390625 L 351 62.390625" p="cc92c01a0e729f8f" stroke="#AF9D7D" fill="none" stroke-linecap="square" stroke-width="1"></path></g><g transform="translate(0.5,0.5)"></g><g class="svg-summary-con" transform="translate(0.5,0.5)"></g><g class="svg-boundary-con" transform="translate(0.5,0.5)"></g></g><g transform="translate(30, 365)" id="sdjakdjak5"><g id="subline_root" transform="translate(0.5, 0.5)"></g><g transform="translate(0.5,0.5)"></g><g class="svg-summary-con" transform="translate(0.5,0.5)"></g><g class="svg-boundary-con" transform="translate(0.5,0.5)"></g></g><g id="root"><rect x="30" y="365" rx="2px" ry="2px" width="230" height="68" style="fill: #F2EBDD; stroke:#AF9D7D;stroke-width:1px;"></rect><g><text text-anchor="start" align="top" anchor="start" font-size="24px" font-weight="normal" fill="rgb(68, 68, 68)" style="font-size:24px;font-family:'Microsoft YaHei',微软雅黑,Arial;color:#444444;font-style:normal;text-align:left;font-weight:normal;"><tspan x="69" y="406"><tspan dx="0">MySQL锁家族</tspan></tspan></text></g></g></svg>