<svg id="SvgjsSvg1006" width="814.4958061509785" height="425.3960857409133" xmlns="http://www.w3.org/2000/svg" version="1.1" xmlns:xlink="http://www.w3.org/1999/xlink" xmlns:svgjs="http://svgjs.com/svgjs"><defs id="SvgjsDefs1007"><pattern patternUnits="userSpaceOnUse" id="pattern_mark_0" width="300" height="300"><text x="150" y="100" fill="rgba(229,229,229,0.8)" font-size="18" transform="rotate(-45, 150, 150)" style="dominant-baseline: middle; text-anchor: middle;"></text></pattern><pattern patternUnits="userSpaceOnUse" id="pattern_mark_1" width="300" height="300"><text x="150" y="200" fill="rgba(229,229,229,0.8)" font-size="18" transform="rotate(-45, 150, 150)" style="dominant-baseline: middle; text-anchor: middle;"></text></pattern><marker id="SvgjsMarker1087" markerWidth="13" markerHeight="9" refX="9.5" refY="4.5" viewBox="0 0 13 9" orient="auto" markerUnits="userSpaceOnUse" stroke-dasharray="0,0"><path id="SvgjsPath1088" d="M0,0 L13,4.5 L0,9 L0,0" fill="#323232" stroke="#323232" stroke-width="1"></path></marker><marker id="SvgjsMarker1115" markerWidth="13" markerHeight="9" refX="9.5" refY="4.5" viewBox="0 0 13 9" orient="auto" markerUnits="userSpaceOnUse" stroke-dasharray="0,0"><path id="SvgjsPath1116" d="M0,0 L13,4.5 L0,9 L0,0" fill="#323232" stroke="#323232" stroke-width="1"></path></marker><marker id="SvgjsMarker1119" markerWidth="13" markerHeight="9" refX="9.5" refY="4.5" viewBox="0 0 13 9" orient="auto" markerUnits="userSpaceOnUse" stroke-dasharray="0,0"><path id="SvgjsPath1120" d="M0,0 L13,4.5 L0,9 L0,0" fill="#323232" stroke="#323232" stroke-width="1"></path></marker><marker id="SvgjsMarker1123" markerWidth="13" markerHeight="9" refX="9.5" refY="4.5" viewBox="0 0 13 9" orient="auto" markerUnits="userSpaceOnUse" stroke-dasharray="0,0"><path id="SvgjsPath1124" d="M0,0 L13,4.5 L0,9 L0,0" fill="#323232" stroke="#323232" stroke-width="1"></path></marker><marker id="SvgjsMarker1127" markerWidth="13" markerHeight="9" refX="9.5" refY="4.5" viewBox="0 0 13 9" orient="auto" markerUnits="userSpaceOnUse" stroke-dasharray="0,0"><path id="SvgjsPath1128" d="M0,0 L13,4.5 L0,9 L0,0" fill="#323232" stroke="#323232" stroke-width="1"></path></marker><marker id="SvgjsMarker1131" markerWidth="13" markerHeight="9" refX="9.5" refY="4.5" viewBox="0 0 13 9" orient="auto" markerUnits="userSpaceOnUse" stroke-dasharray="0,0"><path id="SvgjsPath1132" d="M0,0 L13,4.5 L0,9 L0,0" fill="#323232" stroke="#323232" stroke-width="1"></path></marker><marker id="SvgjsMarker1135" markerWidth="13" markerHeight="9" refX="9.5" refY="4.5" viewBox="0 0 13 9" orient="auto" markerUnits="userSpaceOnUse" stroke-dasharray="0,0"><path id="SvgjsPath1136" d="M0,0 L13,4.5 L0,9 L0,0" fill="#323232" stroke="#323232" stroke-width="1"></path></marker><marker id="SvgjsMarker1139" markerWidth="13" markerHeight="9" refX="9.5" refY="4.5" viewBox="0 0 13 9" orient="auto" markerUnits="userSpaceOnUse" stroke-dasharray="0,0"><path id="SvgjsPath1140" d="M0,0 L13,4.5 L0,9 L0,0" fill="#323232" stroke="#323232" stroke-width="1"></path></marker><marker id="SvgjsMarker1151" markerWidth="13" markerHeight="9" refX="9.5" refY="4.5" viewBox="0 0 13 9" orient="auto" markerUnits="userSpaceOnUse" stroke-dasharray="0,0"><path id="SvgjsPath1152" d="M0,0 L13,4.5 L0,9 L0,0" fill="#323232" stroke="#323232" stroke-width="1"></path></marker><marker id="SvgjsMarker1163" markerWidth="13" markerHeight="9" refX="9.5" refY="4.5" viewBox="0 0 13 9" orient="auto" markerUnits="userSpaceOnUse" stroke-dasharray="0,0"><path id="SvgjsPath1164" d="M0,0 L13,4.5 L0,9 L0,0" fill="#323232" stroke="#323232" stroke-width="1"></path></marker></defs><rect id="svgbackgroundid" width="814.4958061509785" height="425.3960857409133" fill="transparent"></rect><rect id="SvgjsRect1009" width="814.4958061509785" height="425.3960857409133" fill="url(#pattern_mark_0)"></rect><rect id="SvgjsRect1010" width="814.4958061509785" height="425.3960857409133" fill="url(#pattern_mark_1)"></rect><g id="SvgjsG1011" transform="translate(25,25)"><path id="SvgjsPath1012" d="M 0 0L 764.2162162162163 0L 764.2162162162163 375.3960857409133L 0 375.3960857409133Z" stroke="rgba(33,41,48,1)" stroke-width="1.5" fill-opacity="1" fill="#fadcdb"></path><g id="SvgjsG1013"><text id="SvgjsText1014" font-family="&quot;Comic Sans MS&quot;" text-anchor="middle" font-size="13px" width="745px" fill="#323232" font-weight="400" align="middle" lineHeight="125%" anchor="middle" family="&quot;Comic Sans MS&quot;" size="13px" weight="400" font-style="" opacity="1" y="177.07304287045665" transform="rotate(0)"></text></g></g><g id="SvgjsG1015" transform="translate(33.45945945945948,112.20689655172413)"><path id="SvgjsPath1016" d="M 0 0L 100 0L 100 30L 0 30Z" stroke="rgba(33,41,48,1)" stroke-width="1.5" fill-opacity="1" fill="#f4b94c"></path><g id="SvgjsG1017"><text id="SvgjsText1018" font-family="&quot;Comic Sans MS&quot;" text-anchor="middle" font-size="13px" width="80px" fill="#323232" font-weight="400" align="middle" lineHeight="125%" anchor="middle" family="&quot;Comic Sans MS&quot;" size="13px" weight="400" font-style="" opacity="1" y="4.375" transform="rotate(0)"><tspan id="SvgjsTspan1019" dy="16.25" x="50"><tspan id="SvgjsTspan1020" style="">tot-bytes</tspan></tspan></text></g></g><g id="SvgjsG1021" transform="translate(133.45945945945948,112.20689655172413)"><path id="SvgjsPath1022" d="M 0 0L 100 0L 100 30L 0 30Z" stroke="rgba(33,41,48,1)" stroke-width="1.5" fill-opacity="1" fill="#e3bfe8"></path><g id="SvgjsG1023"><text id="SvgjsText1024" font-family="&quot;Comic Sans MS&quot;" text-anchor="middle" font-size="13px" width="80px" fill="#323232" font-weight="400" align="middle" lineHeight="125%" anchor="middle" family="&quot;Comic Sans MS&quot;" size="13px" weight="400" font-style="" opacity="1" y="4.375" transform="rotate(0)"><tspan id="SvgjsTspan1025" dy="16.25" x="50"><tspan id="SvgjsTspan1026" style="">size</tspan></tspan></text></g></g><g id="SvgjsG1027" transform="translate(233.45945945945948,112.20689655172413)"><path id="SvgjsPath1028" d="M 0 0L 100 0L 100 30L 0 30Z" stroke="rgba(33,41,48,1)" stroke-width="1.5" fill-opacity="1" fill="#b3ecf3"></path><g id="SvgjsG1029"><text id="SvgjsText1030" font-family="&quot;Comic Sans MS&quot;" text-anchor="middle" font-size="13px" width="80px" fill="#323232" font-weight="400" align="middle" lineHeight="125%" anchor="middle" family="&quot;Comic Sans MS&quot;" size="13px" weight="400" font-style="" opacity="1" y="4.375" transform="rotate(0)"><tspan id="SvgjsTspan1031" dy="16.25" x="50"><tspan id="SvgjsTspan1032" style="">entry</tspan></tspan></text></g></g><g id="SvgjsG1033" transform="translate(333.4594594594595,112.20689655172413)"><path id="SvgjsPath1034" d="M 0 0L 100 0L 100 30L 0 30Z" stroke="rgba(33,41,48,1)" stroke-width="1.5" fill-opacity="1" fill="#b3ecf3"></path><g id="SvgjsG1035"><text id="SvgjsText1036" font-family="&quot;Comic Sans MS&quot;" text-anchor="middle" font-size="13px" width="80px" fill="#323232" font-weight="400" align="middle" lineHeight="125%" anchor="middle" family="&quot;Comic Sans MS&quot;" size="13px" weight="400" font-style="" opacity="1" y="4.375" transform="rotate(0)"><tspan id="SvgjsTspan1037" dy="16.25" x="50"><tspan id="SvgjsTspan1038" style="">entry</tspan></tspan></text></g></g><g id="SvgjsG1039" transform="translate(433.4594594594595,112.20689655172413)"><path id="SvgjsPath1040" d="M 0 0L 100 0L 100 30L 0 30Z" stroke="rgba(33,41,48,1)" stroke-width="1.5" fill-opacity="1" fill="#b3ecf3"></path><g id="SvgjsG1041"><text id="SvgjsText1042" font-family="&quot;Comic Sans MS&quot;" text-anchor="middle" font-size="13px" width="80px" fill="#323232" font-weight="400" align="middle" lineHeight="125%" anchor="middle" family="&quot;Comic Sans MS&quot;" size="13px" weight="400" font-style="" opacity="1" y="4.375" transform="rotate(0)"><tspan id="SvgjsTspan1043" dy="16.25" x="50"><tspan id="SvgjsTspan1044" style="">entry</tspan></tspan></text></g></g><g id="SvgjsG1045" transform="translate(533.4594594594595,112.20689655172413)"><path id="SvgjsPath1046" d="M 0 0L 100 0L 100 30L 0 30Z" stroke="rgba(33,41,48,1)" stroke-width="1.5" fill-opacity="1" fill="#b3ecf3"></path><g id="SvgjsG1047"><text id="SvgjsText1048" font-family="&quot;Comic Sans MS&quot;" text-anchor="middle" font-size="13px" width="80px" fill="#323232" font-weight="400" align="middle" lineHeight="125%" anchor="middle" family="&quot;Comic Sans MS&quot;" size="13px" weight="400" font-style="" opacity="1" y="4.375" transform="rotate(0)"><tspan id="SvgjsTspan1049" dy="16.25" x="50"><tspan id="SvgjsTspan1050" style="">......</tspan></tspan></text></g></g><g id="SvgjsG1051" transform="translate(633.4594594594595,112.20689655172413)"><path id="SvgjsPath1052" d="M 0 0L 100 0L 100 30L 0 30Z" stroke="rgba(33,41,48,1)" stroke-width="1.5" fill-opacity="1" fill="#b3ecf3"></path><g id="SvgjsG1053"><text id="SvgjsText1054" font-family="&quot;Comic Sans MS&quot;" text-anchor="middle" font-size="13px" width="80px" fill="#323232" font-weight="400" align="middle" lineHeight="125%" anchor="middle" family="&quot;Comic Sans MS&quot;" size="13px" weight="400" font-style="" opacity="1" y="4.375" transform="rotate(0)"><tspan id="SvgjsTspan1055" dy="16.25" x="50"><tspan id="SvgjsTspan1056" style="">end</tspan></tspan></text></g></g><g id="SvgjsG1057" transform="translate(378.27764127764135,239.2978056426332)"><path id="SvgjsPath1058" d="M 0 4Q 0 0 4 0L 106 0Q 110 0 110 4L 110 145Q 110 149 106 149L 4 149Q 0 149 0 145Z" stroke="rgba(33,41,48,1)" stroke-width="1.5" fill-opacity="1" fill="#f1e4a2"></path><g id="SvgjsG1059"><text id="SvgjsText1060" font-family="&quot;Comic Sans MS&quot;" text-anchor="middle" font-size="13px" width="90px" fill="#323232" font-weight="400" align="middle" lineHeight="125%" anchor="middle" family="&quot;Comic Sans MS&quot;" size="13px" weight="400" font-style="" opacity="1" y="63.875" transform="rotate(0)"></text></g></g><g id="SvgjsG1061" transform="translate(388.27764127764135,270.2978056426332)"><path id="SvgjsPath1062" d="M 0 4Q 0 0 4 0L 86 0Q 90 0 90 4L 90 26Q 90 30 86 30L 4 30Q 0 30 0 26Z" stroke="rgba(33,41,48,1)" stroke-width="1.5" fill-opacity="1" fill="#b7eaeb"></path><g id="SvgjsG1063"><text id="SvgjsText1064" font-family="&quot;Comic Sans MS&quot;" text-anchor="middle" font-size="13px" width="70px" fill="#323232" font-weight="400" align="middle" lineHeight="125%" anchor="middle" family="&quot;Comic Sans MS&quot;" size="13px" weight="400" font-style="" opacity="1" y="4.375" transform="rotate(0)"><tspan id="SvgjsTspan1065" dy="16.25" x="45"><tspan id="SvgjsTspan1066" style="">encoding</tspan></tspan></text></g></g><g id="SvgjsG1067" transform="translate(388.27764127764135,310.7978056426332)"><path id="SvgjsPath1068" d="M 0 4Q 0 0 4 0L 86 0Q 90 0 90 4L 90 26Q 90 30 86 30L 4 30Q 0 30 0 26Z" stroke="rgba(33,41,48,1)" stroke-width="1.5" fill-opacity="1" fill="#b7eaeb"></path><g id="SvgjsG1069"><text id="SvgjsText1070" font-family="&quot;Comic Sans MS&quot;" text-anchor="middle" font-size="13px" width="70px" fill="#323232" font-weight="400" align="middle" lineHeight="125%" anchor="middle" family="&quot;Comic Sans MS&quot;" size="13px" weight="400" font-style="" opacity="1" y="4.375" transform="rotate(0)"><tspan id="SvgjsTspan1071" dy="16.25" x="45"><tspan id="SvgjsTspan1072" style="">content</tspan></tspan></text></g></g><g id="SvgjsG1073" transform="translate(388.27764127764135,351.2978056426332)"><path id="SvgjsPath1074" d="M 0 4Q 0 0 4 0L 86 0Q 90 0 90 4L 90 26Q 90 30 86 30L 4 30Q 0 30 0 26Z" stroke="rgba(33,41,48,1)" stroke-width="1.5" fill-opacity="1" fill="#b7eaeb"></path><g id="SvgjsG1075"><text id="SvgjsText1076" font-family="&quot;Comic Sans MS&quot;" text-anchor="middle" font-size="13px" width="70px" fill="#323232" font-weight="400" align="middle" lineHeight="125%" anchor="middle" family="&quot;Comic Sans MS&quot;" size="13px" weight="400" font-style="" opacity="1" y="4.375" transform="rotate(0)"><tspan id="SvgjsTspan1077" dy="16.25" x="45"><tspan id="SvgjsTspan1078" style="">lenth</tspan></tspan></text></g></g><g id="SvgjsG1079" transform="translate(383.27764127764135,236.2978056426332)"><path id="SvgjsPath1080" d="M 0 0L 100 0L 100 40L 0 40Z" stroke="none" fill="none"></path><g id="SvgjsG1081"><text id="SvgjsText1082" font-family="&quot;Comic Sans MS&quot;" text-anchor="middle" font-size="13px" width="100px" fill="#323232" font-weight="400" align="middle" lineHeight="125%" anchor="middle" family="&quot;Comic Sans MS&quot;" size="13px" weight="400" font-style="" opacity="1" y="9.375" transform="rotate(0)"><tspan id="SvgjsTspan1083" dy="16.25" x="50"><tspan id="SvgjsTspan1084" style="">entry 结构</tspan></tspan></text></g></g><g id="SvgjsG1085"><path id="SvgjsPath1086" d="M479.02754529606943 285.309804106928L526.3278908297284 286.06660963546653" stroke="#323232" stroke-width="1.5" fill="none" marker-end="url(#SvgjsMarker1087)"></path></g><g id="SvgjsG1089" transform="translate(528.2776412776414,276.29780564263314)"><path id="SvgjsPath1090" d="M 0 0L 174.5454545454544 0L 190.5454545454544 16L 190.5454545454544 20L 0 20L 0 0Z" stroke="none" fill-opacity="1" fill="#fff7bc"></path><path id="SvgjsPath1091" d="M 174.5454545454544 0L 174.5454545454544 16L 190.5454545454544 16Z" stroke="none" fill-opacity="1" fill="#e4d089"></path><path id="SvgjsPath1092" d="M 0 0L 174.5454545454544 0L 190.5454545454544 16L 190.5454545454544 20L 0 20L 0 0Z" stroke="none" fill="none"></path><g id="SvgjsG1093"><text id="SvgjsText1094" font-family="&quot;Comic Sans MS&quot;" text-anchor="middle" font-size="13px" width="171px" fill="#323232" font-weight="400" align="middle" lineHeight="125%" anchor="middle" family="&quot;Comic Sans MS&quot;" size="13px" weight="400" font-style="" opacity="1" y="-0.625" transform="rotate(0)"><tspan id="SvgjsTspan1095" dy="16.25" x="95.5"><tspan id="SvgjsTspan1096" style="">记录 content 的类型和长度</tspan></tspan></text></g></g><g id="SvgjsG1097" transform="translate(528.2776412776414,315.79780564263314)"><path id="SvgjsPath1098" d="M 0 0L 174.5454545454544 0L 190.5454545454544 16L 190.5454545454544 20L 0 20L 0 0Z" stroke="none" fill-opacity="1" fill="#fff7bc"></path><path id="SvgjsPath1099" d="M 174.5454545454544 0L 174.5454545454544 16L 190.5454545454544 16Z" stroke="none" fill-opacity="1" fill="#e4d089"></path><path id="SvgjsPath1100" d="M 0 0L 174.5454545454544 0L 190.5454545454544 16L 190.5454545454544 20L 0 20L 0 0Z" stroke="none" fill="none"></path><g id="SvgjsG1101"><text id="SvgjsText1102" font-family="&quot;Comic Sans MS&quot;" text-anchor="middle" font-size="13px" width="171px" fill="#323232" font-weight="400" align="middle" lineHeight="125%" anchor="middle" family="&quot;Comic Sans MS&quot;" size="13px" weight="400" font-style="" opacity="1" y="-0.625" transform="rotate(0)"><tspan id="SvgjsTspan1103" dy="16.25" x="95.5"><tspan id="SvgjsTspan1104" style="">实际数据</tspan></tspan></text></g></g><g id="SvgjsG1105" transform="translate(528.2776412776414,356.29780564263314)"><path id="SvgjsPath1106" d="M 0 0L 174.5454545454544 0L 190.5454545454544 16L 190.5454545454544 20L 0 20L 0 0Z" stroke="none" fill-opacity="1" fill="#fff7bc"></path><path id="SvgjsPath1107" d="M 174.5454545454544 0L 174.5454545454544 16L 190.5454545454544 16Z" stroke="none" fill-opacity="1" fill="#e4d089"></path><path id="SvgjsPath1108" d="M 0 0L 174.5454545454544 0L 190.5454545454544 16L 190.5454545454544 20L 0 20L 0 0Z" stroke="none" fill="none"></path><g id="SvgjsG1109"><text id="SvgjsText1110" font-family="&quot;Comic Sans MS&quot;" text-anchor="middle" font-size="13px" width="171px" fill="#323232" font-weight="400" align="middle" lineHeight="125%" anchor="middle" family="&quot;Comic Sans MS&quot;" size="13px" weight="400" font-style="" opacity="1" y="-0.625" transform="rotate(0)"><tspan id="SvgjsTspan1111" dy="16.25" x="95.5"><tspan id="SvgjsTspan1112" style="">encoding + content 总长度</tspan></tspan></text></g></g><g id="SvgjsG1113"><path id="SvgjsPath1114" d="M479.02764127764135 325.7978056426332L526.3276412776413 325.79780564263314" stroke="#323232" stroke-width="1.5" fill="none" marker-end="url(#SvgjsMarker1115)"></path></g><g id="SvgjsG1117"><path id="SvgjsPath1118" d="M479.02764127764135 366.29780564263314L526.3276412776413 366.2978056426331" stroke="#323232" stroke-width="1.5" fill="none" marker-end="url(#SvgjsMarker1119)"></path></g><g id="SvgjsG1121"><path id="SvgjsPath1122" d="M284.09459062146107 142.605780503588L430.9911690944357 234.8618234159233" stroke="#323232" stroke-width="1.5" fill="none" marker-end="url(#SvgjsMarker1123)"></path></g><g id="SvgjsG1125"><path id="SvgjsPath1126" d="M383.81040467371605 142.86972191076705L432.0142385063177 233.91163435007854" stroke="#323232" stroke-width="1.5" fill="none" marker-end="url(#SvgjsMarker1127)"></path></g><g id="SvgjsG1129"><path id="SvgjsPath1130" d="M483.1065182829889 142.8686612576065L434.54822951293545 233.91545270145673" stroke="#323232" stroke-width="1.5" fill="none" marker-end="url(#SvgjsMarker1131)"></path></g><g id="SvgjsG1133"><path id="SvgjsPath1134" d="M582.8238933830681 142.60508716253827L435.5656791526501 234.8643194437022" stroke="#323232" stroke-width="1.5" fill="none" marker-end="url(#SvgjsMarker1135)"></path></g><g id="SvgjsG1137"><path id="SvgjsPath1138" d="M83.83181586287105 111.55585837401225C 83.45945945945948 94.57029861513615 115.6867321867322 99.75258539740301 114.71860553786212 83.8086867228659" stroke="#323232" stroke-width="1.5" fill="none" marker-end="url(#SvgjsMarker1139)"></path></g><g id="SvgjsG1141" transform="translate(33.45945945945948,62.115987460815035)"><path id="SvgjsPath1142" d="M 0 0L 148.45454545454544 0L 164.45454545454544 16L 164.45454545454544 20L 0 20L 0 0Z" stroke="none" fill-opacity="1" fill="#fff7bc"></path><path id="SvgjsPath1143" d="M 148.45454545454544 0L 148.45454545454544 16L 164.45454545454544 16Z" stroke="none" fill-opacity="1" fill="#e4d089"></path><path id="SvgjsPath1144" d="M 0 0L 148.45454545454544 0L 164.45454545454544 16L 164.45454545454544 20L 0 20L 0 0Z" stroke="none" fill="none"></path><g id="SvgjsG1145"><text id="SvgjsText1146" font-family="&quot;Comic Sans MS&quot;" text-anchor="middle" font-size="13px" width="145px" fill="#323232" font-weight="400" align="middle" lineHeight="125%" anchor="middle" family="&quot;Comic Sans MS&quot;" size="13px" weight="400" font-style="" opacity="1" y="-0.625" transform="rotate(0)"><tspan id="SvgjsTspan1147" dy="16.25" x="82.5"><tspan id="SvgjsTspan1148" style="">整个列表占用字节数</tspan></tspan></text></g></g><g id="SvgjsG1149"><path id="SvgjsPath1150" d="M183.68906735474712 111.49290760613633C 183.45945945945948 68.72593082917734 287.9140049140049 125.59695318336185 287.3170243862571 83.97235871934333" stroke="#323232" stroke-width="1.5" fill="none" marker-end="url(#SvgjsMarker1151)"></path></g><g id="SvgjsG1153" transform="translate(237.91400491400492,62.115987460815035)"><path id="SvgjsPath1154" d="M 0 0L 84 0L 100 16L 100 20L 0 20L 0 0Z" stroke="none" fill-opacity="1" fill="#fff7bc"></path><path id="SvgjsPath1155" d="M 84 0L 84 16L 100 16Z" stroke="none" fill-opacity="1" fill="#e4d089"></path><path id="SvgjsPath1156" d="M 0 0L 84 0L 100 16L 100 20L 0 20L 0 0Z" stroke="none" fill="none"></path><g id="SvgjsG1157"><text id="SvgjsText1158" font-family="&quot;Comic Sans MS&quot;" text-anchor="middle" font-size="13px" width="80px" fill="#323232" font-weight="400" align="middle" lineHeight="125%" anchor="middle" family="&quot;Comic Sans MS&quot;" size="13px" weight="400" font-style="" opacity="1" y="-0.625" transform="rotate(0)"><tspan id="SvgjsTspan1159" dy="16.25" x="50"><tspan id="SvgjsTspan1160" style="">元素个数</tspan></tspan></text></g></g><g id="SvgjsG1161"><path id="SvgjsPath1162" d="M683.3192624260113 111.47011653583587C 683.4594594594595 93.41699245756311 668.8230958230957 86.36043700952149 669.1876081100611 69.48616095666998" stroke="#323232" stroke-width="1.5" fill="none" marker-end="url(#SvgjsMarker1163)"></path></g><g id="SvgjsG1165" transform="translate(618.8230958230957,47.570532915360474)"><path id="SvgjsPath1166" d="M 0 0L 84 0L 100 16L 100 20L 0 20L 0 0Z" stroke="none" fill-opacity="1" fill="#fff7bc"></path><path id="SvgjsPath1167" d="M 84 0L 84 16L 100 16Z" stroke="none" fill-opacity="1" fill="#e4d089"></path><path id="SvgjsPath1168" d="M 0 0L 84 0L 100 16L 100 20L 0 20L 0 0Z" stroke="none" fill="none"></path><g id="SvgjsG1169"><text id="SvgjsText1170" font-family="&quot;Comic Sans MS&quot;" text-anchor="middle" font-size="13px" width="80px" fill="#323232" font-weight="400" align="middle" lineHeight="125%" anchor="middle" family="&quot;Comic Sans MS&quot;" size="13px" weight="400" font-style="" opacity="1" y="-0.625" transform="rotate(0)"><tspan id="SvgjsTspan1171" dy="16.25" x="50"><tspan id="SvgjsTspan1172" style="">结尾标识</tspan></tspan></text></g></g><g id="SvgjsG1173" transform="translate(647.2525629077353,25.327543844785254)"><path id="SvgjsPath1174" d="M 0 0L 142.24324324324323 0L 142.24324324324323 20L 0 20Z" stroke="rgba(33,41,48,1)" stroke-width="1.5" fill-opacity="1" fill="#ffffff"></path><g id="SvgjsG1175"><text id="SvgjsText1176" font-family="&quot;Comic Sans MS&quot;" text-anchor="middle" font-size="13px" width="123px" fill="#323232" font-weight="400" align="middle" lineHeight="125%" anchor="middle" family="&quot;Comic Sans MS&quot;" size="13px" weight="400" font-style="" opacity="1" y="-0.625" transform="rotate(0)"><tspan id="SvgjsTspan1177" dy="16.25" x="71.5"><tspan id="SvgjsTspan1178" style="">listpack底层结构</tspan></tspan></text></g></g></svg>