<svg id="SvgjsSvg1194" width="1004" height="428" xmlns="http://www.w3.org/2000/svg" version="1.1" xmlns:xlink="http://www.w3.org/1999/xlink" xmlns:svgjs="http://svgjs.com/svgjs"><defs id="SvgjsDefs1195"><pattern patternUnits="userSpaceOnUse" id="pattern_mark_0" width="300" height="300"><text x="150" y="100" fill="rgba(202,225,190,0.8)" font-size="18" transform="rotate(-45, 150, 150)" style="dominant-baseline: middle; text-anchor: middle;"></text></pattern><pattern patternUnits="userSpaceOnUse" id="pattern_mark_1" width="300" height="300"><text x="150" y="200" fill="rgba(202,225,190,0.8)" font-size="18" transform="rotate(-45, 150, 150)" style="dominant-baseline: middle; text-anchor: middle;"></text></pattern><pattern id="SvgjsPattern1249" x="0" y="0" width="70" height="70" patternUnits="userSpaceOnUse"><image id="SvgjsImage1250" xlink:href="https://iconsapi.com/5ee26338e4b0b788a932b241.svg" width="70" height="70" preserveAspectRatio="none" crossOrigin="anonymous" x="0" y="0"></image></pattern><pattern id="SvgjsPattern1253" x="0" y="0" width="70" height="70" patternUnits="userSpaceOnUse"><image id="SvgjsImage1254" xlink:href="https://iconsapi.com/5ee26338e4b0b788a932b241.svg" width="70" height="70" preserveAspectRatio="none" crossOrigin="anonymous" x="0" y="0"></image></pattern><pattern id="SvgjsPattern1265" x="0" y="0" width="70" height="70" patternUnits="userSpaceOnUse"><image id="SvgjsImage1266" xlink:href="https://iconsapi.com/5ee26338e4b0b788a932b241.svg" width="70" height="70" preserveAspectRatio="none" crossOrigin="anonymous" x="0" y="0"></image></pattern><pattern id="SvgjsPattern1269" x="0" y="0" width="70" height="70" patternUnits="userSpaceOnUse"><image id="SvgjsImage1270" xlink:href="https://iconsapi.com/5ee26338e4b0b788a932b241.svg" width="70" height="70" preserveAspectRatio="none" crossOrigin="anonymous" x="0" y="0"></image></pattern></defs><rect id="svgbackgroundid" width="1004" height="428" fill="#e1fad4"></rect><rect id="SvgjsRect1197" width="1004" height="428" fill="url(#pattern_mark_0)"></rect><rect id="SvgjsRect1198" width="1004" height="428" fill="url(#pattern_mark_1)"></rect><g id="SvgjsG1199" transform="translate(25,145)"><path id="SvgjsPath1200" d="M 0 4Q 0 0 4 0L 92 0Q 96 0 96 4L 96 50Q 96 54 92 54L 4 54Q 0 54 0 50Z" stroke="rgba(202,188,130,1)" stroke-width="1.5" fill-opacity="1" fill="#fcf3d3"></path><g id="SvgjsG1201"><text id="SvgjsText1202" font-family="&quot;Microsoft YaHei&quot;, 微软雅黑, Arial" text-anchor="middle" font-size="13px" width="76px" fill="#323232" font-weight="400" align="middle" lineHeight="125%" anchor="middle" family="&quot;Microsoft YaHei&quot;, 微软雅黑, Arial" size="13px" weight="400" font-style="" opacity="1" y="16.375" transform="rotate(0)"><tspan id="SvgjsTspan1203" dy="16.25" x="48"><tspan id="SvgjsTspan1204" style="">MySQL</tspan></tspan></text></g></g><g id="SvgjsG1205" transform="translate(321,301)"><path id="SvgjsPath1206" d="M 0 4Q 0 0 4 0L 92 0Q 96 0 96 4L 96 50Q 96 54 92 54L 4 54Q 0 54 0 50Z" stroke="rgba(202,188,130,1)" stroke-width="1.5" fill-opacity="1" fill="#fcf3d3"></path><g id="SvgjsG1207"><text id="SvgjsText1208" font-family="&quot;Microsoft YaHei&quot;, 微软雅黑, Arial" text-anchor="middle" font-size="13px" width="76px" fill="#323232" font-weight="400" align="middle" lineHeight="125%" anchor="middle" family="&quot;Microsoft YaHei&quot;, 微软雅黑, Arial" size="13px" weight="400" font-style="" opacity="1" y="16.375" transform="rotate(0)"><tspan id="SvgjsTspan1209" dy="16.25" x="48"><tspan id="SvgjsTspan1210" style="">MySQL-主</tspan></tspan></text></g></g><g id="SvgjsG1211" transform="translate(321,145)"><path id="SvgjsPath1212" d="M 0 4Q 0 0 4 0L 92 0Q 96 0 96 4L 96 50Q 96 54 92 54L 4 54Q 0 54 0 50Z" stroke="rgba(202,188,130,1)" stroke-width="1.5" fill-opacity="1" fill="#fcf3d3"></path><g id="SvgjsG1213"><text id="SvgjsText1214" font-family="&quot;Microsoft YaHei&quot;, 微软雅黑, Arial" text-anchor="middle" font-size="13px" width="76px" fill="#323232" font-weight="400" align="middle" lineHeight="125%" anchor="middle" family="&quot;Microsoft YaHei&quot;, 微软雅黑, Arial" size="13px" weight="400" font-style="" opacity="1" y="16.375" transform="rotate(0)"><tspan id="SvgjsTspan1215" dy="16.25" x="48"><tspan id="SvgjsTspan1216" style="">MySQL</tspan></tspan></text></g></g><g id="SvgjsG1217" transform="translate(883,299)"><path id="SvgjsPath1218" d="M 0 4Q 0 0 4 0L 92 0Q 96 0 96 4L 96 50Q 96 54 92 54L 4 54Q 0 54 0 50Z" stroke="rgba(202,188,130,1)" stroke-width="1.5" fill-opacity="1" fill="#fcf3d3"></path><g id="SvgjsG1219"><text id="SvgjsText1220" font-family="&quot;Microsoft YaHei&quot;, 微软雅黑, Arial" text-anchor="middle" font-size="13px" width="76px" fill="#323232" font-weight="400" align="middle" lineHeight="125%" anchor="middle" family="&quot;Microsoft YaHei&quot;, 微软雅黑, Arial" size="13px" weight="400" font-style="" opacity="1" y="16.375" transform="rotate(0)"><tspan id="SvgjsTspan1221" dy="16.25" x="48"><tspan id="SvgjsTspan1222" style="">MySQL-从</tspan></tspan></text></g></g><g id="SvgjsG1223" transform="translate(587,299)"><path id="SvgjsPath1224" d="M 0 4Q 0 0 4 0L 92 0Q 96 0 96 4L 96 50Q 96 54 92 54L 4 54Q 0 54 0 50Z" stroke="rgba(202,188,130,1)" stroke-width="1.5" fill-opacity="1" fill="#fcf3d3"></path><g id="SvgjsG1225"><text id="SvgjsText1226" font-family="&quot;Microsoft YaHei&quot;, 微软雅黑, Arial" text-anchor="middle" font-size="13px" width="76px" fill="#323232" font-weight="400" align="middle" lineHeight="125%" anchor="middle" family="&quot;Microsoft YaHei&quot;, 微软雅黑, Arial" size="13px" weight="400" font-style="" opacity="1" y="16.375" transform="rotate(0)"><tspan id="SvgjsTspan1227" dy="16.25" x="48"><tspan id="SvgjsTspan1228" style="">MySQL-主</tspan></tspan></text></g></g><g id="SvgjsG1229" transform="translate(883,145)"><path id="SvgjsPath1230" d="M 0 4Q 0 0 4 0L 92 0Q 96 0 96 4L 96 50Q 96 54 92 54L 4 54Q 0 54 0 50Z" stroke="rgba(202,188,130,1)" stroke-width="1.5" fill-opacity="1" fill="#fcf3d3"></path><g id="SvgjsG1231"><text id="SvgjsText1232" font-family="&quot;Microsoft YaHei&quot;, 微软雅黑, Arial" text-anchor="middle" font-size="13px" width="76px" fill="#323232" font-weight="400" align="middle" lineHeight="125%" anchor="middle" family="&quot;Microsoft YaHei&quot;, 微软雅黑, Arial" size="13px" weight="400" font-style="" opacity="1" y="16.375" transform="rotate(0)"><tspan id="SvgjsTspan1233" dy="16.25" x="48"><tspan id="SvgjsTspan1234" style="">MySQL-备</tspan></tspan></text></g></g><g id="SvgjsG1235" transform="translate(25,301)"><path id="SvgjsPath1236" d="M 0 4Q 0 0 4 0L 92 0Q 96 0 96 4L 96 50Q 96 54 92 54L 4 54Q 0 54 0 50Z" stroke="rgba(202,188,130,1)" stroke-width="1.5" fill-opacity="1" fill="#fcf3d3"></path><g id="SvgjsG1237"><text id="SvgjsText1238" font-family="&quot;Microsoft YaHei&quot;, 微软雅黑, Arial" text-anchor="middle" font-size="13px" width="76px" fill="#323232" font-weight="400" align="middle" lineHeight="125%" anchor="middle" family="&quot;Microsoft YaHei&quot;, 微软雅黑, Arial" size="13px" weight="400" font-style="" opacity="1" y="16.375" transform="rotate(0)"><tspan id="SvgjsTspan1239" dy="16.25" x="48"><tspan id="SvgjsTspan1240" style="">MySQL-主</tspan></tspan></text></g></g><g id="SvgjsG1241" transform="translate(587,145)"><path id="SvgjsPath1242" d="M 0 4Q 0 0 4 0L 92 0Q 96 0 96 4L 96 50Q 96 54 92 54L 4 54Q 0 54 0 50Z" stroke="rgba(202,188,130,1)" stroke-width="1.5" fill-opacity="1" fill="#fcf3d3"></path><g id="SvgjsG1243"><text id="SvgjsText1244" font-family="&quot;Microsoft YaHei&quot;, 微软雅黑, Arial" text-anchor="middle" font-size="13px" width="76px" fill="#323232" font-weight="400" align="middle" lineHeight="125%" anchor="middle" family="&quot;Microsoft YaHei&quot;, 微软雅黑, Arial" size="13px" weight="400" font-style="" opacity="1" y="16.375" transform="rotate(0)"><tspan id="SvgjsTspan1245" dy="16.25" x="48"><tspan id="SvgjsTspan1246" style="">MySQL-主</tspan></tspan></text></g></g><g id="SvgjsG1247" transform="translate(186,139)"><path id="SvgjsPath1248" d="M 0 0L 70 0L 70 70L 0 70Z" stroke="none" fill="url(#SvgjsPattern1249)"></path></g><g id="SvgjsG1251" transform="translate(186,293)"><path id="SvgjsPath1252" d="M 0 0L 70 0L 70 70L 0 70Z" stroke="none" fill="url(#SvgjsPattern1253)"></path></g><g id="SvgjsG1255" transform="translate(131,164)"><path id="SvgjsPath1256" d="M 0 6.6000000000000005L 45 6.6000000000000005L 45 0L 55 10L 45 20L 45 13.4L 0 13.4L 0 6.6000000000000005Z" stroke="rgba(190,176,153,1)" stroke-width="1.5" fill-opacity="1" fill="#f3d7d1"></path><g id="SvgjsG1257"><text id="SvgjsText1258" font-family="&quot;Microsoft YaHei&quot;, 微软雅黑, Arial" text-anchor="middle" font-size="13px" width="55px" fill="#323232" font-weight="400" align="middle" lineHeight="125%" anchor="middle" family="&quot;Microsoft YaHei&quot;, 微软雅黑, Arial" size="13px" weight="400" font-style="" opacity="1" y="-0.6249999999999991" transform="rotate(0)"></text></g></g><g id="SvgjsG1259" transform="translate(256,164)"><path id="SvgjsPath1260" d="M 0 6.6000000000000005L 45 6.6000000000000005L 45 0L 55 10L 45 20L 45 13.4L 0 13.4L 0 6.6000000000000005Z" stroke="rgba(190,176,153,1)" stroke-width="1.5" fill-opacity="1" fill="#f3d7d1"></path><g id="SvgjsG1261"><text id="SvgjsText1262" font-family="&quot;Microsoft YaHei&quot;, 微软雅黑, Arial" text-anchor="middle" font-size="13px" width="55px" fill="#323232" font-weight="400" align="middle" lineHeight="125%" anchor="middle" family="&quot;Microsoft YaHei&quot;, 微软雅黑, Arial" size="13px" weight="400" font-style="" opacity="1" y="-0.6249999999999991" transform="rotate(0)"></text></g></g><g id="SvgjsG1263" transform="translate(748,139)"><path id="SvgjsPath1264" d="M 0 0L 70 0L 70 70L 0 70Z" stroke="none" fill="url(#SvgjsPattern1265)"></path></g><g id="SvgjsG1267" transform="translate(748,293)"><path id="SvgjsPath1268" d="M 0 0L 70 0L 70 70L 0 70Z" stroke="none" fill="url(#SvgjsPattern1269)"></path></g><g id="SvgjsG1271" transform="translate(693,164)"><path id="SvgjsPath1272" d="M 0 6.6000000000000005L 45 6.6000000000000005L 45 0L 55 10L 45 20L 45 13.4L 0 13.4L 0 6.6000000000000005Z" stroke="rgba(190,176,153,1)" stroke-width="1.5" fill-opacity="1" fill="#f3d7d1"></path><g id="SvgjsG1273"><text id="SvgjsText1274" font-family="&quot;Microsoft YaHei&quot;, 微软雅黑, Arial" text-anchor="middle" font-size="13px" width="55px" fill="#323232" font-weight="400" align="middle" lineHeight="125%" anchor="middle" family="&quot;Microsoft YaHei&quot;, 微软雅黑, Arial" size="13px" weight="400" font-style="" opacity="1" y="-0.6249999999999991" transform="rotate(0)"></text></g></g><g id="SvgjsG1275" transform="matrix(-1,1.2246467991473532e-16,-1.2246467991473532e-16,-1,873,184)"><path id="SvgjsPath1276" d="M 0 6.6000000000000005L 45 6.6000000000000005L 45 0L 55 10L 45 20L 45 13.4L 0 13.4L 0 6.6000000000000005Z" stroke="rgba(190,176,153,1)" stroke-width="1.5" fill-opacity="1" fill="#f3d7d1"></path><g id="SvgjsG1277"><text id="SvgjsText1278" font-family="&quot;Microsoft YaHei&quot;, 微软雅黑, Arial" text-anchor="middle" font-size="13px" width="55px" fill="#323232" font-weight="400" align="middle" lineHeight="125%" anchor="middle" family="&quot;Microsoft YaHei&quot;, 微软雅黑, Arial" size="13px" weight="400" font-style="" opacity="1" y="-0.6249999999999991" transform="rotate(0)"></text></g></g><g id="SvgjsG1279" transform="matrix(-1,1.2246467991473532e-16,-1.2246467991473532e-16,-1,875,339)"><path id="SvgjsPath1280" d="M 0 6.6000000000000005L 45 6.6000000000000005L 45 0L 55 10L 45 20L 45 13.4L 0 13.4L 0 6.6000000000000005Z" stroke="rgba(190,176,153,1)" stroke-width="1.5" fill-opacity="1" fill="#f3d7d1"></path><g id="SvgjsG1281"><text id="SvgjsText1282" font-family="&quot;Microsoft YaHei&quot;, 微软雅黑, Arial" text-anchor="middle" font-size="13px" width="55px" fill="#323232" font-weight="400" align="middle" lineHeight="125%" anchor="middle" family="&quot;Microsoft YaHei&quot;, 微软雅黑, Arial" size="13px" weight="400" font-style="" opacity="1" y="-0.6249999999999991" transform="rotate(0)"></text></g></g><g id="SvgjsG1283" transform="translate(693,318)"><path id="SvgjsPath1284" d="M 0 6.6000000000000005L 45 6.6000000000000005L 45 0L 55 10L 45 20L 45 13.4L 0 13.4L 0 6.6000000000000005Z" stroke="rgba(190,176,153,1)" stroke-width="1.5" fill-opacity="1" fill="#f3d7d1"></path><g id="SvgjsG1285"><text id="SvgjsText1286" font-family="&quot;Microsoft YaHei&quot;, 微软雅黑, Arial" text-anchor="middle" font-size="13px" width="55px" fill="#323232" font-weight="400" align="middle" lineHeight="125%" anchor="middle" family="&quot;Microsoft YaHei&quot;, 微软雅黑, Arial" size="13px" weight="400" font-style="" opacity="1" y="-0.6249999999999991" transform="rotate(0)"></text></g></g><g id="SvgjsG1287" transform="translate(131,318)"><path id="SvgjsPath1288" d="M 0 10L 10 0L 10 6.6000000000000005L 45 6.6000000000000005L 45 0L 55 10L 45 20L 45 13.4L 10 13.4L 10 20L 0 10Z" stroke="rgba(175,194,192,1)" stroke-width="1.5" fill-opacity="1" fill="#e2ecff"></path><g id="SvgjsG1289"><text id="SvgjsText1290" font-family="&quot;Microsoft YaHei&quot;, 微软雅黑, Arial" text-anchor="middle" font-size="13px" width="55px" fill="#323232" font-weight="400" align="middle" lineHeight="125%" anchor="middle" family="&quot;Microsoft YaHei&quot;, 微软雅黑, Arial" size="13px" weight="400" font-style="" opacity="1" y="-0.6249999999999991" transform="rotate(0)"></text></g></g><g id="SvgjsG1291" transform="translate(256,318)"><path id="SvgjsPath1292" d="M 0 10L 10 0L 10 6.6000000000000005L 45 6.6000000000000005L 45 0L 55 10L 45 20L 45 13.4L 10 13.4L 10 20L 0 10Z" stroke="rgba(175,194,192,1)" stroke-width="1.5" fill-opacity="1" fill="#e2ecff"></path><g id="SvgjsG1293"><text id="SvgjsText1294" font-family="&quot;Microsoft YaHei&quot;, 微软雅黑, Arial" text-anchor="middle" font-size="13px" width="55px" fill="#323232" font-weight="400" align="middle" lineHeight="125%" anchor="middle" family="&quot;Microsoft YaHei&quot;, 微软雅黑, Arial" size="13px" weight="400" font-style="" opacity="1" y="-0.6249999999999991" transform="rotate(0)"></text></g></g><g id="SvgjsG1295" transform="translate(171,201)"><path id="SvgjsPath1296" d="M 0 0L 100 0L 100 40L 0 40Z" stroke="none" fill="none"></path><g id="SvgjsG1297"><text id="SvgjsText1298" font-family="&quot;Microsoft YaHei&quot;, 微软雅黑, Arial" text-anchor="middle" font-size="13px" width="100px" fill="#323232" font-weight="400" align="middle" lineHeight="125%" anchor="middle" family="&quot;Microsoft YaHei&quot;, 微软雅黑, Arial" size="13px" weight="400" font-style="" opacity="1" y="0.875" transform="rotate(0)"><tspan id="SvgjsTspan1299" dy="16.25" x="50"><tspan id="SvgjsTspan1300" style="">binlog</tspan></tspan><tspan id="SvgjsTspan1301" dy="16.25" x="50"><tspan id="SvgjsTspan1302" style="">归档日志</tspan></tspan></text></g></g><g id="SvgjsG1303" transform="translate(171,355)"><path id="SvgjsPath1304" d="M 0 0L 100 0L 100 40L 0 40Z" stroke="none" fill="none"></path><g id="SvgjsG1305"><text id="SvgjsText1306" font-family="&quot;Microsoft YaHei&quot;, 微软雅黑, Arial" text-anchor="middle" font-size="13px" width="100px" fill="#323232" font-weight="400" align="middle" lineHeight="125%" anchor="middle" family="&quot;Microsoft YaHei&quot;, 微软雅黑, Arial" size="13px" weight="400" font-style="" opacity="1" y="0.875" transform="rotate(0)"><tspan id="SvgjsTspan1307" dy="16.25" x="50"><tspan id="SvgjsTspan1308" style="">binlog</tspan></tspan><tspan id="SvgjsTspan1309" dy="16.25" x="50"><tspan id="SvgjsTspan1310" style="">归档日志</tspan></tspan></text></g></g><g id="SvgjsG1311" transform="translate(733,209)"><path id="SvgjsPath1312" d="M 0 0L 100 0L 100 40L 0 40Z" stroke="none" fill="none"></path><g id="SvgjsG1313"><text id="SvgjsText1314" font-family="&quot;Microsoft YaHei&quot;, 微软雅黑, Arial" text-anchor="middle" font-size="13px" width="100px" fill="#323232" font-weight="400" align="middle" lineHeight="125%" anchor="middle" family="&quot;Microsoft YaHei&quot;, 微软雅黑, Arial" size="13px" weight="400" font-style="" opacity="1" y="0.875" transform="rotate(0)"><tspan id="SvgjsTspan1315" dy="16.25" x="50"><tspan id="SvgjsTspan1316" style="">binlog</tspan></tspan><tspan id="SvgjsTspan1317" dy="16.25" x="50"><tspan id="SvgjsTspan1318" style="">归档日志</tspan></tspan></text></g></g><g id="SvgjsG1319" transform="translate(733,363)"><path id="SvgjsPath1320" d="M 0 0L 100 0L 100 40L 0 40Z" stroke="none" fill="none"></path><g id="SvgjsG1321"><text id="SvgjsText1322" font-family="&quot;Microsoft YaHei&quot;, 微软雅黑, Arial" text-anchor="middle" font-size="13px" width="100px" fill="#323232" font-weight="400" align="middle" lineHeight="125%" anchor="middle" family="&quot;Microsoft YaHei&quot;, 微软雅黑, Arial" size="13px" weight="400" font-style="" opacity="1" y="0.875" transform="rotate(0)"><tspan id="SvgjsTspan1323" dy="16.25" x="50"><tspan id="SvgjsTspan1324" style="">binlog</tspan></tspan><tspan id="SvgjsTspan1325" dy="16.25" x="50"><tspan id="SvgjsTspan1326" style="">归档日志</tspan></tspan></text></g></g><g id="SvgjsG1327" transform="translate(108.5,139)"><path id="SvgjsPath1328" d="M 0 0L 100 0L 100 40L 0 40Z" stroke="none" fill="none"></path><g id="SvgjsG1329"><text id="SvgjsText1330" font-family="&quot;Microsoft YaHei&quot;, 微软雅黑, Arial" text-anchor="middle" font-size="13px" width="100px" fill="#323232" font-weight="400" align="middle" lineHeight="125%" anchor="middle" family="&quot;Microsoft YaHei&quot;, 微软雅黑, Arial" size="13px" weight="400" font-style="" opacity="1" y="9.375" transform="rotate(0)"><tspan id="SvgjsTspan1331" dy="16.25" x="50"><tspan id="SvgjsTspan1332" style="">写</tspan></tspan></text></g></g><g id="SvgjsG1333" transform="translate(670.5,144)"><path id="SvgjsPath1334" d="M 0 0L 100 0L 100 40L 0 40Z" stroke="none" fill="none"></path><g id="SvgjsG1335"><text id="SvgjsText1336" font-family="&quot;Microsoft YaHei&quot;, 微软雅黑, Arial" text-anchor="middle" font-size="13px" width="100px" fill="#323232" font-weight="400" align="middle" lineHeight="125%" anchor="middle" family="&quot;Microsoft YaHei&quot;, 微软雅黑, Arial" size="13px" weight="400" font-style="" opacity="1" y="9.375" transform="rotate(0)"><tspan id="SvgjsTspan1337" dy="16.25" x="50"><tspan id="SvgjsTspan1338" style="">写</tspan></tspan></text></g></g><g id="SvgjsG1339" transform="translate(670.5,298)"><path id="SvgjsPath1340" d="M 0 0L 100 0L 100 40L 0 40Z" stroke="none" fill="none"></path><g id="SvgjsG1341"><text id="SvgjsText1342" font-family="&quot;Microsoft YaHei&quot;, 微软雅黑, Arial" text-anchor="middle" font-size="13px" width="100px" fill="#323232" font-weight="400" align="middle" lineHeight="125%" anchor="middle" family="&quot;Microsoft YaHei&quot;, 微软雅黑, Arial" size="13px" weight="400" font-style="" opacity="1" y="9.375" transform="rotate(0)"><tspan id="SvgjsTspan1343" dy="16.25" x="50"><tspan id="SvgjsTspan1344" style="">写</tspan></tspan></text></g></g><g id="SvgjsG1345" transform="translate(795.5,298)"><path id="SvgjsPath1346" d="M 0 0L 100 0L 100 40L 0 40Z" stroke="none" fill="none"></path><g id="SvgjsG1347"><text id="SvgjsText1348" font-family="&quot;Microsoft YaHei&quot;, 微软雅黑, Arial" text-anchor="middle" font-size="13px" width="100px" fill="#323232" font-weight="400" align="middle" lineHeight="125%" anchor="middle" family="&quot;Microsoft YaHei&quot;, 微软雅黑, Arial" size="13px" weight="400" font-style="" opacity="1" y="9.375" transform="rotate(0)"><tspan id="SvgjsTspan1349" dy="16.25" x="50"><tspan id="SvgjsTspan1350" style="">读</tspan></tspan></text></g></g><g id="SvgjsG1351" transform="translate(797.5,144)"><path id="SvgjsPath1352" d="M 0 0L 100 0L 100 40L 0 40Z" stroke="none" fill="none"></path><g id="SvgjsG1353"><text id="SvgjsText1354" font-family="&quot;Microsoft YaHei&quot;, 微软雅黑, Arial" text-anchor="middle" font-size="13px" width="100px" fill="#323232" font-weight="400" align="middle" lineHeight="125%" anchor="middle" family="&quot;Microsoft YaHei&quot;, 微软雅黑, Arial" size="13px" weight="400" font-style="" opacity="1" y="9.375" transform="rotate(0)"><tspan id="SvgjsTspan1355" dy="16.25" x="50"><tspan id="SvgjsTspan1356" style="">读</tspan></tspan></text></g></g><g id="SvgjsG1357" transform="translate(108.5,298)"><path id="SvgjsPath1358" d="M 0 0L 100 0L 100 40L 0 40Z" stroke="none" fill="none"></path><g id="SvgjsG1359"><text id="SvgjsText1360" font-family="&quot;Microsoft YaHei&quot;, 微软雅黑, Arial" text-anchor="middle" font-size="13px" width="100px" fill="#323232" font-weight="400" align="middle" lineHeight="125%" anchor="middle" family="&quot;Microsoft YaHei&quot;, 微软雅黑, Arial" size="13px" weight="400" font-style="" opacity="1" y="9.375" transform="rotate(0)"><tspan id="SvgjsTspan1361" dy="16.25" x="50"><tspan id="SvgjsTspan1362" style="">读写</tspan></tspan></text></g></g><g id="SvgjsG1363" transform="translate(233.5,298)"><path id="SvgjsPath1364" d="M 0 0L 100 0L 100 40L 0 40Z" stroke="none" fill="none"></path><g id="SvgjsG1365"><text id="SvgjsText1366" font-family="&quot;Microsoft YaHei&quot;, 微软雅黑, Arial" text-anchor="middle" font-size="13px" width="100px" fill="#323232" font-weight="400" align="middle" lineHeight="125%" anchor="middle" family="&quot;Microsoft YaHei&quot;, 微软雅黑, Arial" size="13px" weight="400" font-style="" opacity="1" y="9.375" transform="rotate(0)"><tspan id="SvgjsTspan1367" dy="16.25" x="50"><tspan id="SvgjsTspan1368" style="">读写</tspan></tspan></text></g></g><g id="SvgjsG1369" transform="translate(168,25)"><path id="SvgjsPath1370" d="M 0 24.5C 0 -8.166666666666666 106 -8.166666666666666 106 24.5C 106 57.166666666666664 0 57.166666666666664 0 24.5Z" stroke="rgba(170,191,147,1)" stroke-width="1.5" fill-opacity="1" fill="#dfeadb"></path><g id="SvgjsG1371"><text id="SvgjsText1372" font-family="&quot;Microsoft YaHei&quot;, 微软雅黑, Arial" text-anchor="middle" font-size="13px" width="86px" fill="#323232" font-weight="400" align="middle" lineHeight="125%" anchor="middle" family="&quot;Microsoft YaHei&quot;, 微软雅黑, Arial" size="13px" weight="400" font-style="" opacity="1" y="5.375" transform="rotate(0)"><tspan id="SvgjsTspan1373" dy="16.25" x="53"><tspan id="SvgjsTspan1374" style="">根据binlog还</tspan></tspan><tspan id="SvgjsTspan1375" dy="16.25" x="53"><tspan id="SvgjsTspan1376" style="">原MySQL实例</tspan></tspan></text></g></g><g id="SvgjsG1377" transform="translate(211,80)"><path id="SvgjsPath1378" d="M 6.6000000000000005 0L 13.4 0L 13.4 45L 20 45L 10 55L 0 45L 6.6000000000000005 45L 6.6000000000000005 0Z" stroke="rgba(190,176,153,1)" stroke-width="1.5" fill-opacity="1" fill="#f3d7d1"></path><g id="SvgjsG1379"><text id="SvgjsText1380" font-family="&quot;Microsoft YaHei&quot;, 微软雅黑, Arial" text-anchor="middle" font-size="13px" width="28px" fill="#323232" font-weight="400" align="middle" lineHeight="125%" anchor="middle" family="&quot;Microsoft YaHei&quot;, 微软雅黑, Arial" size="13px" weight="400" font-style="" opacity="1" y="14.125" transform="rotate(0)"></text></g></g><g id="SvgjsG1381"></g></svg>