<svg id="SvgjsSvg1006" width="580" height="480" xmlns="http://www.w3.org/2000/svg" version="1.1" xmlns:xlink="http://www.w3.org/1999/xlink" xmlns:svgjs="http://svgjs.com/svgjs"><defs id="SvgjsDefs1007"><pattern patternUnits="userSpaceOnUse" id="pattern_mark_0" width="300" height="300"><text x="150" y="100" fill="rgba(229,229,229,0.8)" font-size="18" transform="rotate(-45, 150, 150)" style="dominant-baseline: middle; text-anchor: middle;"></text></pattern><pattern patternUnits="userSpaceOnUse" id="pattern_mark_1" width="300" height="300"><text x="150" y="200" fill="rgba(229,229,229,0.8)" font-size="18" transform="rotate(-45, 150, 150)" style="dominant-baseline: middle; text-anchor: middle;"></text></pattern><marker id="SvgjsMarker1109" markerWidth="13" markerHeight="9" refX="9.5" refY="4.5" viewBox="0 0 13 9" orient="auto" markerUnits="userSpaceOnUse" stroke-dasharray="0,0"><path id="SvgjsPath1110" d="M0,0 L13,4.5 L0,9 L0,0" fill="#323232" stroke="#323232" stroke-width="1"></path></marker><marker id="SvgjsMarker1113" markerWidth="13" markerHeight="9" refX="9.5" refY="4.5" viewBox="0 0 13 9" orient="auto" markerUnits="userSpaceOnUse" stroke-dasharray="0,0"><path id="SvgjsPath1114" d="M0,0 L13,4.5 L0,9 L0,0" fill="#323232" stroke="#323232" stroke-width="1"></path></marker><marker id="SvgjsMarker1117" markerWidth="13" markerHeight="9" refX="9.5" refY="4.5" viewBox="0 0 13 9" orient="auto" markerUnits="userSpaceOnUse" stroke-dasharray="0,0"><path id="SvgjsPath1118" d="M0,0 L13,4.5 L0,9 L0,0" fill="#323232" stroke="#323232" stroke-width="1"></path></marker></defs><rect id="svgbackgroundid" width="580" height="480" fill="transparent"></rect><rect id="SvgjsRect1009" width="580" height="480" fill="url(#pattern_mark_0)"></rect><rect id="SvgjsRect1010" width="580" height="480" fill="url(#pattern_mark_1)"></rect><g id="SvgjsG1011" transform="translate(46,79)"><path id="SvgjsPath1012" d="M 0 0L 509 0L 509 376L 0 376Z" stroke="rgba(33,41,48,1)" stroke-width="1.5" fill-opacity="1" fill="#e7ffcc"></path><g id="SvgjsG1013"><text id="SvgjsText1014" font-family="微软雅黑" text-anchor="middle" font-size="13px" width="489px" fill="#323232" font-weight="400" align="middle" lineHeight="125%" anchor="middle" family="微软雅黑" size="13px" weight="400" font-style="" opacity="1" y="177.375" transform="rotate(0)"></text></g></g><g id="SvgjsG1015" transform="translate(121,102)"><path id="SvgjsPath1016" d="M 0 65.5C 0 -21.833333333333332 359 -21.833333333333332 359 65.5C 359 152.83333333333334 0 152.83333333333334 0 65.5Z" stroke="rgba(33,41,48,1)" stroke-width="1.5" fill-opacity="1" fill="#cde5ff"></path><g id="SvgjsG1017"><text id="SvgjsText1018" font-family="微软雅黑" text-anchor="middle" font-size="13px" width="339px" fill="#323232" font-weight="400" align="middle" lineHeight="125%" anchor="middle" family="微软雅黑" size="13px" weight="400" font-style="" opacity="1" y="54.875" transform="rotate(0)"></text></g></g><g id="SvgjsG1019" transform="translate(121,257)"><path id="SvgjsPath1020" d="M 0 65.5C 0 -21.833333333333332 359 -21.833333333333332 359 65.5C 359 152.83333333333334 0 152.83333333333334 0 65.5Z" stroke="rgba(33,41,48,1)" stroke-width="1.5" fill-opacity="1" fill="#cde5ff"></path><g id="SvgjsG1021"><text id="SvgjsText1022" font-family="微软雅黑" text-anchor="middle" font-size="13px" width="339px" fill="#323232" font-weight="400" align="middle" lineHeight="125%" anchor="middle" family="微软雅黑" size="13px" weight="400" font-style="" opacity="1" y="54.875" transform="rotate(0)"></text></g></g><g id="SvgjsG1023" transform="translate(121,416)"><path id="SvgjsPath1024" d="M 0 0L 359 0L 359 29L 0 29Z" stroke="rgba(33,41,48,1)" stroke-width="1.5" fill-opacity="1" fill="#99ffce"></path><g id="SvgjsG1025"><text id="SvgjsText1026" font-family="微软雅黑" text-anchor="middle" font-size="17px" width="339px" fill="#323232" font-weight="700" align="middle" lineHeight="125%" anchor="middle" family="微软雅黑" size="17px" weight="700" font-style="" opacity="1" y="-0.125" transform="rotate(0)"><tspan id="SvgjsTspan1027" dy="21.25" x="179.5"><tspan id="SvgjsTspan1028" style="">memory</tspan></tspan></text></g></g><g id="SvgjsG1029" transform="translate(252.5,25)"><path id="SvgjsPath1030" d="M 0 4Q 0 0 4 0L 92 0Q 96 0 96 4L 96 37Q 96 41 92 41L 4 41Q 0 41 0 37Z" stroke="rgba(33,41,48,1)" stroke-width="1.5" fill-opacity="1" fill="#f7cd99"></path><g id="SvgjsG1031"><text id="SvgjsText1032" font-family="微软雅黑" text-anchor="middle" font-size="15px" width="76px" fill="#323232" font-weight="700" align="middle" lineHeight="125%" anchor="middle" family="微软雅黑" size="15px" weight="700" font-style="" opacity="1" y="8.125" transform="rotate(0)"><tspan id="SvgjsTspan1033" dy="18.75" x="48"><tspan id="SvgjsTspan1034" style="">Client</tspan></tspan></text></g></g><g id="SvgjsG1035" transform="translate(25,80)"><path id="SvgjsPath1036" d="M 0 0L 100 0L 100 40L 0 40Z" stroke="none" fill="none"></path><g id="SvgjsG1037"><text id="SvgjsText1038" font-family="微软雅黑" text-anchor="middle" font-size="15px" width="100px" fill="#323232" font-weight="400" align="middle" lineHeight="125%" anchor="middle" family="微软雅黑" size="15px" weight="400" font-style="" opacity="1" y="7.625" transform="rotate(0)"><tspan id="SvgjsTspan1039" dy="18.75" x="50"><tspan id="SvgjsTspan1040" style="font-weight: bold;">Redis</tspan></tspan></text></g></g><g id="SvgjsG1041" transform="translate(160,276.5)"><path id="SvgjsPath1042" d="M 0 21.25C 0 -7.083333333333333 88 -7.083333333333333 88 21.25C 88 49.583333333333336 0 49.583333333333336 0 21.25Z" stroke="rgba(33,41,48,1)" stroke-width="1.5" fill-opacity="1" fill="#f06666"></path><g id="SvgjsG1043"><text id="SvgjsText1044" font-family="微软雅黑" text-anchor="middle" font-size="13px" width="68px" fill="#323232" font-weight="700" align="middle" lineHeight="125%" anchor="middle" family="微软雅黑" size="13px" weight="700" font-style="" opacity="1" y="10.625" transform="rotate(0)"><tspan id="SvgjsTspan1045" dy="16.25" x="44"><tspan id="SvgjsTspan1046" style="">sds</tspan></tspan></text></g></g><g id="SvgjsG1047" transform="translate(154,327.5)"><path id="SvgjsPath1048" d="M 0 21.25C 0 -7.083333333333333 88 -7.083333333333333 88 21.25C 88 49.583333333333336 0 49.583333333333336 0 21.25Z" stroke="rgba(33,41,48,1)" stroke-width="1.5" fill-opacity="1" fill="#f06666"></path><g id="SvgjsG1049"><text id="SvgjsText1050" font-family="微软雅黑" text-anchor="middle" font-size="13px" width="68px" fill="#323232" font-weight="700" align="middle" lineHeight="125%" anchor="middle" family="微软雅黑" size="13px" weight="700" font-style="" opacity="1" y="10.625" transform="rotate(0)"><tspan id="SvgjsTspan1051" dy="16.25" x="44"><tspan id="SvgjsTspan1052" style="">链表</tspan></tspan></text></g></g><g id="SvgjsG1053" transform="translate(256.5,269)"><path id="SvgjsPath1054" d="M 0 21.25C 0 -7.083333333333333 88 -7.083333333333333 88 21.25C 88 49.583333333333336 0 49.583333333333336 0 21.25Z" stroke="rgba(33,41,48,1)" stroke-width="1.5" fill-opacity="1" fill="#f06666"></path><g id="SvgjsG1055"><text id="SvgjsText1056" font-family="微软雅黑" text-anchor="middle" font-size="13px" width="68px" fill="#323232" font-weight="700" align="middle" lineHeight="125%" anchor="middle" family="微软雅黑" size="13px" weight="700" font-style="" opacity="1" y="10.625" transform="rotate(0)"><tspan id="SvgjsTspan1057" dy="16.25" x="44"><tspan id="SvgjsTspan1058" style="">字典</tspan></tspan></text></g></g><g id="SvgjsG1059" transform="translate(256.5,334)"><path id="SvgjsPath1060" d="M 0 21.25C 0 -7.083333333333333 88 -7.083333333333333 88 21.25C 88 49.583333333333336 0 49.583333333333336 0 21.25Z" stroke="rgba(33,41,48,1)" stroke-width="1.5" fill-opacity="1" fill="#f06666"></path><g id="SvgjsG1061"><text id="SvgjsText1062" font-family="微软雅黑" text-anchor="middle" font-size="13px" width="68px" fill="#323232" font-weight="700" align="middle" lineHeight="125%" anchor="middle" family="微软雅黑" size="13px" weight="700" font-style="" opacity="1" y="10.625" transform="rotate(0)"><tspan id="SvgjsTspan1063" dy="16.25" x="44"><tspan id="SvgjsTspan1064" style="">跳跃表</tspan></tspan></text></g></g><g id="SvgjsG1065" transform="translate(350,276.5)"><path id="SvgjsPath1066" d="M 0 21.25C 0 -7.083333333333333 88 -7.083333333333333 88 21.25C 88 49.583333333333336 0 49.583333333333336 0 21.25Z" stroke="rgba(33,41,48,1)" stroke-width="1.5" fill-opacity="1" fill="#f06666"></path><g id="SvgjsG1067"><text id="SvgjsText1068" font-family="微软雅黑" text-anchor="middle" font-size="13px" width="68px" fill="#323232" font-weight="700" align="middle" lineHeight="125%" anchor="middle" family="微软雅黑" size="13px" weight="700" font-style="" opacity="1" y="10.625" transform="rotate(0)"><tspan id="SvgjsTspan1069" dy="16.25" x="44"><tspan id="SvgjsTspan1070" style="">整数集合</tspan></tspan></text></g></g><g id="SvgjsG1071" transform="translate(350,327.5)"><path id="SvgjsPath1072" d="M 0 21.25C 0 -7.083333333333333 88 -7.083333333333333 88 21.25C 88 49.583333333333336 0 49.583333333333336 0 21.25Z" stroke="rgba(33,41,48,1)" stroke-width="1.5" fill-opacity="1" fill="#f06666"></path><g id="SvgjsG1073"><text id="SvgjsText1074" font-family="微软雅黑" text-anchor="middle" font-size="13px" width="68px" fill="#323232" font-weight="700" align="middle" lineHeight="125%" anchor="middle" family="微软雅黑" size="13px" weight="700" font-style="" opacity="1" y="10.625" transform="rotate(0)"><tspan id="SvgjsTspan1075" dy="16.25" x="44"><tspan id="SvgjsTspan1076" style="">压缩列表</tspan></tspan></text></g></g><g id="SvgjsG1077" transform="translate(137,132)"><path id="SvgjsPath1078" d="M 0 21.25C 0 -7.083333333333333 88 -7.083333333333333 88 21.25C 88 49.583333333333336 0 49.583333333333336 0 21.25Z" stroke="rgba(33,41,48,1)" stroke-width="1.5" fill-opacity="1" fill="#f06666"></path><g id="SvgjsG1079"><text id="SvgjsText1080" font-family="微软雅黑" text-anchor="middle" font-size="13px" width="68px" fill="#323232" font-weight="700" align="middle" lineHeight="125%" anchor="middle" family="微软雅黑" size="13px" weight="700" font-style="" opacity="1" y="10.625" transform="rotate(0)"><tspan id="SvgjsTspan1081" dy="16.25" x="44"><tspan id="SvgjsTspan1082" style="">string</tspan></tspan></text></g></g><g id="SvgjsG1083" transform="translate(201,172)"><path id="SvgjsPath1084" d="M 0 21.25C 0 -7.083333333333333 88 -7.083333333333333 88 21.25C 88 49.583333333333336 0 49.583333333333336 0 21.25Z" stroke="rgba(33,41,48,1)" stroke-width="1.5" fill-opacity="1" fill="#f06666"></path><g id="SvgjsG1085"><text id="SvgjsText1086" font-family="微软雅黑" text-anchor="middle" font-size="13px" width="68px" fill="#323232" font-weight="700" align="middle" lineHeight="125%" anchor="middle" family="微软雅黑" size="13px" weight="700" font-style="" opacity="1" y="10.625" transform="rotate(0)"><tspan id="SvgjsTspan1087" dy="16.25" x="44"><tspan id="SvgjsTspan1088" style="">hash</tspan></tspan></text></g></g><g id="SvgjsG1089" transform="translate(242,120)"><path id="SvgjsPath1090" d="M 0 21.25C 0 -7.083333333333333 88 -7.083333333333333 88 21.25C 88 49.583333333333336 0 49.583333333333336 0 21.25Z" stroke="rgba(33,41,48,1)" stroke-width="1.5" fill-opacity="1" fill="#f06666"></path><g id="SvgjsG1091"><text id="SvgjsText1092" font-family="微软雅黑" text-anchor="middle" font-size="13px" width="68px" fill="#323232" font-weight="700" align="middle" lineHeight="125%" anchor="middle" family="微软雅黑" size="13px" weight="700" font-style="" opacity="1" y="10.625" transform="rotate(0)"><tspan id="SvgjsTspan1093" dy="16.25" x="44"><tspan id="SvgjsTspan1094" style="">list</tspan></tspan></text></g></g><g id="SvgjsG1095" transform="translate(315,181)"><path id="SvgjsPath1096" d="M 0 21.25C 0 -7.083333333333333 88 -7.083333333333333 88 21.25C 88 49.583333333333336 0 49.583333333333336 0 21.25Z" stroke="rgba(33,41,48,1)" stroke-width="1.5" fill-opacity="1" fill="#f06666"></path><g id="SvgjsG1097"><text id="SvgjsText1098" font-family="微软雅黑" text-anchor="middle" font-size="13px" width="68px" fill="#323232" font-weight="700" align="middle" lineHeight="125%" anchor="middle" family="微软雅黑" size="13px" weight="700" font-style="" opacity="1" y="10.625" transform="rotate(0)"><tspan id="SvgjsTspan1099" dy="16.25" x="44"><tspan id="SvgjsTspan1100" style="">set</tspan></tspan></text></g></g><g id="SvgjsG1101" transform="translate(375,137)"><path id="SvgjsPath1102" d="M 0 21.25C 0 -7.083333333333333 88 -7.083333333333333 88 21.25C 88 49.583333333333336 0 49.583333333333336 0 21.25Z" stroke="rgba(33,41,48,1)" stroke-width="1.5" fill-opacity="1" fill="#f06666"></path><g id="SvgjsG1103"><text id="SvgjsText1104" font-family="微软雅黑" text-anchor="middle" font-size="13px" width="68px" fill="#323232" font-weight="700" align="middle" lineHeight="125%" anchor="middle" family="微软雅黑" size="13px" weight="700" font-style="" opacity="1" y="10.625" transform="rotate(0)"><tspan id="SvgjsTspan1105" dy="16.25" x="44"><tspan id="SvgjsTspan1106" style="">zset</tspan></tspan></text></g></g><g id="SvgjsG1107"><path id="SvgjsPath1108" d="M300.5 66.75L300.5 99.30000000000001" stroke="#323232" stroke-width="1.5" fill="none" marker-end="url(#SvgjsMarker1109)"></path></g><g id="SvgjsG1111"><path id="SvgjsPath1112" d="M300.5 233.75L300.5 245L300.5 245L300.5 254.3" stroke="#323232" stroke-width="1.5" fill="none" marker-end="url(#SvgjsMarker1113)"></path></g><g id="SvgjsG1115"><path id="SvgjsPath1116" d="M300.5 388.75L300.5 402L300.5 402L300.5 413.3" stroke="#323232" stroke-width="1.5" fill="none" marker-end="url(#SvgjsMarker1117)"></path></g></svg>