<svg id="SvgjsSvg1006" width="491" height="367" xmlns="http://www.w3.org/2000/svg" version="1.1" xmlns:xlink="http://www.w3.org/1999/xlink" xmlns:svgjs="http://svgjs.com/svgjs"><defs id="SvgjsDefs1007"><pattern patternUnits="userSpaceOnUse" id="pattern_mark_0" width="300" height="300"><text x="150" y="100" fill="rgba(229,229,229,0.8)" font-size="18" transform="rotate(-45, 150, 150)" style="dominant-baseline: middle; text-anchor: middle;"></text></pattern><pattern patternUnits="userSpaceOnUse" id="pattern_mark_1" width="300" height="300"><text x="150" y="200" fill="rgba(229,229,229,0.8)" font-size="18" transform="rotate(-45, 150, 150)" style="dominant-baseline: middle; text-anchor: middle;"></text></pattern><marker id="SvgjsMarker1097" markerWidth="13" markerHeight="9" refX="9.5" refY="4.5" viewBox="0 0 13 9" orient="auto" markerUnits="userSpaceOnUse" stroke-dasharray="0,0"><path id="SvgjsPath1098" d="M0,0 L13,4.5 L0,9 L0,0" fill="#323232" stroke="#323232" stroke-width="1"></path></marker><marker id="SvgjsMarker1101" markerWidth="13" markerHeight="9" refX="9.5" refY="4.5" viewBox="0 0 13 9" orient="auto" markerUnits="userSpaceOnUse" stroke-dasharray="0,0"><path id="SvgjsPath1102" d="M0,0 L13,4.5 L0,9 L0,0" fill="#323232" stroke="#323232" stroke-width="1"></path></marker><marker id="SvgjsMarker1105" markerWidth="13" markerHeight="9" refX="9.5" refY="4.5" viewBox="0 0 13 9" orient="auto" markerUnits="userSpaceOnUse" stroke-dasharray="0,0"><path id="SvgjsPath1106" d="M0,0 L13,4.5 L0,9 L0,0" fill="#323232" stroke="#323232" stroke-width="1"></path></marker></defs><rect id="svgbackgroundid" width="491" height="367" fill="transparent"></rect><rect id="SvgjsRect1009" width="491" height="367" fill="url(#pattern_mark_0)"></rect><rect id="SvgjsRect1010" width="491" height="367" fill="url(#pattern_mark_1)"></rect><g id="SvgjsG1011" transform="translate(250,26)"><path id="SvgjsPath1012" d="M 0 0L 216 0L 216 316L 0 316Z" stroke="rgba(33,41,48,1)" stroke-width="1.5" fill-opacity="1" fill="#ffffff"></path><g id="SvgjsG1013"><text id="SvgjsText1014" font-family="&quot;Comic Sans MS&quot;" text-anchor="middle" font-size="13px" width="196px" fill="#323232" font-weight="700" align="middle" lineHeight="125%" anchor="middle" family="&quot;Comic Sans MS&quot;" size="13px" weight="700" font-style="" opacity="1" y="147.375" transform="rotate(0)"></text></g></g><g id="SvgjsG1015" transform="translate(262,64)"><path id="SvgjsPath1016" d="M 0 32L 0 231.2C 0 285.6 192 285.6 192 231.2L 192 32C 192 -8.727272727272727 0 -8.727272727272727 0 32ZM 0 32C 0 72 192 72 192 32C 192 72 0 72 0 32" stroke="rgba(33,41,48,1)" stroke-width="1.5" fill-opacity="1" fill="#ffffff"></path><g id="SvgjsG1017"><text id="SvgjsText1018" font-family="&quot;Comic Sans MS&quot;" text-anchor="middle" font-size="13px" width="192px" fill="#323232" font-weight="700" align="middle" lineHeight="125%" anchor="middle" family="&quot;Comic Sans MS&quot;" size="13px" weight="700" font-style="" opacity="1" y="98.17500000000001" transform="rotate(0)"></text></g></g><g id="SvgjsG1019" transform="translate(296,132.5)"><path id="SvgjsPath1020" d="M 0 0L 124 0L 124 188.5L 0 188.5Z" stroke="rgba(33,41,48,1)" stroke-width="1.5" fill-opacity="1" fill="#ffffff"></path><g id="SvgjsG1021"><text id="SvgjsText1022" font-family="&quot;Comic Sans MS&quot;" text-anchor="middle" font-size="13px" width="104px" fill="#323232" font-weight="700" align="middle" lineHeight="125%" anchor="middle" family="&quot;Comic Sans MS&quot;" size="13px" weight="700" font-style="" opacity="1" y="83.625" transform="rotate(0)"></text></g></g><g id="SvgjsG1023" transform="translate(311,190.5)"><path id="SvgjsPath1024" d="M 0 0L 95 0L 95 24L 0 24Z" stroke="rgba(33,41,48,1)" stroke-width="1.5" fill-opacity="1" fill="#ffffff"></path><g id="SvgjsG1025"><text id="SvgjsText1026" font-family="&quot;Comic Sans MS&quot;" text-anchor="middle" font-size="13px" width="75px" fill="#323232" font-weight="700" align="middle" lineHeight="125%" anchor="middle" family="&quot;Comic Sans MS&quot;" size="13px" weight="700" font-style="" opacity="1" y="1.375" transform="rotate(0)"><tspan id="SvgjsTspan1027" dy="16.25" x="47.5"><tspan id="SvgjsTspan1028" style="">会话1的变量</tspan></tspan></text></g></g><g id="SvgjsG1029" transform="translate(311,223)"><path id="SvgjsPath1030" d="M 0 0L 95 0L 95 24L 0 24Z" stroke="rgba(33,41,48,1)" stroke-width="1.5" fill-opacity="1" fill="#ffffff"></path><g id="SvgjsG1031"><text id="SvgjsText1032" font-family="&quot;Comic Sans MS&quot;" text-anchor="middle" font-size="13px" width="75px" fill="#323232" font-weight="700" align="middle" lineHeight="125%" anchor="middle" family="&quot;Comic Sans MS&quot;" size="13px" weight="700" font-style="" opacity="1" y="1.375" transform="rotate(0)"><tspan id="SvgjsTspan1033" dy="16.25" x="47.5"><tspan id="SvgjsTspan1034" style="">会话2的变量</tspan></tspan></text></g></g><g id="SvgjsG1035" transform="translate(311,255.5)"><path id="SvgjsPath1036" d="M 0 0L 95 0L 95 24L 0 24Z" stroke="rgba(33,41,48,1)" stroke-width="1.5" fill-opacity="1" fill="#ffffff"></path><g id="SvgjsG1037"><text id="SvgjsText1038" font-family="&quot;Comic Sans MS&quot;" text-anchor="middle" font-size="13px" width="75px" fill="#323232" font-weight="700" align="middle" lineHeight="125%" anchor="middle" family="&quot;Comic Sans MS&quot;" size="13px" weight="700" font-style="" opacity="1" y="1.375" transform="rotate(0)"><tspan id="SvgjsTspan1039" dy="16.25" x="47.5"><tspan id="SvgjsTspan1040" style="">●●●●●●</tspan></tspan></text></g></g><g id="SvgjsG1041" transform="translate(311,288)"><path id="SvgjsPath1042" d="M 0 0L 95 0L 95 24L 0 24Z" stroke="rgba(33,41,48,1)" stroke-width="1.5" fill-opacity="1" fill="#ffffff"></path><g id="SvgjsG1043"><text id="SvgjsText1044" font-family="&quot;Comic Sans MS&quot;" text-anchor="middle" font-size="13px" width="75px" fill="#323232" font-weight="700" align="middle" lineHeight="125%" anchor="middle" family="&quot;Comic Sans MS&quot;" size="13px" weight="700" font-style="" opacity="1" y="1.375" transform="rotate(0)"><tspan id="SvgjsTspan1045" dy="16.25" x="47.5"><tspan id="SvgjsTspan1046" style="">会话n的变量</tspan></tspan></text></g></g><g id="SvgjsG1047" transform="translate(311,158)"><path id="SvgjsPath1048" d="M 0 0L 95 0L 95 24L 0 24Z" stroke="rgba(33,41,48,1)" stroke-width="1.5" fill-opacity="1" fill="#ffffff"></path><g id="SvgjsG1049"><text id="SvgjsText1050" font-family="&quot;Comic Sans MS&quot;" text-anchor="middle" font-size="13px" width="75px" fill="#323232" font-weight="700" align="middle" lineHeight="125%" anchor="middle" family="&quot;Comic Sans MS&quot;" size="13px" weight="700" font-style="" opacity="1" y="1.375" transform="rotate(0)"><tspan id="SvgjsTspan1051" dy="16.25" x="47.5"><tspan id="SvgjsTspan1052" style="">全局变量</tspan></tspan></text></g></g><g id="SvgjsG1053" transform="translate(308,124)"><path id="SvgjsPath1054" d="M 0 0L 100 0L 100 40L 0 40Z" stroke="none" fill="none"></path><g id="SvgjsG1055"><text id="SvgjsText1056" font-family="&quot;Comic Sans MS&quot;" text-anchor="middle" font-size="13px" width="100px" fill="#323232" font-weight="700" align="middle" lineHeight="125%" anchor="middle" family="&quot;Comic Sans MS&quot;" size="13px" weight="700" font-style="" opacity="1" y="9.375" transform="rotate(0)"><tspan id="SvgjsTspan1057" dy="16.25" x="50"><tspan id="SvgjsTspan1058" style="">服务器内存</tspan></tspan></text></g></g><g id="SvgjsG1059" transform="translate(308,77)"><path id="SvgjsPath1060" d="M 0 0L 100 0L 100 40L 0 40Z" stroke="none" fill="none"></path><g id="SvgjsG1061"><text id="SvgjsText1062" font-family="&quot;Comic Sans MS&quot;" text-anchor="middle" font-size="13px" width="100px" fill="#323232" font-weight="700" align="middle" lineHeight="125%" anchor="middle" family="&quot;Comic Sans MS&quot;" size="13px" weight="700" font-style="" opacity="1" y="9.375" transform="rotate(0)"><tspan id="SvgjsTspan1063" dy="16.25" x="50"><tspan id="SvgjsTspan1064" style="">MySQL实例</tspan></tspan></text></g></g><g id="SvgjsG1065" transform="translate(308,25)"><path id="SvgjsPath1066" d="M 0 0L 100 0L 100 40L 0 40Z" stroke="none" fill="none"></path><g id="SvgjsG1067"><text id="SvgjsText1068" font-family="&quot;Comic Sans MS&quot;" text-anchor="middle" font-size="13px" width="100px" fill="#323232" font-weight="700" align="middle" lineHeight="125%" anchor="middle" family="&quot;Comic Sans MS&quot;" size="13px" weight="700" font-style="" opacity="1" y="9.375" transform="rotate(0)"><tspan id="SvgjsTspan1069" dy="16.25" x="50"><tspan id="SvgjsTspan1070" style="">MySQL服务器</tspan></tspan></text></g></g><g id="SvgjsG1071" transform="translate(39,78.5)"><path id="SvgjsPath1072" d="M 0 23.5C 0 -7.833333333333333 72 -7.833333333333333 72 23.5C 72 54.833333333333336 0 54.833333333333336 0 23.5Z" stroke="rgba(33,41,48,1)" stroke-width="1.5" fill-opacity="1" fill="#ffffff"></path><g id="SvgjsG1073"><text id="SvgjsText1074" font-family="&quot;Comic Sans MS&quot;" text-anchor="middle" font-size="13px" width="52px" fill="#323232" font-weight="700" align="middle" lineHeight="125%" anchor="middle" family="&quot;Comic Sans MS&quot;" size="13px" weight="700" font-style="" opacity="1" y="12.875" transform="rotate(0)"><tspan id="SvgjsTspan1075" dy="16.25" x="36"><tspan id="SvgjsTspan1076" style="">客户端1</tspan></tspan></text></g></g><g id="SvgjsG1077" transform="translate(39,135.5)"><path id="SvgjsPath1078" d="M 0 23.5C 0 -7.833333333333333 72 -7.833333333333333 72 23.5C 72 54.833333333333336 0 54.833333333333336 0 23.5Z" stroke="rgba(33,41,48,1)" stroke-width="1.5" fill-opacity="1" fill="#ffffff"></path><g id="SvgjsG1079"><text id="SvgjsText1080" font-family="&quot;Comic Sans MS&quot;" text-anchor="middle" font-size="13px" width="52px" fill="#323232" font-weight="700" align="middle" lineHeight="125%" anchor="middle" family="&quot;Comic Sans MS&quot;" size="13px" weight="700" font-style="" opacity="1" y="12.875" transform="rotate(0)"><tspan id="SvgjsTspan1081" dy="16.25" x="36"><tspan id="SvgjsTspan1082" style="">客户端2</tspan></tspan></text></g></g><g id="SvgjsG1083" transform="translate(39,242.5)"><path id="SvgjsPath1084" d="M 0 23.5C 0 -7.833333333333333 72 -7.833333333333333 72 23.5C 72 54.833333333333336 0 54.833333333333336 0 23.5Z" stroke="rgba(33,41,48,1)" stroke-width="1.5" fill-opacity="1" fill="#ffffff"></path><g id="SvgjsG1085"><text id="SvgjsText1086" font-family="&quot;Comic Sans MS&quot;" text-anchor="middle" font-size="13px" width="52px" fill="#323232" font-weight="700" align="middle" lineHeight="125%" anchor="middle" family="&quot;Comic Sans MS&quot;" size="13px" weight="700" font-style="" opacity="1" y="12.875" transform="rotate(0)"><tspan id="SvgjsTspan1087" dy="16.25" x="36"><tspan id="SvgjsTspan1088" style="">客户端n</tspan></tspan></text></g></g><g id="SvgjsG1089" transform="translate(25,192.5)"><path id="SvgjsPath1090" d="M 0 0L 100 0L 100 40L 0 40Z" stroke="none" fill="none"></path><g id="SvgjsG1091"><text id="SvgjsText1092" font-family="&quot;Comic Sans MS&quot;" text-anchor="middle" font-size="13px" width="100px" fill="#323232" font-weight="700" align="middle" lineHeight="125%" anchor="middle" family="&quot;Comic Sans MS&quot;" size="13px" weight="700" font-style="" opacity="1" y="9.375" transform="rotate(0)"><tspan id="SvgjsTspan1093" dy="16.25" x="50"><tspan id="SvgjsTspan1094" style="">●●●●●●</tspan></tspan></text></g></g><g id="SvgjsG1095"><path id="SvgjsPath1096" d="M111.67014890538701 102.336749824957L308.58746394060665 201.28770063015486" stroke="#323232" stroke-width="1.5" fill="none" marker-end="url(#SvgjsMarker1097)"></path></g><g id="SvgjsG1099"><path id="SvgjsPath1100" d="M111.70108768544128 159.26641332046768L308.47608433241146 234.04091204631635" stroke="#323232" stroke-width="1.5" fill="none" marker-end="url(#SvgjsMarker1101)"></path></g><g id="SvgjsG1103"><path id="SvgjsPath1104" d="M111.73939188500236 266.1256966204504L308.33818921399154 299.54749216637856" stroke="#323232" stroke-width="1.5" fill="none" marker-end="url(#SvgjsMarker1105)"></path></g></svg>