<svg id="SvgjsSvg1150" width="867" height="405" xmlns="http://www.w3.org/2000/svg" version="1.1" xmlns:xlink="http://www.w3.org/1999/xlink" xmlns:svgjs="http://svgjs.com/svgjs"><defs id="SvgjsDefs1151"><pattern patternUnits="userSpaceOnUse" id="pattern_mark_0" width="300" height="300"><text x="150" y="100" fill="rgba(229,229,229,0.8)" font-size="18" transform="rotate(-45, 150, 150)" style="dominant-baseline: middle; text-anchor: middle;"></text></pattern><pattern patternUnits="userSpaceOnUse" id="pattern_mark_1" width="300" height="300"><text x="150" y="200" fill="rgba(229,229,229,0.8)" font-size="18" transform="rotate(-45, 150, 150)" style="dominant-baseline: middle; text-anchor: middle;"></text></pattern><marker id="SvgjsMarker1239" markerWidth="13" markerHeight="9" refX="9.5" refY="4.5" viewBox="0 0 13 9" orient="auto" markerUnits="userSpaceOnUse" stroke-dasharray="0,0"><path id="SvgjsPath1240" d="M0,0 L13,4.5 L0,9 L0,0" fill="#323232" stroke="#323232" stroke-width="1"></path></marker><marker id="SvgjsMarker1247" markerWidth="13" markerHeight="9" refX="9.5" refY="4.5" viewBox="0 0 13 9" orient="auto" markerUnits="userSpaceOnUse" stroke-dasharray="0,0"><path id="SvgjsPath1248" d="M0,0 L13,4.5 L0,9 L0,0" fill="#323232" stroke="#323232" stroke-width="1"></path></marker><marker id="SvgjsMarker1255" markerWidth="13" markerHeight="9" refX="3.5" refY="4.5" viewBox="0 0 13 9" orient="auto" markerUnits="userSpaceOnUse" stroke-dasharray="0,0"><path id="SvgjsPath1256" d="M13,0 L0,4.5 L13,9 L13,0" fill="#323232" stroke="#323232" stroke-width="1"></path></marker><marker id="SvgjsMarker1263" markerWidth="13" markerHeight="9" refX="9.5" refY="4.5" viewBox="0 0 13 9" orient="auto" markerUnits="userSpaceOnUse" stroke-dasharray="0,0"><path id="SvgjsPath1264" d="M0,0 L13,4.5 L0,9 L0,0" fill="#323232" stroke="#323232" stroke-width="1"></path></marker><marker id="SvgjsMarker1271" markerWidth="13" markerHeight="9" refX="9.5" refY="4.5" viewBox="0 0 13 9" orient="auto" markerUnits="userSpaceOnUse" stroke-dasharray="0,0"><path id="SvgjsPath1272" d="M0,0 L13,4.5 L0,9 L0,0" fill="#323232" stroke="#323232" stroke-width="1"></path></marker><marker id="SvgjsMarker1279" markerWidth="13" markerHeight="9" refX="9.5" refY="4.5" viewBox="0 0 13 9" orient="auto" markerUnits="userSpaceOnUse" stroke-dasharray="0,0"><path id="SvgjsPath1280" d="M0,0 L13,4.5 L0,9 L0,0" fill="#323232" stroke="#323232" stroke-width="1"></path></marker><marker id="SvgjsMarker1287" markerWidth="13" markerHeight="9" refX="9.5" refY="4.5" viewBox="0 0 13 9" orient="auto" markerUnits="userSpaceOnUse" stroke-dasharray="0,0"><path id="SvgjsPath1288" d="M0,0 L13,4.5 L0,9 L0,0" fill="#323232" stroke="#323232" stroke-width="1"></path></marker></defs><rect id="svgbackgroundid" width="867" height="405" fill="transparent"></rect><rect id="SvgjsRect1153" width="867" height="405" fill="url(#pattern_mark_0)"></rect><rect id="SvgjsRect1154" width="867" height="405" fill="url(#pattern_mark_1)"></rect><g id="SvgjsG1155" transform="translate(238,25)"><path id="SvgjsPath1156" d="M 0 4Q 0 0 4 0L 278 0Q 282 0 282 4L 282 247Q 282 251 278 251L 4 251Q 0 251 0 247Z" stroke="rgba(33,41,48,1)" stroke-width="1.5" fill-opacity="1" fill="#ffffff"></path><g id="SvgjsG1157"><text id="SvgjsText1158" font-family="&quot;Microsoft YaHei&quot;, 微软雅黑, Arial" text-anchor="middle" font-size="13px" width="262px" fill="#323232" font-weight="400" align="middle" lineHeight="125%" anchor="middle" family="&quot;Microsoft YaHei&quot;, 微软雅黑, Arial" size="13px" weight="400" font-style="" opacity="1" y="25.375" transform="rotate(0)"><tspan id="SvgjsTspan1159" dy="16.25" x="141"><tspan id="SvgjsTspan1160" style="">InnoDB</tspan></tspan><tspan id="SvgjsTspan1161" dy="16.25" x="141"><tspan id="SvgjsTspan1162" style=""> </tspan></tspan><tspan id="SvgjsTspan1163" dy="16.25" x="141"><tspan id="SvgjsTspan1164" style=""> </tspan></tspan><tspan id="SvgjsTspan1165" dy="16.25" x="141"><tspan id="SvgjsTspan1166" style=""> </tspan></tspan><tspan id="SvgjsTspan1167" dy="16.25" x="141"><tspan id="SvgjsTspan1168" style=""> </tspan></tspan><tspan id="SvgjsTspan1169" dy="16.25" x="141"><tspan id="SvgjsTspan1170" style=""> </tspan></tspan><tspan id="SvgjsTspan1171" dy="16.25" x="141"><tspan id="SvgjsTspan1172" style=""> </tspan></tspan><tspan id="SvgjsTspan1173" dy="16.25" x="141"><tspan id="SvgjsTspan1174" style=""> </tspan></tspan><tspan id="SvgjsTspan1175" dy="16.25" x="141"><tspan id="SvgjsTspan1176" style=""> </tspan></tspan><tspan id="SvgjsTspan1177" dy="16.25" x="141"><tspan id="SvgjsTspan1178" style=""> </tspan></tspan><tspan id="SvgjsTspan1179" dy="16.25" x="141"><tspan id="SvgjsTspan1180" style=""> </tspan></tspan><tspan id="SvgjsTspan1181" dy="16.25" x="141"><tspan id="SvgjsTspan1182" style=""> </tspan></tspan></text></g></g><g id="SvgjsG1183" transform="translate(25,87)"><path id="SvgjsPath1184" d="M 0 0L 114 0L 130 16L 130 40L 0 40L 0 0Z" stroke="none" fill-opacity="1" fill="#fff7bc"></path><path id="SvgjsPath1185" d="M 114 0L 114 16L 130 16Z" stroke="none" fill-opacity="1" fill="#e4d089"></path><path id="SvgjsPath1186" d="M 0 0L 114 0L 130 16L 130 40L 0 40L 0 0Z" stroke="none" fill="none"></path><g id="SvgjsG1187"><text id="SvgjsText1188" font-family="&quot;Microsoft YaHei&quot;, 微软雅黑, Arial" text-anchor="middle" font-size="13px" width="110px" fill="#323232" font-weight="400" align="middle" lineHeight="125%" anchor="middle" family="&quot;Microsoft YaHei&quot;, 微软雅黑, Arial" size="13px" weight="400" font-style="" opacity="1" y="9.375" transform="rotate(0)"><tspan id="SvgjsTspan1189" dy="16.25" x="65"><tspan id="SvgjsTspan1190" style="">更新数据</tspan></tspan></text></g></g><g id="SvgjsG1191" transform="translate(272,87)"><path id="SvgjsPath1192" d="M 0 4Q 0 0 4 0L 217 0Q 221 0 221 4L 221 91Q 221 95 217 95L 4 95Q 0 95 0 91Z" stroke="rgba(33,41,48,1)" stroke-width="1.5" fill-opacity="1" fill="#e1f6d1"></path><g id="SvgjsG1193"><text id="SvgjsText1194" font-family="&quot;Microsoft YaHei&quot;, 微软雅黑, Arial" text-anchor="middle" font-size="13px" width="201px" fill="#323232" font-weight="400" align="middle" lineHeight="125%" anchor="middle" family="&quot;Microsoft YaHei&quot;, 微软雅黑, Arial" size="13px" weight="400" font-style="" opacity="1" y="36.875" transform="rotate(0)"><tspan id="SvgjsTspan1195" dy="16.25" x="110.5"><tspan id="SvgjsTspan1196" style="">Buffer Pool</tspan></tspan></text></g></g><g id="SvgjsG1197" transform="translate(272,222)"><path id="SvgjsPath1198" d="M 0 4Q 0 0 4 0L 217 0Q 221 0 221 4L 221 44Q 221 48 217 48L 4 48Q 0 48 0 44Z" stroke="rgba(33,41,48,1)" stroke-width="1.5" fill-opacity="1" fill="#dffaff"></path><g id="SvgjsG1199"><text id="SvgjsText1200" font-family="&quot;Microsoft YaHei&quot;, 微软雅黑, Arial" text-anchor="middle" font-size="13px" width="201px" fill="#323232" font-weight="400" align="middle" lineHeight="125%" anchor="middle" family="&quot;Microsoft YaHei&quot;, 微软雅黑, Arial" size="13px" weight="400" font-style="" opacity="1" y="13.375" transform="rotate(0)"><tspan id="SvgjsTspan1201" dy="16.25" x="110.5"><tspan id="SvgjsTspan1202" style="">Redo Log Buffer</tspan></tspan></text></g></g><g id="SvgjsG1203" transform="translate(653,97)"><path id="SvgjsPath1204" d="M 0 4Q 0 0 4 0L 116 0Q 120 0 120 4L 120 26Q 120 30 116 30L 4 30Q 0 30 0 26Z" stroke="rgba(33,41,48,1)" stroke-width="1.5" fill-opacity="1" fill="#f7d7d0"></path><g id="SvgjsG1205"><text id="SvgjsText1206" font-family="&quot;Microsoft YaHei&quot;, 微软雅黑, Arial" text-anchor="middle" font-size="13px" width="100px" fill="#323232" font-weight="400" align="middle" lineHeight="125%" anchor="middle" family="&quot;Microsoft YaHei&quot;, 微软雅黑, Arial" size="13px" weight="400" font-style="" opacity="1" y="4.375" transform="rotate(0)"><tspan id="SvgjsTspan1207" dy="16.25" x="60"><tspan id="SvgjsTspan1208" style="">Undo Log</tspan></tspan></text></g></g><g id="SvgjsG1209" transform="translate(653,142)"><path id="SvgjsPath1210" d="M 0 4Q 0 0 4 0L 96 0Q 100 0 100 4L 100 36Q 100 40 96 40L 4 40Q 0 40 0 36Z" stroke="rgba(33,41,48,1)" stroke-width="1.5" fill-opacity="1" fill="#fbe9d0"></path><g id="SvgjsG1211"><text id="SvgjsText1212" font-family="&quot;Microsoft YaHei&quot;, 微软雅黑, Arial" text-anchor="middle" font-size="13px" width="80px" fill="#323232" font-weight="400" align="middle" lineHeight="125%" anchor="middle" family="&quot;Microsoft YaHei&quot;, 微软雅黑, Arial" size="13px" weight="400" font-style="" opacity="1" y="9.375" transform="rotate(0)"><tspan id="SvgjsTspan1213" dy="16.25" x="50"><tspan id="SvgjsTspan1214" style="">执行器</tspan></tspan></text></g></g><g id="SvgjsG1215" transform="translate(226,340)"><path id="SvgjsPath1216" d="M 0 4Q 0 0 4 0L 73.69503546099291 0Q 77.69503546099291 0 77.69503546099291 4L 77.69503546099291 36Q 77.69503546099291 40 73.69503546099291 40L 4 40Q 0 40 0 36Z" stroke="rgba(33,41,48,1)" stroke-width="1.5" fill-opacity="1" fill="#c0eca1"></path><g id="SvgjsG1217"><text id="SvgjsText1218" font-family="&quot;Microsoft YaHei&quot;, 微软雅黑, Arial" text-anchor="middle" font-size="13px" width="58px" fill="#323232" font-weight="400" align="middle" lineHeight="125%" anchor="middle" family="&quot;Microsoft YaHei&quot;, 微软雅黑, Arial" size="13px" weight="400" font-style="" opacity="1" y="9.375" transform="rotate(0)"><tspan id="SvgjsTspan1219" dy="16.25" x="39"><tspan id="SvgjsTspan1220" style="">磁盘</tspan></tspan></text></g></g><g id="SvgjsG1221" transform="translate(343.6524822695035,340)"><path id="SvgjsPath1222" d="M 0 4Q 0 0 4 0L 73.69503546099291 0Q 77.69503546099291 0 77.69503546099291 4L 77.69503546099291 36Q 77.69503546099291 40 73.69503546099291 40L 4 40Q 0 40 0 36Z" stroke="rgba(33,41,48,1)" stroke-width="1.5" fill-opacity="1" fill="#e0f9fe"></path><g id="SvgjsG1223"><text id="SvgjsText1224" font-family="&quot;Microsoft YaHei&quot;, 微软雅黑, Arial" text-anchor="middle" font-size="13px" width="58px" fill="#323232" font-weight="400" align="middle" lineHeight="125%" anchor="middle" family="&quot;Microsoft YaHei&quot;, 微软雅黑, Arial" size="13px" weight="400" font-style="" opacity="1" y="0.875" transform="rotate(0)"><tspan id="SvgjsTspan1225" dy="16.25" x="39"><tspan id="SvgjsTspan1226" style="">Redo Log</tspan></tspan><tspan id="SvgjsTspan1227" dy="16.25" x="39"><tspan id="SvgjsTspan1228" style="">文件</tspan></tspan></text></g></g><g id="SvgjsG1229" transform="translate(461.3049645390071,340)"><path id="SvgjsPath1230" d="M 0 4Q 0 0 4 0L 73.69503546099291 0Q 77.69503546099291 0 77.69503546099291 4L 77.69503546099291 36Q 77.69503546099291 40 73.69503546099291 40L 4 40Q 0 40 0 36Z" stroke="rgba(33,41,48,1)" stroke-width="1.5" fill-opacity="1" fill="#d8e7ff"></path><g id="SvgjsG1231"><text id="SvgjsText1232" font-family="&quot;Microsoft YaHei&quot;, 微软雅黑, Arial" text-anchor="middle" font-size="13px" width="58px" fill="#323232" font-weight="400" align="middle" lineHeight="125%" anchor="middle" family="&quot;Microsoft YaHei&quot;, 微软雅黑, Arial" size="13px" weight="400" font-style="" opacity="1" y="0.875" transform="rotate(0)"><tspan id="SvgjsTspan1233" dy="16.25" x="39"><tspan id="SvgjsTspan1234" style="">Binlog</tspan></tspan><tspan id="SvgjsTspan1235" dy="16.25" x="39"><tspan id="SvgjsTspan1236" style="">文件</tspan></tspan></text></g></g><g id="SvgjsG1237"><path id="SvgjsPath1238" d="M90 87L90 57L295 57L295 84.30000000000001" stroke="#323232" stroke-width="1.5" fill="none" marker-end="url(#SvgjsMarker1239)"></path><rect id="SvgjsRect1241" width="66" height="18" x="157.65509433962265" y="48" fill="#ffffff"></rect><text id="SvgjsText1242" font-family="&quot;Microsoft YaHei&quot;, 微软雅黑, Arial" text-anchor="middle" font-size="13px" width="66px" fill="#323232" font-weight="400" align="top" lineHeight="16px" anchor="middle" family="&quot;Microsoft YaHei&quot;, 微软雅黑, Arial" size="13px" weight="400" font-style="" opacity="1" y="45.375" transform="rotate(0)"><tspan id="SvgjsTspan1243" dy="16.25" x="190.65509433962265"><tspan id="SvgjsTspan1244" style="">1. 更新数据</tspan></tspan></text></g><g id="SvgjsG1245"><path id="SvgjsPath1246" d="M225.25 360L159 360L159 134.5L269.3 134.5" stroke="#323232" stroke-width="1.5" fill="none" marker-end="url(#SvgjsMarker1247)"></path><rect id="SvgjsRect1249" width="131" height="18" x="93.5" y="245.02948717948715" fill="#ffffff"></rect><text id="SvgjsText1250" font-family="&quot;Microsoft YaHei&quot;, 微软雅黑, Arial" text-anchor="middle" font-size="13px" width="131px" fill="#323232" font-weight="400" align="top" lineHeight="16px" anchor="middle" family="&quot;Microsoft YaHei&quot;, 微软雅黑, Arial" size="13px" weight="400" font-style="" opacity="1" y="242.40448717948715" transform="rotate(0)"><tspan id="SvgjsTspan1251" dy="16.25" x="159"><tspan id="SvgjsTspan1252" style="">2. 不存在则从磁盘加载</tspan></tspan></text></g><g id="SvgjsG1253"><path id="SvgjsPath1254" d="M650.3 112L573 112L573 112L493.75 112" stroke="#323232" stroke-width="1.5" fill="none" marker-start="url(#SvgjsMarker1255)"></path><rect id="SvgjsRect1257" width="93" height="18" x="528.3713636363636" y="103" fill="#ffffff"></rect><text id="SvgjsText1258" font-family="&quot;Microsoft YaHei&quot;, 微软雅黑, Arial" text-anchor="middle" font-size="13px" width="93px" fill="#323232" font-weight="400" align="top" lineHeight="16px" anchor="middle" family="&quot;Microsoft YaHei&quot;, 微软雅黑, Arial" size="13px" weight="400" font-style="" opacity="1" y="100.375" transform="rotate(0)"><tspan id="SvgjsTspan1259" dy="16.25" x="574.8713636363636"><tspan id="SvgjsTspan1260" style="">3. 记录UndoLog</tspan></tspan></text></g><g id="SvgjsG1261"><path id="SvgjsPath1262" d="M652.25 162L573 162L573 162L495.70000000000005 162" stroke="#323232" stroke-width="1.5" fill="none" marker-end="url(#SvgjsMarker1263)"></path><rect id="SvgjsRect1265" width="66" height="18" x="542.931875" y="153" fill="#ffffff"></rect><text id="SvgjsText1266" font-family="&quot;Microsoft YaHei&quot;, 微软雅黑, Arial" text-anchor="middle" font-size="13px" width="66px" fill="#323232" font-weight="400" align="top" lineHeight="16px" anchor="middle" family="&quot;Microsoft YaHei&quot;, 微软雅黑, Arial" size="13px" weight="400" font-style="" opacity="1" y="150.375" transform="rotate(0)"><tspan id="SvgjsTspan1267" dy="16.25" x="575.931875"><tspan id="SvgjsTspan1268" style="">4. 更新数据</tspan></tspan></text></g><g id="SvgjsG1269"><path id="SvgjsPath1270" d="M703 182.75L703 246L495.70000000000005 246" stroke="#323232" stroke-width="1.5" fill="none" marker-end="url(#SvgjsMarker1271)"></path><rect id="SvgjsRect1273" width="135" height="18" x="529.9031021897811" y="237" fill="#ffffff"></rect><text id="SvgjsText1274" font-family="&quot;Microsoft YaHei&quot;, 微软雅黑, Arial" text-anchor="middle" font-size="13px" width="135px" fill="#323232" font-weight="400" align="top" lineHeight="16px" anchor="middle" family="&quot;Microsoft YaHei&quot;, 微软雅黑, Arial" size="13px" weight="400" font-style="" opacity="1" y="234.375" transform="rotate(0)"><tspan id="SvgjsTspan1275" dy="16.25" x="597.4031021897811"><tspan id="SvgjsTspan1276" style="">5. 写入Redo Log Buffer</tspan></tspan></text></g><g id="SvgjsG1277"><path id="SvgjsPath1278" d="M382.5 270.75L382.5 305L382.5 305L382.5 337.29999999999995" stroke="#323232" stroke-width="1.5" fill="none" marker-end="url(#SvgjsMarker1279)"></path><rect id="SvgjsRect1281" width="136" height="18" x="314.5" y="294.0742857142857" fill="#ffffff"></rect><text id="SvgjsText1282" font-family="&quot;Microsoft YaHei&quot;, 微软雅黑, Arial" text-anchor="middle" font-size="13px" width="136px" fill="#323232" font-weight="400" align="top" lineHeight="16px" anchor="middle" family="&quot;Microsoft YaHei&quot;, 微软雅黑, Arial" size="13px" weight="400" font-style="" opacity="1" y="291.4492857142857" transform="rotate(0)"><tspan id="SvgjsTspan1283" dy="16.25" x="382.5"><tspan id="SvgjsTspan1284" style="">6. 写入Redo Log到文件</tspan></tspan></text></g><g id="SvgjsG1285"><path id="SvgjsPath1286" d="M753.75 162L783 162L783 360L541.7 360" stroke="#323232" stroke-width="1.5" fill="none" marker-end="url(#SvgjsMarker1287)"></path><rect id="SvgjsRect1289" width="116" height="18" x="725" y="251.8070974576271" fill="#ffffff"></rect><text id="SvgjsText1290" font-family="&quot;Microsoft YaHei&quot;, 微软雅黑, Arial" text-anchor="middle" font-size="13px" width="116px" fill="#323232" font-weight="400" align="top" lineHeight="16px" anchor="middle" family="&quot;Microsoft YaHei&quot;, 微软雅黑, Arial" size="13px" weight="400" font-style="" opacity="1" y="249.1820974576271" transform="rotate(0)"><tspan id="SvgjsTspan1291" dy="16.25" x="783"><tspan id="SvgjsTspan1292" style="">7. 写入Binlog到文件</tspan></tspan></text></g><g id="SvgjsG1293"></g></svg>