<svg id="SvgjsSvg1006" width="276" height="392" xmlns="http://www.w3.org/2000/svg" version="1.1" xmlns:xlink="http://www.w3.org/1999/xlink" xmlns:svgjs="http://svgjs.com/svgjs"><defs id="SvgjsDefs1007"><pattern patternUnits="userSpaceOnUse" id="pattern_mark_0" width="300" height="300"><text x="150" y="100" fill="rgba(229,229,229,0.8)" font-size="18" transform="rotate(-45, 150, 150)" style="dominant-baseline: middle; text-anchor: middle;"></text></pattern><pattern patternUnits="userSpaceOnUse" id="pattern_mark_1" width="300" height="300"><text x="150" y="200" fill="rgba(229,229,229,0.8)" font-size="18" transform="rotate(-45, 150, 150)" style="dominant-baseline: middle; text-anchor: middle;"></text></pattern><marker id="SvgjsMarker1057" markerWidth="13" markerHeight="9" refX="9.5" refY="4.5" viewBox="0 0 13 9" orient="auto" markerUnits="userSpaceOnUse" stroke-dasharray="0,0"><path id="SvgjsPath1058" d="M0,0 L13,4.5 L0,9 L0,0" fill="#f28c8e" stroke="#f28c8e" stroke-width="1"></path></marker><marker id="SvgjsMarker1061" markerWidth="13" markerHeight="9" refX="3.5" refY="4.5" viewBox="0 0 13 9" orient="auto" markerUnits="userSpaceOnUse" stroke-dasharray="0,0"><path id="SvgjsPath1062" d="M13,0 L0,4.5 L13,9 L13,0" fill="#f28c8e" stroke="#f28c8e" stroke-width="1"></path></marker></defs><rect id="svgbackgroundid" width="276" height="392" fill="transparent"></rect><rect id="SvgjsRect1009" width="276" height="392" fill="url(#pattern_mark_0)"></rect><rect id="SvgjsRect1010" width="276" height="392" fill="url(#pattern_mark_1)"></rect><g id="SvgjsG1011" transform="translate(70,91)"><path id="SvgjsPath1012" d="M 0 0L 148 0L 148 276L 0 276Z" stroke="rgba(33,41,48,1)" stroke-width="1" fill-opacity="1" fill="#ffffff"></path><g id="SvgjsG1013"><text id="SvgjsText1014" font-family="&quot;Microsoft YaHei&quot;, 微软雅黑, Arial" text-anchor="middle" font-size="13px" width="128px" fill="#323232" font-weight="400" align="middle" lineHeight="125%" anchor="middle" family="&quot;Microsoft YaHei&quot;, 微软雅黑, Arial" size="13px" weight="400" font-style="" opacity="1" y="127.375" transform="rotate(0)"></text></g></g><g id="SvgjsG1015" transform="translate(84,99)"><path id="SvgjsPath1016" d="M 0 4Q 0 0 4 0L 116 0Q 120 0 120 4L 120 256Q 120 260 116 260L 4 260Q 0 260 0 256Z" stroke="none" fill-opacity="1" fill="#f6bbb2"></path><g id="SvgjsG1017"><text id="SvgjsText1018" font-family="&quot;Microsoft YaHei&quot;, 微软雅黑, Arial" text-anchor="middle" font-size="13px" width="100px" fill="#323232" font-weight="400" align="middle" lineHeight="125%" anchor="middle" family="&quot;Microsoft YaHei&quot;, 微软雅黑, Arial" size="13px" weight="400" font-style="" opacity="1" y="119.375" transform="rotate(0)"></text></g></g><g id="SvgjsG1019" transform="translate(99,190)"><path id="SvgjsPath1020" d="M 0 0L 90 0L 90 35L 0 35Z" stroke="none" fill-opacity="1" fill="#fae8dc"></path><g id="SvgjsG1021"><text id="SvgjsText1022" font-family="&quot;Microsoft YaHei&quot;, 微软雅黑, Arial" text-anchor="middle" font-size="13px" width="70px" fill="#323232" font-weight="400" align="middle" lineHeight="125%" anchor="middle" family="&quot;Microsoft YaHei&quot;, 微软雅黑, Arial" size="13px" weight="400" font-style="" opacity="1" y="6.875" transform="rotate(0)"><tspan id="SvgjsTspan1023" dy="16.25" x="45"><tspan id="SvgjsTspan1024" style="">栈帧-4</tspan></tspan></text></g></g><g id="SvgjsG1025" transform="translate(99,230)"><path id="SvgjsPath1026" d="M 0 0L 90 0L 90 35L 0 35Z" stroke="none" fill-opacity="1" fill="#fae8dc"></path><g id="SvgjsG1027"><text id="SvgjsText1028" font-family="&quot;Microsoft YaHei&quot;, 微软雅黑, Arial" text-anchor="middle" font-size="13px" width="70px" fill="#323232" font-weight="400" align="middle" lineHeight="125%" anchor="middle" family="&quot;Microsoft YaHei&quot;, 微软雅黑, Arial" size="13px" weight="400" font-style="" opacity="1" y="6.875" transform="rotate(0)"><tspan id="SvgjsTspan1029" dy="16.25" x="45"><tspan id="SvgjsTspan1030" style="">栈帧-3</tspan></tspan></text></g></g><g id="SvgjsG1031" transform="translate(99,270)"><path id="SvgjsPath1032" d="M 0 0L 90 0L 90 35L 0 35Z" stroke="none" fill-opacity="1" fill="#fae8dc"></path><g id="SvgjsG1033"><text id="SvgjsText1034" font-family="&quot;Microsoft YaHei&quot;, 微软雅黑, Arial" text-anchor="middle" font-size="13px" width="70px" fill="#323232" font-weight="400" align="middle" lineHeight="125%" anchor="middle" family="&quot;Microsoft YaHei&quot;, 微软雅黑, Arial" size="13px" weight="400" font-style="" opacity="1" y="6.875" transform="rotate(0)"><tspan id="SvgjsTspan1035" dy="16.25" x="45"><tspan id="SvgjsTspan1036" style="">栈帧-2</tspan></tspan></text></g></g><g id="SvgjsG1037" transform="translate(99,310)"><path id="SvgjsPath1038" d="M 0 0L 90 0L 90 35L 0 35Z" stroke="none" fill-opacity="1" fill="#fae8dc"></path><g id="SvgjsG1039"><text id="SvgjsText1040" font-family="&quot;Microsoft YaHei&quot;, 微软雅黑, Arial" text-anchor="middle" font-size="13px" width="70px" fill="#323232" font-weight="400" align="middle" lineHeight="125%" anchor="middle" family="&quot;Microsoft YaHei&quot;, 微软雅黑, Arial" size="13px" weight="400" font-style="" opacity="1" y="6.875" transform="rotate(0)"><tspan id="SvgjsTspan1041" dy="16.25" x="45"><tspan id="SvgjsTspan1042" style="">栈帧-1</tspan></tspan></text></g></g><g id="SvgjsG1043" transform="translate(99,150)"><path id="SvgjsPath1044" d="M 0 0L 90 0L 90 35L 0 35Z" stroke="none" fill-opacity="1" fill="#fae8dc"></path><g id="SvgjsG1045"><text id="SvgjsText1046" font-family="&quot;Microsoft YaHei&quot;, 微软雅黑, Arial" text-anchor="middle" font-size="13px" width="70px" fill="#323232" font-weight="400" align="middle" lineHeight="125%" anchor="middle" family="&quot;Microsoft YaHei&quot;, 微软雅黑, Arial" size="13px" weight="400" font-style="" opacity="1" y="6.875" transform="rotate(0)"><tspan id="SvgjsTspan1047" dy="16.25" x="45"><tspan id="SvgjsTspan1048" style="">•••</tspan></tspan></text></g></g><g id="SvgjsG1049" transform="translate(99,110)"><path id="SvgjsPath1050" d="M 0 0L 90 0L 90 35L 0 35Z" stroke="none" fill-opacity="1" fill="#f28c8e"></path><g id="SvgjsG1051"><text id="SvgjsText1052" font-family="&quot;Microsoft YaHei&quot;, 微软雅黑, Arial" text-anchor="middle" font-size="13px" width="70px" fill="#323232" font-weight="400" align="middle" lineHeight="125%" anchor="middle" family="&quot;Microsoft YaHei&quot;, 微软雅黑, Arial" size="13px" weight="400" font-style="" opacity="1" y="6.875" transform="rotate(0)"><tspan id="SvgjsTspan1053" dy="16.25" x="45"><tspan id="SvgjsTspan1054" style="">栈顶帧</tspan></tspan></text></g></g><g id="SvgjsG1055"><path id="SvgjsPath1056" d="M174 110C 174 78.75900129637338 191 56 224 50" stroke="#f28c8e" stroke-width="1.5" fill="none" marker-end="url(#SvgjsMarker1057)"></path></g><g id="SvgjsG1059"><path id="SvgjsPath1060" d="M118.83881232873387 108.05667333301068C 118.99999999999997 75.74682496468392 100 53 56 52" stroke="#f28c8e" stroke-width="1.5" fill="none" marker-start="url(#SvgjsMarker1061)"></path></g><g id="SvgjsG1063" transform="translate(25,25)"><path id="SvgjsPath1064" d="M 0 0L 100 0L 100 40L 0 40Z" stroke="none" fill="none"></path><g id="SvgjsG1065"><text id="SvgjsText1066" font-family="&quot;Microsoft YaHei&quot;, 微软雅黑, Arial" text-anchor="middle" font-size="13px" width="100px" fill="#323232" font-weight="400" align="middle" lineHeight="125%" anchor="middle" family="&quot;Microsoft YaHei&quot;, 微软雅黑, Arial" size="13px" weight="400" font-style="" opacity="1" y="9.375" transform="rotate(0)"><tspan id="SvgjsTspan1067" dy="16.25" x="50"><tspan id="SvgjsTspan1068" style="">压栈</tspan></tspan></text></g></g><g id="SvgjsG1069" transform="translate(151,28)"><path id="SvgjsPath1070" d="M 0 0L 100 0L 100 40L 0 40Z" stroke="none" fill="none"></path><g id="SvgjsG1071"><text id="SvgjsText1072" font-family="&quot;Microsoft YaHei&quot;, 微软雅黑, Arial" text-anchor="middle" font-size="13px" width="100px" fill="#323232" font-weight="400" align="middle" lineHeight="125%" anchor="middle" family="&quot;Microsoft YaHei&quot;, 微软雅黑, Arial" size="13px" weight="400" font-style="" opacity="1" y="9.375" transform="rotate(0)"><tspan id="SvgjsTspan1073" dy="16.25" x="50"><tspan id="SvgjsTspan1074" style="">出栈</tspan></tspan></text></g></g><g id="SvgjsG1075"></g></svg>