<svg id="SvgjsSvg1006" width="1050" height="658" xmlns="http://www.w3.org/2000/svg" version="1.1" xmlns:xlink="http://www.w3.org/1999/xlink" xmlns:svgjs="http://svgjs.com/svgjs"><defs id="SvgjsDefs1007"><pattern patternUnits="userSpaceOnUse" id="pattern_mark_0" width="300" height="300"><text x="150" y="100" fill="rgba(229,229,229,0.8)" font-size="18" transform="rotate(-45, 150, 150)" style="dominant-baseline: middle; text-anchor: middle;"></text></pattern><pattern patternUnits="userSpaceOnUse" id="pattern_mark_1" width="300" height="300"><text x="150" y="200" fill="rgba(229,229,229,0.8)" font-size="18" transform="rotate(-45, 150, 150)" style="dominant-baseline: middle; text-anchor: middle;"></text></pattern><pattern id="SvgjsPattern1013" x="0" y="0" width="1000" height="457" patternUnits="userSpaceOnUse"><image id="SvgjsImage1014" xlink:href="https://cdn.processon.com/659075849306be2fed0d515e-66096a82d709282ea56a8c87?e=1711896723&amp;token=trhI0BY8QfVrIGn9nENop6JAc6l5nZuxhjQ62UfM:Sg31oaf8L7p3_qPOmouJxDB7-T0=" width="1000" height="457" preserveAspectRatio="none" crossOrigin="anonymous" x="0" y="0"></image></pattern><pattern id="SvgjsPattern1017" x="0" y="0" width="211" height="81" patternUnits="userSpaceOnUse"><image id="SvgjsImage1018" xlink:href="https://cdn.processon.com/659075849306be2fed0d515e-66096a8fd709282ea56a8c8c?e=1711896735&amp;token=trhI0BY8QfVrIGn9nENop6JAc6l5nZuxhjQ62UfM:qmClbxp9Chujy-smWn32NtadwGs=" width="211" height="81" preserveAspectRatio="none" crossOrigin="anonymous" x="0" y="0"></image></pattern></defs><rect id="svgbackgroundid" width="1050" height="658" fill="#ffffff"></rect><rect id="SvgjsRect1009" width="1050" height="658" fill="url(#pattern_mark_0)"></rect><rect id="SvgjsRect1010" width="1050" height="658" fill="url(#pattern_mark_1)"></rect><g id="SvgjsG1011" transform="translate(25,25)"><path id="SvgjsPath1012" d="M 0 0L 1000 0L 1000 457L 0 457Z" stroke="none" fill="url(#SvgjsPattern1013)"></path></g><g id="SvgjsG1015" transform="translate(135,552)"><path id="SvgjsPath1016" d="M 0 0L 211 0L 211 81L 0 81Z" stroke="none" fill="url(#SvgjsPattern1017)"></path></g><g id="SvgjsG1019" transform="translate(31,197)"><path id="SvgjsPath1020" d="M 0 0L 420 0L 350 359L 70 359L 0 0Z" stroke="rgba(54,169,204,0.65)" stroke-width="1.5" fill-opacity="0.65" fill="#f3a77b"></path><g id="SvgjsG1021"><text id="SvgjsText1022" font-family="微软雅黑" text-anchor="middle" font-size="13px" width="336px" fill="#15475b" font-weight="400" align="middle" lineHeight="125%" anchor="middle" family="微软雅黑" size="13px" weight="400" font-style="" opacity="0.65" y="168.875" transform="rotate(0)"></text></g></g></svg>