<svg xmlns="http://www.w3.org/2000/svg" xlink="http://www.w3.org/1999/xlink" id="mind-svg-con" version="1.1" width="410px" height="458px" style="position: absolute; left: 0px; top: 0px; width: 410px; height: 458px; background: rgb(255, 255, 255); z-index: 999;"><defs></defs><g id="svgbackgroundid"><defs></defs><rect x="0" y="0" width="410" height="458" fill="#ffffff"></rect></g><g transform="translate(-9934, -9650)" id="sdjakdjak5"><defs></defs><g class="svg-topic-con" transform="translate(0.5,0.5)"><path part="right" sub="true" id="line_c1bad25b4b6db7df" p="root" d=" M 10082 9828 C 10066 9829 10066 9840 10066 9840 L 10066 9933 C 10066 9933 10066 9945 10050 9945" stroke="#000000" fill="none" stroke-width="2"></path><path part="right" sub="true" id="line_5e1fe17d1d1727fc" p="root" d=" M 10082 10061 C 10066 10060 10066 10049 10066 10049 L 10066 9957 C 10066 9957 10066 9945 10050 9945" stroke="#000000" fill="none" stroke-width="2"></path></g><g class="svg-connection-con" transform="translate(0.5,0.5)"></g><g class="svg-freesums-con" transform="translate(0.5,0.5)"></g><g class="svg-freebos-con" transform="translate(0.5,0.5)"></g></g><g id="5e1fe17d1d1727fc"><rect x="162" y="396" rx="5px" ry="5px" width="80" height="32" style="fill: transparent; stroke:none;stroke-width:0px;"></rect><g><text text-anchor="start" align="top" anchor="start" font-size="14px" font-weight="normal" fill="rgb(0, 0, 0)" style="font-size:14px;font-family:'Microsoft YaHei',微软雅黑,Arial;color:#000000;font-style:normal;text-align:left;font-weight:normal;background-color:transparent;"><tspan x="174" y="416"><tspan dx="0">分支主题</tspan></tspan></text></g></g><g id="1ebaf1a197f9f112"><rect x="162" y="344" rx="5px" ry="5px" width="46" height="32" style="fill: transparent; stroke:none;stroke-width:0px;"></rect><g><text text-anchor="start" align="top" anchor="start" font-size="14px" font-weight="normal" fill="rgb(0, 0, 0)" style="font-size:14px;font-family:'Microsoft YaHei',微软雅黑,Arial;color:#000000;font-style:normal;text-align:left;font-weight:normal;background-color:transparent;"><tspan x="174" y="364"><tspan dx="0">......</tspan></tspan></text></g></g><g id="a267b43e73c44eb8"><rect x="162" y="292" rx="5px" ry="5px" width="66" height="32" style="fill: transparent; stroke:none;stroke-width:0px;"></rect><g><text text-anchor="start" align="top" anchor="start" font-size="14px" font-weight="normal" fill="rgb(0, 0, 0)" style="font-size:14px;font-family:'Microsoft YaHei',微软雅黑,Arial;color:#000000;font-style:normal;text-align:left;font-weight:normal;background-color:transparent;"><tspan x="174" y="312"><tspan dx="0">语句二</tspan></tspan></text></g></g><g id="c1bad25b4b6db7df"><rect x="162" y="162.203125" rx="5px" ry="5px" width="66" height="32" style="fill: transparent; stroke:none;stroke-width:0px;"></rect><g><text text-anchor="start" align="top" anchor="start" font-size="14px" font-weight="normal" fill="rgb(0, 0, 0)" style="font-size:14px;font-family:'Microsoft YaHei',微软雅黑,Arial;color:#000000;font-style:normal;text-align:left;font-weight:normal;background-color:transparent;"><tspan x="174" y="182"><tspan dx="0">语句一</tspan></tspan></text></g></g><g id="48918e089bb02d4b"><rect x="252" y="84" rx="1px" ry="1px" width="49" height="26" style="fill: transparent; stroke:none;stroke-width:0px;"></rect><g><text text-anchor="start" align="top" anchor="start" font-size="12px" font-weight="normal" fill="rgb(114, 80, 76)" style="font-size:12px;font-family:'Microsoft YaHei',微软雅黑,Arial;color:#72504C;font-style:normal;text-align:left;font-weight:normal;"><tspan x="261" y="99.16"><tspan dx="0">mtr_1</tspan></tspan></text></g></g><g id="39a0077f67f03d00"><rect x="324.6796875" y="30" rx="1px" ry="1px" width="55" height="26" style="fill: transparent; stroke:none;stroke-width:0px;"></rect><g><text text-anchor="start" align="top" anchor="start" font-size="12px" font-weight="normal" fill="rgb(114, 80, 76)" style="font-size:12px;font-family:'Microsoft YaHei',微软雅黑,Arial;color:#72504C;font-style:normal;text-align:left;font-weight:normal;"><tspan x="334" y="45.16"><tspan dx="0">redo_1</tspan></tspan></text></g></g><g id="b237ae88e58cbe38"><rect x="324.6796875" y="66" rx="1px" ry="1px" width="55" height="26" style="fill: transparent; stroke:none;stroke-width:0px;"></rect><g><text text-anchor="start" align="top" anchor="start" font-size="12px" font-weight="normal" fill="rgb(114, 80, 76)" style="font-size:12px;font-family:'Microsoft YaHei',微软雅黑,Arial;color:#72504C;font-style:normal;text-align:left;font-weight:normal;"><tspan x="334" y="81.16"><tspan dx="0">redo_2</tspan></tspan></text></g></g><g id="75361ea22a1f11c2"><rect x="324.6796875" y="102" rx="1px" ry="1px" width="38" height="26" style="fill: transparent; stroke:none;stroke-width:0px;"></rect><g><text text-anchor="start" align="top" anchor="start" font-size="12px" font-weight="normal" fill="rgb(114, 80, 76)" style="font-size:12px;font-family:'Microsoft YaHei',微软雅黑,Arial;color:#72504C;font-style:normal;text-align:left;font-weight:normal;"><tspan x="334" y="117.16"><tspan dx="0">......</tspan></tspan></text></g></g><g id="63f36d686943a0f9"><rect x="324.6796875" y="138" rx="1px" ry="1px" width="55" height="26" style="fill: transparent; stroke:none;stroke-width:0px;"></rect><g><text text-anchor="start" align="top" anchor="start" font-size="12px" font-weight="normal" fill="rgb(114, 80, 76)" style="font-size:12px;font-family:'Microsoft YaHei',微软雅黑,Arial;color:#72504C;font-style:normal;text-align:left;font-weight:normal;"><tspan x="334" y="153.16"><tspan dx="0">redo_n</tspan></tspan></text></g></g><g id="b357eec531e45c9a"><rect x="252" y="174" rx="1px" ry="1px" width="49" height="26" style="fill: transparent; stroke:none;stroke-width:0px;"></rect><g><text text-anchor="start" align="top" anchor="start" font-size="12px" font-weight="normal" fill="rgb(114, 80, 76)" style="font-size:12px;font-family:'Microsoft YaHei',微软雅黑,Arial;color:#72504C;font-style:normal;text-align:left;font-weight:normal;"><tspan x="261" y="189.16"><tspan dx="0">mtr_2</tspan></tspan></text></g></g><g id="0f77ea659d752ad3"><rect x="252" y="210" rx="1px" ry="1px" width="38" height="26" style="fill: transparent; stroke:none;stroke-width:0px;"></rect><g><text text-anchor="start" align="top" anchor="start" font-size="12px" font-weight="normal" fill="rgb(114, 80, 76)" style="font-size:12px;font-family:'Microsoft YaHei',微软雅黑,Arial;color:#72504C;font-style:normal;text-align:left;font-weight:normal;"><tspan x="261" y="225.16"><tspan dx="0">......</tspan></tspan></text></g></g><g id="fa3c901e3f37f52f"><rect x="252" y="246" rx="1px" ry="1px" width="49" height="26" style="fill: transparent; stroke:none;stroke-width:0px;"></rect><g><text text-anchor="start" align="top" anchor="start" font-size="12px" font-weight="normal" fill="rgb(114, 80, 76)" style="font-size:12px;font-family:'Microsoft YaHei',微软雅黑,Arial;color:#72504C;font-style:normal;text-align:left;font-weight:normal;"><tspan x="261" y="261.15999999999997"><tspan dx="0">mtr_n</tspan></tspan></text></g></g><g transform="translate(162, 396)" id="sdjakdjak0"><g id="subline_5e1fe17d1d1727fc" transform="translate(0.5, 0.5)"></g><g transform="translate(0.5,0.5)"></g><g class="svg-summary-con" transform="translate(0.5,0.5)"></g><g class="svg-boundary-con" transform="translate(0.5,0.5)"></g></g><g transform="translate(162, 344)" id="sdjakdjak1"><g id="subline_1ebaf1a197f9f112" transform="translate(0.5, 0.5)"></g><g transform="translate(0.5,0.5)"></g><g class="svg-summary-con" transform="translate(0.5,0.5)"></g><g class="svg-boundary-con" transform="translate(0.5,0.5)"></g></g><g transform="translate(162, 292)" id="sdjakdjak2"><g id="subline_a267b43e73c44eb8" transform="translate(0.5, 0.5)"></g><g transform="translate(0.5,0.5)"></g><g class="svg-summary-con" transform="translate(0.5,0.5)"></g><g class="svg-boundary-con" transform="translate(0.5,0.5)"></g></g><g transform="translate(162, 30)" id="sdjakdjak3"><g id="subline_c1bad25b4b6db7df" transform="translate(0.5, 0.5)"><path id="line_48918e089bb02d4b" p="c1bad25b4b6db7df" d=" M 86 67 C 78 68 78 73 78 73 L 78 142 C 78 142 78 148 70 148" stroke="#000000" fill="none" stroke-width="2"></path><path id="line_39a0077f67f03d00" p="48918e089bb02d4b" d=" M 158 13 C 150 14 150 19 150 19 L 150 61 C 150 61 150 67 142 67" stroke="#000000" fill="none" stroke-width="2"></path><path id="line_63f36d686943a0f9" p="48918e089bb02d4b" d=" M 158 121 C 150 120 150 115 150 115 L 150 73 C 150 73 150 67 142 67" stroke="#000000" fill="none" stroke-width="2"></path><path id="line_fa3c901e3f37f52f" p="c1bad25b4b6db7df" d=" M 86 229 C 78 228 78 223 78 223 L 78 154 C 78 154 78 148 70 148" stroke="#000000" fill="none" stroke-width="2"></path></g><g transform="translate(0.5,0.5)"></g><g class="svg-summary-con" transform="translate(0.5,0.5)"></g><g class="svg-boundary-con" transform="translate(0.5,0.5)"></g></g><g transform="translate(30, 270)" id="sdjakdjak4"><g id="subline_root" transform="translate(0.5, 0.5)"></g><g transform="translate(0.5,0.5)"></g><g class="svg-summary-con" transform="translate(0.5,0.5)"></g><g class="svg-boundary-con" transform="translate(0.5,0.5)"></g></g><g id="root"><rect x="30" y="270" rx="6px" ry="6px" width="72" height="50" style="fill: transparent; stroke:none;stroke-width:0px;"></rect><g><text text-anchor="start" align="top" anchor="start" font-size="20px" font-weight="normal" fill="rgb(0, 0, 0)" style="font-size:20px;font-family:'Microsoft YaHei',微软雅黑,Arial;color:#000000;font-style:normal;text-align:left;font-weight:normal;background-color:transparent;"><tspan x="46" y="300"><tspan dx="0">事务</tspan></tspan></text></g></g></svg>