<svg id="SvgjsSvg1006" width="796" height="324" xmlns="http://www.w3.org/2000/svg" version="1.1" xmlns:xlink="http://www.w3.org/1999/xlink" xmlns:svgjs="http://svgjs.com/svgjs"><defs id="SvgjsDefs1007"><pattern patternUnits="userSpaceOnUse" id="pattern_mark_0" width="300" height="300"><text x="150" y="100" fill="rgba(229,229,229,0.8)" font-size="18" transform="rotate(-45, 150, 150)" style="dominant-baseline: middle; text-anchor: middle;"></text></pattern><pattern patternUnits="userSpaceOnUse" id="pattern_mark_1" width="300" height="300"><text x="150" y="200" fill="rgba(229,229,229,0.8)" font-size="18" transform="rotate(-45, 150, 150)" style="dominant-baseline: middle; text-anchor: middle;"></text></pattern><marker id="SvgjsMarker1021" markerWidth="13" markerHeight="9" refX="9.5" refY="4.5" viewBox="0 0 13 9" orient="auto" markerUnits="userSpaceOnUse" stroke-dasharray="0,0"><path id="SvgjsPath1022" d="M0,0 L13,4.5 L0,9 L0,0" fill="#a7932c" stroke="#a7932c" stroke-width="1"></path></marker><marker id="SvgjsMarker1025" markerWidth="13" markerHeight="9" refX="9.5" refY="4.5" viewBox="0 0 13 9" orient="auto" markerUnits="userSpaceOnUse" stroke-dasharray="0,0"><path id="SvgjsPath1026" d="M0,0 L13,4.5 L0,9 L0,0" fill="#a66a30" stroke="#a66a30" stroke-width="1"></path></marker><marker id="SvgjsMarker1043" markerWidth="13" markerHeight="9" refX="9.5" refY="4.5" viewBox="0 0 13 9" orient="auto" markerUnits="userSpaceOnUse" stroke-dasharray="0,0"><path id="SvgjsPath1044" d="M0,0 L13,4.5 L0,9 L0,0" fill="#a7932c" stroke="#a7932c" stroke-width="1"></path></marker><marker id="SvgjsMarker1047" markerWidth="13" markerHeight="9" refX="9.5" refY="4.5" viewBox="0 0 13 9" orient="auto" markerUnits="userSpaceOnUse" stroke-dasharray="0,0"><path id="SvgjsPath1048" d="M0,0 L13,4.5 L0,9 L0,0" fill="#a7932c" stroke="#a7932c" stroke-width="1"></path></marker></defs><rect id="svgbackgroundid" width="796" height="324" fill="transparent"></rect><rect id="SvgjsRect1009" width="796" height="324" fill="url(#pattern_mark_0)"></rect><rect id="SvgjsRect1010" width="796" height="324" fill="url(#pattern_mark_1)"></rect><g id="SvgjsG1011" transform="translate(169,95)"><path id="SvgjsPath1012" d="M 8 8Q 8 0 16 0L 402 0Q 410 0 410 8L 410 188Q 410 196 402 196L 402 196" stroke="rgba(33,41,48,1)" stroke-width="1.5" fill-opacity="1" fill="#caedb4"></path><path id="SvgjsPath1013" d="M 0 16Q 0 8 8 8L 394 8Q 402 8 402 16L 402 196Q 402 204 394 204L 8 204Q 0 204 0 196L 0 16Z" stroke="rgba(33,41,48,1)" stroke-width="1.5" fill-opacity="1" fill="#caedb4"></path><path id="SvgjsPath1014" d="M 0 4Q 0 0 4 0L 406 0Q 410 0 410 4L 410 200Q 410 204 406 204L 4 204Q 0 204 0 200Z" stroke="none" fill="none"></path><g id="SvgjsG1015"><text id="SvgjsText1016" font-family="微软雅黑" text-anchor="middle" font-size="13px" width="370px" fill="#323232" font-weight="400" align="middle" lineHeight="125%" anchor="middle" family="微软雅黑" size="13px" weight="400" font-style="" opacity="1" y="95.375" transform="rotate(0)"><tspan id="SvgjsTspan1017" dy="16.25" x="201"><tspan id="SvgjsTspan1018" style=""> </tspan></tspan></text></g></g><g id="SvgjsG1019"><path id="SvgjsPath1020" d="M90.74999619662921 154.5023885229192L247 155" stroke="#a7932c" stroke-width="1.5" fill="none" marker-end="url(#SvgjsMarker1021)"></path></g><g id="SvgjsG1023"><path id="SvgjsPath1024" d="M84.75 215.5L165 215.5L165 215.5L246 215.5" stroke="#a66a30" stroke-width="1.5" fill="none" marker-end="url(#SvgjsMarker1025)"></path></g><g id="SvgjsG1027" transform="translate(257,143)"><path id="SvgjsPath1028" d="M 0 0L 268 0L 268 108L 0 108Z" stroke="none" fill="none"></path><g id="SvgjsG1029"><text id="SvgjsText1030" font-family="微软雅黑" text-anchor="start" font-size="16px" width="268px" fill="#323232" font-weight="400" align="middle" lineHeight="125%" anchor="start" family="微软雅黑" size="16px" weight="400" font-style="" opacity="1" y="0" transform="rotate(0)"><tspan id="SvgjsTspan1031" dy="20" x="0"><tspan id="SvgjsTspan1032" style="font-weight: bold;fill: rgb(127, 127, 127);">incrementCounter(int counter)</tspan></tspan><tspan id="SvgjsTspan1033" dy="20" x="0"><tspan id="SvgjsTspan1034" style="font-weight: bold;fill: rgb(127, 127, 127);">main()</tspan></tspan><tspan id="SvgjsTspan1035" dy="20" x="0"><tspan id="SvgjsTspan1036" style="font-weight: bold;fill: rgb(127, 127, 127);">{</tspan></tspan><tspan id="SvgjsTspan1037" dy="20" x="0"><tspan id="SvgjsTspan1038" style="font-weight: bold;fill: rgb(127, 127, 127);">incrementCounter(counter)</tspan></tspan><tspan id="SvgjsTspan1039" dy="20" x="0"><tspan id="SvgjsTspan1040" style="font-weight: bold;fill: rgb(127, 127, 127);">}</tspan></tspan></text></g></g><g id="SvgjsG1041"><path id="SvgjsPath1042" d="M442.0039061970192 54.74998982768092L442.5 150" stroke="#a7932c" stroke-width="1.5" fill="none" marker-end="url(#SvgjsMarker1043)"></path></g><g id="SvgjsG1045"><path id="SvgjsPath1046" d="M650 110L455 208" stroke="#a7932c" stroke-width="1.5" fill="none" marker-end="url(#SvgjsMarker1047)"></path></g><g id="SvgjsG1049" transform="translate(31,131)"><path id="SvgjsPath1050" d="M 0 0L 59 0L 59 47L 0 47Z" stroke="none" fill="none"></path><g id="SvgjsG1051"><text id="SvgjsText1052" font-family="微软雅黑" text-anchor="middle" font-size="18px" width="59px" fill="#323232" font-weight="400" align="middle" lineHeight="125%" anchor="middle" family="微软雅黑" size="18px" weight="400" font-style="" opacity="1" y="8.25" transform="rotate(0)"><tspan id="SvgjsTspan1053" dy="22.5" x="29.5"><tspan id="SvgjsTspan1054" style="font-weight: bold;fill: rgb(166, 166, 166);">Callee</tspan></tspan></text></g></g><g id="SvgjsG1055" transform="translate(25,175.5)"><path id="SvgjsPath1056" d="M 0 0L 59 0L 59 80L 0 80Z" stroke="none" fill="none"></path><g id="SvgjsG1057"><text id="SvgjsText1058" font-family="微软雅黑" text-anchor="middle" font-size="18px" width="59px" fill="#323232" font-weight="400" align="middle" lineHeight="125%" anchor="middle" family="微软雅黑" size="18px" weight="400" font-style="" opacity="1" y="24.75" transform="rotate(0)"><tspan id="SvgjsTspan1059" dy="22.5" x="29.5"><tspan id="SvgjsTspan1060" style="font-weight: bold;fill: rgb(166, 166, 166);">Caller</tspan></tspan></text></g></g><g id="SvgjsG1061" transform="translate(349,25)"><path id="SvgjsPath1062" d="M 0 0L 186 0L 186 29L 0 29Z" stroke="none" fill="none"></path><g id="SvgjsG1063"><text id="SvgjsText1064" font-family="微软雅黑" text-anchor="middle" font-size="18px" width="186px" fill="#323232" font-weight="400" align="middle" lineHeight="125%" anchor="middle" family="微软雅黑" size="18px" weight="400" font-style="" opacity="1" y="-0.75" transform="rotate(0)"><tspan id="SvgjsTspan1065" dy="22.5" x="93"><tspan id="SvgjsTspan1066" style="font-weight: bold;fill: rgb(166, 166, 166);">formal parameters</tspan></tspan></text></g></g><g id="SvgjsG1067" transform="translate(585,74.5)"><path id="SvgjsPath1068" d="M 0 0L 186 0L 186 40L 0 40Z" stroke="none" fill="none"></path><g id="SvgjsG1069"><text id="SvgjsText1070" font-family="微软雅黑" text-anchor="middle" font-size="18px" width="186px" fill="#323232" font-weight="400" align="middle" lineHeight="125%" anchor="middle" family="微软雅黑" size="18px" weight="400" font-style="" opacity="1" y="4.75" transform="rotate(0)"><tspan id="SvgjsTspan1071" dy="22.5" x="93"><tspan id="SvgjsTspan1072" style="font-weight: bold;fill: rgb(166, 166, 166);">actul parameters</tspan></tspan></text></g></g></svg>