<svg id="SvgjsSvg1006" width="650" height="319" xmlns="http://www.w3.org/2000/svg" version="1.1" xmlns:xlink="http://www.w3.org/1999/xlink" xmlns:svgjs="http://svgjs.com/svgjs"><defs id="SvgjsDefs1007"><pattern patternUnits="userSpaceOnUse" id="pattern_mark_0" width="300" height="300"><text x="150" y="100" fill="rgba(229,229,229,0.8)" font-size="18" transform="rotate(-45, 150, 150)" style="dominant-baseline: middle; text-anchor: middle;"></text></pattern><pattern patternUnits="userSpaceOnUse" id="pattern_mark_1" width="300" height="300"><text x="150" y="200" fill="rgba(229,229,229,0.8)" font-size="18" transform="rotate(-45, 150, 150)" style="dominant-baseline: middle; text-anchor: middle;"></text></pattern><marker id="SvgjsMarker1051" markerWidth="13" markerHeight="9" refX="9.5" refY="4.5" viewBox="0 0 13 9" orient="auto" markerUnits="userSpaceOnUse" stroke-dasharray="0,0"><path id="SvgjsPath1052" d="M0,0 L13,4.5 L0,9 L0,0" fill="#323232" stroke="#323232" stroke-width="1"></path></marker><marker id="SvgjsMarker1055" markerWidth="13" markerHeight="9" refX="9.5" refY="4.5" viewBox="0 0 13 9" orient="auto" markerUnits="userSpaceOnUse" stroke-dasharray="0,0"><path id="SvgjsPath1056" d="M0,0 L13,4.5 L0,9 L0,0" fill="#323232" stroke="#323232" stroke-width="1"></path></marker><marker id="SvgjsMarker1059" markerWidth="13" markerHeight="9" refX="9.5" refY="4.5" viewBox="0 0 13 9" orient="auto" markerUnits="userSpaceOnUse" stroke-dasharray="0,0"><path id="SvgjsPath1060" d="M0,0 L13,4.5 L0,9 L0,0" fill="#323232" stroke="#323232" stroke-width="1"></path></marker><marker id="SvgjsMarker1063" markerWidth="13" markerHeight="9" refX="9.5" refY="4.5" viewBox="0 0 13 9" orient="auto" markerUnits="userSpaceOnUse" stroke-dasharray="0,0"><path id="SvgjsPath1064" d="M0,0 L13,4.5 L0,9 L0,0" fill="#323232" stroke="#323232" stroke-width="1"></path></marker><marker id="SvgjsMarker1067" markerWidth="13" markerHeight="9" refX="9.5" refY="4.5" viewBox="0 0 13 9" orient="auto" markerUnits="userSpaceOnUse" stroke-dasharray="0,0"><path id="SvgjsPath1068" d="M0,0 L13,4.5 L0,9 L0,0" fill="#323232" stroke="#323232" stroke-width="1"></path></marker></defs><rect id="svgbackgroundid" width="650" height="319" fill="transparent"></rect><rect id="SvgjsRect1009" width="650" height="319" fill="url(#pattern_mark_0)"></rect><rect id="SvgjsRect1010" width="650" height="319" fill="url(#pattern_mark_1)"></rect><g id="SvgjsG1011" transform="translate(185,34)"><path id="SvgjsPath1012" d="M 0 4Q 0 0 4 0L 276 0Q 280 0 280 4L 280 116Q 280 120 276 120L 4 120Q 0 120 0 116Z" stroke="rgba(33,41,48,1)" stroke-width="1.5" fill-opacity="1" fill="#e8ffca"></path><g id="SvgjsG1013"><text id="SvgjsText1014" font-family="&quot;Comic Sans MS&quot;" text-anchor="middle" font-size="13px" width="260px" fill="#323232" font-weight="400" align="middle" lineHeight="125%" anchor="middle" family="&quot;Comic Sans MS&quot;" size="13px" weight="400" font-style="" opacity="1" y="49.375" transform="rotate(0)"></text></g></g><g id="SvgjsG1015" transform="translate(25,79)"><path id="SvgjsPath1016" d="M 0 0L 84 0L 100 16L 100 30L 0 30L 0 0Z" stroke="none" fill-opacity="1" fill="#fff7bc"></path><path id="SvgjsPath1017" d="M 84 0L 84 16L 100 16Z" stroke="none" fill-opacity="1" fill="#e4d089"></path><path id="SvgjsPath1018" d="M 0 0L 84 0L 100 16L 100 30L 0 30L 0 0Z" stroke="none" fill="none"></path><g id="SvgjsG1019"><text id="SvgjsText1020" font-family="&quot;Comic Sans MS&quot;" text-anchor="middle" font-size="13px" width="80px" fill="#323232" font-weight="400" align="middle" lineHeight="125%" anchor="middle" family="&quot;Comic Sans MS&quot;" size="13px" weight="400" font-style="" opacity="1" y="4.375" transform="rotate(0)"><tspan id="SvgjsTspan1021" dy="16.25" x="50"><tspan id="SvgjsTspan1022" style="">1. 查询数据</tspan></tspan></text></g></g><g id="SvgjsG1023" transform="translate(525,79)"><path id="SvgjsPath1024" d="M 0 0L 84 0L 100 16L 100 30L 0 30L 0 0Z" stroke="none" fill-opacity="1" fill="#fff7bc"></path><path id="SvgjsPath1025" d="M 84 0L 84 16L 100 16Z" stroke="none" fill-opacity="1" fill="#e4d089"></path><path id="SvgjsPath1026" d="M 0 0L 84 0L 100 16L 100 30L 0 30L 0 0Z" stroke="none" fill="none"></path><g id="SvgjsG1027"><text id="SvgjsText1028" font-family="&quot;Comic Sans MS&quot;" text-anchor="middle" font-size="13px" width="80px" fill="#323232" font-weight="400" align="middle" lineHeight="125%" anchor="middle" family="&quot;Comic Sans MS&quot;" size="13px" weight="400" font-style="" opacity="1" y="4.375" transform="rotate(0)"><tspan id="SvgjsTspan1029" dy="16.25" x="50"><tspan id="SvgjsTspan1030" style="">2.更新数据</tspan></tspan></text></g></g><g id="SvgjsG1031" transform="translate(225,74)"><path id="SvgjsPath1032" d="M 0 4Q 0 0 4 0L 196 0Q 200 0 200 4L 200 36Q 200 40 196 40L 4 40Q 0 40 0 36Z" stroke="rgba(33,41,48,1)" stroke-width="1.5" fill-opacity="1" fill="#ffffff"></path><g id="SvgjsG1033"><text id="SvgjsText1034" font-family="&quot;Comic Sans MS&quot;" text-anchor="middle" font-size="13px" width="180px" fill="#323232" font-weight="400" align="middle" lineHeight="125%" anchor="middle" family="&quot;Comic Sans MS&quot;" size="13px" weight="400" font-style="" opacity="1" y="9.375" transform="rotate(0)"><tspan id="SvgjsTspan1035" dy="16.25" x="100"><tspan id="SvgjsTspan1036" style="">Buffer Pool</tspan></tspan></text></g></g><g id="SvgjsG1037" transform="translate(275,25)"><path id="SvgjsPath1038" d="M 0 0L 100 0L 100 40L 0 40Z" stroke="none" fill="none"></path><g id="SvgjsG1039"><text id="SvgjsText1040" font-family="&quot;Comic Sans MS&quot;" text-anchor="middle" font-size="13px" width="100px" fill="#323232" font-weight="400" align="middle" lineHeight="125%" anchor="middle" family="&quot;Comic Sans MS&quot;" size="13px" weight="400" font-style="" opacity="1" y="9.375" transform="rotate(0)"><tspan id="SvgjsTspan1041" dy="16.25" x="50"><tspan id="SvgjsTspan1042" style="">Inno DB</tspan></tspan></text></g></g><g id="SvgjsG1043" transform="translate(185,254)"><path id="SvgjsPath1044" d="M 0 4Q 0 0 4 0L 276 0Q 280 0 280 4L 280 36Q 280 40 276 40L 4 40Q 0 40 0 36Z" stroke="rgba(33,41,48,1)" stroke-width="1.5" fill-opacity="1" fill="#d5ffff"></path><g id="SvgjsG1045"><text id="SvgjsText1046" font-family="&quot;Comic Sans MS&quot;" text-anchor="middle" font-size="13px" width="260px" fill="#323232" font-weight="400" align="middle" lineHeight="125%" anchor="middle" family="&quot;Comic Sans MS&quot;" size="13px" weight="400" font-style="" opacity="1" y="9.375" transform="rotate(0)"><tspan id="SvgjsTspan1047" dy="16.25" x="140"><tspan id="SvgjsTspan1048" style="">磁盘</tspan></tspan></text></g></g><g id="SvgjsG1049"><path id="SvgjsPath1050" d="M266 253.25L266 184L266 184L266 116.69999999999999" stroke="#323232" stroke-width="1.5" fill="none" marker-end="url(#SvgjsMarker1051)"></path></g><g id="SvgjsG1053"><path id="SvgjsPath1054" d="M390 253.25L390 184L390 184L390 116.69999999999999" stroke="#323232" stroke-width="1.5" fill="none" marker-end="url(#SvgjsMarker1055)"></path></g><g id="SvgjsG1057"><path id="SvgjsPath1058" d="M125 94L175 94L175 94L222.3 94" stroke="#323232" stroke-width="1.5" fill="none" marker-end="url(#SvgjsMarker1059)"></path></g><g id="SvgjsG1061"><path id="SvgjsPath1062" d="M525 94L475 94L475 94L427.70000000000005 94" stroke="#323232" stroke-width="1.5" fill="none" marker-end="url(#SvgjsMarker1063)"></path></g><g id="SvgjsG1065"><path id="SvgjsPath1066" d="M416 114.75L416 144L533 144L533 274L467.70000000000005 274" stroke="#323232" stroke-width="1.5" fill="none" marker-end="url(#SvgjsMarker1067)"></path></g><g id="SvgjsG1069" transform="translate(171,164)"><path id="SvgjsPath1070" d="M 0 0L 100 0L 100 80L 0 80Z" stroke="none" fill="none"></path><g id="SvgjsG1071"><text id="SvgjsText1072" font-family="&quot;Comic Sans MS&quot;" text-anchor="start" font-size="13px" width="100px" fill="#323232" font-weight="400" align="middle" lineHeight="125%" anchor="start" family="&quot;Comic Sans MS&quot;" size="13px" weight="400" font-style="" opacity="1" y="-3.125" transform="rotate(0)"><tspan id="SvgjsTspan1073" dy="16.25" x="0"><tspan id="SvgjsTspan1074" style="">1.1 如果不存在</tspan></tspan><tspan id="SvgjsTspan1075" dy="16.25" x="0"><tspan id="SvgjsTspan1076" style="">则从磁盘获取</tspan></tspan><tspan id="SvgjsTspan1077" dy="16.25" x="0"><tspan id="SvgjsTspan1078" style=""> </tspan></tspan><tspan id="SvgjsTspan1079" dy="16.25" x="0"><tspan id="SvgjsTspan1080" style="">2.2 将其加载到</tspan></tspan><tspan id="SvgjsTspan1081" dy="16.25" x="0"><tspan id="SvgjsTspan1082" style="">Buffer Pool中</tspan></tspan></text></g></g><g id="SvgjsG1083" transform="translate(393,164)"><path id="SvgjsPath1084" d="M 0 0L 119 0L 119 80L 0 80Z" stroke="none" fill="none"></path><g id="SvgjsG1085"><text id="SvgjsText1086" font-family="&quot;Comic Sans MS&quot;" text-anchor="start" font-size="13px" width="119px" fill="#323232" font-weight="400" align="middle" lineHeight="125%" anchor="start" family="&quot;Comic Sans MS&quot;" size="13px" weight="400" font-style="" opacity="1" y="-3.125" transform="rotate(0)"><tspan id="SvgjsTspan1087" dy="16.25" x="0"><tspan id="SvgjsTspan1088" style="">2.1 不存在则从磁盘</tspan></tspan><tspan id="SvgjsTspan1089" dy="16.25" x="0"><tspan id="SvgjsTspan1090" style="">加载到Buffer Pool</tspan></tspan><tspan id="SvgjsTspan1091" dy="16.25" x="0"><tspan id="SvgjsTspan1092" style=""> </tspan></tspan><tspan id="SvgjsTspan1093" dy="16.25" x="0"><tspan id="SvgjsTspan1094" style="">2.2 修改Buffer Pool</tspan></tspan><tspan id="SvgjsTspan1095" dy="16.25" x="0"><tspan id="SvgjsTspan1096" style="">的数据</tspan></tspan></text></g></g><g id="SvgjsG1097" transform="translate(525,184)"><path id="SvgjsPath1098" d="M 0 0L 100 0L 100 40L 0 40Z" stroke="none" fill="none"></path><g id="SvgjsG1099"><text id="SvgjsText1100" font-family="&quot;Comic Sans MS&quot;" text-anchor="middle" font-size="13px" width="100px" fill="#323232" font-weight="400" align="middle" lineHeight="125%" anchor="middle" family="&quot;Comic Sans MS&quot;" size="13px" weight="400" font-style="" opacity="1" y="9.375" transform="rotate(0)"><tspan id="SvgjsTspan1101" dy="16.25" x="50"><tspan id="SvgjsTspan1102" style="">定期刷入磁盘</tspan></tspan></text></g></g></svg>