<svg id="SvgjsSvg1006" width="1211.2232142857142" height="410" xmlns="http://www.w3.org/2000/svg" version="1.1" xmlns:xlink="http://www.w3.org/1999/xlink" xmlns:svgjs="http://svgjs.com/svgjs"><defs id="SvgjsDefs1007"><pattern patternUnits="userSpaceOnUse" id="pattern_mark_0" width="300" height="300"><text x="150" y="100" fill="rgba(229,229,229,0.8)" font-size="18" transform="rotate(-45, 150, 150)" style="dominant-baseline: middle; text-anchor: middle;"></text></pattern><pattern patternUnits="userSpaceOnUse" id="pattern_mark_1" width="300" height="300"><text x="150" y="200" fill="rgba(229,229,229,0.8)" font-size="18" transform="rotate(-45, 150, 150)" style="dominant-baseline: middle; text-anchor: middle;"></text></pattern><marker id="SvgjsMarker1123" markerWidth="13" markerHeight="9" refX="9.5" refY="4.5" viewBox="0 0 13 9" orient="auto" markerUnits="userSpaceOnUse" stroke-dasharray="0,0"><path id="SvgjsPath1124" d="M0,0 L13,4.5 L0,9 L0,0" fill="#323232" stroke="#323232" stroke-width="1"></path></marker><marker id="SvgjsMarker1127" markerWidth="13" markerHeight="9" refX="9.5" refY="4.5" viewBox="0 0 13 9" orient="auto" markerUnits="userSpaceOnUse" stroke-dasharray="0,0"><path id="SvgjsPath1128" d="M0,0 L13,4.5 L0,9 L0,0" fill="#323232" stroke="#323232" stroke-width="1"></path></marker><marker id="SvgjsMarker1131" markerWidth="13" markerHeight="9" refX="9.5" refY="4.5" viewBox="0 0 13 9" orient="auto" markerUnits="userSpaceOnUse" stroke-dasharray="0,0"><path id="SvgjsPath1132" d="M0,0 L13,4.5 L0,9 L0,0" fill="#323232" stroke="#323232" stroke-width="1"></path></marker><marker id="SvgjsMarker1135" markerWidth="13" markerHeight="9" refX="9.5" refY="4.5" viewBox="0 0 13 9" orient="auto" markerUnits="userSpaceOnUse" stroke-dasharray="0,0"><path id="SvgjsPath1136" d="M0,0 L13,4.5 L0,9 L0,0" fill="#323232" stroke="#323232" stroke-width="1"></path></marker><marker id="SvgjsMarker1139" markerWidth="13" markerHeight="9" refX="9.5" refY="4.5" viewBox="0 0 13 9" orient="auto" markerUnits="userSpaceOnUse" stroke-dasharray="0,0"><path id="SvgjsPath1140" d="M0,0 L13,4.5 L0,9 L0,0" fill="#323232" stroke="#323232" stroke-width="1"></path></marker><marker id="SvgjsMarker1143" markerWidth="13" markerHeight="9" refX="9.5" refY="4.5" viewBox="0 0 13 9" orient="auto" markerUnits="userSpaceOnUse" stroke-dasharray="0,0"><path id="SvgjsPath1144" d="M0,0 L13,4.5 L0,9 L0,0" fill="#323232" stroke="#323232" stroke-width="1"></path></marker><marker id="SvgjsMarker1147" markerWidth="13" markerHeight="9" refX="9.5" refY="4.5" viewBox="0 0 13 9" orient="auto" markerUnits="userSpaceOnUse" stroke-dasharray="0,0"><path id="SvgjsPath1148" d="M0,0 L13,4.5 L0,9 L0,0" fill="#323232" stroke="#323232" stroke-width="1"></path></marker><marker id="SvgjsMarker1151" markerWidth="13" markerHeight="9" refX="9.5" refY="4.5" viewBox="0 0 13 9" orient="auto" markerUnits="userSpaceOnUse" stroke-dasharray="0,0"><path id="SvgjsPath1152" d="M0,0 L13,4.5 L0,9 L0,0" fill="#323232" stroke="#323232" stroke-width="1"></path></marker><marker id="SvgjsMarker1155" markerWidth="13" markerHeight="9" refX="9.5" refY="4.5" viewBox="0 0 13 9" orient="auto" markerUnits="userSpaceOnUse" stroke-dasharray="0,0"><path id="SvgjsPath1156" d="M0,0 L13,4.5 L0,9 L0,0" fill="#323232" stroke="#323232" stroke-width="1"></path></marker><marker id="SvgjsMarker1159" markerWidth="13" markerHeight="9" refX="9.5" refY="4.5" viewBox="0 0 13 9" orient="auto" markerUnits="userSpaceOnUse" stroke-dasharray="0,0"><path id="SvgjsPath1160" d="M0,0 L13,4.5 L0,9 L0,0" fill="#323232" stroke="#323232" stroke-width="1"></path></marker><marker id="SvgjsMarker1163" markerWidth="13" markerHeight="9" refX="9.5" refY="4.5" viewBox="0 0 13 9" orient="auto" markerUnits="userSpaceOnUse" stroke-dasharray="0,0"><path id="SvgjsPath1164" d="M0,0 L13,4.5 L0,9 L0,0" fill="#323232" stroke="#323232" stroke-width="1"></path></marker><marker id="SvgjsMarker1167" markerWidth="13" markerHeight="9" refX="9.5" refY="4.5" viewBox="0 0 13 9" orient="auto" markerUnits="userSpaceOnUse" stroke-dasharray="0,0"><path id="SvgjsPath1168" d="M0,0 L13,4.5 L0,9 L0,0" fill="#323232" stroke="#323232" stroke-width="1"></path></marker><marker id="SvgjsMarker1171" markerWidth="13" markerHeight="9" refX="9.5" refY="4.5" viewBox="0 0 13 9" orient="auto" markerUnits="userSpaceOnUse" stroke-dasharray="0,0"><path id="SvgjsPath1172" d="M0,0 L13,4.5 L0,9 L0,0" fill="#323232" stroke="#323232" stroke-width="1"></path></marker><marker id="SvgjsMarker1175" markerWidth="13" markerHeight="9" refX="9.5" refY="4.5" viewBox="0 0 13 9" orient="auto" markerUnits="userSpaceOnUse" stroke-dasharray="0,0"><path id="SvgjsPath1176" d="M0,0 L13,4.5 L0,9 L0,0" fill="#323232" stroke="#323232" stroke-width="1"></path></marker><marker id="SvgjsMarker1179" markerWidth="13" markerHeight="9" refX="9.5" refY="4.5" viewBox="0 0 13 9" orient="auto" markerUnits="userSpaceOnUse" stroke-dasharray="0,0"><path id="SvgjsPath1180" d="M0,0 L13,4.5 L0,9 L0,0" fill="#323232" stroke="#323232" stroke-width="1"></path></marker><marker id="SvgjsMarker1197" markerWidth="13" markerHeight="9" refX="9.5" refY="4.5" viewBox="0 0 13 9" orient="auto" markerUnits="userSpaceOnUse" stroke-dasharray="0,0"><path id="SvgjsPath1198" d="M0,0 L13,4.5 L0,9 L0,0" fill="#323232" stroke="#323232" stroke-width="1"></path></marker><marker id="SvgjsMarker1201" markerWidth="13" markerHeight="9" refX="9.5" refY="4.5" viewBox="0 0 13 9" orient="auto" markerUnits="userSpaceOnUse" stroke-dasharray="0,0"><path id="SvgjsPath1202" d="M0,0 L13,4.5 L0,9 L0,0" fill="#323232" stroke="#323232" stroke-width="1"></path></marker></defs><rect id="svgbackgroundid" width="1211.2232142857142" height="410" fill="transparent"></rect><rect id="SvgjsRect1009" width="1211.2232142857142" height="410" fill="url(#pattern_mark_0)"></rect><rect id="SvgjsRect1010" width="1211.2232142857142" height="410" fill="url(#pattern_mark_1)"></rect><g id="SvgjsG1011" transform="translate(331,25)"><path id="SvgjsPath1012" d="M 0 45C 0 -15 90.44642857142857 -15 90.44642857142857 45C 90.44642857142857 105 0 105 0 45Z" stroke="rgba(33,41,48,1)" stroke-width="1.5" fill-opacity="1" fill="#52a0ff"></path><g id="SvgjsG1013"><text id="SvgjsText1014" font-family="&quot;Microsoft YaHei&quot;, 微软雅黑, Arial" text-anchor="middle" font-size="13px" width="71px" fill="#323232" font-weight="700" align="middle" lineHeight="125%" anchor="middle" family="&quot;Microsoft YaHei&quot;, 微软雅黑, Arial" size="13px" weight="700" font-style="" opacity="1" y="34.375" transform="rotate(0)"><tspan id="SvgjsTspan1015" dy="16.25" x="45.5"><tspan id="SvgjsTspan1016" style="">Clojure</tspan></tspan></text></g></g><g id="SvgjsG1017" transform="translate(1096.2232142857142,25)"><path id="SvgjsPath1018" d="M 0 45C 0 -15 90 -15 90 45C 90 105 0 105 0 45Z" stroke="rgba(33,41,48,1)" stroke-width="1.5" fill-opacity="1" fill="#52a0ff"></path><g id="SvgjsG1019"><text id="SvgjsText1020" font-family="&quot;Microsoft YaHei&quot;, 微软雅黑, Arial" text-anchor="middle" font-size="13px" width="70px" fill="#323232" font-weight="700" align="middle" lineHeight="125%" anchor="middle" family="&quot;Microsoft YaHei&quot;, 微软雅黑, Arial" size="13px" weight="700" font-style="" opacity="1" y="34.375" transform="rotate(0)"><tspan id="SvgjsTspan1021" dy="16.25" x="45"><tspan id="SvgjsTspan1022" style="">JavaScript</tspan></tspan></text></g></g><g id="SvgjsG1023" transform="translate(483.99999999999994,25)"><path id="SvgjsPath1024" d="M 0 45C 0 -15 90.44642857142857 -15 90.44642857142857 45C 90.44642857142857 105 0 105 0 45Z" stroke="rgba(33,41,48,1)" stroke-width="1.5" fill-opacity="1" fill="#52a0ff"></path><g id="SvgjsG1025"><text id="SvgjsText1026" font-family="&quot;Microsoft YaHei&quot;, 微软雅黑, Arial" text-anchor="middle" font-size="13px" width="71px" fill="#323232" font-weight="700" align="middle" lineHeight="125%" anchor="middle" family="&quot;Microsoft YaHei&quot;, 微软雅黑, Arial" size="13px" weight="700" font-style="" opacity="1" y="34.375" transform="rotate(0)"><tspan id="SvgjsTspan1027" dy="16.25" x="45.5"><tspan id="SvgjsTspan1028" style="">Groovy</tspan></tspan></text></g></g><g id="SvgjsG1029" transform="translate(637.0000000000001,25)"><path id="SvgjsPath1030" d="M 0 45C 0 -15 90.44642857142857 -15 90.44642857142857 45C 90.44642857142857 105 0 105 0 45Z" stroke="rgba(33,41,48,1)" stroke-width="1.5" fill-opacity="1" fill="#52a0ff"></path><g id="SvgjsG1031"><text id="SvgjsText1032" font-family="&quot;Microsoft YaHei&quot;, 微软雅黑, Arial" text-anchor="middle" font-size="13px" width="71px" fill="#323232" font-weight="700" align="middle" lineHeight="125%" anchor="middle" family="&quot;Microsoft YaHei&quot;, 微软雅黑, Arial" size="13px" weight="700" font-style="" opacity="1" y="34.375" transform="rotate(0)"><tspan id="SvgjsTspan1033" dy="16.25" x="45.5"><tspan id="SvgjsTspan1034" style="">Scala</tspan></tspan></text></g></g><g id="SvgjsG1035" transform="translate(789.0178571428571,25)"><path id="SvgjsPath1036" d="M 0 45C 0 -15 90.44642857142857 -15 90.44642857142857 45C 90.44642857142857 105 0 105 0 45Z" stroke="rgba(33,41,48,1)" stroke-width="1.5" fill-opacity="1" fill="#52a0ff"></path><g id="SvgjsG1037"><text id="SvgjsText1038" font-family="&quot;Microsoft YaHei&quot;, 微软雅黑, Arial" text-anchor="middle" font-size="13px" width="71px" fill="#323232" font-weight="700" align="middle" lineHeight="125%" anchor="middle" family="&quot;Microsoft YaHei&quot;, 微软雅黑, Arial" size="13px" weight="700" font-style="" opacity="1" y="34.375" transform="rotate(0)"><tspan id="SvgjsTspan1039" dy="16.25" x="45.5"><tspan id="SvgjsTspan1040" style="">Jython</tspan></tspan></text></g></g><g id="SvgjsG1041" transform="translate(942.7767857142858,25)"><path id="SvgjsPath1042" d="M 0 45C 0 -15 90.44642857142857 -15 90.44642857142857 45C 90.44642857142857 105 0 105 0 45Z" stroke="rgba(33,41,48,1)" stroke-width="1.5" fill-opacity="1" fill="#52a0ff"></path><g id="SvgjsG1043"><text id="SvgjsText1044" font-family="&quot;Microsoft YaHei&quot;, 微软雅黑, Arial" text-anchor="middle" font-size="13px" width="71px" fill="#323232" font-weight="700" align="middle" lineHeight="125%" anchor="middle" family="&quot;Microsoft YaHei&quot;, 微软雅黑, Arial" size="13px" weight="700" font-style="" opacity="1" y="34.375" transform="rotate(0)"><tspan id="SvgjsTspan1045" dy="16.25" x="45.5"><tspan id="SvgjsTspan1046" style="">JRuby</tspan></tspan></text></g></g><g id="SvgjsG1047" transform="translate(177.77678571428572,25)"><path id="SvgjsPath1048" d="M 0 45C 0 -15 90.44642857142857 -15 90.44642857142857 45C 90.44642857142857 105 0 105 0 45Z" stroke="rgba(33,41,48,1)" stroke-width="1.5" fill-opacity="1" fill="#52a0ff"></path><g id="SvgjsG1049"><text id="SvgjsText1050" font-family="&quot;Microsoft YaHei&quot;, 微软雅黑, Arial" text-anchor="middle" font-size="13px" width="71px" fill="#323232" font-weight="700" align="middle" lineHeight="125%" anchor="middle" family="&quot;Microsoft YaHei&quot;, 微软雅黑, Arial" size="13px" weight="700" font-style="" opacity="1" y="34.375" transform="rotate(0)"><tspan id="SvgjsTspan1051" dy="16.25" x="45.5"><tspan id="SvgjsTspan1052" style="">Kotlin</tspan></tspan></text></g></g><g id="SvgjsG1053" transform="translate(178.22321428571428,165)"><path id="SvgjsPath1054" d="M 0 0L 90 0L 90 30L 0 30Z" stroke="rgba(33,41,48,1)" stroke-width="1.5" fill-opacity="1" fill="#4ee231"></path><g id="SvgjsG1055"><text id="SvgjsText1056" font-family="&quot;Microsoft YaHei&quot;, 微软雅黑, Arial" text-anchor="middle" font-size="13px" width="70px" fill="#323232" font-weight="700" align="middle" lineHeight="125%" anchor="middle" family="&quot;Microsoft YaHei&quot;, 微软雅黑, Arial" size="13px" weight="700" font-style="" opacity="1" y="-4.125" transform="rotate(0)"><tspan id="SvgjsTspan1057" dy="16.25" x="45"><tspan id="SvgjsTspan1058" style="">Kotlin</tspan></tspan><tspan id="SvgjsTspan1059" dy="16.25" x="45"><tspan id="SvgjsTspan1060" style="">编译器</tspan></tspan></text></g></g><g id="SvgjsG1061" transform="translate(331.2232142857143,165)"><path id="SvgjsPath1062" d="M 0 0L 90 0L 90 30L 0 30Z" stroke="rgba(33,41,48,1)" stroke-width="1.5" fill-opacity="1" fill="#4ee231"></path><g id="SvgjsG1063"><text id="SvgjsText1064" font-family="&quot;Microsoft YaHei&quot;, 微软雅黑, Arial" text-anchor="middle" font-size="13px" width="70px" fill="#323232" font-weight="700" align="middle" lineHeight="125%" anchor="middle" family="&quot;Microsoft YaHei&quot;, 微软雅黑, Arial" size="13px" weight="700" font-style="" opacity="1" y="-4.125" transform="rotate(0)"><tspan id="SvgjsTspan1065" dy="16.25" x="45"><tspan id="SvgjsTspan1066" style="">Clojure</tspan></tspan><tspan id="SvgjsTspan1067" dy="16.25" x="45"><tspan id="SvgjsTspan1068" style="">编译器</tspan></tspan></text></g></g><g id="SvgjsG1069" transform="translate(484.2232142857143,165)"><path id="SvgjsPath1070" d="M 0 0L 90 0L 90 30L 0 30Z" stroke="rgba(33,41,48,1)" stroke-width="1.5" fill-opacity="1" fill="#4ee231"></path><g id="SvgjsG1071"><text id="SvgjsText1072" font-family="&quot;Microsoft YaHei&quot;, 微软雅黑, Arial" text-anchor="middle" font-size="13px" width="70px" fill="#323232" font-weight="700" align="middle" lineHeight="125%" anchor="middle" family="&quot;Microsoft YaHei&quot;, 微软雅黑, Arial" size="13px" weight="700" font-style="" opacity="1" y="-4.125" transform="rotate(0)"><tspan id="SvgjsTspan1073" dy="16.25" x="45"><tspan id="SvgjsTspan1074" style="">Groovy</tspan></tspan><tspan id="SvgjsTspan1075" dy="16.25" x="45"><tspan id="SvgjsTspan1076" style="">编译器</tspan></tspan></text></g></g><g id="SvgjsG1077" transform="translate(637.2232142857143,165)"><path id="SvgjsPath1078" d="M 0 0L 90 0L 90 30L 0 30Z" stroke="rgba(33,41,48,1)" stroke-width="1.5" fill-opacity="1" fill="#4ee231"></path><g id="SvgjsG1079"><text id="SvgjsText1080" font-family="&quot;Microsoft YaHei&quot;, 微软雅黑, Arial" text-anchor="middle" font-size="13px" width="70px" fill="#323232" font-weight="700" align="middle" lineHeight="125%" anchor="middle" family="&quot;Microsoft YaHei&quot;, 微软雅黑, Arial" size="13px" weight="700" font-style="" opacity="1" y="-4.125" transform="rotate(0)"><tspan id="SvgjsTspan1081" dy="16.25" x="45"><tspan id="SvgjsTspan1082" style="">Scala</tspan></tspan><tspan id="SvgjsTspan1083" dy="16.25" x="45"><tspan id="SvgjsTspan1084" style="">编译器</tspan></tspan></text></g></g><g id="SvgjsG1085" transform="translate(790.2232142857143,165)"><path id="SvgjsPath1086" d="M 0 0L 90 0L 90 30L 0 30Z" stroke="rgba(33,41,48,1)" stroke-width="1.5" fill-opacity="1" fill="#4ee231"></path><g id="SvgjsG1087"><text id="SvgjsText1088" font-family="&quot;Microsoft YaHei&quot;, 微软雅黑, Arial" text-anchor="middle" font-size="13px" width="70px" fill="#323232" font-weight="700" align="middle" lineHeight="125%" anchor="middle" family="&quot;Microsoft YaHei&quot;, 微软雅黑, Arial" size="13px" weight="700" font-style="" opacity="1" y="-4.125" transform="rotate(0)"><tspan id="SvgjsTspan1089" dy="16.25" x="45"><tspan id="SvgjsTspan1090" style="">Jython</tspan></tspan><tspan id="SvgjsTspan1091" dy="16.25" x="45"><tspan id="SvgjsTspan1092" style="">编译器</tspan></tspan></text></g></g><g id="SvgjsG1093" transform="translate(943.2232142857143,165)"><path id="SvgjsPath1094" d="M 0 0L 90 0L 90 30L 0 30Z" stroke="rgba(33,41,48,1)" stroke-width="1.5" fill-opacity="1" fill="#4ee231"></path><g id="SvgjsG1095"><text id="SvgjsText1096" font-family="&quot;Microsoft YaHei&quot;, 微软雅黑, Arial" text-anchor="middle" font-size="13px" width="70px" fill="#323232" font-weight="700" align="middle" lineHeight="125%" anchor="middle" family="&quot;Microsoft YaHei&quot;, 微软雅黑, Arial" size="13px" weight="700" font-style="" opacity="1" y="-4.125" transform="rotate(0)"><tspan id="SvgjsTspan1097" dy="16.25" x="45"><tspan id="SvgjsTspan1098" style="">JRuby</tspan></tspan><tspan id="SvgjsTspan1099" dy="16.25" x="45"><tspan id="SvgjsTspan1100" style="">编译器</tspan></tspan></text></g></g><g id="SvgjsG1101" transform="translate(1096.2232142857142,165)"><path id="SvgjsPath1102" d="M 0 0L 90 0L 90 30L 0 30Z" stroke="rgba(33,41,48,1)" stroke-width="1.5" fill-opacity="1" fill="#4ee231"></path><g id="SvgjsG1103"><text id="SvgjsText1104" font-family="&quot;Microsoft YaHei&quot;, 微软雅黑, Arial" text-anchor="middle" font-size="13px" width="70px" fill="#323232" font-weight="700" align="middle" lineHeight="125%" anchor="middle" family="&quot;Microsoft YaHei&quot;, 微软雅黑, Arial" size="13px" weight="700" font-style="" opacity="1" y="-4.125" transform="rotate(0)"><tspan id="SvgjsTspan1105" dy="16.25" x="45"><tspan id="SvgjsTspan1106" style="">JavaScript</tspan></tspan><tspan id="SvgjsTspan1107" dy="16.25" x="45"><tspan id="SvgjsTspan1108" style="">编译器</tspan></tspan></text></g></g><g id="SvgjsG1109" transform="translate(555.6116071428571,245)"><path id="SvgjsPath1110" d="M 0 0L 100 0L 100 30L 0 30Z" stroke="rgba(33,41,48,1)" stroke-width="1.5" fill-opacity="1" fill="#4ee231"></path><g id="SvgjsG1111"><text id="SvgjsText1112" font-family="&quot;Microsoft YaHei&quot;, 微软雅黑, Arial" text-anchor="middle" font-size="13px" width="80px" fill="#323232" font-weight="700" align="middle" lineHeight="125%" anchor="middle" family="&quot;Microsoft YaHei&quot;, 微软雅黑, Arial" size="13px" weight="700" font-style="" opacity="1" y="4.375" transform="rotate(0)"><tspan id="SvgjsTspan1113" dy="16.25" x="50"><tspan id="SvgjsTspan1114" style="">字节码文件</tspan></tspan></text></g></g><g id="SvgjsG1115" transform="translate(535.6116071428571,325)"><path id="SvgjsPath1116" d="M 0 0L 140 0L 140 60L 0 60Z" stroke="rgba(33,41,48,1)" stroke-width="1.5" fill-opacity="1" fill="#ee1c05"></path><g id="SvgjsG1117"><text id="SvgjsText1118" font-family="&quot;Microsoft YaHei&quot;, 微软雅黑, Arial" text-anchor="middle" font-size="13px" width="120px" fill="#323232" font-weight="700" align="middle" lineHeight="125%" anchor="middle" family="&quot;Microsoft YaHei&quot;, 微软雅黑, Arial" size="13px" weight="700" font-style="" opacity="1" y="19.375" transform="rotate(0)"><tspan id="SvgjsTspan1119" dy="16.25" x="70"><tspan id="SvgjsTspan1120" style="">Java虚拟机</tspan></tspan></text></g></g><g id="SvgjsG1121"><path id="SvgjsPath1122" d="M223 115.75L223 140L223.22321428571428 140L223.22321428571428 162.3" stroke="#323232" stroke-width="1.5" fill="none" marker-end="url(#SvgjsMarker1123)"></path></g><g id="SvgjsG1125"><path id="SvgjsPath1126" d="M376.2232142857143 115.75L376.2232142857143 140L376.2232142857143 140L376.2232142857143 162.3" stroke="#323232" stroke-width="1.5" fill="none" marker-end="url(#SvgjsMarker1127)"></path></g><g id="SvgjsG1129"><path id="SvgjsPath1130" d="M529.2232142857142 115.75L529.2232142857142 140L529.2232142857143 140L529.2232142857143 162.3" stroke="#323232" stroke-width="1.5" fill="none" marker-end="url(#SvgjsMarker1131)"></path></g><g id="SvgjsG1133"><path id="SvgjsPath1134" d="M682.2232142857144 115.75L682.2232142857144 140L682.2232142857143 140L682.2232142857143 162.3" stroke="#323232" stroke-width="1.5" fill="none" marker-end="url(#SvgjsMarker1135)"></path></g><g id="SvgjsG1137"><path id="SvgjsPath1138" d="M834.2410714285714 115.75L834.2410714285714 140L835.2232142857143 140L835.2232142857143 162.3" stroke="#323232" stroke-width="1.5" fill="none" marker-end="url(#SvgjsMarker1139)"></path></g><g id="SvgjsG1141"><path id="SvgjsPath1142" d="M988.0000000000001 115.75L988.0000000000001 140L988.2232142857143 140L988.2232142857143 162.3" stroke="#323232" stroke-width="1.5" fill="none" marker-end="url(#SvgjsMarker1143)"></path></g><g id="SvgjsG1145"><path id="SvgjsPath1146" d="M1141.2232142857142 115.75L1141.2232142857142 140L1141.2232142857142 140L1141.2232142857142 162.3" stroke="#323232" stroke-width="1.5" fill="none" marker-end="url(#SvgjsMarker1147)"></path></g><g id="SvgjsG1149"><path id="SvgjsPath1150" d="M223.22321428571428 195.75L223.22321428571428 220L605.6116071428571 220L605.6116071428571 242.3" stroke="#323232" stroke-width="1.5" fill="none" marker-end="url(#SvgjsMarker1151)"></path></g><g id="SvgjsG1153"><path id="SvgjsPath1154" d="M376.2232142857143 195.75L376.2232142857143 220L605.6116071428571 220L605.6116071428571 242.3" stroke="#323232" stroke-width="1.5" fill="none" marker-end="url(#SvgjsMarker1155)"></path></g><g id="SvgjsG1157"><path id="SvgjsPath1158" d="M529.2232142857143 195.75L529.2232142857143 220L605.6116071428571 220L605.6116071428571 242.3" stroke="#323232" stroke-width="1.5" fill="none" marker-end="url(#SvgjsMarker1159)"></path></g><g id="SvgjsG1161"><path id="SvgjsPath1162" d="M682.2232142857143 195.75L682.2232142857143 220L605.6116071428571 220L605.6116071428571 242.3" stroke="#323232" stroke-width="1.5" fill="none" marker-end="url(#SvgjsMarker1163)"></path></g><g id="SvgjsG1165"><path id="SvgjsPath1166" d="M835.2232142857143 195.75L835.2232142857143 220L605.6116071428571 220L605.6116071428571 242.3" stroke="#323232" stroke-width="1.5" fill="none" marker-end="url(#SvgjsMarker1167)"></path></g><g id="SvgjsG1169"><path id="SvgjsPath1170" d="M988.2232142857143 195.75L988.2232142857143 220L605.6116071428571 220L605.6116071428571 242.3" stroke="#323232" stroke-width="1.5" fill="none" marker-end="url(#SvgjsMarker1171)"></path></g><g id="SvgjsG1173"><path id="SvgjsPath1174" d="M1141.2232142857142 195.75L1141.2232142857142 220L605.6116071428571 220L605.6116071428571 242.3" stroke="#323232" stroke-width="1.5" fill="none" marker-end="url(#SvgjsMarker1175)"></path></g><g id="SvgjsG1177"><path id="SvgjsPath1178" d="M605.6116071428571 275.75L605.6116071428571 300L605.6116071428571 300L605.6116071428571 322.3" stroke="#323232" stroke-width="1.5" fill="none" marker-end="url(#SvgjsMarker1179)"></path></g><g id="SvgjsG1181" transform="translate(25,25)"><path id="SvgjsPath1182" d="M 0 45C 0 -15 90.44642857142857 -15 90.44642857142857 45C 90.44642857142857 105 0 105 0 45Z" stroke="rgba(33,41,48,1)" stroke-width="1.5" fill-opacity="1" fill="#52a0ff"></path><g id="SvgjsG1183"><text id="SvgjsText1184" font-family="&quot;Microsoft YaHei&quot;, 微软雅黑, Arial" text-anchor="middle" font-size="13px" width="71px" fill="#323232" font-weight="700" align="middle" lineHeight="125%" anchor="middle" family="&quot;Microsoft YaHei&quot;, 微软雅黑, Arial" size="13px" weight="700" font-style="" opacity="1" y="34.375" transform="rotate(0)"><tspan id="SvgjsTspan1185" dy="16.25" x="45.5"><tspan id="SvgjsTspan1186" style="">Java</tspan></tspan></text></g></g><g id="SvgjsG1187" transform="translate(25.223214285714285,165)"><path id="SvgjsPath1188" d="M 0 0L 90 0L 90 30L 0 30Z" stroke="rgba(33,41,48,1)" stroke-width="1.5" fill-opacity="1" fill="#4ee231"></path><g id="SvgjsG1189"><text id="SvgjsText1190" font-family="&quot;Microsoft YaHei&quot;, 微软雅黑, Arial" text-anchor="middle" font-size="13px" width="70px" fill="#323232" font-weight="700" align="middle" lineHeight="125%" anchor="middle" family="&quot;Microsoft YaHei&quot;, 微软雅黑, Arial" size="13px" weight="700" font-style="" opacity="1" y="-4.125" transform="rotate(0)"><tspan id="SvgjsTspan1191" dy="16.25" x="45"><tspan id="SvgjsTspan1192" style="">Java</tspan></tspan><tspan id="SvgjsTspan1193" dy="16.25" x="45"><tspan id="SvgjsTspan1194" style="">编译器</tspan></tspan></text></g></g><g id="SvgjsG1195"><path id="SvgjsPath1196" d="M70.22321428571428 115.75L70.22321428571428 140L70.22321428571428 140L70.22321428571428 162.3" stroke="#323232" stroke-width="1.5" fill="none" marker-end="url(#SvgjsMarker1197)"></path></g><g id="SvgjsG1199"><path id="SvgjsPath1200" d="M70.22321428571428 195.75L70.22321428571428 220L605.6116071428571 220L605.6116071428571 242.3" stroke="#323232" stroke-width="1.5" fill="none" marker-end="url(#SvgjsMarker1201)"></path></g><g id="SvgjsG1203"></g></svg>