<svg id="SvgjsSvg1006" width="790" height="380" xmlns="http://www.w3.org/2000/svg" version="1.1" xmlns:xlink="http://www.w3.org/1999/xlink" xmlns:svgjs="http://svgjs.com/svgjs"><defs id="SvgjsDefs1007"><pattern patternUnits="userSpaceOnUse" id="pattern_mark_0" width="300" height="300"><text x="150" y="100" fill="rgba(229,229,229,0.8)" font-size="18" transform="rotate(-45, 150, 150)" style="dominant-baseline: middle; text-anchor: middle;"></text></pattern><pattern patternUnits="userSpaceOnUse" id="pattern_mark_1" width="300" height="300"><text x="150" y="200" fill="rgba(229,229,229,0.8)" font-size="18" transform="rotate(-45, 150, 150)" style="dominant-baseline: middle; text-anchor: middle;"></text></pattern><marker id="SvgjsMarker1067" markerWidth="13" markerHeight="9" refX="9.5" refY="4.5" viewBox="0 0 13 9" orient="auto" markerUnits="userSpaceOnUse" stroke-dasharray="0,0"><path id="SvgjsPath1068" d="M0,0 L13,4.5 L0,9 L0,0" fill="#a5b9cb" stroke="#a5b9cb" stroke-width="1"></path></marker><marker id="SvgjsMarker1071" markerWidth="13" markerHeight="9" refX="9.5" refY="4.5" viewBox="0 0 13 9" orient="auto" markerUnits="userSpaceOnUse" stroke-dasharray="0,0"><path id="SvgjsPath1072" d="M0,0 L13,4.5 L0,9 L0,0" fill="#a5b9cb" stroke="#a5b9cb" stroke-width="1"></path></marker><marker id="SvgjsMarker1075" markerWidth="13" markerHeight="9" refX="9.5" refY="4.5" viewBox="0 0 13 9" orient="auto" markerUnits="userSpaceOnUse" stroke-dasharray="0,0"><path id="SvgjsPath1076" d="M0,0 L13,4.5 L0,9 L0,0" fill="#a5b9cb" stroke="#a5b9cb" stroke-width="1"></path></marker><marker id="SvgjsMarker1079" markerWidth="13" markerHeight="9" refX="9.5" refY="4.5" viewBox="0 0 13 9" orient="auto" markerUnits="userSpaceOnUse" stroke-dasharray="0,0"><path id="SvgjsPath1080" d="M0,0 L13,4.5 L0,9 L0,0" fill="#a5b9cb" stroke="#a5b9cb" stroke-width="1"></path></marker><marker id="SvgjsMarker1083" markerWidth="13" markerHeight="9" refX="9.5" refY="4.5" viewBox="0 0 13 9" orient="auto" markerUnits="userSpaceOnUse" stroke-dasharray="0,0"><path id="SvgjsPath1084" d="M0,0 L13,4.5 L0,9 L0,0" fill="#a5b9cb" stroke="#a5b9cb" stroke-width="1"></path></marker><marker id="SvgjsMarker1087" markerWidth="13" markerHeight="9" refX="9.5" refY="4.5" viewBox="0 0 13 9" orient="auto" markerUnits="userSpaceOnUse" stroke-dasharray="0,0"><path id="SvgjsPath1088" d="M0,0 L13,4.5 L0,9 L0,0" fill="#a5b9cb" stroke="#a5b9cb" stroke-width="1"></path></marker><marker id="SvgjsMarker1091" markerWidth="13" markerHeight="9" refX="9.5" refY="4.5" viewBox="0 0 13 9" orient="auto" markerUnits="userSpaceOnUse" stroke-dasharray="0,0"><path id="SvgjsPath1092" d="M0,0 L13,4.5 L0,9 L0,0" fill="#a5b9cb" stroke="#a5b9cb" stroke-width="1"></path></marker><marker id="SvgjsMarker1095" markerWidth="13" markerHeight="9" refX="9.5" refY="4.5" viewBox="0 0 13 9" orient="auto" markerUnits="userSpaceOnUse" stroke-dasharray="0,0"><path id="SvgjsPath1096" d="M0,0 L13,4.5 L0,9 L0,0" fill="#a5b9cb" stroke="#a5b9cb" stroke-width="1"></path></marker><marker id="SvgjsMarker1099" markerWidth="13" markerHeight="9" refX="9.5" refY="4.5" viewBox="0 0 13 9" orient="auto" markerUnits="userSpaceOnUse" stroke-dasharray="0,0"><path id="SvgjsPath1100" d="M0,0 L13,4.5 L0,9 L0,0" fill="#a5b9cb" stroke="#a5b9cb" stroke-width="1"></path></marker><marker id="SvgjsMarker1103" markerWidth="13" markerHeight="9" refX="9.5" refY="4.5" viewBox="0 0 13 9" orient="auto" markerUnits="userSpaceOnUse" stroke-dasharray="0,0"><path id="SvgjsPath1104" d="M0,0 L13,4.5 L0,9 L0,0" fill="#a5b9cb" stroke="#a5b9cb" stroke-width="1"></path></marker><marker id="SvgjsMarker1119" markerWidth="13" markerHeight="9" refX="9.5" refY="4.5" viewBox="0 0 13 9" orient="auto" markerUnits="userSpaceOnUse" stroke-dasharray="0,0"><path id="SvgjsPath1120" d="M0,0 L13,4.5 L0,9 L0,0" fill="#a5b9cb" stroke="#a5b9cb" stroke-width="1"></path></marker><marker id="SvgjsMarker1123" markerWidth="13" markerHeight="9" refX="9.5" refY="4.5" viewBox="0 0 13 9" orient="auto" markerUnits="userSpaceOnUse" stroke-dasharray="0,0"><path id="SvgjsPath1124" d="M0,0 L13,4.5 L0,9 L0,0" fill="#a5b9cb" stroke="#a5b9cb" stroke-width="1"></path></marker><marker id="SvgjsMarker1133" markerWidth="13" markerHeight="9" refX="9.5" refY="4.5" viewBox="0 0 13 9" orient="auto" markerUnits="userSpaceOnUse" stroke-dasharray="0,0"><path id="SvgjsPath1134" d="M0,0 L13,4.5 L0,9 L0,0" fill="#a5b9cb" stroke="#a5b9cb" stroke-width="1"></path></marker></defs><rect id="svgbackgroundid" width="790" height="380" fill="transparent"></rect><rect id="SvgjsRect1009" width="790" height="380" fill="url(#pattern_mark_0)"></rect><rect id="SvgjsRect1010" width="790" height="380" fill="url(#pattern_mark_1)"></rect><g id="SvgjsG1011" transform="translate(315,25)"><path id="SvgjsPath1012" d="M 0 0L 200 0L 200 30L 0 30Z" stroke="none" fill-opacity="1" fill="#98b7de"></path><g id="SvgjsG1013"><text id="SvgjsText1014" font-family="&quot;Microsoft YaHei&quot;, 微软雅黑, Arial" text-anchor="middle" font-size="13px" width="180px" fill="#ffffff" font-weight="400" align="middle" lineHeight="125%" anchor="middle" family="&quot;Microsoft YaHei&quot;, 微软雅黑, Arial" size="13px" weight="400" font-style="" opacity="1" y="4.375" transform="rotate(0)"><tspan id="SvgjsTspan1015" dy="16.25" x="100"><tspan id="SvgjsTspan1016" style="">内存区域</tspan></tspan></text></g></g><g id="SvgjsG1017" transform="translate(365,105)"><path id="SvgjsPath1018" d="M 0 0L 100 0L 100 30L 0 30Z" stroke="none" fill-opacity="1" fill="#bad3bd"></path><g id="SvgjsG1019"><text id="SvgjsText1020" font-family="&quot;Microsoft YaHei&quot;, 微软雅黑, Arial" text-anchor="middle" font-size="13px" width="80px" fill="#ffffff" font-weight="400" align="middle" lineHeight="125%" anchor="middle" family="&quot;Microsoft YaHei&quot;, 微软雅黑, Arial" size="13px" weight="400" font-style="" opacity="1" y="4.375" transform="rotate(0)"><tspan id="SvgjsTspan1021" dy="16.25" x="50"><tspan id="SvgjsTspan1022" style="">ThreadLocal</tspan></tspan></text></g></g><g id="SvgjsG1023" transform="translate(555,105)"><path id="SvgjsPath1024" d="M 0 0L 100 0L 100 30L 0 30Z" stroke="none" fill-opacity="1" fill="#f3aa56"></path><g id="SvgjsG1025"><text id="SvgjsText1026" font-family="&quot;Microsoft YaHei&quot;, 微软雅黑, Arial" text-anchor="middle" font-size="13px" width="80px" fill="#ffffff" font-weight="400" align="middle" lineHeight="125%" anchor="middle" family="&quot;Microsoft YaHei&quot;, 微软雅黑, Arial" size="13px" weight="400" font-style="" opacity="1" y="4.375" transform="rotate(0)"><tspan id="SvgjsTspan1027" dy="16.25" x="50"><tspan id="SvgjsTspan1028" style="">线程私有</tspan></tspan></text></g></g><g id="SvgjsG1029" transform="translate(175,105)"><path id="SvgjsPath1030" d="M 0 0L 100 0L 100 30L 0 30Z" stroke="none" fill-opacity="1" fill="#9bbc8e"></path><g id="SvgjsG1031"><text id="SvgjsText1032" font-family="&quot;Microsoft YaHei&quot;, 微软雅黑, Arial" text-anchor="middle" font-size="13px" width="80px" fill="#ffffff" font-weight="400" align="middle" lineHeight="125%" anchor="middle" family="&quot;Microsoft YaHei&quot;, 微软雅黑, Arial" size="13px" weight="400" font-style="" opacity="1" y="4.375" transform="rotate(0)"><tspan id="SvgjsTspan1033" dy="16.25" x="50"><tspan id="SvgjsTspan1034" style="">线程共享</tspan></tspan></text></g></g><g id="SvgjsG1035" transform="translate(250,185)"><path id="SvgjsPath1036" d="M 0 0L 100 0L 100 30L 0 30Z" stroke="none" fill-opacity="1" fill="#9ebe91"></path><g id="SvgjsG1037"><text id="SvgjsText1038" font-family="&quot;Microsoft YaHei&quot;, 微软雅黑, Arial" text-anchor="middle" font-size="13px" width="80px" fill="#ffffff" font-weight="400" align="middle" lineHeight="125%" anchor="middle" family="&quot;Microsoft YaHei&quot;, 微软雅黑, Arial" size="13px" weight="400" font-style="" opacity="1" y="4.375" transform="rotate(0)"><tspan id="SvgjsTspan1039" dy="16.25" x="50"><tspan id="SvgjsTspan1040" style="">元空间</tspan></tspan></text></g></g><g id="SvgjsG1041" transform="translate(100,185)"><path id="SvgjsPath1042" d="M 0 0L 100 0L 100 30L 0 30Z" stroke="none" fill-opacity="1" fill="#96bb8c"></path><g id="SvgjsG1043"><text id="SvgjsText1044" font-family="&quot;Microsoft YaHei&quot;, 微软雅黑, Arial" text-anchor="middle" font-size="13px" width="80px" fill="#ffffff" font-weight="400" align="middle" lineHeight="125%" anchor="middle" family="&quot;Microsoft YaHei&quot;, 微软雅黑, Arial" size="13px" weight="400" font-style="" opacity="1" y="4.375" transform="rotate(0)"><tspan id="SvgjsTspan1045" dy="16.25" x="50"><tspan id="SvgjsTspan1046" style="">堆</tspan></tspan></text></g></g><g id="SvgjsG1047" transform="translate(555,185)"><path id="SvgjsPath1048" d="M 0 0L 100 0L 100 30L 0 30Z" stroke="none" fill-opacity="1" fill="#f3aa56"></path><g id="SvgjsG1049"><text id="SvgjsText1050" font-family="&quot;Microsoft YaHei&quot;, 微软雅黑, Arial" text-anchor="middle" font-size="13px" width="80px" fill="#ffffff" font-weight="400" align="middle" lineHeight="125%" anchor="middle" family="&quot;Microsoft YaHei&quot;, 微软雅黑, Arial" size="13px" weight="400" font-style="" opacity="1" y="4.375" transform="rotate(0)"><tspan id="SvgjsTspan1051" dy="16.25" x="50"><tspan id="SvgjsTspan1052" style="">本地方法栈</tspan></tspan></text></g></g><g id="SvgjsG1053" transform="translate(445,185)"><path id="SvgjsPath1054" d="M 0 0L 100 0L 100 30L 0 30Z" stroke="none" fill-opacity="1" fill="#f3aa56"></path><g id="SvgjsG1055"><text id="SvgjsText1056" font-family="&quot;Microsoft YaHei&quot;, 微软雅黑, Arial" text-anchor="middle" font-size="13px" width="80px" fill="#ffffff" font-weight="400" align="middle" lineHeight="125%" anchor="middle" family="&quot;Microsoft YaHei&quot;, 微软雅黑, Arial" size="13px" weight="400" font-style="" opacity="1" y="4.375" transform="rotate(0)"><tspan id="SvgjsTspan1057" dy="16.25" x="50"><tspan id="SvgjsTspan1058" style="">虚拟机栈</tspan></tspan></text></g></g><g id="SvgjsG1059" transform="translate(665,185)"><path id="SvgjsPath1060" d="M 0 0L 100 0L 100 30L 0 30Z" stroke="none" fill-opacity="1" fill="#f3aa56"></path><g id="SvgjsG1061"><text id="SvgjsText1062" font-family="&quot;Microsoft YaHei&quot;, 微软雅黑, Arial" text-anchor="middle" font-size="13px" width="80px" fill="#ffffff" font-weight="400" align="middle" lineHeight="125%" anchor="middle" family="&quot;Microsoft YaHei&quot;, 微软雅黑, Arial" size="13px" weight="400" font-style="" opacity="1" y="4.375" transform="rotate(0)"><tspan id="SvgjsTspan1063" dy="16.25" x="50"><tspan id="SvgjsTspan1064" style="">程序计数器</tspan></tspan></text></g></g><g id="SvgjsG1065"><path id="SvgjsPath1066" d="M415 55L415 80L415 80L415 103.05" stroke="#a5b9cb" stroke-width="1.5" fill="none" marker-end="url(#SvgjsMarker1067)"></path></g><g id="SvgjsG1069"><path id="SvgjsPath1070" d="M415 55L415 80L225 80L225 103.05" stroke="#a5b9cb" stroke-width="1.5" fill="none" marker-end="url(#SvgjsMarker1071)"></path></g><g id="SvgjsG1073"><path id="SvgjsPath1074" d="M415 55L415 80L605 80L605 103.05" stroke="#a5b9cb" stroke-width="1.5" fill="none" marker-end="url(#SvgjsMarker1075)"></path></g><g id="SvgjsG1077"><path id="SvgjsPath1078" d="M225 135L225 160L150 160L150 183.05" stroke="#a5b9cb" stroke-width="1.5" fill="none" marker-end="url(#SvgjsMarker1079)"></path></g><g id="SvgjsG1081"><path id="SvgjsPath1082" d="M225 135L225 160L300 160L300 183.05" stroke="#a5b9cb" stroke-width="1.5" fill="none" marker-end="url(#SvgjsMarker1083)"></path></g><g id="SvgjsG1085"><path id="SvgjsPath1086" d="M605 135L605 160L605 160L605 183.05" stroke="#a5b9cb" stroke-width="1.5" fill="none" marker-end="url(#SvgjsMarker1087)"></path></g><g id="SvgjsG1089"><path id="SvgjsPath1090" d="M605 135L605 160L495 160L495 183.05" stroke="#a5b9cb" stroke-width="1.5" fill="none" marker-end="url(#SvgjsMarker1091)"></path></g><g id="SvgjsG1093"><path id="SvgjsPath1094" d="M605 135L605 160L715 160L715 183.05" stroke="#a5b9cb" stroke-width="1.5" fill="none" marker-end="url(#SvgjsMarker1095)"></path></g><g id="SvgjsG1097"><path id="SvgjsPath1098" d="M275 120L320 120L320 120L363.05 120" stroke="#a5b9cb" stroke-width="1.5" fill="none" marker-end="url(#SvgjsMarker1099)"></path></g><g id="SvgjsG1101"><path id="SvgjsPath1102" d="M465 120L510 120L510 120L553.05 120" stroke="#a5b9cb" stroke-width="1.5" fill="none" marker-end="url(#SvgjsMarker1103)"></path></g><g id="SvgjsG1105" transform="translate(190,255)"><path id="SvgjsPath1106" d="M 0 0L 220 0L 220 30L 0 30Z" stroke="none" fill-opacity="1" fill="#f28280"></path><g id="SvgjsG1107"><text id="SvgjsText1108" font-family="&quot;Microsoft YaHei&quot;, 微软雅黑, Arial" text-anchor="middle" font-size="13px" width="200px" fill="#ffffff" font-weight="400" align="middle" lineHeight="125%" anchor="middle" family="&quot;Microsoft YaHei&quot;, 微软雅黑, Arial" size="13px" weight="400" font-style="" opacity="1" y="4.375" transform="rotate(0)"><tspan id="SvgjsTspan1109" dy="16.25" x="110"><tspan id="SvgjsTspan1110" style="">OutOfMemeoryError: Metaspace</tspan></tspan></text></g></g><g id="SvgjsG1111" transform="translate(25,325)"><path id="SvgjsPath1112" d="M 0 0L 250 0L 250 30L 0 30Z" stroke="none" fill-opacity="1" fill="#f28288"></path><g id="SvgjsG1113"><text id="SvgjsText1114" font-family="&quot;Microsoft YaHei&quot;, 微软雅黑, Arial" text-anchor="middle" font-size="13px" width="230px" fill="#ffffff" font-weight="400" align="middle" lineHeight="125%" anchor="middle" family="&quot;Microsoft YaHei&quot;, 微软雅黑, Arial" size="13px" weight="400" font-style="" opacity="1" y="4.375" transform="rotate(0)"><tspan id="SvgjsTspan1115" dy="16.25" x="125"><tspan id="SvgjsTspan1116" style="">OutOfMemeoryError: Java heap space</tspan></tspan></text></g></g><g id="SvgjsG1117"><path id="SvgjsPath1118" d="M300 215L300 235L300 235L300 253.05" stroke="#a5b9cb" stroke-width="1.5" fill="none" marker-end="url(#SvgjsMarker1119)"></path></g><g id="SvgjsG1121"><path id="SvgjsPath1122" d="M150 215L150 270L150 270L150 323.05" stroke="#a5b9cb" stroke-width="1.5" fill="none" marker-end="url(#SvgjsMarker1123)"></path></g><g id="SvgjsG1125" transform="translate(535,325)"><path id="SvgjsPath1126" d="M 0 0L 140 0L 140 30L 0 30Z" stroke="none" fill-opacity="1" fill="#f17d7d"></path><g id="SvgjsG1127"><text id="SvgjsText1128" font-family="&quot;Microsoft YaHei&quot;, 微软雅黑, Arial" text-anchor="middle" font-size="13px" width="120px" fill="#ffffff" font-weight="400" align="middle" lineHeight="125%" anchor="middle" family="&quot;Microsoft YaHei&quot;, 微软雅黑, Arial" size="13px" weight="400" font-style="" opacity="1" y="4.375" transform="rotate(0)"><tspan id="SvgjsTspan1129" dy="16.25" x="70"><tspan id="SvgjsTspan1130" style="">StackOverflowError</tspan></tspan></text></g></g><g id="SvgjsG1131"><path id="SvgjsPath1132" d="M605 215L605 270L605 270L605 323.05" stroke="#a5b9cb" stroke-width="1.5" fill="none" marker-end="url(#SvgjsMarker1133)"></path></g><g id="SvgjsG1135"></g></svg>