<svg id="SvgjsSvg1006" width="330" height="297" xmlns="http://www.w3.org/2000/svg" version="1.1" xmlns:xlink="http://www.w3.org/1999/xlink" xmlns:svgjs="http://svgjs.com/svgjs"><defs id="SvgjsDefs1007"><pattern patternUnits="userSpaceOnUse" id="pattern_mark_0" width="300" height="300"><text x="150" y="100" fill="rgba(229,229,229,0.8)" font-size="18" transform="rotate(-45, 150, 150)" style="dominant-baseline: middle; text-anchor: middle;"></text></pattern><pattern patternUnits="userSpaceOnUse" id="pattern_mark_1" width="300" height="300"><text x="150" y="200" fill="rgba(229,229,229,0.8)" font-size="18" transform="rotate(-45, 150, 150)" style="dominant-baseline: middle; text-anchor: middle;"></text></pattern><marker id="SvgjsMarker1037" markerWidth="13" markerHeight="9" refX="9.5" refY="4.5" viewBox="0 0 13 9" orient="auto" markerUnits="userSpaceOnUse" stroke-dasharray="0,0"><path id="SvgjsPath1038" d="M0,0 L13,4.5 L0,9 L0,0" fill="#323232" stroke="#323232" stroke-width="1"></path></marker><marker id="SvgjsMarker1041" markerWidth="13" markerHeight="9" refX="9.5" refY="4.5" viewBox="0 0 13 9" orient="auto" markerUnits="userSpaceOnUse" stroke-dasharray="0,0"><path id="SvgjsPath1042" d="M0,0 L13,4.5 L0,9 L0,0" fill="#323232" stroke="#323232" stroke-width="1"></path></marker><marker id="SvgjsMarker1045" markerWidth="13" markerHeight="9" refX="9.5" refY="4.5" viewBox="0 0 13 9" orient="auto" markerUnits="userSpaceOnUse" stroke-dasharray="0,0"><path id="SvgjsPath1046" d="M0,0 L13,4.5 L0,9 L0,0" fill="#323232" stroke="#323232" stroke-width="1"></path></marker></defs><rect id="svgbackgroundid" width="330" height="297" fill="transparent"></rect><rect id="SvgjsRect1009" width="330" height="297" fill="url(#pattern_mark_0)"></rect><rect id="SvgjsRect1010" width="330" height="297" fill="url(#pattern_mark_1)"></rect><g id="SvgjsG1011" transform="translate(55,25)"><path id="SvgjsPath1012" d="M 0 0L 250 0L 250 54L 0 54Z" stroke="none" fill-opacity="1" fill="#5f7fc0"></path><g id="SvgjsG1013"><text id="SvgjsText1014" font-family="&quot;Comic Sans MS&quot;" text-anchor="middle" font-size="15px" width="230px" fill="#fbff00" font-weight="700" align="middle" lineHeight="125%" anchor="middle" family="&quot;Comic Sans MS&quot;" size="15px" weight="700" font-style="" opacity="1" y="5.125" transform="rotate(0)"><tspan id="SvgjsTspan1015" dy="18.75" x="125"><tspan id="SvgjsTspan1016" style="">GET</tspan></tspan><tspan id="SvgjsTspan1017" dy="18.75" x="125"><tspan id="SvgjsTspan1018" style="">从主查询中获取候选列</tspan></tspan></text></g></g><g id="SvgjsG1019" transform="translate(55,121.5)"><path id="SvgjsPath1020" d="M 0 0L 250 0L 250 54L 0 54Z" stroke="none" fill-opacity="1" fill="#5f7fc0"></path><g id="SvgjsG1021"><text id="SvgjsText1022" font-family="&quot;Comic Sans MS&quot;" text-anchor="middle" font-size="15px" width="230px" fill="#fbff00" font-weight="700" align="middle" lineHeight="125%" anchor="middle" family="&quot;Comic Sans MS&quot;" size="15px" weight="700" font-style="" opacity="1" y="5.125" transform="rotate(0)"><tspan id="SvgjsTspan1023" dy="18.75" x="125"><tspan id="SvgjsTspan1024" style="">EXCUTE</tspan></tspan><tspan id="SvgjsTspan1025" dy="18.75" x="125"><tspan id="SvgjsTspan1026" style="">子查询使用主查询的数据</tspan></tspan></text></g></g><g id="SvgjsG1027" transform="translate(55,218)"><path id="SvgjsPath1028" d="M 0 0L 250 0L 250 54L 0 54Z" stroke="none" fill-opacity="1" fill="#5f7fc0"></path><g id="SvgjsG1029"><text id="SvgjsText1030" font-family="&quot;Comic Sans MS&quot;" text-anchor="middle" font-size="15px" width="230px" fill="#fbff00" font-weight="700" align="middle" lineHeight="125%" anchor="middle" family="&quot;Comic Sans MS&quot;" size="15px" weight="700" font-style="" opacity="1" y="5.125" transform="rotate(0)"><tspan id="SvgjsTspan1031" dy="18.75" x="125"><tspan id="SvgjsTspan1032" style="">USE</tspan></tspan><tspan id="SvgjsTspan1033" dy="18.75" x="125"><tspan id="SvgjsTspan1034" style="">如果满足子查询的条件则返回该行</tspan></tspan></text></g></g><g id="SvgjsG1035"><path id="SvgjsPath1036" d="M180 79L180 100.25L180 100.25L180 119.55000000000001" stroke="#323232" stroke-width="1.5" fill="none" marker-end="url(#SvgjsMarker1037)"></path></g><g id="SvgjsG1039"><path id="SvgjsPath1040" d="M180 175.5L180 196.75L180 196.75L180 216.05" stroke="#323232" stroke-width="1.5" fill="none" marker-end="url(#SvgjsMarker1041)"></path></g><g id="SvgjsG1043"><path id="SvgjsPath1044" d="M55 245L25 245L25 52L53.05000000000001 52" stroke="#323232" stroke-width="1.5" fill="none" marker-end="url(#SvgjsMarker1045)"></path></g></svg>