<svg id="SvgjsSvg1006" width="488.5454545454545" height="315" xmlns="http://www.w3.org/2000/svg" version="1.1" xmlns:xlink="http://www.w3.org/1999/xlink" xmlns:svgjs="http://svgjs.com/svgjs"><defs id="SvgjsDefs1007"><pattern patternUnits="userSpaceOnUse" id="pattern_mark_0" width="300" height="300"><text x="150" y="100" fill="rgba(229,229,229,0.8)" font-size="18" transform="rotate(-45, 150, 150)" style="dominant-baseline: middle; text-anchor: middle;"></text></pattern><pattern patternUnits="userSpaceOnUse" id="pattern_mark_1" width="300" height="300"><text x="150" y="200" fill="rgba(229,229,229,0.8)" font-size="18" transform="rotate(-45, 150, 150)" style="dominant-baseline: middle; text-anchor: middle;"></text></pattern><marker id="SvgjsMarker1053" markerWidth="13" markerHeight="9" refX="9.5" refY="4.5" viewBox="0 0 13 9" orient="auto" markerUnits="userSpaceOnUse" stroke-dasharray="0,0"><path id="SvgjsPath1054" d="M0,0 L13,4.5 L0,9 L0,0" fill="#323232" stroke="#323232" stroke-width="1"></path></marker><marker id="SvgjsMarker1063" markerWidth="13" markerHeight="9" refX="9.5" refY="4.5" viewBox="0 0 13 9" orient="auto" markerUnits="userSpaceOnUse" stroke-dasharray="0,0"><path id="SvgjsPath1064" d="M0,0 L13,4.5 L0,9 L0,0" fill="#323232" stroke="#323232" stroke-width="1"></path></marker><marker id="SvgjsMarker1073" markerWidth="13" markerHeight="9" refX="9.5" refY="4.5" viewBox="0 0 13 9" orient="auto" markerUnits="userSpaceOnUse" stroke-dasharray="0,0"><path id="SvgjsPath1074" d="M0,0 L13,4.5 L0,9 L0,0" fill="#323232" stroke="#323232" stroke-width="1"></path></marker><marker id="SvgjsMarker1083" markerWidth="13" markerHeight="9" refX="9.5" refY="4.5" viewBox="0 0 13 9" orient="auto" markerUnits="userSpaceOnUse" stroke-dasharray="0,0"><path id="SvgjsPath1084" d="M0,0 L13,4.5 L0,9 L0,0" fill="#323232" stroke="#323232" stroke-width="1"></path></marker><marker id="SvgjsMarker1093" markerWidth="13" markerHeight="9" refX="9.5" refY="4.5" viewBox="0 0 13 9" orient="auto" markerUnits="userSpaceOnUse" stroke-dasharray="0,0"><path id="SvgjsPath1094" d="M0,0 L13,4.5 L0,9 L0,0" fill="#323232" stroke="#323232" stroke-width="1"></path></marker></defs><rect id="svgbackgroundid" width="488.5454545454545" height="315" fill="transparent"></rect><rect id="SvgjsRect1009" width="488.5454545454545" height="315" fill="url(#pattern_mark_0)"></rect><rect id="SvgjsRect1010" width="488.5454545454545" height="315" fill="url(#pattern_mark_1)"></rect><g id="SvgjsG1011" transform="translate(25,25)"><path id="SvgjsPath1012" d="M 0 4Q 0 0 4 0L 176 0Q 180 0 180 4L 180 261Q 180 265 176 265L 4 265Q 0 265 0 261Z" stroke="rgba(33,41,48,1)" stroke-width="1.5" fill-opacity="1" fill="#ffffff"></path><g id="SvgjsG1013"><text id="SvgjsText1014" font-family="&quot;Comic Sans MS&quot;" text-anchor="middle" font-size="13px" width="160px" fill="#323232" font-weight="400" align="middle" lineHeight="125%" anchor="middle" family="&quot;Comic Sans MS&quot;" size="13px" weight="400" font-style="" opacity="1" y="121.875" transform="rotate(0)"></text></g></g><g id="SvgjsG1015" transform="translate(32,160)"><path id="SvgjsPath1016" d="M 0 4Q 0 0 4 0L 163 0Q 167 0 167 4L 167 26Q 167 30 163 30L 4 30Q 0 30 0 26Z" stroke="rgba(33,41,48,1)" stroke-width="1.5" fill-opacity="1" fill="#99ffce"></path><g id="SvgjsG1017"><text id="SvgjsText1018" font-family="&quot;Comic Sans MS&quot;" text-anchor="middle" font-size="13px" width="147px" fill="#323232" font-weight="400" align="middle" lineHeight="125%" anchor="middle" family="&quot;Comic Sans MS&quot;" size="13px" weight="400" font-style="" opacity="1" y="4.375" transform="rotate(0)"><tspan id="SvgjsTspan1019" dy="16.25" x="83.5"><tspan id="SvgjsTspan1020" style="">unsigned lru:LRU_BITS;</tspan></tspan></text></g></g><g id="SvgjsG1021" transform="translate(32,205.5)"><path id="SvgjsPath1022" d="M 0 4Q 0 0 4 0L 163 0Q 167 0 167 4L 167 26Q 167 30 163 30L 4 30Q 0 30 0 26Z" stroke="rgba(33,41,48,1)" stroke-width="1.5" fill-opacity="1" fill="#99ffce"></path><g id="SvgjsG1023"><text id="SvgjsText1024" font-family="&quot;Comic Sans MS&quot;" text-anchor="middle" font-size="13px" width="147px" fill="#323232" font-weight="400" align="middle" lineHeight="125%" anchor="middle" family="&quot;Comic Sans MS&quot;" size="13px" weight="400" font-style="" opacity="1" y="4.375" transform="rotate(0)"><tspan id="SvgjsTspan1025" dy="16.25" x="83.5"><tspan id="SvgjsTspan1026" style="">int refcount;</tspan></tspan></text></g></g><g id="SvgjsG1027" transform="translate(32,251)"><path id="SvgjsPath1028" d="M 0 4Q 0 0 4 0L 163 0Q 167 0 167 4L 167 26Q 167 30 163 30L 4 30Q 0 30 0 26Z" stroke="rgba(33,41,48,1)" stroke-width="1.5" fill-opacity="1" fill="#99ffce"></path><g id="SvgjsG1029"><text id="SvgjsText1030" font-family="&quot;Comic Sans MS&quot;" text-anchor="middle" font-size="13px" width="147px" fill="#323232" font-weight="400" align="middle" lineHeight="125%" anchor="middle" family="&quot;Comic Sans MS&quot;" size="13px" weight="400" font-style="" opacity="1" y="4.375" transform="rotate(0)"><tspan id="SvgjsTspan1031" dy="16.25" x="83.5"><tspan id="SvgjsTspan1032" style="">void *ptr;</tspan></tspan></text></g></g><g id="SvgjsG1033" transform="translate(32,114.5)"><path id="SvgjsPath1034" d="M 0 4Q 0 0 4 0L 163 0Q 167 0 167 4L 167 26Q 167 30 163 30L 4 30Q 0 30 0 26Z" stroke="rgba(33,41,48,1)" stroke-width="1.5" fill-opacity="1" fill="#99ffce"></path><g id="SvgjsG1035"><text id="SvgjsText1036" font-family="&quot;Comic Sans MS&quot;" text-anchor="middle" font-size="13px" width="147px" fill="#323232" font-weight="400" align="middle" lineHeight="125%" anchor="middle" family="&quot;Comic Sans MS&quot;" size="13px" weight="400" font-style="" opacity="1" y="4.375" transform="rotate(0)"><tspan id="SvgjsTspan1037" dy="16.25" x="83.5"><tspan id="SvgjsTspan1038" style="">unsigned encoding:4;</tspan></tspan></text></g></g><g id="SvgjsG1039" transform="translate(32,69)"><path id="SvgjsPath1040" d="M 0 4Q 0 0 4 0L 163 0Q 167 0 167 4L 167 26Q 167 30 163 30L 4 30Q 0 30 0 26Z" stroke="rgba(33,41,48,1)" stroke-width="1.5" fill-opacity="1" fill="#99ffce"></path><g id="SvgjsG1041"><text id="SvgjsText1042" font-family="&quot;Comic Sans MS&quot;" text-anchor="middle" font-size="13px" width="147px" fill="#323232" font-weight="400" align="middle" lineHeight="125%" anchor="middle" family="&quot;Comic Sans MS&quot;" size="13px" weight="400" font-style="" opacity="1" y="4.375" transform="rotate(0)"><tspan id="SvgjsTspan1043" dy="16.25" x="83.5"><tspan id="SvgjsTspan1044" style="">unsigned type:4;</tspan></tspan></text></g></g><g id="SvgjsG1045" transform="translate(56,31)"><path id="SvgjsPath1046" d="M 0 0L 119 0L 119 35L 0 35Z" stroke="none" fill="none"></path><g id="SvgjsG1047"><text id="SvgjsText1048" font-family="&quot;Comic Sans MS&quot;" text-anchor="middle" font-size="20px" width="119px" fill="#323232" font-weight="700" align="middle" lineHeight="125%" anchor="middle" family="&quot;Comic Sans MS&quot;" size="20px" weight="700" font-style="" opacity="1" y="-0.5" transform="rotate(0)"><tspan id="SvgjsTspan1049" dy="25" x="59.5"><tspan id="SvgjsTspan1050" style="">redisObject</tspan></tspan></text></g></g><g id="SvgjsG1051"><path id="SvgjsPath1052" d="M199.75 84L225.77272727272725 84L225.77272727272725 84L249.84545454545452 84" stroke="#323232" stroke-width="1.5" fill="none" marker-end="url(#SvgjsMarker1053)"></path></g><g id="SvgjsG1055" transform="translate(252.5454545454545,64)"><path id="SvgjsPath1056" d="M 0 0L 170 0L 170 40L 0 40Z" stroke="none" fill="none"></path><g id="SvgjsG1057"><text id="SvgjsText1058" font-family="&quot;Comic Sans MS&quot;" text-anchor="start" font-size="13px" width="170px" fill="#323232" font-weight="400" align="middle" lineHeight="125%" anchor="start" family="&quot;Comic Sans MS&quot;" size="13px" weight="400" font-style="" opacity="1" y="9.375" transform="rotate(0)"><tspan id="SvgjsTspan1059" dy="16.25" x="0"><tspan id="SvgjsTspan1060" style="">当前值对象的数据类型</tspan></tspan></text></g></g><g id="SvgjsG1061"><path id="SvgjsPath1062" d="M199.75 129.5L225.77272727272725 129.5L225.77272727272725 129.5L249.84545454545452 129.5" stroke="#323232" stroke-width="1.5" fill="none" marker-end="url(#SvgjsMarker1063)"></path></g><g id="SvgjsG1065" transform="translate(252.5454545454545,109.5)"><path id="SvgjsPath1066" d="M 0 0L 210.90909090909088 0L 210.90909090909088 40L 0 40Z" stroke="none" fill="none"></path><g id="SvgjsG1067"><text id="SvgjsText1068" font-family="&quot;Comic Sans MS&quot;" text-anchor="start" font-size="13px" width="211px" fill="#323232" font-weight="400" align="middle" lineHeight="125%" anchor="start" family="&quot;Comic Sans MS&quot;" size="13px" weight="400" font-style="" opacity="1" y="9.375" transform="rotate(0)"><tspan id="SvgjsTspan1069" dy="16.25" x="0"><tspan id="SvgjsTspan1070" style="">当前值对象底层存储的编码类型</tspan></tspan></text></g></g><g id="SvgjsG1071"><path id="SvgjsPath1072" d="M199.75 175L225.77272727272725 175L225.77272727272725 175L249.84545454545452 175" stroke="#323232" stroke-width="1.5" fill="none" marker-end="url(#SvgjsMarker1073)"></path></g><g id="SvgjsG1075" transform="translate(252.5454545454545,155)"><path id="SvgjsPath1076" d="M 0 0L 196.36363636363637 0L 196.36363636363637 40L 0 40Z" stroke="none" fill="none"></path><g id="SvgjsG1077"><text id="SvgjsText1078" font-family="&quot;Comic Sans MS&quot;" text-anchor="start" font-size="13px" width="197px" fill="#323232" font-weight="400" align="middle" lineHeight="125%" anchor="start" family="&quot;Comic Sans MS&quot;" size="13px" weight="400" font-style="" opacity="1" y="9.375" transform="rotate(0)"><tspan id="SvgjsTspan1079" dy="16.25" x="0"><tspan id="SvgjsTspan1080" style="">采用LRU算法清除内存中的对象</tspan></tspan></text></g></g><g id="SvgjsG1081"><path id="SvgjsPath1082" d="M199.75 220.5L225.77272727272725 220.5L225.77272727272725 220.5L249.84545454545452 220.5" stroke="#323232" stroke-width="1.5" fill="none" marker-end="url(#SvgjsMarker1083)"></path></g><g id="SvgjsG1085" transform="translate(252.5454545454545,200.5)"><path id="SvgjsPath1086" d="M 0 0L 142.72727272727275 0L 142.72727272727275 40L 0 40Z" stroke="none" fill="none"></path><g id="SvgjsG1087"><text id="SvgjsText1088" font-family="&quot;Comic Sans MS&quot;" text-anchor="start" font-size="13px" width="143px" fill="#323232" font-weight="400" align="middle" lineHeight="125%" anchor="start" family="&quot;Comic Sans MS&quot;" size="13px" weight="400" font-style="" opacity="1" y="9.375" transform="rotate(0)"><tspan id="SvgjsTspan1089" dy="16.25" x="0"><tspan id="SvgjsTspan1090" style="">记录对象引用次数</tspan></tspan></text></g></g><g id="SvgjsG1091"><path id="SvgjsPath1092" d="M199.75 266L225.77272727272725 266L225.77272727272725 266L249.84545454545452 266" stroke="#323232" stroke-width="1.5" fill="none" marker-end="url(#SvgjsMarker1093)"></path></g><g id="SvgjsG1095" transform="translate(252.5454545454545,246)"><path id="SvgjsPath1096" d="M 0 0L 196.36363636363637 0L 196.36363636363637 40L 0 40Z" stroke="none" fill="none"></path><g id="SvgjsG1097"><text id="SvgjsText1098" font-family="&quot;Comic Sans MS&quot;" text-anchor="start" font-size="13px" width="197px" fill="#323232" font-weight="400" align="middle" lineHeight="125%" anchor="start" family="&quot;Comic Sans MS&quot;" size="13px" weight="400" font-style="" opacity="1" y="9.375" transform="rotate(0)"><tspan id="SvgjsTspan1099" dy="16.25" x="0"><tspan id="SvgjsTspan1100" style="">指向真正的底层数据结构的指针</tspan></tspan></text></g></g></svg>