<svg id="SvgjsSvg1006" width="460" height="184" xmlns="http://www.w3.org/2000/svg" version="1.1" xmlns:xlink="http://www.w3.org/1999/xlink" xmlns:svgjs="http://svgjs.com/svgjs"><defs id="SvgjsDefs1007"><pattern patternUnits="userSpaceOnUse" id="pattern_mark_0" width="300" height="300"><text x="150" y="100" fill="rgba(229,229,229,0.8)" font-size="18" transform="rotate(-45, 150, 150)" style="dominant-baseline: middle; text-anchor: middle;"></text></pattern><pattern patternUnits="userSpaceOnUse" id="pattern_mark_1" width="300" height="300"><text x="150" y="200" fill="rgba(229,229,229,0.8)" font-size="18" transform="rotate(-45, 150, 150)" style="dominant-baseline: middle; text-anchor: middle;"></text></pattern><marker id="SvgjsMarker1074" markerWidth="13" markerHeight="9" refX="9.5" refY="4.5" viewBox="0 0 13 9" orient="auto" markerUnits="userSpaceOnUse" stroke-dasharray="0,0"><path id="SvgjsPath1075" d="M0,0 L13,4.5 L0,9 L0,0" fill="#323232" stroke="#323232" stroke-width="1"></path></marker><marker id="SvgjsMarker1078" markerWidth="13" markerHeight="9" refX="9.5" refY="4.5" viewBox="0 0 13 9" orient="auto" markerUnits="userSpaceOnUse" stroke-dasharray="0,0"><path id="SvgjsPath1079" d="M0,0 L13,4.5 L0,9 L0,0" fill="#323232" stroke="#323232" stroke-width="1"></path></marker><marker id="SvgjsMarker1082" markerWidth="13" markerHeight="9" refX="9.5" refY="4.5" viewBox="0 0 13 9" orient="auto" markerUnits="userSpaceOnUse" stroke-dasharray="0,0"><path id="SvgjsPath1083" d="M0,0 L13,4.5 L0,9 L0,0" fill="#323232" stroke="#323232" stroke-width="1"></path></marker><marker id="SvgjsMarker1086" markerWidth="13" markerHeight="9" refX="9.5" refY="4.5" viewBox="0 0 13 9" orient="auto" markerUnits="userSpaceOnUse" stroke-dasharray="0,0"><path id="SvgjsPath1087" d="M0,0 L13,4.5 L0,9 L0,0" fill="#323232" stroke="#323232" stroke-width="1"></path></marker><marker id="SvgjsMarker1090" markerWidth="13" markerHeight="9" refX="9.5" refY="4.5" viewBox="0 0 13 9" orient="auto" markerUnits="userSpaceOnUse" stroke-dasharray="0,0"><path id="SvgjsPath1091" d="M0,0 L13,4.5 L0,9 L0,0" fill="#323232" stroke="#323232" stroke-width="1"></path></marker><marker id="SvgjsMarker1094" markerWidth="13" markerHeight="9" refX="9.5" refY="4.5" viewBox="0 0 13 9" orient="auto" markerUnits="userSpaceOnUse" stroke-dasharray="0,0"><path id="SvgjsPath1095" d="M0,0 L13,4.5 L0,9 L0,0" fill="#323232" stroke="#323232" stroke-width="1"></path></marker></defs><rect id="svgbackgroundid" width="460" height="184" fill="transparent"></rect><rect id="SvgjsRect1009" width="460" height="184" fill="url(#pattern_mark_0)"></rect><rect id="SvgjsRect1010" width="460" height="184" fill="url(#pattern_mark_1)"></rect><g id="SvgjsG1011" transform="translate(56,82)"><path id="SvgjsPath1012" d="M 0 0L 349 0L 349 20L 0 20Z" stroke="none" fill="none"></path><g id="SvgjsG1013"><text id="SvgjsText1014" font-family="&quot;Comic Sans MS&quot;" text-anchor="middle" font-size="15px" width="349px" fill="#323232" font-weight="400" align="middle" lineHeight="125%" anchor="middle" family="&quot;Comic Sans MS&quot;" size="15px" weight="400" font-style="" opacity="1" y="-2.375" transform="rotate(0)"><tspan id="SvgjsTspan1015" dy="18.75" x="174.5"><tspan id="SvgjsTspan1016" style="font-weight: bold;fill: rgb(209, 0, 0);">bash-</tspan><tspan id="SvgjsTspan1017" style="font-weight: bold;fill: rgb(51, 0, 192);">4.1.2</tspan><tspan id="SvgjsTspan1018" style="font-weight: bold;">-</tspan><tspan id="SvgjsTspan1019" style="font-weight: bold;fill: rgb(224, 196, 49);">15</tspan><tspan id="SvgjsTspan1020" style="font-weight: bold;">.</tspan><tspan id="SvgjsTspan1021" style="font-weight: bold;fill: rgb(29, 29, 29);">el6_4</tspan><tspan id="SvgjsTspan1022" style="font-weight: bold;fill: rgb(199, 0, 20);">.x86_64.</tspan><tspan id="SvgjsTspan1023" style="font-weight: bold;fill: rgb(19, 0, 89);">rpm</tspan></tspan></text></g></g><g id="SvgjsG1024" transform="translate(45,139)"><path id="SvgjsPath1025" d="M 0 0L 64 0L 80 16L 80 20L 0 20L 0 0Z" stroke="none" fill-opacity="1" fill="#fff7bc"></path><path id="SvgjsPath1026" d="M 64 0L 64 16L 80 16Z" stroke="none" fill-opacity="1" fill="#e4d089"></path><path id="SvgjsPath1027" d="M 0 0L 64 0L 80 16L 80 20L 0 20L 0 0Z" stroke="none" fill="none"></path><g id="SvgjsG1028"><text id="SvgjsText1029" font-family="&quot;Comic Sans MS&quot;" text-anchor="middle" font-size="14px" width="60px" fill="#323232" font-weight="700" align="middle" lineHeight="125%" anchor="middle" family="&quot;Comic Sans MS&quot;" size="14px" weight="700" font-style="" opacity="1" y="-1.75" transform="rotate(0)"><tspan id="SvgjsTspan1030" dy="17.5" x="40"><tspan id="SvgjsTspan1031" style="">软件名称</tspan></tspan></text></g></g><g id="SvgjsG1032" transform="translate(133,25)"><path id="SvgjsPath1033" d="M 0 0L 64 0L 80 16L 80 20L 0 20L 0 0Z" stroke="none" fill-opacity="1" fill="#fff7bc"></path><path id="SvgjsPath1034" d="M 64 0L 64 16L 80 16Z" stroke="none" fill-opacity="1" fill="#e4d089"></path><path id="SvgjsPath1035" d="M 0 0L 64 0L 80 16L 80 20L 0 20L 0 0Z" stroke="none" fill="none"></path><g id="SvgjsG1036"><text id="SvgjsText1037" font-family="&quot;Comic Sans MS&quot;" text-anchor="middle" font-size="14px" width="60px" fill="#323232" font-weight="700" align="middle" lineHeight="125%" anchor="middle" family="&quot;Comic Sans MS&quot;" size="14px" weight="700" font-style="" opacity="1" y="-1.75" transform="rotate(0)"><tspan id="SvgjsTspan1038" dy="17.5" x="40"><tspan id="SvgjsTspan1039" style="">发布次数</tspan></tspan></text></g></g><g id="SvgjsG1040" transform="translate(148.33333333333331,139)"><path id="SvgjsPath1041" d="M 0 0L 64 0L 80 16L 80 20L 0 20L 0 0Z" stroke="none" fill-opacity="1" fill="#fff7bc"></path><path id="SvgjsPath1042" d="M 64 0L 64 16L 80 16Z" stroke="none" fill-opacity="1" fill="#e4d089"></path><path id="SvgjsPath1043" d="M 0 0L 64 0L 80 16L 80 20L 0 20L 0 0Z" stroke="none" fill="none"></path><g id="SvgjsG1044"><text id="SvgjsText1045" font-family="&quot;Comic Sans MS&quot;" text-anchor="middle" font-size="14px" width="60px" fill="#323232" font-weight="700" align="middle" lineHeight="125%" anchor="middle" family="&quot;Comic Sans MS&quot;" size="14px" weight="700" font-style="" opacity="1" y="-1.75" transform="rotate(0)"><tspan id="SvgjsTspan1046" dy="17.5" x="40"><tspan id="SvgjsTspan1047" style="">版本号</tspan></tspan></text></g></g><g id="SvgjsG1048" transform="translate(251.66666666666663,139)"><path id="SvgjsPath1049" d="M 0 0L 64 0L 80 16L 80 20L 0 20L 0 0Z" stroke="none" fill-opacity="1" fill="#fff7bc"></path><path id="SvgjsPath1050" d="M 64 0L 64 16L 80 16Z" stroke="none" fill-opacity="1" fill="#e4d089"></path><path id="SvgjsPath1051" d="M 0 0L 64 0L 80 16L 80 20L 0 20L 0 0Z" stroke="none" fill="none"></path><g id="SvgjsG1052"><text id="SvgjsText1053" font-family="&quot;Comic Sans MS&quot;" text-anchor="middle" font-size="14px" width="60px" fill="#323232" font-weight="700" align="middle" lineHeight="125%" anchor="middle" family="&quot;Comic Sans MS&quot;" size="14px" weight="700" font-style="" opacity="1" y="-1.75" transform="rotate(0)"><tspan id="SvgjsTspan1054" dy="17.5" x="40"><tspan id="SvgjsTspan1055" style="">系统版本</tspan></tspan></text></g></g><g id="SvgjsG1056" transform="translate(248.33333333333331,25)"><path id="SvgjsPath1057" d="M 0 0L 64 0L 80 16L 80 20L 0 20L 0 0Z" stroke="none" fill-opacity="1" fill="#fff7bc"></path><path id="SvgjsPath1058" d="M 64 0L 64 16L 80 16Z" stroke="none" fill-opacity="1" fill="#e4d089"></path><path id="SvgjsPath1059" d="M 0 0L 64 0L 80 16L 80 20L 0 20L 0 0Z" stroke="none" fill="none"></path><g id="SvgjsG1060"><text id="SvgjsText1061" font-family="&quot;Comic Sans MS&quot;" text-anchor="middle" font-size="14px" width="60px" fill="#323232" font-weight="700" align="middle" lineHeight="125%" anchor="middle" family="&quot;Comic Sans MS&quot;" size="14px" weight="700" font-style="" opacity="1" y="-1.75" transform="rotate(0)"><tspan id="SvgjsTspan1062" dy="17.5" x="40"><tspan id="SvgjsTspan1063" style="">硬件平台</tspan></tspan></text></g></g><g id="SvgjsG1064" transform="translate(354.99999999999994,139)"><path id="SvgjsPath1065" d="M 0 0L 64 0L 80 16L 80 20L 0 20L 0 0Z" stroke="none" fill-opacity="1" fill="#fff7bc"></path><path id="SvgjsPath1066" d="M 64 0L 64 16L 80 16Z" stroke="none" fill-opacity="1" fill="#e4d089"></path><path id="SvgjsPath1067" d="M 0 0L 64 0L 80 16L 80 20L 0 20L 0 0Z" stroke="none" fill="none"></path><g id="SvgjsG1068"><text id="SvgjsText1069" font-family="&quot;Comic Sans MS&quot;" text-anchor="middle" font-size="14px" width="60px" fill="#323232" font-weight="700" align="middle" lineHeight="125%" anchor="middle" family="&quot;Comic Sans MS&quot;" size="14px" weight="700" font-style="" opacity="1" y="-1.75" transform="rotate(0)"><tspan id="SvgjsTspan1070" dy="17.5" x="40"><tspan id="SvgjsTspan1071" style="">拓展名</tspan></tspan></text></g></g><g id="SvgjsG1072"><path id="SvgjsPath1073" d="M173 45C 173 64.28758752368992 203.61538461538458 62.96515972905732 202.56267452907286 79.76642437062242" stroke="#323232" stroke-width="1.5" fill="none" marker-end="url(#SvgjsMarker1074)"></path></g><g id="SvgjsG1076"><path id="SvgjsPath1077" d="M188.33333333333331 139C 188.33333333333331 122.30136399449214 169 118.69863600550786 169.84375095053628 104.56477763821135" stroke="#323232" stroke-width="1.5" fill="none" marker-end="url(#SvgjsMarker1078)"></path></g><g id="SvgjsG1080"><path id="SvgjsPath1081" d="M85 139C 85 119.48434562695837 116.80219780219778 121.51565437304163 115.72830692540694 104.47724814759147" stroke="#323232" stroke-width="1.5" fill="none" marker-end="url(#SvgjsMarker1082)"></path></g><g id="SvgjsG1084"><path id="SvgjsPath1085" d="M291.66666666666663 139C 291.66666666666663 113.56177320299406 240.4285714285714 126.76789712667625 241.5229073883549 103.79795491762297" stroke="#323232" stroke-width="1.5" fill="none" marker-end="url(#SvgjsMarker1086)"></path></g><g id="SvgjsG1088"><path id="SvgjsPath1089" d="M288.3333333333333 45C 288.3333333333333 60.0548762509234 292.07692307692304 67.39567319962603 291.88397012466856 79.75745287630329" stroke="#323232" stroke-width="1.5" fill="none" marker-end="url(#SvgjsMarker1090)"></path></g><g id="SvgjsG1092"><path id="SvgjsPath1093" d="M395 139C 395 114.59044256065391 346.4725274725275 126.40955743934609 347.59092702780777 104.45747480856852" stroke="#323232" stroke-width="1.5" fill="none" marker-end="url(#SvgjsMarker1094)"></path></g><g id="SvgjsG1096" transform="translate(25,45)"><path id="SvgjsPath1097" d="M 0 0L 100 0L 100 40L 0 40Z" stroke="none" fill="none"></path><g id="SvgjsG1098"><text id="SvgjsText1099" font-family="微软雅黑" text-anchor="middle" font-size="15px" width="100px" fill="#323232" font-weight="400" align="middle" lineHeight="125%" anchor="middle" family="微软雅黑" size="15px" weight="400" font-style="" opacity="1" y="7.625" transform="rotate(0)"><tspan id="SvgjsTspan1100" dy="18.75" x="50"><tspan id="SvgjsTspan1101" style="font-weight: bold;">企业版6</tspan></tspan></text></g></g></svg>