<svg id="SvgjsSvg1006" width="407" height="449" xmlns="http://www.w3.org/2000/svg" version="1.1" xmlns:xlink="http://www.w3.org/1999/xlink" xmlns:svgjs="http://svgjs.com/svgjs"><defs id="SvgjsDefs1007"><pattern patternUnits="userSpaceOnUse" id="pattern_mark_0" width="300" height="300"><text x="150" y="100" fill="rgba(229,229,229,0.8)" font-size="18" transform="rotate(-45, 150, 150)" style="dominant-baseline: middle; text-anchor: middle;"></text></pattern><pattern patternUnits="userSpaceOnUse" id="pattern_mark_1" width="300" height="300"><text x="150" y="200" fill="rgba(229,229,229,0.8)" font-size="18" transform="rotate(-45, 150, 150)" style="dominant-baseline: middle; text-anchor: middle;"></text></pattern><marker id="SvgjsMarker1065" markerWidth="13" markerHeight="9" refX="9.5" refY="4.5" viewBox="0 0 13 9" orient="auto" markerUnits="userSpaceOnUse" stroke-dasharray="0,0"><path id="SvgjsPath1066" d="M0,0 L13,4.5 L0,9 L0,0" fill="#323232" stroke="#323232" stroke-width="1"></path></marker><marker id="SvgjsMarker1069" markerWidth="13" markerHeight="9" refX="9.5" refY="4.5" viewBox="0 0 13 9" orient="auto" markerUnits="userSpaceOnUse" stroke-dasharray="0,0"><path id="SvgjsPath1070" d="M0,0 L13,4.5 L0,9 L0,0" fill="#323232" stroke="#323232" stroke-width="1"></path></marker><marker id="SvgjsMarker1073" markerWidth="13" markerHeight="9" refX="9.5" refY="4.5" viewBox="0 0 13 9" orient="auto" markerUnits="userSpaceOnUse" stroke-dasharray="0,0"><path id="SvgjsPath1074" d="M0,0 L13,4.5 L0,9 L0,0" fill="#323232" stroke="#323232" stroke-width="1"></path></marker></defs><rect id="svgbackgroundid" width="407" height="449" fill="transparent"></rect><rect id="SvgjsRect1009" width="407" height="449" fill="url(#pattern_mark_0)"></rect><rect id="SvgjsRect1010" width="407" height="449" fill="url(#pattern_mark_1)"></rect><g id="SvgjsG1011" transform="translate(25,230)"><path id="SvgjsPath1012" d="M 0 0L 357 0L 357 194L 0 194Z" stroke="rgba(33,41,48,1)" stroke-width="1.5" fill-opacity="1" fill="#cfcfcf"></path><g id="SvgjsG1013"><text id="SvgjsText1014" font-family="&quot;Microsoft YaHei&quot;, 微软雅黑, Arial" text-anchor="middle" font-size="13px" width="337px" fill="#323232" font-weight="700" align="middle" lineHeight="125%" anchor="middle" family="&quot;Microsoft YaHei&quot;, 微软雅黑, Arial" size="13px" weight="700" font-style="" opacity="1" y="86.375" transform="rotate(0)"></text></g></g><g id="SvgjsG1015" transform="translate(156,25)"><path id="SvgjsPath1016" d="M 0 4Q 0 0 4 0L 91 0Q 95 0 95 4L 95 41Q 95 45 91 45L 4 45Q 0 45 0 41Z" stroke="rgba(33,41,48,1)" stroke-width="1.5" fill-opacity="1" fill="#4cd800"></path><g id="SvgjsG1017"><text id="SvgjsText1018" font-family="&quot;Microsoft YaHei&quot;, 微软雅黑, Arial" text-anchor="middle" font-size="13px" width="75px" fill="#323232" font-weight="700" align="middle" lineHeight="125%" anchor="middle" family="&quot;Microsoft YaHei&quot;, 微软雅黑, Arial" size="13px" weight="700" font-style="" opacity="1" y="11.875" transform="rotate(0)"><tspan id="SvgjsTspan1019" dy="16.25" x="47.5"><tspan id="SvgjsTspan1020" style="">Order.class</tspan></tspan></text></g></g><g id="SvgjsG1021" transform="translate(146,116)"><path id="SvgjsPath1022" d="M 0 4Q 0 0 4 0L 111 0Q 115 0 115 4L 115 51Q 115 55 111 55L 4 55Q 0 55 0 51Z" stroke="rgba(33,41,48,1)" stroke-width="1.5" fill-opacity="1" fill="#f04d99"></path><g id="SvgjsG1023"><text id="SvgjsText1024" font-family="&quot;Microsoft YaHei&quot;, 微软雅黑, Arial" text-anchor="middle" font-size="13px" width="95px" fill="#323232" font-weight="700" align="middle" lineHeight="125%" anchor="middle" family="&quot;Microsoft YaHei&quot;, 微软雅黑, Arial" size="13px" weight="700" font-style="" opacity="1" y="16.875" transform="rotate(0)"><tspan id="SvgjsTspan1025" dy="16.25" x="57.5"><tspan id="SvgjsTspan1026" style="">类的加载</tspan></tspan></text></g></g><g id="SvgjsG1027" transform="translate(53,249)"><path id="SvgjsPath1028" d="M 0 4Q 0 0 4 0L 106 0Q 110 0 110 4L 110 151Q 110 155 106 155L 4 155Q 0 155 0 151Z" stroke="rgba(33,41,48,1)" stroke-width="1.5" fill-opacity="1" fill="#4f95ff"></path><g id="SvgjsG1029"><text id="SvgjsText1030" font-family="&quot;Microsoft YaHei&quot;, 微软雅黑, Arial" text-anchor="middle" font-size="13px" width="90px" fill="#323232" font-weight="700" align="middle" lineHeight="125%" anchor="middle" family="&quot;Microsoft YaHei&quot;, 微软雅黑, Arial" size="13px" weight="700" font-style="" opacity="1" y="66.875" transform="rotate(0)"></text></g></g><g id="SvgjsG1031" transform="translate(61,302)"><path id="SvgjsPath1032" d="M 0 0L 95 0L 95 50L 0 50Z" stroke="rgba(33,41,48,1)" stroke-width="1.5" fill-opacity="1" fill="#ffffff"></path><g id="SvgjsG1033"><text id="SvgjsText1034" font-family="&quot;Microsoft YaHei&quot;, 微软雅黑, Arial" text-anchor="middle" font-size="13px" width="75px" fill="#323232" font-weight="700" align="middle" lineHeight="125%" anchor="middle" family="&quot;Microsoft YaHei&quot;, 微软雅黑, Arial" size="13px" weight="700" font-style="" opacity="1" y="5.875" transform="rotate(0)"><tspan id="SvgjsTspan1035" dy="16.25" x="47.5"><tspan id="SvgjsTspan1036" style="">Order.class</tspan></tspan><tspan id="SvgjsTspan1037" dy="16.25" x="47.5"><tspan id="SvgjsTspan1038" style="">的Class对象</tspan></tspan></text></g></g><g id="SvgjsG1039" transform="translate(243,249)"><path id="SvgjsPath1040" d="M 0 4Q 0 0 4 0L 106 0Q 110 0 110 4L 110 151Q 110 155 106 155L 4 155Q 0 155 0 151Z" stroke="rgba(33,41,48,1)" stroke-width="1.5" fill-opacity="1" fill="#f08502"></path><g id="SvgjsG1041"><text id="SvgjsText1042" font-family="&quot;Microsoft YaHei&quot;, 微软雅黑, Arial" text-anchor="middle" font-size="13px" width="90px" fill="#323232" font-weight="700" align="middle" lineHeight="125%" anchor="middle" family="&quot;Microsoft YaHei&quot;, 微软雅黑, Arial" size="13px" weight="700" font-style="" opacity="1" y="66.875" transform="rotate(0)"></text></g></g><g id="SvgjsG1043" transform="translate(251,302)"><path id="SvgjsPath1044" d="M 0 0L 95 0L 95 50L 0 50Z" stroke="rgba(33,41,48,1)" stroke-width="1.5" fill-opacity="1" fill="#ffffff"></path><g id="SvgjsG1045"><text id="SvgjsText1046" font-family="&quot;Microsoft YaHei&quot;, 微软雅黑, Arial" text-anchor="middle" font-size="13px" width="75px" fill="#323232" font-weight="700" align="middle" lineHeight="125%" anchor="middle" family="&quot;Microsoft YaHei&quot;, 微软雅黑, Arial" size="13px" weight="700" font-style="" opacity="1" y="5.875" transform="rotate(0)"><tspan id="SvgjsTspan1047" dy="16.25" x="47.5"><tspan id="SvgjsTspan1048" style="">Order.class</tspan></tspan><tspan id="SvgjsTspan1049" dy="16.25" x="47.5"><tspan id="SvgjsTspan1050" style="">的数据结构</tspan></tspan></text></g></g><g id="SvgjsG1051" transform="translate(56,221.5)"><path id="SvgjsPath1052" d="M 0 0L 100 0L 100 40L 0 40Z" stroke="none" fill="none"></path><g id="SvgjsG1053"><text id="SvgjsText1054" font-family="&quot;Microsoft YaHei&quot;, 微软雅黑, Arial" text-anchor="middle" font-size="13px" width="100px" fill="#323232" font-weight="700" align="middle" lineHeight="125%" anchor="middle" family="&quot;Microsoft YaHei&quot;, 微软雅黑, Arial" size="13px" weight="700" font-style="" opacity="1" y="9.375" transform="rotate(0)"><tspan id="SvgjsTspan1055" dy="16.25" x="50"><tspan id="SvgjsTspan1056" style="">堆区</tspan></tspan></text></g></g><g id="SvgjsG1057" transform="translate(248.5,221.5)"><path id="SvgjsPath1058" d="M 0 0L 100 0L 100 40L 0 40Z" stroke="none" fill="none"></path><g id="SvgjsG1059"><text id="SvgjsText1060" font-family="&quot;Microsoft YaHei&quot;, 微软雅黑, Arial" text-anchor="middle" font-size="13px" width="100px" fill="#323232" font-weight="700" align="middle" lineHeight="125%" anchor="middle" family="&quot;Microsoft YaHei&quot;, 微软雅黑, Arial" size="13px" weight="700" font-style="" opacity="1" y="9.375" transform="rotate(0)"><tspan id="SvgjsTspan1061" dy="16.25" x="50"><tspan id="SvgjsTspan1062" style="">方法区(元空间)</tspan></tspan></text></g></g><g id="SvgjsG1063"><path id="SvgjsPath1064" d="M203.5 70.75L203.5 93L203.5 93L203.5 113.30000000000001" stroke="#323232" stroke-width="1.5" fill="none" marker-end="url(#SvgjsMarker1065)"></path></g><g id="SvgjsG1067"><path id="SvgjsPath1068" d="M203.5 171.75L203.5 200.5L203.5 200.5L203.5 227.3" stroke="#323232" stroke-width="1.5" fill="none" marker-end="url(#SvgjsMarker1069)"></path></g><g id="SvgjsG1071"><path id="SvgjsPath1072" d="M156.75 327L203.5 327L203.5 327L248.3 327" stroke="#323232" stroke-width="1.5" fill="none" marker-end="url(#SvgjsMarker1073)"></path></g><g id="SvgjsG1075"></g></svg>