<svg id="SvgjsSvg1006" width="586" height="382.5" xmlns="http://www.w3.org/2000/svg" version="1.1" xmlns:xlink="http://www.w3.org/1999/xlink" xmlns:svgjs="http://svgjs.com/svgjs"><defs id="SvgjsDefs1007"><pattern patternUnits="userSpaceOnUse" id="pattern_mark_0" width="300" height="300"><text x="150" y="100" fill="rgba(229,229,229,0.8)" font-size="18" transform="rotate(-45, 150, 150)" style="dominant-baseline: middle; text-anchor: middle;"></text></pattern><pattern patternUnits="userSpaceOnUse" id="pattern_mark_1" width="300" height="300"><text x="150" y="200" fill="rgba(229,229,229,0.8)" font-size="18" transform="rotate(-45, 150, 150)" style="dominant-baseline: middle; text-anchor: middle;"></text></pattern><marker id="SvgjsMarker1021" markerWidth="13" markerHeight="9" refX="3.5" refY="4.5" viewBox="0 0 13 9" orient="0" markerUnits="userSpaceOnUse" stroke-dasharray="0,0"><path id="SvgjsPath1022" d="M13,0 L0,4.5 L13,9 L13,0" fill="#5b79e8" stroke="#5b79e8" stroke-width="1"></path></marker><marker id="SvgjsMarker1023" markerWidth="13" markerHeight="9" refX="9.5" refY="4.5" viewBox="0 0 13 9" orient="auto" markerUnits="userSpaceOnUse" stroke-dasharray="0,0"><path id="SvgjsPath1024" d="M0,0 L13,4.5 L0,9 L0,0" fill="#5b79e8" stroke="#5b79e8" stroke-width="1"></path></marker></defs><rect id="svgbackgroundid" width="586" height="382.5" fill="transparent"></rect><rect id="SvgjsRect1009" width="586" height="382.5" fill="url(#pattern_mark_0)"></rect><rect id="SvgjsRect1010" width="586" height="382.5" fill="url(#pattern_mark_1)"></rect><g id="SvgjsG1011" transform="translate(55.5,177.5)"><path id="SvgjsPath1012" d="M 0 15L 0 119C 0 147 90 147 90 119L 90 15C 90 -4.090909090909091 0 -4.090909090909091 0 15ZM 0 15C 0 33.75 90 33.75 90 15C 90 33.75 0 33.75 0 15" stroke="rgba(91,121,232,1)" stroke-width="1.5" fill-opacity="1" fill="#4a9cdb"></path><g id="SvgjsG1013"><text id="SvgjsText1014" font-family="&quot;Comic Sans MS&quot;" text-anchor="middle" font-size="13px" width="90px" fill="#323232" font-weight="400" align="middle" lineHeight="125%" anchor="middle" family="&quot;Comic Sans MS&quot;" size="13px" weight="400" font-style="" opacity="1" y="45.375" transform="rotate(0)"></text></g></g><g id="SvgjsG1015" transform="translate(445.5,177.5)"><path id="SvgjsPath1016" d="M 0 15L 0 119C 0 147 90 147 90 119L 90 15C 90 -4.090909090909091 0 -4.090909090909091 0 15ZM 0 15C 0 33.75 90 33.75 90 15C 90 33.75 0 33.75 0 15" stroke="rgba(241,149,148,1)" stroke-width="1.5" fill-opacity="1" fill="#ffffff"></path><g id="SvgjsG1017"><text id="SvgjsText1018" font-family="&quot;Comic Sans MS&quot;" text-anchor="middle" font-size="13px" width="90px" fill="#323232" font-weight="400" align="middle" lineHeight="125%" anchor="middle" family="&quot;Comic Sans MS&quot;" size="13px" weight="400" font-style="" opacity="1" y="45.375" transform="rotate(0)"></text></g></g><g id="SvgjsG1019"><path id="SvgjsPath1020" d="M148.2 247.5L295.5 247.5L295.5 247.5L442.79999999999995 247.5" stroke="#5b79e8" stroke-width="1.5" fill="none" marker-start="url(#SvgjsMarker1021)" marker-end="url(#SvgjsMarker1023)"></path></g><g id="SvgjsG1025" transform="translate(33.5,107.5)"><path id="SvgjsPath1026" d="M 15.6 49C -13 35 5.2 24.5 11.7 21C 9.100000000000001 3.5 41.6 0 54.6 7C 65 -3.5 97.5 0 97.5 10.5C 123.5 7 133.9 21 123.5 38.5C 132.6 52.5 123.5 70 93.6 63C 87.10000000000001 72.10000000000001 61.099999999999994 72.10000000000001 54.6 63C 41.6 70 15.6 66.5 15.6 49Z" stroke="rgba(91,121,232,1)" stroke-width="1.5" fill-opacity="1" fill="#ffffff"></path><g id="SvgjsG1027"><text id="SvgjsText1028" font-family="&quot;Comic Sans MS&quot;" text-anchor="middle" font-size="13px" width="110px" fill="#323232" font-weight="400" align="middle" lineHeight="125%" anchor="middle" family="&quot;Comic Sans MS&quot;" size="13px" weight="400" font-style="" opacity="1" y="15.875" transform="rotate(0)"><tspan id="SvgjsTspan1029" dy="16.25" x="65"><tspan id="SvgjsTspan1030" style="">该服务器中保存了</tspan></tspan><tspan id="SvgjsTspan1031" dy="16.25" x="65"><tspan id="SvgjsTspan1032" style="">RPM软件包</tspan></tspan></text></g></g><g id="SvgjsG1033" transform="translate(422.5,107.5)"><path id="SvgjsPath1034" d="M 15.6 49C -13 35 5.2 24.5 11.7 21C 9.100000000000001 3.5 41.6 0 54.6 7C 65 -3.5 97.5 0 97.5 10.5C 123.5 7 133.9 21 123.5 38.5C 132.6 52.5 123.5 70 93.6 63C 87.10000000000001 72.10000000000001 61.099999999999994 72.10000000000001 54.6 63C 41.6 70 15.6 66.5 15.6 49Z" stroke="rgba(241,149,148,1)" stroke-width="1.5" fill-opacity="1" fill="#ffffff"></path><g id="SvgjsG1035"><text id="SvgjsText1036" font-family="&quot;Comic Sans MS&quot;" text-anchor="middle" font-size="13px" width="110px" fill="#323232" font-weight="400" align="middle" lineHeight="125%" anchor="middle" family="&quot;Comic Sans MS&quot;" size="13px" weight="400" font-style="" opacity="1" y="7.875" transform="rotate(0)"><tspan id="SvgjsTspan1037" dy="16.25" x="65"><tspan id="SvgjsTspan1038" style="">该服务器中有一个</tspan></tspan><tspan id="SvgjsTspan1039" dy="16.25" x="65"><tspan id="SvgjsTspan1040" style="">配置文件指定连接</tspan></tspan><tspan id="SvgjsTspan1041" dy="16.25" x="65"><tspan id="SvgjsTspan1042" style="">镜网站服务器</tspan></tspan></text></g></g><g id="SvgjsG1043" transform="translate(25,317.5)"><path id="SvgjsPath1044" d="M 0 0L 147 0L 147 40L 0 40Z" stroke="none" fill="none"></path><g id="SvgjsG1045"><text id="SvgjsText1046" font-family="&quot;Comic Sans MS&quot;" text-anchor="middle" font-size="13px" width="147px" fill="#323232" font-weight="400" align="middle" lineHeight="125%" anchor="middle" family="&quot;Comic Sans MS&quot;" size="13px" weight="400" font-style="" opacity="1" y="9.375" transform="rotate(0)"><tspan id="SvgjsTspan1047" dy="16.25" x="73.5"><tspan id="SvgjsTspan1048" style="">YUM源(镜像网站服务器)</tspan></tspan></text></g></g><g id="SvgjsG1049" transform="translate(414,317.5)"><path id="SvgjsPath1050" d="M 0 0L 147 0L 147 40L 0 40Z" stroke="none" fill="none"></path><g id="SvgjsG1051"><text id="SvgjsText1052" font-family="&quot;Comic Sans MS&quot;" text-anchor="middle" font-size="13px" width="147px" fill="#323232" font-weight="400" align="middle" lineHeight="125%" anchor="middle" family="&quot;Comic Sans MS&quot;" size="13px" weight="400" font-style="" opacity="1" y="9.375" transform="rotate(0)"><tspan id="SvgjsTspan1053" dy="16.25" x="73.5"><tspan id="SvgjsTspan1054" style="">要安装软件的系统</tspan></tspan></text></g></g><g id="SvgjsG1055" transform="translate(133.5,25)"><path id="SvgjsPath1056" d="M 0 0L 321 0L 321 131L 0 131Z" stroke="none" fill="none"></path><g id="SvgjsG1057"><text id="SvgjsText1058" font-family="&quot;Comic Sans MS&quot;" text-anchor="middle" font-size="15px" width="321px" fill="#323232" font-weight="700" align="middle" lineHeight="125%" anchor="middle" family="&quot;Comic Sans MS&quot;" size="15px" weight="700" font-style="" opacity="1" y="43.625" transform="rotate(0)"><tspan id="SvgjsTspan1059" dy="18.75" x="160.5"><tspan id="SvgjsTspan1060" style="">YUM类似于我们Java开发中的maven工具，可</tspan></tspan><tspan id="SvgjsTspan1061" dy="18.75" x="160.5"><tspan id="SvgjsTspan1062" style="">以从镜像网站上下载应用程序，并直接安装。</tspan></tspan></text></g></g><g id="SvgjsG1063"></g></svg>