<svg id="SvgjsSvg1226" width="711.0000000000002" height="595" xmlns="http://www.w3.org/2000/svg" version="1.1" xmlns:xlink="http://www.w3.org/1999/xlink" xmlns:svgjs="http://svgjs.com/svgjs"><defs id="SvgjsDefs1227"><pattern patternUnits="userSpaceOnUse" id="pattern_mark_0" width="300" height="300"><text x="150" y="100" fill="rgba(229,229,229,0.8)" font-size="18" transform="rotate(-45, 150, 150)" style="dominant-baseline: middle; text-anchor: middle;"></text></pattern><pattern patternUnits="userSpaceOnUse" id="pattern_mark_1" width="300" height="300"><text x="150" y="200" fill="rgba(229,229,229,0.8)" font-size="18" transform="rotate(-45, 150, 150)" style="dominant-baseline: middle; text-anchor: middle;"></text></pattern><marker id="SvgjsMarker1289" markerWidth="13" markerHeight="9" refX="9.5" refY="4.5" viewBox="0 0 13 9" orient="auto" markerUnits="userSpaceOnUse" stroke-dasharray="0,0"><path id="SvgjsPath1290" d="M0,0 L13,4.5 L0,9 L0,0" fill="#323232" stroke="#323232" stroke-width="1"></path></marker><marker id="SvgjsMarker1293" markerWidth="13" markerHeight="9" refX="9.5" refY="4.5" viewBox="0 0 13 9" orient="auto" markerUnits="userSpaceOnUse" stroke-dasharray="0,0"><path id="SvgjsPath1294" d="M0,0 L13,4.5 L0,9 L0,0" fill="#323232" stroke="#323232" stroke-width="1"></path></marker><marker id="SvgjsMarker1334" markerWidth="13" markerHeight="9" refX="9.5" refY="4.5" viewBox="0 0 13 9" orient="auto" markerUnits="userSpaceOnUse" stroke-dasharray="0,0"><path id="SvgjsPath1335" d="M0,0 L13,4.5 L0,9 L0,0" fill="#323232" stroke="#323232" stroke-width="1"></path></marker></defs><rect id="svgbackgroundid" width="711.0000000000002" height="595" fill="transparent"></rect><rect id="SvgjsRect1229" width="711.0000000000002" height="595" fill="url(#pattern_mark_0)"></rect><rect id="SvgjsRect1230" width="711.0000000000002" height="595" fill="url(#pattern_mark_1)"></rect><g id="SvgjsG1231" transform="translate(204.00000000000017,25)"><path id="SvgjsPath1232" d="M 0 4Q 0 0 4 0L 226 0Q 230 0 230 4L 230 89Q 230 93 226 93L 4 93Q 0 93 0 89Z" stroke="rgba(33,41,48,1)" stroke-width="1.5" fill-opacity="1" fill="#ffffff"></path><path id="SvgjsPath1233" d="M 0 30L 230 30" stroke="rgba(33,41,48,1)" stroke-width="1.5" fill="none"></path><path id="SvgjsPath1234" d="M 0 0L 230 0L 230 93L 0 93Z" stroke="none" fill="none"></path><g id="SvgjsG1235"><text id="SvgjsText1236" font-family="微软雅黑" text-anchor="middle" font-size="13px" width="210px" fill="#323232" font-weight="700" align="middle" lineHeight="125%" anchor="middle" family="微软雅黑" size="13px" weight="700" font-style="" opacity="1" y="4.375" transform="rotate(0)"><tspan id="SvgjsTspan1237" dy="16.25" x="115"><tspan id="SvgjsTspan1238" style="">ReentrantLock</tspan></tspan></text></g><g id="SvgjsG1239"><text id="SvgjsText1240" font-family="微软雅黑" text-anchor="start" font-size="13px" width="210px" fill="#323232" font-weight="400" align="middle" lineHeight="125%" anchor="start" family="微软雅黑" size="13px" weight="400" font-style="" opacity="1" y="34.375" transform="rotate(0)"><tspan id="SvgjsTspan1241" dy="16.25" x="10"><tspan id="SvgjsTspan1242" style="">public void lock() {</tspan></tspan><tspan id="SvgjsTspan1243" dy="16.25" x="10"><tspan id="SvgjsTspan1244" style="">    sync.lock();</tspan></tspan><tspan id="SvgjsTspan1245" dy="16.25" x="10"><tspan id="SvgjsTspan1246" style="">}</tspan></tspan></text></g></g><g id="SvgjsG1247" transform="translate(30.00000000000017,180)"><path id="SvgjsPath1248" d="M 0 4Q 0 0 4 0L 226 0Q 230 0 230 4L 230 89Q 230 93 226 93L 4 93Q 0 93 0 89Z" stroke="rgba(33,41,48,1)" stroke-width="1.5" fill-opacity="1" fill="#ffffff"></path><path id="SvgjsPath1249" d="M 0 30L 230 30" stroke="rgba(33,41,48,1)" stroke-width="1.5" fill="none"></path><path id="SvgjsPath1250" d="M 0 0L 230 0L 230 93L 0 93Z" stroke="none" fill="none"></path><g id="SvgjsG1251"><text id="SvgjsText1252" font-family="微软雅黑" text-anchor="middle" font-size="13px" width="210px" fill="#323232" font-weight="700" align="middle" lineHeight="125%" anchor="middle" family="微软雅黑" size="13px" weight="700" font-style="" opacity="1" y="4.375" transform="rotate(0)"><tspan id="SvgjsTspan1253" dy="16.25" x="115"><tspan id="SvgjsTspan1254" style="">FairSync</tspan></tspan></text></g><g id="SvgjsG1255"><text id="SvgjsText1256" font-family="微软雅黑" text-anchor="start" font-size="13px" width="210px" fill="#323232" font-weight="400" align="middle" lineHeight="125%" anchor="start" family="微软雅黑" size="13px" weight="400" font-style="" opacity="1" y="34.375" transform="rotate(0)"><tspan id="SvgjsTspan1257" dy="16.25" x="10"><tspan id="SvgjsTspan1258" style="">final void lock() {</tspan></tspan><tspan id="SvgjsTspan1259" dy="16.25" x="10"><tspan id="SvgjsTspan1260" style="">    acquire(1);</tspan></tspan><tspan id="SvgjsTspan1261" dy="16.25" x="10"><tspan id="SvgjsTspan1262" style="">}</tspan></tspan></text></g></g><g id="SvgjsG1263" transform="translate(334.00000000000017,180)"><path id="SvgjsPath1264" d="M 0 4Q 0 0 4 0L 348 0Q 352 0 352 4L 352 141Q 352 145 348 145L 4 145Q 0 145 0 141Z" stroke="rgba(33,41,48,1)" stroke-width="1.5" fill-opacity="1" fill="#ffffff"></path><path id="SvgjsPath1265" d="M 0 30L 352 30" stroke="rgba(33,41,48,1)" stroke-width="1.5" fill="none"></path><path id="SvgjsPath1266" d="M 0 0L 352 0L 352 145L 0 145Z" stroke="none" fill="none"></path><g id="SvgjsG1267"><text id="SvgjsText1268" font-family="微软雅黑" text-anchor="middle" font-size="13px" width="332px" fill="#323232" font-weight="700" align="middle" lineHeight="125%" anchor="middle" family="微软雅黑" size="13px" weight="700" font-style="" opacity="1" y="4.375" transform="rotate(0)"><tspan id="SvgjsTspan1269" dy="16.25" x="176"><tspan id="SvgjsTspan1270" style="">NonfairSync</tspan></tspan></text></g><g id="SvgjsG1271"><text id="SvgjsText1272" font-family="微软雅黑" text-anchor="start" font-size="13px" width="332px" fill="#323232" font-weight="400" align="middle" lineHeight="125%" anchor="start" family="微软雅黑" size="13px" weight="400" font-style="" opacity="1" y="27.875" transform="rotate(0)"><tspan id="SvgjsTspan1273" dy="16.25" x="10"><tspan id="SvgjsTspan1274" style="">final void lock() {</tspan></tspan><tspan id="SvgjsTspan1275" dy="16.25" x="10"><tspan id="SvgjsTspan1276" style="">    if (compareAndSetState(0, 1))</tspan></tspan><tspan id="SvgjsTspan1277" dy="16.25" x="10"><tspan id="SvgjsTspan1278" style="">        setExclusiveOwnerThread(Thread.currentThread(</tspan></tspan><tspan id="SvgjsTspan1279" dy="16.25" x="10"><tspan id="SvgjsTspan1280" style="">));</tspan></tspan><tspan id="SvgjsTspan1281" dy="16.25" x="10"><tspan id="SvgjsTspan1282" style="">    else</tspan></tspan><tspan id="SvgjsTspan1283" dy="16.25" x="10"><tspan id="SvgjsTspan1284" style="">        acquire(1);</tspan></tspan><tspan id="SvgjsTspan1285" dy="16.25" x="10"><tspan id="SvgjsTspan1286" style="">}</tspan></tspan></text></g></g><g id="SvgjsG1287"><path id="SvgjsPath1288" d="M203.2554396369033 71.59016576792239C 154.5983805933451 71.5 145.0000000000002 130.59838059334493 145.0553408942147 177.30056721042595" stroke="#323232" stroke-width="1.5" fill="none" marker-end="url(#SvgjsMarker1289)"></path></g><g id="SvgjsG1291"><path id="SvgjsPath1292" d="M434.74650826469195 71.57228700261399C 486.98792315235636 71.49999999999994 510.00000000000017 127.01207684764385 509.8930344973813 177.30211965030887" stroke="#323232" stroke-width="1.5" fill="none" marker-end="url(#SvgjsMarker1293)"></path></g><g id="SvgjsG1295" transform="matrix(-1.8369701987210297e-16,-1,1,-1.8369701987210297e-16,25,408.00000000000017)"><path id="SvgjsPath1296" d="M 79.00000000000011 0Q 71.10000000000011 0 71.10000000000011 9L 71.10000000000011 320.50000000000006Q 71.10000000000011 329.50000000000006 57.000000000000114 329.50000000000006Q 71.10000000000011 329.50000000000006 71.10000000000011 338.50000000000006L 71.10000000000011 650.0000000000001Q 71.10000000000011 659.0000000000001 79.00000000000011 659.0000000000001" stroke="rgba(33,41,48,1)" stroke-width="1.5" fill="none"></path><path id="SvgjsPath1297" d="M 0 0L 79.00000000000011 0L 79.00000000000011 659.0000000000001L 0 659.0000000000001Z" stroke="none" fill="none"></path><g id="SvgjsG1298"><text id="SvgjsText1299" font-family="微软雅黑" text-anchor="end" font-size="13px" width="53px" fill="#323232" font-weight="400" align="middle" lineHeight="125%" anchor="end" family="微软雅黑" size="13px" weight="400" font-style="" opacity="1" y="318.87500000000006" transform="rotate(0)"></text></g></g><g id="SvgjsG1300" transform="translate(226.00000000000017,343)"><path id="SvgjsPath1301" d="M 0 0L 256 0L 256 48L 0 48Z" stroke="none" fill="none"></path><g id="SvgjsG1302"><text id="SvgjsText1303" font-family="微软雅黑" text-anchor="middle" font-size="13px" width="256px" fill="#323232" font-weight="400" align="middle" lineHeight="125%" anchor="middle" family="微软雅黑" size="13px" weight="400" font-style="" opacity="1" y="-3.125" transform="rotate(0)"><tspan id="SvgjsTspan1304" dy="16.25" x="128"><tspan id="SvgjsTspan1305" style="">在创建完公平锁/非公平锁后，调用 lock 方</tspan></tspan><tspan id="SvgjsTspan1306" dy="16.25" x="128"><tspan id="SvgjsTspan1307" style="">法会进行加锁，最终都会调用到 acquire 方</tspan></tspan><tspan id="SvgjsTspan1308" dy="16.25" x="128"><tspan id="SvgjsTspan1309" style="">法</tspan></tspan></text></g></g><g id="SvgjsG1310" transform="translate(173.25000000000017,445)"><path id="SvgjsPath1311" d="M 0 4Q 0 0 4 0L 357.50000000000006 0Q 361.50000000000006 0 361.50000000000006 4L 361.50000000000006 118Q 361.50000000000006 122 357.50000000000006 122L 4 122Q 0 122 0 118Z" stroke="rgba(33,41,48,1)" stroke-width="1.5" fill-opacity="1" fill="#ffffff"></path><path id="SvgjsPath1312" d="M 0 30L 361.50000000000006 30" stroke="rgba(33,41,48,1)" stroke-width="1.5" fill="none"></path><path id="SvgjsPath1313" d="M 0 0L 361.50000000000006 0L 361.50000000000006 122L 0 122Z" stroke="none" fill="none"></path><g id="SvgjsG1314"><text id="SvgjsText1315" font-family="微软雅黑" text-anchor="middle" font-size="13px" width="342px" fill="#323232" font-weight="700" align="middle" lineHeight="125%" anchor="middle" family="微软雅黑" size="13px" weight="700" font-style="" opacity="1" y="4.375" transform="rotate(0)"><tspan id="SvgjsTspan1316" dy="16.25" x="181"><tspan id="SvgjsTspan1317" style="">AbstractQueuedsynchronizer</tspan></tspan></text></g><g id="SvgjsG1318"><text id="SvgjsText1319" font-family="微软雅黑" text-anchor="start" font-size="13px" width="342px" fill="#323232" font-weight="400" align="middle" lineHeight="125%" anchor="start" family="微软雅黑" size="13px" weight="400" font-style="" opacity="1" y="24.375" transform="rotate(0)"><tspan id="SvgjsTspan1320" dy="16.25" x="10"><tspan id="SvgjsTspan1321" style="">public final void acquire(int arg) {</tspan></tspan><tspan id="SvgjsTspan1322" dy="16.25" x="10"><tspan id="SvgjsTspan1323" style="">    if (!tryAcquire(arg) &amp;&amp;</tspan></tspan><tspan id="SvgjsTspan1324" dy="16.25" x="10"><tspan id="SvgjsTspan1325" style="">        acquireQueued(addWaiter(Node.EXCLUSIVE), arg)</tspan></tspan><tspan id="SvgjsTspan1326" dy="16.25" x="10"><tspan id="SvgjsTspan1327" style="">)</tspan></tspan><tspan id="SvgjsTspan1328" dy="16.25" x="10"><tspan id="SvgjsTspan1329" style="">        selfInterrupt();</tspan></tspan><tspan id="SvgjsTspan1330" dy="16.25" x="10"><tspan id="SvgjsTspan1331" style="">}</tspan></tspan></text></g></g><g id="SvgjsG1332"><path id="SvgjsPath1333" d="M354.00000000000017 391.75L354.0000000000002 442.3" stroke="#323232" stroke-width="1.5" fill="none" marker-end="url(#SvgjsMarker1334)"></path></g></svg>