<svg id="SvgjsSvg1326" width="833" height="209" xmlns="http://www.w3.org/2000/svg" version="1.1" xmlns:xlink="http://www.w3.org/1999/xlink" xmlns:svgjs="http://svgjs.com/svgjs"><defs id="SvgjsDefs1327"><pattern patternUnits="userSpaceOnUse" id="pattern_mark_0" width="300" height="300"><text x="150" y="100" fill="rgba(229,229,229,0.8)" font-size="18" transform="rotate(-45, 150, 150)" style="dominant-baseline: middle; text-anchor: middle;"></text></pattern><pattern patternUnits="userSpaceOnUse" id="pattern_mark_1" width="300" height="300"><text x="150" y="200" fill="rgba(229,229,229,0.8)" font-size="18" transform="rotate(-45, 150, 150)" style="dominant-baseline: middle; text-anchor: middle;"></text></pattern><marker id="SvgjsMarker1438" markerWidth="16" markerHeight="16" refX="3" refY="8" viewBox="0 0 16 16" orient="auto" markerUnits="userSpaceOnUse" stroke-dasharray="0,0"><circle id="SvgjsCircle1439" r="4" cx="8" cy="8" fill="#323232" stroke="#323232" stroke-width="1.5"></circle></marker><marker id="SvgjsMarker1440" markerWidth="13" markerHeight="9" refX="9.5" refY="4.5" viewBox="0 0 13 9" orient="auto" markerUnits="userSpaceOnUse" stroke-dasharray="0,0"><path id="SvgjsPath1441" d="M0,0 L13,4.5 L0,9 L0,0" fill="#323232" stroke="#323232" stroke-width="1"></path></marker><marker id="SvgjsMarker1444" markerWidth="16" markerHeight="16" refX="3" refY="8" viewBox="0 0 16 16" orient="auto" markerUnits="userSpaceOnUse" stroke-dasharray="0,0"><circle id="SvgjsCircle1445" r="4" cx="8" cy="8" fill="#323232" stroke="#323232" stroke-width="1.5"></circle></marker><marker id="SvgjsMarker1446" markerWidth="13" markerHeight="9" refX="9.5" refY="4.5" viewBox="0 0 13 9" orient="auto" markerUnits="userSpaceOnUse" stroke-dasharray="0,0"><path id="SvgjsPath1447" d="M0,0 L13,4.5 L0,9 L0,0" fill="#323232" stroke="#323232" stroke-width="1"></path></marker></defs><rect id="svgbackgroundid" width="833" height="209" fill="transparent"></rect><rect id="SvgjsRect1329" width="833" height="209" fill="url(#pattern_mark_0)"></rect><rect id="SvgjsRect1330" width="833" height="209" fill="url(#pattern_mark_1)"></rect><g id="SvgjsG1331" transform="translate(198.00000000000003,46)"><path id="SvgjsPath1332" d="M0 0L82 0L82 20 L0 20Z" stroke="rgba(102, 102, 102,1)" stroke-width="1" fill-opacity="1" fill="#cce2fe"></path><path id="SvgjsPath1333" d="M82 0L164 0L164 20 L82 20Z" stroke="rgba(102, 102, 102,1)" stroke-width="1" fill-opacity="1" fill="#cce2fe"></path><path id="SvgjsPath1334" d="M164 0L246 0L246 20 L164 20Z" stroke="rgba(102, 102, 102,1)" stroke-width="1" fill-opacity="1" fill="#cce2fe"></path><path id="SvgjsPath1335" d="M246 0L328 0L328 20 L246 20Z" stroke="rgba(102, 102, 102,1)" stroke-width="1" fill-opacity="1" fill="#cce2fe"></path><path id="SvgjsPath1336" d="M328 0L410 0L410 20 L328 20Z" stroke="rgba(102, 102, 102,1)" stroke-width="1" fill-opacity="1" fill="#cce2fe"></path><g id="SvgjsG1337"><text id="SvgjsText1338" font-family="&quot;Microsoft YaHei&quot;, 微软雅黑, Arial" text-anchor="middle" font-size="16px" width="82px" fill="#323232" font-weight="400" align="middle" lineHeight="125%" anchor="middle" family="&quot;Microsoft YaHei&quot;, 微软雅黑, Arial" size="16px" weight="400" font-style="" opacity="1" y="-4" transform="rotate(0)"><tspan id="SvgjsTspan1339" dy="20" x="41"><tspan id="SvgjsTspan1340" style="">1</tspan></tspan></text></g><g id="SvgjsG1341"><text id="SvgjsText1342" font-family="&quot;Microsoft YaHei&quot;, 微软雅黑, Arial" text-anchor="middle" font-size="16px" width="82px" fill="#323232" font-weight="400" align="middle" lineHeight="125%" anchor="middle" family="&quot;Microsoft YaHei&quot;, 微软雅黑, Arial" size="16px" weight="400" font-style="" opacity="1" y="-4" transform="rotate(0)"><tspan id="SvgjsTspan1343" dy="20" x="123"><tspan id="SvgjsTspan1344" style="">'王五'</tspan></tspan></text></g><g id="SvgjsG1345"><text id="SvgjsText1346" font-family="&quot;Microsoft YaHei&quot;, 微软雅黑, Arial" text-anchor="middle" font-size="16px" width="82px" fill="#323232" font-weight="400" align="middle" lineHeight="125%" anchor="middle" family="&quot;Microsoft YaHei&quot;, 微软雅黑, Arial" size="16px" weight="400" font-style="" opacity="1" y="-4" transform="rotate(0)"><tspan id="SvgjsTspan1347" dy="20" x="205"><tspan id="SvgjsTspan1348" style="">'一班'</tspan></tspan></text></g><g id="SvgjsG1349"><text id="SvgjsText1350" font-family="&quot;Microsoft YaHei&quot;, 微软雅黑, Arial" text-anchor="middle" font-size="16px" width="82px" fill="#323232" font-weight="400" align="middle" lineHeight="125%" anchor="middle" family="&quot;Microsoft YaHei&quot;, 微软雅黑, Arial" size="16px" weight="400" font-style="" opacity="1" y="-4" transform="rotate(0)"><tspan id="SvgjsTspan1351" dy="20" x="287"><tspan id="SvgjsTspan1352" style="">10</tspan></tspan></text></g><g id="SvgjsG1353"><text id="SvgjsText1354" font-family="&quot;Microsoft YaHei&quot;, 微软雅黑, Arial" text-anchor="middle" font-size="16px" width="82px" fill="#323232" font-weight="400" align="middle" lineHeight="125%" anchor="middle" family="&quot;Microsoft YaHei&quot;, 微软雅黑, Arial" size="16px" weight="400" font-style="" opacity="1" y="-4" transform="rotate(0)"></text></g></g><g id="SvgjsG1355" transform="translate(198.00000000000003,25)"><path id="SvgjsPath1356" d="M0 0L82 0L82 20 L0 20Z" stroke="none" fill="none"></path><path id="SvgjsPath1357" d="M82 0L164 0L164 20 L82 20Z" stroke="none" fill="none"></path><path id="SvgjsPath1358" d="M164 0L246 0L246 20 L164 20Z" stroke="none" fill="none"></path><path id="SvgjsPath1359" d="M246 0L328 0L328 20 L246 20Z" stroke="none" fill="none"></path><path id="SvgjsPath1360" d="M328 0L410 0L410 20 L328 20Z" stroke="none" fill="none"></path><g id="SvgjsG1361"><text id="SvgjsText1362" font-family="&quot;Microsoft YaHei&quot;, 微软雅黑, Arial" text-anchor="middle" font-size="16px" width="82px" fill="#323232" font-weight="400" align="middle" lineHeight="125%" anchor="middle" family="&quot;Microsoft YaHei&quot;, 微软雅黑, Arial" size="16px" weight="400" font-style="" opacity="1" y="-4" transform="rotate(0)"><tspan id="SvgjsTspan1363" dy="20" x="41"><tspan id="SvgjsTspan1364" style="">id</tspan></tspan></text></g><g id="SvgjsG1365"><text id="SvgjsText1366" font-family="&quot;Microsoft YaHei&quot;, 微软雅黑, Arial" text-anchor="middle" font-size="16px" width="82px" fill="#323232" font-weight="400" align="middle" lineHeight="125%" anchor="middle" family="&quot;Microsoft YaHei&quot;, 微软雅黑, Arial" size="16px" weight="400" font-style="" opacity="1" y="-4" transform="rotate(0)"><tspan id="SvgjsTspan1367" dy="20" x="123"><tspan id="SvgjsTspan1368" style="">name</tspan></tspan></text></g><g id="SvgjsG1369"><text id="SvgjsText1370" font-family="&quot;Microsoft YaHei&quot;, 微软雅黑, Arial" text-anchor="middle" font-size="16px" width="82px" fill="#323232" font-weight="400" align="middle" lineHeight="125%" anchor="middle" family="&quot;Microsoft YaHei&quot;, 微软雅黑, Arial" size="16px" weight="400" font-style="" opacity="1" y="-4" transform="rotate(0)"><tspan id="SvgjsTspan1371" dy="20" x="205"><tspan id="SvgjsTspan1372" style="">class</tspan></tspan></text></g><g id="SvgjsG1373"><text id="SvgjsText1374" font-family="&quot;Microsoft YaHei&quot;, 微软雅黑, Arial" text-anchor="middle" font-size="16px" width="82px" fill="#323232" font-weight="400" align="middle" lineHeight="125%" anchor="middle" family="&quot;Microsoft YaHei&quot;, 微软雅黑, Arial" size="16px" weight="400" font-style="" opacity="1" y="-4" transform="rotate(0)"><tspan id="SvgjsTspan1375" dy="20" x="287"><tspan id="SvgjsTspan1376" style="">trx_id</tspan></tspan></text></g><g id="SvgjsG1377"><text id="SvgjsText1378" font-family="&quot;Microsoft YaHei&quot;, 微软雅黑, Arial" text-anchor="middle" font-size="16px" width="82px" fill="#323232" font-weight="400" align="middle" lineHeight="125%" anchor="middle" family="&quot;Microsoft YaHei&quot;, 微软雅黑, Arial" size="16px" weight="400" font-style="" opacity="1" y="-4" transform="rotate(0)"><tspan id="SvgjsTspan1379" dy="20" x="369"><tspan id="SvgjsTspan1380" style="">roll_pointer</tspan></tspan></text></g></g><g id="SvgjsG1381" transform="translate(198.00000000000003,104)"><path id="SvgjsPath1382" d="M0 0L82 0L82 20 L0 20Z" stroke="rgba(102, 102, 102,1)" stroke-width="1" fill-opacity="1" fill="#d7e6d2"></path><path id="SvgjsPath1383" d="M82 0L164 0L164 20 L82 20Z" stroke="rgba(102, 102, 102,1)" stroke-width="1" fill-opacity="1" fill="#d7e6d2"></path><path id="SvgjsPath1384" d="M164 0L246 0L246 20 L164 20Z" stroke="rgba(102, 102, 102,1)" stroke-width="1" fill-opacity="1" fill="#d7e6d2"></path><path id="SvgjsPath1385" d="M246 0L328 0L328 20 L246 20Z" stroke="rgba(102, 102, 102,1)" stroke-width="1" fill-opacity="1" fill="#d7e6d2"></path><path id="SvgjsPath1386" d="M328 0L410 0L410 20 L328 20Z" stroke="rgba(102, 102, 102,1)" stroke-width="1" fill-opacity="1" fill="#d7e6d2"></path><g id="SvgjsG1387"><text id="SvgjsText1388" font-family="&quot;Microsoft YaHei&quot;, 微软雅黑, Arial" text-anchor="middle" font-size="16px" width="82px" fill="#323232" font-weight="400" align="middle" lineHeight="125%" anchor="middle" family="&quot;Microsoft YaHei&quot;, 微软雅黑, Arial" size="16px" weight="400" font-style="" opacity="1" y="-4" transform="rotate(0)"><tspan id="SvgjsTspan1389" dy="20" x="41"><tspan id="SvgjsTspan1390" style="">1</tspan></tspan></text></g><g id="SvgjsG1391"><text id="SvgjsText1392" font-family="&quot;Microsoft YaHei&quot;, 微软雅黑, Arial" text-anchor="middle" font-size="16px" width="82px" fill="#323232" font-weight="400" align="middle" lineHeight="125%" anchor="middle" family="&quot;Microsoft YaHei&quot;, 微软雅黑, Arial" size="16px" weight="400" font-style="" opacity="1" y="-4" transform="rotate(0)"><tspan id="SvgjsTspan1393" dy="20" x="123"><tspan id="SvgjsTspan1394" style="">'李四'</tspan></tspan></text></g><g id="SvgjsG1395"><text id="SvgjsText1396" font-family="&quot;Microsoft YaHei&quot;, 微软雅黑, Arial" text-anchor="middle" font-size="16px" width="82px" fill="#323232" font-weight="400" align="middle" lineHeight="125%" anchor="middle" family="&quot;Microsoft YaHei&quot;, 微软雅黑, Arial" size="16px" weight="400" font-style="" opacity="1" y="-4" transform="rotate(0)"><tspan id="SvgjsTspan1397" dy="20" x="205"><tspan id="SvgjsTspan1398" style="">'一班'</tspan></tspan></text></g><g id="SvgjsG1399"><text id="SvgjsText1400" font-family="&quot;Microsoft YaHei&quot;, 微软雅黑, Arial" text-anchor="middle" font-size="16px" width="82px" fill="#323232" font-weight="400" align="middle" lineHeight="125%" anchor="middle" family="&quot;Microsoft YaHei&quot;, 微软雅黑, Arial" size="16px" weight="400" font-style="" opacity="1" y="-4" transform="rotate(0)"><tspan id="SvgjsTspan1401" dy="20" x="287"><tspan id="SvgjsTspan1402" style="">10</tspan></tspan></text></g><g id="SvgjsG1403"><text id="SvgjsText1404" font-family="&quot;Microsoft YaHei&quot;, 微软雅黑, Arial" text-anchor="middle" font-size="16px" width="82px" fill="#323232" font-weight="400" align="middle" lineHeight="125%" anchor="middle" family="&quot;Microsoft YaHei&quot;, 微软雅黑, Arial" size="16px" weight="400" font-style="" opacity="1" y="-4" transform="rotate(0)"></text></g></g><g id="SvgjsG1405" transform="translate(198.00000000000003,162)"><path id="SvgjsPath1406" d="M0 0L82 0L82 20 L0 20Z" stroke="rgba(102, 102, 102,1)" stroke-width="1" fill-opacity="1" fill="#d7e6d2"></path><path id="SvgjsPath1407" d="M82 0L164 0L164 20 L82 20Z" stroke="rgba(102, 102, 102,1)" stroke-width="1" fill-opacity="1" fill="#d7e6d2"></path><path id="SvgjsPath1408" d="M164 0L246 0L246 20 L164 20Z" stroke="rgba(102, 102, 102,1)" stroke-width="1" fill-opacity="1" fill="#d7e6d2"></path><path id="SvgjsPath1409" d="M246 0L328 0L328 20 L246 20Z" stroke="rgba(102, 102, 102,1)" stroke-width="1" fill-opacity="1" fill="#d7e6d2"></path><path id="SvgjsPath1410" d="M328 0L410 0L410 20 L328 20Z" stroke="rgba(102, 102, 102,1)" stroke-width="1" fill-opacity="1" fill="#d7e6d2"></path><g id="SvgjsG1411"><text id="SvgjsText1412" font-family="&quot;Microsoft YaHei&quot;, 微软雅黑, Arial" text-anchor="middle" font-size="16px" width="82px" fill="#323232" font-weight="400" align="middle" lineHeight="125%" anchor="middle" family="&quot;Microsoft YaHei&quot;, 微软雅黑, Arial" size="16px" weight="400" font-style="" opacity="1" y="-4" transform="rotate(0)"><tspan id="SvgjsTspan1413" dy="20" x="41"><tspan id="SvgjsTspan1414" style="">1</tspan></tspan></text></g><g id="SvgjsG1415"><text id="SvgjsText1416" font-family="&quot;Microsoft YaHei&quot;, 微软雅黑, Arial" text-anchor="middle" font-size="16px" width="82px" fill="#323232" font-weight="400" align="middle" lineHeight="125%" anchor="middle" family="&quot;Microsoft YaHei&quot;, 微软雅黑, Arial" size="16px" weight="400" font-style="" opacity="1" y="-4" transform="rotate(0)"><tspan id="SvgjsTspan1417" dy="20" x="123"><tspan id="SvgjsTspan1418" style="">'张三'</tspan></tspan></text></g><g id="SvgjsG1419"><text id="SvgjsText1420" font-family="&quot;Microsoft YaHei&quot;, 微软雅黑, Arial" text-anchor="middle" font-size="16px" width="82px" fill="#323232" font-weight="400" align="middle" lineHeight="125%" anchor="middle" family="&quot;Microsoft YaHei&quot;, 微软雅黑, Arial" size="16px" weight="400" font-style="" opacity="1" y="-4" transform="rotate(0)"><tspan id="SvgjsTspan1421" dy="20" x="205"><tspan id="SvgjsTspan1422" style="">'一班'</tspan></tspan></text></g><g id="SvgjsG1423"><text id="SvgjsText1424" font-family="&quot;Microsoft YaHei&quot;, 微软雅黑, Arial" text-anchor="middle" font-size="16px" width="82px" fill="#323232" font-weight="400" align="middle" lineHeight="125%" anchor="middle" family="&quot;Microsoft YaHei&quot;, 微软雅黑, Arial" size="16px" weight="400" font-style="" opacity="1" y="-4" transform="rotate(0)"><tspan id="SvgjsTspan1425" dy="20" x="287"><tspan id="SvgjsTspan1426" style="">8</tspan></tspan></text></g><g id="SvgjsG1427"><text id="SvgjsText1428" font-family="&quot;Microsoft YaHei&quot;, 微软雅黑, Arial" text-anchor="middle" font-size="16px" width="82px" fill="#323232" font-weight="400" align="middle" lineHeight="125%" anchor="middle" family="&quot;Microsoft YaHei&quot;, 微软雅黑, Arial" size="16px" weight="400" font-style="" opacity="1" y="-4" transform="rotate(0)"><tspan id="SvgjsTspan1429" dy="20" x="369"><tspan id="SvgjsTspan1430" style="">●</tspan></tspan></text></g></g><g id="SvgjsG1431" transform="translate(628,46)"><path id="SvgjsPath1432" d="M 0 136Q 9 136 9 127L 9 77Q 9 68 22 68Q 9 68 9 59L 9 9Q 9 0 0 0" stroke="rgba(33,41,48,1)" stroke-width="1.5" fill="none"></path><path id="SvgjsPath1433" d="M 0 0L 120 0L 120 136L 0 136Z" stroke="none" fill="none"></path><g id="SvgjsG1434"><text id="SvgjsText1435" font-family="&quot;Microsoft YaHei&quot;, 微软雅黑, Arial" text-anchor="start" font-size="13px" width="93px" fill="#323232" font-weight="400" align="middle" lineHeight="125%" anchor="start" family="&quot;Microsoft YaHei&quot;, 微软雅黑, Arial" size="13px" weight="400" font-style="" opacity="1" y="57.375" transform="rotate(0)"></text></g></g><g id="SvgjsG1436"><path id="SvgjsPath1437" d="M565 53L565 86L177.00000000000003 86L177.00000000000003 114L195.55000000000004 114" stroke="#323232" stroke-width="1.5" fill="none" marker-start="url(#SvgjsMarker1438)" marker-end="url(#SvgjsMarker1440)"></path></g><g id="SvgjsG1442"><path id="SvgjsPath1443" d="M566 112L566 145L177.00000000000003 145L177.00000000000003 172L195.55000000000004 172" stroke="#323232" stroke-width="1.5" fill="none" marker-start="url(#SvgjsMarker1444)" marker-end="url(#SvgjsMarker1446)"></path></g><g id="SvgjsG1448" transform="translate(42.00000000000002,34)"><path id="SvgjsPath1449" d="M 120 0Q 111 0 111 3.2L 111 12.8Q 111 16 98 16Q 111 16 111 19.2L 111 28.8Q 111 32 120 32" stroke="rgba(33,41,48,1)" stroke-width="1.5" fill="none"></path><path id="SvgjsPath1450" d="M 0 0L 120 0L 120 32L 0 32Z" stroke="none" fill="none"></path><g id="SvgjsG1451"><text id="SvgjsText1452" font-family="&quot;Microsoft YaHei&quot;, 微软雅黑, Arial" text-anchor="end" font-size="13px" width="93px" fill="#323232" font-weight="400" align="middle" lineHeight="125%" anchor="end" family="&quot;Microsoft YaHei&quot;, 微软雅黑, Arial" size="13px" weight="400" font-style="" opacity="1" y="5.375" transform="rotate(0)"></text></g></g><g id="SvgjsG1453" transform="translate(38.00000000000002,104)"><path id="SvgjsPath1454" d="M 120 0Q 111 0 111 7.800000000000001L 111 31.2Q 111 39 98 39Q 111 39 111 46.8L 111 70.2Q 111 78 120 78" stroke="rgba(33,41,48,1)" stroke-width="1.5" fill="none"></path><path id="SvgjsPath1455" d="M 0 0L 120 0L 120 78L 0 78Z" stroke="none" fill="none"></path><g id="SvgjsG1456"><text id="SvgjsText1457" font-family="&quot;Microsoft YaHei&quot;, 微软雅黑, Arial" text-anchor="end" font-size="13px" width="93px" fill="#323232" font-weight="400" align="middle" lineHeight="125%" anchor="end" family="&quot;Microsoft YaHei&quot;, 微软雅黑, Arial" size="13px" weight="400" font-style="" opacity="1" y="28.375" transform="rotate(0)"></text></g></g><g id="SvgjsG1458" transform="translate(660,64)"><path id="SvgjsPath1459" d="M 0 22C 0 -7.333333333333333 148 -7.333333333333333 148 22Q 145.04 43.12 74 44Q 49.333333333333336 44 24.666666666666668 39.6L 0 44L 17.316000000000003 37.708Q 0 30.799999999999997 0 22" stroke="rgba(33,41,48,1)" stroke-width="1.5" fill-opacity="1" fill="#f8e3b9"></path><g id="SvgjsG1460"><text id="SvgjsText1461" font-family="&quot;Microsoft YaHei&quot;, 微软雅黑, Arial" text-anchor="middle" font-size="13px" width="128px" fill="#323232" font-weight="400" align="middle" lineHeight="125%" anchor="middle" family="&quot;Microsoft YaHei&quot;, 微软雅黑, Arial" size="13px" weight="400" font-style="" opacity="1" y="11.375" transform="rotate(0)"><tspan id="SvgjsTspan1462" dy="16.25" x="74"><tspan id="SvgjsTspan1463" style="">串成了一个版本链</tspan></tspan></text></g></g><g id="SvgjsG1464" transform="matrix(-1,1.2246467991473532e-16,-1.2246467991473532e-16,-1,131,184)"><path id="SvgjsPath1465" d="M 0 20.5C 0 -6.833333333333333 106 -6.833333333333333 106 20.5Q 103.88 40.18 53 41Q 35.333333333333336 41 17.666666666666668 36.9L 0 41L 12.402000000000001 35.137Q 0 28.7 0 20.5" stroke="rgba(33,41,48,1)" stroke-width="1.5" fill-opacity="1" fill="#f8e3b9"></path><g id="SvgjsG1466"><text id="SvgjsText1467" font-family="&quot;Microsoft YaHei&quot;, 微软雅黑, Arial" text-anchor="middle" font-size="13px" width="86px" fill="#323232" font-weight="400" align="middle" lineHeight="125%" anchor="middle" family="&quot;Microsoft YaHei&quot;, 微软雅黑, Arial" size="13px" weight="400" font-style="" opacity="1" y="9.875" transform="rotate(0)"></text></g></g><g id="SvgjsG1468" transform="translate(28.00000000000002,143)"><path id="SvgjsPath1469" d="M 0 0L 100 0L 100 40L 0 40Z" stroke="none" fill="none"></path><g id="SvgjsG1470"><text id="SvgjsText1471" font-family="&quot;Microsoft YaHei&quot;, 微软雅黑, Arial" text-anchor="middle" font-size="13px" width="100px" fill="#323232" font-weight="400" align="middle" lineHeight="125%" anchor="middle" family="&quot;Microsoft YaHei&quot;, 微软雅黑, Arial" size="13px" weight="400" font-style="" opacity="1" y="9.375" transform="rotate(0)"><tspan id="SvgjsTspan1472" dy="16.25" x="50"><tspan id="SvgjsTspan1473" style="">这些是undo日志</tspan></tspan></text></g></g><g id="SvgjsG1474" transform="matrix(-1,1.2246467991473532e-16,-1.2246467991473532e-16,-1,134,92)"><path id="SvgjsPath1475" d="M 0 20.5C 0 -6.833333333333333 106 -6.833333333333333 106 20.5Q 103.88 40.18 53 41Q 35.333333333333336 41 17.666666666666668 36.9L 0 41L 12.402000000000001 35.137Q 0 28.7 0 20.5" stroke="rgba(33,41,48,1)" stroke-width="1.5" fill-opacity="1" fill="#f8e3b9"></path><g id="SvgjsG1476"><text id="SvgjsText1477" font-family="&quot;Microsoft YaHei&quot;, 微软雅黑, Arial" text-anchor="middle" font-size="13px" width="86px" fill="#323232" font-weight="400" align="middle" lineHeight="125%" anchor="middle" family="&quot;Microsoft YaHei&quot;, 微软雅黑, Arial" size="13px" weight="400" font-style="" opacity="1" y="9.875" transform="rotate(0)"></text></g></g><g id="SvgjsG1478" transform="translate(31.00000000000002,51)"><path id="SvgjsPath1479" d="M 0 0L 100 0L 100 40L 0 40Z" stroke="none" fill="none"></path><g id="SvgjsG1480"><text id="SvgjsText1481" font-family="&quot;Microsoft YaHei&quot;, 微软雅黑, Arial" text-anchor="middle" font-size="13px" width="100px" fill="#323232" font-weight="400" align="middle" lineHeight="125%" anchor="middle" family="&quot;Microsoft YaHei&quot;, 微软雅黑, Arial" size="13px" weight="400" font-style="" opacity="1" y="0.875" transform="rotate(0)"><tspan id="SvgjsTspan1482" dy="16.25" x="50"><tspan id="SvgjsTspan1483" style="">这个是页面</tspan></tspan><tspan id="SvgjsTspan1484" dy="16.25" x="50"><tspan id="SvgjsTspan1485" style="">中的记录</tspan></tspan></text></g></g><g id="SvgjsG1486"></g></svg>