<svg id="SvgjsSvg1135" width="702" height="738" xmlns="http://www.w3.org/2000/svg" version="1.1" xmlns:xlink="http://www.w3.org/1999/xlink" xmlns:svgjs="http://svgjs.com/svgjs"><defs id="SvgjsDefs1136"><pattern patternUnits="userSpaceOnUse" id="pattern_mark_0" width="300" height="300"><text x="150" y="100" fill="rgba(229,229,229,0.8)" font-size="18" transform="rotate(-45, 150, 150)" style="dominant-baseline: middle; text-anchor: middle;"></text></pattern><pattern patternUnits="userSpaceOnUse" id="pattern_mark_1" width="300" height="300"><text x="150" y="200" fill="rgba(229,229,229,0.8)" font-size="18" transform="rotate(-45, 150, 150)" style="dominant-baseline: middle; text-anchor: middle;"></text></pattern><marker id="SvgjsMarker1174" markerWidth="13" markerHeight="9" refX="9.5" refY="4.5" viewBox="0 0 13 9" orient="auto" markerUnits="userSpaceOnUse" stroke-dasharray="0,0"><path id="SvgjsPath1175" d="M0,0 L13,4.5 L0,9 L0,0" fill="#323232" stroke="#323232" stroke-width="1"></path></marker><marker id="SvgjsMarker1184" markerWidth="13" markerHeight="9" refX="9.5" refY="4.5" viewBox="0 0 13 9" orient="auto" markerUnits="userSpaceOnUse" stroke-dasharray="0,0"><path id="SvgjsPath1185" d="M0,0 L13,4.5 L0,9 L0,0" fill="#323232" stroke="#323232" stroke-width="1"></path></marker><marker id="SvgjsMarker1198" markerWidth="13" markerHeight="9" refX="9.5" refY="4.5" viewBox="0 0 13 9" orient="auto" markerUnits="userSpaceOnUse" stroke-dasharray="0,0"><path id="SvgjsPath1199" d="M0,0 L13,4.5 L0,9 L0,0" fill="#323232" stroke="#323232" stroke-width="1"></path></marker><marker id="SvgjsMarker1206" markerWidth="13" markerHeight="9" refX="9.5" refY="4.5" viewBox="0 0 13 9" orient="auto" markerUnits="userSpaceOnUse" stroke-dasharray="0,0"><path id="SvgjsPath1207" d="M0,0 L13,4.5 L0,9 L0,0" fill="#323232" stroke="#323232" stroke-width="1"></path></marker><marker id="SvgjsMarker1216" markerWidth="13" markerHeight="9" refX="9.5" refY="4.5" viewBox="0 0 13 9" orient="auto" markerUnits="userSpaceOnUse" stroke-dasharray="0,0"><path id="SvgjsPath1217" d="M0,0 L13,4.5 L0,9 L0,0" fill="#323232" stroke="#323232" stroke-width="1"></path></marker><marker id="SvgjsMarker1224" markerWidth="13" markerHeight="9" refX="9.5" refY="4.5" viewBox="0 0 13 9" orient="auto" markerUnits="userSpaceOnUse" stroke-dasharray="0,0"><path id="SvgjsPath1225" d="M0,0 L13,4.5 L0,9 L0,0" fill="#323232" stroke="#323232" stroke-width="1"></path></marker><marker id="SvgjsMarker1232" markerWidth="13" markerHeight="9" refX="9.5" refY="4.5" viewBox="0 0 13 9" orient="auto" markerUnits="userSpaceOnUse" stroke-dasharray="0,0"><path id="SvgjsPath1233" d="M0,0 L13,4.5 L0,9 L0,0" fill="#323232" stroke="#323232" stroke-width="1"></path></marker><marker id="SvgjsMarker1242" markerWidth="13" markerHeight="9" refX="9.5" refY="4.5" viewBox="0 0 13 9" orient="auto" markerUnits="userSpaceOnUse" stroke-dasharray="0,0"><path id="SvgjsPath1243" d="M0,0 L13,4.5 L0,9 L0,0" fill="#323232" stroke="#323232" stroke-width="1"></path></marker><marker id="SvgjsMarker1250" markerWidth="13" markerHeight="9" refX="9.5" refY="4.5" viewBox="0 0 13 9" orient="auto" markerUnits="userSpaceOnUse" stroke-dasharray="0,0"><path id="SvgjsPath1251" d="M0,0 L13,4.5 L0,9 L0,0" fill="#323232" stroke="#323232" stroke-width="1"></path></marker><marker id="SvgjsMarker1258" markerWidth="13" markerHeight="9" refX="9.5" refY="4.5" viewBox="0 0 13 9" orient="auto" markerUnits="userSpaceOnUse" stroke-dasharray="0,0"><path id="SvgjsPath1259" d="M0,0 L13,4.5 L0,9 L0,0" fill="#323232" stroke="#323232" stroke-width="1"></path></marker></defs><rect id="svgbackgroundid" width="702" height="738" fill="transparent"></rect><rect id="SvgjsRect1138" width="702" height="738" fill="url(#pattern_mark_0)"></rect><rect id="SvgjsRect1139" width="702" height="738" fill="url(#pattern_mark_1)"></rect><g id="SvgjsG1140" transform="translate(25,25)"><path id="SvgjsPath1141" d="M 35 30L 35 688" stroke-dasharray="3,4" stroke="rgba(33,41,48,1)" stroke-width="2" fill="none"></path><path id="SvgjsPath1142" d="M 0 0L 70 0L 70 30L 0 30Z" stroke="rgba(33,41,48,1)" stroke-width="1.5" fill-opacity="1" fill="#fbeada"></path><g id="SvgjsG1143"><text id="SvgjsText1144" font-family="&quot;Comic Sans MS&quot;" text-anchor="middle" font-size="13px" width="50px" fill="#7985ec" font-weight="700" align="middle" lineHeight="125%" anchor="middle" family="&quot;Comic Sans MS&quot;" size="13px" weight="700" font-style="" opacity="1" y="4.375" transform="rotate(0)"><tspan id="SvgjsTspan1145" dy="16.25" x="35"><tspan id="SvgjsTspan1146" style="">线程A</tspan></tspan></text></g></g><g id="SvgjsG1147" transform="translate(219,25)"><path id="SvgjsPath1148" d="M 35 30L 35 663" stroke-dasharray="3,4" stroke="rgba(33,41,48,1)" stroke-width="2" fill="none"></path><path id="SvgjsPath1149" d="M 0 0L 70 0L 70 30L 0 30Z" stroke="rgba(33,41,48,1)" stroke-width="1.5" fill-opacity="1" fill="#fbeada"></path><g id="SvgjsG1150"><text id="SvgjsText1151" font-family="&quot;Comic Sans MS&quot;" text-anchor="middle" font-size="13px" width="50px" fill="#7985ec" font-weight="700" align="middle" lineHeight="125%" anchor="middle" family="&quot;Comic Sans MS&quot;" size="13px" weight="700" font-style="" opacity="1" y="4.375" transform="rotate(0)"><tspan id="SvgjsTspan1152" dy="16.25" x="35"><tspan id="SvgjsTspan1153" style="">线程B</tspan></tspan></text></g></g><g id="SvgjsG1154" transform="translate(45,96)"><path id="SvgjsPath1155" d="M 0 4Q 0 0 4 0L 26 0Q 30 0 30 4L 30 76Q 30 80 26 80L 4 80Q 0 80 0 76L 0 4Z" stroke="rgba(33,41,48,1)" stroke-width="1.5" fill-opacity="1" fill="#d2d6f9"></path></g><g id="SvgjsG1156" transform="translate(413,25)"><path id="SvgjsPath1157" d="M 35 30L 35 678" stroke-dasharray="3,4" stroke="rgba(33,41,48,1)" stroke-width="2" fill="none"></path><path id="SvgjsPath1158" d="M 0 0L 70 0L 70 30L 0 30Z" stroke="rgba(33,41,48,1)" stroke-width="1.5" fill-opacity="1" fill="#e7ebed"></path><g id="SvgjsG1159"><text id="SvgjsText1160" font-family="&quot;Comic Sans MS&quot;" text-anchor="middle" font-size="13px" width="50px" fill="#7985ec" font-weight="700" align="middle" lineHeight="125%" anchor="middle" family="&quot;Comic Sans MS&quot;" size="13px" weight="700" font-style="" opacity="1" y="4.375" transform="rotate(0)"><tspan id="SvgjsTspan1161" dy="16.25" x="35"><tspan id="SvgjsTspan1162" style="">Redis</tspan></tspan></text></g></g><g id="SvgjsG1163" transform="translate(607,25)"><path id="SvgjsPath1164" d="M 35 30L 35 688" stroke-dasharray="3,4" stroke="rgba(33,41,48,1)" stroke-width="2" fill="none"></path><path id="SvgjsPath1165" d="M 0 0L 70 0L 70 30L 0 30Z" stroke="rgba(33,41,48,1)" stroke-width="1.5" fill-opacity="1" fill="#f1e4a2"></path><g id="SvgjsG1166"><text id="SvgjsText1167" font-family="&quot;Comic Sans MS&quot;" text-anchor="middle" font-size="13px" width="50px" fill="#7985ec" font-weight="700" align="middle" lineHeight="125%" anchor="middle" family="&quot;Comic Sans MS&quot;" size="13px" weight="700" font-style="" opacity="1" y="4.375" transform="rotate(0)"><tspan id="SvgjsTspan1168" dy="16.25" x="35"><tspan id="SvgjsTspan1169" style="">MySQL</tspan></tspan></text></g></g><g id="SvgjsG1170" transform="translate(45,190)"><path id="SvgjsPath1171" d="M 0 4Q 0 0 4 0L 26 0Q 30 0 30 4L 30 490Q 30 494 26 494L 4 494Q 0 494 0 490L 0 4Z" stroke="rgba(33,41,48,1)" stroke-width="1.5" fill-opacity="1" fill="#d2d6f9"></path></g><g id="SvgjsG1172"><path id="SvgjsPath1173" d="M75.75 116L254 116L254 116L430.29999999999995 116" stroke="#323232" stroke-width="1.5" fill="none" marker-end="url(#SvgjsMarker1174)"></path><rect id="SvgjsRect1176" width="85" height="18" x="215.61236203090505" y="107" fill="#ffffff"></rect><text id="SvgjsText1177" font-family="&quot;Comic Sans MS&quot;" text-anchor="middle" font-size="13px" width="85px" fill="#7985ec" font-weight="700" align="top" lineHeight="16px" anchor="middle" family="&quot;Comic Sans MS&quot;" size="13px" weight="700" font-style="" opacity="1" y="104.375" transform="rotate(0)"><tspan id="SvgjsTspan1178" dy="16.25" x="258.11236203090505"><tspan id="SvgjsTspan1179" style="">1. delete key</tspan></tspan></text></g><g id="SvgjsG1180" transform="translate(642,190)"><path id="SvgjsPath1181" d="M 0 4Q 0 0 4 0L 26 0Q 30 0 30 4L 30 490Q 30 494 26 494L 4 494Q 0 494 0 490L 0 4Z" stroke="rgba(33,41,48,1)" stroke-width="1.5" fill-opacity="1" fill="#d2d6f9"></path></g><g id="SvgjsG1182"><path id="SvgjsPath1183" d="M75.75 230L358.5 230L358.5 230L639.3 230" stroke="#323232" stroke-width="1.5" fill="none" marker-end="url(#SvgjsMarker1184)"></path><rect id="SvgjsRect1186" width="228" height="18" x="239.99076396807294" y="221" fill="#ffffff"></rect><text id="SvgjsText1187" font-family="&quot;Comic Sans MS&quot;" text-anchor="middle" font-size="13px" width="228px" fill="#7985ec" font-weight="700" align="top" lineHeight="16px" anchor="middle" family="&quot;Comic Sans MS&quot;" size="13px" weight="700" font-style="" opacity="1" y="218.375" transform="rotate(0)"><tspan id="SvgjsTspan1188" dy="16.25" x="353.99076396807294"><tspan id="SvgjsTspan1189" style="">2. update key = 80 where key = 90</tspan></tspan></text></g><g id="SvgjsG1190" transform="translate(433,96)"><path id="SvgjsPath1191" d="M 0 4Q 0 0 4 0L 26 0Q 30 0 30 4L 30 76Q 30 80 26 80L 4 80Q 0 80 0 76L 0 4Z" stroke="rgba(33,41,48,1)" stroke-width="1.5" fill-opacity="1" fill="#d2d6f9"></path></g><g id="SvgjsG1192" transform="translate(239,293)"><path id="SvgjsPath1193" d="M 0 4Q 0 0 4 0L 26 0Q 30 0 30 4L 30 341Q 30 345 26 345L 4 345Q 0 345 0 341L 0 4Z" stroke="rgba(33,41,48,1)" stroke-width="1.5" fill-opacity="1" fill="#d2d6f9"></path></g><g id="SvgjsG1194" transform="translate(433,293)"><path id="SvgjsPath1195" d="M 0 4Q 0 0 4 0L 26 0Q 30 0 30 4L 30 110Q 30 114 26 114L 4 114Q 0 114 0 110L 0 4Z" stroke="rgba(33,41,48,1)" stroke-width="1.5" fill-opacity="1" fill="#d2d6f9"></path></g><g id="SvgjsG1196"><path id="SvgjsPath1197" d="M269.75 333L351 333L351 333L430.29999999999995 333" stroke="#323232" stroke-width="1.5" fill="none" marker-end="url(#SvgjsMarker1198)"></path><rect id="SvgjsRect1200" width="75" height="18" x="308.60914634146343" y="324" fill="#ffffff"></rect><text id="SvgjsText1201" font-family="&quot;Comic Sans MS&quot;" text-anchor="middle" font-size="13px" width="75px" fill="#7985ec" font-weight="700" align="top" lineHeight="16px" anchor="middle" family="&quot;Comic Sans MS&quot;" size="13px" weight="700" font-style="" opacity="1" y="321.375" transform="rotate(0)"><tspan id="SvgjsTspan1202" dy="16.25" x="346.10914634146343"><tspan id="SvgjsTspan1203" style="">3. read key</tspan></tspan></text></g><g id="SvgjsG1204"><path id="SvgjsPath1205" d="M432.25 378L351 378L351 378L271.7 378" stroke-dasharray="8,5" stroke="#323232" stroke-width="1.5" fill="none" marker-end="url(#SvgjsMarker1206)"></path><rect id="SvgjsRect1208" width="93" height="18" x="305.475" y="369" fill="#ffffff"></rect><text id="SvgjsText1209" font-family="&quot;Comic Sans MS&quot;" text-anchor="middle" font-size="13px" width="93px" fill="#7985ec" font-weight="700" align="top" lineHeight="16px" anchor="middle" family="&quot;Comic Sans MS&quot;" size="13px" weight="700" font-style="" opacity="1" y="366.375" transform="rotate(0)"><tspan id="SvgjsTspan1210" dy="16.25" x="351.975"><tspan id="SvgjsTspan1211" style="">3.1 return null</tspan></tspan></text></g><g id="SvgjsG1212" transform="translate(612,293)"><path id="SvgjsPath1213" d="M 0 4Q 0 0 4 0L 26 0Q 30 0 30 4L 30 218Q 30 222 26 222L 4 222Q 0 222 0 218L 0 4Z" stroke="rgba(33,41,48,1)" stroke-width="1.5" fill-opacity="1" fill="#d2d6f9"></path></g><g id="SvgjsG1214"><path id="SvgjsPath1215" d="M432.25 155L254 155L254 155L77.69999999999999 155" stroke-dasharray="8,5" stroke="#323232" stroke-width="1.5" fill="none" marker-end="url(#SvgjsMarker1216)"></path><rect id="SvgjsRect1218" width="118" height="18" x="193.99427374301672" y="146" fill="#ffffff"></rect><text id="SvgjsText1219" font-family="&quot;Comic Sans MS&quot;" text-anchor="middle" font-size="13px" width="118px" fill="#7985ec" font-weight="700" align="top" lineHeight="16px" anchor="middle" family="&quot;Comic Sans MS&quot;" size="13px" weight="700" font-style="" opacity="1" y="143.375" transform="rotate(0)"><tspan id="SvgjsTspan1220" dy="16.25" x="252.99427374301672"><tspan id="SvgjsTspan1221" style="">1.1 delete success</tspan></tspan></text></g><g id="SvgjsG1222"><path id="SvgjsPath1223" d="M269.75 433L440.5 433L440.5 433L609.3 433" stroke="#323232" stroke-width="1.5" fill="none" marker-end="url(#SvgjsMarker1224)"></path><rect id="SvgjsRect1226" width="75" height="18" x="401.53002915451896" y="424" fill="#ffffff"></rect><text id="SvgjsText1227" font-family="&quot;Comic Sans MS&quot;" text-anchor="middle" font-size="13px" width="75px" fill="#7985ec" font-weight="700" align="top" lineHeight="16px" anchor="middle" family="&quot;Comic Sans MS&quot;" size="13px" weight="700" font-style="" opacity="1" y="421.375" transform="rotate(0)"><tspan id="SvgjsTspan1228" dy="16.25" x="439.03002915451896"><tspan id="SvgjsTspan1229" style="">4. read key</tspan></tspan></text></g><g id="SvgjsG1230"><path id="SvgjsPath1231" d="M611.25 493L440.5 493L440.5 493L271.7 493" stroke-dasharray="8,5" stroke="#323232" stroke-width="1.5" fill="none" marker-end="url(#SvgjsMarker1232)"></path><rect id="SvgjsRect1234" width="129" height="18" x="376.4800291545189" y="484" fill="#ffffff"></rect><text id="SvgjsText1235" font-family="&quot;Comic Sans MS&quot;" text-anchor="middle" font-size="13px" width="129px" fill="#7985ec" font-weight="700" align="top" lineHeight="16px" anchor="middle" family="&quot;Comic Sans MS&quot;" size="13px" weight="700" font-style="" opacity="1" y="481.375" transform="rotate(0)"><tspan id="SvgjsTspan1236" dy="16.25" x="440.9800291545189"><tspan id="SvgjsTspan1237" style="">4.1 return key = 90</tspan></tspan></text></g><g id="SvgjsG1238" transform="translate(433,535)"><path id="SvgjsPath1239" d="M 0 4Q 0 0 4 0L 26 0Q 30 0 30 4L 30 99Q 30 103 26 103L 4 103Q 0 103 0 99L 0 4Z" stroke="rgba(33,41,48,1)" stroke-width="1.5" fill-opacity="1" fill="#d2d6f9"></path></g><g id="SvgjsG1240"><path id="SvgjsPath1241" d="M269.75 556L351 556L351 556L430.29999999999995 556" stroke="#323232" stroke-width="1.5" fill="none" marker-end="url(#SvgjsMarker1242)"></path><rect id="SvgjsRect1244" width="123" height="18" x="285.58810975609754" y="547" fill="#ffffff"></rect><text id="SvgjsText1245" font-family="&quot;Comic Sans MS&quot;" text-anchor="middle" font-size="13px" width="123px" fill="#7985ec" font-weight="700" align="top" lineHeight="16px" anchor="middle" family="&quot;Comic Sans MS&quot;" size="13px" weight="700" font-style="" opacity="1" y="544.375" transform="rotate(0)"><tspan id="SvgjsTspan1246" dy="16.25" x="347.08810975609754"><tspan id="SvgjsTspan1247" style="">5. update key = 90</tspan></tspan></text></g><g id="SvgjsG1248"><path id="SvgjsPath1249" d="M432.25 609L351 609L351 609L271.7 609" stroke-dasharray="8,5" stroke="#323232" stroke-width="1.5" fill="none" marker-end="url(#SvgjsMarker1250)"></path><rect id="SvgjsRect1252" width="121" height="18" x="292.45396341463413" y="600" fill="#ffffff"></rect><text id="SvgjsText1253" font-family="&quot;Comic Sans MS&quot;" text-anchor="middle" font-size="13px" width="121px" fill="#7985ec" font-weight="700" align="top" lineHeight="16px" anchor="middle" family="&quot;Comic Sans MS&quot;" size="13px" weight="700" font-style="" opacity="1" y="597.375" transform="rotate(0)"><tspan id="SvgjsTspan1254" dy="16.25" x="352.95396341463413"><tspan id="SvgjsTspan1255" style="">5.1 update success</tspan></tspan></text></g><g id="SvgjsG1256"><path id="SvgjsPath1257" d="M641.25 663L358.5 663L358.5 663L77.69999999999999 663" stroke-dasharray="8,5" stroke="#323232" stroke-width="1.5" fill="none" marker-end="url(#SvgjsMarker1258)"></path><rect id="SvgjsRect1260" width="183" height="18" x="268.4719576719576" y="654" fill="#ffffff"></rect><text id="SvgjsText1261" font-family="&quot;Comic Sans MS&quot;" text-anchor="middle" font-size="13px" width="183px" fill="#7985ec" font-weight="700" align="top" lineHeight="16px" anchor="middle" family="&quot;Comic Sans MS&quot;" size="13px" weight="700" font-style="" opacity="1" y="651.375" transform="rotate(0)"><tspan id="SvgjsTspan1262" dy="16.25" x="359.9719576719576"><tspan id="SvgjsTspan1263" style="">2.1 update key = 80 success</tspan></tspan></text></g></svg>