<svg id="SvgjsSvg1006" width="498.5" height="305" xmlns="http://www.w3.org/2000/svg" version="1.1" xmlns:xlink="http://www.w3.org/1999/xlink" xmlns:svgjs="http://svgjs.com/svgjs"><defs id="SvgjsDefs1007"><pattern patternUnits="userSpaceOnUse" id="pattern_mark_0" width="300" height="300"><text x="150" y="100" fill="rgba(229,229,229,0.8)" font-size="18" transform="rotate(-45, 150, 150)" style="dominant-baseline: middle; text-anchor: middle;"></text></pattern><pattern patternUnits="userSpaceOnUse" id="pattern_mark_1" width="300" height="300"><text x="150" y="200" fill="rgba(229,229,229,0.8)" font-size="18" transform="rotate(-45, 150, 150)" style="dominant-baseline: middle; text-anchor: middle;"></text></pattern><marker id="SvgjsMarker1071" markerWidth="30" markerHeight="26" refX="18" refY="13" viewBox="0 0 30 26" orient="auto" markerUnits="userSpaceOnUse" stroke-dasharray="0,0"><path id="SvgjsPath1072" d="M0,0 L30,13 L0,26 L0,0" fill="#f8d5b5" stroke="#f8d5b5" stroke-width="1"></path></marker></defs><rect id="svgbackgroundid" width="498.5" height="305" fill="transparent"></rect><rect id="SvgjsRect1009" width="498.5" height="305" fill="url(#pattern_mark_0)"></rect><rect id="SvgjsRect1010" width="498.5" height="305" fill="url(#pattern_mark_1)"></rect><g id="SvgjsG1011" transform="translate(95.5,230)"><path id="SvgjsPath1012" d="M 18 0Q 9 0 9 5L 9 20Q 9 25 0 25Q 9 25 9 30L 9 45Q 9 50 18 50" stroke="rgba(33,41,48,1)" stroke-width="1.5" fill="none"></path><path id="SvgjsPath1013" d="M 90 50Q 99 50 99 45L 99 30Q 99 25 108 25Q 99 25 99 20L 99 5Q 99 0 90 0" stroke="rgba(33,41,48,1)" stroke-width="1.5" fill="none"></path><path id="SvgjsPath1014" d="M 0 0L 108 0L 108 50L 0 50Z" stroke="none" fill="none"></path><g id="SvgjsG1015"><text id="SvgjsText1016" font-family="微软雅黑" text-anchor="middle" font-size="13px" width="88px" fill="#323232" font-weight="400" align="middle" lineHeight="125%" anchor="middle" family="微软雅黑" size="13px" weight="400" font-style="" opacity="1" y="14.375" transform="rotate(0)"></text></g></g><g id="SvgjsG1017" transform="translate(95.5,126)"><path id="SvgjsPath1018" d="M 18 0Q 9 0 9 9L 9 43Q 9 52 0 52Q 9 52 9 61L 9 95Q 9 104 18 104" stroke="rgba(33,41,48,1)" stroke-width="1.5" fill="none"></path><path id="SvgjsPath1019" d="M 90 104Q 99 104 99 95L 99 61Q 99 52 108 52Q 99 52 99 43L 99 9Q 99 0 90 0" stroke="rgba(33,41,48,1)" stroke-width="1.5" fill="none"></path><path id="SvgjsPath1020" d="M 0 0L 108 0L 108 104L 0 104Z" stroke="none" fill="none"></path><g id="SvgjsG1021"><text id="SvgjsText1022" font-family="微软雅黑" text-anchor="middle" font-size="13px" width="88px" fill="#323232" font-weight="400" align="middle" lineHeight="125%" anchor="middle" family="微软雅黑" size="13px" weight="400" font-style="" opacity="1" y="41.375" transform="rotate(0)"></text></g></g><g id="SvgjsG1023" transform="translate(95.5,25)"><path id="SvgjsPath1024" d="M 18 0Q 9 0 9 9L 9 41Q 9 50 0 50Q 9 50 9 59L 9 91Q 9 100 18 100" stroke="rgba(33,41,48,1)" stroke-width="1.5" fill="none"></path><path id="SvgjsPath1025" d="M 90 100Q 99 100 99 91L 99 59Q 99 50 108 50Q 99 50 99 41L 99 9Q 99 0 90 0" stroke="rgba(33,41,48,1)" stroke-width="1.5" fill="none"></path><path id="SvgjsPath1026" d="M 0 0L 108 0L 108 100L 0 100Z" stroke="none" fill="none"></path><g id="SvgjsG1027"><text id="SvgjsText1028" font-family="微软雅黑" text-anchor="middle" font-size="13px" width="88px" fill="#323232" font-weight="400" align="middle" lineHeight="125%" anchor="middle" family="微软雅黑" size="13px" weight="400" font-style="" opacity="1" y="39.375" transform="rotate(0)"></text></g></g><g id="SvgjsG1029" transform="translate(113.5,25)"><path id="SvgjsPath1030" d="M 0 0L 123 0L 123 50L 0 50Z" stroke="rgba(33,41,48,1)" stroke-width="1.5" fill-opacity="1" fill="#d2d6f9"></path><g id="SvgjsG1031"><text id="SvgjsText1032" font-family="微软雅黑" text-anchor="middle" font-size="13px" width="103px" fill="#323232" font-weight="400" align="middle" lineHeight="125%" anchor="middle" family="微软雅黑" size="13px" weight="400" font-style="" opacity="1" y="14.375" transform="rotate(0)"><tspan id="SvgjsTspan1033" dy="16.25" x="61.5"><tspan id="SvgjsTspan1034" style="">Mark World</tspan></tspan></text></g></g><g id="SvgjsG1035" transform="translate(113.5,75)"><path id="SvgjsPath1036" d="M 0 0L 123 0L 123 50L 0 50Z" stroke="rgba(33,41,48,1)" stroke-width="1.5" fill-opacity="1" fill="#d2d6f9"></path><g id="SvgjsG1037"><text id="SvgjsText1038" font-family="微软雅黑" text-anchor="middle" font-size="13px" width="103px" fill="#323232" font-weight="400" align="middle" lineHeight="125%" anchor="middle" family="微软雅黑" size="13px" weight="400" font-style="" opacity="1" y="14.375" transform="rotate(0)"><tspan id="SvgjsTspan1039" dy="16.25" x="61.5"><tspan id="SvgjsTspan1040" style="">Class Pointer</tspan></tspan></text></g></g><g id="SvgjsG1041" transform="translate(113.5,125)"><path id="SvgjsPath1042" d="M 0 0L 123 0L 123 106L 0 106Z" stroke="rgba(33,41,48,1)" stroke-width="1.5" fill-opacity="1" fill="#fadcdb"></path><g id="SvgjsG1043"><text id="SvgjsText1044" font-family="微软雅黑" text-anchor="middle" font-size="13px" width="103px" fill="#323232" font-weight="400" align="middle" lineHeight="125%" anchor="middle" family="微软雅黑" size="13px" weight="400" font-style="" opacity="1" y="42.375" transform="rotate(0)"><tspan id="SvgjsTspan1045" dy="16.25" x="61.5"><tspan id="SvgjsTspan1046" style="">instance data</tspan></tspan></text></g></g><g id="SvgjsG1047" transform="translate(113.5,230)"><path id="SvgjsPath1048" d="M 0 0L 123 0L 123 50L 0 50Z" stroke="rgba(33,41,48,1)" stroke-width="1.5" fill-opacity="1" fill="#d2d6f9"></path><g id="SvgjsG1049"><text id="SvgjsText1050" font-family="微软雅黑" text-anchor="middle" font-size="13px" width="103px" fill="#323232" font-weight="400" align="middle" lineHeight="125%" anchor="middle" family="微软雅黑" size="13px" weight="400" font-style="" opacity="1" y="14.375" transform="rotate(0)"><tspan id="SvgjsTspan1051" dy="16.25" x="61.5"><tspan id="SvgjsTspan1052" style="">padding</tspan></tspan></text></g></g><g id="SvgjsG1053" transform="translate(25,54)"><path id="SvgjsPath1054" d="M 0 0L 100 0L 100 40L 0 40Z" stroke="none" fill="none"></path><g id="SvgjsG1055"><text id="SvgjsText1056" font-family="微软雅黑" text-anchor="middle" font-size="13px" width="100px" fill="#323232" font-weight="400" align="middle" lineHeight="125%" anchor="middle" family="微软雅黑" size="13px" weight="400" font-style="" opacity="1" y="9.375" transform="rotate(0)"><tspan id="SvgjsTspan1057" dy="16.25" x="50"><tspan id="SvgjsTspan1058" style="">对象头</tspan></tspan></text></g></g><g id="SvgjsG1059" transform="translate(43.5,245)"><path id="SvgjsPath1060" d="M 0 0L 52 0L 52 20L 0 20Z" stroke="none" fill="none"></path><g id="SvgjsG1061"><text id="SvgjsText1062" font-family="微软雅黑" text-anchor="middle" font-size="13px" width="52px" fill="#323232" font-weight="400" align="middle" lineHeight="125%" anchor="middle" family="微软雅黑" size="13px" weight="400" font-style="" opacity="1" y="-0.625" transform="rotate(0)"><tspan id="SvgjsTspan1063" dy="16.25" x="26"><tspan id="SvgjsTspan1064" style="">对齐填充</tspan></tspan></text></g></g><g id="SvgjsG1065" transform="translate(341.5,25)"><path id="SvgjsPath1066" d="M 0 0L 132 0L 132 255L 0 255Z" stroke-dasharray="3,4" stroke="rgba(33,41,48,1)" stroke-width="1.5" fill-opacity="1" fill="#ffffff"></path><g id="SvgjsG1067"><text id="SvgjsText1068" font-family="微软雅黑" text-anchor="middle" font-size="13px" width="112px" fill="#323232" font-weight="400" align="middle" lineHeight="125%" anchor="middle" family="微软雅黑" size="13px" weight="400" font-style="" opacity="1" y="116.875" transform="rotate(0)"></text></g></g><g id="SvgjsG1069"><path id="SvgjsPath1070" d="M237.25 50L327.75 50" stroke="#f8d5b5" stroke-width="10" fill="none" marker-end="url(#SvgjsMarker1071)"></path></g><g id="SvgjsG1073" transform="translate(350.5,27)"><path id="SvgjsPath1074" d="M 0 0L 114 0L 114 48L 0 48Z" stroke="none" fill-opacity="1" fill="#d2d6f9"></path><g id="SvgjsG1075"><text id="SvgjsText1076" font-family="微软雅黑" text-anchor="middle" font-size="13px" width="94px" fill="#323232" font-weight="400" align="middle" lineHeight="125%" anchor="middle" family="微软雅黑" size="13px" weight="400" font-style="" opacity="1" y="13.375" transform="rotate(0)"><tspan id="SvgjsTspan1077" dy="16.25" x="57"><tspan id="SvgjsTspan1078" style="">哈希码</tspan></tspan></text></g></g><g id="SvgjsG1079" transform="translate(350.5,78.25)"><path id="SvgjsPath1080" d="M 0 0L 114 0L 114 48L 0 48Z" stroke="none" fill-opacity="1" fill="#d2d6f9"></path><g id="SvgjsG1081"><text id="SvgjsText1082" font-family="微软雅黑" text-anchor="middle" font-size="13px" width="94px" fill="#323232" font-weight="400" align="middle" lineHeight="125%" anchor="middle" family="微软雅黑" size="13px" weight="400" font-style="" opacity="1" y="13.375" transform="rotate(0)"><tspan id="SvgjsTspan1083" dy="16.25" x="57"><tspan id="SvgjsTspan1084" style="">[GC标记]</tspan></tspan></text></g></g><g id="SvgjsG1085" transform="translate(350.5,129.5)"><path id="SvgjsPath1086" d="M 0 0L 114 0L 114 48L 0 48Z" stroke="none" fill-opacity="1" fill="#d2d6f9"></path><g id="SvgjsG1087"><text id="SvgjsText1088" font-family="微软雅黑" text-anchor="middle" font-size="13px" width="94px" fill="#323232" font-weight="400" align="middle" lineHeight="125%" anchor="middle" family="微软雅黑" size="13px" weight="400" font-style="" opacity="1" y="13.375" transform="rotate(0)"><tspan id="SvgjsTspan1089" dy="16.25" x="57"><tspan id="SvgjsTspan1090" style="">[GC次数]</tspan></tspan></text></g></g><g id="SvgjsG1091" transform="translate(350.5,180.75)"><path id="SvgjsPath1092" d="M 0 0L 114 0L 114 48L 0 48Z" stroke="none" fill-opacity="1" fill="#d2d6f9"></path><g id="SvgjsG1093"><text id="SvgjsText1094" font-family="微软雅黑" text-anchor="middle" font-size="13px" width="94px" fill="#323232" font-weight="400" align="middle" lineHeight="125%" anchor="middle" family="微软雅黑" size="13px" weight="400" font-style="" opacity="1" y="13.375" transform="rotate(0)"><tspan id="SvgjsTspan1095" dy="16.25" x="57"><tspan id="SvgjsTspan1096" style="">[同步锁标记]</tspan></tspan></text></g></g><g id="SvgjsG1097" transform="translate(350.5,232)"><path id="SvgjsPath1098" d="M 0 0L 114 0L 114 48L 0 48Z" stroke="none" fill-opacity="1" fill="#d2d6f9"></path><g id="SvgjsG1099"><text id="SvgjsText1100" font-family="微软雅黑" text-anchor="middle" font-size="13px" width="94px" fill="#323232" font-weight="400" align="middle" lineHeight="125%" anchor="middle" family="微软雅黑" size="13px" weight="400" font-style="" opacity="1" y="13.375" transform="rotate(0)"><tspan id="SvgjsTspan1101" dy="16.25" x="57"><tspan id="SvgjsTspan1102" style="">[偏向锁持有者]</tspan></tspan></text></g></g></svg>