<svg id="SvgjsSvg1006" width="458.0454545454545" height="296" xmlns="http://www.w3.org/2000/svg" version="1.1" xmlns:xlink="http://www.w3.org/1999/xlink" xmlns:svgjs="http://svgjs.com/svgjs"><defs id="SvgjsDefs1007"><pattern patternUnits="userSpaceOnUse" id="pattern_mark_0" width="300" height="300"><text x="150" y="100" fill="rgba(229,229,229,0.8)" font-size="18" transform="rotate(-45, 150, 150)" style="dominant-baseline: middle; text-anchor: middle;"></text></pattern><pattern patternUnits="userSpaceOnUse" id="pattern_mark_1" width="300" height="300"><text x="150" y="200" fill="rgba(229,229,229,0.8)" font-size="18" transform="rotate(-45, 150, 150)" style="dominant-baseline: middle; text-anchor: middle;"></text></pattern><marker id="SvgjsMarker1037" markerWidth="13" markerHeight="9" refX="3.5" refY="4.5" viewBox="0 0 13 9" orient="auto" markerUnits="userSpaceOnUse" stroke-dasharray="0,0"><path id="SvgjsPath1038" d="M13,0 L0,4.5 L13,9 L13,0" fill="#a7932c" stroke="#a7932c" stroke-width="1"></path></marker><marker id="SvgjsMarker1041" markerWidth="13" markerHeight="9" refX="3.5" refY="4.5" viewBox="0 0 13 9" orient="auto" markerUnits="userSpaceOnUse" stroke-dasharray="0,0"><path id="SvgjsPath1042" d="M13,0 L0,4.5 L13,9 L13,0" fill="#a7932c" stroke="#a7932c" stroke-width="1"></path></marker><marker id="SvgjsMarker1045" markerWidth="13" markerHeight="9" refX="3.5" refY="4.5" viewBox="0 0 13 9" orient="auto" markerUnits="userSpaceOnUse" stroke-dasharray="0,0"><path id="SvgjsPath1046" d="M13,0 L0,4.5 L13,9 L13,0" fill="#a7932c" stroke="#a7932c" stroke-width="1"></path></marker><marker id="SvgjsMarker1073" markerWidth="13" markerHeight="9" refX="9.5" refY="4.5" viewBox="0 0 13 9" orient="auto" markerUnits="userSpaceOnUse" stroke-dasharray="0,0"><path id="SvgjsPath1074" d="M0,0 L13,4.5 L0,9 L0,0" fill="#a7932c" stroke="#a7932c" stroke-width="1"></path></marker></defs><rect id="svgbackgroundid" width="458.0454545454545" height="296" fill="transparent"></rect><rect id="SvgjsRect1009" width="458.0454545454545" height="296" fill="url(#pattern_mark_0)"></rect><rect id="SvgjsRect1010" width="458.0454545454545" height="296" fill="url(#pattern_mark_1)"></rect><g id="SvgjsG1011" transform="translate(144.5,121)"><path id="SvgjsPath1012" d="M 0 28C 0 -9.333333333333334 136 -9.333333333333334 136 28C 136 65.33333333333333 0 65.33333333333333 0 28Z" stroke="rgba(33,41,48,1)" stroke-width="1.5" fill-opacity="1" fill="#a7e271"></path><g id="SvgjsG1013"><text id="SvgjsText1014" font-family="&quot;Comic Sans MS&quot;" text-anchor="middle" font-size="13px" width="116px" fill="#323232" font-weight="700" align="middle" lineHeight="125%" anchor="middle" family="&quot;Comic Sans MS&quot;" size="13px" weight="700" font-style="" opacity="1" y="17.375" transform="rotate(0)"><tspan id="SvgjsTspan1015" dy="16.25" x="68"><tspan id="SvgjsTspan1016" style="">channel1</tspan></tspan></text></g></g><g id="SvgjsG1017" transform="translate(170,237)"><path id="SvgjsPath1018" d="M 0 4Q 0 0 4 0L 81 0Q 85 0 85 4L 85 30Q 85 34 81 34L 4 34Q 0 34 0 30Z" stroke="rgba(33,41,48,1)" stroke-width="1.5" fill-opacity="1" fill="#95bce3"></path><g id="SvgjsG1019"><text id="SvgjsText1020" font-family="&quot;Comic Sans MS&quot;" text-anchor="middle" font-size="13px" width="65px" fill="#323232" font-weight="700" align="middle" lineHeight="125%" anchor="middle" family="&quot;Comic Sans MS&quot;" size="13px" weight="700" font-style="" opacity="1" y="6.375" transform="rotate(0)"><tspan id="SvgjsTspan1021" dy="16.25" x="42.5"><tspan id="SvgjsTspan1022" style="">client5</tspan></tspan></text></g></g><g id="SvgjsG1023" transform="translate(315,237)"><path id="SvgjsPath1024" d="M 0 4Q 0 0 4 0L 81 0Q 85 0 85 4L 85 30Q 85 34 81 34L 4 34Q 0 34 0 30Z" stroke="rgba(33,41,48,1)" stroke-width="1.5" fill-opacity="1" fill="#95bce3"></path><g id="SvgjsG1025"><text id="SvgjsText1026" font-family="&quot;Comic Sans MS&quot;" text-anchor="middle" font-size="13px" width="65px" fill="#323232" font-weight="700" align="middle" lineHeight="125%" anchor="middle" family="&quot;Comic Sans MS&quot;" size="13px" weight="700" font-style="" opacity="1" y="6.375" transform="rotate(0)"><tspan id="SvgjsTspan1027" dy="16.25" x="42.5"><tspan id="SvgjsTspan1028" style="">client1</tspan></tspan></text></g></g><g id="SvgjsG1029" transform="translate(25,237)"><path id="SvgjsPath1030" d="M 0 4Q 0 0 4 0L 81 0Q 85 0 85 4L 85 30Q 85 34 81 34L 4 34Q 0 34 0 30Z" stroke="rgba(33,41,48,1)" stroke-width="1.5" fill-opacity="1" fill="#95bce3"></path><g id="SvgjsG1031"><text id="SvgjsText1032" font-family="&quot;Comic Sans MS&quot;" text-anchor="middle" font-size="13px" width="65px" fill="#323232" font-weight="700" align="middle" lineHeight="125%" anchor="middle" family="&quot;Comic Sans MS&quot;" size="13px" weight="700" font-style="" opacity="1" y="6.375" transform="rotate(0)"><tspan id="SvgjsTspan1033" dy="16.25" x="42.5"><tspan id="SvgjsTspan1034" style="">client2</tspan></tspan></text></g></g><g id="SvgjsG1035"><path id="SvgjsPath1036" d="M68.02715424375464 234.35196140449358C 67.50000000000003 188.65516736386894 155.44999552057845 217.5107741137232 168.43410684581238 171.7064634801154" stroke-dasharray="8,5" stroke="#a7932c" stroke-width="1.5" fill="none" marker-start="url(#SvgjsMarker1037)"></path></g><g id="SvgjsG1039"><path id="SvgjsPath1040" d="M212.5082546020343 234.30001261826186C 212.5 213 212.9188577544948 200.9963446837534 212.50917236058166 177.74994390977017" stroke-dasharray="8,5" stroke="#a7932c" stroke-width="1.5" fill="none" marker-start="url(#SvgjsMarker1041)"></path></g><g id="SvgjsG1043"><path id="SvgjsPath1044" d="M356.98083824851994 234.3503828435413C 357.5 187.9782934781775 268.54018819948016 217.92338633627998 254.55876656141402 171.70641835217072" stroke-dasharray="8,5" stroke="#a7932c" stroke-width="1.5" fill="none" marker-start="url(#SvgjsMarker1045)"></path></g><g id="SvgjsG1047" transform="translate(58.5,197)"><path id="SvgjsPath1048" d="M 0 0L 100 0L 100 40L 0 40Z" stroke="none" fill="none"></path><g id="SvgjsG1049"><text id="SvgjsText1050" font-family="&quot;Comic Sans MS&quot;" text-anchor="middle" font-size="13px" width="100px" fill="#323232" font-weight="400" align="middle" lineHeight="125%" anchor="middle" family="&quot;Comic Sans MS&quot;" size="13px" weight="400" font-style="" opacity="1" y="9.375" transform="rotate(0)"><tspan id="SvgjsTspan1051" dy="16.25" x="50"><tspan id="SvgjsTspan1052" style="">message</tspan></tspan></text></g></g><g id="SvgjsG1053" transform="translate(193.5,197)"><path id="SvgjsPath1054" d="M 0 0L 100 0L 100 40L 0 40Z" stroke="none" fill="none"></path><g id="SvgjsG1055"><text id="SvgjsText1056" font-family="&quot;Comic Sans MS&quot;" text-anchor="middle" font-size="13px" width="100px" fill="#323232" font-weight="400" align="middle" lineHeight="125%" anchor="middle" family="&quot;Comic Sans MS&quot;" size="13px" weight="400" font-style="" opacity="1" y="9.375" transform="rotate(0)"><tspan id="SvgjsTspan1057" dy="16.25" x="50"><tspan id="SvgjsTspan1058" style="">message</tspan></tspan></text></g></g><g id="SvgjsG1059" transform="translate(333.0454545454545,197)"><path id="SvgjsPath1060" d="M 0 0L 100 0L 100 40L 0 40Z" stroke="none" fill="none"></path><g id="SvgjsG1061"><text id="SvgjsText1062" font-family="&quot;Comic Sans MS&quot;" text-anchor="middle" font-size="13px" width="100px" fill="#323232" font-weight="400" align="middle" lineHeight="125%" anchor="middle" family="&quot;Comic Sans MS&quot;" size="13px" weight="400" font-style="" opacity="1" y="9.375" transform="rotate(0)"><tspan id="SvgjsTspan1063" dy="16.25" x="50"><tspan id="SvgjsTspan1064" style="">message</tspan></tspan></text></g></g><g id="SvgjsG1065" transform="translate(108.5,25)"><path id="SvgjsPath1066" d="M 0 0L 208 0L 208 36L 0 36Z" stroke="none" fill-opacity="1" fill="#f9dcae"></path><g id="SvgjsG1067"><text id="SvgjsText1068" font-family="&quot;Comic Sans MS&quot;" text-anchor="middle" font-size="13px" width="188px" fill="#323232" font-weight="700" align="middle" lineHeight="125%" anchor="middle" family="&quot;Comic Sans MS&quot;" size="13px" weight="700" font-style="" opacity="1" y="7.375" transform="rotate(0)"><tspan id="SvgjsTspan1069" dy="16.25" x="104"><tspan id="SvgjsTspan1070" style="">PUBLISH channel1 message</tspan></tspan></text></g></g><g id="SvgjsG1071"><path id="SvgjsPath1072" d="M212.5 61L212.5 91L212.5 91L212.5 118.30000000000001" stroke-dasharray="8,5" stroke="#a7932c" stroke-width="1.5" fill="none" marker-end="url(#SvgjsMarker1073)"></path></g></svg>