<svg id="SvgjsSvg1006" width="452" height="453" xmlns="http://www.w3.org/2000/svg" version="1.1" xmlns:xlink="http://www.w3.org/1999/xlink" xmlns:svgjs="http://svgjs.com/svgjs"><defs id="SvgjsDefs1007"><pattern patternUnits="userSpaceOnUse" id="pattern_mark_0" width="300" height="300"><text x="150" y="100" fill="rgba(229,229,229,0.8)" font-size="18" transform="rotate(-45, 150, 150)" style="dominant-baseline: middle; text-anchor: middle;"></text></pattern><pattern patternUnits="userSpaceOnUse" id="pattern_mark_1" width="300" height="300"><text x="150" y="200" fill="rgba(229,229,229,0.8)" font-size="18" transform="rotate(-45, 150, 150)" style="dominant-baseline: middle; text-anchor: middle;"></text></pattern></defs><rect id="svgbackgroundid" width="452" height="453" fill="transparent"></rect><rect id="SvgjsRect1009" width="452" height="453" fill="url(#pattern_mark_0)"></rect><rect id="SvgjsRect1010" width="452" height="453" fill="url(#pattern_mark_1)"></rect><g id="SvgjsG1011" transform="translate(25,57)"><path id="SvgjsPath1012" d="M 0 0L 202 0L 202 371L 0 371Z" stroke="rgba(166,174,243,1)" stroke-width="1.5" fill-opacity="1" fill="#ffffff"></path><g id="SvgjsG1013"><text id="SvgjsText1014" font-family="&quot;Microsoft YaHei&quot;, 微软雅黑, Arial" text-anchor="middle" font-size="13px" width="182px" fill="#323232" font-weight="400" align="middle" lineHeight="125%" anchor="middle" family="&quot;Microsoft YaHei&quot;, 微软雅黑, Arial" size="13px" weight="400" font-style="" opacity="1" y="174.875" transform="rotate(0)"></text></g></g><g id="SvgjsG1015" transform="translate(40,67)"><path id="SvgjsPath1016" d="M 0 4Q 0 0 4 0L 168 0Q 172 0 172 4L 172 235Q 172 239 168 239L 4 239Q 0 239 0 235Z" stroke="none" fill-opacity="1" fill="#bedbf2"></path><g id="SvgjsG1017"><text id="SvgjsText1018" font-family="&quot;Microsoft YaHei&quot;, 微软雅黑, Arial" text-anchor="middle" font-size="15px" width="152px" fill="#d3736b" font-weight="700" align="middle" lineHeight="125%" anchor="middle" family="&quot;Microsoft YaHei&quot;, 微软雅黑, Arial" size="15px" weight="700" font-style="" opacity="1" y="4.125" transform="rotate(0)"><tspan id="SvgjsTspan1019" dy="18.75" x="86"><tspan id="SvgjsTspan1020" style="">当前栈帧</tspan></tspan><tspan id="SvgjsTspan1021" dy="18.75" x="86"><tspan id="SvgjsTspan1022" style=""> </tspan></tspan><tspan id="SvgjsTspan1023" dy="18.75" x="86"><tspan id="SvgjsTspan1024" style=""> </tspan></tspan><tspan id="SvgjsTspan1025" dy="18.75" x="86"><tspan id="SvgjsTspan1026" style=""> </tspan></tspan><tspan id="SvgjsTspan1027" dy="18.75" x="86"><tspan id="SvgjsTspan1028" style=""> </tspan></tspan><tspan id="SvgjsTspan1029" dy="18.75" x="86"><tspan id="SvgjsTspan1030" style=""> </tspan></tspan><tspan id="SvgjsTspan1031" dy="18.75" x="86"><tspan id="SvgjsTspan1032" style=""> </tspan></tspan><tspan id="SvgjsTspan1033" dy="18.75" x="86"><tspan id="SvgjsTspan1034" style=""> </tspan></tspan><tspan id="SvgjsTspan1035" dy="18.75" x="86"><tspan id="SvgjsTspan1036" style=""> </tspan></tspan><tspan id="SvgjsTspan1037" dy="18.75" x="86"><tspan id="SvgjsTspan1038" style=""> </tspan></tspan><tspan id="SvgjsTspan1039" dy="18.75" x="86"><tspan id="SvgjsTspan1040" style=""> </tspan></tspan><tspan id="SvgjsTspan1041" dy="18.75" x="86"><tspan id="SvgjsTspan1042" style=""> </tspan></tspan></text></g></g><g id="SvgjsG1043" transform="translate(56,92)"><path id="SvgjsPath1044" d="M 13.333333333333334 0L 126.66666666666667 0C 144.44444444444446 0 144.44444444444446 40 126.66666666666667 40L 13.333333333333334 40C -4.444444444444445 40 -4.444444444444445 0 13.333333333333334 0Z" stroke="none" fill-opacity="1" fill="#878a87"></path><g id="SvgjsG1045"><text id="SvgjsText1046" font-family="&quot;Microsoft YaHei&quot;, 微软雅黑, Arial" text-anchor="middle" font-size="13px" width="120px" fill="#ffffff" font-weight="400" align="middle" lineHeight="125%" anchor="middle" family="&quot;Microsoft YaHei&quot;, 微软雅黑, Arial" size="13px" weight="400" font-style="" opacity="1" y="0.875" transform="rotate(0)"><tspan id="SvgjsTspan1047" dy="16.25" x="70"><tspan id="SvgjsTspan1048" style="">局部变量表</tspan></tspan><tspan id="SvgjsTspan1049" dy="16.25" x="70"><tspan id="SvgjsTspan1050" style="">Local Variable Table</tspan></tspan></text></g></g><g id="SvgjsG1051" transform="translate(56,143)"><path id="SvgjsPath1052" d="M 13.333333333333334 0L 126.66666666666667 0C 144.44444444444446 0 144.44444444444446 40 126.66666666666667 40L 13.333333333333334 40C -4.444444444444445 40 -4.444444444444445 0 13.333333333333334 0Z" stroke="none" fill-opacity="1" fill="#878a87"></path><g id="SvgjsG1053"><text id="SvgjsText1054" font-family="&quot;Microsoft YaHei&quot;, 微软雅黑, Arial" text-anchor="middle" font-size="13px" width="120px" fill="#ffffff" font-weight="400" align="middle" lineHeight="125%" anchor="middle" family="&quot;Microsoft YaHei&quot;, 微软雅黑, Arial" size="13px" weight="400" font-style="" opacity="1" y="0.875" transform="rotate(0)"><tspan id="SvgjsTspan1055" dy="16.25" x="70"><tspan id="SvgjsTspan1056" style="">操作数栈</tspan></tspan><tspan id="SvgjsTspan1057" dy="16.25" x="70"><tspan id="SvgjsTspan1058" style="">Operand Stack</tspan></tspan></text></g></g><g id="SvgjsG1059" transform="translate(56,194)"><path id="SvgjsPath1060" d="M 13.333333333333334 0L 126.66666666666667 0C 144.44444444444446 0 144.44444444444446 40 126.66666666666667 40L 13.333333333333334 40C -4.444444444444445 40 -4.444444444444445 0 13.333333333333334 0Z" stroke="none" fill-opacity="1" fill="#878a87"></path><g id="SvgjsG1061"><text id="SvgjsText1062" font-family="&quot;Microsoft YaHei&quot;, 微软雅黑, Arial" text-anchor="middle" font-size="13px" width="120px" fill="#ffffff" font-weight="400" align="middle" lineHeight="125%" anchor="middle" family="&quot;Microsoft YaHei&quot;, 微软雅黑, Arial" size="13px" weight="400" font-style="" opacity="1" y="0.875" transform="rotate(0)"><tspan id="SvgjsTspan1063" dy="16.25" x="70"><tspan id="SvgjsTspan1064" style="">动态链接</tspan></tspan><tspan id="SvgjsTspan1065" dy="16.25" x="70"><tspan id="SvgjsTspan1066" style="">Dynamic Linking</tspan></tspan></text></g></g><g id="SvgjsG1067" transform="translate(56,245)"><path id="SvgjsPath1068" d="M 13.333333333333334 0L 126.66666666666667 0C 144.44444444444446 0 144.44444444444446 40 126.66666666666667 40L 13.333333333333334 40C -4.444444444444445 40 -4.444444444444445 0 13.333333333333334 0Z" stroke="none" fill-opacity="1" fill="#878a87"></path><g id="SvgjsG1069"><text id="SvgjsText1070" font-family="&quot;Microsoft YaHei&quot;, 微软雅黑, Arial" text-anchor="middle" font-size="13px" width="120px" fill="#ffffff" font-weight="400" align="middle" lineHeight="125%" anchor="middle" family="&quot;Microsoft YaHei&quot;, 微软雅黑, Arial" size="13px" weight="400" font-style="" opacity="1" y="0.875" transform="rotate(0)"><tspan id="SvgjsTspan1071" dy="16.25" x="70"><tspan id="SvgjsTspan1072" style="">方法返回地址</tspan></tspan><tspan id="SvgjsTspan1073" dy="16.25" x="70"><tspan id="SvgjsTspan1074" style="">Return Address</tspan></tspan></text></g></g><g id="SvgjsG1075" transform="translate(40,340.6666666666667)"><path id="SvgjsPath1076" d="M 0 4Q 0 0 4 0L 168 0Q 172 0 172 4L 172 31Q 172 35 168 35L 4 35Q 0 35 0 31Z" stroke="none" fill-opacity="1" fill="#d6d4d4"></path><g id="SvgjsG1077"><text id="SvgjsText1078" font-family="&quot;Microsoft YaHei&quot;, 微软雅黑, Arial" text-anchor="middle" font-size="13px" width="152px" fill="#323232" font-weight="400" align="middle" lineHeight="125%" anchor="middle" family="&quot;Microsoft YaHei&quot;, 微软雅黑, Arial" size="13px" weight="400" font-style="" opacity="1" y="6.875" transform="rotate(0)"><tspan id="SvgjsTspan1079" dy="16.25" x="86"><tspan id="SvgjsTspan1080" style="">栈帧2</tspan></tspan></text></g></g><g id="SvgjsG1081" transform="translate(40,383)"><path id="SvgjsPath1082" d="M 0 4Q 0 0 4 0L 168 0Q 172 0 172 4L 172 31Q 172 35 168 35L 4 35Q 0 35 0 31Z" stroke="none" fill-opacity="1" fill="#d6d4d4"></path><g id="SvgjsG1083"><text id="SvgjsText1084" font-family="&quot;Microsoft YaHei&quot;, 微软雅黑, Arial" text-anchor="middle" font-size="13px" width="152px" fill="#323232" font-weight="400" align="middle" lineHeight="125%" anchor="middle" family="&quot;Microsoft YaHei&quot;, 微软雅黑, Arial" size="13px" weight="400" font-style="" opacity="1" y="6.875" transform="rotate(0)"><tspan id="SvgjsTspan1085" dy="16.25" x="86"><tspan id="SvgjsTspan1086" style="">栈帧2</tspan></tspan></text></g></g><g id="SvgjsG1087" transform="translate(76,313.33333333333337)"><path id="SvgjsPath1088" d="M 0 0L 100 0L 100 20L 0 20Z" stroke="none" fill="none"></path><g id="SvgjsG1089"><text id="SvgjsText1090" font-family="&quot;Microsoft YaHei&quot;, 微软雅黑, Arial" text-anchor="middle" font-size="13px" width="100px" fill="#afb1b1" font-weight="400" align="middle" lineHeight="125%" anchor="middle" family="&quot;Microsoft YaHei&quot;, 微软雅黑, Arial" size="13px" weight="400" font-style="" opacity="1" y="-0.625" transform="rotate(0)"><tspan id="SvgjsTspan1091" dy="16.25" x="50"><tspan id="SvgjsTspan1092" style="">●●●●●●</tspan></tspan></text></g></g><g id="SvgjsG1093" transform="translate(257,57)"><path id="SvgjsPath1094" d="M 0 0L 60 0L 60 371L 0 371Z" stroke="rgba(166,174,243,1)" stroke-width="1.5" fill-opacity="1" fill="#ffffff"></path><g id="SvgjsG1095"><text id="SvgjsText1096" font-family="&quot;Microsoft YaHei&quot;, 微软雅黑, Arial" text-anchor="middle" font-size="13px" width="40px" fill="#323232" font-weight="400" align="middle" lineHeight="125%" anchor="middle" family="&quot;Microsoft YaHei&quot;, 微软雅黑, Arial" size="13px" weight="400" font-style="" opacity="1" y="174.875" transform="rotate(0)"></text></g></g><g id="SvgjsG1097" transform="translate(347,57)"><path id="SvgjsPath1098" d="M 0 0L 60 0L 60 371L 0 371Z" stroke="rgba(166,174,243,1)" stroke-width="1.5" fill-opacity="1" fill="#ffffff"></path><g id="SvgjsG1099"><text id="SvgjsText1100" font-family="&quot;Microsoft YaHei&quot;, 微软雅黑, Arial" text-anchor="middle" font-size="13px" width="40px" fill="#323232" font-weight="400" align="middle" lineHeight="125%" anchor="middle" family="&quot;Microsoft YaHei&quot;, 微软雅黑, Arial" size="13px" weight="400" font-style="" opacity="1" y="174.875" transform="rotate(0)"></text></g></g><g id="SvgjsG1101" transform="translate(76,25)"><path id="SvgjsPath1102" d="M 0 0L 100 0L 100 40L 0 40Z" stroke="none" fill="none"></path><g id="SvgjsG1103"><text id="SvgjsText1104" font-family="&quot;Microsoft YaHei&quot;, 微软雅黑, Arial" text-anchor="middle" font-size="15px" width="100px" fill="#d3736b" font-weight="400" align="middle" lineHeight="125%" anchor="middle" family="&quot;Microsoft YaHei&quot;, 微软雅黑, Arial" size="15px" weight="400" font-style="" opacity="1" y="7.625" transform="rotate(0)"><tspan id="SvgjsTspan1105" dy="18.75" x="50"><tspan id="SvgjsTspan1106" style="font-weight: bold;">当前线程</tspan></tspan></text></g></g><g id="SvgjsG1107" transform="translate(237,25)"><path id="SvgjsPath1108" d="M 0 0L 100 0L 100 40L 0 40Z" stroke="none" fill="none"></path><g id="SvgjsG1109"><text id="SvgjsText1110" font-family="&quot;Microsoft YaHei&quot;, 微软雅黑, Arial" text-anchor="middle" font-size="15px" width="100px" fill="#5c4038" font-weight="400" align="middle" lineHeight="125%" anchor="middle" family="&quot;Microsoft YaHei&quot;, 微软雅黑, Arial" size="15px" weight="400" font-style="" opacity="1" y="7.625" transform="rotate(0)"><tspan id="SvgjsTspan1111" dy="18.75" x="50"><tspan id="SvgjsTspan1112" style="font-weight: bold;">线程1</tspan></tspan></text></g></g><g id="SvgjsG1113" transform="translate(327,25)"><path id="SvgjsPath1114" d="M 0 0L 100 0L 100 40L 0 40Z" stroke="none" fill="none"></path><g id="SvgjsG1115"><text id="SvgjsText1116" font-family="&quot;Microsoft YaHei&quot;, 微软雅黑, Arial" text-anchor="middle" font-size="15px" width="100px" fill="#5c4038" font-weight="400" align="middle" lineHeight="125%" anchor="middle" family="&quot;Microsoft YaHei&quot;, 微软雅黑, Arial" size="15px" weight="400" font-style="" opacity="1" y="7.625" transform="rotate(0)"><tspan id="SvgjsTspan1117" dy="18.75" x="50"><tspan id="SvgjsTspan1118" style="font-weight: bold;">线程n</tspan></tspan></text></g></g><g id="SvgjsG1119"></g></svg>