<svg id="SvgjsSvg1006" width="865.1041666666667" height="613" xmlns="http://www.w3.org/2000/svg" version="1.1" xmlns:xlink="http://www.w3.org/1999/xlink" xmlns:svgjs="http://svgjs.com/svgjs"><defs id="SvgjsDefs1007"><pattern patternUnits="userSpaceOnUse" id="pattern_mark_0" width="300" height="300"><text x="150" y="100" fill="rgba(229,229,229,0.8)" font-size="18" transform="rotate(-45, 150, 150)" style="dominant-baseline: middle; text-anchor: middle;"></text></pattern><pattern patternUnits="userSpaceOnUse" id="pattern_mark_1" width="300" height="300"><text x="150" y="200" fill="rgba(229,229,229,0.8)" font-size="18" transform="rotate(-45, 150, 150)" style="dominant-baseline: middle; text-anchor: middle;"></text></pattern><marker id="SvgjsMarker1053" markerWidth="13" markerHeight="9" refX="9.5" refY="4.5" viewBox="0 0 13 9" orient="auto" markerUnits="userSpaceOnUse" stroke-dasharray="0,0"><path id="SvgjsPath1054" d="M0,0 L13,4.5 L0,9 L0,0" fill="#000000" stroke="#000000" stroke-width="1"></path></marker><marker id="SvgjsMarker1057" markerWidth="13" markerHeight="9" refX="9.5" refY="4.5" viewBox="0 0 13 9" orient="auto" markerUnits="userSpaceOnUse" stroke-dasharray="0,0"><path id="SvgjsPath1058" d="M0,0 L13,4.5 L0,9 L0,0" fill="#000000" stroke="#000000" stroke-width="1"></path></marker><marker id="SvgjsMarker1061" markerWidth="13" markerHeight="9" refX="9.5" refY="4.5" viewBox="0 0 13 9" orient="auto" markerUnits="userSpaceOnUse" stroke-dasharray="0,0"><path id="SvgjsPath1062" d="M0,0 L13,4.5 L0,9 L0,0" fill="#000000" stroke="#000000" stroke-width="1"></path></marker><marker id="SvgjsMarker1065" markerWidth="13" markerHeight="9" refX="9.5" refY="4.5" viewBox="0 0 13 9" orient="auto" markerUnits="userSpaceOnUse" stroke-dasharray="0,0"><path id="SvgjsPath1066" d="M0,0 L13,4.5 L0,9 L0,0" fill="#000000" stroke="#000000" stroke-width="1"></path></marker><marker id="SvgjsMarker1109" markerWidth="13" markerHeight="9" refX="9.5" refY="4.5" viewBox="0 0 13 9" orient="auto" markerUnits="userSpaceOnUse" stroke-dasharray="0,0"><path id="SvgjsPath1110" d="M0,0 L13,4.5 L0,9 L0,0" fill="#000000" stroke="#000000" stroke-width="1"></path></marker><marker id="SvgjsMarker1113" markerWidth="13" markerHeight="9" refX="9.5" refY="4.5" viewBox="0 0 13 9" orient="auto" markerUnits="userSpaceOnUse" stroke-dasharray="0,0"><path id="SvgjsPath1114" d="M0,0 L13,4.5 L0,9 L0,0" fill="#000000" stroke="#000000" stroke-width="1"></path></marker><marker id="SvgjsMarker1117" markerWidth="13" markerHeight="9" refX="9.5" refY="4.5" viewBox="0 0 13 9" orient="auto" markerUnits="userSpaceOnUse" stroke-dasharray="0,0"><path id="SvgjsPath1118" d="M0,0 L13,4.5 L0,9 L0,0" fill="#000000" stroke="#000000" stroke-width="1"></path></marker><marker id="SvgjsMarker1121" markerWidth="13" markerHeight="9" refX="9.5" refY="4.5" viewBox="0 0 13 9" orient="auto" markerUnits="userSpaceOnUse" stroke-dasharray="0,0"><path id="SvgjsPath1122" d="M0,0 L13,4.5 L0,9 L0,0" fill="#323232" stroke="#323232" stroke-width="1"></path></marker><marker id="SvgjsMarker1125" markerWidth="13" markerHeight="9" refX="9.5" refY="4.5" viewBox="0 0 13 9" orient="auto" markerUnits="userSpaceOnUse" stroke-dasharray="0,0"><path id="SvgjsPath1126" d="M0,0 L13,4.5 L0,9 L0,0" fill="#323232" stroke="#323232" stroke-width="1"></path></marker><marker id="SvgjsMarker1129" markerWidth="13" markerHeight="9" refX="9.5" refY="4.5" viewBox="0 0 13 9" orient="auto" markerUnits="userSpaceOnUse" stroke-dasharray="0,0"><path id="SvgjsPath1130" d="M0,0 L13,4.5 L0,9 L0,0" fill="#323232" stroke="#323232" stroke-width="1"></path></marker></defs><rect id="svgbackgroundid" width="865.1041666666667" height="613" fill="transparent"></rect><rect id="SvgjsRect1009" width="865.1041666666667" height="613" fill="url(#pattern_mark_0)"></rect><rect id="SvgjsRect1010" width="865.1041666666667" height="613" fill="url(#pattern_mark_1)"></rect><g id="SvgjsG1011" transform="translate(132.5,62)"><path id="SvgjsPath1012" d="M 0 4Q 0 0 4 0L 162.66666666666666 0Q 166.66666666666666 0 166.66666666666666 4L 166.66666666666666 46.00000000000001Q 166.66666666666666 50.00000000000001 162.66666666666666 50.00000000000001L 4 50.00000000000001Q 0 50.00000000000001 0 46.00000000000001Z" stroke="none" fill-opacity="1" fill="#509dfc"></path><g id="SvgjsG1013"><text id="SvgjsText1014" font-family="&quot;Microsoft YaHei&quot;, 微软雅黑, Arial" text-anchor="middle" font-size="13px" width="147px" fill="#ffffff" font-weight="700" align="middle" lineHeight="125%" anchor="middle" family="&quot;Microsoft YaHei&quot;, 微软雅黑, Arial" size="13px" weight="700" font-style="" opacity="1" y="5.8750000000000036" transform="rotate(0)"><tspan id="SvgjsTspan1015" dy="16.25" x="83.5"><tspan id="SvgjsTspan1016" style="">引导类加载器</tspan></tspan><tspan id="SvgjsTspan1017" dy="16.25" x="83.5"><tspan id="SvgjsTspan1018" style="">Bootstrap ClassLoader</tspan></tspan></text></g></g><g id="SvgjsG1019" transform="translate(25,390.5)"><path id="SvgjsPath1020" d="M 0 4Q 0 0 4 0L 162.66666666666666 0Q 166.66666666666666 0 166.66666666666666 4L 166.66666666666666 46.00000000000001Q 166.66666666666666 50.00000000000001 162.66666666666666 50.00000000000001L 4 50.00000000000001Q 0 50.00000000000001 0 46.00000000000001Z" stroke="none" fill-opacity="1" fill="#509dfc"></path><g id="SvgjsG1021"><text id="SvgjsText1022" font-family="&quot;Microsoft YaHei&quot;, 微软雅黑, Arial" text-anchor="middle" font-size="13px" width="147px" fill="#ffffff" font-weight="700" align="middle" lineHeight="125%" anchor="middle" family="&quot;Microsoft YaHei&quot;, 微软雅黑, Arial" size="13px" weight="700" font-style="" opacity="1" y="5.8750000000000036" transform="rotate(0)"><tspan id="SvgjsTspan1023" dy="16.25" x="83.5"><tspan id="SvgjsTspan1024" style="">自定义类加载器</tspan></tspan><tspan id="SvgjsTspan1025" dy="16.25" x="83.5"><tspan id="SvgjsTspan1026" style="">User ClassLoader</tspan></tspan></text></g></g><g id="SvgjsG1027" transform="translate(233.33333333333331,390.5)"><path id="SvgjsPath1028" d="M 0 4Q 0 0 4 0L 162.66666666666666 0Q 166.66666666666666 0 166.66666666666666 4L 166.66666666666666 46.00000000000001Q 166.66666666666666 50.00000000000001 162.66666666666666 50.00000000000001L 4 50.00000000000001Q 0 50.00000000000001 0 46.00000000000001Z" stroke="none" fill-opacity="1" fill="#509dfc"></path><g id="SvgjsG1029"><text id="SvgjsText1030" font-family="&quot;Microsoft YaHei&quot;, 微软雅黑, Arial" text-anchor="middle" font-size="13px" width="147px" fill="#ffffff" font-weight="700" align="middle" lineHeight="125%" anchor="middle" family="&quot;Microsoft YaHei&quot;, 微软雅黑, Arial" size="13px" weight="700" font-style="" opacity="1" y="5.8750000000000036" transform="rotate(0)"><tspan id="SvgjsTspan1031" dy="16.25" x="83.5"><tspan id="SvgjsTspan1032" style="">自定义类加载器</tspan></tspan><tspan id="SvgjsTspan1033" dy="16.25" x="83.5"><tspan id="SvgjsTspan1034" style="">User ClassLoader</tspan></tspan></text></g></g><g id="SvgjsG1035" transform="translate(132.5,171.5)"><path id="SvgjsPath1036" d="M 0 4Q 0 0 4 0L 162.66666666666666 0Q 166.66666666666666 0 166.66666666666666 4L 166.66666666666666 46.00000000000001Q 166.66666666666666 50.00000000000001 162.66666666666666 50.00000000000001L 4 50.00000000000001Q 0 50.00000000000001 0 46.00000000000001Z" stroke="none" fill-opacity="1" fill="#509dfc"></path><g id="SvgjsG1037"><text id="SvgjsText1038" font-family="&quot;Microsoft YaHei&quot;, 微软雅黑, Arial" text-anchor="middle" font-size="13px" width="147px" fill="#ffffff" font-weight="700" align="middle" lineHeight="125%" anchor="middle" family="&quot;Microsoft YaHei&quot;, 微软雅黑, Arial" size="13px" weight="700" font-style="" opacity="1" y="5.8750000000000036" transform="rotate(0)"><tspan id="SvgjsTspan1039" dy="16.25" x="83.5"><tspan id="SvgjsTspan1040" style="">扩展类加载器</tspan></tspan><tspan id="SvgjsTspan1041" dy="16.25" x="83.5"><tspan id="SvgjsTspan1042" style="">Ext ClassLoader</tspan></tspan></text></g></g><g id="SvgjsG1043" transform="translate(132.5,281)"><path id="SvgjsPath1044" d="M 0 4Q 0 0 4 0L 162.66666666666666 0Q 166.66666666666666 0 166.66666666666666 4L 166.66666666666666 46.00000000000001Q 166.66666666666666 50.00000000000001 162.66666666666666 50.00000000000001L 4 50.00000000000001Q 0 50.00000000000001 0 46.00000000000001Z" stroke="none" fill-opacity="1" fill="#509dfc"></path><g id="SvgjsG1045"><text id="SvgjsText1046" font-family="&quot;Microsoft YaHei&quot;, 微软雅黑, Arial" text-anchor="middle" font-size="13px" width="147px" fill="#ffffff" font-weight="700" align="middle" lineHeight="125%" anchor="middle" family="&quot;Microsoft YaHei&quot;, 微软雅黑, Arial" size="13px" weight="700" font-style="" opacity="1" y="5.8750000000000036" transform="rotate(0)"><tspan id="SvgjsTspan1047" dy="16.25" x="83.5"><tspan id="SvgjsTspan1048" style="">系统类加载器</tspan></tspan><tspan id="SvgjsTspan1049" dy="16.25" x="83.5"><tspan id="SvgjsTspan1050" style="">App ClassLoader</tspan></tspan></text></g></g><g id="SvgjsG1051"><path id="SvgjsPath1052" d="M215.83333333333331 171.5L215.83333333333331 141.75L215.83333333333331 141.75L215.83333333333331 113.95" stroke="#000000" stroke-width="1.5" fill="none" marker-end="url(#SvgjsMarker1053)"></path></g><g id="SvgjsG1055"><path id="SvgjsPath1056" d="M215.83333333333331 281L215.83333333333331 251.25L215.83333333333331 251.25L215.83333333333331 223.45" stroke="#000000" stroke-width="1.5" fill="none" marker-end="url(#SvgjsMarker1057)"></path></g><g id="SvgjsG1059"><path id="SvgjsPath1060" d="M108.33333333333334 390.5L214.12723153814602 331.9443075052432" stroke="#000000" stroke-width="1.5" fill="none" marker-end="url(#SvgjsMarker1061)"></path></g><g id="SvgjsG1063"><path id="SvgjsPath1064" d="M316.66666666666663 390.5L217.51274763861943 331.9909932346895" stroke="#000000" stroke-width="1.5" fill="none" marker-end="url(#SvgjsMarker1065)"></path></g><g id="SvgjsG1067" transform="translate(549.1666666666667,62)"><path id="SvgjsPath1068" d="M 0 4Q 0 0 4 0L 162.66666666666666 0Q 166.66666666666666 0 166.66666666666666 4L 166.66666666666666 46.00000000000001Q 166.66666666666666 50.00000000000001 162.66666666666666 50.00000000000001L 4 50.00000000000001Q 0 50.00000000000001 0 46.00000000000001Z" stroke="none" fill-opacity="1" fill="#509dfc"></path><g id="SvgjsG1069"><text id="SvgjsText1070" font-family="&quot;Microsoft YaHei&quot;, 微软雅黑, Arial" text-anchor="middle" font-size="13px" width="147px" fill="#ffffff" font-weight="700" align="middle" lineHeight="125%" anchor="middle" family="&quot;Microsoft YaHei&quot;, 微软雅黑, Arial" size="13px" weight="700" font-style="" opacity="1" y="5.8750000000000036" transform="rotate(0)"><tspan id="SvgjsTspan1071" dy="16.25" x="83.5"><tspan id="SvgjsTspan1072" style="">引导类加载器</tspan></tspan><tspan id="SvgjsTspan1073" dy="16.25" x="83.5"><tspan id="SvgjsTspan1074" style="">Bootstrap ClassLoader</tspan></tspan></text></g></g><g id="SvgjsG1075" transform="translate(441.66666666666674,390.5)"><path id="SvgjsPath1076" d="M 0 4Q 0 0 4 0L 162.66666666666666 0Q 166.66666666666666 0 166.66666666666666 4L 166.66666666666666 46.00000000000001Q 166.66666666666666 50.00000000000001 162.66666666666666 50.00000000000001L 4 50.00000000000001Q 0 50.00000000000001 0 46.00000000000001Z" stroke="none" fill-opacity="1" fill="#509dfc"></path><g id="SvgjsG1077"><text id="SvgjsText1078" font-family="&quot;Microsoft YaHei&quot;, 微软雅黑, Arial" text-anchor="middle" font-size="13px" width="147px" fill="#ffffff" font-weight="700" align="middle" lineHeight="125%" anchor="middle" family="&quot;Microsoft YaHei&quot;, 微软雅黑, Arial" size="13px" weight="700" font-style="" opacity="1" y="5.8750000000000036" transform="rotate(0)"><tspan id="SvgjsTspan1079" dy="16.25" x="83.5"><tspan id="SvgjsTspan1080" style="">自定义类加载器</tspan></tspan><tspan id="SvgjsTspan1081" dy="16.25" x="83.5"><tspan id="SvgjsTspan1082" style="">User ClassLoader</tspan></tspan></text></g></g><g id="SvgjsG1083" transform="translate(650,390.5)"><path id="SvgjsPath1084" d="M 0 4Q 0 0 4 0L 162.66666666666666 0Q 166.66666666666666 0 166.66666666666666 4L 166.66666666666666 46.00000000000001Q 166.66666666666666 50.00000000000001 162.66666666666666 50.00000000000001L 4 50.00000000000001Q 0 50.00000000000001 0 46.00000000000001Z" stroke="none" fill-opacity="1" fill="#509dfc"></path><g id="SvgjsG1085"><text id="SvgjsText1086" font-family="&quot;Microsoft YaHei&quot;, 微软雅黑, Arial" text-anchor="middle" font-size="13px" width="147px" fill="#ffffff" font-weight="700" align="middle" lineHeight="125%" anchor="middle" family="&quot;Microsoft YaHei&quot;, 微软雅黑, Arial" size="13px" weight="700" font-style="" opacity="1" y="5.8750000000000036" transform="rotate(0)"><tspan id="SvgjsTspan1087" dy="16.25" x="83.5"><tspan id="SvgjsTspan1088" style="">自定义类加载器</tspan></tspan><tspan id="SvgjsTspan1089" dy="16.25" x="83.5"><tspan id="SvgjsTspan1090" style="">User ClassLoader</tspan></tspan></text></g></g><g id="SvgjsG1091" transform="translate(549.1666666666667,171.5)"><path id="SvgjsPath1092" d="M 0 4Q 0 0 4 0L 162.66666666666666 0Q 166.66666666666666 0 166.66666666666666 4L 166.66666666666666 46.00000000000001Q 166.66666666666666 50.00000000000001 162.66666666666666 50.00000000000001L 4 50.00000000000001Q 0 50.00000000000001 0 46.00000000000001Z" stroke="none" fill-opacity="1" fill="#509dfc"></path><g id="SvgjsG1093"><text id="SvgjsText1094" font-family="&quot;Microsoft YaHei&quot;, 微软雅黑, Arial" text-anchor="middle" font-size="13px" width="147px" fill="#ffffff" font-weight="700" align="middle" lineHeight="125%" anchor="middle" family="&quot;Microsoft YaHei&quot;, 微软雅黑, Arial" size="13px" weight="700" font-style="" opacity="1" y="5.8750000000000036" transform="rotate(0)"><tspan id="SvgjsTspan1095" dy="16.25" x="83.5"><tspan id="SvgjsTspan1096" style="">平台类加载器</tspan></tspan><tspan id="SvgjsTspan1097" dy="16.25" x="83.5"><tspan id="SvgjsTspan1098" style="">Platform ClassLoader</tspan></tspan></text></g></g><g id="SvgjsG1099" transform="translate(549.1666666666667,281)"><path id="SvgjsPath1100" d="M 0 4Q 0 0 4 0L 162.66666666666666 0Q 166.66666666666666 0 166.66666666666666 4L 166.66666666666666 46.00000000000001Q 166.66666666666666 50.00000000000001 162.66666666666666 50.00000000000001L 4 50.00000000000001Q 0 50.00000000000001 0 46.00000000000001Z" stroke="none" fill-opacity="1" fill="#509dfc"></path><g id="SvgjsG1101"><text id="SvgjsText1102" font-family="&quot;Microsoft YaHei&quot;, 微软雅黑, Arial" text-anchor="middle" font-size="13px" width="147px" fill="#ffffff" font-weight="700" align="middle" lineHeight="125%" anchor="middle" family="&quot;Microsoft YaHei&quot;, 微软雅黑, Arial" size="13px" weight="700" font-style="" opacity="1" y="5.8750000000000036" transform="rotate(0)"><tspan id="SvgjsTspan1103" dy="16.25" x="83.5"><tspan id="SvgjsTspan1104" style="">应用程序加载器</tspan></tspan><tspan id="SvgjsTspan1105" dy="16.25" x="83.5"><tspan id="SvgjsTspan1106" style="">App ClassLoader</tspan></tspan></text></g></g><g id="SvgjsG1107"><path id="SvgjsPath1108" d="M632.5 171.5L632.5 141.75L632.5 141.75L632.5 113.95" stroke="#000000" stroke-width="1.5" fill="none" marker-end="url(#SvgjsMarker1109)"></path></g><g id="SvgjsG1111"><path id="SvgjsPath1112" d="M525.0000000000001 390.5L630.7938982048126 331.9443075052432" stroke="#000000" stroke-width="1.5" fill="none" marker-end="url(#SvgjsMarker1113)"></path></g><g id="SvgjsG1115"><path id="SvgjsPath1116" d="M733.3333333333334 390.5L634.1794143052862 331.9909932346895" stroke="#000000" stroke-width="1.5" fill="none" marker-end="url(#SvgjsMarker1117)"></path></g><g id="SvgjsG1119"><path id="SvgjsPath1120" d="M598 221L598 279.05" stroke="#323232" stroke-width="1.5" fill="none" marker-end="url(#SvgjsMarker1121)"></path></g><g id="SvgjsG1123"><path id="SvgjsPath1124" d="M664 281L664 223.45" stroke="#323232" stroke-width="1.5" fill="none" marker-end="url(#SvgjsMarker1125)"></path></g><g id="SvgjsG1127"><path id="SvgjsPath1128" d="M715.8333333333334 306L745.8333333333334 306L745.8333333333334 87L717.7833333333334 87" stroke="#323232" stroke-width="1.5" fill="none" marker-end="url(#SvgjsMarker1129)"></path></g><g id="SvgjsG1131"><path id="SvgjsPath1132" d="M422 25L422 306.5L422 306.5L422 588" stroke="#95da69" stroke-width="1.5" fill="none"></path></g><g id="SvgjsG1133" transform="translate(125.25000000000003,556)"><path id="SvgjsPath1134" d="M 0 0L 181.16666666666669 0L 181.16666666666669 25L 0 25Z" stroke="none" fill-opacity="1" fill="#e879a7"></path><g id="SvgjsG1135"><text id="SvgjsText1136" font-family="&quot;Microsoft YaHei&quot;, 微软雅黑, Arial" text-anchor="middle" font-size="13px" width="162px" fill="#ffffff" font-weight="700" align="middle" lineHeight="125%" anchor="middle" family="&quot;Microsoft YaHei&quot;, 微软雅黑, Arial" size="13px" weight="700" font-style="" opacity="1" y="1.875" transform="rotate(0)"><tspan id="SvgjsTspan1137" dy="16.25" x="91"><tspan id="SvgjsTspan1138" style="">JDK 9之前的双亲委派模式</tspan></tspan></text></g></g><g id="SvgjsG1139" transform="translate(541.9166666666666,556)"><path id="SvgjsPath1140" d="M 0 0L 181.16666666666669 0L 181.16666666666669 25L 0 25Z" stroke="none" fill-opacity="1" fill="#f4ba3b"></path><g id="SvgjsG1141"><text id="SvgjsText1142" font-family="&quot;Microsoft YaHei&quot;, 微软雅黑, Arial" text-anchor="middle" font-size="13px" width="162px" fill="#ffffff" font-weight="700" align="middle" lineHeight="125%" anchor="middle" family="&quot;Microsoft YaHei&quot;, 微软雅黑, Arial" size="13px" weight="700" font-style="" opacity="1" y="1.875" transform="rotate(0)"><tspan id="SvgjsTspan1143" dy="16.25" x="91"><tspan id="SvgjsTspan1144" style="">JDK 9的双亲委派模式</tspan></tspan></text></g></g><g id="SvgjsG1145" transform="translate(42.833333333333286,473)"><path id="SvgjsPath1146" d="M 0 0L 312.1666666666667 0L 312.1666666666667 40L 0 40Z" stroke="none" fill="none"></path><g id="SvgjsG1147"><text id="SvgjsText1148" font-family="&quot;Microsoft YaHei&quot;, 微软雅黑, Arial" text-anchor="start" font-size="13px" width="313px" fill="#323232" font-weight="700" align="middle" lineHeight="125%" anchor="start" family="&quot;Microsoft YaHei&quot;, 微软雅黑, Arial" size="13px" weight="700" font-style="" opacity="1" y="0.875" transform="rotate(0)"><tspan id="SvgjsTspan1149" dy="16.25" x="0"><tspan id="SvgjsTspan1150" style="">只有当父类加载器反馈自己无法完成这个加载请求时，</tspan></tspan><tspan id="SvgjsTspan1151" dy="16.25" x="0"><tspan id="SvgjsTspan1152" style="">子加载器才会尝试自己去完成加载</tspan></tspan></text></g></g><g id="SvgjsG1153" transform="translate(425.10416666666674,468.5)"><path id="SvgjsPath1154" d="M 0 0L 414.79166666666663 0L 414.79166666666663 49L 0 49Z" stroke="none" fill="none"></path><g id="SvgjsG1155"><text id="SvgjsText1156" font-family="&quot;Microsoft YaHei&quot;, 微软雅黑, Arial" text-anchor="start" font-size="13px" width="415px" fill="#323232" font-weight="700" align="middle" lineHeight="125%" anchor="start" family="&quot;Microsoft YaHei&quot;, 微软雅黑, Arial" size="13px" weight="700" font-style="" opacity="1" y="-2.625" transform="rotate(0)"><tspan id="SvgjsTspan1157" dy="16.25" x="0"><tspan id="SvgjsTspan1158" style="">在委派给父加载器加载前，先判断该类是否能够归属到某一个系统模块</tspan></tspan><tspan id="SvgjsTspan1159" dy="16.25" x="0"><tspan id="SvgjsTspan1160" style="">中，如果可以找到这样的归属关系，就要优先委派给负责那个模块的加</tspan></tspan><tspan id="SvgjsTspan1161" dy="16.25" x="0"><tspan id="SvgjsTspan1162" style="">载器完成加载</tspan></tspan></text></g></g><g id="SvgjsG1163"></g></svg>