<svg id="SvgjsSvg1006" width="712.2727272727273" height="266" xmlns="http://www.w3.org/2000/svg" version="1.1" xmlns:xlink="http://www.w3.org/1999/xlink" xmlns:svgjs="http://svgjs.com/svgjs"><defs id="SvgjsDefs1007"><pattern patternUnits="userSpaceOnUse" id="pattern_mark_0" width="300" height="300"><text x="150" y="100" fill="rgba(229,229,229,0.8)" font-size="18" transform="rotate(-45, 150, 150)" style="dominant-baseline: middle; text-anchor: middle;"></text></pattern><pattern patternUnits="userSpaceOnUse" id="pattern_mark_1" width="300" height="300"><text x="150" y="200" fill="rgba(229,229,229,0.8)" font-size="18" transform="rotate(-45, 150, 150)" style="dominant-baseline: middle; text-anchor: middle;"></text></pattern><marker id="SvgjsMarker1035" markerWidth="16" markerHeight="12" refX="5" refY="6" viewBox="0 0 16 12" orient="auto" markerUnits="userSpaceOnUse" stroke-dasharray="0,0"><path id="SvgjsPath1036" d="M16,0 L0,6 L16,12 L16,0" fill="#f5cc00" stroke="#f5cc00" stroke-width="1"></path></marker><marker id="SvgjsMarker1039" markerWidth="16" markerHeight="12" refX="5" refY="6" viewBox="0 0 16 12" orient="auto" markerUnits="userSpaceOnUse" stroke-dasharray="0,0"><path id="SvgjsPath1040" d="M16,0 L0,6 L16,12 L16,0" fill="#f5cc00" stroke="#f5cc00" stroke-width="1"></path></marker><marker id="SvgjsMarker1043" markerWidth="16" markerHeight="12" refX="5" refY="6" viewBox="0 0 16 12" orient="auto" markerUnits="userSpaceOnUse" stroke-dasharray="0,0"><path id="SvgjsPath1044" d="M16,0 L0,6 L16,12 L16,0" fill="#f5cc00" stroke="#f5cc00" stroke-width="1"></path></marker><marker id="SvgjsMarker1047" markerWidth="16" markerHeight="12" refX="5" refY="6" viewBox="0 0 16 12" orient="auto" markerUnits="userSpaceOnUse" stroke-dasharray="0,0"><path id="SvgjsPath1048" d="M16,0 L0,6 L16,12 L16,0" fill="#f5cc00" stroke="#f5cc00" stroke-width="1"></path></marker><marker id="SvgjsMarker1051" markerWidth="16" markerHeight="12" refX="5" refY="6" viewBox="0 0 16 12" orient="auto" markerUnits="userSpaceOnUse" stroke-dasharray="0,0"><path id="SvgjsPath1052" d="M16,0 L0,6 L16,12 L16,0" fill="#f5cc00" stroke="#f5cc00" stroke-width="1"></path></marker><marker id="SvgjsMarker1055" markerWidth="16" markerHeight="12" refX="5" refY="6" viewBox="0 0 16 12" orient="auto" markerUnits="userSpaceOnUse" stroke-dasharray="0,0"><path id="SvgjsPath1056" d="M16,0 L0,6 L16,12 L16,0" fill="#f5cc00" stroke="#f5cc00" stroke-width="1"></path></marker></defs><rect id="svgbackgroundid" width="712.2727272727273" height="266" fill="transparent"></rect><rect id="SvgjsRect1009" width="712.2727272727273" height="266" fill="url(#pattern_mark_0)"></rect><rect id="SvgjsRect1010" width="712.2727272727273" height="266" fill="url(#pattern_mark_1)"></rect><g id="SvgjsG1011" transform="translate(280.9090909090909,25)"><path id="SvgjsPath1012" d="M 0 4Q 0 0 4 0L 146 0Q 150 0 150 4L 150 71Q 150 75 146 75L 4 75Q 0 75 0 71Z" stroke="rgba(33,41,48,1)" stroke-width="1.5" fill-opacity="1" fill="#e46226"></path><g id="SvgjsG1013"><text id="SvgjsText1014" font-family="&quot;Comic Sans MS&quot;" text-anchor="middle" font-size="20px" width="130px" fill="#ffffff" font-weight="700" align="middle" lineHeight="125%" anchor="middle" family="&quot;Comic Sans MS&quot;" size="20px" weight="700" font-style="" opacity="1" y="19.5" transform="rotate(0)"><tspan id="SvgjsTspan1015" dy="25" x="75"><tspan id="SvgjsTspan1016" style="">函数</tspan></tspan></text></g></g><g id="SvgjsG1017" transform="translate(84.54545454545458,166)"><path id="SvgjsPath1018" d="M 0 4Q 0 0 4 0L 146 0Q 150 0 150 4L 150 71Q 150 75 146 75L 4 75Q 0 75 0 71Z" stroke="rgba(33,41,48,1)" stroke-width="1.5" fill-opacity="1" fill="#2f7a7a"></path><g id="SvgjsG1019"><text id="SvgjsText1020" font-family="&quot;Comic Sans MS&quot;" text-anchor="middle" font-size="20px" width="130px" fill="#ee0000" font-weight="700" align="middle" lineHeight="125%" anchor="middle" family="&quot;Comic Sans MS&quot;" size="20px" weight="700" font-style="" opacity="1" y="19.5" transform="rotate(0)"><tspan id="SvgjsTspan1021" dy="25" x="75"><tspan id="SvgjsTspan1022" style="">单行函数</tspan></tspan></text></g></g><g id="SvgjsG1023" transform="translate(477.27272727272725,166)"><path id="SvgjsPath1024" d="M 0 4Q 0 0 4 0L 146 0Q 150 0 150 4L 150 71Q 150 75 146 75L 4 75Q 0 75 0 71Z" stroke="rgba(33,41,48,1)" stroke-width="1.5" fill-opacity="1" fill="#307b7b"></path><g id="SvgjsG1025"><text id="SvgjsText1026" font-family="&quot;Comic Sans MS&quot;" text-anchor="middle" font-size="20px" width="130px" fill="#f6fcc5" font-weight="700" align="middle" lineHeight="125%" anchor="middle" family="&quot;Comic Sans MS&quot;" size="20px" weight="700" font-style="" opacity="1" y="19.5" transform="rotate(0)"><tspan id="SvgjsTspan1027" dy="25" x="75"><tspan id="SvgjsTspan1028" style="">多行函数</tspan></tspan></text></g></g><g id="SvgjsG1029"><path id="SvgjsPath1030" d="M355.9090909090909 100.75L355.9090909090909 133L159.54545454545456 133L159.54545454545456 165.25" stroke="#f5cc00" stroke-width="3" fill="none"></path></g><g id="SvgjsG1031"><path id="SvgjsPath1032" d="M355.9090909090909 100.75L355.9090909090909 133L552.2727272727273 133L552.2727272727273 165.25" stroke="#f5cc00" stroke-width="3" fill="none"></path></g><g id="SvgjsG1033"><path id="SvgjsPath1034" d="M79.89545454545457 203.5L54.772727272727295 203.5L54.772727272727295 203.5L25 203.5" stroke="#f5cc00" stroke-width="3" fill="none" marker-start="url(#SvgjsMarker1035)"></path></g><g id="SvgjsG1037"><path id="SvgjsPath1038" d="M297.27272727272737 203.5L235.29545454545462 203.5" stroke="#f5cc00" stroke-width="3" fill="none" marker-start="url(#SvgjsMarker1039)"></path></g><g id="SvgjsG1041"><path id="SvgjsPath1042" d="M687.2727272727273 201.6818181818182L628.0223831570863 203.47728315501945" stroke="#f5cc00" stroke-width="3" fill="none" marker-start="url(#SvgjsMarker1043)"></path></g><g id="SvgjsG1045"><path id="SvgjsPath1046" d="M472.6227272727273 203.5L410.84555229716517 203.5" stroke="#f5cc00" stroke-width="3" fill="none" marker-start="url(#SvgjsMarker1047)"></path></g><g id="SvgjsG1049"><path id="SvgjsPath1050" d="M472.80454545454586 223.5L410.30791788856305 223.5" stroke="#f5cc00" stroke-width="3" fill="none" marker-start="url(#SvgjsMarker1051)"></path></g><g id="SvgjsG1053"><path id="SvgjsPath1054" d="M472.7136363636365 186.22727272727278L410.30791788856305 186.22727272727278" stroke="#f5cc00" stroke-width="3" fill="none" marker-start="url(#SvgjsMarker1055)"></path></g></svg>