<svg id="SvgjsSvg1006" width="763" height="292" xmlns="http://www.w3.org/2000/svg" version="1.1" xmlns:xlink="http://www.w3.org/1999/xlink" xmlns:svgjs="http://svgjs.com/svgjs"><defs id="SvgjsDefs1007"><pattern patternUnits="userSpaceOnUse" id="pattern_mark_0" width="300" height="300"><text x="150" y="100" fill="rgba(229,229,229,0.8)" font-size="18" transform="rotate(-45, 150, 150)" style="dominant-baseline: middle; text-anchor: middle;"></text></pattern><pattern patternUnits="userSpaceOnUse" id="pattern_mark_1" width="300" height="300"><text x="150" y="200" fill="rgba(229,229,229,0.8)" font-size="18" transform="rotate(-45, 150, 150)" style="dominant-baseline: middle; text-anchor: middle;"></text></pattern><pattern id="SvgjsPattern1013" x="0" y="0" width="100" height="100" patternUnits="userSpaceOnUse"><image id="SvgjsImage1014" xlink:href="https://iconsapi.com/5fc7476fe4b095215ddde609.svg" width="100" height="100" preserveAspectRatio="none" crossOrigin="anonymous" x="0" y="0"></image></pattern><marker id="SvgjsMarker1017" markerWidth="16" markerHeight="12" refX="11" refY="6" viewBox="0 0 16 12" orient="auto" markerUnits="userSpaceOnUse" stroke-dasharray="0,0"><path id="SvgjsPath1018" d="M0,0 L16,6 L0,12 L0,0" fill="#323232" stroke="#323232" stroke-width="1"></path></marker><pattern id="SvgjsPattern1021" x="0" y="0" width="100" height="100" patternUnits="userSpaceOnUse"><image id="SvgjsImage1022" xlink:href="https://iconsapi.com/5f80102be4b0939197a5e51f.svg" width="100" height="100" preserveAspectRatio="none" crossOrigin="anonymous" x="0" y="0"></image></pattern><pattern id="SvgjsPattern1025" x="0" y="0" width="100" height="100" patternUnits="userSpaceOnUse"><image id="SvgjsImage1026" xlink:href="https://iconsapi.com/65e950dce4b02f62633d522f.svg" width="100" height="100" preserveAspectRatio="none" crossOrigin="anonymous" x="0" y="0"></image></pattern><marker id="SvgjsMarker1029" markerWidth="16" markerHeight="12" refX="11" refY="6" viewBox="0 0 16 12" orient="auto" markerUnits="userSpaceOnUse" stroke-dasharray="0,0"><path id="SvgjsPath1030" d="M0,0 L16,6 L0,12 L0,0" fill="#323232" stroke="#323232" stroke-width="1"></path></marker><pattern id="SvgjsPattern1033" x="0" y="0" width="100" height="100" patternUnits="userSpaceOnUse"><image id="SvgjsImage1034" xlink:href="https://iconsapi.com/5ee279c6e4b0b788a934c0a4.svg" width="100" height="100" preserveAspectRatio="none" crossOrigin="anonymous" x="0" y="0"></image></pattern><marker id="SvgjsMarker1037" markerWidth="16" markerHeight="12" refX="11" refY="6" viewBox="0 0 16 12" orient="auto" markerUnits="userSpaceOnUse" stroke-dasharray="0,0"><path id="SvgjsPath1038" d="M0,0 L16,6 L0,12 L0,0" fill="#323232" stroke="#323232" stroke-width="1"></path></marker><marker id="SvgjsMarker1041" markerWidth="16" markerHeight="12" refX="11" refY="6" viewBox="0 0 16 12" orient="auto" markerUnits="userSpaceOnUse" stroke-dasharray="0,0"><path id="SvgjsPath1042" d="M0,0 L16,6 L0,12 L0,0" fill="#323232" stroke="#323232" stroke-width="1"></path></marker><marker id="SvgjsMarker1045" markerWidth="16" markerHeight="12" refX="11" refY="6" viewBox="0 0 16 12" orient="auto" markerUnits="userSpaceOnUse" stroke-dasharray="0,0"><path id="SvgjsPath1046" d="M0,0 L16,6 L0,12 L0,0" fill="#323232" stroke="#323232" stroke-width="1"></path></marker></defs><rect id="svgbackgroundid" width="763" height="292" fill="transparent"></rect><rect id="SvgjsRect1009" width="763" height="292" fill="url(#pattern_mark_0)"></rect><rect id="SvgjsRect1010" width="763" height="292" fill="url(#pattern_mark_1)"></rect><g id="SvgjsG1011" transform="translate(25,93)"><path id="SvgjsPath1012" d="M 0 0L 100 0L 100 100L 0 100Z" stroke="none" fill="url(#SvgjsPattern1013)"></path></g><g id="SvgjsG1015"><path id="SvgjsPath1016" d="M125.75 143L193.35000000000002 143" stroke="#323232" stroke-width="3" fill="none" marker-end="url(#SvgjsMarker1017)"></path></g><g id="SvgjsG1019" transform="translate(198,93)"><path id="SvgjsPath1020" d="M 0 0L 100 0L 100 100L 0 100Z" stroke="none" fill="url(#SvgjsPattern1021)"></path></g><g id="SvgjsG1023" transform="translate(418,93)"><path id="SvgjsPath1024" d="M 0 0L 100 0L 100 100L 0 100Z" stroke="none" fill="url(#SvgjsPattern1025)"></path></g><g id="SvgjsG1027"><path id="SvgjsPath1028" d="M298.75 143L358 143L358 143L413.35 143" stroke="#323232" stroke-width="3" fill="none" marker-end="url(#SvgjsMarker1029)"></path></g><g id="SvgjsG1031" transform="translate(638,93)"><path id="SvgjsPath1032" d="M 0 0L 100 0L 100 100L 0 100Z" stroke="none" fill="url(#SvgjsPattern1033)"></path></g><g id="SvgjsG1035"><path id="SvgjsPath1036" d="M518.75 143L578 143L578 143L633.35 143" stroke="#323232" stroke-width="3" fill="none" marker-end="url(#SvgjsMarker1037)"></path></g><g id="SvgjsG1039"><path id="SvgjsPath1040" d="M248 92.25L248 63L468 63L468 88.35" stroke="#323232" stroke-width="3" fill="none" marker-end="url(#SvgjsMarker1041)"></path></g><g id="SvgjsG1043"><path id="SvgjsPath1044" d="M248 193.75L248 223L688 223L688 197.65" stroke="#323232" stroke-width="3" fill="none" marker-end="url(#SvgjsMarker1045)"></path></g><g id="SvgjsG1047" transform="translate(293,25)"><path id="SvgjsPath1048" d="M 0 0L 130 0L 130 40L 0 40Z" stroke="none" fill="none"></path><g id="SvgjsG1049"><text id="SvgjsText1050" font-family="&quot;Comic Sans MS&quot;" text-anchor="middle" font-size="13px" width="130px" fill="#323232" font-weight="700" align="middle" lineHeight="125%" anchor="middle" family="&quot;Comic Sans MS&quot;" size="13px" weight="700" font-style="italic" opacity="1" y="9.375" transform="rotate(0)"><tspan id="SvgjsTspan1051" dy="16.25" x="65"><tspan id="SvgjsTspan1052" style="">① Look in cache</tspan></tspan></text></g></g><g id="SvgjsG1053" transform="translate(300,64)"><path id="SvgjsPath1054" d="M 0 0L 130 0L 130 40L 0 40Z" stroke="none" fill="none"></path><g id="SvgjsG1055"><text id="SvgjsText1056" font-family="&quot;Comic Sans MS&quot;" text-anchor="middle" font-size="13px" width="130px" fill="#323232" font-weight="700" align="middle" lineHeight="125%" anchor="middle" family="&quot;Comic Sans MS&quot;" size="13px" weight="700" font-style="italic" opacity="1" y="0.875" transform="rotate(0)"><tspan id="SvgjsTspan1057" dy="16.25" x="65"><tspan id="SvgjsTspan1058" style="">cache hit simply </tspan></tspan><tspan id="SvgjsTspan1059" dy="16.25" x="65"><tspan id="SvgjsTspan1060" style="">return data</tspan></tspan></text></g></g><g id="SvgjsG1061" transform="translate(333.5,227)"><path id="SvgjsPath1062" d="M 0 0L 269 0L 269 40L 0 40Z" stroke="none" fill="none"></path><g id="SvgjsG1063"><text id="SvgjsText1064" font-family="&quot;Comic Sans MS&quot;" text-anchor="middle" font-size="13px" width="269px" fill="#323232" font-weight="700" align="middle" lineHeight="125%" anchor="middle" family="&quot;Comic Sans MS&quot;" size="13px" weight="700" font-style="italic" opacity="1" y="9.375" transform="rotate(0)"><tspan id="SvgjsTspan1065" dy="16.25" x="134.5"><tspan id="SvgjsTspan1066" style="">② Cache miss look in persistent datatore</tspan></tspan></text></g></g><g id="SvgjsG1067" transform="translate(300,145.5)"><path id="SvgjsPath1068" d="M 0 0L 115 0L 115 40L 0 40Z" stroke="none" fill="none"></path><g id="SvgjsG1069"><text id="SvgjsText1070" font-family="&quot;Comic Sans MS&quot;" text-anchor="middle" font-size="13px" width="115px" fill="#323232" font-weight="700" align="middle" lineHeight="125%" anchor="middle" family="&quot;Comic Sans MS&quot;" size="13px" weight="700" font-style="italic" opacity="1" y="0.875" transform="rotate(0)"><tspan id="SvgjsTspan1071" dy="16.25" x="57.5"><tspan id="SvgjsTspan1072" style="">③ Prime cache </tspan></tspan><tspan id="SvgjsTspan1073" dy="16.25" x="57.5"><tspan id="SvgjsTspan1074" style="">with data</tspan></tspan></text></g></g><g id="SvgjsG1075" transform="translate(418,177)"><path id="SvgjsPath1076" d="M 0 0L 100 0L 100 40L 0 40Z" stroke="none" fill="none"></path><g id="SvgjsG1077"><text id="SvgjsText1078" font-family="&quot;Comic Sans MS&quot;" text-anchor="middle" font-size="20px" width="100px" fill="#323232" font-weight="400" align="middle" lineHeight="125%" anchor="middle" family="&quot;Comic Sans MS&quot;" size="20px" weight="400" font-style="italic" opacity="1" y="2" transform="rotate(0)"><tspan id="SvgjsTspan1079" dy="25" x="50"><tspan id="SvgjsTspan1080" style="font-weight: bold;">Main</tspan></tspan></text></g></g><g id="SvgjsG1081" transform="translate(638,53)"><path id="SvgjsPath1082" d="M 0 0L 100 0L 100 40L 0 40Z" stroke="none" fill="none"></path><g id="SvgjsG1083"><text id="SvgjsText1084" font-family="&quot;Comic Sans MS&quot;" text-anchor="middle" font-size="20px" width="100px" fill="#323232" font-weight="400" align="middle" lineHeight="125%" anchor="middle" family="&quot;Comic Sans MS&quot;" size="20px" weight="400" font-style="italic" opacity="1" y="2" transform="rotate(0)"><tspan id="SvgjsTspan1085" dy="25" x="50"><tspan id="SvgjsTspan1086" style="font-weight: bold;">MySQL</tspan></tspan></text></g></g><g id="SvgjsG1087" transform="translate(28.000000000000057,185.5)"><path id="SvgjsPath1088" d="M 0 0L 100 0L 100 40L 0 40Z" stroke="none" fill="none"></path><g id="SvgjsG1089"><text id="SvgjsText1090" font-family="&quot;Comic Sans MS&quot;" text-anchor="middle" font-size="20px" width="100px" fill="#323232" font-weight="400" align="middle" lineHeight="125%" anchor="middle" family="&quot;Comic Sans MS&quot;" size="20px" weight="400" font-style="italic" opacity="1" y="2" transform="rotate(0)"><tspan id="SvgjsTspan1091" dy="25" x="50"><tspan id="SvgjsTspan1092" style="font-weight: bold;">Client</tspan></tspan></text></g></g></svg>