<svg id="SvgjsSvg1006" width="570" height="570" xmlns="http://www.w3.org/2000/svg" version="1.1" xmlns:xlink="http://www.w3.org/1999/xlink" xmlns:svgjs="http://svgjs.com/svgjs"><defs id="SvgjsDefs1007"><pattern patternUnits="userSpaceOnUse" id="pattern_mark_0" width="300" height="300"><text x="150" y="100" fill="rgba(229,229,229,0.8)" font-size="18" transform="rotate(-45, 150, 150)" style="dominant-baseline: middle; text-anchor: middle;"></text></pattern><pattern patternUnits="userSpaceOnUse" id="pattern_mark_1" width="300" height="300"><text x="150" y="200" fill="rgba(229,229,229,0.8)" font-size="18" transform="rotate(-45, 150, 150)" style="dominant-baseline: middle; text-anchor: middle;"></text></pattern></defs><rect id="svgbackgroundid" width="570" height="570" fill="transparent"></rect><rect id="SvgjsRect1009" width="570" height="570" fill="url(#pattern_mark_0)"></rect><rect id="SvgjsRect1010" width="570" height="570" fill="url(#pattern_mark_1)"></rect><g id="SvgjsG1011" transform="translate(265,265)"><path id="SvgjsPath1012" d="M 0 20C 0 -6.666666666666667 40 -6.666666666666667 40 20C 40 46.666666666666664 0 46.666666666666664 0 20Z" stroke="rgba(33,41,48,1)" stroke-width="1.5" fill-opacity="1" fill="#f1e4a2"></path><g id="SvgjsG1013"><text id="SvgjsText1014" font-family="&quot;Microsoft YaHei&quot;, 微软雅黑, Arial" text-anchor="middle" font-size="13px" width="20px" fill="#323232" font-weight="400" align="middle" lineHeight="125%" anchor="middle" family="&quot;Microsoft YaHei&quot;, 微软雅黑, Arial" size="13px" weight="400" font-style="" opacity="1" y="9.875" transform="rotate(0)"><tspan id="SvgjsTspan1015" dy="16.25" x="20"><tspan id="SvgjsTspan1016" style="">34</tspan></tspan></text></g></g><g id="SvgjsG1017" transform="translate(105,105)"><path id="SvgjsPath1018" d="M 0 20C 0 -6.666666666666667 40 -6.666666666666667 40 20C 40 46.666666666666664 0 46.666666666666664 0 20Z" stroke="rgba(33,41,48,1)" stroke-width="1.5" fill-opacity="1" fill="#f1e4a2"></path><g id="SvgjsG1019"><text id="SvgjsText1020" font-family="&quot;Microsoft YaHei&quot;, 微软雅黑, Arial" text-anchor="middle" font-size="13px" width="20px" fill="#323232" font-weight="400" align="middle" lineHeight="125%" anchor="middle" family="&quot;Microsoft YaHei&quot;, 微软雅黑, Arial" size="13px" weight="400" font-style="" opacity="1" y="9.875" transform="rotate(0)"><tspan id="SvgjsTspan1021" dy="16.25" x="20"><tspan id="SvgjsTspan1022" style="">22</tspan></tspan></text></g></g><g id="SvgjsG1023" transform="translate(425,425)"><path id="SvgjsPath1024" d="M 0 20C 0 -6.666666666666667 40 -6.666666666666667 40 20C 40 46.666666666666664 0 46.666666666666664 0 20Z" stroke="rgba(33,41,48,1)" stroke-width="1.5" fill-opacity="1" fill="#f1e4a2"></path><g id="SvgjsG1025"><text id="SvgjsText1026" font-family="&quot;Microsoft YaHei&quot;, 微软雅黑, Arial" text-anchor="middle" font-size="13px" width="20px" fill="#323232" font-weight="400" align="middle" lineHeight="125%" anchor="middle" family="&quot;Microsoft YaHei&quot;, 微软雅黑, Arial" size="13px" weight="400" font-style="" opacity="1" y="9.875" transform="rotate(0)"><tspan id="SvgjsTspan1027" dy="16.25" x="20"><tspan id="SvgjsTspan1028" style="">89</tspan></tspan></text></g></g><g id="SvgjsG1029" transform="translate(345,345)"><path id="SvgjsPath1030" d="M 0 20C 0 -6.666666666666667 40 -6.666666666666667 40 20C 40 46.666666666666664 0 46.666666666666664 0 20Z" stroke="rgba(33,41,48,1)" stroke-width="1.5" fill-opacity="1" fill="#f1e4a2"></path><g id="SvgjsG1031"><text id="SvgjsText1032" font-family="&quot;Microsoft YaHei&quot;, 微软雅黑, Arial" text-anchor="middle" font-size="13px" width="20px" fill="#323232" font-weight="400" align="middle" lineHeight="125%" anchor="middle" family="&quot;Microsoft YaHei&quot;, 微软雅黑, Arial" size="13px" weight="400" font-style="" opacity="1" y="9.875" transform="rotate(0)"><tspan id="SvgjsTspan1033" dy="16.25" x="20"><tspan id="SvgjsTspan1034" style="">77</tspan></tspan></text></g></g><g id="SvgjsG1035" transform="translate(185,185)"><path id="SvgjsPath1036" d="M 0 20C 0 -6.666666666666667 40 -6.666666666666667 40 20C 40 46.666666666666664 0 46.666666666666664 0 20Z" stroke="rgba(33,41,48,1)" stroke-width="1.5" fill-opacity="1" fill="#f1e4a2"></path><g id="SvgjsG1037"><text id="SvgjsText1038" font-family="&quot;Microsoft YaHei&quot;, 微软雅黑, Arial" text-anchor="middle" font-size="13px" width="20px" fill="#323232" font-weight="400" align="middle" lineHeight="125%" anchor="middle" family="&quot;Microsoft YaHei&quot;, 微软雅黑, Arial" size="13px" weight="400" font-style="" opacity="1" y="9.875" transform="rotate(0)"><tspan id="SvgjsTspan1039" dy="16.25" x="20"><tspan id="SvgjsTspan1040" style="">23</tspan></tspan></text></g></g><g id="SvgjsG1041" transform="translate(505,505)"><path id="SvgjsPath1042" d="M 0 20C 0 -6.666666666666667 40 -6.666666666666667 40 20C 40 46.666666666666664 0 46.666666666666664 0 20Z" stroke="rgba(33,41,48,1)" stroke-width="1.5" fill-opacity="1" fill="#f1e4a2"></path><g id="SvgjsG1043"><text id="SvgjsText1044" font-family="&quot;Microsoft YaHei&quot;, 微软雅黑, Arial" text-anchor="middle" font-size="13px" width="20px" fill="#323232" font-weight="400" align="middle" lineHeight="125%" anchor="middle" family="&quot;Microsoft YaHei&quot;, 微软雅黑, Arial" size="13px" weight="400" font-style="" opacity="1" y="9.875" transform="rotate(0)"><tspan id="SvgjsTspan1045" dy="16.25" x="20"><tspan id="SvgjsTspan1046" style="">91</tspan></tspan></text></g></g><g id="SvgjsG1047" transform="translate(25,25)"><path id="SvgjsPath1048" d="M 0 20C 0 -6.666666666666667 40 -6.666666666666667 40 20C 40 46.666666666666664 0 46.666666666666664 0 20Z" stroke="rgba(33,41,48,1)" stroke-width="1.5" fill-opacity="1" fill="#f1e4a2"></path><g id="SvgjsG1049"><text id="SvgjsText1050" font-family="&quot;Microsoft YaHei&quot;, 微软雅黑, Arial" text-anchor="middle" font-size="13px" width="20px" fill="#323232" font-weight="400" align="middle" lineHeight="125%" anchor="middle" family="&quot;Microsoft YaHei&quot;, 微软雅黑, Arial" size="13px" weight="400" font-style="" opacity="1" y="9.875" transform="rotate(0)"><tspan id="SvgjsTspan1051" dy="16.25" x="20"><tspan id="SvgjsTspan1052" style="">5</tspan></tspan></text></g></g><g id="SvgjsG1053"><path id="SvgjsPath1054" d="M60.48112673670049 58.124014472256235L111.05979683334274 110.4930433867692" stroke="#323232" stroke-width="1.5" fill="none"></path></g><g id="SvgjsG1055"><path id="SvgjsPath1056" d="M139.27139413368283 139.74804312296777L189.00522711387208 191.87666516024026" stroke="#323232" stroke-width="1.5" fill="none"></path></g><g id="SvgjsG1057"><path id="SvgjsPath1058" d="M218.96212175394822 219.88454179517845L270.2661843282188 270.28142738055413" stroke="#323232" stroke-width="1.5" fill="none"></path></g><g id="SvgjsG1059"><path id="SvgjsPath1060" d="M298.3269685561559 300.1152457147806L348.0182322671165 352.58047762109453" stroke="#323232" stroke-width="1.5" fill="none"></path></g><g id="SvgjsG1061"><path id="SvgjsPath1062" d="M380.6741377439416 378.57920145531756L429.71275063802887 431.05323306797453" stroke="#323232" stroke-width="1.5" fill="none"></path></g><g id="SvgjsG1063"><path id="SvgjsPath1064" d="M460.6786819256782 458.574919201619L510.349347873831 510.84607657395895" stroke="#323232" stroke-width="1.5" fill="none"></path></g></svg>