<svg id="SvgjsSvg2497" width="473" height="439" xmlns="http://www.w3.org/2000/svg" version="1.1" xmlns:xlink="http://www.w3.org/1999/xlink" xmlns:svgjs="http://svgjs.com/svgjs"><defs id="SvgjsDefs2498"><pattern patternUnits="userSpaceOnUse" id="pattern_mark_0" width="300" height="300"><text x="150" y="100" fill="rgba(229,229,229,0.8)" font-size="18" transform="rotate(-45, 150, 150)" style="dominant-baseline: middle; text-anchor: middle;"></text></pattern><pattern patternUnits="userSpaceOnUse" id="pattern_mark_1" width="300" height="300"><text x="150" y="200" fill="rgba(229,229,229,0.8)" font-size="18" transform="rotate(-45, 150, 150)" style="dominant-baseline: middle; text-anchor: middle;"></text></pattern><marker id="SvgjsMarker2504" markerWidth="13" markerHeight="9" refX="9.5" refY="4.5" viewBox="0 0 13 9" orient="auto" markerUnits="userSpaceOnUse" stroke-dasharray="0,0"><path id="SvgjsPath2505" d="M0,0 L13,4.5 L0,9 L0,0" fill="#323232" stroke="#323232" stroke-width="1"></path></marker><marker id="SvgjsMarker2554" markerWidth="13" markerHeight="9" refX="9.5" refY="4.5" viewBox="0 0 13 9" orient="auto" markerUnits="userSpaceOnUse" stroke-dasharray="0,0"><path id="SvgjsPath2555" d="M0,0 L13,4.5 L0,9 L0,0" fill="#323232" stroke="#323232" stroke-width="1"></path></marker><marker id="SvgjsMarker2572" markerWidth="13" markerHeight="9" refX="9.5" refY="4.5" viewBox="0 0 13 9" orient="auto" markerUnits="userSpaceOnUse" stroke-dasharray="0,0"><path id="SvgjsPath2573" d="M0,0 L13,4.5 L0,9 L0,0" fill="#323232" stroke="#323232" stroke-width="1"></path></marker></defs><rect id="svgbackgroundid" width="473" height="439" fill="transparent"></rect><rect id="SvgjsRect2500" width="473" height="439" fill="url(#pattern_mark_0)"></rect><rect id="SvgjsRect2501" width="473" height="439" fill="url(#pattern_mark_1)"></rect><g id="SvgjsG2502"><path id="SvgjsPath2503" d="M49 25L49 219.5L49 219.5L49 414" stroke="#323232" stroke-width="1.5" fill="none" marker-end="url(#SvgjsMarker2504)"></path></g><g id="SvgjsG2506" transform="translate(25,95)"><path id="SvgjsPath2507" d="M 0 0L 20 0L 20 148L 0 148Z" stroke="none" fill="none"></path><g id="SvgjsG2508"><text id="SvgjsText2509" font-family="微软雅黑" text-anchor="middle" font-size="16px" width="20px" fill="#323232" font-weight="700" align="middle" lineHeight="125%" anchor="middle" family="微软雅黑" size="16px" weight="700" font-style="" opacity="1" y="10" transform="rotate(0)"><tspan id="SvgjsTspan2510" dy="20" x="10"><tspan id="SvgjsTspan2511" style="">指</tspan></tspan><tspan id="SvgjsTspan2512" dy="20" x="10"><tspan id="SvgjsTspan2513" style="">令</tspan></tspan><tspan id="SvgjsTspan2514" dy="20" x="10"><tspan id="SvgjsTspan2515" style="">执</tspan></tspan><tspan id="SvgjsTspan2516" dy="20" x="10"><tspan id="SvgjsTspan2517" style="">行</tspan></tspan><tspan id="SvgjsTspan2518" dy="20" x="10"><tspan id="SvgjsTspan2519" style="">顺</tspan></tspan><tspan id="SvgjsTspan2520" dy="20" x="10"><tspan id="SvgjsTspan2521" style="">序</tspan></tspan></text></g></g><g id="SvgjsG2522" transform="translate(194.5,195.5)"><path id="SvgjsPath2523" d="M 0 0L 121 0L 121 53L 0 53Z" stroke="rgba(33,41,48,1)" stroke-width="1.5" fill-opacity="1" fill="#ffffff"></path><g id="SvgjsG2524"><text id="SvgjsText2525" font-family="微软雅黑" text-anchor="middle" font-size="13px" width="101px" fill="#323232" font-weight="400" align="middle" lineHeight="125%" anchor="middle" family="微软雅黑" size="13px" weight="400" font-style="" opacity="1" y="15.875" transform="rotate(0)"><tspan id="SvgjsTspan2526" dy="16.25" x="60.5"><tspan id="SvgjsTspan2527" style="">StoreStore屏障</tspan></tspan></text></g></g><g id="SvgjsG2528" transform="translate(194.5,349)"><path id="SvgjsPath2529" d="M 0 0L 121 0L 121 53L 0 53Z" stroke="rgba(33,41,48,1)" stroke-width="1.5" fill-opacity="1" fill="#ffffff"></path><g id="SvgjsG2530"><text id="SvgjsText2531" font-family="微软雅黑" text-anchor="middle" font-size="13px" width="101px" fill="#323232" font-weight="400" align="middle" lineHeight="125%" anchor="middle" family="微软雅黑" size="13px" weight="400" font-style="" opacity="1" y="15.875" transform="rotate(0)"><tspan id="SvgjsTspan2532" dy="16.25" x="60.5"><tspan id="SvgjsTspan2533" style="">StoreLoad屏障</tspan></tspan></text></g></g><g id="SvgjsG2534" transform="translate(194.5,42)"><path id="SvgjsPath2535" d="M 0 0L 121 0L 121 53L 0 53Z" stroke="rgba(33,41,48,1)" stroke-width="1.5" fill-opacity="1" fill="#ffffff"></path><g id="SvgjsG2536"><text id="SvgjsText2537" font-family="微软雅黑" text-anchor="middle" font-size="13px" width="101px" fill="#323232" font-weight="400" align="middle" lineHeight="125%" anchor="middle" family="微软雅黑" size="13px" weight="400" font-style="" opacity="1" y="15.875" transform="rotate(0)"><tspan id="SvgjsTspan2538" dy="16.25" x="60.5"><tspan id="SvgjsTspan2539" style="">普通读</tspan></tspan></text></g></g><g id="SvgjsG2540" transform="translate(194.5,118.75)"><path id="SvgjsPath2541" d="M 0 0L 121 0L 121 53L 0 53Z" stroke="rgba(33,41,48,1)" stroke-width="1.5" fill-opacity="1" fill="#ffffff"></path><g id="SvgjsG2542"><text id="SvgjsText2543" font-family="微软雅黑" text-anchor="middle" font-size="13px" width="101px" fill="#323232" font-weight="400" align="middle" lineHeight="125%" anchor="middle" family="微软雅黑" size="13px" weight="400" font-style="" opacity="1" y="15.875" transform="rotate(0)"><tspan id="SvgjsTspan2544" dy="16.25" x="60.5"><tspan id="SvgjsTspan2545" style="">普通写</tspan></tspan></text></g></g><g id="SvgjsG2546" transform="translate(194.5,272.25)"><path id="SvgjsPath2547" d="M 0 0L 121 0L 121 53L 0 53Z" stroke="rgba(33,41,48,1)" stroke-width="1.5" fill-opacity="1" fill="#ffffff"></path><g id="SvgjsG2548"><text id="SvgjsText2549" font-family="微软雅黑" text-anchor="middle" font-size="13px" width="101px" fill="#323232" font-weight="400" align="middle" lineHeight="125%" anchor="middle" family="微软雅黑" size="13px" weight="400" font-style="" opacity="1" y="15.875" transform="rotate(0)"><tspan id="SvgjsTspan2550" dy="16.25" x="60.5"><tspan id="SvgjsTspan2551" style="">volatile写</tspan></tspan></text></g></g><g id="SvgjsG2552"><path id="SvgjsPath2553" d="M193.96766903890722 221.47167836703193L156.3840604988412 184.171136245717" stroke="#323232" stroke-width="1.5" fill="none" marker-end="url(#SvgjsMarker2554)"></path></g><g id="SvgjsG2556" transform="translate(65,143.25)"><path id="SvgjsPath2557" d="M 0 0L 74 0L 90 16L 90 84L 0 84L 0 0Z" stroke="none" fill-opacity="1" fill="#fff7bc"></path><path id="SvgjsPath2558" d="M 74 0L 74 16L 90 16Z" stroke="none" fill-opacity="1" fill="#e4d089"></path><path id="SvgjsPath2559" d="M 0 0L 74 0L 90 16L 90 84L 0 84L 0 0Z" stroke="none" fill="none"></path><g id="SvgjsG2560"><text id="SvgjsText2561" font-family="微软雅黑" text-anchor="middle" font-size="13px" width="70px" fill="#323232" font-weight="400" align="middle" lineHeight="125%" anchor="middle" family="微软雅黑" size="13px" weight="400" font-style="" opacity="1" y="6.875" transform="rotate(0)"><tspan id="SvgjsTspan2562" dy="16.25" x="45"><tspan id="SvgjsTspan2563" style="">禁止上面的</tspan></tspan><tspan id="SvgjsTspan2564" dy="16.25" x="45"><tspan id="SvgjsTspan2565" style="">普通写和下</tspan></tspan><tspan id="SvgjsTspan2566" dy="16.25" x="45"><tspan id="SvgjsTspan2567" style="">面的volatile</tspan></tspan><tspan id="SvgjsTspan2568" dy="16.25" x="45"><tspan id="SvgjsTspan2569" style="">写重排序</tspan></tspan></text></g></g><g id="SvgjsG2570"><path id="SvgjsPath2571" d="M316.02412802497304 374.96353955090996L356.63726713507015 333.39479716763407" stroke="#323232" stroke-width="1.5" fill="none" marker-end="url(#SvgjsMarker2572)"></path></g><g id="SvgjsG2574" transform="translate(358,290)"><path id="SvgjsPath2575" d="M 0 0L 74 0L 90 16L 90 84L 0 84L 0 0Z" stroke="none" fill-opacity="1" fill="#fff7bc"></path><path id="SvgjsPath2576" d="M 74 0L 74 16L 90 16Z" stroke="none" fill-opacity="1" fill="#e4d089"></path><path id="SvgjsPath2577" d="M 0 0L 74 0L 90 16L 90 84L 0 84L 0 0Z" stroke="none" fill="none"></path><g id="SvgjsG2578"><text id="SvgjsText2579" font-family="微软雅黑" text-anchor="middle" font-size="13px" width="70px" fill="#323232" font-weight="400" align="middle" lineHeight="125%" anchor="middle" family="微软雅黑" size="13px" weight="400" font-style="" opacity="1" y="-9.625" transform="rotate(0)"><tspan id="SvgjsTspan2580" dy="16.25" x="45"><tspan id="SvgjsTspan2581" style="">防止上面的</tspan></tspan><tspan id="SvgjsTspan2582" dy="16.25" x="45"><tspan id="SvgjsTspan2583" style="">volatile写与</tspan></tspan><tspan id="SvgjsTspan2584" dy="16.25" x="45"><tspan id="SvgjsTspan2585" style="">下面可能有</tspan></tspan><tspan id="SvgjsTspan2586" dy="16.25" x="45"><tspan id="SvgjsTspan2587" style="">的volatile</tspan></tspan><tspan id="SvgjsTspan2588" dy="16.25" x="45"><tspan id="SvgjsTspan2589" style="">读/写重排</tspan></tspan><tspan id="SvgjsTspan2590" dy="16.25" x="45"><tspan id="SvgjsTspan2591" style="">序</tspan></tspan></text></g></g></svg>