<svg id="SvgjsSvg1006" width="1034.6666666666667" height="319.4166666666667" xmlns="http://www.w3.org/2000/svg" version="1.1" xmlns:xlink="http://www.w3.org/1999/xlink" xmlns:svgjs="http://svgjs.com/svgjs"><defs id="SvgjsDefs1007"><pattern patternUnits="userSpaceOnUse" id="pattern_mark_0" width="300" height="300"><text x="150" y="100" fill="rgba(229,229,229,0.8)" font-size="18" transform="rotate(-45, 150, 150)" style="dominant-baseline: middle; text-anchor: middle;"></text></pattern><pattern patternUnits="userSpaceOnUse" id="pattern_mark_1" width="300" height="300"><text x="150" y="200" fill="rgba(229,229,229,0.8)" font-size="18" transform="rotate(-45, 150, 150)" style="dominant-baseline: middle; text-anchor: middle;"></text></pattern><marker id="SvgjsMarker1151" markerWidth="13" markerHeight="9" refX="9.5" refY="4.5" viewBox="0 0 13 9" orient="auto" markerUnits="userSpaceOnUse" stroke-dasharray="0,0"><path id="SvgjsPath1152" d="M0,0 L13,4.5 L0,9 L0,0" fill="#323232" stroke="#323232" stroke-width="1"></path></marker><marker id="SvgjsMarker1155" markerWidth="13" markerHeight="9" refX="9.5" refY="4.5" viewBox="0 0 13 9" orient="auto" markerUnits="userSpaceOnUse" stroke-dasharray="0,0"><path id="SvgjsPath1156" d="M0,0 L13,4.5 L0,9 L0,0" fill="#323232" stroke="#323232" stroke-width="1"></path></marker><marker id="SvgjsMarker1159" markerWidth="13" markerHeight="9" refX="9.5" refY="4.5" viewBox="0 0 13 9" orient="auto" markerUnits="userSpaceOnUse" stroke-dasharray="0,0"><path id="SvgjsPath1160" d="M0,0 L13,4.5 L0,9 L0,0" fill="#323232" stroke="#323232" stroke-width="1"></path></marker><marker id="SvgjsMarker1163" markerWidth="13" markerHeight="9" refX="9.5" refY="4.5" viewBox="0 0 13 9" orient="auto" markerUnits="userSpaceOnUse" stroke-dasharray="0,0"><path id="SvgjsPath1164" d="M0,0 L13,4.5 L0,9 L0,0" fill="#323232" stroke="#323232" stroke-width="1"></path></marker><marker id="SvgjsMarker1167" markerWidth="13" markerHeight="9" refX="9.5" refY="4.5" viewBox="0 0 13 9" orient="auto" markerUnits="userSpaceOnUse" stroke-dasharray="0,0"><path id="SvgjsPath1168" d="M0,0 L13,4.5 L0,9 L0,0" fill="#323232" stroke="#323232" stroke-width="1"></path></marker><marker id="SvgjsMarker1171" markerWidth="13" markerHeight="9" refX="9.5" refY="4.5" viewBox="0 0 13 9" orient="auto" markerUnits="userSpaceOnUse" stroke-dasharray="0,0"><path id="SvgjsPath1172" d="M0,0 L13,4.5 L0,9 L0,0" fill="#323232" stroke="#323232" stroke-width="1"></path></marker><marker id="SvgjsMarker1175" markerWidth="13" markerHeight="9" refX="9.5" refY="4.5" viewBox="0 0 13 9" orient="auto" markerUnits="userSpaceOnUse" stroke-dasharray="0,0"><path id="SvgjsPath1176" d="M0,0 L13,4.5 L0,9 L0,0" fill="#323232" stroke="#323232" stroke-width="1"></path></marker><marker id="SvgjsMarker1179" markerWidth="13" markerHeight="9" refX="9.5" refY="4.5" viewBox="0 0 13 9" orient="auto" markerUnits="userSpaceOnUse" stroke-dasharray="0,0"><path id="SvgjsPath1180" d="M0,0 L13,4.5 L0,9 L0,0" fill="#323232" stroke="#323232" stroke-width="1"></path></marker></defs><rect id="svgbackgroundid" width="1034.6666666666667" height="319.4166666666667" fill="transparent"></rect><rect id="SvgjsRect1009" width="1034.6666666666667" height="319.4166666666667" fill="url(#pattern_mark_0)"></rect><rect id="SvgjsRect1010" width="1034.6666666666667" height="319.4166666666667" fill="url(#pattern_mark_1)"></rect><g id="SvgjsG1011" transform="translate(109.5,28.41666666666667)"><path id="SvgjsPath1012" d="M 0 0L 765.1666666666667 0L 765.1666666666667 151L 0 151Z" stroke="rgba(33,41,48,1)" stroke-width="1.5" fill-opacity="1" fill="#f4c18f"></path><g id="SvgjsG1013"><text id="SvgjsText1014" font-family="微软雅黑" text-anchor="middle" font-size="13px" width="746px" fill="#323232" font-weight="400" align="middle" lineHeight="125%" anchor="middle" family="微软雅黑" size="13px" weight="400" font-style="" opacity="1" y="64.875" transform="rotate(0)"></text></g></g><g id="SvgjsG1015" transform="translate(740.5,110.41666666666667)"><path id="SvgjsPath1016" d="M 0 0L 96 0L 96 54L 0 54Z" stroke="rgba(33,41,48,1)" stroke-width="1.5" fill-opacity="1" fill="#95da69"></path><g id="SvgjsG1017"><text id="SvgjsText1018" font-family="微软雅黑" text-anchor="middle" font-size="13px" width="76px" fill="#323232" font-weight="400" align="middle" lineHeight="125%" anchor="middle" family="微软雅黑" size="13px" weight="400" font-style="" opacity="1" y="0.375" transform="rotate(0)"><tspan id="SvgjsTspan1019" dy="16.25" x="48"><tspan id="SvgjsTspan1020" style="">Server5</tspan></tspan><tspan id="SvgjsTspan1021" dy="16.25" x="48"><tspan id="SvgjsTspan1022" style="">myid=5</tspan></tspan><tspan id="SvgjsTspan1023" dy="16.25" x="48"><tspan id="SvgjsTspan1024" style="">数据</tspan></tspan></text></g></g><g id="SvgjsG1025" transform="translate(590.9166666666667,110.41666666666667)"><path id="SvgjsPath1026" d="M 0 0L 96 0L 96 54L 0 54Z" stroke="rgba(33,41,48,1)" stroke-width="1.5" fill-opacity="1" fill="#95da69"></path><g id="SvgjsG1027"><text id="SvgjsText1028" font-family="微软雅黑" text-anchor="middle" font-size="13px" width="76px" fill="#323232" font-weight="400" align="middle" lineHeight="125%" anchor="middle" family="微软雅黑" size="13px" weight="400" font-style="" opacity="1" y="0.375" transform="rotate(0)"><tspan id="SvgjsTspan1029" dy="16.25" x="48"><tspan id="SvgjsTspan1030" style="">Server4</tspan></tspan><tspan id="SvgjsTspan1031" dy="16.25" x="48"><tspan id="SvgjsTspan1032" style="">myid=4</tspan></tspan><tspan id="SvgjsTspan1033" dy="16.25" x="48"><tspan id="SvgjsTspan1034" style="">数据</tspan></tspan></text></g></g><g id="SvgjsG1035" transform="translate(441.3333333333334,110.41666666666667)"><path id="SvgjsPath1036" d="M 0 0L 96 0L 96 54L 0 54Z" stroke="rgba(33,41,48,1)" stroke-width="1.5" fill-opacity="1" fill="#95da69"></path><g id="SvgjsG1037"><text id="SvgjsText1038" font-family="微软雅黑" text-anchor="middle" font-size="13px" width="76px" fill="#323232" font-weight="400" align="middle" lineHeight="125%" anchor="middle" family="微软雅黑" size="13px" weight="400" font-style="" opacity="1" y="0.375" transform="rotate(0)"><tspan id="SvgjsTspan1039" dy="16.25" x="48"><tspan id="SvgjsTspan1040" style="">Server3</tspan></tspan><tspan id="SvgjsTspan1041" dy="16.25" x="48"><tspan id="SvgjsTspan1042" style="">myid=3</tspan></tspan><tspan id="SvgjsTspan1043" dy="16.25" x="48"><tspan id="SvgjsTspan1044" style="">数据</tspan></tspan></text></g></g><g id="SvgjsG1045" transform="translate(291.7500000000002,110.41666666666667)"><path id="SvgjsPath1046" d="M 0 0L 96 0L 96 54L 0 54Z" stroke="rgba(33,41,48,1)" stroke-width="1.5" fill-opacity="1" fill="#95da69"></path><g id="SvgjsG1047"><text id="SvgjsText1048" font-family="微软雅黑" text-anchor="middle" font-size="13px" width="76px" fill="#323232" font-weight="400" align="middle" lineHeight="125%" anchor="middle" family="微软雅黑" size="13px" weight="400" font-style="" opacity="1" y="0.375" transform="rotate(0)"><tspan id="SvgjsTspan1049" dy="16.25" x="48"><tspan id="SvgjsTspan1050" style="">Server2</tspan></tspan><tspan id="SvgjsTspan1051" dy="16.25" x="48"><tspan id="SvgjsTspan1052" style="">myid=2</tspan></tspan><tspan id="SvgjsTspan1053" dy="16.25" x="48"><tspan id="SvgjsTspan1054" style="">数据</tspan></tspan></text></g></g><g id="SvgjsG1055" transform="translate(142.16666666666694,110.41666666666667)"><path id="SvgjsPath1056" d="M 0 0L 96 0L 96 54L 0 54Z" stroke="rgba(33,41,48,1)" stroke-width="1.5" fill-opacity="1" fill="#95da69"></path><g id="SvgjsG1057"><text id="SvgjsText1058" font-family="微软雅黑" text-anchor="middle" font-size="13px" width="76px" fill="#323232" font-weight="400" align="middle" lineHeight="125%" anchor="middle" family="微软雅黑" size="13px" weight="400" font-style="" opacity="1" y="0.375" transform="rotate(0)"><tspan id="SvgjsTspan1059" dy="16.25" x="48"><tspan id="SvgjsTspan1060" style="">Server1</tspan></tspan><tspan id="SvgjsTspan1061" dy="16.25" x="48"><tspan id="SvgjsTspan1062" style="">myid=1</tspan></tspan><tspan id="SvgjsTspan1063" dy="16.25" x="48"><tspan id="SvgjsTspan1064" style="">数据</tspan></tspan></text></g></g><g id="SvgjsG1065" transform="translate(138.166666666667,78.83333333333336)"><path id="SvgjsPath1066" d="M 0 0L 100 0L 100 40L 0 40Z" stroke="none" fill="none"></path><g id="SvgjsG1067"><text id="SvgjsText1068" font-family="微软雅黑" text-anchor="middle" font-size="13px" width="100px" fill="#323232" font-weight="400" align="middle" lineHeight="125%" anchor="middle" family="微软雅黑" size="13px" weight="400" font-style="" opacity="1" y="9.375" transform="rotate(0)"><tspan id="SvgjsTspan1069" dy="16.25" x="50"><tspan id="SvgjsTspan1070" style="">follower</tspan></tspan></text></g></g><g id="SvgjsG1071" transform="translate(289.7500000000002,78.83333333333336)"><path id="SvgjsPath1072" d="M 0 0L 100 0L 100 40L 0 40Z" stroke="none" fill="none"></path><g id="SvgjsG1073"><text id="SvgjsText1074" font-family="微软雅黑" text-anchor="middle" font-size="13px" width="100px" fill="#323232" font-weight="400" align="middle" lineHeight="125%" anchor="middle" family="微软雅黑" size="13px" weight="400" font-style="" opacity="1" y="9.375" transform="rotate(0)"><tspan id="SvgjsTspan1075" dy="16.25" x="50"><tspan id="SvgjsTspan1076" style="">follower</tspan></tspan></text></g></g><g id="SvgjsG1077" transform="translate(437.3333333333335,74.83333333333336)"><path id="SvgjsPath1078" d="M 0 0L 100 0L 100 48L 0 48Z" stroke="none" fill="none"></path><g id="SvgjsG1079"><text id="SvgjsText1080" font-family="微软雅黑" text-anchor="middle" font-size="13px" width="100px" fill="#323232" font-weight="400" align="middle" lineHeight="125%" anchor="middle" family="微软雅黑" size="13px" weight="400" font-style="" opacity="1" y="13.375" transform="rotate(0)"><tspan id="SvgjsTspan1081" dy="16.25" x="50"><tspan id="SvgjsTspan1082" style="font-weight: bold;fill: rgb(86, 146, 48);">leader</tspan></tspan></text></g></g><g id="SvgjsG1083" transform="translate(588.9166666666667,70.41666666666667)"><path id="SvgjsPath1084" d="M 0 0L 100 0L 100 40L 0 40Z" stroke="none" fill="none"></path><g id="SvgjsG1085"><text id="SvgjsText1086" font-family="微软雅黑" text-anchor="middle" font-size="13px" width="100px" fill="#323232" font-weight="400" align="middle" lineHeight="125%" anchor="middle" family="微软雅黑" size="13px" weight="400" font-style="" opacity="1" y="1.375" transform="rotate(0)"><tspan id="SvgjsTspan1087" dy="16.25" x="50"><tspan id="SvgjsTspan1088" style="">❌follower</tspan></tspan></text></g></g><g id="SvgjsG1089" transform="translate(740.5,70.41666666666667)"><path id="SvgjsPath1090" d="M 0 0L 100 0L 100 40L 0 40Z" stroke="none" fill="none"></path><g id="SvgjsG1091"><text id="SvgjsText1092" font-family="微软雅黑" text-anchor="middle" font-size="13px" width="100px" fill="#323232" font-weight="400" align="middle" lineHeight="125%" anchor="middle" family="微软雅黑" size="13px" weight="400" font-style="" opacity="1" y="1.375" transform="rotate(0)"><tspan id="SvgjsTspan1093" dy="16.25" x="50"><tspan id="SvgjsTspan1094" style="">❌follower</tspan></tspan></text></g></g><g id="SvgjsG1095" transform="translate(422.6753285725913,25)"><path id="SvgjsPath1096" d="M 0 0L 129.31600952148438 0L 129.31600952148438 40L 0 40Z" stroke="none" fill="none"></path><g id="SvgjsG1097"><text id="SvgjsText1098" font-family="微软雅黑" text-anchor="middle" font-size="13px" width="130px" fill="#323232" font-weight="400" align="middle" lineHeight="125%" anchor="middle" family="微软雅黑" size="13px" weight="400" font-style="" opacity="1" y="9.375" transform="rotate(0)"><tspan id="SvgjsTspan1099" dy="16.25" x="65"><tspan id="SvgjsTspan1100" style="font-weight: bold;">Zookeeper Service</tspan></tspan></text></g></g><g id="SvgjsG1101" transform="translate(25,264.9166666666667)"><path id="SvgjsPath1102" d="M 0 4Q 0 0 4 0L 57.333333333333314 0Q 61.333333333333314 0 61.333333333333314 4L 61.333333333333314 25.5Q 61.333333333333314 29.5 57.333333333333314 29.5L 4 29.5Q 0 29.5 0 25.5Z" stroke="rgba(33,41,48,1)" stroke-width="1.5" fill-opacity="1" fill="#f1e4a2"></path><g id="SvgjsG1103"><text id="SvgjsText1104" font-family="微软雅黑" text-anchor="middle" font-size="13px" width="42px" fill="#323232" font-weight="400" align="middle" lineHeight="125%" anchor="middle" family="微软雅黑" size="13px" weight="400" font-style="" opacity="1" y="4.125" transform="rotate(0)"><tspan id="SvgjsTspan1105" dy="16.25" x="31"><tspan id="SvgjsTspan1106" style="">Client</tspan></tspan></text></g></g><g id="SvgjsG1107" transform="translate(136.25,264.9166666666667)"><path id="SvgjsPath1108" d="M 0 4Q 0 0 4 0L 57.333333333333314 0Q 61.333333333333314 0 61.333333333333314 4L 61.333333333333314 25.5Q 61.333333333333314 29.5 57.333333333333314 29.5L 4 29.5Q 0 29.5 0 25.5Z" stroke="rgba(33,41,48,1)" stroke-width="1.5" fill-opacity="1" fill="#f1e4a2"></path><g id="SvgjsG1109"><text id="SvgjsText1110" font-family="微软雅黑" text-anchor="middle" font-size="13px" width="42px" fill="#323232" font-weight="400" align="middle" lineHeight="125%" anchor="middle" family="微软雅黑" size="13px" weight="400" font-style="" opacity="1" y="4.125" transform="rotate(0)"><tspan id="SvgjsTspan1111" dy="16.25" x="31"><tspan id="SvgjsTspan1112" style="">Client</tspan></tspan></text></g></g><g id="SvgjsG1113" transform="translate(358.75,264.9166666666667)"><path id="SvgjsPath1114" d="M 0 4Q 0 0 4 0L 57.333333333333314 0Q 61.333333333333314 0 61.333333333333314 4L 61.333333333333314 25.5Q 61.333333333333314 29.5 57.333333333333314 29.5L 4 29.5Q 0 29.5 0 25.5Z" stroke="rgba(33,41,48,1)" stroke-width="1.5" fill-opacity="1" fill="#f1e4a2"></path><g id="SvgjsG1115"><text id="SvgjsText1116" font-family="微软雅黑" text-anchor="middle" font-size="13px" width="42px" fill="#323232" font-weight="400" align="middle" lineHeight="125%" anchor="middle" family="微软雅黑" size="13px" weight="400" font-style="" opacity="1" y="4.125" transform="rotate(0)"><tspan id="SvgjsTspan1117" dy="16.25" x="31"><tspan id="SvgjsTspan1118" style="">Client</tspan></tspan></text></g></g><g id="SvgjsG1119" transform="translate(247.5,264.9166666666667)"><path id="SvgjsPath1120" d="M 0 4Q 0 0 4 0L 57.333333333333314 0Q 61.333333333333314 0 61.333333333333314 4L 61.333333333333314 25.5Q 61.333333333333314 29.5 57.333333333333314 29.5L 4 29.5Q 0 29.5 0 25.5Z" stroke="rgba(33,41,48,1)" stroke-width="1.5" fill-opacity="1" fill="#f1e4a2"></path><g id="SvgjsG1121"><text id="SvgjsText1122" font-family="微软雅黑" text-anchor="middle" font-size="13px" width="42px" fill="#323232" font-weight="400" align="middle" lineHeight="125%" anchor="middle" family="微软雅黑" size="13px" weight="400" font-style="" opacity="1" y="4.125" transform="rotate(0)"><tspan id="SvgjsTspan1123" dy="16.25" x="31"><tspan id="SvgjsTspan1124" style="">Client</tspan></tspan></text></g></g><g id="SvgjsG1125" transform="translate(504.16666666666674,264.9166666666667)"><path id="SvgjsPath1126" d="M 0 4Q 0 0 4 0L 57.333333333333314 0Q 61.333333333333314 0 61.333333333333314 4L 61.333333333333314 25.5Q 61.333333333333314 29.5 57.333333333333314 29.5L 4 29.5Q 0 29.5 0 25.5Z" stroke="rgba(33,41,48,1)" stroke-width="1.5" fill-opacity="1" fill="#f1e4a2"></path><g id="SvgjsG1127"><text id="SvgjsText1128" font-family="微软雅黑" text-anchor="middle" font-size="13px" width="42px" fill="#323232" font-weight="400" align="middle" lineHeight="125%" anchor="middle" family="微软雅黑" size="13px" weight="400" font-style="" opacity="1" y="4.125" transform="rotate(0)"><tspan id="SvgjsTspan1129" dy="16.25" x="31"><tspan id="SvgjsTspan1130" style="">Client</tspan></tspan></text></g></g><g id="SvgjsG1131" transform="translate(649.5833333333335,264.9166666666667)"><path id="SvgjsPath1132" d="M 0 4Q 0 0 4 0L 57.333333333333314 0Q 61.333333333333314 0 61.333333333333314 4L 61.333333333333314 25.5Q 61.333333333333314 29.5 57.333333333333314 29.5L 4 29.5Q 0 29.5 0 25.5Z" stroke="rgba(33,41,48,1)" stroke-width="1.5" fill-opacity="1" fill="#f1e4a2"></path><g id="SvgjsG1133"><text id="SvgjsText1134" font-family="微软雅黑" text-anchor="middle" font-size="13px" width="42px" fill="#323232" font-weight="400" align="middle" lineHeight="125%" anchor="middle" family="微软雅黑" size="13px" weight="400" font-style="" opacity="1" y="4.125" transform="rotate(0)"><tspan id="SvgjsTspan1135" dy="16.25" x="31"><tspan id="SvgjsTspan1136" style="">Client</tspan></tspan></text></g></g><g id="SvgjsG1137" transform="translate(775.1666666666666,264.9166666666667)"><path id="SvgjsPath1138" d="M 0 4Q 0 0 4 0L 57.333333333333314 0Q 61.333333333333314 0 61.333333333333314 4L 61.333333333333314 25.5Q 61.333333333333314 29.5 57.333333333333314 29.5L 4 29.5Q 0 29.5 0 25.5Z" stroke="rgba(33,41,48,1)" stroke-width="1.5" fill-opacity="1" fill="#f1e4a2"></path><g id="SvgjsG1139"><text id="SvgjsText1140" font-family="微软雅黑" text-anchor="middle" font-size="13px" width="42px" fill="#323232" font-weight="400" align="middle" lineHeight="125%" anchor="middle" family="微软雅黑" size="13px" weight="400" font-style="" opacity="1" y="4.125" transform="rotate(0)"><tspan id="SvgjsTspan1141" dy="16.25" x="31"><tspan id="SvgjsTspan1142" style="">Client</tspan></tspan></text></g></g><g id="SvgjsG1143" transform="translate(894.1666666666666,264.9166666666667)"><path id="SvgjsPath1144" d="M 0 4Q 0 0 4 0L 57.333333333333314 0Q 61.333333333333314 0 61.333333333333314 4L 61.333333333333314 25.5Q 61.333333333333314 29.5 57.333333333333314 29.5L 4 29.5Q 0 29.5 0 25.5Z" stroke="rgba(33,41,48,1)" stroke-width="1.5" fill-opacity="1" fill="#f1e4a2"></path><g id="SvgjsG1145"><text id="SvgjsText1146" font-family="微软雅黑" text-anchor="middle" font-size="13px" width="42px" fill="#323232" font-weight="400" align="middle" lineHeight="125%" anchor="middle" family="微软雅黑" size="13px" weight="400" font-style="" opacity="1" y="4.125" transform="rotate(0)"><tspan id="SvgjsTspan1147" dy="16.25" x="31"><tspan id="SvgjsTspan1148" style="">Client</tspan></tspan></text></g></g><g id="SvgjsG1149"><path id="SvgjsPath1150" d="M56.267469757642715 264.4677394499894L188.0037755391531 166.0328046467049" stroke="#323232" stroke-width="1.5" fill="none" marker-end="url(#SvgjsMarker1151)"></path></g><g id="SvgjsG1153"><path id="SvgjsPath1154" d="M167.08570952412182 264.18596528282825L189.55811237982837 167.047191648485" stroke="#323232" stroke-width="1.5" fill="none" marker-end="url(#SvgjsMarker1155)"></path></g><g id="SvgjsG1157"><path id="SvgjsPath1158" d="M278.55852603752055 264.27717762573326L338.33930626492617 166.71882721402704" stroke="#323232" stroke-width="1.5" fill="none" marker-end="url(#SvgjsMarker1159)"></path></g><g id="SvgjsG1161"><path id="SvgjsPath1162" d="M389.94545093244284 264.38479525338386L487.429709976539 166.33140375448494" stroke="#323232" stroke-width="1.5" fill="none" marker-end="url(#SvgjsMarker1163)"></path></g><g id="SvgjsG1165"><path id="SvgjsPath1166" d="M535.3728695420687 264.39570536343626L636.9743363152196 166.29212735829617" stroke="#323232" stroke-width="1.5" fill="none" marker-end="url(#SvgjsMarker1167)"></path></g><g id="SvgjsG1169"><path id="SvgjsPath1170" d="M679.9647269461638 264.22303903979844L639.9436496604776 166.91372612339234" stroke="#323232" stroke-width="1.5" fill="none" marker-end="url(#SvgjsMarker1171)"></path></g><g id="SvgjsG1173"><path id="SvgjsPath1174" d="M805.7058621012728 264.1775786577009L788.9588964354175 167.07738349894345" stroke="#323232" stroke-width="1.5" fill="none" marker-end="url(#SvgjsMarker1175)"></path></g><g id="SvgjsG1177"><path id="SvgjsPath1178" d="M924.2296342176193 264.47164152390934L790.6733168165703 166.01875718059313" stroke="#323232" stroke-width="1.5" fill="none" marker-end="url(#SvgjsMarker1179)"></path></g><g id="SvgjsG1181" transform="translate(879.2500000000001,195.33333333333337)"><path id="SvgjsPath1182" d="M 0 0L 130.41666666666663 0L 130.41666666666663 41.916666666666686L 0 41.916666666666686Z" stroke="none" fill="none"></path><g id="SvgjsG1183"><text id="SvgjsText1184" font-family="微软雅黑" text-anchor="middle" font-size="13px" width="131px" fill="#323232" font-weight="400" align="middle" lineHeight="125%" anchor="middle" family="微软雅黑" size="13px" weight="400" font-style="" opacity="1" y="2.333333333333343" transform="rotate(0)"><tspan id="SvgjsTspan1185" dy="16.25" x="65.5"><tspan id="SvgjsTspan1186" style="font-weight: bold;">每次写操作都</tspan></tspan><tspan id="SvgjsTspan1187" dy="16.25" x="65.5"><tspan id="SvgjsTspan1188" style="font-weight: bold;">有事务id（zxid）</tspan></tspan></text></g></g><g id="SvgjsG1189" transform="translate(71.3333333333336,212.16666666666669)"><path id="SvgjsPath1190" d="M 0 0L 26.99999999999946 0L 26.99999999999946 20L 0 20Z" stroke="none" fill="none"></path><g id="SvgjsG1191"><text id="SvgjsText1192" font-family="微软雅黑" text-anchor="middle" font-size="13px" width="27px" fill="#323232" font-weight="400" align="middle" lineHeight="125%" anchor="middle" family="微软雅黑" size="13px" weight="400" font-style="" opacity="1" y="-0.625" transform="rotate(0)"><tspan id="SvgjsTspan1193" dy="16.25" x="13.5"><tspan id="SvgjsTspan1194" style="">①</tspan></tspan></text></g></g><g id="SvgjsG1195" transform="translate(136.25,221.33333333333331)"><path id="SvgjsPath1196" d="M 0 0L 38.666666666666686 0L 38.666666666666686 20L 0 20Z" stroke="none" fill="none"></path><g id="SvgjsG1197"><text id="SvgjsText1198" font-family="微软雅黑" text-anchor="middle" font-size="13px" width="39px" fill="#323232" font-weight="400" align="middle" lineHeight="125%" anchor="middle" family="微软雅黑" size="13px" weight="400" font-style="" opacity="1" y="-0.625" transform="rotate(0)"><tspan id="SvgjsTspan1199" dy="16.25" x="19.5"><tspan id="SvgjsTspan1200" style="">②</tspan></tspan></text></g></g></svg>