<svg id="SvgjsSvg1006" width="702" height="398" xmlns="http://www.w3.org/2000/svg" version="1.1" xmlns:xlink="http://www.w3.org/1999/xlink" xmlns:svgjs="http://svgjs.com/svgjs"><defs id="SvgjsDefs1007"><pattern patternUnits="userSpaceOnUse" id="pattern_mark_0" width="300" height="300"><text x="150" y="100" fill="rgba(73,76,88,0.8)" font-size="18" transform="rotate(-45, 150, 150)" style="dominant-baseline: middle; text-anchor: middle;"></text></pattern><pattern patternUnits="userSpaceOnUse" id="pattern_mark_1" width="300" height="300"><text x="150" y="200" fill="rgba(73,76,88,0.8)" font-size="18" transform="rotate(-45, 150, 150)" style="dominant-baseline: middle; text-anchor: middle;"></text></pattern><marker id="SvgjsMarker1044" markerWidth="14" markerHeight="10" refX="10" refY="5" viewBox="0 0 14 10" orient="auto" markerUnits="userSpaceOnUse" stroke-dasharray="0,0"><path id="SvgjsPath1045" d="M0,0 L14,5 L0,10 L0,0" fill="#ffffff" stroke="#ffffff" stroke-width="1"></path></marker><marker id="SvgjsMarker1078" markerWidth="14" markerHeight="10" refX="10" refY="5" viewBox="0 0 14 10" orient="auto" markerUnits="userSpaceOnUse" stroke-dasharray="0,0"><path id="SvgjsPath1079" d="M0,0 L14,5 L0,10 L0,0" fill="#ffffff" stroke="#ffffff" stroke-width="1"></path></marker><marker id="SvgjsMarker1082" markerWidth="14" markerHeight="10" refX="10" refY="5" viewBox="0 0 14 10" orient="auto" markerUnits="userSpaceOnUse" stroke-dasharray="0,0"><path id="SvgjsPath1083" d="M0,0 L14,5 L0,10 L0,0" fill="#ffffff" stroke="#ffffff" stroke-width="1"></path></marker><marker id="SvgjsMarker1094" markerWidth="14" markerHeight="10" refX="10" refY="5" viewBox="0 0 14 10" orient="auto" markerUnits="userSpaceOnUse" stroke-dasharray="0,0"><path id="SvgjsPath1095" d="M0,0 L14,5 L0,10 L0,0" fill="#ffffff" stroke="#ffffff" stroke-width="1"></path></marker></defs><rect id="svgbackgroundid" width="702" height="398" fill="#515562"></rect><rect id="SvgjsRect1009" width="702" height="398" fill="url(#pattern_mark_0)"></rect><rect id="SvgjsRect1010" width="702" height="398" fill="url(#pattern_mark_1)"></rect><g id="SvgjsG1011" transform="translate(25,73)"><path id="SvgjsPath1012" d="M 127 0Q 118 0 118 9L 118 116Q 118 125 105 125Q 118 125 118 134L 118 241Q 118 250 127 250" stroke="rgba(255,255,255,1)" stroke-width="2" fill="none"></path><path id="SvgjsPath1013" d="M 0 0L 127 0L 127 250L 0 250Z" stroke="none" fill="none"></path><g id="SvgjsG1014"><text id="SvgjsText1015" font-family="&quot;Comic Sans MS&quot;" text-anchor="start" font-size="13px" width="100px" fill="#ffffff" font-weight="700" align="middle" lineHeight="125%" anchor="start" family="&quot;Comic Sans MS&quot;" size="13px" weight="700" font-style="" opacity="1" y="105.875" transform="rotate(0)"><tspan id="SvgjsTspan1016" dy="16.25" x="0"><tspan id="SvgjsTspan1017" style="">进程阻塞于</tspan></tspan><tspan id="SvgjsTspan1018" dy="16.25" x="0"><tspan id="SvgjsTspan1019" style="">recvfrom的调用</tspan></tspan></text></g></g><g id="SvgjsG1020" transform="translate(486,73)"><path id="SvgjsPath1021" d="M 0 120Q 9 120 9 111L 9 69Q 9 60 22 60Q 9 60 9 51L 9 9Q 9 0 0 0" stroke="rgba(255,255,255,1)" stroke-width="2" fill="none"></path><path id="SvgjsPath1022" d="M 0 0L 120 0L 120 120L 0 120Z" stroke="none" fill="none"></path><g id="SvgjsG1023"><text id="SvgjsText1024" font-family="&quot;Comic Sans MS&quot;" text-anchor="start" font-size="13px" width="93px" fill="#ffffff" font-weight="700" align="middle" lineHeight="125%" anchor="start" family="&quot;Comic Sans MS&quot;" size="13px" weight="700" font-style="" opacity="1" y="49.375" transform="rotate(0)"><tspan id="SvgjsTspan1025" dy="16.25" x="27"><tspan id="SvgjsTspan1026" style="">等待数据</tspan></tspan></text></g></g><g id="SvgjsG1027" transform="translate(486,203)"><path id="SvgjsPath1028" d="M 0 120Q 9 120 9 111L 9 69Q 9 60 22 60Q 9 60 9 51L 9 9Q 9 0 0 0" stroke="rgba(255,255,255,1)" stroke-width="2" fill="none"></path><path id="SvgjsPath1029" d="M 0 0L 120 0L 120 120L 0 120Z" stroke="none" fill="none"></path><g id="SvgjsG1030"><text id="SvgjsText1031" font-family="&quot;Comic Sans MS&quot;" text-anchor="start" font-size="13px" width="93px" fill="#ffffff" font-weight="700" align="middle" lineHeight="125%" anchor="start" family="&quot;Comic Sans MS&quot;" size="13px" weight="700" font-style="" opacity="1" y="40.875" transform="rotate(0)"><tspan id="SvgjsTspan1032" dy="16.25" x="27"><tspan id="SvgjsTspan1033" style="">将数据从内核复</tspan></tspan><tspan id="SvgjsTspan1034" dy="16.25" x="27"><tspan id="SvgjsTspan1035" style="">制到用户空间</tspan></tspan></text></g></g><g id="SvgjsG1036" transform="translate(149,66)"><path id="SvgjsPath1037" d="M 0 0L 67 0L 67 20L 0 20Z" stroke="none" fill="none"></path><g id="SvgjsG1038"><text id="SvgjsText1039" font-family="&quot;Comic Sans MS&quot;" text-anchor="middle" font-size="13px" width="67px" fill="#ffffff" font-weight="700" align="middle" lineHeight="125%" anchor="middle" family="&quot;Comic Sans MS&quot;" size="13px" weight="700" font-style="" opacity="1" y="-0.625" transform="rotate(0)"><tspan id="SvgjsTspan1040" dy="16.25" x="33.5"><tspan id="SvgjsTspan1041" style="">recvfrom</tspan></tspan></text></g></g><g id="SvgjsG1042"><path id="SvgjsPath1043" d="M216.75 76L301 76L301 76L382.65 76" stroke="#ffffff" stroke-width="2" fill="none" marker-end="url(#SvgjsMarker1044)"></path></g><g id="SvgjsG1046" transform="translate(386,66)"><path id="SvgjsPath1047" d="M 0 0L 100 0L 100 20L 0 20Z" stroke="none" fill="none"></path><g id="SvgjsG1048"><text id="SvgjsText1049" font-family="&quot;Comic Sans MS&quot;" text-anchor="middle" font-size="13px" width="100px" fill="#ffffff" font-weight="400" align="middle" lineHeight="125%" anchor="middle" family="&quot;Comic Sans MS&quot;" size="13px" weight="400" font-style="" opacity="1" y="-0.625" transform="rotate(0)"><tspan id="SvgjsTspan1050" dy="16.25" x="50"><tspan id="SvgjsTspan1051" style="">无数据报准备好</tspan></tspan></text></g></g><g id="SvgjsG1052" transform="translate(134,25)"><path id="SvgjsPath1053" d="M 0 0L 100 0L 100 40L 0 40Z" stroke="none" fill="none"></path><g id="SvgjsG1054"><text id="SvgjsText1055" font-family="&quot;Comic Sans MS&quot;" text-anchor="middle" font-size="15px" width="100px" fill="#323232" font-weight="400" align="middle" lineHeight="125%" anchor="middle" family="&quot;Comic Sans MS&quot;" size="15px" weight="400" font-style="" opacity="1" y="7.625" transform="rotate(0)"><tspan id="SvgjsTspan1056" dy="18.75" x="50"><tspan id="SvgjsTspan1057" style="font-weight: bold;fill: rgb(255, 255, 255);">Application</tspan></tspan></text></g></g><g id="SvgjsG1058" transform="translate(391,25)"><path id="SvgjsPath1059" d="M 0 0L 100 0L 100 40L 0 40Z" stroke="none" fill="none"></path><g id="SvgjsG1060"><text id="SvgjsText1061" font-family="&quot;Comic Sans MS&quot;" text-anchor="middle" font-size="15px" width="100px" fill="#323232" font-weight="400" align="middle" lineHeight="125%" anchor="middle" family="&quot;Comic Sans MS&quot;" size="15px" weight="400" font-style="" opacity="1" y="7.625" transform="rotate(0)"><tspan id="SvgjsTspan1062" dy="18.75" x="50"><tspan id="SvgjsTspan1063" style="font-weight: bold;fill: rgb(255, 255, 255);">kernel</tspan></tspan></text></g></g><g id="SvgjsG1064" transform="translate(154,293)"><path id="SvgjsPath1065" d="M 0 0L 67 0L 67 40L 0 40Z" stroke="none" fill="none"></path><g id="SvgjsG1066"><text id="SvgjsText1067" font-family="&quot;Comic Sans MS&quot;" text-anchor="middle" font-size="13px" width="67px" fill="#ffffff" font-weight="700" align="middle" lineHeight="125%" anchor="middle" family="&quot;Comic Sans MS&quot;" size="13px" weight="700" font-style="" opacity="1" y="9.375" transform="rotate(0)"><tspan id="SvgjsTspan1068" dy="16.25" x="33.5"><tspan id="SvgjsTspan1069" style="">处理数据报</tspan></tspan></text></g></g><g id="SvgjsG1070" transform="translate(391,303)"><path id="SvgjsPath1071" d="M 0 0L 90 0L 90 20L 0 20Z" stroke="none" fill="none"></path><g id="SvgjsG1072"><text id="SvgjsText1073" font-family="&quot;Comic Sans MS&quot;" text-anchor="middle" font-size="13px" width="90px" fill="#ffffff" font-weight="700" align="middle" lineHeight="125%" anchor="middle" family="&quot;Comic Sans MS&quot;" size="13px" weight="700" font-style="" opacity="1" y="-0.625" transform="rotate(0)"><tspan id="SvgjsTspan1074" dy="16.25" x="45"><tspan id="SvgjsTspan1075" style="">复制完成</tspan></tspan></text></g></g><g id="SvgjsG1076"><path id="SvgjsPath1077" d="M390.25 313L306 313L306 313L224.35000000000002 313" stroke-dasharray="8,5" stroke="#ffffff" stroke-width="2" fill="none" marker-end="url(#SvgjsMarker1078)"></path></g><g id="SvgjsG1080"><path id="SvgjsPath1081" d="M436 86.75L436 132L436 132L436 174.65" stroke="#ffffff" stroke-width="2" fill="none" marker-end="url(#SvgjsMarker1082)"></path></g><g id="SvgjsG1084" transform="translate(386,178)"><path id="SvgjsPath1085" d="M 0 0L 100 0L 100 40L 0 40Z" stroke="none" fill="none"></path><g id="SvgjsG1086"><text id="SvgjsText1087" font-family="&quot;Comic Sans MS&quot;" text-anchor="middle" font-size="13px" width="100px" fill="#323232" font-weight="400" align="middle" lineHeight="125%" anchor="middle" family="&quot;Comic Sans MS&quot;" size="13px" weight="400" font-style="" opacity="1" y="0.875" transform="rotate(0)"><tspan id="SvgjsTspan1088" dy="16.25" x="50"><tspan id="SvgjsTspan1089" style="font-weight: bold;fill: rgb(255, 255, 255);">数据报准备好</tspan></tspan><tspan id="SvgjsTspan1090" dy="16.25" x="50"><tspan id="SvgjsTspan1091" style="font-weight: bold;fill: rgb(255, 255, 255);">开始复制数据报</tspan></tspan></text></g></g><g id="SvgjsG1092"><path id="SvgjsPath1093" d="M436 218.75L436 260.5L436 260.5L436 299.65" stroke="#ffffff" stroke-width="2" fill="none" marker-end="url(#SvgjsMarker1094)"></path></g><g id="SvgjsG1096" transform="translate(247,53)"><path id="SvgjsPath1097" d="M 0 0L 100 0L 100 20L 0 20Z" stroke="none" fill="none"></path><g id="SvgjsG1098"><text id="SvgjsText1099" font-family="&quot;Comic Sans MS&quot;" text-anchor="middle" font-size="13px" width="100px" fill="#ffffff" font-weight="700" align="middle" lineHeight="125%" anchor="middle" family="&quot;Comic Sans MS&quot;" size="13px" weight="700" font-style="" opacity="1" y="-0.625" transform="rotate(0)"><tspan id="SvgjsTspan1100" dy="16.25" x="50"><tspan id="SvgjsTspan1101" style="">系统调用</tspan></tspan></text></g></g><g id="SvgjsG1102" transform="translate(256,283)"><path id="SvgjsPath1103" d="M 0 0L 100 0L 100 40L 0 40Z" stroke="none" fill="none"></path><g id="SvgjsG1104"><text id="SvgjsText1105" font-family="&quot;Comic Sans MS&quot;" text-anchor="middle" font-size="13px" width="100px" fill="#ffffff" font-weight="700" align="middle" lineHeight="125%" anchor="middle" family="&quot;Comic Sans MS&quot;" size="13px" weight="700" font-style="" opacity="1" y="9.375" transform="rotate(0)"><tspan id="SvgjsTspan1106" dy="16.25" x="50"><tspan id="SvgjsTspan1107" style="">返回成功指示</tspan></tspan></text></g></g><g id="SvgjsG1108" transform="translate(577,105.5)"><path id="SvgjsPath1109" d="M 0 0L 100 0L 100 49L 0 49Z" stroke="none" fill="none"></path><g id="SvgjsG1110"><text id="SvgjsText1111" font-family="&quot;Comic Sans MS&quot;" text-anchor="start" font-size="13px" width="100px" fill="#323232" font-weight="400" align="middle" lineHeight="125%" anchor="start" family="&quot;Comic Sans MS&quot;" size="13px" weight="400" font-style="" opacity="1" y="-2.625" transform="rotate(0)"><tspan id="SvgjsTspan1112" dy="16.25" x="0"><tspan id="SvgjsTspan1113" style="font-weight: bold;fill: rgb(149, 218, 105);">等待期间，应用</tspan></tspan><tspan id="SvgjsTspan1114" dy="16.25" x="0"><tspan id="SvgjsTspan1115" style="font-weight: bold;fill: rgb(149, 218, 105);">程序让出CPU，</tspan></tspan><tspan id="SvgjsTspan1116" dy="16.25" x="0"><tspan id="SvgjsTspan1117" style="font-weight: bold;fill: rgb(149, 218, 105);">进入等待队列</tspan></tspan></text></g></g><g id="SvgjsG1118" transform="translate(512,178)"><path id="SvgjsPath1119" d="M 0 0L 100 0L 100 40L 0 40Z" stroke="none" fill="none"></path><g id="SvgjsG1120"><text id="SvgjsText1121" font-family="&quot;Comic Sans MS&quot;" text-anchor="start" font-size="13px" width="100px" fill="#323232" font-weight="400" align="middle" lineHeight="125%" anchor="start" family="&quot;Comic Sans MS&quot;" size="13px" weight="400" font-style="" opacity="1" y="0.875" transform="rotate(0)"><tspan id="SvgjsTspan1122" dy="16.25" x="0"><tspan id="SvgjsTspan1123" style="font-weight: bold;fill: rgb(149, 218, 105);">内核唤醒进程</tspan></tspan><tspan id="SvgjsTspan1124" dy="16.25" x="0"><tspan id="SvgjsTspan1125" style="font-weight: bold;fill: rgb(149, 218, 105);">读取数据</tspan></tspan></text></g></g><g id="SvgjsG1126" transform="translate(228.25,333)"><path id="SvgjsPath1127" d="M 0 0L 155.5 0L 155.5 40L 0 40Z" stroke="none" fill="none"></path><g id="SvgjsG1128"><text id="SvgjsText1129" font-family="&quot;Comic Sans MS&quot;" text-anchor="middle" font-size="20px" width="156px" fill="#323232" font-weight="400" align="middle" lineHeight="125%" anchor="middle" family="&quot;Comic Sans MS&quot;" size="20px" weight="400" font-style="" opacity="1" y="2" transform="rotate(0)"><tspan id="SvgjsTspan1130" dy="25" x="78"><tspan id="SvgjsTspan1131" style="font-weight: bold;fill: rgb(255, 255, 255);">阻塞式I/O模型</tspan></tspan></text></g></g></svg>