<svg id="SvgjsSvg3087" width="443.41666666666674" height="502.00000000000006" xmlns="http://www.w3.org/2000/svg" version="1.1" xmlns:xlink="http://www.w3.org/1999/xlink" xmlns:svgjs="http://svgjs.com/svgjs"><defs id="SvgjsDefs3088"><pattern patternUnits="userSpaceOnUse" id="pattern_mark_0" width="300" height="300"><text x="150" y="100" fill="rgba(229,229,229,0.8)" font-size="18" transform="rotate(-45, 150, 150)" style="dominant-baseline: middle; text-anchor: middle;"></text></pattern><pattern patternUnits="userSpaceOnUse" id="pattern_mark_1" width="300" height="300"><text x="150" y="200" fill="rgba(229,229,229,0.8)" font-size="18" transform="rotate(-45, 150, 150)" style="dominant-baseline: middle; text-anchor: middle;"></text></pattern><marker id="SvgjsMarker3178" markerWidth="13" markerHeight="9" refX="3.5" refY="4.5" viewBox="0 0 13 9" orient="auto" markerUnits="userSpaceOnUse" stroke-dasharray="0,0"><path id="SvgjsPath3179" d="M13,0 L0,4.5 L13,9 L13,0" fill="#323232" stroke="#323232" stroke-width="1"></path></marker><marker id="SvgjsMarker3180" markerWidth="13" markerHeight="9" refX="9.5" refY="4.5" viewBox="0 0 13 9" orient="auto" markerUnits="userSpaceOnUse" stroke-dasharray="0,0"><path id="SvgjsPath3181" d="M0,0 L13,4.5 L0,9 L0,0" fill="#323232" stroke="#323232" stroke-width="1"></path></marker><marker id="SvgjsMarker3184" markerWidth="13" markerHeight="9" refX="9.5" refY="4.5" viewBox="0 0 13 9" orient="auto" markerUnits="userSpaceOnUse" stroke-dasharray="0,0"><path id="SvgjsPath3185" d="M0,0 L13,4.5 L0,9 L0,0" fill="#323232" stroke="#323232" stroke-width="1"></path></marker><marker id="SvgjsMarker3188" markerWidth="13" markerHeight="9" refX="9.5" refY="4.5" viewBox="0 0 13 9" orient="auto" markerUnits="userSpaceOnUse" stroke-dasharray="0,0"><path id="SvgjsPath3189" d="M0,0 L13,4.5 L0,9 L0,0" fill="#323232" stroke="#323232" stroke-width="1"></path></marker><marker id="SvgjsMarker3192" markerWidth="13" markerHeight="9" refX="9.5" refY="4.5" viewBox="0 0 13 9" orient="auto" markerUnits="userSpaceOnUse" stroke-dasharray="0,0"><path id="SvgjsPath3193" d="M0,0 L13,4.5 L0,9 L0,0" fill="#323232" stroke="#323232" stroke-width="1"></path></marker><marker id="SvgjsMarker3196" markerWidth="13" markerHeight="9" refX="9.5" refY="4.5" viewBox="0 0 13 9" orient="auto" markerUnits="userSpaceOnUse" stroke-dasharray="0,0"><path id="SvgjsPath3197" d="M0,0 L13,4.5 L0,9 L0,0" fill="#323232" stroke="#323232" stroke-width="1"></path></marker><marker id="SvgjsMarker3200" markerWidth="13" markerHeight="9" refX="9.5" refY="4.5" viewBox="0 0 13 9" orient="auto" markerUnits="userSpaceOnUse" stroke-dasharray="0,0"><path id="SvgjsPath3201" d="M0,0 L13,4.5 L0,9 L0,0" fill="#323232" stroke="#323232" stroke-width="1"></path></marker><marker id="SvgjsMarker3204" markerWidth="13" markerHeight="9" refX="9.5" refY="4.5" viewBox="0 0 13 9" orient="auto" markerUnits="userSpaceOnUse" stroke-dasharray="0,0"><path id="SvgjsPath3205" d="M0,0 L13,4.5 L0,9 L0,0" fill="#323232" stroke="#323232" stroke-width="1"></path></marker><marker id="SvgjsMarker3208" markerWidth="13" markerHeight="9" refX="9.5" refY="4.5" viewBox="0 0 13 9" orient="auto" markerUnits="userSpaceOnUse" stroke-dasharray="0,0"><path id="SvgjsPath3209" d="M0,0 L13,4.5 L0,9 L0,0" fill="#323232" stroke="#323232" stroke-width="1"></path></marker><marker id="SvgjsMarker3212" markerWidth="13" markerHeight="9" refX="9.5" refY="4.5" viewBox="0 0 13 9" orient="auto" markerUnits="userSpaceOnUse" stroke-dasharray="0,0"><path id="SvgjsPath3213" d="M0,0 L13,4.5 L0,9 L0,0" fill="#323232" stroke="#323232" stroke-width="1"></path></marker><marker id="SvgjsMarker3216" markerWidth="13" markerHeight="9" refX="9.5" refY="4.5" viewBox="0 0 13 9" orient="auto" markerUnits="userSpaceOnUse" stroke-dasharray="0,0"><path id="SvgjsPath3217" d="M0,0 L13,4.5 L0,9 L0,0" fill="#323232" stroke="#323232" stroke-width="1"></path></marker><marker id="SvgjsMarker3220" markerWidth="13" markerHeight="9" refX="9.5" refY="4.5" viewBox="0 0 13 9" orient="auto" markerUnits="userSpaceOnUse" stroke-dasharray="0,0"><path id="SvgjsPath3221" d="M0,0 L13,4.5 L0,9 L0,0" fill="#323232" stroke="#323232" stroke-width="1"></path></marker><marker id="SvgjsMarker3226" markerWidth="13" markerHeight="9" refX="3.5" refY="4.5" viewBox="0 0 13 9" orient="auto" markerUnits="userSpaceOnUse" stroke-dasharray="0,0"><path id="SvgjsPath3227" d="M13,0 L0,4.5 L13,9 L13,0" fill="#323232" stroke="#323232" stroke-width="1"></path></marker><marker id="SvgjsMarker3232" markerWidth="13" markerHeight="9" refX="9.5" refY="4.5" viewBox="0 0 13 9" orient="auto" markerUnits="userSpaceOnUse" stroke-dasharray="0,0"><path id="SvgjsPath3233" d="M0,0 L13,4.5 L0,9 L0,0" fill="#323232" stroke="#323232" stroke-width="1"></path></marker><marker id="SvgjsMarker3236" markerWidth="13" markerHeight="9" refX="9.5" refY="4.5" viewBox="0 0 13 9" orient="auto" markerUnits="userSpaceOnUse" stroke-dasharray="0,0"><path id="SvgjsPath3237" d="M0,0 L13,4.5 L0,9 L0,0" fill="#323232" stroke="#323232" stroke-width="1"></path></marker><marker id="SvgjsMarker3240" markerWidth="13" markerHeight="9" refX="9.5" refY="4.5" viewBox="0 0 13 9" orient="auto" markerUnits="userSpaceOnUse" stroke-dasharray="0,0"><path id="SvgjsPath3241" d="M0,0 L13,4.5 L0,9 L0,0" fill="#323232" stroke="#323232" stroke-width="1"></path></marker><marker id="SvgjsMarker3244" markerWidth="13" markerHeight="9" refX="9.5" refY="4.5" viewBox="0 0 13 9" orient="auto" markerUnits="userSpaceOnUse" stroke-dasharray="0,0"><path id="SvgjsPath3245" d="M0,0 L13,4.5 L0,9 L0,0" fill="#323232" stroke="#323232" stroke-width="1"></path></marker><marker id="SvgjsMarker3248" markerWidth="13" markerHeight="9" refX="9.5" refY="4.5" viewBox="0 0 13 9" orient="auto" markerUnits="userSpaceOnUse" stroke-dasharray="0,0"><path id="SvgjsPath3249" d="M0,0 L13,4.5 L0,9 L0,0" fill="#323232" stroke="#323232" stroke-width="1"></path></marker><marker id="SvgjsMarker3252" markerWidth="13" markerHeight="9" refX="9.5" refY="4.5" viewBox="0 0 13 9" orient="auto" markerUnits="userSpaceOnUse" stroke-dasharray="0,0"><path id="SvgjsPath3253" d="M0,0 L13,4.5 L0,9 L0,0" fill="#323232" stroke="#323232" stroke-width="1"></path></marker></defs><rect id="svgbackgroundid" width="443.41666666666674" height="502.00000000000006" fill="transparent"></rect><rect id="SvgjsRect3090" width="443.41666666666674" height="502.00000000000006" fill="url(#pattern_mark_0)"></rect><rect id="SvgjsRect3091" width="443.41666666666674" height="502.00000000000006" fill="url(#pattern_mark_1)"></rect><g id="SvgjsG3092" transform="translate(25,25)"><path id="SvgjsPath3093" d="M 0 4Q 0 0 4 0L 89.83333333333334 0Q 93.83333333333334 0 93.83333333333334 4L 93.83333333333334 34.458333333333314Q 93.83333333333334 38.458333333333314 89.83333333333334 38.458333333333314L 4 38.458333333333314Q 0 38.458333333333314 0 34.458333333333314Z" stroke="rgba(33,41,48,1)" stroke-width="1.5" fill-opacity="1" fill="#d2d6f9"></path><g id="SvgjsG3094"><text id="SvgjsText3095" font-family="微软雅黑" text-anchor="middle" font-size="15px" width="74px" fill="#323232" font-weight="700" align="middle" lineHeight="125%" anchor="middle" family="微软雅黑" size="15px" weight="700" font-style="" opacity="1" y="6.854166666666657" transform="rotate(0)"><tspan id="SvgjsTspan3096" dy="18.75" x="47"><tspan id="SvgjsTspan3097" style="">线程1</tspan></tspan></text></g></g><g id="SvgjsG3098" transform="translate(324.58333333333337,25)"><path id="SvgjsPath3099" d="M 0 4Q 0 0 4 0L 89.83333333333334 0Q 93.83333333333334 0 93.83333333333334 4L 93.83333333333334 34.458333333333314Q 93.83333333333334 38.458333333333314 89.83333333333334 38.458333333333314L 4 38.458333333333314Q 0 38.458333333333314 0 34.458333333333314Z" stroke="rgba(33,41,48,1)" stroke-width="1.5" fill-opacity="1" fill="#d2d6f9"></path><g id="SvgjsG3100"><text id="SvgjsText3101" font-family="微软雅黑" text-anchor="middle" font-size="15px" width="74px" fill="#323232" font-weight="700" align="middle" lineHeight="125%" anchor="middle" family="微软雅黑" size="15px" weight="700" font-style="" opacity="1" y="6.854166666666657" transform="rotate(0)"><tspan id="SvgjsTspan3102" dy="18.75" x="47"><tspan id="SvgjsTspan3103" style="">线程2</tspan></tspan></text></g></g><g id="SvgjsG3104" transform="translate(25,88.75)"><path id="SvgjsPath3105" d="M 0 4Q 0 0 4 0L 89.83333333333334 0Q 93.83333333333334 0 93.83333333333334 4L 93.83333333333334 34.458333333333314Q 93.83333333333334 38.458333333333314 89.83333333333334 38.458333333333314L 4 38.458333333333314Q 0 38.458333333333314 0 34.458333333333314Z" stroke="rgba(33,41,48,1)" stroke-width="1.5" fill-opacity="1" fill="#f6edc1"></path><g id="SvgjsG3106"><text id="SvgjsText3107" font-family="微软雅黑" text-anchor="middle" font-size="15px" width="74px" fill="#323232" font-weight="700" align="middle" lineHeight="125%" anchor="middle" family="微软雅黑" size="15px" weight="700" font-style="" opacity="1" y="6.854166666666657" transform="rotate(0)"><tspan id="SvgjsTspan3108" dy="18.75" x="47"><tspan id="SvgjsTspan3109" style="">read</tspan></tspan></text></g></g><g id="SvgjsG3110" transform="translate(25,152.5)"><path id="SvgjsPath3111" d="M 0 4Q 0 0 4 0L 89.83333333333334 0Q 93.83333333333334 0 93.83333333333334 4L 93.83333333333334 34.458333333333314Q 93.83333333333334 38.458333333333314 89.83333333333334 38.458333333333314L 4 38.458333333333314Q 0 38.458333333333314 0 34.458333333333314Z" stroke="rgba(33,41,48,1)" stroke-width="1.5" fill-opacity="1" fill="#f6edc1"></path><g id="SvgjsG3112"><text id="SvgjsText3113" font-family="微软雅黑" text-anchor="middle" font-size="15px" width="74px" fill="#323232" font-weight="700" align="middle" lineHeight="125%" anchor="middle" family="微软雅黑" size="15px" weight="700" font-style="" opacity="1" y="6.854166666666657" transform="rotate(0)"><tspan id="SvgjsTspan3114" dy="18.75" x="47"><tspan id="SvgjsTspan3115" style="">load</tspan></tspan></text></g></g><g id="SvgjsG3116" transform="translate(25,216.25)"><path id="SvgjsPath3117" d="M 0 4Q 0 0 4 0L 89.83333333333334 0Q 93.83333333333334 0 93.83333333333334 4L 93.83333333333334 34.458333333333314Q 93.83333333333334 38.458333333333314 89.83333333333334 38.458333333333314L 4 38.458333333333314Q 0 38.458333333333314 0 34.458333333333314Z" stroke="rgba(33,41,48,1)" stroke-width="1.5" fill-opacity="1" fill="#f6edc1"></path><g id="SvgjsG3118"><text id="SvgjsText3119" font-family="微软雅黑" text-anchor="middle" font-size="15px" width="74px" fill="#323232" font-weight="700" align="middle" lineHeight="125%" anchor="middle" family="微软雅黑" size="15px" weight="700" font-style="" opacity="1" y="6.854166666666657" transform="rotate(0)"><tspan id="SvgjsTspan3120" dy="18.75" x="47"><tspan id="SvgjsTspan3121" style="">use</tspan></tspan></text></g></g><g id="SvgjsG3122" transform="translate(25,280)"><path id="SvgjsPath3123" d="M 0 4Q 0 0 4 0L 89.83333333333334 0Q 93.83333333333334 0 93.83333333333334 4L 93.83333333333334 34.458333333333314Q 93.83333333333334 38.458333333333314 89.83333333333334 38.458333333333314L 4 38.458333333333314Q 0 38.458333333333314 0 34.458333333333314Z" stroke="rgba(33,41,48,1)" stroke-width="1.5" fill-opacity="1" fill="#f6edc1"></path><g id="SvgjsG3124"><text id="SvgjsText3125" font-family="微软雅黑" text-anchor="middle" font-size="15px" width="74px" fill="#323232" font-weight="700" align="middle" lineHeight="125%" anchor="middle" family="微软雅黑" size="15px" weight="700" font-style="" opacity="1" y="6.854166666666657" transform="rotate(0)"><tspan id="SvgjsTspan3126" dy="18.75" x="47"><tspan id="SvgjsTspan3127" style="">assign</tspan></tspan></text></g></g><g id="SvgjsG3128" transform="translate(25,343.75)"><path id="SvgjsPath3129" d="M 0 4Q 0 0 4 0L 89.83333333333334 0Q 93.83333333333334 0 93.83333333333334 4L 93.83333333333334 34.458333333333314Q 93.83333333333334 38.458333333333314 89.83333333333334 38.458333333333314L 4 38.458333333333314Q 0 38.458333333333314 0 34.458333333333314Z" stroke="rgba(33,41,48,1)" stroke-width="1.5" fill-opacity="1" fill="#f6edc1"></path><g id="SvgjsG3130"><text id="SvgjsText3131" font-family="微软雅黑" text-anchor="middle" font-size="15px" width="74px" fill="#323232" font-weight="700" align="middle" lineHeight="125%" anchor="middle" family="微软雅黑" size="15px" weight="700" font-style="" opacity="1" y="6.854166666666657" transform="rotate(0)"><tspan id="SvgjsTspan3132" dy="18.75" x="47"><tspan id="SvgjsTspan3133" style="">store</tspan></tspan></text></g></g><g id="SvgjsG3134" transform="translate(25,407.5)"><path id="SvgjsPath3135" d="M 0 4Q 0 0 4 0L 89.83333333333334 0Q 93.83333333333334 0 93.83333333333334 4L 93.83333333333334 34.458333333333314Q 93.83333333333334 38.458333333333314 89.83333333333334 38.458333333333314L 4 38.458333333333314Q 0 38.458333333333314 0 34.458333333333314Z" stroke="rgba(33,41,48,1)" stroke-width="1.5" fill-opacity="1" fill="#f6edc1"></path><g id="SvgjsG3136"><text id="SvgjsText3137" font-family="微软雅黑" text-anchor="middle" font-size="15px" width="74px" fill="#323232" font-weight="700" align="middle" lineHeight="125%" anchor="middle" family="微软雅黑" size="15px" weight="700" font-style="" opacity="1" y="6.854166666666657" transform="rotate(0)"><tspan id="SvgjsTspan3138" dy="18.75" x="47"><tspan id="SvgjsTspan3139" style="">write</tspan></tspan></text></g></g><g id="SvgjsG3140" transform="translate(324.58333333333337,88.75)"><path id="SvgjsPath3141" d="M 0 4Q 0 0 4 0L 89.83333333333334 0Q 93.83333333333334 0 93.83333333333334 4L 93.83333333333334 34.458333333333314Q 93.83333333333334 38.458333333333314 89.83333333333334 38.458333333333314L 4 38.458333333333314Q 0 38.458333333333314 0 34.458333333333314Z" stroke="rgba(33,41,48,1)" stroke-width="1.5" fill-opacity="1" fill="#f6edc1"></path><g id="SvgjsG3142"><text id="SvgjsText3143" font-family="微软雅黑" text-anchor="middle" font-size="15px" width="74px" fill="#323232" font-weight="700" align="middle" lineHeight="125%" anchor="middle" family="微软雅黑" size="15px" weight="700" font-style="" opacity="1" y="6.854166666666657" transform="rotate(0)"><tspan id="SvgjsTspan3144" dy="18.75" x="47"><tspan id="SvgjsTspan3145" style="">read</tspan></tspan></text></g></g><g id="SvgjsG3146" transform="translate(324.58333333333337,152.50000000000003)"><path id="SvgjsPath3147" d="M 0 4Q 0 0 4 0L 89.83333333333334 0Q 93.83333333333334 0 93.83333333333334 4L 93.83333333333334 34.458333333333314Q 93.83333333333334 38.458333333333314 89.83333333333334 38.458333333333314L 4 38.458333333333314Q 0 38.458333333333314 0 34.458333333333314Z" stroke="rgba(33,41,48,1)" stroke-width="1.5" fill-opacity="1" fill="#f6edc1"></path><g id="SvgjsG3148"><text id="SvgjsText3149" font-family="微软雅黑" text-anchor="middle" font-size="15px" width="74px" fill="#323232" font-weight="700" align="middle" lineHeight="125%" anchor="middle" family="微软雅黑" size="15px" weight="700" font-style="" opacity="1" y="6.854166666666657" transform="rotate(0)"><tspan id="SvgjsTspan3150" dy="18.75" x="47"><tspan id="SvgjsTspan3151" style="">load</tspan></tspan></text></g></g><g id="SvgjsG3152" transform="translate(324.58333333333337,216.25)"><path id="SvgjsPath3153" d="M 0 4Q 0 0 4 0L 89.83333333333334 0Q 93.83333333333334 0 93.83333333333334 4L 93.83333333333334 34.458333333333314Q 93.83333333333334 38.458333333333314 89.83333333333334 38.458333333333314L 4 38.458333333333314Q 0 38.458333333333314 0 34.458333333333314Z" stroke="rgba(33,41,48,1)" stroke-width="1.5" fill-opacity="1" fill="#f6edc1"></path><g id="SvgjsG3154"><text id="SvgjsText3155" font-family="微软雅黑" text-anchor="middle" font-size="15px" width="74px" fill="#323232" font-weight="700" align="middle" lineHeight="125%" anchor="middle" family="微软雅黑" size="15px" weight="700" font-style="" opacity="1" y="6.854166666666657" transform="rotate(0)"><tspan id="SvgjsTspan3156" dy="18.75" x="47"><tspan id="SvgjsTspan3157" style="">use</tspan></tspan></text></g></g><g id="SvgjsG3158" transform="translate(324.58333333333337,280)"><path id="SvgjsPath3159" d="M 0 4Q 0 0 4 0L 89.83333333333334 0Q 93.83333333333334 0 93.83333333333334 4L 93.83333333333334 34.458333333333314Q 93.83333333333334 38.458333333333314 89.83333333333334 38.458333333333314L 4 38.458333333333314Q 0 38.458333333333314 0 34.458333333333314Z" stroke="rgba(33,41,48,1)" stroke-width="1.5" fill-opacity="1" fill="#f6edc1"></path><g id="SvgjsG3160"><text id="SvgjsText3161" font-family="微软雅黑" text-anchor="middle" font-size="15px" width="74px" fill="#323232" font-weight="700" align="middle" lineHeight="125%" anchor="middle" family="微软雅黑" size="15px" weight="700" font-style="" opacity="1" y="6.854166666666657" transform="rotate(0)"><tspan id="SvgjsTspan3162" dy="18.75" x="47"><tspan id="SvgjsTspan3163" style="">assign</tspan></tspan></text></g></g><g id="SvgjsG3164" transform="translate(324.58333333333337,343.75)"><path id="SvgjsPath3165" d="M 0 4Q 0 0 4 0L 89.83333333333334 0Q 93.83333333333334 0 93.83333333333334 4L 93.83333333333334 34.458333333333314Q 93.83333333333334 38.458333333333314 89.83333333333334 38.458333333333314L 4 38.458333333333314Q 0 38.458333333333314 0 34.458333333333314Z" stroke="rgba(33,41,48,1)" stroke-width="1.5" fill-opacity="1" fill="#f6edc1"></path><g id="SvgjsG3166"><text id="SvgjsText3167" font-family="微软雅黑" text-anchor="middle" font-size="15px" width="74px" fill="#323232" font-weight="700" align="middle" lineHeight="125%" anchor="middle" family="微软雅黑" size="15px" weight="700" font-style="" opacity="1" y="6.854166666666657" transform="rotate(0)"><tspan id="SvgjsTspan3168" dy="18.75" x="47"><tspan id="SvgjsTspan3169" style="">store</tspan></tspan></text></g></g><g id="SvgjsG3170" transform="translate(324.58333333333337,407.4999999999999)"><path id="SvgjsPath3171" d="M 0 4Q 0 0 4 0L 89.83333333333334 0Q 93.83333333333334 0 93.83333333333334 4L 93.83333333333334 34.458333333333314Q 93.83333333333334 38.458333333333314 89.83333333333334 38.458333333333314L 4 38.458333333333314Q 0 38.458333333333314 0 34.458333333333314Z" stroke="rgba(33,41,48,1)" stroke-width="1.5" fill-opacity="1" fill="#f6edc1"></path><g id="SvgjsG3172"><text id="SvgjsText3173" font-family="微软雅黑" text-anchor="middle" font-size="15px" width="74px" fill="#323232" font-weight="700" align="middle" lineHeight="125%" anchor="middle" family="微软雅黑" size="15px" weight="700" font-style="" opacity="1" y="6.854166666666657" transform="rotate(0)"><tspan id="SvgjsTspan3174" dy="18.75" x="47"><tspan id="SvgjsTspan3175" style="">write</tspan></tspan></text></g></g><g id="SvgjsG3176"><path id="SvgjsPath3177" d="M121.53333333333336 107.97916666666666C 201.13333333333333 107.97916666666657 242.28333333333336 107.97916666666666 321.8833333333334 107.97916666666666" stroke="#323232" stroke-width="1.5" fill="none" marker-start="url(#SvgjsMarker3178)" marker-end="url(#SvgjsMarker3180)"></path></g><g id="SvgjsG3182"><path id="SvgjsPath3183" d="M71.91666666666669 127.95833333333331C 71.91666666666669 137.325 71.91666666666669 142.38333333333333 71.91666666666669 149.8" stroke="#323232" stroke-width="1.5" fill="none" marker-end="url(#SvgjsMarker3184)"></path></g><g id="SvgjsG3186"><path id="SvgjsPath3187" d="M71.91666666666669 191.70833333333331C 71.91666666666669 201.075 71.91666666666669 206.13333333333333 71.91666666666669 213.55" stroke="#323232" stroke-width="1.5" fill="none" marker-end="url(#SvgjsMarker3188)"></path></g><g id="SvgjsG3190"><path id="SvgjsPath3191" d="M71.91666666666669 255.45833333333331C 71.91666666666669 264.825 71.91666666666669 269.8833333333333 71.91666666666669 277.3" stroke="#323232" stroke-width="1.5" fill="none" marker-end="url(#SvgjsMarker3192)"></path></g><g id="SvgjsG3194"><path id="SvgjsPath3195" d="M71.91666666666669 319.2083333333333C 71.91666666666669 328.575 71.91666666666669 333.6333333333333 71.91666666666669 341.05" stroke="#323232" stroke-width="1.5" fill="none" marker-end="url(#SvgjsMarker3196)"></path></g><g id="SvgjsG3198"><path id="SvgjsPath3199" d="M71.91666666666669 382.9583333333333C 71.91666666666669 392.325 71.91666666666669 397.3833333333333 71.91666666666669 404.8" stroke="#323232" stroke-width="1.5" fill="none" marker-end="url(#SvgjsMarker3200)"></path></g><g id="SvgjsG3202"><path id="SvgjsPath3203" d="M371.50000000000006 127.95833333333331C 371.50000000000006 137.325 371.50000000000006 142.38333333333335 371.50000000000006 149.80000000000004" stroke="#323232" stroke-width="1.5" fill="none" marker-end="url(#SvgjsMarker3204)"></path></g><g id="SvgjsG3206"><path id="SvgjsPath3207" d="M371.50000000000006 191.70833333333331C 371.50000000000006 201.075 371.50000000000006 206.13333333333333 371.50000000000006 213.55" stroke="#323232" stroke-width="1.5" fill="none" marker-end="url(#SvgjsMarker3208)"></path></g><g id="SvgjsG3210"><path id="SvgjsPath3211" d="M371.50000000000006 255.45833333333331C 371.50000000000006 264.825 371.50000000000006 269.8833333333333 371.50000000000006 277.3" stroke="#323232" stroke-width="1.5" fill="none" marker-end="url(#SvgjsMarker3212)"></path></g><g id="SvgjsG3214"><path id="SvgjsPath3215" d="M371.50000000000006 319.2083333333333C 371.50000000000006 328.575 371.50000000000006 333.6333333333333 371.50000000000006 341.05" stroke="#323232" stroke-width="1.5" fill="none" marker-end="url(#SvgjsMarker3216)"></path></g><g id="SvgjsG3218"><path id="SvgjsPath3219" d="M371.50000000000006 382.9583333333333C 371.50000000000006 392.32499999999993 371.50000000000006 397.38333333333327 371.50000000000006 404.7999999999999" stroke="#323232" stroke-width="1.5" fill="none" marker-end="url(#SvgjsMarker3220)"></path></g><g id="SvgjsG3222"><path id="SvgjsPath3223" d="M71.91666666666669 446.7083333333333L71.91666666666669 475.9583333333333L371.50000000000006 475.9583333333333L371.50000000000006 446.7083333333333" stroke="#323232" stroke-width="1.5" fill="none"></path></g><g id="SvgjsG3224"><path id="SvgjsPath3225" d="M221.70833333333337 282.7L221.70833333333337 378.50000000000006L221.70833333333337 378.50000000000006L221.70833333333337 477.00000000000006" stroke="#323232" stroke-width="1.5" fill="none" marker-start="url(#SvgjsMarker3226)"></path></g><g id="SvgjsG3228"><path id="SvgjsPath3229" d="M221.70833333333337 222.66666666666669L221.70833333333337 165.83333333333331L221.70833333333337 165.83333333333331L221.70833333333337 108.25" stroke="#323232" stroke-width="1.5" fill="none"></path></g><g id="SvgjsG3230"><path id="SvgjsPath3231" d="M323.8374153483327 108.05730986632292L73.41666666666669 134.29166666666666" stroke-dasharray="8,5" stroke="#323232" stroke-width="1.5" fill="none" marker-end="url(#SvgjsMarker3232)"></path></g><g id="SvgjsG3234"><path id="SvgjsPath3235" d="M323.87843513993346 108.23532782090652L74.45833333333334 198.875" stroke-dasharray="8,5" stroke="#323232" stroke-width="1.5" fill="none" marker-end="url(#SvgjsMarker3236)"></path></g><g id="SvgjsG3238"><path id="SvgjsPath3239" d="M323.945628837009 108.37392352267767L73.41666666666669 263.4583333333333" stroke-dasharray="8,5" stroke="#323232" stroke-width="1.5" fill="none" marker-end="url(#SvgjsMarker3240)"></path></g><g id="SvgjsG3242"><path id="SvgjsPath3243" d="M324.0167487396843 108.47057474376709L74.45833333333334 324.9166666666667" stroke-dasharray="8,5" stroke="#323232" stroke-width="1.5" fill="none" marker-end="url(#SvgjsMarker3244)"></path></g><g id="SvgjsG3246"><path id="SvgjsPath3247" d="M324.08415787294626 108.53892005857003L74.45833333333334 388.4583333333333" stroke-dasharray="8,5" stroke="#323232" stroke-width="1.5" fill="none" marker-end="url(#SvgjsMarker3248)"></path></g><g id="SvgjsG3250"><path id="SvgjsPath3251" d="M324.14714119772896 108.5892784767776L73.41666666666669 459.2916666666667" stroke-dasharray="8,5" stroke="#323232" stroke-width="1.5" fill="none" marker-end="url(#SvgjsMarker3252)"></path></g><g id="SvgjsG3254" transform="translate(156.81250000000006,223.41666666666669)"><path id="SvgjsPath3255" d="M 0 28.291666666666657C 0 -9.430555555555552 129.79166666666663 -9.430555555555552 129.79166666666663 28.291666666666657C 129.79166666666663 66.01388888888887 0 66.01388888888887 0 28.291666666666657Z" stroke="rgba(33,41,48,1)" stroke-width="1.5" fill-opacity="1" fill="#f19594"></path><g id="SvgjsG3256"><text id="SvgjsText3257" font-family="微软雅黑" text-anchor="middle" font-size="15px" width="110px" fill="#323232" font-weight="400" align="middle" lineHeight="125%" anchor="middle" family="微软雅黑" size="15px" weight="400" font-style="" opacity="1" y="15.916666666666657" transform="rotate(0)"><tspan id="SvgjsTspan3258" dy="18.75" x="65"><tspan id="SvgjsTspan3259" style="font-weight: bold;">主内存对象</tspan></tspan></text></g></g></svg>