<svg id="SvgjsSvg1006" width="835" height="233" xmlns="http://www.w3.org/2000/svg" version="1.1" xmlns:xlink="http://www.w3.org/1999/xlink" xmlns:svgjs="http://svgjs.com/svgjs"><defs id="SvgjsDefs1007"><pattern patternUnits="userSpaceOnUse" id="pattern_mark_0" width="300" height="300"><text x="150" y="100" fill="rgba(229,229,229,0.8)" font-size="18" transform="rotate(-45, 150, 150)" style="dominant-baseline: middle; text-anchor: middle;"></text></pattern><pattern patternUnits="userSpaceOnUse" id="pattern_mark_1" width="300" height="300"><text x="150" y="200" fill="rgba(229,229,229,0.8)" font-size="18" transform="rotate(-45, 150, 150)" style="dominant-baseline: middle; text-anchor: middle;"></text></pattern></defs><rect id="svgbackgroundid" width="835" height="233" fill="transparent"></rect><rect id="SvgjsRect1009" width="835" height="233" fill="url(#pattern_mark_0)"></rect><rect id="SvgjsRect1010" width="835" height="233" fill="url(#pattern_mark_1)"></rect><g id="SvgjsG1011" transform="translate(41.5,25)"><path id="SvgjsPath1012" d="M 0 0L 768.5 0L 768.5 183L 0 183Z" stroke="rgba(33,41,48,1)" stroke-width="1.5" fill-opacity="1" fill="#d7dff2"></path><g id="SvgjsG1013"><text id="SvgjsText1014" font-family="&quot;Microsoft YaHei&quot;, 微软雅黑, Arial" text-anchor="end" font-size="13px" width="749px" fill="#323232" font-weight="700" align="top" lineHeight="125%" anchor="end" family="&quot;Microsoft YaHei&quot;, 微软雅黑, Arial" size="13px" weight="700" font-style="" opacity="1" y="-2.625" transform="rotate(0)"><tspan id="SvgjsTspan1015" dy="16.25" x="759"><tspan id="SvgjsTspan1016" style="">Java</tspan></tspan><tspan id="SvgjsTspan1017" dy="16.25" x="759"><tspan id="SvgjsTspan1018" style="">源码级</tspan></tspan><tspan id="SvgjsTspan1019" dy="16.25" x="759"><tspan id="SvgjsTspan1020" style="">编译器</tspan></tspan></text></g></g><g id="SvgjsG1021" transform="translate(213,41)"><path id="SvgjsPath1022" d="M 0 4Q 0 0 4 0L 31 0Q 35 0 35 4L 35 146Q 35 150 31 150L 4 150Q 0 150 0 146Z" stroke="rgba(33,41,48,1)" stroke-width="1.5" fill-opacity="1" fill="#f8e0e0"></path><g id="SvgjsG1023"><text id="SvgjsText1024" font-family="&quot;Microsoft YaHei&quot;, 微软雅黑, Arial" text-anchor="middle" font-size="13px" width="15px" fill="#323232" font-weight="400" align="middle" lineHeight="125%" anchor="middle" family="&quot;Microsoft YaHei&quot;, 微软雅黑, Arial" size="13px" weight="400" font-style="" opacity="1" y="23.375" transform="rotate(0)"><tspan id="SvgjsTspan1025" dy="16.25" x="17.5"><tspan id="SvgjsTspan1026" style="">T</tspan></tspan><tspan id="SvgjsTspan1027" dy="16.25" x="17.5"><tspan id="SvgjsTspan1028" style="">o</tspan></tspan><tspan id="SvgjsTspan1029" dy="16.25" x="17.5"><tspan id="SvgjsTspan1030" style="">k</tspan></tspan><tspan id="SvgjsTspan1031" dy="16.25" x="17.5"><tspan id="SvgjsTspan1032" style="">e</tspan></tspan><tspan id="SvgjsTspan1033" dy="16.25" x="17.5"><tspan id="SvgjsTspan1034" style="">n</tspan></tspan><tspan id="SvgjsTspan1035" dy="16.25" x="17.5"><tspan id="SvgjsTspan1036" style="">流</tspan></tspan></text></g></g><g id="SvgjsG1037" transform="translate(63,41)"><path id="SvgjsPath1038" d="M 0 4Q 0 0 4 0L 31 0Q 35 0 35 4L 35 146Q 35 150 31 150L 4 150Q 0 150 0 146Z" stroke="rgba(33,41,48,1)" stroke-width="1.5" fill-opacity="1" fill="#f8e0e0"></path><g id="SvgjsG1039"><text id="SvgjsText1040" font-family="&quot;Microsoft YaHei&quot;, 微软雅黑, Arial" text-anchor="middle" font-size="13px" width="15px" fill="#323232" font-weight="400" align="middle" lineHeight="125%" anchor="middle" family="&quot;Microsoft YaHei&quot;, 微软雅黑, Arial" size="13px" weight="400" font-style="" opacity="1" y="47.875" transform="rotate(0)"><tspan id="SvgjsTspan1041" dy="16.25" x="17.5"><tspan id="SvgjsTspan1042" style="">源</tspan></tspan><tspan id="SvgjsTspan1043" dy="16.25" x="17.5"><tspan id="SvgjsTspan1044" style="">代</tspan></tspan><tspan id="SvgjsTspan1045" dy="16.25" x="17.5"><tspan id="SvgjsTspan1046" style="">码</tspan></tspan></text></g></g><g id="SvgjsG1047" transform="translate(513,41)"><path id="SvgjsPath1048" d="M 0 4Q 0 0 4 0L 31 0Q 35 0 35 4L 35 146Q 35 150 31 150L 4 150Q 0 150 0 146Z" stroke="rgba(33,41,48,1)" stroke-width="1.5" fill-opacity="1" fill="#f8e0e0"></path><g id="SvgjsG1049"><text id="SvgjsText1050" font-family="&quot;Microsoft YaHei&quot;, 微软雅黑, Arial" text-anchor="middle" font-size="13px" width="15px" fill="#323232" font-weight="400" align="middle" lineHeight="125%" anchor="middle" family="&quot;Microsoft YaHei&quot;, 微软雅黑, Arial" size="13px" weight="400" font-style="" opacity="1" y="15.375" transform="rotate(0)"><tspan id="SvgjsTspan1051" dy="16.25" x="17.5"><tspan id="SvgjsTspan1052" style="">注</tspan></tspan><tspan id="SvgjsTspan1053" dy="16.25" x="17.5"><tspan id="SvgjsTspan1054" style="">解</tspan></tspan><tspan id="SvgjsTspan1055" dy="16.25" x="17.5"><tspan id="SvgjsTspan1056" style="">抽</tspan></tspan><tspan id="SvgjsTspan1057" dy="16.25" x="17.5"><tspan id="SvgjsTspan1058" style="">象</tspan></tspan><tspan id="SvgjsTspan1059" dy="16.25" x="17.5"><tspan id="SvgjsTspan1060" style="">语</tspan></tspan><tspan id="SvgjsTspan1061" dy="16.25" x="17.5"><tspan id="SvgjsTspan1062" style="">法</tspan></tspan><tspan id="SvgjsTspan1063" dy="16.25" x="17.5"><tspan id="SvgjsTspan1064" style="">树</tspan></tspan></text></g></g><g id="SvgjsG1065" transform="translate(663,41)"><path id="SvgjsPath1066" d="M 0 4Q 0 0 4 0L 31 0Q 35 0 35 4L 35 146Q 35 150 31 150L 4 150Q 0 150 0 146Z" stroke="rgba(33,41,48,1)" stroke-width="1.5" fill-opacity="1" fill="#f8e0e0"></path><g id="SvgjsG1067"><text id="SvgjsText1068" font-family="&quot;Microsoft YaHei&quot;, 微软雅黑, Arial" text-anchor="middle" font-size="13px" width="15px" fill="#323232" font-weight="400" align="middle" lineHeight="125%" anchor="middle" family="&quot;Microsoft YaHei&quot;, 微软雅黑, Arial" size="13px" weight="400" font-style="" opacity="1" y="23.375" transform="rotate(0)"><tspan id="SvgjsTspan1069" dy="16.25" x="17.5"><tspan id="SvgjsTspan1070" style="">J</tspan></tspan><tspan id="SvgjsTspan1071" dy="16.25" x="17.5"><tspan id="SvgjsTspan1072" style="">V</tspan></tspan><tspan id="SvgjsTspan1073" dy="16.25" x="17.5"><tspan id="SvgjsTspan1074" style="">M</tspan></tspan><tspan id="SvgjsTspan1075" dy="16.25" x="17.5"><tspan id="SvgjsTspan1076" style="">字</tspan></tspan><tspan id="SvgjsTspan1077" dy="16.25" x="17.5"><tspan id="SvgjsTspan1078" style="">节</tspan></tspan><tspan id="SvgjsTspan1079" dy="16.25" x="17.5"><tspan id="SvgjsTspan1080" style="">码</tspan></tspan></text></g></g><g id="SvgjsG1081" transform="translate(588,41)"><path id="SvgjsPath1082" d="M 0 4Q 0 0 4 0L 31 0Q 35 0 35 4L 35 146Q 35 150 31 150L 4 150Q 0 150 0 146Z" stroke="rgba(33,41,48,1)" stroke-width="1.5" fill-opacity="1" fill="#e0f0f9"></path><g id="SvgjsG1083"><text id="SvgjsText1084" font-family="&quot;Microsoft YaHei&quot;, 微软雅黑, Arial" text-anchor="middle" font-size="13px" width="15px" fill="#323232" font-weight="400" align="middle" lineHeight="125%" anchor="middle" family="&quot;Microsoft YaHei&quot;, 微软雅黑, Arial" size="13px" weight="400" font-style="" opacity="1" y="23.375" transform="rotate(0)"><tspan id="SvgjsTspan1085" dy="16.25" x="17.5"><tspan id="SvgjsTspan1086" style="">字</tspan></tspan><tspan id="SvgjsTspan1087" dy="16.25" x="17.5"><tspan id="SvgjsTspan1088" style="">节</tspan></tspan><tspan id="SvgjsTspan1089" dy="16.25" x="17.5"><tspan id="SvgjsTspan1090" style="">码</tspan></tspan><tspan id="SvgjsTspan1091" dy="16.25" x="17.5"><tspan id="SvgjsTspan1092" style="">生</tspan></tspan><tspan id="SvgjsTspan1093" dy="16.25" x="17.5"><tspan id="SvgjsTspan1094" style="">成</tspan></tspan><tspan id="SvgjsTspan1095" dy="16.25" x="17.5"><tspan id="SvgjsTspan1096" style="">器</tspan></tspan></text></g></g><g id="SvgjsG1097" transform="translate(363,41)"><path id="SvgjsPath1098" d="M 0 4Q 0 0 4 0L 31 0Q 35 0 35 4L 35 146Q 35 150 31 150L 4 150Q 0 150 0 146Z" stroke="rgba(33,41,48,1)" stroke-width="1.5" fill-opacity="1" fill="#f8e0e0"></path><g id="SvgjsG1099"><text id="SvgjsText1100" font-family="&quot;Microsoft YaHei&quot;, 微软雅黑, Arial" text-anchor="middle" font-size="13px" width="15px" fill="#323232" font-weight="400" align="middle" lineHeight="125%" anchor="middle" family="&quot;Microsoft YaHei&quot;, 微软雅黑, Arial" size="13px" weight="400" font-style="" opacity="1" y="-0.625" transform="rotate(0)"><tspan id="SvgjsTspan1101" dy="16.25" x="17.5"><tspan id="SvgjsTspan1102" style="">语</tspan></tspan><tspan id="SvgjsTspan1103" dy="16.25" x="17.5"><tspan id="SvgjsTspan1104" style="">法</tspan></tspan><tspan id="SvgjsTspan1105" dy="16.25" x="17.5"><tspan id="SvgjsTspan1106" style="">树</tspan></tspan><tspan id="SvgjsTspan1107" dy="16.25" x="17.5"><tspan id="SvgjsTspan1108" style="">/</tspan></tspan><tspan id="SvgjsTspan1109" dy="16.25" x="17.5"><tspan id="SvgjsTspan1110" style="">抽</tspan></tspan><tspan id="SvgjsTspan1111" dy="16.25" x="17.5"><tspan id="SvgjsTspan1112" style="">象</tspan></tspan><tspan id="SvgjsTspan1113" dy="16.25" x="17.5"><tspan id="SvgjsTspan1114" style="">语</tspan></tspan><tspan id="SvgjsTspan1115" dy="16.25" x="17.5"><tspan id="SvgjsTspan1116" style="">法</tspan></tspan><tspan id="SvgjsTspan1117" dy="16.25" x="17.5"><tspan id="SvgjsTspan1118" style="">树</tspan></tspan></text></g></g><g id="SvgjsG1119" transform="translate(438,41)"><path id="SvgjsPath1120" d="M 0 4Q 0 0 4 0L 31 0Q 35 0 35 4L 35 146Q 35 150 31 150L 4 150Q 0 150 0 146Z" stroke="rgba(33,41,48,1)" stroke-width="1.5" fill-opacity="1" fill="#e0f0f9"></path><g id="SvgjsG1121"><text id="SvgjsText1122" font-family="&quot;Microsoft YaHei&quot;, 微软雅黑, Arial" text-anchor="middle" font-size="13px" width="15px" fill="#323232" font-weight="400" align="middle" lineHeight="125%" anchor="middle" family="&quot;Microsoft YaHei&quot;, 微软雅黑, Arial" size="13px" weight="400" font-style="" opacity="1" y="31.875" transform="rotate(0)"><tspan id="SvgjsTspan1123" dy="16.25" x="17.5"><tspan id="SvgjsTspan1124" style="">语</tspan></tspan><tspan id="SvgjsTspan1125" dy="16.25" x="17.5"><tspan id="SvgjsTspan1126" style="">义</tspan></tspan><tspan id="SvgjsTspan1127" dy="16.25" x="17.5"><tspan id="SvgjsTspan1128" style="">分</tspan></tspan><tspan id="SvgjsTspan1129" dy="16.25" x="17.5"><tspan id="SvgjsTspan1130" style="">析</tspan></tspan><tspan id="SvgjsTspan1131" dy="16.25" x="17.5"><tspan id="SvgjsTspan1132" style="">器</tspan></tspan></text></g></g><g id="SvgjsG1133" transform="translate(288,41)"><path id="SvgjsPath1134" d="M 0 4Q 0 0 4 0L 31 0Q 35 0 35 4L 35 146Q 35 150 31 150L 4 150Q 0 150 0 146Z" stroke="rgba(33,41,48,1)" stroke-width="1.5" fill-opacity="1" fill="#e0f0f9"></path><g id="SvgjsG1135"><text id="SvgjsText1136" font-family="&quot;Microsoft YaHei&quot;, 微软雅黑, Arial" text-anchor="middle" font-size="13px" width="15px" fill="#323232" font-weight="400" align="middle" lineHeight="125%" anchor="middle" family="&quot;Microsoft YaHei&quot;, 微软雅黑, Arial" size="13px" weight="400" font-style="" opacity="1" y="31.875" transform="rotate(0)"><tspan id="SvgjsTspan1137" dy="16.25" x="17.5"><tspan id="SvgjsTspan1138" style="">语</tspan></tspan><tspan id="SvgjsTspan1139" dy="16.25" x="17.5"><tspan id="SvgjsTspan1140" style="">法</tspan></tspan><tspan id="SvgjsTspan1141" dy="16.25" x="17.5"><tspan id="SvgjsTspan1142" style="">分</tspan></tspan><tspan id="SvgjsTspan1143" dy="16.25" x="17.5"><tspan id="SvgjsTspan1144" style="">析</tspan></tspan><tspan id="SvgjsTspan1145" dy="16.25" x="17.5"><tspan id="SvgjsTspan1146" style="">器</tspan></tspan></text></g></g><g id="SvgjsG1147" transform="translate(138,41)"><path id="SvgjsPath1148" d="M 0 4Q 0 0 4 0L 31 0Q 35 0 35 4L 35 146Q 35 150 31 150L 4 150Q 0 150 0 146Z" stroke="rgba(33,41,48,1)" stroke-width="1.5" fill-opacity="1" fill="#e0f0f9"></path><g id="SvgjsG1149"><text id="SvgjsText1150" font-family="&quot;Microsoft YaHei&quot;, 微软雅黑, Arial" text-anchor="middle" font-size="13px" width="15px" fill="#323232" font-weight="400" align="middle" lineHeight="125%" anchor="middle" family="&quot;Microsoft YaHei&quot;, 微软雅黑, Arial" size="13px" weight="400" font-style="" opacity="1" y="31.875" transform="rotate(0)"><tspan id="SvgjsTspan1151" dy="16.25" x="17.5"><tspan id="SvgjsTspan1152" style="">词</tspan></tspan><tspan id="SvgjsTspan1153" dy="16.25" x="17.5"><tspan id="SvgjsTspan1154" style="">法</tspan></tspan><tspan id="SvgjsTspan1155" dy="16.25" x="17.5"><tspan id="SvgjsTspan1156" style="">分</tspan></tspan><tspan id="SvgjsTspan1157" dy="16.25" x="17.5"><tspan id="SvgjsTspan1158" style="">析</tspan></tspan><tspan id="SvgjsTspan1159" dy="16.25" x="17.5"><tspan id="SvgjsTspan1160" style="">器</tspan></tspan></text></g></g><g id="SvgjsG1161" transform="translate(98.5,104)"><path id="SvgjsPath1162" d="M 0 8.25L 26.5 8.25L 26.5 0L 39 12.5L 26.5 25L 26.5 16.75L 0 16.75L 0 8.25Z" stroke="none" fill-opacity="1" fill="#467e93"></path><g id="SvgjsG1163"><text id="SvgjsText1164" font-family="&quot;Microsoft YaHei&quot;, 微软雅黑, Arial" text-anchor="middle" font-size="13px" width="39px" fill="#323232" font-weight="400" align="middle" lineHeight="125%" anchor="middle" family="&quot;Microsoft YaHei&quot;, 微软雅黑, Arial" size="13px" weight="400" font-style="" opacity="1" y="1.875" transform="rotate(0)"></text></g></g><g id="SvgjsG1165" transform="translate(173.5,104)"><path id="SvgjsPath1166" d="M 0 8.25L 26.5 8.25L 26.5 0L 39 12.5L 26.5 25L 26.5 16.75L 0 16.75L 0 8.25Z" stroke="none" fill-opacity="1" fill="#467e93"></path><g id="SvgjsG1167"><text id="SvgjsText1168" font-family="&quot;Microsoft YaHei&quot;, 微软雅黑, Arial" text-anchor="middle" font-size="13px" width="39px" fill="#323232" font-weight="400" align="middle" lineHeight="125%" anchor="middle" family="&quot;Microsoft YaHei&quot;, 微软雅黑, Arial" size="13px" weight="400" font-style="" opacity="1" y="1.875" transform="rotate(0)"></text></g></g><g id="SvgjsG1169" transform="translate(248.5,104)"><path id="SvgjsPath1170" d="M 0 8.25L 26.5 8.25L 26.5 0L 39 12.5L 26.5 25L 26.5 16.75L 0 16.75L 0 8.25Z" stroke="none" fill-opacity="1" fill="#467e93"></path><g id="SvgjsG1171"><text id="SvgjsText1172" font-family="&quot;Microsoft YaHei&quot;, 微软雅黑, Arial" text-anchor="middle" font-size="13px" width="39px" fill="#323232" font-weight="400" align="middle" lineHeight="125%" anchor="middle" family="&quot;Microsoft YaHei&quot;, 微软雅黑, Arial" size="13px" weight="400" font-style="" opacity="1" y="1.875" transform="rotate(0)"></text></g></g><g id="SvgjsG1173" transform="translate(323.5,104)"><path id="SvgjsPath1174" d="M 0 8.25L 26.5 8.25L 26.5 0L 39 12.5L 26.5 25L 26.5 16.75L 0 16.75L 0 8.25Z" stroke="none" fill-opacity="1" fill="#467e93"></path><g id="SvgjsG1175"><text id="SvgjsText1176" font-family="&quot;Microsoft YaHei&quot;, 微软雅黑, Arial" text-anchor="middle" font-size="13px" width="39px" fill="#323232" font-weight="400" align="middle" lineHeight="125%" anchor="middle" family="&quot;Microsoft YaHei&quot;, 微软雅黑, Arial" size="13px" weight="400" font-style="" opacity="1" y="1.875" transform="rotate(0)"></text></g></g><g id="SvgjsG1177" transform="translate(398.5,104)"><path id="SvgjsPath1178" d="M 0 8.25L 26.5 8.25L 26.5 0L 39 12.5L 26.5 25L 26.5 16.75L 0 16.75L 0 8.25Z" stroke="none" fill-opacity="1" fill="#467e93"></path><g id="SvgjsG1179"><text id="SvgjsText1180" font-family="&quot;Microsoft YaHei&quot;, 微软雅黑, Arial" text-anchor="middle" font-size="13px" width="39px" fill="#323232" font-weight="400" align="middle" lineHeight="125%" anchor="middle" family="&quot;Microsoft YaHei&quot;, 微软雅黑, Arial" size="13px" weight="400" font-style="" opacity="1" y="1.875" transform="rotate(0)"></text></g></g><g id="SvgjsG1181" transform="translate(473.5,104)"><path id="SvgjsPath1182" d="M 0 8.25L 26.5 8.25L 26.5 0L 39 12.5L 26.5 25L 26.5 16.75L 0 16.75L 0 8.25Z" stroke="none" fill-opacity="1" fill="#467e93"></path><g id="SvgjsG1183"><text id="SvgjsText1184" font-family="&quot;Microsoft YaHei&quot;, 微软雅黑, Arial" text-anchor="middle" font-size="13px" width="39px" fill="#323232" font-weight="400" align="middle" lineHeight="125%" anchor="middle" family="&quot;Microsoft YaHei&quot;, 微软雅黑, Arial" size="13px" weight="400" font-style="" opacity="1" y="1.875" transform="rotate(0)"></text></g></g><g id="SvgjsG1185" transform="translate(548.5,104)"><path id="SvgjsPath1186" d="M 0 8.25L 26.5 8.25L 26.5 0L 39 12.5L 26.5 25L 26.5 16.75L 0 16.75L 0 8.25Z" stroke="none" fill-opacity="1" fill="#467e93"></path><g id="SvgjsG1187"><text id="SvgjsText1188" font-family="&quot;Microsoft YaHei&quot;, 微软雅黑, Arial" text-anchor="middle" font-size="13px" width="39px" fill="#323232" font-weight="400" align="middle" lineHeight="125%" anchor="middle" family="&quot;Microsoft YaHei&quot;, 微软雅黑, Arial" size="13px" weight="400" font-style="" opacity="1" y="1.875" transform="rotate(0)"></text></g></g><g id="SvgjsG1189" transform="translate(623.5,104)"><path id="SvgjsPath1190" d="M 0 8.25L 26.5 8.25L 26.5 0L 39 12.5L 26.5 25L 26.5 16.75L 0 16.75L 0 8.25Z" stroke="none" fill-opacity="1" fill="#467e93"></path><g id="SvgjsG1191"><text id="SvgjsText1192" font-family="&quot;Microsoft YaHei&quot;, 微软雅黑, Arial" text-anchor="middle" font-size="13px" width="39px" fill="#323232" font-weight="400" align="middle" lineHeight="125%" anchor="middle" family="&quot;Microsoft YaHei&quot;, 微软雅黑, Arial" size="13px" weight="400" font-style="" opacity="1" y="1.875" transform="rotate(0)"></text></g></g><g id="SvgjsG1193" transform="translate(718,156)"><path id="SvgjsPath1194" d="M 0 4Q 0 0 4 0L 76 0Q 80 0 80 4L 80 31Q 80 35 76 35L 4 35Q 0 35 0 31Z" stroke="rgba(33,41,48,1)" stroke-width="1.5" fill-opacity="1" fill="#fcf8c8"></path><g id="SvgjsG1195"><text id="SvgjsText1196" font-family="&quot;Microsoft YaHei&quot;, 微软雅黑, Arial" text-anchor="middle" font-size="13px" width="60px" fill="#323232" font-weight="400" align="middle" lineHeight="125%" anchor="middle" family="&quot;Microsoft YaHei&quot;, 微软雅黑, Arial" size="13px" weight="400" font-style="" opacity="1" y="6.875" transform="rotate(0)"><tspan id="SvgjsTspan1197" dy="16.25" x="40"><tspan id="SvgjsTspan1198" style="">符号表</tspan></tspan></text></g></g><g id="SvgjsG1199"></g></svg>