<svg id="SvgjsSvg1097" width="626.5" height="408.5" xmlns="http://www.w3.org/2000/svg" version="1.1" xmlns:xlink="http://www.w3.org/1999/xlink" xmlns:svgjs="http://svgjs.com/svgjs"><defs id="SvgjsDefs1098"><pattern patternUnits="userSpaceOnUse" id="pattern_mark_0" width="300" height="300"><text x="150" y="100" fill="rgba(229,229,229,0.8)" font-size="18" transform="rotate(-45, 150, 150)" style="dominant-baseline: middle; text-anchor: middle;"></text></pattern><pattern patternUnits="userSpaceOnUse" id="pattern_mark_1" width="300" height="300"><text x="150" y="200" fill="rgba(229,229,229,0.8)" font-size="18" transform="rotate(-45, 150, 150)" style="dominant-baseline: middle; text-anchor: middle;"></text></pattern><marker id="SvgjsMarker1165" markerWidth="13" markerHeight="9" refX="9.5" refY="4.5" viewBox="0 0 13 9" orient="auto" markerUnits="userSpaceOnUse" stroke-dasharray="0,0"><path id="SvgjsPath1166" d="M0,0 L13,4.5 L0,9 L0,0" fill="#7697b6" stroke="#7697b6" stroke-width="1"></path></marker><marker id="SvgjsMarker1169" markerWidth="13" markerHeight="9" refX="9.5" refY="4.5" viewBox="0 0 13 9" orient="auto" markerUnits="userSpaceOnUse" stroke-dasharray="0,0"><path id="SvgjsPath1170" d="M0,0 L13,4.5 L0,9 L0,0" fill="#7697b6" stroke="#7697b6" stroke-width="1"></path></marker><marker id="SvgjsMarker1173" markerWidth="13" markerHeight="9" refX="9.5" refY="4.5" viewBox="0 0 13 9" orient="auto" markerUnits="userSpaceOnUse" stroke-dasharray="0,0"><path id="SvgjsPath1174" d="M0,0 L13,4.5 L0,9 L0,0" fill="#7697b6" stroke="#7697b6" stroke-width="1"></path></marker><marker id="SvgjsMarker1177" markerWidth="13" markerHeight="9" refX="9.5" refY="4.5" viewBox="0 0 13 9" orient="auto" markerUnits="userSpaceOnUse" stroke-dasharray="0,0"><path id="SvgjsPath1178" d="M0,0 L13,4.5 L0,9 L0,0" fill="#7697b6" stroke="#7697b6" stroke-width="1"></path></marker><marker id="SvgjsMarker1181" markerWidth="13" markerHeight="9" refX="9.5" refY="4.5" viewBox="0 0 13 9" orient="auto" markerUnits="userSpaceOnUse" stroke-dasharray="0,0"><path id="SvgjsPath1182" d="M0,0 L13,4.5 L0,9 L0,0" fill="#7697b6" stroke="#7697b6" stroke-width="1"></path></marker><marker id="SvgjsMarker1185" markerWidth="13" markerHeight="9" refX="9.5" refY="4.5" viewBox="0 0 13 9" orient="auto" markerUnits="userSpaceOnUse" stroke-dasharray="0,0"><path id="SvgjsPath1186" d="M0,0 L13,4.5 L0,9 L0,0" fill="#7697b6" stroke="#7697b6" stroke-width="1"></path></marker></defs><rect id="svgbackgroundid" width="626.5" height="408.5" fill="transparent"></rect><rect id="SvgjsRect1100" width="626.5" height="408.5" fill="url(#pattern_mark_0)"></rect><rect id="SvgjsRect1101" width="626.5" height="408.5" fill="url(#pattern_mark_1)"></rect><g id="SvgjsG1102" transform="translate(168,225)"><path id="SvgjsPath1103" d="M 0 0L 180 0L 180 30L 0 30Z" stroke-dasharray="7.5,3" stroke="rgba(33,41,48,1)" stroke-width="1.5" fill-opacity="1" fill="#ffffff"></path><g id="SvgjsG1104"><text id="SvgjsText1105" font-family="&quot;Microsoft YaHei&quot;, 微软雅黑, Arial" text-anchor="middle" font-size="13px" width="160px" fill="#323232" font-weight="400" align="middle" lineHeight="125%" anchor="middle" family="&quot;Microsoft YaHei&quot;, 微软雅黑, Arial" size="13px" weight="400" font-style="" opacity="1" y="4.375" transform="rotate(0)"><tspan id="SvgjsTspan1106" dy="16.25" x="90"><tspan id="SvgjsTspan1107" style="">User Defined Class Loader</tspan></tspan></text></g></g><g id="SvgjsG1108" transform="translate(283,25)"><path id="SvgjsPath1109" d="M 0 0L 180 0L 180 30L 0 30Z" stroke="rgba(33,41,48,1)" stroke-width="1.5" fill-opacity="1" fill="#ffffff"></path><g id="SvgjsG1110"><text id="SvgjsText1111" font-family="&quot;Microsoft YaHei&quot;, 微软雅黑, Arial" text-anchor="middle" font-size="13px" width="160px" fill="#323232" font-weight="400" align="middle" lineHeight="125%" anchor="middle" family="&quot;Microsoft YaHei&quot;, 微软雅黑, Arial" size="13px" weight="400" font-style="" opacity="1" y="4.375" transform="rotate(0)"><tspan id="SvgjsTspan1112" dy="16.25" x="90"><tspan id="SvgjsTspan1113" style="">Bootstrap Class Loader</tspan></tspan></text></g></g><g id="SvgjsG1114" transform="translate(283,85)"><path id="SvgjsPath1115" d="M 0 0L 180 0L 180 30L 0 30Z" stroke="rgba(33,41,48,1)" stroke-width="1.5" fill-opacity="1" fill="#ffffff"></path><g id="SvgjsG1116"><text id="SvgjsText1117" font-family="&quot;Microsoft YaHei&quot;, 微软雅黑, Arial" text-anchor="middle" font-size="13px" width="160px" fill="#323232" font-weight="400" align="middle" lineHeight="125%" anchor="middle" family="&quot;Microsoft YaHei&quot;, 微软雅黑, Arial" size="13px" weight="400" font-style="" opacity="1" y="4.375" transform="rotate(0)"><tspan id="SvgjsTspan1118" dy="16.25" x="90"><tspan id="SvgjsTspan1119" style="">Extension Class Loader</tspan></tspan></text></g></g><g id="SvgjsG1120" transform="translate(283,145)"><path id="SvgjsPath1121" d="M 0 0L 180 0L 180 30L 0 30Z" stroke="rgba(33,41,48,1)" stroke-width="1.5" fill-opacity="1" fill="#ffffff"></path><g id="SvgjsG1122"><text id="SvgjsText1123" font-family="&quot;Microsoft YaHei&quot;, 微软雅黑, Arial" text-anchor="middle" font-size="13px" width="160px" fill="#323232" font-weight="400" align="middle" lineHeight="125%" anchor="middle" family="&quot;Microsoft YaHei&quot;, 微软雅黑, Arial" size="13px" weight="400" font-style="" opacity="1" y="4.375" transform="rotate(0)"><tspan id="SvgjsTspan1124" dy="16.25" x="90"><tspan id="SvgjsTspan1125" style="">System Class Loader</tspan></tspan></text></g></g><g id="SvgjsG1126" transform="translate(398,225)"><path id="SvgjsPath1127" d="M 0 0L 180 0L 180 30L 0 30Z" stroke-dasharray="7.5,3" stroke="rgba(33,41,48,1)" stroke-width="1.5" fill-opacity="1" fill="#ffffff"></path><g id="SvgjsG1128"><text id="SvgjsText1129" font-family="&quot;Microsoft YaHei&quot;, 微软雅黑, Arial" text-anchor="middle" font-size="13px" width="160px" fill="#323232" font-weight="400" align="middle" lineHeight="125%" anchor="middle" family="&quot;Microsoft YaHei&quot;, 微软雅黑, Arial" size="13px" weight="400" font-style="" opacity="1" y="4.375" transform="rotate(0)"><tspan id="SvgjsTspan1130" dy="16.25" x="90"><tspan id="SvgjsTspan1131" style="">User Defined Class Loader</tspan></tspan></text></g></g><g id="SvgjsG1132" transform="translate(168,285)"><path id="SvgjsPath1133" d="M 0 0L 180 0L 180 30L 0 30Z" stroke-dasharray="7.5,3" stroke="rgba(33,41,48,1)" stroke-width="1.5" fill-opacity="1" fill="#ffffff"></path><g id="SvgjsG1134"><text id="SvgjsText1135" font-family="&quot;Microsoft YaHei&quot;, 微软雅黑, Arial" text-anchor="middle" font-size="13px" width="160px" fill="#323232" font-weight="400" align="middle" lineHeight="125%" anchor="middle" family="&quot;Microsoft YaHei&quot;, 微软雅黑, Arial" size="13px" weight="400" font-style="" opacity="1" y="4.375" transform="rotate(0)"><tspan id="SvgjsTspan1136" dy="16.25" x="90"><tspan id="SvgjsTspan1137" style="">User Defined Class Loader</tspan></tspan></text></g></g><g id="SvgjsG1138" transform="translate(398,285)"><path id="SvgjsPath1139" d="M 0 0L 180 0L 180 30L 0 30Z" stroke-dasharray="7.5,3" stroke="rgba(33,41,48,1)" stroke-width="1.5" fill-opacity="1" fill="#ffffff"></path><g id="SvgjsG1140"><text id="SvgjsText1141" font-family="&quot;Microsoft YaHei&quot;, 微软雅黑, Arial" text-anchor="middle" font-size="13px" width="160px" fill="#323232" font-weight="400" align="middle" lineHeight="125%" anchor="middle" family="&quot;Microsoft YaHei&quot;, 微软雅黑, Arial" size="13px" weight="400" font-style="" opacity="1" y="4.375" transform="rotate(0)"><tspan id="SvgjsTspan1142" dy="16.25" x="90"><tspan id="SvgjsTspan1143" style="">User Defined Class Loader</tspan></tspan></text></g></g><g id="SvgjsG1144" transform="translate(208,305)"><path id="SvgjsPath1145" d="M 0 0L 100 0L 100 40L 0 40Z" stroke="none" fill="none"></path><g id="SvgjsG1146"><text id="SvgjsText1147" font-family="&quot;Microsoft YaHei&quot;, 微软雅黑, Arial" text-anchor="middle" font-size="13px" width="100px" fill="#323232" font-weight="400" align="middle" lineHeight="125%" anchor="middle" family="&quot;Microsoft YaHei&quot;, 微软雅黑, Arial" size="13px" weight="400" font-style="" opacity="1" y="9.375" transform="rotate(0)"><tspan id="SvgjsTspan1148" dy="16.25" x="50"><tspan id="SvgjsTspan1149" style="">•••</tspan></tspan></text></g></g><g id="SvgjsG1150" transform="translate(438,305)"><path id="SvgjsPath1151" d="M 0 0L 100 0L 100 40L 0 40Z" stroke="none" fill="none"></path><g id="SvgjsG1152"><text id="SvgjsText1153" font-family="&quot;Microsoft YaHei&quot;, 微软雅黑, Arial" text-anchor="middle" font-size="13px" width="100px" fill="#323232" font-weight="400" align="middle" lineHeight="125%" anchor="middle" family="&quot;Microsoft YaHei&quot;, 微软雅黑, Arial" size="13px" weight="400" font-style="" opacity="1" y="9.375" transform="rotate(0)"><tspan id="SvgjsTspan1154" dy="16.25" x="50"><tspan id="SvgjsTspan1155" style="">•••</tspan></tspan></text></g></g><g id="SvgjsG1156" transform="translate(25,200)"><path id="SvgjsPath1157" d="M 120 0Q 111 0 111 9L 111 61Q 111 70 98 70Q 111 70 111 79L 111 131Q 111 140 120 140" stroke="rgba(118,151,182,1)" stroke-width="1.5" fill="none"></path><path id="SvgjsPath1158" d="M 0 0L 120 0L 120 140L 0 140Z" stroke="none" fill="none"></path><g id="SvgjsG1159"><text id="SvgjsText1160" font-family="&quot;Microsoft YaHei&quot;, 微软雅黑, Arial" text-anchor="end" font-size="13px" width="93px" fill="#323232" font-weight="400" align="middle" lineHeight="125%" anchor="end" family="&quot;Microsoft YaHei&quot;, 微软雅黑, Arial" size="13px" weight="400" font-style="" opacity="1" y="59.375" transform="rotate(0)"><tspan id="SvgjsTspan1161" dy="16.25" x="93"><tspan id="SvgjsTspan1162" style="">Optional</tspan></tspan></text></g></g><g id="SvgjsG1163"><path id="SvgjsPath1164" d="M258 284.25L258 270L258 270L258 257.7" stroke="#7697b6" stroke-width="1.5" fill="none" marker-end="url(#SvgjsMarker1165)"></path></g><g id="SvgjsG1167"><path id="SvgjsPath1168" d="M488 284.25L488 270L488 270L488 257.7" stroke="#7697b6" stroke-width="1.5" fill="none" marker-end="url(#SvgjsMarker1169)"></path></g><g id="SvgjsG1171"><path id="SvgjsPath1172" d="M258 224.25L258 200L373 200L373 177.7" stroke="#7697b6" stroke-width="1.5" fill="none" marker-end="url(#SvgjsMarker1173)"></path></g><g id="SvgjsG1175"><path id="SvgjsPath1176" d="M488 224.25L488 200L373 200L373 177.7" stroke="#7697b6" stroke-width="1.5" fill="none" marker-end="url(#SvgjsMarker1177)"></path></g><g id="SvgjsG1179"><path id="SvgjsPath1180" d="M373 144.25L373 130L373 130L373 117.7" stroke="#7697b6" stroke-width="1.5" fill="none" marker-end="url(#SvgjsMarker1181)"></path></g><g id="SvgjsG1183"><path id="SvgjsPath1184" d="M373 84.25L373 70L373 70L373 57.7" stroke="#7697b6" stroke-width="1.5" fill="none" marker-end="url(#SvgjsMarker1185)"></path></g><g id="SvgjsG1187" transform="translate(144.5,361)"><path id="SvgjsPath1188" d="M 0 0L 457 0L 457 22.5L 0 22.5Z" stroke="none" fill="none"></path><g id="SvgjsG1189"><text id="SvgjsText1190" font-family="&quot;Microsoft YaHei&quot;, 微软雅黑, Arial" text-anchor="middle" font-size="13px" width="457px" fill="#e75a4a" font-weight="400" align="middle" lineHeight="125%" anchor="middle" family="&quot;Microsoft YaHei&quot;, 微软雅黑, Arial" size="13px" weight="400" font-style="" opacity="1" y="0.625" transform="rotate(0)"><tspan id="SvgjsTspan1191" dy="16.25" x="228.5"><tspan id="SvgjsTspan1192" style="font-weight: bold;">这里的四者之间的关系是包含关系。不是上层下层，也不是子父类的继承关系</tspan></tspan></text></g></g><g id="SvgjsG1193"></g></svg>