<svg id="SvgjsSvg1006" width="824.0121951219513" height="364.3658536585366" xmlns="http://www.w3.org/2000/svg" version="1.1" xmlns:xlink="http://www.w3.org/1999/xlink" xmlns:svgjs="http://svgjs.com/svgjs"><defs id="SvgjsDefs1007"><pattern patternUnits="userSpaceOnUse" id="pattern_mark_0" width="300" height="300"><text x="150" y="100" fill="rgba(229,229,229,0.8)" font-size="18" transform="rotate(-45, 150, 150)" style="dominant-baseline: middle; text-anchor: middle;"></text></pattern><pattern patternUnits="userSpaceOnUse" id="pattern_mark_1" width="300" height="300"><text x="150" y="200" fill="rgba(229,229,229,0.8)" font-size="18" transform="rotate(-45, 150, 150)" style="dominant-baseline: middle; text-anchor: middle;"></text></pattern></defs><rect id="svgbackgroundid" width="824.0121951219513" height="364.3658536585366" fill="transparent"></rect><rect id="SvgjsRect1009" width="824.0121951219513" height="364.3658536585366" fill="url(#pattern_mark_0)"></rect><rect id="SvgjsRect1010" width="824.0121951219513" height="364.3658536585366" fill="url(#pattern_mark_1)"></rect><g id="SvgjsG1011" transform="translate(47,25)"><path id="SvgjsPath1012" d="M 0 0L 752.0121951219513 0L 752.0121951219513 314.3658536585366L 0 314.3658536585366Z" stroke="rgba(33,41,48,1)" stroke-width="1.5" fill-opacity="1" fill="#d3daee"></path><g id="SvgjsG1013"><text id="SvgjsText1014" font-family="&quot;Microsoft YaHei&quot;, 微软雅黑, Arial" text-anchor="start" font-size="13px" width="733px" fill="#323232" font-weight="700" align="top" lineHeight="125%" anchor="start" family="&quot;Microsoft YaHei&quot;, 微软雅黑, Arial" size="13px" weight="700" font-style="" opacity="1" y="-2.625" transform="rotate(0)"><tspan id="SvgjsTspan1015" dy="16.25" x="10"><tspan id="SvgjsTspan1016" style="">Java</tspan></tspan><tspan id="SvgjsTspan1017" dy="16.25" x="10"><tspan id="SvgjsTspan1018" style="">虚拟机</tspan></tspan><tspan id="SvgjsTspan1019" dy="16.25" x="10"><tspan id="SvgjsTspan1020" style="">执行引擎</tspan></tspan></text></g></g><g id="SvgjsG1021" transform="translate(159.5,54.609756097560975)"><path id="SvgjsPath1022" d="M 0 4Q 0 0 4 0L 608 0Q 612 0 612 4L 612 179Q 612 183 608 183L 4 183Q 0 183 0 179Z" stroke="rgba(33,41,48,1)" stroke-width="1.5" fill-opacity="1" fill="#c0e6ca"></path><g id="SvgjsG1023"><text id="SvgjsText1024" font-family="&quot;Microsoft YaHei&quot;, 微软雅黑, Arial" text-anchor="middle" font-size="13px" width="592px" fill="#323232" font-weight="700" align="bottom" lineHeight="125%" anchor="middle" family="&quot;Microsoft YaHei&quot;, 微软雅黑, Arial" size="13px" weight="700" font-style="" opacity="1" y="164.375" transform="rotate(0)"><tspan id="SvgjsTspan1025" dy="16.25" x="306"><tspan id="SvgjsTspan1026" style="">JIT编译器</tspan></tspan></text></g></g><g id="SvgjsG1027" transform="translate(260.5,63.609756097560975)"><path id="SvgjsPath1028" d="M 0 4Q 0 0 4 0L 31 0Q 35 0 35 4L 35 146Q 35 150 31 150L 4 150Q 0 150 0 146Z" stroke="rgba(33,41,48,1)" stroke-width="1.5" fill-opacity="1" fill="#f8e0e0"></path><g id="SvgjsG1029"><text id="SvgjsText1030" font-family="&quot;Microsoft YaHei&quot;, 微软雅黑, Arial" text-anchor="middle" font-size="13px" width="15px" fill="#323232" font-weight="400" align="middle" lineHeight="125%" anchor="middle" family="&quot;Microsoft YaHei&quot;, 微软雅黑, Arial" size="13px" weight="400" font-style="" opacity="1" y="39.875" transform="rotate(0)"><tspan id="SvgjsTspan1031" dy="16.25" x="17.5"><tspan id="SvgjsTspan1032" style="">中</tspan></tspan><tspan id="SvgjsTspan1033" dy="16.25" x="17.5"><tspan id="SvgjsTspan1034" style="">间</tspan></tspan><tspan id="SvgjsTspan1035" dy="16.25" x="17.5"><tspan id="SvgjsTspan1036" style="">代</tspan></tspan><tspan id="SvgjsTspan1037" dy="16.25" x="17.5"><tspan id="SvgjsTspan1038" style="">码</tspan></tspan></text></g></g><g id="SvgjsG1039" transform="translate(560.5,63.609756097560975)"><path id="SvgjsPath1040" d="M 0 4Q 0 0 4 0L 31 0Q 35 0 35 4L 35 146Q 35 150 31 150L 4 150Q 0 150 0 146Z" stroke="rgba(33,41,48,1)" stroke-width="1.5" fill-opacity="1" fill="#f8e0e0"></path><g id="SvgjsG1041"><text id="SvgjsText1042" font-family="&quot;Microsoft YaHei&quot;, 微软雅黑, Arial" text-anchor="middle" font-size="13px" width="15px" fill="#323232" font-weight="400" align="middle" lineHeight="125%" anchor="middle" family="&quot;Microsoft YaHei&quot;, 微软雅黑, Arial" size="13px" weight="400" font-style="" opacity="1" y="39.875" transform="rotate(0)"><tspan id="SvgjsTspan1043" dy="16.25" x="17.5"><tspan id="SvgjsTspan1044" style="">中</tspan></tspan><tspan id="SvgjsTspan1045" dy="16.25" x="17.5"><tspan id="SvgjsTspan1046" style="">间</tspan></tspan><tspan id="SvgjsTspan1047" dy="16.25" x="17.5"><tspan id="SvgjsTspan1048" style="">代</tspan></tspan><tspan id="SvgjsTspan1049" dy="16.25" x="17.5"><tspan id="SvgjsTspan1050" style="">码</tspan></tspan></text></g></g><g id="SvgjsG1051" transform="translate(710.5,63.609756097560975)"><path id="SvgjsPath1052" d="M 0 4Q 0 0 4 0L 31 0Q 35 0 35 4L 35 146Q 35 150 31 150L 4 150Q 0 150 0 146Z" stroke="rgba(33,41,48,1)" stroke-width="1.5" fill-opacity="1" fill="#f8e0e0"></path><g id="SvgjsG1053"><text id="SvgjsText1054" font-family="&quot;Microsoft YaHei&quot;, 微软雅黑, Arial" text-anchor="middle" font-size="13px" width="15px" fill="#323232" font-weight="400" align="middle" lineHeight="125%" anchor="middle" family="&quot;Microsoft YaHei&quot;, 微软雅黑, Arial" size="13px" weight="400" font-style="" opacity="1" y="39.875" transform="rotate(0)"><tspan id="SvgjsTspan1055" dy="16.25" x="17.5"><tspan id="SvgjsTspan1056" style="">目</tspan></tspan><tspan id="SvgjsTspan1057" dy="16.25" x="17.5"><tspan id="SvgjsTspan1058" style="">标</tspan></tspan><tspan id="SvgjsTspan1059" dy="16.25" x="17.5"><tspan id="SvgjsTspan1060" style="">代</tspan></tspan><tspan id="SvgjsTspan1061" dy="16.25" x="17.5"><tspan id="SvgjsTspan1062" style="">码</tspan></tspan></text></g></g><g id="SvgjsG1063" transform="translate(635.5,63.609756097560975)"><path id="SvgjsPath1064" d="M 0 4Q 0 0 4 0L 31 0Q 35 0 35 4L 35 146Q 35 150 31 150L 4 150Q 0 150 0 146Z" stroke="rgba(33,41,48,1)" stroke-width="1.5" fill-opacity="1" fill="#e0f0f9"></path><g id="SvgjsG1065"><text id="SvgjsText1066" font-family="&quot;Microsoft YaHei&quot;, 微软雅黑, Arial" text-anchor="middle" font-size="13px" width="15px" fill="#323232" font-weight="400" align="middle" lineHeight="125%" anchor="middle" family="&quot;Microsoft YaHei&quot;, 微软雅黑, Arial" size="13px" weight="400" font-style="" opacity="1" y="15.375" transform="rotate(0)"><tspan id="SvgjsTspan1067" dy="16.25" x="17.5"><tspan id="SvgjsTspan1068" style="">目</tspan></tspan><tspan id="SvgjsTspan1069" dy="16.25" x="17.5"><tspan id="SvgjsTspan1070" style="">标</tspan></tspan><tspan id="SvgjsTspan1071" dy="16.25" x="17.5"><tspan id="SvgjsTspan1072" style="">代</tspan></tspan><tspan id="SvgjsTspan1073" dy="16.25" x="17.5"><tspan id="SvgjsTspan1074" style="">码</tspan></tspan><tspan id="SvgjsTspan1075" dy="16.25" x="17.5"><tspan id="SvgjsTspan1076" style="">生</tspan></tspan><tspan id="SvgjsTspan1077" dy="16.25" x="17.5"><tspan id="SvgjsTspan1078" style="">成</tspan></tspan><tspan id="SvgjsTspan1079" dy="16.25" x="17.5"><tspan id="SvgjsTspan1080" style="">器</tspan></tspan></text></g></g><g id="SvgjsG1081" transform="translate(410.5,63.609756097560975)"><path id="SvgjsPath1082" d="M 0 4Q 0 0 4 0L 31 0Q 35 0 35 4L 35 146Q 35 150 31 150L 4 150Q 0 150 0 146Z" stroke="rgba(33,41,48,1)" stroke-width="1.5" fill-opacity="1" fill="#f8e0e0"></path><g id="SvgjsG1083"><text id="SvgjsText1084" font-family="&quot;Microsoft YaHei&quot;, 微软雅黑, Arial" text-anchor="middle" font-size="13px" width="15px" fill="#323232" font-weight="400" align="middle" lineHeight="125%" anchor="middle" family="&quot;Microsoft YaHei&quot;, 微软雅黑, Arial" size="13px" weight="400" font-style="" opacity="1" y="39.875" transform="rotate(0)"><tspan id="SvgjsTspan1085" dy="16.25" x="17.5"><tspan id="SvgjsTspan1086" style="">中</tspan></tspan><tspan id="SvgjsTspan1087" dy="16.25" x="17.5"><tspan id="SvgjsTspan1088" style="">间</tspan></tspan><tspan id="SvgjsTspan1089" dy="16.25" x="17.5"><tspan id="SvgjsTspan1090" style="">代</tspan></tspan><tspan id="SvgjsTspan1091" dy="16.25" x="17.5"><tspan id="SvgjsTspan1092" style="">码</tspan></tspan></text></g></g><g id="SvgjsG1093" transform="translate(485.5,63.609756097560975)"><path id="SvgjsPath1094" d="M 0 4Q 0 0 4 0L 31 0Q 35 0 35 4L 35 146Q 35 150 31 150L 4 150Q 0 150 0 146Z" stroke="rgba(33,41,48,1)" stroke-width="1.5" fill-opacity="1" fill="#e0f0f9"></path><g id="SvgjsG1095"><text id="SvgjsText1096" font-family="&quot;Microsoft YaHei&quot;, 微软雅黑, Arial" text-anchor="middle" font-size="13px" width="15px" fill="#323232" font-weight="400" align="middle" lineHeight="125%" anchor="middle" family="&quot;Microsoft YaHei&quot;, 微软雅黑, Arial" size="13px" weight="400" font-style="" opacity="1" y="23.375" transform="rotate(0)"><tspan id="SvgjsTspan1097" dy="16.25" x="17.5"><tspan id="SvgjsTspan1098" style="">寄</tspan></tspan><tspan id="SvgjsTspan1099" dy="16.25" x="17.5"><tspan id="SvgjsTspan1100" style="">存</tspan></tspan><tspan id="SvgjsTspan1101" dy="16.25" x="17.5"><tspan id="SvgjsTspan1102" style="">器</tspan></tspan><tspan id="SvgjsTspan1103" dy="16.25" x="17.5"><tspan id="SvgjsTspan1104" style="">分</tspan></tspan><tspan id="SvgjsTspan1105" dy="16.25" x="17.5"><tspan id="SvgjsTspan1106" style="">配</tspan></tspan><tspan id="SvgjsTspan1107" dy="16.25" x="17.5"><tspan id="SvgjsTspan1108" style="">器</tspan></tspan></text></g></g><g id="SvgjsG1109" transform="translate(335.5,63.609756097560975)"><path id="SvgjsPath1110" d="M 0 4Q 0 0 4 0L 31 0Q 35 0 35 4L 35 146Q 35 150 31 150L 4 150Q 0 150 0 146Z" stroke="rgba(33,41,48,1)" stroke-width="1.5" fill-opacity="1" fill="#e0f0f9"></path><g id="SvgjsG1111"><text id="SvgjsText1112" font-family="&quot;Microsoft YaHei&quot;, 微软雅黑, Arial" text-anchor="middle" font-size="13px" width="15px" fill="#323232" font-weight="400" align="middle" lineHeight="125%" anchor="middle" family="&quot;Microsoft YaHei&quot;, 微软雅黑, Arial" size="13px" weight="400" font-style="" opacity="1" y="23.375" transform="rotate(0)"><tspan id="SvgjsTspan1113" dy="16.25" x="17.5"><tspan id="SvgjsTspan1114" style="">机</tspan></tspan><tspan id="SvgjsTspan1115" dy="16.25" x="17.5"><tspan id="SvgjsTspan1116" style="">器</tspan></tspan><tspan id="SvgjsTspan1117" dy="16.25" x="17.5"><tspan id="SvgjsTspan1118" style="">相</tspan></tspan><tspan id="SvgjsTspan1119" dy="16.25" x="17.5"><tspan id="SvgjsTspan1120" style="">关</tspan></tspan><tspan id="SvgjsTspan1121" dy="16.25" x="17.5"><tspan id="SvgjsTspan1122" style="">优</tspan></tspan><tspan id="SvgjsTspan1123" dy="16.25" x="17.5"><tspan id="SvgjsTspan1124" style="">化</tspan></tspan></text></g></g><g id="SvgjsG1125" transform="translate(185.5,63.609756097560975)"><path id="SvgjsPath1126" d="M 0 4Q 0 0 4 0L 31 0Q 35 0 35 4L 35 146Q 35 150 31 150L 4 150Q 0 150 0 146Z" stroke="rgba(33,41,48,1)" stroke-width="1.5" fill-opacity="1" fill="#e0f0f9"></path><g id="SvgjsG1127"><text id="SvgjsText1128" font-family="&quot;Microsoft YaHei&quot;, 微软雅黑, Arial" text-anchor="middle" font-size="13px" width="15px" fill="#323232" font-weight="400" align="middle" lineHeight="125%" anchor="middle" family="&quot;Microsoft YaHei&quot;, 微软雅黑, Arial" size="13px" weight="400" font-style="" opacity="1" y="23.375" transform="rotate(0)"><tspan id="SvgjsTspan1129" dy="16.25" x="17.5"><tspan id="SvgjsTspan1130" style="">机</tspan></tspan><tspan id="SvgjsTspan1131" dy="16.25" x="17.5"><tspan id="SvgjsTspan1132" style="">器</tspan></tspan><tspan id="SvgjsTspan1133" dy="16.25" x="17.5"><tspan id="SvgjsTspan1134" style="">无</tspan></tspan><tspan id="SvgjsTspan1135" dy="16.25" x="17.5"><tspan id="SvgjsTspan1136" style="">关</tspan></tspan><tspan id="SvgjsTspan1137" dy="16.25" x="17.5"><tspan id="SvgjsTspan1138" style="">优</tspan></tspan><tspan id="SvgjsTspan1139" dy="16.25" x="17.5"><tspan id="SvgjsTspan1140" style="">化</tspan></tspan></text></g></g><g id="SvgjsG1141" transform="translate(221,125.60975609756098)"><path id="SvgjsPath1142" d="M 0 8.25L 26.5 8.25L 26.5 0L 39 12.5L 26.5 25L 26.5 16.75L 0 16.75L 0 8.25Z" stroke="none" fill-opacity="1" fill="#467e93"></path><g id="SvgjsG1143"><text id="SvgjsText1144" font-family="&quot;Microsoft YaHei&quot;, 微软雅黑, Arial" text-anchor="middle" font-size="13px" width="39px" fill="#323232" font-weight="400" align="middle" lineHeight="125%" anchor="middle" family="&quot;Microsoft YaHei&quot;, 微软雅黑, Arial" size="13px" weight="400" font-style="" opacity="1" y="1.875" transform="rotate(0)"></text></g></g><g id="SvgjsG1145" transform="translate(296,125.60975609756098)"><path id="SvgjsPath1146" d="M 0 8.25L 26.5 8.25L 26.5 0L 39 12.5L 26.5 25L 26.5 16.75L 0 16.75L 0 8.25Z" stroke="none" fill-opacity="1" fill="#467e93"></path><g id="SvgjsG1147"><text id="SvgjsText1148" font-family="&quot;Microsoft YaHei&quot;, 微软雅黑, Arial" text-anchor="middle" font-size="13px" width="39px" fill="#323232" font-weight="400" align="middle" lineHeight="125%" anchor="middle" family="&quot;Microsoft YaHei&quot;, 微软雅黑, Arial" size="13px" weight="400" font-style="" opacity="1" y="1.875" transform="rotate(0)"></text></g></g><g id="SvgjsG1149" transform="translate(371,125.60975609756098)"><path id="SvgjsPath1150" d="M 0 8.25L 26.5 8.25L 26.5 0L 39 12.5L 26.5 25L 26.5 16.75L 0 16.75L 0 8.25Z" stroke="none" fill-opacity="1" fill="#467e93"></path><g id="SvgjsG1151"><text id="SvgjsText1152" font-family="&quot;Microsoft YaHei&quot;, 微软雅黑, Arial" text-anchor="middle" font-size="13px" width="39px" fill="#323232" font-weight="400" align="middle" lineHeight="125%" anchor="middle" family="&quot;Microsoft YaHei&quot;, 微软雅黑, Arial" size="13px" weight="400" font-style="" opacity="1" y="1.875" transform="rotate(0)"></text></g></g><g id="SvgjsG1153" transform="translate(446,125.60975609756098)"><path id="SvgjsPath1154" d="M 0 8.25L 26.5 8.25L 26.5 0L 39 12.5L 26.5 25L 26.5 16.75L 0 16.75L 0 8.25Z" stroke="none" fill-opacity="1" fill="#467e93"></path><g id="SvgjsG1155"><text id="SvgjsText1156" font-family="&quot;Microsoft YaHei&quot;, 微软雅黑, Arial" text-anchor="middle" font-size="13px" width="39px" fill="#323232" font-weight="400" align="middle" lineHeight="125%" anchor="middle" family="&quot;Microsoft YaHei&quot;, 微软雅黑, Arial" size="13px" weight="400" font-style="" opacity="1" y="1.875" transform="rotate(0)"></text></g></g><g id="SvgjsG1157" transform="translate(521,125.60975609756098)"><path id="SvgjsPath1158" d="M 0 8.25L 26.5 8.25L 26.5 0L 39 12.5L 26.5 25L 26.5 16.75L 0 16.75L 0 8.25Z" stroke="none" fill-opacity="1" fill="#467e93"></path><g id="SvgjsG1159"><text id="SvgjsText1160" font-family="&quot;Microsoft YaHei&quot;, 微软雅黑, Arial" text-anchor="middle" font-size="13px" width="39px" fill="#323232" font-weight="400" align="middle" lineHeight="125%" anchor="middle" family="&quot;Microsoft YaHei&quot;, 微软雅黑, Arial" size="13px" weight="400" font-style="" opacity="1" y="1.875" transform="rotate(0)"></text></g></g><g id="SvgjsG1161" transform="translate(596,125.60975609756098)"><path id="SvgjsPath1162" d="M 0 8.25L 26.5 8.25L 26.5 0L 39 12.5L 26.5 25L 26.5 16.75L 0 16.75L 0 8.25Z" stroke="none" fill-opacity="1" fill="#467e93"></path><g id="SvgjsG1163"><text id="SvgjsText1164" font-family="&quot;Microsoft YaHei&quot;, 微软雅黑, Arial" text-anchor="middle" font-size="13px" width="39px" fill="#323232" font-weight="400" align="middle" lineHeight="125%" anchor="middle" family="&quot;Microsoft YaHei&quot;, 微软雅黑, Arial" size="13px" weight="400" font-style="" opacity="1" y="1.875" transform="rotate(0)"></text></g></g><g id="SvgjsG1165" transform="translate(671,125.60975609756098)"><path id="SvgjsPath1166" d="M 0 8.25L 26.5 8.25L 26.5 0L 39 12.5L 26.5 25L 26.5 16.75L 0 16.75L 0 8.25Z" stroke="none" fill-opacity="1" fill="#467e93"></path><g id="SvgjsG1167"><text id="SvgjsText1168" font-family="&quot;Microsoft YaHei&quot;, 微软雅黑, Arial" text-anchor="middle" font-size="13px" width="39px" fill="#323232" font-weight="400" align="middle" lineHeight="125%" anchor="middle" family="&quot;Microsoft YaHei&quot;, 微软雅黑, Arial" size="13px" weight="400" font-style="" opacity="1" y="1.875" transform="rotate(0)"></text></g></g><g id="SvgjsG1169" transform="translate(63,282.609756097561)"><path id="SvgjsPath1170" d="M 0 4Q 0 0 4 0L 76 0Q 80 0 80 4L 80 31Q 80 35 76 35L 4 35Q 0 35 0 31Z" stroke="rgba(33,41,48,1)" stroke-width="1.5" fill-opacity="1" fill="#fcf8c8"></path><g id="SvgjsG1171"><text id="SvgjsText1172" font-family="&quot;Microsoft YaHei&quot;, 微软雅黑, Arial" text-anchor="middle" font-size="13px" width="60px" fill="#323232" font-weight="400" align="middle" lineHeight="125%" anchor="middle" family="&quot;Microsoft YaHei&quot;, 微软雅黑, Arial" size="13px" weight="400" font-style="" opacity="1" y="6.875" transform="rotate(0)"><tspan id="SvgjsTspan1173" dy="16.25" x="40"><tspan id="SvgjsTspan1174" style="">符号表</tspan></tspan></text></g></g><g id="SvgjsG1175" transform="translate(159.5,257.609756097561)"><path id="SvgjsPath1176" d="M 0 4Q 0 0 4 0L 346 0Q 350 0 350 4L 350 56Q 350 60 346 60L 4 60Q 0 60 0 56Z" stroke="rgba(33,41,48,1)" stroke-width="1.5" fill-opacity="1" fill="#c0e6ca"></path><g id="SvgjsG1177"><text id="SvgjsText1178" font-family="&quot;Microsoft YaHei&quot;, 微软雅黑, Arial" text-anchor="middle" font-size="13px" width="330px" fill="#323232" font-weight="700" align="middle" lineHeight="125%" anchor="middle" family="&quot;Microsoft YaHei&quot;, 微软雅黑, Arial" size="13px" weight="700" font-style="" opacity="1" y="19.375" transform="rotate(0)"><tspan id="SvgjsTspan1179" dy="16.25" x="175"><tspan id="SvgjsTspan1180" style="">字节码解释器</tspan></tspan></text></g></g><g id="SvgjsG1181" transform="translate(63,121.60975609756098)"><path id="SvgjsPath1182" d="M 0 4Q 0 0 4 0L 31 0Q 35 0 35 4L 35 146Q 35 150 31 150L 4 150Q 0 150 0 146Z" stroke="rgba(33,41,48,1)" stroke-width="1.5" fill-opacity="1" fill="#f8e0e0"></path><g id="SvgjsG1183"><text id="SvgjsText1184" font-family="&quot;Microsoft YaHei&quot;, 微软雅黑, Arial" text-anchor="middle" font-size="13px" width="15px" fill="#323232" font-weight="400" align="middle" lineHeight="125%" anchor="middle" family="&quot;Microsoft YaHei&quot;, 微软雅黑, Arial" size="13px" weight="400" font-style="" opacity="1" y="23.375" transform="rotate(0)"><tspan id="SvgjsTspan1185" dy="16.25" x="17.5"><tspan id="SvgjsTspan1186" style="">J</tspan></tspan><tspan id="SvgjsTspan1187" dy="16.25" x="17.5"><tspan id="SvgjsTspan1188" style="">V</tspan></tspan><tspan id="SvgjsTspan1189" dy="16.25" x="17.5"><tspan id="SvgjsTspan1190" style="">M</tspan></tspan><tspan id="SvgjsTspan1191" dy="16.25" x="17.5"><tspan id="SvgjsTspan1192" style="">字</tspan></tspan><tspan id="SvgjsTspan1193" dy="16.25" x="17.5"><tspan id="SvgjsTspan1194" style="">节</tspan></tspan><tspan id="SvgjsTspan1195" dy="16.25" x="17.5"><tspan id="SvgjsTspan1196" style="">码</tspan></tspan></text></g></g><g id="SvgjsG1197" transform="translate(99,251.609756097561)"><path id="SvgjsPath1198" d="M 0 8.25L 48 8.25L 48 0L 60.5 12.5L 48 25L 48 16.75L 0 16.75L 0 8.25Z" stroke="none" fill-opacity="1" fill="#467e93"></path><g id="SvgjsG1199"><text id="SvgjsText1200" font-family="&quot;Microsoft YaHei&quot;, 微软雅黑, Arial" text-anchor="middle" font-size="13px" width="61px" fill="#323232" font-weight="400" align="middle" lineHeight="125%" anchor="middle" family="&quot;Microsoft YaHei&quot;, 微软雅黑, Arial" size="13px" weight="400" font-style="" opacity="1" y="1.875" transform="rotate(0)"></text></g></g><g id="SvgjsG1201" transform="translate(99,137.609756097561)"><path id="SvgjsPath1202" d="M 0 8.25L 48 8.25L 48 0L 60.5 12.5L 48 25L 48 16.75L 0 16.75L 0 8.25Z" stroke="none" fill-opacity="1" fill="#467e93"></path><g id="SvgjsG1203"><text id="SvgjsText1204" font-family="&quot;Microsoft YaHei&quot;, 微软雅黑, Arial" text-anchor="middle" font-size="13px" width="61px" fill="#323232" font-weight="400" align="middle" lineHeight="125%" anchor="middle" family="&quot;Microsoft YaHei&quot;, 微软雅黑, Arial" size="13px" weight="400" font-style="" opacity="1" y="1.875" transform="rotate(0)"></text></g></g><g id="SvgjsG1205"></g></svg>