<svg id="SvgjsSvg1006" width="698" height="358" xmlns="http://www.w3.org/2000/svg" version="1.1" xmlns:xlink="http://www.w3.org/1999/xlink" xmlns:svgjs="http://svgjs.com/svgjs"><defs id="SvgjsDefs1007"><pattern patternUnits="userSpaceOnUse" id="pattern_mark_0" width="300" height="300"><text x="150" y="100" fill="rgba(229,229,229,0.8)" font-size="18" transform="rotate(-45, 150, 150)" style="dominant-baseline: middle; text-anchor: middle;"></text></pattern><pattern patternUnits="userSpaceOnUse" id="pattern_mark_1" width="300" height="300"><text x="150" y="200" fill="rgba(229,229,229,0.8)" font-size="18" transform="rotate(-45, 150, 150)" style="dominant-baseline: middle; text-anchor: middle;"></text></pattern><marker id="SvgjsMarker1095" markerWidth="13" markerHeight="9" refX="9.5" refY="4.5" viewBox="0 0 13 9" orient="auto" markerUnits="userSpaceOnUse" stroke-dasharray="0,0"><path id="SvgjsPath1096" d="M0,0 L13,4.5 L0,9 L0,0" fill="#a7922c" stroke="#a7922c" stroke-width="1"></path></marker><marker id="SvgjsMarker1099" markerWidth="13" markerHeight="9" refX="9.5" refY="4.5" viewBox="0 0 13 9" orient="auto" markerUnits="userSpaceOnUse" stroke-dasharray="0,0"><path id="SvgjsPath1100" d="M0,0 L13,4.5 L0,9 L0,0" fill="#a7922c" stroke="#a7922c" stroke-width="1"></path></marker><marker id="SvgjsMarker1103" markerWidth="13" markerHeight="9" refX="9.5" refY="4.5" viewBox="0 0 13 9" orient="auto" markerUnits="userSpaceOnUse" stroke-dasharray="0,0"><path id="SvgjsPath1104" d="M0,0 L13,4.5 L0,9 L0,0" fill="#a7922c" stroke="#a7922c" stroke-width="1"></path></marker><marker id="SvgjsMarker1107" markerWidth="13" markerHeight="9" refX="9.5" refY="4.5" viewBox="0 0 13 9" orient="auto" markerUnits="userSpaceOnUse" stroke-dasharray="0,0"><path id="SvgjsPath1108" d="M0,0 L13,4.5 L0,9 L0,0" fill="#a7922c" stroke="#a7922c" stroke-width="1"></path></marker><marker id="SvgjsMarker1111" markerWidth="13" markerHeight="9" refX="9.5" refY="4.5" viewBox="0 0 13 9" orient="auto" markerUnits="userSpaceOnUse" stroke-dasharray="0,0"><path id="SvgjsPath1112" d="M0,0 L13,4.5 L0,9 L0,0" fill="#a7922c" stroke="#a7922c" stroke-width="1"></path></marker><marker id="SvgjsMarker1115" markerWidth="13" markerHeight="9" refX="9.5" refY="4.5" viewBox="0 0 13 9" orient="auto" markerUnits="userSpaceOnUse" stroke-dasharray="0,0"><path id="SvgjsPath1116" d="M0,0 L13,4.5 L0,9 L0,0" fill="#a7922c" stroke="#a7922c" stroke-width="1"></path></marker><marker id="SvgjsMarker1119" markerWidth="13" markerHeight="9" refX="9.5" refY="4.5" viewBox="0 0 13 9" orient="auto" markerUnits="userSpaceOnUse" stroke-dasharray="0,0"><path id="SvgjsPath1120" d="M0,0 L13,4.5 L0,9 L0,0" fill="#7985ec" stroke="#7985ec" stroke-width="1"></path></marker></defs><rect id="svgbackgroundid" width="698" height="358" fill="transparent"></rect><rect id="SvgjsRect1009" width="698" height="358" fill="url(#pattern_mark_0)"></rect><rect id="SvgjsRect1010" width="698" height="358" fill="url(#pattern_mark_1)"></rect><g id="SvgjsG1011" transform="translate(25,25)"><path id="SvgjsPath1012" d="M 0 0L 122 0L 122 308L 0 308Z" stroke="rgba(167,147,44,1)" stroke-width="3" fill-opacity="1" fill="#ffffff"></path><g id="SvgjsG1013"><text id="SvgjsText1014" font-family="微软雅黑" text-anchor="middle" font-size="13px" width="102px" fill="#323232" font-weight="400" align="middle" lineHeight="125%" anchor="middle" family="微软雅黑" size="13px" weight="400" font-style="" opacity="1" y="143.375" transform="rotate(0)"></text></g></g><g id="SvgjsG1015" transform="translate(37,43)"><path id="SvgjsPath1016" d="M 0 4Q 0 0 4 0L 94 0Q 98 0 98 4L 98 50Q 98 54 94 54L 4 54Q 0 54 0 50Z" stroke="rgba(33,41,48,1)" stroke-width="1.5" fill-opacity="1" fill="#dec225"></path><g id="SvgjsG1017"><text id="SvgjsText1018" font-family="微软雅黑" text-anchor="middle" font-size="13px" width="78px" fill="#ffffff" font-weight="700" align="middle" lineHeight="125%" anchor="middle" family="微软雅黑" size="13px" weight="700" font-style="" opacity="1" y="7.875" transform="rotate(0)"><tspan id="SvgjsTspan1019" dy="16.25" x="49"><tspan id="SvgjsTspan1020" style="">ThreadLocal</tspan></tspan><tspan id="SvgjsTspan1021" dy="16.25" x="49"><tspan id="SvgjsTspan1022" style="">对象引用</tspan></tspan></text></g></g><g id="SvgjsG1023" transform="translate(37,151.05555555555554)"><path id="SvgjsPath1024" d="M 0 4Q 0 0 4 0L 94 0Q 98 0 98 4L 98 50Q 98 54 94 54L 4 54Q 0 54 0 50Z" stroke="rgba(33,41,48,1)" stroke-width="1.5" fill-opacity="1" fill="#dec225"></path><g id="SvgjsG1025"><text id="SvgjsText1026" font-family="微软雅黑" text-anchor="middle" font-size="13px" width="78px" fill="#ffffff" font-weight="700" align="middle" lineHeight="125%" anchor="middle" family="微软雅黑" size="13px" weight="700" font-style="" opacity="1" y="7.875" transform="rotate(0)"><tspan id="SvgjsTspan1027" dy="16.25" x="49"><tspan id="SvgjsTspan1028" style="">Thread</tspan></tspan><tspan id="SvgjsTspan1029" dy="16.25" x="49"><tspan id="SvgjsTspan1030" style="">对象引用</tspan></tspan></text></g></g><g id="SvgjsG1031" transform="translate(37,262)"><path id="SvgjsPath1032" d="M 0 4Q 0 0 4 0L 94 0Q 98 0 98 4L 98 50Q 98 54 94 54L 4 54Q 0 54 0 50Z" stroke="rgba(33,41,48,1)" stroke-width="1.5" fill-opacity="1" fill="#dec225"></path><g id="SvgjsG1033"><text id="SvgjsText1034" font-family="微软雅黑" text-anchor="middle" font-size="13px" width="78px" fill="#ffffff" font-weight="700" align="middle" lineHeight="125%" anchor="middle" family="微软雅黑" size="13px" weight="700" font-style="" opacity="1" y="16.375" transform="rotate(0)"><tspan id="SvgjsTspan1035" dy="16.25" x="49"><tspan id="SvgjsTspan1036" style="">T对象引用</tspan></tspan></text></g></g><g id="SvgjsG1037" transform="translate(212,25)"><path id="SvgjsPath1038" d="M 0 0L 461 0L 461 308L 0 308Z" stroke="rgba(121,133,236,1)" stroke-width="3" fill-opacity="1" fill="#ffffff"></path><g id="SvgjsG1039"><text id="SvgjsText1040" font-family="微软雅黑" text-anchor="middle" font-size="13px" width="441px" fill="#323232" font-weight="400" align="middle" lineHeight="125%" anchor="middle" family="微软雅黑" size="13px" weight="400" font-style="" opacity="1" y="143.375" transform="rotate(0)"></text></g></g><g id="SvgjsG1041" transform="translate(235,43)"><path id="SvgjsPath1042" d="M 0 4Q 0 0 4 0L 94 0Q 98 0 98 4L 98 50Q 98 54 94 54L 4 54Q 0 54 0 50Z" stroke="rgba(33,41,48,1)" stroke-width="1.5" fill-opacity="1" fill="#a7932c"></path><g id="SvgjsG1043"><text id="SvgjsText1044" font-family="微软雅黑" text-anchor="middle" font-size="13px" width="78px" fill="#ffffff" font-weight="700" align="middle" lineHeight="125%" anchor="middle" family="微软雅黑" size="13px" weight="700" font-style="" opacity="1" y="7.875" transform="rotate(0)"><tspan id="SvgjsTspan1045" dy="16.25" x="49"><tspan id="SvgjsTspan1046" style="">ThreadLocal</tspan></tspan><tspan id="SvgjsTspan1047" dy="16.25" x="49"><tspan id="SvgjsTspan1048" style="">对象引用</tspan></tspan></text></g></g><g id="SvgjsG1049" transform="translate(235,152)"><path id="SvgjsPath1050" d="M 0 4Q 0 0 4 0L 94 0Q 98 0 98 4L 98 50Q 98 54 94 54L 4 54Q 0 54 0 50Z" stroke="rgba(33,41,48,1)" stroke-width="1.5" fill-opacity="1" fill="#a7932c"></path><g id="SvgjsG1051"><text id="SvgjsText1052" font-family="微软雅黑" text-anchor="middle" font-size="13px" width="78px" fill="#ffffff" font-weight="700" align="middle" lineHeight="125%" anchor="middle" family="微软雅黑" size="13px" weight="700" font-style="" opacity="1" y="7.875" transform="rotate(0)"><tspan id="SvgjsTspan1053" dy="16.25" x="49"><tspan id="SvgjsTspan1054" style="">Thread</tspan></tspan><tspan id="SvgjsTspan1055" dy="16.25" x="49"><tspan id="SvgjsTspan1056" style="">对象引用</tspan></tspan></text></g></g><g id="SvgjsG1057" transform="translate(235,262)"><path id="SvgjsPath1058" d="M 0 4Q 0 0 4 0L 94 0Q 98 0 98 4L 98 50Q 98 54 94 54L 4 54Q 0 54 0 50Z" stroke="rgba(33,41,48,1)" stroke-width="1.5" fill-opacity="1" fill="#a7932c"></path><g id="SvgjsG1059"><text id="SvgjsText1060" font-family="微软雅黑" text-anchor="middle" font-size="13px" width="78px" fill="#ffffff" font-weight="700" align="middle" lineHeight="125%" anchor="middle" family="微软雅黑" size="13px" weight="700" font-style="" opacity="1" y="16.375" transform="rotate(0)"><tspan id="SvgjsTspan1061" dy="16.25" x="49"><tspan id="SvgjsTspan1062" style="">T对象引用</tspan></tspan></text></g></g><g id="SvgjsG1063" transform="translate(368,152)"><path id="SvgjsPath1064" d="M 0 4Q 0 0 4 0L 94 0Q 98 0 98 4L 98 50Q 98 54 94 54L 4 54Q 0 54 0 50Z" stroke="rgba(33,41,48,1)" stroke-width="1.5" fill-opacity="1" fill="#a7932c"></path><g id="SvgjsG1065"><text id="SvgjsText1066" font-family="微软雅黑" text-anchor="middle" font-size="13px" width="78px" fill="#ffffff" font-weight="700" align="middle" lineHeight="125%" anchor="middle" family="微软雅黑" size="13px" weight="700" font-style="" opacity="1" y="7.875" transform="rotate(0)"><tspan id="SvgjsTspan1067" dy="16.25" x="49"><tspan id="SvgjsTspan1068" style="">Thread</tspan></tspan><tspan id="SvgjsTspan1069" dy="16.25" x="49"><tspan id="SvgjsTspan1070" style="">对象引用</tspan></tspan></text></g></g><g id="SvgjsG1071" transform="translate(545,98)"><path id="SvgjsPath1072" d="M 0 0L 98 0L 98 162L 0 162Z" stroke="rgba(121,133,236,1)" stroke-width="4" fill-opacity="1" fill="#ffffff"></path><g id="SvgjsG1073"><text id="SvgjsText1074" font-family="微软雅黑" text-anchor="middle" font-size="13px" width="78px" fill="#323232" font-weight="400" align="middle" lineHeight="125%" anchor="middle" family="微软雅黑" size="13px" weight="400" font-style="" opacity="1" y="70.375" transform="rotate(0)"></text></g></g><g id="SvgjsG1075" transform="translate(553,124.5)"><path id="SvgjsPath1076" d="M 0 4Q 0 0 4 0L 78 0Q 82 0 82 4L 82 29Q 82 33 78 33L 4 33Q 0 33 0 29Z" stroke="rgba(33,41,48,1)" stroke-width="1.5" fill-opacity="1" fill="#a7932c"></path><g id="SvgjsG1077"><text id="SvgjsText1078" font-family="微软雅黑" text-anchor="middle" font-size="13px" width="62px" fill="#ffffff" font-weight="700" align="middle" lineHeight="125%" anchor="middle" family="微软雅黑" size="13px" weight="700" font-style="" opacity="1" y="5.875" transform="rotate(0)"><tspan id="SvgjsTspan1079" dy="16.25" x="41"><tspan id="SvgjsTspan1080" style="">Key对象</tspan></tspan></text></g></g><g id="SvgjsG1081" transform="translate(553,200.5)"><path id="SvgjsPath1082" d="M 0 4Q 0 0 4 0L 78 0Q 82 0 82 4L 82 29Q 82 33 78 33L 4 33Q 0 33 0 29Z" stroke="rgba(33,41,48,1)" stroke-width="1.5" fill-opacity="1" fill="#a7932c"></path><g id="SvgjsG1083"><text id="SvgjsText1084" font-family="微软雅黑" text-anchor="middle" font-size="13px" width="62px" fill="#ffffff" font-weight="700" align="middle" lineHeight="125%" anchor="middle" family="微软雅黑" size="13px" weight="700" font-style="" opacity="1" y="5.875" transform="rotate(0)"><tspan id="SvgjsTspan1085" dy="16.25" x="41"><tspan id="SvgjsTspan1086" style="">Value对象</tspan></tspan></text></g></g><g id="SvgjsG1087" transform="translate(545,91.5)"><path id="SvgjsPath1088" d="M 0 0L 98 0L 98 40L 0 40Z" stroke="none" fill="none"></path><g id="SvgjsG1089"><text id="SvgjsText1090" font-family="微软雅黑" text-anchor="middle" font-size="13px" width="98px" fill="#323232" font-weight="400" align="middle" lineHeight="125%" anchor="middle" family="微软雅黑" size="13px" weight="400" font-style="" opacity="1" y="9.375" transform="rotate(0)"><tspan id="SvgjsTspan1091" dy="16.25" x="49"><tspan id="SvgjsTspan1092" style="font-weight: bold;">Entry对象</tspan></tspan></text></g></g><g id="SvgjsG1093"><path id="SvgjsPath1094" d="M135.75 70L185 70L185 70L232.3 70" stroke="#a7922c" stroke-width="1.5" fill="none" marker-end="url(#SvgjsMarker1095)"></path></g><g id="SvgjsG1097"><path id="SvgjsPath1098" d="M135.75 179L185 179L185 179L232.3 179" stroke="#a7922c" stroke-width="1.5" fill="none" marker-end="url(#SvgjsMarker1099)"></path></g><g id="SvgjsG1101"><path id="SvgjsPath1102" d="M333.75 179L350.5 179L350.5 179L365.3 179" stroke="#a7922c" stroke-width="1.5" fill="none" marker-end="url(#SvgjsMarker1103)"></path></g><g id="SvgjsG1105"><path id="SvgjsPath1106" d="M135.75 289L185 289L185 289L232.3 289" stroke="#a7922c" stroke-width="1.5" fill="none" marker-end="url(#SvgjsMarker1107)"></path></g><g id="SvgjsG1109"><path id="SvgjsPath1110" d="M466.75 179L506 179L506 179L541.05 179" stroke="#a7922c" stroke-width="1.5" fill="none" marker-end="url(#SvgjsMarker1111)"></path></g><g id="SvgjsG1113"><path id="SvgjsPath1114" d="M333.71279784678353 288.766720704689L550.4339277515793 217.8398054631195" stroke="#a7922c" stroke-width="1.5" fill="none" marker-end="url(#SvgjsMarker1115)"></path></g><g id="SvgjsG1117"><path id="SvgjsPath1118" d="M552.2862491209397 140.76965312539417L335.569503164617 70.82924874858095" stroke-dasharray="8,5" stroke="#7985ec" stroke-width="1.5" fill="none" marker-end="url(#SvgjsMarker1119)"></path><rect id="SvgjsRect1121" width="39" height="16" x="424.8207681312963" y="97.92624789691833" fill="#ffffff"></rect><text id="SvgjsText1122" font-family="微软雅黑" text-anchor="middle" font-size="13px" width="39px" fill="#323232" font-weight="400" align="top" lineHeight="16px" anchor="middle" family="微软雅黑" size="13px" weight="400" font-style="" opacity="1" y="95.30124789691833" transform="rotate(0)"><tspan id="SvgjsTspan1123" dy="16.25" x="444.3207681312963"><tspan id="SvgjsTspan1124" style="">弱引用</tspan></tspan></text></g></svg>