<svg id="SvgjsSvg1006" width="708" height="176" xmlns="http://www.w3.org/2000/svg" version="1.1" xmlns:xlink="http://www.w3.org/1999/xlink" xmlns:svgjs="http://svgjs.com/svgjs"><defs id="SvgjsDefs1007"><pattern patternUnits="userSpaceOnUse" id="pattern_mark_0" width="300" height="300"><text x="150" y="100" fill="rgba(229,229,229,0.8)" font-size="18" transform="rotate(-45, 150, 150)" style="dominant-baseline: middle; text-anchor: middle;"></text></pattern><pattern patternUnits="userSpaceOnUse" id="pattern_mark_1" width="300" height="300"><text x="150" y="200" fill="rgba(229,229,229,0.8)" font-size="18" transform="rotate(-45, 150, 150)" style="dominant-baseline: middle; text-anchor: middle;"></text></pattern><marker id="SvgjsMarker1059" markerWidth="16" markerHeight="12" refX="11" refY="6" viewBox="0 0 16 12" orient="auto" markerUnits="userSpaceOnUse" stroke-dasharray="0,0"><path id="SvgjsPath1060" d="M0,0 L16,6 L0,12 L0,0" fill="#984908" stroke="#984908" stroke-width="1"></path></marker><marker id="SvgjsMarker1063" markerWidth="16" markerHeight="12" refX="11" refY="6" viewBox="0 0 16 12" orient="auto" markerUnits="userSpaceOnUse" stroke-dasharray="0,0"><path id="SvgjsPath1064" d="M0,0 L16,6 L0,12 L0,0" fill="#984908" stroke="#984908" stroke-width="1"></path></marker><marker id="SvgjsMarker1067" markerWidth="16" markerHeight="12" refX="11" refY="6" viewBox="0 0 16 12" orient="auto" markerUnits="userSpaceOnUse" stroke-dasharray="0,0"><path id="SvgjsPath1068" d="M0,0 L16,6 L0,12 L0,0" fill="#984908" stroke="#984908" stroke-width="1"></path></marker><marker id="SvgjsMarker1071" markerWidth="16" markerHeight="12" refX="11" refY="6" viewBox="0 0 16 12" orient="auto" markerUnits="userSpaceOnUse" stroke-dasharray="0,0"><path id="SvgjsPath1072" d="M0,0 L16,6 L0,12 L0,0" fill="#984908" stroke="#984908" stroke-width="1"></path></marker><marker id="SvgjsMarker1075" markerWidth="16" markerHeight="12" refX="11" refY="6" viewBox="0 0 16 12" orient="auto" markerUnits="userSpaceOnUse" stroke-dasharray="0,0"><path id="SvgjsPath1076" d="M0,0 L16,6 L0,12 L0,0" fill="#984908" stroke="#984908" stroke-width="1"></path></marker><marker id="SvgjsMarker1079" markerWidth="16" markerHeight="12" refX="11" refY="6" viewBox="0 0 16 12" orient="auto" markerUnits="userSpaceOnUse" stroke-dasharray="0,0"><path id="SvgjsPath1080" d="M0,0 L16,6 L0,12 L0,0" fill="#984908" stroke="#984908" stroke-width="1"></path></marker><marker id="SvgjsMarker1083" markerWidth="16" markerHeight="12" refX="11" refY="6" viewBox="0 0 16 12" orient="auto" markerUnits="userSpaceOnUse" stroke-dasharray="0,0"><path id="SvgjsPath1084" d="M0,0 L16,6 L0,12 L0,0" fill="#984908" stroke="#984908" stroke-width="1"></path></marker><marker id="SvgjsMarker1087" markerWidth="16" markerHeight="12" refX="11" refY="6" viewBox="0 0 16 12" orient="auto" markerUnits="userSpaceOnUse" stroke-dasharray="0,0"><path id="SvgjsPath1088" d="M0,0 L16,6 L0,12 L0,0" fill="#984908" stroke="#984908" stroke-width="1"></path></marker><marker id="SvgjsMarker1091" markerWidth="16" markerHeight="12" refX="11" refY="6" viewBox="0 0 16 12" orient="auto" markerUnits="userSpaceOnUse" stroke-dasharray="0,0"><path id="SvgjsPath1092" d="M0,0 L16,6 L0,12 L0,0" fill="#984908" stroke="#984908" stroke-width="1"></path></marker><marker id="SvgjsMarker1095" markerWidth="16" markerHeight="12" refX="11" refY="6" viewBox="0 0 16 12" orient="auto" markerUnits="userSpaceOnUse" stroke-dasharray="0,0"><path id="SvgjsPath1096" d="M0,0 L16,6 L0,12 L0,0" fill="#984908" stroke="#984908" stroke-width="1"></path></marker><marker id="SvgjsMarker1099" markerWidth="16" markerHeight="12" refX="11" refY="6" viewBox="0 0 16 12" orient="auto" markerUnits="userSpaceOnUse" stroke-dasharray="0,0"><path id="SvgjsPath1100" d="M0,0 L16,6 L0,12 L0,0" fill="#984908" stroke="#984908" stroke-width="1"></path></marker><marker id="SvgjsMarker1103" markerWidth="16" markerHeight="12" refX="11" refY="6" viewBox="0 0 16 12" orient="auto" markerUnits="userSpaceOnUse" stroke-dasharray="0,0"><path id="SvgjsPath1104" d="M0,0 L16,6 L0,12 L0,0" fill="#984908" stroke="#984908" stroke-width="1"></path></marker><marker id="SvgjsMarker1107" markerWidth="20" markerHeight="16" refX="13" refY="8" viewBox="0 0 20 16" orient="auto" markerUnits="userSpaceOnUse" stroke-dasharray="0,0"><path id="SvgjsPath1108" d="M0,0 L20,8 L0,16 L0,0" fill="#984908" stroke="#984908" stroke-width="1"></path></marker><marker id="SvgjsMarker1111" markerWidth="20" markerHeight="16" refX="7" refY="8" viewBox="0 0 20 16" orient="auto" markerUnits="userSpaceOnUse" stroke-dasharray="0,0"><path id="SvgjsPath1112" d="M20,0 L0,8 L20,16 L20,0" fill="#984908" stroke="#984908" stroke-width="1"></path></marker><marker id="SvgjsMarker1115" markerWidth="20" markerHeight="16" refX="13" refY="8" viewBox="0 0 20 16" orient="auto" markerUnits="userSpaceOnUse" stroke-dasharray="0,0"><path id="SvgjsPath1116" d="M0,0 L20,8 L0,16 L0,0" fill="#984908" stroke="#984908" stroke-width="1"></path></marker><marker id="SvgjsMarker1119" markerWidth="20" markerHeight="16" refX="7" refY="8" viewBox="0 0 20 16" orient="auto" markerUnits="userSpaceOnUse" stroke-dasharray="0,0"><path id="SvgjsPath1120" d="M20,0 L0,8 L20,16 L20,0" fill="#984908" stroke="#984908" stroke-width="1"></path></marker></defs><rect id="svgbackgroundid" width="708" height="176" fill="transparent"></rect><rect id="SvgjsRect1009" width="708" height="176" fill="url(#pattern_mark_0)"></rect><rect id="SvgjsRect1010" width="708" height="176" fill="url(#pattern_mark_1)"></rect><g id="SvgjsG1011" transform="translate(167,42)"><path id="SvgjsPath1012" d="M 0 4Q 0 0 4 0L 44 0Q 48 0 48 4L 48 23Q 48 27 44 27L 4 27Q 0 27 0 23Z" stroke="rgba(33,41,48,1)" stroke-width="1.5" fill-opacity="1" fill="#4e82bd"></path><g id="SvgjsG1013"><text id="SvgjsText1014" font-family="微软雅黑" text-anchor="middle" font-size="13px" width="28px" fill="#323232" font-weight="400" align="middle" lineHeight="125%" anchor="middle" family="微软雅黑" size="13px" weight="400" font-style="" opacity="1" y="2.875" transform="rotate(0)"><tspan id="SvgjsTspan1015" dy="16.25" x="24"><tspan id="SvgjsTspan1016" style="">V1</tspan></tspan></text></g></g><g id="SvgjsG1017" transform="translate(245,42)"><path id="SvgjsPath1018" d="M 0 4Q 0 0 4 0L 44 0Q 48 0 48 4L 48 23Q 48 27 44 27L 4 27Q 0 27 0 23Z" stroke="rgba(33,41,48,1)" stroke-width="1.5" fill-opacity="1" fill="#4e82bd"></path><g id="SvgjsG1019"><text id="SvgjsText1020" font-family="微软雅黑" text-anchor="middle" font-size="13px" width="28px" fill="#323232" font-weight="400" align="middle" lineHeight="125%" anchor="middle" family="微软雅黑" size="13px" weight="400" font-style="" opacity="1" y="2.875" transform="rotate(0)"><tspan id="SvgjsTspan1021" dy="16.25" x="24"><tspan id="SvgjsTspan1022" style="">V1</tspan></tspan></text></g></g><g id="SvgjsG1023" transform="translate(401,42)"><path id="SvgjsPath1024" d="M 0 4Q 0 0 4 0L 44 0Q 48 0 48 4L 48 23Q 48 27 44 27L 4 27Q 0 27 0 23Z" stroke="rgba(33,41,48,1)" stroke-width="1.5" fill-opacity="1" fill="#4e82bd"></path><g id="SvgjsG1025"><text id="SvgjsText1026" font-family="微软雅黑" text-anchor="middle" font-size="13px" width="28px" fill="#323232" font-weight="400" align="middle" lineHeight="125%" anchor="middle" family="微软雅黑" size="13px" weight="400" font-style="" opacity="1" y="2.875" transform="rotate(0)"><tspan id="SvgjsTspan1027" dy="16.25" x="24"><tspan id="SvgjsTspan1028" style="">V1</tspan></tspan></text></g></g><g id="SvgjsG1029" transform="translate(323,42)"><path id="SvgjsPath1030" d="M 0 4Q 0 0 4 0L 44 0Q 48 0 48 4L 48 23Q 48 27 44 27L 4 27Q 0 27 0 23Z" stroke="rgba(33,41,48,1)" stroke-width="1.5" fill-opacity="1" fill="#4e82bd"></path><g id="SvgjsG1031"><text id="SvgjsText1032" font-family="微软雅黑" text-anchor="middle" font-size="13px" width="28px" fill="#323232" font-weight="400" align="middle" lineHeight="125%" anchor="middle" family="微软雅黑" size="13px" weight="400" font-style="" opacity="1" y="2.875" transform="rotate(0)"><tspan id="SvgjsTspan1033" dy="16.25" x="24"><tspan id="SvgjsTspan1034" style="">V1</tspan></tspan></text></g></g><g id="SvgjsG1035" transform="translate(479,42)"><path id="SvgjsPath1036" d="M 0 4Q 0 0 4 0L 44 0Q 48 0 48 4L 48 23Q 48 27 44 27L 4 27Q 0 27 0 23Z" stroke="rgba(33,41,48,1)" stroke-width="1.5" fill-opacity="1" fill="#4e82bd"></path><g id="SvgjsG1037"><text id="SvgjsText1038" font-family="微软雅黑" text-anchor="middle" font-size="13px" width="28px" fill="#323232" font-weight="400" align="middle" lineHeight="125%" anchor="middle" family="微软雅黑" size="13px" weight="400" font-style="" opacity="1" y="2.875" transform="rotate(0)"><tspan id="SvgjsTspan1039" dy="16.25" x="24"><tspan id="SvgjsTspan1040" style="">V1</tspan></tspan></text></g></g><g id="SvgjsG1041" transform="translate(557,42)"><path id="SvgjsPath1042" d="M 0 4Q 0 0 4 0L 44 0Q 48 0 48 4L 48 23Q 48 27 44 27L 4 27Q 0 27 0 23Z" stroke="rgba(33,41,48,1)" stroke-width="1.5" fill-opacity="1" fill="#4e82bd"></path><g id="SvgjsG1043"><text id="SvgjsText1044" font-family="微软雅黑" text-anchor="middle" font-size="13px" width="28px" fill="#323232" font-weight="400" align="middle" lineHeight="125%" anchor="middle" family="微软雅黑" size="13px" weight="400" font-style="" opacity="1" y="2.875" transform="rotate(0)"><tspan id="SvgjsTspan1045" dy="16.25" x="24"><tspan id="SvgjsTspan1046" style="">V1</tspan></tspan></text></g></g><g id="SvgjsG1047" transform="translate(89,42)"><path id="SvgjsPath1048" d="M 0 4Q 0 0 4 0L 44 0Q 48 0 48 4L 48 23Q 48 27 44 27L 4 27Q 0 27 0 23Z" stroke="rgba(33,41,48,1)" stroke-width="1.5" fill-opacity="1" fill="#4e82bd"></path><g id="SvgjsG1049"><text id="SvgjsText1050" font-family="微软雅黑" text-anchor="middle" font-size="13px" width="28px" fill="#323232" font-weight="400" align="middle" lineHeight="125%" anchor="middle" family="微软雅黑" size="13px" weight="400" font-style="" opacity="1" y="2.875" transform="rotate(0)"><tspan id="SvgjsTspan1051" dy="16.25" x="24"><tspan id="SvgjsTspan1052" style="">V1</tspan></tspan></text></g></g><g id="SvgjsG1053"><path id="SvgjsPath1054" d="M79 25L348.5 25L348.5 25L618 25" stroke="#007c69" stroke-width="3" fill="none"></path></g><g id="SvgjsG1055"><path id="SvgjsPath1056" d="M79 91L348.5 91L348.5 91L618 91" stroke="#007c69" stroke-width="3" fill="none"></path></g><g id="SvgjsG1057"><path id="SvgjsPath1058" d="M136.91666666666669 49L151.9997715427346 49L151.9997715427346 49L163.1828764188025 49" stroke="#984908" stroke-width="3" fill="none" marker-end="url(#SvgjsMarker1059)"></path></g><g id="SvgjsG1061"><path id="SvgjsPath1062" d="M215.25 49.83333333333334L230 49.83333333333334L230 49.83333333333334L240.85 49.83333333333334" stroke="#984908" stroke-width="3" fill="none" marker-end="url(#SvgjsMarker1063)"></path></g><g id="SvgjsG1065"><path id="SvgjsPath1066" d="M293.4166666666667 49L308 49L308 49L318.6833333333334 49" stroke="#984908" stroke-width="3" fill="none" marker-end="url(#SvgjsMarker1067)"></path></g><g id="SvgjsG1069"><path id="SvgjsPath1070" d="M370.9166666666667 49L385.9166666666667 49L385.9166666666667 49L397.0166666666667 49" stroke="#984908" stroke-width="3" fill="none" marker-end="url(#SvgjsMarker1071)"></path></g><g id="SvgjsG1073"><path id="SvgjsPath1074" d="M449.4166666666667 48.166666666666686L464 48.166666666666686L464 48.166666666666686L474.6833333333334 48.166666666666686" stroke="#984908" stroke-width="3" fill="none" marker-end="url(#SvgjsMarker1075)"></path></g><g id="SvgjsG1077"><path id="SvgjsPath1078" d="M527.5833333333334 49L542.3333333333334 49L542.3333333333334 49L553.1833333333334 49" stroke="#984908" stroke-width="3" fill="none" marker-end="url(#SvgjsMarker1079)"></path></g><g id="SvgjsG1081"><path id="SvgjsPath1082" d="M556.6160254037844 61.83333333333334L542.0999078258243 61.83333333333334L542.0999078258243 61.83333333333334L531.4837902478641 61.83333333333334" stroke="#984908" stroke-width="3" fill="none" marker-end="url(#SvgjsMarker1083)"></path></g><g id="SvgjsG1085"><path id="SvgjsPath1086" d="M478.8814666626903 62.904970504273734L464.0666470908165 62.904970504273734L464.0666470908165 62.904970504273734L453.1518275189427 62.904970504273734" stroke="#984908" stroke-width="3" fill="none" marker-end="url(#SvgjsMarker1087)"></path></g><g id="SvgjsG1089"><path id="SvgjsPath1090" d="M400.8988427785768 61.758251978309005L385.940533321521 61.758251978309005L385.940533321521 61.758251978309005L374.88222386446523 61.758251978309005" stroke="#984908" stroke-width="3" fill="none" marker-end="url(#SvgjsMarker1091)"></path></g><g id="SvgjsG1093"><path id="SvgjsPath1094" d="M322.5770909152852 61.51986004718174L308.0954043712971 61.51986004718174L308.0954043712971 61.51986004718174L297.51371782730894 61.51986004718174" stroke="#984908" stroke-width="3" fill="none" marker-end="url(#SvgjsMarker1095)"></path></g><g id="SvgjsG1097"><path id="SvgjsPath1098" d="M244.61370330515626 61.29805715292326L229.94158358383658 61.29805715292326L229.94158358383658 61.29805715292326L219.16946386251686 61.29805715292326" stroke="#984908" stroke-width="3" fill="none" marker-end="url(#SvgjsMarker1099)"></path></g><g id="SvgjsG1101"><path id="SvgjsPath1102" d="M166.3558976787155 60.805407289332265L151.72448147165363 60.805407289332265L151.72448147165363 60.805407289332265L140.9930652645918 60.805407289332265" stroke="#984908" stroke-width="3" fill="none" marker-end="url(#SvgjsMarker1103)"></path></g><g id="SvgjsG1105"><path id="SvgjsPath1106" d="M25 123L74.83287641880253 73" stroke="#984908" stroke-width="5" fill="none" marker-end="url(#SvgjsMarker1107)"></path></g><g id="SvgjsG1109"><path id="SvgjsPath1110" d="M38 135L87.83287641880253 85" stroke="#984908" stroke-width="5" fill="none" marker-start="url(#SvgjsMarker1111)"></path></g><g id="SvgjsG1113"><path id="SvgjsPath1114" d="M627 75L683 138" stroke="#984908" stroke-width="5" fill="none" marker-end="url(#SvgjsMarker1115)"></path></g><g id="SvgjsG1117"><path id="SvgjsPath1118" d="M614 88L670 151" stroke="#984908" stroke-width="5" fill="none" marker-start="url(#SvgjsMarker1119)"></path></g></svg>