<svg id="SvgjsSvg1006" width="420" height="330" xmlns="http://www.w3.org/2000/svg" version="1.1" xmlns:xlink="http://www.w3.org/1999/xlink" xmlns:svgjs="http://svgjs.com/svgjs"><defs id="SvgjsDefs1007"><pattern patternUnits="userSpaceOnUse" id="pattern_mark_0" width="300" height="300"><text x="150" y="100" fill="rgba(229,229,229,0.8)" font-size="18" transform="rotate(-45, 150, 150)" style="dominant-baseline: middle; text-anchor: middle;"></text></pattern><pattern patternUnits="userSpaceOnUse" id="pattern_mark_1" width="300" height="300"><text x="150" y="200" fill="rgba(229,229,229,0.8)" font-size="18" transform="rotate(-45, 150, 150)" style="dominant-baseline: middle; text-anchor: middle;"></text></pattern><marker id="SvgjsMarker1063" markerWidth="13" markerHeight="9" refX="9.5" refY="4.5" viewBox="0 0 13 9" orient="auto" markerUnits="userSpaceOnUse" stroke-dasharray="0,0"><path id="SvgjsPath1064" d="M0,0 L13,4.5 L0,9 L0,0" fill="#323232" stroke="#323232" stroke-width="1"></path></marker><marker id="SvgjsMarker1067" markerWidth="13" markerHeight="9" refX="9.5" refY="4.5" viewBox="0 0 13 9" orient="auto" markerUnits="userSpaceOnUse" stroke-dasharray="0,0"><path id="SvgjsPath1068" d="M0,0 L13,4.5 L0,9 L0,0" fill="#323232" stroke="#323232" stroke-width="1"></path></marker><marker id="SvgjsMarker1071" markerWidth="13" markerHeight="9" refX="9.5" refY="4.5" viewBox="0 0 13 9" orient="auto" markerUnits="userSpaceOnUse" stroke-dasharray="0,0"><path id="SvgjsPath1072" d="M0,0 L13,4.5 L0,9 L0,0" fill="#323232" stroke="#323232" stroke-width="1"></path></marker><marker id="SvgjsMarker1075" markerWidth="13" markerHeight="9" refX="9.5" refY="4.5" viewBox="0 0 13 9" orient="auto" markerUnits="userSpaceOnUse" stroke-dasharray="0,0"><path id="SvgjsPath1076" d="M0,0 L13,4.5 L0,9 L0,0" fill="#323232" stroke="#323232" stroke-width="1"></path></marker></defs><rect id="svgbackgroundid" width="420" height="330" fill="transparent"></rect><rect id="SvgjsRect1009" width="420" height="330" fill="url(#pattern_mark_0)"></rect><rect id="SvgjsRect1010" width="420" height="330" fill="url(#pattern_mark_1)"></rect><g id="SvgjsG1011" transform="translate(225,25)"><path id="SvgjsPath1012" d="M 0 11.666666666666666L 0 68C 0 84 70 84 70 68L 70 11.666666666666666C 70 -3.1818181818181817 0 -3.1818181818181817 0 11.666666666666666ZM 0 11.666666666666666C 0 26.25 70 26.25 70 11.666666666666666C 70 26.25 0 26.25 0 11.666666666666666" stroke="rgba(33,41,48,1)" stroke-width="1.5" fill-opacity="1" fill="#ffffff"></path><g id="SvgjsG1013"><text id="SvgjsText1014" font-family="微软雅黑" text-anchor="middle" font-size="13px" width="70px" fill="#323232" font-weight="400" align="middle" lineHeight="125%" anchor="middle" family="微软雅黑" size="13px" weight="400" font-style="" opacity="1" y="4.875" transform="rotate(0)"><tspan id="SvgjsTspan1015" dy="16.25" x="35"><tspan id="SvgjsTspan1016" style=""> </tspan></tspan><tspan id="SvgjsTspan1017" dy="16.25" x="35"><tspan id="SvgjsTspan1018" style="">Redis</tspan></tspan><tspan id="SvgjsTspan1019" dy="16.25" x="35"><tspan id="SvgjsTspan1020" style="">Master</tspan></tspan></text></g></g><g id="SvgjsG1021" transform="translate(125,125)"><path id="SvgjsPath1022" d="M 0 11.666666666666666L 0 68C 0 84 70 84 70 68L 70 11.666666666666666C 70 -3.1818181818181817 0 -3.1818181818181817 0 11.666666666666666ZM 0 11.666666666666666C 0 26.25 70 26.25 70 11.666666666666666C 70 26.25 0 26.25 0 11.666666666666666" stroke="rgba(33,41,48,1)" stroke-width="1.5" fill-opacity="1" fill="#ffffff"></path><g id="SvgjsG1023"><text id="SvgjsText1024" font-family="微软雅黑" text-anchor="middle" font-size="13px" width="70px" fill="#323232" font-weight="400" align="middle" lineHeight="125%" anchor="middle" family="微软雅黑" size="13px" weight="400" font-style="" opacity="1" y="4.875" transform="rotate(0)"><tspan id="SvgjsTspan1025" dy="16.25" x="35"><tspan id="SvgjsTspan1026" style=""> </tspan></tspan><tspan id="SvgjsTspan1027" dy="16.25" x="35"><tspan id="SvgjsTspan1028" style="">Redis1</tspan></tspan><tspan id="SvgjsTspan1029" dy="16.25" x="35"><tspan id="SvgjsTspan1030" style="">Slave</tspan></tspan></text></g></g><g id="SvgjsG1031" transform="translate(225,225)"><path id="SvgjsPath1032" d="M 0 11.666666666666666L 0 68C 0 84 70 84 70 68L 70 11.666666666666666C 70 -3.1818181818181817 0 -3.1818181818181817 0 11.666666666666666ZM 0 11.666666666666666C 0 26.25 70 26.25 70 11.666666666666666C 70 26.25 0 26.25 0 11.666666666666666" stroke="rgba(33,41,48,1)" stroke-width="1.5" fill-opacity="1" fill="#ffffff"></path><g id="SvgjsG1033"><text id="SvgjsText1034" font-family="微软雅黑" text-anchor="middle" font-size="13px" width="70px" fill="#323232" font-weight="400" align="middle" lineHeight="125%" anchor="middle" family="微软雅黑" size="13px" weight="400" font-style="" opacity="1" y="4.875" transform="rotate(0)"><tspan id="SvgjsTspan1035" dy="16.25" x="35"><tspan id="SvgjsTspan1036" style=""> </tspan></tspan><tspan id="SvgjsTspan1037" dy="16.25" x="35"><tspan id="SvgjsTspan1038" style="">Redis3</tspan></tspan><tspan id="SvgjsTspan1039" dy="16.25" x="35"><tspan id="SvgjsTspan1040" style="">Slave</tspan></tspan></text></g></g><g id="SvgjsG1041" transform="translate(325,125)"><path id="SvgjsPath1042" d="M 0 11.666666666666666L 0 68C 0 84 70 84 70 68L 70 11.666666666666666C 70 -3.1818181818181817 0 -3.1818181818181817 0 11.666666666666666ZM 0 11.666666666666666C 0 26.25 70 26.25 70 11.666666666666666C 70 26.25 0 26.25 0 11.666666666666666" stroke="rgba(33,41,48,1)" stroke-width="1.5" fill-opacity="1" fill="#ffffff"></path><g id="SvgjsG1043"><text id="SvgjsText1044" font-family="微软雅黑" text-anchor="middle" font-size="13px" width="70px" fill="#323232" font-weight="400" align="middle" lineHeight="125%" anchor="middle" family="微软雅黑" size="13px" weight="400" font-style="" opacity="1" y="4.875" transform="rotate(0)"><tspan id="SvgjsTspan1045" dy="16.25" x="35"><tspan id="SvgjsTspan1046" style=""> </tspan></tspan><tspan id="SvgjsTspan1047" dy="16.25" x="35"><tspan id="SvgjsTspan1048" style="">Redis4</tspan></tspan><tspan id="SvgjsTspan1049" dy="16.25" x="35"><tspan id="SvgjsTspan1050" style="">Slave</tspan></tspan></text></g></g><g id="SvgjsG1051" transform="translate(25,225)"><path id="SvgjsPath1052" d="M 0 11.666666666666666L 0 68C 0 84 70 84 70 68L 70 11.666666666666666C 70 -3.1818181818181817 0 -3.1818181818181817 0 11.666666666666666ZM 0 11.666666666666666C 0 26.25 70 26.25 70 11.666666666666666C 70 26.25 0 26.25 0 11.666666666666666" stroke="rgba(33,41,48,1)" stroke-width="1.5" fill-opacity="1" fill="#ffffff"></path><g id="SvgjsG1053"><text id="SvgjsText1054" font-family="微软雅黑" text-anchor="middle" font-size="13px" width="70px" fill="#323232" font-weight="400" align="middle" lineHeight="125%" anchor="middle" family="微软雅黑" size="13px" weight="400" font-style="" opacity="1" y="4.875" transform="rotate(0)"><tspan id="SvgjsTspan1055" dy="16.25" x="35"><tspan id="SvgjsTspan1056" style=""> </tspan></tspan><tspan id="SvgjsTspan1057" dy="16.25" x="35"><tspan id="SvgjsTspan1058" style="">Redis2</tspan></tspan><tspan id="SvgjsTspan1059" dy="16.25" x="35"><tspan id="SvgjsTspan1060" style="">Slave</tspan></tspan></text></g></g><g id="SvgjsG1061"><path id="SvgjsPath1062" d="M259.26456449323183 105.14708710135363L162.64756782436547 124.4704864351269" stroke="#323232" stroke-width="1.5" fill="none" marker-end="url(#SvgjsMarker1063)"></path></g><g id="SvgjsG1065"><path id="SvgjsPath1066" d="M260.73543550676817 105.14708710135363L357.35243217563453 124.4704864351269" stroke="#323232" stroke-width="1.5" fill="none" marker-end="url(#SvgjsMarker1067)"></path></g><g id="SvgjsG1069"><path id="SvgjsPath1070" d="M159.26456449323183 205.14708710135363L62.647567824365495 224.4704864351269" stroke="#323232" stroke-width="1.5" fill="none" marker-end="url(#SvgjsMarker1071)"></path></g><g id="SvgjsG1073"><path id="SvgjsPath1074" d="M160.73543550676817 205.14708710135363L257.35243217563453 224.4704864351269" stroke="#323232" stroke-width="1.5" fill="none" marker-end="url(#SvgjsMarker1075)"></path></g></svg>