<svg id="SvgjsSvg1155" width="584" height="218" xmlns="http://www.w3.org/2000/svg" version="1.1" xmlns:xlink="http://www.w3.org/1999/xlink" xmlns:svgjs="http://svgjs.com/svgjs"><defs id="SvgjsDefs1156"><pattern patternUnits="userSpaceOnUse" id="pattern_mark_0" width="300" height="300"><text x="150" y="100" fill="rgba(229,229,229,0.8)" font-size="18" transform="rotate(-45, 150, 150)" style="dominant-baseline: middle; text-anchor: middle;"></text></pattern><pattern patternUnits="userSpaceOnUse" id="pattern_mark_1" width="300" height="300"><text x="150" y="200" fill="rgba(229,229,229,0.8)" font-size="18" transform="rotate(-45, 150, 150)" style="dominant-baseline: middle; text-anchor: middle;"></text></pattern><marker id="SvgjsMarker1294" markerWidth="13" markerHeight="9" refX="9.5" refY="4.5" viewBox="0 0 13 9" orient="auto" markerUnits="userSpaceOnUse" stroke-dasharray="0,0"><path id="SvgjsPath1295" d="M0,0 L13,4.5 L0,9 L0,0" fill="#323232" stroke="#323232" stroke-width="1"></path></marker><marker id="SvgjsMarker1298" markerWidth="13" markerHeight="9" refX="9.5" refY="4.5" viewBox="0 0 13 9" orient="auto" markerUnits="userSpaceOnUse" stroke-dasharray="0,0"><path id="SvgjsPath1299" d="M0,0 L13,4.5 L0,9 L0,0" fill="#323232" stroke="#323232" stroke-width="1"></path></marker><marker id="SvgjsMarker1302" markerWidth="13" markerHeight="9" refX="9.5" refY="4.5" viewBox="0 0 13 9" orient="auto" markerUnits="userSpaceOnUse" stroke-dasharray="0,0"><path id="SvgjsPath1303" d="M0,0 L13,4.5 L0,9 L0,0" fill="#323232" stroke="#323232" stroke-width="1"></path></marker></defs><rect id="svgbackgroundid" width="584" height="218" fill="transparent"></rect><rect id="SvgjsRect1158" width="584" height="218" fill="url(#pattern_mark_0)"></rect><rect id="SvgjsRect1159" width="584" height="218" fill="url(#pattern_mark_1)"></rect><g id="SvgjsG1160" transform="translate(25,123)"><path id="SvgjsPath1161" d="M 0 4Q 0 0 4 0L 26 0Q 30 0 30 4L 30 26Q 30 30 26 30L 4 30Q 0 30 0 26Z" stroke="none" fill-opacity="1" fill="#f7d777"></path><g id="SvgjsG1162"><text id="SvgjsText1163" font-family="&quot;Comic Sans MS&quot;" text-anchor="middle" font-size="13px" width="10px" fill="#323232" font-weight="400" align="middle" lineHeight="125%" anchor="middle" family="&quot;Comic Sans MS&quot;" size="13px" weight="400" font-style="" opacity="1" y="4.375" transform="rotate(0)"><tspan id="SvgjsTspan1164" dy="16.25" x="15"><tspan id="SvgjsTspan1165" style="">0</tspan></tspan></text></g></g><g id="SvgjsG1166" transform="translate(81,123)"><path id="SvgjsPath1167" d="M 0 4Q 0 0 4 0L 26 0Q 30 0 30 4L 30 26Q 30 30 26 30L 4 30Q 0 30 0 26Z" stroke="none" fill-opacity="1" fill="#ef8884"></path><g id="SvgjsG1168"><text id="SvgjsText1169" font-family="&quot;Comic Sans MS&quot;" text-anchor="middle" font-size="13px" width="10px" fill="#323232" font-weight="400" align="middle" lineHeight="125%" anchor="middle" family="&quot;Comic Sans MS&quot;" size="13px" weight="400" font-style="" opacity="1" y="4.375" transform="rotate(0)"><tspan id="SvgjsTspan1170" dy="16.25" x="15"><tspan id="SvgjsTspan1171" style="">1</tspan></tspan></text></g></g><g id="SvgjsG1172" transform="translate(137,123)"><path id="SvgjsPath1173" d="M 0 4Q 0 0 4 0L 26 0Q 30 0 30 4L 30 26Q 30 30 26 30L 4 30Q 0 30 0 26Z" stroke="none" fill-opacity="1" fill="#f7d777"></path><g id="SvgjsG1174"><text id="SvgjsText1175" font-family="&quot;Comic Sans MS&quot;" text-anchor="middle" font-size="13px" width="10px" fill="#323232" font-weight="400" align="middle" lineHeight="125%" anchor="middle" family="&quot;Comic Sans MS&quot;" size="13px" weight="400" font-style="" opacity="1" y="4.375" transform="rotate(0)"><tspan id="SvgjsTspan1176" dy="16.25" x="15"><tspan id="SvgjsTspan1177" style="">0</tspan></tspan></text></g></g><g id="SvgjsG1178" transform="translate(193,123)"><path id="SvgjsPath1179" d="M 0 4Q 0 0 4 0L 26 0Q 30 0 30 4L 30 26Q 30 30 26 30L 4 30Q 0 30 0 26Z" stroke="none" fill-opacity="1" fill="#ef8884"></path><g id="SvgjsG1180"><text id="SvgjsText1181" font-family="&quot;Comic Sans MS&quot;" text-anchor="middle" font-size="13px" width="10px" fill="#323232" font-weight="400" align="middle" lineHeight="125%" anchor="middle" family="&quot;Comic Sans MS&quot;" size="13px" weight="400" font-style="" opacity="1" y="4.375" transform="rotate(0)"><tspan id="SvgjsTspan1182" dy="16.25" x="15"><tspan id="SvgjsTspan1183" style="">1</tspan></tspan></text></g></g><g id="SvgjsG1184" transform="translate(249,123)"><path id="SvgjsPath1185" d="M 0 4Q 0 0 4 0L 26 0Q 30 0 30 4L 30 26Q 30 30 26 30L 4 30Q 0 30 0 26Z" stroke="none" fill-opacity="1" fill="#f7d777"></path><g id="SvgjsG1186"><text id="SvgjsText1187" font-family="&quot;Comic Sans MS&quot;" text-anchor="middle" font-size="13px" width="10px" fill="#323232" font-weight="400" align="middle" lineHeight="125%" anchor="middle" family="&quot;Comic Sans MS&quot;" size="13px" weight="400" font-style="" opacity="1" y="4.375" transform="rotate(0)"><tspan id="SvgjsTspan1188" dy="16.25" x="15"><tspan id="SvgjsTspan1189" style="">0</tspan></tspan></text></g></g><g id="SvgjsG1190" transform="translate(305,123)"><path id="SvgjsPath1191" d="M 0 4Q 0 0 4 0L 26 0Q 30 0 30 4L 30 26Q 30 30 26 30L 4 30Q 0 30 0 26Z" stroke="none" fill-opacity="1" fill="#ef8884"></path><g id="SvgjsG1192"><text id="SvgjsText1193" font-family="&quot;Comic Sans MS&quot;" text-anchor="middle" font-size="13px" width="10px" fill="#323232" font-weight="400" align="middle" lineHeight="125%" anchor="middle" family="&quot;Comic Sans MS&quot;" size="13px" weight="400" font-style="" opacity="1" y="4.375" transform="rotate(0)"><tspan id="SvgjsTspan1194" dy="16.25" x="15"><tspan id="SvgjsTspan1195" style="">1</tspan></tspan></text></g></g><g id="SvgjsG1196" transform="translate(361,123)"><path id="SvgjsPath1197" d="M 0 4Q 0 0 4 0L 26 0Q 30 0 30 4L 30 26Q 30 30 26 30L 4 30Q 0 30 0 26Z" stroke="none" fill-opacity="1" fill="#f7d777"></path><g id="SvgjsG1198"><text id="SvgjsText1199" font-family="&quot;Comic Sans MS&quot;" text-anchor="middle" font-size="13px" width="10px" fill="#323232" font-weight="400" align="middle" lineHeight="125%" anchor="middle" family="&quot;Comic Sans MS&quot;" size="13px" weight="400" font-style="" opacity="1" y="4.375" transform="rotate(0)"><tspan id="SvgjsTspan1200" dy="16.25" x="15"><tspan id="SvgjsTspan1201" style="">0</tspan></tspan></text></g></g><g id="SvgjsG1202" transform="translate(417,123)"><path id="SvgjsPath1203" d="M 0 4Q 0 0 4 0L 26 0Q 30 0 30 4L 30 26Q 30 30 26 30L 4 30Q 0 30 0 26Z" stroke="none" fill-opacity="1" fill="#f7d777"></path><g id="SvgjsG1204"><text id="SvgjsText1205" font-family="&quot;Comic Sans MS&quot;" text-anchor="middle" font-size="13px" width="10px" fill="#323232" font-weight="400" align="middle" lineHeight="125%" anchor="middle" family="&quot;Comic Sans MS&quot;" size="13px" weight="400" font-style="" opacity="1" y="4.375" transform="rotate(0)"><tspan id="SvgjsTspan1206" dy="16.25" x="15"><tspan id="SvgjsTspan1207" style="">0</tspan></tspan></text></g></g><g id="SvgjsG1208" transform="translate(25,163)"><path id="SvgjsPath1209" d="M 0 4Q 0 0 4 0L 26 0Q 30 0 30 4L 30 26Q 30 30 26 30L 4 30Q 0 30 0 26Z" stroke="none" fill="none"></path><g id="SvgjsG1210"><text id="SvgjsText1211" font-family="&quot;Comic Sans MS&quot;" text-anchor="middle" font-size="13px" width="10px" fill="#323232" font-weight="400" align="middle" lineHeight="125%" anchor="middle" family="&quot;Comic Sans MS&quot;" size="13px" weight="400" font-style="" opacity="1" y="4.375" transform="rotate(0)"><tspan id="SvgjsTspan1212" dy="16.25" x="15"><tspan id="SvgjsTspan1213" style="">0</tspan></tspan></text></g></g><g id="SvgjsG1214" transform="translate(81,163)"><path id="SvgjsPath1215" d="M 0 4Q 0 0 4 0L 26 0Q 30 0 30 4L 30 26Q 30 30 26 30L 4 30Q 0 30 0 26Z" stroke="none" fill="none"></path><g id="SvgjsG1216"><text id="SvgjsText1217" font-family="&quot;Comic Sans MS&quot;" text-anchor="middle" font-size="13px" width="10px" fill="#323232" font-weight="400" align="middle" lineHeight="125%" anchor="middle" family="&quot;Comic Sans MS&quot;" size="13px" weight="400" font-style="" opacity="1" y="4.375" transform="rotate(0)"><tspan id="SvgjsTspan1218" dy="16.25" x="15"><tspan id="SvgjsTspan1219" style="">1</tspan></tspan></text></g></g><g id="SvgjsG1220" transform="translate(137,163)"><path id="SvgjsPath1221" d="M 0 4Q 0 0 4 0L 26 0Q 30 0 30 4L 30 26Q 30 30 26 30L 4 30Q 0 30 0 26Z" stroke="none" fill="none"></path><g id="SvgjsG1222"><text id="SvgjsText1223" font-family="&quot;Comic Sans MS&quot;" text-anchor="middle" font-size="13px" width="10px" fill="#323232" font-weight="400" align="middle" lineHeight="125%" anchor="middle" family="&quot;Comic Sans MS&quot;" size="13px" weight="400" font-style="" opacity="1" y="4.375" transform="rotate(0)"><tspan id="SvgjsTspan1224" dy="16.25" x="15"><tspan id="SvgjsTspan1225" style="">2</tspan></tspan></text></g></g><g id="SvgjsG1226" transform="translate(193,163)"><path id="SvgjsPath1227" d="M 0 4Q 0 0 4 0L 26 0Q 30 0 30 4L 30 26Q 30 30 26 30L 4 30Q 0 30 0 26Z" stroke="none" fill="none"></path><g id="SvgjsG1228"><text id="SvgjsText1229" font-family="&quot;Comic Sans MS&quot;" text-anchor="middle" font-size="13px" width="10px" fill="#323232" font-weight="400" align="middle" lineHeight="125%" anchor="middle" family="&quot;Comic Sans MS&quot;" size="13px" weight="400" font-style="" opacity="1" y="4.375" transform="rotate(0)"><tspan id="SvgjsTspan1230" dy="16.25" x="15"><tspan id="SvgjsTspan1231" style="">3</tspan></tspan></text></g></g><g id="SvgjsG1232" transform="translate(249,163)"><path id="SvgjsPath1233" d="M 0 4Q 0 0 4 0L 26 0Q 30 0 30 4L 30 26Q 30 30 26 30L 4 30Q 0 30 0 26Z" stroke="none" fill="none"></path><g id="SvgjsG1234"><text id="SvgjsText1235" font-family="&quot;Comic Sans MS&quot;" text-anchor="middle" font-size="13px" width="10px" fill="#323232" font-weight="400" align="middle" lineHeight="125%" anchor="middle" family="&quot;Comic Sans MS&quot;" size="13px" weight="400" font-style="" opacity="1" y="4.375" transform="rotate(0)"><tspan id="SvgjsTspan1236" dy="16.25" x="15"><tspan id="SvgjsTspan1237" style="">4</tspan></tspan></text></g></g><g id="SvgjsG1238" transform="translate(305,163)"><path id="SvgjsPath1239" d="M 0 4Q 0 0 4 0L 26 0Q 30 0 30 4L 30 26Q 30 30 26 30L 4 30Q 0 30 0 26Z" stroke="none" fill="none"></path><g id="SvgjsG1240"><text id="SvgjsText1241" font-family="&quot;Comic Sans MS&quot;" text-anchor="middle" font-size="13px" width="10px" fill="#323232" font-weight="400" align="middle" lineHeight="125%" anchor="middle" family="&quot;Comic Sans MS&quot;" size="13px" weight="400" font-style="" opacity="1" y="4.375" transform="rotate(0)"><tspan id="SvgjsTspan1242" dy="16.25" x="15"><tspan id="SvgjsTspan1243" style="">5</tspan></tspan></text></g></g><g id="SvgjsG1244" transform="translate(361,163)"><path id="SvgjsPath1245" d="M 0 4Q 0 0 4 0L 26 0Q 30 0 30 4L 30 26Q 30 30 26 30L 4 30Q 0 30 0 26Z" stroke="none" fill="none"></path><g id="SvgjsG1246"><text id="SvgjsText1247" font-family="&quot;Comic Sans MS&quot;" text-anchor="middle" font-size="13px" width="10px" fill="#323232" font-weight="400" align="middle" lineHeight="125%" anchor="middle" family="&quot;Comic Sans MS&quot;" size="13px" weight="400" font-style="" opacity="1" y="4.375" transform="rotate(0)"><tspan id="SvgjsTspan1248" dy="16.25" x="15"><tspan id="SvgjsTspan1249" style="">6</tspan></tspan></text></g></g><g id="SvgjsG1250" transform="translate(417,163)"><path id="SvgjsPath1251" d="M 0 4Q 0 0 4 0L 26 0Q 30 0 30 4L 30 26Q 30 30 26 30L 4 30Q 0 30 0 26Z" stroke="none" fill="none"></path><g id="SvgjsG1252"><text id="SvgjsText1253" font-family="&quot;Comic Sans MS&quot;" text-anchor="middle" font-size="13px" width="10px" fill="#323232" font-weight="400" align="middle" lineHeight="125%" anchor="middle" family="&quot;Comic Sans MS&quot;" size="13px" weight="400" font-style="" opacity="1" y="4.375" transform="rotate(0)"><tspan id="SvgjsTspan1254" dy="16.25" x="15"><tspan id="SvgjsTspan1255" style="">7</tspan></tspan></text></g></g><g id="SvgjsG1256" transform="translate(176.42857142857144,25)"><path id="SvgjsPath1257" d="M 0 0L 214.57142857142856 0L 214.57142857142856 40L 0 40Z" stroke="none" fill="none"></path><g id="SvgjsG1258"><text id="SvgjsText1259" font-family="&quot;Comic Sans MS&quot;" text-anchor="middle" font-size="15px" width="215px" fill="#696873" font-weight="700" align="middle" lineHeight="125%" anchor="middle" family="&quot;Comic Sans MS&quot;" size="15px" weight="700" font-style="" opacity="1" y="7.625" transform="rotate(0)"><tspan id="SvgjsTspan1260" dy="18.75" x="107.5"><tspan id="SvgjsTspan1261" style="">布隆过滤器 - add 操作</tspan></tspan></text></g></g><g id="SvgjsG1262" transform="translate(473,123)"><path id="SvgjsPath1263" d="M 0 4Q 0 0 4 0L 26 0Q 30 0 30 4L 30 26Q 30 30 26 30L 4 30Q 0 30 0 26Z" stroke="none" fill-opacity="1" fill="#f7d777"></path><g id="SvgjsG1264"><text id="SvgjsText1265" font-family="&quot;Comic Sans MS&quot;" text-anchor="middle" font-size="13px" width="10px" fill="#323232" font-weight="400" align="middle" lineHeight="125%" anchor="middle" family="&quot;Comic Sans MS&quot;" size="13px" weight="400" font-style="" opacity="1" y="4.375" transform="rotate(0)"><tspan id="SvgjsTspan1266" dy="16.25" x="15"><tspan id="SvgjsTspan1267" style="">0</tspan></tspan></text></g></g><g id="SvgjsG1268" transform="translate(529,123)"><path id="SvgjsPath1269" d="M 0 4Q 0 0 4 0L 26 0Q 30 0 30 4L 30 26Q 30 30 26 30L 4 30Q 0 30 0 26Z" stroke="none" fill-opacity="1" fill="#f7d777"></path><g id="SvgjsG1270"><text id="SvgjsText1271" font-family="&quot;Comic Sans MS&quot;" text-anchor="middle" font-size="13px" width="10px" fill="#323232" font-weight="400" align="middle" lineHeight="125%" anchor="middle" family="&quot;Comic Sans MS&quot;" size="13px" weight="400" font-style="" opacity="1" y="4.375" transform="rotate(0)"><tspan id="SvgjsTspan1272" dy="16.25" x="15"><tspan id="SvgjsTspan1273" style="">0</tspan></tspan></text></g></g><g id="SvgjsG1274" transform="translate(473,163)"><path id="SvgjsPath1275" d="M 0 4Q 0 0 4 0L 26 0Q 30 0 30 4L 30 26Q 30 30 26 30L 4 30Q 0 30 0 26Z" stroke="none" fill="none"></path><g id="SvgjsG1276"><text id="SvgjsText1277" font-family="&quot;Comic Sans MS&quot;" text-anchor="middle" font-size="13px" width="10px" fill="#323232" font-weight="400" align="middle" lineHeight="125%" anchor="middle" family="&quot;Comic Sans MS&quot;" size="13px" weight="400" font-style="" opacity="1" y="4.375" transform="rotate(0)"><tspan id="SvgjsTspan1278" dy="16.25" x="15"><tspan id="SvgjsTspan1279" style="">8</tspan></tspan></text></g></g><g id="SvgjsG1280" transform="translate(529,163)"><path id="SvgjsPath1281" d="M 0 4Q 0 0 4 0L 26 0Q 30 0 30 4L 30 26Q 30 30 26 30L 4 30Q 0 30 0 26Z" stroke="none" fill="none"></path><g id="SvgjsG1282"><text id="SvgjsText1283" font-family="&quot;Comic Sans MS&quot;" text-anchor="middle" font-size="13px" width="10px" fill="#323232" font-weight="400" align="middle" lineHeight="125%" anchor="middle" family="&quot;Comic Sans MS&quot;" size="13px" weight="400" font-style="" opacity="1" y="4.375" transform="rotate(0)"><tspan id="SvgjsTspan1284" dy="16.25" x="15"><tspan id="SvgjsTspan1285" style="">9</tspan></tspan></text></g></g><g id="SvgjsG1286" transform="translate(149,59)"><path id="SvgjsPath1287" d="M 0 4Q 0 0 4 0L 114 0Q 118 0 118 4L 118 29Q 118 33 114 33L 4 33Q 0 33 0 29Z" stroke="rgba(33,41,48,1)" stroke-width="1.5" fill-opacity="1" fill="#5a91dd"></path><g id="SvgjsG1288"><text id="SvgjsText1289" font-family="微软雅黑" text-anchor="middle" font-size="13px" width="98px" fill="#ffffff" font-weight="700" align="middle" lineHeight="125%" anchor="middle" family="微软雅黑" size="13px" weight="700" font-style="" opacity="1" y="5.875" transform="rotate(0)"><tspan id="SvgjsTspan1290" dy="16.25" x="59"><tspan id="SvgjsTspan1291" style="">wnyskxz</tspan></tspan></text></g></g><g id="SvgjsG1292"><path id="SvgjsPath1293" d="M158.32705688644796 92.33113073841446L97.74965209523523 122.13906008012236" stroke-dasharray="8,5" stroke="#323232" stroke-width="1.5" fill="none" marker-end="url(#SvgjsMarker1294)"></path></g><g id="SvgjsG1296"><path id="SvgjsPath1297" d="M208 92.75L208 121.05000000000001" stroke-dasharray="8,5" stroke="#323232" stroke-width="1.5" fill="none" marker-end="url(#SvgjsMarker1298)"></path></g><g id="SvgjsG1300"><path id="SvgjsPath1301" d="M258.6708203932499 92.33541019662499L318.25586697755017 122.12793348877506" stroke-dasharray="8,5" stroke="#323232" stroke-width="1.5" fill="none" marker-end="url(#SvgjsMarker1302)"></path></g></svg>