<svg id="SvgjsSvg2091" width="465.0681818181818" height="221.4318181818182" xmlns="http://www.w3.org/2000/svg" version="1.1" xmlns:xlink="http://www.w3.org/1999/xlink" xmlns:svgjs="http://svgjs.com/svgjs"><defs id="SvgjsDefs2092"><pattern patternUnits="userSpaceOnUse" id="pattern_mark_0" width="300" height="300"><text x="150" y="100" fill="rgba(229,229,229,0.8)" font-size="18" transform="rotate(-45, 150, 150)" style="dominant-baseline: middle; text-anchor: middle;"></text></pattern><pattern patternUnits="userSpaceOnUse" id="pattern_mark_1" width="300" height="300"><text x="150" y="200" fill="rgba(229,229,229,0.8)" font-size="18" transform="rotate(-45, 150, 150)" style="dominant-baseline: middle; text-anchor: middle;"></text></pattern><marker id="SvgjsMarker2156" markerWidth="16" markerHeight="12" refX="0" refY="6" viewBox="0 0 16 12" orient="auto" markerUnits="userSpaceOnUse" stroke-dasharray="0,0"><path id="SvgjsPath2157" d="M1,6 L15,1 L15,11L1,6" fill="#ffffff" stroke="#323232" stroke-width="1.5"></path></marker><marker id="SvgjsMarker2158" markerWidth="14" markerHeight="12" refX="16" refY="6" viewBox="0 0 14 12" orient="auto" markerUnits="userSpaceOnUse" stroke-dasharray="0,0"><path id="SvgjsPath2159" d="M1,1 L14,6 L1,11L1,1" fill="#ffffff" stroke="#323232" stroke-width="1.5"></path></marker><marker id="SvgjsMarker2162" markerWidth="16" markerHeight="12" refX="0" refY="6" viewBox="0 0 16 12" orient="auto" markerUnits="userSpaceOnUse" stroke-dasharray="0,0"><path id="SvgjsPath2163" d="M1,6 L15,1 L15,11L1,6" fill="#ffffff" stroke="#323232" stroke-width="1.5"></path></marker><marker id="SvgjsMarker2164" markerWidth="14" markerHeight="12" refX="16" refY="6" viewBox="0 0 14 12" orient="auto" markerUnits="userSpaceOnUse" stroke-dasharray="0,0"><path id="SvgjsPath2165" d="M1,1 L14,6 L1,11L1,1" fill="#ffffff" stroke="#323232" stroke-width="1.5"></path></marker><marker id="SvgjsMarker2168" markerWidth="16" markerHeight="12" refX="0" refY="6" viewBox="0 0 16 12" orient="auto" markerUnits="userSpaceOnUse" stroke-dasharray="0,0"><path id="SvgjsPath2169" d="M1,6 L15,1 L15,11L1,6" fill="#ffffff" stroke="#323232" stroke-width="1.5"></path></marker><marker id="SvgjsMarker2170" markerWidth="14" markerHeight="12" refX="16" refY="6" viewBox="0 0 14 12" orient="auto" markerUnits="userSpaceOnUse" stroke-dasharray="0,0"><path id="SvgjsPath2171" d="M1,1 L14,6 L1,11L1,1" fill="#ffffff" stroke="#323232" stroke-width="1.5"></path></marker><marker id="SvgjsMarker2174" markerWidth="16" markerHeight="12" refX="0" refY="6" viewBox="0 0 16 12" orient="auto" markerUnits="userSpaceOnUse" stroke-dasharray="0,0"><path id="SvgjsPath2175" d="M1,6 L15,1 L15,11L1,6" fill="#ffffff" stroke="#323232" stroke-width="1.5"></path></marker><marker id="SvgjsMarker2176" markerWidth="14" markerHeight="12" refX="16" refY="6" viewBox="0 0 14 12" orient="auto" markerUnits="userSpaceOnUse" stroke-dasharray="0,0"><path id="SvgjsPath2177" d="M1,1 L14,6 L1,11L1,1" fill="#ffffff" stroke="#323232" stroke-width="1.5"></path></marker><marker id="SvgjsMarker2180" markerWidth="16" markerHeight="12" refX="0" refY="6" viewBox="0 0 16 12" orient="auto" markerUnits="userSpaceOnUse" stroke-dasharray="0,0"><path id="SvgjsPath2181" d="M1,6 L15,1 L15,11L1,6" fill="#ffffff" stroke="#323232" stroke-width="1.5"></path></marker><marker id="SvgjsMarker2182" markerWidth="14" markerHeight="12" refX="16" refY="6" viewBox="0 0 14 12" orient="auto" markerUnits="userSpaceOnUse" stroke-dasharray="0,0"><path id="SvgjsPath2183" d="M1,1 L14,6 L1,11L1,1" fill="#ffffff" stroke="#323232" stroke-width="1.5"></path></marker><marker id="SvgjsMarker2186" markerWidth="16" markerHeight="12" refX="0" refY="6" viewBox="0 0 16 12" orient="auto" markerUnits="userSpaceOnUse" stroke-dasharray="0,0"><path id="SvgjsPath2187" d="M1,6 L15,1 L15,11L1,6" fill="#ffffff" stroke="#323232" stroke-width="1.5"></path></marker><marker id="SvgjsMarker2188" markerWidth="14" markerHeight="12" refX="16" refY="6" viewBox="0 0 14 12" orient="auto" markerUnits="userSpaceOnUse" stroke-dasharray="0,0"><path id="SvgjsPath2189" d="M1,1 L14,6 L1,11L1,1" fill="#ffffff" stroke="#323232" stroke-width="1.5"></path></marker><marker id="SvgjsMarker2192" markerWidth="16" markerHeight="12" refX="0" refY="6" viewBox="0 0 16 12" orient="auto" markerUnits="userSpaceOnUse" stroke-dasharray="0,0"><path id="SvgjsPath2193" d="M1,6 L15,1 L15,11L1,6" fill="#ffffff" stroke="#323232" stroke-width="1.5"></path></marker><marker id="SvgjsMarker2194" markerWidth="14" markerHeight="12" refX="16" refY="6" viewBox="0 0 14 12" orient="auto" markerUnits="userSpaceOnUse" stroke-dasharray="0,0"><path id="SvgjsPath2195" d="M1,1 L14,6 L1,11L1,1" fill="#ffffff" stroke="#323232" stroke-width="1.5"></path></marker></defs><rect id="svgbackgroundid" width="465.0681818181818" height="221.4318181818182" fill="transparent"></rect><rect id="SvgjsRect2094" width="465.0681818181818" height="221.4318181818182" fill="url(#pattern_mark_0)"></rect><rect id="SvgjsRect2095" width="465.0681818181818" height="221.4318181818182" fill="url(#pattern_mark_1)"></rect><g id="SvgjsG2096" transform="translate(25.068181818181813,25)"><path id="SvgjsPath2097" d="M 0 4Q 0 0 4 0L 72.86363636363637 0Q 76.86363636363637 0 76.86363636363637 4L 76.86363636363637 16.181818181818187Q 76.86363636363637 20.181818181818187 72.86363636363637 20.181818181818187L 4 20.181818181818187Q 0 20.181818181818187 0 16.181818181818187Z" stroke="rgba(33,41,48,1)" stroke-width="1.5" fill-opacity="1" fill="#ffffff"></path><g id="SvgjsG2098"><text id="SvgjsText2099" font-family="微软雅黑" text-anchor="middle" font-size="13px" width="57px" fill="#323232" font-weight="700" align="middle" lineHeight="125%" anchor="middle" family="微软雅黑" size="13px" weight="700" font-style="" opacity="1" y="-0.5340909090909065" transform="rotate(0)"><tspan id="SvgjsTspan2100" dy="16.25" x="38.5"><tspan id="SvgjsTspan2101" style="">Java线程</tspan></tspan></text></g></g><g id="SvgjsG2102" transform="translate(25,80.22727272727272)"><path id="SvgjsPath2103" d="M 0 4Q 0 0 4 0L 73 0Q 77 0 77 4L 77 16.181818181818187Q 77 20.181818181818187 73 20.181818181818187L 4 20.181818181818187Q 0 20.181818181818187 0 16.181818181818187Z" stroke="rgba(33,41,48,1)" stroke-width="1.5" fill-opacity="1" fill="#ffffff"></path><g id="SvgjsG2104"><text id="SvgjsText2105" font-family="微软雅黑" text-anchor="middle" font-size="13px" width="57px" fill="#323232" font-weight="700" align="middle" lineHeight="125%" anchor="middle" family="微软雅黑" size="13px" weight="700" font-style="" opacity="1" y="-0.5340909090909065" transform="rotate(0)"><tspan id="SvgjsTspan2106" dy="16.25" x="38.5"><tspan id="SvgjsTspan2107" style="">Java线程</tspan></tspan></text></g></g><g id="SvgjsG2108" transform="translate(25,135.45454545454544)"><path id="SvgjsPath2109" d="M 0 4Q 0 0 4 0L 73 0Q 77 0 77 4L 77 16.181818181818187Q 77 20.181818181818187 73 20.181818181818187L 4 20.181818181818187Q 0 20.181818181818187 0 16.181818181818187Z" stroke="rgba(33,41,48,1)" stroke-width="1.5" fill-opacity="1" fill="#ffffff"></path><g id="SvgjsG2110"><text id="SvgjsText2111" font-family="微软雅黑" text-anchor="middle" font-size="13px" width="57px" fill="#323232" font-weight="700" align="middle" lineHeight="125%" anchor="middle" family="微软雅黑" size="13px" weight="700" font-style="" opacity="1" y="-0.5340909090909065" transform="rotate(0)"><tspan id="SvgjsTspan2112" dy="16.25" x="38.5"><tspan id="SvgjsTspan2113" style="">Java线程</tspan></tspan></text></g></g><g id="SvgjsG2114" transform="translate(154.0681818181818,25)"><path id="SvgjsPath2115" d="M 0 4Q 0 0 4 0L 84.22727272727275 0Q 88.22727272727275 0 88.22727272727275 4L 88.22727272727275 16.181818181818187Q 88.22727272727275 20.181818181818187 84.22727272727275 20.181818181818187L 4 20.181818181818187Q 0 20.181818181818187 0 16.181818181818187Z" stroke="rgba(33,41,48,1)" stroke-width="1.5" fill-opacity="1" fill="#ffffff"></path><g id="SvgjsG2116"><text id="SvgjsText2117" font-family="微软雅黑" text-anchor="middle" font-size="13px" width="69px" fill="#323232" font-weight="700" align="middle" lineHeight="125%" anchor="middle" family="微软雅黑" size="13px" weight="700" font-style="" opacity="1" y="-0.5340909090909065" transform="rotate(0)"><tspan id="SvgjsTspan2118" dy="16.25" x="44.5"><tspan id="SvgjsTspan2119" style="">工作内存</tspan></tspan></text></g></g><g id="SvgjsG2120" transform="translate(154.0681818181818,80.22727272727272)"><path id="SvgjsPath2121" d="M 0 4Q 0 0 4 0L 84.22727272727275 0Q 88.22727272727275 0 88.22727272727275 4L 88.22727272727275 16.181818181818187Q 88.22727272727275 20.181818181818187 84.22727272727275 20.181818181818187L 4 20.181818181818187Q 0 20.181818181818187 0 16.181818181818187Z" stroke="rgba(33,41,48,1)" stroke-width="1.5" fill-opacity="1" fill="#ffffff"></path><g id="SvgjsG2122"><text id="SvgjsText2123" font-family="微软雅黑" text-anchor="middle" font-size="13px" width="69px" fill="#323232" font-weight="700" align="middle" lineHeight="125%" anchor="middle" family="微软雅黑" size="13px" weight="700" font-style="" opacity="1" y="-0.5340909090909065" transform="rotate(0)"><tspan id="SvgjsTspan2124" dy="16.25" x="44.5"><tspan id="SvgjsTspan2125" style="">工作内存</tspan></tspan></text></g></g><g id="SvgjsG2126" transform="translate(154.0681818181818,135.45454545454544)"><path id="SvgjsPath2127" d="M 0 4Q 0 0 4 0L 84.22727272727275 0Q 88.22727272727275 0 88.22727272727275 4L 88.22727272727275 16.181818181818187Q 88.22727272727275 20.181818181818187 84.22727272727275 20.181818181818187L 4 20.181818181818187Q 0 20.181818181818187 0 16.181818181818187Z" stroke="rgba(33,41,48,1)" stroke-width="1.5" fill-opacity="1" fill="#ffffff"></path><g id="SvgjsG2128"><text id="SvgjsText2129" font-family="微软雅黑" text-anchor="middle" font-size="13px" width="69px" fill="#323232" font-weight="700" align="middle" lineHeight="125%" anchor="middle" family="微软雅黑" size="13px" weight="700" font-style="" opacity="1" y="-0.5340909090909065" transform="rotate(0)"><tspan id="SvgjsTspan2130" dy="16.25" x="44.5"><tspan id="SvgjsTspan2131" style="">工作内存</tspan></tspan></text></g></g><g id="SvgjsG2132" transform="translate(292.0681818181818,25)"><path id="SvgjsPath2133" d="M 0 0L 58 0L 58 130.63636363636363L 0 130.63636363636363Z" stroke="rgba(33,41,48,1)" stroke-width="1.5" fill-opacity="1" fill="#ffffff"></path><g id="SvgjsG2134"><text id="SvgjsText2135" font-family="微软雅黑" text-anchor="middle" font-size="13px" width="38px" fill="#323232" font-weight="400" align="middle" lineHeight="125%" anchor="middle" family="微软雅黑" size="13px" weight="400" font-style="" opacity="1" y="30.193181818181813" transform="rotate(0)"><tspan id="SvgjsTspan2136" dy="16.25" x="29"><tspan id="SvgjsTspan2137" style="">Sava</tspan></tspan><tspan id="SvgjsTspan2138" dy="16.25" x="29"><tspan id="SvgjsTspan2139" style="">和</tspan></tspan><tspan id="SvgjsTspan2140" dy="16.25" x="29"><tspan id="SvgjsTspan2141" style="">Load</tspan></tspan><tspan id="SvgjsTspan2142" dy="16.25" x="29"><tspan id="SvgjsTspan2143" style="">操作</tspan></tspan></text></g></g><g id="SvgjsG2144" transform="translate(392.0681818181818,55.31818181818181)"><path id="SvgjsPath2145" d="M 0 35C 0 -11.666666666666666 48 -11.666666666666666 48 35C 48 81.66666666666667 0 81.66666666666667 0 35Z" stroke="rgba(33,41,48,1)" stroke-width="1.5" fill-opacity="1" fill="#ffffff"></path><g id="SvgjsG2146"><text id="SvgjsText2147" font-family="微软雅黑" text-anchor="middle" font-size="13px" width="28px" fill="#323232" font-weight="400" align="middle" lineHeight="125%" anchor="middle" family="微软雅黑" size="13px" weight="400" font-style="" opacity="1" y="7.875" transform="rotate(0)"><tspan id="SvgjsTspan2148" dy="16.25" x="24"><tspan id="SvgjsTspan2149" style="">主</tspan></tspan><tspan id="SvgjsTspan2150" dy="16.25" x="24"><tspan id="SvgjsTspan2151" style="">内</tspan></tspan><tspan id="SvgjsTspan2152" dy="16.25" x="24"><tspan id="SvgjsTspan2153" style="">存</tspan></tspan></text></g></g><g id="SvgjsG2154"><path id="SvgjsPath2155" d="M104.63181818181818 35.09090909090909L151.36818181818182 35.09090909090909" stroke="#323232" stroke-width="1.5" fill="none" marker-start="url(#SvgjsMarker2156)" marker-end="url(#SvgjsMarker2158)"></path></g><g id="SvgjsG2160"><path id="SvgjsPath2161" d="M104.69999999999999 90.31818181818181L151.36818181818182 90.31818181818181" stroke="#323232" stroke-width="1.5" fill="none" marker-start="url(#SvgjsMarker2162)" marker-end="url(#SvgjsMarker2164)"></path></g><g id="SvgjsG2166"><path id="SvgjsPath2167" d="M104.69999999999999 145.54545454545453L151.36818181818182 145.54545454545453" stroke="#323232" stroke-width="1.5" fill="none" marker-start="url(#SvgjsMarker2168)" marker-end="url(#SvgjsMarker2170)"></path></g><g id="SvgjsG2172"><path id="SvgjsPath2173" d="M244.99545454545455 35.09090909090909L289.36818181818177 35.09090909090909" stroke="#323232" stroke-width="1.5" fill="none" marker-start="url(#SvgjsMarker2174)" marker-end="url(#SvgjsMarker2176)"></path></g><g id="SvgjsG2178"><path id="SvgjsPath2179" d="M244.99545454545455 90.31818181818181L289.36818181818177 90.31818181818181" stroke="#323232" stroke-width="1.5" fill="none" marker-start="url(#SvgjsMarker2180)" marker-end="url(#SvgjsMarker2182)"></path></g><g id="SvgjsG2184"><path id="SvgjsPath2185" d="M244.99545454545455 145.54545454545453L289.36818181818177 145.54545454545453" stroke="#323232" stroke-width="1.5" fill="none" marker-start="url(#SvgjsMarker2186)" marker-end="url(#SvgjsMarker2188)"></path></g><g id="SvgjsG2190"><path id="SvgjsPath2191" d="M352.76818181818186 90.31818181818181L389.36818181818177 90.31818181818181" stroke="#323232" stroke-width="1.5" fill="none" marker-start="url(#SvgjsMarker2192)" marker-end="url(#SvgjsMarker2194)"></path></g><g id="SvgjsG2196" transform="translate(71.93181818181819,156.4318181818182)"><path id="SvgjsPath2197" d="M 0 0L 249.77272727272725 0L 249.77272727272725 40L 0 40Z" stroke="none" fill="none"></path><g id="SvgjsG2198"><text id="SvgjsText2199" font-family="微软雅黑" text-anchor="middle" font-size="13px" width="250px" fill="#323232" font-weight="400" align="middle" lineHeight="125%" anchor="middle" family="微软雅黑" size="13px" weight="400" font-style="" opacity="1" y="9.375" transform="rotate(0)"><tspan id="SvgjsTspan2200" dy="16.25" x="125"><tspan id="SvgjsTspan2201" style="font-weight: bold;">线程、主内存、工作内存的交互关系</tspan></tspan></text></g></g></svg>