<svg id="SvgjsSvg1006" width="430.1538461538462" height="350" xmlns="http://www.w3.org/2000/svg" version="1.1" xmlns:xlink="http://www.w3.org/1999/xlink" xmlns:svgjs="http://svgjs.com/svgjs"><defs id="SvgjsDefs1007"><pattern patternUnits="userSpaceOnUse" id="pattern_mark_0" width="300" height="300"><text x="150" y="100" fill="rgba(229,229,229,0.8)" font-size="18" transform="rotate(-45, 150, 150)" style="dominant-baseline: middle; text-anchor: middle;"></text></pattern><pattern patternUnits="userSpaceOnUse" id="pattern_mark_1" width="300" height="300"><text x="150" y="200" fill="rgba(229,229,229,0.8)" font-size="18" transform="rotate(-45, 150, 150)" style="dominant-baseline: middle; text-anchor: middle;"></text></pattern><marker id="SvgjsMarker1084" markerWidth="13" markerHeight="9" refX="3.5" refY="4.5" viewBox="0 0 13 9" orient="0" markerUnits="userSpaceOnUse" stroke-dasharray="0,0"><path id="SvgjsPath1085" d="M13,0 L0,4.5 L13,9 L13,0" fill="#323232" stroke="#323232" stroke-width="1"></path></marker><marker id="SvgjsMarker1094" markerWidth="13" markerHeight="9" refX="3.5" refY="4.5" viewBox="0 0 13 9" orient="0" markerUnits="userSpaceOnUse" stroke-dasharray="0,0"><path id="SvgjsPath1095" d="M13,0 L0,4.5 L13,9 L13,0" fill="#323232" stroke="#323232" stroke-width="1"></path></marker><marker id="SvgjsMarker1104" markerWidth="13" markerHeight="9" refX="3.5" refY="4.5" viewBox="0 0 13 9" orient="0" markerUnits="userSpaceOnUse" stroke-dasharray="0,0"><path id="SvgjsPath1105" d="M13,0 L0,4.5 L13,9 L13,0" fill="#323232" stroke="#323232" stroke-width="1"></path></marker></defs><rect id="svgbackgroundid" width="430.1538461538462" height="350" fill="transparent"></rect><rect id="SvgjsRect1009" width="430.1538461538462" height="350" fill="url(#pattern_mark_0)"></rect><rect id="SvgjsRect1010" width="430.1538461538462" height="350" fill="url(#pattern_mark_1)"></rect><g id="SvgjsG1011" transform="matrix(6.123233995736766e-17,1,-1,6.123233995736766e-17,375.1538391113281,101.26666259765625)"><path id="SvgjsPath1012" d="M 0 0L 100 0L 100 40L 0 40Z" stroke="none" fill="none"></path><g id="SvgjsG1013"><text id="SvgjsText1014" font-family="&quot;Comic Sans MS&quot;" text-anchor="start" font-size="12px" width="100px" fill="#323232" font-weight="400" align="middle" lineHeight="125%" anchor="start" family="&quot;Comic Sans MS&quot;" size="12px" weight="400" font-style="" opacity="1" y="10" transform="rotate(0)"></text></g></g><g id="SvgjsG1015" transform="translate(305.1538461538462,26.8000030517578)"><path id="SvgjsPath1016" d="M 0 0L 100 0L 100 40L 0 40Z" stroke="none" fill="none"></path><g id="SvgjsG1017"><text id="SvgjsText1018" font-family="&quot;Comic Sans MS&quot;" text-anchor="start" font-size="13px" width="100px" fill="#323232" font-weight="400" align="middle" lineHeight="125%" anchor="start" family="&quot;Comic Sans MS&quot;" size="13px" weight="400" font-style="" opacity="1" y="9.375" transform="rotate(0)"><tspan id="SvgjsTspan1019" dy="16.25" x="0"><tspan id="SvgjsTspan1020" style="">record_type</tspan></tspan></text></g></g><g id="SvgjsG1021" transform="translate(305.1538461538462,97.24103283850626)"><path id="SvgjsPath1022" d="M 0 0L 100 0L 100 40L 0 40Z" stroke="none" fill="none"></path><g id="SvgjsG1023"><text id="SvgjsText1024" font-family="&quot;Comic Sans MS&quot;" text-anchor="start" font-size="13px" width="100px" fill="#323232" font-weight="400" align="middle" lineHeight="125%" anchor="start" family="&quot;Comic Sans MS&quot;" size="13px" weight="400" font-style="" opacity="1" y="9.375" transform="rotate(0)"><tspan id="SvgjsTspan1025" dy="16.25" x="0"><tspan id="SvgjsTspan1026" style="">next_record</tspan></tspan></text></g></g><g id="SvgjsG1027" transform="translate(305.1538461538462,156.8000030517578)"><path id="SvgjsPath1028" d="M 0 0L 100 0L 100 40L 0 40Z" stroke="none" fill="none"></path><g id="SvgjsG1029"><text id="SvgjsText1030" font-family="&quot;Comic Sans MS&quot;" text-anchor="start" font-size="13px" width="100px" fill="#323232" font-weight="400" align="middle" lineHeight="125%" anchor="start" family="&quot;Comic Sans MS&quot;" size="13px" weight="400" font-style="" opacity="1" y="9.375" transform="rotate(0)"><tspan id="SvgjsTspan1031" dy="16.25" x="0"><tspan id="SvgjsTspan1032" style="">c1列</tspan></tspan></text></g></g><g id="SvgjsG1033" transform="translate(305.1538461538462,223.481821233576)"><path id="SvgjsPath1034" d="M 0 0L 100 0L 100 40L 0 40Z" stroke="none" fill="none"></path><g id="SvgjsG1035"><text id="SvgjsText1036" font-family="&quot;Comic Sans MS&quot;" text-anchor="start" font-size="13px" width="100px" fill="#323232" font-weight="400" align="middle" lineHeight="125%" anchor="start" family="&quot;Comic Sans MS&quot;" size="13px" weight="400" font-style="" opacity="1" y="9.375" transform="rotate(0)"><tspan id="SvgjsTspan1037" dy="16.25" x="0"><tspan id="SvgjsTspan1038" style="">c2列</tspan></tspan></text></g></g><g id="SvgjsG1039" transform="translate(305.1538461538462,280.68461843637317)"><path id="SvgjsPath1040" d="M 0 0L 100 0L 100 40L 0 40Z" stroke="none" fill="none"></path><g id="SvgjsG1041"><text id="SvgjsText1042" font-family="&quot;Comic Sans MS&quot;" text-anchor="start" font-size="13px" width="100px" fill="#323232" font-weight="400" align="middle" lineHeight="125%" anchor="start" family="&quot;Comic Sans MS&quot;" size="13px" weight="400" font-style="" opacity="1" y="9.375" transform="rotate(0)"><tspan id="SvgjsTspan1043" dy="16.25" x="0"><tspan id="SvgjsTspan1044" style="">c3列</tspan></tspan></text></g></g><g id="SvgjsG1045" transform="translate(118.15384615384616,25)"><path id="SvgjsPath1046" d="M 120 0Q 111 0 111 6L 111 24Q 111 30 98 30Q 111 30 111 36L 111 54Q 111 60 120 60" stroke="rgba(33,41,48,1)" stroke-width="1.5" fill="none"></path><path id="SvgjsPath1047" d="M 0 0L 120 0L 120 60L 0 60Z" stroke="none" fill="none"></path><g id="SvgjsG1048"><text id="SvgjsText1049" font-family="&quot;Comic Sans MS&quot;" text-anchor="end" font-size="13px" width="93px" fill="#323232" font-weight="400" align="middle" lineHeight="125%" anchor="end" family="&quot;Comic Sans MS&quot;" size="13px" weight="400" font-style="" opacity="1" y="19.375" transform="rotate(0)"></text></g></g><g id="SvgjsG1050" transform="translate(240.91471571906354,25)"><path id="SvgjsPath1051" d="M0 0L60 0L60 60 L0 60Z" stroke="rgba(102, 102, 102,1)" stroke-width="1" fill-opacity="1" fill="#cbe6c7"></path><path id="SvgjsPath1052" d="M0 60L60 60L60 120 L0 120Z" stroke="rgba(102, 102, 102,1)" stroke-width="1" fill-opacity="1" fill="#cbe6c7"></path><path id="SvgjsPath1053" d="M0 120.03L60 120.03L60 180.03 L0 180.03Z" stroke="rgba(102, 102, 102,1)" stroke-width="1" fill-opacity="1" fill="#f9e0ae"></path><path id="SvgjsPath1054" d="M0 180.03L60 180.03L60 240.03 L0 240.03Z" stroke="rgba(102, 102, 102,1)" stroke-width="1" fill-opacity="1" fill="#c3defd"></path><path id="SvgjsPath1055" d="M0 240.06L60 240.06L60 300 L0 300Z" stroke="rgba(102, 102, 102,1)" stroke-width="1" fill-opacity="1" fill="#debde9"></path><g id="SvgjsG1056"><text id="SvgjsText1057" font-family="&quot;Comic Sans MS&quot;" text-anchor="middle" font-size="16px" width="60px" fill="#323232" font-weight="400" align="middle" lineHeight="125%" anchor="middle" family="&quot;Comic Sans MS&quot;" size="16px" weight="400" font-style="" opacity="1" y="16" transform="rotate(0)"></text></g><g id="SvgjsG1058"><text id="SvgjsText1059" font-family="&quot;Comic Sans MS&quot;" text-anchor="middle" font-size="16px" width="60px" fill="#323232" font-weight="400" align="middle" lineHeight="125%" anchor="middle" family="&quot;Comic Sans MS&quot;" size="16px" weight="400" font-style="" opacity="1" y="76" transform="rotate(0)"></text></g><g id="SvgjsG1060"><text id="SvgjsText1061" font-family="&quot;Comic Sans MS&quot;" text-anchor="middle" font-size="16px" width="60px" fill="#323232" font-weight="400" align="middle" lineHeight="125%" anchor="middle" family="&quot;Comic Sans MS&quot;" size="16px" weight="400" font-style="" opacity="1" y="136.03" transform="rotate(0)"></text></g><g id="SvgjsG1062"><text id="SvgjsText1063" font-family="&quot;Comic Sans MS&quot;" text-anchor="middle" font-size="16px" width="60px" fill="#323232" font-weight="400" align="middle" lineHeight="125%" anchor="middle" family="&quot;Comic Sans MS&quot;" size="16px" weight="400" font-style="" opacity="1" y="196.03" transform="rotate(0)"></text></g><g id="SvgjsG1064"><text id="SvgjsText1065" font-family="&quot;Comic Sans MS&quot;" text-anchor="middle" font-size="16px" width="60px" fill="#323232" font-weight="400" align="middle" lineHeight="125%" anchor="middle" family="&quot;Comic Sans MS&quot;" size="16px" weight="400" font-style="" opacity="1" y="256.03" transform="rotate(0)"></text></g></g><g id="SvgjsG1066" transform="translate(118.15384615384616,87.24103283850627)"><path id="SvgjsPath1067" d="M 120 0Q 111 0 111 6L 111 24Q 111 30 98 30Q 111 30 111 36L 111 54Q 111 60 120 60" stroke="rgba(33,41,48,1)" stroke-width="1.5" fill="none"></path><path id="SvgjsPath1068" d="M 0 0L 120 0L 120 60L 0 60Z" stroke="none" fill="none"></path><g id="SvgjsG1069"><text id="SvgjsText1070" font-family="&quot;Comic Sans MS&quot;" text-anchor="end" font-size="13px" width="93px" fill="#323232" font-weight="400" align="middle" lineHeight="125%" anchor="end" family="&quot;Comic Sans MS&quot;" size="13px" weight="400" font-style="" opacity="1" y="19.375" transform="rotate(0)"></text></g></g><g id="SvgjsG1071" transform="translate(118.15384615384616,149.61538412632086)"><path id="SvgjsPath1072" d="M 120 0Q 111 0 111 9L 111 78.69230793683957Q 111 87.69230793683957 98 87.69230793683957Q 111 87.69230793683957 111 96.69230793683957L 111 166.38461587367914Q 111 175.38461587367914 120 175.38461587367914" stroke="rgba(33,41,48,1)" stroke-width="1.5" fill="none"></path><path id="SvgjsPath1073" d="M 0 0L 120 0L 120 175.38461587367914L 0 175.38461587367914Z" stroke="none" fill="none"></path><g id="SvgjsG1074"><text id="SvgjsText1075" font-family="&quot;Comic Sans MS&quot;" text-anchor="end" font-size="13px" width="93px" fill="#323232" font-weight="400" align="middle" lineHeight="125%" anchor="end" family="&quot;Comic Sans MS&quot;" size="13px" weight="400" font-style="" opacity="1" y="77.06730793683957" transform="rotate(0)"></text></g></g><g id="SvgjsG1076" transform="translate(65.38461538461539,45.90000152587889)"><path id="SvgjsPath1077" d="M 0 0L 105.76923076923077 0L 105.76923076923077 18.1999969482422L 0 18.1999969482422Z" stroke="none" fill="none"></path><g id="SvgjsG1078"><text id="SvgjsText1079" font-family="&quot;Comic Sans MS&quot;" text-anchor="middle" font-size="13px" width="106px" fill="#323232" font-weight="400" align="middle" lineHeight="125%" anchor="middle" family="&quot;Comic Sans MS&quot;" size="13px" weight="400" font-style="" opacity="1" y="-1.5250015258788991" transform="rotate(0)"><tspan id="SvgjsTspan1080" dy="16.25" x="53"><tspan id="SvgjsTspan1081" style="">这个表记录的类型</tspan></tspan></text></g></g><g id="SvgjsG1082"><path id="SvgjsPath1083" d="M173.85384615384615 55L191.89743589743588 55L191.89743589743588 55L212.6410256410256 55" stroke="#323232" stroke-width="1.5" fill="none" marker-start="url(#SvgjsMarker1084)"></path></g><g id="SvgjsG1086" transform="translate(25,107.24103283850627)"><path id="SvgjsPath1087" d="M 0 0L 146.15384615384616 0L 146.15384615384616 20L 0 20Z" stroke="none" fill="none"></path><g id="SvgjsG1088"><text id="SvgjsText1089" font-family="&quot;Comic Sans MS&quot;" text-anchor="middle" font-size="13px" width="147px" fill="#323232" font-weight="400" align="middle" lineHeight="125%" anchor="middle" family="&quot;Comic Sans MS&quot;" size="13px" weight="400" font-style="" opacity="1" y="-0.625" transform="rotate(0)"><tspan id="SvgjsTspan1090" dy="16.25" x="73.5"><tspan id="SvgjsTspan1091" style="">这个表记录的下一条记录</tspan></tspan></text></g></g><g id="SvgjsG1092"><path id="SvgjsPath1093" d="M173.85384615384615 117.24103283850627L191.64102466289816 117.24103283850627L191.64102466289816 117.24103283850627L212.1282031719501 117.24103283850627" stroke="#323232" stroke-width="1.5" fill="none" marker-start="url(#SvgjsMarker1094)"></path></g><g id="SvgjsG1096" transform="translate(28.24358876546222,227.30769206316046)"><path id="SvgjsPath1097" d="M 0 0L 139.6666686229217 0L 139.6666686229217 20L 0 20Z" stroke="none" fill="none"></path><g id="SvgjsG1098"><text id="SvgjsText1099" font-family="&quot;Comic Sans MS&quot;" text-anchor="middle" font-size="13px" width="140px" fill="#323232" font-weight="400" align="middle" lineHeight="125%" anchor="middle" family="&quot;Comic Sans MS&quot;" size="13px" weight="400" font-style="" opacity="1" y="-0.625" transform="rotate(0)"><tspan id="SvgjsTspan1100" dy="16.25" x="70"><tspan id="SvgjsTspan1101" style="">这个表记录的各个列值</tspan></tspan></text></g></g><g id="SvgjsG1102"><path id="SvgjsPath1103" d="M170.61025738838387 237.30769206316046L188.99359023265347 237.30769206316046L188.99359023265347 237.30769206316043L210.07692307692307 237.30769206316043" stroke="#323232" stroke-width="1.5" fill="none" marker-start="url(#SvgjsMarker1104)"></path></g></svg>