<svg xmlns="http://www.w3.org/2000/svg" xlink="http://www.w3.org/1999/xlink" id="mind-svg-con" version="1.1" width="817.265625px" height="390.171875px" style="position: absolute; left: 0px; top: 0px; width: 817.266px; height: 390.172px; background: rgb(39, 40, 41); z-index: 999;"><defs><pattern id="katex03b94fd232edae92" width="164" height="29" x="0" y="0" patternUnits="userSpaceOnUse"><image xmlns:xlink="http://www.w3.org/1999/xlink" xlink:href="https://cdn.processon.com/userId2-65f9ec76ea48f76ef03091c1?e=1710881414&amp;token=trhI0BY8QfVrIGn9nENop6JAc6l5nZuxhjQ62UfM:_sLuq7MSJXGU1Xbk5A_q0NBr1Nk=" width="173px" height="140px" x="0" y="-19"></image></pattern><pattern id="katex85de30f350bcb186" width="170" height="29" x="0" y="0" patternUnits="userSpaceOnUse"><image xmlns:xlink="http://www.w3.org/1999/xlink" xlink:href="https://cdn.processon.com/userId2-65f9ec76ea48f76ef03091c1?e=1710881414&amp;token=trhI0BY8QfVrIGn9nENop6JAc6l5nZuxhjQ62UfM:_sLuq7MSJXGU1Xbk5A_q0NBr1Nk=" width="173px" height="140px" x="0" y="-89"></image></pattern></defs><g id="svgbackgroundid"><defs></defs><rect x="0" y="0" width="817.265625" height="390.171875" fill="#272829"></rect></g><g transform="translate(-9894, -9743.5)" id="sdjakdjak5"><defs></defs><g class="svg-topic-con" transform="translate(0.5,0.5)"><path part="right" sub="true" id="line_897f787c9ece0501" d="M 10015.2 9938.5 C 10015.2 9938.5 10025.2 9805.0859375 10136 9805.0859375" stroke="#F7D8BC" fill="none" stroke-width="2"></path><path part="right" sub="true" id="line_b48b605ee6c6c30e" d="M 10015.2 9938.5 C 10015.2 9938.5 10025.2 9882.0859375 10136 9882.0859375" stroke="#F7D8BC" fill="none" stroke-width="2"></path><path part="right" sub="true" id="line_85de30f350bcb186" d="M 10015.2 9938.5 C 10015.2 9938.5 10025.2 9959.0859375 10136 9959.0859375" stroke="#F7D8BC" fill="none" stroke-width="2"></path><path part="right" sub="true" id="line_03b94fd232edae92" d="M 10015.2 9938.5 C 10015.2 9938.5 10025.2 10053.87890625 10136 10053.87890625" stroke="#F7D8BC" fill="none" stroke-width="2"></path></g><g class="svg-connection-con" transform="translate(0.5,0.5)"></g><g class="svg-freesums-con" transform="translate(0.5,0.5)"></g><g class="svg-freebos-con" transform="translate(0.5,0.5)"></g></g><g id="03b94fd232edae92"><rect x="242" y="288.765625" rx="4px" ry="4px" width="192" height="43" style="fill: #44423f; stroke:none;stroke-width:0px;"></rect><rect transform="translate(256,296)" width="164" height="29" fill="url(#katex03b94fd232edae92)"></rect></g><g id="4479a6790a4e4119"><rect x="470.265625" y="261" rx="1px" ry="1px" width="294" height="28" style="fill: transparent; stroke:none;stroke-width:0px;"></rect><g><text text-anchor="start" align="top" anchor="start" font-size="13px" font-weight="normal" fill="rgb(247, 216, 188)" style="font-size:13px;font-family:Comic Sans MS;color:#F7D8BC;font-style:normal;text-align:left;font-weight:normal;"><tspan x="478" y="279"><tspan dx="0">属于A同时也属于B的共同拥有的元素构成的集合</tspan></tspan></text></g></g><g id="db586830872a27ad"><rect x="470.265625" y="296.5859375" rx="1px" ry="1px" width="141" height="28" style="fill: transparent; stroke:none;stroke-width:0px;"></rect><g><text text-anchor="start" align="top" anchor="start" font-size="13px" font-weight="normal" fill="rgb(247, 216, 188)" style="font-size:13px;font-family:Comic Sans MS;color:#F7D8BC;font-style:normal;text-align:left;font-weight:normal;"><tspan x="478" y="315"><tspan dx="0">SINTER key [key ...]</tspan></tspan></text></g></g><g id="2988a4387aa3d4ad"><rect x="470.265625" y="332.171875" rx="1px" ry="1px" width="317" height="28" style="fill: transparent; stroke:none;stroke-width:0px;"></rect><g><text text-anchor="start" align="top" anchor="start" font-size="13px" font-weight="normal" fill="rgb(247, 216, 188)" style="font-size:13px;font-family:Comic Sans MS;color:#F7D8BC;font-style:normal;text-align:left;font-weight:normal;"><tspan x="478" y="351"><tspan dx="0">SINTERCARD numkeys key [key ...] [LIMIT limit]</tspan></tspan></text></g></g><g id="85de30f350bcb186"><rect x="242" y="193.96875" rx="4px" ry="4px" width="198" height="43" style="fill: #44423f; stroke:none;stroke-width:0px;"></rect><rect transform="translate(256,201)" width="170" height="29" fill="url(#katex85de30f350bcb186)"></rect></g><g id="3a19adf90c2a3dcd"><rect x="475.5546875" y="184" rx="1px" ry="1px" width="229" height="28" style="fill: transparent; stroke:none;stroke-width:0px;"></rect><g><text text-anchor="start" align="top" anchor="start" font-size="13px" font-weight="normal" fill="rgb(247, 216, 188)" style="font-size:13px;font-family:Comic Sans MS;color:#F7D8BC;font-style:normal;text-align:left;font-weight:normal;"><tspan x="484" y="202"><tspan dx="0">属于A或者属于B的元素合并后的集合</tspan></tspan></text></g></g><g id="80d569dd6fe42c9b"><rect x="475.5546875" y="219.5859375" rx="1px" ry="1px" width="146" height="28" style="fill: transparent; stroke:none;stroke-width:0px;"></rect><g><text text-anchor="start" align="top" anchor="start" font-size="13px" font-weight="normal" fill="rgb(247, 216, 188)" style="font-size:13px;font-family:Comic Sans MS;color:#F7D8BC;font-style:normal;text-align:left;font-weight:normal;"><tspan x="484" y="238"><tspan dx="0">SUNION key [key ...]</tspan></tspan></text></g></g><g id="b48b605ee6c6c30e"><rect x="242" y="119.3984375" rx="4px" ry="4px" width="185" height="38" style="fill: #44423f; stroke:none;stroke-width:0px;"></rect><g><text text-anchor="start" align="top" anchor="start" font-size="16px" font-weight="normal" fill="rgb(247, 216, 188)" style="font-size:16px;font-family:Comic Sans MS;color:#F7D8BC;font-style:normal;text-align:left;font-weight:normal;"><tspan x="256" y="144"><tspan dx="0">集合的差集运算 A \ B</tspan></tspan></text></g></g><g id="2521d3f48787ca20"><rect x="462.9296875" y="107" rx="1px" ry="1px" width="216" height="28" style="fill: transparent; stroke:none;stroke-width:0px;"></rect><g><text text-anchor="start" align="top" anchor="start" font-size="13px" font-weight="normal" fill="rgb(247, 216, 188)" style="font-size:13px;font-family:Comic Sans MS;color:#F7D8BC;font-style:normal;text-align:left;font-weight:normal;"><tspan x="471" y="125"><tspan dx="0">属于A但不属于B的元素构成的集合</tspan></tspan></text></g></g><g id="08195c6fe3354d5f"><rect x="462.9296875" y="142.5859375" rx="1px" ry="1px" width="130" height="28" style="fill: transparent; stroke:none;stroke-width:0px;"></rect><g><text text-anchor="start" align="top" anchor="start" font-size="13px" font-weight="normal" fill="rgb(247, 216, 188)" style="font-size:13px;font-family:Comic Sans MS;color:#F7D8BC;font-style:normal;text-align:left;font-weight:normal;"><tspan x="471" y="161"><tspan dx="0">SDIFF key [key ...]</tspan></tspan></text></g></g><g id="897f787c9ece0501"><rect x="242" y="42.3984375" rx="4px" ry="4px" width="66" height="38" style="fill: #44423f; stroke:none;stroke-width:0px;"></rect><g><text text-anchor="start" align="top" anchor="start" font-size="16px" font-weight="normal" fill="rgb(247, 216, 188)" style="font-size:16px;font-family:Comic Sans MS;color:#F7D8BC;font-style:normal;text-align:left;font-weight:normal;"><tspan x="256" y="67"><tspan dx="0">A、B</tspan></tspan></text></g></g><g id="ba9600d9ed04a1a9"><rect x="343.7890625" y="30" rx="1px" ry="1px" width="36" height="28" style="fill: transparent; stroke:none;stroke-width:0px;"></rect><g><text text-anchor="start" align="top" anchor="start" font-size="13px" font-weight="normal" fill="rgb(247, 216, 188)" style="font-size:13px;font-family:Comic Sans MS;color:#F7D8BC;font-style:normal;text-align:left;font-weight:normal;"><tspan x="352" y="48"><tspan dx="0">A</tspan></tspan></text></g></g><g id="d3e1dbd086531836"><rect x="415.7890625" y="30" rx="1px" ry="1px" width="51" height="28" style="fill: transparent; stroke:none;stroke-width:0px;"></rect><g><text text-anchor="start" align="top" anchor="start" font-size="13px" font-weight="normal" fill="rgb(247, 216, 188)" style="font-size:13px;font-family:Comic Sans MS;color:#F7D8BC;font-style:normal;text-align:left;font-weight:normal;"><tspan x="424" y="48"><tspan dx="0">abc12</tspan></tspan></text></g></g><g id="cd9753cea6bdcc55"><rect x="343.7890625" y="65.5859375" rx="1px" ry="1px" width="36" height="28" style="fill: transparent; stroke:none;stroke-width:0px;"></rect><g><text text-anchor="start" align="top" anchor="start" font-size="13px" font-weight="normal" fill="rgb(247, 216, 188)" style="font-size:13px;font-family:Comic Sans MS;color:#F7D8BC;font-style:normal;text-align:left;font-weight:normal;"><tspan x="352" y="84"><tspan dx="0">B</tspan></tspan></text></g></g><g id="c9f46923e4982977"><rect x="415.7890625" y="65.5859375" rx="1px" ry="1px" width="52" height="28" style="fill: transparent; stroke:none;stroke-width:0px;"></rect><g><text text-anchor="start" align="top" anchor="start" font-size="13px" font-weight="normal" fill="rgb(247, 216, 188)" style="font-size:13px;font-family:Comic Sans MS;color:#F7D8BC;font-style:normal;text-align:left;font-weight:normal;"><tspan x="424" y="84"><tspan dx="0">123ax</tspan></tspan></text></g></g><g transform="translate(242, 261)" id="sdjakdjak0"><g id="subline_03b94fd232edae92" transform="translate(0.5, 0.5)"><path id="line_4479a6790a4e4119" d="M 192.265625 49.37890625 L 211 49.37890625 L 211 17.79296875 A 4 4 0 0 1 215 13.79296875 L 228.265625 13.79296875" p="03b94fd232edae92" stroke="#F7D8BC" fill="none" stroke-linecap="square" stroke-width="2"></path><path id="line_db586830872a27ad" d="M 192.265625 49.37890625 L 211 49.37890625 L 211 49.37890625 L 228.265625 49.37890625" p="03b94fd232edae92" stroke="#F7D8BC" fill="none" stroke-linecap="square" stroke-width="2"></path><path id="line_2988a4387aa3d4ad" d="M 192.265625 49.37890625 L 211 49.37890625 L 211 80.96484375 A 4 4 0 0 0 215 84.96484375 L 228.265625 84.96484375" p="03b94fd232edae92" stroke="#F7D8BC" fill="none" stroke-linecap="square" stroke-width="2"></path></g><g transform="translate(0.5,0.5)"></g><g class="svg-summary-con" transform="translate(0.5,0.5)"></g><g class="svg-boundary-con" transform="translate(0.5,0.5)"></g></g><g transform="translate(242, 184)" id="sdjakdjak1"><g id="subline_85de30f350bcb186" transform="translate(0.5, 0.5)"><path id="line_3a19adf90c2a3dcd" d="M 197.5546875 31.5859375 L 216 31.5859375 L 216 17.79296875 A 4 4 0 0 1 220 13.79296875 L 233.5546875 13.79296875" p="85de30f350bcb186" stroke="#F7D8BC" fill="none" stroke-linecap="square" stroke-width="2"></path><path id="line_80d569dd6fe42c9b" d="M 197.5546875 31.5859375 L 216 31.5859375 L 216 45.37890625 A 4 4 0 0 0 220 49.37890625 L 233.5546875 49.37890625" p="85de30f350bcb186" stroke="#F7D8BC" fill="none" stroke-linecap="square" stroke-width="2"></path></g><g transform="translate(0.5,0.5)"></g><g class="svg-summary-con" transform="translate(0.5,0.5)"></g><g class="svg-boundary-con" transform="translate(0.5,0.5)"></g></g><g transform="translate(242, 107)" id="sdjakdjak2"><g id="subline_b48b605ee6c6c30e" transform="translate(0.5, 0.5)"><path id="line_2521d3f48787ca20" d="M 184.9296875 31.5859375 L 203 31.5859375 L 203 17.79296875 A 4 4 0 0 1 207 13.79296875 L 220.9296875 13.79296875" p="b48b605ee6c6c30e" stroke="#F7D8BC" fill="none" stroke-linecap="square" stroke-width="2"></path><path id="line_08195c6fe3354d5f" d="M 184.9296875 31.5859375 L 203 31.5859375 L 203 45.37890625 A 4 4 0 0 0 207 49.37890625 L 220.9296875 49.37890625" p="b48b605ee6c6c30e" stroke="#F7D8BC" fill="none" stroke-linecap="square" stroke-width="2"></path></g><g transform="translate(0.5,0.5)"></g><g class="svg-summary-con" transform="translate(0.5,0.5)"></g><g class="svg-boundary-con" transform="translate(0.5,0.5)"></g></g><g transform="translate(242, 30)" id="sdjakdjak3"><g id="subline_897f787c9ece0501" transform="translate(0.5, 0.5)"><path id="line_ba9600d9ed04a1a9" d="M 65.7890625 31.5859375 L 84 31.5859375 L 84 17.79296875 A 4 4 0 0 1 88 13.79296875 L 101.7890625 13.79296875" p="897f787c9ece0501" stroke="#F7D8BC" fill="none" stroke-linecap="square" stroke-width="2"></path><path id="line_d3e1dbd086531836" d="M 137.7890625 13.79296875 L 156 13.79296875 L 156 13.79296875 L 173.7890625 13.79296875" p="ba9600d9ed04a1a9" stroke="#F7D8BC" fill="none" stroke-linecap="square" stroke-width="2"></path><path id="line_cd9753cea6bdcc55" d="M 65.7890625 31.5859375 L 84 31.5859375 L 84 45.37890625 A 4 4 0 0 0 88 49.37890625 L 101.7890625 49.37890625" p="897f787c9ece0501" stroke="#F7D8BC" fill="none" stroke-linecap="square" stroke-width="2"></path><path id="line_c9f46923e4982977" d="M 137.7890625 49.37890625 L 156 49.37890625 L 156 49.37890625 L 173.7890625 49.37890625" p="cd9753cea6bdcc55" stroke="#F7D8BC" fill="none" stroke-linecap="square" stroke-width="2"></path></g><g transform="translate(0.5,0.5)"></g><g class="svg-summary-con" transform="translate(0.5,0.5)"></g><g class="svg-boundary-con" transform="translate(0.5,0.5)"></g></g><g transform="translate(30, 163)" id="sdjakdjak4"><g id="subline_root" transform="translate(0.5, 0.5)"></g><g transform="translate(0.5,0.5)"></g><g class="svg-summary-con" transform="translate(0.5,0.5)"></g><g class="svg-boundary-con" transform="translate(0.5,0.5)"></g></g><g id="root"><rect x="30" y="163" rx="4px" ry="4px" width="152" height="64" style="fill: #c99c68; stroke:none;stroke-width:0px;"></rect><g><text text-anchor="start" align="top" anchor="start" font-size="25px" font-weight="normal" fill="rgb(255, 255, 255)" style="font-size:25px;font-family:Comic Sans MS;color:#ffffff;font-style:normal;text-align:left;font-weight:normal;"><tspan x="56" y="204"><tspan dx="0">聚合运算</tspan></tspan></text></g></g></svg>