<svg id="SvgjsSvg1006" width="435" height="292" xmlns="http://www.w3.org/2000/svg" version="1.1" xmlns:xlink="http://www.w3.org/1999/xlink" xmlns:svgjs="http://svgjs.com/svgjs"><defs id="SvgjsDefs1007"><pattern patternUnits="userSpaceOnUse" id="pattern_mark_0" width="300" height="300"><text x="150" y="100" fill="rgba(229,229,229,0.8)" font-size="18" transform="rotate(-45, 150, 150)" style="dominant-baseline: middle; text-anchor: middle;"></text></pattern><pattern patternUnits="userSpaceOnUse" id="pattern_mark_1" width="300" height="300"><text x="150" y="200" fill="rgba(229,229,229,0.8)" font-size="18" transform="rotate(-45, 150, 150)" style="dominant-baseline: middle; text-anchor: middle;"></text></pattern><marker id="SvgjsMarker1089" markerWidth="13" markerHeight="9" refX="3.5" refY="4.5" viewBox="0 0 13 9" orient="auto" markerUnits="userSpaceOnUse" stroke-dasharray="0,0"><path id="SvgjsPath1090" d="M13,0 L0,4.5 L13,9 L13,0" fill="#314aa4" stroke="#314aa4" stroke-width="1"></path></marker><marker id="SvgjsMarker1093" markerWidth="13" markerHeight="9" refX="3.5" refY="4.5" viewBox="0 0 13 9" orient="auto" markerUnits="userSpaceOnUse" stroke-dasharray="0,0"><path id="SvgjsPath1094" d="M13,0 L0,4.5 L13,9 L13,0" fill="#314aa4" stroke="#314aa4" stroke-width="1"></path></marker><marker id="SvgjsMarker1097" markerWidth="13" markerHeight="9" refX="3.5" refY="4.5" viewBox="0 0 13 9" orient="auto" markerUnits="userSpaceOnUse" stroke-dasharray="0,0"><path id="SvgjsPath1098" d="M13,0 L0,4.5 L13,9 L13,0" fill="#314aa4" stroke="#314aa4" stroke-width="1"></path></marker><marker id="SvgjsMarker1101" markerWidth="13" markerHeight="9" refX="3.5" refY="4.5" viewBox="0 0 13 9" orient="auto" markerUnits="userSpaceOnUse" stroke-dasharray="0,0"><path id="SvgjsPath1102" d="M13,0 L0,4.5 L13,9 L13,0" fill="#314aa4" stroke="#314aa4" stroke-width="1"></path></marker></defs><rect id="svgbackgroundid" width="435" height="292" fill="transparent"></rect><rect id="SvgjsRect1009" width="435" height="292" fill="url(#pattern_mark_0)"></rect><rect id="SvgjsRect1010" width="435" height="292" fill="url(#pattern_mark_1)"></rect><g id="SvgjsG1011" transform="translate(28,65)"><path id="SvgjsPath1012" d="M 0 4Q 0 0 4 0L 90 0Q 94 0 94 4L 94 24Q 94 28 90 28L 4 28Q 0 28 0 24Z" stroke="none" fill-opacity="1" fill="#f7d866"></path><g id="SvgjsG1013"><text id="SvgjsText1014" font-family="&quot;Comic Sans MS&quot;" text-anchor="middle" font-size="13px" width="74px" fill="#323232" font-weight="700" align="middle" lineHeight="125%" anchor="middle" family="&quot;Comic Sans MS&quot;" size="13px" weight="700" font-style="" opacity="1" y="3.375" transform="rotate(0)"><tspan id="SvgjsTspan1015" dy="16.25" x="47"><tspan id="SvgjsTspan1016" style="">Tom</tspan></tspan></text></g></g><g id="SvgjsG1017" transform="translate(28,123)"><path id="SvgjsPath1018" d="M 0 4Q 0 0 4 0L 90 0Q 94 0 94 4L 94 24Q 94 28 90 28L 4 28Q 0 28 0 24Z" stroke="none" fill-opacity="1" fill="#f7d866"></path><g id="SvgjsG1019"><text id="SvgjsText1020" font-family="&quot;Comic Sans MS&quot;" text-anchor="middle" font-size="13px" width="74px" fill="#323232" font-weight="700" align="middle" lineHeight="125%" anchor="middle" family="&quot;Comic Sans MS&quot;" size="13px" weight="700" font-style="" opacity="1" y="3.375" transform="rotate(0)"><tspan id="SvgjsTspan1021" dy="16.25" x="47"><tspan id="SvgjsTspan1022" style="">Jack</tspan></tspan></text></g></g><g id="SvgjsG1023" transform="translate(28,181)"><path id="SvgjsPath1024" d="M 0 4Q 0 0 4 0L 90 0Q 94 0 94 4L 94 24Q 94 28 90 28L 4 28Q 0 28 0 24Z" stroke="none" fill-opacity="1" fill="#f7d866"></path><g id="SvgjsG1025"><text id="SvgjsText1026" font-family="&quot;Comic Sans MS&quot;" text-anchor="middle" font-size="13px" width="74px" fill="#323232" font-weight="700" align="middle" lineHeight="125%" anchor="middle" family="&quot;Comic Sans MS&quot;" size="13px" weight="700" font-style="" opacity="1" y="3.375" transform="rotate(0)"><tspan id="SvgjsTspan1027" dy="16.25" x="47"><tspan id="SvgjsTspan1028" style="">Linda</tspan></tspan></text></g></g><g id="SvgjsG1029" transform="translate(28,239)"><path id="SvgjsPath1030" d="M 0 4Q 0 0 4 0L 90 0Q 94 0 94 4L 94 24Q 94 28 90 28L 4 28Q 0 28 0 24Z" stroke="none" fill-opacity="1" fill="#f7d866"></path><g id="SvgjsG1031"><text id="SvgjsText1032" font-family="&quot;Comic Sans MS&quot;" text-anchor="middle" font-size="13px" width="74px" fill="#323232" font-weight="700" align="middle" lineHeight="125%" anchor="middle" family="&quot;Comic Sans MS&quot;" size="13px" weight="700" font-style="" opacity="1" y="3.375" transform="rotate(0)"><tspan id="SvgjsTspan1033" dy="16.25" x="47"><tspan id="SvgjsTspan1034" style="">Barry</tspan></tspan></text></g></g><g id="SvgjsG1035" transform="translate(313,65)"><path id="SvgjsPath1036" d="M 0 4Q 0 0 4 0L 90 0Q 94 0 94 4L 94 24Q 94 28 90 28L 4 28Q 0 28 0 24Z" stroke="none" fill-opacity="1" fill="#f28082"></path><g id="SvgjsG1037"><text id="SvgjsText1038" font-family="&quot;Comic Sans MS&quot;" text-anchor="middle" font-size="13px" width="74px" fill="#323232" font-weight="700" align="middle" lineHeight="125%" anchor="middle" family="&quot;Comic Sans MS&quot;" size="13px" weight="700" font-style="" opacity="1" y="3.375" transform="rotate(0)"><tspan id="SvgjsTspan1039" dy="16.25" x="47"><tspan id="SvgjsTspan1040" style="">DF35G8</tspan></tspan></text></g></g><g id="SvgjsG1041" transform="translate(313,123)"><path id="SvgjsPath1042" d="M 0 4Q 0 0 4 0L 90 0Q 94 0 94 4L 94 24Q 94 28 90 28L 4 28Q 0 28 0 24Z" stroke="none" fill-opacity="1" fill="#f28082"></path><g id="SvgjsG1043"><text id="SvgjsText1044" font-family="&quot;Comic Sans MS&quot;" text-anchor="middle" font-size="13px" width="74px" fill="#323232" font-weight="700" align="middle" lineHeight="125%" anchor="middle" family="&quot;Comic Sans MS&quot;" size="13px" weight="700" font-style="" opacity="1" y="3.375" transform="rotate(0)"><tspan id="SvgjsTspan1045" dy="16.25" x="47"><tspan id="SvgjsTspan1046" style="">56E5RD</tspan></tspan></text></g></g><g id="SvgjsG1047" transform="translate(313,181)"><path id="SvgjsPath1048" d="M 0 4Q 0 0 4 0L 90 0Q 94 0 94 4L 94 24Q 94 28 90 28L 4 28Q 0 28 0 24Z" stroke="none" fill-opacity="1" fill="#f28082"></path><g id="SvgjsG1049"><text id="SvgjsText1050" font-family="&quot;Comic Sans MS&quot;" text-anchor="middle" font-size="13px" width="74px" fill="#323232" font-weight="700" align="middle" lineHeight="125%" anchor="middle" family="&quot;Comic Sans MS&quot;" size="13px" weight="700" font-style="" opacity="1" y="3.375" transform="rotate(0)"><tspan id="SvgjsTspan1051" dy="16.25" x="47"><tspan id="SvgjsTspan1052" style="">7483DF</tspan></tspan></text></g></g><g id="SvgjsG1053" transform="translate(313,239)"><path id="SvgjsPath1054" d="M 0 4Q 0 0 4 0L 90 0Q 94 0 94 4L 94 24Q 94 28 90 28L 4 28Q 0 28 0 24Z" stroke="none" fill-opacity="1" fill="#f28082"></path><g id="SvgjsG1055"><text id="SvgjsText1056" font-family="&quot;Comic Sans MS&quot;" text-anchor="middle" font-size="13px" width="74px" fill="#323232" font-weight="700" align="middle" lineHeight="125%" anchor="middle" family="&quot;Comic Sans MS&quot;" size="13px" weight="700" font-style="" opacity="1" y="3.375" transform="rotate(0)"><tspan id="SvgjsTspan1057" dy="16.25" x="47"><tspan id="SvgjsTspan1058" style="">3F4DV4</tspan></tspan></text></g></g><g id="SvgjsG1059" transform="translate(179.875,65)"><path id="SvgjsPath1060" d="M 0 0L 75.25 0L 75.25 202L 0 202Z" stroke="rgba(33,41,48,1)" stroke-width="0.5" fill-opacity="1" fill="#6fd4c7"></path><g id="SvgjsG1061"><text id="SvgjsText1062" font-family="&quot;Comic Sans MS&quot;" text-anchor="middle" font-size="13px" width="56px" fill="#323232" font-weight="700" align="middle" lineHeight="125%" anchor="middle" family="&quot;Comic Sans MS&quot;" size="13px" weight="700" font-style="" opacity="1" y="81.875" transform="rotate(0)"><tspan id="SvgjsTspan1063" dy="16.25" x="38"><tspan id="SvgjsTspan1064" style="">Hash</tspan></tspan><tspan id="SvgjsTspan1065" dy="16.25" x="38"><tspan id="SvgjsTspan1066" style="">Function</tspan></tspan></text></g></g><g id="SvgjsG1067" transform="translate(25,25)"><path id="SvgjsPath1068" d="M 0 0L 100 0L 100 40L 0 40Z" stroke="none" fill="none"></path><g id="SvgjsG1069"><text id="SvgjsText1070" font-family="&quot;Comic Sans MS&quot;" text-anchor="middle" font-size="13px" width="100px" fill="#323232" font-weight="700" align="middle" lineHeight="125%" anchor="middle" family="&quot;Comic Sans MS&quot;" size="13px" weight="700" font-style="" opacity="1" y="9.375" transform="rotate(0)"><tspan id="SvgjsTspan1071" dy="16.25" x="50"><tspan id="SvgjsTspan1072" style="">输入</tspan></tspan></text></g></g><g id="SvgjsG1073" transform="translate(310,25.000000000000014)"><path id="SvgjsPath1074" d="M 0 0L 100 0L 100 40L 0 40Z" stroke="none" fill="none"></path><g id="SvgjsG1075"><text id="SvgjsText1076" font-family="&quot;Comic Sans MS&quot;" text-anchor="middle" font-size="13px" width="100px" fill="#323232" font-weight="700" align="middle" lineHeight="125%" anchor="middle" family="&quot;Comic Sans MS&quot;" size="13px" weight="700" font-style="" opacity="1" y="9.375" transform="rotate(0)"><tspan id="SvgjsTspan1077" dy="16.25" x="50"><tspan id="SvgjsTspan1078" style="">输出</tspan></tspan></text></g></g><g id="SvgjsG1079"><path id="SvgjsPath1080" d="M122 79L169.77272727272725 79L169.77272727272725 79L217.5454545454545 79" stroke-dasharray="8,5" stroke="#314aa4" stroke-width="1.5" fill="none"></path></g><g id="SvgjsG1081"><path id="SvgjsPath1082" d="M122 137L169.8181818181818 137L169.8181818181818 137L217.63636363636363 137" stroke-dasharray="8,5" stroke="#314aa4" stroke-width="1.5" fill="none"></path></g><g id="SvgjsG1083"><path id="SvgjsPath1084" d="M122 195L169.8181818181818 195L169.8181818181818 195L217.63636363636363 195" stroke-dasharray="8,5" stroke="#314aa4" stroke-width="1.5" fill="none"></path></g><g id="SvgjsG1085"><path id="SvgjsPath1086" d="M122 253L169.86363636363637 253L169.86363636363637 253L217.7272727272727 253" stroke-dasharray="8,5" stroke="#314aa4" stroke-width="1.5" fill="none"></path></g><g id="SvgjsG1087"><path id="SvgjsPath1088" d="M311.3286533822056 135.99546006391628L216.5 79" stroke-dasharray="8,5" stroke="#314aa4" stroke-width="1.5" fill="none" marker-start="url(#SvgjsMarker1089)"></path></g><g id="SvgjsG1091"><path id="SvgjsPath1092" d="M311.7492926079447 251.50392813693384L217 138.16666666666669" stroke-dasharray="8,5" stroke="#314aa4" stroke-width="1.5" fill="none" marker-start="url(#SvgjsMarker1093)"></path></g><g id="SvgjsG1095"><path id="SvgjsPath1096" d="M311.74931283739886 80.49608877454006L216.16666666666669 194.83333333333337" stroke-dasharray="8,5" stroke="#314aa4" stroke-width="1.5" fill="none" marker-start="url(#SvgjsMarker1097)"></path></g><g id="SvgjsG1099"><path id="SvgjsPath1100" d="M311.3235613572631 195.9960188136468L216.5 252.33333333333337" stroke-dasharray="8,5" stroke="#314aa4" stroke-width="1.5" fill="none" marker-start="url(#SvgjsMarker1101)"></path></g></svg>