<svg id="SvgjsSvg1006" width="855" height="343.86524822695054" xmlns="http://www.w3.org/2000/svg" version="1.1" xmlns:xlink="http://www.w3.org/1999/xlink" xmlns:svgjs="http://svgjs.com/svgjs"><defs id="SvgjsDefs1007"><pattern patternUnits="userSpaceOnUse" id="pattern_mark_0" width="300" height="300"><text x="150" y="100" fill="rgba(229,229,229,0.8)" font-size="18" transform="rotate(-45, 150, 150)" style="dominant-baseline: middle; text-anchor: middle;"></text></pattern><pattern patternUnits="userSpaceOnUse" id="pattern_mark_1" width="300" height="300"><text x="150" y="200" fill="rgba(229,229,229,0.8)" font-size="18" transform="rotate(-45, 150, 150)" style="dominant-baseline: middle; text-anchor: middle;"></text></pattern></defs><rect id="svgbackgroundid" width="855" height="343.86524822695054" fill="transparent"></rect><rect id="SvgjsRect1009" width="855" height="343.86524822695054" fill="url(#pattern_mark_0)"></rect><rect id="SvgjsRect1010" width="855" height="343.86524822695054" fill="url(#pattern_mark_1)"></rect><g id="SvgjsG1011" transform="translate(328,144.86524822695048)"><path id="SvgjsPath1012" d="M 0 4Q 0 0 4 0L 498 0Q 502 0 502 4L 502 50Q 502 54 498 54L 4 54Q 0 54 0 50Z" stroke-dasharray="10,6" stroke="rgba(163,161,148,1)" stroke-width="1.5" fill-opacity="1" fill="#e9fff3"></path><g id="SvgjsG1013"><text id="SvgjsText1014" font-family="&quot;Comic Sans MS&quot;" text-anchor="middle" font-size="13px" width="482px" fill="#323232" font-weight="400" align="middle" lineHeight="125%" anchor="middle" family="&quot;Comic Sans MS&quot;" size="13px" weight="400" font-style="" opacity="1" y="16.375" transform="rotate(0)"></text></g></g><g id="SvgjsG1015" transform="translate(25,144.86524822695048)"><path id="SvgjsPath1016" d="M 0 4Q 0 0 4 0L 298 0Q 302 0 302 4L 302 50Q 302 54 298 54L 4 54Q 0 54 0 50Z" stroke-dasharray="10,6" stroke="rgba(163,161,148,1)" stroke-width="1.5" fill-opacity="1" fill="#feffea"></path><g id="SvgjsG1017"><text id="SvgjsText1018" font-family="&quot;Comic Sans MS&quot;" text-anchor="middle" font-size="13px" width="282px" fill="#323232" font-weight="400" align="middle" lineHeight="125%" anchor="middle" family="&quot;Comic Sans MS&quot;" size="13px" weight="400" font-style="" opacity="1" y="16.375" transform="rotate(0)"></text></g></g><g id="SvgjsG1019" transform="translate(479,163.86524822695048)"><path id="SvgjsPath1020" d="M 0 4Q 0 0 4 0L 246 0Q 250 0 250 4L 250 26Q 250 30 246 30L 4 30Q 0 30 0 26Z" stroke="rgba(33,41,48,1)" stroke-width="1.5" fill-opacity="1" fill="#ccccfc"></path><g id="SvgjsG1021"><text id="SvgjsText1022" font-family="&quot;Comic Sans MS&quot;" text-anchor="middle" font-size="13px" width="230px" fill="#323232" font-weight="700" align="middle" lineHeight="125%" anchor="middle" family="&quot;Comic Sans MS&quot;" size="13px" weight="700" font-style="" opacity="1" y="4.375" transform="rotate(0)"><tspan id="SvgjsTspan1023" dy="16.25" x="125"><tspan id="SvgjsTspan1024" style="">节点数据编码信息(包含数据长度信息)</tspan></tspan></text></g></g><g id="SvgjsG1025" transform="translate(328,163.86524822695048)"><path id="SvgjsPath1026" d="M 0 4Q 0 0 4 0L 146 0Q 150 0 150 4L 150 26Q 150 30 146 30L 4 30Q 0 30 0 26Z" stroke="rgba(33,41,48,1)" stroke-width="1.5" fill-opacity="1" fill="#fae6ca"></path><g id="SvgjsG1027"><text id="SvgjsText1028" font-family="&quot;Comic Sans MS&quot;" text-anchor="middle" font-size="13px" width="130px" fill="#323232" font-weight="700" align="middle" lineHeight="125%" anchor="middle" family="&quot;Comic Sans MS&quot;" size="13px" weight="700" font-style="" opacity="1" y="4.375" transform="rotate(0)"><tspan id="SvgjsTspan1029" dy="16.25" x="75"><tspan id="SvgjsTspan1030" style="">前一节点长度信息</tspan></tspan></text></g></g><g id="SvgjsG1031" transform="translate(730,163.86524822695048)"><path id="SvgjsPath1032" d="M 0 4Q 0 0 4 0L 96 0Q 100 0 100 4L 100 26Q 100 30 96 30L 4 30Q 0 30 0 26Z" stroke="rgba(33,41,48,1)" stroke-width="1.5" fill-opacity="1" fill="#cee4ff"></path><g id="SvgjsG1033"><text id="SvgjsText1034" font-family="&quot;Comic Sans MS&quot;" text-anchor="middle" font-size="13px" width="80px" fill="#323232" font-weight="700" align="middle" lineHeight="125%" anchor="middle" family="&quot;Comic Sans MS&quot;" size="13px" weight="700" font-style="" opacity="1" y="4.375" transform="rotate(0)"><tspan id="SvgjsTspan1035" dy="16.25" x="50"><tspan id="SvgjsTspan1036" style="">节点数据</tspan></tspan></text></g></g><g id="SvgjsG1037" transform="translate(25,163.86524822695048)"><path id="SvgjsPath1038" d="M 0 4Q 0 0 4 0L 96 0Q 100 0 100 4L 100 26Q 100 30 96 30L 4 30Q 0 30 0 26Z" stroke="rgba(33,41,48,1)" stroke-width="1.5" fill-opacity="1" fill="#fae6cc"></path><g id="SvgjsG1039"><text id="SvgjsText1040" font-family="&quot;Comic Sans MS&quot;" text-anchor="middle" font-size="13px" width="80px" fill="#323232" font-weight="400" align="middle" lineHeight="125%" anchor="middle" family="&quot;Comic Sans MS&quot;" size="13px" weight="400" font-style="" opacity="1" y="4.375" transform="rotate(0)"></text></g></g><g id="SvgjsG1041" transform="translate(126,163.86524822695048)"><path id="SvgjsPath1042" d="M 0 4Q 0 0 4 0L 96 0Q 100 0 100 4L 100 26Q 100 30 96 30L 4 30Q 0 30 0 26Z" stroke="rgba(33,41,48,1)" stroke-width="1.5" fill-opacity="1" fill="#cccdfd"></path><g id="SvgjsG1043"><text id="SvgjsText1044" font-family="&quot;Comic Sans MS&quot;" text-anchor="middle" font-size="13px" width="80px" fill="#323232" font-weight="400" align="middle" lineHeight="125%" anchor="middle" family="&quot;Comic Sans MS&quot;" size="13px" weight="400" font-style="" opacity="1" y="4.375" transform="rotate(0)"></text></g></g><g id="SvgjsG1045" transform="translate(227,163.86524822695048)"><path id="SvgjsPath1046" d="M 0 4Q 0 0 4 0L 96 0Q 100 0 100 4L 100 26Q 100 30 96 30L 4 30Q 0 30 0 26Z" stroke="rgba(33,41,48,1)" stroke-width="1.5" fill-opacity="1" fill="#cde5ff"></path><g id="SvgjsG1047"><text id="SvgjsText1048" font-family="&quot;Comic Sans MS&quot;" text-anchor="middle" font-size="13px" width="80px" fill="#323232" font-weight="400" align="middle" lineHeight="125%" anchor="middle" family="&quot;Comic Sans MS&quot;" size="13px" weight="400" font-style="" opacity="1" y="4.375" transform="rotate(0)"></text></g></g><g id="SvgjsG1049" transform="translate(108,143.86524822695048)"><path id="SvgjsPath1050" d="M 0 0L 100 0L 100 20L 0 20Z" stroke="none" fill="none"></path><g id="SvgjsG1051"><text id="SvgjsText1052" font-family="&quot;Comic Sans MS&quot;" text-anchor="middle" font-size="13px" width="100px" fill="#a3a194" font-weight="700" align="middle" lineHeight="125%" anchor="middle" family="&quot;Comic Sans MS&quot;" size="13px" weight="700" font-style="" opacity="1" y="-0.625" transform="rotate(0)"><tspan id="SvgjsTspan1053" dy="16.25" x="50"><tspan id="SvgjsTspan1054" style="">前一节点</tspan></tspan></text></g></g><g id="SvgjsG1055" transform="translate(554,133.86524822695048)"><path id="SvgjsPath1056" d="M 0 0L 100 0L 100 40L 0 40Z" stroke="none" fill="none"></path><g id="SvgjsG1057"><text id="SvgjsText1058" font-family="&quot;Comic Sans MS&quot;" text-anchor="middle" font-size="13px" width="100px" fill="#a3a194" font-weight="700" align="middle" lineHeight="125%" anchor="middle" family="&quot;Comic Sans MS&quot;" size="13px" weight="700" font-style="" opacity="1" y="9.375" transform="rotate(0)"><tspan id="SvgjsTspan1059" dy="16.25" x="50"><tspan id="SvgjsTspan1060" style="">当前节点</tspan></tspan></text></g></g><g id="SvgjsG1061" transform="matrix(-1.8369701987210297e-16,-1,1,-1.8369701987210297e-16,26,318.86524963378906)"><path id="SvgjsPath1062" d="M 120 0Q 111 0 111 9L 111 141Q 111 150 98 150Q 111 150 111 159L 111 291Q 111 300 120 300" stroke="rgba(33,41,48,1)" stroke-width="1.5" fill="none"></path><path id="SvgjsPath1063" d="M 0 0L 120 0L 120 300L 0 300Z" stroke="none" fill="none"></path><g id="SvgjsG1064"><text id="SvgjsText1065" font-family="&quot;Comic Sans MS&quot;" text-anchor="end" font-size="13px" width="93px" fill="#323232" font-weight="400" align="middle" lineHeight="125%" anchor="end" family="&quot;Comic Sans MS&quot;" size="13px" weight="400" font-style="" opacity="1" y="139.375" transform="rotate(0)"></text></g></g><g id="SvgjsG1066" transform="matrix(-1.8369701987210297e-16,-1,1,-1.8369701987210297e-16,327.7045473040956,318.8463102398497)"><path id="SvgjsPath1067" d="M 120 0Q 111 0 111 9L 111 65.98106060606062Q 111 74.98106060606062 98 74.98106060606062Q 111 74.98106060606062 111 83.98106060606062L 111 140.96212121212125Q 111 149.96212121212125 120 149.96212121212125" stroke="rgba(33,41,48,1)" stroke-width="1.5" fill="none"></path><path id="SvgjsPath1068" d="M 0 0L 120 0L 120 149.96212121212125L 0 149.96212121212125Z" stroke="none" fill="none"></path><g id="SvgjsG1069"><text id="SvgjsText1070" font-family="&quot;Comic Sans MS&quot;" text-anchor="end" font-size="13px" width="93px" fill="#323232" font-weight="400" align="middle" lineHeight="125%" anchor="end" family="&quot;Comic Sans MS&quot;" size="13px" weight="400" font-style="" opacity="1" y="64.35606060606062" transform="rotate(0)"></text></g></g><g id="SvgjsG1071" transform="matrix(-1.8369701987210297e-16,-1,1,-1.8369701987210297e-16,478.68560791015625,318.86524963378906)"><path id="SvgjsPath1072" d="M 120 0Q 111 0 111 9L 111 116Q 111 125 98 125Q 111 125 111 134L 111 241Q 111 250 120 250" stroke="rgba(33,41,48,1)" stroke-width="1.5" fill="none"></path><path id="SvgjsPath1073" d="M 0 0L 120 0L 120 250L 0 250Z" stroke="none" fill="none"></path><g id="SvgjsG1074"><text id="SvgjsText1075" font-family="&quot;Comic Sans MS&quot;" text-anchor="end" font-size="13px" width="93px" fill="#323232" font-weight="400" align="middle" lineHeight="125%" anchor="end" family="&quot;Comic Sans MS&quot;" size="13px" weight="400" font-style="" opacity="1" y="114.375" transform="rotate(0)"></text></g></g><g id="SvgjsG1076" transform="matrix(-1.8369701987210297e-16,-1,1,-1.8369701987210297e-16,729.6856079101562,318.86524963378906)"><path id="SvgjsPath1077" d="M 120 0Q 111 0 111 9L 111 41Q 111 50 98 50Q 111 50 111 59L 111 91Q 111 100 120 100" stroke="rgba(33,41,48,1)" stroke-width="1.5" fill="none"></path><path id="SvgjsPath1078" d="M 0 0L 120 0L 120 100L 0 100Z" stroke="none" fill="none"></path><g id="SvgjsG1079"><text id="SvgjsText1080" font-family="&quot;Comic Sans MS&quot;" text-anchor="end" font-size="13px" width="93px" fill="#323232" font-weight="400" align="middle" lineHeight="125%" anchor="end" family="&quot;Comic Sans MS&quot;" size="13px" weight="400" font-style="" opacity="1" y="39.375" transform="rotate(0)"></text></g></g><g id="SvgjsG1081" transform="matrix(6.123233995736766e-17,1,-1,6.123233995736766e-17,726.9621887207031,24.999999999999986)"><path id="SvgjsPath1082" d="M 120 0Q 111 0 111 9L 111 191Q 111 200 98 200Q 111 200 111 209L 111 391Q 111 400 120 400" stroke="rgba(33,41,48,1)" stroke-width="1.5" fill="none"></path><path id="SvgjsPath1083" d="M 0 0L 120 0L 120 400L 0 400Z" stroke="none" fill="none"></path><g id="SvgjsG1084"><text id="SvgjsText1085" font-family="&quot;Comic Sans MS&quot;" text-anchor="end" font-size="13px" width="93px" fill="#323232" font-weight="400" align="middle" lineHeight="125%" anchor="end" family="&quot;Comic Sans MS&quot;" size="13px" weight="400" font-style="" opacity="1" y="189.375" transform="rotate(0)"></text></g></g><g id="SvgjsG1086" transform="translate(123.5,229.2258979131816)"><path id="SvgjsPath1087" d="M 0 4Q 0 0 4 0L 101 0Q 105 0 105 4L 105 35.790697674418595Q 105 39.790697674418595 101 39.790697674418595L 4 39.790697674418595Q 0 39.790697674418595 0 35.790697674418595Z" stroke-dasharray="10,6" stroke="rgba(33,41,48,1)" stroke-width="1.5" fill-opacity="1" fill="#ffffff"></path><g id="SvgjsG1088"><text id="SvgjsText1089" font-family="&quot;Comic Sans MS&quot;" text-anchor="middle" font-size="13px" width="85px" fill="#323232" font-weight="700" align="middle" lineHeight="125%" anchor="middle" family="&quot;Comic Sans MS&quot;" size="13px" weight="700" font-style="" opacity="1" y="0.7703488372092977" transform="rotate(0)"><tspan id="SvgjsTspan1090" dy="16.25" x="52.5"><tspan id="SvgjsTspan1091" style="">前一节点长度</tspan></tspan><tspan id="SvgjsTspan1092" dy="16.25" x="52.5"><tspan id="SvgjsTspan1093" style="">prevrawlen</tspan></tspan></text></g></g><g id="SvgjsG1094" transform="translate(326,229.2258979131816)"><path id="SvgjsPath1095" d="M 0 4Q 0 0 4 0L 150.72222222222217 0Q 154.72222222222217 0 154.72222222222217 4L 154.72222222222217 35.790697674418595Q 154.72222222222217 39.790697674418595 150.72222222222217 39.790697674418595L 4 39.790697674418595Q 0 39.790697674418595 0 35.790697674418595Z" stroke-dasharray="10,6" stroke="rgba(33,41,48,1)" stroke-width="1.5" fill-opacity="1" fill="#ffffff"></path><g id="SvgjsG1096"><text id="SvgjsText1097" font-family="&quot;Comic Sans MS&quot;" text-anchor="middle" font-size="13px" width="135px" fill="#323232" font-weight="700" align="middle" lineHeight="125%" anchor="middle" family="&quot;Comic Sans MS&quot;" size="13px" weight="700" font-style="" opacity="1" y="0.7703488372092977" transform="rotate(0)"><tspan id="SvgjsTspan1098" dy="16.25" x="77.5"><tspan id="SvgjsTspan1099" style="">前一节点长度信息长度</tspan></tspan><tspan id="SvgjsTspan1100" dy="16.25" x="77.5"><tspan id="SvgjsTspan1101" style="">prevrawlensize</tspan></tspan></text></g></g><g id="SvgjsG1102" transform="translate(547.907196969697,229.2258979131816)"><path id="SvgjsPath1103" d="M 0 4Q 0 0 4 0L 108.185606060606 0Q 112.185606060606 0 112.185606060606 4L 112.185606060606 35.790697674418595Q 112.185606060606 39.790697674418595 108.185606060606 39.790697674418595L 4 39.790697674418595Q 0 39.790697674418595 0 35.790697674418595Z" stroke-dasharray="10,6" stroke="rgba(33,41,48,1)" stroke-width="1.5" fill-opacity="1" fill="#ffffff"></path><g id="SvgjsG1104"><text id="SvgjsText1105" font-family="&quot;Comic Sans MS&quot;" text-anchor="middle" font-size="13px" width="93px" fill="#323232" font-weight="700" align="middle" lineHeight="125%" anchor="middle" family="&quot;Comic Sans MS&quot;" size="13px" weight="700" font-style="" opacity="1" y="0.7703488372092977" transform="rotate(0)"><tspan id="SvgjsTspan1106" dy="16.25" x="56.5"><tspan id="SvgjsTspan1107" style="">长度信息的长度</tspan></tspan><tspan id="SvgjsTspan1108" dy="16.25" x="56.5"><tspan id="SvgjsTspan1109" style="">lensize</tspan></tspan></text></g></g><g id="SvgjsG1110" transform="translate(735.2499999999999,229.22589791318165)"><path id="SvgjsPath1111" d="M 0 4Q 0 0 4 0L 85.50000000000023 0Q 89.50000000000023 0 89.50000000000023 4L 89.50000000000023 35.790697674418595Q 89.50000000000023 39.790697674418595 85.50000000000023 39.790697674418595L 4 39.790697674418595Q 0 39.790697674418595 0 35.790697674418595Z" stroke-dasharray="10,6" stroke="rgba(33,41,48,1)" stroke-width="1.5" fill-opacity="1" fill="#ffffff"></path><g id="SvgjsG1112"><text id="SvgjsText1113" font-family="&quot;Comic Sans MS&quot;" text-anchor="middle" font-size="13px" width="70px" fill="#323232" font-weight="700" align="middle" lineHeight="125%" anchor="middle" family="&quot;Comic Sans MS&quot;" size="13px" weight="700" font-style="" opacity="1" y="0.7703488372092977" transform="rotate(0)"><tspan id="SvgjsTspan1114" dy="16.25" x="45"><tspan id="SvgjsTspan1115" style="">数据长度</tspan></tspan><tspan id="SvgjsTspan1116" dy="16.25" x="45"><tspan id="SvgjsTspan1117" style="">len</tspan></tspan></text></g></g><g id="SvgjsG1118" transform="translate(449.96825396825403,74.71390086630078)"><path id="SvgjsPath1119" d="M 0 4Q 0 0 4 0L 150.72222222222217 0Q 154.72222222222217 0 154.72222222222217 4L 154.72222222222217 35.790697674418595Q 154.72222222222217 39.790697674418595 150.72222222222217 39.790697674418595L 4 39.790697674418595Q 0 39.790697674418595 0 35.790697674418595Z" stroke-dasharray="10,6" stroke="rgba(33,41,48,1)" stroke-width="1.5" fill-opacity="1" fill="#ffffff"></path><g id="SvgjsG1120"><text id="SvgjsText1121" font-family="&quot;Comic Sans MS&quot;" text-anchor="middle" font-size="13px" width="135px" fill="#323232" font-weight="700" align="middle" lineHeight="125%" anchor="middle" family="&quot;Comic Sans MS&quot;" size="13px" weight="700" font-style="" opacity="1" y="0.7703488372092977" transform="rotate(0)"><tspan id="SvgjsTspan1122" dy="16.25" x="77.5"><tspan id="SvgjsTspan1123" style="">节点头部信息的长度</tspan></tspan><tspan id="SvgjsTspan1124" dy="16.25" x="77.5"><tspan id="SvgjsTspan1125" style="">headersize</tspan></tspan></text></g></g></svg>