<svg id="SvgjsSvg1536" width="982" height="528.3826859021799" xmlns="http://www.w3.org/2000/svg" version="1.1" xmlns:xlink="http://www.w3.org/1999/xlink" xmlns:svgjs="http://svgjs.com/svgjs"><defs id="SvgjsDefs1537"><pattern patternUnits="userSpaceOnUse" id="pattern_mark_0" width="300" height="300"><text x="150" y="100" fill="rgba(229,229,229,0.8)" font-size="18" transform="rotate(-45, 150, 150)" style="dominant-baseline: middle; text-anchor: middle;"></text></pattern><pattern patternUnits="userSpaceOnUse" id="pattern_mark_1" width="300" height="300"><text x="150" y="200" fill="rgba(229,229,229,0.8)" font-size="18" transform="rotate(-45, 150, 150)" style="dominant-baseline: middle; text-anchor: middle;"></text></pattern><marker id="SvgjsMarker1543" markerWidth="16" markerHeight="12" refX="11" refY="6" viewBox="0 0 16 12" orient="auto" markerUnits="userSpaceOnUse" stroke-dasharray="0,0"><path id="SvgjsPath1544" d="M0,0 L16,6 L0,12 L0,0" fill="#7985ec" stroke="#7985ec" stroke-width="1"></path></marker><marker id="SvgjsMarker1547" markerWidth="16" markerHeight="12" refX="11" refY="6" viewBox="0 0 16 12" orient="auto" markerUnits="userSpaceOnUse" stroke-dasharray="0,0"><path id="SvgjsPath1548" d="M0,0 L16,6 L0,12 L0,0" fill="#a7932c" stroke="#a7932c" stroke-width="1"></path></marker><marker id="SvgjsMarker1555" markerWidth="16" markerHeight="12" refX="11" refY="6" viewBox="0 0 16 12" orient="auto" markerUnits="userSpaceOnUse" stroke-dasharray="0,0"><path id="SvgjsPath1556" d="M0,0 L16,6 L0,12 L0,0" fill="#e0c431" stroke="#e0c431" stroke-width="1"></path></marker><marker id="SvgjsMarker1567" markerWidth="14" markerHeight="12" refX="16" refY="6" viewBox="0 0 14 12" orient="auto" markerUnits="userSpaceOnUse" stroke-dasharray="0,0"><path id="SvgjsPath1568" d="M1,1 L14,6 L1,11L1,1" fill="#ffffff" stroke="#a7932c" stroke-width="3"></path></marker><marker id="SvgjsMarker1595" markerWidth="14" markerHeight="12" refX="16" refY="6" viewBox="0 0 14 12" orient="auto" markerUnits="userSpaceOnUse" stroke-dasharray="0,0"><path id="SvgjsPath1596" d="M1,1 L14,6 L1,11L1,1" fill="#ffffff" stroke="#e0c331" stroke-width="3"></path></marker><marker id="SvgjsMarker1599" markerWidth="14" markerHeight="12" refX="16" refY="6" viewBox="0 0 14 12" orient="auto" markerUnits="userSpaceOnUse" stroke-dasharray="0,0"><path id="SvgjsPath1600" d="M1,1 L14,6 L1,11L1,1" fill="#ffffff" stroke="#e0c331" stroke-width="3"></path></marker><marker id="SvgjsMarker1657" markerWidth="14" markerHeight="12" refX="16" refY="6" viewBox="0 0 14 12" orient="auto" markerUnits="userSpaceOnUse" stroke-dasharray="0,0"><path id="SvgjsPath1658" d="M1,1 L14,6 L1,11L1,1" fill="#ffffff" stroke="#e0c331" stroke-width="3"></path></marker><marker id="SvgjsMarker1661" markerWidth="14" markerHeight="12" refX="16" refY="6" viewBox="0 0 14 12" orient="auto" markerUnits="userSpaceOnUse" stroke-dasharray="0,0"><path id="SvgjsPath1662" d="M1,1 L14,6 L1,11L1,1" fill="#ffffff" stroke="#a7932c" stroke-width="3"></path></marker></defs><rect id="svgbackgroundid" width="982" height="528.3826859021799" fill="transparent"></rect><rect id="SvgjsRect1539" width="982" height="528.3826859021799" fill="url(#pattern_mark_0)"></rect><rect id="SvgjsRect1540" width="982" height="528.3826859021799" fill="url(#pattern_mark_1)"></rect><g id="SvgjsG1541"><path id="SvgjsPath1542" d="M125.75 179.38268590217984L528.5 179.38268590217984L528.5 179.38268590217984L932 179.38268590217984" stroke="#7985ec" stroke-width="3" fill="none" marker-end="url(#SvgjsMarker1543)"></path></g><g id="SvgjsG1545"><path id="SvgjsPath1546" d="M125.75 302.38268590217984L528.5 302.38268590217984L528.5 302.38268590217984L932 302.38268590217984" stroke="#a7932c" stroke-width="3" fill="none" marker-end="url(#SvgjsMarker1547)"></path><rect id="SvgjsRect1549" width="60" height="21" x="193.7803970223325" y="291.88268590217984" fill="#ffffff"></rect><text id="SvgjsText1550" font-family="&quot;Comic Sans MS&quot;" text-anchor="middle" font-size="15px" width="60px" fill="#323232" font-weight="700" align="top" lineHeight="19px" anchor="middle" family="&quot;Comic Sans MS&quot;" size="15px" weight="700" font-style="" opacity="1" y="289.00768590217984" transform="rotate(0)"><tspan id="SvgjsTspan1551" dy="18.75" x="223.7803970223325"><tspan id="SvgjsTspan1552" style="">一顿操作</tspan></tspan></text></g><g id="SvgjsG1553"><path id="SvgjsPath1554" d="M125.75 425.7653718043597L528.5 425.7653718043597L528.5 425.7653718043597L932 425.7653718043597" stroke="#e0c431" stroke-width="3" fill="none" marker-end="url(#SvgjsMarker1555)"></path><rect id="SvgjsRect1557" width="60" height="21" x="649.921836228288" y="415.2653718043597" fill="#ffffff"></rect><text id="SvgjsText1558" font-family="&quot;Comic Sans MS&quot;" text-anchor="middle" font-size="15px" width="60px" fill="#323232" font-weight="700" align="top" lineHeight="19px" anchor="middle" family="&quot;Comic Sans MS&quot;" size="15px" weight="700" font-style="" opacity="1" y="412.3903718043597" transform="rotate(0)"><tspan id="SvgjsTspan1559" dy="18.75" x="679.921836228288"><tspan id="SvgjsTspan1560" style="">一顿操作</tspan></tspan></text></g><g id="SvgjsG1561"><path id="SvgjsPath1562" d="M126 503.38268590217984L126 284.1913429510899L127 284.1913429510899L127 65.75" stroke-dasharray="8,5" stroke="#a6a6a6" stroke-width="2" fill="none"></path></g><g id="SvgjsG1563"><path id="SvgjsPath1564" d="M224 503.38268590217984L224 284.1913429510899L224.5 284.1913429510899L224.5 65.75" stroke-dasharray="8,5" stroke="#a6a6a6" stroke-width="2" fill="none"></path></g><g id="SvgjsG1565"><path id="SvgjsPath1566" d="M125.47492834269295 301.80221792777735L224 181.38268590217984" stroke="#a7932c" stroke-width="3" fill="none" marker-end="url(#SvgjsMarker1567)"></path></g><g id="SvgjsG1569"><path id="SvgjsPath1570" d="M419 503.38268590217984L419 284.1913429510899L419.5 284.1913429510899L419.5 65.75" stroke-dasharray="8,5" stroke="#a6a6a6" stroke-width="2" fill="none"></path></g><g id="SvgjsG1571"><path id="SvgjsPath1572" d="M516 503.38268590217984L516 284.1913429510899L517 284.1913429510899L517 65.75" stroke-dasharray="8,5" stroke="#a6a6a6" stroke-width="2" fill="none"></path></g><g id="SvgjsG1573"><path id="SvgjsPath1574" d="M614 503.38268590217984L614 284.1913429510899L614.5 284.1913429510899L614.5 65.75" stroke-dasharray="8,5" stroke="#a6a6a6" stroke-width="2" fill="none"></path></g><g id="SvgjsG1575"><path id="SvgjsPath1576" d="M711 503.38268590217984L711 284.1913429510899L712 284.1913429510899L712 65.75" stroke-dasharray="8,5" stroke="#a6a6a6" stroke-width="2" fill="none"></path></g><g id="SvgjsG1577"><path id="SvgjsPath1578" d="M809 503.38268590217984L809 284.1913429510899L809.5 284.1913429510899L809.5 65.75" stroke-dasharray="8,5" stroke="#a6a6a6" stroke-width="2" fill="none"></path></g><g id="SvgjsG1579"><path id="SvgjsPath1580" d="M321 503.38268590217984L321 284.1913429510899L322 284.1913429510899L322 65.75" stroke-dasharray="8,5" stroke="#a6a6a6" stroke-width="2" fill="none"></path></g><g id="SvgjsG1581"><path id="SvgjsPath1582" d="M906 503.38268590217984L906 284.1913429510899L907 284.1913429510899L907 65.75" stroke-dasharray="8,5" stroke="#a6a6a6" stroke-width="2" fill="none"></path></g><g id="SvgjsG1583" transform="matrix(0.8660254037844384,-0.5000000000000004,0.5000000000000004,0.8660254037844384,96.57372981077808,249.23925748351405)"><path id="SvgjsPath1584" d="M 0 4Q 0 0 4 0L 96 0Q 100 0 100 4L 100 46Q 100 50 96 50L 4 50Q 0 50 0 46Z" stroke="rgba(167,147,44,1)" stroke-width="1.5" fill-opacity="1" fill="#ffffff"></path><g id="SvgjsG1585"><text id="SvgjsText1586" font-family="&quot;Comic Sans MS&quot;" text-anchor="middle" font-size="13px" width="80px" fill="#a7932c" font-weight="700" align="middle" lineHeight="125%" anchor="middle" family="&quot;Comic Sans MS&quot;" size="13px" weight="700" font-style="" opacity="1" y="-2.125" transform="rotate(0)"><tspan id="SvgjsTspan1587" dy="16.25" x="50"><tspan id="SvgjsTspan1588" style="">SET Test</tspan></tspan><tspan id="SvgjsTspan1589" dy="16.25" x="50"><tspan id="SvgjsTspan1590" style="">value NX PX</tspan></tspan><tspan id="SvgjsTspan1591" dy="16.25" x="50"><tspan id="SvgjsTspan1592" style="">30000</tspan></tspan></text></g></g><g id="SvgjsG1593"><path id="SvgjsPath1594" d="M275 424.38268590217984L376 180.38268590217984" stroke="#e0c331" stroke-width="3" fill="none" marker-end="url(#SvgjsMarker1595)"></path></g><g id="SvgjsG1597"><path id="SvgjsPath1598" d="M553 423.38268590217984L613 180.38268590217984" stroke="#e0c331" stroke-width="3" fill="none" marker-end="url(#SvgjsMarker1599)"></path></g><g id="SvgjsG1601" transform="translate(77,25)"><path id="SvgjsPath1602" d="M 0 0L 100 0L 100 40L 0 40Z" stroke="none" fill="none"></path><g id="SvgjsG1603"><text id="SvgjsText1604" font-family="&quot;Comic Sans MS&quot;" text-anchor="middle" font-size="20px" width="100px" fill="#323232" font-weight="700" align="middle" lineHeight="125%" anchor="middle" family="&quot;Comic Sans MS&quot;" size="20px" weight="700" font-style="" opacity="1" y="2" transform="rotate(0)"><tspan id="SvgjsTspan1605" dy="25" x="50"><tspan id="SvgjsTspan1606" style="">时间点T1</tspan></tspan></text></g></g><g id="SvgjsG1607" transform="translate(174.5,25)"><path id="SvgjsPath1608" d="M 0 0L 100 0L 100 40L 0 40Z" stroke="none" fill="none"></path><g id="SvgjsG1609"><text id="SvgjsText1610" font-family="&quot;Comic Sans MS&quot;" text-anchor="middle" font-size="20px" width="100px" fill="#323232" font-weight="700" align="middle" lineHeight="125%" anchor="middle" family="&quot;Comic Sans MS&quot;" size="20px" weight="700" font-style="" opacity="1" y="2" transform="rotate(0)"><tspan id="SvgjsTspan1611" dy="25" x="50"><tspan id="SvgjsTspan1612" style="">T2</tspan></tspan></text></g></g><g id="SvgjsG1613" transform="translate(272,25)"><path id="SvgjsPath1614" d="M 0 0L 100 0L 100 40L 0 40Z" stroke="none" fill="none"></path><g id="SvgjsG1615"><text id="SvgjsText1616" font-family="&quot;Comic Sans MS&quot;" text-anchor="middle" font-size="20px" width="100px" fill="#323232" font-weight="700" align="middle" lineHeight="125%" anchor="middle" family="&quot;Comic Sans MS&quot;" size="20px" weight="700" font-style="" opacity="1" y="2" transform="rotate(0)"><tspan id="SvgjsTspan1617" dy="25" x="50"><tspan id="SvgjsTspan1618" style="">T3</tspan></tspan></text></g></g><g id="SvgjsG1619" transform="translate(369.5,25)"><path id="SvgjsPath1620" d="M 0 0L 100 0L 100 40L 0 40Z" stroke="none" fill="none"></path><g id="SvgjsG1621"><text id="SvgjsText1622" font-family="&quot;Comic Sans MS&quot;" text-anchor="middle" font-size="20px" width="100px" fill="#323232" font-weight="700" align="middle" lineHeight="125%" anchor="middle" family="&quot;Comic Sans MS&quot;" size="20px" weight="700" font-style="" opacity="1" y="2" transform="rotate(0)"><tspan id="SvgjsTspan1623" dy="25" x="50"><tspan id="SvgjsTspan1624" style="">T4</tspan></tspan></text></g></g><g id="SvgjsG1625" transform="translate(467,25)"><path id="SvgjsPath1626" d="M 0 0L 100 0L 100 40L 0 40Z" stroke="none" fill="none"></path><g id="SvgjsG1627"><text id="SvgjsText1628" font-family="&quot;Comic Sans MS&quot;" text-anchor="middle" font-size="20px" width="100px" fill="#323232" font-weight="700" align="middle" lineHeight="125%" anchor="middle" family="&quot;Comic Sans MS&quot;" size="20px" weight="700" font-style="" opacity="1" y="2" transform="rotate(0)"><tspan id="SvgjsTspan1629" dy="25" x="50"><tspan id="SvgjsTspan1630" style="">T5</tspan></tspan></text></g></g><g id="SvgjsG1631" transform="translate(564.5,25)"><path id="SvgjsPath1632" d="M 0 0L 100 0L 100 40L 0 40Z" stroke="none" fill="none"></path><g id="SvgjsG1633"><text id="SvgjsText1634" font-family="&quot;Comic Sans MS&quot;" text-anchor="middle" font-size="20px" width="100px" fill="#323232" font-weight="700" align="middle" lineHeight="125%" anchor="middle" family="&quot;Comic Sans MS&quot;" size="20px" weight="700" font-style="" opacity="1" y="2" transform="rotate(0)"><tspan id="SvgjsTspan1635" dy="25" x="50"><tspan id="SvgjsTspan1636" style="">T6</tspan></tspan></text></g></g><g id="SvgjsG1637" transform="translate(662,25)"><path id="SvgjsPath1638" d="M 0 0L 100 0L 100 40L 0 40Z" stroke="none" fill="none"></path><g id="SvgjsG1639"><text id="SvgjsText1640" font-family="&quot;Comic Sans MS&quot;" text-anchor="middle" font-size="20px" width="100px" fill="#323232" font-weight="700" align="middle" lineHeight="125%" anchor="middle" family="&quot;Comic Sans MS&quot;" size="20px" weight="700" font-style="" opacity="1" y="2" transform="rotate(0)"><tspan id="SvgjsTspan1641" dy="25" x="50"><tspan id="SvgjsTspan1642" style="">T7</tspan></tspan></text></g></g><g id="SvgjsG1643" transform="translate(759.5,25)"><path id="SvgjsPath1644" d="M 0 0L 100 0L 100 40L 0 40Z" stroke="none" fill="none"></path><g id="SvgjsG1645"><text id="SvgjsText1646" font-family="&quot;Comic Sans MS&quot;" text-anchor="middle" font-size="20px" width="100px" fill="#323232" font-weight="700" align="middle" lineHeight="125%" anchor="middle" family="&quot;Comic Sans MS&quot;" size="20px" weight="700" font-style="" opacity="1" y="2" transform="rotate(0)"><tspan id="SvgjsTspan1647" dy="25" x="50"><tspan id="SvgjsTspan1648" style="">T8</tspan></tspan></text></g></g><g id="SvgjsG1649" transform="translate(857,25)"><path id="SvgjsPath1650" d="M 0 0L 100 0L 100 40L 0 40Z" stroke="none" fill="none"></path><g id="SvgjsG1651"><text id="SvgjsText1652" font-family="&quot;Comic Sans MS&quot;" text-anchor="middle" font-size="20px" width="100px" fill="#323232" font-weight="700" align="middle" lineHeight="125%" anchor="middle" family="&quot;Comic Sans MS&quot;" size="20px" weight="700" font-style="" opacity="1" y="2" transform="rotate(0)"><tspan id="SvgjsTspan1653" dy="25" x="50"><tspan id="SvgjsTspan1654" style="">T9</tspan></tspan></text></g></g><g id="SvgjsG1655"><path id="SvgjsPath1656" d="M749 423.38268590217984L809 180.38268590217984" stroke="#e0c331" stroke-width="3" fill="none" marker-end="url(#SvgjsMarker1657)"></path></g><g id="SvgjsG1659"><path id="SvgjsPath1660" d="M678 302.38268590217984L709 184.38268590217984" stroke="#a7932c" stroke-width="3" fill="none" marker-end="url(#SvgjsMarker1661)"></path></g><g id="SvgjsG1663" transform="matrix(0.8660254037844384,-0.5000000000000004,0.5000000000000004,0.8660254037844384,223.73397761351245,378.51684537413905)"><path id="SvgjsPath1664" d="M 0 4Q 0 0 4 0L 96 0Q 100 0 100 4L 100 46Q 100 50 96 50L 4 50Q 0 50 0 46Z" stroke="rgba(224,195,49,1)" stroke-width="1.5" fill-opacity="1" fill="#ffffff"></path><g id="SvgjsG1665"><text id="SvgjsText1666" font-family="&quot;Comic Sans MS&quot;" text-anchor="middle" font-size="13px" width="80px" fill="#e0c331" font-weight="700" align="middle" lineHeight="125%" anchor="middle" family="&quot;Comic Sans MS&quot;" size="13px" weight="700" font-style="" opacity="1" y="-2.125" transform="rotate(0)"><tspan id="SvgjsTspan1667" dy="16.25" x="50"><tspan id="SvgjsTspan1668" style="">SET Test</tspan></tspan><tspan id="SvgjsTspan1669" dy="16.25" x="50"><tspan id="SvgjsTspan1670" style="">value NX PX</tspan></tspan><tspan id="SvgjsTspan1671" dy="16.25" x="50"><tspan id="SvgjsTspan1672" style="">30000</tspan></tspan></text></g></g><g id="SvgjsG1673" transform="matrix(0.8660254037844384,-0.5000000000000004,0.5000000000000004,0.8660254037844384,495.7764580822625,379.5054623174984)"><path id="SvgjsPath1674" d="M 0 4Q 0 0 4 0L 96 0Q 100 0 100 4L 100 46Q 100 50 96 50L 4 50Q 0 50 0 46Z" stroke="rgba(224,195,49,1)" stroke-width="1.5" fill-opacity="1" fill="#ffffff"></path><g id="SvgjsG1675"><text id="SvgjsText1676" font-family="&quot;Comic Sans MS&quot;" text-anchor="middle" font-size="13px" width="80px" fill="#e0c331" font-weight="700" align="middle" lineHeight="125%" anchor="middle" family="&quot;Comic Sans MS&quot;" size="13px" weight="700" font-style="" opacity="1" y="-2.125" transform="rotate(0)"><tspan id="SvgjsTspan1677" dy="16.25" x="50"><tspan id="SvgjsTspan1678" style="">SET Test</tspan></tspan><tspan id="SvgjsTspan1679" dy="16.25" x="50"><tspan id="SvgjsTspan1680" style="">value NX PX</tspan></tspan><tspan id="SvgjsTspan1681" dy="16.25" x="50"><tspan id="SvgjsTspan1682" style="">30000</tspan></tspan></text></g></g><g id="SvgjsG1683" transform="matrix(0.8660254037844384,-0.5000000000000004,0.5000000000000004,0.8660254037844384,721.3529049444516,376.2810802498887)"><path id="SvgjsPath1684" d="M 0 4Q 0 0 4 0L 54.56217782649105 0Q 58.56217782649105 0 58.56217782649105 4L 58.56217782649105 27.29422863405989Q 58.56217782649105 31.29422863405989 54.56217782649105 31.29422863405989L 4 31.29422863405989Q 0 31.29422863405989 0 27.29422863405989Z" stroke="rgba(224,195,49,1)" stroke-width="1.5" fill-opacity="1" fill="#ffffff"></path><g id="SvgjsG1685"><text id="SvgjsText1686" font-family="&quot;Comic Sans MS&quot;" text-anchor="middle" font-size="13px" width="39px" fill="#e0c331" font-weight="700" align="middle" lineHeight="125%" anchor="middle" family="&quot;Comic Sans MS&quot;" size="13px" weight="700" font-style="" opacity="1" y="-3.4778856829700544" transform="rotate(0)"><tspan id="SvgjsTspan1687" dy="16.25" x="29.5"><tspan id="SvgjsTspan1688" style="">DEL </tspan></tspan><tspan id="SvgjsTspan1689" dy="16.25" x="29.5"><tspan id="SvgjsTspan1690" style="">Test</tspan></tspan></text></g></g><g id="SvgjsG1691" transform="matrix(0.8660254037844384,-0.5000000000000004,0.5000000000000004,0.8660254037844384,649.3529049444516,251.2810955086778)"><path id="SvgjsPath1692" d="M 0 4Q 0 0 4 0L 54.56217782649105 0Q 58.56217782649105 0 58.56217782649105 4L 58.56217782649105 27.29422863405989Q 58.56217782649105 31.29422863405989 54.56217782649105 31.29422863405989L 4 31.29422863405989Q 0 31.29422863405989 0 27.29422863405989Z" stroke="rgba(167,147,44,1)" stroke-width="1.5" fill-opacity="1" fill="#ffffff"></path><g id="SvgjsG1693"><text id="SvgjsText1694" font-family="&quot;Comic Sans MS&quot;" text-anchor="middle" font-size="13px" width="39px" fill="#a7932c" font-weight="700" align="middle" lineHeight="125%" anchor="middle" family="&quot;Comic Sans MS&quot;" size="13px" weight="700" font-style="" opacity="1" y="-3.4778856829700544" transform="rotate(0)"><tspan id="SvgjsTspan1695" dy="16.25" x="29.5"><tspan id="SvgjsTspan1696" style="">DEL </tspan></tspan><tspan id="SvgjsTspan1697" dy="16.25" x="29.5"><tspan id="SvgjsTspan1698" style="">Test</tspan></tspan></text></g></g><g id="SvgjsG1699" transform="translate(25,159.38268590217984)"><path id="SvgjsPath1700" d="M 0 0L 100 0L 100 40L 0 40Z" stroke="none" fill="none"></path><g id="SvgjsG1701"><text id="SvgjsText1702" font-family="&quot;Comic Sans MS&quot;" text-anchor="middle" font-size="20px" width="100px" fill="#323232" font-weight="400" align="middle" lineHeight="125%" anchor="middle" family="&quot;Comic Sans MS&quot;" size="20px" weight="400" font-style="" opacity="1" y="2" transform="rotate(0)"><tspan id="SvgjsTspan1703" dy="25" x="50"><tspan id="SvgjsTspan1704" style="font-weight: bold;">Redis</tspan></tspan></text></g></g><g id="SvgjsG1705" transform="translate(25,282.38268590217984)"><path id="SvgjsPath1706" d="M 0 0L 100 0L 100 40L 0 40Z" stroke="none" fill="none"></path><g id="SvgjsG1707"><text id="SvgjsText1708" font-family="&quot;Comic Sans MS&quot;" text-anchor="middle" font-size="20px" width="100px" fill="#323232" font-weight="700" align="middle" lineHeight="125%" anchor="middle" family="&quot;Comic Sans MS&quot;" size="20px" weight="700" font-style="" opacity="1" y="2" transform="rotate(0)"><tspan id="SvgjsTspan1709" dy="25" x="50"><tspan id="SvgjsTspan1710" style="">进程A</tspan></tspan></text></g></g><g id="SvgjsG1711" transform="translate(25,405.7653718043597)"><path id="SvgjsPath1712" d="M 0 0L 100 0L 100 40L 0 40Z" stroke="none" fill="none"></path><g id="SvgjsG1713"><text id="SvgjsText1714" font-family="&quot;Comic Sans MS&quot;" text-anchor="middle" font-size="20px" width="100px" fill="#323232" font-weight="400" align="middle" lineHeight="125%" anchor="middle" family="&quot;Comic Sans MS&quot;" size="20px" weight="400" font-style="" opacity="1" y="2" transform="rotate(0)"><tspan id="SvgjsTspan1715" dy="25" x="50"><tspan id="SvgjsTspan1716" style="font-weight: bold;">进程B</tspan></tspan></text></g></g><g id="SvgjsG1717" transform="matrix(-0.7071067811865475,0.7071067811865476,-0.7071067811865476,-0.7071067811865475,273.17951394166397,128.2001934092169)"><path id="SvgjsPath1718" d="M 66.81980515339461 0L 66.81980515339461 33.40990257669734C 66.81980515339461 77.95643934562713 0 77.95643934562713 0 33.40990257669734Q 0 0 33.409902576697306 0L 33.409902576697306 0L 66.81980515339461 0Z" stroke="rgba(167,146,44,1)" stroke-width="1.5" fill-opacity="1" fill="#ffffff"></path><g id="SvgjsG1719"><text id="SvgjsText1720" font-family="&quot;Comic Sans MS&quot;" text-anchor="middle" font-size="13px" width="47px" fill="#323232" font-weight="400" align="middle" lineHeight="125%" anchor="middle" family="&quot;Comic Sans MS&quot;" size="13px" weight="400" font-style="" opacity="1" y="22.78490257669734" transform="rotate(0)"></text></g></g><g id="SvgjsG1721" transform="translate(177,97.9514565439602)"><path id="SvgjsPath1722" d="M 0 0L 100 0L 100 65L 0 65Z" stroke="none" fill="none"></path><g id="SvgjsG1723"><text id="SvgjsText1724" font-family="&quot;Comic Sans MS&quot;" text-anchor="middle" font-size="13px" width="100px" fill="#323232" font-weight="700" align="middle" lineHeight="125%" anchor="middle" family="&quot;Comic Sans MS&quot;" size="13px" weight="700" font-style="" opacity="1" y="-2.625" transform="rotate(0)"><tspan id="SvgjsTspan1725" dy="16.25" x="50"><tspan id="SvgjsTspan1726" style="">Test</tspan></tspan><tspan id="SvgjsTspan1727" dy="16.25" x="50"><tspan id="SvgjsTspan1728" style="">不存在</tspan></tspan><tspan id="SvgjsTspan1729" dy="16.25" x="50"><tspan id="SvgjsTspan1730" style="">获取锁</tspan></tspan><tspan id="SvgjsTspan1731" dy="16.25" x="50"><tspan id="SvgjsTspan1732" style="">成功</tspan></tspan></text></g></g><g id="SvgjsG1733" transform="matrix(-0.7071067811865475,0.7071067811865476,-0.7071067811865476,-0.7071067811865475,423.04108620728897,128.2001934092169)"><path id="SvgjsPath1734" d="M 66.81980515339461 0L 66.81980515339461 33.40990257669734C 66.81980515339461 77.95643934562713 0 77.95643934562713 0 33.40990257669734Q 0 0 33.409902576697306 0L 33.409902576697306 0L 66.81980515339461 0Z" stroke="rgba(224,195,49,1)" stroke-width="1.5" fill-opacity="1" fill="#ffffff"></path><g id="SvgjsG1735"><text id="SvgjsText1736" font-family="&quot;Comic Sans MS&quot;" text-anchor="middle" font-size="13px" width="47px" fill="#323232" font-weight="400" align="middle" lineHeight="125%" anchor="middle" family="&quot;Comic Sans MS&quot;" size="13px" weight="400" font-style="" opacity="1" y="22.78490257669734" transform="rotate(0)"></text></g></g><g id="SvgjsG1737" transform="translate(326.86156123669394,97.95145654396023)"><path id="SvgjsPath1738" d="M 0 0L 100 0L 100 65L 0 65Z" stroke="none" fill="none"></path><g id="SvgjsG1739"><text id="SvgjsText1740" font-family="&quot;Comic Sans MS&quot;" text-anchor="middle" font-size="13px" width="100px" fill="#323232" font-weight="700" align="middle" lineHeight="125%" anchor="middle" family="&quot;Comic Sans MS&quot;" size="13px" weight="700" font-style="" opacity="1" y="-2.625" transform="rotate(0)"><tspan id="SvgjsTspan1741" dy="16.25" x="50"><tspan id="SvgjsTspan1742" style="">Test</tspan></tspan><tspan id="SvgjsTspan1743" dy="16.25" x="50"><tspan id="SvgjsTspan1744" style="">存在</tspan></tspan><tspan id="SvgjsTspan1745" dy="16.25" x="50"><tspan id="SvgjsTspan1746" style="">获取锁</tspan></tspan><tspan id="SvgjsTspan1747" dy="16.25" x="50"><tspan id="SvgjsTspan1748" style="">失败</tspan></tspan></text></g></g><g id="SvgjsG1749" transform="matrix(-0.7071067811865475,0.7071067811865476,-0.7071067811865476,-0.7071067811865475,563.1795139416639,128.2001934092169)"><path id="SvgjsPath1750" d="M 66.81980515339461 0L 66.81980515339461 33.40990257669734C 66.81980515339461 77.95643934562713 0 77.95643934562713 0 33.40990257669734Q 0 0 33.409902576697306 0L 33.409902576697306 0L 66.81980515339461 0Z" stroke="rgba(167,146,44,1)" stroke-width="1.5" fill-opacity="1" fill="#ffffff"></path><g id="SvgjsG1751"><text id="SvgjsText1752" font-family="&quot;Comic Sans MS&quot;" text-anchor="middle" font-size="13px" width="47px" fill="#323232" font-weight="400" align="middle" lineHeight="125%" anchor="middle" family="&quot;Comic Sans MS&quot;" size="13px" weight="400" font-style="" opacity="1" y="22.78490257669734" transform="rotate(0)"></text></g></g><g id="SvgjsG1753" transform="translate(467,110.45145654396018)"><path id="SvgjsPath1754" d="M 0 0L 100 0L 100 40L 0 40Z" stroke="none" fill="none"></path><g id="SvgjsG1755"><text id="SvgjsText1756" font-family="&quot;Comic Sans MS&quot;" text-anchor="middle" font-size="13px" width="100px" fill="#323232" font-weight="700" align="middle" lineHeight="125%" anchor="middle" family="&quot;Comic Sans MS&quot;" size="13px" weight="700" font-style="" opacity="1" y="0.875" transform="rotate(0)"><tspan id="SvgjsTspan1757" dy="16.25" x="50"><tspan id="SvgjsTspan1758" style="">到达30秒</tspan></tspan><tspan id="SvgjsTspan1759" dy="16.25" x="50"><tspan id="SvgjsTspan1760" style="">锁释放</tspan></tspan></text></g></g><g id="SvgjsG1761" transform="matrix(-0.7071067811865475,0.7071067811865476,-0.7071067811865476,-0.7071067811865475,660.6795139416639,128.31980705667783)"><path id="SvgjsPath1762" d="M 66.81980515339461 0L 66.81980515339461 33.40990257669734C 66.81980515339461 77.95643934562713 0 77.95643934562713 0 33.40990257669734Q 0 0 33.409902576697306 0L 33.409902576697306 0L 66.81980515339461 0Z" stroke="rgba(224,195,49,1)" stroke-width="1.5" fill-opacity="1" fill="#ffffff"></path><g id="SvgjsG1763"><text id="SvgjsText1764" font-family="&quot;Comic Sans MS&quot;" text-anchor="middle" font-size="13px" width="47px" fill="#323232" font-weight="400" align="middle" lineHeight="125%" anchor="middle" family="&quot;Comic Sans MS&quot;" size="13px" weight="400" font-style="" opacity="1" y="22.78490257669734" transform="rotate(0)"></text></g></g><g id="SvgjsG1765" transform="translate(564.5,98.07106781186545)"><path id="SvgjsPath1766" d="M 0 0L 100 0L 100 65L 0 65Z" stroke="none" fill="none"></path><g id="SvgjsG1767"><text id="SvgjsText1768" font-family="&quot;Comic Sans MS&quot;" text-anchor="middle" font-size="13px" width="100px" fill="#323232" font-weight="700" align="middle" lineHeight="125%" anchor="middle" family="&quot;Comic Sans MS&quot;" size="13px" weight="700" font-style="" opacity="1" y="-2.625" transform="rotate(0)"><tspan id="SvgjsTspan1769" dy="16.25" x="50"><tspan id="SvgjsTspan1770" style="">Test</tspan></tspan><tspan id="SvgjsTspan1771" dy="16.25" x="50"><tspan id="SvgjsTspan1772" style="">不存在</tspan></tspan><tspan id="SvgjsTspan1773" dy="16.25" x="50"><tspan id="SvgjsTspan1774" style="">获取锁</tspan></tspan><tspan id="SvgjsTspan1775" dy="16.25" x="50"><tspan id="SvgjsTspan1776" style="">成功</tspan></tspan></text></g></g><g id="SvgjsG1777" transform="matrix(-0.7071067811865475,0.7071067811865476,-0.7071067811865476,-0.7071067811865475,758.1795139416639,128.2001934092169)"><path id="SvgjsPath1778" d="M 66.81980515339461 0L 66.81980515339461 33.40990257669734C 66.81980515339461 77.95643934562713 0 77.95643934562713 0 33.40990257669734Q 0 0 33.409902576697306 0L 33.409902576697306 0L 66.81980515339461 0Z" stroke="rgba(167,146,44,1)" stroke-width="1.5" fill-opacity="1" fill="#ffffff"></path><g id="SvgjsG1779"><text id="SvgjsText1780" font-family="&quot;Comic Sans MS&quot;" text-anchor="middle" font-size="13px" width="47px" fill="#323232" font-weight="400" align="middle" lineHeight="125%" anchor="middle" family="&quot;Comic Sans MS&quot;" size="13px" weight="400" font-style="" opacity="1" y="22.78490257669734" transform="rotate(0)"></text></g></g><g id="SvgjsG1781" transform="translate(662,105.9514565439602)"><path id="SvgjsPath1782" d="M 0 0L 100 0L 100 49L 0 49Z" stroke="none" fill="none"></path><g id="SvgjsG1783"><text id="SvgjsText1784" font-family="&quot;Comic Sans MS&quot;" text-anchor="middle" font-size="13px" width="100px" fill="#323232" font-weight="700" align="middle" lineHeight="125%" anchor="middle" family="&quot;Comic Sans MS&quot;" size="13px" weight="700" font-style="" opacity="1" y="-2.625" transform="rotate(0)"><tspan id="SvgjsTspan1785" dy="16.25" x="50"><tspan id="SvgjsTspan1786" style="">Test</tspan></tspan><tspan id="SvgjsTspan1787" dy="16.25" x="50"><tspan id="SvgjsTspan1788" style="">被进程A</tspan></tspan><tspan id="SvgjsTspan1789" dy="16.25" x="50"><tspan id="SvgjsTspan1790" style="">删除</tspan></tspan></text></g></g><g id="SvgjsG1791" transform="matrix(-0.7071067811865475,0.7071067811865476,-0.7071067811865476,-0.7071067811865475,855.6795139416639,128.2001934092169)"><path id="SvgjsPath1792" d="M 66.81980515339461 0L 66.81980515339461 33.40990257669734C 66.81980515339461 77.95643934562713 0 77.95643934562713 0 33.40990257669734Q 0 0 33.409902576697306 0L 33.409902576697306 0L 66.81980515339461 0Z" stroke="rgba(224,195,49,1)" stroke-width="1.5" fill-opacity="1" fill="#ffffff"></path><g id="SvgjsG1793"><text id="SvgjsText1794" font-family="&quot;Comic Sans MS&quot;" text-anchor="middle" font-size="39px" width="47px" fill="#323232" font-weight="400" align="middle" lineHeight="125%" anchor="middle" family="&quot;Comic Sans MS&quot;" size="39px" weight="400" font-style="" opacity="1" y="0.0349025766973412" transform="rotate(0)"></text></g></g><g id="SvgjsG1795" transform="translate(759.5,110.45145654396023)"><path id="SvgjsPath1796" d="M 0 0L 100 0L 100 40L 0 40Z" stroke="none" fill="none"></path><g id="SvgjsG1797"><text id="SvgjsText1798" font-family="&quot;Comic Sans MS&quot;" text-anchor="middle" font-size="39px" width="100px" fill="#323232" font-weight="700" align="middle" lineHeight="125%" anchor="middle" family="&quot;Comic Sans MS&quot;" size="39px" weight="700" font-style="" opacity="1" y="-13.375" transform="rotate(0)"><tspan id="SvgjsTspan1799" dy="48.75" x="50"><tspan id="SvgjsTspan1800" style="font-weight: normal;"> ？</tspan></tspan></text></g></g><g id="SvgjsG1801"><path id="SvgjsPath1802" d="M226 179.38268590217984L370 179.38268590217984L370 179.38268590217984L514 179.38268590217984" stroke="#a7922c" stroke-width="6" fill="none"></path></g><g id="SvgjsG1803"><path id="SvgjsPath1804" d="M617 179.38268590217984L663 179.38268590217984L663 179.38268590217984L709 179.38268590217984" stroke="#e0c331" stroke-width="6" fill="none"></path></g></svg>