<svg id="SvgjsSvg1006" width="462" height="259" xmlns="http://www.w3.org/2000/svg" version="1.1" xmlns:xlink="http://www.w3.org/1999/xlink" xmlns:svgjs="http://svgjs.com/svgjs"><defs id="SvgjsDefs1007"><pattern patternUnits="userSpaceOnUse" id="pattern_mark_0" width="300" height="300"><text x="150" y="100" fill="rgba(229,229,229,0.8)" font-size="18" transform="rotate(-45, 150, 150)" style="dominant-baseline: middle; text-anchor: middle;"></text></pattern><pattern patternUnits="userSpaceOnUse" id="pattern_mark_1" width="300" height="300"><text x="150" y="200" fill="rgba(229,229,229,0.8)" font-size="18" transform="rotate(-45, 150, 150)" style="dominant-baseline: middle; text-anchor: middle;"></text></pattern><marker id="SvgjsMarker1055" markerWidth="13" markerHeight="9" refX="9.5" refY="4.5" viewBox="0 0 13 9" orient="auto" markerUnits="userSpaceOnUse" stroke-dasharray="0,0"><path id="SvgjsPath1056" d="M0,0 L13,4.5 L0,9 L0,0" fill="#323232" stroke="#323232" stroke-width="1"></path></marker><marker id="SvgjsMarker1059" markerWidth="13" markerHeight="9" refX="9.5" refY="4.5" viewBox="0 0 13 9" orient="auto" markerUnits="userSpaceOnUse" stroke-dasharray="0,0"><path id="SvgjsPath1060" d="M0,0 L13,4.5 L0,9 L0,0" fill="#323232" stroke="#323232" stroke-width="1"></path></marker><marker id="SvgjsMarker1063" markerWidth="13" markerHeight="9" refX="9.5" refY="4.5" viewBox="0 0 13 9" orient="auto" markerUnits="userSpaceOnUse" stroke-dasharray="0,0"><path id="SvgjsPath1064" d="M0,0 L13,4.5 L0,9 L0,0" fill="#323232" stroke="#323232" stroke-width="1"></path></marker><marker id="SvgjsMarker1067" markerWidth="13" markerHeight="9" refX="9.5" refY="4.5" viewBox="0 0 13 9" orient="auto" markerUnits="userSpaceOnUse" stroke-dasharray="0,0"><path id="SvgjsPath1068" d="M0,0 L13,4.5 L0,9 L0,0" fill="#323232" stroke="#323232" stroke-width="1"></path></marker><marker id="SvgjsMarker1071" markerWidth="13" markerHeight="9" refX="9.5" refY="4.5" viewBox="0 0 13 9" orient="auto" markerUnits="userSpaceOnUse" stroke-dasharray="0,0"><path id="SvgjsPath1072" d="M0,0 L13,4.5 L0,9 L0,0" fill="#323232" stroke="#323232" stroke-width="1"></path></marker><marker id="SvgjsMarker1079" markerWidth="13" markerHeight="9" refX="9.5" refY="4.5" viewBox="0 0 13 9" orient="auto" markerUnits="userSpaceOnUse" stroke-dasharray="0,0"><path id="SvgjsPath1080" d="M0,0 L13,4.5 L0,9 L0,0" fill="#323232" stroke="#323232" stroke-width="1"></path></marker></defs><rect id="svgbackgroundid" width="462" height="259" fill="transparent"></rect><rect id="SvgjsRect1009" width="462" height="259" fill="url(#pattern_mark_0)"></rect><rect id="SvgjsRect1010" width="462" height="259" fill="url(#pattern_mark_1)"></rect><g id="SvgjsG1011" transform="translate(191,25)"><path id="SvgjsPath1012" d="M 0 4Q 0 0 4 0L 76 0Q 80 0 80 4L 80 26Q 80 30 76 30L 4 30Q 0 30 0 26Z" stroke="rgba(33,41,48,1)" stroke-width="1.5" fill-opacity="1" fill="#f8e3b9"></path><g id="SvgjsG1013"><text id="SvgjsText1014" font-family="&quot;Microsoft YaHei&quot;, 微软雅黑, Arial" text-anchor="middle" font-size="13px" width="60px" fill="#323232" font-weight="400" align="middle" lineHeight="125%" anchor="middle" family="&quot;Microsoft YaHei&quot;, 微软雅黑, Arial" size="13px" weight="400" font-style="" opacity="1" y="4.375" transform="rotate(0)"><tspan id="SvgjsTspan1015" dy="16.25" x="40"><tspan id="SvgjsTspan1016" style="">写入</tspan></tspan></text></g></g><g id="SvgjsG1017" transform="translate(196,107)"><path id="SvgjsPath1018" d="M 0 11.666666666666666L 0 41.65C 0 51.45 70 51.45 70 41.65L 70 11.666666666666666C 70 -3.1818181818181817 0 -3.1818181818181817 0 11.666666666666666ZM 0 11.666666666666666C 0 26.25 70 26.25 70 11.666666666666666C 70 26.25 0 26.25 0 11.666666666666666" stroke="rgba(33,41,48,1)" stroke-width="1.5" fill-opacity="1" fill="#cbe3ff"></path><g id="SvgjsG1019"><text id="SvgjsText1020" font-family="&quot;Microsoft YaHei&quot;, 微软雅黑, Arial" text-anchor="middle" font-size="13px" width="70px" fill="#323232" font-weight="400" align="middle" lineHeight="125%" anchor="middle" family="&quot;Microsoft YaHei&quot;, 微软雅黑, Arial" size="13px" weight="400" font-style="" opacity="1" y="-7.524999999999999" transform="rotate(0)"><tspan id="SvgjsTspan1021" dy="16.25" x="35"><tspan id="SvgjsTspan1022" style=""> </tspan></tspan><tspan id="SvgjsTspan1023" dy="16.25" x="35"><tspan id="SvgjsTspan1024" style=""> </tspan></tspan><tspan id="SvgjsTspan1025" dy="16.25" x="35"><tspan id="SvgjsTspan1026" style="">Master</tspan></tspan></text></g></g><g id="SvgjsG1027" transform="translate(25,107)"><path id="SvgjsPath1028" d="M 0 11.666666666666666L 0 41.65C 0 51.45 70 51.45 70 41.65L 70 11.666666666666666C 70 -3.1818181818181817 0 -3.1818181818181817 0 11.666666666666666ZM 0 11.666666666666666C 0 26.25 70 26.25 70 11.666666666666666C 70 26.25 0 26.25 0 11.666666666666666" stroke="rgba(33,41,48,1)" stroke-width="1.5" fill-opacity="1" fill="#d8e6d3"></path><g id="SvgjsG1029"><text id="SvgjsText1030" font-family="&quot;Microsoft YaHei&quot;, 微软雅黑, Arial" text-anchor="middle" font-size="13px" width="70px" fill="#323232" font-weight="400" align="middle" lineHeight="125%" anchor="middle" family="&quot;Microsoft YaHei&quot;, 微软雅黑, Arial" size="13px" weight="400" font-style="" opacity="1" y="-7.524999999999999" transform="rotate(0)"><tspan id="SvgjsTspan1031" dy="16.25" x="35"><tspan id="SvgjsTspan1032" style=""> </tspan></tspan><tspan id="SvgjsTspan1033" dy="16.25" x="35"><tspan id="SvgjsTspan1034" style=""> </tspan></tspan><tspan id="SvgjsTspan1035" dy="16.25" x="35"><tspan id="SvgjsTspan1036" style="">slave</tspan></tspan></text></g></g><g id="SvgjsG1037" transform="translate(367,107)"><path id="SvgjsPath1038" d="M 0 11.666666666666666L 0 41.65C 0 51.45 70 51.45 70 41.65L 70 11.666666666666666C 70 -3.1818181818181817 0 -3.1818181818181817 0 11.666666666666666ZM 0 11.666666666666666C 0 26.25 70 26.25 70 11.666666666666666C 70 26.25 0 26.25 0 11.666666666666666" stroke="rgba(33,41,48,1)" stroke-width="1.5" fill-opacity="1" fill="#d8e6d3"></path><g id="SvgjsG1039"><text id="SvgjsText1040" font-family="&quot;Microsoft YaHei&quot;, 微软雅黑, Arial" text-anchor="middle" font-size="13px" width="70px" fill="#323232" font-weight="400" align="middle" lineHeight="125%" anchor="middle" family="&quot;Microsoft YaHei&quot;, 微软雅黑, Arial" size="13px" weight="400" font-style="" opacity="1" y="-7.524999999999999" transform="rotate(0)"><tspan id="SvgjsTspan1041" dy="16.25" x="35"><tspan id="SvgjsTspan1042" style=""> </tspan></tspan><tspan id="SvgjsTspan1043" dy="16.25" x="35"><tspan id="SvgjsTspan1044" style=""> </tspan></tspan><tspan id="SvgjsTspan1045" dy="16.25" x="35"><tspan id="SvgjsTspan1046" style="">slave</tspan></tspan></text></g></g><g id="SvgjsG1047" transform="translate(191,204)"><path id="SvgjsPath1048" d="M 0 4Q 0 0 4 0L 76 0Q 80 0 80 4L 80 26Q 80 30 76 30L 4 30Q 0 30 0 26Z" stroke="rgba(33,41,48,1)" stroke-width="1.5" fill-opacity="1" fill="#f8e3b9"></path><g id="SvgjsG1049"><text id="SvgjsText1050" font-family="&quot;Microsoft YaHei&quot;, 微软雅黑, Arial" text-anchor="middle" font-size="13px" width="60px" fill="#323232" font-weight="400" align="middle" lineHeight="125%" anchor="middle" family="&quot;Microsoft YaHei&quot;, 微软雅黑, Arial" size="13px" weight="400" font-style="" opacity="1" y="4.375" transform="rotate(0)"><tspan id="SvgjsTspan1051" dy="16.25" x="40"><tspan id="SvgjsTspan1052" style="">读取</tspan></tspan></text></g></g><g id="SvgjsG1053"><path id="SvgjsPath1054" d="M231 55.75L231 81L231 81L231 104.30000000000001" stroke="#323232" stroke-width="1.5" fill="none" marker-end="url(#SvgjsMarker1055)"></path></g><g id="SvgjsG1057"><path id="SvgjsPath1058" d="M231 203.25L231 180L231 180L231 158.7" stroke="#323232" stroke-width="1.5" fill="none" marker-end="url(#SvgjsMarker1059)"></path></g><g id="SvgjsG1061"><path id="SvgjsPath1062" d="M271.67590056662084 218.67494858246482L399.56675796016503 157.17018510312676" stroke="#323232" stroke-width="1.5" fill="none" marker-end="url(#SvgjsMarker1063)"></path></g><g id="SvgjsG1065"><path id="SvgjsPath1066" d="M190.32409943337916 218.67494858246482L62.433242039834965 157.17018510312676" stroke="#323232" stroke-width="1.5" fill="none" marker-end="url(#SvgjsMarker1067)"></path></g><g id="SvgjsG1069"><path id="SvgjsPath1070" d="M195.25 131.5L97.69999999999999 131.5" stroke-dasharray="7.5,3" stroke="#323232" stroke-width="1.5" fill="none" marker-end="url(#SvgjsMarker1071)"></path><rect id="SvgjsRect1073" width="27" height="18" x="138.2871287128713" y="122.5" fill="#ffffff"></rect><text id="SvgjsText1074" font-family="&quot;Microsoft YaHei&quot;, 微软雅黑, Arial" text-anchor="middle" font-size="13px" width="27px" fill="#323232" font-weight="400" align="top" lineHeight="16px" anchor="middle" family="&quot;Microsoft YaHei&quot;, 微软雅黑, Arial" size="13px" weight="400" font-style="" opacity="1" y="119.875" transform="rotate(0)"><tspan id="SvgjsTspan1075" dy="16.25" x="151.7871287128713"><tspan id="SvgjsTspan1076" style="">sync</tspan></tspan></text></g><g id="SvgjsG1077"><path id="SvgjsPath1078" d="M266.75 131.5L364.3 131.5" stroke-dasharray="7.5,3" stroke="#323232" stroke-width="1.5" fill="none" marker-end="url(#SvgjsMarker1079)"></path><rect id="SvgjsRect1081" width="27" height="18" x="288.9861386138614" y="122.5" fill="#ffffff"></rect><text id="SvgjsText1082" font-family="&quot;Microsoft YaHei&quot;, 微软雅黑, Arial" text-anchor="middle" font-size="13px" width="27px" fill="#323232" font-weight="400" align="top" lineHeight="16px" anchor="middle" family="&quot;Microsoft YaHei&quot;, 微软雅黑, Arial" size="13px" weight="400" font-style="" opacity="1" y="119.875" transform="rotate(0)"><tspan id="SvgjsTspan1083" dy="16.25" x="302.4861386138614"><tspan id="SvgjsTspan1084" style="">sync</tspan></tspan></text></g><g id="SvgjsG1085"></g></svg>