<svg id="SvgjsSvg1006" width="906.2222222222222" height="288.1111111111111" xmlns="http://www.w3.org/2000/svg" version="1.1" xmlns:xlink="http://www.w3.org/1999/xlink" xmlns:svgjs="http://svgjs.com/svgjs"><defs id="SvgjsDefs1007"><pattern patternUnits="userSpaceOnUse" id="pattern_mark_0" width="300" height="300"><text x="150" y="100" fill="rgba(229,229,229,0.8)" font-size="18" transform="rotate(-45, 150, 150)" style="dominant-baseline: middle; text-anchor: middle;"></text></pattern><pattern patternUnits="userSpaceOnUse" id="pattern_mark_1" width="300" height="300"><text x="150" y="200" fill="rgba(229,229,229,0.8)" font-size="18" transform="rotate(-45, 150, 150)" style="dominant-baseline: middle; text-anchor: middle;"></text></pattern><marker id="SvgjsMarker1013" markerWidth="13" markerHeight="9" refX="9.5" refY="4.5" viewBox="0 0 13 9" orient="auto" markerUnits="userSpaceOnUse" stroke-dasharray="0,0"><path id="SvgjsPath1014" d="M0,0 L13,4.5 L0,9 L0,0" fill="#323232" stroke="#323232" stroke-width="1"></path></marker><marker id="SvgjsMarker1035" markerWidth="13" markerHeight="9" refX="9.5" refY="4.5" viewBox="0 0 13 9" orient="auto" markerUnits="userSpaceOnUse" stroke-dasharray="0,0"><path id="SvgjsPath1036" d="M0,0 L13,4.5 L0,9 L0,0" fill="#323232" stroke="#323232" stroke-width="1"></path></marker><marker id="SvgjsMarker1039" markerWidth="13" markerHeight="9" refX="9.5" refY="4.5" viewBox="0 0 13 9" orient="auto" markerUnits="userSpaceOnUse" stroke-dasharray="0,0"><path id="SvgjsPath1040" d="M0,0 L13,4.5 L0,9 L0,0" fill="#323232" stroke="#323232" stroke-width="1"></path></marker><marker id="SvgjsMarker1109" markerWidth="16" markerHeight="12" refX="11" refY="6" viewBox="0 0 16 12" orient="auto" markerUnits="userSpaceOnUse" stroke-dasharray="0,0"><path id="SvgjsPath1110" d="M0,0 L16,6 L0,12 L0,0" fill="#7cb4fa" stroke="#7cb4fa" stroke-width="1"></path></marker><marker id="SvgjsMarker1113" markerWidth="16" markerHeight="12" refX="11" refY="6" viewBox="0 0 16 12" orient="auto" markerUnits="userSpaceOnUse" stroke-dasharray="0,0"><path id="SvgjsPath1114" d="M0,0 L16,6 L0,12 L0,0" fill="#7cb4fa" stroke="#7cb4fa" stroke-width="1"></path></marker><marker id="SvgjsMarker1117" markerWidth="16" markerHeight="12" refX="11" refY="6" viewBox="0 0 16 12" orient="auto" markerUnits="userSpaceOnUse" stroke-dasharray="0,0"><path id="SvgjsPath1118" d="M0,0 L16,6 L0,12 L0,0" fill="#7cb4fa" stroke="#7cb4fa" stroke-width="1"></path></marker><marker id="SvgjsMarker1121" markerWidth="16" markerHeight="12" refX="11" refY="6" viewBox="0 0 16 12" orient="auto" markerUnits="userSpaceOnUse" stroke-dasharray="0,0"><path id="SvgjsPath1122" d="M0,0 L16,6 L0,12 L0,0" fill="#7cb4fa" stroke="#7cb4fa" stroke-width="1"></path></marker></defs><rect id="svgbackgroundid" width="906.2222222222222" height="288.1111111111111" fill="transparent"></rect><rect id="SvgjsRect1009" width="906.2222222222222" height="288.1111111111111" fill="url(#pattern_mark_0)"></rect><rect id="SvgjsRect1010" width="906.2222222222222" height="288.1111111111111" fill="url(#pattern_mark_1)"></rect><g id="SvgjsG1011"><path id="SvgjsPath1012" d="M101 102.11111111111111L560 102.11111111111111" stroke="#323232" stroke-width="1.5" fill="none" marker-end="url(#SvgjsMarker1013)"></path></g><g id="SvgjsG1015" transform="translate(290,89.11111111111111)"><path id="SvgjsPath1016" d="M 0 4Q 0 0 4 0L 81 0Q 85 0 85 4L 85 21Q 85 25 81 25L 4 25Q 0 25 0 21Z" stroke="rgba(33,41,48,1)" stroke-width="1.5" fill-opacity="1" fill="#f9e0ae"></path><g id="SvgjsG1017"><text id="SvgjsText1018" font-family="&quot;Microsoft YaHei&quot;, 微软雅黑, Arial" text-anchor="middle" font-size="13px" width="65px" fill="#323232" font-weight="400" align="middle" lineHeight="125%" anchor="middle" family="&quot;Microsoft YaHei&quot;, 微软雅黑, Arial" size="13px" weight="400" font-style="" opacity="1" y="1.875" transform="rotate(0)"><tspan id="SvgjsTspan1019" dy="16.25" x="42.5"><tspan id="SvgjsTspan1020" style="">relay log</tspan></tspan></text></g></g><g id="SvgjsG1021" transform="translate(180,89.11111111111111)"><path id="SvgjsPath1022" d="M 0 4Q 0 0 4 0L 81 0Q 85 0 85 4L 85 21Q 85 25 81 25L 4 25Q 0 25 0 21Z" stroke="rgba(33,41,48,1)" stroke-width="1.5" fill-opacity="1" fill="#c3defd"></path><g id="SvgjsG1023"><text id="SvgjsText1024" font-family="&quot;Microsoft YaHei&quot;, 微软雅黑, Arial" text-anchor="middle" font-size="13px" width="65px" fill="#323232" font-weight="400" align="middle" lineHeight="125%" anchor="middle" family="&quot;Microsoft YaHei&quot;, 微软雅黑, Arial" size="13px" weight="400" font-style="" opacity="1" y="1.875" transform="rotate(0)"><tspan id="SvgjsTspan1025" dy="16.25" x="42.5"><tspan id="SvgjsTspan1026" style="">execute</tspan></tspan></text></g></g><g id="SvgjsG1027" transform="translate(400,89.11111111111111)"><path id="SvgjsPath1028" d="M 0 4Q 0 0 4 0L 81 0Q 85 0 85 4L 85 21Q 85 25 81 25L 4 25Q 0 25 0 21Z" stroke="rgba(33,41,48,1)" stroke-width="1.5" fill-opacity="1" fill="#f9cdd2"></path><g id="SvgjsG1029"><text id="SvgjsText1030" font-family="&quot;Microsoft YaHei&quot;, 微软雅黑, Arial" text-anchor="middle" font-size="13px" width="65px" fill="#323232" font-weight="400" align="middle" lineHeight="125%" anchor="middle" family="&quot;Microsoft YaHei&quot;, 微软雅黑, Arial" size="13px" weight="400" font-style="" opacity="1" y="1.875" transform="rotate(0)"><tspan id="SvgjsTspan1031" dy="16.25" x="42.5"><tspan id="SvgjsTspan1032" style="">relay log</tspan></tspan></text></g></g><g id="SvgjsG1033"><path id="SvgjsPath1034" d="M101 172.11111111111111L880 172.11111111111111" stroke="#323232" stroke-width="1.5" fill="none" marker-end="url(#SvgjsMarker1035)"></path></g><g id="SvgjsG1037"><path id="SvgjsPath1038" d="M103.22222222222217 243.61111111111111L881.2222222222222 243.61111111111111" stroke="#323232" stroke-width="1.5" fill="none" marker-end="url(#SvgjsMarker1039)"></path></g><g id="SvgjsG1041" transform="translate(433.2222222222222,230.61111111111111)"><path id="SvgjsPath1042" d="M 0 4Q 0 0 4 0L 81 0Q 85 0 85 4L 85 21Q 85 25 81 25L 4 25Q 0 25 0 21Z" stroke="rgba(33,41,48,1)" stroke-width="1.5" fill-opacity="1" fill="#fcfac0"></path><g id="SvgjsG1043"><text id="SvgjsText1044" font-family="&quot;Microsoft YaHei&quot;, 微软雅黑, Arial" text-anchor="middle" font-size="13px" width="65px" fill="#323232" font-weight="400" align="middle" lineHeight="125%" anchor="middle" family="&quot;Microsoft YaHei&quot;, 微软雅黑, Arial" size="13px" weight="400" font-style="" opacity="1" y="1.875" transform="rotate(0)"><tspan id="SvgjsTspan1045" dy="16.25" x="42.5"><tspan id="SvgjsTspan1046" style="">relay log</tspan></tspan></text></g></g><g id="SvgjsG1047" transform="translate(543.2222222222222,230.61111111111111)"><path id="SvgjsPath1048" d="M 0 4Q 0 0 4 0L 81 0Q 85 0 85 4L 85 21Q 85 25 81 25L 4 25Q 0 25 0 21Z" stroke="rgba(33,41,48,1)" stroke-width="1.5" fill-opacity="1" fill="#cbe6c7"></path><g id="SvgjsG1049"><text id="SvgjsText1050" font-family="&quot;Microsoft YaHei&quot;, 微软雅黑, Arial" text-anchor="middle" font-size="13px" width="65px" fill="#323232" font-weight="400" align="middle" lineHeight="125%" anchor="middle" family="&quot;Microsoft YaHei&quot;, 微软雅黑, Arial" size="13px" weight="400" font-style="" opacity="1" y="1.875" transform="rotate(0)"><tspan id="SvgjsTspan1051" dy="16.25" x="42.5"><tspan id="SvgjsTspan1052" style="">apply</tspan></tspan></text></g></g><g id="SvgjsG1053" transform="translate(653.2222222222222,230.61111111111111)"><path id="SvgjsPath1054" d="M 0 4Q 0 0 4 0L 81 0Q 85 0 85 4L 85 21Q 85 25 81 25L 4 25Q 0 25 0 21Z" stroke="rgba(33,41,48,1)" stroke-width="1.5" fill-opacity="1" fill="#f9e0ae"></path><g id="SvgjsG1055"><text id="SvgjsText1056" font-family="&quot;Microsoft YaHei&quot;, 微软雅黑, Arial" text-anchor="middle" font-size="13px" width="65px" fill="#323232" font-weight="400" align="middle" lineHeight="125%" anchor="middle" family="&quot;Microsoft YaHei&quot;, 微软雅黑, Arial" size="13px" weight="400" font-style="" opacity="1" y="1.875" transform="rotate(0)"><tspan id="SvgjsTspan1057" dy="16.25" x="42.5"><tspan id="SvgjsTspan1058" style="">binlog</tspan></tspan></text></g></g><g id="SvgjsG1059" transform="translate(763.2222222222222,230.61111111111111)"><path id="SvgjsPath1060" d="M 0 4Q 0 0 4 0L 81 0Q 85 0 85 4L 85 21Q 85 25 81 25L 4 25Q 0 25 0 21Z" stroke="rgba(33,41,48,1)" stroke-width="1.5" fill-opacity="1" fill="#f9cdd2"></path><g id="SvgjsG1061"><text id="SvgjsText1062" font-family="&quot;Microsoft YaHei&quot;, 微软雅黑, Arial" text-anchor="middle" font-size="13px" width="65px" fill="#323232" font-weight="400" align="middle" lineHeight="125%" anchor="middle" family="&quot;Microsoft YaHei&quot;, 微软雅黑, Arial" size="13px" weight="400" font-style="" opacity="1" y="1.875" transform="rotate(0)"><tspan id="SvgjsTspan1063" dy="16.25" x="42.5"><tspan id="SvgjsTspan1064" style="">commit</tspan></tspan></text></g></g><g id="SvgjsG1065" transform="translate(431,160.11111111111111)"><path id="SvgjsPath1066" d="M 0 4Q 0 0 4 0L 81 0Q 85 0 85 4L 85 21Q 85 25 81 25L 4 25Q 0 25 0 21Z" stroke="rgba(33,41,48,1)" stroke-width="1.5" fill-opacity="1" fill="#fcfac0"></path><g id="SvgjsG1067"><text id="SvgjsText1068" font-family="&quot;Microsoft YaHei&quot;, 微软雅黑, Arial" text-anchor="middle" font-size="13px" width="65px" fill="#323232" font-weight="400" align="middle" lineHeight="125%" anchor="middle" family="&quot;Microsoft YaHei&quot;, 微软雅黑, Arial" size="13px" weight="400" font-style="" opacity="1" y="1.875" transform="rotate(0)"><tspan id="SvgjsTspan1069" dy="16.25" x="42.5"><tspan id="SvgjsTspan1070" style="">relay log</tspan></tspan></text></g></g><g id="SvgjsG1071" transform="translate(541,160.11111111111111)"><path id="SvgjsPath1072" d="M 0 4Q 0 0 4 0L 81 0Q 85 0 85 4L 85 21Q 85 25 81 25L 4 25Q 0 25 0 21Z" stroke="rgba(33,41,48,1)" stroke-width="1.5" fill-opacity="1" fill="#cbe6c7"></path><g id="SvgjsG1073"><text id="SvgjsText1074" font-family="&quot;Microsoft YaHei&quot;, 微软雅黑, Arial" text-anchor="middle" font-size="13px" width="65px" fill="#323232" font-weight="400" align="middle" lineHeight="125%" anchor="middle" family="&quot;Microsoft YaHei&quot;, 微软雅黑, Arial" size="13px" weight="400" font-style="" opacity="1" y="1.875" transform="rotate(0)"><tspan id="SvgjsTspan1075" dy="16.25" x="42.5"><tspan id="SvgjsTspan1076" style="">apply</tspan></tspan></text></g></g><g id="SvgjsG1077" transform="translate(651,160.11111111111111)"><path id="SvgjsPath1078" d="M 0 4Q 0 0 4 0L 81 0Q 85 0 85 4L 85 21Q 85 25 81 25L 4 25Q 0 25 0 21Z" stroke="rgba(33,41,48,1)" stroke-width="1.5" fill-opacity="1" fill="#f9e0ae"></path><g id="SvgjsG1079"><text id="SvgjsText1080" font-family="&quot;Microsoft YaHei&quot;, 微软雅黑, Arial" text-anchor="middle" font-size="13px" width="65px" fill="#323232" font-weight="400" align="middle" lineHeight="125%" anchor="middle" family="&quot;Microsoft YaHei&quot;, 微软雅黑, Arial" size="13px" weight="400" font-style="" opacity="1" y="1.875" transform="rotate(0)"><tspan id="SvgjsTspan1081" dy="16.25" x="42.5"><tspan id="SvgjsTspan1082" style="">binlog</tspan></tspan></text></g></g><g id="SvgjsG1083" transform="translate(761,160.11111111111111)"><path id="SvgjsPath1084" d="M 0 4Q 0 0 4 0L 81 0Q 85 0 85 4L 85 21Q 85 25 81 25L 4 25Q 0 25 0 21Z" stroke="rgba(33,41,48,1)" stroke-width="1.5" fill-opacity="1" fill="#f9cdd2"></path><g id="SvgjsG1085"><text id="SvgjsText1086" font-family="&quot;Microsoft YaHei&quot;, 微软雅黑, Arial" text-anchor="middle" font-size="13px" width="65px" fill="#323232" font-weight="400" align="middle" lineHeight="125%" anchor="middle" family="&quot;Microsoft YaHei&quot;, 微软雅黑, Arial" size="13px" weight="400" font-style="" opacity="1" y="1.875" transform="rotate(0)"><tspan id="SvgjsTspan1087" dy="16.25" x="42.5"><tspan id="SvgjsTspan1088" style="">commit</tspan></tspan></text></g></g><g id="SvgjsG1089" transform="translate(36,81.61111111111111)"><path id="SvgjsPath1090" d="M 0 0L 54 0L 54 40L 0 40Z" stroke="none" fill="none"></path><g id="SvgjsG1091"><text id="SvgjsText1092" font-family="&quot;Microsoft YaHei&quot;, 微软雅黑, Arial" text-anchor="middle" font-size="13px" width="54px" fill="#323232" font-weight="400" align="middle" lineHeight="125%" anchor="middle" family="&quot;Microsoft YaHei&quot;, 微软雅黑, Arial" size="13px" weight="400" font-style="" opacity="1" y="9.375" transform="rotate(0)"><tspan id="SvgjsTspan1093" dy="16.25" x="27"><tspan id="SvgjsTspan1094" style="">Master</tspan></tspan></text></g></g><g id="SvgjsG1095" transform="translate(36,152.61111111111111)"><path id="SvgjsPath1096" d="M 0 0L 54 0L 54 40L 0 40Z" stroke="none" fill="none"></path><g id="SvgjsG1097"><text id="SvgjsText1098" font-family="&quot;Microsoft YaHei&quot;, 微软雅黑, Arial" text-anchor="middle" font-size="13px" width="54px" fill="#323232" font-weight="400" align="middle" lineHeight="125%" anchor="middle" family="&quot;Microsoft YaHei&quot;, 微软雅黑, Arial" size="13px" weight="400" font-style="" opacity="1" y="9.375" transform="rotate(0)"><tspan id="SvgjsTspan1099" dy="16.25" x="27"><tspan id="SvgjsTspan1100" style="">Slave1</tspan></tspan></text></g></g><g id="SvgjsG1101" transform="translate(36,223.11111111111111)"><path id="SvgjsPath1102" d="M 0 0L 54 0L 54 40L 0 40Z" stroke="none" fill="none"></path><g id="SvgjsG1103"><text id="SvgjsText1104" font-family="&quot;Microsoft YaHei&quot;, 微软雅黑, Arial" text-anchor="middle" font-size="13px" width="54px" fill="#323232" font-weight="400" align="middle" lineHeight="125%" anchor="middle" family="&quot;Microsoft YaHei&quot;, 微软雅黑, Arial" size="13px" weight="400" font-style="" opacity="1" y="9.375" transform="rotate(0)"><tspan id="SvgjsTspan1105" dy="16.25" x="27"><tspan id="SvgjsTspan1106" style="">Slave2</tspan></tspan></text></g></g><g id="SvgjsG1107"><path id="SvgjsPath1108" d="M123.88888888888889 25L150.55555555555554 95" stroke="#7cb4fa" stroke-width="3" fill="none" marker-end="url(#SvgjsMarker1109)"></path></g><g id="SvgjsG1111"><path id="SvgjsPath1112" d="M387.22222222222223 102.77777777777777L420.55555555555554 168.33333333333334" stroke="#7cb4fa" stroke-width="3" fill="none" marker-end="url(#SvgjsMarker1113)"></path></g><g id="SvgjsG1115"><path id="SvgjsPath1116" d="M385 102.77777777777777L422.77777777777777 237.2222222222222" stroke="#7cb4fa" stroke-width="3" fill="none" marker-end="url(#SvgjsMarker1117)"></path></g><g id="SvgjsG1119"><path id="SvgjsPath1120" d="M496.1111111111111 99.44444444444444L555 26.111111111111114" stroke="#7cb4fa" stroke-width="3" fill="none" marker-end="url(#SvgjsMarker1121)"></path></g><g id="SvgjsG1123"></g></svg>