<svg id="SvgjsSvg1115" width="472" height="170" xmlns="http://www.w3.org/2000/svg" version="1.1" xmlns:xlink="http://www.w3.org/1999/xlink" xmlns:svgjs="http://svgjs.com/svgjs"><defs id="SvgjsDefs1116"><pattern patternUnits="userSpaceOnUse" id="pattern_mark_0" width="300" height="300"><text x="150" y="100" fill="rgba(229,229,229,0.8)" font-size="18" transform="rotate(-45, 150, 150)" style="dominant-baseline: middle; text-anchor: middle;"></text></pattern><pattern patternUnits="userSpaceOnUse" id="pattern_mark_1" width="300" height="300"><text x="150" y="200" fill="rgba(229,229,229,0.8)" font-size="18" transform="rotate(-45, 150, 150)" style="dominant-baseline: middle; text-anchor: middle;"></text></pattern></defs><rect id="svgbackgroundid" width="472" height="170" fill="transparent"></rect><rect id="SvgjsRect1118" width="472" height="170" fill="url(#pattern_mark_0)"></rect><rect id="SvgjsRect1119" width="472" height="170" fill="url(#pattern_mark_1)"></rect><g id="SvgjsG1120" transform="translate(25,75)"><path id="SvgjsPath1121" d="M 0 4Q 0 0 4 0L 26 0Q 30 0 30 4L 30 26Q 30 30 26 30L 4 30Q 0 30 0 26Z" stroke="none" fill-opacity="1" fill="#f7d777"></path><g id="SvgjsG1122"><text id="SvgjsText1123" font-family="&quot;Comic Sans MS&quot;" text-anchor="middle" font-size="13px" width="10px" fill="#323232" font-weight="400" align="middle" lineHeight="125%" anchor="middle" family="&quot;Comic Sans MS&quot;" size="13px" weight="400" font-style="" opacity="1" y="4.375" transform="rotate(0)"><tspan id="SvgjsTspan1124" dy="16.25" x="15"><tspan id="SvgjsTspan1125" style="">0</tspan></tspan></text></g></g><g id="SvgjsG1126" transform="translate(81,75)"><path id="SvgjsPath1127" d="M 0 4Q 0 0 4 0L 26 0Q 30 0 30 4L 30 26Q 30 30 26 30L 4 30Q 0 30 0 26Z" stroke="none" fill-opacity="1" fill="#f7d777"></path><g id="SvgjsG1128"><text id="SvgjsText1129" font-family="&quot;Comic Sans MS&quot;" text-anchor="middle" font-size="13px" width="10px" fill="#323232" font-weight="400" align="middle" lineHeight="125%" anchor="middle" family="&quot;Comic Sans MS&quot;" size="13px" weight="400" font-style="" opacity="1" y="4.375" transform="rotate(0)"><tspan id="SvgjsTspan1130" dy="16.25" x="15"><tspan id="SvgjsTspan1131" style="">0</tspan></tspan></text></g></g><g id="SvgjsG1132" transform="translate(137,75)"><path id="SvgjsPath1133" d="M 0 4Q 0 0 4 0L 26 0Q 30 0 30 4L 30 26Q 30 30 26 30L 4 30Q 0 30 0 26Z" stroke="none" fill-opacity="1" fill="#f7d777"></path><g id="SvgjsG1134"><text id="SvgjsText1135" font-family="&quot;Comic Sans MS&quot;" text-anchor="middle" font-size="13px" width="10px" fill="#323232" font-weight="400" align="middle" lineHeight="125%" anchor="middle" family="&quot;Comic Sans MS&quot;" size="13px" weight="400" font-style="" opacity="1" y="4.375" transform="rotate(0)"><tspan id="SvgjsTspan1136" dy="16.25" x="15"><tspan id="SvgjsTspan1137" style="">0</tspan></tspan></text></g></g><g id="SvgjsG1138" transform="translate(193,75)"><path id="SvgjsPath1139" d="M 0 4Q 0 0 4 0L 26 0Q 30 0 30 4L 30 26Q 30 30 26 30L 4 30Q 0 30 0 26Z" stroke="none" fill-opacity="1" fill="#f7d777"></path><g id="SvgjsG1140"><text id="SvgjsText1141" font-family="&quot;Comic Sans MS&quot;" text-anchor="middle" font-size="13px" width="10px" fill="#323232" font-weight="400" align="middle" lineHeight="125%" anchor="middle" family="&quot;Comic Sans MS&quot;" size="13px" weight="400" font-style="" opacity="1" y="4.375" transform="rotate(0)"><tspan id="SvgjsTspan1142" dy="16.25" x="15"><tspan id="SvgjsTspan1143" style="">0</tspan></tspan></text></g></g><g id="SvgjsG1144" transform="translate(249,75)"><path id="SvgjsPath1145" d="M 0 4Q 0 0 4 0L 26 0Q 30 0 30 4L 30 26Q 30 30 26 30L 4 30Q 0 30 0 26Z" stroke="none" fill-opacity="1" fill="#f7d777"></path><g id="SvgjsG1146"><text id="SvgjsText1147" font-family="&quot;Comic Sans MS&quot;" text-anchor="middle" font-size="13px" width="10px" fill="#323232" font-weight="400" align="middle" lineHeight="125%" anchor="middle" family="&quot;Comic Sans MS&quot;" size="13px" weight="400" font-style="" opacity="1" y="4.375" transform="rotate(0)"><tspan id="SvgjsTspan1148" dy="16.25" x="15"><tspan id="SvgjsTspan1149" style="">0</tspan></tspan></text></g></g><g id="SvgjsG1150" transform="translate(305,75)"><path id="SvgjsPath1151" d="M 0 4Q 0 0 4 0L 26 0Q 30 0 30 4L 30 26Q 30 30 26 30L 4 30Q 0 30 0 26Z" stroke="none" fill-opacity="1" fill="#f7d777"></path><g id="SvgjsG1152"><text id="SvgjsText1153" font-family="&quot;Comic Sans MS&quot;" text-anchor="middle" font-size="13px" width="10px" fill="#323232" font-weight="400" align="middle" lineHeight="125%" anchor="middle" family="&quot;Comic Sans MS&quot;" size="13px" weight="400" font-style="" opacity="1" y="4.375" transform="rotate(0)"><tspan id="SvgjsTspan1154" dy="16.25" x="15"><tspan id="SvgjsTspan1155" style="">0</tspan></tspan></text></g></g><g id="SvgjsG1156" transform="translate(361,75)"><path id="SvgjsPath1157" d="M 0 4Q 0 0 4 0L 26 0Q 30 0 30 4L 30 26Q 30 30 26 30L 4 30Q 0 30 0 26Z" stroke="none" fill-opacity="1" fill="#f7d777"></path><g id="SvgjsG1158"><text id="SvgjsText1159" font-family="&quot;Comic Sans MS&quot;" text-anchor="middle" font-size="13px" width="10px" fill="#323232" font-weight="400" align="middle" lineHeight="125%" anchor="middle" family="&quot;Comic Sans MS&quot;" size="13px" weight="400" font-style="" opacity="1" y="4.375" transform="rotate(0)"><tspan id="SvgjsTspan1160" dy="16.25" x="15"><tspan id="SvgjsTspan1161" style="">0</tspan></tspan></text></g></g><g id="SvgjsG1162" transform="translate(417,75)"><path id="SvgjsPath1163" d="M 0 4Q 0 0 4 0L 26 0Q 30 0 30 4L 30 26Q 30 30 26 30L 4 30Q 0 30 0 26Z" stroke="none" fill-opacity="1" fill="#f7d777"></path><g id="SvgjsG1164"><text id="SvgjsText1165" font-family="&quot;Comic Sans MS&quot;" text-anchor="middle" font-size="13px" width="10px" fill="#323232" font-weight="400" align="middle" lineHeight="125%" anchor="middle" family="&quot;Comic Sans MS&quot;" size="13px" weight="400" font-style="" opacity="1" y="4.375" transform="rotate(0)"><tspan id="SvgjsTspan1166" dy="16.25" x="15"><tspan id="SvgjsTspan1167" style="">0</tspan></tspan></text></g></g><g id="SvgjsG1168" transform="translate(25,115)"><path id="SvgjsPath1169" d="M 0 4Q 0 0 4 0L 26 0Q 30 0 30 4L 30 26Q 30 30 26 30L 4 30Q 0 30 0 26Z" stroke="none" fill="none"></path><g id="SvgjsG1170"><text id="SvgjsText1171" font-family="&quot;Comic Sans MS&quot;" text-anchor="middle" font-size="13px" width="10px" fill="#323232" font-weight="400" align="middle" lineHeight="125%" anchor="middle" family="&quot;Comic Sans MS&quot;" size="13px" weight="400" font-style="" opacity="1" y="4.375" transform="rotate(0)"><tspan id="SvgjsTspan1172" dy="16.25" x="15"><tspan id="SvgjsTspan1173" style="">0</tspan></tspan></text></g></g><g id="SvgjsG1174" transform="translate(81,115)"><path id="SvgjsPath1175" d="M 0 4Q 0 0 4 0L 26 0Q 30 0 30 4L 30 26Q 30 30 26 30L 4 30Q 0 30 0 26Z" stroke="none" fill="none"></path><g id="SvgjsG1176"><text id="SvgjsText1177" font-family="&quot;Comic Sans MS&quot;" text-anchor="middle" font-size="13px" width="10px" fill="#323232" font-weight="400" align="middle" lineHeight="125%" anchor="middle" family="&quot;Comic Sans MS&quot;" size="13px" weight="400" font-style="" opacity="1" y="4.375" transform="rotate(0)"><tspan id="SvgjsTspan1178" dy="16.25" x="15"><tspan id="SvgjsTspan1179" style="">1</tspan></tspan></text></g></g><g id="SvgjsG1180" transform="translate(137,115)"><path id="SvgjsPath1181" d="M 0 4Q 0 0 4 0L 26 0Q 30 0 30 4L 30 26Q 30 30 26 30L 4 30Q 0 30 0 26Z" stroke="none" fill="none"></path><g id="SvgjsG1182"><text id="SvgjsText1183" font-family="&quot;Comic Sans MS&quot;" text-anchor="middle" font-size="13px" width="10px" fill="#323232" font-weight="400" align="middle" lineHeight="125%" anchor="middle" family="&quot;Comic Sans MS&quot;" size="13px" weight="400" font-style="" opacity="1" y="4.375" transform="rotate(0)"><tspan id="SvgjsTspan1184" dy="16.25" x="15"><tspan id="SvgjsTspan1185" style="">2</tspan></tspan></text></g></g><g id="SvgjsG1186" transform="translate(193,115)"><path id="SvgjsPath1187" d="M 0 4Q 0 0 4 0L 26 0Q 30 0 30 4L 30 26Q 30 30 26 30L 4 30Q 0 30 0 26Z" stroke="none" fill="none"></path><g id="SvgjsG1188"><text id="SvgjsText1189" font-family="&quot;Comic Sans MS&quot;" text-anchor="middle" font-size="13px" width="10px" fill="#323232" font-weight="400" align="middle" lineHeight="125%" anchor="middle" family="&quot;Comic Sans MS&quot;" size="13px" weight="400" font-style="" opacity="1" y="4.375" transform="rotate(0)"><tspan id="SvgjsTspan1190" dy="16.25" x="15"><tspan id="SvgjsTspan1191" style="">3</tspan></tspan></text></g></g><g id="SvgjsG1192" transform="translate(249,115)"><path id="SvgjsPath1193" d="M 0 4Q 0 0 4 0L 26 0Q 30 0 30 4L 30 26Q 30 30 26 30L 4 30Q 0 30 0 26Z" stroke="none" fill="none"></path><g id="SvgjsG1194"><text id="SvgjsText1195" font-family="&quot;Comic Sans MS&quot;" text-anchor="middle" font-size="13px" width="10px" fill="#323232" font-weight="400" align="middle" lineHeight="125%" anchor="middle" family="&quot;Comic Sans MS&quot;" size="13px" weight="400" font-style="" opacity="1" y="4.375" transform="rotate(0)"><tspan id="SvgjsTspan1196" dy="16.25" x="15"><tspan id="SvgjsTspan1197" style="">4</tspan></tspan></text></g></g><g id="SvgjsG1198" transform="translate(305,115)"><path id="SvgjsPath1199" d="M 0 4Q 0 0 4 0L 26 0Q 30 0 30 4L 30 26Q 30 30 26 30L 4 30Q 0 30 0 26Z" stroke="none" fill="none"></path><g id="SvgjsG1200"><text id="SvgjsText1201" font-family="&quot;Comic Sans MS&quot;" text-anchor="middle" font-size="13px" width="10px" fill="#323232" font-weight="400" align="middle" lineHeight="125%" anchor="middle" family="&quot;Comic Sans MS&quot;" size="13px" weight="400" font-style="" opacity="1" y="4.375" transform="rotate(0)"><tspan id="SvgjsTspan1202" dy="16.25" x="15"><tspan id="SvgjsTspan1203" style="">5</tspan></tspan></text></g></g><g id="SvgjsG1204" transform="translate(361,115)"><path id="SvgjsPath1205" d="M 0 4Q 0 0 4 0L 26 0Q 30 0 30 4L 30 26Q 30 30 26 30L 4 30Q 0 30 0 26Z" stroke="none" fill="none"></path><g id="SvgjsG1206"><text id="SvgjsText1207" font-family="&quot;Comic Sans MS&quot;" text-anchor="middle" font-size="13px" width="10px" fill="#323232" font-weight="400" align="middle" lineHeight="125%" anchor="middle" family="&quot;Comic Sans MS&quot;" size="13px" weight="400" font-style="" opacity="1" y="4.375" transform="rotate(0)"><tspan id="SvgjsTspan1208" dy="16.25" x="15"><tspan id="SvgjsTspan1209" style="">6</tspan></tspan></text></g></g><g id="SvgjsG1210" transform="translate(417,115)"><path id="SvgjsPath1211" d="M 0 4Q 0 0 4 0L 26 0Q 30 0 30 4L 30 26Q 30 30 26 30L 4 30Q 0 30 0 26Z" stroke="none" fill="none"></path><g id="SvgjsG1212"><text id="SvgjsText1213" font-family="&quot;Comic Sans MS&quot;" text-anchor="middle" font-size="13px" width="10px" fill="#323232" font-weight="400" align="middle" lineHeight="125%" anchor="middle" family="&quot;Comic Sans MS&quot;" size="13px" weight="400" font-style="" opacity="1" y="4.375" transform="rotate(0)"><tspan id="SvgjsTspan1214" dy="16.25" x="15"><tspan id="SvgjsTspan1215" style="">7</tspan></tspan></text></g></g><g id="SvgjsG1216" transform="translate(125.42857142857144,25)"><path id="SvgjsPath1217" d="M 0 0L 214.57142857142856 0L 214.57142857142856 40L 0 40Z" stroke="none" fill="none"></path><g id="SvgjsG1218"><text id="SvgjsText1219" font-family="&quot;Comic Sans MS&quot;" text-anchor="middle" font-size="15px" width="215px" fill="#696873" font-weight="700" align="middle" lineHeight="125%" anchor="middle" family="&quot;Comic Sans MS&quot;" size="15px" weight="700" font-style="" opacity="1" y="7.625" transform="rotate(0)"><tspan id="SvgjsTspan1220" dy="18.75" x="107.5"><tspan id="SvgjsTspan1221" style="">布隆过滤器 - 类似于 bit 数组</tspan></tspan></text></g></g></svg>