<svg id="SvgjsSvg1006" width="431.84257751803534" height="315" xmlns="http://www.w3.org/2000/svg" version="1.1" xmlns:xlink="http://www.w3.org/1999/xlink" xmlns:svgjs="http://svgjs.com/svgjs"><defs id="SvgjsDefs1007"><pattern patternUnits="userSpaceOnUse" id="pattern_mark_0" width="300" height="300"><text x="150" y="100" fill="rgba(229,229,229,0.8)" font-size="18" transform="rotate(-45, 150, 150)" style="dominant-baseline: middle; text-anchor: middle;"></text></pattern><pattern patternUnits="userSpaceOnUse" id="pattern_mark_1" width="300" height="300"><text x="150" y="200" fill="rgba(229,229,229,0.8)" font-size="18" transform="rotate(-45, 150, 150)" style="dominant-baseline: middle; text-anchor: middle;"></text></pattern><linearGradient id="SvgjsLinearGradient1013" x1="0.5" y1="0" x2="0.5" y2="1"><stop id="SvgjsStop1014" stop-opacity="1" stop-color="#e0e6ed" offset="0"></stop><stop id="SvgjsStop1015" stop-opacity="1" stop-color="#a4aab1" offset="1"></stop></linearGradient><linearGradient id="SvgjsLinearGradient1022" x1="0.5" y1="0" x2="0.5" y2="1"><stop id="SvgjsStop1023" stop-opacity="1" stop-color="#f1e4a2" offset="0"></stop><stop id="SvgjsStop1024" stop-opacity="1" stop-color="#f4b06c" offset="1"></stop></linearGradient><linearGradient id="SvgjsLinearGradient1031" x1="0.5" y1="0" x2="0.5" y2="1"><stop id="SvgjsStop1032" stop-opacity="1" stop-color="#f1e4a2" offset="0"></stop><stop id="SvgjsStop1033" stop-opacity="1" stop-color="#f4b06c" offset="1"></stop></linearGradient><linearGradient id="SvgjsLinearGradient1040" x1="0.5" y1="0" x2="0.5" y2="1"><stop id="SvgjsStop1041" stop-opacity="1" stop-color="#f8d5b5" offset="0"></stop><stop id="SvgjsStop1042" stop-opacity="1" stop-color="#dfe5c6" offset="1"></stop></linearGradient><linearGradient id="SvgjsLinearGradient1049" x1="0.5" y1="0" x2="0.5" y2="1"><stop id="SvgjsStop1050" stop-opacity="1" stop-color="#f1e4a2" offset="0"></stop><stop id="SvgjsStop1051" stop-opacity="1" stop-color="#f4b06c" offset="1"></stop></linearGradient><marker id="SvgjsMarker1058" markerWidth="13" markerHeight="9" refX="9.5" refY="4.5" viewBox="0 0 13 9" orient="auto" markerUnits="userSpaceOnUse" stroke-dasharray="0,0"><path id="SvgjsPath1059" d="M0,0 L13,4.5 L0,9 L0,0" fill="#a6aef3" stroke="#a6aef3" stroke-width="1"></path></marker><marker id="SvgjsMarker1062" markerWidth="13" markerHeight="9" refX="9.5" refY="4.5" viewBox="0 0 13 9" orient="auto" markerUnits="userSpaceOnUse" stroke-dasharray="0,0"><path id="SvgjsPath1063" d="M0,0 L13,4.5 L0,9 L0,0" fill="#a6aef3" stroke="#a6aef3" stroke-width="1"></path></marker><marker id="SvgjsMarker1066" markerWidth="13" markerHeight="9" refX="9.5" refY="4.5" viewBox="0 0 13 9" orient="auto" markerUnits="userSpaceOnUse" stroke-dasharray="0,0"><path id="SvgjsPath1067" d="M0,0 L13,4.5 L0,9 L0,0" fill="#a6aef3" stroke="#a6aef3" stroke-width="1"></path></marker><marker id="SvgjsMarker1070" markerWidth="13" markerHeight="9" refX="9.5" refY="4.5" viewBox="0 0 13 9" orient="auto" markerUnits="userSpaceOnUse" stroke-dasharray="0,0"><path id="SvgjsPath1071" d="M0,0 L13,4.5 L0,9 L0,0" fill="#a6aef3" stroke="#a6aef3" stroke-width="1"></path></marker><marker id="SvgjsMarker1074" markerWidth="13" markerHeight="9" refX="9.5" refY="4.5" viewBox="0 0 13 9" orient="auto" markerUnits="userSpaceOnUse" stroke-dasharray="0,0"><path id="SvgjsPath1075" d="M0,0 L13,4.5 L0,9 L0,0" fill="#a6aef3" stroke="#a6aef3" stroke-width="1"></path></marker></defs><rect id="svgbackgroundid" width="431.84257751803534" height="315" fill="transparent"></rect><rect id="SvgjsRect1009" width="431.84257751803534" height="315" fill="url(#pattern_mark_0)"></rect><rect id="SvgjsRect1010" width="431.84257751803534" height="315" fill="url(#pattern_mark_1)"></rect><g id="SvgjsG1011" transform="translate(170,25)"><path id="SvgjsPath1012" d="M 0 27.5C 0 -9.166666666666666 100 -9.166666666666666 100 27.5C 100 64.16666666666667 0 64.16666666666667 0 27.5Z" stroke="rgba(33,41,48,1)" stroke-width="1.5" fill="url(#SvgjsLinearGradient1013)"></path><g id="SvgjsG1016"><text id="SvgjsText1017" font-family="&quot;Comic Sans MS&quot;" text-anchor="middle" font-size="13px" width="80px" fill="#323232" font-weight="700" align="middle" lineHeight="125%" anchor="middle" family="&quot;Comic Sans MS&quot;" size="13px" weight="700" font-style="" opacity="1" y="16.875" transform="rotate(0)"><tspan id="SvgjsTspan1018" dy="16.25" x="50"><tspan id="SvgjsTspan1019" style="">GC Roots</tspan></tspan></text></g></g><g id="SvgjsG1020" transform="translate(170,125)"><path id="SvgjsPath1021" d="M 0 4Q 0 0 4 0L 96 0Q 100 0 100 4L 100 51Q 100 55 96 55L 4 55Q 0 55 0 51Z" stroke="rgba(33,41,48,1)" stroke-width="1.5" fill="url(#SvgjsLinearGradient1022)"></path><g id="SvgjsG1025"><text id="SvgjsText1026" font-family="&quot;Comic Sans MS&quot;" text-anchor="middle" font-size="13px" width="80px" fill="#323232" font-weight="700" align="middle" lineHeight="125%" anchor="middle" family="&quot;Comic Sans MS&quot;" size="13px" weight="700" font-style="" opacity="1" y="16.875" transform="rotate(0)"><tspan id="SvgjsTspan1027" dy="16.25" x="50"><tspan id="SvgjsTspan1028" style="">Object B</tspan></tspan></text></g></g><g id="SvgjsG1029" transform="translate(70,235)"><path id="SvgjsPath1030" d="M 0 4Q 0 0 4 0L 96 0Q 100 0 100 4L 100 51Q 100 55 96 55L 4 55Q 0 55 0 51Z" stroke="rgba(33,41,48,1)" stroke-width="1.5" fill="url(#SvgjsLinearGradient1031)"></path><g id="SvgjsG1034"><text id="SvgjsText1035" font-family="&quot;Comic Sans MS&quot;" text-anchor="middle" font-size="13px" width="80px" fill="#323232" font-weight="700" align="middle" lineHeight="125%" anchor="middle" family="&quot;Comic Sans MS&quot;" size="13px" weight="700" font-style="" opacity="1" y="16.875" transform="rotate(0)"><tspan id="SvgjsTspan1036" dy="16.25" x="50"><tspan id="SvgjsTspan1037" style="">Object C</tspan></tspan></text></g></g><g id="SvgjsG1038" transform="translate(270,235)"><path id="SvgjsPath1039" d="M 0 4Q 0 0 4 0L 96 0Q 100 0 100 4L 100 51Q 100 55 96 55L 4 55Q 0 55 0 51Z" stroke="rgba(33,41,48,1)" stroke-width="1.5" fill="url(#SvgjsLinearGradient1040)"></path><g id="SvgjsG1043"><text id="SvgjsText1044" font-family="&quot;Comic Sans MS&quot;" text-anchor="middle" font-size="13px" width="80px" fill="#323232" font-weight="700" align="middle" lineHeight="125%" anchor="middle" family="&quot;Comic Sans MS&quot;" size="13px" weight="700" font-style="" opacity="1" y="16.875" transform="rotate(0)"><tspan id="SvgjsTspan1045" dy="16.25" x="50"><tspan id="SvgjsTspan1046" style="">Object D</tspan></tspan></text></g></g><g id="SvgjsG1047" transform="translate(25,125)"><path id="SvgjsPath1048" d="M 0 4Q 0 0 4 0L 96 0Q 100 0 100 4L 100 51Q 100 55 96 55L 4 55Q 0 55 0 51Z" stroke="rgba(33,41,48,1)" stroke-width="1.5" fill="url(#SvgjsLinearGradient1049)"></path><g id="SvgjsG1052"><text id="SvgjsText1053" font-family="&quot;Comic Sans MS&quot;" text-anchor="middle" font-size="13px" width="80px" fill="#323232" font-weight="700" align="middle" lineHeight="125%" anchor="middle" family="&quot;Comic Sans MS&quot;" size="13px" weight="700" font-style="" opacity="1" y="16.875" transform="rotate(0)"><tspan id="SvgjsTspan1054" dy="16.25" x="50"><tspan id="SvgjsTspan1055" style="">Object A</tspan></tspan></text></g></g><g id="SvgjsG1056"><path id="SvgjsPath1057" d="M220 80.75L220 102.5L220 102.5L220 122.30000000000001" stroke="#a6aef3" stroke-width="1.5" fill="none" marker-end="url(#SvgjsMarker1058)"></path></g><g id="SvgjsG1060"><path id="SvgjsPath1061" d="M219.34283806849254 180.3614390623291L122.36578295342696 233.6988193756152" stroke="#a6aef3" stroke-width="1.5" fill="none" marker-end="url(#SvgjsMarker1062)"></path></g><g id="SvgjsG1064"><path id="SvgjsPath1065" d="M220.65716193150746 180.3614390623291L317.63421704657304 233.6988193756152" stroke="#a6aef3" stroke-width="1.5" fill="none" marker-end="url(#SvgjsMarker1066)"></path></g><g id="SvgjsG1068"><path id="SvgjsPath1069" d="M169.26394678355365 52.64396410163302C 122.92454122105764 60.8006735119567 75.00000000000003 77.19832638913152 75.27910611216132 122.31446471291957" stroke="#a6aef3" stroke-width="1.5" fill="none" marker-end="url(#SvgjsMarker1070)"></path></g><g id="SvgjsG1072"><path id="SvgjsPath1073" d="M270.72941348250686 52.67451639331951C 362.13219100846914 65.44833502729051 463.0376267969041 262.4999999999999 372.68136231405924 262.1833043405054" stroke="#a6aef3" stroke-width="1.5" fill="none" marker-end="url(#SvgjsMarker1074)"></path></g><g id="SvgjsG1076"></g></svg>