<svg id="SvgjsSvg2253" width="698" height="470.1428571428571" xmlns="http://www.w3.org/2000/svg" version="1.1" xmlns:xlink="http://www.w3.org/1999/xlink" xmlns:svgjs="http://svgjs.com/svgjs"><defs id="SvgjsDefs2254"><pattern patternUnits="userSpaceOnUse" id="pattern_mark_0" width="300" height="300"><text x="150" y="100" fill="rgba(229,229,229,0.8)" font-size="18" transform="rotate(-45, 150, 150)" style="dominant-baseline: middle; text-anchor: middle;"></text></pattern><pattern patternUnits="userSpaceOnUse" id="pattern_mark_1" width="300" height="300"><text x="150" y="200" fill="rgba(229,229,229,0.8)" font-size="18" transform="rotate(-45, 150, 150)" style="dominant-baseline: middle; text-anchor: middle;"></text></pattern><marker id="SvgjsMarker2324" markerWidth="13" markerHeight="9" refX="9.5" refY="4.5" viewBox="0 0 13 9" orient="auto" markerUnits="userSpaceOnUse" stroke-dasharray="0,0"><path id="SvgjsPath2325" d="M0,0 L13,4.5 L0,9 L0,0" fill="#323232" stroke="#323232" stroke-width="1"></path></marker><marker id="SvgjsMarker2328" markerWidth="13" markerHeight="9" refX="9.5" refY="4.5" viewBox="0 0 13 9" orient="auto" markerUnits="userSpaceOnUse" stroke-dasharray="0,0"><path id="SvgjsPath2329" d="M0,0 L13,4.5 L0,9 L0,0" fill="#323232" stroke="#323232" stroke-width="1"></path></marker><marker id="SvgjsMarker2332" markerWidth="13" markerHeight="9" refX="9.5" refY="4.5" viewBox="0 0 13 9" orient="auto" markerUnits="userSpaceOnUse" stroke-dasharray="0,0"><path id="SvgjsPath2333" d="M0,0 L13,4.5 L0,9 L0,0" fill="#323232" stroke="#323232" stroke-width="1"></path></marker><marker id="SvgjsMarker2336" markerWidth="13" markerHeight="9" refX="9.5" refY="4.5" viewBox="0 0 13 9" orient="auto" markerUnits="userSpaceOnUse" stroke-dasharray="0,0"><path id="SvgjsPath2337" d="M0,0 L13,4.5 L0,9 L0,0" fill="#323232" stroke="#323232" stroke-width="1"></path></marker><marker id="SvgjsMarker2340" markerWidth="13" markerHeight="9" refX="9.5" refY="4.5" viewBox="0 0 13 9" orient="auto" markerUnits="userSpaceOnUse" stroke-dasharray="0,0"><path id="SvgjsPath2341" d="M0,0 L13,4.5 L0,9 L0,0" fill="#323232" stroke="#323232" stroke-width="1"></path></marker><marker id="SvgjsMarker2348" markerWidth="13" markerHeight="9" refX="9.5" refY="4.5" viewBox="0 0 13 9" orient="auto" markerUnits="userSpaceOnUse" stroke-dasharray="0,0"><path id="SvgjsPath2349" d="M0,0 L13,4.5 L0,9 L0,0" fill="#323232" stroke="#323232" stroke-width="1"></path></marker><marker id="SvgjsMarker2356" markerWidth="13" markerHeight="9" refX="9.5" refY="4.5" viewBox="0 0 13 9" orient="auto" markerUnits="userSpaceOnUse" stroke-dasharray="0,0"><path id="SvgjsPath2357" d="M0,0 L13,4.5 L0,9 L0,0" fill="#323232" stroke="#323232" stroke-width="1"></path></marker><marker id="SvgjsMarker2364" markerWidth="13" markerHeight="9" refX="9.5" refY="4.5" viewBox="0 0 13 9" orient="auto" markerUnits="userSpaceOnUse" stroke-dasharray="0,0"><path id="SvgjsPath2365" d="M0,0 L13,4.5 L0,9 L0,0" fill="#323232" stroke="#323232" stroke-width="1"></path></marker><marker id="SvgjsMarker2372" markerWidth="13" markerHeight="9" refX="9.5" refY="4.5" viewBox="0 0 13 9" orient="auto" markerUnits="userSpaceOnUse" stroke-dasharray="0,0"><path id="SvgjsPath2373" d="M0,0 L13,4.5 L0,9 L0,0" fill="#323232" stroke="#323232" stroke-width="1"></path></marker><marker id="SvgjsMarker2380" markerWidth="13" markerHeight="9" refX="9.5" refY="4.5" viewBox="0 0 13 9" orient="auto" markerUnits="userSpaceOnUse" stroke-dasharray="0,0"><path id="SvgjsPath2381" d="M0,0 L13,4.5 L0,9 L0,0" fill="#323232" stroke="#323232" stroke-width="1"></path></marker><marker id="SvgjsMarker2388" markerWidth="13" markerHeight="9" refX="9.5" refY="4.5" viewBox="0 0 13 9" orient="auto" markerUnits="userSpaceOnUse" stroke-dasharray="0,0"><path id="SvgjsPath2389" d="M0,0 L13,4.5 L0,9 L0,0" fill="#323232" stroke="#323232" stroke-width="1"></path></marker><marker id="SvgjsMarker2396" markerWidth="13" markerHeight="9" refX="9.5" refY="4.5" viewBox="0 0 13 9" orient="auto" markerUnits="userSpaceOnUse" stroke-dasharray="0,0"><path id="SvgjsPath2397" d="M0,0 L13,4.5 L0,9 L0,0" fill="#323232" stroke="#323232" stroke-width="1"></path></marker></defs><rect id="svgbackgroundid" width="698" height="470.1428571428571" fill="transparent"></rect><rect id="SvgjsRect2256" width="698" height="470.1428571428571" fill="url(#pattern_mark_0)"></rect><rect id="SvgjsRect2257" width="698" height="470.1428571428571" fill="url(#pattern_mark_1)"></rect><g id="SvgjsG2258" transform="translate(58,48.39285714285714)"><path id="SvgjsPath2259" d="M 0 4Q 0 0 4 0L 259 0Q 263 0 263 4L 263 199Q 263 203 259 203L 4 203Q 0 203 0 199Z" stroke="rgba(33,41,48,1)" stroke-width="1.5" fill-opacity="1" fill="#ffffff"></path><g id="SvgjsG2260"><text id="SvgjsText2261" font-family="微软雅黑" text-anchor="middle" font-size="13px" width="243px" fill="#323232" font-weight="400" align="middle" lineHeight="125%" anchor="middle" family="微软雅黑" size="13px" weight="400" font-style="" opacity="1" y="90.875" transform="rotate(0)"></text></g></g><g id="SvgjsG2262" transform="translate(125,75.39285714285714)"><path id="SvgjsPath2263" d="M 0 4Q 0 0 4 0L 126 0Q 130 0 130 4L 130 45Q 130 49 126 49L 4 49Q 0 49 0 45Z" stroke="rgba(33,41,48,1)" stroke-width="1.5" fill-opacity="1" fill="#ec7270"></path><g id="SvgjsG2264"><text id="SvgjsText2265" font-family="微软雅黑" text-anchor="middle" font-size="13px" width="110px" fill="#ffffff" font-weight="700" align="middle" lineHeight="125%" anchor="middle" family="微软雅黑" size="13px" weight="700" font-style="" opacity="1" y="13.875" transform="rotate(0)"><tspan id="SvgjsTspan2266" dy="16.25" x="65"><tspan id="SvgjsTspan2267" style="">线程A</tspan></tspan></text></g></g><g id="SvgjsG2268" transform="translate(125,181.39285714285714)"><path id="SvgjsPath2269" d="M 0 4Q 0 0 4 0L 126 0Q 130 0 130 4L 130 50Q 130 54 126 54L 4 54Q 0 54 0 50Z" stroke="rgba(33,41,48,1)" stroke-width="1.5" fill-opacity="1" fill="#f1ac6a"></path><g id="SvgjsG2270"><text id="SvgjsText2271" font-family="微软雅黑" text-anchor="middle" font-size="13px" width="110px" fill="#ffffff" font-weight="700" align="middle" lineHeight="125%" anchor="middle" family="微软雅黑" size="13px" weight="700" font-style="" opacity="1" y="-0.125" transform="rotate(0)"><tspan id="SvgjsTspan2272" dy="16.25" x="65"><tspan id="SvgjsTspan2273" style="">线程A的本地内存</tspan></tspan><tspan id="SvgjsTspan2274" dy="16.25" x="65"><tspan id="SvgjsTspan2275" style="">(CPU LN缓存)</tspan></tspan><tspan id="SvgjsTspan2276" dy="16.25" x="65"><tspan id="SvgjsTspan2277" style="">共享变量的副本</tspan></tspan></text></g></g><g id="SvgjsG2278" transform="translate(25,25)"><path id="SvgjsPath2279" d="M 0 0L 100 0L 100 65L 0 65Z" stroke="none" fill="none"></path><g id="SvgjsG2280"><text id="SvgjsText2281" font-family="微软雅黑" text-anchor="middle" font-size="13px" width="100px" fill="#323232" font-weight="400" align="middle" lineHeight="125%" anchor="middle" family="微软雅黑" size="13px" weight="400" font-style="" opacity="1" y="21.875" transform="rotate(0)"><tspan id="SvgjsTspan2282" dy="16.25" x="50"><tspan id="SvgjsTspan2283" style="font-weight: bold;fill: rgb(166, 106, 48);">CPU1</tspan></tspan></text></g></g><g id="SvgjsG2284" transform="translate(403,56.64285714285714)"><path id="SvgjsPath2285" d="M 0 4Q 0 0 4 0L 259 0Q 263 0 263 4L 263 199Q 263 203 259 203L 4 203Q 0 203 0 199Z" stroke="rgba(33,41,48,1)" stroke-width="1.5" fill-opacity="1" fill="#ffffff"></path><g id="SvgjsG2286"><text id="SvgjsText2287" font-family="微软雅黑" text-anchor="middle" font-size="13px" width="243px" fill="#323232" font-weight="400" align="middle" lineHeight="125%" anchor="middle" family="微软雅黑" size="13px" weight="400" font-style="" opacity="1" y="90.875" transform="rotate(0)"></text></g></g><g id="SvgjsG2288" transform="translate(470,83.64285714285714)"><path id="SvgjsPath2289" d="M 0 4Q 0 0 4 0L 126 0Q 130 0 130 4L 130 45Q 130 49 126 49L 4 49Q 0 49 0 45Z" stroke="rgba(33,41,48,1)" stroke-width="1.5" fill-opacity="1" fill="#ec7270"></path><g id="SvgjsG2290"><text id="SvgjsText2291" font-family="微软雅黑" text-anchor="middle" font-size="13px" width="110px" fill="#ffffff" font-weight="700" align="middle" lineHeight="125%" anchor="middle" family="微软雅黑" size="13px" weight="700" font-style="" opacity="1" y="13.875" transform="rotate(0)"><tspan id="SvgjsTspan2292" dy="16.25" x="65"><tspan id="SvgjsTspan2293" style="">线程B</tspan></tspan></text></g></g><g id="SvgjsG2294" transform="translate(470,189.64285714285714)"><path id="SvgjsPath2295" d="M 0 4Q 0 0 4 0L 126 0Q 130 0 130 4L 130 50Q 130 54 126 54L 4 54Q 0 54 0 50Z" stroke="rgba(33,41,48,1)" stroke-width="1.5" fill-opacity="1" fill="#f1ac6a"></path><g id="SvgjsG2296"><text id="SvgjsText2297" font-family="微软雅黑" text-anchor="middle" font-size="13px" width="110px" fill="#ffffff" font-weight="700" align="middle" lineHeight="125%" anchor="middle" family="微软雅黑" size="13px" weight="700" font-style="" opacity="1" y="-0.125" transform="rotate(0)"><tspan id="SvgjsTspan2298" dy="16.25" x="65"><tspan id="SvgjsTspan2299" style="">线程B的本地内存</tspan></tspan><tspan id="SvgjsTspan2300" dy="16.25" x="65"><tspan id="SvgjsTspan2301" style="">(CPU LN缓存)</tspan></tspan><tspan id="SvgjsTspan2302" dy="16.25" x="65"><tspan id="SvgjsTspan2303" style="">共享变量的副本</tspan></tspan></text></g></g><g id="SvgjsG2304" transform="translate(370,32.14285714285714)"><path id="SvgjsPath2305" d="M 0 0L 100 0L 100 65L 0 65Z" stroke="none" fill="none"></path><g id="SvgjsG2306"><text id="SvgjsText2307" font-family="微软雅黑" text-anchor="middle" font-size="13px" width="100px" fill="#323232" font-weight="400" align="middle" lineHeight="125%" anchor="middle" family="微软雅黑" size="13px" weight="400" font-style="" opacity="1" y="21.875" transform="rotate(0)"><tspan id="SvgjsTspan2308" dy="16.25" x="50"><tspan id="SvgjsTspan2309" style="font-weight: bold;fill: rgb(166, 106, 48);">CPU2</tspan></tspan></text></g></g><g id="SvgjsG2310" transform="translate(55,308.3928571428571)"><path id="SvgjsPath2311" d="M 14.666666666666666 0L 596.3333333333334 0C 615.8888888888889 0 615.8888888888889 44 596.3333333333334 44L 14.666666666666666 44C -4.888888888888888 44 -4.888888888888888 0 14.666666666666666 0Z" stroke="rgba(33,41,48,1)" stroke-width="1.5" fill-opacity="1" fill="#e9d66f"></path><g id="SvgjsG2312"><text id="SvgjsText2313" font-family="微软雅黑" text-anchor="middle" font-size="23px" width="591px" fill="#ffffff" font-weight="400" align="middle" lineHeight="125%" anchor="middle" family="微软雅黑" size="23px" weight="400" font-style="" opacity="1" y="1.625" transform="rotate(0)"><tspan id="SvgjsTspan2314" dy="28.75" x="305.5"><tspan id="SvgjsTspan2315" style="">缓存一致性协议 or 总线锁机制 =&gt; JMM 控制</tspan></tspan></text></g></g><g id="SvgjsG2316" transform="translate(62,401.1428571428571)"><path id="SvgjsPath2317" d="M 14.666666666666666 0L 596.3333333333334 0C 615.8888888888889 0 615.8888888888889 44 596.3333333333334 44L 14.666666666666666 44C -4.888888888888888 44 -4.888888888888888 0 14.666666666666666 0Z" stroke="rgba(33,41,48,1)" stroke-width="1.5" fill-opacity="1" fill="#e9d66f"></path><g id="SvgjsG2318"><text id="SvgjsText2319" font-family="微软雅黑" text-anchor="middle" font-size="23px" width="591px" fill="#ffffff" font-weight="400" align="middle" lineHeight="125%" anchor="middle" family="微软雅黑" size="23px" weight="400" font-style="" opacity="1" y="1.625" transform="rotate(0)"><tspan id="SvgjsTspan2320" dy="28.75" x="305.5"><tspan id="SvgjsTspan2321" style="">主内存(内存条)</tspan></tspan></text></g></g><g id="SvgjsG2322"><path id="SvgjsPath2323" d="M150.46031746031747 124.5873015873016L150.46031746031747 178.72460317460317" stroke="#323232" stroke-width="1.5" fill="none" marker-end="url(#SvgjsMarker2324)"></path></g><g id="SvgjsG2326"><path id="SvgjsPath2327" d="M499.66666666666663 132.73015873015873L499.66666666666663 187.2484126984127" stroke="#323232" stroke-width="1.5" fill="none" marker-end="url(#SvgjsMarker2328)"></path></g><g id="SvgjsG2330"><path id="SvgjsPath2331" d="M222.6825396825397 181.46825396825398L222.6825396825397 126.74365079365077" stroke="#323232" stroke-width="1.5" fill="none" marker-end="url(#SvgjsMarker2332)"></path></g><g id="SvgjsG2334"><path id="SvgjsPath2335" d="M566.3333333333334 189.19841269841268L566.3333333333334 135.2674603174603" stroke="#323232" stroke-width="1.5" fill="none" marker-end="url(#SvgjsMarker2336)"></path></g><g id="SvgjsG2338"><path id="SvgjsPath2339" d="M151.25396825396825 235.9047619047619L151.25396825396825 306.29603174603176" stroke="#323232" stroke-width="1.5" fill="none" marker-end="url(#SvgjsMarker2340)"></path><rect id="SvgjsRect2342" width="13" height="16" x="144.75396825396825" y="264.4168285700637" fill="#ffffff"></rect><text id="SvgjsText2343" font-family="微软雅黑" text-anchor="middle" font-size="13px" width="13px" fill="#323232" font-weight="400" align="top" lineHeight="16px" anchor="middle" family="微软雅黑" size="13px" weight="400" font-style="" opacity="1" y="261.7918285700637" transform="rotate(0)"><tspan id="SvgjsTspan2344" dy="16.25" x="151.25396825396825"><tspan id="SvgjsTspan2345" style="">写</tspan></tspan></text></g><g id="SvgjsG2346"><path id="SvgjsPath2347" d="M220.3015873015873 308.6269841269841L220.3015873015873 237.74206349206347" stroke-dasharray="8,5" stroke="#323232" stroke-width="1.5" fill="none" marker-end="url(#SvgjsMarker2348)"></path><rect id="SvgjsRect2350" width="13" height="16" x="213.8015873015873" y="266.65311234915714" fill="#ffffff"></rect><text id="SvgjsText2351" font-family="微软雅黑" text-anchor="middle" font-size="13px" width="13px" fill="#323232" font-weight="400" align="top" lineHeight="16px" anchor="middle" family="微软雅黑" size="13px" weight="400" font-style="" opacity="1" y="264.02811234915714" transform="rotate(0)"><tspan id="SvgjsTspan2352" dy="16.25" x="220.3015873015873"><tspan id="SvgjsTspan2353" style="">读</tspan></tspan></text></g><g id="SvgjsG2354"><path id="SvgjsPath2355" d="M494.9047619047619 243.84126984126985L494.9047619047619 306.0896825396826" stroke="#323232" stroke-width="1.5" fill="none" marker-end="url(#SvgjsMarker2356)"></path><rect id="SvgjsRect2358" width="13" height="16" x="488.4047619047619" y="267.61969362279825" fill="#ffffff"></rect><text id="SvgjsText2359" font-family="微软雅黑" text-anchor="middle" font-size="13px" width="13px" fill="#323232" font-weight="400" align="top" lineHeight="16px" anchor="middle" family="微软雅黑" size="13px" weight="400" font-style="" opacity="1" y="264.99469362279825" transform="rotate(0)"><tspan id="SvgjsTspan2360" dy="16.25" x="494.9047619047619"><tspan id="SvgjsTspan2361" style="">写</tspan></tspan></text></g><g id="SvgjsG2362"><path id="SvgjsPath2363" d="M563.1587301587301 308.2460317460317L563.1587301587301 246.34285714285713" stroke-dasharray="8,5" stroke="#323232" stroke-width="1.5" fill="none" marker-end="url(#SvgjsMarker2364)"></path><rect id="SvgjsRect2366" width="13" height="16" x="556.6587301587301" y="274.10003122750095" fill="#ffffff"></rect><text id="SvgjsText2367" font-family="微软雅黑" text-anchor="middle" font-size="13px" width="13px" fill="#323232" font-weight="400" align="top" lineHeight="16px" anchor="middle" family="微软雅黑" size="13px" weight="400" font-style="" opacity="1" y="271.47503122750095" transform="rotate(0)"><tspan id="SvgjsTspan2368" dy="16.25" x="563.1587301587301"><tspan id="SvgjsTspan2369" style="">读</tspan></tspan></text></g><g id="SvgjsG2370"><path id="SvgjsPath2371" d="M147.28571428571428 352.57142857142856L147.28571428571428 398.7404761904762" stroke="#323232" stroke-width="1.5" fill="none" marker-end="url(#SvgjsMarker2372)"></path><rect id="SvgjsRect2374" width="13" height="16" x="140.78571428571428" y="362.48667321695154" fill="#ffffff"></rect><text id="SvgjsText2375" font-family="微软雅黑" text-anchor="middle" font-size="13px" width="13px" fill="#323232" font-weight="400" align="top" lineHeight="16px" anchor="middle" family="微软雅黑" size="13px" weight="400" font-style="" opacity="1" y="359.86167321695154" transform="rotate(0)"><tspan id="SvgjsTspan2376" dy="16.25" x="147.28571428571428"><tspan id="SvgjsTspan2377" style="">写</tspan></tspan></text></g><g id="SvgjsG2378"><path id="SvgjsPath2379" d="M220.3015873015873 401.30952380952385L220.3015873015873 355.09285714285716" stroke-dasharray="8,5" stroke="#323232" stroke-width="1.5" fill="none" marker-end="url(#SvgjsMarker2380)"></path><rect id="SvgjsRect2382" width="13" height="16" x="213.8015873015873" y="367.43173537871525" fill="#ffffff"></rect><text id="SvgjsText2383" font-family="微软雅黑" text-anchor="middle" font-size="13px" width="13px" fill="#323232" font-weight="400" align="top" lineHeight="16px" anchor="middle" family="微软雅黑" size="13px" weight="400" font-style="" opacity="1" y="364.80673537871525" transform="rotate(0)"><tspan id="SvgjsTspan2384" dy="16.25" x="220.3015873015873"><tspan id="SvgjsTspan2385" style="">读</tspan></tspan></text></g><g id="SvgjsG2386"><path id="SvgjsPath2387" d="M492.5238095238095 352.3650793650794L492.5238095238095 398.56587301587297" stroke="#323232" stroke-width="1.5" fill="none" marker-end="url(#SvgjsMarker2388)"></path><rect id="SvgjsRect2390" width="13" height="16" x="486.0238095238095" y="361.73468720821666" fill="#ffffff"></rect><text id="SvgjsText2391" font-family="微软雅黑" text-anchor="middle" font-size="13px" width="13px" fill="#323232" font-weight="400" align="top" lineHeight="16px" anchor="middle" family="微软雅黑" size="13px" weight="400" font-style="" opacity="1" y="359.10968720821666" transform="rotate(0)"><tspan id="SvgjsTspan2392" dy="16.25" x="492.5238095238095"><tspan id="SvgjsTspan2393" style="">写</tspan></tspan></text></g><g id="SvgjsG2394"><path id="SvgjsPath2395" d="M565.5396825396825 400.8968253968254L565.5396825396825 354.3150793650793" stroke-dasharray="8,5" stroke="#323232" stroke-width="1.5" fill="none" marker-end="url(#SvgjsMarker2396)"></path><rect id="SvgjsRect2398" width="13" height="16" x="559.0396825396825" y="370.3448760172427" fill="#ffffff"></rect><text id="SvgjsText2399" font-family="微软雅黑" text-anchor="middle" font-size="13px" width="13px" fill="#323232" font-weight="400" align="top" lineHeight="16px" anchor="middle" family="微软雅黑" size="13px" weight="400" font-style="" opacity="1" y="367.7198760172427" transform="rotate(0)"><tspan id="SvgjsTspan2400" dy="16.25" x="565.5396825396825"><tspan id="SvgjsTspan2401" style="">读</tspan></tspan></text></g></svg>