<svg id="SvgjsSvg1006" width="430" height="208" xmlns="http://www.w3.org/2000/svg" version="1.1" xmlns:xlink="http://www.w3.org/1999/xlink" xmlns:svgjs="http://svgjs.com/svgjs"><defs id="SvgjsDefs1007"><pattern patternUnits="userSpaceOnUse" id="pattern_mark_0" width="300" height="300"><text x="150" y="100" fill="rgba(229,229,229,0.8)" font-size="18" transform="rotate(-45, 150, 150)" style="dominant-baseline: middle; text-anchor: middle;"></text></pattern><pattern patternUnits="userSpaceOnUse" id="pattern_mark_1" width="300" height="300"><text x="150" y="200" fill="rgba(229,229,229,0.8)" font-size="18" transform="rotate(-45, 150, 150)" style="dominant-baseline: middle; text-anchor: middle;"></text></pattern><marker id="SvgjsMarker1041" markerWidth="13" markerHeight="9" refX="9.5" refY="4.5" viewBox="0 0 13 9" orient="auto" markerUnits="userSpaceOnUse" stroke-dasharray="0,0"><path id="SvgjsPath1042" d="M0,0 L13,4.5 L0,9 L0,0" fill="#a7932c" stroke="#a7932c" stroke-width="1"></path></marker></defs><rect id="svgbackgroundid" width="430" height="208" fill="transparent"></rect><rect id="SvgjsRect1009" width="430" height="208" fill="url(#pattern_mark_0)"></rect><rect id="SvgjsRect1010" width="430" height="208" fill="url(#pattern_mark_1)"></rect><g id="SvgjsG1011" transform="translate(25,25)"><path id="SvgjsPath1012" d="M 0 0L 364 0L 380 16L 380 158L 0 158L 0 0Z" stroke="none" fill-opacity="1" fill="#fff7bc"></path><path id="SvgjsPath1013" d="M 364 0L 364 16L 380 16Z" stroke="none" fill-opacity="1" fill="#e4d089"></path><path id="SvgjsPath1014" d="M 0 0L 364 0L 380 16L 380 158L 0 158L 0 0Z" stroke="none" fill="none"></path><g id="SvgjsG1015"><text id="SvgjsText1016" font-family="&quot;Comic Sans MS&quot;" text-anchor="start" font-size="13px" width="360px" fill="#323232" font-weight="700" align="middle" lineHeight="150%" anchor="start" family="&quot;Comic Sans MS&quot;" size="13px" weight="700" font-style="" opacity="1" y="6.25" transform="rotate(0)"><tspan id="SvgjsTspan1017" dy="19.5" x="10"><tspan id="SvgjsTspan1018" style="">SELECT employee_id, last_name, job_id, salary</tspan></tspan><tspan id="SvgjsTspan1019" dy="19.5" x="10"><tspan id="SvgjsTspan1020" style="">FROM employees</tspan></tspan><tspan id="SvgjsTspan1021" dy="19.5" x="10"><tspan id="SvgjsTspan1022" style="">WHERE salary &lt; ANY </tspan></tspan><tspan id="SvgjsTspan1023" dy="19.5" x="10"><tspan id="SvgjsTspan1024" style="">                     (SELECT salary</tspan></tspan><tspan id="SvgjsTspan1025" dy="19.5" x="10"><tspan id="SvgjsTspan1026" style="">                    FROM employees</tspan></tspan><tspan id="SvgjsTspan1027" dy="19.5" x="10"><tspan id="SvgjsTspan1028" style="">                    WHERE job_id = 'IT_PROG')</tspan></tspan><tspan id="SvgjsTspan1029" dy="19.5" x="10"><tspan id="SvgjsTspan1030" style="">  AND job_id &lt;&gt; 'IT_PROG';</tspan></tspan></text></g></g><g id="SvgjsG1031" transform="translate(148,96)"><path id="SvgjsPath1032" d="M 0 0L 205 0L 205 57L 0 57Z" stroke="rgba(167,147,44,1)" stroke-width="1.5" fill="none"></path><g id="SvgjsG1033"><text id="SvgjsText1034" font-family="微软雅黑" text-anchor="middle" font-size="13px" width="185px" fill="#323232" font-weight="400" align="middle" lineHeight="125%" anchor="middle" family="微软雅黑" size="13px" weight="400" font-style="" opacity="1" y="17.875" transform="rotate(0)"></text></g></g><g id="SvgjsG1035" transform="translate(145,72)"><path id="SvgjsPath1036" d="M 0 0L 36 0L 36 20L 0 20Z" stroke="rgba(167,147,44,1)" stroke-width="1.5" fill="none"></path><g id="SvgjsG1037"><text id="SvgjsText1038" font-family="微软雅黑" text-anchor="middle" font-size="13px" width="16px" fill="#323232" font-weight="400" align="middle" lineHeight="125%" anchor="middle" family="微软雅黑" size="13px" weight="400" font-style="" opacity="1" y="-0.625" transform="rotate(0)"></text></g></g><g id="SvgjsG1039"><path id="SvgjsPath1040" d="M274 124C 282 92 251 80 198 80" stroke="#a7932c" stroke-width="1.5" fill="none" marker-end="url(#SvgjsMarker1041)"></path></g><g id="SvgjsG1043" transform="translate(217,60)"><path id="SvgjsPath1044" d="M 0 0L 147 0L 147 20L 0 20Z" stroke="none" fill="none"></path><g id="SvgjsG1045"><text id="SvgjsText1046" font-family="&quot;Comic Sans MS&quot;" text-anchor="middle" font-size="13px" width="147px" fill="#a7932c" font-weight="700" align="middle" lineHeight="125%" anchor="middle" family="&quot;Comic Sans MS&quot;" size="13px" weight="700" font-style="" opacity="1" y="-0.625" transform="rotate(0)"><tspan id="SvgjsTspan1047" dy="16.25" x="73.5"><tspan id="SvgjsTspan1048" style="">9000,6000,4800,4200</tspan></tspan></text></g></g></svg>