<svg xmlns="http://www.w3.org/2000/svg" xlink="http://www.w3.org/1999/xlink" id="mind-svg-con" version="1.1" width="630px" height="438px" style="position: absolute; left: 0px; top: 0px; width: 630px; height: 438px; background: rgb(245, 245, 245); z-index: 999;"><defs></defs><g id="svgbackgroundid"><defs></defs><rect x="0" y="0" width="630" height="438" fill="#f5f5f5"></rect></g><g transform="translate(-9924, -9732)" id="sdjakdjak4"><defs></defs><g class="svg-topic-con" transform="translate(0.5,0.5)"><path part="right" sub="true" id="line_f400053da2b46ce6" d="M 10000 9951 L 10076 9951 L 10076 9819 A 8 8 0 0 1 10084 9811 L 10106 9811" stroke="#746ea6" fill="none" stroke-width="1"></path><path part="right" sub="true" id="line_55ee5bf1ed34aa18" d="M 10000 9951 L 10076 9951 L 10076 9975 A 8 8 0 0 0 10084 9983 L 10106 9983" stroke="#746ea6" fill="none" stroke-width="1"></path><path part="right" sub="true" id="line_8a1afe56926578d1" d="M 10000 9951 L 10076 9951 L 10076 10115.09765625 A 8 8 0 0 0 10084 10123.09765625 L 10106 10123.09765625" stroke="#746ea6" fill="none" stroke-width="1"></path></g><g class="svg-connection-con" transform="translate(0.5,0.5)"></g><g class="svg-freesums-con" transform="translate(0.5,0.5)"></g><g class="svg-freebos-con" transform="translate(0.5,0.5)"></g></g><g id="8a1afe56926578d1"><rect x="182" y="374" rx="6px" ry="6px" width="100" height="34" style="fill: #fee2cc; stroke:#cdbdb3;stroke-width:1px;"></rect><g><text text-anchor="start" align="top" anchor="start" font-size="13px" font-weight="normal" fill="rgb(81, 76, 72)" style="font-size:13px;font-family:arial, 黑体;color:#514c48;font-style:normal;text-align:left;font-weight:normal;"><tspan x="193" y="395"><tspan dx="0">数据结构设计</tspan></tspan></text></g></g><g id="79532eb2734e5d68"><rect x="318" y="378.1015625" rx="1px" ry="1px" width="92" height="26" style="fill: transparent; stroke:none;stroke-width:0px;"></rect><g><text text-anchor="start" align="top" anchor="start" font-size="12px" font-weight="normal" fill="rgb(75, 75, 75)" style="font-size:12px;font-family:arial, 黑体;color:#4b4b4b;font-style:normal;text-align:left;font-weight:normal;"><tspan x="328" y="393.15999999999997"><tspan dx="0">存储计算结果</tspan></tspan></text></g></g><g id="55ee5bf1ed34aa18"><rect x="182" y="233.8984375" rx="6px" ry="6px" width="74" height="34" style="fill: #fee2cc; stroke:#cdbdb3;stroke-width:1px;"></rect><g><text text-anchor="start" align="top" anchor="start" font-size="13px" font-weight="normal" fill="rgb(81, 76, 72)" style="font-size:13px;font-family:arial, 黑体;color:#514c48;font-style:normal;text-align:left;font-weight:normal;"><tspan x="193" y="255"><tspan dx="0">任务拆解</tspan></tspan></text></g></g><g id="fbcf177c58914e1c"><rect x="292" y="148" rx="1px" ry="1px" width="68" height="26" style="fill: transparent; stroke:none;stroke-width:0px;"></rect><g><text text-anchor="start" align="top" anchor="start" font-size="12px" font-weight="normal" fill="rgb(75, 75, 75)" style="font-size:12px;font-family:arial, 黑体;color:#4b4b4b;font-style:normal;text-align:left;font-weight:normal;"><tspan x="302" y="163.16"><tspan dx="0">加法运算</tspan></tspan></text></g></g><g id="432d655961ed532b"><rect x="292" y="184" rx="1px" ry="1px" width="68" height="26" style="fill: transparent; stroke:none;stroke-width:0px;"></rect><g><text text-anchor="start" align="top" anchor="start" font-size="12px" font-weight="normal" fill="rgb(75, 75, 75)" style="font-size:12px;font-family:arial, 黑体;color:#4b4b4b;font-style:normal;text-align:left;font-weight:normal;"><tspan x="302" y="199.16"><tspan dx="0">减法运算</tspan></tspan></text></g></g><g id="48af2e1aa8c87011"><rect x="292" y="220" rx="1px" ry="1px" width="68" height="26" style="fill: transparent; stroke:none;stroke-width:0px;"></rect><g><text text-anchor="start" align="top" anchor="start" font-size="12px" font-weight="normal" fill="rgb(75, 75, 75)" style="font-size:12px;font-family:arial, 黑体;color:#4b4b4b;font-style:normal;text-align:left;font-weight:normal;"><tspan x="302" y="235.16"><tspan dx="0">乘法运算</tspan></tspan></text></g></g><g id="1985d994d635ccc0"><rect x="292" y="256" rx="1px" ry="1px" width="68" height="26" style="fill: transparent; stroke:none;stroke-width:0px;"></rect><g><text text-anchor="start" align="top" anchor="start" font-size="12px" font-weight="normal" fill="rgb(75, 75, 75)" style="font-size:12px;font-family:arial, 黑体;color:#4b4b4b;font-style:normal;text-align:left;font-weight:normal;"><tspan x="302" y="271.15999999999997"><tspan dx="0">除法运算</tspan></tspan></text></g></g><g id="bcc9bdee62bd348e"><rect x="292" y="310" rx="1px" ry="1px" width="104" height="26" style="fill: transparent; stroke:none;stroke-width:0px;"></rect><g><text text-anchor="start" align="top" anchor="start" font-size="12px" font-weight="normal" fill="rgb(75, 75, 75)" style="font-size:12px;font-family:arial, 黑体;color:#4b4b4b;font-style:normal;text-align:left;font-weight:normal;"><tspan x="302" y="325.15999999999997"><tspan dx="0">异常情况的处理</tspan></tspan></text></g></g><g id="0bcc72472c490601"><rect x="432" y="310" rx="1px" ry="1px" width="92" height="26" style="fill: transparent; stroke:none;stroke-width:0px;"></rect><g><text text-anchor="start" align="top" anchor="start" font-size="12px" font-weight="normal" fill="rgb(75, 75, 75)" style="font-size:12px;font-family:arial, 黑体;color:#4b4b4b;font-style:normal;text-align:left;font-weight:normal;"><tspan x="442" y="325.15999999999997"><tspan dx="0">错误输入样例</tspan></tspan></text></g></g><g id="09b2f1110f216e18"><rect x="560" y="292" rx="1px" ry="1px" width="40" height="26" style="fill: transparent; stroke:none;stroke-width:0px;"></rect><g><text text-anchor="start" align="top" anchor="start" font-size="12px" font-weight="normal" fill="rgb(75, 75, 75)" style="font-size:12px;font-family:arial, 黑体;color:#4b4b4b;font-style:normal;text-align:left;font-weight:normal;"><tspan x="570" y="307.15999999999997"><tspan dx="0">7x8</tspan></tspan></text></g></g><g id="7ad58d3fb1cfe3d6"><rect x="560" y="328" rx="1px" ry="1px" width="40" height="26" style="fill: transparent; stroke:none;stroke-width:0px;"></rect><g><text text-anchor="start" align="top" anchor="start" font-size="12px" font-weight="normal" fill="rgb(75, 75, 75)" style="font-size:12px;font-family:arial, 黑体;color:#4b4b4b;font-style:normal;text-align:left;font-weight:normal;"><tspan x="570" y="343.15999999999997"><tspan dx="0">6/0</tspan></tspan></text></g></g><g id="f400053da2b46ce6"><rect x="182" y="61.8984375" rx="6px" ry="6px" width="74" height="34" style="fill: #fee2cc; stroke:#cdbdb3;stroke-width:1px;"></rect><g><text text-anchor="start" align="top" anchor="start" font-size="13px" font-weight="normal" fill="rgb(81, 76, 72)" style="font-size:13px;font-family:arial, 黑体;color:#514c48;font-style:normal;text-align:left;font-weight:normal;"><tspan x="193" y="83"><tspan dx="0">需求分析</tspan></tspan></text></g></g><g id="9c4d769edee84cf9"><rect x="292" y="48" rx="1px" ry="1px" width="140" height="26" style="fill: transparent; stroke:none;stroke-width:0px;"></rect><g><text text-anchor="start" align="top" anchor="start" font-size="12px" font-weight="normal" fill="rgb(75, 75, 75)" style="font-size:12px;font-family:arial, 黑体;color:#4b4b4b;font-style:normal;text-align:left;font-weight:normal;"><tspan x="302" y="63.16"><tspan dx="0">支持加减乘除四则运算</tspan></tspan></text></g></g><g id="cb5341e4084eaef1"><rect x="468" y="30" rx="1px" ry="1px" width="100" height="26" style="fill: transparent; stroke:none;stroke-width:0px;"></rect><g><text text-anchor="start" align="top" anchor="start" font-size="12px" font-weight="normal" fill="rgb(75, 75, 75)" style="font-size:12px;font-family:arial, 黑体;color:#4b4b4b;font-style:normal;text-align:left;font-weight:normal;"><tspan x="478" y="45.16"><tspan dx="0">输入样例：4+6</tspan></tspan></text></g></g><g id="013bf26092dec6b7"><rect x="468" y="66" rx="1px" ry="1px" width="98" height="26" style="fill: transparent; stroke:none;stroke-width:0px;"></rect><g><text text-anchor="start" align="top" anchor="start" font-size="12px" font-weight="normal" fill="rgb(75, 75, 75)" style="font-size:12px;font-family:arial, 黑体;color:#4b4b4b;font-style:normal;text-align:left;font-weight:normal;"><tspan x="478" y="81.16"><tspan dx="0">输入样例：4*7</tspan></tspan></text></g></g><g id="eba34c590745f984"><rect x="292" y="102" rx="1px" ry="1px" width="212" height="26" style="fill: transparent; stroke:none;stroke-width:0px;"></rect><g><text text-anchor="start" align="top" anchor="start" font-size="12px" font-weight="normal" fill="rgb(75, 75, 75)" style="font-size:12px;font-family:arial, 黑体;color:#4b4b4b;font-style:normal;text-align:left;font-weight:normal;"><tspan x="302" y="117.16"><tspan dx="0">输入不符合规范的时候给出相应提示</tspan></tspan></text></g></g><g transform="translate(182, 374)" id="sdjakdjak0"><g id="subline_8a1afe56926578d1" transform="translate(0.5, 0.5)"><path id="line_79532eb2734e5d68" d="M 100 17.09765625 L 118 17.09765625 L 118 17.1015625 L 136 17.1015625" p="8a1afe56926578d1" stroke="#746e6a" fill="none" stroke-linecap="square" stroke-width="1"></path></g><g transform="translate(0.5,0.5)"></g><g class="svg-summary-con" transform="translate(0.5,0.5)"></g><g class="svg-boundary-con" transform="translate(0.5,0.5)"></g></g><g transform="translate(182, 148)" id="sdjakdjak1"><g id="subline_55ee5bf1ed34aa18" transform="translate(0.5, 0.5)"><path id="line_fbcf177c58914e1c" d="M 74 103 L 92 103 L 92 17 A 4 4 0 0 1 96 13 L 110 13" p="55ee5bf1ed34aa18" stroke="#746e6a" fill="none" stroke-linecap="square" stroke-width="1"></path><path id="line_432d655961ed532b" d="M 74 103 L 92 103 L 92 53 A 4 4 0 0 1 96 49 L 110 49" p="55ee5bf1ed34aa18" stroke="#746e6a" fill="none" stroke-linecap="square" stroke-width="1"></path><path id="line_48af2e1aa8c87011" d="M 74 103 L 92 103 L 92 89 A 4 4 0 0 1 96 85 L 110 85" p="55ee5bf1ed34aa18" stroke="#746e6a" fill="none" stroke-linecap="square" stroke-width="1"></path><path id="line_1985d994d635ccc0" d="M 74 103 L 92 103 L 92 117 A 4 4 0 0 0 96 121 L 110 121" p="55ee5bf1ed34aa18" stroke="#746e6a" fill="none" stroke-linecap="square" stroke-width="1"></path><path id="line_bcc9bdee62bd348e" d="M 74 103 L 92 103 L 92 171 A 4 4 0 0 0 96 175 L 110 175" p="55ee5bf1ed34aa18" stroke="#746e6a" fill="none" stroke-linecap="square" stroke-width="1"></path><path id="line_0bcc72472c490601" d="M 214 175 L 232 175 L 232 175 L 250 175" p="bcc9bdee62bd348e" stroke="#746e6a" fill="none" stroke-linecap="square" stroke-width="1"></path><path id="line_09b2f1110f216e18" d="M 342 175 L 360 175 L 360 161 A 4 4 0 0 1 364 157 L 378 157" p="0bcc72472c490601" stroke="#746e6a" fill="none" stroke-linecap="square" stroke-width="1"></path><path id="line_7ad58d3fb1cfe3d6" d="M 342 175 L 360 175 L 360 189 A 4 4 0 0 0 364 193 L 378 193" p="0bcc72472c490601" stroke="#746e6a" fill="none" stroke-linecap="square" stroke-width="1"></path></g><g transform="translate(0.5,0.5)"></g><g class="svg-summary-con" transform="translate(0.5,0.5)"></g><g class="svg-boundary-con" transform="translate(0.5,0.5)"></g></g><g transform="translate(182, 30)" id="sdjakdjak2"><g id="subline_f400053da2b46ce6" transform="translate(0.5, 0.5)"><path id="line_9c4d769edee84cf9" d="M 74 49 L 92 49 L 92 35 A 4 4 0 0 1 96 31 L 110 31" p="f400053da2b46ce6" stroke="#746e6a" fill="none" stroke-linecap="square" stroke-width="1"></path><path id="line_cb5341e4084eaef1" d="M 250 31 L 268 31 L 268 17 A 4 4 0 0 1 272 13 L 286 13" p="9c4d769edee84cf9" stroke="#746e6a" fill="none" stroke-linecap="square" stroke-width="1"></path><path id="line_013bf26092dec6b7" d="M 250 31 L 268 31 L 268 45 A 4 4 0 0 0 272 49 L 286 49" p="9c4d769edee84cf9" stroke="#746e6a" fill="none" stroke-linecap="square" stroke-width="1"></path><path id="line_eba34c590745f984" d="M 74 49 L 92 49 L 92 81 A 4 4 0 0 0 96 85 L 110 85" p="f400053da2b46ce6" stroke="#746e6a" fill="none" stroke-linecap="square" stroke-width="1"></path></g><g transform="translate(0.5,0.5)"></g><g class="svg-summary-con" transform="translate(0.5,0.5)"></g><g class="svg-boundary-con" transform="translate(0.5,0.5)"></g></g><g transform="translate(30, 200)" id="sdjakdjak3"><g id="subline_root" transform="translate(0.5, 0.5)"></g><g transform="translate(0.5,0.5)"></g><g class="svg-summary-con" transform="translate(0.5,0.5)"></g><g class="svg-boundary-con" transform="translate(0.5,0.5)"></g></g><g id="root"><rect x="30" y="200" rx="6px" ry="6px" width="92" height="38" style="fill: #f8caad; stroke:#cdbdb3;stroke-width:1px;"></rect><g><text text-anchor="start" align="top" anchor="start" font-size="14px" font-weight="normal" fill="rgb(68, 63, 59)" style="font-size:14px;font-family:arial, 黑体;color:#443f3b;font-style:normal;text-align:left;font-weight:normal;"><tspan x="41" y="223"><tspan dx="0">简单计算器</tspan></tspan></text></g></g></svg>