<svg id="SvgjsSvg1006" width="649.2763114494309" height="617" xmlns="http://www.w3.org/2000/svg" version="1.1" xmlns:xlink="http://www.w3.org/1999/xlink" xmlns:svgjs="http://svgjs.com/svgjs"><defs id="SvgjsDefs1007"><pattern patternUnits="userSpaceOnUse" id="pattern_mark_0" width="300" height="300"><text x="150" y="100" fill="rgba(229,229,229,0.8)" font-size="18" transform="rotate(-45, 150, 150)" style="dominant-baseline: middle; text-anchor: middle;"></text></pattern><pattern patternUnits="userSpaceOnUse" id="pattern_mark_1" width="300" height="300"><text x="150" y="200" fill="rgba(229,229,229,0.8)" font-size="18" transform="rotate(-45, 150, 150)" style="dominant-baseline: middle; text-anchor: middle;"></text></pattern><marker id="SvgjsMarker1129" markerWidth="13" markerHeight="9" refX="9.5" refY="4.5" viewBox="0 0 13 9" orient="auto" markerUnits="userSpaceOnUse" stroke-dasharray="0,0"><path id="SvgjsPath1130" d="M0,0 L13,4.5 L0,9 L0,0" fill="#323232" stroke="#323232" stroke-width="1"></path></marker><marker id="SvgjsMarker1133" markerWidth="13" markerHeight="9" refX="9.5" refY="4.5" viewBox="0 0 13 9" orient="auto" markerUnits="userSpaceOnUse" stroke-dasharray="0,0"><path id="SvgjsPath1134" d="M0,0 L13,4.5 L0,9 L0,0" fill="#323232" stroke="#323232" stroke-width="1"></path></marker><marker id="SvgjsMarker1137" markerWidth="13" markerHeight="9" refX="9.5" refY="4.5" viewBox="0 0 13 9" orient="auto" markerUnits="userSpaceOnUse" stroke-dasharray="0,0"><path id="SvgjsPath1138" d="M0,0 L13,4.5 L0,9 L0,0" fill="#323232" stroke="#323232" stroke-width="1"></path></marker><marker id="SvgjsMarker1141" markerWidth="13" markerHeight="9" refX="9.5" refY="4.5" viewBox="0 0 13 9" orient="auto" markerUnits="userSpaceOnUse" stroke-dasharray="0,0"><path id="SvgjsPath1142" d="M0,0 L13,4.5 L0,9 L0,0" fill="#323232" stroke="#323232" stroke-width="1"></path></marker><marker id="SvgjsMarker1145" markerWidth="13" markerHeight="9" refX="9.5" refY="4.5" viewBox="0 0 13 9" orient="auto" markerUnits="userSpaceOnUse" stroke-dasharray="0,0"><path id="SvgjsPath1146" d="M0,0 L13,4.5 L0,9 L0,0" fill="#323232" stroke="#323232" stroke-width="1"></path></marker><marker id="SvgjsMarker1149" markerWidth="13" markerHeight="9" refX="9.5" refY="4.5" viewBox="0 0 13 9" orient="auto" markerUnits="userSpaceOnUse" stroke-dasharray="0,0"><path id="SvgjsPath1150" d="M0,0 L13,4.5 L0,9 L0,0" fill="#323232" stroke="#323232" stroke-width="1"></path></marker></defs><rect id="svgbackgroundid" width="649.2763114494309" height="617" fill="transparent"></rect><rect id="SvgjsRect1009" width="649.2763114494309" height="617" fill="url(#pattern_mark_0)"></rect><rect id="SvgjsRect1010" width="649.2763114494309" height="617" fill="url(#pattern_mark_1)"></rect><g id="SvgjsG1011" transform="translate(40.571428571428555,422.57142857142856)"><path id="SvgjsPath1012" d="M 0 4Q 0 0 4 0L 372.8571428571429 0Q 376.8571428571429 0 376.8571428571429 4L 376.8571428571429 65.85714285714289Q 376.8571428571429 69.85714285714289 372.8571428571429 69.85714285714289L 4 69.85714285714289Q 0 69.85714285714289 0 65.85714285714289Z" stroke-dasharray="1.5,2.25" stroke="rgba(33,41,48,1)" stroke-width="1.5" fill="none"></path><g id="SvgjsG1013"><text id="SvgjsText1014" font-family="&quot;Microsoft YaHei&quot;, 微软雅黑, Arial" text-anchor="middle" font-size="13px" width="357px" fill="#323232" font-weight="400" align="middle" lineHeight="125%" anchor="middle" family="&quot;Microsoft YaHei&quot;, 微软雅黑, Arial" size="13px" weight="400" font-style="" opacity="1" y="24.303571428571445" transform="rotate(0)"></text></g></g><g id="SvgjsG1015" transform="translate(40.571428571428555,184.57142857142856)"><path id="SvgjsPath1016" d="M 0 4Q 0 0 4 0L 372.8571428571429 0Q 376.8571428571429 0 376.8571428571429 4L 376.8571428571429 198.8571428571429Q 376.8571428571429 202.8571428571429 372.8571428571429 202.8571428571429L 4 202.8571428571429Q 0 202.8571428571429 0 198.8571428571429Z" stroke-dasharray="1.5,2.25" stroke="rgba(33,41,48,1)" stroke-width="1.5" fill="none"></path><g id="SvgjsG1017"><text id="SvgjsText1018" font-family="&quot;Microsoft YaHei&quot;, 微软雅黑, Arial" text-anchor="middle" font-size="13px" width="357px" fill="#323232" font-weight="400" align="middle" lineHeight="125%" anchor="middle" family="&quot;Microsoft YaHei&quot;, 微软雅黑, Arial" size="13px" weight="400" font-style="" opacity="1" y="90.80357142857144" transform="rotate(0)"></text></g></g><g id="SvgjsG1019" transform="translate(25,95.5)"><path id="SvgjsPath1020" d="M 0 0L 408 0L 408 418.5L 0 418.5Z" stroke-dasharray="1.5,2.25" stroke="rgba(33,41,48,1)" stroke-width="1.5" fill="none"></path><g id="SvgjsG1021"><text id="SvgjsText1022" font-family="&quot;Microsoft YaHei&quot;, 微软雅黑, Arial" text-anchor="middle" font-size="13px" width="388px" fill="#323232" font-weight="400" align="middle" lineHeight="125%" anchor="middle" family="&quot;Microsoft YaHei&quot;, 微软雅黑, Arial" size="13px" weight="400" font-style="" opacity="1" y="198.625" transform="rotate(0)"></text></g></g><g id="SvgjsG1023" transform="translate(40.571428571428555,103.57142857142856)"><path id="SvgjsPath1024" d="M 0 4Q 0 0 4 0L 372.8571428571429 0Q 376.8571428571429 0 376.8571428571429 4L 376.8571428571429 47.85714285714289Q 376.8571428571429 51.85714285714289 372.8571428571429 51.85714285714289L 4 51.85714285714289Q 0 51.85714285714289 0 47.85714285714289Z" stroke-dasharray="1.5,2.25" stroke="rgba(33,41,48,1)" stroke-width="1.5" fill="none"></path><g id="SvgjsG1025"><text id="SvgjsText1026" font-family="&quot;Microsoft YaHei&quot;, 微软雅黑, Arial" text-anchor="middle" font-size="13px" width="357px" fill="#323232" font-weight="400" align="middle" lineHeight="125%" anchor="middle" family="&quot;Microsoft YaHei&quot;, 微软雅黑, Arial" size="13px" weight="400" font-style="" opacity="1" y="15.303571428571445" transform="rotate(0)"></text></g></g><g id="SvgjsG1027" transform="translate(186,25)"><path id="SvgjsPath1028" d="M 13.333333333333334 0L 76.66666666666667 0C 94.44444444444444 0 94.44444444444444 40 76.66666666666667 40L 13.333333333333334 40C -4.444444444444445 40 -4.444444444444445 0 13.333333333333334 0Z" stroke="rgba(33,41,48,1)" stroke-width="1.5" fill-opacity="1" fill="#c3defd"></path><g id="SvgjsG1029"><text id="SvgjsText1030" font-family="&quot;Microsoft YaHei&quot;, 微软雅黑, Arial" text-anchor="middle" font-size="13px" width="70px" fill="#323232" font-weight="400" align="middle" lineHeight="125%" anchor="middle" family="&quot;Microsoft YaHei&quot;, 微软雅黑, Arial" size="13px" weight="400" font-style="" opacity="1" y="9.375" transform="rotate(0)"><tspan id="SvgjsTspan1031" dy="16.25" x="45"><tspan id="SvgjsTspan1032" style="">客户端</tspan></tspan></text></g></g><g id="SvgjsG1033" transform="translate(184,109.5)"><path id="SvgjsPath1034" d="M 0 4Q 0 0 4 0L 86 0Q 90 0 90 4L 90 36Q 90 40 86 40L 4 40Q 0 40 0 36Z" stroke="rgba(33,41,48,1)" stroke-width="1.5" fill-opacity="1" fill="#cbe6c7"></path><g id="SvgjsG1035"><text id="SvgjsText1036" font-family="&quot;Microsoft YaHei&quot;, 微软雅黑, Arial" text-anchor="middle" font-size="13px" width="70px" fill="#323232" font-weight="400" align="middle" lineHeight="125%" anchor="middle" family="&quot;Microsoft YaHei&quot;, 微软雅黑, Arial" size="13px" weight="400" font-style="" opacity="1" y="9.375" transform="rotate(0)"><tspan id="SvgjsTspan1037" dy="16.25" x="45"><tspan id="SvgjsTspan1038" style="">处理连接</tspan></tspan></text></g></g><g id="SvgjsG1039" transform="translate(184,194)"><path id="SvgjsPath1040" d="M 0 4Q 0 0 4 0L 86 0Q 90 0 90 4L 90 36Q 90 40 86 40L 4 40Q 0 40 0 36Z" stroke="rgba(33,41,48,1)" stroke-width="1.5" fill-opacity="1" fill="#cbe6c7"></path><g id="SvgjsG1041"><text id="SvgjsText1042" font-family="&quot;Microsoft YaHei&quot;, 微软雅黑, Arial" text-anchor="middle" font-size="13px" width="70px" fill="#323232" font-weight="400" align="middle" lineHeight="125%" anchor="middle" family="&quot;Microsoft YaHei&quot;, 微软雅黑, Arial" size="13px" weight="400" font-style="" opacity="1" y="9.375" transform="rotate(0)"><tspan id="SvgjsTspan1043" dy="16.25" x="45"><tspan id="SvgjsTspan1044" style="">查询缓存</tspan></tspan></text></g></g><g id="SvgjsG1045" transform="translate(184,338)"><path id="SvgjsPath1046" d="M 0 4Q 0 0 4 0L 86 0Q 90 0 90 4L 90 36Q 90 40 86 40L 4 40Q 0 40 0 36Z" stroke="rgba(33,41,48,1)" stroke-width="1.5" fill-opacity="1" fill="#cbe6c7"></path><g id="SvgjsG1047"><text id="SvgjsText1048" font-family="&quot;Microsoft YaHei&quot;, 微软雅黑, Arial" text-anchor="middle" font-size="13px" width="70px" fill="#323232" font-weight="400" align="middle" lineHeight="125%" anchor="middle" family="&quot;Microsoft YaHei&quot;, 微软雅黑, Arial" size="13px" weight="400" font-style="" opacity="1" y="9.375" transform="rotate(0)"><tspan id="SvgjsTspan1049" dy="16.25" x="45"><tspan id="SvgjsTspan1050" style="">查询优化</tspan></tspan></text></g></g><g id="SvgjsG1051" transform="translate(184,266)"><path id="SvgjsPath1052" d="M 0 4Q 0 0 4 0L 86 0Q 90 0 90 4L 90 36Q 90 40 86 40L 4 40Q 0 40 0 36Z" stroke="rgba(33,41,48,1)" stroke-width="1.5" fill-opacity="1" fill="#cbe6c7"></path><g id="SvgjsG1053"><text id="SvgjsText1054" font-family="&quot;Microsoft YaHei&quot;, 微软雅黑, Arial" text-anchor="middle" font-size="13px" width="70px" fill="#323232" font-weight="400" align="middle" lineHeight="125%" anchor="middle" family="&quot;Microsoft YaHei&quot;, 微软雅黑, Arial" size="13px" weight="400" font-style="" opacity="1" y="9.375" transform="rotate(0)"><tspan id="SvgjsTspan1055" dy="16.25" x="45"><tspan id="SvgjsTspan1056" style="">语法解析</tspan></tspan></text></g></g><g id="SvgjsG1057" transform="translate(55.5,433)"><path id="SvgjsPath1058" d="M 0 11.666666666666666L 0 41.65C 0 51.45 70 51.45 70 41.65L 70 11.666666666666666C 70 -3.1818181818181817 0 -3.1818181818181817 0 11.666666666666666ZM 0 11.666666666666666C 0 26.25 70 26.25 70 11.666666666666666C 70 26.25 0 26.25 0 11.666666666666666" stroke="rgba(33,41,48,1)" stroke-width="1.5" fill-opacity="1" fill="#cbe6c7"></path><g id="SvgjsG1059"><text id="SvgjsText1060" font-family="&quot;Microsoft YaHei&quot;, 微软雅黑, Arial" text-anchor="middle" font-size="13px" width="70px" fill="#323232" font-weight="400" align="middle" lineHeight="125%" anchor="middle" family="&quot;Microsoft YaHei&quot;, 微软雅黑, Arial" size="13px" weight="400" font-style="" opacity="1" y="-7.024999999999999" transform="rotate(0)"><tspan id="SvgjsTspan1061" dy="16.25" x="35"><tspan id="SvgjsTspan1062" style=""> </tspan></tspan><tspan id="SvgjsTspan1063" dy="16.25" x="35"><tspan id="SvgjsTspan1064" style=""> </tspan></tspan><tspan id="SvgjsTspan1065" dy="16.25" x="35"><tspan id="SvgjsTspan1066" style="">MyISAM</tspan></tspan></text></g></g><g id="SvgjsG1067" transform="translate(149.16666666666669,433)"><path id="SvgjsPath1068" d="M 0 11.666666666666666L 0 41.65C 0 51.45 70 51.45 70 41.65L 70 11.666666666666666C 70 -3.1818181818181817 0 -3.1818181818181817 0 11.666666666666666ZM 0 11.666666666666666C 0 26.25 70 26.25 70 11.666666666666666C 70 26.25 0 26.25 0 11.666666666666666" stroke="rgba(33,41,48,1)" stroke-width="1.5" fill-opacity="1" fill="#cbe6c7"></path><g id="SvgjsG1069"><text id="SvgjsText1070" font-family="&quot;Microsoft YaHei&quot;, 微软雅黑, Arial" text-anchor="middle" font-size="13px" width="70px" fill="#323232" font-weight="400" align="middle" lineHeight="125%" anchor="middle" family="&quot;Microsoft YaHei&quot;, 微软雅黑, Arial" size="13px" weight="400" font-style="" opacity="1" y="-7.024999999999999" transform="rotate(0)"><tspan id="SvgjsTspan1071" dy="16.25" x="35"><tspan id="SvgjsTspan1072" style=""> </tspan></tspan><tspan id="SvgjsTspan1073" dy="16.25" x="35"><tspan id="SvgjsTspan1074" style=""> </tspan></tspan><tspan id="SvgjsTspan1075" dy="16.25" x="35"><tspan id="SvgjsTspan1076" style="">InnoDB</tspan></tspan></text></g></g><g id="SvgjsG1077" transform="translate(242.83333333333337,433)"><path id="SvgjsPath1078" d="M 0 11.666666666666666L 0 41.65C 0 51.45 70 51.45 70 41.65L 70 11.666666666666666C 70 -3.1818181818181817 0 -3.1818181818181817 0 11.666666666666666ZM 0 11.666666666666666C 0 26.25 70 26.25 70 11.666666666666666C 70 26.25 0 26.25 0 11.666666666666666" stroke="rgba(33,41,48,1)" stroke-width="1.5" fill-opacity="1" fill="#cbe6c7"></path><g id="SvgjsG1079"><text id="SvgjsText1080" font-family="&quot;Microsoft YaHei&quot;, 微软雅黑, Arial" text-anchor="middle" font-size="13px" width="70px" fill="#323232" font-weight="400" align="middle" lineHeight="125%" anchor="middle" family="&quot;Microsoft YaHei&quot;, 微软雅黑, Arial" size="13px" weight="400" font-style="" opacity="1" y="-7.024999999999999" transform="rotate(0)"><tspan id="SvgjsTspan1081" dy="16.25" x="35"><tspan id="SvgjsTspan1082" style=""> </tspan></tspan><tspan id="SvgjsTspan1083" dy="16.25" x="35"><tspan id="SvgjsTspan1084" style=""> </tspan></tspan><tspan id="SvgjsTspan1085" dy="16.25" x="35"><tspan id="SvgjsTspan1086" style="">Memory</tspan></tspan></text></g></g><g id="SvgjsG1087" transform="translate(336.50000000000006,433)"><path id="SvgjsPath1088" d="M 0 11.666666666666666L 0 41.65C 0 51.45 70 51.45 70 41.65L 70 11.666666666666666C 70 -3.1818181818181817 0 -3.1818181818181817 0 11.666666666666666ZM 0 11.666666666666666C 0 26.25 70 26.25 70 11.666666666666666C 70 26.25 0 26.25 0 11.666666666666666" stroke="rgba(33,41,48,1)" stroke-width="1.5" fill-opacity="1" fill="#cbe6c7"></path><g id="SvgjsG1089"><text id="SvgjsText1090" font-family="&quot;Microsoft YaHei&quot;, 微软雅黑, Arial" text-anchor="middle" font-size="13px" width="70px" fill="#323232" font-weight="400" align="middle" lineHeight="125%" anchor="middle" family="&quot;Microsoft YaHei&quot;, 微软雅黑, Arial" size="13px" weight="400" font-style="" opacity="1" y="-7.024999999999999" transform="rotate(0)"><tspan id="SvgjsTspan1091" dy="16.25" x="35"><tspan id="SvgjsTspan1092" style=""> </tspan></tspan><tspan id="SvgjsTspan1093" dy="16.25" x="35"><tspan id="SvgjsTspan1094" style=""> </tspan></tspan><tspan id="SvgjsTspan1095" dy="16.25" x="35"><tspan id="SvgjsTspan1096" style="">...</tspan></tspan></text></g></g><g id="SvgjsG1097" transform="translate(171,552)"><path id="SvgjsPath1098" d="M 13.333333333333334 0L 106.66666666666667 0C 124.44444444444444 0 124.44444444444444 40 106.66666666666667 40L 13.333333333333334 40C -4.444444444444445 40 -4.444444444444445 0 13.333333333333334 0Z" stroke="rgba(33,41,48,1)" stroke-width="1.5" fill-opacity="1" fill="#c3defd"></path><g id="SvgjsG1099"><text id="SvgjsText1100" font-family="&quot;Microsoft YaHei&quot;, 微软雅黑, Arial" text-anchor="middle" font-size="13px" width="100px" fill="#323232" font-weight="400" align="middle" lineHeight="125%" anchor="middle" family="&quot;Microsoft YaHei&quot;, 微软雅黑, Arial" size="13px" weight="400" font-style="" opacity="1" y="9.375" transform="rotate(0)"><tspan id="SvgjsTspan1101" dy="16.25" x="60"><tspan id="SvgjsTspan1102" style="">文件系统</tspan></tspan></text></g></g><g id="SvgjsG1103" transform="translate(474.27631144943086,46.5)"><path id="SvgjsPath1104" d="M 0 0L 134 0L 150 16L 150 40L 0 40L 0 0Z" stroke="none" fill-opacity="1" fill="#fff7bc"></path><path id="SvgjsPath1105" d="M 134 0L 134 16L 150 16Z" stroke="none" fill-opacity="1" fill="#e4d089"></path><path id="SvgjsPath1106" d="M 0 0L 134 0L 150 16L 150 40L 0 40L 0 0Z" stroke="none" fill="none"></path><g id="SvgjsG1107"><text id="SvgjsText1108" font-family="&quot;Microsoft YaHei&quot;, 微软雅黑, Arial" text-anchor="middle" font-size="13px" width="130px" fill="#323232" font-weight="400" align="middle" lineHeight="125%" anchor="middle" family="&quot;Microsoft YaHei&quot;, 微软雅黑, Arial" size="13px" weight="400" font-style="" opacity="1" y="9.375" transform="rotate(0)"><tspan id="SvgjsTspan1109" dy="16.25" x="75"><tspan id="SvgjsTspan1110" style="">第1部分：连接管理</tspan></tspan></text></g></g><g id="SvgjsG1111" transform="translate(474.27631144943086,128)"><path id="SvgjsPath1112" d="M 0 0L 134 0L 150 16L 150 40L 0 40L 0 0Z" stroke="none" fill-opacity="1" fill="#fff7bc"></path><path id="SvgjsPath1113" d="M 134 0L 134 16L 150 16Z" stroke="none" fill-opacity="1" fill="#e4d089"></path><path id="SvgjsPath1114" d="M 0 0L 134 0L 150 16L 150 40L 0 40L 0 0Z" stroke="none" fill="none"></path><g id="SvgjsG1115"><text id="SvgjsText1116" font-family="&quot;Microsoft YaHei&quot;, 微软雅黑, Arial" text-anchor="middle" font-size="13px" width="130px" fill="#323232" font-weight="400" align="middle" lineHeight="125%" anchor="middle" family="&quot;Microsoft YaHei&quot;, 微软雅黑, Arial" size="13px" weight="400" font-style="" opacity="1" y="9.375" transform="rotate(0)"><tspan id="SvgjsTspan1117" dy="16.25" x="75"><tspan id="SvgjsTspan1118" style="">第1部分：连接管理</tspan></tspan></text></g></g><g id="SvgjsG1119" transform="translate(470,365.57142857142856)"><path id="SvgjsPath1120" d="M 0 0L 134 0L 150 16L 150 40L 0 40L 0 0Z" stroke="none" fill-opacity="1" fill="#fff7bc"></path><path id="SvgjsPath1121" d="M 134 0L 134 16L 150 16Z" stroke="none" fill-opacity="1" fill="#e4d089"></path><path id="SvgjsPath1122" d="M 0 0L 134 0L 150 16L 150 40L 0 40L 0 0Z" stroke="none" fill="none"></path><g id="SvgjsG1123"><text id="SvgjsText1124" font-family="&quot;Microsoft YaHei&quot;, 微软雅黑, Arial" text-anchor="middle" font-size="13px" width="130px" fill="#323232" font-weight="400" align="middle" lineHeight="125%" anchor="middle" family="&quot;Microsoft YaHei&quot;, 微软雅黑, Arial" size="13px" weight="400" font-style="" opacity="1" y="9.375" transform="rotate(0)"><tspan id="SvgjsTspan1125" dy="16.25" x="75"><tspan id="SvgjsTspan1126" style="">第1部分：连接管理</tspan></tspan></text></g></g><g id="SvgjsG1127"><path id="SvgjsPath1128" d="M231 65.75L231 87.25L231 87.25L231 106.80000000000001" stroke="#323232" stroke-width="1.5" fill="none" marker-end="url(#SvgjsMarker1129)"></path></g><g id="SvgjsG1131"><path id="SvgjsPath1132" d="M229 150.25L229 171.75L229 171.75L229 191.3" stroke="#323232" stroke-width="1.5" fill="none" marker-end="url(#SvgjsMarker1133)"></path></g><g id="SvgjsG1135"><path id="SvgjsPath1136" d="M229 234.75L229 250L229 250L229 263.3" stroke="#323232" stroke-width="1.5" fill="none" marker-end="url(#SvgjsMarker1137)"></path></g><g id="SvgjsG1139"><path id="SvgjsPath1140" d="M229 306.75L229 322L229 322L229 335.3" stroke="#323232" stroke-width="1.5" fill="none" marker-end="url(#SvgjsMarker1141)"></path></g><g id="SvgjsG1143"><path id="SvgjsPath1144" d="M228.52612766220784 378.5813303772171L185.87260708271842 430.90721064201836" stroke="#323232" stroke-width="1.5" fill="none" marker-end="url(#SvgjsMarker1145)"></path></g><g id="SvgjsG1147"><path id="SvgjsPath1148" d="M184.5837187529806 482.62335187278234L229.49861248927 549.7559332579837" stroke="#323232" stroke-width="1.5" fill="none" marker-end="url(#SvgjsMarker1149)"></path></g><g id="SvgjsG1151" transform="matrix(0.8191520442889916,-0.5735764363510465,0.5735764363510465,0.8191520442889916,408.76139184017137,413.05554059139)"><path id="SvgjsPath1152" d="M 0 7.007441585754317L 54.492947788171875 7.007441585754317L 54.492947788171875 0L 65.11028352416326 10.61733573599139L 54.492947788171875 21.23467147198278L 54.492947788171875 14.227229886228463L 0 14.227229886228463L 0 7.007441585754317Z" stroke="rgba(33,41,48,1)" stroke-width="1.5" fill-opacity="1" fill="#ffffff"></path><g id="SvgjsG1153"><text id="SvgjsText1154" font-family="&quot;Microsoft YaHei&quot;, 微软雅黑, Arial" text-anchor="middle" font-size="13px" width="66px" fill="#323232" font-weight="400" align="middle" lineHeight="125%" anchor="middle" family="&quot;Microsoft YaHei&quot;, 微软雅黑, Arial" size="13px" weight="400" font-style="" opacity="1" y="-0.007664264008609756" transform="rotate(0)"></text></g></g><g id="SvgjsG1155" transform="matrix(0.8191520442889916,-0.5735764363510465,0.5735764363510465,0.8191520442889916,413.76139184017137,177.05554059139)"><path id="SvgjsPath1156" d="M 0 7.007441585754317L 54.492947788171875 7.007441585754317L 54.492947788171875 0L 65.11028352416326 10.61733573599139L 54.492947788171875 21.23467147198278L 54.492947788171875 14.227229886228463L 0 14.227229886228463L 0 7.007441585754317Z" stroke="rgba(33,41,48,1)" stroke-width="1.5" fill-opacity="1" fill="#ffffff"></path><g id="SvgjsG1157"><text id="SvgjsText1158" font-family="&quot;Microsoft YaHei&quot;, 微软雅黑, Arial" text-anchor="middle" font-size="13px" width="66px" fill="#323232" font-weight="400" align="middle" lineHeight="125%" anchor="middle" family="&quot;Microsoft YaHei&quot;, 微软雅黑, Arial" size="13px" weight="400" font-style="" opacity="1" y="-0.007664264008609756" transform="rotate(0)"></text></g></g><g id="SvgjsG1159" transform="matrix(0.8191520442889916,-0.5735764363510465,0.5735764363510465,0.8191520442889916,413.76139184017137,95.05554059139001)"><path id="SvgjsPath1160" d="M 0 7.007441585754317L 54.492947788171875 7.007441585754317L 54.492947788171875 0L 65.11028352416326 10.61733573599139L 54.492947788171875 21.23467147198278L 54.492947788171875 14.227229886228463L 0 14.227229886228463L 0 7.007441585754317Z" stroke="rgba(33,41,48,1)" stroke-width="1.5" fill-opacity="1" fill="#ffffff"></path><g id="SvgjsG1161"><text id="SvgjsText1162" font-family="&quot;Microsoft YaHei&quot;, 微软雅黑, Arial" text-anchor="middle" font-size="13px" width="66px" fill="#323232" font-weight="400" align="middle" lineHeight="125%" anchor="middle" family="&quot;Microsoft YaHei&quot;, 微软雅黑, Arial" size="13px" weight="400" font-style="" opacity="1" y="-0.007664264008609756" transform="rotate(0)"></text></g></g></svg>