<svg xmlns="http://www.w3.org/2000/svg" xlink="http://www.w3.org/1999/xlink" id="mind-svg-con" version="1.1" width="854.8125px" height="342px" style="position: absolute; left: 0px; top: 0px; width: 854.812px; height: 342px; background: rgb(255, 255, 255); z-index: 999;"><defs></defs><g id="svgbackgroundid"><defs></defs><rect x="0" y="0" width="854.8125" height="342" fill="#ffffff"></rect></g><g transform="translate(-9671.1875, -9758)" id="sdjakdjak8"><defs></defs><g class="svg-topic-con" transform="translate(0.5,0.5)"><path part="left" sub="true" id="line_9f0c38986cbd82ef" d="M 9979.2 9937 C 9979.2 9937 9915 9891.8984375 9795 9891.8984375 L 9707 9891.8984375 L 9795 9891.8984375 C 9895 9891.8984375 9974.2 9943 9974.2 9943 L 9979.2 9937 Z" stroke="#6A6CFF" fill="#6A6CFF" stroke-width="2"></path><path part="left" sub="true" id="line_f66f4438bdefc48d" d="M 9979.2 9937 L 9979.2 9949 L 9795 9943.8984375 L 9700.1875 9943.8984375 L 9795 9943.8984375 L 9979.2 9937" stroke="#B16FFF" fill="#B16FFF" stroke-width="2"></path><path part="left" sub="true" id="line_6ab4f6a877b46f8e" d="M 9979.2 9949 C 9979.2 9949 9915 9995.8984375 9795 9995.8984375 L 9723 9995.8984375 L 9795 9995.8984375 C 9895 9995.8984375 9974.2 9943 9974.2 9943 L 9979.2 9949 Z" stroke="#FF44BC" fill="#FF44BC" stroke-width="2"></path><path part="right" sub="true" id="line_5596511bd9307e9a" d="M 10020.8 9937 C 10020.8 9937 10084 9865.69921875 10204 9865.69921875 L 10276 9865.69921875 L 10204 9865.69921875 C 10104 9865.69921875 10025.8 9943 10025.8 9943 L 10020.8 9937 Z" stroke="#FFD424" fill="#FFD424" stroke-width="2"></path><path part="right" sub="true" id="line_510633b7d71555a0" d="M 10020.8 9949 C 10020.8 9949 10084 9964.8984375 10204 9964.8984375 L 10276 9964.8984375 L 10204 9964.8984375 C 10104 9964.8984375 10025.8 9943 10025.8 9943 L 10020.8 9949 Z" stroke="#4F7CFF" fill="#4F7CFF" stroke-width="2"></path><path part="right" sub="true" id="line_9c2cce6d6e4dcaf7" d="M 10020.8 9949 C 10020.8 9949 10084 10016.8984375 10204 10016.8984375 L 10276 10016.8984375 L 10204 10016.8984375 C 10104 10016.8984375 10025.8 9943 10025.8 9943 L 10020.8 9949 Z" stroke="#03C1EB" fill="#03C1EB" stroke-width="2"></path><path part="right" sub="true" id="line_b033a203d8785e49" d="M 10020.8 9949 C 10020.8 9949 10084 10068.8984375 10204 10068.8984375 L 10276 10068.8984375 L 10204 10068.8984375 C 10104 10068.8984375 10025.8 9943 10025.8 9943 L 10020.8 9949 Z" stroke="#FE3E1E" fill="#FE3E1E" stroke-width="2"></path></g><g class="svg-connection-con" transform="translate(0.5,0.5)"></g><g class="svg-freesums-con" transform="translate(0.5,0.5)"></g><g class="svg-freebos-con" transform="translate(0.5,0.5)"></g></g><g id="b033a203d8785e49"><rect x="532.8125" y="280" rx="1px" ry="1px" width="72" height="30" style="fill: transparent; stroke:none;stroke-width:0px;"></rect><g><text text-anchor="start" align="top" anchor="start" font-size="16px" font-weight="normal" fill="rgb(51, 67, 90)" style="font-size:16px;font-family:微软雅黑;color:#33435A;font-style:normal;text-align:left;font-weight:normal;"><tspan x="553" y="300"><tspan dx="0">元组</tspan></tspan></text></g><line x1="532.8125" y1="311" x2="604.8125" y2="311" style="stroke:rgb(254, 62, 30);stroke-width:2"></line></g><g id="9c2cce6d6e4dcaf7"><rect x="532.8125" y="228" rx="1px" ry="1px" width="72" height="30" style="fill: transparent; stroke:none;stroke-width:0px;"></rect><g><text text-anchor="start" align="top" anchor="start" font-size="16px" font-weight="normal" fill="rgb(51, 67, 90)" style="font-size:16px;font-family:微软雅黑;color:#33435A;font-style:normal;text-align:left;font-weight:normal;"><tspan x="553" y="248"><tspan dx="0">字典</tspan></tspan></text></g><line x1="532.8125" y1="259" x2="604.8125" y2="259" style="stroke:rgb(3, 193, 235);stroke-width:2"></line></g><g id="510633b7d71555a0"><rect x="532.8125" y="176" rx="1px" ry="1px" width="72" height="30" style="fill: transparent; stroke:none;stroke-width:0px;"></rect><g><text text-anchor="start" align="top" anchor="start" font-size="16px" font-weight="normal" fill="rgb(51, 67, 90)" style="font-size:16px;font-family:微软雅黑;color:#33435A;font-style:normal;text-align:left;font-weight:normal;"><tspan x="553" y="196"><tspan dx="0">列表</tspan></tspan></text></g><line x1="532.8125" y1="207" x2="604.8125" y2="207" style="stroke:rgb(79, 124, 255);stroke-width:2"></line></g><g id="5596511bd9307e9a"><rect x="532.8125" y="76.796875" rx="1px" ry="1px" width="72" height="30" style="fill: transparent; stroke:none;stroke-width:0px;"></rect><g><text text-anchor="start" align="top" anchor="start" font-size="16px" font-weight="normal" fill="rgb(51, 67, 90)" style="font-size:16px;font-family:微软雅黑;color:#33435A;font-style:normal;text-align:left;font-weight:normal;"><tspan x="553" y="97"><tspan dx="0">序列</tspan></tspan></text></g><line x1="532.8125" y1="107" x2="604.8125" y2="107" style="stroke:rgb(255, 212, 36);stroke-width:2"></line></g><g id="46a458ee3591c329"><rect x="660.8125" y="81" rx="1px" ry="1px" width="66" height="22" style="fill: transparent; stroke:none;stroke-width:0px;"></rect><g><text text-anchor="start" align="top" anchor="start" font-size="12px" font-weight="normal" fill="rgb(51, 67, 90)" style="font-size:12px;font-family:微软雅黑;color:#33435A;font-style:normal;text-align:left;font-weight:normal;"><tspan x="670" y="94.16"><tspan dx="0">通用操作</tspan></tspan></text></g></g><g id="b8f605a0779a7d69"><rect x="782.8125" y="30" rx="1px" ry="1px" width="42" height="22" style="fill: transparent; stroke:none;stroke-width:0px;"></rect><g><text text-anchor="start" align="top" anchor="start" font-size="12px" font-weight="normal" fill="rgb(51, 67, 90)" style="font-size:12px;font-family:微软雅黑;color:#33435A;font-style:normal;text-align:left;font-weight:normal;"><tspan x="792" y="43.16"><tspan dx="0">索引</tspan></tspan></text></g></g><g id="3fd1ad807ca43a3b"><rect x="782.8125" y="64" rx="1px" ry="1px" width="42" height="22" style="fill: transparent; stroke:none;stroke-width:0px;"></rect><g><text text-anchor="start" align="top" anchor="start" font-size="12px" font-weight="normal" fill="rgb(51, 67, 90)" style="font-size:12px;font-family:微软雅黑;color:#33435A;font-style:normal;text-align:left;font-weight:normal;"><tspan x="792" y="77.16"><tspan dx="0">切片</tspan></tspan></text></g></g><g id="1eaa0fb34c05e3d8"><rect x="782.8125" y="98" rx="1px" ry="1px" width="42" height="22" style="fill: transparent; stroke:none;stroke-width:0px;"></rect><g><text text-anchor="start" align="top" anchor="start" font-size="12px" font-weight="normal" fill="rgb(51, 67, 90)" style="font-size:12px;font-family:微软雅黑;color:#33435A;font-style:normal;text-align:left;font-weight:normal;"><tspan x="792" y="111.16"><tspan dx="0">加法</tspan></tspan></text></g></g><g id="82c3ac5908280e13"><rect x="782.8125" y="132" rx="1px" ry="1px" width="42" height="22" style="fill: transparent; stroke:none;stroke-width:0px;"></rect><g><text text-anchor="start" align="top" anchor="start" font-size="12px" font-weight="normal" fill="rgb(51, 67, 90)" style="font-size:12px;font-family:微软雅黑;color:#33435A;font-style:normal;text-align:left;font-weight:normal;"><tspan x="792" y="145.16"><tspan dx="0">乘法</tspan></tspan></text></g></g><g id="6ab4f6a877b46f8e"><rect x="52.8125" y="207" rx="1px" ry="1px" width="72" height="30" style="fill: transparent; stroke:none;stroke-width:0px;"></rect><g><text text-anchor="start" align="top" anchor="start" font-size="16px" font-weight="normal" fill="rgb(51, 67, 90)" style="font-size:16px;font-family:微软雅黑;color:#33435A;font-style:normal;text-align:left;font-weight:normal;"><tspan x="73" y="227"><tspan dx="0">集合</tspan></tspan></text></g><line x1="52.8125" y1="238" x2="124.8125" y2="238" style="stroke:rgb(255, 68, 188);stroke-width:2"></line></g><g id="f66f4438bdefc48d"><rect x="30" y="155" rx="1px" ry="1px" width="95" height="30" style="fill: transparent; stroke:none;stroke-width:0px;"></rect><g><text text-anchor="start" align="top" anchor="start" font-size="16px" font-weight="normal" fill="rgb(51, 67, 90)" style="font-size:16px;font-family:微软雅黑;color:#33435A;font-style:normal;text-align:left;font-weight:normal;"><tspan x="50" y="175"><tspan dx="0">range()</tspan></tspan></text></g><line x1="30" y1="186" x2="125" y2="186" style="stroke:rgb(177, 111, 255);stroke-width:2"></line></g><g id="9f0c38986cbd82ef"><rect x="36.8125" y="103" rx="1px" ry="1px" width="88" height="30" style="fill: transparent; stroke:none;stroke-width:0px;"></rect><g><text text-anchor="start" align="top" anchor="start" font-size="16px" font-weight="normal" fill="rgb(51, 67, 90)" style="font-size:16px;font-family:微软雅黑;color:#33435A;font-style:normal;text-align:left;font-weight:normal;"><tspan x="57" y="123"><tspan dx="0">字符串</tspan></tspan></text></g><line x1="36.8125" y1="134" x2="124.8125" y2="134" style="stroke:rgb(106, 108, 255);stroke-width:2"></line></g><g transform="translate(532.8125, 280)" id="sdjakdjak0"><g id="subline_b033a203d8785e49" transform="translate(0.5, 0.5)"></g><g transform="translate(0.5,0.5)"></g><g class="svg-summary-con" transform="translate(0.5,0.5)"></g><g class="svg-boundary-con" transform="translate(0.5,0.5)"></g></g><g transform="translate(532.8125, 228)" id="sdjakdjak1"><g id="subline_9c2cce6d6e4dcaf7" transform="translate(0.5, 0.5)"></g><g transform="translate(0.5,0.5)"></g><g class="svg-summary-con" transform="translate(0.5,0.5)"></g><g class="svg-boundary-con" transform="translate(0.5,0.5)"></g></g><g transform="translate(532.8125, 176)" id="sdjakdjak2"><g id="subline_510633b7d71555a0" transform="translate(0.5, 0.5)"></g><g transform="translate(0.5,0.5)"></g><g class="svg-summary-con" transform="translate(0.5,0.5)"></g><g class="svg-boundary-con" transform="translate(0.5,0.5)"></g></g><g transform="translate(532.8125, 30)" id="sdjakdjak3"><g id="subline_5596511bd9307e9a" transform="translate(0.5, 0.5)"><path id="line_46a458ee3591c329" d="M 72 77.69921875 C 108 77.69921875 100 73.5 128 73.5 L 194 73.5" p="5596511bd9307e9a" stroke="#FFD424" fill="none" stroke-linecap="square" stroke-width="2"></path><path id="line_b8f605a0779a7d69" d="M 194 73.5 C 230 73.5 222 22.5 250 22.5 L 292 22.5" p="46a458ee3591c329" stroke="#FFD424" fill="none" stroke-linecap="square" stroke-width="2"></path><path id="line_3fd1ad807ca43a3b" d="M 194 73.5 C 230 73.5 222 56.5 250 56.5 L 292 56.5" p="46a458ee3591c329" stroke="#FFD424" fill="none" stroke-linecap="square" stroke-width="2"></path><path id="line_1eaa0fb34c05e3d8" d="M 194 73.5 C 230 73.5 222 90.5 250 90.5 L 292 90.5" p="46a458ee3591c329" stroke="#FFD424" fill="none" stroke-linecap="square" stroke-width="2"></path><path id="line_82c3ac5908280e13" d="M 194 73.5 C 230 73.5 222 124.5 250 124.5 L 292 124.5" p="46a458ee3591c329" stroke="#FFD424" fill="none" stroke-linecap="square" stroke-width="2"></path></g><g transform="translate(0.5,0.5)"></g><g class="svg-summary-con" transform="translate(0.5,0.5)"></g><g class="svg-boundary-con" transform="translate(0.5,0.5)"></g></g><g transform="translate(52.8125, 207)" id="sdjakdjak4"><g id="subline_6ab4f6a877b46f8e" transform="translate(0.5, 0.5)"></g><g transform="translate(0.5,0.5)"></g><g class="svg-summary-con" transform="translate(0.5,0.5)"></g><g class="svg-boundary-con" transform="translate(0.5,0.5)"></g></g><g transform="translate(30, 155)" id="sdjakdjak5"><g id="subline_f66f4438bdefc48d" transform="translate(0.5, 0.5)"></g><g transform="translate(0.5,0.5)"></g><g class="svg-summary-con" transform="translate(0.5,0.5)"></g><g class="svg-boundary-con" transform="translate(0.5,0.5)"></g></g><g transform="translate(36.8125, 103)" id="sdjakdjak6"><g id="subline_9f0c38986cbd82ef" transform="translate(0.5, 0.5)"></g><g transform="translate(0.5,0.5)"></g><g class="svg-summary-con" transform="translate(0.5,0.5)"></g><g class="svg-boundary-con" transform="translate(0.5,0.5)"></g></g><g transform="translate(224.8125, 158)" id="sdjakdjak7"><g id="subline_root" transform="translate(0.5, 0.5)"></g><g transform="translate(0.5,0.5)"></g><g class="svg-summary-con" transform="translate(0.5,0.5)"></g><g class="svg-boundary-con" transform="translate(0.5,0.5)"></g></g><g id="root"><rect x="224.8125" y="157.9" rx="6px" ry="6px" width="209" height="56" stroke="rgba(0, 0, 0, 0.1)" style="fill:rgba(0, 0, 0, 0.1);"></rect><rect x="224.8125" y="158" rx="6px" ry="6px" width="208" height="54" style="fill: #ffffff; stroke:none;stroke-width:0px;"></rect><g><text text-anchor="start" align="top" anchor="start" font-size="24px" font-weight="normal" fill="rgb(51, 67, 90)" style="font-size:24px;font-family:微软雅黑;color:#33435A;font-style:normal;text-align:left;font-weight:normal;"><tspan x="257" y="192"><tspan dx="0">组合数据类型</tspan></tspan></text></g></g></svg>