<svg id="SvgjsSvg2914" width="443.41666666666674" height="502.00000000000006" xmlns="http://www.w3.org/2000/svg" version="1.1" xmlns:xlink="http://www.w3.org/1999/xlink" xmlns:svgjs="http://svgjs.com/svgjs"><defs id="SvgjsDefs2915"><pattern patternUnits="userSpaceOnUse" id="pattern_mark_0" width="300" height="300"><text x="150" y="100" fill="rgba(229,229,229,0.8)" font-size="18" transform="rotate(-45, 150, 150)" style="dominant-baseline: middle; text-anchor: middle;"></text></pattern><pattern patternUnits="userSpaceOnUse" id="pattern_mark_1" width="300" height="300"><text x="150" y="200" fill="rgba(229,229,229,0.8)" font-size="18" transform="rotate(-45, 150, 150)" style="dominant-baseline: middle; text-anchor: middle;"></text></pattern><marker id="SvgjsMarker3005" markerWidth="13" markerHeight="9" refX="3.5" refY="4.5" viewBox="0 0 13 9" orient="auto" markerUnits="userSpaceOnUse" stroke-dasharray="0,0"><path id="SvgjsPath3006" d="M13,0 L0,4.5 L13,9 L13,0" fill="#323232" stroke="#323232" stroke-width="1"></path></marker><marker id="SvgjsMarker3007" markerWidth="13" markerHeight="9" refX="9.5" refY="4.5" viewBox="0 0 13 9" orient="auto" markerUnits="userSpaceOnUse" stroke-dasharray="0,0"><path id="SvgjsPath3008" d="M0,0 L13,4.5 L0,9 L0,0" fill="#323232" stroke="#323232" stroke-width="1"></path></marker><marker id="SvgjsMarker3011" markerWidth="13" markerHeight="9" refX="9.5" refY="4.5" viewBox="0 0 13 9" orient="auto" markerUnits="userSpaceOnUse" stroke-dasharray="0,0"><path id="SvgjsPath3012" d="M0,0 L13,4.5 L0,9 L0,0" fill="#323232" stroke="#323232" stroke-width="1"></path></marker><marker id="SvgjsMarker3015" markerWidth="13" markerHeight="9" refX="9.5" refY="4.5" viewBox="0 0 13 9" orient="auto" markerUnits="userSpaceOnUse" stroke-dasharray="0,0"><path id="SvgjsPath3016" d="M0,0 L13,4.5 L0,9 L0,0" fill="#323232" stroke="#323232" stroke-width="1"></path></marker><marker id="SvgjsMarker3019" markerWidth="13" markerHeight="9" refX="9.5" refY="4.5" viewBox="0 0 13 9" orient="auto" markerUnits="userSpaceOnUse" stroke-dasharray="0,0"><path id="SvgjsPath3020" d="M0,0 L13,4.5 L0,9 L0,0" fill="#323232" stroke="#323232" stroke-width="1"></path></marker><marker id="SvgjsMarker3023" markerWidth="13" markerHeight="9" refX="9.5" refY="4.5" viewBox="0 0 13 9" orient="auto" markerUnits="userSpaceOnUse" stroke-dasharray="0,0"><path id="SvgjsPath3024" d="M0,0 L13,4.5 L0,9 L0,0" fill="#323232" stroke="#323232" stroke-width="1"></path></marker><marker id="SvgjsMarker3027" markerWidth="13" markerHeight="9" refX="9.5" refY="4.5" viewBox="0 0 13 9" orient="auto" markerUnits="userSpaceOnUse" stroke-dasharray="0,0"><path id="SvgjsPath3028" d="M0,0 L13,4.5 L0,9 L0,0" fill="#323232" stroke="#323232" stroke-width="1"></path></marker><marker id="SvgjsMarker3031" markerWidth="13" markerHeight="9" refX="9.5" refY="4.5" viewBox="0 0 13 9" orient="auto" markerUnits="userSpaceOnUse" stroke-dasharray="0,0"><path id="SvgjsPath3032" d="M0,0 L13,4.5 L0,9 L0,0" fill="#323232" stroke="#323232" stroke-width="1"></path></marker><marker id="SvgjsMarker3035" markerWidth="13" markerHeight="9" refX="9.5" refY="4.5" viewBox="0 0 13 9" orient="auto" markerUnits="userSpaceOnUse" stroke-dasharray="0,0"><path id="SvgjsPath3036" d="M0,0 L13,4.5 L0,9 L0,0" fill="#323232" stroke="#323232" stroke-width="1"></path></marker><marker id="SvgjsMarker3039" markerWidth="13" markerHeight="9" refX="9.5" refY="4.5" viewBox="0 0 13 9" orient="auto" markerUnits="userSpaceOnUse" stroke-dasharray="0,0"><path id="SvgjsPath3040" d="M0,0 L13,4.5 L0,9 L0,0" fill="#323232" stroke="#323232" stroke-width="1"></path></marker><marker id="SvgjsMarker3043" markerWidth="13" markerHeight="9" refX="9.5" refY="4.5" viewBox="0 0 13 9" orient="auto" markerUnits="userSpaceOnUse" stroke-dasharray="0,0"><path id="SvgjsPath3044" d="M0,0 L13,4.5 L0,9 L0,0" fill="#323232" stroke="#323232" stroke-width="1"></path></marker><marker id="SvgjsMarker3047" markerWidth="13" markerHeight="9" refX="9.5" refY="4.5" viewBox="0 0 13 9" orient="auto" markerUnits="userSpaceOnUse" stroke-dasharray="0,0"><path id="SvgjsPath3048" d="M0,0 L13,4.5 L0,9 L0,0" fill="#323232" stroke="#323232" stroke-width="1"></path></marker><marker id="SvgjsMarker3053" markerWidth="13" markerHeight="9" refX="3.5" refY="4.5" viewBox="0 0 13 9" orient="auto" markerUnits="userSpaceOnUse" stroke-dasharray="0,0"><path id="SvgjsPath3054" d="M13,0 L0,4.5 L13,9 L13,0" fill="#323232" stroke="#323232" stroke-width="1"></path></marker><marker id="SvgjsMarker3059" markerWidth="13" markerHeight="9" refX="9.5" refY="4.5" viewBox="0 0 13 9" orient="auto" markerUnits="userSpaceOnUse" stroke-dasharray="0,0"><path id="SvgjsPath3060" d="M0,0 L13,4.5 L0,9 L0,0" fill="#323232" stroke="#323232" stroke-width="1"></path></marker><marker id="SvgjsMarker3063" markerWidth="13" markerHeight="9" refX="9.5" refY="4.5" viewBox="0 0 13 9" orient="auto" markerUnits="userSpaceOnUse" stroke-dasharray="0,0"><path id="SvgjsPath3064" d="M0,0 L13,4.5 L0,9 L0,0" fill="#323232" stroke="#323232" stroke-width="1"></path></marker><marker id="SvgjsMarker3067" markerWidth="13" markerHeight="9" refX="9.5" refY="4.5" viewBox="0 0 13 9" orient="auto" markerUnits="userSpaceOnUse" stroke-dasharray="0,0"><path id="SvgjsPath3068" d="M0,0 L13,4.5 L0,9 L0,0" fill="#323232" stroke="#323232" stroke-width="1"></path></marker><marker id="SvgjsMarker3071" markerWidth="13" markerHeight="9" refX="9.5" refY="4.5" viewBox="0 0 13 9" orient="auto" markerUnits="userSpaceOnUse" stroke-dasharray="0,0"><path id="SvgjsPath3072" d="M0,0 L13,4.5 L0,9 L0,0" fill="#323232" stroke="#323232" stroke-width="1"></path></marker><marker id="SvgjsMarker3075" markerWidth="13" markerHeight="9" refX="9.5" refY="4.5" viewBox="0 0 13 9" orient="auto" markerUnits="userSpaceOnUse" stroke-dasharray="0,0"><path id="SvgjsPath3076" d="M0,0 L13,4.5 L0,9 L0,0" fill="#323232" stroke="#323232" stroke-width="1"></path></marker><marker id="SvgjsMarker3079" markerWidth="13" markerHeight="9" refX="9.5" refY="4.5" viewBox="0 0 13 9" orient="auto" markerUnits="userSpaceOnUse" stroke-dasharray="0,0"><path id="SvgjsPath3080" d="M0,0 L13,4.5 L0,9 L0,0" fill="#323232" stroke="#323232" stroke-width="1"></path></marker></defs><rect id="svgbackgroundid" width="443.41666666666674" height="502.00000000000006" fill="transparent"></rect><rect id="SvgjsRect2917" width="443.41666666666674" height="502.00000000000006" fill="url(#pattern_mark_0)"></rect><rect id="SvgjsRect2918" width="443.41666666666674" height="502.00000000000006" fill="url(#pattern_mark_1)"></rect><g id="SvgjsG2919" transform="translate(25,25)"><path id="SvgjsPath2920" d="M 0 4Q 0 0 4 0L 89.83333333333334 0Q 93.83333333333334 0 93.83333333333334 4L 93.83333333333334 34.458333333333314Q 93.83333333333334 38.458333333333314 89.83333333333334 38.458333333333314L 4 38.458333333333314Q 0 38.458333333333314 0 34.458333333333314Z" stroke="rgba(33,41,48,1)" stroke-width="1.5" fill-opacity="1" fill="#d2d6f9"></path><g id="SvgjsG2921"><text id="SvgjsText2922" font-family="微软雅黑" text-anchor="middle" font-size="15px" width="74px" fill="#323232" font-weight="700" align="middle" lineHeight="125%" anchor="middle" family="微软雅黑" size="15px" weight="700" font-style="" opacity="1" y="6.854166666666657" transform="rotate(0)"><tspan id="SvgjsTspan2923" dy="18.75" x="47"><tspan id="SvgjsTspan2924" style="">线程1</tspan></tspan></text></g></g><g id="SvgjsG2925" transform="translate(324.58333333333337,25)"><path id="SvgjsPath2926" d="M 0 4Q 0 0 4 0L 89.83333333333334 0Q 93.83333333333334 0 93.83333333333334 4L 93.83333333333334 34.458333333333314Q 93.83333333333334 38.458333333333314 89.83333333333334 38.458333333333314L 4 38.458333333333314Q 0 38.458333333333314 0 34.458333333333314Z" stroke="rgba(33,41,48,1)" stroke-width="1.5" fill-opacity="1" fill="#d2d6f9"></path><g id="SvgjsG2927"><text id="SvgjsText2928" font-family="微软雅黑" text-anchor="middle" font-size="15px" width="74px" fill="#323232" font-weight="700" align="middle" lineHeight="125%" anchor="middle" family="微软雅黑" size="15px" weight="700" font-style="" opacity="1" y="6.854166666666657" transform="rotate(0)"><tspan id="SvgjsTspan2929" dy="18.75" x="47"><tspan id="SvgjsTspan2930" style="">线程2</tspan></tspan></text></g></g><g id="SvgjsG2931" transform="translate(25,88.75)"><path id="SvgjsPath2932" d="M 0 4Q 0 0 4 0L 89.83333333333334 0Q 93.83333333333334 0 93.83333333333334 4L 93.83333333333334 34.458333333333314Q 93.83333333333334 38.458333333333314 89.83333333333334 38.458333333333314L 4 38.458333333333314Q 0 38.458333333333314 0 34.458333333333314Z" stroke="rgba(33,41,48,1)" stroke-width="1.5" fill-opacity="1" fill="#f6edc1"></path><g id="SvgjsG2933"><text id="SvgjsText2934" font-family="微软雅黑" text-anchor="middle" font-size="15px" width="74px" fill="#323232" font-weight="700" align="middle" lineHeight="125%" anchor="middle" family="微软雅黑" size="15px" weight="700" font-style="" opacity="1" y="6.854166666666657" transform="rotate(0)"><tspan id="SvgjsTspan2935" dy="18.75" x="47"><tspan id="SvgjsTspan2936" style="">read</tspan></tspan></text></g></g><g id="SvgjsG2937" transform="translate(25,152.5)"><path id="SvgjsPath2938" d="M 0 4Q 0 0 4 0L 89.83333333333334 0Q 93.83333333333334 0 93.83333333333334 4L 93.83333333333334 34.458333333333314Q 93.83333333333334 38.458333333333314 89.83333333333334 38.458333333333314L 4 38.458333333333314Q 0 38.458333333333314 0 34.458333333333314Z" stroke="rgba(33,41,48,1)" stroke-width="1.5" fill-opacity="1" fill="#f6edc1"></path><g id="SvgjsG2939"><text id="SvgjsText2940" font-family="微软雅黑" text-anchor="middle" font-size="15px" width="74px" fill="#323232" font-weight="700" align="middle" lineHeight="125%" anchor="middle" family="微软雅黑" size="15px" weight="700" font-style="" opacity="1" y="6.854166666666657" transform="rotate(0)"><tspan id="SvgjsTspan2941" dy="18.75" x="47"><tspan id="SvgjsTspan2942" style="">load</tspan></tspan></text></g></g><g id="SvgjsG2943" transform="translate(25,216.25)"><path id="SvgjsPath2944" d="M 0 4Q 0 0 4 0L 89.83333333333334 0Q 93.83333333333334 0 93.83333333333334 4L 93.83333333333334 34.458333333333314Q 93.83333333333334 38.458333333333314 89.83333333333334 38.458333333333314L 4 38.458333333333314Q 0 38.458333333333314 0 34.458333333333314Z" stroke="rgba(33,41,48,1)" stroke-width="1.5" fill-opacity="1" fill="#f6edc1"></path><g id="SvgjsG2945"><text id="SvgjsText2946" font-family="微软雅黑" text-anchor="middle" font-size="15px" width="74px" fill="#323232" font-weight="700" align="middle" lineHeight="125%" anchor="middle" family="微软雅黑" size="15px" weight="700" font-style="" opacity="1" y="6.854166666666657" transform="rotate(0)"><tspan id="SvgjsTspan2947" dy="18.75" x="47"><tspan id="SvgjsTspan2948" style="">use</tspan></tspan></text></g></g><g id="SvgjsG2949" transform="translate(25,280)"><path id="SvgjsPath2950" d="M 0 4Q 0 0 4 0L 89.83333333333334 0Q 93.83333333333334 0 93.83333333333334 4L 93.83333333333334 34.458333333333314Q 93.83333333333334 38.458333333333314 89.83333333333334 38.458333333333314L 4 38.458333333333314Q 0 38.458333333333314 0 34.458333333333314Z" stroke="rgba(33,41,48,1)" stroke-width="1.5" fill-opacity="1" fill="#f6edc1"></path><g id="SvgjsG2951"><text id="SvgjsText2952" font-family="微软雅黑" text-anchor="middle" font-size="15px" width="74px" fill="#323232" font-weight="700" align="middle" lineHeight="125%" anchor="middle" family="微软雅黑" size="15px" weight="700" font-style="" opacity="1" y="6.854166666666657" transform="rotate(0)"><tspan id="SvgjsTspan2953" dy="18.75" x="47"><tspan id="SvgjsTspan2954" style="">assign</tspan></tspan></text></g></g><g id="SvgjsG2955" transform="translate(25,343.75)"><path id="SvgjsPath2956" d="M 0 4Q 0 0 4 0L 89.83333333333334 0Q 93.83333333333334 0 93.83333333333334 4L 93.83333333333334 34.458333333333314Q 93.83333333333334 38.458333333333314 89.83333333333334 38.458333333333314L 4 38.458333333333314Q 0 38.458333333333314 0 34.458333333333314Z" stroke="rgba(33,41,48,1)" stroke-width="1.5" fill-opacity="1" fill="#f6edc1"></path><g id="SvgjsG2957"><text id="SvgjsText2958" font-family="微软雅黑" text-anchor="middle" font-size="15px" width="74px" fill="#323232" font-weight="700" align="middle" lineHeight="125%" anchor="middle" family="微软雅黑" size="15px" weight="700" font-style="" opacity="1" y="6.854166666666657" transform="rotate(0)"><tspan id="SvgjsTspan2959" dy="18.75" x="47"><tspan id="SvgjsTspan2960" style="">store</tspan></tspan></text></g></g><g id="SvgjsG2961" transform="translate(25,407.5)"><path id="SvgjsPath2962" d="M 0 4Q 0 0 4 0L 89.83333333333334 0Q 93.83333333333334 0 93.83333333333334 4L 93.83333333333334 34.458333333333314Q 93.83333333333334 38.458333333333314 89.83333333333334 38.458333333333314L 4 38.458333333333314Q 0 38.458333333333314 0 34.458333333333314Z" stroke="rgba(33,41,48,1)" stroke-width="1.5" fill-opacity="1" fill="#f6edc1"></path><g id="SvgjsG2963"><text id="SvgjsText2964" font-family="微软雅黑" text-anchor="middle" font-size="15px" width="74px" fill="#323232" font-weight="700" align="middle" lineHeight="125%" anchor="middle" family="微软雅黑" size="15px" weight="700" font-style="" opacity="1" y="6.854166666666657" transform="rotate(0)"><tspan id="SvgjsTspan2965" dy="18.75" x="47"><tspan id="SvgjsTspan2966" style="">srite</tspan></tspan></text></g></g><g id="SvgjsG2967" transform="translate(324.58333333333337,88.75)"><path id="SvgjsPath2968" d="M 0 4Q 0 0 4 0L 89.83333333333334 0Q 93.83333333333334 0 93.83333333333334 4L 93.83333333333334 34.458333333333314Q 93.83333333333334 38.458333333333314 89.83333333333334 38.458333333333314L 4 38.458333333333314Q 0 38.458333333333314 0 34.458333333333314Z" stroke="rgba(33,41,48,1)" stroke-width="1.5" fill-opacity="1" fill="#f6edc1"></path><g id="SvgjsG2969"><text id="SvgjsText2970" font-family="微软雅黑" text-anchor="middle" font-size="15px" width="74px" fill="#323232" font-weight="700" align="middle" lineHeight="125%" anchor="middle" family="微软雅黑" size="15px" weight="700" font-style="" opacity="1" y="6.854166666666657" transform="rotate(0)"><tspan id="SvgjsTspan2971" dy="18.75" x="47"><tspan id="SvgjsTspan2972" style="">read</tspan></tspan></text></g></g><g id="SvgjsG2973" transform="translate(324.58333333333337,152.50000000000003)"><path id="SvgjsPath2974" d="M 0 4Q 0 0 4 0L 89.83333333333334 0Q 93.83333333333334 0 93.83333333333334 4L 93.83333333333334 34.458333333333314Q 93.83333333333334 38.458333333333314 89.83333333333334 38.458333333333314L 4 38.458333333333314Q 0 38.458333333333314 0 34.458333333333314Z" stroke="rgba(33,41,48,1)" stroke-width="1.5" fill-opacity="1" fill="#f6edc1"></path><g id="SvgjsG2975"><text id="SvgjsText2976" font-family="微软雅黑" text-anchor="middle" font-size="15px" width="74px" fill="#323232" font-weight="700" align="middle" lineHeight="125%" anchor="middle" family="微软雅黑" size="15px" weight="700" font-style="" opacity="1" y="6.854166666666657" transform="rotate(0)"><tspan id="SvgjsTspan2977" dy="18.75" x="47"><tspan id="SvgjsTspan2978" style="">load</tspan></tspan></text></g></g><g id="SvgjsG2979" transform="translate(324.58333333333337,216.25)"><path id="SvgjsPath2980" d="M 0 4Q 0 0 4 0L 89.83333333333334 0Q 93.83333333333334 0 93.83333333333334 4L 93.83333333333334 34.458333333333314Q 93.83333333333334 38.458333333333314 89.83333333333334 38.458333333333314L 4 38.458333333333314Q 0 38.458333333333314 0 34.458333333333314Z" stroke="rgba(33,41,48,1)" stroke-width="1.5" fill-opacity="1" fill="#f6edc1"></path><g id="SvgjsG2981"><text id="SvgjsText2982" font-family="微软雅黑" text-anchor="middle" font-size="15px" width="74px" fill="#323232" font-weight="700" align="middle" lineHeight="125%" anchor="middle" family="微软雅黑" size="15px" weight="700" font-style="" opacity="1" y="6.854166666666657" transform="rotate(0)"><tspan id="SvgjsTspan2983" dy="18.75" x="47"><tspan id="SvgjsTspan2984" style="">use</tspan></tspan></text></g></g><g id="SvgjsG2985" transform="translate(324.58333333333337,280)"><path id="SvgjsPath2986" d="M 0 4Q 0 0 4 0L 89.83333333333334 0Q 93.83333333333334 0 93.83333333333334 4L 93.83333333333334 34.458333333333314Q 93.83333333333334 38.458333333333314 89.83333333333334 38.458333333333314L 4 38.458333333333314Q 0 38.458333333333314 0 34.458333333333314Z" stroke="rgba(33,41,48,1)" stroke-width="1.5" fill-opacity="1" fill="#f6edc1"></path><g id="SvgjsG2987"><text id="SvgjsText2988" font-family="微软雅黑" text-anchor="middle" font-size="15px" width="74px" fill="#323232" font-weight="700" align="middle" lineHeight="125%" anchor="middle" family="微软雅黑" size="15px" weight="700" font-style="" opacity="1" y="6.854166666666657" transform="rotate(0)"><tspan id="SvgjsTspan2989" dy="18.75" x="47"><tspan id="SvgjsTspan2990" style="">assign</tspan></tspan></text></g></g><g id="SvgjsG2991" transform="translate(324.58333333333337,343.75)"><path id="SvgjsPath2992" d="M 0 4Q 0 0 4 0L 89.83333333333334 0Q 93.83333333333334 0 93.83333333333334 4L 93.83333333333334 34.458333333333314Q 93.83333333333334 38.458333333333314 89.83333333333334 38.458333333333314L 4 38.458333333333314Q 0 38.458333333333314 0 34.458333333333314Z" stroke="rgba(33,41,48,1)" stroke-width="1.5" fill-opacity="1" fill="#f6edc1"></path><g id="SvgjsG2993"><text id="SvgjsText2994" font-family="微软雅黑" text-anchor="middle" font-size="15px" width="74px" fill="#323232" font-weight="700" align="middle" lineHeight="125%" anchor="middle" family="微软雅黑" size="15px" weight="700" font-style="" opacity="1" y="6.854166666666657" transform="rotate(0)"><tspan id="SvgjsTspan2995" dy="18.75" x="47"><tspan id="SvgjsTspan2996" style="">store</tspan></tspan></text></g></g><g id="SvgjsG2997" transform="translate(324.58333333333337,407.4999999999999)"><path id="SvgjsPath2998" d="M 0 4Q 0 0 4 0L 89.83333333333334 0Q 93.83333333333334 0 93.83333333333334 4L 93.83333333333334 34.458333333333314Q 93.83333333333334 38.458333333333314 89.83333333333334 38.458333333333314L 4 38.458333333333314Q 0 38.458333333333314 0 34.458333333333314Z" stroke="rgba(33,41,48,1)" stroke-width="1.5" fill-opacity="1" fill="#f6edc1"></path><g id="SvgjsG2999"><text id="SvgjsText3000" font-family="微软雅黑" text-anchor="middle" font-size="15px" width="74px" fill="#323232" font-weight="700" align="middle" lineHeight="125%" anchor="middle" family="微软雅黑" size="15px" weight="700" font-style="" opacity="1" y="6.854166666666657" transform="rotate(0)"><tspan id="SvgjsTspan3001" dy="18.75" x="47"><tspan id="SvgjsTspan3002" style="">srite</tspan></tspan></text></g></g><g id="SvgjsG3003"><path id="SvgjsPath3004" d="M121.53333333333336 107.97916666666666C 201.13333333333333 107.97916666666657 242.28333333333336 107.97916666666666 321.8833333333334 107.97916666666666" stroke="#323232" stroke-width="1.5" fill="none" marker-start="url(#SvgjsMarker3005)" marker-end="url(#SvgjsMarker3007)"></path></g><g id="SvgjsG3009"><path id="SvgjsPath3010" d="M71.91666666666669 127.95833333333331C 71.91666666666669 137.325 71.91666666666669 142.38333333333333 71.91666666666669 149.8" stroke="#323232" stroke-width="1.5" fill="none" marker-end="url(#SvgjsMarker3011)"></path></g><g id="SvgjsG3013"><path id="SvgjsPath3014" d="M71.91666666666669 191.70833333333331C 71.91666666666669 201.075 71.91666666666669 206.13333333333333 71.91666666666669 213.55" stroke="#323232" stroke-width="1.5" fill="none" marker-end="url(#SvgjsMarker3015)"></path></g><g id="SvgjsG3017"><path id="SvgjsPath3018" d="M71.91666666666669 255.45833333333331C 71.91666666666669 264.825 71.91666666666669 269.8833333333333 71.91666666666669 277.3" stroke="#323232" stroke-width="1.5" fill="none" marker-end="url(#SvgjsMarker3019)"></path></g><g id="SvgjsG3021"><path id="SvgjsPath3022" d="M71.91666666666669 319.2083333333333C 71.91666666666669 328.575 71.91666666666669 333.6333333333333 71.91666666666669 341.05" stroke="#323232" stroke-width="1.5" fill="none" marker-end="url(#SvgjsMarker3023)"></path></g><g id="SvgjsG3025"><path id="SvgjsPath3026" d="M71.91666666666669 382.9583333333333C 71.91666666666669 392.325 71.91666666666669 397.3833333333333 71.91666666666669 404.8" stroke="#323232" stroke-width="1.5" fill="none" marker-end="url(#SvgjsMarker3027)"></path></g><g id="SvgjsG3029"><path id="SvgjsPath3030" d="M371.50000000000006 127.95833333333331C 371.50000000000006 137.325 371.50000000000006 142.38333333333335 371.50000000000006 149.80000000000004" stroke="#323232" stroke-width="1.5" fill="none" marker-end="url(#SvgjsMarker3031)"></path></g><g id="SvgjsG3033"><path id="SvgjsPath3034" d="M371.50000000000006 191.70833333333331C 371.50000000000006 201.075 371.50000000000006 206.13333333333333 371.50000000000006 213.55" stroke="#323232" stroke-width="1.5" fill="none" marker-end="url(#SvgjsMarker3035)"></path></g><g id="SvgjsG3037"><path id="SvgjsPath3038" d="M371.50000000000006 255.45833333333331C 371.50000000000006 264.825 371.50000000000006 269.8833333333333 371.50000000000006 277.3" stroke="#323232" stroke-width="1.5" fill="none" marker-end="url(#SvgjsMarker3039)"></path></g><g id="SvgjsG3041"><path id="SvgjsPath3042" d="M371.50000000000006 319.2083333333333C 371.50000000000006 328.575 371.50000000000006 333.6333333333333 371.50000000000006 341.05" stroke="#323232" stroke-width="1.5" fill="none" marker-end="url(#SvgjsMarker3043)"></path></g><g id="SvgjsG3045"><path id="SvgjsPath3046" d="M371.50000000000006 382.9583333333333C 371.50000000000006 392.32499999999993 371.50000000000006 397.38333333333327 371.50000000000006 404.7999999999999" stroke="#323232" stroke-width="1.5" fill="none" marker-end="url(#SvgjsMarker3047)"></path></g><g id="SvgjsG3049"><path id="SvgjsPath3050" d="M71.91666666666669 446.7083333333333L71.91666666666669 475.9583333333333L371.50000000000006 475.9583333333333L371.50000000000006 446.7083333333333" stroke="#323232" stroke-width="1.5" fill="none"></path></g><g id="SvgjsG3051"><path id="SvgjsPath3052" d="M221.70833333333337 282.7L221.70833333333337 378.50000000000006L221.70833333333337 378.50000000000006L221.70833333333337 477.00000000000006" stroke="#323232" stroke-width="1.5" fill="none" marker-start="url(#SvgjsMarker3053)"></path></g><g id="SvgjsG3055"><path id="SvgjsPath3056" d="M221.70833333333337 222.66666666666669L221.70833333333337 165.83333333333331L221.70833333333337 165.83333333333331L221.70833333333337 108.25" stroke="#323232" stroke-width="1.5" fill="none"></path></g><g id="SvgjsG3057"><path id="SvgjsPath3058" d="M323.8374153483327 108.05730986632292L73.41666666666669 134.29166666666666" stroke-dasharray="8,5" stroke="#323232" stroke-width="1.5" fill="none" marker-end="url(#SvgjsMarker3059)"></path></g><g id="SvgjsG3061"><path id="SvgjsPath3062" d="M323.87843513993346 108.23532782090652L74.45833333333334 198.875" stroke-dasharray="8,5" stroke="#323232" stroke-width="1.5" fill="none" marker-end="url(#SvgjsMarker3063)"></path></g><g id="SvgjsG3065"><path id="SvgjsPath3066" d="M323.945628837009 108.37392352267767L73.41666666666669 263.4583333333333" stroke-dasharray="8,5" stroke="#323232" stroke-width="1.5" fill="none" marker-end="url(#SvgjsMarker3067)"></path></g><g id="SvgjsG3069"><path id="SvgjsPath3070" d="M324.0167487396843 108.47057474376709L74.45833333333334 324.9166666666667" stroke-dasharray="8,5" stroke="#323232" stroke-width="1.5" fill="none" marker-end="url(#SvgjsMarker3071)"></path></g><g id="SvgjsG3073"><path id="SvgjsPath3074" d="M324.08415787294626 108.53892005857003L74.45833333333334 388.4583333333333" stroke-dasharray="8,5" stroke="#323232" stroke-width="1.5" fill="none" marker-end="url(#SvgjsMarker3075)"></path></g><g id="SvgjsG3077"><path id="SvgjsPath3078" d="M324.14714119772896 108.5892784767776L73.41666666666669 459.2916666666667" stroke-dasharray="8,5" stroke="#323232" stroke-width="1.5" fill="none" marker-end="url(#SvgjsMarker3079)"></path></g><g id="SvgjsG3081" transform="translate(156.81250000000006,223.41666666666669)"><path id="SvgjsPath3082" d="M 0 28.291666666666657C 0 -9.430555555555552 129.79166666666663 -9.430555555555552 129.79166666666663 28.291666666666657C 129.79166666666663 66.01388888888887 0 66.01388888888887 0 28.291666666666657Z" stroke="rgba(33,41,48,1)" stroke-width="1.5" fill-opacity="1" fill="#f19594"></path><g id="SvgjsG3083"><text id="SvgjsText3084" font-family="微软雅黑" text-anchor="middle" font-size="15px" width="110px" fill="#323232" font-weight="400" align="middle" lineHeight="125%" anchor="middle" family="微软雅黑" size="15px" weight="400" font-style="" opacity="1" y="15.916666666666657" transform="rotate(0)"><tspan id="SvgjsTspan3085" dy="18.75" x="65"><tspan id="SvgjsTspan3086" style="font-weight: bold;">主内存对象</tspan></tspan></text></g></g></svg>