<svg id="SvgjsSvg1077" width="431.84257751803534" height="315" xmlns="http://www.w3.org/2000/svg" version="1.1" xmlns:xlink="http://www.w3.org/1999/xlink" xmlns:svgjs="http://svgjs.com/svgjs"><defs id="SvgjsDefs1078"><pattern patternUnits="userSpaceOnUse" id="pattern_mark_0" width="300" height="300"><text x="150" y="100" fill="rgba(229,229,229,0.8)" font-size="18" transform="rotate(-45, 150, 150)" style="dominant-baseline: middle; text-anchor: middle;"></text></pattern><pattern patternUnits="userSpaceOnUse" id="pattern_mark_1" width="300" height="300"><text x="150" y="200" fill="rgba(229,229,229,0.8)" font-size="18" transform="rotate(-45, 150, 150)" style="dominant-baseline: middle; text-anchor: middle;"></text></pattern><linearGradient id="SvgjsLinearGradient1084" x1="0.5" y1="0" x2="0.5" y2="1"><stop id="SvgjsStop1085" stop-opacity="1" stop-color="#e0e6ed" offset="0"></stop><stop id="SvgjsStop1086" stop-opacity="1" stop-color="#a4aab1" offset="1"></stop></linearGradient><linearGradient id="SvgjsLinearGradient1093" x1="0.5" y1="0" x2="0.5" y2="1"><stop id="SvgjsStop1094" stop-opacity="1" stop-color="#f1e4a2" offset="0"></stop><stop id="SvgjsStop1095" stop-opacity="1" stop-color="#f4b06c" offset="1"></stop></linearGradient><linearGradient id="SvgjsLinearGradient1102" x1="0.5" y1="0" x2="0.5" y2="1"><stop id="SvgjsStop1103" stop-opacity="1" stop-color="#f1e4a2" offset="0"></stop><stop id="SvgjsStop1104" stop-opacity="1" stop-color="#f4b06c" offset="1"></stop></linearGradient><linearGradient id="SvgjsLinearGradient1111" x1="0.5" y1="0" x2="0.5" y2="1"><stop id="SvgjsStop1112" stop-opacity="1" stop-color="#f1e4a2" offset="0"></stop><stop id="SvgjsStop1113" stop-opacity="1" stop-color="#f4b06c" offset="1"></stop></linearGradient><marker id="SvgjsMarker1120" markerWidth="13" markerHeight="9" refX="9.5" refY="4.5" viewBox="0 0 13 9" orient="auto" markerUnits="userSpaceOnUse" stroke-dasharray="0,0"><path id="SvgjsPath1121" d="M0,0 L13,4.5 L0,9 L0,0" fill="#a6aef3" stroke="#a6aef3" stroke-width="1"></path></marker><marker id="SvgjsMarker1124" markerWidth="13" markerHeight="9" refX="9.5" refY="4.5" viewBox="0 0 13 9" orient="auto" markerUnits="userSpaceOnUse" stroke-dasharray="0,0"><path id="SvgjsPath1125" d="M0,0 L13,4.5 L0,9 L0,0" fill="#a6aef3" stroke="#a6aef3" stroke-width="1"></path></marker><marker id="SvgjsMarker1128" markerWidth="13" markerHeight="9" refX="9.5" refY="4.5" viewBox="0 0 13 9" orient="auto" markerUnits="userSpaceOnUse" stroke-dasharray="0,0"><path id="SvgjsPath1129" d="M0,0 L13,4.5 L0,9 L0,0" fill="#a6aef3" stroke="#a6aef3" stroke-width="1"></path></marker><marker id="SvgjsMarker1132" markerWidth="13" markerHeight="9" refX="9.5" refY="4.5" viewBox="0 0 13 9" orient="auto" markerUnits="userSpaceOnUse" stroke-dasharray="0,0"><path id="SvgjsPath1133" d="M0,0 L13,4.5 L0,9 L0,0" fill="#a6aef3" stroke="#a6aef3" stroke-width="1"></path></marker><marker id="SvgjsMarker1136" markerWidth="13" markerHeight="9" refX="9.5" refY="4.5" viewBox="0 0 13 9" orient="auto" markerUnits="userSpaceOnUse" stroke-dasharray="0,0"><path id="SvgjsPath1137" d="M0,0 L13,4.5 L0,9 L0,0" fill="#a6aef3" stroke="#a6aef3" stroke-width="1"></path></marker><linearGradient id="SvgjsLinearGradient1140" x1="0.5" y1="0" x2="0.5" y2="1"><stop id="SvgjsStop1141" stop-opacity="1" stop-color="#f1e4a2" offset="0"></stop><stop id="SvgjsStop1142" stop-opacity="1" stop-color="#f4b06c" offset="1"></stop></linearGradient></defs><rect id="svgbackgroundid" width="431.84257751803534" height="315" fill="transparent"></rect><rect id="SvgjsRect1080" width="431.84257751803534" height="315" fill="url(#pattern_mark_0)"></rect><rect id="SvgjsRect1081" width="431.84257751803534" height="315" fill="url(#pattern_mark_1)"></rect><g id="SvgjsG1082" transform="translate(170,25)"><path id="SvgjsPath1083" d="M 0 27.5C 0 -9.166666666666666 100 -9.166666666666666 100 27.5C 100 64.16666666666667 0 64.16666666666667 0 27.5Z" stroke="rgba(33,41,48,1)" stroke-width="1.5" fill="url(#SvgjsLinearGradient1084)"></path><g id="SvgjsG1087"><text id="SvgjsText1088" font-family="&quot;Comic Sans MS&quot;" text-anchor="middle" font-size="13px" width="80px" fill="#323232" font-weight="700" align="middle" lineHeight="125%" anchor="middle" family="&quot;Comic Sans MS&quot;" size="13px" weight="700" font-style="" opacity="1" y="16.875" transform="rotate(0)"><tspan id="SvgjsTspan1089" dy="16.25" x="50"><tspan id="SvgjsTspan1090" style="">GC Roots</tspan></tspan></text></g></g><g id="SvgjsG1091" transform="translate(170,125)"><path id="SvgjsPath1092" d="M 0 4Q 0 0 4 0L 96 0Q 100 0 100 4L 100 51Q 100 55 96 55L 4 55Q 0 55 0 51Z" stroke="rgba(33,41,48,1)" stroke-width="1.5" fill="url(#SvgjsLinearGradient1093)"></path><g id="SvgjsG1096"><text id="SvgjsText1097" font-family="&quot;Comic Sans MS&quot;" text-anchor="middle" font-size="13px" width="80px" fill="#323232" font-weight="700" align="middle" lineHeight="125%" anchor="middle" family="&quot;Comic Sans MS&quot;" size="13px" weight="700" font-style="" opacity="1" y="16.875" transform="rotate(0)"><tspan id="SvgjsTspan1098" dy="16.25" x="50"><tspan id="SvgjsTspan1099" style="">Object B</tspan></tspan></text></g></g><g id="SvgjsG1100" transform="translate(70,235)"><path id="SvgjsPath1101" d="M 0 4Q 0 0 4 0L 96 0Q 100 0 100 4L 100 51Q 100 55 96 55L 4 55Q 0 55 0 51Z" stroke="rgba(33,41,48,1)" stroke-width="1.5" fill="url(#SvgjsLinearGradient1102)"></path><g id="SvgjsG1105"><text id="SvgjsText1106" font-family="&quot;Comic Sans MS&quot;" text-anchor="middle" font-size="13px" width="80px" fill="#323232" font-weight="700" align="middle" lineHeight="125%" anchor="middle" family="&quot;Comic Sans MS&quot;" size="13px" weight="700" font-style="" opacity="1" y="16.875" transform="rotate(0)"><tspan id="SvgjsTspan1107" dy="16.25" x="50"><tspan id="SvgjsTspan1108" style="">Object C</tspan></tspan></text></g></g><g id="SvgjsG1109" transform="translate(25,125)"><path id="SvgjsPath1110" d="M 0 4Q 0 0 4 0L 96 0Q 100 0 100 4L 100 51Q 100 55 96 55L 4 55Q 0 55 0 51Z" stroke="rgba(33,41,48,1)" stroke-width="1.5" fill="url(#SvgjsLinearGradient1111)"></path><g id="SvgjsG1114"><text id="SvgjsText1115" font-family="&quot;Comic Sans MS&quot;" text-anchor="middle" font-size="13px" width="80px" fill="#323232" font-weight="700" align="middle" lineHeight="125%" anchor="middle" family="&quot;Comic Sans MS&quot;" size="13px" weight="700" font-style="" opacity="1" y="16.875" transform="rotate(0)"><tspan id="SvgjsTspan1116" dy="16.25" x="50"><tspan id="SvgjsTspan1117" style="">Object A</tspan></tspan></text></g></g><g id="SvgjsG1118"><path id="SvgjsPath1119" d="M220 80.75L220 102.5L220 102.5L220 122.30000000000001" stroke="#a6aef3" stroke-width="1.5" fill="none" marker-end="url(#SvgjsMarker1120)"></path></g><g id="SvgjsG1122"><path id="SvgjsPath1123" d="M219.34283806849254 180.3614390623291L122.36578295342696 233.6988193756152" stroke="#a6aef3" stroke-width="1.5" fill="none" marker-end="url(#SvgjsMarker1124)"></path></g><g id="SvgjsG1126"><path id="SvgjsPath1127" d="M220.65716193150746 180.3614390623291L317.63421704657304 233.6988193756152" stroke="#a6aef3" stroke-width="1.5" fill="none" marker-end="url(#SvgjsMarker1128)"></path></g><g id="SvgjsG1130"><path id="SvgjsPath1131" d="M169.26394678355365 52.643964101633C 122.92454122105764 60.80067351195669 75.00000000000003 77.19832638913152 75.27910611216132 122.31446471291957" stroke="#a6aef3" stroke-width="1.5" fill="none" marker-end="url(#SvgjsMarker1132)"></path></g><g id="SvgjsG1134"><path id="SvgjsPath1135" d="M270.72941348250686 52.67451639331952C 362.13219100846914 65.44833502729051 463.0376267969041 262.50000000000006 372.68136231405924 262.1833043405054" stroke-dasharray="7.5,3" stroke="#a6aef3" stroke-width="1.5" fill="none" marker-end="url(#SvgjsMarker1136)"></path></g><g id="SvgjsG1138" transform="translate(270,235)"><path id="SvgjsPath1139" d="M 0 4Q 0 0 4 0L 96 0Q 100 0 100 4L 100 51Q 100 55 96 55L 4 55Q 0 55 0 51Z" stroke="rgba(33,41,48,1)" stroke-width="1.5" fill="url(#SvgjsLinearGradient1140)"></path><g id="SvgjsG1143"><text id="SvgjsText1144" font-family="&quot;Comic Sans MS&quot;" text-anchor="middle" font-size="13px" width="80px" fill="#323232" font-weight="700" align="middle" lineHeight="125%" anchor="middle" family="&quot;Comic Sans MS&quot;" size="13px" weight="700" font-style="" opacity="1" y="16.875" transform="rotate(0)"><tspan id="SvgjsTspan1145" dy="16.25" x="50"><tspan id="SvgjsTspan1146" style="">Object D</tspan></tspan></text></g></g><g id="SvgjsG1147"></g></svg>