<svg id="SvgjsSvg1165" width="833" height="209" xmlns="http://www.w3.org/2000/svg" version="1.1" xmlns:xlink="http://www.w3.org/1999/xlink" xmlns:svgjs="http://svgjs.com/svgjs"><defs id="SvgjsDefs1166"><pattern patternUnits="userSpaceOnUse" id="pattern_mark_0" width="300" height="300"><text x="150" y="100" fill="rgba(229,229,229,0.8)" font-size="18" transform="rotate(-45, 150, 150)" style="dominant-baseline: middle; text-anchor: middle;"></text></pattern><pattern patternUnits="userSpaceOnUse" id="pattern_mark_1" width="300" height="300"><text x="150" y="200" fill="rgba(229,229,229,0.8)" font-size="18" transform="rotate(-45, 150, 150)" style="dominant-baseline: middle; text-anchor: middle;"></text></pattern><marker id="SvgjsMarker1277" markerWidth="16" markerHeight="16" refX="3" refY="8" viewBox="0 0 16 16" orient="auto" markerUnits="userSpaceOnUse" stroke-dasharray="0,0"><circle id="SvgjsCircle1278" r="4" cx="8" cy="8" fill="#323232" stroke="#323232" stroke-width="1.5"></circle></marker><marker id="SvgjsMarker1279" markerWidth="13" markerHeight="9" refX="9.5" refY="4.5" viewBox="0 0 13 9" orient="auto" markerUnits="userSpaceOnUse" stroke-dasharray="0,0"><path id="SvgjsPath1280" d="M0,0 L13,4.5 L0,9 L0,0" fill="#323232" stroke="#323232" stroke-width="1"></path></marker><marker id="SvgjsMarker1283" markerWidth="16" markerHeight="16" refX="3" refY="8" viewBox="0 0 16 16" orient="auto" markerUnits="userSpaceOnUse" stroke-dasharray="0,0"><circle id="SvgjsCircle1284" r="4" cx="8" cy="8" fill="#323232" stroke="#323232" stroke-width="1.5"></circle></marker><marker id="SvgjsMarker1285" markerWidth="13" markerHeight="9" refX="9.5" refY="4.5" viewBox="0 0 13 9" orient="auto" markerUnits="userSpaceOnUse" stroke-dasharray="0,0"><path id="SvgjsPath1286" d="M0,0 L13,4.5 L0,9 L0,0" fill="#323232" stroke="#323232" stroke-width="1"></path></marker></defs><rect id="svgbackgroundid" width="833" height="209" fill="transparent"></rect><rect id="SvgjsRect1168" width="833" height="209" fill="url(#pattern_mark_0)"></rect><rect id="SvgjsRect1169" width="833" height="209" fill="url(#pattern_mark_1)"></rect><g id="SvgjsG1170" transform="translate(198.00000000000003,46)"><path id="SvgjsPath1171" d="M0 0L82 0L82 20 L0 20Z" stroke="rgba(102, 102, 102,1)" stroke-width="1" fill-opacity="1" fill="#cce2fe"></path><path id="SvgjsPath1172" d="M82 0L164 0L164 20 L82 20Z" stroke="rgba(102, 102, 102,1)" stroke-width="1" fill-opacity="1" fill="#cce2fe"></path><path id="SvgjsPath1173" d="M164 0L246 0L246 20 L164 20Z" stroke="rgba(102, 102, 102,1)" stroke-width="1" fill-opacity="1" fill="#cce2fe"></path><path id="SvgjsPath1174" d="M246 0L328 0L328 20 L246 20Z" stroke="rgba(102, 102, 102,1)" stroke-width="1" fill-opacity="1" fill="#cce2fe"></path><path id="SvgjsPath1175" d="M328 0L410 0L410 20 L328 20Z" stroke="rgba(102, 102, 102,1)" stroke-width="1" fill-opacity="1" fill="#cce2fe"></path><g id="SvgjsG1176"><text id="SvgjsText1177" font-family="&quot;Microsoft YaHei&quot;, 微软雅黑, Arial" text-anchor="middle" font-size="16px" width="82px" fill="#323232" font-weight="400" align="middle" lineHeight="125%" anchor="middle" family="&quot;Microsoft YaHei&quot;, 微软雅黑, Arial" size="16px" weight="400" font-style="" opacity="1" y="-4" transform="rotate(0)"><tspan id="SvgjsTspan1178" dy="20" x="41"><tspan id="SvgjsTspan1179" style="">1</tspan></tspan></text></g><g id="SvgjsG1180"><text id="SvgjsText1181" font-family="&quot;Microsoft YaHei&quot;, 微软雅黑, Arial" text-anchor="middle" font-size="16px" width="82px" fill="#323232" font-weight="400" align="middle" lineHeight="125%" anchor="middle" family="&quot;Microsoft YaHei&quot;, 微软雅黑, Arial" size="16px" weight="400" font-style="" opacity="1" y="-4" transform="rotate(0)"><tspan id="SvgjsTspan1182" dy="20" x="123"><tspan id="SvgjsTspan1183" style="">'王五'</tspan></tspan></text></g><g id="SvgjsG1184"><text id="SvgjsText1185" font-family="&quot;Microsoft YaHei&quot;, 微软雅黑, Arial" text-anchor="middle" font-size="16px" width="82px" fill="#323232" font-weight="400" align="middle" lineHeight="125%" anchor="middle" family="&quot;Microsoft YaHei&quot;, 微软雅黑, Arial" size="16px" weight="400" font-style="" opacity="1" y="-4" transform="rotate(0)"><tspan id="SvgjsTspan1186" dy="20" x="205"><tspan id="SvgjsTspan1187" style="">'一班'</tspan></tspan></text></g><g id="SvgjsG1188"><text id="SvgjsText1189" font-family="&quot;Microsoft YaHei&quot;, 微软雅黑, Arial" text-anchor="middle" font-size="16px" width="82px" fill="#323232" font-weight="400" align="middle" lineHeight="125%" anchor="middle" family="&quot;Microsoft YaHei&quot;, 微软雅黑, Arial" size="16px" weight="400" font-style="" opacity="1" y="-4" transform="rotate(0)"><tspan id="SvgjsTspan1190" dy="20" x="287"><tspan id="SvgjsTspan1191" style="">20</tspan></tspan></text></g><g id="SvgjsG1192"><text id="SvgjsText1193" font-family="&quot;Microsoft YaHei&quot;, 微软雅黑, Arial" text-anchor="middle" font-size="16px" width="82px" fill="#323232" font-weight="400" align="middle" lineHeight="125%" anchor="middle" family="&quot;Microsoft YaHei&quot;, 微软雅黑, Arial" size="16px" weight="400" font-style="" opacity="1" y="-4" transform="rotate(0)"></text></g></g><g id="SvgjsG1194" transform="translate(198.00000000000003,25)"><path id="SvgjsPath1195" d="M0 0L82 0L82 20 L0 20Z" stroke="none" fill="none"></path><path id="SvgjsPath1196" d="M82 0L164 0L164 20 L82 20Z" stroke="none" fill="none"></path><path id="SvgjsPath1197" d="M164 0L246 0L246 20 L164 20Z" stroke="none" fill="none"></path><path id="SvgjsPath1198" d="M246 0L328 0L328 20 L246 20Z" stroke="none" fill="none"></path><path id="SvgjsPath1199" d="M328 0L410 0L410 20 L328 20Z" stroke="none" fill="none"></path><g id="SvgjsG1200"><text id="SvgjsText1201" font-family="&quot;Microsoft YaHei&quot;, 微软雅黑, Arial" text-anchor="middle" font-size="16px" width="82px" fill="#323232" font-weight="400" align="middle" lineHeight="125%" anchor="middle" family="&quot;Microsoft YaHei&quot;, 微软雅黑, Arial" size="16px" weight="400" font-style="" opacity="1" y="-4" transform="rotate(0)"><tspan id="SvgjsTspan1202" dy="20" x="41"><tspan id="SvgjsTspan1203" style="">id</tspan></tspan></text></g><g id="SvgjsG1204"><text id="SvgjsText1205" font-family="&quot;Microsoft YaHei&quot;, 微软雅黑, Arial" text-anchor="middle" font-size="16px" width="82px" fill="#323232" font-weight="400" align="middle" lineHeight="125%" anchor="middle" family="&quot;Microsoft YaHei&quot;, 微软雅黑, Arial" size="16px" weight="400" font-style="" opacity="1" y="-4" transform="rotate(0)"><tspan id="SvgjsTspan1206" dy="20" x="123"><tspan id="SvgjsTspan1207" style="">name</tspan></tspan></text></g><g id="SvgjsG1208"><text id="SvgjsText1209" font-family="&quot;Microsoft YaHei&quot;, 微软雅黑, Arial" text-anchor="middle" font-size="16px" width="82px" fill="#323232" font-weight="400" align="middle" lineHeight="125%" anchor="middle" family="&quot;Microsoft YaHei&quot;, 微软雅黑, Arial" size="16px" weight="400" font-style="" opacity="1" y="-4" transform="rotate(0)"><tspan id="SvgjsTspan1210" dy="20" x="205"><tspan id="SvgjsTspan1211" style="">class</tspan></tspan></text></g><g id="SvgjsG1212"><text id="SvgjsText1213" font-family="&quot;Microsoft YaHei&quot;, 微软雅黑, Arial" text-anchor="middle" font-size="16px" width="82px" fill="#323232" font-weight="400" align="middle" lineHeight="125%" anchor="middle" family="&quot;Microsoft YaHei&quot;, 微软雅黑, Arial" size="16px" weight="400" font-style="" opacity="1" y="-4" transform="rotate(0)"><tspan id="SvgjsTspan1214" dy="20" x="287"><tspan id="SvgjsTspan1215" style="">trx_id</tspan></tspan></text></g><g id="SvgjsG1216"><text id="SvgjsText1217" font-family="&quot;Microsoft YaHei&quot;, 微软雅黑, Arial" text-anchor="middle" font-size="16px" width="82px" fill="#323232" font-weight="400" align="middle" lineHeight="125%" anchor="middle" family="&quot;Microsoft YaHei&quot;, 微软雅黑, Arial" size="16px" weight="400" font-style="" opacity="1" y="-4" transform="rotate(0)"><tspan id="SvgjsTspan1218" dy="20" x="369"><tspan id="SvgjsTspan1219" style="">roll_pointer</tspan></tspan></text></g></g><g id="SvgjsG1220" transform="translate(198.00000000000003,104)"><path id="SvgjsPath1221" d="M0 0L82 0L82 20 L0 20Z" stroke="rgba(102, 102, 102,1)" stroke-width="1" fill-opacity="1" fill="#d7e6d2"></path><path id="SvgjsPath1222" d="M82 0L164 0L164 20 L82 20Z" stroke="rgba(102, 102, 102,1)" stroke-width="1" fill-opacity="1" fill="#d7e6d2"></path><path id="SvgjsPath1223" d="M164 0L246 0L246 20 L164 20Z" stroke="rgba(102, 102, 102,1)" stroke-width="1" fill-opacity="1" fill="#d7e6d2"></path><path id="SvgjsPath1224" d="M246 0L328 0L328 20 L246 20Z" stroke="rgba(102, 102, 102,1)" stroke-width="1" fill-opacity="1" fill="#d7e6d2"></path><path id="SvgjsPath1225" d="M328 0L410 0L410 20 L328 20Z" stroke="rgba(102, 102, 102,1)" stroke-width="1" fill-opacity="1" fill="#d7e6d2"></path><g id="SvgjsG1226"><text id="SvgjsText1227" font-family="&quot;Microsoft YaHei&quot;, 微软雅黑, Arial" text-anchor="middle" font-size="16px" width="82px" fill="#323232" font-weight="400" align="middle" lineHeight="125%" anchor="middle" family="&quot;Microsoft YaHei&quot;, 微软雅黑, Arial" size="16px" weight="400" font-style="" opacity="1" y="-4" transform="rotate(0)"><tspan id="SvgjsTspan1228" dy="20" x="41"><tspan id="SvgjsTspan1229" style="">1</tspan></tspan></text></g><g id="SvgjsG1230"><text id="SvgjsText1231" font-family="&quot;Microsoft YaHei&quot;, 微软雅黑, Arial" text-anchor="middle" font-size="16px" width="82px" fill="#323232" font-weight="400" align="middle" lineHeight="125%" anchor="middle" family="&quot;Microsoft YaHei&quot;, 微软雅黑, Arial" size="16px" weight="400" font-style="" opacity="1" y="-4" transform="rotate(0)"><tspan id="SvgjsTspan1232" dy="20" x="123"><tspan id="SvgjsTspan1233" style="">'李四'</tspan></tspan></text></g><g id="SvgjsG1234"><text id="SvgjsText1235" font-family="&quot;Microsoft YaHei&quot;, 微软雅黑, Arial" text-anchor="middle" font-size="16px" width="82px" fill="#323232" font-weight="400" align="middle" lineHeight="125%" anchor="middle" family="&quot;Microsoft YaHei&quot;, 微软雅黑, Arial" size="16px" weight="400" font-style="" opacity="1" y="-4" transform="rotate(0)"><tspan id="SvgjsTspan1236" dy="20" x="205"><tspan id="SvgjsTspan1237" style="">'一班'</tspan></tspan></text></g><g id="SvgjsG1238"><text id="SvgjsText1239" font-family="&quot;Microsoft YaHei&quot;, 微软雅黑, Arial" text-anchor="middle" font-size="16px" width="82px" fill="#323232" font-weight="400" align="middle" lineHeight="125%" anchor="middle" family="&quot;Microsoft YaHei&quot;, 微软雅黑, Arial" size="16px" weight="400" font-style="" opacity="1" y="-4" transform="rotate(0)"><tspan id="SvgjsTspan1240" dy="20" x="287"><tspan id="SvgjsTspan1241" style="">20</tspan></tspan></text></g><g id="SvgjsG1242"><text id="SvgjsText1243" font-family="&quot;Microsoft YaHei&quot;, 微软雅黑, Arial" text-anchor="middle" font-size="16px" width="82px" fill="#323232" font-weight="400" align="middle" lineHeight="125%" anchor="middle" family="&quot;Microsoft YaHei&quot;, 微软雅黑, Arial" size="16px" weight="400" font-style="" opacity="1" y="-4" transform="rotate(0)"></text></g></g><g id="SvgjsG1244" transform="translate(198.00000000000003,162)"><path id="SvgjsPath1245" d="M0 0L82 0L82 20 L0 20Z" stroke="rgba(102, 102, 102,1)" stroke-width="1" fill-opacity="1" fill="#d7e6d2"></path><path id="SvgjsPath1246" d="M82 0L164 0L164 20 L82 20Z" stroke="rgba(102, 102, 102,1)" stroke-width="1" fill-opacity="1" fill="#d7e6d2"></path><path id="SvgjsPath1247" d="M164 0L246 0L246 20 L164 20Z" stroke="rgba(102, 102, 102,1)" stroke-width="1" fill-opacity="1" fill="#d7e6d2"></path><path id="SvgjsPath1248" d="M246 0L328 0L328 20 L246 20Z" stroke="rgba(102, 102, 102,1)" stroke-width="1" fill-opacity="1" fill="#d7e6d2"></path><path id="SvgjsPath1249" d="M328 0L410 0L410 20 L328 20Z" stroke="rgba(102, 102, 102,1)" stroke-width="1" fill-opacity="1" fill="#d7e6d2"></path><g id="SvgjsG1250"><text id="SvgjsText1251" font-family="&quot;Microsoft YaHei&quot;, 微软雅黑, Arial" text-anchor="middle" font-size="16px" width="82px" fill="#323232" font-weight="400" align="middle" lineHeight="125%" anchor="middle" family="&quot;Microsoft YaHei&quot;, 微软雅黑, Arial" size="16px" weight="400" font-style="" opacity="1" y="-4" transform="rotate(0)"><tspan id="SvgjsTspan1252" dy="20" x="41"><tspan id="SvgjsTspan1253" style="">1</tspan></tspan></text></g><g id="SvgjsG1254"><text id="SvgjsText1255" font-family="&quot;Microsoft YaHei&quot;, 微软雅黑, Arial" text-anchor="middle" font-size="16px" width="82px" fill="#323232" font-weight="400" align="middle" lineHeight="125%" anchor="middle" family="&quot;Microsoft YaHei&quot;, 微软雅黑, Arial" size="16px" weight="400" font-style="" opacity="1" y="-4" transform="rotate(0)"><tspan id="SvgjsTspan1256" dy="20" x="123"><tspan id="SvgjsTspan1257" style="">'张三'</tspan></tspan></text></g><g id="SvgjsG1258"><text id="SvgjsText1259" font-family="&quot;Microsoft YaHei&quot;, 微软雅黑, Arial" text-anchor="middle" font-size="16px" width="82px" fill="#323232" font-weight="400" align="middle" lineHeight="125%" anchor="middle" family="&quot;Microsoft YaHei&quot;, 微软雅黑, Arial" size="16px" weight="400" font-style="" opacity="1" y="-4" transform="rotate(0)"><tspan id="SvgjsTspan1260" dy="20" x="205"><tspan id="SvgjsTspan1261" style="">'一班'</tspan></tspan></text></g><g id="SvgjsG1262"><text id="SvgjsText1263" font-family="&quot;Microsoft YaHei&quot;, 微软雅黑, Arial" text-anchor="middle" font-size="16px" width="82px" fill="#323232" font-weight="400" align="middle" lineHeight="125%" anchor="middle" family="&quot;Microsoft YaHei&quot;, 微软雅黑, Arial" size="16px" weight="400" font-style="" opacity="1" y="-4" transform="rotate(0)"><tspan id="SvgjsTspan1264" dy="20" x="287"><tspan id="SvgjsTspan1265" style="">10</tspan></tspan></text></g><g id="SvgjsG1266"><text id="SvgjsText1267" font-family="&quot;Microsoft YaHei&quot;, 微软雅黑, Arial" text-anchor="middle" font-size="16px" width="82px" fill="#323232" font-weight="400" align="middle" lineHeight="125%" anchor="middle" family="&quot;Microsoft YaHei&quot;, 微软雅黑, Arial" size="16px" weight="400" font-style="" opacity="1" y="-4" transform="rotate(0)"><tspan id="SvgjsTspan1268" dy="20" x="369"><tspan id="SvgjsTspan1269" style="">●</tspan></tspan></text></g></g><g id="SvgjsG1270" transform="translate(628,46)"><path id="SvgjsPath1271" d="M 0 136Q 9 136 9 127L 9 77Q 9 68 22 68Q 9 68 9 59L 9 9Q 9 0 0 0" stroke="rgba(33,41,48,1)" stroke-width="1.5" fill="none"></path><path id="SvgjsPath1272" d="M 0 0L 120 0L 120 136L 0 136Z" stroke="none" fill="none"></path><g id="SvgjsG1273"><text id="SvgjsText1274" font-family="&quot;Microsoft YaHei&quot;, 微软雅黑, Arial" text-anchor="start" font-size="13px" width="93px" fill="#323232" font-weight="400" align="middle" lineHeight="125%" anchor="start" family="&quot;Microsoft YaHei&quot;, 微软雅黑, Arial" size="13px" weight="400" font-style="" opacity="1" y="57.375" transform="rotate(0)"></text></g></g><g id="SvgjsG1275"><path id="SvgjsPath1276" d="M565 53L565 86L177.00000000000003 86L177.00000000000003 114L195.55000000000004 114" stroke="#323232" stroke-width="1.5" fill="none" marker-start="url(#SvgjsMarker1277)" marker-end="url(#SvgjsMarker1279)"></path></g><g id="SvgjsG1281"><path id="SvgjsPath1282" d="M566 112L566 145L177.00000000000003 145L177.00000000000003 172L195.55000000000004 172" stroke="#323232" stroke-width="1.5" fill="none" marker-start="url(#SvgjsMarker1283)" marker-end="url(#SvgjsMarker1285)"></path></g><g id="SvgjsG1287" transform="translate(42.00000000000002,34)"><path id="SvgjsPath1288" d="M 120 0Q 111 0 111 3.2L 111 12.8Q 111 16 98 16Q 111 16 111 19.2L 111 28.8Q 111 32 120 32" stroke="rgba(33,41,48,1)" stroke-width="1.5" fill="none"></path><path id="SvgjsPath1289" d="M 0 0L 120 0L 120 32L 0 32Z" stroke="none" fill="none"></path><g id="SvgjsG1290"><text id="SvgjsText1291" font-family="&quot;Microsoft YaHei&quot;, 微软雅黑, Arial" text-anchor="end" font-size="13px" width="93px" fill="#323232" font-weight="400" align="middle" lineHeight="125%" anchor="end" family="&quot;Microsoft YaHei&quot;, 微软雅黑, Arial" size="13px" weight="400" font-style="" opacity="1" y="5.375" transform="rotate(0)"></text></g></g><g id="SvgjsG1292" transform="translate(38.00000000000002,104)"><path id="SvgjsPath1293" d="M 120 0Q 111 0 111 7.800000000000001L 111 31.2Q 111 39 98 39Q 111 39 111 46.8L 111 70.2Q 111 78 120 78" stroke="rgba(33,41,48,1)" stroke-width="1.5" fill="none"></path><path id="SvgjsPath1294" d="M 0 0L 120 0L 120 78L 0 78Z" stroke="none" fill="none"></path><g id="SvgjsG1295"><text id="SvgjsText1296" font-family="&quot;Microsoft YaHei&quot;, 微软雅黑, Arial" text-anchor="end" font-size="13px" width="93px" fill="#323232" font-weight="400" align="middle" lineHeight="125%" anchor="end" family="&quot;Microsoft YaHei&quot;, 微软雅黑, Arial" size="13px" weight="400" font-style="" opacity="1" y="28.375" transform="rotate(0)"></text></g></g><g id="SvgjsG1297" transform="translate(660,64)"><path id="SvgjsPath1298" d="M 0 22C 0 -7.333333333333333 148 -7.333333333333333 148 22Q 145.04 43.12 74 44Q 49.333333333333336 44 24.666666666666668 39.6L 0 44L 17.316000000000003 37.708Q 0 30.799999999999997 0 22" stroke="rgba(33,41,48,1)" stroke-width="1.5" fill-opacity="1" fill="#f8e3b9"></path><g id="SvgjsG1299"><text id="SvgjsText1300" font-family="&quot;Microsoft YaHei&quot;, 微软雅黑, Arial" text-anchor="middle" font-size="13px" width="128px" fill="#323232" font-weight="400" align="middle" lineHeight="125%" anchor="middle" family="&quot;Microsoft YaHei&quot;, 微软雅黑, Arial" size="13px" weight="400" font-style="" opacity="1" y="11.375" transform="rotate(0)"><tspan id="SvgjsTspan1301" dy="16.25" x="74"><tspan id="SvgjsTspan1302" style="">串成了一个版本链</tspan></tspan></text></g></g><g id="SvgjsG1303" transform="matrix(-1,1.2246467991473532e-16,-1.2246467991473532e-16,-1,131,184)"><path id="SvgjsPath1304" d="M 0 20.5C 0 -6.833333333333333 106 -6.833333333333333 106 20.5Q 103.88 40.18 53 41Q 35.333333333333336 41 17.666666666666668 36.9L 0 41L 12.402000000000001 35.137Q 0 28.7 0 20.5" stroke="rgba(33,41,48,1)" stroke-width="1.5" fill-opacity="1" fill="#f8e3b9"></path><g id="SvgjsG1305"><text id="SvgjsText1306" font-family="&quot;Microsoft YaHei&quot;, 微软雅黑, Arial" text-anchor="middle" font-size="13px" width="86px" fill="#323232" font-weight="400" align="middle" lineHeight="125%" anchor="middle" family="&quot;Microsoft YaHei&quot;, 微软雅黑, Arial" size="13px" weight="400" font-style="" opacity="1" y="9.875" transform="rotate(0)"></text></g></g><g id="SvgjsG1307" transform="translate(28.00000000000002,143)"><path id="SvgjsPath1308" d="M 0 0L 100 0L 100 40L 0 40Z" stroke="none" fill="none"></path><g id="SvgjsG1309"><text id="SvgjsText1310" font-family="&quot;Microsoft YaHei&quot;, 微软雅黑, Arial" text-anchor="middle" font-size="13px" width="100px" fill="#323232" font-weight="400" align="middle" lineHeight="125%" anchor="middle" family="&quot;Microsoft YaHei&quot;, 微软雅黑, Arial" size="13px" weight="400" font-style="" opacity="1" y="9.375" transform="rotate(0)"><tspan id="SvgjsTspan1311" dy="16.25" x="50"><tspan id="SvgjsTspan1312" style="">这些是undo日志</tspan></tspan></text></g></g><g id="SvgjsG1313" transform="matrix(-1,1.2246467991473532e-16,-1.2246467991473532e-16,-1,134,92)"><path id="SvgjsPath1314" d="M 0 20.5C 0 -6.833333333333333 106 -6.833333333333333 106 20.5Q 103.88 40.18 53 41Q 35.333333333333336 41 17.666666666666668 36.9L 0 41L 12.402000000000001 35.137Q 0 28.7 0 20.5" stroke="rgba(33,41,48,1)" stroke-width="1.5" fill-opacity="1" fill="#f8e3b9"></path><g id="SvgjsG1315"><text id="SvgjsText1316" font-family="&quot;Microsoft YaHei&quot;, 微软雅黑, Arial" text-anchor="middle" font-size="13px" width="86px" fill="#323232" font-weight="400" align="middle" lineHeight="125%" anchor="middle" family="&quot;Microsoft YaHei&quot;, 微软雅黑, Arial" size="13px" weight="400" font-style="" opacity="1" y="9.875" transform="rotate(0)"></text></g></g><g id="SvgjsG1317" transform="translate(31.00000000000002,51)"><path id="SvgjsPath1318" d="M 0 0L 100 0L 100 40L 0 40Z" stroke="none" fill="none"></path><g id="SvgjsG1319"><text id="SvgjsText1320" font-family="&quot;Microsoft YaHei&quot;, 微软雅黑, Arial" text-anchor="middle" font-size="13px" width="100px" fill="#323232" font-weight="400" align="middle" lineHeight="125%" anchor="middle" family="&quot;Microsoft YaHei&quot;, 微软雅黑, Arial" size="13px" weight="400" font-style="" opacity="1" y="0.875" transform="rotate(0)"><tspan id="SvgjsTspan1321" dy="16.25" x="50"><tspan id="SvgjsTspan1322" style="">这个是页面</tspan></tspan><tspan id="SvgjsTspan1323" dy="16.25" x="50"><tspan id="SvgjsTspan1324" style="">中的记录</tspan></tspan></text></g></g><g id="SvgjsG1325"></g></svg>