<svg id="SvgjsSvg1172" width="629.25" height="466" xmlns="http://www.w3.org/2000/svg" version="1.1" xmlns:xlink="http://www.w3.org/1999/xlink" xmlns:svgjs="http://svgjs.com/svgjs"><defs id="SvgjsDefs1173"><pattern patternUnits="userSpaceOnUse" id="pattern_mark_0" width="300" height="300"><text x="150" y="100" fill="rgba(229,229,229,0.8)" font-size="18" transform="rotate(-45, 150, 150)" style="dominant-baseline: middle; text-anchor: middle;"></text></pattern><pattern patternUnits="userSpaceOnUse" id="pattern_mark_1" width="300" height="300"><text x="150" y="200" fill="rgba(229,229,229,0.8)" font-size="18" transform="rotate(-45, 150, 150)" style="dominant-baseline: middle; text-anchor: middle;"></text></pattern></defs><rect id="svgbackgroundid" width="629.25" height="466" fill="transparent"></rect><rect id="SvgjsRect1175" width="629.25" height="466" fill="url(#pattern_mark_0)"></rect><rect id="SvgjsRect1176" width="629.25" height="466" fill="url(#pattern_mark_1)"></rect><g id="SvgjsG1177" transform="translate(26.25,164.5)"><path id="SvgjsPath1178" d="M 0 4Q 0 0 4 0L 494 0Q 498 0 498 4L 498 164Q 498 168 494 168L 4 168Q 0 168 0 164Z" stroke="none" fill-opacity="1" fill="#f9d7ce"></path><g id="SvgjsG1179"><text id="SvgjsText1180" font-family="&quot;Microsoft YaHei&quot;, 微软雅黑, Arial" text-anchor="middle" font-size="13px" width="478px" fill="#cf5d4e" font-weight="400" align="middle" lineHeight="125%" anchor="middle" family="&quot;Microsoft YaHei&quot;, 微软雅黑, Arial" size="13px" weight="400" font-style="" opacity="1" y="-0.125" transform="rotate(0)"><tspan id="SvgjsTspan1181" dy="16.25" x="249"><tspan id="SvgjsTspan1182" style="">运行时数据区(Runtime Data Area)</tspan></tspan><tspan id="SvgjsTspan1183" dy="16.25" x="249"><tspan id="SvgjsTspan1184" style=""> </tspan></tspan><tspan id="SvgjsTspan1185" dy="16.25" x="249"><tspan id="SvgjsTspan1186" style=""> </tspan></tspan><tspan id="SvgjsTspan1187" dy="16.25" x="249"><tspan id="SvgjsTspan1188" style=""> </tspan></tspan><tspan id="SvgjsTspan1189" dy="16.25" x="249"><tspan id="SvgjsTspan1190" style=""> </tspan></tspan><tspan id="SvgjsTspan1191" dy="16.25" x="249"><tspan id="SvgjsTspan1192" style=""> </tspan></tspan><tspan id="SvgjsTspan1193" dy="16.25" x="249"><tspan id="SvgjsTspan1194" style=""> </tspan></tspan><tspan id="SvgjsTspan1195" dy="16.25" x="249"><tspan id="SvgjsTspan1196" style=""> </tspan></tspan><tspan id="SvgjsTspan1197" dy="16.25" x="249"><tspan id="SvgjsTspan1198" style=""> </tspan></tspan><tspan id="SvgjsTspan1199" dy="16.25" x="249"><tspan id="SvgjsTspan1200" style=""> </tspan></tspan></text></g></g><g id="SvgjsG1201" transform="translate(171.25,57)"><path id="SvgjsPath1202" d="M 0 51L 0 0L 48 0L 48 51Q 36 43 24 51Q 12 59 0 51Z" stroke="rgba(138,118,170,1)" stroke-width="1.5" fill-opacity="1" fill="#ffffff"></path><g id="SvgjsG1203"><text id="SvgjsText1204" font-family="&quot;Microsoft YaHei&quot;, 微软雅黑, Arial" text-anchor="middle" font-size="13px" width="48px" fill="#323232" font-weight="400" align="middle" lineHeight="125%" anchor="middle" family="&quot;Microsoft YaHei&quot;, 微软雅黑, Arial" size="13px" weight="400" font-style="" opacity="1" y="14.125" transform="rotate(0)"></text></g></g><g id="SvgjsG1205" transform="translate(167.25,61)"><path id="SvgjsPath1206" d="M 0 51L 0 0L 48 0L 48 51Q 36 43 24 51Q 12 59 0 51Z" stroke="rgba(138,118,170,1)" stroke-width="1.5" fill-opacity="1" fill="#ffffff"></path><g id="SvgjsG1207"><text id="SvgjsText1208" font-family="&quot;Microsoft YaHei&quot;, 微软雅黑, Arial" text-anchor="middle" font-size="13px" width="48px" fill="#323232" font-weight="400" align="middle" lineHeight="125%" anchor="middle" family="&quot;Microsoft YaHei&quot;, 微软雅黑, Arial" size="13px" weight="400" font-style="" opacity="1" y="14.125" transform="rotate(0)"></text></g></g><g id="SvgjsG1209" transform="translate(162.25,66)"><path id="SvgjsPath1210" d="M 0 51L 0 0L 48 0L 48 51Q 36 43 24 51Q 12 59 0 51Z" stroke="rgba(138,118,170,1)" stroke-width="1.5" fill-opacity="1" fill="#ffffff"></path><g id="SvgjsG1211"><text id="SvgjsText1212" font-family="&quot;Microsoft YaHei&quot;, 微软雅黑, Arial" text-anchor="middle" font-size="13px" width="48px" fill="#323232" font-weight="400" align="middle" lineHeight="125%" anchor="middle" family="&quot;Microsoft YaHei&quot;, 微软雅黑, Arial" size="13px" weight="400" font-style="" opacity="1" y="14.125" transform="rotate(0)"></text></g></g><g id="SvgjsG1213" transform="translate(140.75,25)"><path id="SvgjsPath1214" d="M 0 0L 100 0L 100 40L 0 40Z" stroke="none" fill="none"></path><g id="SvgjsG1215"><text id="SvgjsText1216" font-family="&quot;Microsoft YaHei&quot;, 微软雅黑, Arial" text-anchor="middle" font-size="13px" width="100px" fill="#323232" font-weight="400" align="middle" lineHeight="125%" anchor="middle" family="&quot;Microsoft YaHei&quot;, 微软雅黑, Arial" size="13px" weight="400" font-style="" opacity="1" y="9.375" transform="rotate(0)"><tspan id="SvgjsTspan1217" dy="16.25" x="50"><tspan id="SvgjsTspan1218" style="">Class files</tspan></tspan></text></g></g><g id="SvgjsG1219" transform="translate(292.25,56)"><path id="SvgjsPath1220" d="M 0 4Q 0 0 4 0L 146 0Q 150 0 150 4L 150 46Q 150 50 146 50L 4 50Q 0 50 0 46Z" stroke="none" fill-opacity="1" fill="#f9f630"></path><g id="SvgjsG1221"><text id="SvgjsText1222" font-family="&quot;Microsoft YaHei&quot;, 微软雅黑, Arial" text-anchor="middle" font-size="13px" width="130px" fill="#000000" font-weight="400" align="middle" lineHeight="125%" anchor="middle" family="&quot;Microsoft YaHei&quot;, 微软雅黑, Arial" size="13px" weight="400" font-style="" opacity="1" y="5.875" transform="rotate(0)"><tspan id="SvgjsTspan1223" dy="16.25" x="75"><tspan id="SvgjsTspan1224" style="">类装载器子系统</tspan></tspan><tspan id="SvgjsTspan1225" dy="16.25" x="75"><tspan id="SvgjsTspan1226" style="">Class loader</tspan></tspan></text></g></g><g id="SvgjsG1227" transform="translate(37,391)"><path id="SvgjsPath1228" d="M 0 4Q 0 0 4 0L 125.5 0Q 129.5 0 129.5 4L 129.5 46Q 129.5 50 125.5 50L 4 50Q 0 50 0 46Z" stroke="none" fill-opacity="1" fill="#f45dff"></path><g id="SvgjsG1229"><text id="SvgjsText1230" font-family="&quot;Microsoft YaHei&quot;, 微软雅黑, Arial" text-anchor="middle" font-size="13px" width="110px" fill="#ffffff" font-weight="400" align="middle" lineHeight="125%" anchor="middle" family="&quot;Microsoft YaHei&quot;, 微软雅黑, Arial" size="13px" weight="400" font-style="" opacity="1" y="5.875" transform="rotate(0)"><tspan id="SvgjsTspan1231" dy="16.25" x="65"><tspan id="SvgjsTspan1232" style="">执行引擎</tspan></tspan><tspan id="SvgjsTspan1233" dy="16.25" x="65"><tspan id="SvgjsTspan1234" style="">Execution Engine</tspan></tspan></text></g></g><g id="SvgjsG1235" transform="translate(270.75,391)"><path id="SvgjsPath1236" d="M 0 4Q 0 0 4 0L 146 0Q 150 0 150 4L 150 46Q 150 50 146 50L 4 50Q 0 50 0 46Z" stroke-dasharray="7.5,3" stroke="rgba(87,131,165,1)" stroke-width="1.5" fill-opacity="1" fill="#ffffff"></path><g id="SvgjsG1237"><text id="SvgjsText1238" font-family="&quot;Microsoft YaHei&quot;, 微软雅黑, Arial" text-anchor="middle" font-size="13px" width="130px" fill="#000000" font-weight="400" align="middle" lineHeight="125%" anchor="middle" family="&quot;Microsoft YaHei&quot;, 微软雅黑, Arial" size="13px" weight="400" font-style="" opacity="1" y="5.875" transform="rotate(0)"><tspan id="SvgjsTspan1239" dy="16.25" x="75"><tspan id="SvgjsTspan1240" style="">本地方法接口</tspan></tspan><tspan id="SvgjsTspan1241" dy="16.25" x="75"><tspan id="SvgjsTspan1242" style="">Native Interface</tspan></tspan></text></g></g><g id="SvgjsG1243" transform="translate(53.75,186.5)"><path id="SvgjsPath1244" d="M 0 0L 96 0L 96 54L 0 54Z" stroke="none" fill-opacity="1" fill="#ef5135"></path><g id="SvgjsG1245"><text id="SvgjsText1246" font-family="&quot;Microsoft YaHei&quot;, 微软雅黑, Arial" text-anchor="middle" font-size="13px" width="76px" fill="#323232" font-weight="400" align="middle" lineHeight="125%" anchor="middle" family="&quot;Microsoft YaHei&quot;, 微软雅黑, Arial" size="13px" weight="400" font-style="" opacity="1" y="7.875" transform="rotate(0)"><tspan id="SvgjsTspan1247" dy="16.25" x="48"><tspan id="SvgjsTspan1248" style="">方法区</tspan></tspan><tspan id="SvgjsTspan1249" dy="16.25" x="48"><tspan id="SvgjsTspan1250" style="">Method Area</tspan></tspan></text></g></g><g id="SvgjsG1251" transform="translate(53.75,260.25)"><path id="SvgjsPath1252" d="M 0 0L 96 0L 96 54L 0 54Z" stroke="none" fill-opacity="1" fill="#ef5135"></path><g id="SvgjsG1253"><text id="SvgjsText1254" font-family="&quot;Microsoft YaHei&quot;, 微软雅黑, Arial" text-anchor="middle" font-size="13px" width="76px" fill="#323232" font-weight="400" align="middle" lineHeight="125%" anchor="middle" family="&quot;Microsoft YaHei&quot;, 微软雅黑, Arial" size="13px" weight="400" font-style="" opacity="1" y="7.875" transform="rotate(0)"><tspan id="SvgjsTspan1255" dy="16.25" x="48"><tspan id="SvgjsTspan1256" style="">堆</tspan></tspan><tspan id="SvgjsTspan1257" dy="16.25" x="48"><tspan id="SvgjsTspan1258" style="">heap</tspan></tspan></text></g></g><g id="SvgjsG1259" transform="translate(169.25,186.5)"><path id="SvgjsPath1260" d="M 0 0L 177 0L 177 54L 0 54Z" stroke="rgba(33,41,48,1)" stroke-width="1.5" fill-opacity="1" fill="#d2d5d2"></path><g id="SvgjsG1261"><text id="SvgjsText1262" font-family="&quot;Microsoft YaHei&quot;, 微软雅黑, Arial" text-anchor="middle" font-size="13px" width="157px" fill="#323232" font-weight="400" align="middle" lineHeight="125%" anchor="middle" family="&quot;Microsoft YaHei&quot;, 微软雅黑, Arial" size="13px" weight="400" font-style="" opacity="1" y="7.875" transform="rotate(0)"><tspan id="SvgjsTspan1263" dy="16.25" x="88.5"><tspan id="SvgjsTspan1264" style="">程序计数器</tspan></tspan><tspan id="SvgjsTspan1265" dy="16.25" x="88.5"><tspan id="SvgjsTspan1266" style="">Program Counter Register</tspan></tspan></text></g></g><g id="SvgjsG1267" transform="translate(365.75,186.5)"><path id="SvgjsPath1268" d="M 0 0L 141.5 0L 141.5 54L 0 54Z" stroke="rgba(33,41,48,1)" stroke-width="1.5" fill-opacity="1" fill="#d2d5d2"></path><g id="SvgjsG1269"><text id="SvgjsText1270" font-family="&quot;Microsoft YaHei&quot;, 微软雅黑, Arial" text-anchor="middle" font-size="13px" width="122px" fill="#323232" font-weight="400" align="middle" lineHeight="125%" anchor="middle" family="&quot;Microsoft YaHei&quot;, 微软雅黑, Arial" size="13px" weight="400" font-style="" opacity="1" y="7.875" transform="rotate(0)"><tspan id="SvgjsTspan1271" dy="16.25" x="71"><tspan id="SvgjsTspan1272" style="">本地方法栈</tspan></tspan><tspan id="SvgjsTspan1273" dy="16.25" x="71"><tspan id="SvgjsTspan1274" style="">Native Method Stack</tspan></tspan></text></g></g><g id="SvgjsG1275" transform="translate(169.25,260.25)"><path id="SvgjsPath1276" d="M 0 0L 339 0L 339 54L 0 54Z" stroke="rgba(33,41,48,1)" stroke-width="1.5" fill-opacity="1" fill="#d2d5d2"></path><g id="SvgjsG1277"><text id="SvgjsText1278" font-family="&quot;Microsoft YaHei&quot;, 微软雅黑, Arial" text-anchor="middle" font-size="13px" width="319px" fill="#323232" font-weight="400" align="middle" lineHeight="125%" anchor="middle" family="&quot;Microsoft YaHei&quot;, 微软雅黑, Arial" size="13px" weight="400" font-style="" opacity="1" y="7.875" transform="rotate(0)"><tspan id="SvgjsTspan1279" dy="16.25" x="169.5"><tspan id="SvgjsTspan1280" style="">虚拟机栈</tspan></tspan><tspan id="SvgjsTspan1281" dy="16.25" x="169.5"><tspan id="SvgjsTspan1282" style="">Java Virtual Machine Stack</tspan></tspan></text></g></g><g id="SvgjsG1283" transform="translate(223.25,67)"><path id="SvgjsPath1284" d="M 0 11.55L 47.5 11.55L 47.5 0L 65 17.5L 47.5 35L 47.5 23.450000000000003L 0 23.450000000000003L 0 11.55Z" stroke="none" fill-opacity="1" fill="#c0c0be"></path><g id="SvgjsG1285"><text id="SvgjsText1286" font-family="&quot;Microsoft YaHei&quot;, 微软雅黑, Arial" text-anchor="middle" font-size="13px" width="65px" fill="#323232" font-weight="400" align="middle" lineHeight="125%" anchor="middle" family="&quot;Microsoft YaHei&quot;, 微软雅黑, Arial" size="13px" weight="400" font-style="" opacity="1" y="6.875" transform="rotate(0)"></text></g></g><g id="SvgjsG1287" transform="translate(321.25,112.5)"><path id="SvgjsPath1288" d="M 11.55 0L 23.450000000000003 0L 23.450000000000003 31L 35 31L 17.5 48.5L 0 31L 11.55 31L 11.55 0Z" stroke="none" fill-opacity="1" fill="#c0c0be"></path><g id="SvgjsG1289"><text id="SvgjsText1290" font-family="&quot;Microsoft YaHei&quot;, 微软雅黑, Arial" text-anchor="middle" font-size="13px" width="49px" fill="#323232" font-weight="400" align="middle" lineHeight="125%" anchor="middle" family="&quot;Microsoft YaHei&quot;, 微软雅黑, Arial" size="13px" weight="400" font-style="" opacity="1" y="11.2" transform="rotate(0)"></text></g></g><g id="SvgjsG1291" transform="translate(173.7604895104895,414)"><path id="SvgjsPath1292" d="M 0 13.5L 13.5 0L 13.5 8.91L 90.20979020979019 8.91L 90.20979020979019 18.09L 13.5 18.09L 13.5 27L 0 13.5Z" stroke="none" fill-opacity="1" fill="#c0c0be"></path><g id="SvgjsG1293"><text id="SvgjsText1294" font-family="&quot;Microsoft YaHei&quot;, 微软雅黑, Arial" text-anchor="middle" font-size="13px" width="91px" fill="#323232" font-weight="400" align="middle" lineHeight="125%" anchor="middle" family="&quot;Microsoft YaHei&quot;, 微软雅黑, Arial" size="13px" weight="400" font-style="" opacity="1" y="2.875000000000001" transform="rotate(0)"></text></g></g><g id="SvgjsG1295" transform="translate(369.75,112.5)"><path id="SvgjsPath1296" d="M 17.5 0L 35 17.5L 23.450000000000003 17.5L 23.450000000000003 48.5L 11.55 48.5L 11.55 17.5L 0 17.5L 17.5 0Z" stroke="none" fill-opacity="1" fill="#c0c0be"></path><g id="SvgjsG1297"><text id="SvgjsText1298" font-family="&quot;Microsoft YaHei&quot;, 微软雅黑, Arial" text-anchor="middle" font-size="13px" width="49px" fill="#323232" font-weight="400" align="middle" lineHeight="125%" anchor="middle" family="&quot;Microsoft YaHei&quot;, 微软雅黑, Arial" size="13px" weight="400" font-style="" opacity="1" y="16.05" transform="rotate(0)"></text></g></g><g id="SvgjsG1299" transform="translate(304,336.5)"><path id="SvgjsPath1300" d="M 11.55 0L 23.450000000000003 0L 23.450000000000003 31L 35 31L 17.5 48.5L 0 31L 11.55 31L 11.55 0Z" stroke="none" fill-opacity="1" fill="#c0c0be"></path><g id="SvgjsG1301"><text id="SvgjsText1302" font-family="&quot;Microsoft YaHei&quot;, 微软雅黑, Arial" text-anchor="middle" font-size="13px" width="49px" fill="#323232" font-weight="400" align="middle" lineHeight="125%" anchor="middle" family="&quot;Microsoft YaHei&quot;, 微软雅黑, Arial" size="13px" weight="400" font-style="" opacity="1" y="11.2" transform="rotate(0)"></text></g></g><g id="SvgjsG1303" transform="translate(352.5,336.5)"><path id="SvgjsPath1304" d="M 17.5 0L 35 17.5L 23.450000000000003 17.5L 23.450000000000003 48.5L 11.55 48.5L 11.55 17.5L 0 17.5L 17.5 0Z" stroke="none" fill-opacity="1" fill="#c0c0be"></path><g id="SvgjsG1305"><text id="SvgjsText1306" font-family="&quot;Microsoft YaHei&quot;, 微软雅黑, Arial" text-anchor="middle" font-size="13px" width="49px" fill="#323232" font-weight="400" align="middle" lineHeight="125%" anchor="middle" family="&quot;Microsoft YaHei&quot;, 微软雅黑, Arial" size="13px" weight="400" font-style="" opacity="1" y="16.05" transform="rotate(0)"></text></g></g><g id="SvgjsG1307" transform="translate(60,336.5)"><path id="SvgjsPath1308" d="M 11.55 0L 23.450000000000003 0L 23.450000000000003 31L 35 31L 17.5 48.5L 0 31L 11.55 31L 11.55 0Z" stroke="none" fill-opacity="1" fill="#c0c0be"></path><g id="SvgjsG1309"><text id="SvgjsText1310" font-family="&quot;Microsoft YaHei&quot;, 微软雅黑, Arial" text-anchor="middle" font-size="13px" width="49px" fill="#323232" font-weight="400" align="middle" lineHeight="125%" anchor="middle" family="&quot;Microsoft YaHei&quot;, 微软雅黑, Arial" size="13px" weight="400" font-style="" opacity="1" y="11.2" transform="rotate(0)"></text></g></g><g id="SvgjsG1311" transform="translate(108.5,336.5)"><path id="SvgjsPath1312" d="M 17.5 0L 35 17.5L 23.450000000000003 17.5L 23.450000000000003 48.5L 11.55 48.5L 11.55 17.5L 0 17.5L 17.5 0Z" stroke="none" fill-opacity="1" fill="#c0c0be"></path><g id="SvgjsG1313"><text id="SvgjsText1314" font-family="&quot;Microsoft YaHei&quot;, 微软雅黑, Arial" text-anchor="middle" font-size="13px" width="49px" fill="#323232" font-weight="400" align="middle" lineHeight="125%" anchor="middle" family="&quot;Microsoft YaHei&quot;, 微软雅黑, Arial" size="13px" weight="400" font-style="" opacity="1" y="16.05" transform="rotate(0)"></text></g></g><g id="SvgjsG1315" transform="translate(169.25,393.5)"><path id="SvgjsPath1316" d="M 0 7.92L 85.72727272727269 7.92L 85.72727272727269 0L 97.72727272727269 12L 85.72727272727269 24L 85.72727272727269 16.080000000000002L 0 16.080000000000002L 0 7.92Z" stroke="none" fill-opacity="1" fill="#c0c0be"></path><g id="SvgjsG1317"><text id="SvgjsText1318" font-family="&quot;Microsoft YaHei&quot;, 微软雅黑, Arial" text-anchor="middle" font-size="13px" width="98px" fill="#323232" font-weight="400" align="middle" lineHeight="125%" anchor="middle" family="&quot;Microsoft YaHei&quot;, 微软雅黑, Arial" size="13px" weight="400" font-style="" opacity="1" y="1.375" transform="rotate(0)"></text></g></g><g id="SvgjsG1319" transform="translate(432.25,398.5)"><path id="SvgjsPath1320" d="M 0 17.5L 17.5 0L 17.5 11.55L 60 11.55L 60 23.450000000000003L 17.5 23.450000000000003L 17.5 35L 0 17.5Z" stroke="none" fill-opacity="1" fill="#c0c0be"></path><g id="SvgjsG1321"><text id="SvgjsText1322" font-family="&quot;Microsoft YaHei&quot;, 微软雅黑, Arial" text-anchor="middle" font-size="13px" width="60px" fill="#323232" font-weight="400" align="middle" lineHeight="125%" anchor="middle" family="&quot;Microsoft YaHei&quot;, 微软雅黑, Arial" size="13px" weight="400" font-style="" opacity="1" y="6.875" transform="rotate(0)"></text></g></g><g id="SvgjsG1323" transform="translate(481.25,396)"><path id="SvgjsPath1324" d="M 0 0L 100 0L 100 40L 0 40Z" stroke="none" fill="none"></path><g id="SvgjsG1325"><text id="SvgjsText1326" font-family="&quot;Microsoft YaHei&quot;, 微软雅黑, Arial" text-anchor="middle" font-size="13px" width="100px" fill="#323232" font-weight="400" align="middle" lineHeight="125%" anchor="middle" family="&quot;Microsoft YaHei&quot;, 微软雅黑, Arial" size="13px" weight="400" font-style="" opacity="1" y="9.375" transform="rotate(0)"><tspan id="SvgjsTspan1327" dy="16.25" x="50"><tspan id="SvgjsTspan1328" style="">本地方法库</tspan></tspan></text></g></g><g id="SvgjsG1329" transform="translate(492.25,226.5)"><path id="SvgjsPath1330" d="M 0 0L 100 0L 100 50L 0 50Z" stroke="none" fill="none"></path><g id="SvgjsG1331"><text id="SvgjsText1332" font-family="&quot;Microsoft YaHei&quot;, 微软雅黑, Arial" text-anchor="middle" font-size="20px" width="100px" fill="#323232" font-weight="400" align="middle" lineHeight="125%" anchor="middle" family="&quot;Microsoft YaHei&quot;, 微软雅黑, Arial" size="20px" weight="400" font-style="" opacity="1" y="-5.5" transform="rotate(0)"><tspan id="SvgjsTspan1333" dy="25" x="50"><tspan id="SvgjsTspan1334" style="font-weight: bold;">简</tspan></tspan><tspan id="SvgjsTspan1335" dy="25" x="50"><tspan id="SvgjsTspan1336" style="font-weight: bold;">图</tspan></tspan></text></g></g><g id="SvgjsG1337"></g></svg>