<svg id="SvgjsSvg1006" width="824.9545454545455" height="400.6363636363636" xmlns="http://www.w3.org/2000/svg" version="1.1" xmlns:xlink="http://www.w3.org/1999/xlink" xmlns:svgjs="http://svgjs.com/svgjs"><defs id="SvgjsDefs1007"><pattern patternUnits="userSpaceOnUse" id="pattern_mark_0" width="300" height="300"><text x="150" y="100" fill="rgba(229,229,229,0.8)" font-size="18" transform="rotate(-45, 150, 150)" style="dominant-baseline: middle; text-anchor: middle;"></text></pattern><pattern patternUnits="userSpaceOnUse" id="pattern_mark_1" width="300" height="300"><text x="150" y="200" fill="rgba(229,229,229,0.8)" font-size="18" transform="rotate(-45, 150, 150)" style="dominant-baseline: middle; text-anchor: middle;"></text></pattern><marker id="SvgjsMarker1067" markerWidth="13" markerHeight="9" refX="9.5" refY="4.5" viewBox="0 0 13 9" orient="auto" markerUnits="userSpaceOnUse" stroke-dasharray="0,0"><path id="SvgjsPath1068" d="M0,0 L13,4.5 L0,9 L0,0" fill="#323232" stroke="#323232" stroke-width="1"></path></marker><marker id="SvgjsMarker1071" markerWidth="13" markerHeight="9" refX="9.5" refY="4.5" viewBox="0 0 13 9" orient="auto" markerUnits="userSpaceOnUse" stroke-dasharray="0,0"><path id="SvgjsPath1072" d="M0,0 L13,4.5 L0,9 L0,0" fill="#323232" stroke="#323232" stroke-width="1"></path></marker><marker id="SvgjsMarker1075" markerWidth="13" markerHeight="9" refX="9.5" refY="4.5" viewBox="0 0 13 9" orient="auto" markerUnits="userSpaceOnUse" stroke-dasharray="0,0"><path id="SvgjsPath1076" d="M0,0 L13,4.5 L0,9 L0,0" fill="#d2d6f9" stroke="#d2d6f9" stroke-width="1"></path></marker><marker id="SvgjsMarker1079" markerWidth="13" markerHeight="9" refX="9.5" refY="4.5" viewBox="0 0 13 9" orient="auto" markerUnits="userSpaceOnUse" stroke-dasharray="0,0"><path id="SvgjsPath1080" d="M0,0 L13,4.5 L0,9 L0,0" fill="#d2d6f9" stroke="#d2d6f9" stroke-width="1"></path></marker><marker id="SvgjsMarker1083" markerWidth="13" markerHeight="9" refX="9.5" refY="4.5" viewBox="0 0 13 9" orient="auto" markerUnits="userSpaceOnUse" stroke-dasharray="0,0"><path id="SvgjsPath1084" d="M0,0 L13,4.5 L0,9 L0,0" fill="#d2d6f9" stroke="#d2d6f9" stroke-width="1"></path></marker><marker id="SvgjsMarker1087" markerWidth="13" markerHeight="9" refX="9.5" refY="4.5" viewBox="0 0 13 9" orient="auto" markerUnits="userSpaceOnUse" stroke-dasharray="0,0"><path id="SvgjsPath1088" d="M0,0 L13,4.5 L0,9 L0,0" fill="#d2d6f9" stroke="#d2d6f9" stroke-width="1"></path></marker><marker id="SvgjsMarker1091" markerWidth="13" markerHeight="9" refX="9.5" refY="4.5" viewBox="0 0 13 9" orient="auto" markerUnits="userSpaceOnUse" stroke-dasharray="0,0"><path id="SvgjsPath1092" d="M0,0 L13,4.5 L0,9 L0,0" fill="#d2d6f9" stroke="#d2d6f9" stroke-width="1"></path></marker><marker id="SvgjsMarker1101" markerWidth="13" markerHeight="9" refX="9.5" refY="4.5" viewBox="0 0 13 9" orient="auto" markerUnits="userSpaceOnUse" stroke-dasharray="0,0"><path id="SvgjsPath1102" d="M0,0 L13,4.5 L0,9 L0,0" fill="#323232" stroke="#323232" stroke-width="1"></path></marker><marker id="SvgjsMarker1105" markerWidth="13" markerHeight="9" refX="9.5" refY="4.5" viewBox="0 0 13 9" orient="auto" markerUnits="userSpaceOnUse" stroke-dasharray="0,0"><path id="SvgjsPath1106" d="M0,0 L13,4.5 L0,9 L0,0" fill="#323232" stroke="#323232" stroke-width="1"></path></marker><marker id="SvgjsMarker1109" markerWidth="13" markerHeight="9" refX="9.5" refY="4.5" viewBox="0 0 13 9" orient="auto" markerUnits="userSpaceOnUse" stroke-dasharray="0,0"><path id="SvgjsPath1110" d="M0,0 L13,4.5 L0,9 L0,0" fill="#323232" stroke="#323232" stroke-width="1"></path></marker><marker id="SvgjsMarker1113" markerWidth="13" markerHeight="9" refX="9.5" refY="4.5" viewBox="0 0 13 9" orient="auto" markerUnits="userSpaceOnUse" stroke-dasharray="0,0"><path id="SvgjsPath1114" d="M0,0 L13,4.5 L0,9 L0,0" fill="#323232" stroke="#323232" stroke-width="1"></path></marker><marker id="SvgjsMarker1117" markerWidth="13" markerHeight="9" refX="9.5" refY="4.5" viewBox="0 0 13 9" orient="auto" markerUnits="userSpaceOnUse" stroke-dasharray="0,0"><path id="SvgjsPath1118" d="M0,0 L13,4.5 L0,9 L0,0" fill="#323232" stroke="#323232" stroke-width="1"></path></marker><marker id="SvgjsMarker1121" markerWidth="13" markerHeight="9" refX="9.5" refY="4.5" viewBox="0 0 13 9" orient="auto" markerUnits="userSpaceOnUse" stroke-dasharray="0,0"><path id="SvgjsPath1122" d="M0,0 L13,4.5 L0,9 L0,0" fill="#323232" stroke="#323232" stroke-width="1"></path></marker><marker id="SvgjsMarker1125" markerWidth="13" markerHeight="9" refX="9.5" refY="4.5" viewBox="0 0 13 9" orient="auto" markerUnits="userSpaceOnUse" stroke-dasharray="0,0"><path id="SvgjsPath1126" d="M0,0 L13,4.5 L0,9 L0,0" fill="#323232" stroke="#323232" stroke-width="1"></path></marker><marker id="SvgjsMarker1129" markerWidth="13" markerHeight="9" refX="9.5" refY="4.5" viewBox="0 0 13 9" orient="auto" markerUnits="userSpaceOnUse" stroke-dasharray="0,0"><path id="SvgjsPath1130" d="M0,0 L13,4.5 L0,9 L0,0" fill="#323232" stroke="#323232" stroke-width="1"></path></marker></defs><rect id="svgbackgroundid" width="824.9545454545455" height="400.6363636363636" fill="transparent"></rect><rect id="SvgjsRect1009" width="824.9545454545455" height="400.6363636363636" fill="url(#pattern_mark_0)"></rect><rect id="SvgjsRect1010" width="824.9545454545455" height="400.6363636363636" fill="url(#pattern_mark_1)"></rect><g id="SvgjsG1011" transform="translate(450.95454545454544,25)"><path id="SvgjsPath1012" d="M 0 0L 95 0L 95 34L 0 34Z" stroke="rgba(33,41,48,1)" stroke-width="1.5" fill-opacity="1" fill="#f6edc1"></path><g id="SvgjsG1013"><text id="SvgjsText1014" font-family="微软雅黑" text-anchor="middle" font-size="13px" width="75px" fill="#323232" font-weight="400" align="middle" lineHeight="125%" anchor="middle" family="微软雅黑" size="13px" weight="400" font-style="" opacity="1" y="6.375" transform="rotate(0)"><tspan id="SvgjsTspan1015" dy="16.25" x="47.5"><tspan id="SvgjsTspan1016" style="">资源(state)</tspan></tspan></text></g></g><g id="SvgjsG1017" transform="translate(196.95454545454544,150)"><path id="SvgjsPath1018" d="M 0 18Q 0 0 18 0L 63 0Q 81 0 81 18L 81 36Q 81 54 63 54L 18 54Q 0 54 0 36L 0 18Z" stroke="rgba(33,41,48,1)" stroke-width="1.5" fill-opacity="1" fill="#f5b9b7"></path><g id="SvgjsG1019"><text id="SvgjsText1020" font-family="微软雅黑" text-anchor="middle" font-size="13px" width="61px" fill="#323232" font-weight="400" align="middle" lineHeight="125%" anchor="middle" family="微软雅黑" size="13px" weight="400" font-style="" opacity="1" y="16.375" transform="rotate(0)"><tspan id="SvgjsTspan1021" dy="16.25" x="40.5"><tspan id="SvgjsTspan1022" style="">占用线程1</tspan></tspan></text></g></g><g id="SvgjsG1023" transform="translate(326.95454545454544,150)"><path id="SvgjsPath1024" d="M 0 18Q 0 0 18 0L 63 0Q 81 0 81 18L 81 36Q 81 54 63 54L 18 54Q 0 54 0 36L 0 18Z" stroke="rgba(33,41,48,1)" stroke-width="1.5" fill-opacity="1" fill="#d2d6f9"></path><g id="SvgjsG1025"><text id="SvgjsText1026" font-family="微软雅黑" text-anchor="middle" font-size="13px" width="61px" fill="#323232" font-weight="400" align="middle" lineHeight="125%" anchor="middle" family="微软雅黑" size="13px" weight="400" font-style="" opacity="1" y="16.375" transform="rotate(0)"><tspan id="SvgjsTspan1027" dy="16.25" x="40.5"><tspan id="SvgjsTspan1028" style="">等待线程2</tspan></tspan></text></g></g><g id="SvgjsG1029" transform="translate(457.95454545454544,150)"><path id="SvgjsPath1030" d="M 0 18Q 0 0 18 0L 63 0Q 81 0 81 18L 81 36Q 81 54 63 54L 18 54Q 0 54 0 36L 0 18Z" stroke="rgba(33,41,48,1)" stroke-width="1.5" fill-opacity="1" fill="#d2d6f9"></path><g id="SvgjsG1031"><text id="SvgjsText1032" font-family="微软雅黑" text-anchor="middle" font-size="13px" width="61px" fill="#323232" font-weight="400" align="middle" lineHeight="125%" anchor="middle" family="微软雅黑" size="13px" weight="400" font-style="" opacity="1" y="16.375" transform="rotate(0)"><tspan id="SvgjsTspan1033" dy="16.25" x="40.5"><tspan id="SvgjsTspan1034" style="">等待线程3</tspan></tspan></text></g></g><g id="SvgjsG1035" transform="translate(587.9545454545455,150)"><path id="SvgjsPath1036" d="M 0 18Q 0 0 18 0L 63 0Q 81 0 81 18L 81 36Q 81 54 63 54L 18 54Q 0 54 0 36L 0 18Z" stroke="rgba(33,41,48,1)" stroke-width="1.5" fill-opacity="1" fill="#d2d6f9"></path><g id="SvgjsG1037"><text id="SvgjsText1038" font-family="微软雅黑" text-anchor="middle" font-size="13px" width="61px" fill="#323232" font-weight="400" align="middle" lineHeight="125%" anchor="middle" family="微软雅黑" size="13px" weight="400" font-style="" opacity="1" y="16.375" transform="rotate(0)"><tspan id="SvgjsTspan1039" dy="16.25" x="40.5"><tspan id="SvgjsTspan1040" style="">等待线程3</tspan></tspan></text></g></g><g id="SvgjsG1041" transform="translate(718.9545454545455,150)"><path id="SvgjsPath1042" d="M 0 18Q 0 0 18 0L 63 0Q 81 0 81 18L 81 36Q 81 54 63 54L 18 54Q 0 54 0 36L 0 18Z" stroke="rgba(33,41,48,1)" stroke-width="1.5" fill-opacity="1" fill="#d2d6f9"></path><g id="SvgjsG1043"><text id="SvgjsText1044" font-family="微软雅黑" text-anchor="middle" font-size="13px" width="61px" fill="#323232" font-weight="400" align="middle" lineHeight="125%" anchor="middle" family="微软雅黑" size="13px" weight="400" font-style="" opacity="1" y="16.375" transform="rotate(0)"><tspan id="SvgjsTspan1045" dy="16.25" x="40.5"><tspan id="SvgjsTspan1046" style="">等待线程3</tspan></tspan></text></g></g><g id="SvgjsG1047" transform="translate(25,156.6818181818182)"><path id="SvgjsPath1048" d="M 0 0L 121.95454545454545 0L 121.95454545454545 40.636363636363626L 0 40.636363636363626Z" stroke="rgba(167,147,44,1)" stroke-width="1.5" fill-opacity="1" fill="#ffffff"></path><g id="SvgjsG1049"><text id="SvgjsText1050" font-family="微软雅黑" text-anchor="middle" font-size="13px" width="102px" fill="#323232" font-weight="400" align="middle" lineHeight="125%" anchor="middle" family="微软雅黑" size="13px" weight="400" font-style="" opacity="1" y="9.693181818181813" transform="rotate(0)"><tspan id="SvgjsTspan1051" dy="16.25" x="61"><tspan id="SvgjsTspan1052" style="">CLH队列(FIFO)</tspan></tspan></text></g></g><g id="SvgjsG1053" transform="translate(218.45454545454544,284)"><path id="SvgjsPath1054" d="M 0 0L 38 0L 38 20L 0 20Z" stroke="none" fill="none"></path><g id="SvgjsG1055"><text id="SvgjsText1056" font-family="微软雅黑" text-anchor="middle" font-size="13px" width="38px" fill="#a7932c" font-weight="700" align="middle" lineHeight="125%" anchor="middle" family="微软雅黑" size="13px" weight="700" font-style="" opacity="1" y="-0.625" transform="rotate(0)"><tspan id="SvgjsTspan1057" dy="16.25" x="19"><tspan id="SvgjsTspan1058" style="">head</tspan></tspan></text></g></g><g id="SvgjsG1059" transform="translate(740.4545454545455,284)"><path id="SvgjsPath1060" d="M 0 0L 38 0L 38 20L 0 20Z" stroke="none" fill="none"></path><g id="SvgjsG1061"><text id="SvgjsText1062" font-family="微软雅黑" text-anchor="middle" font-size="13px" width="38px" fill="#a7932c" font-weight="700" align="middle" lineHeight="125%" anchor="middle" family="微软雅黑" size="13px" weight="700" font-style="" opacity="1" y="-0.625" transform="rotate(0)"><tspan id="SvgjsTspan1063" dy="16.25" x="19"><tspan id="SvgjsTspan1064" style="">tail</tspan></tspan></text></g></g><g id="SvgjsG1065"><path id="SvgjsPath1066" d="M759.4545454545455 283.25L759.4545454545455 243.9545454545454L759.4545454545455 243.9545454545454L759.4545454545455 206.7" stroke="#323232" stroke-width="1.5" fill="none" marker-end="url(#SvgjsMarker1067)"></path></g><g id="SvgjsG1069"><path id="SvgjsPath1070" d="M237.45454545454544 283.25L237.45454545454544 243.9545454545454L237.45454545454544 243.9545454545454L237.45454545454544 206.7" stroke="#323232" stroke-width="1.5" fill="none" marker-end="url(#SvgjsMarker1071)"></path></g><g id="SvgjsG1073"><path id="SvgjsPath1074" d="M237.53284583798904 149.25409849849154C 236.9545454545455 39.56739611871862 497.95454545454544 170.43260388128138 498.15022824332044 61.68279537701858" stroke="#d2d6f9" stroke-width="1.5" fill="none" marker-end="url(#SvgjsMarker1075)"></path></g><g id="SvgjsG1077"><path id="SvgjsPath1078" d="M367.57722316148426 149.26010123650582C 367.45454545454544 86.58990616628927 497.95454545454544 123.41009383371073 497.99891124852365 61.66127741325531" stroke-dasharray="8,5" stroke="#d2d6f9" stroke-width="1.5" fill="none" marker-end="url(#SvgjsMarker1079)"></path></g><g id="SvgjsG1081"><path id="SvgjsPath1082" d="M498.44492622910917 149.250061688869C 497.95454545454544 114 497.95454545454544 96 498.4207822427102 61.69978888906643" stroke-dasharray="8,5" stroke="#d2d6f9" stroke-width="1.5" fill="none" marker-end="url(#SvgjsMarker1083)"></path></g><g id="SvgjsG1085"><path id="SvgjsPath1086" d="M628.3312330397173 149.26020675297133C 628.4545454545455 86.58990616628927 497.95454545454544 123.41009383371073 498.8704502816348 61.667774948305" stroke-dasharray="8,5" stroke="#d2d6f9" stroke-width="1.5" fill="none" marker-end="url(#SvgjsMarker1087)"></path></g><g id="SvgjsG1089"><path id="SvgjsPath1090" d="M759.3692167630634 149.25486980036376C 758.9545454545455 39.56739611871862 497.95454545454544 170.43260388128138 498.7337914569979 61.68552074468143" stroke-dasharray="8,5" stroke="#d2d6f9" stroke-width="1.5" fill="none" marker-end="url(#SvgjsMarker1091)"></path></g><g id="SvgjsG1093" transform="translate(90.45454545454551,341.6363636363636)"><path id="SvgjsPath1094" d="M 0 0L 691.8181818181818 0L 691.8181818181818 34L 0 34Z" stroke="rgba(33,41,48,1)" stroke-width="1.5" fill-opacity="1" fill="#ffffff"></path><g id="SvgjsG1095"><text id="SvgjsText1096" font-family="微软雅黑" text-anchor="middle" font-size="13px" width="672px" fill="#323232" font-weight="400" align="middle" lineHeight="125%" anchor="middle" family="微软雅黑" size="13px" weight="400" font-style="" opacity="1" y="6.375" transform="rotate(0)"><tspan id="SvgjsTspan1097" dy="16.25" x="346"><tspan id="SvgjsTspan1098" style="">CLH：Craig、Landin and Hagersten 队列，是一个单向链表，AQS中的队列是CLH变体的虚拟双向队列FIFO</tspan></tspan></text></g></g><g id="SvgjsG1099"><path id="SvgjsPath1100" d="M278.7044546355651 166.205051652766C 296.8877024466073 165.86323987785843 307.0209315479528 165.86323987785846 324.25484540076087 166.17647849698824" stroke="#323232" stroke-width="1.5" fill="none" marker-end="url(#SvgjsMarker1101)"></path></g><g id="SvgjsG1103"><path id="SvgjsPath1104" d="M408.70454545454544 165.34252626613227L455.25454545454545 165.34252626613227" stroke="#323232" stroke-width="1.5" fill="none" marker-end="url(#SvgjsMarker1105)"></path></g><g id="SvgjsG1107"><path id="SvgjsPath1108" d="M539.7045454545455 162.68496749294277L585.2545454545455 162.68496749294277" stroke="#323232" stroke-width="1.5" fill="none" marker-end="url(#SvgjsMarker1109)"></path></g><g id="SvgjsG1111"><path id="SvgjsPath1112" d="M668.3938174847223 161.75823297976876L716.2545454545455 161.75823297976876" stroke="#323232" stroke-width="1.5" fill="none" marker-end="url(#SvgjsMarker1113)"></path></g><g id="SvgjsG1115"><path id="SvgjsPath1116" d="M718.2045454545455 187.6183820092469L671.6545454545455 187.6183820092469" stroke="#323232" stroke-width="1.5" fill="none" marker-end="url(#SvgjsMarker1117)"></path></g><g id="SvgjsG1119"><path id="SvgjsPath1120" d="M587.2045454545455 189.26690710654782L541.6545454545455 189.26690710654782" stroke="#323232" stroke-width="1.5" fill="none" marker-end="url(#SvgjsMarker1121)"></path></g><g id="SvgjsG1123"><path id="SvgjsPath1124" d="M457.20454545454544 187.1317591116653L410.6545454545454 187.1317591116653" stroke="#323232" stroke-width="1.5" fill="none" marker-end="url(#SvgjsMarker1125)"></path></g><g id="SvgjsG1127"><path id="SvgjsPath1128" d="M326.20454545454544 186.5342166870688L280.6545454545454 186.5342166870688" stroke="#323232" stroke-width="1.5" fill="none" marker-end="url(#SvgjsMarker1129)"></path></g></svg>