<svg id="SvgjsSvg1006" width="840.0731707317074" height="284.7560975609756" xmlns="http://www.w3.org/2000/svg" version="1.1" xmlns:xlink="http://www.w3.org/1999/xlink" xmlns:svgjs="http://svgjs.com/svgjs"><defs id="SvgjsDefs1007"><pattern patternUnits="userSpaceOnUse" id="pattern_mark_0" width="300" height="300"><text x="150" y="100" fill="rgba(229,229,229,0.8)" font-size="18" transform="rotate(-45, 150, 150)" style="dominant-baseline: middle; text-anchor: middle;"></text></pattern><pattern patternUnits="userSpaceOnUse" id="pattern_mark_1" width="300" height="300"><text x="150" y="200" fill="rgba(229,229,229,0.8)" font-size="18" transform="rotate(-45, 150, 150)" style="dominant-baseline: middle; text-anchor: middle;"></text></pattern><marker id="SvgjsMarker1053" markerWidth="13" markerHeight="9" refX="9.5" refY="4.5" viewBox="0 0 13 9" orient="auto" markerUnits="userSpaceOnUse" stroke-dasharray="0,0"><path id="SvgjsPath1054" d="M0,0 L13,4.5 L0,9 L0,0" fill="#323232" stroke="#323232" stroke-width="1"></path></marker><marker id="SvgjsMarker1057" markerWidth="13" markerHeight="9" refX="9.5" refY="4.5" viewBox="0 0 13 9" orient="auto" markerUnits="userSpaceOnUse" stroke-dasharray="0,0"><path id="SvgjsPath1058" d="M0,0 L13,4.5 L0,9 L0,0" fill="#323232" stroke="#323232" stroke-width="1"></path></marker><marker id="SvgjsMarker1061" markerWidth="13" markerHeight="9" refX="9.5" refY="4.5" viewBox="0 0 13 9" orient="auto" markerUnits="userSpaceOnUse" stroke-dasharray="0,0"><path id="SvgjsPath1062" d="M0,0 L13,4.5 L0,9 L0,0" fill="#323232" stroke="#323232" stroke-width="1"></path></marker><marker id="SvgjsMarker1065" markerWidth="13" markerHeight="9" refX="9.5" refY="4.5" viewBox="0 0 13 9" orient="auto" markerUnits="userSpaceOnUse" stroke-dasharray="0,0"><path id="SvgjsPath1066" d="M0,0 L13,4.5 L0,9 L0,0" fill="#323232" stroke="#323232" stroke-width="1"></path></marker><marker id="SvgjsMarker1073" markerWidth="13" markerHeight="9" refX="9.5" refY="4.5" viewBox="0 0 13 9" orient="auto" markerUnits="userSpaceOnUse" stroke-dasharray="0,0"><path id="SvgjsPath1074" d="M0,0 L13,4.5 L0,9 L0,0" fill="#323232" stroke="#323232" stroke-width="1"></path></marker><marker id="SvgjsMarker1087" markerWidth="13" markerHeight="9" refX="9.5" refY="4.5" viewBox="0 0 13 9" orient="auto" markerUnits="userSpaceOnUse" stroke-dasharray="0,0"><path id="SvgjsPath1088" d="M0,0 L13,4.5 L0,9 L0,0" fill="#323232" stroke="#323232" stroke-width="1"></path></marker><marker id="SvgjsMarker1091" markerWidth="13" markerHeight="9" refX="9.5" refY="4.5" viewBox="0 0 13 9" orient="auto" markerUnits="userSpaceOnUse" stroke-dasharray="0,0"><path id="SvgjsPath1092" d="M0,0 L13,4.5 L0,9 L0,0" fill="#323232" stroke="#323232" stroke-width="1"></path></marker></defs><rect id="svgbackgroundid" width="840.0731707317074" height="284.7560975609756" fill="transparent"></rect><rect id="SvgjsRect1009" width="840.0731707317074" height="284.7560975609756" fill="url(#pattern_mark_0)"></rect><rect id="SvgjsRect1010" width="840.0731707317074" height="284.7560975609756" fill="url(#pattern_mark_1)"></rect><g id="SvgjsG1011" transform="translate(25,113.41463414634146)"><path id="SvgjsPath1012" d="M 0 4Q 0 0 4 0L 786.0731707317074 0Q 790.0731707317074 0 790.0731707317074 4L 790.0731707317074 142.34146341463418Q 790.0731707317074 146.34146341463418 786.0731707317074 146.34146341463418L 4 146.34146341463418Q 0 146.34146341463418 0 142.34146341463418Z" stroke-dasharray="1.5,2.25" stroke="rgba(33,41,48,1)" stroke-width="1.5" fill-opacity="1" fill="#ffffff"></path><g id="SvgjsG1013"><text id="SvgjsText1014" font-family="&quot;Comic Sans MS&quot;" text-anchor="middle" font-size="13px" width="771px" fill="#323232" font-weight="400" align="middle" lineHeight="125%" anchor="middle" family="&quot;Comic Sans MS&quot;" size="13px" weight="400" font-style="" opacity="1" y="62.54573170731709" transform="rotate(0)"></text></g></g><g id="SvgjsG1015" transform="translate(37.536585365853675,125.41463414634146)"><path id="SvgjsPath1016" d="M 0 4Q 0 0 4 0L 92 0Q 96 0 96 4L 96 26Q 96 30 92 30L 4 30Q 0 30 0 26Z" stroke="rgba(33,41,48,1)" stroke-width="1.5" fill-opacity="1" fill="#cbe6c7"></path><g id="SvgjsG1017"><text id="SvgjsText1018" font-family="&quot;Comic Sans MS&quot;" text-anchor="middle" font-size="13px" width="76px" fill="#323232" font-weight="400" align="middle" lineHeight="125%" anchor="middle" family="&quot;Comic Sans MS&quot;" size="13px" weight="400" font-style="" opacity="1" y="4.375" transform="rotate(0)"><tspan id="SvgjsTspan1019" dy="16.25" x="48"><tspan id="SvgjsTspan1020" style="">语法检查</tspan></tspan></text></g></g><g id="SvgjsG1021" transform="translate(706.5365853658536,125.41463414634146)"><path id="SvgjsPath1022" d="M 0 4Q 0 0 4 0L 92 0Q 96 0 96 4L 96 26Q 96 30 92 30L 4 30Q 0 30 0 26Z" stroke="rgba(33,41,48,1)" stroke-width="1.5" fill-opacity="1" fill="#cbe6c7"></path><g id="SvgjsG1023"><text id="SvgjsText1024" font-family="&quot;Comic Sans MS&quot;" text-anchor="middle" font-size="13px" width="76px" fill="#323232" font-weight="400" align="middle" lineHeight="125%" anchor="middle" family="&quot;Comic Sans MS&quot;" size="13px" weight="400" font-style="" opacity="1" y="4.375" transform="rotate(0)"><tspan id="SvgjsTspan1025" dy="16.25" x="48"><tspan id="SvgjsTspan1026" style="">优化器</tspan></tspan></text></g></g><g id="SvgjsG1027" transform="translate(204.78658536585368,125.41463414634146)"><path id="SvgjsPath1028" d="M 0 4Q 0 0 4 0L 92 0Q 96 0 96 4L 96 26Q 96 30 92 30L 4 30Q 0 30 0 26Z" stroke="rgba(33,41,48,1)" stroke-width="1.5" fill-opacity="1" fill="#cbe6c7"></path><g id="SvgjsG1029"><text id="SvgjsText1030" font-family="&quot;Comic Sans MS&quot;" text-anchor="middle" font-size="13px" width="76px" fill="#323232" font-weight="400" align="middle" lineHeight="125%" anchor="middle" family="&quot;Comic Sans MS&quot;" size="13px" weight="400" font-style="" opacity="1" y="4.375" transform="rotate(0)"><tspan id="SvgjsTspan1031" dy="16.25" x="48"><tspan id="SvgjsTspan1032" style="">语义检查</tspan></tspan></text></g></g><g id="SvgjsG1033" transform="translate(372.0365853658537,125.41463414634146)"><path id="SvgjsPath1034" d="M 0 4Q 0 0 4 0L 92 0Q 96 0 96 4L 96 26Q 96 30 92 30L 4 30Q 0 30 0 26Z" stroke="rgba(33,41,48,1)" stroke-width="1.5" fill-opacity="1" fill="#cbe6c7"></path><g id="SvgjsG1035"><text id="SvgjsText1036" font-family="&quot;Comic Sans MS&quot;" text-anchor="middle" font-size="13px" width="76px" fill="#323232" font-weight="400" align="middle" lineHeight="125%" anchor="middle" family="&quot;Comic Sans MS&quot;" size="13px" weight="400" font-style="" opacity="1" y="4.375" transform="rotate(0)"><tspan id="SvgjsTspan1037" dy="16.25" x="48"><tspan id="SvgjsTspan1038" style="">权限检查</tspan></tspan></text></g></g><g id="SvgjsG1039" transform="translate(539.2865853658536,125.41463414634146)"><path id="SvgjsPath1040" d="M 0 4Q 0 0 4 0L 92 0Q 96 0 96 4L 96 26Q 96 30 92 30L 4 30Q 0 30 0 26Z" stroke="rgba(33,41,48,1)" stroke-width="1.5" fill-opacity="1" fill="#cbe6c7"></path><g id="SvgjsG1041"><text id="SvgjsText1042" font-family="&quot;Comic Sans MS&quot;" text-anchor="middle" font-size="13px" width="76px" fill="#323232" font-weight="400" align="middle" lineHeight="125%" anchor="middle" family="&quot;Comic Sans MS&quot;" size="13px" weight="400" font-style="" opacity="1" y="4.375" transform="rotate(0)"><tspan id="SvgjsTspan1043" dy="16.25" x="48"><tspan id="SvgjsTspan1044" style="">共享池检查</tspan></tspan></text></g></g><g id="SvgjsG1045" transform="translate(545.0365853658536,205.41463414634146)"><path id="SvgjsPath1046" d="M 0 4Q 0 0 4 0L 80.5 0Q 84.5 0 84.5 4L 84.5 36Q 84.5 40 80.5 40L 4 40Q 0 40 0 36Z" stroke="rgba(33,41,48,1)" stroke-width="1.5" fill-opacity="1" fill="#f9e0ae"></path><g id="SvgjsG1047"><text id="SvgjsText1048" font-family="&quot;Comic Sans MS&quot;" text-anchor="middle" font-size="13px" width="65px" fill="#323232" font-weight="400" align="middle" lineHeight="125%" anchor="middle" family="&quot;Comic Sans MS&quot;" size="13px" weight="400" font-style="" opacity="1" y="9.375" transform="rotate(0)"><tspan id="SvgjsTspan1049" dy="16.25" x="42.5"><tspan id="SvgjsTspan1050" style="">执行</tspan></tspan></text></g></g><g id="SvgjsG1051"><path id="SvgjsPath1052" d="M134.28658536585368 140.41463414634146L169.16158536585368 140.41463414634146L169.16158536585368 140.41463414634146L202.0865853658537 140.41463414634146" stroke="#323232" stroke-width="1.5" fill="none" marker-end="url(#SvgjsMarker1053)"></path></g><g id="SvgjsG1055"><path id="SvgjsPath1056" d="M301.5365853658537 140.41463414634146L336.4115853658537 140.41463414634146L336.4115853658537 140.41463414634146L369.3365853658537 140.41463414634146" stroke="#323232" stroke-width="1.5" fill="none" marker-end="url(#SvgjsMarker1057)"></path></g><g id="SvgjsG1059"><path id="SvgjsPath1060" d="M468.7865853658537 140.41463414634146L503.6615853658537 140.41463414634146L503.6615853658537 140.41463414634146L536.5865853658536 140.41463414634146" stroke="#323232" stroke-width="1.5" fill="none" marker-end="url(#SvgjsMarker1061)"></path></g><g id="SvgjsG1063"><path id="SvgjsPath1064" d="M636.0365853658536 140.41463414634146L670.9115853658536 140.41463414634146L670.9115853658536 140.41463414634146L703.8365853658536 140.41463414634146" stroke="#323232" stroke-width="1.5" fill="none" marker-end="url(#SvgjsMarker1065)"></path><rect id="SvgjsRect1067" width="39" height="18" x="649.128164313222" y="131.41463414634148" fill="#ffffff"></rect><text id="SvgjsText1068" font-family="&quot;Comic Sans MS&quot;" text-anchor="middle" font-size="13px" width="39px" fill="#323232" font-weight="400" align="top" lineHeight="16px" anchor="middle" family="&quot;Comic Sans MS&quot;" size="13px" weight="400" font-style="" opacity="1" y="128.78963414634148" transform="rotate(0)"><tspan id="SvgjsTspan1069" dy="16.25" x="668.628164313222"><tspan id="SvgjsTspan1070" style="">硬解析</tspan></tspan></text></g><g id="SvgjsG1071"><path id="SvgjsPath1072" d="M587.2865853658536 156.16463414634146L587.2865853658536 180.41463414634146L587.2865853658536 180.41463414634146L587.2865853658536 202.71463414634147" stroke="#323232" stroke-width="1.5" fill="none" marker-end="url(#SvgjsMarker1073)"></path><rect id="SvgjsRect1075" width="39" height="18" x="567.7865853658536" y="168.57763414634147" fill="#ffffff"></rect><text id="SvgjsText1076" font-family="&quot;Comic Sans MS&quot;" text-anchor="middle" font-size="13px" width="39px" fill="#323232" font-weight="400" align="top" lineHeight="16px" anchor="middle" family="&quot;Comic Sans MS&quot;" size="13px" weight="400" font-style="" opacity="1" y="165.95263414634147" transform="rotate(0)"><tspan id="SvgjsTspan1077" dy="16.25" x="587.2865853658536"><tspan id="SvgjsTspan1078" style="">软解析</tspan></tspan></text></g><g id="SvgjsG1079" transform="translate(370.0365853658537,25)"><path id="SvgjsPath1080" d="M 13.211382113821136 0L 86.78861788617887 0C 104.40379403794037 0 104.40379403794037 39.634146341463406 86.78861788617887 39.634146341463406L 13.211382113821136 39.634146341463406C -4.403794037940378 39.634146341463406 -4.403794037940378 0 13.211382113821136 0Z" stroke="rgba(33,41,48,1)" stroke-width="1.5" fill-opacity="1" fill="#c3defd"></path><g id="SvgjsG1081"><text id="SvgjsText1082" font-family="&quot;Comic Sans MS&quot;" text-anchor="middle" font-size="13px" width="80px" fill="#323232" font-weight="400" align="middle" lineHeight="125%" anchor="middle" family="&quot;Comic Sans MS&quot;" size="13px" weight="400" font-style="" opacity="1" y="9.192073170731703" transform="rotate(0)"><tspan id="SvgjsTspan1083" dy="16.25" x="50"><tspan id="SvgjsTspan1084" style="">SQL语句</tspan></tspan></text></g></g><g id="SvgjsG1085"><path id="SvgjsPath1086" d="M754.5365853658536 156.16463414634146L754.5365853658536 225.41463414634146L632.2365853658537 225.41463414634146" stroke="#323232" stroke-width="1.5" fill="none" marker-end="url(#SvgjsMarker1087)"></path></g><g id="SvgjsG1089"><path id="SvgjsPath1090" d="M420.0365853658537 65.3841463414634L420.0365853658537 89.02439024390245L420.0365853658537 89.02439024390245L420.0365853658537 110.71463414634147" stroke="#323232" stroke-width="1.5" fill="none" marker-end="url(#SvgjsMarker1091)"></path></g></svg>