<svg id="SvgjsSvg1006" width="830.4705963134766" height="354.2058868408203" xmlns="http://www.w3.org/2000/svg" version="1.1" xmlns:xlink="http://www.w3.org/1999/xlink" xmlns:svgjs="http://svgjs.com/svgjs"><defs id="SvgjsDefs1007"><pattern patternUnits="userSpaceOnUse" id="pattern_mark_0" width="300" height="300"><text x="150" y="100" fill="rgba(229,229,229,0.8)" font-size="18" transform="rotate(-45, 150, 150)" style="dominant-baseline: middle; text-anchor: middle;"></text></pattern><pattern patternUnits="userSpaceOnUse" id="pattern_mark_1" width="300" height="300"><text x="150" y="200" fill="rgba(229,229,229,0.8)" font-size="18" transform="rotate(-45, 150, 150)" style="dominant-baseline: middle; text-anchor: middle;"></text></pattern><marker id="SvgjsMarker1049" markerWidth="13" markerHeight="9" refX="9.5" refY="4.5" viewBox="0 0 13 9" orient="auto" markerUnits="userSpaceOnUse" stroke-dasharray="0,0"><path id="SvgjsPath1050" d="M0,0 L13,4.5 L0,9 L0,0" fill="#323232" stroke="#323232" stroke-width="1"></path></marker><marker id="SvgjsMarker1057" markerWidth="13" markerHeight="9" refX="9.5" refY="4.5" viewBox="0 0 13 9" orient="auto" markerUnits="userSpaceOnUse" stroke-dasharray="0,0"><path id="SvgjsPath1058" d="M0,0 L13,4.5 L0,9 L0,0" fill="#323232" stroke="#323232" stroke-width="1"></path></marker><marker id="SvgjsMarker1065" markerWidth="13" markerHeight="9" refX="9.5" refY="4.5" viewBox="0 0 13 9" orient="auto" markerUnits="userSpaceOnUse" stroke-dasharray="0,0"><path id="SvgjsPath1066" d="M0,0 L13,4.5 L0,9 L0,0" fill="#323232" stroke="#323232" stroke-width="1"></path></marker><marker id="SvgjsMarker1073" markerWidth="13" markerHeight="9" refX="3.5" refY="4.5" viewBox="0 0 13 9" orient="auto" markerUnits="userSpaceOnUse" stroke-dasharray="0,0"><path id="SvgjsPath1074" d="M13,0 L0,4.5 L13,9 L13,0" fill="#323232" stroke="#323232" stroke-width="1"></path></marker><marker id="SvgjsMarker1101" markerWidth="13" markerHeight="9" refX="9.5" refY="4.5" viewBox="0 0 13 9" orient="auto" markerUnits="userSpaceOnUse" stroke-dasharray="0,0"><path id="SvgjsPath1102" d="M0,0 L13,4.5 L0,9 L0,0" fill="#323232" stroke="#323232" stroke-width="1"></path></marker><marker id="SvgjsMarker1109" markerWidth="13" markerHeight="9" refX="9.5" refY="4.5" viewBox="0 0 13 9" orient="auto" markerUnits="userSpaceOnUse" stroke-dasharray="0,0"><path id="SvgjsPath1110" d="M0,0 L13,4.5 L0,9 L0,0" fill="#323232" stroke="#323232" stroke-width="1"></path></marker><marker id="SvgjsMarker1113" markerWidth="13" markerHeight="9" refX="9.5" refY="4.5" viewBox="0 0 13 9" orient="auto" markerUnits="userSpaceOnUse" stroke-dasharray="0,0"><path id="SvgjsPath1114" d="M0,0 L13,4.5 L0,9 L0,0" fill="#323232" stroke="#323232" stroke-width="1"></path></marker></defs><rect id="svgbackgroundid" width="830.4705963134766" height="354.2058868408203" fill="transparent"></rect><rect id="SvgjsRect1009" width="830.4705963134766" height="354.2058868408203" fill="url(#pattern_mark_0)"></rect><rect id="SvgjsRect1010" width="830.4705963134766" height="354.2058868408203" fill="url(#pattern_mark_1)"></rect><g id="SvgjsG1011" transform="translate(25,25.794113159179688)"><path id="SvgjsPath1012" d="M 0 0L 780.4705963134766 0L 780.4705963134766 303.4117736816406L 0 303.4117736816406Z" stroke="rgba(33,41,48,1)" stroke-width="1.5" fill-opacity="1" fill="#ded9d7"></path><g id="SvgjsG1013"><text id="SvgjsText1014" font-family="&quot;Comic Sans MS&quot;" text-anchor="middle" font-size="13px" width="761px" fill="#323232" font-weight="700" align="middle" lineHeight="125%" anchor="middle" family="&quot;Comic Sans MS&quot;" size="13px" weight="700" font-style="" opacity="1" y="141.0808868408203" transform="rotate(0)"></text></g></g><g id="SvgjsG1015" transform="translate(63,150.5)"><path id="SvgjsPath1016" d="M 0 0L 96 0L 96 54L 0 54Z" stroke="rgba(33,41,48,1)" stroke-width="1.5" fill-opacity="1" fill="#d2d6f9"></path><g id="SvgjsG1017"><text id="SvgjsText1018" font-family="&quot;Comic Sans MS&quot;" text-anchor="middle" font-size="13px" width="76px" fill="#323232" font-weight="700" align="middle" lineHeight="125%" anchor="middle" family="&quot;Comic Sans MS&quot;" size="13px" weight="700" font-style="" opacity="1" y="16.375" transform="rotate(0)"><tspan id="SvgjsTspan1019" dy="16.25" x="48"><tspan id="SvgjsTspan1020" style="">Java程序</tspan></tspan></text></g></g><g id="SvgjsG1021" transform="translate(298.5771942138672,150.5)"><path id="SvgjsPath1022" d="M 0 0L 96 0L 96 54L 0 54Z" stroke="rgba(33,41,48,1)" stroke-width="1.5" fill-opacity="1" fill="#f6edc1"></path><g id="SvgjsG1023"><text id="SvgjsText1024" font-family="&quot;Comic Sans MS&quot;" text-anchor="middle" font-size="13px" width="76px" fill="#323232" font-weight="700" align="middle" lineHeight="125%" anchor="middle" family="&quot;Comic Sans MS&quot;" size="13px" weight="700" font-style="" opacity="1" y="16.375" transform="rotate(0)"><tspan id="SvgjsTspan1025" dy="16.25" x="48"><tspan id="SvgjsTspan1026" style="">Mycat</tspan></tspan></text></g></g><g id="SvgjsG1027" transform="translate(534.1543884277344,65)"><path id="SvgjsPath1028" d="M 0 11.666666666666666L 0 68C 0 84 70 84 70 68L 70 11.666666666666666C 70 -3.1818181818181817 0 -3.1818181818181817 0 11.666666666666666ZM 0 11.666666666666666C 0 26.25 70 26.25 70 11.666666666666666C 70 26.25 0 26.25 0 11.666666666666666" stroke="rgba(33,41,48,1)" stroke-width="1.5" fill-opacity="1" fill="#a6aef3"></path><g id="SvgjsG1029"><text id="SvgjsText1030" font-family="&quot;Comic Sans MS&quot;" text-anchor="middle" font-size="13px" width="70px" fill="#323232" font-weight="700" align="middle" lineHeight="125%" anchor="middle" family="&quot;Comic Sans MS&quot;" size="13px" weight="700" font-style="" opacity="1" y="4.875" transform="rotate(0)"><tspan id="SvgjsTspan1031" dy="16.25" x="35"><tspan id="SvgjsTspan1032" style=""> </tspan></tspan><tspan id="SvgjsTspan1033" dy="16.25" x="35"><tspan id="SvgjsTspan1034" style=""> </tspan></tspan><tspan id="SvgjsTspan1035" dy="16.25" x="35"><tspan id="SvgjsTspan1036" style="">Master</tspan></tspan></text></g></g><g id="SvgjsG1037" transform="translate(534.1543884277344,210)"><path id="SvgjsPath1038" d="M 0 11.666666666666666L 0 68C 0 84 70 84 70 68L 70 11.666666666666666C 70 -3.1818181818181817 0 -3.1818181818181817 0 11.666666666666666ZM 0 11.666666666666666C 0 26.25 70 26.25 70 11.666666666666666C 70 26.25 0 26.25 0 11.666666666666666" stroke="rgba(33,41,48,1)" stroke-width="1.5" fill-opacity="1" fill="#a6aef3"></path><g id="SvgjsG1039"><text id="SvgjsText1040" font-family="&quot;Comic Sans MS&quot;" text-anchor="middle" font-size="13px" width="70px" fill="#323232" font-weight="700" align="middle" lineHeight="125%" anchor="middle" family="&quot;Comic Sans MS&quot;" size="13px" weight="700" font-style="" opacity="1" y="4.875" transform="rotate(0)"><tspan id="SvgjsTspan1041" dy="16.25" x="35"><tspan id="SvgjsTspan1042" style=""> </tspan></tspan><tspan id="SvgjsTspan1043" dy="16.25" x="35"><tspan id="SvgjsTspan1044" style=""> </tspan></tspan><tspan id="SvgjsTspan1045" dy="16.25" x="35"><tspan id="SvgjsTspan1046" style="">Slave</tspan></tspan></text></g></g><g id="SvgjsG1047"><path id="SvgjsPath1048" d="M159.75 177.5L228.7885971069336 177.5L228.7885971069336 177.5L295.8771942138672 177.5" stroke="#323232" stroke-width="1.5" fill="none" marker-end="url(#SvgjsMarker1049)"></path><rect id="SvgjsRect1051" width="91" height="18" x="178.53637067690994" y="168.5" fill="#ffffff"></rect><text id="SvgjsText1052" font-family="&quot;Comic Sans MS&quot;" text-anchor="middle" font-size="13px" width="91px" fill="#323232" font-weight="700" align="top" lineHeight="16px" anchor="middle" family="&quot;Comic Sans MS&quot;" size="13px" weight="700" font-style="" opacity="1" y="165.875" transform="rotate(0)"><tspan id="SvgjsTspan1053" dy="16.25" x="224.03637067690994"><tspan id="SvgjsTspan1054" style="">作为数据源访问</tspan></tspan></text></g><g id="SvgjsG1055"><path id="SvgjsPath1056" d="M395.24276316819703 177.1542862932538L531.7583401921468 106.2445693442865" stroke="#323232" stroke-width="1.5" fill="none" marker-end="url(#SvgjsMarker1057)"></path><rect id="SvgjsRect1059" width="39" height="18" x="446.57442023212747" y="131.36249400900425" fill="#ffffff"></rect><text id="SvgjsText1060" font-family="&quot;Comic Sans MS&quot;" text-anchor="middle" font-size="13px" width="39px" fill="#323232" font-weight="700" align="top" lineHeight="16px" anchor="middle" family="&quot;Comic Sans MS&quot;" size="13px" weight="700" font-style="" opacity="1" y="128.73749400900425" transform="rotate(0)"><tspan id="SvgjsTspan1061" dy="16.25" x="466.07442023212747"><tspan id="SvgjsTspan1062" style="">写请求</tspan></tspan></text></g><g id="SvgjsG1063"><path id="SvgjsPath1064" d="M395.24276316819703 177.8457137067462L531.7583401921468 248.75543065571355" stroke="#323232" stroke-width="1.5" fill="none" marker-end="url(#SvgjsMarker1065)"></path><rect id="SvgjsRect1067" width="39" height="18" x="438.24724312058663" y="201.31215510550896" fill="#ffffff"></rect><text id="SvgjsText1068" font-family="&quot;Comic Sans MS&quot;" text-anchor="middle" font-size="13px" width="39px" fill="#323232" font-weight="700" align="top" lineHeight="16px" anchor="middle" family="&quot;Comic Sans MS&quot;" size="13px" weight="700" font-style="" opacity="1" y="198.68715510550896" transform="rotate(0)"><tspan id="SvgjsTspan1069" dy="16.25" x="457.74724312058663"><tspan id="SvgjsTspan1070" style="">读请求</tspan></tspan></text></g><g id="SvgjsG1071"><path id="SvgjsPath1072" d="M569.1543884277344 147.70000000000005L569.1543884277344 209.25" stroke="#323232" stroke-width="1.5" fill="none" marker-start="url(#SvgjsMarker1073)"></path><rect id="SvgjsRect1075" width="98" height="18" x="520.1543884277344" y="174.09820353287918" fill="#ffffff"></rect><text id="SvgjsText1076" font-family="&quot;Comic Sans MS&quot;" text-anchor="middle" font-size="13px" width="98px" fill="#323232" font-weight="700" align="top" lineHeight="16px" anchor="middle" family="&quot;Comic Sans MS&quot;" size="13px" weight="700" font-style="" opacity="1" y="171.47320353287918" transform="rotate(0)"><tspan id="SvgjsTspan1077" dy="16.25" x="569.1543884277344"><tspan id="SvgjsTspan1078" style="">MySQL主从复制</tspan></tspan></text></g><g id="SvgjsG1079" transform="translate(679.1543884277344,65)"><path id="SvgjsPath1080" d="M 0 11.666666666666666L 0 68C 0 84 70 84 70 68L 70 11.666666666666666C 70 -3.1818181818181817 0 -3.1818181818181817 0 11.666666666666666ZM 0 11.666666666666666C 0 26.25 70 26.25 70 11.666666666666666C 70 26.25 0 26.25 0 11.666666666666666" stroke="rgba(33,41,48,1)" stroke-width="1.5" fill-opacity="1" fill="#a6aef3"></path><g id="SvgjsG1081"><text id="SvgjsText1082" font-family="&quot;Comic Sans MS&quot;" text-anchor="middle" font-size="13px" width="70px" fill="#323232" font-weight="700" align="middle" lineHeight="125%" anchor="middle" family="&quot;Comic Sans MS&quot;" size="13px" weight="700" font-style="" opacity="1" y="4.875" transform="rotate(0)"><tspan id="SvgjsTspan1083" dy="16.25" x="35"><tspan id="SvgjsTspan1084" style=""> </tspan></tspan><tspan id="SvgjsTspan1085" dy="16.25" x="35"><tspan id="SvgjsTspan1086" style=""> </tspan></tspan><tspan id="SvgjsTspan1087" dy="16.25" x="35"><tspan id="SvgjsTspan1088" style="">Master</tspan></tspan></text></g></g><g id="SvgjsG1089" transform="translate(679.1543884277344,210)"><path id="SvgjsPath1090" d="M 0 11.666666666666666L 0 68C 0 84 70 84 70 68L 70 11.666666666666666C 70 -3.1818181818181817 0 -3.1818181818181817 0 11.666666666666666ZM 0 11.666666666666666C 0 26.25 70 26.25 70 11.666666666666666C 70 26.25 0 26.25 0 11.666666666666666" stroke="rgba(33,41,48,1)" stroke-width="1.5" fill-opacity="1" fill="#a6aef3"></path><g id="SvgjsG1091"><text id="SvgjsText1092" font-family="&quot;Comic Sans MS&quot;" text-anchor="middle" font-size="13px" width="70px" fill="#323232" font-weight="700" align="middle" lineHeight="125%" anchor="middle" family="&quot;Comic Sans MS&quot;" size="13px" weight="700" font-style="" opacity="1" y="4.875" transform="rotate(0)"><tspan id="SvgjsTspan1093" dy="16.25" x="35"><tspan id="SvgjsTspan1094" style=""> </tspan></tspan><tspan id="SvgjsTspan1095" dy="16.25" x="35"><tspan id="SvgjsTspan1096" style=""> </tspan></tspan><tspan id="SvgjsTspan1097" dy="16.25" x="35"><tspan id="SvgjsTspan1098" style="">Slave</tspan></tspan></text></g></g><g id="SvgjsG1099"><path id="SvgjsPath1100" d="M714.1543884277344 209.25L714.1543884277344 147.70000000000005" stroke="#323232" stroke-width="1.5" fill="none" marker-end="url(#SvgjsMarker1101)"></path><rect id="SvgjsRect1103" width="98" height="18" x="665.1543884277344" y="175.15653846153847" fill="#ffffff"></rect><text id="SvgjsText1104" font-family="&quot;Comic Sans MS&quot;" text-anchor="middle" font-size="13px" width="98px" fill="#323232" font-weight="700" align="top" lineHeight="16px" anchor="middle" family="&quot;Comic Sans MS&quot;" size="13px" weight="700" font-style="" opacity="1" y="172.53153846153847" transform="rotate(0)"><tspan id="SvgjsTspan1105" dy="16.25" x="714.1543884277344"><tspan id="SvgjsTspan1106" style="">MySQL主从复制</tspan></tspan></text></g><g id="SvgjsG1107"><path id="SvgjsPath1108" d="M604.5735321044922 86.85293197631836L677.1235321044921 86.85293197631836" stroke="#323232" stroke-width="1.5" fill="none" marker-end="url(#SvgjsMarker1109)"></path></g><g id="SvgjsG1111"><path id="SvgjsPath1112" d="M679.0735321044922 119.85293197631836L606.5235321044922 119.85293197631836" stroke="#323232" stroke-width="1.5" fill="none" marker-end="url(#SvgjsMarker1113)"></path></g><g id="SvgjsG1115" transform="translate(596.8235321044922,82.85293197631836)"><path id="SvgjsPath1116" d="M 0 0L 100 0L 100 40L 0 40Z" stroke="none" fill="none"></path><g id="SvgjsG1117"><text id="SvgjsText1118" font-family="&quot;Comic Sans MS&quot;" text-anchor="middle" font-size="13px" width="100px" fill="#323232" font-weight="700" align="middle" lineHeight="125%" anchor="middle" family="&quot;Comic Sans MS&quot;" size="13px" weight="700" font-style="" opacity="1" y="9.375" transform="rotate(0)"><tspan id="SvgjsTspan1119" dy="16.25" x="50"><tspan id="SvgjsTspan1120" style="">相互复制</tspan></tspan></text></g></g><g id="SvgjsG1121" transform="translate(29.058822631835938,25)"><path id="SvgjsPath1122" d="M 0 0L 100 0L 100 40L 0 40Z" stroke="none" fill="none"></path><g id="SvgjsG1123"><text id="SvgjsText1124" font-family="&quot;Microsoft YaHei&quot;, 微软雅黑, Arial" text-anchor="middle" font-size="15px" width="100px" fill="#323232" font-weight="400" align="middle" lineHeight="125%" anchor="middle" family="&quot;Microsoft YaHei&quot;, 微软雅黑, Arial" size="15px" weight="400" font-style="" opacity="1" y="7.625" transform="rotate(0)"><tspan id="SvgjsTspan1125" dy="18.75" x="50"><tspan id="SvgjsTspan1126" style="font-weight: bold;">双主双从模式</tspan></tspan></text></g></g><g id="SvgjsG1127"></g></svg>