<svg id="SvgjsSvg1006" width="735" height="286.1176470588235" xmlns="http://www.w3.org/2000/svg" version="1.1" xmlns:xlink="http://www.w3.org/1999/xlink" xmlns:svgjs="http://svgjs.com/svgjs"><defs id="SvgjsDefs1007"><pattern patternUnits="userSpaceOnUse" id="pattern_mark_0" width="300" height="300"><text x="150" y="100" fill="rgba(229,229,229,0.8)" font-size="18" transform="rotate(-45, 150, 150)" style="dominant-baseline: middle; text-anchor: middle;"></text></pattern><pattern patternUnits="userSpaceOnUse" id="pattern_mark_1" width="300" height="300"><text x="150" y="200" fill="rgba(229,229,229,0.8)" font-size="18" transform="rotate(-45, 150, 150)" style="dominant-baseline: middle; text-anchor: middle;"></text></pattern></defs><rect id="svgbackgroundid" width="735" height="286.1176470588235" fill="transparent"></rect><rect id="SvgjsRect1009" width="735" height="286.1176470588235" fill="url(#pattern_mark_0)"></rect><rect id="SvgjsRect1010" width="735" height="286.1176470588235" fill="url(#pattern_mark_1)"></rect><g id="SvgjsG1011" transform="translate(190,124.35294117647055)"><path id="SvgjsPath1012" d="M 0 68.38235294117646C 0 -22.794117647058822 359.9607843137255 -22.794117647058822 359.9607843137255 68.38235294117646C 359.9607843137255 159.55882352941174 0 159.55882352941174 0 68.38235294117646Z" stroke="rgba(33,41,48,1)" stroke-width="1.5" fill-opacity="1" fill="#ffffff"></path><g id="SvgjsG1013"><text id="SvgjsText1014" font-family="&quot;Comic Sans MS&quot;" text-anchor="middle" font-size="13px" width="340px" fill="#323232" font-weight="400" align="middle" lineHeight="125%" anchor="middle" family="&quot;Comic Sans MS&quot;" size="13px" weight="400" font-style="" opacity="1" y="57.757352941176464" transform="rotate(0)"><tspan id="SvgjsTspan1015" dy="16.25" x="180"><tspan id="SvgjsTspan1016" style="">                                                   OBJ_ENCODING_HT</tspan></tspan></text></g></g><g id="SvgjsG1017" transform="translate(190,142.35294117647055)"><path id="SvgjsPath1018" d="M 0 49.65686274509801C 0 -16.552287581699336 191.33333333333337 -16.552287581699336 191.33333333333337 49.65686274509801C 191.33333333333337 115.86601307189535 0 115.86601307189535 0 49.65686274509801Z" stroke="rgba(33,41,48,1)" stroke-width="1.5" fill-opacity="1" fill="#ffffff"></path><g id="SvgjsG1019"><text id="SvgjsText1020" font-family="&quot;Comic Sans MS&quot;" text-anchor="middle" font-size="13px" width="172px" fill="#323232" font-weight="400" align="middle" lineHeight="125%" anchor="middle" family="&quot;Comic Sans MS&quot;" size="13px" weight="400" font-style="" opacity="1" y="39.03186274509801" transform="rotate(0)"><tspan id="SvgjsTspan1021" dy="16.25" x="96"><tspan id="SvgjsTspan1022" style="">                                   dict</tspan></tspan></text></g></g><g id="SvgjsG1023" transform="translate(190,157.35294117647055)"><path id="SvgjsPath1024" d="M 0 35C 0 -11.666666666666666 136.16322555512266 -11.666666666666666 136.16322555512266 35C 136.16322555512266 81.66666666666667 0 81.66666666666667 0 35Z" stroke="rgba(33,41,48,1)" stroke-width="1.5" fill-opacity="1" fill="#ffffff"></path><g id="SvgjsG1025"><text id="SvgjsText1026" font-family="&quot;Comic Sans MS&quot;" text-anchor="middle" font-size="13px" width="117px" fill="#323232" font-weight="400" align="middle" lineHeight="125%" anchor="middle" family="&quot;Comic Sans MS&quot;" size="13px" weight="400" font-style="" opacity="1" y="24.375" transform="rotate(0)"><tspan id="SvgjsTspan1027" dy="16.25" x="68.5"><tspan id="SvgjsTspan1028" style="">                    dictht</tspan></tspan></text></g></g><g id="SvgjsG1029" transform="translate(25,25)"><path id="SvgjsPath1030" d="M 0 4Q 0 0 4 0L 161 0Q 165 0 165 4L 165 50Q 165 54 161 54L 4 54Q 0 54 0 50Z" stroke="rgba(33,41,48,1)" stroke-width="1.5" fill-opacity="1" fill="#9ccfff"></path><g id="SvgjsG1031"><text id="SvgjsText1032" font-family="&quot;Comic Sans MS&quot;" text-anchor="middle" font-size="13px" width="145px" fill="#323232" font-weight="700" align="middle" lineHeight="125%" anchor="middle" family="&quot;Comic Sans MS&quot;" size="13px" weight="700" font-style="" opacity="1" y="7.875" transform="rotate(0)"><tspan id="SvgjsTspan1033" dy="16.25" x="82.5"><tspan id="SvgjsTspan1034" style="">OBJ_ENCODING_HT</tspan></tspan><tspan id="SvgjsTspan1035" dy="16.25" x="82.5"><tspan id="SvgjsTspan1036" style="">(宏观的HT编码)</tspan></tspan></text></g></g><g id="SvgjsG1037" transform="translate(260,25)"><path id="SvgjsPath1038" d="M 0 4Q 0 0 4 0L 96 0Q 100 0 100 4L 100 50Q 100 54 96 54L 4 54Q 0 54 0 50Z" stroke="rgba(33,41,48,1)" stroke-width="1.5" fill-opacity="1" fill="#9ccfff"></path><g id="SvgjsG1039"><text id="SvgjsText1040" font-family="&quot;Comic Sans MS&quot;" text-anchor="middle" font-size="13px" width="80px" fill="#323232" font-weight="700" align="middle" lineHeight="125%" anchor="middle" family="&quot;Comic Sans MS&quot;" size="13px" weight="700" font-style="" opacity="1" y="7.875" transform="rotate(0)"><tspan id="SvgjsTspan1041" dy="16.25" x="50"><tspan id="SvgjsTspan1042" style="">dict</tspan></tspan><tspan id="SvgjsTspan1043" dy="16.25" x="50"><tspan id="SvgjsTspan1044" style="">(字典)</tspan></tspan></text></g></g><g id="SvgjsG1045" transform="translate(420,25)"><path id="SvgjsPath1046" d="M 0 4Q 0 0 4 0L 106 0Q 110 0 110 4L 110 50Q 110 54 106 54L 4 54Q 0 54 0 50Z" stroke="rgba(33,41,48,1)" stroke-width="1.5" fill-opacity="1" fill="#9ccfff"></path><g id="SvgjsG1047"><text id="SvgjsText1048" font-family="&quot;Comic Sans MS&quot;" text-anchor="middle" font-size="13px" width="90px" fill="#323232" font-weight="700" align="middle" lineHeight="125%" anchor="middle" family="&quot;Comic Sans MS&quot;" size="13px" weight="700" font-style="" opacity="1" y="7.875" transform="rotate(0)"><tspan id="SvgjsTspan1049" dy="16.25" x="55"><tspan id="SvgjsTspan1050" style="">dictht</tspan></tspan><tspan id="SvgjsTspan1051" dy="16.25" x="55"><tspan id="SvgjsTspan1052" style="">(哈希表)</tspan></tspan></text></g></g><g id="SvgjsG1053" transform="translate(590,25)"><path id="SvgjsPath1054" d="M 0 4Q 0 0 4 0L 116 0Q 120 0 120 4L 120 50Q 120 54 116 54L 4 54Q 0 54 0 50Z" stroke="rgba(33,41,48,1)" stroke-width="1.5" fill-opacity="1" fill="#9ccfff"></path><g id="SvgjsG1055"><text id="SvgjsText1056" font-family="&quot;Comic Sans MS&quot;" text-anchor="middle" font-size="13px" width="100px" fill="#323232" font-weight="700" align="middle" lineHeight="125%" anchor="middle" family="&quot;Comic Sans MS&quot;" size="13px" weight="700" font-style="" opacity="1" y="7.875" transform="rotate(0)"><tspan id="SvgjsTspan1057" dy="16.25" x="60"><tspan id="SvgjsTspan1058" style="">dictEntry</tspan></tspan><tspan id="SvgjsTspan1059" dy="16.25" x="60"><tspan id="SvgjsTspan1060" style="">(哈希节点)</tspan></tspan></text></g></g><g id="SvgjsG1061" transform="translate(200.82989222178935,35.25)"><path id="SvgjsPath1062" d="M 0 11.055L 32.7632450331126 11.055L 32.7632450331126 0L 49.5132450331126 16.75L 32.7632450331126 33.5L 32.7632450331126 22.445L 0 22.445L 0 11.055Z" stroke="rgba(166,174,243,1)" stroke-width="1.5" fill-opacity="1" fill="#ffffff"></path><g id="SvgjsG1063"><text id="SvgjsText1064" font-family="&quot;Comic Sans MS&quot;" text-anchor="middle" font-size="13px" width="50px" fill="#323232" font-weight="400" align="middle" lineHeight="125%" anchor="middle" family="&quot;Comic Sans MS&quot;" size="13px" weight="400" font-style="" opacity="1" y="6.125" transform="rotate(0)"></text></g></g><g id="SvgjsG1065" transform="translate(365.24337748344374,35.25)"><path id="SvgjsPath1066" d="M 0 11.055L 32.7632450331126 11.055L 32.7632450331126 0L 49.5132450331126 16.75L 32.7632450331126 33.5L 32.7632450331126 22.445L 0 22.445L 0 11.055Z" stroke="rgba(166,174,243,1)" stroke-width="1.5" fill-opacity="1" fill="#ffffff"></path><g id="SvgjsG1067"><text id="SvgjsText1068" font-family="&quot;Comic Sans MS&quot;" text-anchor="middle" font-size="13px" width="50px" fill="#323232" font-weight="400" align="middle" lineHeight="125%" anchor="middle" family="&quot;Comic Sans MS&quot;" size="13px" weight="400" font-style="" opacity="1" y="6.125" transform="rotate(0)"></text></g></g><g id="SvgjsG1069" transform="translate(535.2433774834437,35.25)"><path id="SvgjsPath1070" d="M 0 11.055L 32.7632450331126 11.055L 32.7632450331126 0L 49.5132450331126 16.75L 32.7632450331126 33.5L 32.7632450331126 22.445L 0 22.445L 0 11.055Z" stroke="rgba(166,174,243,1)" stroke-width="1.5" fill-opacity="1" fill="#ffffff"></path><g id="SvgjsG1071"><text id="SvgjsText1072" font-family="&quot;Comic Sans MS&quot;" text-anchor="middle" font-size="13px" width="50px" fill="#323232" font-weight="400" align="middle" lineHeight="125%" anchor="middle" family="&quot;Comic Sans MS&quot;" size="13px" weight="400" font-style="" opacity="1" y="6.125" transform="rotate(0)"></text></g></g><g id="SvgjsG1073" transform="translate(190,170.35294117647055)"><path id="SvgjsPath1074" d="M 0 21.911764705882348C 0 -7.303921568627449 83.70588235294116 -7.303921568627449 83.70588235294116 21.911764705882348C 83.70588235294116 51.12745098039215 0 51.12745098039215 0 21.911764705882348Z" stroke="rgba(33,41,48,1)" stroke-width="1.5" fill-opacity="1" fill="#ffffff"></path><g id="SvgjsG1075"><text id="SvgjsText1076" font-family="&quot;Comic Sans MS&quot;" text-anchor="middle" font-size="13px" width="64px" fill="#323232" font-weight="400" align="middle" lineHeight="125%" anchor="middle" family="&quot;Comic Sans MS&quot;" size="13px" weight="400" font-style="" opacity="1" y="11.286764705882348" transform="rotate(0)"><tspan id="SvgjsTspan1077" dy="16.25" x="42"><tspan id="SvgjsTspan1078" style="">dictEntry</tspan></tspan></text></g></g></svg>