<svg id="SvgjsSvg1006" width="687" height="368" xmlns="http://www.w3.org/2000/svg" version="1.1" xmlns:xlink="http://www.w3.org/1999/xlink" xmlns:svgjs="http://svgjs.com/svgjs"><defs id="SvgjsDefs1007"><pattern patternUnits="userSpaceOnUse" id="pattern_mark_0" width="300" height="300"><text x="150" y="100" fill="rgba(229,229,229,0.8)" font-size="18" transform="rotate(-45, 150, 150)" style="dominant-baseline: middle; text-anchor: middle;"></text></pattern><pattern patternUnits="userSpaceOnUse" id="pattern_mark_1" width="300" height="300"><text x="150" y="200" fill="rgba(229,229,229,0.8)" font-size="18" transform="rotate(-45, 150, 150)" style="dominant-baseline: middle; text-anchor: middle;"></text></pattern><marker id="SvgjsMarker1043" markerWidth="16" markerHeight="12" refX="11" refY="6" viewBox="0 0 16 12" orient="auto" markerUnits="userSpaceOnUse" stroke-dasharray="0,0"><path id="SvgjsPath1044" d="M0,0 L16,6 L0,12 L0,0" fill="#f5cc00" stroke="#f5cc00" stroke-width="1"></path></marker><marker id="SvgjsMarker1047" markerWidth="16" markerHeight="12" refX="11" refY="6" viewBox="0 0 16 12" orient="auto" markerUnits="userSpaceOnUse" stroke-dasharray="0,0"><path id="SvgjsPath1048" d="M0,0 L16,6 L0,12 L0,0" fill="#f5cc00" stroke="#f5cc00" stroke-width="1"></path></marker><marker id="SvgjsMarker1051" markerWidth="16" markerHeight="12" refX="11" refY="6" viewBox="0 0 16 12" orient="auto" markerUnits="userSpaceOnUse" stroke-dasharray="0,0"><path id="SvgjsPath1052" d="M0,0 L16,6 L0,12 L0,0" fill="#f5cc00" stroke="#f5cc00" stroke-width="1"></path></marker><marker id="SvgjsMarker1055" markerWidth="16" markerHeight="12" refX="11" refY="6" viewBox="0 0 16 12" orient="auto" markerUnits="userSpaceOnUse" stroke-dasharray="0,0"><path id="SvgjsPath1056" d="M0,0 L16,6 L0,12 L0,0" fill="#f5cc00" stroke="#f5cc00" stroke-width="1"></path></marker></defs><rect id="svgbackgroundid" width="687" height="368" fill="transparent"></rect><rect id="SvgjsRect1009" width="687" height="368" fill="url(#pattern_mark_0)"></rect><rect id="SvgjsRect1010" width="687" height="368" fill="url(#pattern_mark_1)"></rect><g id="SvgjsG1011" transform="translate(312,56)"><path id="SvgjsPath1012" d="M 0 4Q 0 0 4 0L 146 0Q 150 0 150 4L 150 71Q 150 75 146 75L 4 75Q 0 75 0 71Z" stroke="rgba(33,41,48,1)" stroke-width="1.5" fill-opacity="1" fill="#e46226"></path><g id="SvgjsG1013"><text id="SvgjsText1014" font-family="&quot;Comic Sans MS&quot;" text-anchor="middle" font-size="20px" width="130px" fill="#ffffff" font-weight="700" align="middle" lineHeight="125%" anchor="middle" family="&quot;Comic Sans MS&quot;" size="20px" weight="700" font-style="" opacity="1" y="19.5" transform="rotate(0)"><tspan id="SvgjsTspan1015" dy="25" x="75"><tspan id="SvgjsTspan1016" style="">function</tspan></tspan></text></g></g><g id="SvgjsG1017" transform="translate(512,191)"><path id="SvgjsPath1018" d="M 0 4Q 0 0 4 0L 146 0Q 150 0 150 4L 150 71Q 150 75 146 75L 4 75Q 0 75 0 71Z" stroke="rgba(33,41,48,1)" stroke-width="1.5" fill-opacity="1" fill="#e89300"></path><g id="SvgjsG1019"><text id="SvgjsText1020" font-family="&quot;Comic Sans MS&quot;" text-anchor="middle" font-size="20px" width="130px" fill="#ffffff" font-weight="700" align="middle" lineHeight="125%" anchor="middle" family="&quot;Comic Sans MS&quot;" size="20px" weight="700" font-style="" opacity="1" y="19.5" transform="rotate(0)"><tspan id="SvgjsTspan1021" dy="25" x="75"><tspan id="SvgjsTspan1022" style="">result</tspan></tspan></text></g></g><g id="SvgjsG1023" transform="translate(25,158)"><path id="SvgjsPath1024" d="M 0 4Q 0 0 4 0L 96 0Q 100 0 100 4L 100 36Q 100 40 96 40L 4 40Q 0 40 0 36Z" stroke="rgba(33,41,48,1)" stroke-width="1.5" fill-opacity="1" fill="#366300"></path><g id="SvgjsG1025"><text id="SvgjsText1026" font-family="&quot;Comic Sans MS&quot;" text-anchor="middle" font-size="13px" width="80px" fill="#ffffff" font-weight="700" align="middle" lineHeight="125%" anchor="middle" family="&quot;Comic Sans MS&quot;" size="13px" weight="700" font-style="" opacity="1" y="9.375" transform="rotate(0)"><tspan id="SvgjsTspan1027" dy="16.25" x="50"><tspan id="SvgjsTspan1028" style="">parameter 1</tspan></tspan></text></g></g><g id="SvgjsG1029" transform="translate(89,208.5)"><path id="SvgjsPath1030" d="M 0 4Q 0 0 4 0L 96 0Q 100 0 100 4L 100 36Q 100 40 96 40L 4 40Q 0 40 0 36Z" stroke="rgba(33,41,48,1)" stroke-width="1.5" fill-opacity="1" fill="#366300"></path><g id="SvgjsG1031"><text id="SvgjsText1032" font-family="&quot;Comic Sans MS&quot;" text-anchor="middle" font-size="13px" width="80px" fill="#ffffff" font-weight="700" align="middle" lineHeight="125%" anchor="middle" family="&quot;Comic Sans MS&quot;" size="13px" weight="700" font-style="" opacity="1" y="9.375" transform="rotate(0)"><tspan id="SvgjsTspan1033" dy="16.25" x="50"><tspan id="SvgjsTspan1034" style="">parameter 2</tspan></tspan></text></g></g><g id="SvgjsG1035" transform="translate(155,303)"><path id="SvgjsPath1036" d="M 0 4Q 0 0 4 0L 96 0Q 100 0 100 4L 100 36Q 100 40 96 40L 4 40Q 0 40 0 36Z" stroke="rgba(33,41,48,1)" stroke-width="1.5" fill-opacity="1" fill="#366300"></path><g id="SvgjsG1037"><text id="SvgjsText1038" font-family="&quot;Comic Sans MS&quot;" text-anchor="middle" font-size="13px" width="80px" fill="#ffffff" font-weight="700" align="middle" lineHeight="125%" anchor="middle" family="&quot;Comic Sans MS&quot;" size="13px" weight="700" font-style="" opacity="1" y="9.375" transform="rotate(0)"><tspan id="SvgjsTspan1039" dy="16.25" x="50"><tspan id="SvgjsTspan1040" style="">parameter 3</tspan></tspan></text></g></g><g id="SvgjsG1041"><path id="SvgjsPath1042" d="M75 157.25L75 68L307.35 68" stroke="#f5cc00" stroke-width="3" fill="none" marker-end="url(#SvgjsMarker1043)"></path></g><g id="SvgjsG1045"><path id="SvgjsPath1046" d="M139 207.75L139 93.5L307.35 93.5" stroke="#f5cc00" stroke-width="3" fill="none" marker-end="url(#SvgjsMarker1047)"></path></g><g id="SvgjsG1049"><path id="SvgjsPath1050" d="M205 302.25L205 119L307.35 119" stroke="#f5cc00" stroke-width="3" fill="none" marker-end="url(#SvgjsMarker1051)"></path></g><g id="SvgjsG1053"><path id="SvgjsPath1054" d="M462.75 93.5L587 93.5L587 186.35" stroke="#f5cc00" stroke-width="3" fill="none" marker-end="url(#SvgjsMarker1055)"></path></g><g id="SvgjsG1057" transform="translate(110,25)"><path id="SvgjsPath1058" d="M 0 0L 100 0L 100 40L 0 40Z" stroke="none" fill="none"></path><g id="SvgjsG1059"><text id="SvgjsText1060" font-family="&quot;Comic Sans MS&quot;" text-anchor="middle" font-size="20px" width="100px" fill="#323232" font-weight="400" align="middle" lineHeight="125%" anchor="middle" family="&quot;Comic Sans MS&quot;" size="20px" weight="400" font-style="" opacity="1" y="2" transform="rotate(0)"><tspan id="SvgjsTspan1061" dy="25" x="50"><tspan id="SvgjsTspan1062" style="font-weight: bold;">Input</tspan></tspan></text></g></g><g id="SvgjsG1063" transform="translate(472,52)"><path id="SvgjsPath1064" d="M 0 0L 100 0L 100 40L 0 40Z" stroke="none" fill="none"></path><g id="SvgjsG1065"><text id="SvgjsText1066" font-family="&quot;Comic Sans MS&quot;" text-anchor="middle" font-size="20px" width="100px" fill="#323232" font-weight="400" align="middle" lineHeight="125%" anchor="middle" family="&quot;Comic Sans MS&quot;" size="20px" weight="400" font-style="" opacity="1" y="2" transform="rotate(0)"><tspan id="SvgjsTspan1067" dy="25" x="50"><tspan id="SvgjsTspan1068" style="font-weight: bold;">Output</tspan></tspan></text></g></g><g id="SvgjsG1069" transform="translate(341,130)"><path id="SvgjsPath1070" d="M 0 0L 100 0L 100 40L 0 40Z" stroke="none" fill="none"></path><g id="SvgjsG1071"><text id="SvgjsText1072" font-family="&quot;Comic Sans MS&quot;" text-anchor="middle" font-size="20px" width="100px" fill="#323232" font-weight="400" align="middle" lineHeight="125%" anchor="middle" family="&quot;Comic Sans MS&quot;" size="20px" weight="400" font-style="" opacity="1" y="2" transform="rotate(0)"><tspan id="SvgjsTspan1073" dy="25" x="50"><tspan id="SvgjsTspan1074" style="font-weight: bold;">Execute</tspan></tspan></text></g></g><g id="SvgjsG1075" transform="translate(110,251.25)"><path id="SvgjsPath1076" d="M 0 0L 100 0L 100 49L 0 49Z" stroke="none" fill="none"></path><g id="SvgjsG1077"><text id="SvgjsText1078" font-family="微软雅黑" text-anchor="middle" font-size="13px" width="100px" fill="#323232" font-weight="400" align="middle" lineHeight="125%" anchor="middle" family="微软雅黑" size="13px" weight="400" font-style="" opacity="1" y="-2.625" transform="rotate(0)"><tspan id="SvgjsTspan1079" dy="16.25" x="50"><tspan id="SvgjsTspan1080" style="fill: rgb(56, 101, 0);">■</tspan></tspan><tspan id="SvgjsTspan1081" dy="16.25" x="50"><tspan id="SvgjsTspan1082" style="fill: rgb(56, 101, 0);">    ■</tspan></tspan><tspan id="SvgjsTspan1083" dy="16.25" x="50"><tspan id="SvgjsTspan1084" style="fill: rgb(56, 101, 0);">        ■</tspan></tspan></text></g></g><g id="SvgjsG1085" transform="translate(312,248.5)"><path id="SvgjsPath1086" d="M 0 0L 134 0L 134 40L 0 40Z" stroke="none" fill="none"></path><g id="SvgjsG1087"><text id="SvgjsText1088" font-family="&quot;Comic Sans MS&quot;" text-anchor="middle" font-size="15px" width="134px" fill="#323232" font-weight="400" align="middle" lineHeight="125%" anchor="middle" family="&quot;Comic Sans MS&quot;" size="15px" weight="400" font-style="" opacity="1" y="7.625" transform="rotate(0)"><tspan id="SvgjsTspan1089" dy="18.75" x="67"><tspan id="SvgjsTspan1090" style="font-weight: bold;">y = f(x1,...,xn)</tspan></tspan></text></g></g></svg>