<svg id="SvgjsSvg1006" width="513.5" height="287.5" xmlns="http://www.w3.org/2000/svg" version="1.1" xmlns:xlink="http://www.w3.org/1999/xlink" xmlns:svgjs="http://svgjs.com/svgjs"><defs id="SvgjsDefs1007"><pattern patternUnits="userSpaceOnUse" id="pattern_mark_0" width="300" height="300"><text x="150" y="100" fill="rgba(229,229,229,0.8)" font-size="18" transform="rotate(-45, 150, 150)" style="dominant-baseline: middle; text-anchor: middle;"></text></pattern><pattern patternUnits="userSpaceOnUse" id="pattern_mark_1" width="300" height="300"><text x="150" y="200" fill="rgba(229,229,229,0.8)" font-size="18" transform="rotate(-45, 150, 150)" style="dominant-baseline: middle; text-anchor: middle;"></text></pattern><marker id="SvgjsMarker1057" markerWidth="13" markerHeight="9" refX="9.5" refY="4.5" viewBox="0 0 13 9" orient="auto" markerUnits="userSpaceOnUse" stroke-dasharray="0,0"><path id="SvgjsPath1058" d="M0,0 L13,4.5 L0,9 L0,0" fill="#323232" stroke="#323232" stroke-width="1"></path></marker><marker id="SvgjsMarker1069" markerWidth="13" markerHeight="9" refX="9.5" refY="4.5" viewBox="0 0 13 9" orient="auto" markerUnits="userSpaceOnUse" stroke-dasharray="0,0"><path id="SvgjsPath1070" d="M0,0 L13,4.5 L0,9 L0,0" fill="#323232" stroke="#323232" stroke-width="1"></path></marker><marker id="SvgjsMarker1081" markerWidth="13" markerHeight="9" refX="9.5" refY="4.5" viewBox="0 0 13 9" orient="auto" markerUnits="userSpaceOnUse" stroke-dasharray="0,0"><path id="SvgjsPath1082" d="M0,0 L13,4.5 L0,9 L0,0" fill="#323232" stroke="#323232" stroke-width="1"></path></marker><marker id="SvgjsMarker1093" markerWidth="13" markerHeight="9" refX="9.5" refY="4.5" viewBox="0 0 13 9" orient="auto" markerUnits="userSpaceOnUse" stroke-dasharray="0,0"><path id="SvgjsPath1094" d="M0,0 L13,4.5 L0,9 L0,0" fill="#323232" stroke="#323232" stroke-width="1"></path></marker></defs><rect id="svgbackgroundid" width="513.5" height="287.5" fill="transparent"></rect><rect id="SvgjsRect1009" width="513.5" height="287.5" fill="url(#pattern_mark_0)"></rect><rect id="SvgjsRect1010" width="513.5" height="287.5" fill="url(#pattern_mark_1)"></rect><g id="SvgjsG1011" transform="translate(44.5,57.5)"><path id="SvgjsPath1012" d="M 0 4Q 0 0 4 0L 129 0Q 133 0 133 4L 133 201Q 133 205 129 205L 4 205Q 0 205 0 201Z" stroke="rgba(33,41,48,1)" stroke-width="1.5" fill-opacity="1" fill="#ffffff"></path><g id="SvgjsG1013"><text id="SvgjsText1014" font-family="&quot;Comic Sans MS&quot;" text-anchor="middle" font-size="13px" width="113px" fill="#323232" font-weight="400" align="middle" lineHeight="125%" anchor="middle" family="&quot;Comic Sans MS&quot;" size="13px" weight="400" font-style="" opacity="1" y="91.875" transform="rotate(0)"></text></g></g><g id="SvgjsG1015" transform="translate(63.5,134.5)"><path id="SvgjsPath1016" d="M 0 4Q 0 0 4 0L 92 0Q 96 0 96 4L 96 26Q 96 30 92 30L 4 30Q 0 30 0 26Z" stroke="rgba(33,41,48,1)" stroke-width="1.5" fill-opacity="1" fill="#ffffff"></path><g id="SvgjsG1017"><text id="SvgjsText1018" font-family="&quot;Comic Sans MS&quot;" text-anchor="middle" font-size="13px" width="76px" fill="#323232" font-weight="400" align="middle" lineHeight="125%" anchor="middle" family="&quot;Comic Sans MS&quot;" size="13px" weight="400" font-style="" opacity="1" y="4.375" transform="rotate(0)"><tspan id="SvgjsTspan1019" dy="16.25" x="48"><tspan id="SvgjsTspan1020" style="">int alloc</tspan></tspan></text></g></g><g id="SvgjsG1021" transform="translate(63.5,90.5)"><path id="SvgjsPath1022" d="M 0 4Q 0 0 4 0L 92 0Q 96 0 96 4L 96 26Q 96 30 92 30L 4 30Q 0 30 0 26Z" stroke="rgba(33,41,48,1)" stroke-width="1.5" fill-opacity="1" fill="#ffffff"></path><g id="SvgjsG1023"><text id="SvgjsText1024" font-family="&quot;Comic Sans MS&quot;" text-anchor="middle" font-size="13px" width="76px" fill="#323232" font-weight="400" align="middle" lineHeight="125%" anchor="middle" family="&quot;Comic Sans MS&quot;" size="13px" weight="400" font-style="" opacity="1" y="4.375" transform="rotate(0)"><tspan id="SvgjsTspan1025" dy="16.25" x="48"><tspan id="SvgjsTspan1026" style="">int len</tspan></tspan></text></g></g><g id="SvgjsG1027" transform="translate(63.5,178.5)"><path id="SvgjsPath1028" d="M 0 4Q 0 0 4 0L 92 0Q 96 0 96 4L 96 26Q 96 30 92 30L 4 30Q 0 30 0 26Z" stroke="rgba(33,41,48,1)" stroke-width="1.5" fill-opacity="1" fill="#ffffff"></path><g id="SvgjsG1029"><text id="SvgjsText1030" font-family="&quot;Comic Sans MS&quot;" text-anchor="middle" font-size="13px" width="76px" fill="#323232" font-weight="400" align="middle" lineHeight="125%" anchor="middle" family="&quot;Comic Sans MS&quot;" size="13px" weight="400" font-style="" opacity="1" y="4.375" transform="rotate(0)"><tspan id="SvgjsTspan1031" dy="16.25" x="48"><tspan id="SvgjsTspan1032" style="">char flasgs</tspan></tspan></text></g></g><g id="SvgjsG1033" transform="translate(63.5,222.5)"><path id="SvgjsPath1034" d="M 0 4Q 0 0 4 0L 92 0Q 96 0 96 4L 96 26Q 96 30 92 30L 4 30Q 0 30 0 26Z" stroke="rgba(33,41,48,1)" stroke-width="1.5" fill-opacity="1" fill="#ffffff"></path><g id="SvgjsG1035"><text id="SvgjsText1036" font-family="&quot;Comic Sans MS&quot;" text-anchor="middle" font-size="13px" width="76px" fill="#323232" font-weight="400" align="middle" lineHeight="125%" anchor="middle" family="&quot;Comic Sans MS&quot;" size="13px" weight="400" font-style="" opacity="1" y="4.375" transform="rotate(0)"><tspan id="SvgjsTspan1037" dy="16.25" x="48"><tspan id="SvgjsTspan1038" style="">char buf[]</tspan></tspan></text></g></g><g id="SvgjsG1039" transform="translate(61.5,53.5)"><path id="SvgjsPath1040" d="M 0 0L 100 0L 100 40L 0 40Z" stroke="none" fill="none"></path><g id="SvgjsG1041"><text id="SvgjsText1042" font-family="&quot;Comic Sans MS&quot;" text-anchor="middle" font-size="15px" width="100px" fill="#323232" font-weight="400" align="middle" lineHeight="125%" anchor="middle" family="&quot;Comic Sans MS&quot;" size="15px" weight="400" font-style="" opacity="1" y="7.625" transform="rotate(0)"><tspan id="SvgjsTspan1043" dy="18.75" x="50"><tspan id="SvgjsTspan1044" style="font-weight: bold;">SDS</tspan></tspan></text></g></g><g id="SvgjsG1045" transform="translate(25,26.5)"><path id="SvgjsPath1046" d="M 0 0L 157 0L 173 16L 173 30L 0 30L 0 0Z" stroke="none" fill-opacity="1" fill="#fff7bc"></path><path id="SvgjsPath1047" d="M 157 0L 157 16L 173 16Z" stroke="none" fill-opacity="1" fill="#e4d089"></path><path id="SvgjsPath1048" d="M 0 0L 157 0L 173 16L 173 30L 0 30L 0 0Z" stroke="none" fill="none"></path><g id="SvgjsG1049"><text id="SvgjsText1050" font-family="&quot;Comic Sans MS&quot;" text-anchor="middle" font-size="13px" width="153px" fill="#323232" font-weight="400" align="middle" lineHeight="125%" anchor="middle" family="&quot;Comic Sans MS&quot;" size="13px" weight="400" font-style="" opacity="1" y="-4.125" transform="rotate(0)"><tspan id="SvgjsTspan1051" dy="16.25" x="86.5"><tspan id="SvgjsTspan1052" style="">一个字符串最大为 512 </tspan></tspan><tspan id="SvgjsTspan1053" dy="16.25" x="86.5"><tspan id="SvgjsTspan1054" style="">MB</tspan></tspan></text></g></g><g id="SvgjsG1055"><path id="SvgjsPath1056" d="M160.25 105.5L189.5 105.5L189.5 105.16L217.55 105.16" stroke="#323232" stroke-width="1.5" fill="none" marker-end="url(#SvgjsMarker1057)"></path></g><g id="SvgjsG1059" transform="translate(219.5,88.5)"><path id="SvgjsPath1060" d="M 0 0L 119 0L 135 16L 135 34L 0 34L 0 0Z" stroke="none" fill-opacity="1" fill="#fff7bc"></path><path id="SvgjsPath1061" d="M 119 0L 119 16L 135 16Z" stroke="none" fill-opacity="1" fill="#e4d089"></path><path id="SvgjsPath1062" d="M 0 0L 119 0L 135 16L 135 34L 0 34L 0 0Z" stroke="none" fill="none"></path><g id="SvgjsG1063"><text id="SvgjsText1064" font-family="&quot;Comic Sans MS&quot;" text-anchor="start" font-size="13px" width="115px" fill="#323232" font-weight="400" align="middle" lineHeight="125%" anchor="start" family="&quot;Comic Sans MS&quot;" size="13px" weight="400" font-style="" opacity="1" y="6.375" transform="rotate(0)"><tspan id="SvgjsTspan1065" dy="16.25" x="10"><tspan id="SvgjsTspan1066" style="">已用的字节长度</tspan></tspan></text></g></g><g id="SvgjsG1067"><path id="SvgjsPath1068" d="M160.25 149.5L189.5 149.5L189.5 149.5L217.55 149.5" stroke="#323232" stroke-width="1.5" fill="none" marker-end="url(#SvgjsMarker1069)"></path></g><g id="SvgjsG1071" transform="translate(219.5,134.5)"><path id="SvgjsPath1072" d="M 0 0L 129 0L 145 16L 145 30L 0 30L 0 0Z" stroke="none" fill-opacity="1" fill="#fff7bc"></path><path id="SvgjsPath1073" d="M 129 0L 129 16L 145 16Z" stroke="none" fill-opacity="1" fill="#e4d089"></path><path id="SvgjsPath1074" d="M 0 0L 129 0L 145 16L 145 30L 0 30L 0 0Z" stroke="none" fill="none"></path><g id="SvgjsG1075"><text id="SvgjsText1076" font-family="&quot;Comic Sans MS&quot;" text-anchor="middle" font-size="13px" width="125px" fill="#323232" font-weight="400" align="middle" lineHeight="125%" anchor="middle" family="&quot;Comic Sans MS&quot;" size="13px" weight="400" font-style="" opacity="1" y="4.375" transform="rotate(0)"><tspan id="SvgjsTspan1077" dy="16.25" x="72.5"><tspan id="SvgjsTspan1078" style="">字符串最大字节长度</tspan></tspan></text></g></g><g id="SvgjsG1079"><path id="SvgjsPath1080" d="M160.25 193.5L189.5 193.5L189.5 193.5L217.55 193.5" stroke="#323232" stroke-width="1.5" fill="none" marker-end="url(#SvgjsMarker1081)"></path></g><g id="SvgjsG1083" transform="translate(219.5,178.5)"><path id="SvgjsPath1084" d="M 0 0L 134 0L 150 16L 150 30L 0 30L 0 0Z" stroke="none" fill-opacity="1" fill="#fff7bc"></path><path id="SvgjsPath1085" d="M 134 0L 134 16L 150 16Z" stroke="none" fill-opacity="1" fill="#e4d089"></path><path id="SvgjsPath1086" d="M 0 0L 134 0L 150 16L 150 30L 0 30L 0 0Z" stroke="none" fill="none"></path><g id="SvgjsG1087"><text id="SvgjsText1088" font-family="&quot;Comic Sans MS&quot;" text-anchor="middle" font-size="13px" width="130px" fill="#323232" font-weight="400" align="middle" lineHeight="125%" anchor="middle" family="&quot;Comic Sans MS&quot;" size="13px" weight="400" font-style="" opacity="1" y="4.375" transform="rotate(0)"><tspan id="SvgjsTspan1089" dy="16.25" x="75"><tspan id="SvgjsTspan1090" style="">用来表示SDS的类型</tspan></tspan></text></g></g><g id="SvgjsG1091"><path id="SvgjsPath1092" d="M160.25 237.5L189.5 237.5L189.5 237.5L217.55 237.5" stroke="#323232" stroke-width="1.5" fill="none" marker-end="url(#SvgjsMarker1093)"></path></g><g id="SvgjsG1095" transform="translate(219.5,222.5)"><path id="SvgjsPath1096" d="M 0 0L 253 0L 269 16L 269 30L 0 30L 0 0Z" stroke="none" fill-opacity="1" fill="#fff7bc"></path><path id="SvgjsPath1097" d="M 253 0L 253 16L 269 16Z" stroke="none" fill-opacity="1" fill="#e4d089"></path><path id="SvgjsPath1098" d="M 0 0L 253 0L 269 16L 269 30L 0 30L 0 0Z" stroke="none" fill="none"></path><g id="SvgjsG1099"><text id="SvgjsText1100" font-family="&quot;Comic Sans MS&quot;" text-anchor="middle" font-size="13px" width="249px" fill="#323232" font-weight="400" align="middle" lineHeight="125%" anchor="middle" family="&quot;Comic Sans MS&quot;" size="13px" weight="400" font-style="" opacity="1" y="4.375" transform="rotate(0)"><tspan id="SvgjsTspan1101" dy="16.25" x="134.5"><tspan id="SvgjsTspan1102" style="">真正有效的字符串数据，长度由 alloc 控制</tspan></tspan></text></g></g></svg>