<svg id="SvgjsSvg1065" width="609.942238267148" height="483" xmlns="http://www.w3.org/2000/svg" version="1.1" xmlns:xlink="http://www.w3.org/1999/xlink" xmlns:svgjs="http://svgjs.com/svgjs"><defs id="SvgjsDefs1066"><pattern patternUnits="userSpaceOnUse" id="pattern_mark_0" width="300" height="300"><text x="150" y="100" fill="rgba(229,229,229,0.8)" font-size="18" transform="rotate(-45, 150, 150)" style="dominant-baseline: middle; text-anchor: middle;"></text></pattern><pattern patternUnits="userSpaceOnUse" id="pattern_mark_1" width="300" height="300"><text x="150" y="200" fill="rgba(229,229,229,0.8)" font-size="18" transform="rotate(-45, 150, 150)" style="dominant-baseline: middle; text-anchor: middle;"></text></pattern><marker id="SvgjsMarker1110" markerWidth="13" markerHeight="9" refX="9.5" refY="4.5" viewBox="0 0 13 9" orient="auto" markerUnits="userSpaceOnUse" stroke-dasharray="0,0"><path id="SvgjsPath1111" d="M0,0 L13,4.5 L0,9 L0,0" fill="#323232" stroke="#323232" stroke-width="1"></path></marker><marker id="SvgjsMarker1114" markerWidth="13" markerHeight="9" refX="9.5" refY="4.5" viewBox="0 0 13 9" orient="auto" markerUnits="userSpaceOnUse" stroke-dasharray="0,0"><path id="SvgjsPath1115" d="M0,0 L13,4.5 L0,9 L0,0" fill="#323232" stroke="#323232" stroke-width="1"></path></marker><marker id="SvgjsMarker1118" markerWidth="13" markerHeight="9" refX="9.5" refY="4.5" viewBox="0 0 13 9" orient="auto" markerUnits="userSpaceOnUse" stroke-dasharray="0,0"><path id="SvgjsPath1119" d="M0,0 L13,4.5 L0,9 L0,0" fill="#323232" stroke="#323232" stroke-width="1"></path></marker><marker id="SvgjsMarker1122" markerWidth="13" markerHeight="9" refX="9.5" refY="4.5" viewBox="0 0 13 9" orient="auto" markerUnits="userSpaceOnUse" stroke-dasharray="0,0"><path id="SvgjsPath1123" d="M0,0 L13,4.5 L0,9 L0,0" fill="#323232" stroke="#323232" stroke-width="1"></path></marker></defs><rect id="svgbackgroundid" width="609.942238267148" height="483" fill="transparent"></rect><rect id="SvgjsRect1068" width="609.942238267148" height="483" fill="url(#pattern_mark_0)"></rect><rect id="SvgjsRect1069" width="609.942238267148" height="483" fill="url(#pattern_mark_1)"></rect><g id="SvgjsG1070" transform="translate(213,25)"><path id="SvgjsPath1071" d="M 16.666666666666668 0L 168.33333333333334 0C 190.55555555555554 0 190.55555555555554 50 168.33333333333334 50L 16.666666666666668 50C -5.555555555555556 50 -5.555555555555556 0 16.666666666666668 0Z" stroke="rgba(33,41,48,1)" stroke-width="1.5" fill-opacity="1" fill="#cce2ff"></path><g id="SvgjsG1072"><text id="SvgjsText1073" font-family="&quot;Microsoft YaHei&quot;, 微软雅黑, Arial" text-anchor="middle" font-size="13px" width="165px" fill="#323232" font-weight="400" align="middle" lineHeight="125%" anchor="middle" family="&quot;Microsoft YaHei&quot;, 微软雅黑, Arial" size="13px" weight="400" font-style="" opacity="1" y="14.375" transform="rotate(0)"><tspan id="SvgjsTspan1074" dy="16.25" x="92.5"><tspan id="SvgjsTspan1075" style="">用户向MySQL发出操作请求</tspan></tspan></text></g></g><g id="SvgjsG1076" transform="translate(25,120.75)"><path id="SvgjsPath1077" d="M 16.666666666666668 0L 543.2755716004814 0C 565.4977938227036 0 565.4977938227036 50 543.2755716004814 50L 16.666666666666668 50C -5.555555555555556 50 -5.555555555555556 0 16.666666666666668 0Z" stroke="rgba(33,41,48,1)" stroke-width="1.5" fill-opacity="1" fill="#d0dcc7"></path><g id="SvgjsG1078"><text id="SvgjsText1079" font-family="&quot;Microsoft YaHei&quot;, 微软雅黑, Arial" text-anchor="middle" font-size="13px" width="540px" fill="#323232" font-weight="400" align="middle" lineHeight="125%" anchor="middle" family="&quot;Microsoft YaHei&quot;, 微软雅黑, Arial" size="13px" weight="400" font-style="" opacity="1" y="5.875" transform="rotate(0)"><tspan id="SvgjsTspan1080" dy="16.25" x="280"><tspan id="SvgjsTspan1081" style="">MySQL检查 user 权限表中的权限信息，匹配 User、Host字段值，查看请求的全局权限是否被</tspan></tspan><tspan id="SvgjsTspan1082" dy="16.25" x="280"><tspan id="SvgjsTspan1083" style="">允许，如果找到匹配结果，操作被允许执行，否则MySQL继续向下查找。</tspan></tspan></text></g></g><g id="SvgjsG1084" transform="translate(25,216.5)"><path id="SvgjsPath1085" d="M 16.666666666666668 0L 543.2755716004814 0C 565.4977938227036 0 565.4977938227036 50 543.2755716004814 50L 16.666666666666668 50C -5.555555555555556 50 -5.555555555555556 0 16.666666666666668 0Z" stroke="rgba(33,41,48,1)" stroke-width="1.5" fill-opacity="1" fill="#d0dcc7"></path><g id="SvgjsG1086"><text id="SvgjsText1087" font-family="&quot;Microsoft YaHei&quot;, 微软雅黑, Arial" text-anchor="middle" font-size="13px" width="540px" fill="#323232" font-weight="400" align="middle" lineHeight="125%" anchor="middle" family="&quot;Microsoft YaHei&quot;, 微软雅黑, Arial" size="13px" weight="400" font-style="" opacity="1" y="5.875" transform="rotate(0)"><tspan id="SvgjsTspan1088" dy="16.25" x="280"><tspan id="SvgjsTspan1089" style="">MySQL检查 db 权限表中的权限信息，匹配 User、Host字段值，查看请求的数据库级别的权限</tspan></tspan><tspan id="SvgjsTspan1090" dy="16.25" x="280"><tspan id="SvgjsTspan1091" style="">是否被允许，如果找到匹配结果，操作被允许执行，否则MySQL继续向下查找</tspan></tspan></text></g></g><g id="SvgjsG1092" transform="translate(25,312.25)"><path id="SvgjsPath1093" d="M 16.666666666666668 0L 543.2755716004814 0C 565.4977938227036 0 565.4977938227036 50 543.2755716004814 50L 16.666666666666668 50C -5.555555555555556 50 -5.555555555555556 0 16.666666666666668 0Z" stroke="rgba(33,41,48,1)" stroke-width="1.5" fill-opacity="1" fill="#d0dcc7"></path><g id="SvgjsG1094"><text id="SvgjsText1095" font-family="&quot;Microsoft YaHei&quot;, 微软雅黑, Arial" text-anchor="middle" font-size="13px" width="540px" fill="#323232" font-weight="400" align="middle" lineHeight="125%" anchor="middle" family="&quot;Microsoft YaHei&quot;, 微软雅黑, Arial" size="13px" weight="400" font-style="" opacity="1" y="5.875" transform="rotate(0)"><tspan id="SvgjsTspan1096" dy="16.25" x="280"><tspan id="SvgjsTspan1097" style="">MySQL检查 table_priv 权限表中的权限信息，匹配 User、Host字段值，查看请求的数据表级</tspan></tspan><tspan id="SvgjsTspan1098" dy="16.25" x="280"><tspan id="SvgjsTspan1099" style="">别的权限是否被允许，如果找到匹配结果，操作被允许执行，否则MySQL继续向下查找</tspan></tspan></text></g></g><g id="SvgjsG1100" transform="translate(25,408)"><path id="SvgjsPath1101" d="M 16.666666666666668 0L 543.2755716004814 0C 565.4977938227036 0 565.4977938227036 50 543.2755716004814 50L 16.666666666666668 50C -5.555555555555556 50 -5.555555555555556 0 16.666666666666668 0Z" stroke="rgba(33,41,48,1)" stroke-width="1.5" fill-opacity="1" fill="#d0dcc7"></path><g id="SvgjsG1102"><text id="SvgjsText1103" font-family="&quot;Microsoft YaHei&quot;, 微软雅黑, Arial" text-anchor="middle" font-size="13px" width="540px" fill="#323232" font-weight="400" align="middle" lineHeight="125%" anchor="middle" family="&quot;Microsoft YaHei&quot;, 微软雅黑, Arial" size="13px" weight="400" font-style="" opacity="1" y="5.875" transform="rotate(0)"><tspan id="SvgjsTspan1104" dy="16.25" x="280"><tspan id="SvgjsTspan1105" style="">MySQL检查 columns_priv 权限表中的权限信息，匹配 User、Host字段值，查看请求的列级权</tspan></tspan><tspan id="SvgjsTspan1106" dy="16.25" x="280"><tspan id="SvgjsTspan1107" style="">限是否被允许，如果找到匹配结果，操作被允许，否则MySQL返回错误信息。</tspan></tspan></text></g></g><g id="SvgjsG1108"><path id="SvgjsPath1109" d="M305.5 75.75L305.5 97.875L305.5 97.875L305.5 118.05000000000001" stroke="#323232" stroke-width="1.5" fill="none" marker-end="url(#SvgjsMarker1110)"></path></g><g id="SvgjsG1112"><path id="SvgjsPath1113" d="M304.971119133574 171.5L304.971119133574 193.625L304.971119133574 193.625L304.971119133574 213.8" stroke="#323232" stroke-width="1.5" fill="none" marker-end="url(#SvgjsMarker1114)"></path></g><g id="SvgjsG1116"><path id="SvgjsPath1117" d="M304.971119133574 267.25L304.971119133574 289.375L304.971119133574 289.375L304.971119133574 309.55" stroke="#323232" stroke-width="1.5" fill="none" marker-end="url(#SvgjsMarker1118)"></path></g><g id="SvgjsG1120"><path id="SvgjsPath1121" d="M304.971119133574 363L304.971119133574 385.125L304.971119133574 385.125L304.971119133574 405.3" stroke="#323232" stroke-width="1.5" fill="none" marker-end="url(#SvgjsMarker1122)"></path></g></svg>