<svg id="SvgjsSvg1006" width="821.046511627907" height="421.1860465116279" xmlns="http://www.w3.org/2000/svg" version="1.1" xmlns:xlink="http://www.w3.org/1999/xlink" xmlns:svgjs="http://svgjs.com/svgjs"><defs id="SvgjsDefs1007"><pattern patternUnits="userSpaceOnUse" id="pattern_mark_0" width="300" height="300"><text x="150" y="100" fill="rgba(229,229,229,0.8)" font-size="18" transform="rotate(-45, 150, 150)" style="dominant-baseline: middle; text-anchor: middle;"></text></pattern><pattern patternUnits="userSpaceOnUse" id="pattern_mark_1" width="300" height="300"><text x="150" y="200" fill="rgba(229,229,229,0.8)" font-size="18" transform="rotate(-45, 150, 150)" style="dominant-baseline: middle; text-anchor: middle;"></text></pattern><marker id="SvgjsMarker1037" markerWidth="13" markerHeight="9" refX="9.5" refY="4.5" viewBox="0 0 13 9" orient="auto" markerUnits="userSpaceOnUse" stroke-dasharray="0,0"><path id="SvgjsPath1038" d="M0,0 L13,4.5 L0,9 L0,0" fill="#bb3625" stroke="#bb3625" stroke-width="1"></path></marker><marker id="SvgjsMarker1041" markerWidth="13" markerHeight="9" refX="9.5" refY="4.5" viewBox="0 0 13 9" orient="auto" markerUnits="userSpaceOnUse" stroke-dasharray="0,0"><path id="SvgjsPath1042" d="M0,0 L13,4.5 L0,9 L0,0" fill="#bb3625" stroke="#bb3625" stroke-width="1"></path></marker><marker id="SvgjsMarker1075" markerWidth="13" markerHeight="9" refX="9.5" refY="4.5" viewBox="0 0 13 9" orient="auto" markerUnits="userSpaceOnUse" stroke-dasharray="0,0"><path id="SvgjsPath1076" d="M0,0 L13,4.5 L0,9 L0,0" fill="#4992e6" stroke="#4992e6" stroke-width="1"></path></marker><marker id="SvgjsMarker1079" markerWidth="13" markerHeight="9" refX="9.5" refY="4.5" viewBox="0 0 13 9" orient="auto" markerUnits="userSpaceOnUse" stroke-dasharray="0,0"><path id="SvgjsPath1080" d="M0,0 L13,4.5 L0,9 L0,0" fill="#4992e6" stroke="#4992e6" stroke-width="1"></path></marker><marker id="SvgjsMarker1083" markerWidth="13" markerHeight="9" refX="9.5" refY="4.5" viewBox="0 0 13 9" orient="auto" markerUnits="userSpaceOnUse" stroke-dasharray="0,0"><path id="SvgjsPath1084" d="M0,0 L13,4.5 L0,9 L0,0" fill="#4992e6" stroke="#4992e6" stroke-width="1"></path></marker><marker id="SvgjsMarker1087" markerWidth="13" markerHeight="9" refX="9.5" refY="4.5" viewBox="0 0 13 9" orient="auto" markerUnits="userSpaceOnUse" stroke-dasharray="0,0"><path id="SvgjsPath1088" d="M0,0 L13,4.5 L0,9 L0,0" fill="#4992e6" stroke="#4992e6" stroke-width="1"></path></marker><marker id="SvgjsMarker1091" markerWidth="13" markerHeight="9" refX="9.5" refY="4.5" viewBox="0 0 13 9" orient="auto" markerUnits="userSpaceOnUse" stroke-dasharray="0,0"><path id="SvgjsPath1092" d="M0,0 L13,4.5 L0,9 L0,0" fill="#bb3625" stroke="#bb3625" stroke-width="1"></path></marker></defs><rect id="svgbackgroundid" width="821.046511627907" height="421.1860465116279" fill="transparent"></rect><rect id="SvgjsRect1009" width="821.046511627907" height="421.1860465116279" fill="url(#pattern_mark_0)"></rect><rect id="SvgjsRect1010" width="821.046511627907" height="421.1860465116279" fill="url(#pattern_mark_1)"></rect><g id="SvgjsG1011" transform="translate(345.1162790697674,40)"><path id="SvgjsPath1012" d="M 0 4Q 0 0 4 0L 196 0Q 200 0 200 4L 200 46Q 200 50 196 50L 4 50Q 0 50 0 46Z" stroke="none" fill-opacity="1" fill="#7ebe49"></path><g id="SvgjsG1013"><text id="SvgjsText1014" font-family="&quot;Microsoft YaHei&quot;, 微软雅黑, Arial" text-anchor="middle" font-size="13px" width="180px" fill="#323232" font-weight="700" align="middle" lineHeight="125%" anchor="middle" family="&quot;Microsoft YaHei&quot;, 微软雅黑, Arial" size="13px" weight="700" font-style="" opacity="1" y="5.875" transform="rotate(0)"><tspan id="SvgjsTspan1015" dy="16.25" x="100"><tspan id="SvgjsTspan1016" style="">引导类加载器</tspan></tspan><tspan id="SvgjsTspan1017" dy="16.25" x="100"><tspan id="SvgjsTspan1018" style="">Bootstrap ClassLoader</tspan></tspan></text></g></g><g id="SvgjsG1019" transform="translate(345.1162790697674,149.5)"><path id="SvgjsPath1020" d="M 0 4Q 0 0 4 0L 196 0Q 200 0 200 4L 200 46Q 200 50 196 50L 4 50Q 0 50 0 46Z" stroke="none" fill-opacity="1" fill="#7ebe49"></path><g id="SvgjsG1021"><text id="SvgjsText1022" font-family="&quot;Microsoft YaHei&quot;, 微软雅黑, Arial" text-anchor="middle" font-size="13px" width="180px" fill="#323232" font-weight="700" align="middle" lineHeight="125%" anchor="middle" family="&quot;Microsoft YaHei&quot;, 微软雅黑, Arial" size="13px" weight="700" font-style="" opacity="1" y="5.875" transform="rotate(0)"><tspan id="SvgjsTspan1023" dy="16.25" x="100"><tspan id="SvgjsTspan1024" style="">扩展类加载器</tspan></tspan><tspan id="SvgjsTspan1025" dy="16.25" x="100"><tspan id="SvgjsTspan1026" style="">Extension ClassLoader</tspan></tspan></text></g></g><g id="SvgjsG1027" transform="translate(345.1162790697674,259)"><path id="SvgjsPath1028" d="M 0 4Q 0 0 4 0L 196 0Q 200 0 200 4L 200 46Q 200 50 196 50L 4 50Q 0 50 0 46Z" stroke="none" fill-opacity="1" fill="#7ebe49"></path><g id="SvgjsG1029"><text id="SvgjsText1030" font-family="&quot;Microsoft YaHei&quot;, 微软雅黑, Arial" text-anchor="middle" font-size="13px" width="180px" fill="#323232" font-weight="700" align="middle" lineHeight="125%" anchor="middle" family="&quot;Microsoft YaHei&quot;, 微软雅黑, Arial" size="13px" weight="700" font-style="" opacity="1" y="5.875" transform="rotate(0)"><tspan id="SvgjsTspan1031" dy="16.25" x="100"><tspan id="SvgjsTspan1032" style="">系统类加载器</tspan></tspan><tspan id="SvgjsTspan1033" dy="16.25" x="100"><tspan id="SvgjsTspan1034" style="">Application ClassLoader</tspan></tspan></text></g></g><g id="SvgjsG1035"><path id="SvgjsPath1036" d="M445.1162790697674 149.5L445.1162790697674 119.75L445.1162790697674 119.75L445.1162790697674 91.95" stroke="#bb3625" stroke-width="1.5" fill="none" marker-end="url(#SvgjsMarker1037)"></path></g><g id="SvgjsG1039"><path id="SvgjsPath1040" d="M445.1162790697674 259L445.1162790697674 229.25L445.1162790697674 229.25L445.1162790697674 201.45" stroke="#bb3625" stroke-width="1.5" fill="none" marker-end="url(#SvgjsMarker1041)"></path></g><g id="SvgjsG1043" transform="translate(44.69344608879496,149.5)"><path id="SvgjsPath1044" d="M 0 4Q 0 0 4 0L 196 0Q 200 0 200 4L 200 46Q 200 50 196 50L 4 50Q 0 50 0 46Z" stroke="none" fill-opacity="1" fill="#4d97f2"></path><g id="SvgjsG1045"><text id="SvgjsText1046" font-family="&quot;Microsoft YaHei&quot;, 微软雅黑, Arial" text-anchor="middle" font-size="13px" width="180px" fill="#323232" font-weight="700" align="middle" lineHeight="125%" anchor="middle" family="&quot;Microsoft YaHei&quot;, 微软雅黑, Arial" size="13px" weight="700" font-style="" opacity="1" y="5.875" transform="rotate(0)"><tspan id="SvgjsTspan1047" dy="16.25" x="100"><tspan id="SvgjsTspan1048" style="">线程上下文类加载器</tspan></tspan><tspan id="SvgjsTspan1049" dy="16.25" x="100"><tspan id="SvgjsTspan1050" style="">ContentClassLoader</tspan></tspan></text></g></g><g id="SvgjsG1051" transform="translate(110.00000000000001,316.1860465116279)"><path id="SvgjsPath1052" d="M 0 40C 0 -13.333333333333334 80 -13.333333333333334 80 40C 80 93.33333333333333 0 93.33333333333333 0 40Z" stroke="none" fill-opacity="1" fill="#4d97f2"></path><g id="SvgjsG1053"><text id="SvgjsText1054" font-family="&quot;Microsoft YaHei&quot;, 微软雅黑, Arial" text-anchor="middle" font-size="13px" width="60px" fill="#323232" font-weight="700" align="middle" lineHeight="125%" anchor="middle" family="&quot;Microsoft YaHei&quot;, 微软雅黑, Arial" size="13px" weight="700" font-style="" opacity="1" y="4.875" transform="rotate(0)"><tspan id="SvgjsTspan1055" dy="16.25" x="40"><tspan id="SvgjsTspan1056" style="">jdbc.jar</tspan></tspan><tspan id="SvgjsTspan1057" dy="16.25" x="40"><tspan id="SvgjsTspan1058" style=""> </tspan></tspan><tspan id="SvgjsTspan1059" dy="16.25" x="40"><tspan id="SvgjsTspan1060" style="">SPI接口实</tspan></tspan><tspan id="SvgjsTspan1061" dy="16.25" x="40"><tspan id="SvgjsTspan1062" style="">现类</tspan></tspan></text></g></g><g id="SvgjsG1063" transform="translate(716.046511627907,25)"><path id="SvgjsPath1064" d="M 0 40C 0 -13.333333333333334 80 -13.333333333333334 80 40C 80 93.33333333333333 0 93.33333333333333 0 40Z" stroke="none" fill-opacity="1" fill="#6db536"></path><g id="SvgjsG1065"><text id="SvgjsText1066" font-family="&quot;Microsoft YaHei&quot;, 微软雅黑, Arial" text-anchor="middle" font-size="13px" width="60px" fill="#323232" font-weight="700" align="middle" lineHeight="125%" anchor="middle" family="&quot;Microsoft YaHei&quot;, 微软雅黑, Arial" size="13px" weight="700" font-style="" opacity="1" y="12.875" transform="rotate(0)"><tspan id="SvgjsTspan1067" dy="16.25" x="40"><tspan id="SvgjsTspan1068" style="">rt.jar</tspan></tspan><tspan id="SvgjsTspan1069" dy="16.25" x="40"><tspan id="SvgjsTspan1070" style=""> </tspan></tspan><tspan id="SvgjsTspan1071" dy="16.25" x="40"><tspan id="SvgjsTspan1072" style="">SPI核心类</tspan></tspan></text></g></g><g id="SvgjsG1073"><path id="SvgjsPath1074" d="M345.1162790697674 65C 258.1132336241107 65 144.69344608879499 62.49695455434329 144.83819610807166 147.5553798746492" stroke="#4992e6" stroke-width="1.5" fill="none" marker-end="url(#SvgjsMarker1075)"></path></g><g id="SvgjsG1077"><path id="SvgjsPath1078" d="M144.69344608879493 199.5C 144.69344608879493 246.22265911084483 152.44527504277914 269.5274191812684 150.06408898083436 314.2370999750252" stroke="#4992e6" stroke-width="1.5" fill="none" marker-end="url(#SvgjsMarker1079)"></path></g><g id="SvgjsG1081"><path id="SvgjsPath1082" d="M144.69344608879493 199.5C 144.69344608879499 286.5030454456567 258.1132336241107 284 343.166279319996 284.0009878721693" stroke-dasharray="7.5,3" stroke="#4992e6" stroke-width="1.5" fill="none" marker-end="url(#SvgjsMarker1083)"></path></g><g id="SvgjsG1085"><path id="SvgjsPath1086" d="M756.046511627907 105C 769.0106776769605 352.37102442439533 437.10709272419854 373.4654577144605 191.9457160159318 356.3152331415342" stroke="#4992e6" stroke-width="1.5" fill="none" marker-end="url(#SvgjsMarker1087)"></path></g><g id="SvgjsG1089"><path id="SvgjsPath1090" d="M545.1162790697674 65C 613.4883720930233 64.99999999999993 647.7681201818965 68.57831886870363 714.0986499132185 65.09129479969302" stroke="#bb3625" stroke-width="1.5" fill="none" marker-end="url(#SvgjsMarker1091)"></path></g><g id="SvgjsG1093" transform="translate(571.5746124031008,33.875)"><path id="SvgjsPath1094" d="M 0 0L 100 0L 100 40L 0 40Z" stroke="none" fill="none"></path><g id="SvgjsG1095"><text id="SvgjsText1096" font-family="&quot;Microsoft YaHei&quot;, 微软雅黑, Arial" text-anchor="middle" font-size="13px" width="100px" fill="#a1595b" font-weight="700" align="middle" lineHeight="125%" anchor="middle" family="&quot;Microsoft YaHei&quot;, 微软雅黑, Arial" size="13px" weight="700" font-style="" opacity="1" y="9.375" transform="rotate(0)"><tspan id="SvgjsTspan1097" dy="16.25" x="50"><tspan id="SvgjsTspan1098" style="">加载核心rt.jar报</tspan></tspan></text></g></g><g id="SvgjsG1099" transform="translate(90.00000000000001,35.5)"><path id="SvgjsPath1100" d="M 0 0L 126.36627906976742 0L 126.36627906976742 49L 0 49Z" stroke="none" fill="none"></path><g id="SvgjsG1101"><text id="SvgjsText1102" font-family="&quot;Microsoft YaHei&quot;, 微软雅黑, Arial" text-anchor="middle" font-size="13px" width="127px" fill="#a1595b" font-weight="700" align="middle" lineHeight="125%" anchor="middle" family="&quot;Microsoft YaHei&quot;, 微软雅黑, Arial" size="13px" weight="700" font-style="" opacity="1" y="-2.625" transform="rotate(0)"><tspan id="SvgjsTspan1103" dy="16.25" x="63.5"><tspan id="SvgjsTspan1104" style="">反向委托</tspan></tspan><tspan id="SvgjsTspan1105" dy="16.25" x="63.5"><tspan id="SvgjsTspan1106" style="">线程上下文类加载器</tspan></tspan><tspan id="SvgjsTspan1107" dy="16.25" x="63.5"><tspan id="SvgjsTspan1108" style="">加载的jdbc.jar</tspan></tspan></text></g></g><g id="SvgjsG1109" transform="translate(190,243.04166666666666)"><path id="SvgjsPath1110" d="M 0 0L 143.5416666666667 0L 143.5416666666667 40L 0 40Z" stroke="none" fill="none"></path><g id="SvgjsG1111"><text id="SvgjsText1112" font-family="&quot;Microsoft YaHei&quot;, 微软雅黑, Arial" text-anchor="middle" font-size="13px" width="144px" fill="#a1595b" font-weight="700" align="middle" lineHeight="125%" anchor="middle" family="&quot;Microsoft YaHei&quot;, 微软雅黑, Arial" size="13px" weight="700" font-style="" opacity="1" y="9.375" transform="rotate(0)"><tspan id="SvgjsTspan1113" dy="16.25" x="72"><tspan id="SvgjsTspan1114" style="">默认为AppClassLoader</tspan></tspan></text></g></g><g id="SvgjsG1115" transform="translate(513.125,336.1860465116279)"><path id="SvgjsPath1116" d="M 0 0L 143.5416666666667 0L 143.5416666666667 40L 0 40Z" stroke="none" fill="none"></path><g id="SvgjsG1117"><text id="SvgjsText1118" font-family="&quot;Microsoft YaHei&quot;, 微软雅黑, Arial" text-anchor="middle" font-size="13px" width="144px" fill="#a1595b" font-weight="700" align="middle" lineHeight="125%" anchor="middle" family="&quot;Microsoft YaHei&quot;, 微软雅黑, Arial" size="13px" weight="700" font-style="" opacity="1" y="0.875" transform="rotate(0)"><tspan id="SvgjsTspan1119" dy="16.25" x="72"><tspan id="SvgjsTspan1120" style="">rt.jar中SPI接口</tspan></tspan><tspan id="SvgjsTspan1121" dy="16.25" x="72"><tspan id="SvgjsTspan1122" style="">调用实现类中的方法</tspan></tspan></text></g></g><g id="SvgjsG1123" transform="translate(25,264)"><path id="SvgjsPath1124" d="M 0 0L 143.5416666666667 0L 143.5416666666667 40L 0 40Z" stroke="none" fill="none"></path><g id="SvgjsG1125"><text id="SvgjsText1126" font-family="&quot;Microsoft YaHei&quot;, 微软雅黑, Arial" text-anchor="middle" font-size="13px" width="144px" fill="#a1595b" font-weight="700" align="middle" lineHeight="125%" anchor="middle" family="&quot;Microsoft YaHei&quot;, 微软雅黑, Arial" size="13px" weight="700" font-style="" opacity="1" y="0.875" transform="rotate(0)"><tspan id="SvgjsTspan1127" dy="16.25" x="72"><tspan id="SvgjsTspan1128" style="">上下文类加载器</tspan></tspan><tspan id="SvgjsTspan1129" dy="16.25" x="72"><tspan id="SvgjsTspan1130" style="">加载jdbc.jar</tspan></tspan></text></g></g><g id="SvgjsG1131"></g></svg>