<svg id="SvgjsSvg1121" width="641" height="449" xmlns="http://www.w3.org/2000/svg" version="1.1" xmlns:xlink="http://www.w3.org/1999/xlink" xmlns:svgjs="http://svgjs.com/svgjs"><defs id="SvgjsDefs1122"><pattern patternUnits="userSpaceOnUse" id="pattern_mark_0" width="300" height="300"><text x="150" y="100" fill="rgba(229,229,229,0.8)" font-size="18" transform="rotate(-45, 150, 150)" style="dominant-baseline: middle; text-anchor: middle;"></text></pattern><pattern patternUnits="userSpaceOnUse" id="pattern_mark_1" width="300" height="300"><text x="150" y="200" fill="rgba(229,229,229,0.8)" font-size="18" transform="rotate(-45, 150, 150)" style="dominant-baseline: middle; text-anchor: middle;"></text></pattern><linearGradient id="SvgjsLinearGradient1128" x1="0" y1="0.5000000000000001" x2="1" y2="0.4999999999999999"><stop id="SvgjsStop1129" stop-opacity="1" stop-color="#ffffff" offset="0"></stop><stop id="SvgjsStop1130" stop-opacity="1" stop-color="#ded9d7" offset="1"></stop></linearGradient><linearGradient id="SvgjsLinearGradient1135" x1="0" y1="0.5000000000000001" x2="1" y2="0.4999999999999999"><stop id="SvgjsStop1136" stop-opacity="1" stop-color="#ffffff" offset="0"></stop><stop id="SvgjsStop1137" stop-opacity="1" stop-color="#ded9d7" offset="1"></stop></linearGradient><pattern id="SvgjsPattern1158" x="0" y="0" width="50" height="50" patternUnits="userSpaceOnUse"><image id="SvgjsImage1159" xlink:href="https://iconsapi.com/5ee28a32e4b0b788a9355a06.svg" width="50" height="50" preserveAspectRatio="none" crossOrigin="anonymous" x="0" y="0"></image></pattern><pattern id="SvgjsPattern1178" x="0" y="0" width="50" height="50" patternUnits="userSpaceOnUse"><image id="SvgjsImage1179" xlink:href="https://iconsapi.com/5ee28a32e4b0b788a9355a06.svg" width="50" height="50" preserveAspectRatio="none" crossOrigin="anonymous" x="0" y="0"></image></pattern><marker id="SvgjsMarker1182" markerWidth="13" markerHeight="9" refX="9.5" refY="4.5" viewBox="0 0 13 9" orient="auto" markerUnits="userSpaceOnUse" stroke-dasharray="0,0"><path id="SvgjsPath1183" d="M0,0 L13,4.5 L0,9 L0,0" fill="#323232" stroke="#323232" stroke-width="1"></path></marker><marker id="SvgjsMarker1202" markerWidth="13" markerHeight="9" refX="9.5" refY="4.5" viewBox="0 0 13 9" orient="auto" markerUnits="userSpaceOnUse" stroke-dasharray="0,0"><path id="SvgjsPath1203" d="M0,0 L13,4.5 L0,9 L0,0" fill="#323232" stroke="#323232" stroke-width="1"></path></marker><marker id="SvgjsMarker1210" markerWidth="13" markerHeight="9" refX="9.5" refY="4.5" viewBox="0 0 13 9" orient="auto" markerUnits="userSpaceOnUse" stroke-dasharray="0,0"><path id="SvgjsPath1211" d="M0,0 L13,4.5 L0,9 L0,0" fill="#323232" stroke="#323232" stroke-width="1"></path></marker><marker id="SvgjsMarker1214" markerWidth="13" markerHeight="9" refX="9.5" refY="4.5" viewBox="0 0 13 9" orient="auto" markerUnits="userSpaceOnUse" stroke-dasharray="0,0"><path id="SvgjsPath1215" d="M0,0 L13,4.5 L0,9 L0,0" fill="#323232" stroke="#323232" stroke-width="1"></path></marker><marker id="SvgjsMarker1222" markerWidth="13" markerHeight="9" refX="9.5" refY="4.5" viewBox="0 0 13 9" orient="auto" markerUnits="userSpaceOnUse" stroke-dasharray="0,0"><path id="SvgjsPath1223" d="M0,0 L13,4.5 L0,9 L0,0" fill="#323232" stroke="#323232" stroke-width="1"></path></marker><marker id="SvgjsMarker1230" markerWidth="13" markerHeight="9" refX="9.5" refY="4.5" viewBox="0 0 13 9" orient="auto" markerUnits="userSpaceOnUse" stroke-dasharray="0,0"><path id="SvgjsPath1231" d="M0,0 L13,4.5 L0,9 L0,0" fill="#323232" stroke="#323232" stroke-width="1"></path></marker></defs><rect id="svgbackgroundid" width="641" height="449" fill="transparent"></rect><rect id="SvgjsRect1124" width="641" height="449" fill="url(#pattern_mark_0)"></rect><rect id="SvgjsRect1125" width="641" height="449" fill="url(#pattern_mark_1)"></rect><g id="SvgjsG1126" transform="translate(353,65)"><path id="SvgjsPath1127" d="M 0 4Q 0 0 4 0L 259 0Q 263 0 263 4L 263 355Q 263 359 259 359L 4 359Q 0 359 0 355Z" stroke-dasharray="10,6" stroke="rgba(33,41,48,1)" stroke-width="1.5" fill="url(#SvgjsLinearGradient1128)"></path><g id="SvgjsG1131"><text id="SvgjsText1132" font-family="&quot;Comic Sans MS&quot;" text-anchor="middle" font-size="13px" width="243px" fill="#323232" font-weight="700" align="middle" lineHeight="125%" anchor="middle" family="&quot;Comic Sans MS&quot;" size="13px" weight="700" font-style="" opacity="1" y="168.875" transform="rotate(0)"></text></g></g><g id="SvgjsG1133" transform="translate(25,65)"><path id="SvgjsPath1134" d="M 0 4Q 0 0 4 0L 118 0Q 122 0 122 4L 122 355Q 122 359 118 359L 4 359Q 0 359 0 355Z" stroke-dasharray="10,6" stroke="rgba(33,41,48,1)" stroke-width="1.5" fill="url(#SvgjsLinearGradient1135)"></path><g id="SvgjsG1138"><text id="SvgjsText1139" font-family="&quot;Comic Sans MS&quot;" text-anchor="middle" font-size="13px" width="102px" fill="#323232" font-weight="700" align="middle" lineHeight="125%" anchor="middle" family="&quot;Comic Sans MS&quot;" size="13px" weight="700" font-style="" opacity="1" y="168.875" transform="rotate(0)"></text></g></g><g id="SvgjsG1140" transform="translate(51,89)"><path id="SvgjsPath1141" d="M 0 9.8C 0 -2.8000000000000003 70 -2.8000000000000003 70 9.8L 70 60.199999999999996C 70 72.8 0 72.8 0 60.199999999999996L 0 9.8Z" stroke="rgba(33,41,48,1)" stroke-width="1.5" fill-opacity="1" fill="#ffffff"></path><path id="SvgjsPath1142" d="M 70 9.8C 70 21 0 21 0 9.8L 0 14C 0 25.2 70 25.2 70 14L 70 18.2C 70 29.4 0 29.4 0 18.2C 0 29.4 70 29.4 70 18.2Z" stroke="rgba(33,41,48,1)" stroke-width="1.5" fill-opacity="1" fill="#ffffff"></path><path id="SvgjsPath1143" d="M 0 7Q 35 -7 70 7L 70 63Q 35 77 0 63L 0 7Z" stroke="none" fill="none"></path><g id="SvgjsG1144"><text id="SvgjsText1145" font-family="&quot;Comic Sans MS&quot;" text-anchor="middle" font-size="13px" width="70px" fill="#323232" font-weight="700" align="middle" lineHeight="125%" anchor="middle" family="&quot;Comic Sans MS&quot;" size="13px" weight="700" font-style="" opacity="1" y="36.041666666666664" transform="rotate(0)"></text></g></g><g id="SvgjsG1146" transform="translate(51,309)"><path id="SvgjsPath1147" d="M 0 0L 0 90L 70 90L 70 22.5L 46.666666666666664 0L 0 0Z" stroke="rgba(33,41,48,1)" stroke-width="1.5" fill-opacity="1" fill="#ffffff"></path><path id="SvgjsPath1148" d="M 46.666666666666664 0L 46.666666666666664 22.5L 70 22.5" stroke="rgba(33,41,48,1)" stroke-width="1.5" fill-opacity="1" fill="#ffffff"></path><path id="SvgjsPath1149" d="M 0 0L 70 0L 70 90L 0 90Z" stroke="none" fill="none"></path><g id="SvgjsG1150"><text id="SvgjsText1151" font-family="&quot;Comic Sans MS&quot;" text-anchor="middle" font-size="13px" width="50px" fill="#323232" font-weight="700" align="middle" lineHeight="125%" anchor="middle" family="&quot;Comic Sans MS&quot;" size="13px" weight="700" font-style="" opacity="1" y="25.875" transform="rotate(0)"><tspan id="SvgjsTspan1152" dy="16.25" x="35"><tspan id="SvgjsTspan1153" style="">Binary </tspan></tspan><tspan id="SvgjsTspan1154" dy="16.25" x="35"><tspan id="SvgjsTspan1155" style="">log</tspan></tspan></text></g></g><g id="SvgjsG1156" transform="translate(387,114)"><path id="SvgjsPath1157" d="M 0 0L 50 0L 50 50L 0 50Z" stroke="none" fill="url(#SvgjsPattern1158)"></path></g><g id="SvgjsG1160" transform="translate(437,89)"><path id="SvgjsPath1161" d="M 0 9.8C 0 -2.8000000000000003 70 -2.8000000000000003 70 9.8L 70 60.199999999999996C 70 72.8 0 72.8 0 60.199999999999996L 0 9.8Z" stroke="rgba(33,41,48,1)" stroke-width="1.5" fill-opacity="1" fill="#ffffff"></path><path id="SvgjsPath1162" d="M 70 9.8C 70 21 0 21 0 9.8L 0 14C 0 25.2 70 25.2 70 14L 70 18.2C 70 29.4 0 29.4 0 18.2C 0 29.4 70 29.4 70 18.2Z" stroke="rgba(33,41,48,1)" stroke-width="1.5" fill-opacity="1" fill="#ffffff"></path><path id="SvgjsPath1163" d="M 0 7Q 35 -7 70 7L 70 63Q 35 77 0 63L 0 7Z" stroke="none" fill="none"></path><g id="SvgjsG1164"><text id="SvgjsText1165" font-family="&quot;Comic Sans MS&quot;" text-anchor="middle" font-size="13px" width="70px" fill="#323232" font-weight="700" align="middle" lineHeight="125%" anchor="middle" family="&quot;Comic Sans MS&quot;" size="13px" weight="700" font-style="" opacity="1" y="36.041666666666664" transform="rotate(0)"></text></g></g><g id="SvgjsG1166" transform="translate(437,309)"><path id="SvgjsPath1167" d="M 0 0L 0 90L 70 90L 70 22.5L 46.666666666666664 0L 0 0Z" stroke="rgba(33,41,48,1)" stroke-width="1.5" fill-opacity="1" fill="#ffffff"></path><path id="SvgjsPath1168" d="M 46.666666666666664 0L 46.666666666666664 22.5L 70 22.5" stroke="rgba(33,41,48,1)" stroke-width="1.5" fill-opacity="1" fill="#ffffff"></path><path id="SvgjsPath1169" d="M 0 0L 70 0L 70 90L 0 90Z" stroke="none" fill="none"></path><g id="SvgjsG1170"><text id="SvgjsText1171" font-family="&quot;Comic Sans MS&quot;" text-anchor="middle" font-size="13px" width="50px" fill="#323232" font-weight="700" align="middle" lineHeight="125%" anchor="middle" family="&quot;Comic Sans MS&quot;" size="13px" weight="700" font-style="" opacity="1" y="25.875" transform="rotate(0)"><tspan id="SvgjsTspan1172" dy="16.25" x="35"><tspan id="SvgjsTspan1173" style="">Relay </tspan></tspan><tspan id="SvgjsTspan1174" dy="16.25" x="35"><tspan id="SvgjsTspan1175" style="">log</tspan></tspan></text></g></g><g id="SvgjsG1176" transform="translate(483,144)"><path id="SvgjsPath1177" d="M 0 0L 50 0L 50 50L 0 50Z" stroke="none" fill="url(#SvgjsPattern1178)"></path></g><g id="SvgjsG1180"><path id="SvgjsPath1181" d="M86 159.75L86 234L86 234L86 306.3" stroke="#323232" stroke-width="1.5" fill="none" marker-end="url(#SvgjsMarker1182)"></path><rect id="SvgjsRect1184" width="84" height="18" x="44" y="224.025" fill="#ffffff"></rect><text id="SvgjsText1185" font-family="&quot;Comic Sans MS&quot;" text-anchor="middle" font-size="13px" width="84px" fill="#323232" font-weight="700" align="top" lineHeight="16px" anchor="middle" family="&quot;Comic Sans MS&quot;" size="13px" weight="700" font-style="" opacity="1" y="221.4" transform="rotate(0)"><tspan id="SvgjsTspan1186" dy="16.25" x="86"><tspan id="SvgjsTspan1187" style="">Data changes</tspan></tspan></text></g><g id="SvgjsG1188" transform="translate(353,99)"><path id="SvgjsPath1189" d="M 0 0L 79 0L 79 20L 0 20Z" stroke="none" fill="none"></path><g id="SvgjsG1190"><text id="SvgjsText1191" font-family="&quot;Comic Sans MS&quot;" text-anchor="middle" font-size="13px" width="79px" fill="#323232" font-weight="700" align="middle" lineHeight="125%" anchor="middle" family="&quot;Comic Sans MS&quot;" size="13px" weight="700" font-style="" opacity="1" y="-0.625" transform="rotate(0)"><tspan id="SvgjsTspan1192" dy="16.25" x="39.5"><tspan id="SvgjsTspan1193" style="">I/O thread</tspan></tspan></text></g></g><g id="SvgjsG1194" transform="translate(533,139)"><path id="SvgjsPath1195" d="M 0 0L 79 0L 79 40L 0 40Z" stroke="none" fill="none"></path><g id="SvgjsG1196"><text id="SvgjsText1197" font-family="&quot;Comic Sans MS&quot;" text-anchor="middle" font-size="13px" width="79px" fill="#323232" font-weight="700" align="middle" lineHeight="125%" anchor="middle" family="&quot;Comic Sans MS&quot;" size="13px" weight="700" font-style="" opacity="1" y="9.375" transform="rotate(0)"><tspan id="SvgjsTspan1198" dy="16.25" x="39.5"><tspan id="SvgjsTspan1199" style="">SQL thread</tspan></tspan></text></g></g><g id="SvgjsG1200"><path id="SvgjsPath1201" d="M386.25009752502933 139.01209454558324C 250.19005884074068 139 147 201 121.50782202723548 351.3481861323512" stroke="#323232" stroke-width="1.5" fill="none" marker-end="url(#SvgjsMarker1202)"></path><rect id="SvgjsRect1204" width="30" height="18" x="191.9637263338679" y="184.00050331568278" fill="#ffffff"></rect><text id="SvgjsText1205" font-family="&quot;Comic Sans MS&quot;" text-anchor="middle" font-size="13px" width="30px" fill="#323232" font-weight="700" align="top" lineHeight="16px" anchor="middle" family="&quot;Comic Sans MS&quot;" size="13px" weight="700" font-style="" opacity="1" y="181.37550331568278" transform="rotate(0)"><tspan id="SvgjsTspan1206" dy="16.25" x="206.9637263338679"><tspan id="SvgjsTspan1207" style="">Read</tspan></tspan></text></g><g id="SvgjsG1208"><path id="SvgjsPath1209" d="M121.12506669689691 354.7394986959605C 123 430 412 303.0142438745038 411.8104298728946 166.6933368090362" stroke="#323232" stroke-width="1.5" fill="none" marker-end="url(#SvgjsMarker1210)"></path></g><g id="SvgjsG1212"><path id="SvgjsPath1213" d="M419.9860052339452 164.7498694196479C 420 225.6168808038836 403 263 469.81531883644766 307.4134413929452" stroke="#323232" stroke-width="1.5" fill="none" marker-end="url(#SvgjsMarker1214)"></path><rect id="SvgjsRect1216" width="37" height="18" x="402.5018211707137" y="238.6156092298544" fill="#ffffff"></rect><text id="SvgjsText1217" font-family="&quot;Comic Sans MS&quot;" text-anchor="middle" font-size="13px" width="37px" fill="#323232" font-weight="700" align="top" lineHeight="16px" anchor="middle" family="&quot;Comic Sans MS&quot;" size="13px" weight="700" font-style="" opacity="1" y="235.9906092298544" transform="rotate(0)"><tspan id="SvgjsTspan1218" dy="16.25" x="421.0018211707137"><tspan id="SvgjsTspan1219" style="">Write</tspan></tspan></text></g><g id="SvgjsG1220"><path id="SvgjsPath1221" d="M507.33737689461634 194.35132694205222C 473 206 455 275 489.288568609595 306.91169863383266" stroke="#323232" stroke-width="1.5" fill="none" marker-end="url(#SvgjsMarker1222)"></path><rect id="SvgjsRect1224" width="30" height="18" x="468.1257319092795" y="206.552105686877" fill="#ffffff"></rect><text id="SvgjsText1225" font-family="&quot;Comic Sans MS&quot;" text-anchor="middle" font-size="13px" width="30px" fill="#323232" font-weight="700" align="top" lineHeight="16px" anchor="middle" family="&quot;Comic Sans MS&quot;" size="13px" weight="700" font-style="" opacity="1" y="203.927105686877" transform="rotate(0)"><tspan id="SvgjsTspan1226" dy="16.25" x="483.1257319092795"><tspan id="SvgjsTspan1227" style="">Read</tspan></tspan></text></g><g id="SvgjsG1228"><path id="SvgjsPath1229" d="M491.3687682173653 309.6530773322213C 513 367 554 234 533.6975804858773 184.60832924795227" stroke="#323232" stroke-width="1.5" fill="none" marker-end="url(#SvgjsMarker1230)"></path><rect id="SvgjsRect1232" width="41" height="18" x="515.8170696653831" y="244.21566477693486" fill="#ffffff"></rect><text id="SvgjsText1233" font-family="&quot;Comic Sans MS&quot;" text-anchor="middle" font-size="13px" width="41px" fill="#323232" font-weight="700" align="top" lineHeight="16px" anchor="middle" family="&quot;Comic Sans MS&quot;" size="13px" weight="700" font-style="" opacity="1" y="241.59066477693486" transform="rotate(0)"><tspan id="SvgjsTspan1234" dy="16.25" x="536.3170696653831"><tspan id="SvgjsTspan1235" style="">Replay</tspan></tspan></text></g><g id="SvgjsG1236" transform="translate(36,25)"><path id="SvgjsPath1237" d="M 0 0L 100 0L 100 40L 0 40Z" stroke="none" fill="none"></path><g id="SvgjsG1238"><text id="SvgjsText1239" font-family="&quot;Comic Sans MS&quot;" text-anchor="middle" font-size="15px" width="100px" fill="#323232" font-weight="400" align="middle" lineHeight="125%" anchor="middle" family="&quot;Comic Sans MS&quot;" size="15px" weight="400" font-style="" opacity="1" y="7.625" transform="rotate(0)"><tspan id="SvgjsTspan1240" dy="18.75" x="50"><tspan id="SvgjsTspan1241" style="font-weight: bold;">Master</tspan></tspan></text></g></g><g id="SvgjsG1242" transform="translate(437,25)"><path id="SvgjsPath1243" d="M 0 0L 100 0L 100 40L 0 40Z" stroke="none" fill="none"></path><g id="SvgjsG1244"><text id="SvgjsText1245" font-family="&quot;Comic Sans MS&quot;" text-anchor="middle" font-size="15px" width="100px" fill="#323232" font-weight="400" align="middle" lineHeight="125%" anchor="middle" family="&quot;Comic Sans MS&quot;" size="15px" weight="400" font-style="" opacity="1" y="7.625" transform="rotate(0)"><tspan id="SvgjsTspan1246" dy="18.75" x="50"><tspan id="SvgjsTspan1247" style="font-weight: bold;">Slave</tspan></tspan></text></g></g></svg>