<svg id="SvgjsSvg1006" width="641" height="409" xmlns="http://www.w3.org/2000/svg" version="1.1" xmlns:xlink="http://www.w3.org/1999/xlink" xmlns:svgjs="http://svgjs.com/svgjs"><defs id="SvgjsDefs1007"><pattern patternUnits="userSpaceOnUse" id="pattern_mark_0" width="300" height="300"><text x="150" y="100" fill="rgba(229,229,229,0.8)" font-size="18" transform="rotate(-45, 150, 150)" style="dominant-baseline: middle; text-anchor: middle;"></text></pattern><pattern patternUnits="userSpaceOnUse" id="pattern_mark_1" width="300" height="300"><text x="150" y="200" fill="rgba(229,229,229,0.8)" font-size="18" transform="rotate(-45, 150, 150)" style="dominant-baseline: middle; text-anchor: middle;"></text></pattern><linearGradient id="SvgjsLinearGradient1013" x1="0" y1="0.5000000000000001" x2="1" y2="0.4999999999999999"><stop id="SvgjsStop1014" stop-opacity="1" stop-color="#ffffff" offset="0"></stop><stop id="SvgjsStop1015" stop-opacity="1" stop-color="#ded9d7" offset="1"></stop></linearGradient><linearGradient id="SvgjsLinearGradient1020" x1="0" y1="0.5000000000000001" x2="1" y2="0.4999999999999999"><stop id="SvgjsStop1021" stop-opacity="1" stop-color="#ffffff" offset="0"></stop><stop id="SvgjsStop1022" stop-opacity="1" stop-color="#ded9d7" offset="1"></stop></linearGradient><pattern id="SvgjsPattern1043" x="0" y="0" width="50" height="50" patternUnits="userSpaceOnUse"><image id="SvgjsImage1044" xlink:href="https://iconsapi.com/5ee28a32e4b0b788a9355a06.svg" width="50" height="50" preserveAspectRatio="none" crossOrigin="anonymous" x="0" y="0"></image></pattern><pattern id="SvgjsPattern1063" x="0" y="0" width="50" height="50" patternUnits="userSpaceOnUse"><image id="SvgjsImage1064" xlink:href="https://iconsapi.com/5ee28a32e4b0b788a9355a06.svg" width="50" height="50" preserveAspectRatio="none" crossOrigin="anonymous" x="0" y="0"></image></pattern><marker id="SvgjsMarker1067" markerWidth="13" markerHeight="9" refX="9.5" refY="4.5" viewBox="0 0 13 9" orient="auto" markerUnits="userSpaceOnUse" stroke-dasharray="0,0"><path id="SvgjsPath1068" d="M0,0 L13,4.5 L0,9 L0,0" fill="#323232" stroke="#323232" stroke-width="1"></path></marker><marker id="SvgjsMarker1087" markerWidth="13" markerHeight="9" refX="9.5" refY="4.5" viewBox="0 0 13 9" orient="auto" markerUnits="userSpaceOnUse" stroke-dasharray="0,0"><path id="SvgjsPath1088" d="M0,0 L13,4.5 L0,9 L0,0" fill="#323232" stroke="#323232" stroke-width="1"></path></marker><marker id="SvgjsMarker1095" markerWidth="13" markerHeight="9" refX="9.5" refY="4.5" viewBox="0 0 13 9" orient="auto" markerUnits="userSpaceOnUse" stroke-dasharray="0,0"><path id="SvgjsPath1096" d="M0,0 L13,4.5 L0,9 L0,0" fill="#323232" stroke="#323232" stroke-width="1"></path></marker><marker id="SvgjsMarker1099" markerWidth="13" markerHeight="9" refX="9.5" refY="4.5" viewBox="0 0 13 9" orient="auto" markerUnits="userSpaceOnUse" stroke-dasharray="0,0"><path id="SvgjsPath1100" d="M0,0 L13,4.5 L0,9 L0,0" fill="#323232" stroke="#323232" stroke-width="1"></path></marker><marker id="SvgjsMarker1107" markerWidth="13" markerHeight="9" refX="9.5" refY="4.5" viewBox="0 0 13 9" orient="auto" markerUnits="userSpaceOnUse" stroke-dasharray="0,0"><path id="SvgjsPath1108" d="M0,0 L13,4.5 L0,9 L0,0" fill="#323232" stroke="#323232" stroke-width="1"></path></marker><marker id="SvgjsMarker1115" markerWidth="13" markerHeight="9" refX="9.5" refY="4.5" viewBox="0 0 13 9" orient="auto" markerUnits="userSpaceOnUse" stroke-dasharray="0,0"><path id="SvgjsPath1116" d="M0,0 L13,4.5 L0,9 L0,0" fill="#323232" stroke="#323232" stroke-width="1"></path></marker></defs><rect id="svgbackgroundid" width="641" height="409" fill="transparent"></rect><rect id="SvgjsRect1009" width="641" height="409" fill="url(#pattern_mark_0)"></rect><rect id="SvgjsRect1010" width="641" height="409" fill="url(#pattern_mark_1)"></rect><g id="SvgjsG1011" transform="translate(353,25)"><path id="SvgjsPath1012" d="M 0 4Q 0 0 4 0L 259 0Q 263 0 263 4L 263 355Q 263 359 259 359L 4 359Q 0 359 0 355Z" stroke-dasharray="10,6" stroke="rgba(33,41,48,1)" stroke-width="1.5" fill="url(#SvgjsLinearGradient1013)"></path><g id="SvgjsG1016"><text id="SvgjsText1017" font-family="&quot;Comic Sans MS&quot;" text-anchor="middle" font-size="13px" width="243px" fill="#323232" font-weight="700" align="middle" lineHeight="125%" anchor="middle" family="&quot;Comic Sans MS&quot;" size="13px" weight="700" font-style="" opacity="1" y="168.875" transform="rotate(0)"></text></g></g><g id="SvgjsG1018" transform="translate(25,25)"><path id="SvgjsPath1019" d="M 0 4Q 0 0 4 0L 118 0Q 122 0 122 4L 122 355Q 122 359 118 359L 4 359Q 0 359 0 355Z" stroke-dasharray="10,6" stroke="rgba(33,41,48,1)" stroke-width="1.5" fill="url(#SvgjsLinearGradient1020)"></path><g id="SvgjsG1023"><text id="SvgjsText1024" font-family="&quot;Comic Sans MS&quot;" text-anchor="middle" font-size="13px" width="102px" fill="#323232" font-weight="700" align="middle" lineHeight="125%" anchor="middle" family="&quot;Comic Sans MS&quot;" size="13px" weight="700" font-style="" opacity="1" y="168.875" transform="rotate(0)"></text></g></g><g id="SvgjsG1025" transform="translate(51,49)"><path id="SvgjsPath1026" d="M 0 9.8C 0 -2.8000000000000003 70 -2.8000000000000003 70 9.8L 70 60.199999999999996C 70 72.8 0 72.8 0 60.199999999999996L 0 9.8Z" stroke="rgba(33,41,48,1)" stroke-width="1.5" fill-opacity="1" fill="#ffffff"></path><path id="SvgjsPath1027" d="M 70 9.8C 70 21 0 21 0 9.8L 0 14C 0 25.2 70 25.2 70 14L 70 18.2C 70 29.4 0 29.4 0 18.2C 0 29.4 70 29.4 70 18.2Z" stroke="rgba(33,41,48,1)" stroke-width="1.5" fill-opacity="1" fill="#ffffff"></path><path id="SvgjsPath1028" d="M 0 7Q 35 -7 70 7L 70 63Q 35 77 0 63L 0 7Z" stroke="none" fill="none"></path><g id="SvgjsG1029"><text id="SvgjsText1030" font-family="&quot;Comic Sans MS&quot;" text-anchor="middle" font-size="13px" width="70px" fill="#323232" font-weight="700" align="middle" lineHeight="125%" anchor="middle" family="&quot;Comic Sans MS&quot;" size="13px" weight="700" font-style="" opacity="1" y="36.041666666666664" transform="rotate(0)"></text></g></g><g id="SvgjsG1031" transform="translate(51,269)"><path id="SvgjsPath1032" d="M 0 0L 0 90L 70 90L 70 22.5L 46.666666666666664 0L 0 0Z" stroke="rgba(33,41,48,1)" stroke-width="1.5" fill-opacity="1" fill="#ffffff"></path><path id="SvgjsPath1033" d="M 46.666666666666664 0L 46.666666666666664 22.5L 70 22.5" stroke="rgba(33,41,48,1)" stroke-width="1.5" fill-opacity="1" fill="#ffffff"></path><path id="SvgjsPath1034" d="M 0 0L 70 0L 70 90L 0 90Z" stroke="none" fill="none"></path><g id="SvgjsG1035"><text id="SvgjsText1036" font-family="&quot;Comic Sans MS&quot;" text-anchor="middle" font-size="13px" width="50px" fill="#323232" font-weight="700" align="middle" lineHeight="125%" anchor="middle" family="&quot;Comic Sans MS&quot;" size="13px" weight="700" font-style="" opacity="1" y="25.875" transform="rotate(0)"><tspan id="SvgjsTspan1037" dy="16.25" x="35"><tspan id="SvgjsTspan1038" style="">Binary </tspan></tspan><tspan id="SvgjsTspan1039" dy="16.25" x="35"><tspan id="SvgjsTspan1040" style="">log</tspan></tspan></text></g></g><g id="SvgjsG1041" transform="translate(387,74)"><path id="SvgjsPath1042" d="M 0 0L 50 0L 50 50L 0 50Z" stroke="none" fill="url(#SvgjsPattern1043)"></path></g><g id="SvgjsG1045" transform="translate(437,49)"><path id="SvgjsPath1046" d="M 0 9.8C 0 -2.8000000000000003 70 -2.8000000000000003 70 9.8L 70 60.199999999999996C 70 72.8 0 72.8 0 60.199999999999996L 0 9.8Z" stroke="rgba(33,41,48,1)" stroke-width="1.5" fill-opacity="1" fill="#ffffff"></path><path id="SvgjsPath1047" d="M 70 9.8C 70 21 0 21 0 9.8L 0 14C 0 25.2 70 25.2 70 14L 70 18.2C 70 29.4 0 29.4 0 18.2C 0 29.4 70 29.4 70 18.2Z" stroke="rgba(33,41,48,1)" stroke-width="1.5" fill-opacity="1" fill="#ffffff"></path><path id="SvgjsPath1048" d="M 0 7Q 35 -7 70 7L 70 63Q 35 77 0 63L 0 7Z" stroke="none" fill="none"></path><g id="SvgjsG1049"><text id="SvgjsText1050" font-family="&quot;Comic Sans MS&quot;" text-anchor="middle" font-size="13px" width="70px" fill="#323232" font-weight="700" align="middle" lineHeight="125%" anchor="middle" family="&quot;Comic Sans MS&quot;" size="13px" weight="700" font-style="" opacity="1" y="36.041666666666664" transform="rotate(0)"></text></g></g><g id="SvgjsG1051" transform="translate(437,269)"><path id="SvgjsPath1052" d="M 0 0L 0 90L 70 90L 70 22.5L 46.666666666666664 0L 0 0Z" stroke="rgba(33,41,48,1)" stroke-width="1.5" fill-opacity="1" fill="#ffffff"></path><path id="SvgjsPath1053" d="M 46.666666666666664 0L 46.666666666666664 22.5L 70 22.5" stroke="rgba(33,41,48,1)" stroke-width="1.5" fill-opacity="1" fill="#ffffff"></path><path id="SvgjsPath1054" d="M 0 0L 70 0L 70 90L 0 90Z" stroke="none" fill="none"></path><g id="SvgjsG1055"><text id="SvgjsText1056" font-family="&quot;Comic Sans MS&quot;" text-anchor="middle" font-size="13px" width="50px" fill="#323232" font-weight="700" align="middle" lineHeight="125%" anchor="middle" family="&quot;Comic Sans MS&quot;" size="13px" weight="700" font-style="" opacity="1" y="25.875" transform="rotate(0)"><tspan id="SvgjsTspan1057" dy="16.25" x="35"><tspan id="SvgjsTspan1058" style="">Relay </tspan></tspan><tspan id="SvgjsTspan1059" dy="16.25" x="35"><tspan id="SvgjsTspan1060" style="">log</tspan></tspan></text></g></g><g id="SvgjsG1061" transform="translate(483,104)"><path id="SvgjsPath1062" d="M 0 0L 50 0L 50 50L 0 50Z" stroke="none" fill="url(#SvgjsPattern1063)"></path></g><g id="SvgjsG1065"><path id="SvgjsPath1066" d="M86 119.75L86 194L86 194L86 266.3" stroke="#323232" stroke-width="1.5" fill="none" marker-end="url(#SvgjsMarker1067)"></path><rect id="SvgjsRect1069" width="84" height="18" x="44" y="184.025" fill="#ffffff"></rect><text id="SvgjsText1070" font-family="&quot;Comic Sans MS&quot;" text-anchor="middle" font-size="13px" width="84px" fill="#323232" font-weight="700" align="top" lineHeight="16px" anchor="middle" family="&quot;Comic Sans MS&quot;" size="13px" weight="700" font-style="" opacity="1" y="181.4" transform="rotate(0)"><tspan id="SvgjsTspan1071" dy="16.25" x="86"><tspan id="SvgjsTspan1072" style="">Data changes</tspan></tspan></text></g><g id="SvgjsG1073" transform="translate(353,59)"><path id="SvgjsPath1074" d="M 0 0L 79 0L 79 20L 0 20Z" stroke="none" fill="none"></path><g id="SvgjsG1075"><text id="SvgjsText1076" font-family="&quot;Comic Sans MS&quot;" text-anchor="middle" font-size="13px" width="79px" fill="#323232" font-weight="700" align="middle" lineHeight="125%" anchor="middle" family="&quot;Comic Sans MS&quot;" size="13px" weight="700" font-style="" opacity="1" y="-0.625" transform="rotate(0)"><tspan id="SvgjsTspan1077" dy="16.25" x="39.5"><tspan id="SvgjsTspan1078" style="">I/O thread</tspan></tspan></text></g></g><g id="SvgjsG1079" transform="translate(533,99)"><path id="SvgjsPath1080" d="M 0 0L 79 0L 79 40L 0 40Z" stroke="none" fill="none"></path><g id="SvgjsG1081"><text id="SvgjsText1082" font-family="&quot;Comic Sans MS&quot;" text-anchor="middle" font-size="13px" width="79px" fill="#323232" font-weight="700" align="middle" lineHeight="125%" anchor="middle" family="&quot;Comic Sans MS&quot;" size="13px" weight="700" font-style="" opacity="1" y="9.375" transform="rotate(0)"><tspan id="SvgjsTspan1083" dy="16.25" x="39.5"><tspan id="SvgjsTspan1084" style="">SQL thread</tspan></tspan></text></g></g><g id="SvgjsG1085"><path id="SvgjsPath1086" d="M386.25009752502933 99.01209454558324C 250.19005884074068 99 147 161 121.50782202723548 311.3481861323512" stroke="#323232" stroke-width="1.5" fill="none" marker-end="url(#SvgjsMarker1087)"></path><rect id="SvgjsRect1089" width="30" height="18" x="191.9637263338679" y="144.0005033156828" fill="#ffffff"></rect><text id="SvgjsText1090" font-family="&quot;Comic Sans MS&quot;" text-anchor="middle" font-size="13px" width="30px" fill="#323232" font-weight="700" align="top" lineHeight="16px" anchor="middle" family="&quot;Comic Sans MS&quot;" size="13px" weight="700" font-style="" opacity="1" y="141.3755033156828" transform="rotate(0)"><tspan id="SvgjsTspan1091" dy="16.25" x="206.9637263338679"><tspan id="SvgjsTspan1092" style="">Read</tspan></tspan></text></g><g id="SvgjsG1093"><path id="SvgjsPath1094" d="M121.12506669689691 314.7394986959605C 123 390 412 263.0142438745038 411.8104298728946 126.6933368090362" stroke="#323232" stroke-width="1.5" fill="none" marker-end="url(#SvgjsMarker1095)"></path></g><g id="SvgjsG1097"><path id="SvgjsPath1098" d="M419.9860052339452 124.7498694196479C 420 185.6168808038836 403 223 469.81531883644766 267.4134413929452" stroke="#323232" stroke-width="1.5" fill="none" marker-end="url(#SvgjsMarker1099)"></path><rect id="SvgjsRect1101" width="37" height="18" x="402.5018211707137" y="198.6156092298544" fill="#ffffff"></rect><text id="SvgjsText1102" font-family="&quot;Comic Sans MS&quot;" text-anchor="middle" font-size="13px" width="37px" fill="#323232" font-weight="700" align="top" lineHeight="16px" anchor="middle" family="&quot;Comic Sans MS&quot;" size="13px" weight="700" font-style="" opacity="1" y="195.9906092298544" transform="rotate(0)"><tspan id="SvgjsTspan1103" dy="16.25" x="421.0018211707137"><tspan id="SvgjsTspan1104" style="">Write</tspan></tspan></text></g><g id="SvgjsG1105"><path id="SvgjsPath1106" d="M507.33737689461634 154.35132694205222C 473 166 455 235 489.288568609595 266.91169863383266" stroke="#323232" stroke-width="1.5" fill="none" marker-end="url(#SvgjsMarker1107)"></path><rect id="SvgjsRect1109" width="30" height="18" x="468.1257319092795" y="166.55210568687698" fill="#ffffff"></rect><text id="SvgjsText1110" font-family="&quot;Comic Sans MS&quot;" text-anchor="middle" font-size="13px" width="30px" fill="#323232" font-weight="700" align="top" lineHeight="16px" anchor="middle" family="&quot;Comic Sans MS&quot;" size="13px" weight="700" font-style="" opacity="1" y="163.92710568687698" transform="rotate(0)"><tspan id="SvgjsTspan1111" dy="16.25" x="483.1257319092795"><tspan id="SvgjsTspan1112" style="">Read</tspan></tspan></text></g><g id="SvgjsG1113"><path id="SvgjsPath1114" d="M491.3687682173653 269.6530773322213C 513 327 554 194 533.6975804858773 144.60832924795227" stroke="#323232" stroke-width="1.5" fill="none" marker-end="url(#SvgjsMarker1115)"></path><rect id="SvgjsRect1117" width="41" height="18" x="515.8170696653831" y="204.21566477693483" fill="#ffffff"></rect><text id="SvgjsText1118" font-family="&quot;Comic Sans MS&quot;" text-anchor="middle" font-size="13px" width="41px" fill="#323232" font-weight="700" align="top" lineHeight="16px" anchor="middle" family="&quot;Comic Sans MS&quot;" size="13px" weight="700" font-style="" opacity="1" y="201.59066477693483" transform="rotate(0)"><tspan id="SvgjsTspan1119" dy="16.25" x="536.3170696653831"><tspan id="SvgjsTspan1120" style="">Replay</tspan></tspan></text></g></svg>