<svg id="SvgjsSvg1006" width="1205.81342976" height="573.5000000000001" xmlns="http://www.w3.org/2000/svg" version="1.1" xmlns:xlink="http://www.w3.org/1999/xlink" xmlns:svgjs="http://svgjs.com/svgjs"><defs id="SvgjsDefs1007"><pattern patternUnits="userSpaceOnUse" id="pattern_mark_0" width="300" height="300"><text x="150" y="100" fill="rgba(229,229,229,0.8)" font-size="18" transform="rotate(-45, 150, 150)" style="dominant-baseline: middle; text-anchor: middle;"></text></pattern><pattern patternUnits="userSpaceOnUse" id="pattern_mark_1" width="300" height="300"><text x="150" y="200" fill="rgba(229,229,229,0.8)" font-size="18" transform="rotate(-45, 150, 150)" style="dominant-baseline: middle; text-anchor: middle;"></text></pattern><marker id="SvgjsMarker1309" markerWidth="13" markerHeight="9" refX="9.5" refY="4.5" viewBox="0 0 13 9" orient="auto" markerUnits="userSpaceOnUse" stroke-dasharray="0,0"><path id="SvgjsPath1310" d="M0,0 L13,4.5 L0,9 L0,0" fill="#323232" stroke="#323232" stroke-width="1"></path></marker><marker id="SvgjsMarker1313" markerWidth="13" markerHeight="9" refX="9.5" refY="4.5" viewBox="0 0 13 9" orient="auto" markerUnits="userSpaceOnUse" stroke-dasharray="0,0"><path id="SvgjsPath1314" d="M0,0 L13,4.5 L0,9 L0,0" fill="#323232" stroke="#323232" stroke-width="1"></path></marker><marker id="SvgjsMarker1317" markerWidth="13" markerHeight="9" refX="9.5" refY="4.5" viewBox="0 0 13 9" orient="auto" markerUnits="userSpaceOnUse" stroke-dasharray="0,0"><path id="SvgjsPath1318" d="M0,0 L13,4.5 L0,9 L0,0" fill="#323232" stroke="#323232" stroke-width="1"></path></marker><marker id="SvgjsMarker1321" markerWidth="13" markerHeight="9" refX="9.5" refY="4.5" viewBox="0 0 13 9" orient="auto" markerUnits="userSpaceOnUse" stroke-dasharray="0,0"><path id="SvgjsPath1322" d="M0,0 L13,4.5 L0,9 L0,0" fill="#323232" stroke="#323232" stroke-width="1"></path></marker><marker id="SvgjsMarker1325" markerWidth="13" markerHeight="9" refX="9.5" refY="4.5" viewBox="0 0 13 9" orient="auto" markerUnits="userSpaceOnUse" stroke-dasharray="0,0"><path id="SvgjsPath1326" d="M0,0 L13,4.5 L0,9 L0,0" fill="#323232" stroke="#323232" stroke-width="1"></path></marker><marker id="SvgjsMarker1329" markerWidth="13" markerHeight="9" refX="9.5" refY="4.5" viewBox="0 0 13 9" orient="auto" markerUnits="userSpaceOnUse" stroke-dasharray="0,0"><path id="SvgjsPath1330" d="M0,0 L13,4.5 L0,9 L0,0" fill="#323232" stroke="#323232" stroke-width="1"></path></marker><marker id="SvgjsMarker1333" markerWidth="13" markerHeight="9" refX="9.5" refY="4.5" viewBox="0 0 13 9" orient="auto" markerUnits="userSpaceOnUse" stroke-dasharray="0,0"><path id="SvgjsPath1334" d="M0,0 L13,4.5 L0,9 L0,0" fill="#323232" stroke="#323232" stroke-width="1"></path></marker><marker id="SvgjsMarker1337" markerWidth="13" markerHeight="9" refX="9.5" refY="4.5" viewBox="0 0 13 9" orient="auto" markerUnits="userSpaceOnUse" stroke-dasharray="0,0"><path id="SvgjsPath1338" d="M0,0 L13,4.5 L0,9 L0,0" fill="#323232" stroke="#323232" stroke-width="1"></path></marker><marker id="SvgjsMarker1341" markerWidth="13" markerHeight="9" refX="9.5" refY="4.5" viewBox="0 0 13 9" orient="auto" markerUnits="userSpaceOnUse" stroke-dasharray="0,0"><path id="SvgjsPath1342" d="M0,0 L13,4.5 L0,9 L0,0" fill="#323232" stroke="#323232" stroke-width="1"></path></marker><marker id="SvgjsMarker1345" markerWidth="13" markerHeight="9" refX="9.5" refY="4.5" viewBox="0 0 13 9" orient="auto" markerUnits="userSpaceOnUse" stroke-dasharray="0,0"><path id="SvgjsPath1346" d="M0,0 L13,4.5 L0,9 L0,0" fill="#323232" stroke="#323232" stroke-width="1"></path></marker><marker id="SvgjsMarker1349" markerWidth="13" markerHeight="9" refX="9.5" refY="4.5" viewBox="0 0 13 9" orient="auto" markerUnits="userSpaceOnUse" stroke-dasharray="0,0"><path id="SvgjsPath1350" d="M0,0 L13,4.5 L0,9 L0,0" fill="#323232" stroke="#323232" stroke-width="1"></path></marker><marker id="SvgjsMarker1353" markerWidth="13" markerHeight="9" refX="9.5" refY="4.5" viewBox="0 0 13 9" orient="auto" markerUnits="userSpaceOnUse" stroke-dasharray="0,0"><path id="SvgjsPath1354" d="M0,0 L13,4.5 L0,9 L0,0" fill="#323232" stroke="#323232" stroke-width="1"></path></marker><marker id="SvgjsMarker1357" markerWidth="13" markerHeight="9" refX="9.5" refY="4.5" viewBox="0 0 13 9" orient="auto" markerUnits="userSpaceOnUse" stroke-dasharray="0,0"><path id="SvgjsPath1358" d="M0,0 L13,4.5 L0,9 L0,0" fill="#323232" stroke="#323232" stroke-width="1"></path></marker><marker id="SvgjsMarker1367" markerWidth="13" markerHeight="9" refX="9.5" refY="4.5" viewBox="0 0 13 9" orient="auto" markerUnits="userSpaceOnUse" stroke-dasharray="0,0"><path id="SvgjsPath1368" d="M0,0 L13,4.5 L0,9 L0,0" fill="#323232" stroke="#323232" stroke-width="1"></path></marker></defs><rect id="svgbackgroundid" width="1205.81342976" height="573.5000000000001" fill="transparent"></rect><rect id="SvgjsRect1009" width="1205.81342976" height="573.5000000000001" fill="url(#pattern_mark_0)"></rect><rect id="SvgjsRect1010" width="1205.81342976" height="573.5000000000001" fill="url(#pattern_mark_1)"></rect><g id="SvgjsG1011" transform="translate(160,177.5)"><path id="SvgjsPath1012" d="M 0 4Q 0 0 4 0L 88 0Q 92 0 92 4L 92 122Q 92 126 88 126L 4 126Q 0 126 0 122Z" stroke="rgba(33,41,48,1)" stroke-width="1.5" fill-opacity="1" fill="#99ff33"></path><g id="SvgjsG1013"><text id="SvgjsText1014" font-family="&quot;Comic Sans MS&quot;" text-anchor="middle" font-size="13px" width="72px" fill="#323232" font-weight="700" align="middle" lineHeight="125%" anchor="middle" family="&quot;Comic Sans MS&quot;" size="13px" weight="700" font-style="" opacity="1" y="52.375" transform="rotate(0)"></text></g></g><g id="SvgjsG1015" transform="translate(296,35)"><path id="SvgjsPath1016" d="M 0 4Q 0 0 4 0L 366 0Q 370 0 370 4L 370 64Q 370 68 366 68L 4 68Q 0 68 0 64Z" stroke="rgba(33,41,48,1)" stroke-width="1.5" fill-opacity="1" fill="#f8cccd"></path><g id="SvgjsG1017"><text id="SvgjsText1018" font-family="&quot;Comic Sans MS&quot;" text-anchor="middle" font-size="13px" width="350px" fill="#323232" font-weight="700" align="middle" lineHeight="125%" anchor="middle" family="&quot;Comic Sans MS&quot;" size="13px" weight="700" font-style="" opacity="1" y="23.375" transform="rotate(0)"></text></g></g><g id="SvgjsG1019" transform="translate(306,65)"><path id="SvgjsPath1020" d="M 0 4Q 0 0 4 0L 66 0Q 70 0 70 4L 70 26Q 70 30 66 30L 4 30Q 0 30 0 26Z" stroke="rgba(33,41,48,1)" stroke-width="1.5" fill-opacity="1" fill="#99ffff"></path><g id="SvgjsG1021"><text id="SvgjsText1022" font-family="&quot;Comic Sans MS&quot;" text-anchor="middle" font-size="13px" width="50px" fill="#323232" font-weight="700" align="middle" lineHeight="125%" anchor="middle" family="&quot;Comic Sans MS&quot;" size="13px" weight="700" font-style="" opacity="1" y="4.375" transform="rotate(0)"><tspan id="SvgjsTspan1023" dy="16.25" x="35"><tspan id="SvgjsTspan1024" style="">*head</tspan></tspan></text></g></g><g id="SvgjsG1025" transform="translate(376,65)"><path id="SvgjsPath1026" d="M 0 4Q 0 0 4 0L 66 0Q 70 0 70 4L 70 26Q 70 30 66 30L 4 30Q 0 30 0 26Z" stroke="rgba(33,41,48,1)" stroke-width="1.5" fill-opacity="1" fill="#99ffff"></path><g id="SvgjsG1027"><text id="SvgjsText1028" font-family="&quot;Comic Sans MS&quot;" text-anchor="middle" font-size="13px" width="50px" fill="#323232" font-weight="700" align="middle" lineHeight="125%" anchor="middle" family="&quot;Comic Sans MS&quot;" size="13px" weight="700" font-style="" opacity="1" y="4.375" transform="rotate(0)"><tspan id="SvgjsTspan1029" dy="16.25" x="35"><tspan id="SvgjsTspan1030" style="">*tail</tspan></tspan></text></g></g><g id="SvgjsG1031" transform="translate(446,65)"><path id="SvgjsPath1032" d="M 0 4Q 0 0 4 0L 66 0Q 70 0 70 4L 70 26Q 70 30 66 30L 4 30Q 0 30 0 26Z" stroke="rgba(33,41,48,1)" stroke-width="1.5" fill-opacity="1" fill="#99ffff"></path><g id="SvgjsG1033"><text id="SvgjsText1034" font-family="&quot;Comic Sans MS&quot;" text-anchor="middle" font-size="13px" width="50px" fill="#323232" font-weight="700" align="middle" lineHeight="125%" anchor="middle" family="&quot;Comic Sans MS&quot;" size="13px" weight="700" font-style="" opacity="1" y="4.375" transform="rotate(0)"><tspan id="SvgjsTspan1035" dy="16.25" x="35"><tspan id="SvgjsTspan1036" style="">count</tspan></tspan></text></g></g><g id="SvgjsG1037" transform="translate(516,65)"><path id="SvgjsPath1038" d="M 0 4Q 0 0 4 0L 66 0Q 70 0 70 4L 70 26Q 70 30 66 30L 4 30Q 0 30 0 26Z" stroke="rgba(33,41,48,1)" stroke-width="1.5" fill-opacity="1" fill="#99ffff"></path><g id="SvgjsG1039"><text id="SvgjsText1040" font-family="&quot;Comic Sans MS&quot;" text-anchor="middle" font-size="13px" width="50px" fill="#323232" font-weight="700" align="middle" lineHeight="125%" anchor="middle" family="&quot;Comic Sans MS&quot;" size="13px" weight="700" font-style="" opacity="1" y="4.375" transform="rotate(0)"><tspan id="SvgjsTspan1041" dy="16.25" x="35"><tspan id="SvgjsTspan1042" style="">len</tspan></tspan></text></g></g><g id="SvgjsG1043" transform="translate(586,65)"><path id="SvgjsPath1044" d="M 0 4Q 0 0 4 0L 66 0Q 70 0 70 4L 70 26Q 70 30 66 30L 4 30Q 0 30 0 26Z" stroke="rgba(33,41,48,1)" stroke-width="1.5" fill-opacity="1" fill="#99ffff"></path><g id="SvgjsG1045"><text id="SvgjsText1046" font-family="&quot;Comic Sans MS&quot;" text-anchor="middle" font-size="13px" width="50px" fill="#323232" font-weight="700" align="middle" lineHeight="125%" anchor="middle" family="&quot;Comic Sans MS&quot;" size="13px" weight="700" font-style="" opacity="1" y="4.375" transform="rotate(0)"><tspan id="SvgjsTspan1047" dy="16.25" x="35"><tspan id="SvgjsTspan1048" style="">......</tspan></tspan></text></g></g><g id="SvgjsG1049" transform="translate(431,25)"><path id="SvgjsPath1050" d="M 0 0L 100 0L 100 40L 0 40Z" stroke="none" fill="none"></path><g id="SvgjsG1051"><text id="SvgjsText1052" font-family="&quot;Comic Sans MS&quot;" text-anchor="middle" font-size="13px" width="100px" fill="#323232" font-weight="700" align="middle" lineHeight="125%" anchor="middle" family="&quot;Comic Sans MS&quot;" size="13px" weight="700" font-style="" opacity="1" y="9.375" transform="rotate(0)"><tspan id="SvgjsTspan1053" dy="16.25" x="50"><tspan id="SvgjsTspan1054" style="">quicklist</tspan></tspan></text></g></g><g id="SvgjsG1055" transform="translate(171,208.5)"><path id="SvgjsPath1056" d="M 0 4Q 0 0 4 0L 66 0Q 70 0 70 4L 70 26Q 70 30 66 30L 4 30Q 0 30 0 26Z" stroke="rgba(33,41,48,1)" stroke-width="1.5" fill-opacity="1" fill="#fbff05"></path><g id="SvgjsG1057"><text id="SvgjsText1058" font-family="&quot;Comic Sans MS&quot;" text-anchor="middle" font-size="13px" width="50px" fill="#323232" font-weight="700" align="middle" lineHeight="125%" anchor="middle" family="&quot;Comic Sans MS&quot;" size="13px" weight="700" font-style="" opacity="1" y="4.375" transform="rotate(0)"><tspan id="SvgjsTspan1059" dy="16.25" x="35"><tspan id="SvgjsTspan1060" style="">*pre</tspan></tspan></text></g></g><g id="SvgjsG1061" transform="translate(171,238.5)"><path id="SvgjsPath1062" d="M 0 4Q 0 0 4 0L 66 0Q 70 0 70 4L 70 26Q 70 30 66 30L 4 30Q 0 30 0 26Z" stroke="rgba(33,41,48,1)" stroke-width="1.5" fill-opacity="1" fill="#fbff05"></path><g id="SvgjsG1063"><text id="SvgjsText1064" font-family="&quot;Comic Sans MS&quot;" text-anchor="middle" font-size="13px" width="50px" fill="#323232" font-weight="700" align="middle" lineHeight="125%" anchor="middle" family="&quot;Comic Sans MS&quot;" size="13px" weight="700" font-style="" opacity="1" y="4.375" transform="rotate(0)"><tspan id="SvgjsTspan1065" dy="16.25" x="35"><tspan id="SvgjsTspan1066" style="">*tail</tspan></tspan></text></g></g><g id="SvgjsG1067" transform="translate(171,268.5)"><path id="SvgjsPath1068" d="M 0 4Q 0 0 4 0L 66 0Q 70 0 70 4L 70 26Q 70 30 66 30L 4 30Q 0 30 0 26Z" stroke="rgba(33,41,48,1)" stroke-width="1.5" fill-opacity="1" fill="#fbff05"></path><g id="SvgjsG1069"><text id="SvgjsText1070" font-family="&quot;Comic Sans MS&quot;" text-anchor="middle" font-size="13px" width="50px" fill="#323232" font-weight="700" align="middle" lineHeight="125%" anchor="middle" family="&quot;Comic Sans MS&quot;" size="13px" weight="700" font-style="" opacity="1" y="4.375" transform="rotate(0)"><tspan id="SvgjsTspan1071" dy="16.25" x="35"><tspan id="SvgjsTspan1072" style="">*zl</tspan></tspan></text></g></g><g id="SvgjsG1073" transform="translate(156,171.5)"><path id="SvgjsPath1074" d="M 0 0L 100 0L 100 40L 0 40Z" stroke="none" fill="none"></path><g id="SvgjsG1075"><text id="SvgjsText1076" font-family="&quot;Comic Sans MS&quot;" text-anchor="middle" font-size="13px" width="100px" fill="#323232" font-weight="700" align="middle" lineHeight="125%" anchor="middle" family="&quot;Comic Sans MS&quot;" size="13px" weight="700" font-style="" opacity="1" y="9.375" transform="rotate(0)"><tspan id="SvgjsTspan1077" dy="16.25" x="50"><tspan id="SvgjsTspan1078" style="">quicklistNode</tspan></tspan></text></g></g><g id="SvgjsG1079" transform="translate(341,177.5)"><path id="SvgjsPath1080" d="M 0 4Q 0 0 4 0L 88 0Q 92 0 92 4L 92 122Q 92 126 88 126L 4 126Q 0 126 0 122Z" stroke="rgba(33,41,48,1)" stroke-width="1.5" fill-opacity="1" fill="#99ff33"></path><g id="SvgjsG1081"><text id="SvgjsText1082" font-family="&quot;Comic Sans MS&quot;" text-anchor="middle" font-size="13px" width="72px" fill="#323232" font-weight="700" align="middle" lineHeight="125%" anchor="middle" family="&quot;Comic Sans MS&quot;" size="13px" weight="700" font-style="" opacity="1" y="52.375" transform="rotate(0)"></text></g></g><g id="SvgjsG1083" transform="translate(352,208.5)"><path id="SvgjsPath1084" d="M 0 4Q 0 0 4 0L 66 0Q 70 0 70 4L 70 26Q 70 30 66 30L 4 30Q 0 30 0 26Z" stroke="rgba(33,41,48,1)" stroke-width="1.5" fill-opacity="1" fill="#fbff05"></path><g id="SvgjsG1085"><text id="SvgjsText1086" font-family="&quot;Comic Sans MS&quot;" text-anchor="middle" font-size="13px" width="50px" fill="#323232" font-weight="700" align="middle" lineHeight="125%" anchor="middle" family="&quot;Comic Sans MS&quot;" size="13px" weight="700" font-style="" opacity="1" y="4.375" transform="rotate(0)"><tspan id="SvgjsTspan1087" dy="16.25" x="35"><tspan id="SvgjsTspan1088" style="">*pre</tspan></tspan></text></g></g><g id="SvgjsG1089" transform="translate(352,238.5)"><path id="SvgjsPath1090" d="M 0 4Q 0 0 4 0L 66 0Q 70 0 70 4L 70 26Q 70 30 66 30L 4 30Q 0 30 0 26Z" stroke="rgba(33,41,48,1)" stroke-width="1.5" fill-opacity="1" fill="#fbff05"></path><g id="SvgjsG1091"><text id="SvgjsText1092" font-family="&quot;Comic Sans MS&quot;" text-anchor="middle" font-size="13px" width="50px" fill="#323232" font-weight="700" align="middle" lineHeight="125%" anchor="middle" family="&quot;Comic Sans MS&quot;" size="13px" weight="700" font-style="" opacity="1" y="4.375" transform="rotate(0)"><tspan id="SvgjsTspan1093" dy="16.25" x="35"><tspan id="SvgjsTspan1094" style="">*tail</tspan></tspan></text></g></g><g id="SvgjsG1095" transform="translate(352,268.5)"><path id="SvgjsPath1096" d="M 0 4Q 0 0 4 0L 66 0Q 70 0 70 4L 70 26Q 70 30 66 30L 4 30Q 0 30 0 26Z" stroke="rgba(33,41,48,1)" stroke-width="1.5" fill-opacity="1" fill="#fbff05"></path><g id="SvgjsG1097"><text id="SvgjsText1098" font-family="&quot;Comic Sans MS&quot;" text-anchor="middle" font-size="13px" width="50px" fill="#323232" font-weight="700" align="middle" lineHeight="125%" anchor="middle" family="&quot;Comic Sans MS&quot;" size="13px" weight="700" font-style="" opacity="1" y="4.375" transform="rotate(0)"><tspan id="SvgjsTspan1099" dy="16.25" x="35"><tspan id="SvgjsTspan1100" style="">*zl</tspan></tspan></text></g></g><g id="SvgjsG1101" transform="translate(337,171.5)"><path id="SvgjsPath1102" d="M 0 0L 100 0L 100 40L 0 40Z" stroke="none" fill="none"></path><g id="SvgjsG1103"><text id="SvgjsText1104" font-family="&quot;Comic Sans MS&quot;" text-anchor="middle" font-size="13px" width="100px" fill="#323232" font-weight="700" align="middle" lineHeight="125%" anchor="middle" family="&quot;Comic Sans MS&quot;" size="13px" weight="700" font-style="" opacity="1" y="9.375" transform="rotate(0)"><tspan id="SvgjsTspan1105" dy="16.25" x="50"><tspan id="SvgjsTspan1106" style="">quicklistNode</tspan></tspan></text></g></g><g id="SvgjsG1107" transform="translate(522,177.5)"><path id="SvgjsPath1108" d="M 0 4Q 0 0 4 0L 88 0Q 92 0 92 4L 92 122Q 92 126 88 126L 4 126Q 0 126 0 122Z" stroke="rgba(33,41,48,1)" stroke-width="1.5" fill-opacity="1" fill="#99ff33"></path><g id="SvgjsG1109"><text id="SvgjsText1110" font-family="&quot;Comic Sans MS&quot;" text-anchor="middle" font-size="13px" width="72px" fill="#323232" font-weight="700" align="middle" lineHeight="125%" anchor="middle" family="&quot;Comic Sans MS&quot;" size="13px" weight="700" font-style="" opacity="1" y="52.375" transform="rotate(0)"></text></g></g><g id="SvgjsG1111" transform="translate(533,208.5)"><path id="SvgjsPath1112" d="M 0 4Q 0 0 4 0L 66 0Q 70 0 70 4L 70 26Q 70 30 66 30L 4 30Q 0 30 0 26Z" stroke="rgba(33,41,48,1)" stroke-width="1.5" fill-opacity="1" fill="#fbff05"></path><g id="SvgjsG1113"><text id="SvgjsText1114" font-family="&quot;Comic Sans MS&quot;" text-anchor="middle" font-size="13px" width="50px" fill="#323232" font-weight="700" align="middle" lineHeight="125%" anchor="middle" family="&quot;Comic Sans MS&quot;" size="13px" weight="700" font-style="" opacity="1" y="4.375" transform="rotate(0)"><tspan id="SvgjsTspan1115" dy="16.25" x="35"><tspan id="SvgjsTspan1116" style="">*pre</tspan></tspan></text></g></g><g id="SvgjsG1117" transform="translate(533,238.5)"><path id="SvgjsPath1118" d="M 0 4Q 0 0 4 0L 66 0Q 70 0 70 4L 70 26Q 70 30 66 30L 4 30Q 0 30 0 26Z" stroke="rgba(33,41,48,1)" stroke-width="1.5" fill-opacity="1" fill="#fbff05"></path><g id="SvgjsG1119"><text id="SvgjsText1120" font-family="&quot;Comic Sans MS&quot;" text-anchor="middle" font-size="13px" width="50px" fill="#323232" font-weight="700" align="middle" lineHeight="125%" anchor="middle" family="&quot;Comic Sans MS&quot;" size="13px" weight="700" font-style="" opacity="1" y="4.375" transform="rotate(0)"><tspan id="SvgjsTspan1121" dy="16.25" x="35"><tspan id="SvgjsTspan1122" style="">*tail</tspan></tspan></text></g></g><g id="SvgjsG1123" transform="translate(533,268.5)"><path id="SvgjsPath1124" d="M 0 4Q 0 0 4 0L 66 0Q 70 0 70 4L 70 26Q 70 30 66 30L 4 30Q 0 30 0 26Z" stroke="rgba(33,41,48,1)" stroke-width="1.5" fill-opacity="1" fill="#fbff05"></path><g id="SvgjsG1125"><text id="SvgjsText1126" font-family="&quot;Comic Sans MS&quot;" text-anchor="middle" font-size="13px" width="50px" fill="#323232" font-weight="700" align="middle" lineHeight="125%" anchor="middle" family="&quot;Comic Sans MS&quot;" size="13px" weight="700" font-style="" opacity="1" y="4.375" transform="rotate(0)"><tspan id="SvgjsTspan1127" dy="16.25" x="35"><tspan id="SvgjsTspan1128" style="">*zl</tspan></tspan></text></g></g><g id="SvgjsG1129" transform="translate(518,171.5)"><path id="SvgjsPath1130" d="M 0 0L 100 0L 100 40L 0 40Z" stroke="none" fill="none"></path><g id="SvgjsG1131"><text id="SvgjsText1132" font-family="&quot;Comic Sans MS&quot;" text-anchor="middle" font-size="13px" width="100px" fill="#323232" font-weight="700" align="middle" lineHeight="125%" anchor="middle" family="&quot;Comic Sans MS&quot;" size="13px" weight="700" font-style="" opacity="1" y="9.375" transform="rotate(0)"><tspan id="SvgjsTspan1133" dy="16.25" x="50"><tspan id="SvgjsTspan1134" style="">quicklistNode</tspan></tspan></text></g></g><g id="SvgjsG1135" transform="translate(703,177.5)"><path id="SvgjsPath1136" d="M 0 4Q 0 0 4 0L 88 0Q 92 0 92 4L 92 122Q 92 126 88 126L 4 126Q 0 126 0 122Z" stroke="rgba(33,41,48,1)" stroke-width="1.5" fill-opacity="1" fill="#99ff33"></path><g id="SvgjsG1137"><text id="SvgjsText1138" font-family="&quot;Comic Sans MS&quot;" text-anchor="middle" font-size="13px" width="72px" fill="#323232" font-weight="700" align="middle" lineHeight="125%" anchor="middle" family="&quot;Comic Sans MS&quot;" size="13px" weight="700" font-style="" opacity="1" y="52.375" transform="rotate(0)"></text></g></g><g id="SvgjsG1139" transform="translate(714,208.5)"><path id="SvgjsPath1140" d="M 0 4Q 0 0 4 0L 66 0Q 70 0 70 4L 70 26Q 70 30 66 30L 4 30Q 0 30 0 26Z" stroke="rgba(33,41,48,1)" stroke-width="1.5" fill-opacity="1" fill="#fbff05"></path><g id="SvgjsG1141"><text id="SvgjsText1142" font-family="&quot;Comic Sans MS&quot;" text-anchor="middle" font-size="13px" width="50px" fill="#323232" font-weight="700" align="middle" lineHeight="125%" anchor="middle" family="&quot;Comic Sans MS&quot;" size="13px" weight="700" font-style="" opacity="1" y="4.375" transform="rotate(0)"><tspan id="SvgjsTspan1143" dy="16.25" x="35"><tspan id="SvgjsTspan1144" style="">*pre</tspan></tspan></text></g></g><g id="SvgjsG1145" transform="translate(714,238.5)"><path id="SvgjsPath1146" d="M 0 4Q 0 0 4 0L 66 0Q 70 0 70 4L 70 26Q 70 30 66 30L 4 30Q 0 30 0 26Z" stroke="rgba(33,41,48,1)" stroke-width="1.5" fill-opacity="1" fill="#fbff05"></path><g id="SvgjsG1147"><text id="SvgjsText1148" font-family="&quot;Comic Sans MS&quot;" text-anchor="middle" font-size="13px" width="50px" fill="#323232" font-weight="700" align="middle" lineHeight="125%" anchor="middle" family="&quot;Comic Sans MS&quot;" size="13px" weight="700" font-style="" opacity="1" y="4.375" transform="rotate(0)"><tspan id="SvgjsTspan1149" dy="16.25" x="35"><tspan id="SvgjsTspan1150" style="">*tail</tspan></tspan></text></g></g><g id="SvgjsG1151" transform="translate(714,268.5)"><path id="SvgjsPath1152" d="M 0 4Q 0 0 4 0L 66 0Q 70 0 70 4L 70 26Q 70 30 66 30L 4 30Q 0 30 0 26Z" stroke="rgba(33,41,48,1)" stroke-width="1.5" fill-opacity="1" fill="#fbff05"></path><g id="SvgjsG1153"><text id="SvgjsText1154" font-family="&quot;Comic Sans MS&quot;" text-anchor="middle" font-size="13px" width="50px" fill="#323232" font-weight="700" align="middle" lineHeight="125%" anchor="middle" family="&quot;Comic Sans MS&quot;" size="13px" weight="700" font-style="" opacity="1" y="4.375" transform="rotate(0)"><tspan id="SvgjsTspan1155" dy="16.25" x="35"><tspan id="SvgjsTspan1156" style="">*zl</tspan></tspan></text></g></g><g id="SvgjsG1157" transform="translate(699,171.5)"><path id="SvgjsPath1158" d="M 0 0L 100 0L 100 40L 0 40Z" stroke="none" fill="none"></path><g id="SvgjsG1159"><text id="SvgjsText1160" font-family="&quot;Comic Sans MS&quot;" text-anchor="middle" font-size="13px" width="100px" fill="#323232" font-weight="700" align="middle" lineHeight="125%" anchor="middle" family="&quot;Comic Sans MS&quot;" size="13px" weight="700" font-style="" opacity="1" y="9.375" transform="rotate(0)"><tspan id="SvgjsTspan1161" dy="16.25" x="50"><tspan id="SvgjsTspan1162" style="">quicklistNode</tspan></tspan></text></g></g><g id="SvgjsG1163" transform="translate(656,355.5)"><path id="SvgjsPath1164" d="M0 0L75.0038718 0L75.0038718 30 L0 30Z" stroke="rgba(102, 102, 102,1)" stroke-width="1" fill-opacity="1" fill="#f567ff"></path><path id="SvgjsPath1165" d="M75.0038718 0L150.0077436 0L150.0077436 30 L75.0038718 30Z" stroke="rgba(102, 102, 102,1)" stroke-width="1" fill-opacity="1" fill="#f567ff"></path><path id="SvgjsPath1166" d="M150.0077436 0L225.01161539999998 0L225.01161539999998 30 L150.0077436 30Z" stroke="rgba(102, 102, 102,1)" stroke-width="1" fill-opacity="1" fill="#f567ff"></path><path id="SvgjsPath1167" d="M225.0116154 0L300.06793746000005 0L300.06793746000005 30 L225.0116154 30Z" stroke="rgba(102, 102, 102,1)" stroke-width="1" fill-opacity="1" fill="#f567ff"></path><path id="SvgjsPath1168" d="M300.06793746000005 0L375.01935900000007 0L375.01935900000007 30 L300.06793746000005 30Z" stroke="rgba(102, 102, 102,1)" stroke-width="1" fill-opacity="1" fill="#f567ff"></path><path id="SvgjsPath1169" d="M374.96690874 0L449.7609795 0L449.7609795 30 L374.96690874 30Z" stroke="rgba(102, 102, 102,1)" stroke-width="1" fill-opacity="1" fill="#f567ff"></path><path id="SvgjsPath1170" d="M449.81342976 0L524.5026 0L524.5026 30 L449.81342976 30Z" stroke="rgba(102, 102, 102,1)" stroke-width="1" fill-opacity="1" fill="#f567ff"></path><g id="SvgjsG1171"><text id="SvgjsText1172" font-family="&quot;Comic Sans MS&quot;" text-anchor="middle" font-size="16px" width="76px" fill="#323232" font-weight="700" align="middle" lineHeight="125%" anchor="middle" family="&quot;Comic Sans MS&quot;" size="16px" weight="700" font-style="" opacity="1" y="1" transform="rotate(0)"><tspan id="SvgjsTspan1173" dy="20" x="38"><tspan id="SvgjsTspan1174" style="">zlbytes</tspan></tspan></text></g><g id="SvgjsG1175"><text id="SvgjsText1176" font-family="&quot;Comic Sans MS&quot;" text-anchor="middle" font-size="16px" width="76px" fill="#323232" font-weight="700" align="middle" lineHeight="125%" anchor="middle" family="&quot;Comic Sans MS&quot;" size="16px" weight="700" font-style="" opacity="1" y="1" transform="rotate(0)"><tspan id="SvgjsTspan1177" dy="20" x="113.0038718"><tspan id="SvgjsTspan1178" style="">zltail</tspan></tspan></text></g><g id="SvgjsG1179"><text id="SvgjsText1180" font-family="&quot;Comic Sans MS&quot;" text-anchor="middle" font-size="16px" width="76px" fill="#323232" font-weight="700" align="middle" lineHeight="125%" anchor="middle" family="&quot;Comic Sans MS&quot;" size="16px" weight="700" font-style="" opacity="1" y="1" transform="rotate(0)"><tspan id="SvgjsTspan1181" dy="20" x="188.0077436"><tspan id="SvgjsTspan1182" style="">zllen</tspan></tspan></text></g><g id="SvgjsG1183"><text id="SvgjsText1184" font-family="&quot;Comic Sans MS&quot;" text-anchor="middle" font-size="16px" width="76px" fill="#323232" font-weight="700" align="middle" lineHeight="125%" anchor="middle" family="&quot;Comic Sans MS&quot;" size="16px" weight="700" font-style="" opacity="1" y="1" transform="rotate(0)"><tspan id="SvgjsTspan1185" dy="20" x="263.0116154"><tspan id="SvgjsTspan1186" style="">entry1</tspan></tspan></text></g><g id="SvgjsG1187"><text id="SvgjsText1188" font-family="&quot;Comic Sans MS&quot;" text-anchor="middle" font-size="16px" width="75px" fill="#323232" font-weight="700" align="middle" lineHeight="125%" anchor="middle" family="&quot;Comic Sans MS&quot;" size="16px" weight="700" font-style="" opacity="1" y="1" transform="rotate(0)"><tspan id="SvgjsTspan1189" dy="20" x="337.56793746000005"><tspan id="SvgjsTspan1190" style="">...</tspan></tspan></text></g><g id="SvgjsG1191"><text id="SvgjsText1192" font-family="&quot;Comic Sans MS&quot;" text-anchor="middle" font-size="16px" width="75px" fill="#323232" font-weight="700" align="middle" lineHeight="125%" anchor="middle" family="&quot;Comic Sans MS&quot;" size="16px" weight="700" font-style="" opacity="1" y="1" transform="rotate(0)"><tspan id="SvgjsTspan1193" dy="20" x="412.46690874"><tspan id="SvgjsTspan1194" style="">entryN</tspan></tspan></text></g><g id="SvgjsG1195"><text id="SvgjsText1196" font-family="&quot;Comic Sans MS&quot;" text-anchor="middle" font-size="16px" width="75px" fill="#323232" font-weight="700" align="middle" lineHeight="125%" anchor="middle" family="&quot;Comic Sans MS&quot;" size="16px" weight="700" font-style="" opacity="1" y="1" transform="rotate(0)"><tspan id="SvgjsTspan1197" dy="20" x="487.31342976"><tspan id="SvgjsTspan1198" style="">zlend</tspan></tspan></text></g></g><g id="SvgjsG1199" transform="translate(476,409.83333333333337)"><path id="SvgjsPath1200" d="M0 0L75.0038718 0L75.0038718 30 L0 30Z" stroke="rgba(102, 102, 102,1)" stroke-width="1" fill-opacity="1" fill="#f567ff"></path><path id="SvgjsPath1201" d="M75.0038718 0L150.0077436 0L150.0077436 30 L75.0038718 30Z" stroke="rgba(102, 102, 102,1)" stroke-width="1" fill-opacity="1" fill="#f567ff"></path><path id="SvgjsPath1202" d="M150.0077436 0L225.01161539999998 0L225.01161539999998 30 L150.0077436 30Z" stroke="rgba(102, 102, 102,1)" stroke-width="1" fill-opacity="1" fill="#f567ff"></path><path id="SvgjsPath1203" d="M225.0116154 0L300.06793746000005 0L300.06793746000005 30 L225.0116154 30Z" stroke="rgba(102, 102, 102,1)" stroke-width="1" fill-opacity="1" fill="#f567ff"></path><path id="SvgjsPath1204" d="M300.06793746000005 0L375.01935900000007 0L375.01935900000007 30 L300.06793746000005 30Z" stroke="rgba(102, 102, 102,1)" stroke-width="1" fill-opacity="1" fill="#f567ff"></path><path id="SvgjsPath1205" d="M374.96690874 0L449.7609795 0L449.7609795 30 L374.96690874 30Z" stroke="rgba(102, 102, 102,1)" stroke-width="1" fill-opacity="1" fill="#f567ff"></path><path id="SvgjsPath1206" d="M449.81342976 0L524.5026 0L524.5026 30 L449.81342976 30Z" stroke="rgba(102, 102, 102,1)" stroke-width="1" fill-opacity="1" fill="#f567ff"></path><g id="SvgjsG1207"><text id="SvgjsText1208" font-family="&quot;Comic Sans MS&quot;" text-anchor="middle" font-size="16px" width="76px" fill="#323232" font-weight="700" align="middle" lineHeight="125%" anchor="middle" family="&quot;Comic Sans MS&quot;" size="16px" weight="700" font-style="" opacity="1" y="1" transform="rotate(0)"><tspan id="SvgjsTspan1209" dy="20" x="38"><tspan id="SvgjsTspan1210" style="">zlbytes</tspan></tspan></text></g><g id="SvgjsG1211"><text id="SvgjsText1212" font-family="&quot;Comic Sans MS&quot;" text-anchor="middle" font-size="16px" width="76px" fill="#323232" font-weight="700" align="middle" lineHeight="125%" anchor="middle" family="&quot;Comic Sans MS&quot;" size="16px" weight="700" font-style="" opacity="1" y="1" transform="rotate(0)"><tspan id="SvgjsTspan1213" dy="20" x="113.0038718"><tspan id="SvgjsTspan1214" style="">zltail</tspan></tspan></text></g><g id="SvgjsG1215"><text id="SvgjsText1216" font-family="&quot;Comic Sans MS&quot;" text-anchor="middle" font-size="16px" width="76px" fill="#323232" font-weight="700" align="middle" lineHeight="125%" anchor="middle" family="&quot;Comic Sans MS&quot;" size="16px" weight="700" font-style="" opacity="1" y="1" transform="rotate(0)"><tspan id="SvgjsTspan1217" dy="20" x="188.0077436"><tspan id="SvgjsTspan1218" style="">zllen</tspan></tspan></text></g><g id="SvgjsG1219"><text id="SvgjsText1220" font-family="&quot;Comic Sans MS&quot;" text-anchor="middle" font-size="16px" width="76px" fill="#323232" font-weight="700" align="middle" lineHeight="125%" anchor="middle" family="&quot;Comic Sans MS&quot;" size="16px" weight="700" font-style="" opacity="1" y="1" transform="rotate(0)"><tspan id="SvgjsTspan1221" dy="20" x="263.0116154"><tspan id="SvgjsTspan1222" style="">entry1</tspan></tspan></text></g><g id="SvgjsG1223"><text id="SvgjsText1224" font-family="&quot;Comic Sans MS&quot;" text-anchor="middle" font-size="16px" width="75px" fill="#323232" font-weight="700" align="middle" lineHeight="125%" anchor="middle" family="&quot;Comic Sans MS&quot;" size="16px" weight="700" font-style="" opacity="1" y="1" transform="rotate(0)"><tspan id="SvgjsTspan1225" dy="20" x="337.56793746000005"><tspan id="SvgjsTspan1226" style="">...</tspan></tspan></text></g><g id="SvgjsG1227"><text id="SvgjsText1228" font-family="&quot;Comic Sans MS&quot;" text-anchor="middle" font-size="16px" width="75px" fill="#323232" font-weight="700" align="middle" lineHeight="125%" anchor="middle" family="&quot;Comic Sans MS&quot;" size="16px" weight="700" font-style="" opacity="1" y="1" transform="rotate(0)"><tspan id="SvgjsTspan1229" dy="20" x="412.46690874"><tspan id="SvgjsTspan1230" style="">entryN</tspan></tspan></text></g><g id="SvgjsG1231"><text id="SvgjsText1232" font-family="&quot;Comic Sans MS&quot;" text-anchor="middle" font-size="16px" width="75px" fill="#323232" font-weight="700" align="middle" lineHeight="125%" anchor="middle" family="&quot;Comic Sans MS&quot;" size="16px" weight="700" font-style="" opacity="1" y="1" transform="rotate(0)"><tspan id="SvgjsTspan1233" dy="20" x="487.31342976"><tspan id="SvgjsTspan1234" style="">zlend</tspan></tspan></text></g></g><g id="SvgjsG1235" transform="translate(296,464.16666666666674)"><path id="SvgjsPath1236" d="M0 0L75.0038718 0L75.0038718 30 L0 30Z" stroke="rgba(102, 102, 102,1)" stroke-width="1" fill-opacity="1" fill="#f567ff"></path><path id="SvgjsPath1237" d="M75.0038718 0L150.0077436 0L150.0077436 30 L75.0038718 30Z" stroke="rgba(102, 102, 102,1)" stroke-width="1" fill-opacity="1" fill="#f567ff"></path><path id="SvgjsPath1238" d="M150.0077436 0L225.01161539999998 0L225.01161539999998 30 L150.0077436 30Z" stroke="rgba(102, 102, 102,1)" stroke-width="1" fill-opacity="1" fill="#f567ff"></path><path id="SvgjsPath1239" d="M225.0116154 0L300.06793746000005 0L300.06793746000005 30 L225.0116154 30Z" stroke="rgba(102, 102, 102,1)" stroke-width="1" fill-opacity="1" fill="#f567ff"></path><path id="SvgjsPath1240" d="M300.06793746000005 0L375.01935900000007 0L375.01935900000007 30 L300.06793746000005 30Z" stroke="rgba(102, 102, 102,1)" stroke-width="1" fill-opacity="1" fill="#f567ff"></path><path id="SvgjsPath1241" d="M374.96690874 0L449.7609795 0L449.7609795 30 L374.96690874 30Z" stroke="rgba(102, 102, 102,1)" stroke-width="1" fill-opacity="1" fill="#f567ff"></path><path id="SvgjsPath1242" d="M449.81342976 0L524.5026 0L524.5026 30 L449.81342976 30Z" stroke="rgba(102, 102, 102,1)" stroke-width="1" fill-opacity="1" fill="#f567ff"></path><g id="SvgjsG1243"><text id="SvgjsText1244" font-family="&quot;Comic Sans MS&quot;" text-anchor="middle" font-size="16px" width="76px" fill="#323232" font-weight="700" align="middle" lineHeight="125%" anchor="middle" family="&quot;Comic Sans MS&quot;" size="16px" weight="700" font-style="" opacity="1" y="1" transform="rotate(0)"><tspan id="SvgjsTspan1245" dy="20" x="38"><tspan id="SvgjsTspan1246" style="">zlbytes</tspan></tspan></text></g><g id="SvgjsG1247"><text id="SvgjsText1248" font-family="&quot;Comic Sans MS&quot;" text-anchor="middle" font-size="16px" width="76px" fill="#323232" font-weight="700" align="middle" lineHeight="125%" anchor="middle" family="&quot;Comic Sans MS&quot;" size="16px" weight="700" font-style="" opacity="1" y="1" transform="rotate(0)"><tspan id="SvgjsTspan1249" dy="20" x="113.0038718"><tspan id="SvgjsTspan1250" style="">zltail</tspan></tspan></text></g><g id="SvgjsG1251"><text id="SvgjsText1252" font-family="&quot;Comic Sans MS&quot;" text-anchor="middle" font-size="16px" width="76px" fill="#323232" font-weight="700" align="middle" lineHeight="125%" anchor="middle" family="&quot;Comic Sans MS&quot;" size="16px" weight="700" font-style="" opacity="1" y="1" transform="rotate(0)"><tspan id="SvgjsTspan1253" dy="20" x="188.0077436"><tspan id="SvgjsTspan1254" style="">zllen</tspan></tspan></text></g><g id="SvgjsG1255"><text id="SvgjsText1256" font-family="&quot;Comic Sans MS&quot;" text-anchor="middle" font-size="16px" width="76px" fill="#323232" font-weight="700" align="middle" lineHeight="125%" anchor="middle" family="&quot;Comic Sans MS&quot;" size="16px" weight="700" font-style="" opacity="1" y="1" transform="rotate(0)"><tspan id="SvgjsTspan1257" dy="20" x="263.0116154"><tspan id="SvgjsTspan1258" style="">entry1</tspan></tspan></text></g><g id="SvgjsG1259"><text id="SvgjsText1260" font-family="&quot;Comic Sans MS&quot;" text-anchor="middle" font-size="16px" width="75px" fill="#323232" font-weight="700" align="middle" lineHeight="125%" anchor="middle" family="&quot;Comic Sans MS&quot;" size="16px" weight="700" font-style="" opacity="1" y="1" transform="rotate(0)"><tspan id="SvgjsTspan1261" dy="20" x="337.56793746000005"><tspan id="SvgjsTspan1262" style="">...</tspan></tspan></text></g><g id="SvgjsG1263"><text id="SvgjsText1264" font-family="&quot;Comic Sans MS&quot;" text-anchor="middle" font-size="16px" width="75px" fill="#323232" font-weight="700" align="middle" lineHeight="125%" anchor="middle" family="&quot;Comic Sans MS&quot;" size="16px" weight="700" font-style="" opacity="1" y="1" transform="rotate(0)"><tspan id="SvgjsTspan1265" dy="20" x="412.46690874"><tspan id="SvgjsTspan1266" style="">entryN</tspan></tspan></text></g><g id="SvgjsG1267"><text id="SvgjsText1268" font-family="&quot;Comic Sans MS&quot;" text-anchor="middle" font-size="16px" width="75px" fill="#323232" font-weight="700" align="middle" lineHeight="125%" anchor="middle" family="&quot;Comic Sans MS&quot;" size="16px" weight="700" font-style="" opacity="1" y="1" transform="rotate(0)"><tspan id="SvgjsTspan1269" dy="20" x="487.31342976"><tspan id="SvgjsTspan1270" style="">zlend</tspan></tspan></text></g></g><g id="SvgjsG1271" transform="translate(89.49739999999997,518.5000000000001)"><path id="SvgjsPath1272" d="M0 0L75.0038718 0L75.0038718 30 L0 30Z" stroke="rgba(102, 102, 102,1)" stroke-width="1" fill-opacity="1" fill="#f567ff"></path><path id="SvgjsPath1273" d="M75.0038718 0L150.0077436 0L150.0077436 30 L75.0038718 30Z" stroke="rgba(102, 102, 102,1)" stroke-width="1" fill-opacity="1" fill="#f567ff"></path><path id="SvgjsPath1274" d="M150.0077436 0L225.01161539999998 0L225.01161539999998 30 L150.0077436 30Z" stroke="rgba(102, 102, 102,1)" stroke-width="1" fill-opacity="1" fill="#f567ff"></path><path id="SvgjsPath1275" d="M225.0116154 0L300.06793746000005 0L300.06793746000005 30 L225.0116154 30Z" stroke="rgba(102, 102, 102,1)" stroke-width="1" fill-opacity="1" fill="#f567ff"></path><path id="SvgjsPath1276" d="M300.06793746000005 0L375.01935900000007 0L375.01935900000007 30 L300.06793746000005 30Z" stroke="rgba(102, 102, 102,1)" stroke-width="1" fill-opacity="1" fill="#f567ff"></path><path id="SvgjsPath1277" d="M374.96690874 0L449.7609795 0L449.7609795 30 L374.96690874 30Z" stroke="rgba(102, 102, 102,1)" stroke-width="1" fill-opacity="1" fill="#f567ff"></path><path id="SvgjsPath1278" d="M449.81342976 0L524.5026 0L524.5026 30 L449.81342976 30Z" stroke="rgba(102, 102, 102,1)" stroke-width="1" fill-opacity="1" fill="#f567ff"></path><g id="SvgjsG1279"><text id="SvgjsText1280" font-family="&quot;Comic Sans MS&quot;" text-anchor="middle" font-size="16px" width="76px" fill="#323232" font-weight="700" align="middle" lineHeight="125%" anchor="middle" family="&quot;Comic Sans MS&quot;" size="16px" weight="700" font-style="" opacity="1" y="1" transform="rotate(0)"><tspan id="SvgjsTspan1281" dy="20" x="38"><tspan id="SvgjsTspan1282" style="">zlbytes</tspan></tspan></text></g><g id="SvgjsG1283"><text id="SvgjsText1284" font-family="&quot;Comic Sans MS&quot;" text-anchor="middle" font-size="16px" width="76px" fill="#323232" font-weight="700" align="middle" lineHeight="125%" anchor="middle" family="&quot;Comic Sans MS&quot;" size="16px" weight="700" font-style="" opacity="1" y="1" transform="rotate(0)"><tspan id="SvgjsTspan1285" dy="20" x="113.0038718"><tspan id="SvgjsTspan1286" style="">zltail</tspan></tspan></text></g><g id="SvgjsG1287"><text id="SvgjsText1288" font-family="&quot;Comic Sans MS&quot;" text-anchor="middle" font-size="16px" width="76px" fill="#323232" font-weight="700" align="middle" lineHeight="125%" anchor="middle" family="&quot;Comic Sans MS&quot;" size="16px" weight="700" font-style="" opacity="1" y="1" transform="rotate(0)"><tspan id="SvgjsTspan1289" dy="20" x="188.0077436"><tspan id="SvgjsTspan1290" style="">zllen</tspan></tspan></text></g><g id="SvgjsG1291"><text id="SvgjsText1292" font-family="&quot;Comic Sans MS&quot;" text-anchor="middle" font-size="16px" width="76px" fill="#323232" font-weight="700" align="middle" lineHeight="125%" anchor="middle" family="&quot;Comic Sans MS&quot;" size="16px" weight="700" font-style="" opacity="1" y="1" transform="rotate(0)"><tspan id="SvgjsTspan1293" dy="20" x="263.0116154"><tspan id="SvgjsTspan1294" style="">entry1</tspan></tspan></text></g><g id="SvgjsG1295"><text id="SvgjsText1296" font-family="&quot;Comic Sans MS&quot;" text-anchor="middle" font-size="16px" width="75px" fill="#323232" font-weight="700" align="middle" lineHeight="125%" anchor="middle" family="&quot;Comic Sans MS&quot;" size="16px" weight="700" font-style="" opacity="1" y="1" transform="rotate(0)"><tspan id="SvgjsTspan1297" dy="20" x="337.56793746000005"><tspan id="SvgjsTspan1298" style="">...</tspan></tspan></text></g><g id="SvgjsG1299"><text id="SvgjsText1300" font-family="&quot;Comic Sans MS&quot;" text-anchor="middle" font-size="16px" width="75px" fill="#323232" font-weight="700" align="middle" lineHeight="125%" anchor="middle" family="&quot;Comic Sans MS&quot;" size="16px" weight="700" font-style="" opacity="1" y="1" transform="rotate(0)"><tspan id="SvgjsTspan1301" dy="20" x="412.46690874"><tspan id="SvgjsTspan1302" style="">entryN</tspan></tspan></text></g><g id="SvgjsG1303"><text id="SvgjsText1304" font-family="&quot;Comic Sans MS&quot;" text-anchor="middle" font-size="16px" width="75px" fill="#323232" font-weight="700" align="middle" lineHeight="125%" anchor="middle" family="&quot;Comic Sans MS&quot;" size="16px" weight="700" font-style="" opacity="1" y="1" transform="rotate(0)"><tspan id="SvgjsTspan1305" dy="20" x="487.31342976"><tspan id="SvgjsTspan1306" style="">zlend</tspan></tspan></text></g></g><g id="SvgjsG1307"><path id="SvgjsPath1308" d="M340.86477839752007 95.73770937246502C 341 157.06738273844002 206.00000000000003 109.43261726155998 206.48679776892772 168.84424625912584" stroke="#323232" stroke-width="1.5" fill="none" marker-end="url(#SvgjsMarker1309)"></path></g><g id="SvgjsG1311"><path id="SvgjsPath1312" d="M411.06717698231824 95.74698544366447C 411 233.61962343045087 749 32.88037656954913 748.7581628636543 168.81085240280788" stroke="#323232" stroke-width="1.5" fill="none" marker-end="url(#SvgjsMarker1313)"></path></g><g id="SvgjsG1315"><path id="SvgjsPath1316" d="M241.7494747218448 253.4719350518322C 281.3365838910536 253.49999999999994 300.6634161089464 240.5 338.30189100135874 240.60103381340406" stroke="#323232" stroke-width="1.5" fill="none" marker-end="url(#SvgjsMarker1317)"></path></g><g id="SvgjsG1319"><path id="SvgjsPath1320" d="M422.7494747218448 253.4719350518322C 462.3365838910535 253.49999999999994 481.6634161089465 240.5 519.3018910013587 240.60103381340406" stroke="#323232" stroke-width="1.5" fill="none" marker-end="url(#SvgjsMarker1321)"></path></g><g id="SvgjsG1323"><path id="SvgjsPath1324" d="M603.7494747218448 253.4719350518322C 643.3365838910536 253.49999999999994 662.6634161089464 240.5 700.3018910013587 240.60103381340406" stroke="#323232" stroke-width="1.5" fill="none" marker-end="url(#SvgjsMarker1325)"></path></g><g id="SvgjsG1327"><path id="SvgjsPath1328" d="M713.2508800653432 223.5363224930262C 673.426116774457 223.5 654.573883225543 240.49999999999994 616.6968317647649 240.36923902510568" stroke="#323232" stroke-width="1.5" fill="none" marker-end="url(#SvgjsMarker1329)"></path></g><g id="SvgjsG1331"><path id="SvgjsPath1332" d="M532.2508800653432 223.5363224930262C 492.426116774457 223.5 473.573883225543 240.49999999999994 435.69683176476485 240.36923902510568" stroke="#323232" stroke-width="1.5" fill="none" marker-end="url(#SvgjsMarker1333)"></path></g><g id="SvgjsG1335"><path id="SvgjsPath1336" d="M351.2508800653431 223.5363224930262C 311.426116774457 223.5 292.573883225543 240.49999999999994 254.69683176476485 240.36923902510568" stroke="#323232" stroke-width="1.5" fill="none" marker-end="url(#SvgjsMarker1337)"></path></g><g id="SvgjsG1339"><path id="SvgjsPath1340" d="M748.7985552689531 299.2224403230257C 749 330.0524959393072 695 324.4475040606928 695.6580527880864 353.6400282781161" stroke="#323232" stroke-width="1.5" fill="none" marker-end="url(#SvgjsMarker1341)"></path></g><g id="SvgjsG1343"><path id="SvgjsPath1344" d="M567.9171370439046 299.245408432007C 568 348.7141193070015 510.00000000000006 359.61921402633186 510.2706856565783 407.3983324554439" stroke="#323232" stroke-width="1.5" fill="none" marker-end="url(#SvgjsMarker1345)"></path></g><g id="SvgjsG1347"><path id="SvgjsPath1348" d="M386.9633503899596 299.2491040021812C 387 367.604494145541 338 395.0621725211257 338.11972205946523 461.71959359287484" stroke="#323232" stroke-width="1.5" fill="none" marker-end="url(#SvgjsMarker1349)"></path></g><g id="SvgjsG1351"><path id="SvgjsPath1352" d="M205.96644163966712 299.24924884814845C 206 392.7416044006044 123 424.7583955993957 123.10962397708741 516.5524537627152" stroke="#323232" stroke-width="1.5" fill="none" marker-end="url(#SvgjsMarker1353)"></path></g><g id="SvgjsG1355"><path id="SvgjsPath1356" d="M170.25 223.5C 152.6 223.5 143.4 223.5 127.7 223.5" stroke="#323232" stroke-width="1.5" fill="none" marker-end="url(#SvgjsMarker1357)"></path></g><g id="SvgjsG1359" transform="translate(25,203.5)"><path id="SvgjsPath1360" d="M 0 0L 100 0L 100 40L 0 40Z" stroke="none" fill="none"></path><g id="SvgjsG1361"><text id="SvgjsText1362" font-family="&quot;Comic Sans MS&quot;" text-anchor="end" font-size="13px" width="100px" fill="#323232" font-weight="700" align="middle" lineHeight="125%" anchor="end" family="&quot;Comic Sans MS&quot;" size="13px" weight="700" font-style="" opacity="1" y="9.375" transform="rotate(0)"><tspan id="SvgjsTspan1363" dy="16.25" x="100"><tspan id="SvgjsTspan1364" style="">NULL</tspan></tspan></text></g></g><g id="SvgjsG1365"><path id="SvgjsPath1366" d="M784.7443232915919 253.40789767867318C 811.1447969231674 253.5 821.8552030768326 234 846.3204361502691 234.33156835677647" stroke="#323232" stroke-width="1.5" fill="none" marker-end="url(#SvgjsMarker1367)"></path></g><g id="SvgjsG1369" transform="translate(849,211.5)"><path id="SvgjsPath1370" d="M 0 0L 100 0L 100 40L 0 40Z" stroke="none" fill="none"></path><g id="SvgjsG1371"><text id="SvgjsText1372" font-family="&quot;Comic Sans MS&quot;" text-anchor="start" font-size="13px" width="100px" fill="#323232" font-weight="700" align="middle" lineHeight="125%" anchor="start" family="&quot;Comic Sans MS&quot;" size="13px" weight="700" font-style="" opacity="1" y="9.375" transform="rotate(0)"><tspan id="SvgjsTspan1373" dy="16.25" x="0"><tspan id="SvgjsTspan1374" style="">NULL</tspan></tspan></text></g></g></svg>