<svg id="SvgjsSvg1006" width="599.5" height="400" xmlns="http://www.w3.org/2000/svg" version="1.1" xmlns:xlink="http://www.w3.org/1999/xlink" xmlns:svgjs="http://svgjs.com/svgjs"><defs id="SvgjsDefs1007"><pattern patternUnits="userSpaceOnUse" id="pattern_mark_0" width="300" height="300"><text x="150" y="100" fill="rgba(229,229,229,0.8)" font-size="18" transform="rotate(-45, 150, 150)" style="dominant-baseline: middle; text-anchor: middle;"></text></pattern><pattern patternUnits="userSpaceOnUse" id="pattern_mark_1" width="300" height="300"><text x="150" y="200" fill="rgba(229,229,229,0.8)" font-size="18" transform="rotate(-45, 150, 150)" style="dominant-baseline: middle; text-anchor: middle;"></text></pattern></defs><rect id="svgbackgroundid" width="599.5" height="400" fill="transparent"></rect><rect id="SvgjsRect1009" width="599.5" height="400" fill="url(#pattern_mark_0)"></rect><rect id="SvgjsRect1010" width="599.5" height="400" fill="url(#pattern_mark_1)"></rect><g id="SvgjsG1011" transform="translate(137,275)"><path id="SvgjsPath1012" d="M 18 0Q 9 0 9 5L 9 20Q 9 25 0 25Q 9 25 9 30L 9 45Q 9 50 18 50" stroke="rgba(33,41,48,1)" stroke-width="1.5" fill="none"></path><path id="SvgjsPath1013" d="M 90 50Q 99 50 99 45L 99 30Q 99 25 108 25Q 99 25 99 20L 99 5Q 99 0 90 0" stroke="rgba(33,41,48,1)" stroke-width="1.5" fill="none"></path><path id="SvgjsPath1014" d="M 0 0L 108 0L 108 50L 0 50Z" stroke="none" fill="none"></path><g id="SvgjsG1015"><text id="SvgjsText1016" font-family="微软雅黑" text-anchor="middle" font-size="13px" width="88px" fill="#323232" font-weight="400" align="middle" lineHeight="125%" anchor="middle" family="微软雅黑" size="13px" weight="400" font-style="" opacity="1" y="14.375" transform="rotate(0)"></text></g></g><g id="SvgjsG1017" transform="translate(137,171)"><path id="SvgjsPath1018" d="M 18 0Q 9 0 9 9L 9 43Q 9 52 0 52Q 9 52 9 61L 9 95Q 9 104 18 104" stroke="rgba(33,41,48,1)" stroke-width="1.5" fill="none"></path><path id="SvgjsPath1019" d="M 90 104Q 99 104 99 95L 99 61Q 99 52 108 52Q 99 52 99 43L 99 9Q 99 0 90 0" stroke="rgba(33,41,48,1)" stroke-width="1.5" fill="none"></path><path id="SvgjsPath1020" d="M 0 0L 108 0L 108 104L 0 104Z" stroke="none" fill="none"></path><g id="SvgjsG1021"><text id="SvgjsText1022" font-family="微软雅黑" text-anchor="middle" font-size="13px" width="88px" fill="#323232" font-weight="400" align="middle" lineHeight="125%" anchor="middle" family="微软雅黑" size="13px" weight="400" font-style="" opacity="1" y="41.375" transform="rotate(0)"></text></g></g><g id="SvgjsG1023" transform="translate(137,70)"><path id="SvgjsPath1024" d="M 18 0Q 9 0 9 9L 9 41Q 9 50 0 50Q 9 50 9 59L 9 91Q 9 100 18 100" stroke="rgba(33,41,48,1)" stroke-width="1.5" fill="none"></path><path id="SvgjsPath1025" d="M 90 100Q 99 100 99 91L 99 59Q 99 50 108 50Q 99 50 99 41L 99 9Q 99 0 90 0" stroke="rgba(33,41,48,1)" stroke-width="1.5" fill="none"></path><path id="SvgjsPath1026" d="M 0 0L 108 0L 108 100L 0 100Z" stroke="none" fill="none"></path><g id="SvgjsG1027"><text id="SvgjsText1028" font-family="微软雅黑" text-anchor="middle" font-size="13px" width="88px" fill="#323232" font-weight="400" align="middle" lineHeight="125%" anchor="middle" family="微软雅黑" size="13px" weight="400" font-style="" opacity="1" y="39.375" transform="rotate(0)"></text></g></g><g id="SvgjsG1029" transform="translate(155,70)"><path id="SvgjsPath1030" d="M 0 0L 123 0L 123 50L 0 50Z" stroke="rgba(33,41,48,1)" stroke-width="1.5" fill-opacity="1" fill="#d2d6f9"></path><g id="SvgjsG1031"><text id="SvgjsText1032" font-family="微软雅黑" text-anchor="middle" font-size="13px" width="103px" fill="#323232" font-weight="400" align="middle" lineHeight="125%" anchor="middle" family="微软雅黑" size="13px" weight="400" font-style="" opacity="1" y="14.375" transform="rotate(0)"><tspan id="SvgjsTspan1033" dy="16.25" x="61.5"><tspan id="SvgjsTspan1034" style="">Mark World</tspan></tspan></text></g></g><g id="SvgjsG1035" transform="translate(155,120)"><path id="SvgjsPath1036" d="M 0 0L 123 0L 123 50L 0 50Z" stroke="rgba(33,41,48,1)" stroke-width="1.5" fill-opacity="1" fill="#d2d6f9"></path><g id="SvgjsG1037"><text id="SvgjsText1038" font-family="微软雅黑" text-anchor="middle" font-size="13px" width="103px" fill="#323232" font-weight="400" align="middle" lineHeight="125%" anchor="middle" family="微软雅黑" size="13px" weight="400" font-style="" opacity="1" y="14.375" transform="rotate(0)"><tspan id="SvgjsTspan1039" dy="16.25" x="61.5"><tspan id="SvgjsTspan1040" style="">Class Pointer</tspan></tspan></text></g></g><g id="SvgjsG1041" transform="translate(155,170)"><path id="SvgjsPath1042" d="M 0 0L 123 0L 123 106L 0 106Z" stroke="rgba(33,41,48,1)" stroke-width="1.5" fill-opacity="1" fill="#fadcdb"></path><g id="SvgjsG1043"><text id="SvgjsText1044" font-family="微软雅黑" text-anchor="middle" font-size="13px" width="103px" fill="#323232" font-weight="400" align="middle" lineHeight="125%" anchor="middle" family="微软雅黑" size="13px" weight="400" font-style="" opacity="1" y="42.375" transform="rotate(0)"><tspan id="SvgjsTspan1045" dy="16.25" x="61.5"><tspan id="SvgjsTspan1046" style="">instance data</tspan></tspan></text></g></g><g id="SvgjsG1047" transform="translate(155,275)"><path id="SvgjsPath1048" d="M 0 0L 123 0L 123 50L 0 50Z" stroke="rgba(33,41,48,1)" stroke-width="1.5" fill-opacity="1" fill="#d2d6f9"></path><g id="SvgjsG1049"><text id="SvgjsText1050" font-family="微软雅黑" text-anchor="middle" font-size="13px" width="103px" fill="#323232" font-weight="400" align="middle" lineHeight="125%" anchor="middle" family="微软雅黑" size="13px" weight="400" font-style="" opacity="1" y="14.375" transform="rotate(0)"><tspan id="SvgjsTspan1051" dy="16.25" x="61.5"><tspan id="SvgjsTspan1052" style="">padding</tspan></tspan></text></g></g><g id="SvgjsG1053" transform="translate(166.5,37)"><path id="SvgjsPath1054" d="M 0 0L 100 0L 100 20L 0 20Z" stroke="none" fill="none"></path><g id="SvgjsG1055"><text id="SvgjsText1056" font-family="微软雅黑" text-anchor="middle" font-size="15px" width="100px" fill="#323232" font-weight="700" align="middle" lineHeight="125%" anchor="middle" family="微软雅黑" size="15px" weight="700" font-style="" opacity="1" y="-2.375" transform="rotate(0)"><tspan id="SvgjsTspan1057" dy="18.75" x="50"><tspan id="SvgjsTspan1058" style="">Java Object</tspan></tspan></text></g></g><g id="SvgjsG1059" transform="translate(433.5,325)"><path id="SvgjsPath1060" d="M 18 0Q 9 0 9 5L 9 20Q 9 25 0 25Q 9 25 9 30L 9 45Q 9 50 18 50" stroke="rgba(33,41,48,1)" stroke-width="1.5" fill="none"></path><path id="SvgjsPath1061" d="M 90 50Q 99 50 99 45L 99 30Q 99 25 108 25Q 99 25 99 20L 99 5Q 99 0 90 0" stroke="rgba(33,41,48,1)" stroke-width="1.5" fill="none"></path><path id="SvgjsPath1062" d="M 0 0L 108 0L 108 50L 0 50Z" stroke="none" fill="none"></path><g id="SvgjsG1063"><text id="SvgjsText1064" font-family="微软雅黑" text-anchor="middle" font-size="13px" width="88px" fill="#323232" font-weight="400" align="middle" lineHeight="125%" anchor="middle" family="微软雅黑" size="13px" weight="400" font-style="" opacity="1" y="14.375" transform="rotate(0)"></text></g></g><g id="SvgjsG1065" transform="translate(433.5,221)"><path id="SvgjsPath1066" d="M 18 0Q 9 0 9 9L 9 43Q 9 52 0 52Q 9 52 9 61L 9 95Q 9 104 18 104" stroke="rgba(33,41,48,1)" stroke-width="1.5" fill="none"></path><path id="SvgjsPath1067" d="M 90 104Q 99 104 99 95L 99 61Q 99 52 108 52Q 99 52 99 43L 99 9Q 99 0 90 0" stroke="rgba(33,41,48,1)" stroke-width="1.5" fill="none"></path><path id="SvgjsPath1068" d="M 0 0L 108 0L 108 104L 0 104Z" stroke="none" fill="none"></path><g id="SvgjsG1069"><text id="SvgjsText1070" font-family="微软雅黑" text-anchor="middle" font-size="13px" width="88px" fill="#323232" font-weight="400" align="middle" lineHeight="125%" anchor="middle" family="微软雅黑" size="13px" weight="400" font-style="" opacity="1" y="41.375" transform="rotate(0)"></text></g></g><g id="SvgjsG1071" transform="translate(433.5,70)"><path id="SvgjsPath1072" d="M 18 0Q 9 0 9 9L 9 66Q 9 75 0 75Q 9 75 9 84L 9 141Q 9 150 18 150" stroke="rgba(33,41,48,1)" stroke-width="1.5" fill="none"></path><path id="SvgjsPath1073" d="M 90 150Q 99 150 99 141L 99 84Q 99 75 108 75Q 99 75 99 66L 99 9Q 99 0 90 0" stroke="rgba(33,41,48,1)" stroke-width="1.5" fill="none"></path><path id="SvgjsPath1074" d="M 0 0L 108 0L 108 150L 0 150Z" stroke="none" fill="none"></path><g id="SvgjsG1075"><text id="SvgjsText1076" font-family="微软雅黑" text-anchor="middle" font-size="13px" width="88px" fill="#323232" font-weight="400" align="middle" lineHeight="125%" anchor="middle" family="微软雅黑" size="13px" weight="400" font-style="" opacity="1" y="64.375" transform="rotate(0)"></text></g></g><g id="SvgjsG1077" transform="translate(451.5,120)"><path id="SvgjsPath1078" d="M 0 0L 123 0L 123 50L 0 50Z" stroke="rgba(33,41,48,1)" stroke-width="1.5" fill-opacity="1" fill="#d2d6f9"></path><g id="SvgjsG1079"><text id="SvgjsText1080" font-family="微软雅黑" text-anchor="middle" font-size="13px" width="103px" fill="#323232" font-weight="400" align="middle" lineHeight="125%" anchor="middle" family="微软雅黑" size="13px" weight="400" font-style="" opacity="1" y="14.375" transform="rotate(0)"><tspan id="SvgjsTspan1081" dy="16.25" x="61.5"><tspan id="SvgjsTspan1082" style="">Class Pointer</tspan></tspan></text></g></g><g id="SvgjsG1083" transform="translate(451.5,170)"><path id="SvgjsPath1084" d="M 0 0L 123 0L 123 50L 0 50Z" stroke="rgba(33,41,48,1)" stroke-width="1.5" fill-opacity="1" fill="#d2d6f9"></path><g id="SvgjsG1085"><text id="SvgjsText1086" font-family="微软雅黑" text-anchor="middle" font-size="13px" width="103px" fill="#323232" font-weight="400" align="middle" lineHeight="125%" anchor="middle" family="微软雅黑" size="13px" weight="400" font-style="" opacity="1" y="14.375" transform="rotate(0)"><tspan id="SvgjsTspan1087" dy="16.25" x="61.5"><tspan id="SvgjsTspan1088" style="">Length</tspan></tspan></text></g></g><g id="SvgjsG1089" transform="translate(451.5,220)"><path id="SvgjsPath1090" d="M 0 0L 123 0L 123 106L 0 106Z" stroke="rgba(33,41,48,1)" stroke-width="1.5" fill-opacity="1" fill="#fadcdb"></path><g id="SvgjsG1091"><text id="SvgjsText1092" font-family="微软雅黑" text-anchor="middle" font-size="13px" width="103px" fill="#323232" font-weight="400" align="middle" lineHeight="125%" anchor="middle" family="微软雅黑" size="13px" weight="400" font-style="" opacity="1" y="42.375" transform="rotate(0)"><tspan id="SvgjsTspan1093" dy="16.25" x="61.5"><tspan id="SvgjsTspan1094" style="">instance data</tspan></tspan></text></g></g><g id="SvgjsG1095" transform="translate(451.5,325)"><path id="SvgjsPath1096" d="M 0 0L 123 0L 123 50L 0 50Z" stroke="rgba(33,41,48,1)" stroke-width="1.5" fill-opacity="1" fill="#d2d6f9"></path><g id="SvgjsG1097"><text id="SvgjsText1098" font-family="微软雅黑" text-anchor="middle" font-size="13px" width="103px" fill="#323232" font-weight="400" align="middle" lineHeight="125%" anchor="middle" family="微软雅黑" size="13px" weight="400" font-style="" opacity="1" y="14.375" transform="rotate(0)"><tspan id="SvgjsTspan1099" dy="16.25" x="61.5"><tspan id="SvgjsTspan1100" style="">padding</tspan></tspan></text></g></g><g id="SvgjsG1101" transform="translate(463,25)"><path id="SvgjsPath1102" d="M 0 0L 100 0L 100 40L 0 40Z" stroke="none" fill="none"></path><g id="SvgjsG1103"><text id="SvgjsText1104" font-family="微软雅黑" text-anchor="middle" font-size="15px" width="100px" fill="#323232" font-weight="700" align="middle" lineHeight="125%" anchor="middle" family="微软雅黑" size="15px" weight="700" font-style="" opacity="1" y="7.625" transform="rotate(0)"><tspan id="SvgjsTspan1105" dy="18.75" x="50"><tspan id="SvgjsTspan1106" style="">Array Object</tspan></tspan></text></g></g><g id="SvgjsG1107" transform="translate(451.5,70)"><path id="SvgjsPath1108" d="M 0 0L 123 0L 123 50L 0 50Z" stroke="rgba(33,41,48,1)" stroke-width="1.5" fill-opacity="1" fill="#d2d6f9"></path><g id="SvgjsG1109"><text id="SvgjsText1110" font-family="微软雅黑" text-anchor="middle" font-size="13px" width="103px" fill="#323232" font-weight="400" align="middle" lineHeight="125%" anchor="middle" family="微软雅黑" size="13px" weight="400" font-style="" opacity="1" y="14.375" transform="rotate(0)"><tspan id="SvgjsTspan1111" dy="16.25" x="61.5"><tspan id="SvgjsTspan1112" style="">Mark World</tspan></tspan></text></g></g><g id="SvgjsG1113" transform="translate(66.5,99)"><path id="SvgjsPath1114" d="M 0 0L 100 0L 100 40L 0 40Z" stroke="none" fill="none"></path><g id="SvgjsG1115"><text id="SvgjsText1116" font-family="微软雅黑" text-anchor="middle" font-size="13px" width="100px" fill="#323232" font-weight="400" align="middle" lineHeight="125%" anchor="middle" family="微软雅黑" size="13px" weight="400" font-style="" opacity="1" y="9.375" transform="rotate(0)"><tspan id="SvgjsTspan1117" dy="16.25" x="50"><tspan id="SvgjsTspan1118" style="">对象头</tspan></tspan></text></g></g><g id="SvgjsG1119" transform="translate(25,203)"><path id="SvgjsPath1120" d="M 0 0L 118 0L 118 40L 0 40Z" stroke="none" fill="none"></path><g id="SvgjsG1121"><text id="SvgjsText1122" font-family="微软雅黑" text-anchor="middle" font-size="13px" width="118px" fill="#323232" font-weight="400" align="middle" lineHeight="125%" anchor="middle" family="微软雅黑" size="13px" weight="400" font-style="" opacity="1" y="9.375" transform="rotate(0)"><tspan id="SvgjsTspan1123" dy="16.25" x="59"><tspan id="SvgjsTspan1124" style="">对象中的实际数据</tspan></tspan></text></g></g><g id="SvgjsG1125" transform="translate(85,290)"><path id="SvgjsPath1126" d="M 0 0L 52 0L 52 20L 0 20Z" stroke="none" fill="none"></path><g id="SvgjsG1127"><text id="SvgjsText1128" font-family="微软雅黑" text-anchor="middle" font-size="13px" width="52px" fill="#323232" font-weight="400" align="middle" lineHeight="125%" anchor="middle" family="微软雅黑" size="13px" weight="400" font-style="" opacity="1" y="-0.625" transform="rotate(0)"><tspan id="SvgjsTspan1129" dy="16.25" x="26"><tspan id="SvgjsTspan1130" style="">对齐填充</tspan></tspan></text></g></g><g id="SvgjsG1131" transform="translate(363,125)"><path id="SvgjsPath1132" d="M 0 0L 100 0L 100 40L 0 40Z" stroke="none" fill="none"></path><g id="SvgjsG1133"><text id="SvgjsText1134" font-family="微软雅黑" text-anchor="middle" font-size="13px" width="100px" fill="#323232" font-weight="400" align="middle" lineHeight="125%" anchor="middle" family="微软雅黑" size="13px" weight="400" font-style="" opacity="1" y="9.375" transform="rotate(0)"><tspan id="SvgjsTspan1135" dy="16.25" x="50"><tspan id="SvgjsTspan1136" style="">对象头</tspan></tspan></text></g></g><g id="SvgjsG1137" transform="translate(320.5,253)"><path id="SvgjsPath1138" d="M 0 0L 118 0L 118 40L 0 40Z" stroke="none" fill="none"></path><g id="SvgjsG1139"><text id="SvgjsText1140" font-family="微软雅黑" text-anchor="middle" font-size="13px" width="118px" fill="#323232" font-weight="400" align="middle" lineHeight="125%" anchor="middle" family="微软雅黑" size="13px" weight="400" font-style="" opacity="1" y="9.375" transform="rotate(0)"><tspan id="SvgjsTspan1141" dy="16.25" x="59"><tspan id="SvgjsTspan1142" style="">对象中的实际数据</tspan></tspan></text></g></g><g id="SvgjsG1143" transform="translate(381.5,340)"><path id="SvgjsPath1144" d="M 0 0L 52 0L 52 20L 0 20Z" stroke="none" fill="none"></path><g id="SvgjsG1145"><text id="SvgjsText1146" font-family="微软雅黑" text-anchor="middle" font-size="13px" width="52px" fill="#323232" font-weight="400" align="middle" lineHeight="125%" anchor="middle" family="微软雅黑" size="13px" weight="400" font-style="" opacity="1" y="-0.625" transform="rotate(0)"><tspan id="SvgjsTspan1147" dy="16.25" x="26"><tspan id="SvgjsTspan1148" style="">对齐填充</tspan></tspan></text></g></g></svg>