<svg id="SvgjsSvg1006" width="418.40579710144937" height="101.44927536231884" xmlns="http://www.w3.org/2000/svg" version="1.1" xmlns:xlink="http://www.w3.org/1999/xlink" xmlns:svgjs="http://svgjs.com/svgjs"><defs id="SvgjsDefs1007"><pattern patternUnits="userSpaceOnUse" id="pattern_mark_0" width="300" height="300"><text x="150" y="100" fill="rgba(229,229,229,0.8)" font-size="18" transform="rotate(-45, 150, 150)" style="dominant-baseline: middle; text-anchor: middle;"></text></pattern><pattern patternUnits="userSpaceOnUse" id="pattern_mark_1" width="300" height="300"><text x="150" y="200" fill="rgba(229,229,229,0.8)" font-size="18" transform="rotate(-45, 150, 150)" style="dominant-baseline: middle; text-anchor: middle;"></text></pattern></defs><rect id="svgbackgroundid" width="418.40579710144937" height="101.44927536231884" fill="transparent"></rect><rect id="SvgjsRect1009" width="418.40579710144937" height="101.44927536231884" fill="url(#pattern_mark_0)"></rect><rect id="SvgjsRect1010" width="418.40579710144937" height="101.44927536231884" fill="url(#pattern_mark_1)"></rect><g id="SvgjsG1011"><path id="SvgjsPath1012" d="M25 25.362318840579718L47.46376811594203 25.362318840579718L47.46376811594203 25.362318840579718L69.92753623188406 25.362318840579718" stroke="#5b79e8" stroke-width="3" fill="none"></path></g><g id="SvgjsG1013"><path id="SvgjsPath1014" d="M117.463768115942 25.52173913043478L139.92753623188403 25.52173913043478L139.92753623188403 25.52173913043478L162.39130434782604 25.52173913043478" stroke="#5b79e8" stroke-width="3" fill="none"></path></g><g id="SvgjsG1015"><path id="SvgjsPath1016" d="M209.92753623188398 25.681159420289873L232.39130434782604 25.681159420289873L232.39130434782604 25.681159420289873L254.8550724637681 25.681159420289873" stroke="#5b79e8" stroke-width="3" fill="none"></path></g><g id="SvgjsG1017"><path id="SvgjsPath1018" d="M302.391304347826 25.666666666666686L324.855072463768 25.666666666666686L324.855072463768 25.666666666666686L347.3188405797101 25.666666666666686" stroke="#5b79e8" stroke-width="3" fill="none"></path></g><g id="SvgjsG1019"><path id="SvgjsPath1020" d="M71.08695652173915 75.07246376811597L93.55072463768118 75.07246376811597L93.55072463768118 75.07246376811597L116.01449275362322 75.07246376811597" stroke="#000000" stroke-width="3" fill="none"></path></g><g id="SvgjsG1021"><path id="SvgjsPath1022" d="M163.55072463768116 75.23188405797103L186.01449275362322 75.23188405797103L186.01449275362322 75.23188405797103L208.47826086956528 75.23188405797103" stroke="#000000" stroke-width="3" fill="none"></path></g><g id="SvgjsG1023"><path id="SvgjsPath1024" d="M256.01449275362324 75.39130434782612L278.47826086956536 75.39130434782612L278.47826086956536 75.39130434782612L300.94202898550736 75.39130434782612" stroke="#000000" stroke-width="3" fill="none"></path></g><g id="SvgjsG1025"><path id="SvgjsPath1026" d="M348.47826086956536 75.37681159420293L370.94202898550736 75.37681159420293L370.94202898550736 75.37681159420293L393.40579710144937 75.37681159420293" stroke="#000000" stroke-width="3" fill="none"></path></g><g id="SvgjsG1027"><path id="SvgjsPath1028" d="M70.07246376811598 25L70.07246376811598 50.36231884057972L70.07246376811598 50.36231884057972L70.07246376811598 75.72463768115944" stroke="#000000" stroke-width="0.5" fill="none"></path></g><g id="SvgjsG1029"><path id="SvgjsPath1030" d="M116.57004830917879 25.71014492753622L116.57004830917879 51.07246376811594L116.57004830917879 51.07246376811594L116.57004830917879 76.43478260869566" stroke="#000000" stroke-width="0.5" fill="none"></path></g><g id="SvgjsG1031"><path id="SvgjsPath1032" d="M163.06763285024158 25.144927536231904L163.06763285024158 50.507246376811565L163.06763285024158 50.507246376811565L163.06763285024158 75.86956521739123" stroke="#000000" stroke-width="0.5" fill="none"></path></g><g id="SvgjsG1033"><path id="SvgjsPath1034" d="M209.5652173913044 25.57971014492756L209.5652173913044 50.94202898550725L209.5652173913044 50.94202898550725L209.5652173913044 76.30434782608694" stroke="#000000" stroke-width="0.5" fill="none"></path></g><g id="SvgjsG1035"><path id="SvgjsPath1036" d="M256.06280193236717 25.014492753623216L256.06280193236717 50.376811594202934L256.06280193236717 50.376811594202934L256.06280193236717 75.73913043478262" stroke="#000000" stroke-width="0.5" fill="none"></path></g><g id="SvgjsG1037"><path id="SvgjsPath1038" d="M349.05797101449275 25.724637681159436L349.05797101449275 51.086956521739125L349.05797101449275 51.086956521739125L349.05797101449275 76.44927536231884" stroke="#000000" stroke-width="0.5" fill="none"></path></g><g id="SvgjsG1039"><path id="SvgjsPath1040" d="M302.56038647342996 25.71014492753619L302.56038647342996 51.07246376811591L302.56038647342996 51.07246376811591L302.56038647342996 76.43478260869563" stroke="#000000" stroke-width="0.5" fill="none"></path></g><g id="SvgjsG1041"></g></svg>