<svg xmlns="http://www.w3.org/2000/svg" xlink="http://www.w3.org/1999/xlink" id="mind-svg-con" version="1.1" width="884.171875px" height="196px" style="position: absolute; left: 0px; top: 0px; width: 884.172px; height: 196px; background: rgb(255, 255, 255); z-index: 999;"><defs></defs><g id="svgbackgroundid"><defs></defs><rect x="0" y="0" width="884.171875" height="196" fill="#ffffff"></rect></g><g transform="translate(-9539.828125, -9831)" id="sdjakdjak6"><defs></defs><g class="svg-topic-con" transform="translate(0.5,0.5)"><path part="right" sub="true" id="line_39612a4a7f3b6225" d="M 10016 9937 C 10016 9937 10060 9917.8984375 10180 9917.8984375 L 10284 9917.8984375 L 10180 9917.8984375 C 10080 9917.8984375 10021 9943 10021 9943 L 10016 9937 Z" stroke="#A6E520" fill="#A6E520" stroke-width="2"></path><path part="right" sub="true" id="line_c381334a71680b42" d="M 10016 9949 C 10016 9949 10060 9969.8984375 10180 9969.8984375 L 10284 9969.8984375 L 10180 9969.8984375 C 10080 9969.8984375 10021 9943 10021 9943 L 10016 9949 Z" stroke="#B16FFF" fill="#B16FFF" stroke-width="2"></path><path part="left" sub="true" id="line_49e31415355194ee" d="M 9984 9937 C 9984 9937 9939 9891.8984375 9819 9891.8984375 L 9699 9891.8984375 L 9819 9891.8984375 C 9919 9891.8984375 9979 9943 9979 9943 L 9984 9937 Z" stroke="#03C1EB" fill="#03C1EB" stroke-width="2"></path><path part="left" sub="true" id="line_0f7b12f4e8a9d21e" d="M 9984 9937 L 9984 9949 L 9819 9943.8984375 L 9699 9943.8984375 L 9819 9943.8984375 L 9984 9937" stroke="#6A6CFF" fill="#6A6CFF" stroke-width="2"></path><path part="left" sub="true" id="line_98ca8ca2d11e3d2c" d="M 9984 9949 C 9984 9949 9939 9995.8984375 9819 9995.8984375 L 9699 9995.8984375 L 9819 9995.8984375 C 9919 9995.8984375 9979 9943 9979 9943 L 9984 9949 Z" stroke="#FF44BC" fill="#FF44BC" stroke-width="2"></path></g><g class="svg-connection-con" transform="translate(0.5,0.5)"></g><g class="svg-freesums-con" transform="translate(0.5,0.5)"></g><g class="svg-freebos-con" transform="translate(0.5,0.5)"></g></g><g id="f4da8444fcd06105"><rect x="66.171875" y="34.203125" rx="1px" ry="1px" width="38" height="22" style="fill: transparent; stroke:none;stroke-width:0px;"></rect><g><text text-anchor="start" align="top" anchor="start" font-size="12px" font-weight="normal" fill="rgb(51, 67, 90)" style="font-size:12px;font-family:微软雅黑;color:#33435A;font-style:normal;text-align:left;font-weight:normal;"><tspan x="75" y="47.16"><tspan dx="0">if</tspan></tspan></text></g></g><g id="49e31415355194ee"><rect x="160.171875" y="30" rx="1px" ry="1px" width="120" height="30" style="fill: transparent; stroke:none;stroke-width:0px;"></rect><g><text text-anchor="start" align="top" anchor="start" font-size="16px" font-weight="normal" fill="rgb(51, 67, 90)" style="font-size:16px;font-family:微软雅黑;color:#33435A;font-style:normal;text-align:left;font-weight:normal;"><tspan x="180" y="50"><tspan dx="0">单分支选择</tspan></tspan></text></g><line x1="160.171875" y1="61" x2="280.171875" y2="61" style="stroke:rgb(3, 193, 235);stroke-width:2"></line></g><g id="c381334a71680b42"><rect x="640.171875" y="108" rx="1px" ry="1px" width="104" height="30" style="fill: transparent; stroke:none;stroke-width:0px;"></rect><g><text text-anchor="start" align="top" anchor="start" font-size="16px" font-weight="normal" fill="rgb(51, 67, 90)" style="font-size:16px;font-family:微软雅黑;color:#33435A;font-style:normal;text-align:left;font-weight:normal;"><tspan x="660" y="128"><tspan dx="0">嵌套选择</tspan></tspan></text></g><line x1="640.171875" y1="139" x2="744.171875" y2="139" style="stroke:rgb(177, 111, 255);stroke-width:2"></line></g><g id="39612a4a7f3b6225"><rect x="640.171875" y="56" rx="1px" ry="1px" width="104" height="30" style="fill: transparent; stroke:none;stroke-width:0px;"></rect><g><text text-anchor="start" align="top" anchor="start" font-size="16px" font-weight="normal" fill="rgb(51, 67, 90)" style="font-size:16px;font-family:微软雅黑;color:#33435A;font-style:normal;text-align:left;font-weight:normal;"><tspan x="660" y="76"><tspan dx="0">模式匹配</tspan></tspan></text></g><line x1="640.171875" y1="87" x2="744.171875" y2="87" style="stroke:rgb(166, 229, 32);stroke-width:2"></line></g><g id="63514443aa156007"><rect x="800.171875" y="60.203125" rx="1px" ry="1px" width="54" height="22" style="fill: transparent; stroke:none;stroke-width:0px;"></rect><g><text text-anchor="start" align="top" anchor="start" font-size="12px" font-weight="normal" fill="rgb(51, 67, 90)" style="font-size:12px;font-family:微软雅黑;color:#33435A;font-style:normal;text-align:left;font-weight:normal;"><tspan x="809" y="73.16"><tspan dx="0">match</tspan></tspan></text></g></g><g id="f706b16d71cd9e13"><rect x="30" y="138.203125" rx="1px" ry="1px" width="74" height="22" style="fill: transparent; stroke:none;stroke-width:0px;"></rect><g><text text-anchor="start" align="top" anchor="start" font-size="12px" font-weight="normal" fill="rgb(51, 67, 90)" style="font-size:12px;font-family:微软雅黑;color:#33435A;font-style:normal;text-align:left;font-weight:normal;"><tspan x="39" y="151.16"><tspan dx="0">if-elif-else</tspan></tspan></text></g></g><g id="98ca8ca2d11e3d2c"><rect x="160.171875" y="134" rx="1px" ry="1px" width="120" height="30" style="fill: transparent; stroke:none;stroke-width:0px;"></rect><g><text text-anchor="start" align="top" anchor="start" font-size="16px" font-weight="normal" fill="rgb(51, 67, 90)" style="font-size:16px;font-family:微软雅黑;color:#33435A;font-style:normal;text-align:left;font-weight:normal;"><tspan x="180" y="154"><tspan dx="0">多分支选择</tspan></tspan></text></g><line x1="160.171875" y1="165" x2="280.171875" y2="165" style="stroke:rgb(255, 68, 188);stroke-width:2"></line></g><g id="39c450820b9afd00"><rect x="51.90625" y="86.203125" rx="1px" ry="1px" width="52" height="22" style="fill: transparent; stroke:none;stroke-width:0px;"></rect><g><text text-anchor="start" align="top" anchor="start" font-size="12px" font-weight="normal" fill="rgb(51, 67, 90)" style="font-size:12px;font-family:微软雅黑;color:#33435A;font-style:normal;text-align:left;font-weight:normal;"><tspan x="61" y="99.16"><tspan dx="0">if-else</tspan></tspan></text></g></g><g id="0f7b12f4e8a9d21e"><rect x="160.171875" y="82" rx="1px" ry="1px" width="120" height="30" style="fill: transparent; stroke:none;stroke-width:0px;"></rect><g><text text-anchor="start" align="top" anchor="start" font-size="16px" font-weight="normal" fill="rgb(51, 67, 90)" style="font-size:16px;font-family:微软雅黑;color:#33435A;font-style:normal;text-align:left;font-weight:normal;"><tspan x="180" y="102"><tspan dx="0">双分支选择</tspan></tspan></text></g><line x1="160.171875" y1="113" x2="280.171875" y2="113" style="stroke:rgb(106, 108, 255);stroke-width:2"></line></g><g transform="translate(66.171875, 30)" id="sdjakdjak0"><g id="subline_49e31415355194ee" transform="translate(0.5, 0.5)"><path id="line_f4da8444fcd06105" d="M 94 30.8984375 C 58 30.8984375 66 26.703125 38 26.703125 L 0 26.703125" p="49e31415355194ee" stroke="#03C1EB" fill="none" stroke-linecap="square" stroke-width="2"></path></g><g transform="translate(0.5,0.5)"></g><g class="svg-summary-con" transform="translate(0.5,0.5)"></g><g class="svg-boundary-con" transform="translate(0.5,0.5)"></g></g><g transform="translate(640.171875, 108)" id="sdjakdjak1"><g id="subline_c381334a71680b42" transform="translate(0.5, 0.5)"></g><g transform="translate(0.5,0.5)"></g><g class="svg-summary-con" transform="translate(0.5,0.5)"></g><g class="svg-boundary-con" transform="translate(0.5,0.5)"></g></g><g transform="translate(640.171875, 56)" id="sdjakdjak2"><g id="subline_39612a4a7f3b6225" transform="translate(0.5, 0.5)"><path id="line_63514443aa156007" d="M 104 30.8984375 C 140 30.8984375 132 26.703125 160 26.703125 L 214 26.703125" p="39612a4a7f3b6225" stroke="#A6E520" fill="none" stroke-linecap="square" stroke-width="2"></path></g><g transform="translate(0.5,0.5)"></g><g class="svg-summary-con" transform="translate(0.5,0.5)"></g><g class="svg-boundary-con" transform="translate(0.5,0.5)"></g></g><g transform="translate(30, 134)" id="sdjakdjak3"><g id="subline_98ca8ca2d11e3d2c" transform="translate(0.5, 0.5)"><path id="line_f706b16d71cd9e13" d="M 130 30.8984375 C 94 30.8984375 102 26.703125 74 26.703125 L 0 26.703125" p="98ca8ca2d11e3d2c" stroke="#FF44BC" fill="none" stroke-linecap="square" stroke-width="2"></path></g><g transform="translate(0.5,0.5)"></g><g class="svg-summary-con" transform="translate(0.5,0.5)"></g><g class="svg-boundary-con" transform="translate(0.5,0.5)"></g></g><g transform="translate(51.90625, 82)" id="sdjakdjak4"><g id="subline_0f7b12f4e8a9d21e" transform="translate(0.5, 0.5)"><path id="line_39c450820b9afd00" d="M 108 30.8984375 C 72 30.8984375 80 26.703125 52 26.703125 L 0 26.703125" p="0f7b12f4e8a9d21e" stroke="#6A6CFF" fill="none" stroke-linecap="square" stroke-width="2"></path></g><g transform="translate(0.5,0.5)"></g><g class="svg-summary-con" transform="translate(0.5,0.5)"></g><g class="svg-boundary-con" transform="translate(0.5,0.5)"></g></g><g transform="translate(380.171875, 85)" id="sdjakdjak5"><g id="subline_root" transform="translate(0.5, 0.5)"></g><g transform="translate(0.5,0.5)"></g><g class="svg-summary-con" transform="translate(0.5,0.5)"></g><g class="svg-boundary-con" transform="translate(0.5,0.5)"></g></g><g id="root"><rect x="380.171875" y="84.9" rx="6px" ry="6px" width="161" height="56" stroke="rgba(0, 0, 0, 0.1)" style="fill:rgba(0, 0, 0, 0.1);"></rect><rect x="380.171875" y="85" rx="6px" ry="6px" width="160" height="54" style="fill: #ffffff; stroke:none;stroke-width:0px;"></rect><g><text text-anchor="start" align="top" anchor="start" font-size="24px" font-weight="normal" fill="rgb(51, 67, 90)" style="font-size:24px;font-family:微软雅黑;color:#33435A;font-style:normal;text-align:left;font-weight:normal;"><tspan x="412" y="119"><tspan dx="0">条件判断</tspan></tspan></text></g></g></svg>