<svg xmlns="http://www.w3.org/2000/svg" xlink="http://www.w3.org/1999/xlink" id="mind-svg-con" version="1.1" width="915px" height="282px" style="position: absolute; left: 0px; top: 0px; width: 915px; height: 282px; background: rgb(251, 245, 224); z-index: 999;"><defs></defs><g id="svgbackgroundid"><defs></defs><rect x="0" y="0" width="915" height="282" fill="#FBF5E0"></rect></g><g transform="translate(-9894, -9804)" id="sdjakdjak5"><defs></defs><g class="svg-topic-con" transform="translate(0.5,0.5)"><path part="right" sub="true" id="line_9e90b1e934cd5d38" d="M 10000 9945 L 10106 9945 L 10106 9857.796875 A 8 8 0 0 1 10114 9849.796875 L 10136 9849.796875" stroke="#6C8C78" fill="none" stroke-width="2"></path><path part="right" sub="true" id="line_d41278eccfd5d3b4" d="M 10000 9945 L 10106 9945 L 10106 9909.796875 A 8 8 0 0 1 10114 9901.796875 L 10136 9901.796875" stroke="#6C8C78" fill="none" stroke-width="2"></path><path part="right" sub="true" id="line_494c68b61e12db31" d="M 10000 9945 L 10106 9945 L 10106 9945.796875 A 8 8 0 0 0 10114 9953.796875 L 10136 9953.796875" stroke="#6C8C78" fill="none" stroke-width="2"></path><path part="right" sub="true" id="line_ec6cf7cd8dad961d" d="M 10000 9945 L 10106 9945 L 10106 10015 A 8 8 0 0 0 10114 10023 L 10136 10023" stroke="#6C8C78" fill="none" stroke-width="2"></path></g><g class="svg-connection-con" transform="translate(0.5,0.5)"></g><g class="svg-freesums-con" transform="translate(0.5,0.5)"></g><g class="svg-freebos-con" transform="translate(0.5,0.5)"></g></g><g id="ec6cf7cd8dad961d"><rect x="242" y="203.203125" rx="16" ry="16" width="178" height="32" style="fill: transparent; stroke:none;stroke-width:0px;"></rect><g><text text-anchor="start" align="top" anchor="start" font-size="14px" font-weight="normal" fill="rgb(70, 99, 80)" style="font-size:14px;font-family:'Microsoft YaHei',微软雅黑,Arial;color:#466350;font-style:normal;text-align:left;font-weight:normal;"><tspan x="254" y="223"><tspan dx="0">对象访问方式主要有两种</tspan></tspan></text></g></g><g id="d8ea73522f4fa506"><rect x="456" y="187" rx="1px" ry="1px" width="66" height="26" style="fill: transparent; stroke:none;stroke-width:0px;"></rect><g><text text-anchor="start" align="top" anchor="start" font-size="12px" font-weight="normal" fill="rgb(70, 99, 80)" style="font-size:12px;font-family:'Microsoft YaHei',微软雅黑,Arial;color:#466350;font-style:normal;text-align:left;font-weight:normal;"><tspan x="465" y="202.16"><tspan dx="0">句柄访问</tspan></tspan></text></g></g><g id="b26187e937f7ff5b"><rect x="558" y="186" rx="1px" ry="1px" width="68" height="28" style="fill: transparent; stroke:none;stroke-width:0px;"></rect><g><text text-anchor="start" align="top" anchor="start" font-size="12px" font-weight="normal" fill="rgb(70, 99, 80)" style="font-size:12px;font-family:'Microsoft YaHei',微软雅黑,Arial;color:#466350;font-style:normal;text-align:left;font-weight:normal;"><tspan x="567" y="202.16"><tspan dx="0">好处</tspan></tspan></text></g><image xmlns:xlink="http://www.w3.org/1999/xlink" xlink:href="https://www.processon.com/v5_editor/static/images/note.svg" transform="translate(597, 190)" width="20" height="20"></image></g><g id="b6decff382c8e8eb"><rect x="456" y="225" rx="1px" ry="1px" width="143" height="26" style="fill: transparent; stroke:none;stroke-width:0px;"></rect><g><text text-anchor="start" align="top" anchor="start" font-size="12px" font-weight="normal" fill="rgb(70, 99, 80)" style="font-size:12px;font-family:'Microsoft YaHei',微软雅黑,Arial;color:#466350;font-style:normal;text-align:left;font-weight:normal;"><tspan x="465" y="240.16"><tspan dx="0">直接指针(Hopspot采用)</tspan></tspan></text></g></g><g id="973c2790e213363c"><rect x="634.6875" y="224" rx="1px" ry="1px" width="68" height="28" style="fill: transparent; stroke:none;stroke-width:0px;"></rect><g><text text-anchor="start" align="top" anchor="start" font-size="12px" font-weight="normal" fill="rgb(70, 99, 80)" style="font-size:12px;font-family:'Microsoft YaHei',微软雅黑,Arial;color:#466350;font-style:normal;text-align:left;font-weight:normal;"><tspan x="644" y="240.16"><tspan dx="0">好处</tspan></tspan></text></g><image xmlns:xlink="http://www.w3.org/1999/xlink" xlink:href="https://www.processon.com/v5_editor/static/images/note.svg" transform="translate(673.6875, 228)" width="20" height="20"></image></g><g id="494c68b61e12db31"><rect x="242" y="134" rx="16" ry="16" width="430" height="32" style="fill: transparent; stroke:none;stroke-width:0px;"></rect><g><text text-anchor="start" align="top" anchor="start" font-size="14px" font-weight="normal" fill="rgb(70, 99, 80)" style="font-size:14px;font-family:'Microsoft YaHei',微软雅黑,Arial;color:#466350;font-style:normal;text-align:left;font-weight:normal;"><tspan x="254" y="154"><tspan dx="0">JVM是如何通过栈帧中的对象引用访问到其内部的对象实例的呢？</tspan></tspan></text></g></g><g id="f91793a4f53cf786"><rect x="708" y="136.796875" rx="1px" ry="1px" width="177" height="26" style="fill: transparent; stroke:none;stroke-width:0px;"></rect><g><text text-anchor="start" align="top" anchor="start" font-size="12px" font-weight="normal" fill="rgb(70, 99, 80)" style="font-size:12px;font-family:'Microsoft YaHei',微软雅黑,Arial;color:#466350;font-style:normal;text-align:left;font-weight:normal;"><tspan x="717" y="152.16"><tspan dx="0">定位，通过栈上reference访问</tspan></tspan></text></g></g><g id="d41278eccfd5d3b4"><rect x="242" y="82" rx="16" ry="16" width="206" height="32" style="fill: transparent; stroke:none;stroke-width:0px;"></rect><g><text text-anchor="start" align="top" anchor="start" font-size="14px" font-weight="normal" fill="rgb(70, 99, 80)" style="font-size:14px;font-family:'Microsoft YaHei',微软雅黑,Arial;color:#466350;font-style:normal;text-align:left;font-weight:normal;"><tspan x="254" y="102"><tspan dx="0">创建对象的目的是为了使用它</tspan></tspan></text></g></g><g id="9e90b1e934cd5d38"><rect x="242" y="30" rx="16" ry="16" width="52" height="32" style="fill: transparent; stroke:none;stroke-width:0px;"></rect><g><text text-anchor="start" align="top" anchor="start" font-size="14px" font-weight="normal" fill="rgb(70, 99, 80)" style="font-size:14px;font-family:'Microsoft YaHei',微软雅黑,Arial;color:#466350;font-style:normal;text-align:left;font-weight:normal;"><tspan x="254" y="50"><tspan dx="0">图示</tspan></tspan></text></g></g><g transform="translate(242, 186)" id="sdjakdjak0"><g id="subline_ec6cf7cd8dad961d" transform="translate(0.5, 0.5)"><path id="line_d8ea73522f4fa506" d="M 178 33 L 196 33 L 196 18 A 4 4 0 0 1 200 14 L 214 14" p="ec6cf7cd8dad961d" stroke="#6C8C78" fill="none" stroke-linecap="square" stroke-width="2"></path><path id="line_b26187e937f7ff5b" d="M 280 14 L 298 14 L 298 14 L 316 14" p="d8ea73522f4fa506" stroke="#6C8C78" fill="none" stroke-linecap="square" stroke-width="2"></path><path id="line_b6decff382c8e8eb" d="M 178 33 L 196 33 L 196 48 A 4 4 0 0 0 200 52 L 214 52" p="ec6cf7cd8dad961d" stroke="#6C8C78" fill="none" stroke-linecap="square" stroke-width="2"></path><path id="line_973c2790e213363c" d="M 356.6875 52 L 375 52 L 375 52 L 392.6875 52" p="b6decff382c8e8eb" stroke="#6C8C78" fill="none" stroke-linecap="square" stroke-width="2"></path></g><g transform="translate(0.5,0.5)"></g><g class="svg-summary-con" transform="translate(0.5,0.5)"></g><g class="svg-boundary-con" transform="translate(0.5,0.5)"></g></g><g transform="translate(242, 134)" id="sdjakdjak1"><g id="subline_494c68b61e12db31" transform="translate(0.5, 0.5)"><path id="line_f91793a4f53cf786" d="M 430 15.796875 L 448 15.796875 L 448 15.796875 L 466 15.796875" p="494c68b61e12db31" stroke="#6C8C78" fill="none" stroke-linecap="square" stroke-width="2"></path></g><g transform="translate(0.5,0.5)"></g><g class="svg-summary-con" transform="translate(0.5,0.5)"></g><g class="svg-boundary-con" transform="translate(0.5,0.5)"></g></g><g transform="translate(242, 82)" id="sdjakdjak2"><g id="subline_d41278eccfd5d3b4" transform="translate(0.5, 0.5)"></g><g transform="translate(0.5,0.5)"></g><g class="svg-summary-con" transform="translate(0.5,0.5)"></g><g class="svg-boundary-con" transform="translate(0.5,0.5)"></g></g><g transform="translate(242, 30)" id="sdjakdjak3"><g id="subline_9e90b1e934cd5d38" transform="translate(0.5, 0.5)"></g><g transform="translate(0.5,0.5)"></g><g class="svg-summary-con" transform="translate(0.5,0.5)"></g><g class="svg-boundary-con" transform="translate(0.5,0.5)"></g></g><g transform="translate(30, 116)" id="sdjakdjak4"><g id="subline_root" transform="translate(0.5, 0.5)"></g><g transform="translate(0.5,0.5)"></g><g class="svg-summary-con" transform="translate(0.5,0.5)"></g><g class="svg-boundary-con" transform="translate(0.5,0.5)"></g></g><g id="root"><rect x="30" y="116" rx="6px" ry="6px" width="152" height="50" style="fill: #6C8C78; stroke:none;stroke-width:0px;"></rect><g><text text-anchor="start" align="top" anchor="start" font-size="20px" font-weight="normal" fill="rgb(255, 255, 255)" style="font-size:20px;font-family:'Microsoft YaHei',微软雅黑,Arial;color:#ffffff;font-style:normal;text-align:left;font-weight:normal;"><tspan x="46" y="146"><tspan dx="0">对象访问定位</tspan></tspan></text></g></g></svg>