<svg id="SvgjsSvg1006" width="530" height="567" xmlns="http://www.w3.org/2000/svg" version="1.1" xmlns:xlink="http://www.w3.org/1999/xlink" xmlns:svgjs="http://svgjs.com/svgjs"><defs id="SvgjsDefs1007"><pattern patternUnits="userSpaceOnUse" id="pattern_mark_0" width="300" height="300"><text x="150" y="100" fill="rgba(229,229,229,0.8)" font-size="18" transform="rotate(-45, 150, 150)" style="dominant-baseline: middle; text-anchor: middle;"></text></pattern><pattern patternUnits="userSpaceOnUse" id="pattern_mark_1" width="300" height="300"><text x="150" y="200" fill="rgba(229,229,229,0.8)" font-size="18" transform="rotate(-45, 150, 150)" style="dominant-baseline: middle; text-anchor: middle;"></text></pattern><marker id="SvgjsMarker1075" markerWidth="13" markerHeight="9" refX="9.5" refY="4.5" viewBox="0 0 13 9" orient="auto" markerUnits="userSpaceOnUse" stroke-dasharray="0,0"><path id="SvgjsPath1076" d="M0,0 L13,4.5 L0,9 L0,0" fill="#323232" stroke="#323232" stroke-width="1"></path></marker><marker id="SvgjsMarker1079" markerWidth="13" markerHeight="9" refX="9.5" refY="4.5" viewBox="0 0 13 9" orient="auto" markerUnits="userSpaceOnUse" stroke-dasharray="0,0"><path id="SvgjsPath1080" d="M0,0 L13,4.5 L0,9 L0,0" fill="#323232" stroke="#323232" stroke-width="1"></path></marker><marker id="SvgjsMarker1083" markerWidth="13" markerHeight="9" refX="9.5" refY="4.5" viewBox="0 0 13 9" orient="auto" markerUnits="userSpaceOnUse" stroke-dasharray="0,0"><path id="SvgjsPath1084" d="M0,0 L13,4.5 L0,9 L0,0" fill="#323232" stroke="#323232" stroke-width="1"></path></marker><marker id="SvgjsMarker1087" markerWidth="13" markerHeight="9" refX="9.5" refY="4.5" viewBox="0 0 13 9" orient="auto" markerUnits="userSpaceOnUse" stroke-dasharray="0,0"><path id="SvgjsPath1088" d="M0,0 L13,4.5 L0,9 L0,0" fill="#323232" stroke="#323232" stroke-width="1"></path></marker><marker id="SvgjsMarker1091" markerWidth="13" markerHeight="9" refX="9.5" refY="4.5" viewBox="0 0 13 9" orient="auto" markerUnits="userSpaceOnUse" stroke-dasharray="0,0"><path id="SvgjsPath1092" d="M0,0 L13,4.5 L0,9 L0,0" fill="#323232" stroke="#323232" stroke-width="1"></path></marker><marker id="SvgjsMarker1095" markerWidth="13" markerHeight="9" refX="9.5" refY="4.5" viewBox="0 0 13 9" orient="auto" markerUnits="userSpaceOnUse" stroke-dasharray="0,0"><path id="SvgjsPath1096" d="M0,0 L13,4.5 L0,9 L0,0" fill="#323232" stroke="#323232" stroke-width="1"></path></marker><marker id="SvgjsMarker1099" markerWidth="13" markerHeight="9" refX="9.5" refY="4.5" viewBox="0 0 13 9" orient="auto" markerUnits="userSpaceOnUse" stroke-dasharray="0,0"><path id="SvgjsPath1100" d="M0,0 L13,4.5 L0,9 L0,0" fill="#323232" stroke="#323232" stroke-width="1"></path></marker></defs><rect id="svgbackgroundid" width="530" height="567" fill="transparent"></rect><rect id="SvgjsRect1009" width="530" height="567" fill="url(#pattern_mark_0)"></rect><rect id="SvgjsRect1010" width="530" height="567" fill="url(#pattern_mark_1)"></rect><g id="SvgjsG1011" transform="translate(225,25)"><path id="SvgjsPath1012" d="M 0 20C 0 -6.666666666666667 80 -6.666666666666667 80 20C 80 46.666666666666664 0 46.666666666666664 0 20Z" stroke="rgba(33,41,48,1)" stroke-width="1.5" fill-opacity="1" fill="#caf4c8"></path><g id="SvgjsG1013"><text id="SvgjsText1014" font-family="&quot;Microsoft YaHei&quot;, 微软雅黑, Arial" text-anchor="middle" font-size="13px" width="60px" fill="#323232" font-weight="400" align="middle" lineHeight="125%" anchor="middle" family="&quot;Microsoft YaHei&quot;, 微软雅黑, Arial" size="13px" weight="400" font-style="" opacity="1" y="9.375" transform="rotate(0)"><tspan id="SvgjsTspan1015" dy="16.25" x="40"><tspan id="SvgjsTspan1016" style="">源代码</tspan></tspan></text></g></g><g id="SvgjsG1017" transform="translate(225,184)"><path id="SvgjsPath1018" d="M 0 20C 0 -6.666666666666667 80 -6.666666666666667 80 20C 80 46.666666666666664 0 46.666666666666664 0 20Z" stroke="rgba(33,41,48,1)" stroke-width="1.5" fill-opacity="1" fill="#48d003"></path><g id="SvgjsG1019"><text id="SvgjsText1020" font-family="&quot;Microsoft YaHei&quot;, 微软雅黑, Arial" text-anchor="middle" font-size="13px" width="60px" fill="#323232" font-weight="400" align="middle" lineHeight="125%" anchor="middle" family="&quot;Microsoft YaHei&quot;, 微软雅黑, Arial" size="13px" weight="400" font-style="" opacity="1" y="9.375" transform="rotate(0)"><tspan id="SvgjsTspan1021" dy="16.25" x="40"><tspan id="SvgjsTspan1022" style="">汇编代码</tspan></tspan></text></g></g><g id="SvgjsG1023" transform="translate(225,104.5)"><path id="SvgjsPath1024" d="M 0 0L 80 0L 80 40L 0 40Z" stroke="rgba(33,41,48,1)" stroke-width="1.5" fill-opacity="1" fill="#f7eb00"></path><g id="SvgjsG1025"><text id="SvgjsText1026" font-family="&quot;Microsoft YaHei&quot;, 微软雅黑, Arial" text-anchor="middle" font-size="13px" width="60px" fill="#323232" font-weight="400" align="middle" lineHeight="125%" anchor="middle" family="&quot;Microsoft YaHei&quot;, 微软雅黑, Arial" size="13px" weight="400" font-style="" opacity="1" y="9.375" transform="rotate(0)"><tspan id="SvgjsTspan1027" dy="16.25" x="40"><tspan id="SvgjsTspan1028" style="">编译器</tspan></tspan></text></g></g><g id="SvgjsG1029" transform="translate(125,30)"><path id="SvgjsPath1030" d="M 0 0L 64 0L 80 16L 80 30L 0 30L 0 0Z" stroke="none" fill-opacity="1" fill="#fff7bc"></path><path id="SvgjsPath1031" d="M 64 0L 64 16L 80 16Z" stroke="none" fill-opacity="1" fill="#e4d089"></path><path id="SvgjsPath1032" d="M 0 0L 64 0L 80 16L 80 30L 0 30L 0 0Z" stroke="none" fill="none"></path><g id="SvgjsG1033"><text id="SvgjsText1034" font-family="&quot;Microsoft YaHei&quot;, 微软雅黑, Arial" text-anchor="middle" font-size="13px" width="60px" fill="#323232" font-weight="400" align="middle" lineHeight="125%" anchor="middle" family="&quot;Microsoft YaHei&quot;, 微软雅黑, Arial" size="13px" weight="400" font-style="" opacity="1" y="4.375" transform="rotate(0)"><tspan id="SvgjsTspan1035" dy="16.25" x="40"><tspan id="SvgjsTspan1036" style="">.c / .cpp</tspan></tspan></text></g></g><g id="SvgjsG1037" transform="translate(225,263.5)"><path id="SvgjsPath1038" d="M 0 0L 80 0L 80 40L 0 40Z" stroke="rgba(33,41,48,1)" stroke-width="1.5" fill-opacity="1" fill="#f7eb00"></path><g id="SvgjsG1039"><text id="SvgjsText1040" font-family="&quot;Microsoft YaHei&quot;, 微软雅黑, Arial" text-anchor="middle" font-size="13px" width="60px" fill="#323232" font-weight="400" align="middle" lineHeight="125%" anchor="middle" family="&quot;Microsoft YaHei&quot;, 微软雅黑, Arial" size="13px" weight="400" font-style="" opacity="1" y="9.375" transform="rotate(0)"><tspan id="SvgjsTspan1041" dy="16.25" x="40"><tspan id="SvgjsTspan1042" style="">汇编器</tspan></tspan></text></g></g><g id="SvgjsG1043" transform="translate(225,343)"><path id="SvgjsPath1044" d="M 0 20C 0 -6.666666666666667 80 -6.666666666666667 80 20C 80 46.666666666666664 0 46.666666666666664 0 20Z" stroke="rgba(33,41,48,1)" stroke-width="1.5" fill-opacity="1" fill="#328c66"></path><g id="SvgjsG1045"><text id="SvgjsText1046" font-family="&quot;Microsoft YaHei&quot;, 微软雅黑, Arial" text-anchor="middle" font-size="13px" width="60px" fill="#ffffff" font-weight="400" align="middle" lineHeight="125%" anchor="middle" family="&quot;Microsoft YaHei&quot;, 微软雅黑, Arial" size="13px" weight="400" font-style="" opacity="1" y="9.375" transform="rotate(0)"><tspan id="SvgjsTspan1047" dy="16.25" x="40"><tspan id="SvgjsTspan1048" style="">目标代码</tspan></tspan></text></g></g><g id="SvgjsG1049" transform="translate(225,422.5)"><path id="SvgjsPath1050" d="M 0 0L 80 0L 80 40L 0 40Z" stroke="rgba(33,41,48,1)" stroke-width="1.5" fill-opacity="1" fill="#f4c806"></path><g id="SvgjsG1051"><text id="SvgjsText1052" font-family="&quot;Microsoft YaHei&quot;, 微软雅黑, Arial" text-anchor="middle" font-size="13px" width="60px" fill="#323232" font-weight="400" align="middle" lineHeight="125%" anchor="middle" family="&quot;Microsoft YaHei&quot;, 微软雅黑, Arial" size="13px" weight="400" font-style="" opacity="1" y="9.375" transform="rotate(0)"><tspan id="SvgjsTspan1053" dy="16.25" x="40"><tspan id="SvgjsTspan1054" style="">链接器</tspan></tspan></text></g></g><g id="SvgjsG1055" transform="translate(25,303.5)"><path id="SvgjsPath1056" d="M 0 20C 0 -6.666666666666667 100 -6.666666666666667 100 20C 100 46.666666666666664 0 46.666666666666664 0 20Z" stroke="rgba(33,41,48,1)" stroke-width="1.5" fill-opacity="1" fill="#328c66"></path><g id="SvgjsG1057"><text id="SvgjsText1058" font-family="&quot;Microsoft YaHei&quot;, 微软雅黑, Arial" text-anchor="middle" font-size="13px" width="80px" fill="#ffffff" font-weight="400" align="middle" lineHeight="125%" anchor="middle" family="&quot;Microsoft YaHei&quot;, 微软雅黑, Arial" size="13px" weight="400" font-style="" opacity="1" y="9.375" transform="rotate(0)"><tspan id="SvgjsTspan1059" dy="16.25" x="50"><tspan id="SvgjsTspan1060" style="">其它目标代码</tspan></tspan></text></g></g><g id="SvgjsG1061" transform="translate(405,303.5)"><path id="SvgjsPath1062" d="M 0 20C 0 -6.666666666666667 100 -6.666666666666667 100 20C 100 46.666666666666664 0 46.666666666666664 0 20Z" stroke="rgba(33,41,48,1)" stroke-width="1.5" fill-opacity="1" fill="#328c66"></path><g id="SvgjsG1063"><text id="SvgjsText1064" font-family="&quot;Microsoft YaHei&quot;, 微软雅黑, Arial" text-anchor="middle" font-size="13px" width="80px" fill="#ffffff" font-weight="400" align="middle" lineHeight="125%" anchor="middle" family="&quot;Microsoft YaHei&quot;, 微软雅黑, Arial" size="13px" weight="400" font-style="" opacity="1" y="9.375" transform="rotate(0)"><tspan id="SvgjsTspan1065" dy="16.25" x="50"><tspan id="SvgjsTspan1066" style="">库文件</tspan></tspan></text></g></g><g id="SvgjsG1067" transform="translate(219.89130434782612,502)"><path id="SvgjsPath1068" d="M 0 20C 0 -6.666666666666667 90.21739130434776 -6.666666666666667 90.21739130434776 20C 90.21739130434776 46.666666666666664 0 46.666666666666664 0 20Z" stroke="rgba(33,41,48,1)" stroke-width="1.5" fill-opacity="1" fill="#206c04"></path><g id="SvgjsG1069"><text id="SvgjsText1070" font-family="&quot;Microsoft YaHei&quot;, 微软雅黑, Arial" text-anchor="middle" font-size="13px" width="71px" fill="#ffffff" font-weight="400" align="middle" lineHeight="125%" anchor="middle" family="&quot;Microsoft YaHei&quot;, 微软雅黑, Arial" size="13px" weight="400" font-style="" opacity="1" y="9.375" transform="rotate(0)"><tspan id="SvgjsTspan1071" dy="16.25" x="45.5"><tspan id="SvgjsTspan1072" style="">可执行程序</tspan></tspan></text></g></g><g id="SvgjsG1073"><path id="SvgjsPath1074" d="M265 145.25L265 164.25L265 164.25L265 181.3" stroke="#323232" stroke-width="1.5" fill="none" marker-end="url(#SvgjsMarker1075)"></path></g><g id="SvgjsG1077"><path id="SvgjsPath1078" d="M265 224.75L265 243.75L265 243.75L265 260.8" stroke="#323232" stroke-width="1.5" fill="none" marker-end="url(#SvgjsMarker1079)"></path></g><g id="SvgjsG1081"><path id="SvgjsPath1082" d="M265 304.25L265 323.25L265 323.25L265 340.3" stroke="#323232" stroke-width="1.5" fill="none" marker-end="url(#SvgjsMarker1083)"></path></g><g id="SvgjsG1085"><path id="SvgjsPath1086" d="M265 383.75L265 402.75L265 402.75L265 419.8" stroke="#323232" stroke-width="1.5" fill="none" marker-end="url(#SvgjsMarker1087)"></path></g><g id="SvgjsG1089"><path id="SvgjsPath1090" d="M265 463.25L265 482.25L265 482.25L265 499.29999999999995" stroke="#323232" stroke-width="1.5" fill="none" marker-end="url(#SvgjsMarker1091)"></path></g><g id="SvgjsG1093"><path id="SvgjsPath1094" d="M75 344.25L75 442.5L222.3 442.5" stroke="#323232" stroke-width="1.5" fill="none" marker-end="url(#SvgjsMarker1095)"></path></g><g id="SvgjsG1097"><path id="SvgjsPath1098" d="M455 344.25L455 442.5L307.7 442.5" stroke="#323232" stroke-width="1.5" fill="none" marker-end="url(#SvgjsMarker1099)"></path></g><g id="SvgjsG1101" transform="translate(125,189)"><path id="SvgjsPath1102" d="M 0 0L 64 0L 80 16L 80 30L 0 30L 0 0Z" stroke="none" fill-opacity="1" fill="#fff7bc"></path><path id="SvgjsPath1103" d="M 64 0L 64 16L 80 16Z" stroke="none" fill-opacity="1" fill="#e4d089"></path><path id="SvgjsPath1104" d="M 0 0L 64 0L 80 16L 80 30L 0 30L 0 0Z" stroke="none" fill="none"></path><g id="SvgjsG1105"><text id="SvgjsText1106" font-family="&quot;Microsoft YaHei&quot;, 微软雅黑, Arial" text-anchor="middle" font-size="13px" width="60px" fill="#323232" font-weight="400" align="middle" lineHeight="125%" anchor="middle" family="&quot;Microsoft YaHei&quot;, 微软雅黑, Arial" size="13px" weight="400" font-style="" opacity="1" y="4.375" transform="rotate(0)"><tspan id="SvgjsTspan1107" dy="16.25" x="40"><tspan id="SvgjsTspan1108" style="">.s</tspan></tspan></text></g></g><g id="SvgjsG1109" transform="translate(314.5652173913044,348)"><path id="SvgjsPath1110" d="M 0 0L 64 0L 80 16L 80 30L 0 30L 0 0Z" stroke="none" fill-opacity="1" fill="#fff7bc"></path><path id="SvgjsPath1111" d="M 64 0L 64 16L 80 16Z" stroke="none" fill-opacity="1" fill="#e4d089"></path><path id="SvgjsPath1112" d="M 0 0L 64 0L 80 16L 80 30L 0 30L 0 0Z" stroke="none" fill="none"></path><g id="SvgjsG1113"><text id="SvgjsText1114" font-family="&quot;Microsoft YaHei&quot;, 微软雅黑, Arial" text-anchor="middle" font-size="13px" width="60px" fill="#323232" font-weight="400" align="middle" lineHeight="125%" anchor="middle" family="&quot;Microsoft YaHei&quot;, 微软雅黑, Arial" size="13px" weight="400" font-style="" opacity="1" y="4.375" transform="rotate(0)"><tspan id="SvgjsTspan1115" dy="16.25" x="40"><tspan id="SvgjsTspan1116" style="">.o</tspan></tspan></text></g></g><g id="SvgjsG1117"></g></svg>