<svg id="SvgjsSvg1006" width="545" height="250" xmlns="http://www.w3.org/2000/svg" version="1.1" xmlns:xlink="http://www.w3.org/1999/xlink" xmlns:svgjs="http://svgjs.com/svgjs"><defs id="SvgjsDefs1007"><pattern patternUnits="userSpaceOnUse" id="pattern_mark_0" width="300" height="300"><text x="150" y="100" fill="rgba(229,229,229,0.8)" font-size="18" transform="rotate(-45, 150, 150)" style="dominant-baseline: middle; text-anchor: middle;"></text></pattern><pattern patternUnits="userSpaceOnUse" id="pattern_mark_1" width="300" height="300"><text x="150" y="200" fill="rgba(229,229,229,0.8)" font-size="18" transform="rotate(-45, 150, 150)" style="dominant-baseline: middle; text-anchor: middle;"></text></pattern></defs><rect id="svgbackgroundid" width="545" height="250" fill="transparent"></rect><rect id="SvgjsRect1009" width="545" height="250" fill="url(#pattern_mark_0)"></rect><rect id="SvgjsRect1010" width="545" height="250" fill="url(#pattern_mark_1)"></rect><g id="SvgjsG1011" transform="translate(25,25)"><path id="SvgjsPath1012" d="M 0 0L 90 0L 90 40L 0 40Z" stroke="rgba(33,41,48,1)" stroke-width="1.5" fill-opacity="1" fill="#f4b562"></path><g id="SvgjsG1013"><text id="SvgjsText1014" font-family="&quot;Microsoft YaHei&quot;, 微软雅黑, Arial" text-anchor="middle" font-size="13px" width="70px" fill="#323232" font-weight="700" align="middle" lineHeight="125%" anchor="middle" family="&quot;Microsoft YaHei&quot;, 微软雅黑, Arial" size="13px" weight="700" font-style="" opacity="1" y="9.375" transform="rotate(0)"><tspan id="SvgjsTspan1015" dy="16.25" x="45"><tspan id="SvgjsTspan1016" style="">程序源码</tspan></tspan></text></g></g><g id="SvgjsG1017" transform="translate(155,25)"><path id="SvgjsPath1018" d="M 0 0L 90 0L 90 40L 0 40Z" stroke="rgba(33,41,48,1)" stroke-width="1.5" fill-opacity="1" fill="#f4b562"></path><g id="SvgjsG1019"><text id="SvgjsText1020" font-family="&quot;Microsoft YaHei&quot;, 微软雅黑, Arial" text-anchor="middle" font-size="13px" width="70px" fill="#323232" font-weight="700" align="middle" lineHeight="125%" anchor="middle" family="&quot;Microsoft YaHei&quot;, 微软雅黑, Arial" size="13px" weight="700" font-style="" opacity="1" y="9.375" transform="rotate(0)"><tspan id="SvgjsTspan1021" dy="16.25" x="45"><tspan id="SvgjsTspan1022" style="">词法分析</tspan></tspan></text></g></g><g id="SvgjsG1023" transform="translate(285,25)"><path id="SvgjsPath1024" d="M 0 0L 90 0L 90 40L 0 40Z" stroke="rgba(33,41,48,1)" stroke-width="1.5" fill-opacity="1" fill="#f4b562"></path><g id="SvgjsG1025"><text id="SvgjsText1026" font-family="&quot;Microsoft YaHei&quot;, 微软雅黑, Arial" text-anchor="middle" font-size="13px" width="70px" fill="#323232" font-weight="700" align="middle" lineHeight="125%" anchor="middle" family="&quot;Microsoft YaHei&quot;, 微软雅黑, Arial" size="13px" weight="700" font-style="" opacity="1" y="9.375" transform="rotate(0)"><tspan id="SvgjsTspan1027" dy="16.25" x="45"><tspan id="SvgjsTspan1028" style="">单词流</tspan></tspan></text></g></g><g id="SvgjsG1029" transform="translate(415,25)"><path id="SvgjsPath1030" d="M 0 0L 90 0L 90 40L 0 40Z" stroke="rgba(33,41,48,1)" stroke-width="1.5" fill-opacity="1" fill="#f4b562"></path><g id="SvgjsG1031"><text id="SvgjsText1032" font-family="&quot;Microsoft YaHei&quot;, 微软雅黑, Arial" text-anchor="middle" font-size="13px" width="70px" fill="#323232" font-weight="700" align="middle" lineHeight="125%" anchor="middle" family="&quot;Microsoft YaHei&quot;, 微软雅黑, Arial" size="13px" weight="700" font-style="" opacity="1" y="9.375" transform="rotate(0)"><tspan id="SvgjsTspan1033" dy="16.25" x="45"><tspan id="SvgjsTspan1034" style="">语法分析</tspan></tspan></text></g></g><g id="SvgjsG1035" transform="translate(415,105)"><path id="SvgjsPath1036" d="M 0 0L 90 0L 90 40L 0 40Z" stroke="rgba(33,41,48,1)" stroke-width="1.5" fill-opacity="1" fill="#f4b562"></path><g id="SvgjsG1037"><text id="SvgjsText1038" font-family="&quot;Microsoft YaHei&quot;, 微软雅黑, Arial" text-anchor="middle" font-size="13px" width="70px" fill="#323232" font-weight="700" align="middle" lineHeight="125%" anchor="middle" family="&quot;Microsoft YaHei&quot;, 微软雅黑, Arial" size="13px" weight="700" font-style="" opacity="1" y="9.375" transform="rotate(0)"><tspan id="SvgjsTspan1039" dy="16.25" x="45"><tspan id="SvgjsTspan1040" style="">抽象语法树</tspan></tspan></text></g></g><g id="SvgjsG1041" transform="translate(285,105)"><path id="SvgjsPath1042" d="M 0 0L 90 0L 90 40L 0 40Z" stroke="rgba(33,41,48,1)" stroke-width="1.5" fill-opacity="1" fill="#4dde2c"></path><g id="SvgjsG1043"><text id="SvgjsText1044" font-family="&quot;Microsoft YaHei&quot;, 微软雅黑, Arial" text-anchor="middle" font-size="13px" width="70px" fill="#323232" font-weight="700" align="middle" lineHeight="125%" anchor="middle" family="&quot;Microsoft YaHei&quot;, 微软雅黑, Arial" size="13px" weight="700" font-style="" opacity="1" y="0.875" transform="rotate(0)"><tspan id="SvgjsTspan1045" dy="16.25" x="45"><tspan id="SvgjsTspan1046" style="">指令流</tspan></tspan><tspan id="SvgjsTspan1047" dy="16.25" x="45"><tspan id="SvgjsTspan1048" style="">(可选)</tspan></tspan></text></g></g><g id="SvgjsG1049" transform="translate(25,105)"><path id="SvgjsPath1050" d="M 0 0L 90 0L 90 40L 0 40Z" stroke="rgba(33,41,48,1)" stroke-width="1.5" fill-opacity="1" fill="#4dde2c"></path><g id="SvgjsG1051"><text id="SvgjsText1052" font-family="&quot;Microsoft YaHei&quot;, 微软雅黑, Arial" text-anchor="middle" font-size="13px" width="70px" fill="#323232" font-weight="700" align="middle" lineHeight="125%" anchor="middle" family="&quot;Microsoft YaHei&quot;, 微软雅黑, Arial" size="13px" weight="700" font-style="" opacity="1" y="9.375" transform="rotate(0)"><tspan id="SvgjsTspan1053" dy="16.25" x="45"><tspan id="SvgjsTspan1054" style="">解释指令</tspan></tspan></text></g></g><g id="SvgjsG1055" transform="translate(155,105)"><path id="SvgjsPath1056" d="M 0 0L 90 0L 90 40L 0 40Z" stroke="rgba(33,41,48,1)" stroke-width="1.5" fill-opacity="1" fill="#4dde2c"></path><g id="SvgjsG1057"><text id="SvgjsText1058" font-family="&quot;Microsoft YaHei&quot;, 微软雅黑, Arial" text-anchor="middle" font-size="13px" width="70px" fill="#323232" font-weight="700" align="middle" lineHeight="125%" anchor="middle" family="&quot;Microsoft YaHei&quot;, 微软雅黑, Arial" size="13px" weight="700" font-style="" opacity="1" y="9.375" transform="rotate(0)"><tspan id="SvgjsTspan1059" dy="16.25" x="45"><tspan id="SvgjsTspan1060" style="">解释器</tspan></tspan></text></g></g><g id="SvgjsG1061" transform="translate(415,185)"><path id="SvgjsPath1062" d="M 0 0L 90 0L 90 40L 0 40Z" stroke="rgba(33,41,48,1)" stroke-width="1.5" fill-opacity="1" fill="#5daeff"></path><g id="SvgjsG1063"><text id="SvgjsText1064" font-family="&quot;Microsoft YaHei&quot;, 微软雅黑, Arial" text-anchor="middle" font-size="13px" width="70px" fill="#323232" font-weight="700" align="middle" lineHeight="125%" anchor="middle" family="&quot;Microsoft YaHei&quot;, 微软雅黑, Arial" size="13px" weight="700" font-style="" opacity="1" y="0.875" transform="rotate(0)"><tspan id="SvgjsTspan1065" dy="16.25" x="45"><tspan id="SvgjsTspan1066" style="">优化器</tspan></tspan><tspan id="SvgjsTspan1067" dy="16.25" x="45"><tspan id="SvgjsTspan1068" style="">(可选)</tspan></tspan></text></g></g><g id="SvgjsG1069" transform="translate(25,185)"><path id="SvgjsPath1070" d="M 0 0L 90 0L 90 40L 0 40Z" stroke="rgba(33,41,48,1)" stroke-width="1.5" fill-opacity="1" fill="#5daeff"></path><g id="SvgjsG1071"><text id="SvgjsText1072" font-family="&quot;Microsoft YaHei&quot;, 微软雅黑, Arial" text-anchor="middle" font-size="13px" width="70px" fill="#323232" font-weight="700" align="middle" lineHeight="125%" anchor="middle" family="&quot;Microsoft YaHei&quot;, 微软雅黑, Arial" size="13px" weight="700" font-style="" opacity="1" y="9.375" transform="rotate(0)"><tspan id="SvgjsTspan1073" dy="16.25" x="45"><tspan id="SvgjsTspan1074" style="">目标代码</tspan></tspan></text></g></g><g id="SvgjsG1075" transform="translate(155,185)"><path id="SvgjsPath1076" d="M 0 0L 90 0L 90 40L 0 40Z" stroke="rgba(33,41,48,1)" stroke-width="1.5" fill-opacity="1" fill="#5daeff"></path><g id="SvgjsG1077"><text id="SvgjsText1078" font-family="&quot;Microsoft YaHei&quot;, 微软雅黑, Arial" text-anchor="middle" font-size="13px" width="70px" fill="#323232" font-weight="700" align="middle" lineHeight="125%" anchor="middle" family="&quot;Microsoft YaHei&quot;, 微软雅黑, Arial" size="13px" weight="700" font-style="" opacity="1" y="9.375" transform="rotate(0)"><tspan id="SvgjsTspan1079" dy="16.25" x="45"><tspan id="SvgjsTspan1080" style="">生成器</tspan></tspan></text></g></g><g id="SvgjsG1081" transform="translate(285,185)"><path id="SvgjsPath1082" d="M 0 0L 90 0L 90 40L 0 40Z" stroke="rgba(33,41,48,1)" stroke-width="1.5" fill-opacity="1" fill="#5daeff"></path><g id="SvgjsG1083"><text id="SvgjsText1084" font-family="&quot;Microsoft YaHei&quot;, 微软雅黑, Arial" text-anchor="middle" font-size="13px" width="70px" fill="#323232" font-weight="700" align="middle" lineHeight="125%" anchor="middle" family="&quot;Microsoft YaHei&quot;, 微软雅黑, Arial" size="13px" weight="700" font-style="" opacity="1" y="0.875" transform="rotate(0)"><tspan id="SvgjsTspan1085" dy="16.25" x="45"><tspan id="SvgjsTspan1086" style="">中间代码</tspan></tspan><tspan id="SvgjsTspan1087" dy="16.25" x="45"><tspan id="SvgjsTspan1088" style="">(可选)</tspan></tspan></text></g></g><g id="SvgjsG1089" transform="translate(119.5,35)"><path id="SvgjsPath1090" d="M 0 6.6000000000000005L 21 6.6000000000000005L 21 0L 31 10L 21 20L 21 13.4L 0 13.4L 0 6.6000000000000005Z" stroke="rgba(33,41,48,1)" stroke-width="1.5" fill-opacity="1" fill="#cecece"></path><g id="SvgjsG1091"><text id="SvgjsText1092" font-family="&quot;Microsoft YaHei&quot;, 微软雅黑, Arial" text-anchor="middle" font-size="13px" width="31px" fill="#323232" font-weight="400" align="middle" lineHeight="125%" anchor="middle" family="&quot;Microsoft YaHei&quot;, 微软雅黑, Arial" size="13px" weight="400" font-style="" opacity="1" y="-0.6249999999999991" transform="rotate(0)"></text></g></g><g id="SvgjsG1093" transform="translate(379.5,119)"><path id="SvgjsPath1094" d="M 0 10L 10 0L 10 6.6000000000000005L 31 6.6000000000000005L 31 13.4L 10 13.4L 10 20L 0 10Z" stroke="rgba(33,41,48,1)" stroke-width="1.5" fill-opacity="1" fill="#000000"></path><g id="SvgjsG1095"><text id="SvgjsText1096" font-family="&quot;Microsoft YaHei&quot;, 微软雅黑, Arial" text-anchor="middle" font-size="13px" width="31px" fill="#323232" font-weight="400" align="middle" lineHeight="125%" anchor="middle" family="&quot;Microsoft YaHei&quot;, 微软雅黑, Arial" size="13px" weight="400" font-style="" opacity="1" y="-0.6249999999999991" transform="rotate(0)"></text></g></g><g id="SvgjsG1097" transform="translate(450,70)"><path id="SvgjsPath1098" d="M 6.6000000000000005 0L 13.4 0L 13.4 21L 20 21L 10 31L 0 21L 6.6000000000000005 21L 6.6000000000000005 0Z" stroke="rgba(33,41,48,1)" stroke-width="1.5" fill-opacity="1" fill="#cecece"></path><g id="SvgjsG1099"><text id="SvgjsText1100" font-family="&quot;Microsoft YaHei&quot;, 微软雅黑, Arial" text-anchor="middle" font-size="13px" width="28px" fill="#323232" font-weight="400" align="middle" lineHeight="125%" anchor="middle" family="&quot;Microsoft YaHei&quot;, 微软雅黑, Arial" size="13px" weight="400" font-style="" opacity="1" y="3.325" transform="rotate(0)"></text></g></g><g id="SvgjsG1101" transform="translate(379.5,35)"><path id="SvgjsPath1102" d="M 0 6.6000000000000005L 21 6.6000000000000005L 21 0L 31 10L 21 20L 21 13.4L 0 13.4L 0 6.6000000000000005Z" stroke="rgba(33,41,48,1)" stroke-width="1.5" fill-opacity="1" fill="#cecece"></path><g id="SvgjsG1103"><text id="SvgjsText1104" font-family="&quot;Microsoft YaHei&quot;, 微软雅黑, Arial" text-anchor="middle" font-size="13px" width="31px" fill="#323232" font-weight="400" align="middle" lineHeight="125%" anchor="middle" family="&quot;Microsoft YaHei&quot;, 微软雅黑, Arial" size="13px" weight="400" font-style="" opacity="1" y="-0.6249999999999991" transform="rotate(0)"></text></g></g><g id="SvgjsG1105" transform="translate(249.5,35)"><path id="SvgjsPath1106" d="M 0 6.6000000000000005L 21 6.6000000000000005L 21 0L 31 10L 21 20L 21 13.4L 0 13.4L 0 6.6000000000000005Z" stroke="rgba(33,41,48,1)" stroke-width="1.5" fill-opacity="1" fill="#cecece"></path><g id="SvgjsG1107"><text id="SvgjsText1108" font-family="&quot;Microsoft YaHei&quot;, 微软雅黑, Arial" text-anchor="middle" font-size="13px" width="31px" fill="#323232" font-weight="400" align="middle" lineHeight="125%" anchor="middle" family="&quot;Microsoft YaHei&quot;, 微软雅黑, Arial" size="13px" weight="400" font-style="" opacity="1" y="-0.6249999999999991" transform="rotate(0)"></text></g></g><g id="SvgjsG1109" transform="translate(450,150)"><path id="SvgjsPath1110" d="M 6.6000000000000005 0L 13.4 0L 13.4 21L 20 21L 10 31L 0 21L 6.6000000000000005 21L 6.6000000000000005 0Z" stroke="rgba(33,41,48,1)" stroke-width="1.5" fill-opacity="1" fill="#000000"></path><g id="SvgjsG1111"><text id="SvgjsText1112" font-family="&quot;Microsoft YaHei&quot;, 微软雅黑, Arial" text-anchor="middle" font-size="13px" width="28px" fill="#323232" font-weight="400" align="middle" lineHeight="125%" anchor="middle" family="&quot;Microsoft YaHei&quot;, 微软雅黑, Arial" size="13px" weight="400" font-style="" opacity="1" y="3.325" transform="rotate(0)"></text></g></g><g id="SvgjsG1113" transform="translate(249.5,115)"><path id="SvgjsPath1114" d="M 0 10L 10 0L 10 6.6000000000000005L 31 6.6000000000000005L 31 13.4L 10 13.4L 10 20L 0 10Z" stroke="rgba(33,41,48,1)" stroke-width="1.5" fill-opacity="1" fill="#cecece"></path><g id="SvgjsG1115"><text id="SvgjsText1116" font-family="&quot;Microsoft YaHei&quot;, 微软雅黑, Arial" text-anchor="middle" font-size="13px" width="31px" fill="#323232" font-weight="400" align="middle" lineHeight="125%" anchor="middle" family="&quot;Microsoft YaHei&quot;, 微软雅黑, Arial" size="13px" weight="400" font-style="" opacity="1" y="-0.6249999999999991" transform="rotate(0)"></text></g></g><g id="SvgjsG1117" transform="translate(119.5,115)"><path id="SvgjsPath1118" d="M 0 10L 10 0L 10 6.6000000000000005L 31 6.6000000000000005L 31 13.4L 10 13.4L 10 20L 0 10Z" stroke="rgba(33,41,48,1)" stroke-width="1.5" fill-opacity="1" fill="#cecece"></path><g id="SvgjsG1119"><text id="SvgjsText1120" font-family="&quot;Microsoft YaHei&quot;, 微软雅黑, Arial" text-anchor="middle" font-size="13px" width="31px" fill="#323232" font-weight="400" align="middle" lineHeight="125%" anchor="middle" family="&quot;Microsoft YaHei&quot;, 微软雅黑, Arial" size="13px" weight="400" font-style="" opacity="1" y="-0.6249999999999991" transform="rotate(0)"></text></g></g><g id="SvgjsG1121" transform="translate(379.5,195)"><path id="SvgjsPath1122" d="M 0 10L 10 0L 10 6.6000000000000005L 31 6.6000000000000005L 31 13.4L 10 13.4L 10 20L 0 10Z" stroke="rgba(33,41,48,1)" stroke-width="1.5" fill-opacity="1" fill="#cecece"></path><g id="SvgjsG1123"><text id="SvgjsText1124" font-family="&quot;Microsoft YaHei&quot;, 微软雅黑, Arial" text-anchor="middle" font-size="13px" width="31px" fill="#323232" font-weight="400" align="middle" lineHeight="125%" anchor="middle" family="&quot;Microsoft YaHei&quot;, 微软雅黑, Arial" size="13px" weight="400" font-style="" opacity="1" y="-0.6249999999999991" transform="rotate(0)"></text></g></g><g id="SvgjsG1125" transform="translate(249.5,195)"><path id="SvgjsPath1126" d="M 0 10L 10 0L 10 6.6000000000000005L 31 6.6000000000000005L 31 13.4L 10 13.4L 10 20L 0 10Z" stroke="rgba(33,41,48,1)" stroke-width="1.5" fill-opacity="1" fill="#cecece"></path><g id="SvgjsG1127"><text id="SvgjsText1128" font-family="&quot;Microsoft YaHei&quot;, 微软雅黑, Arial" text-anchor="middle" font-size="13px" width="31px" fill="#323232" font-weight="400" align="middle" lineHeight="125%" anchor="middle" family="&quot;Microsoft YaHei&quot;, 微软雅黑, Arial" size="13px" weight="400" font-style="" opacity="1" y="-0.6249999999999991" transform="rotate(0)"></text></g></g><g id="SvgjsG1129" transform="translate(119.5,195)"><path id="SvgjsPath1130" d="M 0 10L 10 0L 10 6.6000000000000005L 31 6.6000000000000005L 31 13.4L 10 13.4L 10 20L 0 10Z" stroke="rgba(33,41,48,1)" stroke-width="1.5" fill-opacity="1" fill="#cecece"></path><g id="SvgjsG1131"><text id="SvgjsText1132" font-family="&quot;Microsoft YaHei&quot;, 微软雅黑, Arial" text-anchor="middle" font-size="13px" width="31px" fill="#323232" font-weight="400" align="middle" lineHeight="125%" anchor="middle" family="&quot;Microsoft YaHei&quot;, 微软雅黑, Arial" size="13px" weight="400" font-style="" opacity="1" y="-0.6249999999999991" transform="rotate(0)"></text></g></g><g id="SvgjsG1133"></g></svg>