<svg id="SvgjsSvg1006" width="770" height="354" xmlns="http://www.w3.org/2000/svg" version="1.1" xmlns:xlink="http://www.w3.org/1999/xlink" xmlns:svgjs="http://svgjs.com/svgjs"><defs id="SvgjsDefs1007"><pattern patternUnits="userSpaceOnUse" id="pattern_mark_0" width="300" height="300"><text x="150" y="100" fill="rgba(229,229,229,0.8)" font-size="18" transform="rotate(-45, 150, 150)" style="dominant-baseline: middle; text-anchor: middle;"></text></pattern><pattern patternUnits="userSpaceOnUse" id="pattern_mark_1" width="300" height="300"><text x="150" y="200" fill="rgba(229,229,229,0.8)" font-size="18" transform="rotate(-45, 150, 150)" style="dominant-baseline: middle; text-anchor: middle;"></text></pattern></defs><rect id="svgbackgroundid" width="770" height="354" fill="transparent"></rect><rect id="SvgjsRect1009" width="770" height="354" fill="url(#pattern_mark_0)"></rect><rect id="SvgjsRect1010" width="770" height="354" fill="url(#pattern_mark_1)"></rect><g id="SvgjsG1011" transform="translate(170,56)"><path id="SvgjsPath1012" d="M 0 4Q 0 0 4 0L 426 0Q 430 0 430 4L 430 77Q 430 81 426 81L 4 81Q 0 81 0 77Z" stroke-dasharray="7.5,3" stroke="rgba(33,41,48,1)" stroke-width="1.5" fill-opacity="1" fill="#ffffff"></path><g id="SvgjsG1013"><text id="SvgjsText1014" font-family="&quot;Microsoft YaHei&quot;, 微软雅黑, Arial" text-anchor="middle" font-size="13px" width="410px" fill="#323232" font-weight="700" align="middle" lineHeight="125%" anchor="middle" family="&quot;Microsoft YaHei&quot;, 微软雅黑, Arial" size="13px" weight="700" font-style="" opacity="1" y="29.875" transform="rotate(0)"></text></g></g><g id="SvgjsG1015" transform="translate(25,74)"><path id="SvgjsPath1016" d="M 0 4Q 0 0 4 0L 91 0Q 95 0 95 4L 95 41Q 95 45 91 45L 4 45Q 0 45 0 41Z" stroke="none" fill-opacity="1" fill="#52a7f7"></path><g id="SvgjsG1017"><text id="SvgjsText1018" font-family="&quot;Microsoft YaHei&quot;, 微软雅黑, Arial" text-anchor="middle" font-size="13px" width="75px" fill="#323232" font-weight="700" align="middle" lineHeight="125%" anchor="middle" family="&quot;Microsoft YaHei&quot;, 微软雅黑, Arial" size="13px" weight="700" font-style="" opacity="1" y="3.375" transform="rotate(0)"><tspan id="SvgjsTspan1019" dy="16.25" x="47.5"><tspan id="SvgjsTspan1020" style="">加载</tspan></tspan><tspan id="SvgjsTspan1021" dy="16.25" x="47.5"><tspan id="SvgjsTspan1022" style="">Loading</tspan></tspan></text></g></g><g id="SvgjsG1023" transform="translate(335,74)"><path id="SvgjsPath1024" d="M 0 4Q 0 0 4 0L 91 0Q 95 0 95 4L 95 41Q 95 45 91 45L 4 45Q 0 45 0 41Z" stroke="none" fill-opacity="1" fill="#39ac00"></path><g id="SvgjsG1025"><text id="SvgjsText1026" font-family="&quot;Microsoft YaHei&quot;, 微软雅黑, Arial" text-anchor="middle" font-size="13px" width="75px" fill="#323232" font-weight="700" align="middle" lineHeight="125%" anchor="middle" family="&quot;Microsoft YaHei&quot;, 微软雅黑, Arial" size="13px" weight="700" font-style="" opacity="1" y="3.375" transform="rotate(0)"><tspan id="SvgjsTspan1027" dy="16.25" x="47.5"><tspan id="SvgjsTspan1028" style="">准备</tspan></tspan><tspan id="SvgjsTspan1029" dy="16.25" x="47.5"><tspan id="SvgjsTspan1030" style="">Preparation</tspan></tspan></text></g></g><g id="SvgjsG1031" transform="translate(180,74)"><path id="SvgjsPath1032" d="M 0 4Q 0 0 4 0L 91 0Q 95 0 95 4L 95 41Q 95 45 91 45L 4 45Q 0 45 0 41Z" stroke="none" fill-opacity="1" fill="#5ae861"></path><g id="SvgjsG1033"><text id="SvgjsText1034" font-family="&quot;Microsoft YaHei&quot;, 微软雅黑, Arial" text-anchor="middle" font-size="13px" width="75px" fill="#323232" font-weight="700" align="middle" lineHeight="125%" anchor="middle" family="&quot;Microsoft YaHei&quot;, 微软雅黑, Arial" size="13px" weight="700" font-style="" opacity="1" y="3.375" transform="rotate(0)"><tspan id="SvgjsTspan1035" dy="16.25" x="47.5"><tspan id="SvgjsTspan1036" style="">验证</tspan></tspan><tspan id="SvgjsTspan1037" dy="16.25" x="47.5"><tspan id="SvgjsTspan1038" style="">Verification</tspan></tspan></text></g></g><g id="SvgjsG1039" transform="translate(490,74)"><path id="SvgjsPath1040" d="M 0 4Q 0 0 4 0L 91 0Q 95 0 95 4L 95 41Q 95 45 91 45L 4 45Q 0 45 0 41Z" stroke="none" fill-opacity="1" fill="#298100"></path><g id="SvgjsG1041"><text id="SvgjsText1042" font-family="&quot;Microsoft YaHei&quot;, 微软雅黑, Arial" text-anchor="middle" font-size="13px" width="75px" fill="#323232" font-weight="700" align="middle" lineHeight="125%" anchor="middle" family="&quot;Microsoft YaHei&quot;, 微软雅黑, Arial" size="13px" weight="700" font-style="" opacity="1" y="3.375" transform="rotate(0)"><tspan id="SvgjsTspan1043" dy="16.25" x="47.5"><tspan id="SvgjsTspan1044" style="">解析</tspan></tspan><tspan id="SvgjsTspan1045" dy="16.25" x="47.5"><tspan id="SvgjsTspan1046" style="">Resolution</tspan></tspan></text></g></g><g id="SvgjsG1047" transform="translate(647.5,284)"><path id="SvgjsPath1048" d="M 0 4Q 0 0 4 0L 91 0Q 95 0 95 4L 95 41Q 95 45 91 45L 4 45Q 0 45 0 41Z" stroke="none" fill-opacity="1" fill="#a60e00"></path><g id="SvgjsG1049"><text id="SvgjsText1050" font-family="&quot;Microsoft YaHei&quot;, 微软雅黑, Arial" text-anchor="middle" font-size="13px" width="75px" fill="#323232" font-weight="700" align="middle" lineHeight="125%" anchor="middle" family="&quot;Microsoft YaHei&quot;, 微软雅黑, Arial" size="13px" weight="700" font-style="" opacity="1" y="3.375" transform="rotate(0)"><tspan id="SvgjsTspan1051" dy="16.25" x="47.5"><tspan id="SvgjsTspan1052" style="">卸载</tspan></tspan><tspan id="SvgjsTspan1053" dy="16.25" x="47.5"><tspan id="SvgjsTspan1054" style="">Unloading</tspan></tspan></text></g></g><g id="SvgjsG1055" transform="translate(124.5,77.5)"><path id="SvgjsPath1056" d="M 0 13.695L 30.25 13.695L 30.25 0L 51 20.75L 30.25 41.5L 30.25 27.805000000000003L 0 27.805000000000003L 0 13.695Z" stroke="none" fill-opacity="1" fill="#f08f7b"></path><g id="SvgjsG1057"><text id="SvgjsText1058" font-family="&quot;Microsoft YaHei&quot;, 微软雅黑, Arial" text-anchor="middle" font-size="13px" width="51px" fill="#323232" font-weight="700" align="middle" lineHeight="125%" anchor="middle" family="&quot;Microsoft YaHei&quot;, 微软雅黑, Arial" size="13px" weight="700" font-style="" opacity="1" y="10.125" transform="rotate(0)"></text></g></g><g id="SvgjsG1059" transform="translate(279.5,75.75)"><path id="SvgjsPath1060" d="M 0 13.695L 30.25 13.695L 30.25 0L 51 20.75L 30.25 41.5L 30.25 27.805000000000003L 0 27.805000000000003L 0 13.695Z" stroke="none" fill-opacity="1" fill="#f08f7b"></path><g id="SvgjsG1061"><text id="SvgjsText1062" font-family="&quot;Microsoft YaHei&quot;, 微软雅黑, Arial" text-anchor="middle" font-size="13px" width="51px" fill="#323232" font-weight="700" align="middle" lineHeight="125%" anchor="middle" family="&quot;Microsoft YaHei&quot;, 微软雅黑, Arial" size="13px" weight="700" font-style="" opacity="1" y="10.125" transform="rotate(0)"></text></g></g><g id="SvgjsG1063" transform="translate(434.5,75.75)"><path id="SvgjsPath1064" d="M 0 13.695L 30.25 13.695L 30.25 0L 51 20.75L 30.25 41.5L 30.25 27.805000000000003L 0 27.805000000000003L 0 13.695Z" stroke="none" fill-opacity="1" fill="#f08f7b"></path><g id="SvgjsG1065"><text id="SvgjsText1066" font-family="&quot;Microsoft YaHei&quot;, 微软雅黑, Arial" text-anchor="middle" font-size="13px" width="51px" fill="#323232" font-weight="700" align="middle" lineHeight="125%" anchor="middle" family="&quot;Microsoft YaHei&quot;, 微软雅黑, Arial" size="13px" weight="700" font-style="" opacity="1" y="10.125" transform="rotate(0)"></text></g></g><g id="SvgjsG1067" transform="matrix(6.123233995736766e-17,1,-1,6.123233995736766e-17,714.75,227)"><path id="SvgjsPath1068" d="M 0 13.695L 30.25 13.695L 30.25 0L 51 20.75L 30.25 41.5L 30.25 27.805000000000003L 0 27.805000000000003L 0 13.695Z" stroke="none" fill-opacity="1" fill="#f08f7b"></path><g id="SvgjsG1069"><text id="SvgjsText1070" font-family="&quot;Microsoft YaHei&quot;, 微软雅黑, Arial" text-anchor="middle" font-size="13px" width="51px" fill="#323232" font-weight="700" align="middle" lineHeight="125%" anchor="middle" family="&quot;Microsoft YaHei&quot;, 微软雅黑, Arial" size="13px" weight="700" font-style="" opacity="1" y="10.125" transform="rotate(0)"></text></g></g><g id="SvgjsG1071" transform="translate(332.5,25)"><path id="SvgjsPath1072" d="M 0 0L 100 0L 100 40L 0 40Z" stroke="none" fill="none"></path><g id="SvgjsG1073"><text id="SvgjsText1074" font-family="&quot;Microsoft YaHei&quot;, 微软雅黑, Arial" text-anchor="middle" font-size="13px" width="100px" fill="#c6928f" font-weight="700" align="middle" lineHeight="125%" anchor="middle" family="&quot;Microsoft YaHei&quot;, 微软雅黑, Arial" size="13px" weight="700" font-style="" opacity="1" y="9.375" transform="rotate(0)"><tspan id="SvgjsTspan1075" dy="16.25" x="50"><tspan id="SvgjsTspan1076" style="">链接(Linking)</tspan></tspan></text></g></g><g id="SvgjsG1077" transform="translate(645,74)"><path id="SvgjsPath1078" d="M 0 4Q 0 0 4 0L 96 0Q 100 0 100 4L 100 41Q 100 45 96 45L 4 45Q 0 45 0 41Z" stroke="none" fill-opacity="1" fill="#d86901"></path><g id="SvgjsG1079"><text id="SvgjsText1080" font-family="&quot;Microsoft YaHei&quot;, 微软雅黑, Arial" text-anchor="middle" font-size="13px" width="80px" fill="#323232" font-weight="700" align="middle" lineHeight="125%" anchor="middle" family="&quot;Microsoft YaHei&quot;, 微软雅黑, Arial" size="13px" weight="700" font-style="" opacity="1" y="3.375" transform="rotate(0)"><tspan id="SvgjsTspan1081" dy="16.25" x="50"><tspan id="SvgjsTspan1082" style="">初始化</tspan></tspan><tspan id="SvgjsTspan1083" dy="16.25" x="50"><tspan id="SvgjsTspan1084" style="">Initialization</tspan></tspan></text></g></g><g id="SvgjsG1085" transform="translate(589.5,74)"><path id="SvgjsPath1086" d="M 0 13.695L 30.25 13.695L 30.25 0L 51 20.75L 30.25 41.5L 30.25 27.805000000000003L 0 27.805000000000003L 0 13.695Z" stroke="none" fill-opacity="1" fill="#f08f7b"></path><g id="SvgjsG1087"><text id="SvgjsText1088" font-family="&quot;Microsoft YaHei&quot;, 微软雅黑, Arial" text-anchor="middle" font-size="13px" width="51px" fill="#323232" font-weight="700" align="middle" lineHeight="125%" anchor="middle" family="&quot;Microsoft YaHei&quot;, 微软雅黑, Arial" size="13px" weight="700" font-style="" opacity="1" y="10.125" transform="rotate(0)"></text></g></g><g id="SvgjsG1089" transform="translate(647.5,179)"><path id="SvgjsPath1090" d="M 0 4Q 0 0 4 0L 91 0Q 95 0 95 4L 95 41Q 95 45 91 45L 4 45Q 0 45 0 41Z" stroke="none" fill-opacity="1" fill="#f8f52b"></path><g id="SvgjsG1091"><text id="SvgjsText1092" font-family="&quot;Microsoft YaHei&quot;, 微软雅黑, Arial" text-anchor="middle" font-size="13px" width="75px" fill="#323232" font-weight="700" align="middle" lineHeight="125%" anchor="middle" family="&quot;Microsoft YaHei&quot;, 微软雅黑, Arial" size="13px" weight="700" font-style="" opacity="1" y="3.375" transform="rotate(0)"><tspan id="SvgjsTspan1093" dy="16.25" x="47.5"><tspan id="SvgjsTspan1094" style="">使用</tspan></tspan><tspan id="SvgjsTspan1095" dy="16.25" x="47.5"><tspan id="SvgjsTspan1096" style="">Using</tspan></tspan></text></g></g><g id="SvgjsG1097" transform="matrix(6.123233995736766e-17,1,-1,6.123233995736766e-17,716.75,123)"><path id="SvgjsPath1098" d="M 0 13.695L 30.25 13.695L 30.25 0L 51 20.75L 30.25 41.5L 30.25 27.805000000000003L 0 27.805000000000003L 0 13.695Z" stroke="none" fill-opacity="1" fill="#f08f7b"></path><g id="SvgjsG1099"><text id="SvgjsText1100" font-family="&quot;Microsoft YaHei&quot;, 微软雅黑, Arial" text-anchor="middle" font-size="13px" width="51px" fill="#323232" font-weight="700" align="middle" lineHeight="125%" anchor="middle" family="&quot;Microsoft YaHei&quot;, 微软雅黑, Arial" size="13px" weight="700" font-style="" opacity="1" y="10.125" transform="rotate(0)"></text></g></g><g id="SvgjsG1101"></g></svg>