<svg id="SvgjsSvg1549" width="738.0000000000002" height="593.6666666666667" xmlns="http://www.w3.org/2000/svg" version="1.1" xmlns:xlink="http://www.w3.org/1999/xlink" xmlns:svgjs="http://svgjs.com/svgjs"><defs id="SvgjsDefs1550"><pattern patternUnits="userSpaceOnUse" id="pattern_mark_0" width="300" height="300"><text x="150" y="100" fill="rgba(229,229,229,0.8)" font-size="18" transform="rotate(-45, 150, 150)" style="dominant-baseline: middle; text-anchor: middle;"></text></pattern><pattern patternUnits="userSpaceOnUse" id="pattern_mark_1" width="300" height="300"><text x="150" y="200" fill="rgba(229,229,229,0.8)" font-size="18" transform="rotate(-45, 150, 150)" style="dominant-baseline: middle; text-anchor: middle;"></text></pattern><marker id="SvgjsMarker1610" markerWidth="13" markerHeight="9" refX="9.5" refY="4.5" viewBox="0 0 13 9" orient="auto" markerUnits="userSpaceOnUse" stroke-dasharray="0,0"><path id="SvgjsPath1611" d="M0,0 L13,4.5 L0,9 L0,0" fill="#323232" stroke="#323232" stroke-width="1"></path></marker><marker id="SvgjsMarker1614" markerWidth="13" markerHeight="9" refX="9.5" refY="4.5" viewBox="0 0 13 9" orient="auto" markerUnits="userSpaceOnUse" stroke-dasharray="0,0"><path id="SvgjsPath1615" d="M0,0 L13,4.5 L0,9 L0,0" fill="#323232" stroke="#323232" stroke-width="1"></path></marker><marker id="SvgjsMarker1651" markerWidth="13" markerHeight="9" refX="9.5" refY="4.5" viewBox="0 0 13 9" orient="auto" markerUnits="userSpaceOnUse" stroke-dasharray="0,0"><path id="SvgjsPath1652" d="M0,0 L13,4.5 L0,9 L0,0" fill="#323232" stroke="#323232" stroke-width="1"></path></marker></defs><rect id="svgbackgroundid" width="738.0000000000002" height="593.6666666666667" fill="transparent"></rect><rect id="SvgjsRect1552" width="738.0000000000002" height="593.6666666666667" fill="url(#pattern_mark_0)"></rect><rect id="SvgjsRect1553" width="738.0000000000002" height="593.6666666666667" fill="url(#pattern_mark_1)"></rect><g id="SvgjsG1554" transform="translate(204.00000000000023,25)"><path id="SvgjsPath1555" d="M 0 4Q 0 0 4 0L 226 0Q 230 0 230 4L 230 89Q 230 93 226 93L 4 93Q 0 93 0 89Z" stroke="rgba(33,41,48,1)" stroke-width="1.5" fill-opacity="1" fill="#ffffff"></path><path id="SvgjsPath1556" d="M 0 30L 230 30" stroke="rgba(33,41,48,1)" stroke-width="1.5" fill="none"></path><path id="SvgjsPath1557" d="M 0 0L 230 0L 230 93L 0 93Z" stroke="none" fill="none"></path><g id="SvgjsG1558"><text id="SvgjsText1559" font-family="微软雅黑" text-anchor="middle" font-size="13px" width="210px" fill="#323232" font-weight="700" align="middle" lineHeight="125%" anchor="middle" family="微软雅黑" size="13px" weight="700" font-style="" opacity="1" y="4.375" transform="rotate(0)"><tspan id="SvgjsTspan1560" dy="16.25" x="115"><tspan id="SvgjsTspan1561" style="">ReentrantLock</tspan></tspan></text></g><g id="SvgjsG1562"><text id="SvgjsText1563" font-family="微软雅黑" text-anchor="start" font-size="13px" width="210px" fill="#323232" font-weight="400" align="middle" lineHeight="125%" anchor="start" family="微软雅黑" size="13px" weight="400" font-style="" opacity="1" y="34.375" transform="rotate(0)"><tspan id="SvgjsTspan1564" dy="16.25" x="10"><tspan id="SvgjsTspan1565" style="">public void lock() {</tspan></tspan><tspan id="SvgjsTspan1566" dy="16.25" x="10"><tspan id="SvgjsTspan1567" style="">    sync.lock();</tspan></tspan><tspan id="SvgjsTspan1568" dy="16.25" x="10"><tspan id="SvgjsTspan1569" style="">}</tspan></tspan></text></g></g><g id="SvgjsG1570" transform="translate(30.000000000000227,180)"><path id="SvgjsPath1571" d="M 0 4Q 0 0 4 0L 226 0Q 230 0 230 4L 230 89Q 230 93 226 93L 4 93Q 0 93 0 89Z" stroke="rgba(33,41,48,1)" stroke-width="1.5" fill-opacity="1" fill="#ffffff"></path><path id="SvgjsPath1572" d="M 0 30L 230 30" stroke="rgba(33,41,48,1)" stroke-width="1.5" fill="none"></path><path id="SvgjsPath1573" d="M 0 0L 230 0L 230 93L 0 93Z" stroke="none" fill="none"></path><g id="SvgjsG1574"><text id="SvgjsText1575" font-family="微软雅黑" text-anchor="middle" font-size="13px" width="210px" fill="#323232" font-weight="700" align="middle" lineHeight="125%" anchor="middle" family="微软雅黑" size="13px" weight="700" font-style="" opacity="1" y="4.375" transform="rotate(0)"><tspan id="SvgjsTspan1576" dy="16.25" x="115"><tspan id="SvgjsTspan1577" style="">FairSync</tspan></tspan></text></g><g id="SvgjsG1578"><text id="SvgjsText1579" font-family="微软雅黑" text-anchor="start" font-size="13px" width="210px" fill="#323232" font-weight="400" align="middle" lineHeight="125%" anchor="start" family="微软雅黑" size="13px" weight="400" font-style="" opacity="1" y="34.375" transform="rotate(0)"><tspan id="SvgjsTspan1580" dy="16.25" x="10"><tspan id="SvgjsTspan1581" style="">final void lock() {</tspan></tspan><tspan id="SvgjsTspan1582" dy="16.25" x="10"><tspan id="SvgjsTspan1583" style="">    acquire(1);</tspan></tspan><tspan id="SvgjsTspan1584" dy="16.25" x="10"><tspan id="SvgjsTspan1585" style="">}</tspan></tspan></text></g></g><g id="SvgjsG1586" transform="translate(334.0000000000002,180)"><path id="SvgjsPath1587" d="M 0 4Q 0 0 4 0L 375 0Q 379 0 379 4L 379 141Q 379 145 375 145L 4 145Q 0 145 0 141Z" stroke="rgba(33,41,48,1)" stroke-width="1.5" fill-opacity="1" fill="#ffffff"></path><path id="SvgjsPath1588" d="M 0 30L 379 30" stroke="rgba(33,41,48,1)" stroke-width="1.5" fill="none"></path><path id="SvgjsPath1589" d="M 0 0L 379 0L 379 145L 0 145Z" stroke="none" fill="none"></path><g id="SvgjsG1590"><text id="SvgjsText1591" font-family="微软雅黑" text-anchor="middle" font-size="13px" width="359px" fill="#323232" font-weight="700" align="middle" lineHeight="125%" anchor="middle" family="微软雅黑" size="13px" weight="700" font-style="" opacity="1" y="4.375" transform="rotate(0)"><tspan id="SvgjsTspan1592" dy="16.25" x="189.5"><tspan id="SvgjsTspan1593" style="">NonfairSync</tspan></tspan></text></g><g id="SvgjsG1594"><text id="SvgjsText1595" font-family="微软雅黑" text-anchor="start" font-size="13px" width="359px" fill="#323232" font-weight="400" align="middle" lineHeight="125%" anchor="start" family="微软雅黑" size="13px" weight="400" font-style="" opacity="1" y="35.875" transform="rotate(0)"><tspan id="SvgjsTspan1596" dy="16.25" x="10"><tspan id="SvgjsTspan1597" style="">final void lock() {</tspan></tspan><tspan id="SvgjsTspan1598" dy="16.25" x="10"><tspan id="SvgjsTspan1599" style="">    if (compareAndSetState(0, 1))</tspan></tspan><tspan id="SvgjsTspan1600" dy="16.25" x="10"><tspan id="SvgjsTspan1601" style="">        setExclusiveOwnerThread(Thread.currentThread());</tspan></tspan><tspan id="SvgjsTspan1602" dy="16.25" x="10"><tspan id="SvgjsTspan1603" style="">    else</tspan></tspan><tspan id="SvgjsTspan1604" dy="16.25" x="10"><tspan id="SvgjsTspan1605" style="">        acquire(1);</tspan></tspan><tspan id="SvgjsTspan1606" dy="16.25" x="10"><tspan id="SvgjsTspan1607" style="">}</tspan></tspan></text></g></g><g id="SvgjsG1608"><path id="SvgjsPath1609" d="M203.25543963690336 71.59016576792239C 154.59838059334515 71.5 145.00000000000026 130.59838059334493 145.05534089421477 177.30056721042595" stroke="#323232" stroke-width="1.5" fill="none" marker-end="url(#SvgjsMarker1610)"></path></g><g id="SvgjsG1612"><path id="SvgjsPath1613" d="M434.7476133186385 71.55978566546104C 490.2601102025229 71.49999999999994 523.5000000000002 123.73988979747729 523.3641485027458 177.30341987497243" stroke="#323232" stroke-width="1.5" fill="none" marker-end="url(#SvgjsMarker1614)"></path></g><g id="SvgjsG1616" transform="matrix(-1.8369701987210297e-16,-1,1,-1.8369701987210297e-16,24.999999999999886,408.0000000000003)"><path id="SvgjsPath1617" d="M 79.00000000000011 0Q 71.10000000000011 0 71.10000000000011 9L 71.10000000000011 334.00000000000017Q 71.10000000000011 343.00000000000017 57.000000000000114 343.00000000000017Q 71.10000000000011 343.00000000000017 71.10000000000011 352.00000000000017L 71.10000000000011 677.0000000000003Q 71.10000000000011 686.0000000000003 79.00000000000011 686.0000000000003" stroke="rgba(33,41,48,1)" stroke-width="1.5" fill="none"></path><path id="SvgjsPath1618" d="M 0 0L 79.00000000000011 0L 79.00000000000011 686.0000000000003L 0 686.0000000000003Z" stroke="none" fill="none"></path><g id="SvgjsG1619"><text id="SvgjsText1620" font-family="微软雅黑" text-anchor="end" font-size="13px" width="53px" fill="#323232" font-weight="400" align="middle" lineHeight="125%" anchor="end" family="微软雅黑" size="13px" weight="400" font-style="" opacity="1" y="332.37500000000017" transform="rotate(0)"></text></g></g><g id="SvgjsG1621" transform="translate(235.00000000000017,344.6666666666667)"><path id="SvgjsPath1622" d="M 0 0L 266.33333333333337 0L 266.33333333333337 48L 0 48Z" stroke="none" fill="none"></path><g id="SvgjsG1623"><text id="SvgjsText1624" font-family="微软雅黑" text-anchor="middle" font-size="13px" width="267px" fill="#323232" font-weight="400" align="middle" lineHeight="125%" anchor="middle" family="微软雅黑" size="13px" weight="400" font-style="" opacity="1" y="4.875" transform="rotate(0)"><tspan id="SvgjsTspan1625" dy="16.25" x="133.5"><tspan id="SvgjsTspan1626" style="">在创建完公平锁/非公平锁后，调用 lock 方法</tspan></tspan><tspan id="SvgjsTspan1627" dy="16.25" x="133.5"><tspan id="SvgjsTspan1628" style="">会进行加锁，最终都会调用到 acquire 方法</tspan></tspan></text></g></g><g id="SvgjsG1629" transform="translate(181.91666666666697,446.6666666666667)"><path id="SvgjsPath1630" d="M 0 4Q 0 0 4 0L 368.4999999999998 0Q 372.4999999999998 0 372.4999999999998 4L 372.4999999999998 118Q 372.4999999999998 122 368.4999999999998 122L 4 122Q 0 122 0 118Z" stroke="rgba(33,41,48,1)" stroke-width="1.5" fill-opacity="1" fill="#ffffff"></path><path id="SvgjsPath1631" d="M 0 30L 372.4999999999998 30" stroke="rgba(33,41,48,1)" stroke-width="1.5" fill="none"></path><path id="SvgjsPath1632" d="M 0 0L 372.4999999999998 0L 372.4999999999998 122L 0 122Z" stroke="none" fill="none"></path><g id="SvgjsG1633"><text id="SvgjsText1634" font-family="微软雅黑" text-anchor="middle" font-size="13px" width="353px" fill="#323232" font-weight="700" align="middle" lineHeight="125%" anchor="middle" family="微软雅黑" size="13px" weight="700" font-style="" opacity="1" y="4.375" transform="rotate(0)"><tspan id="SvgjsTspan1635" dy="16.25" x="186.5"><tspan id="SvgjsTspan1636" style="">AbstractQueuedsynchronizer</tspan></tspan></text></g><g id="SvgjsG1637"><text id="SvgjsText1638" font-family="微软雅黑" text-anchor="start" font-size="13px" width="353px" fill="#323232" font-weight="400" align="middle" lineHeight="125%" anchor="start" family="微软雅黑" size="13px" weight="400" font-style="" opacity="1" y="32.875" transform="rotate(0)"><tspan id="SvgjsTspan1639" dy="16.25" x="10"><tspan id="SvgjsTspan1640" style="">public final void acquire(int arg) {</tspan></tspan><tspan id="SvgjsTspan1641" dy="16.25" x="10"><tspan id="SvgjsTspan1642" style="">    if (!tryAcquire(arg) &amp;&amp;</tspan></tspan><tspan id="SvgjsTspan1643" dy="16.25" x="10"><tspan id="SvgjsTspan1644" style="">        acquireQueued(addWaiter(Node.EXCLUSIVE), arg))</tspan></tspan><tspan id="SvgjsTspan1645" dy="16.25" x="10"><tspan id="SvgjsTspan1646" style="">        selfInterrupt();</tspan></tspan><tspan id="SvgjsTspan1647" dy="16.25" x="10"><tspan id="SvgjsTspan1648" style="">}</tspan></tspan></text></g></g><g id="SvgjsG1649"><path id="SvgjsPath1650" d="M368.16666666666686 393.4166666666667L368.16666666666686 443.9666666666667" stroke="#323232" stroke-width="1.5" fill="none" marker-end="url(#SvgjsMarker1651)"></path></g></svg>