<svg id="SvgjsSvg1006" width="1174.5416666666665" height="572.8614935335837" xmlns="http://www.w3.org/2000/svg" version="1.1" xmlns:xlink="http://www.w3.org/1999/xlink" xmlns:svgjs="http://svgjs.com/svgjs"><defs id="SvgjsDefs1007"><pattern patternUnits="userSpaceOnUse" id="pattern_mark_0" width="300" height="300"><text x="150" y="100" fill="rgba(229,229,229,0.8)" font-size="18" transform="rotate(-45, 150, 150)" style="dominant-baseline: middle; text-anchor: middle;"></text></pattern><pattern patternUnits="userSpaceOnUse" id="pattern_mark_1" width="300" height="300"><text x="150" y="200" fill="rgba(229,229,229,0.8)" font-size="18" transform="rotate(-45, 150, 150)" style="dominant-baseline: middle; text-anchor: middle;"></text></pattern><linearGradient id="SvgjsLinearGradient1021" x1="0.5" y1="0" x2="0.5" y2="1"><stop id="SvgjsStop1022" stop-opacity="1" stop-color="#bdd4c4" offset="0"></stop><stop id="SvgjsStop1023" stop-opacity="1" stop-color="#819888" offset="1"></stop></linearGradient><linearGradient id="SvgjsLinearGradient1030" x1="0.5" y1="0" x2="0.5" y2="1"><stop id="SvgjsStop1031" stop-opacity="1" stop-color="#bdd4c4" offset="0"></stop><stop id="SvgjsStop1032" stop-opacity="1" stop-color="#819888" offset="1"></stop></linearGradient><linearGradient id="SvgjsLinearGradient1045" x1="0.5" y1="0" x2="0.5" y2="1"><stop id="SvgjsStop1046" stop-opacity="1" stop-color="#bdd4c4" offset="0"></stop><stop id="SvgjsStop1047" stop-opacity="1" stop-color="#819888" offset="1"></stop></linearGradient><linearGradient id="SvgjsLinearGradient1054" x1="0.5" y1="0" x2="0.5" y2="1"><stop id="SvgjsStop1055" stop-opacity="1" stop-color="#bdd4c4" offset="0"></stop><stop id="SvgjsStop1056" stop-opacity="1" stop-color="#819888" offset="1"></stop></linearGradient><linearGradient id="SvgjsLinearGradient1063" x1="0.5" y1="0" x2="0.5" y2="1"><stop id="SvgjsStop1064" stop-opacity="1" stop-color="#bdd4c4" offset="0"></stop><stop id="SvgjsStop1065" stop-opacity="1" stop-color="#819888" offset="1"></stop></linearGradient><linearGradient id="SvgjsLinearGradient1078" x1="0.5" y1="0" x2="0.5" y2="1"><stop id="SvgjsStop1079" stop-opacity="1" stop-color="#bdd4c4" offset="0"></stop><stop id="SvgjsStop1080" stop-opacity="1" stop-color="#819888" offset="1"></stop></linearGradient><linearGradient id="SvgjsLinearGradient1087" x1="0.5" y1="0" x2="0.5" y2="1"><stop id="SvgjsStop1088" stop-opacity="1" stop-color="#bdd4c4" offset="0"></stop><stop id="SvgjsStop1089" stop-opacity="1" stop-color="#819888" offset="1"></stop></linearGradient><linearGradient id="SvgjsLinearGradient1096" x1="0.5" y1="0" x2="0.5" y2="1"><stop id="SvgjsStop1097" stop-opacity="1" stop-color="#bdd4c4" offset="0"></stop><stop id="SvgjsStop1098" stop-opacity="1" stop-color="#819888" offset="1"></stop></linearGradient><linearGradient id="SvgjsLinearGradient1105" x1="0.5" y1="0" x2="0.5" y2="1"><stop id="SvgjsStop1106" stop-opacity="1" stop-color="#bdd4c4" offset="0"></stop><stop id="SvgjsStop1107" stop-opacity="1" stop-color="#819888" offset="1"></stop></linearGradient><linearGradient id="SvgjsLinearGradient1114" x1="0.5" y1="0" x2="0.5" y2="1"><stop id="SvgjsStop1115" stop-opacity="1" stop-color="#bdd4c4" offset="0"></stop><stop id="SvgjsStop1116" stop-opacity="1" stop-color="#819888" offset="1"></stop></linearGradient><linearGradient id="SvgjsLinearGradient1123" x1="0.5" y1="0" x2="0.5" y2="1"><stop id="SvgjsStop1124" stop-opacity="1" stop-color="#bdd4c4" offset="0"></stop><stop id="SvgjsStop1125" stop-opacity="1" stop-color="#819888" offset="1"></stop></linearGradient><radialGradient id="SvgjsRadialGradient1138" r="0.95"><stop id="SvgjsStop1139" stop-opacity="1" stop-color="#d0d0d0" offset="0"></stop><stop id="SvgjsStop1140" stop-opacity="1" stop-color="#949494" offset="1"></stop></radialGradient><radialGradient id="SvgjsRadialGradient1147" r="0.95"><stop id="SvgjsStop1148" stop-opacity="1" stop-color="#d0d0d0" offset="0"></stop><stop id="SvgjsStop1149" stop-opacity="1" stop-color="#949494" offset="1"></stop></radialGradient><radialGradient id="SvgjsRadialGradient1156" r="0.95"><stop id="SvgjsStop1157" stop-opacity="1" stop-color="#d0d0d0" offset="0"></stop><stop id="SvgjsStop1158" stop-opacity="1" stop-color="#949494" offset="1"></stop></radialGradient><radialGradient id="SvgjsRadialGradient1165" r="0.95"><stop id="SvgjsStop1166" stop-opacity="1" stop-color="#d0d0d0" offset="0"></stop><stop id="SvgjsStop1167" stop-opacity="1" stop-color="#949494" offset="1"></stop></radialGradient><marker id="SvgjsMarker1174" markerWidth="13" markerHeight="9" refX="9.5" refY="4.5" viewBox="0 0 13 9" orient="auto" markerUnits="userSpaceOnUse" stroke-dasharray="0,0"><path id="SvgjsPath1175" d="M0,0 L13,4.5 L0,9 L0,0" fill="#323232" stroke="#323232" stroke-width="1"></path></marker><marker id="SvgjsMarker1178" markerWidth="13" markerHeight="9" refX="9.5" refY="4.5" viewBox="0 0 13 9" orient="auto" markerUnits="userSpaceOnUse" stroke-dasharray="0,0"><path id="SvgjsPath1179" d="M0,0 L13,4.5 L0,9 L0,0" fill="#323232" stroke="#323232" stroke-width="1"></path></marker><marker id="SvgjsMarker1182" markerWidth="13" markerHeight="9" refX="9.5" refY="4.5" viewBox="0 0 13 9" orient="auto" markerUnits="userSpaceOnUse" stroke-dasharray="0,0"><path id="SvgjsPath1183" d="M0,0 L13,4.5 L0,9 L0,0" fill="#323232" stroke="#323232" stroke-width="1"></path></marker><marker id="SvgjsMarker1186" markerWidth="13" markerHeight="9" refX="9.5" refY="4.5" viewBox="0 0 13 9" orient="auto" markerUnits="userSpaceOnUse" stroke-dasharray="0,0"><path id="SvgjsPath1187" d="M0,0 L13,4.5 L0,9 L0,0" fill="#323232" stroke="#323232" stroke-width="1"></path></marker><radialGradient id="SvgjsRadialGradient1190" r="0.95"><stop id="SvgjsStop1191" stop-opacity="1" stop-color="#d0d0d0" offset="0"></stop><stop id="SvgjsStop1192" stop-opacity="1" stop-color="#949494" offset="1"></stop></radialGradient><marker id="SvgjsMarker1199" markerWidth="13" markerHeight="9" refX="9.5" refY="4.5" viewBox="0 0 13 9" orient="auto" markerUnits="userSpaceOnUse" stroke-dasharray="0,0"><path id="SvgjsPath1200" d="M0,0 L13,4.5 L0,9 L0,0" fill="#323232" stroke="#323232" stroke-width="1"></path></marker><radialGradient id="SvgjsRadialGradient1203" r="0.95"><stop id="SvgjsStop1204" stop-opacity="1" stop-color="#d0d0d0" offset="0"></stop><stop id="SvgjsStop1205" stop-opacity="1" stop-color="#949494" offset="1"></stop></radialGradient><marker id="SvgjsMarker1212" markerWidth="13" markerHeight="9" refX="9.5" refY="4.5" viewBox="0 0 13 9" orient="auto" markerUnits="userSpaceOnUse" stroke-dasharray="0,0"><path id="SvgjsPath1213" d="M0,0 L13,4.5 L0,9 L0,0" fill="#323232" stroke="#323232" stroke-width="1"></path></marker><radialGradient id="SvgjsRadialGradient1216" r="0.95"><stop id="SvgjsStop1217" stop-opacity="1" stop-color="#d0d0d0" offset="0"></stop><stop id="SvgjsStop1218" stop-opacity="1" stop-color="#949494" offset="1"></stop></radialGradient><marker id="SvgjsMarker1225" markerWidth="13" markerHeight="9" refX="9.5" refY="4.5" viewBox="0 0 13 9" orient="auto" markerUnits="userSpaceOnUse" stroke-dasharray="0,0"><path id="SvgjsPath1226" d="M0,0 L13,4.5 L0,9 L0,0" fill="#323232" stroke="#323232" stroke-width="1"></path></marker><radialGradient id="SvgjsRadialGradient1229" r="0.95"><stop id="SvgjsStop1230" stop-opacity="1" stop-color="#d0d0d0" offset="0"></stop><stop id="SvgjsStop1231" stop-opacity="1" stop-color="#949494" offset="1"></stop></radialGradient><marker id="SvgjsMarker1238" markerWidth="13" markerHeight="9" refX="9.5" refY="4.5" viewBox="0 0 13 9" orient="auto" markerUnits="userSpaceOnUse" stroke-dasharray="0,0"><path id="SvgjsPath1239" d="M0,0 L13,4.5 L0,9 L0,0" fill="#323232" stroke="#323232" stroke-width="1"></path></marker><radialGradient id="SvgjsRadialGradient1242" r="0.95"><stop id="SvgjsStop1243" stop-opacity="1" stop-color="#d0d0d0" offset="0"></stop><stop id="SvgjsStop1244" stop-opacity="1" stop-color="#949494" offset="1"></stop></radialGradient><marker id="SvgjsMarker1251" markerWidth="13" markerHeight="9" refX="9.5" refY="4.5" viewBox="0 0 13 9" orient="auto" markerUnits="userSpaceOnUse" stroke-dasharray="0,0"><path id="SvgjsPath1252" d="M0,0 L13,4.5 L0,9 L0,0" fill="#323232" stroke="#323232" stroke-width="1"></path></marker><radialGradient id="SvgjsRadialGradient1255" r="0.95"><stop id="SvgjsStop1256" stop-opacity="1" stop-color="#d0d0d0" offset="0"></stop><stop id="SvgjsStop1257" stop-opacity="1" stop-color="#949494" offset="1"></stop></radialGradient><marker id="SvgjsMarker1264" markerWidth="13" markerHeight="9" refX="9.5" refY="4.5" viewBox="0 0 13 9" orient="auto" markerUnits="userSpaceOnUse" stroke-dasharray="0,0"><path id="SvgjsPath1265" d="M0,0 L13,4.5 L0,9 L0,0" fill="#323232" stroke="#323232" stroke-width="1"></path></marker><radialGradient id="SvgjsRadialGradient1268" r="0.95"><stop id="SvgjsStop1269" stop-opacity="1" stop-color="#d0d0d0" offset="0"></stop><stop id="SvgjsStop1270" stop-opacity="1" stop-color="#949494" offset="1"></stop></radialGradient><marker id="SvgjsMarker1277" markerWidth="13" markerHeight="9" refX="9.5" refY="4.5" viewBox="0 0 13 9" orient="auto" markerUnits="userSpaceOnUse" stroke-dasharray="0,0"><path id="SvgjsPath1278" d="M0,0 L13,4.5 L0,9 L0,0" fill="#323232" stroke="#323232" stroke-width="1"></path></marker><radialGradient id="SvgjsRadialGradient1281" r="0.95"><stop id="SvgjsStop1282" stop-opacity="1" stop-color="#d0d0d0" offset="0"></stop><stop id="SvgjsStop1283" stop-opacity="1" stop-color="#949494" offset="1"></stop></radialGradient><linearGradient id="SvgjsLinearGradient1294" x1="0.5" y1="0" x2="0.5" y2="1"><stop id="SvgjsStop1295" stop-opacity="1" stop-color="#bdd4c4" offset="0"></stop><stop id="SvgjsStop1296" stop-opacity="1" stop-color="#819888" offset="1"></stop></linearGradient><linearGradient id="SvgjsLinearGradient1303" x1="0.5" y1="0" x2="0.5" y2="1"><stop id="SvgjsStop1304" stop-opacity="1" stop-color="#bdd4c4" offset="0"></stop><stop id="SvgjsStop1305" stop-opacity="1" stop-color="#819888" offset="1"></stop></linearGradient><linearGradient id="SvgjsLinearGradient1318" x1="0.5" y1="0" x2="0.5" y2="1"><stop id="SvgjsStop1319" stop-opacity="1" stop-color="#bdd4c4" offset="0"></stop><stop id="SvgjsStop1320" stop-opacity="1" stop-color="#819888" offset="1"></stop></linearGradient><linearGradient id="SvgjsLinearGradient1327" x1="0.5" y1="0" x2="0.5" y2="1"><stop id="SvgjsStop1328" stop-opacity="1" stop-color="#bdd4c4" offset="0"></stop><stop id="SvgjsStop1329" stop-opacity="1" stop-color="#819888" offset="1"></stop></linearGradient></defs><rect id="svgbackgroundid" width="1174.5416666666665" height="572.8614935335837" fill="transparent"></rect><rect id="SvgjsRect1009" width="1174.5416666666665" height="572.8614935335837" fill="url(#pattern_mark_0)"></rect><rect id="SvgjsRect1010" width="1174.5416666666665" height="572.8614935335837" fill="url(#pattern_mark_1)"></rect><g id="SvgjsG1011" transform="translate(683.6363636363635,25)"><path id="SvgjsPath1012" d="M 0 0L 462.87878787878776 0L 462.87878787878776 143.80926916221034L 0 143.80926916221034Z" stroke="rgba(33,41,48,1)" stroke-width="3" fill-opacity="1" fill="#ffffff"></path><g id="SvgjsG1013"><text id="SvgjsText1014" font-family="&quot;Microsoft YaHei&quot;, 微软雅黑, Arial" text-anchor="middle" font-size="13px" width="443px" fill="#323232" font-weight="400" align="middle" lineHeight="125%" anchor="middle" family="&quot;Microsoft YaHei&quot;, 微软雅黑, Arial" size="13px" weight="400" font-style="" opacity="1" y="61.27963458110517" transform="rotate(0)"></text></g></g><g id="SvgjsG1015" transform="translate(25.000000000000085,417.4100596760443)"><path id="SvgjsPath1016" d="M 0 0L 1112 0L 1112 35.434782608695684L 0 35.434782608695684Z" stroke="rgba(33,41,48,1)" stroke-width="1.5" fill-opacity="1" fill="#ffffff"></path><g id="SvgjsG1017"><text id="SvgjsText1018" font-family="&quot;Microsoft YaHei&quot;, 微软雅黑, Arial" text-anchor="middle" font-size="13px" width="1092px" fill="#323232" font-weight="400" align="middle" lineHeight="125%" anchor="middle" family="&quot;Microsoft YaHei&quot;, 微软雅黑, Arial" size="13px" weight="400" font-style="" opacity="1" y="7.092391304347842" transform="rotate(0)"></text></g></g><g id="SvgjsG1019" transform="translate(25,417.62745098039215)"><path id="SvgjsPath1020" d="M 0 4Q 0 0 4 0L 136 0Q 140 0 140 4L 140 31Q 140 35 136 35L 4 35Q 0 35 0 31Z" stroke="rgba(33,41,48,1)" stroke-width="1.5" fill="url(#SvgjsLinearGradient1021)"></path><g id="SvgjsG1024"><text id="SvgjsText1025" font-family="&quot;Microsoft YaHei&quot;, 微软雅黑, Arial" text-anchor="middle" font-size="13px" width="120px" fill="#323232" font-weight="400" align="middle" lineHeight="125%" anchor="middle" family="&quot;Microsoft YaHei&quot;, 微软雅黑, Arial" size="13px" weight="400" font-style="" opacity="1" y="6.875" transform="rotate(0)"><tspan id="SvgjsTspan1026" dy="16.25" x="70"><tspan id="SvgjsTspan1027" style="">[GC [PSYoungGen:</tspan></tspan></text></g></g><g id="SvgjsG1028" transform="translate(166,417.62745098039215)"><path id="SvgjsPath1029" d="M 0 4Q 0 0 4 0L 71 0Q 75 0 75 4L 75 31Q 75 35 71 35L 4 35Q 0 35 0 31Z" stroke="rgba(33,41,48,1)" stroke-width="1.5" fill="url(#SvgjsLinearGradient1030)"></path><g id="SvgjsG1033"><text id="SvgjsText1034" font-family="&quot;Microsoft YaHei&quot;, 微软雅黑, Arial" text-anchor="middle" font-size="13px" width="55px" fill="#323232" font-weight="400" align="middle" lineHeight="125%" anchor="middle" family="&quot;Microsoft YaHei&quot;, 微软雅黑, Arial" size="13px" weight="400" font-style="" opacity="1" y="6.875" transform="rotate(0)"><tspan id="SvgjsTspan1035" dy="16.25" x="37.5"><tspan id="SvgjsTspan1036" style="">334480K</tspan></tspan></text></g></g><g id="SvgjsG1037" transform="translate(242,417.62745098039215)"><path id="SvgjsPath1038" d="M 0 4Q 0 0 4 0L 31 0Q 35 0 35 4L 35 31Q 35 35 31 35L 4 35Q 0 35 0 31Z" stroke="rgba(33,41,48,1)" stroke-width="1.5" fill-opacity="1" fill="#ffffff"></path><g id="SvgjsG1039"><text id="SvgjsText1040" font-family="&quot;Microsoft YaHei&quot;, 微软雅黑, Arial" text-anchor="middle" font-size="13px" width="15px" fill="#323232" font-weight="400" align="middle" lineHeight="125%" anchor="middle" family="&quot;Microsoft YaHei&quot;, 微软雅黑, Arial" size="13px" weight="400" font-style="" opacity="1" y="6.875" transform="rotate(0)"><tspan id="SvgjsTspan1041" dy="16.25" x="17.5"><tspan id="SvgjsTspan1042" style="">-&gt;</tspan></tspan></text></g></g><g id="SvgjsG1043" transform="translate(278,417.62745098039215)"><path id="SvgjsPath1044" d="M 0 4Q 0 0 4 0L 56 0Q 60 0 60 4L 60 31Q 60 35 56 35L 4 35Q 0 35 0 31Z" stroke="rgba(33,41,48,1)" stroke-width="1.5" fill="url(#SvgjsLinearGradient1045)"></path><g id="SvgjsG1048"><text id="SvgjsText1049" font-family="&quot;Microsoft YaHei&quot;, 微软雅黑, Arial" text-anchor="middle" font-size="13px" width="40px" fill="#323232" font-weight="400" align="middle" lineHeight="125%" anchor="middle" family="&quot;Microsoft YaHei&quot;, 微软雅黑, Arial" size="13px" weight="400" font-style="" opacity="1" y="6.875" transform="rotate(0)"><tspan id="SvgjsTspan1050" dy="16.25" x="30"><tspan id="SvgjsTspan1051" style="">4736K</tspan></tspan></text></g></g><g id="SvgjsG1052" transform="translate(339,417.62745098039215)"><path id="SvgjsPath1053" d="M 0 4Q 0 0 4 0L 81 0Q 85 0 85 4L 85 31Q 85 35 81 35L 4 35Q 0 35 0 31Z" stroke="rgba(33,41,48,1)" stroke-width="1.5" fill="url(#SvgjsLinearGradient1054)"></path><g id="SvgjsG1057"><text id="SvgjsText1058" font-family="&quot;Microsoft YaHei&quot;, 微软雅黑, Arial" text-anchor="middle" font-size="13px" width="65px" fill="#323232" font-weight="400" align="middle" lineHeight="125%" anchor="middle" family="&quot;Microsoft YaHei&quot;, 微软雅黑, Arial" size="13px" weight="400" font-style="" opacity="1" y="6.875" transform="rotate(0)"><tspan id="SvgjsTspan1059" dy="16.25" x="42.5"><tspan id="SvgjsTspan1060" style="">(334848K)]</tspan></tspan></text></g></g><g id="SvgjsG1061" transform="translate(425,417.62745098039215)"><path id="SvgjsPath1062" d="M 0 4Q 0 0 4 0L 71 0Q 75 0 75 4L 75 31Q 75 35 71 35L 4 35Q 0 35 0 31Z" stroke="rgba(33,41,48,1)" stroke-width="1.5" fill="url(#SvgjsLinearGradient1063)"></path><g id="SvgjsG1066"><text id="SvgjsText1067" font-family="&quot;Microsoft YaHei&quot;, 微软雅黑, Arial" text-anchor="middle" font-size="13px" width="55px" fill="#323232" font-weight="400" align="middle" lineHeight="125%" anchor="middle" family="&quot;Microsoft YaHei&quot;, 微软雅黑, Arial" size="13px" weight="400" font-style="" opacity="1" y="6.875" transform="rotate(0)"><tspan id="SvgjsTspan1068" dy="16.25" x="37.5"><tspan id="SvgjsTspan1069" style="">597914K</tspan></tspan></text></g></g><g id="SvgjsG1070" transform="translate(501,417.62745098039215)"><path id="SvgjsPath1071" d="M 0 4Q 0 0 4 0L 31 0Q 35 0 35 4L 35 31Q 35 35 31 35L 4 35Q 0 35 0 31Z" stroke="rgba(33,41,48,1)" stroke-width="1.5" fill-opacity="1" fill="#ffffff"></path><g id="SvgjsG1072"><text id="SvgjsText1073" font-family="&quot;Microsoft YaHei&quot;, 微软雅黑, Arial" text-anchor="middle" font-size="13px" width="15px" fill="#323232" font-weight="400" align="middle" lineHeight="125%" anchor="middle" family="&quot;Microsoft YaHei&quot;, 微软雅黑, Arial" size="13px" weight="400" font-style="" opacity="1" y="6.875" transform="rotate(0)"><tspan id="SvgjsTspan1074" dy="16.25" x="17.5"><tspan id="SvgjsTspan1075" style="">-&gt;</tspan></tspan></text></g></g><g id="SvgjsG1076" transform="translate(537,417.62745098039215)"><path id="SvgjsPath1077" d="M 0 4Q 0 0 4 0L 71 0Q 75 0 75 4L 75 31Q 75 35 71 35L 4 35Q 0 35 0 31Z" stroke="rgba(33,41,48,1)" stroke-width="1.5" fill="url(#SvgjsLinearGradient1078)"></path><g id="SvgjsG1081"><text id="SvgjsText1082" font-family="&quot;Microsoft YaHei&quot;, 微软雅黑, Arial" text-anchor="middle" font-size="13px" width="55px" fill="#323232" font-weight="400" align="middle" lineHeight="125%" anchor="middle" family="&quot;Microsoft YaHei&quot;, 微软雅黑, Arial" size="13px" weight="400" font-style="" opacity="1" y="6.875" transform="rotate(0)"><tspan id="SvgjsTspan1083" dy="16.25" x="37.5"><tspan id="SvgjsTspan1084" style="">270331K</tspan></tspan></text></g></g><g id="SvgjsG1085" transform="translate(613,417.62745098039215)"><path id="SvgjsPath1086" d="M 0 4Q 0 0 4 0L 86 0Q 90 0 90 4L 90 31Q 90 35 86 35L 4 35Q 0 35 0 31Z" stroke="rgba(33,41,48,1)" stroke-width="1.5" fill="url(#SvgjsLinearGradient1087)"></path><g id="SvgjsG1090"><text id="SvgjsText1091" font-family="&quot;Microsoft YaHei&quot;, 微软雅黑, Arial" text-anchor="middle" font-size="13px" width="70px" fill="#323232" font-weight="400" align="middle" lineHeight="125%" anchor="middle" family="&quot;Microsoft YaHei&quot;, 微软雅黑, Arial" size="13px" weight="400" font-style="" opacity="1" y="6.875" transform="rotate(0)"><tspan id="SvgjsTspan1092" dy="16.25" x="45"><tspan id="SvgjsTspan1093" style="">(1017536K)</tspan></tspan></text></g></g><g id="SvgjsG1094" transform="translate(704,417.62745098039215)"><path id="SvgjsPath1095" d="M 0 4Q 0 0 4 0L 116 0Q 120 0 120 4L 120 31Q 120 35 116 35L 4 35Q 0 35 0 31Z" stroke="rgba(33,41,48,1)" stroke-width="1.5" fill="url(#SvgjsLinearGradient1096)"></path><g id="SvgjsG1099"><text id="SvgjsText1100" font-family="&quot;Microsoft YaHei&quot;, 微软雅黑, Arial" text-anchor="middle" font-size="13px" width="100px" fill="#323232" font-weight="400" align="middle" lineHeight="125%" anchor="middle" family="&quot;Microsoft YaHei&quot;, 微软雅黑, Arial" size="13px" weight="400" font-style="" opacity="1" y="6.875" transform="rotate(0)"><tspan id="SvgjsTspan1101" dy="16.25" x="60"><tspan id="SvgjsTspan1102" style="">,0.0209890 secs]</tspan></tspan></text></g></g><g id="SvgjsG1103" transform="translate(825,417.62745098039215)"><path id="SvgjsPath1104" d="M 0 4Q 0 0 4 0L 121 0Q 125 0 125 4L 125 31Q 125 35 121 35L 4 35Q 0 35 0 31Z" stroke="rgba(33,41,48,1)" stroke-width="1.5" fill="url(#SvgjsLinearGradient1105)"></path><g id="SvgjsG1108"><text id="SvgjsText1109" font-family="&quot;Microsoft YaHei&quot;, 微软雅黑, Arial" text-anchor="middle" font-size="13px" width="105px" fill="#323232" font-weight="400" align="middle" lineHeight="125%" anchor="middle" family="&quot;Microsoft YaHei&quot;, 微软雅黑, Arial" size="13px" weight="400" font-style="" opacity="1" y="6.875" transform="rotate(0)"><tspan id="SvgjsTspan1110" dy="16.25" x="62.5"><tspan id="SvgjsTspan1111" style="">[Times: user=0.03</tspan></tspan></text></g></g><g id="SvgjsG1112" transform="translate(951,417.62745098039215)"><path id="SvgjsPath1113" d="M 0 4Q 0 0 4 0L 71 0Q 75 0 75 4L 75 31Q 75 35 71 35L 4 35Q 0 35 0 31Z" stroke="rgba(33,41,48,1)" stroke-width="1.5" fill="url(#SvgjsLinearGradient1114)"></path><g id="SvgjsG1117"><text id="SvgjsText1118" font-family="&quot;Microsoft YaHei&quot;, 微软雅黑, Arial" text-anchor="middle" font-size="13px" width="55px" fill="#323232" font-weight="400" align="middle" lineHeight="125%" anchor="middle" family="&quot;Microsoft YaHei&quot;, 微软雅黑, Arial" size="13px" weight="400" font-style="" opacity="1" y="6.875" transform="rotate(0)"><tspan id="SvgjsTspan1119" dy="16.25" x="37.5"><tspan id="SvgjsTspan1120" style="">sys=0.00</tspan></tspan></text></g></g><g id="SvgjsG1121" transform="translate(1027,417.62745098039215)"><path id="SvgjsPath1122" d="M 0 4Q 0 0 4 0L 106 0Q 110 0 110 4L 110 31Q 110 35 106 35L 4 35Q 0 35 0 31Z" stroke="rgba(33,41,48,1)" stroke-width="1.5" fill="url(#SvgjsLinearGradient1123)"></path><g id="SvgjsG1126"><text id="SvgjsText1127" font-family="&quot;Microsoft YaHei&quot;, 微软雅黑, Arial" text-anchor="middle" font-size="13px" width="90px" fill="#323232" font-weight="400" align="middle" lineHeight="125%" anchor="middle" family="&quot;Microsoft YaHei&quot;, 微软雅黑, Arial" size="13px" weight="400" font-style="" opacity="1" y="6.875" transform="rotate(0)"><tspan id="SvgjsTspan1128" dy="16.25" x="55"><tspan id="SvgjsTspan1129" style="">real=0.02 secs]</tspan></tspan></text></g></g><g id="SvgjsG1130" transform="translate(25,512.426710924888)"><path id="SvgjsPath1131" d="M 0 0L 895.9583333333333 0L 895.9583333333333 35.434782608695684L 0 35.434782608695684Z" stroke="rgba(33,41,48,1)" stroke-width="1.5" fill-opacity="1" fill="#ffffff"></path><g id="SvgjsG1132"><text id="SvgjsText1133" font-family="&quot;Microsoft YaHei&quot;, 微软雅黑, Arial" text-anchor="middle" font-size="13px" width="876px" fill="#323232" font-weight="400" align="middle" lineHeight="125%" anchor="middle" family="&quot;Microsoft YaHei&quot;, 微软雅黑, Arial" size="13px" weight="400" font-style="" opacity="1" y="7.092391304347842" transform="rotate(0)"><tspan id="SvgjsTspan1134" dy="16.25" x="448"><tspan id="SvgjsTspan1135" style="">[GC [PSYoungGen: 334480K-&gt;4736K(334848K)] 597914K-&gt;270331K(1017536K), 0.0209890 secs] [Times: user=0.03 sys=0.00 real=0.02 secs]</tspan></tspan></text></g></g><g id="SvgjsG1136" transform="translate(60.10784313725492,332.6470588235294)"><path id="SvgjsPath1137" d="M 0 0L 69.7843137254902 0L 69.7843137254902 34.84313725490196L 0 34.84313725490196Z" stroke="rgba(33,41,48,1)" stroke-width="1.5" fill="url(#SvgjsRadialGradient1138)"></path><g id="SvgjsG1141"><text id="SvgjsText1142" font-family="&quot;Microsoft YaHei&quot;, 微软雅黑, Arial" text-anchor="middle" font-size="13px" width="50px" fill="#323232" font-weight="400" align="middle" lineHeight="125%" anchor="middle" family="&quot;Microsoft YaHei&quot;, 微软雅黑, Arial" size="13px" weight="400" font-style="" opacity="1" y="6.796568627450981" transform="rotate(0)"><tspan id="SvgjsTspan1143" dy="16.25" x="35"><tspan id="SvgjsTspan1144" style="">GC 类型</tspan></tspan></text></g></g><g id="SvgjsG1145" transform="translate(113.35294117647064,275.1960784313725)"><path id="SvgjsPath1146" d="M 0 0L 180.29411764705875 0L 180.29411764705875 34.84313725490196L 0 34.84313725490196Z" stroke="rgba(33,41,48,1)" stroke-width="1.5" fill="url(#SvgjsRadialGradient1147)"></path><g id="SvgjsG1150"><text id="SvgjsText1151" font-family="&quot;Microsoft YaHei&quot;, 微软雅黑, Arial" text-anchor="middle" font-size="13px" width="161px" fill="#323232" font-weight="400" align="middle" lineHeight="125%" anchor="middle" family="&quot;Microsoft YaHei&quot;, 微软雅黑, Arial" size="13px" weight="400" font-style="" opacity="1" y="6.796568627450981" transform="rotate(0)"><tspan id="SvgjsTspan1152" dy="16.25" x="90.5"><tspan id="SvgjsTspan1153" style="">YoungGC前新生代内存占用</tspan></tspan></text></g></g><g id="SvgjsG1154" transform="translate(217.8529411764706,208.92156862745094)"><path id="SvgjsPath1155" d="M 0 0L 180.29411764705875 0L 180.29411764705875 34.84313725490196L 0 34.84313725490196Z" stroke="rgba(33,41,48,1)" stroke-width="1.5" fill="url(#SvgjsRadialGradient1156)"></path><g id="SvgjsG1159"><text id="SvgjsText1160" font-family="&quot;Microsoft YaHei&quot;, 微软雅黑, Arial" text-anchor="middle" font-size="13px" width="161px" fill="#323232" font-weight="400" align="middle" lineHeight="125%" anchor="middle" family="&quot;Microsoft YaHei&quot;, 微软雅黑, Arial" size="13px" weight="400" font-style="" opacity="1" y="6.796568627450981" transform="rotate(0)"><tspan id="SvgjsTspan1161" dy="16.25" x="90.5"><tspan id="SvgjsTspan1162" style="">YoungGC后新生代内存占用</tspan></tspan></text></g></g><g id="SvgjsG1163" transform="translate(324.0196078431373,332.6470588235294)"><path id="SvgjsPath1164" d="M 0 0L 114.96078431372541 0L 114.96078431372541 34.84313725490196L 0 34.84313725490196Z" stroke="rgba(33,41,48,1)" stroke-width="1.5" fill="url(#SvgjsRadialGradient1165)"></path><g id="SvgjsG1168"><text id="SvgjsText1169" font-family="&quot;Microsoft YaHei&quot;, 微软雅黑, Arial" text-anchor="middle" font-size="13px" width="95px" fill="#323232" font-weight="400" align="middle" lineHeight="125%" anchor="middle" family="&quot;Microsoft YaHei&quot;, 微软雅黑, Arial" size="13px" weight="400" font-style="" opacity="1" y="6.796568627450981" transform="rotate(0)"><tspan id="SvgjsTspan1170" dy="16.25" x="57.5"><tspan id="SvgjsTspan1171" style="">新生代总共大小</tspan></tspan></text></g></g><g id="SvgjsG1172"><path id="SvgjsPath1173" d="M308 244.51470588235293L308 330.69607843137254L308 330.69607843137254L308 414.92745098039217" stroke="#323232" stroke-width="1.5" fill="none" marker-end="url(#SvgjsMarker1174)"></path></g><g id="SvgjsG1176"><path id="SvgjsPath1177" d="M95 368.2401960784314L95 392.55882352941177L95 392.55882352941177L95 414.92745098039217" stroke="#323232" stroke-width="1.5" fill="none" marker-end="url(#SvgjsMarker1178)"></path></g><g id="SvgjsG1180"><path id="SvgjsPath1181" d="M203.5 310.7892156862745L203.5 363.8333333333333L203.5 363.8333333333333L203.5 414.92745098039217" stroke="#323232" stroke-width="1.5" fill="none" marker-end="url(#SvgjsMarker1182)"></path></g><g id="SvgjsG1184"><path id="SvgjsPath1185" d="M381.5 368.2401960784314L381.5 392.55882352941177L381.5 392.55882352941177L381.5 414.92745098039217" stroke="#323232" stroke-width="1.5" fill="none" marker-end="url(#SvgjsMarker1186)"></path></g><g id="SvgjsG1188" transform="translate(372.3529411764706,275.1960784313725)"><path id="SvgjsPath1189" d="M 0 0L 180.29411764705875 0L 180.29411764705875 34.84313725490196L 0 34.84313725490196Z" stroke="rgba(33,41,48,1)" stroke-width="1.5" fill="url(#SvgjsRadialGradient1190)"></path><g id="SvgjsG1193"><text id="SvgjsText1194" font-family="&quot;Microsoft YaHei&quot;, 微软雅黑, Arial" text-anchor="middle" font-size="13px" width="161px" fill="#323232" font-weight="400" align="middle" lineHeight="125%" anchor="middle" family="&quot;Microsoft YaHei&quot;, 微软雅黑, Arial" size="13px" weight="400" font-style="" opacity="1" y="6.796568627450981" transform="rotate(0)"><tspan id="SvgjsTspan1195" dy="16.25" x="90.5"><tspan id="SvgjsTspan1196" style="">YoungGC前JVM堆内存占用</tspan></tspan></text></g></g><g id="SvgjsG1197"><path id="SvgjsPath1198" d="M462.5 310.7892156862745L462.5 363.8333333333333L462.5 363.8333333333333L462.5 414.92745098039217" stroke="#323232" stroke-width="1.5" fill="none" marker-end="url(#SvgjsMarker1199)"></path></g><g id="SvgjsG1201" transform="translate(484.3529411764706,208.92156862745094)"><path id="SvgjsPath1202" d="M 0 0L 180.29411764705875 0L 180.29411764705875 34.84313725490196L 0 34.84313725490196Z" stroke="rgba(33,41,48,1)" stroke-width="1.5" fill="url(#SvgjsRadialGradient1203)"></path><g id="SvgjsG1206"><text id="SvgjsText1207" font-family="&quot;Microsoft YaHei&quot;, 微软雅黑, Arial" text-anchor="middle" font-size="13px" width="161px" fill="#323232" font-weight="400" align="middle" lineHeight="125%" anchor="middle" family="&quot;Microsoft YaHei&quot;, 微软雅黑, Arial" size="13px" weight="400" font-style="" opacity="1" y="6.796568627450981" transform="rotate(0)"><tspan id="SvgjsTspan1208" dy="16.25" x="90.5"><tspan id="SvgjsTspan1209" style="">YoungGC后JVM堆内存占用</tspan></tspan></text></g></g><g id="SvgjsG1210"><path id="SvgjsPath1211" d="M574.5 244.51470588235293L574.5 330.69607843137254L574.5 330.69607843137254L574.5 414.92745098039217" stroke="#323232" stroke-width="1.5" fill="none" marker-end="url(#SvgjsMarker1212)"></path></g><g id="SvgjsG1214" transform="translate(600.5196078431372,332.6470588235294)"><path id="SvgjsPath1215" d="M 0 0L 114.96078431372541 0L 114.96078431372541 34.84313725490196L 0 34.84313725490196Z" stroke="rgba(33,41,48,1)" stroke-width="1.5" fill="url(#SvgjsRadialGradient1216)"></path><g id="SvgjsG1219"><text id="SvgjsText1220" font-family="&quot;Microsoft YaHei&quot;, 微软雅黑, Arial" text-anchor="middle" font-size="13px" width="95px" fill="#323232" font-weight="400" align="middle" lineHeight="125%" anchor="middle" family="&quot;Microsoft YaHei&quot;, 微软雅黑, Arial" size="13px" weight="400" font-style="" opacity="1" y="6.796568627450981" transform="rotate(0)"><tspan id="SvgjsTspan1221" dy="16.25" x="57.5"><tspan id="SvgjsTspan1222" style="">JVM堆总大小</tspan></tspan></text></g></g><g id="SvgjsG1223"><path id="SvgjsPath1224" d="M658 368.2401960784314L658 392.55882352941177L658 392.55882352941177L658 414.92745098039217" stroke="#323232" stroke-width="1.5" fill="none" marker-end="url(#SvgjsMarker1225)"></path></g><g id="SvgjsG1227" transform="translate(709.6936274509803,275.1960784313725)"><path id="SvgjsPath1228" d="M 0 0L 110.26470588235293 0L 110.26470588235293 34.84313725490196L 0 34.84313725490196Z" stroke="rgba(33,41,48,1)" stroke-width="1.5" fill="url(#SvgjsRadialGradient1229)"></path><g id="SvgjsG1232"><text id="SvgjsText1233" font-family="&quot;Microsoft YaHei&quot;, 微软雅黑, Arial" text-anchor="middle" font-size="13px" width="91px" fill="#323232" font-weight="400" align="middle" lineHeight="125%" anchor="middle" family="&quot;Microsoft YaHei&quot;, 微软雅黑, Arial" size="13px" weight="400" font-style="" opacity="1" y="6.796568627450981" transform="rotate(0)"><tspan id="SvgjsTspan1234" dy="16.25" x="55.5"><tspan id="SvgjsTspan1235" style="">YoungGC 耗时</tspan></tspan></text></g></g><g id="SvgjsG1236"><path id="SvgjsPath1237" d="M764.8259803921568 310.7892156862745L764.8259803921568 363.8333333333333L764 363.8333333333333L764 414.92745098039217" stroke="#323232" stroke-width="1.5" fill="none" marker-end="url(#SvgjsMarker1238)"></path></g><g id="SvgjsG1240" transform="translate(819.9583333333334,332.6470588235294)"><path id="SvgjsPath1241" d="M 0 0L 135.08333333333337 0L 135.08333333333337 34.84313725490196L 0 34.84313725490196Z" stroke="rgba(33,41,48,1)" stroke-width="1.5" fill="url(#SvgjsRadialGradient1242)"></path><g id="SvgjsG1245"><text id="SvgjsText1246" font-family="&quot;Microsoft YaHei&quot;, 微软雅黑, Arial" text-anchor="middle" font-size="13px" width="116px" fill="#323232" font-weight="400" align="middle" lineHeight="125%" anchor="middle" family="&quot;Microsoft YaHei&quot;, 微软雅黑, Arial" size="13px" weight="400" font-style="" opacity="1" y="6.796568627450981" transform="rotate(0)"><tspan id="SvgjsTspan1247" dy="16.25" x="68"><tspan id="SvgjsTspan1248" style="">YoungGC 用户耗时</tspan></tspan></text></g></g><g id="SvgjsG1249"><path id="SvgjsPath1250" d="M887.5 368.2401960784314L887.5 392.55882352941177L887.5 392.55882352941177L887.5 414.92745098039217" stroke="#323232" stroke-width="1.5" fill="none" marker-end="url(#SvgjsMarker1251)"></path></g><g id="SvgjsG1253" transform="translate(920.9583333333333,275.1960784313725)"><path id="SvgjsPath1254" d="M 0 0L 135.08333333333337 0L 135.08333333333337 34.84313725490196L 0 34.84313725490196Z" stroke="rgba(33,41,48,1)" stroke-width="1.5" fill="url(#SvgjsRadialGradient1255)"></path><g id="SvgjsG1258"><text id="SvgjsText1259" font-family="&quot;Microsoft YaHei&quot;, 微软雅黑, Arial" text-anchor="middle" font-size="13px" width="116px" fill="#323232" font-weight="400" align="middle" lineHeight="125%" anchor="middle" family="&quot;Microsoft YaHei&quot;, 微软雅黑, Arial" size="13px" weight="400" font-style="" opacity="1" y="6.796568627450981" transform="rotate(0)"><tspan id="SvgjsTspan1260" dy="16.25" x="68"><tspan id="SvgjsTspan1261" style="">YoungGC 系统耗时</tspan></tspan></text></g></g><g id="SvgjsG1262"><path id="SvgjsPath1263" d="M988.5 310.7892156862745L988.5 363.8333333333333L988.5 363.8333333333333L988.5 414.92745098039217" stroke="#323232" stroke-width="1.5" fill="none" marker-end="url(#SvgjsMarker1264)"></path></g><g id="SvgjsG1266" transform="translate(1014.4583333333333,332.6470588235294)"><path id="SvgjsPath1267" d="M 0 0L 135.08333333333337 0L 135.08333333333337 34.84313725490196L 0 34.84313725490196Z" stroke="rgba(33,41,48,1)" stroke-width="1.5" fill="url(#SvgjsRadialGradient1268)"></path><g id="SvgjsG1271"><text id="SvgjsText1272" font-family="&quot;Microsoft YaHei&quot;, 微软雅黑, Arial" text-anchor="middle" font-size="13px" width="116px" fill="#323232" font-weight="400" align="middle" lineHeight="125%" anchor="middle" family="&quot;Microsoft YaHei&quot;, 微软雅黑, Arial" size="13px" weight="400" font-style="" opacity="1" y="6.796568627450981" transform="rotate(0)"><tspan id="SvgjsTspan1273" dy="16.25" x="68"><tspan id="SvgjsTspan1274" style="">YoungGC 实际耗时</tspan></tspan></text></g></g><g id="SvgjsG1275"><path id="SvgjsPath1276" d="M1082 368.2401960784314L1082 392.55882352941177L1082 392.55882352941177L1082 414.92745098039217" stroke="#323232" stroke-width="1.5" fill="none" marker-end="url(#SvgjsMarker1277)"></path></g><g id="SvgjsG1279" transform="translate(698.333333333333,42.272727272727266)"><path id="SvgjsPath1280" d="M 0 0L 64.57843137254906 0L 64.57843137254906 34.84313725490196L 0 34.84313725490196Z" stroke="rgba(33,41,48,1)" stroke-width="1.5" fill="url(#SvgjsRadialGradient1281)"></path><g id="SvgjsG1284"><text id="SvgjsText1285" font-family="&quot;Microsoft YaHei&quot;, 微软雅黑, Arial" text-anchor="middle" font-size="13px" width="45px" fill="#323232" font-weight="400" align="middle" lineHeight="125%" anchor="middle" family="&quot;Microsoft YaHei&quot;, 微软雅黑, Arial" size="13px" weight="400" font-style="" opacity="1" y="6.796568627450981" transform="rotate(0)"><tspan id="SvgjsTspan1286" dy="16.25" x="32.5"><tspan id="SvgjsTspan1287" style="">规律：</tspan></tspan></text></g></g><g id="SvgjsG1288" transform="translate(698.333333333333,117.41005967604427)"><path id="SvgjsPath1289" d="M 0 0L 433.4848484848487 0L 433.4848484848487 35.434782608695684L 0 35.434782608695684Z" stroke="rgba(33,41,48,1)" stroke-width="1.5" fill-opacity="1" fill="#ffffff"></path><g id="SvgjsG1290"><text id="SvgjsText1291" font-family="&quot;Microsoft YaHei&quot;, 微软雅黑, Arial" text-anchor="middle" font-size="13px" width="414px" fill="#323232" font-weight="400" align="middle" lineHeight="125%" anchor="middle" family="&quot;Microsoft YaHei&quot;, 微软雅黑, Arial" size="13px" weight="400" font-style="" opacity="1" y="7.092391304347842" transform="rotate(0)"></text></g></g><g id="SvgjsG1292" transform="translate(698.3333333333329,117.62745098039214)"><path id="SvgjsPath1293" d="M 0 4Q 0 0 4 0L 51.303030303030596 0Q 55.303030303030596 0 55.303030303030596 4L 55.303030303030596 31Q 55.303030303030596 35 51.303030303030596 35L 4 35Q 0 35 0 31Z" stroke="rgba(33,41,48,1)" stroke-width="1.5" fill="url(#SvgjsLinearGradient1294)"></path><g id="SvgjsG1297"><text id="SvgjsText1298" font-family="&quot;Microsoft YaHei&quot;, 微软雅黑, Arial" text-anchor="middle" font-size="13px" width="36px" fill="#323232" font-weight="400" align="middle" lineHeight="125%" anchor="middle" family="&quot;Microsoft YaHei&quot;, 微软雅黑, Arial" size="13px" weight="400" font-style="" opacity="1" y="6.875" transform="rotate(0)"><tspan id="SvgjsTspan1299" dy="16.25" x="28"><tspan id="SvgjsTspan1300" style="">[名称:</tspan></tspan></text></g></g><g id="SvgjsG1301" transform="translate(753.6363636363635,117.62745098039214)"><path id="SvgjsPath1302" d="M 0 4Q 0 0 4 0L 106 0Q 110 0 110 4L 110 31Q 110 35 106 35L 4 35Q 0 35 0 31Z" stroke="rgba(33,41,48,1)" stroke-width="1.5" fill="url(#SvgjsLinearGradient1303)"></path><g id="SvgjsG1306"><text id="SvgjsText1307" font-family="&quot;Microsoft YaHei&quot;, 微软雅黑, Arial" text-anchor="middle" font-size="13px" width="90px" fill="#323232" font-weight="400" align="middle" lineHeight="125%" anchor="middle" family="&quot;Microsoft YaHei&quot;, 微软雅黑, Arial" size="13px" weight="400" font-style="" opacity="1" y="6.875" transform="rotate(0)"><tspan id="SvgjsTspan1308" dy="16.25" x="55"><tspan id="SvgjsTspan1309" style="">GC前内存占用</tspan></tspan></text></g></g><g id="SvgjsG1310" transform="translate(865.0416666666667,117.62745098039214)"><path id="SvgjsPath1311" d="M 0 4Q 0 0 4 0L 31 0Q 35 0 35 4L 35 31Q 35 35 31 35L 4 35Q 0 35 0 31Z" stroke="rgba(33,41,48,1)" stroke-width="1.5" fill-opacity="1" fill="#ffffff"></path><g id="SvgjsG1312"><text id="SvgjsText1313" font-family="&quot;Microsoft YaHei&quot;, 微软雅黑, Arial" text-anchor="middle" font-size="13px" width="15px" fill="#323232" font-weight="400" align="middle" lineHeight="125%" anchor="middle" family="&quot;Microsoft YaHei&quot;, 微软雅黑, Arial" size="13px" weight="400" font-style="" opacity="1" y="6.875" transform="rotate(0)"><tspan id="SvgjsTspan1314" dy="16.25" x="17.5"><tspan id="SvgjsTspan1315" style="">-&gt;</tspan></tspan></text></g></g><g id="SvgjsG1316" transform="translate(900.0416666666667,117.62745098039214)"><path id="SvgjsPath1317" d="M 0 4Q 0 0 4 0L 106 0Q 110 0 110 4L 110 31Q 110 35 106 35L 4 35Q 0 35 0 31Z" stroke="rgba(33,41,48,1)" stroke-width="1.5" fill="url(#SvgjsLinearGradient1318)"></path><g id="SvgjsG1321"><text id="SvgjsText1322" font-family="&quot;Microsoft YaHei&quot;, 微软雅黑, Arial" text-anchor="middle" font-size="13px" width="90px" fill="#323232" font-weight="400" align="middle" lineHeight="125%" anchor="middle" family="&quot;Microsoft YaHei&quot;, 微软雅黑, Arial" size="13px" weight="400" font-style="" opacity="1" y="6.875" transform="rotate(0)"><tspan id="SvgjsTspan1323" dy="16.25" x="55"><tspan id="SvgjsTspan1324" style="">GC后内存占用</tspan></tspan></text></g></g><g id="SvgjsG1325" transform="translate(1011.44696969697,117.62745098039214)"><path id="SvgjsPath1326" d="M 0 4Q 0 0 4 0L 116.37121212121178 0Q 120.37121212121178 0 120.37121212121178 4L 120.37121212121178 31Q 120.37121212121178 35 116.37121212121178 35L 4 35Q 0 35 0 31Z" stroke="rgba(33,41,48,1)" stroke-width="1.5" fill="url(#SvgjsLinearGradient1327)"></path><g id="SvgjsG1330"><text id="SvgjsText1331" font-family="&quot;Microsoft YaHei&quot;, 微软雅黑, Arial" text-anchor="middle" font-size="13px" width="101px" fill="#323232" font-weight="400" align="middle" lineHeight="125%" anchor="middle" family="&quot;Microsoft YaHei&quot;, 微软雅黑, Arial" size="13px" weight="400" font-style="" opacity="1" y="6.875" transform="rotate(0)"><tspan id="SvgjsTspan1332" dy="16.25" x="60.5"><tspan id="SvgjsTspan1333" style="">(该区内存总大小)</tspan></tspan></text></g></g><g id="SvgjsG1334"></g></svg>