<svg xmlns="http://www.w3.org/2000/svg" xlink="http://www.w3.org/1999/xlink" id="mind-svg-con" version="1.1" width="932px" height="536px" style="position: absolute; left: 0px; top: 0px; width: 932px; height: 536px; background: rgb(255, 255, 255); z-index: 999;"><defs></defs><g id="svgbackgroundid"><defs></defs><rect x="0" y="0" width="932" height="536" fill="#ffffff"></rect></g><g transform="translate(-9818, -9661)" id="sdjakdjak3"><defs></defs><g class="svg-topic-con" transform="translate(0.5,0.5)"><path part="right" sub="true" id="line_40609bda55b8c818" d="M 10030.4 9937 C 10030.4 9937 10132 9802.69921875 10252 9802.69921875 L 10324 9802.69921875 L 10252 9802.69921875 C 10152 9802.69921875 10035.4 9943 10035.4 9943 L 10030.4 9937 Z" stroke="#FF44BC" fill="#FF44BC" stroke-width="2"></path><path part="right" sub="true" id="line_388c1e207cf9fe59" d="M 10030.4 9949 C 10030.4 9949 10132 10050.69921875 10252 10050.69921875 L 10356 10050.69921875 L 10252 10050.69921875 C 10152 10050.69921875 10035.4 9943 10035.4 9943 L 10030.4 9949 Z" stroke="#FFD424" fill="#FFD424" stroke-width="2"></path></g><g class="svg-connection-con" transform="translate(0.5,0.5)"></g><g class="svg-freesums-con" transform="translate(0.5,0.5)"></g><g class="svg-freebos-con" transform="translate(0.5,0.5)"></g></g><g id="388c1e207cf9fe59"><rect x="434" y="358.796875" rx="1px" ry="1px" width="104" height="30" style="fill: transparent; stroke:none;stroke-width:0px;"></rect><g><text text-anchor="start" align="top" anchor="start" font-size="16px" font-weight="normal" fill="rgb(51, 67, 90)" style="font-size:16px;font-family:微软雅黑;color:#33435A;font-style:normal;text-align:left;font-weight:normal;"><tspan x="454" y="379"><tspan dx="0">数据类型</tspan></tspan></text></g><line x1="434" y1="389" x2="538" y2="389" style="stroke:rgb(255, 212, 36);stroke-width:2"></line></g><g id="ebb103f7038fc0c1"><rect x="594" y="244" rx="1px" ry="1px" width="131" height="22" style="fill: transparent; stroke:none;stroke-width:0px;"></rect><g><text text-anchor="start" align="top" anchor="start" font-size="12px" font-weight="normal" fill="rgb(51, 67, 90)" style="font-size:12px;font-family:微软雅黑;color:#33435A;font-style:normal;text-align:left;font-weight:normal;"><tspan x="603" y="257.15999999999997"><tspan dx="0">python中的数据类型</tspan></tspan></text></g></g><g id="ee93c6342e2b0d1e"><rect x="594" y="278" rx="1px" ry="1px" width="42" height="22" style="fill: transparent; stroke:none;stroke-width:0px;"></rect><g><text text-anchor="start" align="top" anchor="start" font-size="12px" font-weight="normal" fill="rgb(51, 67, 90)" style="font-size:12px;font-family:微软雅黑;color:#33435A;font-style:normal;text-align:left;font-weight:normal;"><tspan x="603" y="291.15999999999997"><tspan dx="0">整型</tspan></tspan></text></g></g><g id="f312a6d38e6322c0"><rect x="594" y="312" rx="1px" ry="1px" width="54" height="22" style="fill: transparent; stroke:none;stroke-width:0px;"></rect><g><text text-anchor="start" align="top" anchor="start" font-size="12px" font-weight="normal" fill="rgb(51, 67, 90)" style="font-size:12px;font-family:微软雅黑;color:#33435A;font-style:normal;text-align:left;font-weight:normal;"><tspan x="603" y="325.15999999999997"><tspan dx="0">浮点型</tspan></tspan></text></g></g><g id="818a59bb5a023a1e"><rect x="594" y="346" rx="1px" ry="1px" width="54" height="22" style="fill: transparent; stroke:none;stroke-width:0px;"></rect><g><text text-anchor="start" align="top" anchor="start" font-size="12px" font-weight="normal" fill="rgb(51, 67, 90)" style="font-size:12px;font-family:微软雅黑;color:#33435A;font-style:normal;text-align:left;font-weight:normal;"><tspan x="603" y="359.15999999999997"><tspan dx="0">布尔型</tspan></tspan></text></g></g><g id="1aab60772c5d1e4a"><rect x="594" y="431" rx="1px" ry="1px" width="54" height="22" style="fill: transparent; stroke:none;stroke-width:0px;"></rect><g><text text-anchor="start" align="top" anchor="start" font-size="12px" font-weight="normal" fill="rgb(51, 67, 90)" style="font-size:12px;font-family:微软雅黑;color:#33435A;font-style:normal;text-align:left;font-weight:normal;"><tspan x="603" y="444.15999999999997"><tspan dx="0">字符串</tspan></tspan></text></g></g><g id="521e8c9c1981d587"><rect x="704" y="380" rx="1px" ry="1px" width="198" height="22" style="fill: transparent; stroke:none;stroke-width:0px;"></rect><g><text text-anchor="start" align="top" anchor="start" font-size="12px" font-weight="normal" fill="rgb(51, 67, 90)" style="font-size:12px;font-family:微软雅黑;color:#33435A;font-style:normal;text-align:left;font-weight:normal;"><tspan x="713" y="393.15999999999997"><tspan dx="0">字符串是用引号引起来的一段内容</tspan></tspan></text></g></g><g id="0a3574e4ef346232"><rect x="704" y="414" rx="1px" ry="1px" width="90" height="22" style="fill: transparent; stroke:none;stroke-width:0px;"></rect><g><text text-anchor="start" align="top" anchor="start" font-size="12px" font-weight="normal" fill="rgb(51, 67, 90)" style="font-size:12px;font-family:微软雅黑;color:#33435A;font-style:normal;text-align:left;font-weight:normal;"><tspan x="713" y="427.15999999999997"><tspan dx="0">字符串的加法</tspan></tspan></text></g></g><g id="ae5225e704eaee5f"><rect x="704" y="448" rx="1px" ry="1px" width="90" height="22" style="fill: transparent; stroke:none;stroke-width:0px;"></rect><g><text text-anchor="start" align="top" anchor="start" font-size="12px" font-weight="normal" fill="rgb(51, 67, 90)" style="font-size:12px;font-family:微软雅黑;color:#33435A;font-style:normal;text-align:left;font-weight:normal;"><tspan x="713" y="461.15999999999997"><tspan dx="0">字符串的乘法</tspan></tspan></text></g></g><g id="ce84e1b2650d7b69"><rect x="704" y="482" rx="1px" ry="1px" width="90" height="22" style="fill: transparent; stroke:none;stroke-width:0px;"></rect><g><text text-anchor="start" align="top" anchor="start" font-size="12px" font-weight="normal" fill="rgb(51, 67, 90)" style="font-size:12px;font-family:微软雅黑;color:#33435A;font-style:normal;text-align:left;font-weight:normal;"><tspan x="713" y="495.15999999999997"><tspan dx="0">字符串的索引</tspan></tspan></text></g></g><g id="40609bda55b8c818"><rect x="434" y="110.796875" rx="1px" ry="1px" width="72" height="30" style="fill: transparent; stroke:none;stroke-width:0px;"></rect><g><text text-anchor="start" align="top" anchor="start" font-size="16px" font-weight="normal" fill="rgb(51, 67, 90)" style="font-size:16px;font-family:微软雅黑;color:#33435A;font-style:normal;text-align:left;font-weight:normal;"><tspan x="454" y="131"><tspan dx="0">变量</tspan></tspan></text></g><line x1="434" y1="141" x2="506" y2="141" style="stroke:rgb(255, 68, 188);stroke-width:2"></line></g><g id="4e756f0b7f15d35e"><rect x="562" y="30" rx="1px" ry="1px" width="78" height="22" style="fill: transparent; stroke:none;stroke-width:0px;"></rect><g><text text-anchor="start" align="top" anchor="start" font-size="12px" font-weight="normal" fill="rgb(51, 67, 90)" style="font-size:12px;font-family:微软雅黑;color:#33435A;font-style:normal;text-align:left;font-weight:normal;"><tspan x="571" y="43.16"><tspan dx="0">变量的概念</tspan></tspan></text></g></g><g id="ab438a4c921b66b5"><rect x="562" y="64" rx="1px" ry="1px" width="78" height="22" style="fill: transparent; stroke:none;stroke-width:0px;"></rect><g><text text-anchor="start" align="top" anchor="start" font-size="12px" font-weight="normal" fill="rgb(51, 67, 90)" style="font-size:12px;font-family:微软雅黑;color:#33435A;font-style:normal;text-align:left;font-weight:normal;"><tspan x="571" y="77.16"><tspan dx="0">变量的创建</tspan></tspan></text></g></g><g id="9a7a35a12ab09f6a"><rect x="696" y="64" rx="1px" ry="1px" width="106" height="22" style="fill: transparent; stroke:none;stroke-width:0px;"></rect><g><text text-anchor="start" align="top" anchor="start" font-size="12px" font-weight="normal" fill="rgb(51, 67, 90)" style="font-size:12px;font-family:微软雅黑;color:#33435A;font-style:normal;text-align:left;font-weight:normal;"><tspan x="705" y="77.16"><tspan dx="0">变量名 = 变量值</tspan></tspan></text></g></g><g id="f57a626e90d2103d"><rect x="562" y="98" rx="1px" ry="1px" width="78" height="22" style="fill: transparent; stroke:none;stroke-width:0px;"></rect><g><text text-anchor="start" align="top" anchor="start" font-size="12px" font-weight="normal" fill="rgb(51, 67, 90)" style="font-size:12px;font-family:微软雅黑;color:#33435A;font-style:normal;text-align:left;font-weight:normal;"><tspan x="571" y="111.16"><tspan dx="0">变量的修改</tspan></tspan></text></g></g><g id="f03ac938a5559841"><rect x="562" y="166" rx="1px" ry="1px" width="78" height="22" style="fill: transparent; stroke:none;stroke-width:0px;"></rect><g><text text-anchor="start" align="top" anchor="start" font-size="12px" font-weight="normal" fill="rgb(51, 67, 90)" style="font-size:12px;font-family:微软雅黑;color:#33435A;font-style:normal;text-align:left;font-weight:normal;"><tspan x="571" y="179.16"><tspan dx="0">变量的命名</tspan></tspan></text></g></g><g id="a45330ef0ad74d89"><rect x="696" y="132" rx="1px" ry="1px" width="54" height="22" style="fill: transparent; stroke:none;stroke-width:0px;"></rect><g><text text-anchor="start" align="top" anchor="start" font-size="12px" font-weight="normal" fill="rgb(51, 67, 90)" style="font-size:12px;font-family:微软雅黑;color:#33435A;font-style:normal;text-align:left;font-weight:normal;"><tspan x="705" y="145.16"><tspan dx="0">标识符</tspan></tspan></text></g></g><g id="efd0084b75e57c4b"><rect x="806" y="132" rx="1px" ry="1px" width="66" height="22" style="fill: transparent; stroke:none;stroke-width:0px;"></rect><g><text text-anchor="start" align="top" anchor="start" font-size="12px" font-weight="normal" fill="rgb(51, 67, 90)" style="font-size:12px;font-family:微软雅黑;color:#33435A;font-style:normal;text-align:left;font-weight:normal;"><tspan x="815" y="145.16"><tspan dx="0">命名规范</tspan></tspan></text></g></g><g id="02b872e180382ecd"><rect x="696" y="166" rx="1px" ry="1px" width="54" height="22" style="fill: transparent; stroke:none;stroke-width:0px;"></rect><g><text text-anchor="start" align="top" anchor="start" font-size="12px" font-weight="normal" fill="rgb(51, 67, 90)" style="font-size:12px;font-family:微软雅黑;color:#33435A;font-style:normal;text-align:left;font-weight:normal;"><tspan x="705" y="179.16"><tspan dx="0">关键字</tspan></tspan></text></g></g><g id="dc9914843adc2d69"><rect x="696" y="200" rx="1px" ry="1px" width="78" height="22" style="fill: transparent; stroke:none;stroke-width:0px;"></rect><g><text text-anchor="start" align="top" anchor="start" font-size="12px" font-weight="normal" fill="rgb(51, 67, 90)" style="font-size:12px;font-family:微软雅黑;color:#33435A;font-style:normal;text-align:left;font-weight:normal;"><tspan x="705" y="213.16"><tspan dx="0">驼峰命名法</tspan></tspan></text></g></g><g transform="translate(434, 244)" id="sdjakdjak0"><g id="subline_388c1e207cf9fe59" transform="translate(0.5, 0.5)"><path id="line_ebb103f7038fc0c1" d="M 104 145.69921875 C 140 145.69921875 132 22.5 160 22.5 L 291 22.5" p="388c1e207cf9fe59" stroke="#FFD424" fill="none" stroke-linecap="square" stroke-width="2"></path><path id="line_ee93c6342e2b0d1e" d="M 104 145.69921875 C 140 145.69921875 132 56.5 160 56.5 L 202 56.5" p="388c1e207cf9fe59" stroke="#FFD424" fill="none" stroke-linecap="square" stroke-width="2"></path><path id="line_f312a6d38e6322c0" d="M 104 145.69921875 C 140 145.69921875 132 90.5 160 90.5 L 214 90.5" p="388c1e207cf9fe59" stroke="#FFD424" fill="none" stroke-linecap="square" stroke-width="2"></path><path id="line_818a59bb5a023a1e" d="M 104 145.69921875 C 140 145.69921875 132 124.5 160 124.5 L 214 124.5" p="388c1e207cf9fe59" stroke="#FFD424" fill="none" stroke-linecap="square" stroke-width="2"></path><path id="line_1aab60772c5d1e4a" d="M 104 145.69921875 C 140 145.69921875 132 209.5 160 209.5 L 214 209.5" p="388c1e207cf9fe59" stroke="#FFD424" fill="none" stroke-linecap="square" stroke-width="2"></path><path id="line_521e8c9c1981d587" d="M 214 209.5 C 250 209.5 242 158.5 270 158.5 L 468 158.5" p="1aab60772c5d1e4a" stroke="#FFD424" fill="none" stroke-linecap="square" stroke-width="2"></path><path id="line_0a3574e4ef346232" d="M 214 209.5 C 250 209.5 242 192.5 270 192.5 L 360 192.5" p="1aab60772c5d1e4a" stroke="#FFD424" fill="none" stroke-linecap="square" stroke-width="2"></path><path id="line_ae5225e704eaee5f" d="M 214 209.5 C 250 209.5 242 226.5 270 226.5 L 360 226.5" p="1aab60772c5d1e4a" stroke="#FFD424" fill="none" stroke-linecap="square" stroke-width="2"></path><path id="line_ce84e1b2650d7b69" d="M 214 209.5 C 250 209.5 242 260.5 270 260.5 L 360 260.5" p="1aab60772c5d1e4a" stroke="#FFD424" fill="none" stroke-linecap="square" stroke-width="2"></path></g><g transform="translate(0.5,0.5)"></g><g class="svg-summary-con" transform="translate(0.5,0.5)"></g><g class="svg-boundary-con" transform="translate(0.5,0.5)"></g></g><g transform="translate(434, 30)" id="sdjakdjak1"><g id="subline_40609bda55b8c818" transform="translate(0.5, 0.5)"><path id="line_4e756f0b7f15d35e" d="M 72 111.69921875 C 108 111.69921875 100 22.5 128 22.5 L 206 22.5" p="40609bda55b8c818" stroke="#FF44BC" fill="none" stroke-linecap="square" stroke-width="2"></path><path id="line_ab438a4c921b66b5" d="M 72 111.69921875 C 108 111.69921875 100 56.5 128 56.5 L 206 56.5" p="40609bda55b8c818" stroke="#FF44BC" fill="none" stroke-linecap="square" stroke-width="2"></path><path id="line_9a7a35a12ab09f6a" d="M 206 56.5 C 242 56.5 234 56.5 262 56.5 L 368 56.5" p="ab438a4c921b66b5" stroke="#FF44BC" fill="none" stroke-linecap="square" stroke-width="2"></path><path id="line_f57a626e90d2103d" d="M 72 111.69921875 C 108 111.69921875 100 90.5 128 90.5 L 206 90.5" p="40609bda55b8c818" stroke="#FF44BC" fill="none" stroke-linecap="square" stroke-width="2"></path><path id="line_f03ac938a5559841" d="M 72 111.69921875 C 108 111.69921875 100 158.5 128 158.5 L 206 158.5" p="40609bda55b8c818" stroke="#FF44BC" fill="none" stroke-linecap="square" stroke-width="2"></path><path id="line_a45330ef0ad74d89" d="M 206 158.5 C 242 158.5 234 124.5 262 124.5 L 316 124.5" p="f03ac938a5559841" stroke="#FF44BC" fill="none" stroke-linecap="square" stroke-width="2"></path><path id="line_efd0084b75e57c4b" d="M 316 124.5 C 352 124.5 344 124.5 372 124.5 L 438 124.5" p="a45330ef0ad74d89" stroke="#FF44BC" fill="none" stroke-linecap="square" stroke-width="2"></path><path id="line_02b872e180382ecd" d="M 206 158.5 C 242 158.5 234 158.5 262 158.5 L 316 158.5" p="f03ac938a5559841" stroke="#FF44BC" fill="none" stroke-linecap="square" stroke-width="2"></path><path id="line_dc9914843adc2d69" d="M 206 158.5 C 242 158.5 234 192.5 262 192.5 L 340 192.5" p="f03ac938a5559841" stroke="#FF44BC" fill="none" stroke-linecap="square" stroke-width="2"></path></g><g transform="translate(0.5,0.5)"></g><g class="svg-summary-con" transform="translate(0.5,0.5)"></g><g class="svg-boundary-con" transform="translate(0.5,0.5)"></g></g><g transform="translate(30, 255)" id="sdjakdjak2"><g id="subline_root" transform="translate(0.5, 0.5)"></g><g transform="translate(0.5,0.5)"></g><g class="svg-summary-con" transform="translate(0.5,0.5)"></g><g class="svg-boundary-con" transform="translate(0.5,0.5)"></g></g><g id="root"><rect x="30" y="254.9" rx="6px" ry="6px" width="305" height="56" stroke="rgba(0, 0, 0, 0.1)" style="fill:rgba(0, 0, 0, 0.1);"></rect><rect x="30" y="255" rx="6px" ry="6px" width="304" height="54" style="fill: #ffffff; stroke:none;stroke-width:0px;"></rect><g><text text-anchor="start" align="top" anchor="start" font-size="24px" font-weight="normal" fill="rgb(51, 67, 90)" style="font-size:24px;font-family:微软雅黑;color:#33435A;font-style:normal;text-align:left;font-weight:normal;"><tspan x="62" y="289"><tspan dx="0">变量与简单的数据类型</tspan></tspan></text></g></g></svg>