<svg xmlns="http://www.w3.org/2000/svg" xlink="http://www.w3.org/1999/xlink" id="mind-svg-con" version="1.1" width="661.0390625px" height="440px" style="position: absolute; left: 0px; top: 0px; width: 661.039px; height: 440px; background: rgb(250, 250, 250); z-index: 999;"><defs></defs><g id="svgbackgroundid"><defs></defs><rect x="0" y="0" width="661.0390625" height="440" fill="#fafafa"></rect></g><g transform="translate(-9917, -9732.5)" id="sdjakdjak9"><defs></defs><g class="svg-topic-con" transform="translate(0.5,0.5)"><path part="right" sub="true" id="line_712d0ee03b6cdd06" d="M 10000 9952.5 L 10083 9952.5 L 10083 9785.59765625 A 8 8 0 0 1 10091 9777.59765625 L 10113 9777.59765625" stroke="#746ea6" fill="none" stroke-width="1"></path><path part="right" sub="true" id="line_5ef8c5dc550a6dbd" d="M 10000 9952.5 L 10083 9952.5 L 10083 9835.59765625 A 8 8 0 0 1 10091 9827.59765625 L 10113 9827.59765625" stroke="#746ea6" fill="none" stroke-width="1"></path><path part="right" sub="true" id="line_aae5868c9cfd190c" d="M 10000 9952.5 L 10083 9952.5 L 10083 9885.59765625 A 8 8 0 0 1 10091 9877.59765625 L 10113 9877.59765625" stroke="#746ea6" fill="none" stroke-width="1"></path><path part="right" sub="true" id="line_e219791d369d59ec" d="M 10000 9952.5 L 10083 9952.5 L 10083 9935.59765625 A 8 8 0 0 1 10091 9927.59765625 L 10113 9927.59765625" stroke="#746ea6" fill="none" stroke-width="1"></path><path part="right" sub="true" id="line_364e98be5f1e0e5c" d="M 10000 9952.5 L 10083 9952.5 L 10083 9969.59765625 A 8 8 0 0 0 10091 9977.59765625 L 10113 9977.59765625" stroke="#746ea6" fill="none" stroke-width="1"></path><path part="right" sub="true" id="line_daf95c3bca4e2a0e" d="M 10000 9952.5 L 10083 9952.5 L 10083 10019.59765625 A 8 8 0 0 0 10091 10027.59765625 L 10113 10027.59765625" stroke="#746ea6" fill="none" stroke-width="1"></path><path part="right" sub="true" id="line_82badb8e9b9f4d54" d="M 10000 9952.5 L 10083 9952.5 L 10083 10069.59765625 A 8 8 0 0 0 10091 10077.59765625 L 10113 10077.59765625" stroke="#746ea6" fill="none" stroke-width="1"></path><path part="right" sub="true" id="line_573673d36fd91017" d="M 10000 9952.5 L 10083 9952.5 L 10083 10119.59765625 A 8 8 0 0 0 10091 10127.59765625 L 10113 10127.59765625" stroke="#746ea6" fill="none" stroke-width="1"></path></g><g class="svg-connection-con" transform="translate(0.5,0.5)"></g><g class="svg-freesums-con" transform="translate(0.5,0.5)"></g><g class="svg-freebos-con" transform="translate(0.5,0.5)"></g></g><g id="573673d36fd91017"><rect x="196" y="380" rx="6px" ry="6px" width="100" height="30" style="fill: #fff; stroke:#d1cecd;stroke-width:1px;"></rect><g><text text-anchor="start" align="top" anchor="start" font-size="13px" font-weight="normal" fill="rgb(89, 89, 89)" style="font-size:13px;font-family:arial, 黑体;color:#595959;font-style:normal;text-align:left;font-weight:normal;"><tspan x="207" y="399"><tspan dx="0">MySQLRoute</tspan></tspan></text></g></g><g id="61a14b9a599afce9"><rect x="332.0390625" y="381.1015625" rx="1px" ry="1px" width="299" height="28" style="fill: transparent; stroke:none;stroke-width:0px;"></rect><g><text text-anchor="start" align="top" anchor="start" font-size="12px" font-weight="normal" fill="rgb(96, 96, 96)" style="font-size:12px;font-family:arial, 黑体;color:#606060;font-style:normal;text-align:left;font-weight:normal;"><tspan x="342" y="397.15999999999997"><tspan dx="0">MySQLRoute是MySQL官方Oracle公司发布的中间件</tspan></tspan></text></g></g><g id="82badb8e9b9f4d54"><rect x="196" y="330" rx="6px" ry="6px" width="79" height="30" style="fill: #fff; stroke:#d1cecd;stroke-width:1px;"></rect><g><text text-anchor="start" align="top" anchor="start" font-size="13px" font-weight="normal" fill="rgb(89, 89, 89)" style="font-size:13px;font-family:arial, 黑体;color:#595959;font-style:normal;text-align:left;font-weight:normal;"><tspan x="207" y="349"><tspan dx="0">MaxScale</tspan></tspan></text></g></g><g id="bbe42b2bc5a3803a"><rect x="311.078125" y="331.1015625" rx="1px" ry="1px" width="200" height="28" style="fill: transparent; stroke:none;stroke-width:0px;"></rect><g><text text-anchor="start" align="top" anchor="start" font-size="12px" font-weight="normal" fill="rgb(96, 96, 96)" style="font-size:12px;font-family:arial, 黑体;color:#606060;font-style:normal;text-align:left;font-weight:normal;"><tspan x="321" y="347.15999999999997"><tspan dx="0">MaxScale是mariadb研发的中间件</tspan></tspan></text></g></g><g id="daf95c3bca4e2a0e"><rect x="196" y="280" rx="6px" ry="6px" width="51" height="30" style="fill: #fff; stroke:#d1cecd;stroke-width:1px;"></rect><g><text text-anchor="start" align="top" anchor="start" font-size="13px" font-weight="normal" fill="rgb(89, 89, 89)" style="font-size:13px;font-family:arial, 黑体;color:#595959;font-style:normal;text-align:left;font-weight:normal;"><tspan x="207" y="299"><tspan dx="0">Atlas</tspan></tspan></text></g></g><g id="42fd4b92328c6dea"><rect x="282.90625" y="281.1015625" rx="1px" ry="1px" width="269" height="28" style="fill: transparent; stroke:none;stroke-width:0px;"></rect><g><text text-anchor="start" align="top" anchor="start" font-size="12px" font-weight="normal" fill="rgb(96, 96, 96)" style="font-size:12px;font-family:arial, 黑体;color:#606060;font-style:normal;text-align:left;font-weight:normal;"><tspan x="293" y="297.15999999999997"><tspan dx="0">360团队基于mysqlproxy改写，高并发下不稳定</tspan></tspan></text></g></g><g id="364e98be5f1e0e5c"><rect x="196" y="230" rx="6px" ry="6px" width="57" height="30" style="fill: #fff; stroke:#d1cecd;stroke-width:1px;"></rect><g><text text-anchor="start" align="top" anchor="start" font-size="13px" font-weight="normal" fill="rgb(89, 89, 89)" style="font-size:13px;font-family:arial, 黑体;color:#595959;font-style:normal;text-align:left;font-weight:normal;"><tspan x="207" y="249"><tspan dx="0">Vitess</tspan></tspan></text></g></g><g id="2205e9e867133f09"><rect x="289.171875" y="231.1015625" rx="1px" ry="1px" width="260" height="28" style="fill: transparent; stroke:none;stroke-width:0px;"></rect><g><text text-anchor="start" align="top" anchor="start" font-size="12px" font-weight="normal" fill="rgb(96, 96, 96)" style="font-size:12px;font-family:arial, 黑体;color:#606060;font-style:normal;text-align:left;font-weight:normal;"><tspan x="299" y="247.16"><tspan dx="0">Youtube生产在使用，不支持MySQL原生协议</tspan></tspan></text></g></g><g id="e219791d369d59ec"><rect x="196" y="180" rx="6px" ry="6px" width="78" height="30" style="fill: #fff; stroke:#d1cecd;stroke-width:1px;"></rect><g><text text-anchor="start" align="top" anchor="start" font-size="13px" font-weight="normal" fill="rgb(89, 89, 89)" style="font-size:13px;font-family:arial, 黑体;color:#595959;font-style:normal;text-align:left;font-weight:normal;"><tspan x="207" y="199"><tspan dx="0">kingshard</tspan></tspan></text></g></g><g id="ed642ed698ba1f21"><rect x="310.3671875" y="181.1015625" rx="1px" ry="1px" width="153" height="28" style="fill: transparent; stroke:none;stroke-width:0px;"></rect><g><text text-anchor="start" align="top" anchor="start" font-size="12px" font-weight="normal" fill="rgb(96, 96, 96)" style="font-size:12px;font-family:arial, 黑体;color:#606060;font-style:normal;text-align:left;font-weight:normal;"><tspan x="320" y="197.16"><tspan dx="0">go语言开发，在不断完善</tspan></tspan></text></g></g><g id="aae5868c9cfd190c"><rect x="196" y="130" rx="6px" ry="6px" width="80" height="30" style="fill: #fff; stroke:#d1cecd;stroke-width:1px;"></rect><g><text text-anchor="start" align="top" anchor="start" font-size="13px" font-weight="normal" fill="rgb(89, 89, 89)" style="font-size:13px;font-family:arial, 黑体;color:#595959;font-style:normal;text-align:left;font-weight:normal;"><tspan x="207" y="149"><tspan dx="0">OneProxy</tspan></tspan></text></g></g><g id="dd9fb3c9d49f4892"><rect x="311.8046875" y="131.1015625" rx="1px" ry="1px" width="128" height="28" style="fill: transparent; stroke:none;stroke-width:0px;"></rect><g><text text-anchor="start" align="top" anchor="start" font-size="12px" font-weight="normal" fill="rgb(96, 96, 96)" style="font-size:12px;font-family:arial, 黑体;color:#606060;font-style:normal;text-align:left;font-weight:normal;"><tspan x="322" y="147.16"><tspan dx="0">不开源的商业中间件</tspan></tspan></text></g></g><g id="5ef8c5dc550a6dbd"><rect x="196" y="80" rx="6px" ry="6px" width="57" height="30" style="fill: #fff; stroke:#d1cecd;stroke-width:1px;"></rect><g><text text-anchor="start" align="top" anchor="start" font-size="13px" font-weight="normal" fill="rgb(89, 89, 89)" style="font-size:13px;font-family:arial, 黑体;color:#595959;font-style:normal;text-align:left;font-weight:normal;"><tspan x="207" y="99"><tspan dx="0">Mycat</tspan></tspan></text></g></g><g id="d3c36949c50d0323"><rect x="288.671875" y="81.1015625" rx="1px" ry="1px" width="209" height="28" style="fill: transparent; stroke:none;stroke-width:0px;"></rect><g><text text-anchor="start" align="top" anchor="start" font-size="12px" font-weight="normal" fill="rgb(96, 96, 96)" style="font-size:12px;font-family:arial, 黑体;color:#606060;font-style:normal;text-align:left;font-weight:normal;"><tspan x="299" y="97.16"><tspan dx="0">基于Cobar二次开发，开源社区维护</tspan></tspan></text></g></g><g id="712d0ee03b6cdd06"><rect x="196" y="30" rx="6px" ry="6px" width="57" height="30" style="fill: #fff; stroke:#d1cecd;stroke-width:1px;"></rect><g><text text-anchor="start" align="top" anchor="start" font-size="13px" font-weight="normal" fill="rgb(89, 89, 89)" style="font-size:13px;font-family:arial, 黑体;color:#595959;font-style:normal;text-align:left;font-weight:normal;"><tspan x="207" y="49"><tspan dx="0">Cobar</tspan></tspan></text></g></g><g id="529605fabb61bb3e"><rect x="289.4140625" y="31.1015625" rx="1px" ry="1px" width="200" height="28" style="fill: transparent; stroke:none;stroke-width:0px;"></rect><g><text text-anchor="start" align="top" anchor="start" font-size="12px" font-weight="normal" fill="rgb(96, 96, 96)" style="font-size:12px;font-family:arial, 黑体;color:#606060;font-style:normal;text-align:left;font-weight:normal;"><tspan x="299" y="47.16"><tspan dx="0">阿里团队开发，已多年无维护更新</tspan></tspan></text></g></g><g transform="translate(196, 380)" id="sdjakdjak0"><g id="subline_573673d36fd91017" transform="translate(0.5, 0.5)"><path id="line_61a14b9a599afce9" d="M 100.0390625 15.09765625 L 119 15.09765625 L 119 15.1015625 L 136.0390625 15.1015625" p="573673d36fd91017" stroke="#746e6a" fill="none" stroke-linecap="square" stroke-width="1"></path></g><g transform="translate(0.5,0.5)"></g><g class="svg-summary-con" transform="translate(0.5,0.5)"></g><g class="svg-boundary-con" transform="translate(0.5,0.5)"></g></g><g transform="translate(196, 330)" id="sdjakdjak1"><g id="subline_82badb8e9b9f4d54" transform="translate(0.5, 0.5)"><path id="line_bbe42b2bc5a3803a" d="M 79.078125 15.09765625 L 98 15.09765625 L 98 15.1015625 L 115.078125 15.1015625" p="82badb8e9b9f4d54" stroke="#746e6a" fill="none" stroke-linecap="square" stroke-width="1"></path></g><g transform="translate(0.5,0.5)"></g><g class="svg-summary-con" transform="translate(0.5,0.5)"></g><g class="svg-boundary-con" transform="translate(0.5,0.5)"></g></g><g transform="translate(196, 280)" id="sdjakdjak2"><g id="subline_daf95c3bca4e2a0e" transform="translate(0.5, 0.5)"><path id="line_42fd4b92328c6dea" d="M 50.90625 15.09765625 L 69 15.09765625 L 69 15.1015625 L 86.90625 15.1015625" p="daf95c3bca4e2a0e" stroke="#746e6a" fill="none" stroke-linecap="square" stroke-width="1"></path></g><g transform="translate(0.5,0.5)"></g><g class="svg-summary-con" transform="translate(0.5,0.5)"></g><g class="svg-boundary-con" transform="translate(0.5,0.5)"></g></g><g transform="translate(196, 230)" id="sdjakdjak3"><g id="subline_364e98be5f1e0e5c" transform="translate(0.5, 0.5)"><path id="line_2205e9e867133f09" d="M 57.171875 15.09765625 L 76 15.09765625 L 76 15.1015625 L 93.171875 15.1015625" p="364e98be5f1e0e5c" stroke="#746e6a" fill="none" stroke-linecap="square" stroke-width="1"></path></g><g transform="translate(0.5,0.5)"></g><g class="svg-summary-con" transform="translate(0.5,0.5)"></g><g class="svg-boundary-con" transform="translate(0.5,0.5)"></g></g><g transform="translate(196, 180)" id="sdjakdjak4"><g id="subline_e219791d369d59ec" transform="translate(0.5, 0.5)"><path id="line_ed642ed698ba1f21" d="M 78.3671875 15.09765625 L 97 15.09765625 L 97 15.1015625 L 114.3671875 15.1015625" p="e219791d369d59ec" stroke="#746e6a" fill="none" stroke-linecap="square" stroke-width="1"></path></g><g transform="translate(0.5,0.5)"></g><g class="svg-summary-con" transform="translate(0.5,0.5)"></g><g class="svg-boundary-con" transform="translate(0.5,0.5)"></g></g><g transform="translate(196, 130)" id="sdjakdjak5"><g id="subline_aae5868c9cfd190c" transform="translate(0.5, 0.5)"><path id="line_dd9fb3c9d49f4892" d="M 79.8046875 15.09765625 L 98 15.09765625 L 98 15.1015625 L 115.8046875 15.1015625" p="aae5868c9cfd190c" stroke="#746e6a" fill="none" stroke-linecap="square" stroke-width="1"></path></g><g transform="translate(0.5,0.5)"></g><g class="svg-summary-con" transform="translate(0.5,0.5)"></g><g class="svg-boundary-con" transform="translate(0.5,0.5)"></g></g><g transform="translate(196, 80)" id="sdjakdjak6"><g id="subline_5ef8c5dc550a6dbd" transform="translate(0.5, 0.5)"><path id="line_d3c36949c50d0323" d="M 56.671875 15.09765625 L 75 15.09765625 L 75 15.1015625 L 92.671875 15.1015625" p="5ef8c5dc550a6dbd" stroke="#746e6a" fill="none" stroke-linecap="square" stroke-width="1"></path></g><g transform="translate(0.5,0.5)"></g><g class="svg-summary-con" transform="translate(0.5,0.5)"></g><g class="svg-boundary-con" transform="translate(0.5,0.5)"></g></g><g transform="translate(196, 30)" id="sdjakdjak7"><g id="subline_712d0ee03b6cdd06" transform="translate(0.5, 0.5)"><path id="line_529605fabb61bb3e" d="M 57.4140625 15.09765625 L 76 15.09765625 L 76 15.1015625 L 93.4140625 15.1015625" p="712d0ee03b6cdd06" stroke="#746e6a" fill="none" stroke-linecap="square" stroke-width="1"></path></g><g transform="translate(0.5,0.5)"></g><g class="svg-summary-con" transform="translate(0.5,0.5)"></g><g class="svg-boundary-con" transform="translate(0.5,0.5)"></g></g><g transform="translate(30, 202.5)" id="sdjakdjak8"><g id="subline_root" transform="translate(0.5, 0.5)"></g><g transform="translate(0.5,0.5)"></g><g class="svg-summary-con" transform="translate(0.5,0.5)"></g><g class="svg-boundary-con" transform="translate(0.5,0.5)"></g></g><g id="root"><rect x="30" y="202.5" rx="6px" ry="6px" width="106" height="35" style="fill: #dddddd; stroke:#b2afad;stroke-width:1px;"></rect><g><text text-anchor="start" align="top" anchor="start" font-size="14px" font-weight="normal" fill="rgb(78, 78, 78)" style="font-size:14px;font-family:arial, 黑体;color:#4e4e4e;font-style:normal;text-align:left;font-weight:normal;"><tspan x="41" y="226"><tspan dx="0">数据库中间件</tspan></tspan></text></g></g></svg>