<svg id="SvgjsSvg1006" width="458" height="273" xmlns="http://www.w3.org/2000/svg" version="1.1" xmlns:xlink="http://www.w3.org/1999/xlink" xmlns:svgjs="http://svgjs.com/svgjs"><defs id="SvgjsDefs1007"><pattern patternUnits="userSpaceOnUse" id="pattern_mark_0" width="300" height="300"><text x="150" y="100" fill="rgba(229,229,229,0.8)" font-size="18" transform="rotate(-45, 150, 150)" style="dominant-baseline: middle; text-anchor: middle;"></text></pattern><pattern patternUnits="userSpaceOnUse" id="pattern_mark_1" width="300" height="300"><text x="150" y="200" fill="rgba(229,229,229,0.8)" font-size="18" transform="rotate(-45, 150, 150)" style="dominant-baseline: middle; text-anchor: middle;"></text></pattern></defs><rect id="svgbackgroundid" width="458" height="273" fill="transparent"></rect><rect id="SvgjsRect1009" width="458" height="273" fill="url(#pattern_mark_0)"></rect><rect id="SvgjsRect1010" width="458" height="273" fill="url(#pattern_mark_1)"></rect><g id="SvgjsG1011" transform="translate(25,25)"><path id="SvgjsPath1012" d="M 0 4Q 0 0 4 0L 404 0Q 408 0 408 4L 408 219Q 408 223 404 223L 4 223Q 0 223 0 219Z" stroke="rgba(33,41,48,1)" stroke-width="1.5" fill-opacity="1" fill="#cbe6c7"></path><g id="SvgjsG1013"><text id="SvgjsText1014" font-family="&quot;Comic Sans MS&quot;" text-anchor="middle" font-size="13px" width="388px" fill="#323232" font-weight="400" align="middle" lineHeight="125%" anchor="middle" family="&quot;Comic Sans MS&quot;" size="13px" weight="400" font-style="" opacity="1" y="100.875" transform="rotate(0)"></text></g></g><g id="SvgjsG1015" transform="translate(40,91)"><path id="SvgjsPath1016" d="M 0 4Q 0 0 4 0L 92 0Q 96 0 96 4L 96 50Q 96 54 92 54L 4 54Q 0 54 0 50Z" stroke="rgba(33,41,48,1)" stroke-width="1.5" fill-opacity="1" fill="#f9e0ae"></path><g id="SvgjsG1017"><text id="SvgjsText1018" font-family="&quot;Comic Sans MS&quot;" text-anchor="middle" font-size="13px" width="76px" fill="#323232" font-weight="400" align="middle" lineHeight="125%" anchor="middle" family="&quot;Comic Sans MS&quot;" size="13px" weight="400" font-style="" opacity="1" y="16.375" transform="rotate(0)"><tspan id="SvgjsTspan1019" dy="16.25" x="48"><tspan id="SvgjsTspan1020" style="">数据页</tspan></tspan></text></g></g><g id="SvgjsG1021" transform="translate(292,91)"><path id="SvgjsPath1022" d="M 0 4Q 0 0 4 0L 121 0Q 125 0 125 4L 125 50Q 125 54 121 54L 4 54Q 0 54 0 50Z" stroke="rgba(33,41,48,1)" stroke-width="1.5" fill-opacity="1" fill="#f9e0ae"></path><g id="SvgjsG1023"><text id="SvgjsText1024" font-family="&quot;Comic Sans MS&quot;" text-anchor="middle" font-size="13px" width="105px" fill="#323232" font-weight="400" align="middle" lineHeight="125%" anchor="middle" family="&quot;Comic Sans MS&quot;" size="13px" weight="400" font-style="" opacity="1" y="16.375" transform="rotate(0)"><tspan id="SvgjsTspan1025" dy="16.25" x="62.5"><tspan id="SvgjsTspan1026" style="">自适应索引哈希</tspan></tspan></text></g></g><g id="SvgjsG1027" transform="translate(292,175)"><path id="SvgjsPath1028" d="M 0 4Q 0 0 4 0L 121 0Q 125 0 125 4L 125 50Q 125 54 121 54L 4 54Q 0 54 0 50Z" stroke="rgba(33,41,48,1)" stroke-width="1.5" fill-opacity="1" fill="#f9e0ae"></path><g id="SvgjsG1029"><text id="SvgjsText1030" font-family="&quot;Comic Sans MS&quot;" text-anchor="middle" font-size="13px" width="105px" fill="#323232" font-weight="400" align="middle" lineHeight="125%" anchor="middle" family="&quot;Comic Sans MS&quot;" size="13px" weight="400" font-style="" opacity="1" y="16.375" transform="rotate(0)"><tspan id="SvgjsTspan1031" dy="16.25" x="62.5"><tspan id="SvgjsTspan1032" style="">数据字典信息</tspan></tspan></text></g></g><g id="SvgjsG1033" transform="translate(166,91)"><path id="SvgjsPath1034" d="M 0 4Q 0 0 4 0L 92 0Q 96 0 96 4L 96 50Q 96 54 92 54L 4 54Q 0 54 0 50Z" stroke="rgba(33,41,48,1)" stroke-width="1.5" fill-opacity="1" fill="#f9e0ae"></path><g id="SvgjsG1035"><text id="SvgjsText1036" font-family="&quot;Comic Sans MS&quot;" text-anchor="middle" font-size="13px" width="76px" fill="#323232" font-weight="400" align="middle" lineHeight="125%" anchor="middle" family="&quot;Comic Sans MS&quot;" size="13px" weight="400" font-style="" opacity="1" y="16.375" transform="rotate(0)"><tspan id="SvgjsTspan1037" dy="16.25" x="48"><tspan id="SvgjsTspan1038" style="">插入缓存</tspan></tspan></text></g></g><g id="SvgjsG1039" transform="translate(166,175)"><path id="SvgjsPath1040" d="M 0 4Q 0 0 4 0L 92 0Q 96 0 96 4L 96 50Q 96 54 92 54L 4 54Q 0 54 0 50Z" stroke="rgba(33,41,48,1)" stroke-width="1.5" fill-opacity="1" fill="#f9e0ae"></path><g id="SvgjsG1041"><text id="SvgjsText1042" font-family="&quot;Comic Sans MS&quot;" text-anchor="middle" font-size="13px" width="76px" fill="#323232" font-weight="400" align="middle" lineHeight="125%" anchor="middle" family="&quot;Comic Sans MS&quot;" size="13px" weight="400" font-style="" opacity="1" y="16.375" transform="rotate(0)"><tspan id="SvgjsTspan1043" dy="16.25" x="48"><tspan id="SvgjsTspan1044" style="">锁信息</tspan></tspan></text></g></g><g id="SvgjsG1045" transform="translate(40,175)"><path id="SvgjsPath1046" d="M 0 4Q 0 0 4 0L 92 0Q 96 0 96 4L 96 50Q 96 54 92 54L 4 54Q 0 54 0 50Z" stroke="rgba(33,41,48,1)" stroke-width="1.5" fill-opacity="1" fill="#f9e0ae"></path><g id="SvgjsG1047"><text id="SvgjsText1048" font-family="&quot;Comic Sans MS&quot;" text-anchor="middle" font-size="13px" width="76px" fill="#323232" font-weight="400" align="middle" lineHeight="125%" anchor="middle" family="&quot;Comic Sans MS&quot;" size="13px" weight="400" font-style="" opacity="1" y="16.375" transform="rotate(0)"><tspan id="SvgjsTspan1049" dy="16.25" x="48"><tspan id="SvgjsTspan1050" style="">索引页</tspan></tspan></text></g></g><g id="SvgjsG1051" transform="translate(133,37)"><path id="SvgjsPath1052" d="M 0 0L 192 0L 192 48L 0 48Z" stroke="none" fill="none"></path><g id="SvgjsG1053"><text id="SvgjsText1054" font-family="&quot;Comic Sans MS&quot;" text-anchor="middle" font-size="13px" width="192px" fill="#323232" font-weight="400" align="middle" lineHeight="125%" anchor="middle" family="&quot;Comic Sans MS&quot;" size="13px" weight="400" font-style="" opacity="1" y="13.375" transform="rotate(0)"><tspan id="SvgjsTspan1055" dy="16.25" x="96"><tspan id="SvgjsTspan1056" style="">缓冲池(innodb_buffer_pool)</tspan></tspan></text></g></g></svg>