<svg id="SvgjsSvg1006" width="811" height="350" xmlns="http://www.w3.org/2000/svg" version="1.1" xmlns:xlink="http://www.w3.org/1999/xlink" xmlns:svgjs="http://svgjs.com/svgjs"><defs id="SvgjsDefs1007"><pattern patternUnits="userSpaceOnUse" id="pattern_mark_0" width="300" height="300"><text x="150" y="100" fill="rgba(229,229,229,0.8)" font-size="18" transform="rotate(-45, 150, 150)" style="dominant-baseline: middle; text-anchor: middle;"></text></pattern><pattern patternUnits="userSpaceOnUse" id="pattern_mark_1" width="300" height="300"><text x="150" y="200" fill="rgba(229,229,229,0.8)" font-size="18" transform="rotate(-45, 150, 150)" style="dominant-baseline: middle; text-anchor: middle;"></text></pattern><marker id="SvgjsMarker1039" markerWidth="13" markerHeight="9" refX="9.5" refY="4.5" viewBox="0 0 13 9" orient="auto" markerUnits="userSpaceOnUse" stroke-dasharray="0,0"><path id="SvgjsPath1040" d="M0,0 L13,4.5 L0,9 L0,0" fill="#323232" stroke="#323232" stroke-width="1"></path></marker><marker id="SvgjsMarker1047" markerWidth="13" markerHeight="9" refX="9.5" refY="4.5" viewBox="0 0 13 9" orient="auto" markerUnits="userSpaceOnUse" stroke-dasharray="0,0"><path id="SvgjsPath1048" d="M0,0 L13,4.5 L0,9 L0,0" fill="#323232" stroke="#323232" stroke-width="1"></path></marker><marker id="SvgjsMarker1055" markerWidth="13" markerHeight="9" refX="9.5" refY="4.5" viewBox="0 0 13 9" orient="auto" markerUnits="userSpaceOnUse" stroke-dasharray="0,0"><path id="SvgjsPath1056" d="M0,0 L13,4.5 L0,9 L0,0" fill="#323232" stroke="#323232" stroke-width="1"></path></marker><marker id="SvgjsMarker1065" markerWidth="13" markerHeight="9" refX="9.5" refY="4.5" viewBox="0 0 13 9" orient="auto" markerUnits="userSpaceOnUse" stroke-dasharray="0,0"><path id="SvgjsPath1066" d="M0,0 L13,4.5 L0,9 L0,0" fill="#323232" stroke="#323232" stroke-width="1"></path></marker><marker id="SvgjsMarker1075" markerWidth="13" markerHeight="9" refX="9.5" refY="4.5" viewBox="0 0 13 9" orient="auto" markerUnits="userSpaceOnUse" stroke-dasharray="0,0"><path id="SvgjsPath1076" d="M0,0 L13,4.5 L0,9 L0,0" fill="#323232" stroke="#323232" stroke-width="1"></path></marker><marker id="SvgjsMarker1085" markerWidth="13" markerHeight="9" refX="9.5" refY="4.5" viewBox="0 0 13 9" orient="auto" markerUnits="userSpaceOnUse" stroke-dasharray="0,0"><path id="SvgjsPath1086" d="M0,0 L13,4.5 L0,9 L0,0" fill="#323232" stroke="#323232" stroke-width="1"></path></marker></defs><rect id="svgbackgroundid" width="811" height="350" fill="transparent"></rect><rect id="SvgjsRect1009" width="811" height="350" fill="url(#pattern_mark_0)"></rect><rect id="SvgjsRect1010" width="811" height="350" fill="url(#pattern_mark_1)"></rect><g id="SvgjsG1011" transform="translate(25,25)"><path id="SvgjsPath1012" d="M 0 4Q 0 0 4 0L 75 0Q 79 0 79 4L 79 296Q 79 300 75 300L 4 300Q 0 300 0 296Z" stroke="rgba(33,41,48,1)" stroke-width="1.5" fill-opacity="1" fill="#ffffff"></path><g id="SvgjsG1013"><text id="SvgjsText1014" font-family="&quot;Comic Sans MS&quot;" text-anchor="middle" font-size="20px" width="59px" fill="#323232" font-weight="700" align="middle" lineHeight="125%" anchor="middle" family="&quot;Comic Sans MS&quot;" size="20px" weight="700" font-style="" opacity="1" y="132" transform="rotate(0)"><tspan id="SvgjsTspan1015" dy="25" x="39.5"><tspan id="SvgjsTspan1016" style="">client</tspan></tspan></text></g></g><g id="SvgjsG1017" transform="translate(479,25)"><path id="SvgjsPath1018" d="M 0 4Q 0 0 4 0L 76 0Q 80 0 80 4L 80 296Q 80 300 76 300L 4 300Q 0 300 0 296Z" stroke="rgba(33,41,48,1)" stroke-width="1.5" fill-opacity="1" fill="#ffffff"></path><g id="SvgjsG1019"><text id="SvgjsText1020" font-family="&quot;Comic Sans MS&quot;" text-anchor="middle" font-size="20px" width="60px" fill="#323232" font-weight="700" align="middle" lineHeight="125%" anchor="middle" family="&quot;Comic Sans MS&quot;" size="20px" weight="700" font-style="" opacity="1" y="132" transform="rotate(0)"><tspan id="SvgjsTspan1021" dy="25" x="40"><tspan id="SvgjsTspan1022" style="">cache</tspan></tspan></text></g></g><g id="SvgjsG1023" transform="translate(706,25)"><path id="SvgjsPath1024" d="M 0 4Q 0 0 4 0L 76 0Q 80 0 80 4L 80 296Q 80 300 76 300L 4 300Q 0 300 0 296Z" stroke="rgba(33,41,48,1)" stroke-width="1.5" fill-opacity="1" fill="#ffffff"></path><g id="SvgjsG1025"><text id="SvgjsText1026" font-family="&quot;Comic Sans MS&quot;" text-anchor="middle" font-size="20px" width="60px" fill="#323232" font-weight="700" align="middle" lineHeight="125%" anchor="middle" family="&quot;Comic Sans MS&quot;" size="20px" weight="700" font-style="" opacity="1" y="132" transform="rotate(0)"><tspan id="SvgjsTspan1027" dy="25" x="40"><tspan id="SvgjsTspan1028" style="">DB</tspan></tspan></text></g></g><g id="SvgjsG1029" transform="translate(251,25)"><path id="SvgjsPath1030" d="M 0 4Q 0 0 4 0L 77 0Q 81 0 81 4L 81 175Q 81 179 77 179L 4 179Q 0 179 0 175Z" stroke="rgba(33,41,48,1)" stroke-width="1.5" fill-opacity="1" fill="#ffffff"></path><g id="SvgjsG1031"><text id="SvgjsText1032" font-family="&quot;Comic Sans MS&quot;" text-anchor="middle" font-size="20px" width="61px" fill="#323232" font-weight="700" align="middle" lineHeight="125%" anchor="middle" family="&quot;Comic Sans MS&quot;" size="20px" weight="700" font-style="" opacity="1" y="59" transform="rotate(0)"><tspan id="SvgjsTspan1033" dy="25" x="40.5"><tspan id="SvgjsTspan1034" style="">bloom</tspan></tspan><tspan id="SvgjsTspan1035" dy="25" x="40.5"><tspan id="SvgjsTspan1036" style="">filter</tspan></tspan></text></g></g><g id="SvgjsG1037"><path id="SvgjsPath1038" d="M104.75 73L177.5 73L177.5 73L248.3 73" stroke="#323232" stroke-width="1.5" fill="none" marker-end="url(#SvgjsMarker1039)"></path><rect id="SvgjsRect1041" width="65" height="18" x="143.53673469387758" y="64" fill="#ffffff"></rect><text id="SvgjsText1042" font-family="&quot;Comic Sans MS&quot;" text-anchor="middle" font-size="13px" width="65px" fill="#323232" font-weight="400" align="top" lineHeight="16px" anchor="middle" family="&quot;Comic Sans MS&quot;" size="13px" weight="400" font-style="" opacity="1" y="61.375" transform="rotate(0)"><tspan id="SvgjsTspan1043" dy="16.25" x="176.03673469387758"><tspan id="SvgjsTspan1044" style="">❶非法请求</tspan></tspan></text></g><g id="SvgjsG1045"><path id="SvgjsPath1046" d="M250.25 165L177.5 165L177.5 165L106.69999999999999 165" stroke="#323232" stroke-width="1.5" fill="none" marker-end="url(#SvgjsMarker1047)"></path><rect id="SvgjsRect1049" width="66" height="18" x="144.98673469387754" y="156" fill="#ffffff"></rect><text id="SvgjsText1050" font-family="&quot;Comic Sans MS&quot;" text-anchor="middle" font-size="13px" width="66px" fill="#323232" font-weight="400" align="top" lineHeight="16px" anchor="middle" family="&quot;Comic Sans MS&quot;" size="13px" weight="400" font-style="" opacity="1" y="153.375" transform="rotate(0)"><tspan id="SvgjsTspan1051" dy="16.25" x="177.98673469387754"><tspan id="SvgjsTspan1052" style="">❷过滤99%</tspan></tspan></text></g><g id="SvgjsG1053"><path id="SvgjsPath1054" d="M332.75 114.5L405.5 114.5L405.5 114.5L476.29999999999995 114.5" stroke="#323232" stroke-width="1.5" fill="none" marker-end="url(#SvgjsMarker1055)"></path><rect id="SvgjsRect1057" width="95" height="34" x="357.51326530612243" y="97.5" fill="#ffffff"></rect><text id="SvgjsText1058" font-family="&quot;Comic Sans MS&quot;" text-anchor="start" font-size="13px" width="95px" fill="#323232" font-weight="400" align="top" lineHeight="16px" anchor="start" family="&quot;Comic Sans MS&quot;" size="13px" weight="400" font-style="" opacity="1" y="94.875" transform="rotate(0)"><tspan id="SvgjsTspan1059" dy="16.25" x="357.51326530612243"><tspan id="SvgjsTspan1060" style="">❷过滤器误判</tspan></tspan><tspan id="SvgjsTspan1061" dy="16.25" x="357.51326530612243"><tspan id="SvgjsTspan1062" style="">漏掉1%非法请求</tspan></tspan></text></g><g id="SvgjsG1063"><path id="SvgjsPath1064" d="M559.75 90.41353383458647L632.5 90.41353383458647L632.5 90.41353383458647L703.3 90.41353383458647" stroke="#323232" stroke-width="1.5" fill="none" marker-end="url(#SvgjsMarker1065)"></path><rect id="SvgjsRect1067" width="91" height="34" x="585.5367346938775" y="73.41353383458647" fill="#ffffff"></rect><text id="SvgjsText1068" font-family="&quot;Comic Sans MS&quot;" text-anchor="start" font-size="13px" width="91px" fill="#323232" font-weight="400" align="top" lineHeight="16px" anchor="start" family="&quot;Comic Sans MS&quot;" size="13px" weight="400" font-style="" opacity="1" y="70.78853383458647" transform="rotate(0)"><tspan id="SvgjsTspan1069" dy="16.25" x="585.5367346938775"><tspan id="SvgjsTspan1070" style="">❸缓存查询失败</tspan></tspan><tspan id="SvgjsTspan1071" dy="16.25" x="585.5367346938775"><tspan id="SvgjsTspan1072" style="">互斥查询DB</tspan></tspan></text></g><g id="SvgjsG1073"><path id="SvgjsPath1074" d="M705.25 264.09774436090225L632.5 264.09774436090225L632.5 264.09774436090225L561.7 264.09774436090225" stroke="#323232" stroke-width="1.5" fill="none" marker-end="url(#SvgjsMarker1075)"></path><rect id="SvgjsRect1077" width="96" height="34" x="583.0336734693877" y="247.09774436090225" fill="#ffffff"></rect><text id="SvgjsText1078" font-family="&quot;Comic Sans MS&quot;" text-anchor="start" font-size="13px" width="96px" fill="#323232" font-weight="400" align="top" lineHeight="16px" anchor="start" family="&quot;Comic Sans MS&quot;" size="13px" weight="400" font-style="" opacity="1" y="244.47274436090225" transform="rotate(0)"><tspan id="SvgjsTspan1079" dy="16.25" x="583.0336734693877"><tspan id="SvgjsTspan1080" style="">❹DB查询失败，</tspan></tspan><tspan id="SvgjsTspan1081" dy="16.25" x="583.0336734693877"><tspan id="SvgjsTspan1082" style="">返回NULL</tspan></tspan></text></g><g id="SvgjsG1083"><path id="SvgjsPath1084" d="M478.25 267.1052631578947L291.5 267.1052631578947L291.5 267.1052631578948L106.69999999999999 267.1052631578948" stroke="#323232" stroke-width="1.5" fill="none" marker-end="url(#SvgjsMarker1085)"></path><rect id="SvgjsRect1087" width="242" height="34" x="169.98879999999997" y="250.10526315789474" fill="#ffffff"></rect><text id="SvgjsText1088" font-family="&quot;Comic Sans MS&quot;" text-anchor="start" font-size="13px" width="242px" fill="#323232" font-weight="400" align="top" lineHeight="16px" anchor="start" family="&quot;Comic Sans MS&quot;" size="13px" weight="400" font-style="" opacity="1" y="247.48026315789474" transform="rotate(0)"><tspan id="SvgjsTspan1089" dy="16.25" x="169.98879999999997"><tspan id="SvgjsTspan1090" style="">❺返回查询失败，</tspan></tspan><tspan id="SvgjsTspan1091" dy="16.25" x="169.98879999999997"><tspan id="SvgjsTspan1092" style="">并向缓存中缓存了一个过期时间短的NULL</tspan></tspan></text></g></svg>