<svg xmlns="http://www.w3.org/2000/svg" xlink="http://www.w3.org/1999/xlink" id="mind-svg-con" version="1.1" width="646px" height="282px" style="position: absolute; left: 0px; top: 0px; width: 646px; height: 282px; background: rgb(255, 255, 255); z-index: 999;"><defs></defs><g id="svgbackgroundid"><defs></defs><rect x="0" y="0" width="646" height="282" fill="#ffffff"></rect></g><g transform="translate(-9914, -9788)" id="sdjakdjak4"><defs></defs><g class="svg-topic-con" transform="translate(0.5,0.5)"><path part="right" sub="true" id="line_e8c4031f39edf069" d="M 10011.2 9937 C 10011.2 9937 10036 9878.69921875 10156 9878.69921875 L 10268.078125 9878.69921875 L 10156 9878.69921875 C 10056 9878.69921875 10016.2 9943 10016.2 9943 L 10011.2 9937 Z" stroke="#B16FFF" fill="#B16FFF" stroke-width="2"></path><path part="right" sub="true" id="line_9d99f6cb5030dec6" d="M 10011.2 9949 C 10011.2 9949 10036 9960.8984375 10156 9960.8984375 L 10249.828125 9960.8984375 L 10156 9960.8984375 C 10056 9960.8984375 10016.2 9943 10016.2 9943 L 10011.2 9949 Z" stroke="#FFD424" fill="#FFD424" stroke-width="2"></path><path part="right" sub="true" id="line_f5fc09b07bb014fb" d="M 10011.2 9949 C 10011.2 9949 10036 10025.69921875 10156 10025.69921875 L 10260 10025.69921875 L 10156 10025.69921875 C 10056 10025.69921875 10016.2 9943 10016.2 9943 L 10011.2 9949 Z" stroke="#6A6CFF" fill="#6A6CFF" stroke-width="2"></path></g><g class="svg-connection-con" transform="translate(0.5,0.5)"></g><g class="svg-freesums-con" transform="translate(0.5,0.5)"></g><g class="svg-freebos-con" transform="translate(0.5,0.5)"></g></g><g id="f5fc09b07bb014fb"><rect x="242" y="206.796875" rx="1px" ry="1px" width="104" height="30" style="fill: transparent; stroke:none;stroke-width:0px;"></rect><g><text text-anchor="start" align="top" anchor="start" font-size="16px" font-weight="normal" fill="rgb(51, 67, 90)" style="font-size:16px;font-family:微软雅黑;color:#33435A;font-style:normal;text-align:left;font-weight:normal;"><tspan x="262" y="227"><tspan dx="0">循环控制</tspan></tspan></text></g><line x1="242" y1="237" x2="346" y2="237" style="stroke:rgb(106, 108, 255);stroke-width:2"></line></g><g id="c7864e89dcf688f7"><rect x="402" y="194" rx="1px" ry="1px" width="66" height="22" style="fill: transparent; stroke:none;stroke-width:0px;"></rect><g><text text-anchor="start" align="top" anchor="start" font-size="12px" font-weight="normal" fill="rgb(51, 67, 90)" style="font-size:12px;font-family:微软雅黑;color:#33435A;font-style:normal;text-align:left;font-weight:normal;"><tspan x="411" y="207.16"><tspan dx="0">结束循环</tspan></tspan></text></g></g><g id="14a41551ff0aaefb"><rect x="524" y="194" rx="1px" ry="1px" width="50" height="22" style="fill: transparent; stroke:none;stroke-width:0px;"></rect><g><text text-anchor="start" align="top" anchor="start" font-size="12px" font-weight="normal" fill="rgb(51, 67, 90)" style="font-size:12px;font-family:微软雅黑;color:#33435A;font-style:normal;text-align:left;font-weight:normal;"><tspan x="533" y="207.16"><tspan dx="0">break</tspan></tspan></text></g></g><g id="f1f0414bbe6e3977"><rect x="402" y="228" rx="1px" ry="1px" width="90" height="22" style="fill: transparent; stroke:none;stroke-width:0px;"></rect><g><text text-anchor="start" align="top" anchor="start" font-size="12px" font-weight="normal" fill="rgb(51, 67, 90)" style="font-size:12px;font-family:微软雅黑;color:#33435A;font-style:normal;text-align:left;font-weight:normal;"><tspan x="411" y="241.16"><tspan dx="0">跳出一次循环</tspan></tspan></text></g></g><g id="d553108fb39c3573"><rect x="548" y="228" rx="1px" ry="1px" width="68" height="22" style="fill: transparent; stroke:none;stroke-width:0px;"></rect><g><text text-anchor="start" align="top" anchor="start" font-size="12px" font-weight="normal" fill="rgb(51, 67, 90)" style="font-size:12px;font-family:微软雅黑;color:#33435A;font-style:normal;text-align:left;font-weight:normal;"><tspan x="557" y="241.16"><tspan dx="0">continue</tspan></tspan></text></g></g><g id="9d99f6cb5030dec6"><rect x="242" y="142" rx="1px" ry="1px" width="94" height="30" style="fill: transparent; stroke:none;stroke-width:0px;"></rect><g><text text-anchor="start" align="top" anchor="start" font-size="16px" font-weight="normal" fill="rgb(51, 67, 90)" style="font-size:16px;font-family:微软雅黑;color:#33435A;font-style:normal;text-align:left;font-weight:normal;"><tspan x="262" y="162"><tspan dx="0">for循环</tspan></tspan></text></g><line x1="242" y1="173" x2="336" y2="173" style="stroke:rgb(255, 212, 36);stroke-width:2"></line></g><g id="5997da64524f16fc"><rect x="391.828125" y="146.203125" rx="1px" ry="1px" width="90" height="22" style="fill: transparent; stroke:none;stroke-width:0px;"></rect><g><text text-anchor="start" align="top" anchor="start" font-size="12px" font-weight="normal" fill="rgb(51, 67, 90)" style="font-size:12px;font-family:微软雅黑;color:#33435A;font-style:normal;text-align:left;font-weight:normal;"><tspan x="401" y="159.16"><tspan dx="0">循环指定次数</tspan></tspan></text></g></g><g id="e8c4031f39edf069"><rect x="242" y="59.796875" rx="1px" ry="1px" width="112" height="30" style="fill: transparent; stroke:none;stroke-width:0px;"></rect><g><text text-anchor="start" align="top" anchor="start" font-size="16px" font-weight="normal" fill="rgb(51, 67, 90)" style="font-size:16px;font-family:微软雅黑;color:#33435A;font-style:normal;text-align:left;font-weight:normal;"><tspan x="262" y="80"><tspan dx="0">while循环</tspan></tspan></text></g><line x1="242" y1="90" x2="354" y2="90" style="stroke:rgb(177, 111, 255);stroke-width:2"></line></g><g id="034c400bc84a710e"><rect x="410.078125" y="30" rx="1px" ry="1px" width="54" height="22" style="fill: transparent; stroke:none;stroke-width:0px;"></rect><g><text text-anchor="start" align="top" anchor="start" font-size="12px" font-weight="normal" fill="rgb(51, 67, 90)" style="font-size:12px;font-family:微软雅黑;color:#33435A;font-style:normal;text-align:left;font-weight:normal;"><tspan x="419" y="43.16"><tspan dx="0">死循环</tspan></tspan></text></g></g><g id="6450cb4138c95d58"><rect x="410.078125" y="64" rx="1px" ry="1px" width="66" height="22" style="fill: transparent; stroke:none;stroke-width:0px;"></rect><g><text text-anchor="start" align="top" anchor="start" font-size="12px" font-weight="normal" fill="rgb(51, 67, 90)" style="font-size:12px;font-family:微软雅黑;color:#33435A;font-style:normal;text-align:left;font-weight:normal;"><tspan x="419" y="77.16"><tspan dx="0">条件循环</tspan></tspan></text></g></g><g id="329a6f93150bf7f6"><rect x="410.078125" y="98" rx="1px" ry="1px" width="66" height="22" style="fill: transparent; stroke:none;stroke-width:0px;"></rect><g><text text-anchor="start" align="top" anchor="start" font-size="12px" font-weight="normal" fill="rgb(51, 67, 90)" style="font-size:12px;font-family:微软雅黑;color:#33435A;font-style:normal;text-align:left;font-weight:normal;"><tspan x="419" y="111.16"><tspan dx="0">循环变量</tspan></tspan></text></g></g><g transform="translate(242, 194)" id="sdjakdjak0"><g id="subline_f5fc09b07bb014fb" transform="translate(0.5, 0.5)"><path id="line_c7864e89dcf688f7" d="M 104 43.69921875 C 140 43.69921875 132 22.5 160 22.5 L 226 22.5" p="f5fc09b07bb014fb" stroke="#6A6CFF" fill="none" stroke-linecap="square" stroke-width="2"></path><path id="line_14a41551ff0aaefb" d="M 226 22.5 C 262 22.5 254 22.5 282 22.5 L 332 22.5" p="c7864e89dcf688f7" stroke="#6A6CFF" fill="none" stroke-linecap="square" stroke-width="2"></path><path id="line_f1f0414bbe6e3977" d="M 104 43.69921875 C 140 43.69921875 132 56.5 160 56.5 L 250 56.5" p="f5fc09b07bb014fb" stroke="#6A6CFF" fill="none" stroke-linecap="square" stroke-width="2"></path><path id="line_d553108fb39c3573" d="M 250 56.5 C 286 56.5 278 56.5 306 56.5 L 374 56.5" p="f1f0414bbe6e3977" stroke="#6A6CFF" fill="none" stroke-linecap="square" stroke-width="2"></path></g><g transform="translate(0.5,0.5)"></g><g class="svg-summary-con" transform="translate(0.5,0.5)"></g><g class="svg-boundary-con" transform="translate(0.5,0.5)"></g></g><g transform="translate(242, 142)" id="sdjakdjak1"><g id="subline_9d99f6cb5030dec6" transform="translate(0.5, 0.5)"><path id="line_5997da64524f16fc" d="M 93.828125 30.8984375 C 129.828125 30.8984375 121.828125 26.703125 149.828125 26.703125 L 239.828125 26.703125" p="9d99f6cb5030dec6" stroke="#FFD424" fill="none" stroke-linecap="square" stroke-width="2"></path></g><g transform="translate(0.5,0.5)"></g><g class="svg-summary-con" transform="translate(0.5,0.5)"></g><g class="svg-boundary-con" transform="translate(0.5,0.5)"></g></g><g transform="translate(242, 30)" id="sdjakdjak2"><g id="subline_e8c4031f39edf069" transform="translate(0.5, 0.5)"><path id="line_034c400bc84a710e" d="M 112.078125 60.69921875 C 148.078125 60.69921875 140.078125 22.5 168.078125 22.5 L 222.078125 22.5" p="e8c4031f39edf069" stroke="#B16FFF" fill="none" stroke-linecap="square" stroke-width="2"></path><path id="line_6450cb4138c95d58" d="M 112.078125 60.69921875 C 148.078125 60.69921875 140.078125 56.5 168.078125 56.5 L 234.078125 56.5" p="e8c4031f39edf069" stroke="#B16FFF" fill="none" stroke-linecap="square" stroke-width="2"></path><path id="line_329a6f93150bf7f6" d="M 112.078125 60.69921875 C 148.078125 60.69921875 140.078125 90.5 168.078125 90.5 L 234.078125 90.5" p="e8c4031f39edf069" stroke="#B16FFF" fill="none" stroke-linecap="square" stroke-width="2"></path></g><g transform="translate(0.5,0.5)"></g><g class="svg-summary-con" transform="translate(0.5,0.5)"></g><g class="svg-boundary-con" transform="translate(0.5,0.5)"></g></g><g transform="translate(30, 128)" id="sdjakdjak3"><g id="subline_root" transform="translate(0.5, 0.5)"></g><g transform="translate(0.5,0.5)"></g><g class="svg-summary-con" transform="translate(0.5,0.5)"></g><g class="svg-boundary-con" transform="translate(0.5,0.5)"></g></g><g id="root"><rect x="30" y="127.9" rx="6px" ry="6px" width="113" height="56" stroke="rgba(0, 0, 0, 0.1)" style="fill:rgba(0, 0, 0, 0.1);"></rect><rect x="30" y="128" rx="6px" ry="6px" width="112" height="54" style="fill: #ffffff; stroke:none;stroke-width:0px;"></rect><g><text text-anchor="start" align="top" anchor="start" font-size="24px" font-weight="normal" fill="rgb(51, 67, 90)" style="font-size:24px;font-family:微软雅黑;color:#33435A;font-style:normal;text-align:left;font-weight:normal;"><tspan x="62" y="162"><tspan dx="0">循环</tspan></tspan></text></g></g></svg>