<svg id="SvgjsSvg1006" width="1005.7142857142858" height="565.8571428571429" xmlns="http://www.w3.org/2000/svg" version="1.1" xmlns:xlink="http://www.w3.org/1999/xlink" xmlns:svgjs="http://svgjs.com/svgjs"><defs id="SvgjsDefs1007"><pattern patternUnits="userSpaceOnUse" id="pattern_mark_0" width="300" height="300"><text x="150" y="100" fill="rgba(229,229,229,0.8)" font-size="18" transform="rotate(-45, 150, 150)" style="dominant-baseline: middle; text-anchor: middle;"></text></pattern><pattern patternUnits="userSpaceOnUse" id="pattern_mark_1" width="300" height="300"><text x="150" y="200" fill="rgba(229,229,229,0.8)" font-size="18" transform="rotate(-45, 150, 150)" style="dominant-baseline: middle; text-anchor: middle;"></text></pattern><marker id="SvgjsMarker1019" markerWidth="14" markerHeight="10" refX="10" refY="5" viewBox="0 0 14 10" orient="auto" markerUnits="userSpaceOnUse" stroke-dasharray="0,0"><path id="SvgjsPath1020" d="M0,0 L14,5 L0,10 L0,0" fill="#5b79e8" stroke="#5b79e8" stroke-width="1"></path></marker><marker id="SvgjsMarker1023" markerWidth="14" markerHeight="10" refX="10" refY="5" viewBox="0 0 14 10" orient="auto" markerUnits="userSpaceOnUse" stroke-dasharray="0,0"><path id="SvgjsPath1024" d="M0,0 L14,5 L0,10 L0,0" fill="#5b79e8" stroke="#5b79e8" stroke-width="1"></path></marker><marker id="SvgjsMarker1027" markerWidth="14" markerHeight="10" refX="10" refY="5" viewBox="0 0 14 10" orient="auto" markerUnits="userSpaceOnUse" stroke-dasharray="0,0"><path id="SvgjsPath1028" d="M0,0 L14,5 L0,10 L0,0" fill="#5b79e8" stroke="#5b79e8" stroke-width="1"></path></marker><marker id="SvgjsMarker1031" markerWidth="14" markerHeight="10" refX="10" refY="5" viewBox="0 0 14 10" orient="auto" markerUnits="userSpaceOnUse" stroke-dasharray="0,0"><path id="SvgjsPath1032" d="M0,0 L14,5 L0,10 L0,0" fill="#5b79e8" stroke="#5b79e8" stroke-width="1"></path></marker><marker id="SvgjsMarker1035" markerWidth="14" markerHeight="10" refX="10" refY="5" viewBox="0 0 14 10" orient="auto" markerUnits="userSpaceOnUse" stroke-dasharray="0,0"><path id="SvgjsPath1036" d="M0,0 L14,5 L0,10 L0,0" fill="#5b79e8" stroke="#5b79e8" stroke-width="1"></path></marker><marker id="SvgjsMarker1039" markerWidth="14" markerHeight="10" refX="10" refY="5" viewBox="0 0 14 10" orient="auto" markerUnits="userSpaceOnUse" stroke-dasharray="0,0"><path id="SvgjsPath1040" d="M0,0 L14,5 L0,10 L0,0" fill="#5b79e8" stroke="#5b79e8" stroke-width="1"></path></marker><marker id="SvgjsMarker1047" markerWidth="14" markerHeight="10" refX="10" refY="5" viewBox="0 0 14 10" orient="auto" markerUnits="userSpaceOnUse" stroke-dasharray="0,0"><path id="SvgjsPath1048" d="M0,0 L14,5 L0,10 L0,0" fill="#5b79e8" stroke="#5b79e8" stroke-width="1"></path></marker><marker id="SvgjsMarker1051" markerWidth="14" markerHeight="10" refX="10" refY="5" viewBox="0 0 14 10" orient="auto" markerUnits="userSpaceOnUse" stroke-dasharray="0,0"><path id="SvgjsPath1052" d="M0,0 L14,5 L0,10 L0,0" fill="#5b79e8" stroke="#5b79e8" stroke-width="1"></path></marker><marker id="SvgjsMarker1055" markerWidth="14" markerHeight="10" refX="10" refY="5" viewBox="0 0 14 10" orient="auto" markerUnits="userSpaceOnUse" stroke-dasharray="0,0"><path id="SvgjsPath1056" d="M0,0 L14,5 L0,10 L0,0" fill="#5b79e8" stroke="#5b79e8" stroke-width="1"></path></marker><marker id="SvgjsMarker1059" markerWidth="14" markerHeight="10" refX="10" refY="5" viewBox="0 0 14 10" orient="auto" markerUnits="userSpaceOnUse" stroke-dasharray="0,0"><path id="SvgjsPath1060" d="M0,0 L14,5 L0,10 L0,0" fill="#5b79e8" stroke="#5b79e8" stroke-width="1"></path></marker><marker id="SvgjsMarker1063" markerWidth="14" markerHeight="10" refX="10" refY="5" viewBox="0 0 14 10" orient="auto" markerUnits="userSpaceOnUse" stroke-dasharray="0,0"><path id="SvgjsPath1064" d="M0,0 L14,5 L0,10 L0,0" fill="#5b79e8" stroke="#5b79e8" stroke-width="1"></path></marker><marker id="SvgjsMarker1067" markerWidth="14" markerHeight="10" refX="10" refY="5" viewBox="0 0 14 10" orient="auto" markerUnits="userSpaceOnUse" stroke-dasharray="0,0"><path id="SvgjsPath1068" d="M0,0 L14,5 L0,10 L0,0" fill="#5b79e8" stroke="#5b79e8" stroke-width="1"></path></marker><marker id="SvgjsMarker1075" markerWidth="14" markerHeight="10" refX="10" refY="5" viewBox="0 0 14 10" orient="auto" markerUnits="userSpaceOnUse" stroke-dasharray="0,0"><path id="SvgjsPath1076" d="M0,0 L14,5 L0,10 L0,0" fill="#e9d66f" stroke="#e9d66f" stroke-width="1"></path></marker><marker id="SvgjsMarker1079" markerWidth="14" markerHeight="10" refX="10" refY="5" viewBox="0 0 14 10" orient="auto" markerUnits="userSpaceOnUse" stroke-dasharray="0,0"><path id="SvgjsPath1080" d="M0,0 L14,5 L0,10 L0,0" fill="#5b79e8" stroke="#5b79e8" stroke-width="1"></path></marker><marker id="SvgjsMarker1083" markerWidth="14" markerHeight="10" refX="10" refY="5" viewBox="0 0 14 10" orient="auto" markerUnits="userSpaceOnUse" stroke-dasharray="0,0"><path id="SvgjsPath1084" d="M0,0 L14,5 L0,10 L0,0" fill="#5b79e8" stroke="#5b79e8" stroke-width="1"></path></marker><marker id="SvgjsMarker1087" markerWidth="14" markerHeight="10" refX="10" refY="5" viewBox="0 0 14 10" orient="auto" markerUnits="userSpaceOnUse" stroke-dasharray="0,0"><path id="SvgjsPath1088" d="M0,0 L14,5 L0,10 L0,0" fill="#5b79e8" stroke="#5b79e8" stroke-width="1"></path></marker><marker id="SvgjsMarker1091" markerWidth="14" markerHeight="10" refX="10" refY="5" viewBox="0 0 14 10" orient="auto" markerUnits="userSpaceOnUse" stroke-dasharray="0,0"><path id="SvgjsPath1092" d="M0,0 L14,5 L0,10 L0,0" fill="#5b79e8" stroke="#5b79e8" stroke-width="1"></path></marker><marker id="SvgjsMarker1095" markerWidth="14" markerHeight="10" refX="10" refY="5" viewBox="0 0 14 10" orient="auto" markerUnits="userSpaceOnUse" stroke-dasharray="0,0"><path id="SvgjsPath1096" d="M0,0 L14,5 L0,10 L0,0" fill="#5b79e8" stroke="#5b79e8" stroke-width="1"></path></marker><marker id="SvgjsMarker1099" markerWidth="14" markerHeight="10" refX="10" refY="5" viewBox="0 0 14 10" orient="auto" markerUnits="userSpaceOnUse" stroke-dasharray="0,0"><path id="SvgjsPath1100" d="M0,0 L14,5 L0,10 L0,0" fill="#5b79e8" stroke="#5b79e8" stroke-width="1"></path></marker><marker id="SvgjsMarker1107" markerWidth="14" markerHeight="10" refX="10" refY="5" viewBox="0 0 14 10" orient="auto" markerUnits="userSpaceOnUse" stroke-dasharray="0,0"><path id="SvgjsPath1108" d="M0,0 L14,5 L0,10 L0,0" fill="#e9d66f" stroke="#e9d66f" stroke-width="1"></path></marker><marker id="SvgjsMarker1111" markerWidth="14" markerHeight="10" refX="10" refY="5" viewBox="0 0 14 10" orient="auto" markerUnits="userSpaceOnUse" stroke-dasharray="0,0"><path id="SvgjsPath1112" d="M0,0 L14,5 L0,10 L0,0" fill="#e9d66f" stroke="#e9d66f" stroke-width="1"></path></marker><marker id="SvgjsMarker1115" markerWidth="14" markerHeight="10" refX="10" refY="5" viewBox="0 0 14 10" orient="auto" markerUnits="userSpaceOnUse" stroke-dasharray="0,0"><path id="SvgjsPath1116" d="M0,0 L14,5 L0,10 L0,0" fill="#e9d66f" stroke="#e9d66f" stroke-width="1"></path></marker><marker id="SvgjsMarker1119" markerWidth="14" markerHeight="10" refX="10" refY="5" viewBox="0 0 14 10" orient="auto" markerUnits="userSpaceOnUse" stroke-dasharray="0,0"><path id="SvgjsPath1120" d="M0,0 L14,5 L0,10 L0,0" fill="#e9d66f" stroke="#e9d66f" stroke-width="1"></path></marker><marker id="SvgjsMarker1123" markerWidth="14" markerHeight="10" refX="10" refY="5" viewBox="0 0 14 10" orient="auto" markerUnits="userSpaceOnUse" stroke-dasharray="0,0"><path id="SvgjsPath1124" d="M0,0 L14,5 L0,10 L0,0" fill="#e9d66f" stroke="#e9d66f" stroke-width="1"></path></marker><marker id="SvgjsMarker1127" markerWidth="14" markerHeight="10" refX="10" refY="5" viewBox="0 0 14 10" orient="auto" markerUnits="userSpaceOnUse" stroke-dasharray="0,0"><path id="SvgjsPath1128" d="M0,0 L14,5 L0,10 L0,0" fill="#e9d66f" stroke="#e9d66f" stroke-width="1"></path></marker><marker id="SvgjsMarker1131" markerWidth="14" markerHeight="10" refX="10" refY="5" viewBox="0 0 14 10" orient="auto" markerUnits="userSpaceOnUse" stroke-dasharray="0,0"><path id="SvgjsPath1132" d="M0,0 L14,5 L0,10 L0,0" fill="#e9d66f" stroke="#e9d66f" stroke-width="1"></path></marker><marker id="SvgjsMarker1135" markerWidth="14" markerHeight="10" refX="10" refY="5" viewBox="0 0 14 10" orient="auto" markerUnits="userSpaceOnUse" stroke-dasharray="0,0"><path id="SvgjsPath1136" d="M0,0 L14,5 L0,10 L0,0" fill="#5b79e8" stroke="#5b79e8" stroke-width="1"></path></marker><marker id="SvgjsMarker1139" markerWidth="14" markerHeight="10" refX="10" refY="5" viewBox="0 0 14 10" orient="auto" markerUnits="userSpaceOnUse" stroke-dasharray="0,0"><path id="SvgjsPath1140" d="M0,0 L14,5 L0,10 L0,0" fill="#5b79e8" stroke="#5b79e8" stroke-width="1"></path></marker><marker id="SvgjsMarker1143" markerWidth="14" markerHeight="10" refX="10" refY="5" viewBox="0 0 14 10" orient="auto" markerUnits="userSpaceOnUse" stroke-dasharray="0,0"><path id="SvgjsPath1144" d="M0,0 L14,5 L0,10 L0,0" fill="#e9d66f" stroke="#e9d66f" stroke-width="1"></path></marker></defs><rect id="svgbackgroundid" width="1005.7142857142858" height="565.8571428571429" fill="transparent"></rect><rect id="SvgjsRect1009" width="1005.7142857142858" height="565.8571428571429" fill="url(#pattern_mark_0)"></rect><rect id="SvgjsRect1010" width="1005.7142857142858" height="565.8571428571429" fill="url(#pattern_mark_1)"></rect><g id="SvgjsG1011" transform="translate(25,25)"><path id="SvgjsPath1012" d="M 0 0L 955.7142857142858 0L 955.7142857142858 515.8571428571429L 0 515.8571428571429Z" stroke="rgba(33,41,48,1)" stroke-width="1.5" fill-opacity="1" fill="#f2f2f2"></path><g id="SvgjsG1013"><text id="SvgjsText1014" font-family="&quot;Microsoft YaHei&quot;, 微软雅黑, Arial" text-anchor="middle" font-size="15px" width="936px" fill="#000000" font-weight="700" align="bottom" lineHeight="125%" anchor="middle" family="&quot;Microsoft YaHei&quot;, 微软雅黑, Arial" size="15px" weight="700" font-style="" opacity="1" y="493.9821428571429" transform="rotate(0)"><tspan id="SvgjsTspan1015" dy="18.75" x="478"><tspan id="SvgjsTspan1016" style="">TYPES OF JAVA GARBAGE COLLECTORS</tspan></tspan></text></g></g><g id="SvgjsG1017"><path id="SvgjsPath1018" d="M379.25840336134445 86.14285714285711L379.25840336134445 153.6428571428571L379.25840336134445 153.6428571428571L379.25840336134445 221.1428571428571" stroke="#5b79e8" stroke-width="2" fill="none" marker-end="url(#SvgjsMarker1019)"></path></g><g id="SvgjsG1021"><path id="SvgjsPath1022" d="M399.25840336134445 86.14285714285711L399.25840336134445 153.6428571428571L399.25840336134445 153.6428571428571L399.25840336134445 221.1428571428571" stroke="#5b79e8" stroke-width="2" fill="none" marker-end="url(#SvgjsMarker1023)"></path></g><g id="SvgjsG1025"><path id="SvgjsPath1026" d="M419.25840336134445 86.14285714285711L419.25840336134445 153.6428571428571L419.25840336134445 153.6428571428571L419.25840336134445 221.1428571428571" stroke="#5b79e8" stroke-width="2" fill="none" marker-end="url(#SvgjsMarker1027)"></path></g><g id="SvgjsG1029"><path id="SvgjsPath1030" d="M379.75840336134445 298.80482897384303L379.75840336134445 398.9738430583501L379.75840336134445 398.9738430583501L379.75840336134445 499.1428571428571" stroke="#5b79e8" stroke-width="2" fill="none" marker-end="url(#SvgjsMarker1031)"></path></g><g id="SvgjsG1033"><path id="SvgjsPath1034" d="M399.75840336134445 298.80482897384303L399.75840336134445 398.9738430583501L399.75840336134445 398.9738430583501L399.75840336134445 499.1428571428571" stroke="#5b79e8" stroke-width="2" fill="none" marker-end="url(#SvgjsMarker1035)"></path></g><g id="SvgjsG1037"><path id="SvgjsPath1038" d="M419.75840336134445 298.80482897384303L419.75840336134445 398.9738430583501L419.75840336134445 398.9738430583501L419.75840336134445 499.1428571428571" stroke="#5b79e8" stroke-width="2" fill="none" marker-end="url(#SvgjsMarker1039)"></path></g><g id="SvgjsG1041"><path id="SvgjsPath1042" d="M373.25840336134445 225.1428571428571L399.75840336134445 225.1428571428571L399.75840336134445 225.1428571428571L426.25840336134445 225.1428571428571" stroke="#e9d66f" stroke-width="2" fill="none"></path></g><g id="SvgjsG1043"><path id="SvgjsPath1044" d="M373.5525210084033 297.84873949579827L400.0525210084033 297.84873949579827L400.0525210084033 297.84873949579827L426.5525210084033 297.84873949579827" stroke="#e9d66f" stroke-width="2" fill="none"></path></g><g id="SvgjsG1045"><path id="SvgjsPath1046" d="M616.199254068716 86.14285714285711L616.199254068716 153.6428571428571L616.199254068716 153.6428571428571L616.199254068716 221.1428571428571" stroke="#5b79e8" stroke-width="2" fill="none" marker-end="url(#SvgjsMarker1047)"></path></g><g id="SvgjsG1049"><path id="SvgjsPath1050" d="M636.199254068716 86.14285714285711L636.199254068716 153.6428571428571L636.199254068716 153.6428571428571L636.199254068716 221.1428571428571" stroke="#5b79e8" stroke-width="2" fill="none" marker-end="url(#SvgjsMarker1051)"></path></g><g id="SvgjsG1053"><path id="SvgjsPath1054" d="M656.199254068716 86.14285714285711L656.199254068716 153.6428571428571L656.199254068716 153.6428571428571L656.199254068716 221.1428571428571" stroke="#5b79e8" stroke-width="2" fill="none" marker-end="url(#SvgjsMarker1055)"></path></g><g id="SvgjsG1057"><path id="SvgjsPath1058" d="M616.699254068716 363.6833482210941L616.699254068716 432.30466894703585L616.699254068716 432.30466894703585L616.699254068716 500.9259896729776" stroke="#5b79e8" stroke-width="2" fill="none" marker-end="url(#SvgjsMarker1059)"></path></g><g id="SvgjsG1061"><path id="SvgjsPath1062" d="M636.699254068716 363.6833482210941L636.699254068716 432.30466894703585L636.699254068716 432.30466894703585L636.699254068716 500.9259896729776" stroke="#5b79e8" stroke-width="2" fill="none" marker-end="url(#SvgjsMarker1063)"></path></g><g id="SvgjsG1065"><path id="SvgjsPath1066" d="M656.699254068716 363.6833482210941L656.699254068716 432.30466894703585L656.699254068716 432.30466894703585L656.699254068716 500.9259896729776" stroke="#5b79e8" stroke-width="2" fill="none" marker-end="url(#SvgjsMarker1067)"></path></g><g id="SvgjsG1069"><path id="SvgjsPath1070" d="M610.199254068716 225.1428571428571L636.699254068716 225.1428571428571L636.699254068716 225.1428571428571L663.199254068716 225.1428571428571" stroke="#e9d66f" stroke-width="2" fill="none"></path></g><g id="SvgjsG1071"><path id="SvgjsPath1072" d="M610.4017857142857 257.9704433497537L636.9017857142857 257.9704433497537L636.9017857142857 257.9704433497537L663.4017857142857 257.9704433497537" stroke="#e9d66f" stroke-width="2" fill="none"></path></g><g id="SvgjsG1073"><path id="SvgjsPath1074" d="M636.4017857142857 225.1428571428571L636.4017857142857 239.2807881773399L636.4017857142857 239.2807881773399L636.4017857142857 253.41871921182263" stroke="#e9d66f" stroke-width="2" fill="none" marker-end="url(#SvgjsMarker1075)"></path></g><g id="SvgjsG1077"><path id="SvgjsPath1078" d="M140.52678571428567 86.14285714285711L140.52678571428567 153.6428571428571L140.52678571428567 153.6428571428571L140.52678571428567 221.1428571428571" stroke="#5b79e8" stroke-width="2" fill="none" marker-end="url(#SvgjsMarker1079)"></path></g><g id="SvgjsG1081"><path id="SvgjsPath1082" d="M160.52678571428567 86.14285714285711L160.52678571428567 153.6428571428571L160.52678571428567 153.6428571428571L160.52678571428567 221.1428571428571" stroke="#5b79e8" stroke-width="2" fill="none" marker-end="url(#SvgjsMarker1083)"></path></g><g id="SvgjsG1085"><path id="SvgjsPath1086" d="M180.52678571428567 86.14285714285711L180.52678571428567 153.6428571428571L180.52678571428567 153.6428571428571L180.52678571428567 221.1428571428571" stroke="#5b79e8" stroke-width="2" fill="none" marker-end="url(#SvgjsMarker1087)"></path></g><g id="SvgjsG1089"><path id="SvgjsPath1090" d="M140.52678571428567 364.1428571428571L140.52678571428567 431.6428571428571L140.52678571428567 431.6428571428571L140.52678571428567 499.1428571428571" stroke="#5b79e8" stroke-width="2" fill="none" marker-end="url(#SvgjsMarker1091)"></path></g><g id="SvgjsG1093"><path id="SvgjsPath1094" d="M160.52678571428567 364.1428571428571L160.52678571428567 431.6428571428571L160.52678571428567 431.6428571428571L160.52678571428567 499.1428571428571" stroke="#5b79e8" stroke-width="2" fill="none" marker-end="url(#SvgjsMarker1095)"></path></g><g id="SvgjsG1097"><path id="SvgjsPath1098" d="M180.52678571428567 364.1428571428571L180.52678571428567 431.6428571428571L180.52678571428567 431.6428571428571L180.52678571428567 499.1428571428571" stroke="#5b79e8" stroke-width="2" fill="none" marker-end="url(#SvgjsMarker1099)"></path></g><g id="SvgjsG1101"><path id="SvgjsPath1102" d="M134.52678571428567 225.1428571428571L161.02678571428567 225.1428571428571L161.02678571428567 225.1428571428571L187.52678571428567 225.1428571428571" stroke="#e9d66f" stroke-width="2" fill="none"></path></g><g id="SvgjsG1103"><path id="SvgjsPath1104" d="M134.52678571428567 363.1428571428571L161.02678571428567 363.1428571428571L161.02678571428567 363.1428571428571L187.52678571428567 363.1428571428571" stroke="#e9d66f" stroke-width="2" fill="none"></path></g><g id="SvgjsG1105"><path id="SvgjsPath1106" d="M160.52678571428567 225.1428571428571L160.52678571428567 292.6428571428571L160.52678571428567 292.6428571428571L160.52678571428567 360.1428571428571" stroke="#e9d66f" stroke-width="2" fill="none" marker-end="url(#SvgjsMarker1107)"></path></g><g id="SvgjsG1109"><path id="SvgjsPath1110" d="M379.75840336134445 227.07101529136236L379.75840336134445 260.0751136520181L379.75840336134445 260.0751136520181L379.75840336134445 293.07921201267385" stroke="#e9d66f" stroke-width="2" fill="none" marker-end="url(#SvgjsMarker1111)"></path></g><g id="SvgjsG1113"><path id="SvgjsPath1114" d="M399.75840336134445 227.07101529136236L399.75840336134445 260.0751136520181L399.75840336134445 260.0751136520181L399.75840336134445 293.07921201267385" stroke="#e9d66f" stroke-width="2" fill="none" marker-end="url(#SvgjsMarker1115)"></path></g><g id="SvgjsG1117"><path id="SvgjsPath1118" d="M419.75840336134445 227.07101529136236L419.75840336134445 260.0751136520181L419.75840336134445 260.0751136520181L419.75840336134445 293.07921201267385" stroke="#e9d66f" stroke-width="2" fill="none" marker-end="url(#SvgjsMarker1119)"></path></g><g id="SvgjsG1121"><path id="SvgjsPath1122" d="M616.699254068716 335.52260397830014L616.699254068716 346.5385358857642L616.699254068716 346.5385358857642L616.699254068716 357.5544677932282" stroke="#e9d66f" stroke-width="2" fill="none" marker-end="url(#SvgjsMarker1123)"></path></g><g id="SvgjsG1125"><path id="SvgjsPath1126" d="M636.699254068716 335.52260397830014L636.699254068716 346.5385358857642L636.699254068716 346.5385358857642L636.699254068716 357.5544677932282" stroke="#e9d66f" stroke-width="2" fill="none" marker-end="url(#SvgjsMarker1127)"></path></g><g id="SvgjsG1129"><path id="SvgjsPath1130" d="M656.699254068716 335.52260397830014L656.699254068716 346.5385358857642L656.699254068716 346.5385358857642L656.699254068716 357.5544677932282" stroke="#e9d66f" stroke-width="2" fill="none" marker-end="url(#SvgjsMarker1131)"></path></g><g id="SvgjsG1133"><path id="SvgjsPath1134" d="M616.699254068716 258.42133815551534L616.699254068716 293.69720022448087L616.699254068716 293.69720022448087L616.699254068716 328.9730622934464" stroke="#5b79e8" stroke-width="2" fill="none" marker-end="url(#SvgjsMarker1135)"></path></g><g id="SvgjsG1137"><path id="SvgjsPath1138" d="M636.699254068716 258.42133815551534L636.699254068716 293.69720022448087L636.699254068716 293.69720022448087L636.699254068716 328.9730622934464" stroke="#5b79e8" stroke-width="2" fill="none" marker-end="url(#SvgjsMarker1139)"></path></g><g id="SvgjsG1141"><path id="SvgjsPath1142" d="M656.699254068716 258.42133815551534L656.699254068716 293.69720022448087L656.699254068716 293.69720022448087L656.699254068716 328.9730622934464" stroke="#e9d66f" stroke-width="2" fill="none" marker-end="url(#SvgjsMarker1143)"></path></g><g id="SvgjsG1145"><path id="SvgjsPath1146" d="M609.8827983725134 334.29955727380434L636.3827983725134 334.29955727380434L636.3827983725134 334.29955727380434L662.8827983725134 334.29955727380434" stroke="#e9d66f" stroke-width="2" fill="none"></path></g><g id="SvgjsG1147"><path id="SvgjsPath1148" d="M609.9967224231464 362.5274053750701L636.4967224231464 362.5274053750701L636.4967224231464 362.5274053750701L662.9967224231464 362.5274053750701" stroke="#e9d66f" stroke-width="2" fill="none"></path></g><g id="SvgjsG1149" transform="translate(807,243.85714285714283)"><path id="SvgjsPath1150" d="M 0 0L 20 0L 20 20L 0 20Z" stroke="none" fill-opacity="1" fill="#7985ec"></path><g id="SvgjsG1151"><text id="SvgjsText1152" font-family="&quot;Microsoft YaHei&quot;, 微软雅黑, Arial" text-anchor="middle" font-size="13px" width="0px" fill="#323232" font-weight="400" align="middle" lineHeight="125%" anchor="middle" family="&quot;Microsoft YaHei&quot;, 微软雅黑, Arial" size="13px" weight="400" font-style="" opacity="1" y="-0.625" transform="rotate(0)"></text></g></g><g id="SvgjsG1153" transform="translate(847,243.85714285714283)"><path id="SvgjsPath1154" d="M 0 0L 20 0L 20 20L 0 20Z" stroke="none" fill-opacity="1" fill="#7985ec"></path><g id="SvgjsG1155"><text id="SvgjsText1156" font-family="&quot;Microsoft YaHei&quot;, 微软雅黑, Arial" text-anchor="middle" font-size="13px" width="0px" fill="#323232" font-weight="400" align="middle" lineHeight="125%" anchor="middle" family="&quot;Microsoft YaHei&quot;, 微软雅黑, Arial" size="13px" weight="400" font-style="" opacity="1" y="-0.625" transform="rotate(0)"></text></g></g><g id="SvgjsG1157" transform="translate(887,243.85714285714283)"><path id="SvgjsPath1158" d="M 0 0L 20 0L 20 20L 0 20Z" stroke="none" fill-opacity="1" fill="#7985ec"></path><g id="SvgjsG1159"><text id="SvgjsText1160" font-family="&quot;Microsoft YaHei&quot;, 微软雅黑, Arial" text-anchor="middle" font-size="13px" width="0px" fill="#323232" font-weight="400" align="middle" lineHeight="125%" anchor="middle" family="&quot;Microsoft YaHei&quot;, 微软雅黑, Arial" size="13px" weight="400" font-style="" opacity="1" y="-0.625" transform="rotate(0)"></text></g></g><g id="SvgjsG1161" transform="translate(807,283.85714285714283)"><path id="SvgjsPath1162" d="M 0 0L 20 0L 20 20L 0 20Z" stroke="none" fill-opacity="1" fill="#7985ec"></path><g id="SvgjsG1163"><text id="SvgjsText1164" font-family="&quot;Microsoft YaHei&quot;, 微软雅黑, Arial" text-anchor="middle" font-size="13px" width="0px" fill="#323232" font-weight="400" align="middle" lineHeight="125%" anchor="middle" family="&quot;Microsoft YaHei&quot;, 微软雅黑, Arial" size="13px" weight="400" font-style="" opacity="1" y="-0.625" transform="rotate(0)"></text></g></g><g id="SvgjsG1165" transform="translate(807,323.85714285714283)"><path id="SvgjsPath1166" d="M 0 0L 20 0L 20 20L 0 20Z" stroke="none" fill-opacity="1" fill="#7985ec"></path><g id="SvgjsG1167"><text id="SvgjsText1168" font-family="&quot;Microsoft YaHei&quot;, 微软雅黑, Arial" text-anchor="middle" font-size="13px" width="0px" fill="#323232" font-weight="400" align="middle" lineHeight="125%" anchor="middle" family="&quot;Microsoft YaHei&quot;, 微软雅黑, Arial" size="13px" weight="400" font-style="" opacity="1" y="-0.625" transform="rotate(0)"></text></g></g><g id="SvgjsG1169" transform="translate(847,283.85714285714283)"><path id="SvgjsPath1170" d="M 0 0L 20 0L 20 20L 0 20Z" stroke="none" fill-opacity="1" fill="#7985ec"></path><g id="SvgjsG1171"><text id="SvgjsText1172" font-family="&quot;Microsoft YaHei&quot;, 微软雅黑, Arial" text-anchor="middle" font-size="13px" width="0px" fill="#323232" font-weight="400" align="middle" lineHeight="125%" anchor="middle" family="&quot;Microsoft YaHei&quot;, 微软雅黑, Arial" size="13px" weight="400" font-style="" opacity="1" y="-0.625" transform="rotate(0)"></text></g></g><g id="SvgjsG1173" transform="translate(887,283.85714285714283)"><path id="SvgjsPath1174" d="M 0 0L 20 0L 20 20L 0 20Z" stroke="none" fill-opacity="1" fill="#7985ec"></path><g id="SvgjsG1175"><text id="SvgjsText1176" font-family="&quot;Microsoft YaHei&quot;, 微软雅黑, Arial" text-anchor="middle" font-size="13px" width="0px" fill="#323232" font-weight="400" align="middle" lineHeight="125%" anchor="middle" family="&quot;Microsoft YaHei&quot;, 微软雅黑, Arial" size="13px" weight="400" font-style="" opacity="1" y="-0.625" transform="rotate(0)"></text></g></g><g id="SvgjsG1177" transform="translate(847,323.85714285714283)"><path id="SvgjsPath1178" d="M 0 0L 20 0L 20 20L 0 20Z" stroke="none" fill-opacity="1" fill="#7985ec"></path><g id="SvgjsG1179"><text id="SvgjsText1180" font-family="&quot;Microsoft YaHei&quot;, 微软雅黑, Arial" text-anchor="middle" font-size="13px" width="0px" fill="#323232" font-weight="400" align="middle" lineHeight="125%" anchor="middle" family="&quot;Microsoft YaHei&quot;, 微软雅黑, Arial" size="13px" weight="400" font-style="" opacity="1" y="-0.625" transform="rotate(0)"></text></g></g><g id="SvgjsG1181" transform="translate(887,323.85714285714283)"><path id="SvgjsPath1182" d="M 0 0L 20 0L 20 20L 0 20Z" stroke="none" fill-opacity="1" fill="#7985ec"></path><g id="SvgjsG1183"><text id="SvgjsText1184" font-family="&quot;Microsoft YaHei&quot;, 微软雅黑, Arial" text-anchor="middle" font-size="13px" width="0px" fill="#323232" font-weight="400" align="middle" lineHeight="125%" anchor="middle" family="&quot;Microsoft YaHei&quot;, 微软雅黑, Arial" size="13px" weight="400" font-style="" opacity="1" y="-0.625" transform="rotate(0)"></text></g></g><g id="SvgjsG1185" transform="translate(112.14285714285711,40.85714285714283)"><path id="SvgjsPath1186" d="M 0 0L 100 0L 100 20L 0 20Z" stroke="none" fill="none"></path><g id="SvgjsG1187"><text id="SvgjsText1188" font-family="&quot;Microsoft YaHei&quot;, 微软雅黑, Arial" text-anchor="middle" font-size="15px" width="100px" fill="#323232" font-weight="400" align="middle" lineHeight="125%" anchor="middle" family="&quot;Microsoft YaHei&quot;, 微软雅黑, Arial" size="15px" weight="400" font-style="" opacity="1" y="-2.375" transform="rotate(0)"><tspan id="SvgjsTspan1189" dy="18.75" x="50"><tspan id="SvgjsTspan1190" style="font-weight: bold;">Serial</tspan></tspan></text></g></g><g id="SvgjsG1191" transform="translate(350.71428571428567,30.857142857142833)"><path id="SvgjsPath1192" d="M 0 0L 100 0L 100 40L 0 40Z" stroke="none" fill="none"></path><g id="SvgjsG1193"><text id="SvgjsText1194" font-family="&quot;Microsoft YaHei&quot;, 微软雅黑, Arial" text-anchor="middle" font-size="15px" width="100px" fill="#323232" font-weight="400" align="middle" lineHeight="125%" anchor="middle" family="&quot;Microsoft YaHei&quot;, 微软雅黑, Arial" size="15px" weight="400" font-style="" opacity="1" y="7.625" transform="rotate(0)"><tspan id="SvgjsTspan1195" dy="18.75" x="50"><tspan id="SvgjsTspan1196" style="font-weight: bold;">Parallel</tspan></tspan></text></g></g><g id="SvgjsG1197" transform="translate(589.2857142857142,30.857142857142833)"><path id="SvgjsPath1198" d="M 0 0L 100 0L 100 40L 0 40Z" stroke="none" fill="none"></path><g id="SvgjsG1199"><text id="SvgjsText1200" font-family="&quot;Microsoft YaHei&quot;, 微软雅黑, Arial" text-anchor="middle" font-size="15px" width="100px" fill="#323232" font-weight="400" align="middle" lineHeight="125%" anchor="middle" family="&quot;Microsoft YaHei&quot;, 微软雅黑, Arial" size="15px" weight="400" font-style="" opacity="1" y="7.625" transform="rotate(0)"><tspan id="SvgjsTspan1201" dy="18.75" x="50"><tspan id="SvgjsTspan1202" style="font-weight: bold;">CMS</tspan></tspan></text></g></g><g id="SvgjsG1203" transform="translate(797.8571428571429,30.857142857142833)"><path id="SvgjsPath1204" d="M 0 0L 100 0L 100 40L 0 40Z" stroke="none" fill="none"></path><g id="SvgjsG1205"><text id="SvgjsText1206" font-family="&quot;Microsoft YaHei&quot;, 微软雅黑, Arial" text-anchor="middle" font-size="15px" width="100px" fill="#323232" font-weight="400" align="middle" lineHeight="125%" anchor="middle" family="&quot;Microsoft YaHei&quot;, 微软雅黑, Arial" size="15px" weight="400" font-style="" opacity="1" y="7.625" transform="rotate(0)"><tspan id="SvgjsTspan1207" dy="18.75" x="50"><tspan id="SvgjsTspan1208" style="font-weight: bold;">G1</tspan></tspan></text></g></g><g id="SvgjsG1209"><path id="SvgjsPath1210" d="M160.7142857142857 253.71428571428572L270 253.71428571428572L270 253.71428571428572L379.2857142857143 253.71428571428572" stroke="#323232" stroke-width="1.5" fill="none"></path></g><g id="SvgjsG1211" transform="translate(220.71428571428567,243.85714285714283)"><path id="SvgjsPath1212" d="M 0 0L 100 0L 100 40L 0 40Z" stroke="none" fill="none"></path><g id="SvgjsG1213"><text id="SvgjsText1214" font-family="&quot;Microsoft YaHei&quot;, 微软雅黑, Arial" text-anchor="middle" font-size="15px" width="100px" fill="#323232" font-weight="400" align="middle" lineHeight="125%" anchor="middle" family="&quot;Microsoft YaHei&quot;, 微软雅黑, Arial" size="15px" weight="400" font-style="" opacity="1" y="7.625" transform="rotate(0)"><tspan id="SvgjsTspan1215" dy="18.75" x="50"><tspan id="SvgjsTspan1216" style="font-weight: bold;">GC threads</tspan></tspan></text></g></g><g id="SvgjsG1217"><path id="SvgjsPath1218" d="M90.70991106279207 273.1071556156351C 90.71428571428565 217.95223817654312 84.99999999999996 146.57142857142856 137.8571428571428 142.28571428571428" stroke="#323232" stroke-width="1.5" fill="none"></path></g><g id="SvgjsG1219" transform="translate(40.714285714285666,273.85714285714283)"><path id="SvgjsPath1220" d="M 0 0L 100 0L 100 40L 0 40Z" stroke="none" fill="none"></path><g id="SvgjsG1221"><text id="SvgjsText1222" font-family="&quot;Microsoft YaHei&quot;, 微软雅黑, Arial" text-anchor="middle" font-size="15px" width="100px" fill="#323232" font-weight="400" align="middle" lineHeight="125%" anchor="middle" family="&quot;Microsoft YaHei&quot;, 微软雅黑, Arial" size="15px" weight="400" font-style="" opacity="1" y="-1.875" transform="rotate(0)"><tspan id="SvgjsTspan1223" dy="18.75" x="50"><tspan id="SvgjsTspan1224" style="font-weight: bold;">application</tspan></tspan><tspan id="SvgjsTspan1225" dy="18.75" x="50"><tspan id="SvgjsTspan1226" style="font-weight: bold;">threads</tspan></tspan></text></g></g><g id="SvgjsG1227"></g></svg>