<svg id="SvgjsSvg1006" width="465.94928723712303" height="374.97674418604646" xmlns="http://www.w3.org/2000/svg" version="1.1" xmlns:xlink="http://www.w3.org/1999/xlink" xmlns:svgjs="http://svgjs.com/svgjs"><defs id="SvgjsDefs1007"><pattern patternUnits="userSpaceOnUse" id="pattern_mark_0" width="300" height="300"><text x="150" y="100" fill="rgba(229,229,229,0.8)" font-size="18" transform="rotate(-45, 150, 150)" style="dominant-baseline: middle; text-anchor: middle;"></text></pattern><pattern patternUnits="userSpaceOnUse" id="pattern_mark_1" width="300" height="300"><text x="150" y="200" fill="rgba(229,229,229,0.8)" font-size="18" transform="rotate(-45, 150, 150)" style="dominant-baseline: middle; text-anchor: middle;"></text></pattern></defs><rect id="svgbackgroundid" width="465.94928723712303" height="374.97674418604646" fill="transparent"></rect><rect id="SvgjsRect1009" width="465.94928723712303" height="374.97674418604646" fill="url(#pattern_mark_0)"></rect><rect id="SvgjsRect1010" width="465.94928723712303" height="374.97674418604646" fill="url(#pattern_mark_1)"></rect><g id="SvgjsG1011" transform="translate(111,145.83720930232562)"><path id="SvgjsPath1012" d="M0 0L90.18963360000001 0L90.18963360000001 27 L0 27Z" stroke="rgba(102, 102, 102,1)" stroke-width="1" fill-opacity="1" fill="#bbdefb"></path><path id="SvgjsPath1013" d="M90.18963360000001 0L303.66880000000003 0L303.66880000000003 27 L90.18963360000001 27Z" stroke="rgba(102, 102, 102,1)" stroke-width="1" fill-opacity="1" fill="#c8e6c9"></path><g id="SvgjsG1014"><text id="SvgjsText1015" font-family="&quot;Comic Sans MS&quot;" text-anchor="middle" font-size="16px" width="91px" fill="#323232" font-weight="400" align="middle" lineHeight="125%" anchor="middle" family="&quot;Comic Sans MS&quot;" size="16px" weight="400" font-style="" opacity="1" y="-0.5" transform="rotate(0)"><tspan id="SvgjsTspan1016" dy="20" x="45.5"><tspan id="SvgjsTspan1017" style="">记录头信息</tspan></tspan></text></g><g id="SvgjsG1018"><text id="SvgjsText1019" font-family="&quot;Comic Sans MS&quot;" text-anchor="middle" font-size="16px" width="214px" fill="#323232" font-weight="400" align="middle" lineHeight="125%" anchor="middle" family="&quot;Comic Sans MS&quot;" size="16px" weight="400" font-style="" opacity="1" y="-0.5" transform="rotate(0)"><tspan id="SvgjsTspan1020" dy="20" x="197.1896336"><tspan id="SvgjsTspan1021" style="">69 6E 66 69 6D 75 6D 00</tspan></tspan></text></g></g><g id="SvgjsG1022" transform="translate(111,201.83720930232562)"><path id="SvgjsPath1023" d="M0 0L90.18963360000001 0L90.18963360000001 27 L0 27Z" stroke="rgba(102, 102, 102,1)" stroke-width="1" fill-opacity="1" fill="#bbdefb"></path><path id="SvgjsPath1024" d="M90.18963360000001 0L303.66880000000003 0L303.66880000000003 27 L90.18963360000001 27Z" stroke="rgba(102, 102, 102,1)" stroke-width="1" fill-opacity="1" fill="#c8e6c9"></path><g id="SvgjsG1025"><text id="SvgjsText1026" font-family="&quot;Comic Sans MS&quot;" text-anchor="middle" font-size="16px" width="91px" fill="#323232" font-weight="400" align="middle" lineHeight="125%" anchor="middle" family="&quot;Comic Sans MS&quot;" size="16px" weight="400" font-style="" opacity="1" y="-0.5" transform="rotate(0)"><tspan id="SvgjsTspan1027" dy="20" x="45.5"><tspan id="SvgjsTspan1028" style="">记录头信息</tspan></tspan></text></g><g id="SvgjsG1029"><text id="SvgjsText1030" font-family="&quot;Comic Sans MS&quot;" text-anchor="middle" font-size="16px" width="214px" fill="#323232" font-weight="400" align="middle" lineHeight="125%" anchor="middle" family="&quot;Comic Sans MS&quot;" size="16px" weight="400" font-style="" opacity="1" y="-0.5" transform="rotate(0)"><tspan id="SvgjsTspan1031" dy="20" x="197.1896336"><tspan id="SvgjsTspan1032" style="">73 75 70 72 65 6D 75 6D</tspan></tspan></text></g></g><g id="SvgjsG1033" transform="translate(25,138.83720930232562)"><path id="SvgjsPath1034" d="M 0 0L 100 0L 100 40L 0 40Z" stroke="none" fill="none"></path><g id="SvgjsG1035"><text id="SvgjsText1036" font-family="&quot;Comic Sans MS&quot;" text-anchor="middle" font-size="13px" width="100px" fill="#323232" font-weight="400" align="middle" lineHeight="125%" anchor="middle" family="&quot;Comic Sans MS&quot;" size="13px" weight="400" font-style="" opacity="1" y="9.375" transform="rotate(0)"><tspan id="SvgjsTspan1037" dy="16.25" x="50"><tspan id="SvgjsTspan1038" style="">最小记录：</tspan></tspan></text></g></g><g id="SvgjsG1039" transform="translate(25,194.83720930232562)"><path id="SvgjsPath1040" d="M 0 0L 100 0L 100 40L 0 40Z" stroke="none" fill="none"></path><g id="SvgjsG1041"><text id="SvgjsText1042" font-family="&quot;Comic Sans MS&quot;" text-anchor="middle" font-size="13px" width="100px" fill="#323232" font-weight="400" align="middle" lineHeight="125%" anchor="middle" family="&quot;Comic Sans MS&quot;" size="13px" weight="400" font-style="" opacity="1" y="9.375" transform="rotate(0)"><tspan id="SvgjsTspan1043" dy="16.25" x="50"><tspan id="SvgjsTspan1044" style="">最小记录：</tspan></tspan></text></g></g><g id="SvgjsG1045" transform="translate(307.94928723712303,46.837209302325604)"><path id="SvgjsPath1046" d="M 0 35C 0 -11.666666666666666 133 -11.666666666666666 133 35Q 130.34 68.6 66.5 70Q 44.333333333333336 70 22.166666666666668 63L 0 70L 15.561000000000002 59.99Q 0 49 0 35" stroke="rgba(33,41,48,1)" stroke-width="1.5" fill-opacity="1" fill="#f9e0b2"></path><g id="SvgjsG1047"><text id="SvgjsText1048" font-family="&quot;Comic Sans MS&quot;" text-anchor="middle" font-size="13px" width="113px" fill="#323232" font-weight="400" align="middle" lineHeight="125%" anchor="middle" family="&quot;Comic Sans MS&quot;" size="13px" weight="400" font-style="" opacity="1" y="15.875" transform="rotate(0)"><tspan id="SvgjsTspan1049" dy="16.25" x="66.5"><tspan id="SvgjsTspan1050" style="">这部分是固定的，</tspan></tspan><tspan id="SvgjsTspan1051" dy="16.25" x="66.5"><tspan id="SvgjsTspan1052" style="">代表单词Infimum</tspan></tspan></text></g></g><g id="SvgjsG1053" transform="matrix(-1,1.2246467991473532e-16,-1.2246467991473532e-16,-1,307.94927978515625,327.83721923828125)"><path id="SvgjsPath1054" d="M 0 35C 0 -11.666666666666666 133 -11.666666666666666 133 35Q 130.34 68.6 66.5 70Q 44.333333333333336 70 22.166666666666668 63L 0 70L 15.561000000000002 59.99Q 0 49 0 35" stroke="rgba(33,41,48,1)" stroke-width="1.5" fill-opacity="1" fill="#f9e0b2"></path><g id="SvgjsG1055"><text id="SvgjsText1056" font-family="&quot;Comic Sans MS&quot;" text-anchor="middle" font-size="13px" width="113px" fill="#323232" font-weight="400" align="middle" lineHeight="125%" anchor="middle" family="&quot;Comic Sans MS&quot;" size="13px" weight="400" font-style="" opacity="1" y="24.375" transform="rotate(0)"></text></g></g><g id="SvgjsG1057" transform="translate(182.94928723712303,271.8372093023256)"><path id="SvgjsPath1058" d="M 0 0L 121 0L 121 40L 0 40Z" stroke="none" fill="none"></path><g id="SvgjsG1059"><text id="SvgjsText1060" font-family="&quot;Comic Sans MS&quot;" text-anchor="middle" font-size="13px" width="121px" fill="#323232" font-weight="400" align="middle" lineHeight="125%" anchor="middle" family="&quot;Comic Sans MS&quot;" size="13px" weight="400" font-style="" opacity="1" y="0.875" transform="rotate(0)"><tspan id="SvgjsTspan1061" dy="16.25" x="60.5"><tspan id="SvgjsTspan1062" style="">这部分也是固定的，</tspan></tspan><tspan id="SvgjsTspan1063" dy="16.25" x="60.5"><tspan id="SvgjsTspan1064" style="">代表单词Supremum</tspan></tspan></text></g></g><g id="SvgjsG1065" transform="matrix(-1.8369701987210297e-16,-1,1,-1.8369701987210297e-16,201.4144035161928,145.0000003992125)"><path id="SvgjsPath1066" d="M 0 212.32558139534876Q 9 212.32558139534876 9 203.32558139534876L 9 115.16279069767438Q 9 106.16279069767438 22 106.16279069767438Q 9 106.16279069767438 9 97.16279069767438L 9 9Q 9 0 0 0" stroke="rgba(33,41,48,1)" stroke-width="1.5" fill="none"></path><path id="SvgjsPath1067" d="M 0 0L 120 0L 120 212.32558139534876L 0 212.32558139534876Z" stroke="none" fill="none"></path><g id="SvgjsG1068"><text id="SvgjsText1069" font-family="&quot;Comic Sans MS&quot;" text-anchor="start" font-size="13px" width="93px" fill="#323232" font-weight="400" align="middle" lineHeight="125%" anchor="start" family="&quot;Comic Sans MS&quot;" size="13px" weight="400" font-style="" opacity="1" y="95.53779069767438" transform="rotate(0)"></text></g></g><g id="SvgjsG1070" transform="matrix(-1.8369701987210297e-16,-1,1,-1.8369701987210297e-16,201.87952085982926,349.976741347202)"><path id="SvgjsPath1071" d="M 120 0Q 111 0 111 9L 111 96.9302325581395Q 111 105.9302325581395 98 105.9302325581395Q 111 105.9302325581395 111 114.9302325581395L 111 202.860465116279Q 111 211.860465116279 120 211.860465116279" stroke="rgba(33,41,48,1)" stroke-width="1.5" fill="none"></path><path id="SvgjsPath1072" d="M 0 0L 120 0L 120 211.860465116279L 0 211.860465116279Z" stroke="none" fill="none"></path><g id="SvgjsG1073"><text id="SvgjsText1074" font-family="&quot;Comic Sans MS&quot;" text-anchor="end" font-size="13px" width="93px" fill="#323232" font-weight="400" align="middle" lineHeight="125%" anchor="end" family="&quot;Comic Sans MS&quot;" size="13px" weight="400" font-style="" opacity="1" y="95.3052325581395" transform="rotate(0)"></text></g></g></svg>