<svg id="SvgjsSvg1006" width="412" height="258" xmlns="http://www.w3.org/2000/svg" version="1.1" xmlns:xlink="http://www.w3.org/1999/xlink" xmlns:svgjs="http://svgjs.com/svgjs"><defs id="SvgjsDefs1007"><pattern patternUnits="userSpaceOnUse" id="pattern_mark_0" width="300" height="300"><text x="150" y="100" fill="rgba(229,229,229,0.8)" font-size="18" transform="rotate(-45, 150, 150)" style="dominant-baseline: middle; text-anchor: middle;"></text></pattern><pattern patternUnits="userSpaceOnUse" id="pattern_mark_1" width="300" height="300"><text x="150" y="200" fill="rgba(229,229,229,0.8)" font-size="18" transform="rotate(-45, 150, 150)" style="dominant-baseline: middle; text-anchor: middle;"></text></pattern><marker id="SvgjsMarker1049" markerWidth="13" markerHeight="9" refX="9.5" refY="4.5" viewBox="0 0 13 9" orient="auto" markerUnits="userSpaceOnUse" stroke-dasharray="0,0"><path id="SvgjsPath1050" d="M0,0 L13,4.5 L0,9 L0,0" fill="#323232" stroke="#323232" stroke-width="1"></path></marker><marker id="SvgjsMarker1053" markerWidth="13" markerHeight="9" refX="9.5" refY="4.5" viewBox="0 0 13 9" orient="auto" markerUnits="userSpaceOnUse" stroke-dasharray="0,0"><path id="SvgjsPath1054" d="M0,0 L13,4.5 L0,9 L0,0" fill="#323232" stroke="#323232" stroke-width="1"></path></marker></defs><rect id="svgbackgroundid" width="412" height="258" fill="transparent"></rect><rect id="SvgjsRect1009" width="412" height="258" fill="url(#pattern_mark_0)"></rect><rect id="SvgjsRect1010" width="412" height="258" fill="url(#pattern_mark_1)"></rect><g id="SvgjsG1011" transform="translate(242,25)"><path id="SvgjsPath1012" d="M 0 4Q 0 0 4 0L 141 0Q 145 0 145 4L 145 50Q 145 54 141 54L 4 54Q 0 54 0 50Z" stroke="rgba(33,41,48,1)" stroke-width="1.5" fill-opacity="1" fill="#ffffff"></path><g id="SvgjsG1013"><text id="SvgjsText1014" font-family="&quot;Microsoft YaHei&quot;, 微软雅黑, Arial" text-anchor="middle" font-size="13px" width="125px" fill="#323232" font-weight="400" align="bottom" lineHeight="125%" anchor="middle" family="&quot;Microsoft YaHei&quot;, 微软雅黑, Arial" size="13px" weight="400" font-style="" opacity="1" y="35.375" transform="rotate(0)"><tspan id="SvgjsTspan1015" dy="16.25" x="72.5"><tspan id="SvgjsTspan1016" style="">堆区</tspan></tspan></text></g></g><g id="SvgjsG1017" transform="translate(249.30215827338128,31)"><path id="SvgjsPath1018" d="M 0 4Q 0 0 4 0L 126.39568345323741 0Q 130.3956834532374 0 130.3956834532374 4L 130.3956834532374 26Q 130.3956834532374 30 126.39568345323741 30L 4 30Q 0 30 0 26Z" stroke="rgba(188,188,188,1)" stroke-width="1.5" fill-opacity="1" fill="#d1cfce"></path><g id="SvgjsG1019"><text id="SvgjsText1020" font-family="&quot;Microsoft YaHei&quot;, 微软雅黑, Arial" text-anchor="middle" font-size="13px" width="111px" fill="#323232" font-weight="700" align="middle" lineHeight="125%" anchor="middle" family="&quot;Microsoft YaHei&quot;, 微软雅黑, Arial" size="13px" weight="700" font-style="" opacity="1" y="4.375" transform="rotate(0)"><tspan id="SvgjsTspan1021" dy="16.25" x="65.5"><tspan id="SvgjsTspan1022" style="">InstanceOopDesc</tspan></tspan></text></g></g><g id="SvgjsG1023" transform="translate(25,107)"><path id="SvgjsPath1024" d="M 0 4Q 0 0 4 0L 141 0Q 145 0 145 4L 145 50Q 145 54 141 54L 4 54Q 0 54 0 50Z" stroke="rgba(33,41,48,1)" stroke-width="1.5" fill-opacity="1" fill="#ffffff"></path><g id="SvgjsG1025"><text id="SvgjsText1026" font-family="&quot;Microsoft YaHei&quot;, 微软雅黑, Arial" text-anchor="middle" font-size="13px" width="125px" fill="#323232" font-weight="400" align="bottom" lineHeight="125%" anchor="middle" family="&quot;Microsoft YaHei&quot;, 微软雅黑, Arial" size="13px" weight="400" font-style="" opacity="1" y="35.375" transform="rotate(0)"><tspan id="SvgjsTspan1027" dy="16.25" x="72.5"><tspan id="SvgjsTspan1028" style="">栈帧</tspan></tspan></text></g></g><g id="SvgjsG1029" transform="translate(32.30215827338128,113)"><path id="SvgjsPath1030" d="M 0 4Q 0 0 4 0L 126.39568345323741 0Q 130.3956834532374 0 130.3956834532374 4L 130.3956834532374 26Q 130.3956834532374 30 126.39568345323741 30L 4 30Q 0 30 0 26Z" stroke="rgba(188,188,188,1)" stroke-width="1.5" fill-opacity="1" fill="#d1cfce"></path><g id="SvgjsG1031"><text id="SvgjsText1032" font-family="&quot;Microsoft YaHei&quot;, 微软雅黑, Arial" text-anchor="middle" font-size="13px" width="111px" fill="#323232" font-weight="700" align="middle" lineHeight="125%" anchor="middle" family="&quot;Microsoft YaHei&quot;, 微软雅黑, Arial" size="13px" weight="700" font-style="" opacity="1" y="4.375" transform="rotate(0)"><tspan id="SvgjsTspan1033" dy="16.25" x="65.5"><tspan id="SvgjsTspan1034" style="">reference</tspan></tspan></text></g></g><g id="SvgjsG1035" transform="translate(242,179)"><path id="SvgjsPath1036" d="M 0 4Q 0 0 4 0L 141 0Q 145 0 145 4L 145 50Q 145 54 141 54L 4 54Q 0 54 0 50Z" stroke="rgba(33,41,48,1)" stroke-width="1.5" fill-opacity="1" fill="#ffffff"></path><g id="SvgjsG1037"><text id="SvgjsText1038" font-family="&quot;Microsoft YaHei&quot;, 微软雅黑, Arial" text-anchor="middle" font-size="13px" width="125px" fill="#323232" font-weight="400" align="bottom" lineHeight="125%" anchor="middle" family="&quot;Microsoft YaHei&quot;, 微软雅黑, Arial" size="13px" weight="400" font-style="" opacity="1" y="35.375" transform="rotate(0)"><tspan id="SvgjsTspan1039" dy="16.25" x="72.5"><tspan id="SvgjsTspan1040" style="">方法区</tspan></tspan></text></g></g><g id="SvgjsG1041" transform="translate(249.30215827338128,185)"><path id="SvgjsPath1042" d="M 0 4Q 0 0 4 0L 126.39568345323741 0Q 130.3956834532374 0 130.3956834532374 4L 130.3956834532374 26Q 130.3956834532374 30 126.39568345323741 30L 4 30Q 0 30 0 26Z" stroke="rgba(188,188,188,1)" stroke-width="1.5" fill-opacity="1" fill="#d1cfce"></path><g id="SvgjsG1043"><text id="SvgjsText1044" font-family="&quot;Microsoft YaHei&quot;, 微软雅黑, Arial" text-anchor="middle" font-size="13px" width="111px" fill="#323232" font-weight="700" align="middle" lineHeight="125%" anchor="middle" family="&quot;Microsoft YaHei&quot;, 微软雅黑, Arial" size="13px" weight="700" font-style="" opacity="1" y="4.375" transform="rotate(0)"><tspan id="SvgjsTspan1045" dy="16.25" x="65.5"><tspan id="SvgjsTspan1046" style="">InstanceKlass</tspan></tspan></text></g></g><g id="SvgjsG1047"><path id="SvgjsPath1048" d="M163.44784172661866 128L206 128L206 46L246.6021582733813 46" stroke="#323232" stroke-width="1.5" fill="none" marker-end="url(#SvgjsMarker1049)"></path></g><g id="SvgjsG1051"><path id="SvgjsPath1052" d="M314.5 61.75L314.5 123L314.5 123L314.5 182.3" stroke="#323232" stroke-width="1.5" fill="none" marker-end="url(#SvgjsMarker1053)"></path><rect id="SvgjsRect1055" width="65" height="18" x="282" y="113.025" fill="#ffffff"></rect><text id="SvgjsText1056" font-family="&quot;Microsoft YaHei&quot;, 微软雅黑, Arial" text-anchor="middle" font-size="13px" width="65px" fill="#323232" font-weight="400" align="top" lineHeight="16px" anchor="middle" family="&quot;Microsoft YaHei&quot;, 微软雅黑, Arial" size="13px" weight="400" font-style="" opacity="1" y="110.4" transform="rotate(0)"><tspan id="SvgjsTspan1057" dy="16.25" x="314.5"><tspan id="SvgjsTspan1058" style="">元数据指针</tspan></tspan></text></g><g id="SvgjsG1059"></g></svg>