<svg id="SvgjsSvg1006" width="631.5" height="155.5" xmlns="http://www.w3.org/2000/svg" version="1.1" xmlns:xlink="http://www.w3.org/1999/xlink" xmlns:svgjs="http://svgjs.com/svgjs"><defs id="SvgjsDefs1007"><pattern patternUnits="userSpaceOnUse" id="pattern_mark_0" width="300" height="300"><text x="150" y="100" fill="rgba(229,229,229,0.8)" font-size="18" transform="rotate(-45, 150, 150)" style="dominant-baseline: middle; text-anchor: middle;"></text></pattern><pattern patternUnits="userSpaceOnUse" id="pattern_mark_1" width="300" height="300"><text x="150" y="200" fill="rgba(229,229,229,0.8)" font-size="18" transform="rotate(-45, 150, 150)" style="dominant-baseline: middle; text-anchor: middle;"></text></pattern><pattern id="SvgjsPattern1013" x="0" y="0" width="100" height="100" patternUnits="userSpaceOnUse"><image id="SvgjsImage1014" xlink:href="https://iconsapi.com/5ee27215e4b0b788a93450d2.svg" width="100" height="100" preserveAspectRatio="none" crossOrigin="anonymous" x="0" y="0"></image></pattern><pattern id="SvgjsPattern1017" x="0" y="0" width="78" height="66" patternUnits="userSpaceOnUse"><image id="SvgjsImage1018" xlink:href="https://iconsapi.com/5ee856f6e4b01754b3ccc192.svg" width="78" height="66" preserveAspectRatio="none" crossOrigin="anonymous" x="0" y="0"></image></pattern><marker id="SvgjsMarker1027" markerWidth="13" markerHeight="9" refX="9.5" refY="4.5" viewBox="0 0 13 9" orient="auto" markerUnits="userSpaceOnUse" stroke-dasharray="0,0"><path id="SvgjsPath1028" d="M0,0 L13,4.5 L0,9 L0,0" fill="#323232" stroke="#323232" stroke-width="1"></path></marker><marker id="SvgjsMarker1031" markerWidth="13" markerHeight="9" refX="9.5" refY="4.5" viewBox="0 0 13 9" orient="auto" markerUnits="userSpaceOnUse" stroke-dasharray="0,0"><path id="SvgjsPath1032" d="M0,0 L13,4.5 L0,9 L0,0" fill="#323232" stroke="#323232" stroke-width="1"></path></marker></defs><rect id="svgbackgroundid" width="631.5" height="155.5" fill="transparent"></rect><rect id="SvgjsRect1009" width="631.5" height="155.5" fill="url(#pattern_mark_0)"></rect><rect id="SvgjsRect1010" width="631.5" height="155.5" fill="url(#pattern_mark_1)"></rect><g id="SvgjsG1011" transform="translate(25,25)"><path id="SvgjsPath1012" d="M 0 0L 100 0L 100 100L 0 100Z" stroke="none" fill="url(#SvgjsPattern1013)"></path></g><g id="SvgjsG1015" transform="translate(518,42)"><path id="SvgjsPath1016" d="M 0 0L 78 0L 78 66L 0 66Z" stroke="none" fill="url(#SvgjsPattern1017)"></path></g><g id="SvgjsG1019" transform="translate(210.25,59.5)"><path id="SvgjsPath1020" d="M 0 4Q 0 0 4 0L 218.5 0Q 222.5 0 222.5 4L 222.5 27Q 222.5 31 218.5 31L 4 31Q 0 31 0 27Z" stroke="rgba(167,147,44,1)" stroke-width="1.5" fill-opacity="1" fill="#ffffff"></path><g id="SvgjsG1021"><text id="SvgjsText1022" font-family="&quot;Comic Sans MS&quot;" text-anchor="middle" font-size="17px" width="203px" fill="#323232" font-weight="700" align="middle" lineHeight="125%" anchor="middle" family="&quot;Comic Sans MS&quot;" size="17px" weight="700" font-style="" opacity="1" y="0.875" transform="rotate(0)"><tspan id="SvgjsTspan1023" dy="21.25" x="111.5"><tspan id="SvgjsTspan1024" style="">e    d    c    b    a</tspan></tspan></text></g></g><g id="SvgjsG1025"><path id="SvgjsPath1026" d="M125.75 75L167.625 75L167.625 75L207.55 75" stroke="#323232" stroke-width="1.5" fill="none" marker-end="url(#SvgjsMarker1027)"></path></g><g id="SvgjsG1029"><path id="SvgjsPath1030" d="M433.5 75L475.375 75L475.375 75L515.3 75" stroke="#323232" stroke-width="1.5" fill="none" marker-end="url(#SvgjsMarker1031)"></path></g><g id="SvgjsG1033" transform="translate(271.5,25)"><path id="SvgjsPath1034" d="M 0 0L 100 0L 100 40L 0 40Z" stroke="none" fill="none"></path><g id="SvgjsG1035"><text id="SvgjsText1036" font-family="&quot;Comic Sans MS&quot;" text-anchor="middle" font-size="13px" width="100px" fill="#323232" font-weight="400" align="middle" lineHeight="125%" anchor="middle" family="&quot;Comic Sans MS&quot;" size="13px" weight="400" font-style="" opacity="1" y="9.375" transform="rotate(0)"><tspan id="SvgjsTspan1037" dy="16.25" x="50"><tspan id="SvgjsTspan1038" style="">mylist</tspan></tspan></text></g></g><g id="SvgjsG1039" transform="translate(115.5,42)"><path id="SvgjsPath1040" d="M 0 0L 100 0L 100 40L 0 40Z" stroke="none" fill="none"></path><g id="SvgjsG1041"><text id="SvgjsText1042" font-family="&quot;Comic Sans MS&quot;" text-anchor="middle" font-size="13px" width="100px" fill="#323232" font-weight="700" align="middle" lineHeight="125%" anchor="middle" family="&quot;Comic Sans MS&quot;" size="13px" weight="700" font-style="" opacity="1" y="9.375" transform="rotate(0)"><tspan id="SvgjsTspan1043" dy="16.25" x="50"><tspan id="SvgjsTspan1044" style="">LPUSH</tspan></tspan></text></g></g><g id="SvgjsG1045" transform="translate(427.5,38)"><path id="SvgjsPath1046" d="M 0 0L 100 0L 100 40L 0 40Z" stroke="none" fill="none"></path><g id="SvgjsG1047"><text id="SvgjsText1048" font-family="&quot;Comic Sans MS&quot;" text-anchor="middle" font-size="13px" width="100px" fill="#323232" font-weight="700" align="middle" lineHeight="125%" anchor="middle" family="&quot;Comic Sans MS&quot;" size="13px" weight="700" font-style="" opacity="1" y="9.375" transform="rotate(0)"><tspan id="SvgjsTspan1049" dy="16.25" x="50"><tspan id="SvgjsTspan1050" style="">RPOP</tspan></tspan></text></g></g><g id="SvgjsG1051" transform="translate(29.5,90.5)"><path id="SvgjsPath1052" d="M 0 0L 100 0L 100 40L 0 40Z" stroke="none" fill="none"></path><g id="SvgjsG1053"><text id="SvgjsText1054" font-family="&quot;Comic Sans MS&quot;" text-anchor="middle" font-size="13px" width="100px" fill="#323232" font-weight="700" align="middle" lineHeight="125%" anchor="middle" family="&quot;Comic Sans MS&quot;" size="13px" weight="700" font-style="" opacity="1" y="9.375" transform="rotate(0)"><tspan id="SvgjsTspan1055" dy="16.25" x="50"><tspan id="SvgjsTspan1056" style="">生产者</tspan></tspan></text></g></g><g id="SvgjsG1057" transform="translate(506.5,90.5)"><path id="SvgjsPath1058" d="M 0 0L 100 0L 100 40L 0 40Z" stroke="none" fill="none"></path><g id="SvgjsG1059"><text id="SvgjsText1060" font-family="&quot;Comic Sans MS&quot;" text-anchor="middle" font-size="13px" width="100px" fill="#323232" font-weight="700" align="middle" lineHeight="125%" anchor="middle" family="&quot;Comic Sans MS&quot;" size="13px" weight="700" font-style="" opacity="1" y="9.375" transform="rotate(0)"><tspan id="SvgjsTspan1061" dy="16.25" x="50"><tspan id="SvgjsTspan1062" style="">消费者</tspan></tspan></text></g></g></svg>