<svg xmlns="http://www.w3.org/2000/svg" xlink="http://www.w3.org/1999/xlink" id="mind-svg-con" version="1.1" width="722px" height="202.59375px" style="position: absolute; left: 0px; top: 0px; width: 722px; height: 202.594px; background: rgb(255, 255, 255); z-index: 999;"><defs></defs><g id="svgbackgroundid"><defs></defs><rect x="0" y="0" width="722" height="202.59375" fill="#ffffff"></rect></g><g transform="translate(-9927, -9834)" id="sdjakdjak3"><defs></defs><g class="svg-topic-con" transform="translate(0.5,0.5)"><path part="right" sub="true" id="line_8d9ac5e6b50ae66c" d="M 10000 9935 C 10000 9935 10010 9884.59765625 10107 9884.59765625" stroke="#A244EE" fill="none" stroke-width="3"></path><path part="right" sub="true" id="line_dee02506a3a0b350" d="M 10000 9935 C 10000 9935 10010 9970.59375 10107 9970.59375" stroke="#9C2CB8" fill="none" stroke-width="3"></path></g><g class="svg-connection-con" transform="translate(0.5,0.5)"></g><g class="svg-freesums-con" transform="translate(0.5,0.5)"></g><g class="svg-freebos-con" transform="translate(0.5,0.5)"></g></g><g id="dee02506a3a0b350"><rect x="180" y="115.9921875" rx="8px" ry="8px" width="86" height="41" style="fill: #9C2CB8; stroke:none;stroke-width:0px;"></rect><g><text text-anchor="start" align="top" anchor="start" font-size="18px" font-weight="500" fill="rgb(255, 255, 255)" style="font-size:18px;font-family:'Microsoft YaHei',微软雅黑,Arial;color:rgb(255,255,255);font-style:normal;text-align:left;font-weight:500;"><tspan x="196" y="142"><tspan dx="0">悲观锁</tspan></tspan></text></g></g><g id="5f7c98ce240df57e"><rect x="302" y="101" rx="6px" ry="6px" width="147" height="28" style="fill: #f3e5f6ff; stroke:none;stroke-width:0px;"></rect><g><text text-anchor="start" align="top" anchor="start" font-size="14px" font-weight="normal" fill="rgb(109, 31, 128)" style="font-size:14px;font-family:'Microsoft YaHei',微软雅黑,Arial;color:#6d1f80ff;font-style:normal;text-align:left;font-weight:normal;"><tspan x="308" y="119"><tspan dx="0">共享锁(多个事务共享)</tspan></tspan></text></g></g><g id="e1f51b4d48f89d9c"><rect x="485.328125" y="101" rx="6px" ry="6px" width="147" height="28" style="fill: #f3e5f6ff; stroke:none;stroke-width:0px;"></rect><g><text text-anchor="start" align="top" anchor="start" font-size="14px" font-weight="normal" fill="rgb(109, 31, 128)" style="font-size:14px;font-family:'Microsoft YaHei',微软雅黑,Arial;color:#6d1f80ff;font-style:normal;text-align:left;font-weight:normal;"><tspan x="491" y="119"><tspan dx="0">排他锁(单个事务占有)</tspan></tspan></text></g></g><g id="b4bf328c1f23f588"><rect x="302" y="144.59375" rx="6px" ry="6px" width="40" height="28" style="fill: #f3e5f6ff; stroke:none;stroke-width:0px;"></rect><g><text text-anchor="start" align="top" anchor="start" font-size="14px" font-weight="normal" fill="rgb(109, 31, 128)" style="font-size:14px;font-family:'Microsoft YaHei',微软雅黑,Arial;color:#6d1f80ff;font-style:normal;text-align:left;font-weight:normal;"><tspan x="308" y="163"><tspan dx="0">行锁</tspan></tspan></text></g></g><g id="9ecea24dd6b1f562"><rect x="378" y="144.59375" rx="6px" ry="6px" width="40" height="28" style="fill: #f3e5f6ff; stroke:none;stroke-width:0px;"></rect><g><text text-anchor="start" align="top" anchor="start" font-size="14px" font-weight="normal" fill="rgb(109, 31, 128)" style="font-size:14px;font-family:'Microsoft YaHei',微软雅黑,Arial;color:#6d1f80ff;font-style:normal;text-align:left;font-weight:normal;"><tspan x="384" y="163"><tspan dx="0">表锁</tspan></tspan></text></g></g><g id="8d9ac5e6b50ae66c"><rect x="180" y="30" rx="8px" ry="8px" width="86" height="41" style="fill: #A244EE; stroke:none;stroke-width:0px;"></rect><g><text text-anchor="start" align="top" anchor="start" font-size="18px" font-weight="500" fill="rgb(255, 255, 255)" style="font-size:18px;font-family:'Microsoft YaHei',微软雅黑,Arial;color:rgb(255,255,255);font-style:normal;text-align:left;font-weight:500;"><tspan x="196" y="56"><tspan dx="0">乐观锁</tspan></tspan></text></g></g><g id="76ff275739efcfad"><rect x="302" y="36.8046875" rx="6px" ry="6px" width="390" height="28" style="fill: #f4e8fdff; stroke:none;stroke-width:0px;"></rect><g><text text-anchor="start" align="top" anchor="start" font-size="14px" font-weight="normal" fill="rgb(113, 47, 166)" style="font-size:14px;font-family:'Microsoft YaHei',微软雅黑,Arial;color:#712fa6ff;font-style:normal;text-align:left;font-weight:normal;"><tspan x="308" y="55"><tspan dx="0">不通过数据库的锁机制实现，通过版本号，或者时间戳来实现</tspan></tspan></text></g></g><g transform="translate(180, 101)" id="sdjakdjak0"><g id="subline_dee02506a3a0b350" transform="translate(0.5, 0.5)"><path id="line_5f7c98ce240df57e" d="M 86 35.59375 L 104 35.59375 L 104 17.796875 A 4 4 0 0 1 108 13.796875 L 122 13.796875" p="dee02506a3a0b350" stroke="#9C2CB8" fill="none" stroke-linecap="square" stroke-width="2"></path><path id="line_e1f51b4d48f89d9c" d="M 269.328125 13.796875 L 288 13.796875 L 288 13.796875 L 305.328125 13.796875" p="5f7c98ce240df57e" stroke="#9C2CB8" fill="none" stroke-linecap="square" stroke-width="2"></path><path id="line_b4bf328c1f23f588" d="M 86 35.59375 L 104 35.59375 L 104 53.390625 A 4 4 0 0 0 108 57.390625 L 122 57.390625" p="dee02506a3a0b350" stroke="#9C2CB8" fill="none" stroke-linecap="square" stroke-width="2"></path><path id="line_9ecea24dd6b1f562" d="M 162 57.390625 L 180 57.390625 L 180 57.390625 L 198 57.390625" p="b4bf328c1f23f588" stroke="#9C2CB8" fill="none" stroke-linecap="square" stroke-width="2"></path></g><g transform="translate(0.5,0.5)"></g><g class="svg-summary-con" transform="translate(0.5,0.5)"></g><g class="svg-boundary-con" transform="translate(0.5,0.5)"></g></g><g transform="translate(180, 30)" id="sdjakdjak1"><g id="subline_8d9ac5e6b50ae66c" transform="translate(0.5, 0.5)"><path id="line_76ff275739efcfad" d="M 86 20.59765625 L 104 20.59765625 L 104 20.6015625 L 122 20.6015625" p="8d9ac5e6b50ae66c" stroke="#A244EE" fill="none" stroke-linecap="square" stroke-width="2"></path></g><g transform="translate(0.5,0.5)"></g><g class="svg-summary-con" transform="translate(0.5,0.5)"></g><g class="svg-boundary-con" transform="translate(0.5,0.5)"></g></g><g transform="translate(30, 66)" id="sdjakdjak2"><g id="subline_root" transform="translate(0.5, 0.5)"></g><g transform="translate(0.5,0.5)"></g><g class="svg-summary-con" transform="translate(0.5,0.5)"></g><g class="svg-boundary-con" transform="translate(0.5,0.5)"></g></g><g id="root"><rect x="30" y="66" rx="10px" ry="10px" width="86" height="70" style="fill: #30304D; stroke:none;stroke-width:0px;"></rect><g><text text-anchor="start" align="top" anchor="start" font-size="30px" font-weight="600" fill="rgb(255, 255, 255)" style="font-size:30px;font-family:'Microsoft YaHei',微软雅黑,Arial;color:#fff;font-style:normal;text-align:left;font-weight:600;"><tspan x="58" y="110"><tspan dx="0">锁</tspan></tspan></text></g></g></svg>