<svg xmlns="http://www.w3.org/2000/svg" xlink="http://www.w3.org/1999/xlink" id="mind-svg-con" version="1.1" width="1198px" height="608px" style="position: absolute; left: 0px; top: 0px; width: 1198px; height: 608px; background: rgb(255, 255, 255); z-index: 999;"><defs></defs><g id="svgbackgroundid"><defs></defs><rect x="0" y="0" width="1198" height="608" fill="#ffffff"></rect></g><g transform="translate(-9393, -9625)" id="sdjakdjak11"><defs></defs><g class="svg-topic-con" transform="translate(0.5,0.5)"><path part="right" sub="true" id="line_fa83b19a719b654f" d="M 10019.4 9937 C 10019.4 9937 10077 9715.69921875 10197 9715.69921875 L 10323.578125 9715.69921875 L 10197 9715.69921875 C 10097 9715.69921875 10024.4 9943 10024.4 9943 L 10019.4 9937 Z" stroke="#6A6CFF" fill="#6A6CFF" stroke-width="2"></path><path part="right" sub="true" id="line_c24b8a98bd4f242c" d="M 10019.4 9937 C 10019.4 9937 10077 9844.69921875 10197 9844.69921875 L 10301 9844.69921875 L 10197 9844.69921875 C 10097 9844.69921875 10024.4 9943 10024.4 9943 L 10019.4 9937 Z" stroke="#FFD424" fill="#FFD424" stroke-width="2"></path><path part="right" sub="true" id="line_f4940ba579784dcd" d="M 10019.4 9937 L 10019.4 9949 L 10197 9943.8984375 L 10317 9943.8984375 L 10197 9943.8984375 L 10019.4 9937" stroke="#A6E520" fill="#A6E520" stroke-width="2"></path><path part="right" sub="true" id="line_4f953e67316dee98" d="M 10019.4 9949 C 10019.4 9949 10077 10059.69921875 10197 10059.69921875 L 10317 10059.69921875 L 10197 10059.69921875 C 10097 10059.69921875 10024.4 9943 10024.4 9943 L 10019.4 9949 Z" stroke="#4F7CFF" fill="#4F7CFF" stroke-width="2"></path><path part="right" sub="true" id="line_c8bd2c8d76d76774" d="M 10019.4 9949 C 10019.4 9949 10077 10188.69921875 10197 10188.69921875 L 10269 10188.69921875 L 10197 10188.69921875 C 10097 10188.69921875 10024.4 9943 10024.4 9943 L 10019.4 9949 Z" stroke="#FE3E1E" fill="#FE3E1E" stroke-width="2"></path><path part="left" sub="true" id="line_3f5037ad78888a17" d="M 9980.6 9937 C 9980.6 9937 9922 9715.8984375 9802 9715.8984375 L 9730 9715.8984375 L 9802 9715.8984375 C 9902 9715.8984375 9975.6 9943 9975.6 9943 L 9980.6 9937 Z" stroke="#B16FFF" fill="#B16FFF" stroke-width="2"></path><path part="left" sub="true" id="line_ebd8eacf22a3dae9" d="M 9980.6 9937 C 9980.6 9937 9922 9780.69921875 9802 9780.69921875 L 9698 9780.69921875 L 9802 9780.69921875 C 9902 9780.69921875 9975.6 9943 9975.6 9943 L 9980.6 9937 Z" stroke="#FF44BC" fill="#FF44BC" stroke-width="2"></path><path part="left" sub="true" id="line_f5eaa76fff044c4e" d="M 9980.6 9937 C 9980.6 9937 9922 9909.69921875 9802 9909.69921875 L 9666 9909.69921875 L 9802 9909.69921875 C 9902 9909.69921875 9975.6 9943 9975.6 9943 L 9980.6 9937 Z" stroke="#03C1EB" fill="#03C1EB" stroke-width="2"></path><path part="left" sub="true" id="line_ba25a064e0b3327a" d="M 9980.6 9949 C 9980.6 9949 9922 10025.8984375 9802 10025.8984375 L 9666 10025.8984375 L 9802 10025.8984375 C 9902 10025.8984375 9975.6 9943 9975.6 9943 L 9980.6 9949 Z" stroke="#FE3E1E" fill="#FE3E1E" stroke-width="2"></path><path part="left" sub="true" id="line_a0dcf1c6188f6789" d="M 9980.6 9949 C 9980.6 9949 9922 10124.69921875 9802 10124.69921875 L 9737.3046875 10124.69921875 L 9802 10124.69921875 C 9902 10124.69921875 9975.6 9943 9975.6 9943 L 9980.6 9949 Z" stroke="#FF44BC" fill="#FF44BC" stroke-width="2"></path></g><g class="svg-connection-con" transform="translate(0.5,0.5)"></g><g class="svg-freesums-con" transform="translate(0.5,0.5)"></g><g class="svg-freebos-con" transform="translate(0.5,0.5)"></g></g><g id="c8bd2c8d76d76774"><rect x="804" y="532.796875" rx="1px" ry="1px" width="72" height="30" style="fill: transparent; stroke:none;stroke-width:0px;"></rect><g><text text-anchor="start" align="top" anchor="start" font-size="16px" font-weight="normal" fill="rgb(51, 67, 90)" style="font-size:16px;font-family:微软雅黑;color:#33435A;font-style:normal;text-align:left;font-weight:normal;"><tspan x="824" y="553"><tspan dx="0">注释</tspan></tspan></text></g><line x1="804" y1="563" x2="876" y2="563" style="stroke:rgb(254, 62, 30);stroke-width:2"></line></g><g id="1fa8da5b2425cd36"><rect x="932" y="520" rx="1px" ry="1px" width="66" height="22" style="fill: transparent; stroke:none;stroke-width:0px;"></rect><g><text text-anchor="start" align="top" anchor="start" font-size="12px" font-weight="normal" fill="rgb(51, 67, 90)" style="font-size:12px;font-family:微软雅黑;color:#33435A;font-style:normal;text-align:left;font-weight:normal;"><tspan x="941" y="533.1600000000001"><tspan dx="0">单行注释</tspan></tspan></text></g></g><g id="8a873f070d86a7a1"><rect x="932" y="554" rx="1px" ry="1px" width="66" height="22" style="fill: transparent; stroke:none;stroke-width:0px;"></rect><g><text text-anchor="start" align="top" anchor="start" font-size="12px" font-weight="normal" fill="rgb(51, 67, 90)" style="font-size:12px;font-family:微软雅黑;color:#33435A;font-style:normal;text-align:left;font-weight:normal;"><tspan x="941" y="567.1600000000001"><tspan dx="0">多行注释</tspan></tspan></text></g></g><g id="4f953e67316dee98"><rect x="804" y="403.796875" rx="1px" ry="1px" width="120" height="30" style="fill: transparent; stroke:none;stroke-width:0px;"></rect><g><text text-anchor="start" align="top" anchor="start" font-size="16px" font-weight="normal" fill="rgb(51, 67, 90)" style="font-size:16px;font-family:微软雅黑;color:#33435A;font-style:normal;text-align:left;font-weight:normal;"><tspan x="824" y="424"><tspan dx="0">输入与输出</tspan></tspan></text></g><line x1="804" y1="434" x2="924" y2="434" style="stroke:rgb(79, 124, 255);stroke-width:2"></line></g><g id="1a1b9e28e2cb347f"><rect x="980" y="340" rx="1px" ry="1px" width="42" height="22" style="fill: transparent; stroke:none;stroke-width:0px;"></rect><g><text text-anchor="start" align="top" anchor="start" font-size="12px" font-weight="normal" fill="rgb(51, 67, 90)" style="font-size:12px;font-family:微软雅黑;color:#33435A;font-style:normal;text-align:left;font-weight:normal;"><tspan x="989" y="353.15999999999997"><tspan dx="0">输入</tspan></tspan></text></g></g><g id="9f5ff91550f52e13"><rect x="1078" y="340" rx="1px" ry="1px" width="54" height="22" style="fill: transparent; stroke:none;stroke-width:0px;"></rect><g><text text-anchor="start" align="top" anchor="start" font-size="12px" font-weight="normal" fill="rgb(51, 67, 90)" style="font-size:12px;font-family:微软雅黑;color:#33435A;font-style:normal;text-align:left;font-weight:normal;"><tspan x="1087" y="353.15999999999997"><tspan dx="0">字符串</tspan></tspan></text></g></g><g id="cb202071c24bc081"><rect x="980" y="425" rx="1px" ry="1px" width="42" height="22" style="fill: transparent; stroke:none;stroke-width:0px;"></rect><g><text text-anchor="start" align="top" anchor="start" font-size="12px" font-weight="normal" fill="rgb(51, 67, 90)" style="font-size:12px;font-family:微软雅黑;color:#33435A;font-style:normal;text-align:left;font-weight:normal;"><tspan x="989" y="438.15999999999997"><tspan dx="0">输出</tspan></tspan></text></g></g><g id="29dfe98d2b1796b8"><rect x="1078" y="374" rx="1px" ry="1px" width="66" height="22" style="fill: transparent; stroke:none;stroke-width:0px;"></rect><g><text text-anchor="start" align="top" anchor="start" font-size="12px" font-weight="normal" fill="rgb(51, 67, 90)" style="font-size:12px;font-family:微软雅黑;color:#33435A;font-style:normal;text-align:left;font-weight:normal;"><tspan x="1087" y="387.15999999999997"><tspan dx="0">输出常量</tspan></tspan></text></g></g><g id="6f1fe77987d17d52"><rect x="1078" y="408" rx="1px" ry="1px" width="66" height="22" style="fill: transparent; stroke:none;stroke-width:0px;"></rect><g><text text-anchor="start" align="top" anchor="start" font-size="12px" font-weight="normal" fill="rgb(51, 67, 90)" style="font-size:12px;font-family:微软雅黑;color:#33435A;font-style:normal;text-align:left;font-weight:normal;"><tspan x="1087" y="421.15999999999997"><tspan dx="0">输出变量</tspan></tspan></text></g></g><g id="9d588dbade1870c8"><rect x="1078" y="442" rx="1px" ry="1px" width="90" height="22" style="fill: transparent; stroke:none;stroke-width:0px;"></rect><g><text text-anchor="start" align="top" anchor="start" font-size="12px" font-weight="normal" fill="rgb(51, 67, 90)" style="font-size:12px;font-family:微软雅黑;color:#33435A;font-style:normal;text-align:left;font-weight:normal;"><tspan x="1087" y="455.15999999999997"><tspan dx="0">输出多个变量</tspan></tspan></text></g></g><g id="aa695c5a8ffccc8e"><rect x="1078" y="476" rx="1px" ry="1px" width="78" height="22" style="fill: transparent; stroke:none;stroke-width:0px;"></rect><g><text text-anchor="start" align="top" anchor="start" font-size="12px" font-weight="normal" fill="rgb(51, 67, 90)" style="font-size:12px;font-family:微软雅黑;color:#33435A;font-style:normal;text-align:left;font-weight:normal;"><tspan x="1087" y="489.15999999999997"><tspan dx="0">格式化输出</tspan></tspan></text></g></g><g id="f4940ba579784dcd"><rect x="804" y="288" rx="1px" ry="1px" width="120" height="30" style="fill: transparent; stroke:none;stroke-width:0px;"></rect><g><text text-anchor="start" align="top" anchor="start" font-size="16px" font-weight="normal" fill="rgb(51, 67, 90)" style="font-size:16px;font-family:微软雅黑;color:#33435A;font-style:normal;text-align:left;font-weight:normal;"><tspan x="824" y="308"><tspan dx="0">第一行代码</tspan></tspan></text></g><line x1="804" y1="319" x2="924" y2="319" style="stroke:rgb(166, 229, 32);stroke-width:2"></line></g><g id="c24b8a98bd4f242c"><rect x="804" y="188.796875" rx="1px" ry="1px" width="104" height="30" style="fill: transparent; stroke:none;stroke-width:0px;"></rect><g><text text-anchor="start" align="top" anchor="start" font-size="16px" font-weight="normal" fill="rgb(51, 67, 90)" style="font-size:16px;font-family:微软雅黑;color:#33435A;font-style:normal;text-align:left;font-weight:normal;"><tspan x="824" y="209"><tspan dx="0">开发环境</tspan></tspan></text></g><line x1="804" y1="219" x2="908" y2="219" style="stroke:rgb(255, 212, 36);stroke-width:2"></line></g><g id="659582417c5de7d5"><rect x="964" y="142" rx="1px" ry="1px" width="95" height="22" style="fill: transparent; stroke:none;stroke-width:0px;"></rect><g><text text-anchor="start" align="top" anchor="start" font-size="12px" font-weight="normal" fill="rgb(51, 67, 90)" style="font-size:12px;font-family:微软雅黑;color:#33435A;font-style:normal;text-align:left;font-weight:normal;"><tspan x="973" y="155.16"><tspan dx="0">python解释器</tspan></tspan></text></g></g><g id="e9dca8cbdbef9845"><rect x="964" y="210" rx="1px" ry="1px" width="68" height="22" style="fill: transparent; stroke:none;stroke-width:0px;"></rect><g><text text-anchor="start" align="top" anchor="start" font-size="12px" font-weight="normal" fill="rgb(51, 67, 90)" style="font-size:12px;font-family:微软雅黑;color:#33435A;font-style:normal;text-align:left;font-weight:normal;"><tspan x="973" y="223.16"><tspan dx="0">pycharm</tspan></tspan></text></g></g><g id="e2d21210bec78c98"><rect x="1087.796875" y="176" rx="1px" ry="1px" width="66" height="22" style="fill: transparent; stroke:none;stroke-width:0px;"></rect><g><text text-anchor="start" align="top" anchor="start" font-size="12px" font-weight="normal" fill="rgb(51, 67, 90)" style="font-size:12px;font-family:微软雅黑;color:#33435A;font-style:normal;text-align:left;font-weight:normal;"><tspan x="1097" y="189.16"><tspan dx="0">代码编写</tspan></tspan></text></g></g><g id="859b9b4bfab8509a"><rect x="1087.796875" y="210" rx="1px" ry="1px" width="66" height="22" style="fill: transparent; stroke:none;stroke-width:0px;"></rect><g><text text-anchor="start" align="top" anchor="start" font-size="12px" font-weight="normal" fill="rgb(51, 67, 90)" style="font-size:12px;font-family:微软雅黑;color:#33435A;font-style:normal;text-align:left;font-weight:normal;"><tspan x="1097" y="223.16"><tspan dx="0">运行代码</tspan></tspan></text></g></g><g id="5666b3a777895e2f"><rect x="1087.796875" y="244" rx="1px" ry="1px" width="66" height="22" style="fill: transparent; stroke:none;stroke-width:0px;"></rect><g><text text-anchor="start" align="top" anchor="start" font-size="12px" font-weight="normal" fill="rgb(51, 67, 90)" style="font-size:12px;font-family:微软雅黑;color:#33435A;font-style:normal;text-align:left;font-weight:normal;"><tspan x="1097" y="257.15999999999997"><tspan dx="0">调试代码</tspan></tspan></text></g></g><g id="fa83b19a719b654f"><rect x="804" y="59.796875" rx="1px" ry="1px" width="127" height="30" style="fill: transparent; stroke:none;stroke-width:0px;"></rect><g><text text-anchor="start" align="top" anchor="start" font-size="16px" font-weight="normal" fill="rgb(51, 67, 90)" style="font-size:16px;font-family:微软雅黑;color:#33435A;font-style:normal;text-align:left;font-weight:normal;"><tspan x="824" y="80"><tspan dx="0">python介绍</tspan></tspan></text></g><line x1="804" y1="90" x2="931" y2="90" style="stroke:rgb(106, 108, 255);stroke-width:2"></line></g><g id="3c517c21b87d5c73"><rect x="986.578125" y="30" rx="1px" ry="1px" width="83" height="22" style="fill: transparent; stroke:none;stroke-width:0px;"></rect><g><text text-anchor="start" align="top" anchor="start" font-size="12px" font-weight="normal" fill="rgb(51, 67, 90)" style="font-size:12px;font-family:微软雅黑;color:#33435A;font-style:normal;text-align:left;font-weight:normal;"><tspan x="996" y="43.16"><tspan dx="0">python版本</tspan></tspan></text></g></g><g id="3307d26d96788fb0"><rect x="986.578125" y="64" rx="1px" ry="1px" width="83" height="22" style="fill: transparent; stroke:none;stroke-width:0px;"></rect><g><text text-anchor="start" align="top" anchor="start" font-size="12px" font-weight="normal" fill="rgb(51, 67, 90)" style="font-size:12px;font-family:微软雅黑;color:#33435A;font-style:normal;text-align:left;font-weight:normal;"><tspan x="996" y="77.16"><tspan dx="0">python特点</tspan></tspan></text></g></g><g id="aa6cccfa3b78aec6"><rect x="986.578125" y="98" rx="1px" ry="1px" width="95" height="22" style="fill: transparent; stroke:none;stroke-width:0px;"></rect><g><text text-anchor="start" align="top" anchor="start" font-size="12px" font-weight="normal" fill="rgb(51, 67, 90)" style="font-size:12px;font-family:微软雅黑;color:#33435A;font-style:normal;text-align:left;font-weight:normal;"><tspan x="996" y="111.16"><tspan dx="0">python的应用</tspan></tspan></text></g></g><g id="f046cc49ec82617e"><rect x="235.3046875" y="422" rx="1px" ry="1px" width="54" height="22" style="fill: transparent; stroke:none;stroke-width:0px;"></rect><g><text text-anchor="start" align="top" anchor="start" font-size="12px" font-weight="normal" fill="rgb(51, 67, 90)" style="font-size:12px;font-family:微软雅黑;color:#33435A;font-style:normal;text-align:left;font-weight:normal;"><tspan x="244" y="435.15999999999997"><tspan dx="0">安装库</tspan></tspan></text></g></g><g id="6fbd22530764af34"><rect x="235.3046875" y="456" rx="1px" ry="1px" width="54" height="22" style="fill: transparent; stroke:none;stroke-width:0px;"></rect><g><text text-anchor="start" align="top" anchor="start" font-size="12px" font-weight="normal" fill="rgb(51, 67, 90)" style="font-size:12px;font-family:微软雅黑;color:#33435A;font-style:normal;text-align:left;font-weight:normal;"><tspan x="244" y="469.15999999999997"><tspan dx="0">卸载库</tspan></tspan></text></g></g><g id="fc512a17d39ec031"><rect x="187.3046875" y="490" rx="1px" ry="1px" width="102" height="22" style="fill: transparent; stroke:none;stroke-width:0px;"></rect><g><text text-anchor="start" align="top" anchor="start" font-size="12px" font-weight="normal" fill="rgb(51, 67, 90)" style="font-size:12px;font-family:微软雅黑;color:#33435A;font-style:normal;text-align:left;font-weight:normal;"><tspan x="196" y="503.15999999999997"><tspan dx="0">查看已安装列表</tspan></tspan></text></g></g><g id="574149d1798b3968"><rect x="223.3046875" y="524" rx="1px" ry="1px" width="66" height="22" style="fill: transparent; stroke:none;stroke-width:0px;"></rect><g><text text-anchor="start" align="top" anchor="start" font-size="12px" font-weight="normal" fill="rgb(51, 67, 90)" style="font-size:12px;font-family:微软雅黑;color:#33435A;font-style:normal;text-align:left;font-weight:normal;"><tspan x="232" y="537.1600000000001"><tspan dx="0">切换镜像</tspan></tspan></text></g></g><g id="a0dcf1c6188f6789"><rect x="345.3046875" y="468.796875" rx="1px" ry="1px" width="65" height="30" style="fill: transparent; stroke:none;stroke-width:0px;"></rect><g><text text-anchor="start" align="top" anchor="start" font-size="16px" font-weight="normal" fill="rgb(51, 67, 90)" style="font-size:16px;font-family:微软雅黑;color:#33435A;font-style:normal;text-align:left;font-weight:normal;"><tspan x="365" y="489"><tspan dx="0">pip</tspan></tspan></text></g><line x1="345.3046875" y1="499" x2="410.3046875" y2="499" style="stroke:rgb(255, 68, 188);stroke-width:2"></line></g><g id="140c3582b7b53805"><rect x="176" y="374.203125" rx="1px" ry="1px" width="42" height="22" style="fill: transparent; stroke:none;stroke-width:0px;"></rect><g><text text-anchor="start" align="top" anchor="start" font-size="12px" font-weight="normal" fill="rgb(51, 67, 90)" style="font-size:12px;font-family:微软雅黑;color:#33435A;font-style:normal;text-align:left;font-weight:normal;"><tspan x="185" y="387.15999999999997"><tspan dx="0">作用</tspan></tspan></text></g></g><g id="ba25a064e0b3327a"><rect x="274" y="370" rx="1px" ry="1px" width="136" height="30" style="fill: transparent; stroke:none;stroke-width:0px;"></rect><g><text text-anchor="start" align="top" anchor="start" font-size="16px" font-weight="normal" fill="rgb(51, 67, 90)" style="font-size:16px;font-family:微软雅黑;color:#33435A;font-style:normal;text-align:left;font-weight:normal;"><tspan x="294" y="390"><tspan dx="0">代码执行入口</tspan></tspan></text></g><line x1="274" y1="401" x2="410" y2="401" style="stroke:rgb(254, 62, 30);stroke-width:2"></line></g><g id="40f950a7fdc8f2f5"><rect x="128" y="190" rx="1px" ry="1px" width="90" height="22" style="fill: transparent; stroke:none;stroke-width:0px;"></rect><g><text text-anchor="start" align="top" anchor="start" font-size="12px" font-weight="normal" fill="rgb(51, 67, 90)" style="font-size:12px;font-family:微软雅黑;color:#33435A;font-style:normal;text-align:left;font-weight:normal;"><tspan x="137" y="203.16"><tspan dx="0">读懂报错信息</tspan></tspan></text></g></g><g id="0cc5bc0177637e40"><rect x="30" y="224" rx="1px" ry="1px" width="66" height="22" style="fill: transparent; stroke:none;stroke-width:0px;"></rect><g><text text-anchor="start" align="top" anchor="start" font-size="12px" font-weight="normal" fill="rgb(51, 67, 90)" style="font-size:12px;font-family:微软雅黑;color:#33435A;font-style:normal;text-align:left;font-weight:normal;"><tspan x="39" y="237.16"><tspan dx="0">语法错误</tspan></tspan></text></g></g><g id="2d5f7a4637053edd"><rect x="30" y="258" rx="1px" ry="1px" width="66" height="22" style="fill: transparent; stroke:none;stroke-width:0px;"></rect><g><text text-anchor="start" align="top" anchor="start" font-size="12px" font-weight="normal" fill="rgb(51, 67, 90)" style="font-size:12px;font-family:微软雅黑;color:#33435A;font-style:normal;text-align:left;font-weight:normal;"><tspan x="39" y="271.15999999999997"><tspan dx="0">缩进错误</tspan></tspan></text></g></g><g id="5a1a1c181105bb5e"><rect x="30" y="292" rx="1px" ry="1px" width="66" height="22" style="fill: transparent; stroke:none;stroke-width:0px;"></rect><g><text text-anchor="start" align="top" anchor="start" font-size="12px" font-weight="normal" fill="rgb(51, 67, 90)" style="font-size:12px;font-family:微软雅黑;color:#33435A;font-style:normal;text-align:left;font-weight:normal;"><tspan x="39" y="305.15999999999997"><tspan dx="0">名称错误</tspan></tspan></text></g></g><g id="8a94a38998666b40"><rect x="30" y="326" rx="1px" ry="1px" width="66" height="22" style="fill: transparent; stroke:none;stroke-width:0px;"></rect><g><text text-anchor="start" align="top" anchor="start" font-size="12px" font-weight="normal" fill="rgb(51, 67, 90)" style="font-size:12px;font-family:微软雅黑;color:#33435A;font-style:normal;text-align:left;font-weight:normal;"><tspan x="39" y="339.15999999999997"><tspan dx="0">类型错误</tspan></tspan></text></g></g><g id="d4998eaddcde3583"><rect x="152" y="275" rx="1px" ry="1px" width="66" height="22" style="fill: transparent; stroke:none;stroke-width:0px;"></rect><g><text text-anchor="start" align="top" anchor="start" font-size="12px" font-weight="normal" fill="rgb(51, 67, 90)" style="font-size:12px;font-family:微软雅黑;color:#33435A;font-style:normal;text-align:left;font-weight:normal;"><tspan x="161" y="288.15999999999997"><tspan dx="0">报错类型</tspan></tspan></text></g></g><g id="f5eaa76fff044c4e"><rect x="274" y="253.796875" rx="1px" ry="1px" width="136" height="30" style="fill: transparent; stroke:none;stroke-width:0px;"></rect><g><text text-anchor="start" align="top" anchor="start" font-size="16px" font-weight="normal" fill="rgb(51, 67, 90)" style="font-size:16px;font-family:微软雅黑;color:#33435A;font-style:normal;text-align:left;font-weight:normal;"><tspan x="294" y="274"><tspan dx="0">常见报错类型</tspan></tspan></text></g><line x1="274" y1="284" x2="410" y2="284" style="stroke:rgb(3, 193, 235);stroke-width:2"></line></g><g id="721f6f0ede5dbd9d"><rect x="164.9609375" y="112" rx="1px" ry="1px" width="85" height="22" style="fill: transparent; stroke:none;stroke-width:0px;"></rect><g><text text-anchor="start" align="top" anchor="start" font-size="12px" font-weight="normal" fill="rgb(51, 67, 90)" style="font-size:12px;font-family:微软雅黑;color:#33435A;font-style:normal;text-align:left;font-weight:normal;"><tspan x="174" y="125.16"><tspan dx="0">缩进4个空格</tspan></tspan></text></g></g><g id="d5f2a96c34c16f6c"><rect x="122.203125" y="146" rx="1px" ry="1px" width="128" height="22" style="fill: transparent; stroke:none;stroke-width:0px;"></rect><g><text text-anchor="start" align="top" anchor="start" font-size="12px" font-weight="normal" fill="rgb(51, 67, 90)" style="font-size:12px;font-family:微软雅黑;color:#33435A;font-style:normal;text-align:left;font-weight:normal;"><tspan x="131" y="159.16"><tspan dx="0">pycharm格式化代码</tspan></tspan></text></g></g><g id="ebd8eacf22a3dae9"><rect x="306" y="124.796875" rx="1px" ry="1px" width="104" height="30" style="fill: transparent; stroke:none;stroke-width:0px;"></rect><g><text text-anchor="start" align="top" anchor="start" font-size="16px" font-weight="normal" fill="rgb(51, 67, 90)" style="font-size:16px;font-family:微软雅黑;color:#33435A;font-style:normal;text-align:left;font-weight:normal;"><tspan x="326" y="145"><tspan dx="0">代码规范</tspan></tspan></text></g><line x1="306" y1="155" x2="410" y2="155" style="stroke:rgb(255, 68, 188);stroke-width:2"></line></g><g id="3f5037ad78888a17"><rect x="338" y="60" rx="1px" ry="1px" width="72" height="30" style="fill: transparent; stroke:none;stroke-width:0px;"></rect><g><text text-anchor="start" align="top" anchor="start" font-size="16px" font-weight="normal" fill="rgb(51, 67, 90)" style="font-size:16px;font-family:微软雅黑;color:#33435A;font-style:normal;text-align:left;font-weight:normal;"><tspan x="358" y="80"><tspan dx="0">缩进</tspan></tspan></text></g><line x1="338" y1="91" x2="410" y2="91" style="stroke:rgb(177, 111, 255);stroke-width:2"></line></g><g transform="translate(804, 520)" id="sdjakdjak0"><g id="subline_c8bd2c8d76d76774" transform="translate(0.5, 0.5)"><path id="line_1fa8da5b2425cd36" d="M 72 43.69921875 C 108 43.69921875 100 22.5 128 22.5 L 194 22.5" p="c8bd2c8d76d76774" stroke="#FE3E1E" fill="none" stroke-linecap="square" stroke-width="2"></path><path id="line_8a873f070d86a7a1" d="M 72 43.69921875 C 108 43.69921875 100 56.5 128 56.5 L 194 56.5" p="c8bd2c8d76d76774" stroke="#FE3E1E" fill="none" stroke-linecap="square" stroke-width="2"></path></g><g transform="translate(0.5,0.5)"></g><g class="svg-summary-con" transform="translate(0.5,0.5)"></g><g class="svg-boundary-con" transform="translate(0.5,0.5)"></g></g><g transform="translate(804, 340)" id="sdjakdjak1"><g id="subline_4f953e67316dee98" transform="translate(0.5, 0.5)"><path id="line_1a1b9e28e2cb347f" d="M 120 94.69921875 C 156 94.69921875 148 22.5 176 22.5 L 218 22.5" p="4f953e67316dee98" stroke="#4F7CFF" fill="none" stroke-linecap="square" stroke-width="2"></path><path id="line_9f5ff91550f52e13" d="M 218 22.5 C 254 22.5 246 22.5 274 22.5 L 328 22.5" p="1a1b9e28e2cb347f" stroke="#4F7CFF" fill="none" stroke-linecap="square" stroke-width="2"></path><path id="line_cb202071c24bc081" d="M 120 94.69921875 C 156 94.69921875 148 107.5 176 107.5 L 218 107.5" p="4f953e67316dee98" stroke="#4F7CFF" fill="none" stroke-linecap="square" stroke-width="2"></path><path id="line_29dfe98d2b1796b8" d="M 218 107.5 C 254 107.5 246 56.5 274 56.5 L 340 56.5" p="cb202071c24bc081" stroke="#4F7CFF" fill="none" stroke-linecap="square" stroke-width="2"></path><path id="line_6f1fe77987d17d52" d="M 218 107.5 C 254 107.5 246 90.5 274 90.5 L 340 90.5" p="cb202071c24bc081" stroke="#4F7CFF" fill="none" stroke-linecap="square" stroke-width="2"></path><path id="line_9d588dbade1870c8" d="M 218 107.5 C 254 107.5 246 124.5 274 124.5 L 364 124.5" p="cb202071c24bc081" stroke="#4F7CFF" fill="none" stroke-linecap="square" stroke-width="2"></path><path id="line_aa695c5a8ffccc8e" d="M 218 107.5 C 254 107.5 246 158.5 274 158.5 L 352 158.5" p="cb202071c24bc081" stroke="#4F7CFF" fill="none" stroke-linecap="square" stroke-width="2"></path></g><g transform="translate(0.5,0.5)"></g><g class="svg-summary-con" transform="translate(0.5,0.5)"></g><g class="svg-boundary-con" transform="translate(0.5,0.5)"></g></g><g transform="translate(804, 288)" id="sdjakdjak2"><g id="subline_f4940ba579784dcd" transform="translate(0.5, 0.5)"></g><g transform="translate(0.5,0.5)"></g><g class="svg-summary-con" transform="translate(0.5,0.5)"></g><g class="svg-boundary-con" transform="translate(0.5,0.5)"></g></g><g transform="translate(804, 142)" id="sdjakdjak3"><g id="subline_c24b8a98bd4f242c" transform="translate(0.5, 0.5)"><path id="line_659582417c5de7d5" d="M 104 77.69921875 C 140 77.69921875 132 22.5 160 22.5 L 255 22.5" p="c24b8a98bd4f242c" stroke="#FFD424" fill="none" stroke-linecap="square" stroke-width="2"></path><path id="line_e9dca8cbdbef9845" d="M 104 77.69921875 C 140 77.69921875 132 90.5 160 90.5 L 228 90.5" p="c24b8a98bd4f242c" stroke="#FFD424" fill="none" stroke-linecap="square" stroke-width="2"></path><path id="line_e2d21210bec78c98" d="M 227.796875 90.5 C 263.796875 90.5 255.796875 56.5 283.796875 56.5 L 349.796875 56.5" p="e9dca8cbdbef9845" stroke="#FFD424" fill="none" stroke-linecap="square" stroke-width="2"></path><path id="line_859b9b4bfab8509a" d="M 227.796875 90.5 C 263.796875 90.5 255.796875 90.5 283.796875 90.5 L 349.796875 90.5" p="e9dca8cbdbef9845" stroke="#FFD424" fill="none" stroke-linecap="square" stroke-width="2"></path><path id="line_5666b3a777895e2f" d="M 227.796875 90.5 C 263.796875 90.5 255.796875 124.5 283.796875 124.5 L 349.796875 124.5" p="e9dca8cbdbef9845" stroke="#FFD424" fill="none" stroke-linecap="square" stroke-width="2"></path></g><g transform="translate(0.5,0.5)"></g><g class="svg-summary-con" transform="translate(0.5,0.5)"></g><g class="svg-boundary-con" transform="translate(0.5,0.5)"></g></g><g transform="translate(804, 30)" id="sdjakdjak4"><g id="subline_fa83b19a719b654f" transform="translate(0.5, 0.5)"><path id="line_3c517c21b87d5c73" d="M 126.578125 60.69921875 C 162.578125 60.69921875 154.578125 22.5 182.578125 22.5 L 265.578125 22.5" p="fa83b19a719b654f" stroke="#6A6CFF" fill="none" stroke-linecap="square" stroke-width="2"></path><path id="line_3307d26d96788fb0" d="M 126.578125 60.69921875 C 162.578125 60.69921875 154.578125 56.5 182.578125 56.5 L 265.578125 56.5" p="fa83b19a719b654f" stroke="#6A6CFF" fill="none" stroke-linecap="square" stroke-width="2"></path><path id="line_aa6cccfa3b78aec6" d="M 126.578125 60.69921875 C 162.578125 60.69921875 154.578125 90.5 182.578125 90.5 L 277.578125 90.5" p="fa83b19a719b654f" stroke="#6A6CFF" fill="none" stroke-linecap="square" stroke-width="2"></path></g><g transform="translate(0.5,0.5)"></g><g class="svg-summary-con" transform="translate(0.5,0.5)"></g><g class="svg-boundary-con" transform="translate(0.5,0.5)"></g></g><g transform="translate(187.3046875, 422)" id="sdjakdjak5"><g id="subline_a0dcf1c6188f6789" transform="translate(0.5, 0.5)"><path id="line_f046cc49ec82617e" d="M 158.3046875 77.69921875 C 122 77.69921875 130.15234375 22.5 102 22.5 L 48 22.5" p="a0dcf1c6188f6789" stroke="#FF44BC" fill="none" stroke-linecap="square" stroke-width="2"></path><path id="line_6fbd22530764af34" d="M 158.3046875 77.69921875 C 122 77.69921875 130.15234375 56.5 102 56.5 L 48 56.5" p="a0dcf1c6188f6789" stroke="#FF44BC" fill="none" stroke-linecap="square" stroke-width="2"></path><path id="line_fc512a17d39ec031" d="M 158.3046875 77.69921875 C 122 77.69921875 130.15234375 90.5 102 90.5 L 0 90.5" p="a0dcf1c6188f6789" stroke="#FF44BC" fill="none" stroke-linecap="square" stroke-width="2"></path><path id="line_574149d1798b3968" d="M 158.3046875 77.69921875 C 122 77.69921875 130.15234375 124.5 102 124.5 L 36 124.5" p="a0dcf1c6188f6789" stroke="#FF44BC" fill="none" stroke-linecap="square" stroke-width="2"></path></g><g transform="translate(0.5,0.5)"></g><g class="svg-summary-con" transform="translate(0.5,0.5)"></g><g class="svg-boundary-con" transform="translate(0.5,0.5)"></g></g><g transform="translate(176, 370)" id="sdjakdjak6"><g id="subline_ba25a064e0b3327a" transform="translate(0.5, 0.5)"><path id="line_140c3582b7b53805" d="M 98 30.8984375 C 62 30.8984375 70 26.703125 42 26.703125 L 0 26.703125" p="ba25a064e0b3327a" stroke="#FE3E1E" fill="none" stroke-linecap="square" stroke-width="2"></path></g><g transform="translate(0.5,0.5)"></g><g class="svg-summary-con" transform="translate(0.5,0.5)"></g><g class="svg-boundary-con" transform="translate(0.5,0.5)"></g></g><g transform="translate(30, 190)" id="sdjakdjak7"><g id="subline_f5eaa76fff044c4e" transform="translate(0.5, 0.5)"><path id="line_40f950a7fdc8f2f5" d="M 244 94.69921875 C 208 94.69921875 216 22.5 188 22.5 L 98 22.5" p="f5eaa76fff044c4e" stroke="#03C1EB" fill="none" stroke-linecap="square" stroke-width="2"></path><path id="line_d4998eaddcde3583" d="M 244 94.69921875 C 208 94.69921875 216 107.5 188 107.5 L 122 107.5" p="f5eaa76fff044c4e" stroke="#03C1EB" fill="none" stroke-linecap="square" stroke-width="2"></path><path id="line_0cc5bc0177637e40" d="M 122 107.5 C 86 107.5 94 56.5 66 56.5 L 0 56.5" p="d4998eaddcde3583" stroke="#03C1EB" fill="none" stroke-linecap="square" stroke-width="2"></path><path id="line_2d5f7a4637053edd" d="M 122 107.5 C 86 107.5 94 90.5 66 90.5 L 0 90.5" p="d4998eaddcde3583" stroke="#03C1EB" fill="none" stroke-linecap="square" stroke-width="2"></path><path id="line_5a1a1c181105bb5e" d="M 122 107.5 C 86 107.5 94 124.5 66 124.5 L 0 124.5" p="d4998eaddcde3583" stroke="#03C1EB" fill="none" stroke-linecap="square" stroke-width="2"></path><path id="line_8a94a38998666b40" d="M 122 107.5 C 86 107.5 94 158.5 66 158.5 L 0 158.5" p="d4998eaddcde3583" stroke="#03C1EB" fill="none" stroke-linecap="square" stroke-width="2"></path></g><g transform="translate(0.5,0.5)"></g><g class="svg-summary-con" transform="translate(0.5,0.5)"></g><g class="svg-boundary-con" transform="translate(0.5,0.5)"></g></g><g transform="translate(122.203125, 112)" id="sdjakdjak8"><g id="subline_ebd8eacf22a3dae9" transform="translate(0.5, 0.5)"><path id="line_721f6f0ede5dbd9d" d="M 184 43.69921875 C 147.7578125 43.69921875 155.87890625 22.5 127.7578125 22.5 L 42.7578125 22.5" p="ebd8eacf22a3dae9" stroke="#FF44BC" fill="none" stroke-linecap="square" stroke-width="2"></path><path id="line_d5f2a96c34c16f6c" d="M 184 43.69921875 C 148 43.69921875 156 56.5 128 56.5 L 0 56.5" p="ebd8eacf22a3dae9" stroke="#FF44BC" fill="none" stroke-linecap="square" stroke-width="2"></path></g><g transform="translate(0.5,0.5)"></g><g class="svg-summary-con" transform="translate(0.5,0.5)"></g><g class="svg-boundary-con" transform="translate(0.5,0.5)"></g></g><g transform="translate(338, 60)" id="sdjakdjak9"><g id="subline_3f5037ad78888a17" transform="translate(0.5, 0.5)"></g><g transform="translate(0.5,0.5)"></g><g class="svg-summary-con" transform="translate(0.5,0.5)"></g><g class="svg-boundary-con" transform="translate(0.5,0.5)"></g></g><g transform="translate(510, 291)" id="sdjakdjak10"><g id="subline_root" transform="translate(0.5, 0.5)"></g><g transform="translate(0.5,0.5)"></g><g class="svg-summary-con" transform="translate(0.5,0.5)"></g><g class="svg-boundary-con" transform="translate(0.5,0.5)"></g></g><g id="root"><rect x="510" y="290.9" rx="6px" ry="6px" width="195" height="56" stroke="rgba(0, 0, 0, 0.1)" style="fill:rgba(0, 0, 0, 0.1);"></rect><rect x="510" y="291" rx="6px" ry="6px" width="194" height="54" style="fill: #ffffff; stroke:none;stroke-width:0px;"></rect><g><text text-anchor="start" align="top" anchor="start" font-size="24px" font-weight="normal" fill="rgb(51, 67, 90)" style="font-size:24px;font-family:微软雅黑;color:#33435A;font-style:normal;text-align:left;font-weight:normal;"><tspan x="542" y="325"><tspan dx="0">初识python</tspan></tspan></text></g></g></svg>