<svg xmlns="http://www.w3.org/2000/svg" xlink="http://www.w3.org/1999/xlink" id="mind-svg-con" version="1.1" width="536px" height="204px" style="position: absolute; left: 0px; top: 0px; width: 536px; height: 204px; background: rgb(255, 255, 255); z-index: 999;"><defs></defs><g id="svgbackgroundid"><defs></defs><rect x="0" y="0" width="536" height="204" fill="#ffffff"></rect></g><g transform="translate(-9890, -9827)" id="sdjakdjak3"><defs></defs><g class="svg-topic-con" transform="translate(0.5,0.5)"><path part="right" sub="true" id="line_57ac701536d6668f" d="M 10016 9937 C 10016 9937 10060 9887.8984375 10180 9887.8984375 L 10284 9887.8984375 L 10180 9887.8984375 C 10080 9887.8984375 10021 9943 10021 9943 L 10016 9937 Z" stroke="#FFD424" fill="#FFD424" stroke-width="2"></path><path part="right" sub="true" id="line_c8cc4be0d259c76c" d="M 10016 9949 C 10016 9949 10060 9969.69921875 10180 9969.69921875 L 10284 9969.69921875 L 10180 9969.69921875 C 10080 9969.69921875 10021 9943 10021 9943 L 10016 9949 Z" stroke="#4F7CFF" fill="#4F7CFF" stroke-width="2"></path></g><g class="svg-connection-con" transform="translate(0.5,0.5)"></g><g class="svg-freesums-con" transform="translate(0.5,0.5)"></g><g class="svg-freebos-con" transform="translate(0.5,0.5)"></g></g><g id="c8cc4be0d259c76c"><rect x="290" y="111.796875" rx="1px" ry="1px" width="104" height="30" style="fill: transparent; stroke:none;stroke-width:0px;"></rect><g><text text-anchor="start" align="top" anchor="start" font-size="16px" font-weight="normal" fill="rgb(51, 67, 90)" style="font-size:16px;font-family:微软雅黑;color:#33435A;font-style:normal;text-align:left;font-weight:normal;"><tspan x="310" y="132"><tspan dx="0">异常处理</tspan></tspan></text></g><line x1="290" y1="142" x2="394" y2="142" style="stroke:rgb(79, 124, 255);stroke-width:2"></line></g><g id="98c2a3b5d903d519"><rect x="450" y="82" rx="1px" ry="1px" width="38" height="22" style="fill: transparent; stroke:none;stroke-width:0px;"></rect><g><text text-anchor="start" align="top" anchor="start" font-size="12px" font-weight="normal" fill="rgb(51, 67, 90)" style="font-size:12px;font-family:微软雅黑;color:#33435A;font-style:normal;text-align:left;font-weight:normal;"><tspan x="459" y="95.16"><tspan dx="0">try</tspan></tspan></text></g></g><g id="180e289adf4ea275"><rect x="450" y="116" rx="1px" ry="1px" width="56" height="22" style="fill: transparent; stroke:none;stroke-width:0px;"></rect><g><text text-anchor="start" align="top" anchor="start" font-size="12px" font-weight="normal" fill="rgb(51, 67, 90)" style="font-size:12px;font-family:微软雅黑;color:#33435A;font-style:normal;text-align:left;font-weight:normal;"><tspan x="459" y="129.16"><tspan dx="0">except</tspan></tspan></text></g></g><g id="66b88a742e5f6451"><rect x="450" y="150" rx="1px" ry="1px" width="45" height="22" style="fill: transparent; stroke:none;stroke-width:0px;"></rect><g><text text-anchor="start" align="top" anchor="start" font-size="12px" font-weight="normal" fill="rgb(51, 67, 90)" style="font-size:12px;font-family:微软雅黑;color:#33435A;font-style:normal;text-align:left;font-weight:normal;"><tspan x="459" y="163.16"><tspan dx="0">raise</tspan></tspan></text></g></g><g id="57ac701536d6668f"><rect x="290" y="30" rx="1px" ry="1px" width="104" height="30" style="fill: transparent; stroke:none;stroke-width:0px;"></rect><g><text text-anchor="start" align="top" anchor="start" font-size="16px" font-weight="normal" fill="rgb(51, 67, 90)" style="font-size:16px;font-family:微软雅黑;color:#33435A;font-style:normal;text-align:left;font-weight:normal;"><tspan x="310" y="50"><tspan dx="0">报错类型</tspan></tspan></text></g><line x1="290" y1="61" x2="394" y2="61" style="stroke:rgb(255, 212, 36);stroke-width:2"></line></g><g transform="translate(290, 82)" id="sdjakdjak0"><g id="subline_c8cc4be0d259c76c" transform="translate(0.5, 0.5)"><path id="line_98c2a3b5d903d519" d="M 104 60.69921875 C 140 60.69921875 132 22.5 160 22.5 L 198 22.5" p="c8cc4be0d259c76c" stroke="#4F7CFF" fill="none" stroke-linecap="square" stroke-width="2"></path><path id="line_180e289adf4ea275" d="M 104 60.69921875 C 140 60.69921875 132 56.5 160 56.5 L 216 56.5" p="c8cc4be0d259c76c" stroke="#4F7CFF" fill="none" stroke-linecap="square" stroke-width="2"></path><path id="line_66b88a742e5f6451" d="M 104 60.69921875 C 140 60.69921875 132 90.5 160 90.5 L 205 90.5" p="c8cc4be0d259c76c" stroke="#4F7CFF" fill="none" stroke-linecap="square" stroke-width="2"></path></g><g transform="translate(0.5,0.5)"></g><g class="svg-summary-con" transform="translate(0.5,0.5)"></g><g class="svg-boundary-con" transform="translate(0.5,0.5)"></g></g><g transform="translate(290, 30)" id="sdjakdjak1"><g id="subline_57ac701536d6668f" transform="translate(0.5, 0.5)"></g><g transform="translate(0.5,0.5)"></g><g class="svg-summary-con" transform="translate(0.5,0.5)"></g><g class="svg-boundary-con" transform="translate(0.5,0.5)"></g></g><g transform="translate(30, 89)" id="sdjakdjak2"><g id="subline_root" transform="translate(0.5, 0.5)"></g><g transform="translate(0.5,0.5)"></g><g class="svg-summary-con" transform="translate(0.5,0.5)"></g><g class="svg-boundary-con" transform="translate(0.5,0.5)"></g></g><g id="root"><rect x="30" y="88.9" rx="6px" ry="6px" width="161" height="56" stroke="rgba(0, 0, 0, 0.1)" style="fill:rgba(0, 0, 0, 0.1);"></rect><rect x="30" y="89" rx="6px" ry="6px" width="160" height="54" style="fill: #ffffff; stroke:none;stroke-width:0px;"></rect><g><text text-anchor="start" align="top" anchor="start" font-size="24px" font-weight="normal" fill="rgb(51, 67, 90)" style="font-size:24px;font-family:微软雅黑;color:#33435A;font-style:normal;text-align:left;font-weight:normal;"><tspan x="62" y="123"><tspan dx="0">异常处理</tspan></tspan></text></g></g></svg>