<svg id="SvgjsSvg2031" width="693" height="296.5" xmlns="http://www.w3.org/2000/svg" version="1.1" xmlns:xlink="http://www.w3.org/1999/xlink" xmlns:svgjs="http://svgjs.com/svgjs"><defs id="SvgjsDefs2032"><pattern patternUnits="userSpaceOnUse" id="pattern_mark_0" width="300" height="300"><text x="150" y="100" fill="rgba(229,229,229,0.8)" font-size="18" transform="rotate(-45, 150, 150)" style="dominant-baseline: middle; text-anchor: middle;"></text></pattern><pattern patternUnits="userSpaceOnUse" id="pattern_mark_1" width="300" height="300"><text x="150" y="200" fill="rgba(229,229,229,0.8)" font-size="18" transform="rotate(-45, 150, 150)" style="dominant-baseline: middle; text-anchor: middle;"></text></pattern><marker id="SvgjsMarker2090" markerWidth="13" markerHeight="9" refX="9.5" refY="4.5" viewBox="0 0 13 9" orient="auto" markerUnits="userSpaceOnUse" stroke-dasharray="0,0"><path id="SvgjsPath2091" d="M0,0 L13,4.5 L0,9 L0,0" fill="#323232" stroke="#323232" stroke-width="1"></path></marker><marker id="SvgjsMarker2100" markerWidth="13" markerHeight="9" refX="9.5" refY="4.5" viewBox="0 0 13 9" orient="auto" markerUnits="userSpaceOnUse" stroke-dasharray="0,0"><path id="SvgjsPath2101" d="M0,0 L13,4.5 L0,9 L0,0" fill="#323232" stroke="#323232" stroke-width="1"></path></marker><marker id="SvgjsMarker2110" markerWidth="13" markerHeight="9" refX="9.5" refY="4.5" viewBox="0 0 13 9" orient="auto" markerUnits="userSpaceOnUse" stroke-dasharray="0,0"><path id="SvgjsPath2111" d="M0,0 L13,4.5 L0,9 L0,0" fill="#323232" stroke="#323232" stroke-width="1"></path></marker><marker id="SvgjsMarker2120" markerWidth="13" markerHeight="9" refX="9.5" refY="4.5" viewBox="0 0 13 9" orient="auto" markerUnits="userSpaceOnUse" stroke-dasharray="0,0"><path id="SvgjsPath2121" d="M0,0 L13,4.5 L0,9 L0,0" fill="#323232" stroke="#323232" stroke-width="1"></path></marker><marker id="SvgjsMarker2130" markerWidth="13" markerHeight="9" refX="9.5" refY="4.5" viewBox="0 0 13 9" orient="auto" markerUnits="userSpaceOnUse" stroke-dasharray="0,0"><path id="SvgjsPath2131" d="M0,0 L13,4.5 L0,9 L0,0" fill="#323232" stroke="#323232" stroke-width="1"></path></marker><marker id="SvgjsMarker2140" markerWidth="13" markerHeight="9" refX="9.5" refY="4.5" viewBox="0 0 13 9" orient="auto" markerUnits="userSpaceOnUse" stroke-dasharray="0,0"><path id="SvgjsPath2141" d="M0,0 L13,4.5 L0,9 L0,0" fill="#323232" stroke="#323232" stroke-width="1"></path></marker><marker id="SvgjsMarker2150" markerWidth="13" markerHeight="9" refX="9.5" refY="4.5" viewBox="0 0 13 9" orient="auto" markerUnits="userSpaceOnUse" stroke-dasharray="0,0"><path id="SvgjsPath2151" d="M0,0 L13,4.5 L0,9 L0,0" fill="#323232" stroke="#323232" stroke-width="1"></path></marker><marker id="SvgjsMarker2160" markerWidth="13" markerHeight="9" refX="9.5" refY="4.5" viewBox="0 0 13 9" orient="auto" markerUnits="userSpaceOnUse" stroke-dasharray="0,0"><path id="SvgjsPath2161" d="M0,0 L13,4.5 L0,9 L0,0" fill="#323232" stroke="#323232" stroke-width="1"></path></marker><marker id="SvgjsMarker2170" markerWidth="13" markerHeight="9" refX="9.5" refY="4.5" viewBox="0 0 13 9" orient="auto" markerUnits="userSpaceOnUse" stroke-dasharray="0,0"><path id="SvgjsPath2171" d="M0,0 L13,4.5 L0,9 L0,0" fill="#323232" stroke="#323232" stroke-width="1"></path></marker><marker id="SvgjsMarker2192" markerWidth="13" markerHeight="9" refX="9.5" refY="4.5" viewBox="0 0 13 9" orient="auto" markerUnits="userSpaceOnUse" stroke-dasharray="0,0"><path id="SvgjsPath2193" d="M0,0 L13,4.5 L0,9 L0,0" fill="#323232" stroke="#323232" stroke-width="1"></path></marker><marker id="SvgjsMarker2196" markerWidth="13" markerHeight="9" refX="9.5" refY="4.5" viewBox="0 0 13 9" orient="auto" markerUnits="userSpaceOnUse" stroke-dasharray="0,0"><path id="SvgjsPath2197" d="M0,0 L13,4.5 L0,9 L0,0" fill="#323232" stroke="#323232" stroke-width="1"></path></marker></defs><rect id="svgbackgroundid" width="693" height="296.5" fill="transparent"></rect><rect id="SvgjsRect2034" width="693" height="296.5" fill="url(#pattern_mark_0)"></rect><rect id="SvgjsRect2035" width="693" height="296.5" fill="url(#pattern_mark_1)"></rect><g id="SvgjsG2036" transform="translate(183,201.5)"><path id="SvgjsPath2037" d="M 0 0L 112 0L 112 70L 0 70Z" stroke-dasharray="10,6" stroke="rgba(33,41,48,1)" stroke-width="1.5" fill="none"></path><g id="SvgjsG2038"><text id="SvgjsText2039" font-family="微软雅黑" text-anchor="middle" font-size="13px" width="92px" fill="#323232" font-weight="400" align="middle" lineHeight="125%" anchor="middle" family="微软雅黑" size="13px" weight="400" font-style="" opacity="1" y="24.375" transform="rotate(0)"></text></g></g><g id="SvgjsG2040" transform="translate(183,25)"><path id="SvgjsPath2041" d="M 0 0L 112 0L 112 107L 0 107Z" stroke-dasharray="10,6" stroke="rgba(33,41,48,1)" stroke-width="1.5" fill="none"></path><g id="SvgjsG2042"><text id="SvgjsText2043" font-family="微软雅黑" text-anchor="middle" font-size="13px" width="92px" fill="#323232" font-weight="400" align="middle" lineHeight="125%" anchor="middle" family="微软雅黑" size="13px" weight="400" font-style="" opacity="1" y="42.875" transform="rotate(0)"></text></g></g><g id="SvgjsG2044" transform="translate(201.5,25.5)"><path id="SvgjsPath2045" d="M 0 4Q 0 0 4 0L 71 0Q 75 0 75 4L 75 32Q 75 36 71 36L 4 36Q 0 36 0 32Z" stroke="rgba(33,41,48,1)" stroke-width="1.5" fill-opacity="1" fill="#dbf5f5"></path><g id="SvgjsG2046"><text id="SvgjsText2047" font-family="微软雅黑" text-anchor="middle" font-size="13px" width="55px" fill="#323232" font-weight="700" align="middle" lineHeight="125%" anchor="middle" family="微软雅黑" size="13px" weight="700" font-style="" opacity="1" y="7.375" transform="rotate(0)"><tspan id="SvgjsTspan2048" dy="16.25" x="37.5"><tspan id="SvgjsTspan2049" style="">应用层</tspan></tspan></text></g></g><g id="SvgjsG2050" transform="translate(201.5,60.5)"><path id="SvgjsPath2051" d="M 0 4Q 0 0 4 0L 71 0Q 75 0 75 4L 75 32Q 75 36 71 36L 4 36Q 0 36 0 32Z" stroke="rgba(33,41,48,1)" stroke-width="1.5" fill-opacity="1" fill="#a6aef3"></path><g id="SvgjsG2052"><text id="SvgjsText2053" font-family="微软雅黑" text-anchor="middle" font-size="13px" width="55px" fill="#323232" font-weight="700" align="middle" lineHeight="125%" anchor="middle" family="微软雅黑" size="13px" weight="700" font-style="" opacity="1" y="7.375" transform="rotate(0)"><tspan id="SvgjsTspan2054" dy="16.25" x="37.5"><tspan id="SvgjsTspan2055" style="">表示层</tspan></tspan></text></g></g><g id="SvgjsG2056" transform="translate(201.5,91)"><path id="SvgjsPath2057" d="M 0 4Q 0 0 4 0L 71 0Q 75 0 75 4L 75 32Q 75 36 71 36L 4 36Q 0 36 0 32Z" stroke="rgba(33,41,48,1)" stroke-width="1.5" fill-opacity="1" fill="#7985ec"></path><g id="SvgjsG2058"><text id="SvgjsText2059" font-family="微软雅黑" text-anchor="middle" font-size="13px" width="55px" fill="#323232" font-weight="700" align="middle" lineHeight="125%" anchor="middle" family="微软雅黑" size="13px" weight="700" font-style="" opacity="1" y="7.375" transform="rotate(0)"><tspan id="SvgjsTspan2060" dy="16.25" x="37.5"><tspan id="SvgjsTspan2061" style="">会话层</tspan></tspan></text></g></g><g id="SvgjsG2062" transform="translate(201.5,200.5)"><path id="SvgjsPath2063" d="M 0 4Q 0 0 4 0L 71 0Q 75 0 75 4L 75 32Q 75 36 71 36L 4 36Q 0 36 0 32Z" stroke="rgba(33,41,48,1)" stroke-width="1.5" fill-opacity="1" fill="#e7ebed"></path><g id="SvgjsG2064"><text id="SvgjsText2065" font-family="微软雅黑" text-anchor="middle" font-size="13px" width="55px" fill="#323232" font-weight="700" align="middle" lineHeight="125%" anchor="middle" family="微软雅黑" size="13px" weight="700" font-style="" opacity="1" y="-0.625" transform="rotate(0)"><tspan id="SvgjsTspan2066" dy="16.25" x="37.5"><tspan id="SvgjsTspan2067" style="">数据链路</tspan></tspan><tspan id="SvgjsTspan2068" dy="16.25" x="37.5"><tspan id="SvgjsTspan2069" style="">层</tspan></tspan></text></g></g><g id="SvgjsG2070" transform="translate(201.5,165.5)"><path id="SvgjsPath2071" d="M 0 4Q 0 0 4 0L 71 0Q 75 0 75 4L 75 32Q 75 36 71 36L 4 36Q 0 36 0 32Z" stroke="rgba(33,41,48,1)" stroke-width="1.5" fill-opacity="1" fill="#f6edc1"></path><g id="SvgjsG2072"><text id="SvgjsText2073" font-family="微软雅黑" text-anchor="middle" font-size="13px" width="55px" fill="#323232" font-weight="700" align="middle" lineHeight="125%" anchor="middle" family="微软雅黑" size="13px" weight="700" font-style="" opacity="1" y="7.375" transform="rotate(0)"><tspan id="SvgjsTspan2074" dy="16.25" x="37.5"><tspan id="SvgjsTspan2075" style="">网络层</tspan></tspan></text></g></g><g id="SvgjsG2076" transform="translate(201.5,235.5)"><path id="SvgjsPath2077" d="M 0 4Q 0 0 4 0L 71 0Q 75 0 75 4L 75 32Q 75 36 71 36L 4 36Q 0 36 0 32Z" stroke="rgba(33,41,48,1)" stroke-width="1.5" fill-opacity="1" fill="#e0e0e0"></path><g id="SvgjsG2078"><text id="SvgjsText2079" font-family="微软雅黑" text-anchor="middle" font-size="13px" width="55px" fill="#323232" font-weight="700" align="middle" lineHeight="125%" anchor="middle" family="微软雅黑" size="13px" weight="700" font-style="" opacity="1" y="7.375" transform="rotate(0)"><tspan id="SvgjsTspan2080" dy="16.25" x="37.5"><tspan id="SvgjsTspan2081" style="">物理层</tspan></tspan></text></g></g><g id="SvgjsG2082" transform="translate(201.5,131.5)"><path id="SvgjsPath2083" d="M 0 4Q 0 0 4 0L 71 0Q 75 0 75 4L 75 32Q 75 36 71 36L 4 36Q 0 36 0 32Z" stroke="rgba(33,41,48,1)" stroke-width="1.5" fill-opacity="1" fill="#e5f6da"></path><g id="SvgjsG2084"><text id="SvgjsText2085" font-family="微软雅黑" text-anchor="middle" font-size="13px" width="55px" fill="#323232" font-weight="700" align="middle" lineHeight="125%" anchor="middle" family="微软雅黑" size="13px" weight="700" font-style="" opacity="1" y="7.375" transform="rotate(0)"><tspan id="SvgjsTspan2086" dy="16.25" x="37.5"><tspan id="SvgjsTspan2087" style="">传输层</tspan></tspan></text></g></g><g id="SvgjsG2088"><path id="SvgjsPath2089" d="M277.24999080481916 43.49628614934662L363.30003310265096 43.07017825074631" stroke="#323232" stroke-width="1.5" fill="none" marker-end="url(#SvgjsMarker2090)"></path></g><g id="SvgjsG2092" transform="translate(366,25.5)"><path id="SvgjsPath2093" d="M 0 0L 146 0L 146 36L 0 36Z" stroke="none" fill="none"></path><g id="SvgjsG2094"><text id="SvgjsText2095" font-family="微软雅黑" text-anchor="middle" font-size="13px" width="146px" fill="#323232" font-weight="400" align="middle" lineHeight="125%" anchor="middle" family="微软雅黑" size="13px" weight="400" font-style="" opacity="1" y="7.375" transform="rotate(0)"><tspan id="SvgjsTspan2096" dy="16.25" x="73"><tspan id="SvgjsTspan2097" style="font-weight: bold;">为计算机用户提供服务</tspan></tspan></text></g></g><g id="SvgjsG2098"><path id="SvgjsPath2099" d="M277.24993798694305 78.49035553320113L363.3002232470051 77.38371853964395" stroke="#323232" stroke-width="1.5" fill="none" marker-end="url(#SvgjsMarker2100)"></path></g><g id="SvgjsG2102" transform="translate(366,45.5)"><path id="SvgjsPath2103" d="M 0 0L 253 0L 253 60L 0 60Z" stroke="none" fill="none"></path><g id="SvgjsG2104"><text id="SvgjsText2105" font-family="微软雅黑" text-anchor="middle" font-size="13px" width="253px" fill="#323232" font-weight="400" align="middle" lineHeight="125%" anchor="middle" family="微软雅黑" size="13px" weight="400" font-style="" opacity="1" y="19.375" transform="rotate(0)"><tspan id="SvgjsTspan2106" dy="16.25" x="126.5"><tspan id="SvgjsTspan2107" style="font-weight: bold;">数据处理(编解码、加密解密、压缩解压缩)</tspan></tspan></text></g></g><g id="SvgjsG2108"><path id="SvgjsPath2109" d="M277.2497501841532 109.01935617116698L363.30089933704846 111.24092384440493" stroke="#323232" stroke-width="1.5" fill="none" marker-end="url(#SvgjsMarker2110)"></path></g><g id="SvgjsG2112" transform="translate(366,78.5)"><path id="SvgjsPath2113" d="M 0 0L 266 0L 266 61L 0 61Z" stroke="none" fill="none"></path><g id="SvgjsG2114"><text id="SvgjsText2115" font-family="微软雅黑" text-anchor="middle" font-size="13px" width="266px" fill="#323232" font-weight="400" align="middle" lineHeight="125%" anchor="middle" family="微软雅黑" size="13px" weight="400" font-style="" opacity="1" y="19.875" transform="rotate(0)"><tspan id="SvgjsTspan2116" dy="16.25" x="133"><tspan id="SvgjsTspan2117" style="font-weight: bold;">管理(建立、维护、重连)应用程序之间的会话</tspan></tspan></text></g></g><g id="SvgjsG2118"><path id="SvgjsPath2119" d="M277.25 149.5L363.3 149.5" stroke="#323232" stroke-width="1.5" fill="none" marker-end="url(#SvgjsMarker2120)"></path></g><g id="SvgjsG2122" transform="translate(366,116.5)"><path id="SvgjsPath2123" d="M 0 0L 302 0L 302 66L 0 66Z" stroke="none" fill="none"></path><g id="SvgjsG2124"><text id="SvgjsText2125" font-family="微软雅黑" text-anchor="middle" font-size="13px" width="302px" fill="#323232" font-weight="400" align="middle" lineHeight="125%" anchor="middle" family="微软雅黑" size="13px" weight="400" font-style="" opacity="1" y="22.375" transform="rotate(0)"><tspan id="SvgjsTspan2126" dy="16.25" x="151"><tspan id="SvgjsTspan2127" style="font-weight: bold;">为两台主机进程之间的通信提供通用的数据传输服务</tspan></tspan></text></g></g><g id="SvgjsG2128"><path id="SvgjsPath2129" d="M277.25 183.5L363.3 183.5" stroke="#323232" stroke-width="1.5" fill="none" marker-end="url(#SvgjsMarker2130)"></path></g><g id="SvgjsG2132" transform="translate(366,159.5)"><path id="SvgjsPath2133" d="M 0 0L 235 0L 235 48L 0 48Z" stroke="none" fill="none"></path><g id="SvgjsG2134"><text id="SvgjsText2135" font-family="微软雅黑" text-anchor="middle" font-size="13px" width="235px" fill="#323232" font-weight="400" align="middle" lineHeight="125%" anchor="middle" family="微软雅黑" size="13px" weight="400" font-style="" opacity="1" y="13.375" transform="rotate(0)"><tspan id="SvgjsTspan2136" dy="16.25" x="117.5"><tspan id="SvgjsTspan2137" style="font-weight: bold;">路由和寻址(决定数据在网络的游走路径)</tspan></tspan></text></g></g><g id="SvgjsG2138"><path id="SvgjsPath2139" d="M277.25 218.5L359.3 218.5" stroke="#323232" stroke-width="1.5" fill="none" marker-end="url(#SvgjsMarker2140)"></path></g><g id="SvgjsG2142" transform="translate(362,198.5)"><path id="SvgjsPath2143" d="M 0 0L 145 0L 145 40L 0 40Z" stroke="none" fill="none"></path><g id="SvgjsG2144"><text id="SvgjsText2145" font-family="微软雅黑" text-anchor="middle" font-size="13px" width="145px" fill="#323232" font-weight="400" align="middle" lineHeight="125%" anchor="middle" family="微软雅黑" size="13px" weight="400" font-style="" opacity="1" y="9.375" transform="rotate(0)"><tspan id="SvgjsTspan2146" dy="16.25" x="72.5"><tspan id="SvgjsTspan2147" style="font-weight: bold;">帧编码和误差纠正控制</tspan></tspan></text></g></g><g id="SvgjsG2148"><path id="SvgjsPath2149" d="M277.25 253.5L363.3 253.5" stroke="#323232" stroke-width="1.5" fill="none" marker-end="url(#SvgjsMarker2150)"></path></g><g id="SvgjsG2152" transform="translate(366,231.5)"><path id="SvgjsPath2153" d="M 0 0L 137 0L 137 40L 0 40Z" stroke="none" fill="none"></path><g id="SvgjsG2154"><text id="SvgjsText2155" font-family="微软雅黑" text-anchor="middle" font-size="13px" width="137px" fill="#323232" font-weight="400" align="middle" lineHeight="125%" anchor="middle" family="微软雅黑" size="13px" weight="400" font-style="" opacity="1" y="9.375" transform="rotate(0)"><tspan id="SvgjsTspan2156" dy="16.25" x="68.5"><tspan id="SvgjsTspan2157" style="font-weight: bold;">透明地传送比特流传输</tspan></tspan></text></g></g><g id="SvgjsG2158"><path id="SvgjsPath2159" d="M182.25 78.5L98.7 78.5" stroke="#323232" stroke-width="1.5" fill="none" marker-end="url(#SvgjsMarker2160)"></path></g><g id="SvgjsG2162" transform="translate(48,58.5)"><path id="SvgjsPath2163" d="M 0 0L 48 0L 48 40L 0 40Z" stroke="none" fill="none"></path><g id="SvgjsG2164"><text id="SvgjsText2165" font-family="微软雅黑" text-anchor="middle" font-size="13px" width="48px" fill="#323232" font-weight="400" align="middle" lineHeight="125%" anchor="middle" family="微软雅黑" size="13px" weight="400" font-style="" opacity="1" y="9.375" transform="rotate(0)"><tspan id="SvgjsTspan2166" dy="16.25" x="24"><tspan id="SvgjsTspan2167" style="font-weight: bold;">应用层</tspan></tspan></text></g></g><g id="SvgjsG2168"><path id="SvgjsPath2169" d="M200.75003534484793 149.4927187897558L101.19987275854749 148.5262123568791" stroke="#323232" stroke-width="1.5" fill="none" marker-end="url(#SvgjsMarker2170)"></path></g><g id="SvgjsG2172" transform="translate(45.5,128.5)"><path id="SvgjsPath2173" d="M 0 0L 53 0L 53 40L 0 40Z" stroke="none" fill="none"></path><g id="SvgjsG2174"><text id="SvgjsText2175" font-family="微软雅黑" text-anchor="middle" font-size="13px" width="53px" fill="#323232" font-weight="400" align="middle" lineHeight="125%" anchor="middle" family="微软雅黑" size="13px" weight="400" font-style="" opacity="1" y="9.375" transform="rotate(0)"><tspan id="SvgjsTspan2176" dy="16.25" x="26.5"><tspan id="SvgjsTspan2177" style="font-weight: bold;">传输层</tspan></tspan></text></g></g><g id="SvgjsG2178" transform="translate(49.5,172.5)"><path id="SvgjsPath2179" d="M 0 0L 45 0L 45 25L 0 25Z" stroke="none" fill="none"></path><g id="SvgjsG2180"><text id="SvgjsText2181" font-family="微软雅黑" text-anchor="middle" font-size="13px" width="45px" fill="#323232" font-weight="400" align="middle" lineHeight="125%" anchor="middle" family="微软雅黑" size="13px" weight="400" font-style="" opacity="1" y="1.875" transform="rotate(0)"><tspan id="SvgjsTspan2182" dy="16.25" x="22.5"><tspan id="SvgjsTspan2183" style="font-weight: bold;">网络层</tspan></tspan></text></g></g><g id="SvgjsG2184" transform="translate(25,212.5)"><path id="SvgjsPath2185" d="M 0 0L 69.5 0L 69.5 48L 0 48Z" stroke="none" fill="none"></path><g id="SvgjsG2186"><text id="SvgjsText2187" font-family="微软雅黑" text-anchor="middle" font-size="13px" width="70px" fill="#323232" font-weight="400" align="middle" lineHeight="125%" anchor="middle" family="微软雅黑" size="13px" weight="400" font-style="" opacity="1" y="13.375" transform="rotate(0)"><tspan id="SvgjsTspan2188" dy="16.25" x="35"><tspan id="SvgjsTspan2189" style="font-weight: bold;">网络接口层</tspan></tspan></text></g></g><g id="SvgjsG2190"><path id="SvgjsPath2191" d="M182.25 236.5L97.2 236.5" stroke="#323232" stroke-width="1.5" fill="none" marker-end="url(#SvgjsMarker2192)"></path></g><g id="SvgjsG2194"><path id="SvgjsPath2195" d="M200.75007368553216 183.51051298571684L97.19973473208422 184.96215325141938" stroke="#323232" stroke-width="1.5" fill="none" marker-end="url(#SvgjsMarker2196)"></path></g></svg>