<svg id="SvgjsSvg1006" width="376.1818181818182" height="332.09090909090907" xmlns="http://www.w3.org/2000/svg" version="1.1" xmlns:xlink="http://www.w3.org/1999/xlink" xmlns:svgjs="http://svgjs.com/svgjs"><defs id="SvgjsDefs1007"><pattern patternUnits="userSpaceOnUse" id="pattern_mark_0" width="300" height="300"><text x="150" y="100" fill="rgba(229,229,229,0.8)" font-size="18" transform="rotate(-45, 150, 150)" style="dominant-baseline: middle; text-anchor: middle;"></text></pattern><pattern patternUnits="userSpaceOnUse" id="pattern_mark_1" width="300" height="300"><text x="150" y="200" fill="rgba(229,229,229,0.8)" font-size="18" transform="rotate(-45, 150, 150)" style="dominant-baseline: middle; text-anchor: middle;"></text></pattern></defs><rect id="svgbackgroundid" width="376.1818181818182" height="332.09090909090907" fill="transparent"></rect><rect id="SvgjsRect1009" width="376.1818181818182" height="332.09090909090907" fill="url(#pattern_mark_0)"></rect><rect id="SvgjsRect1010" width="376.1818181818182" height="332.09090909090907" fill="url(#pattern_mark_1)"></rect><g id="SvgjsG1011" transform="translate(25,25)"><path id="SvgjsPath1012" d="M 0 0L 326.1818181818182 0L 326.1818181818182 282.09090909090907L 0 282.09090909090907Z" stroke="rgba(110,154,216,1)" stroke-width="2" fill-opacity="1" fill="#ffffff"></path><g id="SvgjsG1013"><text id="SvgjsText1014" font-family="微软雅黑" text-anchor="middle" font-size="13px" width="307px" fill="#323232" font-weight="400" align="middle" lineHeight="125%" anchor="middle" family="微软雅黑" size="13px" weight="400" font-style="" opacity="1" y="130.42045454545453" transform="rotate(0)"></text></g></g><g id="SvgjsG1015" transform="translate(225.63636363636368,42.81818181818181)"><path id="SvgjsPath1016" d="M 0 61.666666666666664L 0 0L 100 0L 100 61.666666666666664Q 75 45 50 61.666666666666664Q 25 78.33333333333333 0 61.666666666666664Z" stroke="rgba(125,150,175,1)" stroke-width="1.5" fill-opacity="1" fill="#fbf2c9"></path><g id="SvgjsG1017"><text id="SvgjsText1018" font-family="微软雅黑" text-anchor="middle" font-size="13px" width="100px" fill="#323232" font-weight="400" align="middle" lineHeight="125%" anchor="middle" family="微软雅黑" size="13px" weight="400" font-style="" opacity="1" y="20.875" transform="rotate(0)"><tspan id="SvgjsTspan1019" dy="16.25" x="50"><tspan id="SvgjsTspan1020" style="">表格</tspan></tspan></text></g></g><g id="SvgjsG1021" transform="translate(216.63636363636368,49.81818181818181)"><path id="SvgjsPath1022" d="M 0 61.666666666666664L 0 0L 100 0L 100 61.666666666666664Q 75 45 50 61.666666666666664Q 25 78.33333333333333 0 61.666666666666664Z" stroke="rgba(125,150,175,1)" stroke-width="1.5" fill-opacity="1" fill="#fbf2c9"></path><g id="SvgjsG1023"><text id="SvgjsText1024" font-family="微软雅黑" text-anchor="middle" font-size="13px" width="100px" fill="#323232" font-weight="400" align="middle" lineHeight="125%" anchor="middle" family="微软雅黑" size="13px" weight="400" font-style="" opacity="1" y="20.875" transform="rotate(0)"><tspan id="SvgjsTspan1025" dy="16.25" x="50"><tspan id="SvgjsTspan1026" style="">表格</tspan></tspan></text></g></g><g id="SvgjsG1027" transform="translate(208.63636363636368,60.81818181818181)"><path id="SvgjsPath1028" d="M 0 61.666666666666664L 0 0L 100 0L 100 61.666666666666664Q 75 45 50 61.666666666666664Q 25 78.33333333333333 0 61.666666666666664Z" stroke="rgba(125,150,175,1)" stroke-width="1.5" fill-opacity="1" fill="#fbf2c9"></path><g id="SvgjsG1029"><text id="SvgjsText1030" font-family="微软雅黑" text-anchor="middle" font-size="13px" width="100px" fill="#323232" font-weight="400" align="middle" lineHeight="125%" anchor="middle" family="微软雅黑" size="13px" weight="400" font-style="" opacity="1" y="20.875" transform="rotate(0)"><tspan id="SvgjsTspan1031" dy="16.25" x="50"><tspan id="SvgjsTspan1032" style="">表格</tspan></tspan></text></g></g><g id="SvgjsG1033"><path id="SvgjsPath1034" d="M209.38636363636368 75.81818181818181L307.8863636363637 75.81818181818181" stroke="#7d96af" stroke-width="1.5" fill="none"></path></g><g id="SvgjsG1035"><path id="SvgjsPath1036" d="M209.38636363636368 95.81818181818181L307.8863636363637 95.81818181818181" stroke="#7d96af" stroke-width="1.5" fill="none"></path></g><g id="SvgjsG1037"><path id="SvgjsPath1038" d="M210.63636363636368 112.81818181818181L307.8863636363637 112.81818181818181" stroke="#7d96af" stroke-width="1.5" fill="none"></path></g><g id="SvgjsG1039"><path id="SvgjsPath1040" d="M229.63693249399108 61.5681816024491L229.6881307349792 129.06955249915995" stroke="#7d96af" stroke-width="1.5" fill="none"></path></g><g id="SvgjsG1041"><path id="SvgjsPath1042" d="M252.63636363636368 61.81818181818181L252.63636363636368 123.81818181818181" stroke="#7d96af" stroke-width="1.5" fill="none"></path></g><g id="SvgjsG1043"><path id="SvgjsPath1044" d="M273.6363636363637 61.81818181818181L273.6363636363637 114.12759036562983" stroke="#7d96af" stroke-width="1.5" fill="none"></path></g><g id="SvgjsG1045"><path id="SvgjsPath1046" d="M292.6363636363637 61.56818181818181L292.6363636363637 114.10225599189275" stroke="#7d96af" stroke-width="1.5" fill="none"></path></g><g id="SvgjsG1047" transform="translate(225.63636363636368,164.8181818181818)"><path id="SvgjsPath1048" d="M 0 61.666666666666664L 0 0L 100 0L 100 61.666666666666664Q 75 45 50 61.666666666666664Q 25 78.33333333333333 0 61.666666666666664Z" stroke="rgba(125,150,175,1)" stroke-width="1.5" fill-opacity="1" fill="#fbf2c9"></path><g id="SvgjsG1049"><text id="SvgjsText1050" font-family="微软雅黑" text-anchor="middle" font-size="13px" width="100px" fill="#323232" font-weight="400" align="middle" lineHeight="125%" anchor="middle" family="微软雅黑" size="13px" weight="400" font-style="" opacity="1" y="20.875" transform="rotate(0)"><tspan id="SvgjsTspan1051" dy="16.25" x="50"><tspan id="SvgjsTspan1052" style="">表格</tspan></tspan></text></g></g><g id="SvgjsG1053" transform="translate(216.63636363636368,171.8181818181818)"><path id="SvgjsPath1054" d="M 0 61.666666666666664L 0 0L 100 0L 100 61.666666666666664Q 75 45 50 61.666666666666664Q 25 78.33333333333333 0 61.666666666666664Z" stroke="rgba(125,150,175,1)" stroke-width="1.5" fill-opacity="1" fill="#fbf2c9"></path><g id="SvgjsG1055"><text id="SvgjsText1056" font-family="微软雅黑" text-anchor="middle" font-size="13px" width="100px" fill="#323232" font-weight="400" align="middle" lineHeight="125%" anchor="middle" family="微软雅黑" size="13px" weight="400" font-style="" opacity="1" y="20.875" transform="rotate(0)"><tspan id="SvgjsTspan1057" dy="16.25" x="50"><tspan id="SvgjsTspan1058" style="">表格</tspan></tspan></text></g></g><g id="SvgjsG1059" transform="translate(208.63636363636368,182.8181818181818)"><path id="SvgjsPath1060" d="M 0 61.666666666666664L 0 0L 100 0L 100 61.666666666666664Q 75 45 50 61.666666666666664Q 25 78.33333333333333 0 61.666666666666664Z" stroke="rgba(125,150,175,1)" stroke-width="1.5" fill-opacity="1" fill="#fbf2c9"></path><g id="SvgjsG1061"><text id="SvgjsText1062" font-family="微软雅黑" text-anchor="middle" font-size="13px" width="100px" fill="#323232" font-weight="400" align="middle" lineHeight="125%" anchor="middle" family="微软雅黑" size="13px" weight="400" font-style="" opacity="1" y="20.875" transform="rotate(0)"><tspan id="SvgjsTspan1063" dy="16.25" x="50"><tspan id="SvgjsTspan1064" style="">表格</tspan></tspan></text></g></g><g id="SvgjsG1065"><path id="SvgjsPath1066" d="M209.38636363636368 197.8181818181818L307.8863636363637 197.8181818181818" stroke="#7d96af" stroke-width="1.5" fill="none"></path></g><g id="SvgjsG1067"><path id="SvgjsPath1068" d="M209.38636363636368 217.8181818181818L307.8863636363637 217.8181818181818" stroke="#7d96af" stroke-width="1.5" fill="none"></path></g><g id="SvgjsG1069"><path id="SvgjsPath1070" d="M210.63636363636368 234.8181818181818L307.8863636363637 234.8181818181818" stroke="#7d96af" stroke-width="1.5" fill="none"></path></g><g id="SvgjsG1071"><path id="SvgjsPath1072" d="M229.63693249399108 183.5681816024491L229.6881307349792 251.06955249915995" stroke="#7d96af" stroke-width="1.5" fill="none"></path></g><g id="SvgjsG1073"><path id="SvgjsPath1074" d="M252.63636363636368 183.8181818181818L252.63636363636368 245.8181818181818" stroke="#7d96af" stroke-width="1.5" fill="none"></path></g><g id="SvgjsG1075"><path id="SvgjsPath1076" d="M273.6363636363637 183.8181818181818L273.6363636363637 236.12759036562983" stroke="#7d96af" stroke-width="1.5" fill="none"></path></g><g id="SvgjsG1077"><path id="SvgjsPath1078" d="M292.6363636363637 183.5681818181818L292.6363636363637 236.10225599189272" stroke="#7d96af" stroke-width="1.5" fill="none"></path></g><g id="SvgjsG1079" transform="translate(46.63636363636367,44.81818181818181)"><path id="SvgjsPath1080" d="M 0 11.666666666666666L 0 68C 0 84 70 84 70 68L 70 11.666666666666666C 70 -3.1818181818181817 0 -3.1818181818181817 0 11.666666666666666ZM 0 11.666666666666666C 0 26.25 70 26.25 70 11.666666666666666C 70 26.25 0 26.25 0 11.666666666666666" stroke="rgba(33,41,48,1)" stroke-width="1.5" fill-opacity="1" fill="#6e9ad8"></path><g id="SvgjsG1081"><text id="SvgjsText1082" font-family="微软雅黑" text-anchor="middle" font-size="13px" width="70px" fill="#ffffff" font-weight="700" align="middle" lineHeight="125%" anchor="middle" family="微软雅黑" size="13px" weight="700" font-style="" opacity="1" y="-3.125" transform="rotate(0)"><tspan id="SvgjsTspan1083" dy="16.25" x="35"><tspan id="SvgjsTspan1084" style=""> </tspan></tspan><tspan id="SvgjsTspan1085" dy="16.25" x="35"><tspan id="SvgjsTspan1086" style=""> </tspan></tspan><tspan id="SvgjsTspan1087" dy="16.25" x="35"><tspan id="SvgjsTspan1088" style="">图书管理</tspan></tspan><tspan id="SvgjsTspan1089" dy="16.25" x="35"><tspan id="SvgjsTspan1090" style="">数据库</tspan></tspan></text></g></g><g id="SvgjsG1091" transform="translate(46.63636363636367,166.8181818181818)"><path id="SvgjsPath1092" d="M 0 11.666666666666666L 0 68C 0 84 70 84 70 68L 70 11.666666666666666C 70 -3.1818181818181817 0 -3.1818181818181817 0 11.666666666666666ZM 0 11.666666666666666C 0 26.25 70 26.25 70 11.666666666666666C 70 26.25 0 26.25 0 11.666666666666666" stroke="rgba(33,41,48,1)" stroke-width="1.5" fill-opacity="1" fill="#6e9ad8"></path><g id="SvgjsG1093"><text id="SvgjsText1094" font-family="微软雅黑" text-anchor="middle" font-size="13px" width="70px" fill="#ffffff" font-weight="700" align="middle" lineHeight="125%" anchor="middle" family="微软雅黑" size="13px" weight="700" font-style="" opacity="1" y="-3.125" transform="rotate(0)"><tspan id="SvgjsTspan1095" dy="16.25" x="35"><tspan id="SvgjsTspan1096" style=""> </tspan></tspan><tspan id="SvgjsTspan1097" dy="16.25" x="35"><tspan id="SvgjsTspan1098" style=""> </tspan></tspan><tspan id="SvgjsTspan1099" dy="16.25" x="35"><tspan id="SvgjsTspan1100" style="">商品管理</tspan></tspan><tspan id="SvgjsTspan1101" dy="16.25" x="35"><tspan id="SvgjsTspan1102" style="">数据库</tspan></tspan></text></g></g><g id="SvgjsG1103" transform="translate(125.63636363636367,65.31818181818181)"><path id="SvgjsPath1104" d="M 0 12.870000000000001L 54.5 12.870000000000001L 54.5 0L 74 19.5L 54.5 39L 54.5 26.130000000000003L 0 26.130000000000003L 0 12.870000000000001Z" stroke="rgba(33,41,48,1)" stroke-width="1.5" fill-opacity="1" fill="#97d13f"></path><g id="SvgjsG1105"><text id="SvgjsText1106" font-family="微软雅黑" text-anchor="middle" font-size="13px" width="74px" fill="#323232" font-weight="400" align="middle" lineHeight="125%" anchor="middle" family="微软雅黑" size="13px" weight="400" font-style="" opacity="1" y="8.875000000000002" transform="rotate(0)"></text></g></g><g id="SvgjsG1107" transform="translate(125.63636363636367,187.3181818181818)"><path id="SvgjsPath1108" d="M 0 12.870000000000001L 54.5 12.870000000000001L 54.5 0L 74 19.5L 54.5 39L 54.5 26.130000000000003L 0 26.130000000000003L 0 12.870000000000001Z" stroke="rgba(33,41,48,1)" stroke-width="1.5" fill-opacity="1" fill="#97d13f"></path><g id="SvgjsG1109"><text id="SvgjsText1110" font-family="微软雅黑" text-anchor="middle" font-size="13px" width="74px" fill="#323232" font-weight="400" align="middle" lineHeight="125%" anchor="middle" family="微软雅黑" size="13px" weight="400" font-style="" opacity="1" y="8.875000000000002" transform="rotate(0)"></text></g></g><g id="SvgjsG1111" transform="translate(46.63636363636367,265.90909090909093)"><path id="SvgjsPath1112" d="M 0 0L 70 0L 70 28.45454545454544L 0 28.45454545454544Z" stroke="rgba(33,41,48,1)" stroke-width="0.5" fill-opacity="1" fill="#ffffff"></path><g id="SvgjsG1113"><text id="SvgjsText1114" font-family="微软雅黑" text-anchor="middle" font-size="13px" width="50px" fill="#6e9ad8" font-weight="400" align="middle" lineHeight="125%" anchor="middle" family="微软雅黑" size="13px" weight="400" font-style="" opacity="1" y="3.6022727272727195" transform="rotate(0)"><tspan id="SvgjsTspan1115" dy="16.25" x="35"><tspan id="SvgjsTspan1116" style="">••••••</tspan></tspan></text></g></g></svg>