<svg id="SvgjsSvg1006" width="642.8181818181818" height="418.36363636363654" xmlns="http://www.w3.org/2000/svg" version="1.1" xmlns:xlink="http://www.w3.org/1999/xlink" xmlns:svgjs="http://svgjs.com/svgjs"><defs id="SvgjsDefs1007"><pattern patternUnits="userSpaceOnUse" id="pattern_mark_0" width="300" height="300"><text x="150" y="100" fill="rgba(72,75,87,0.8)" font-size="18" transform="rotate(-45, 150, 150)" style="dominant-baseline: middle; text-anchor: middle;"></text></pattern><pattern patternUnits="userSpaceOnUse" id="pattern_mark_1" width="300" height="300"><text x="150" y="200" fill="rgba(72,75,87,0.8)" font-size="18" transform="rotate(-45, 150, 150)" style="dominant-baseline: middle; text-anchor: middle;"></text></pattern><marker id="SvgjsMarker1165" markerWidth="13" markerHeight="9" refX="9.5" refY="4.5" viewBox="0 0 13 9" orient="auto" markerUnits="userSpaceOnUse" stroke-dasharray="0,0"><path id="SvgjsPath1166" d="M0,0 L13,4.5 L0,9 L0,0" fill="#ffffff" stroke="#ffffff" stroke-width="1"></path></marker><marker id="SvgjsMarker1173" markerWidth="13" markerHeight="9" refX="9.5" refY="4.5" viewBox="0 0 13 9" orient="auto" markerUnits="userSpaceOnUse" stroke-dasharray="0,0"><path id="SvgjsPath1174" d="M0,0 L13,4.5 L0,9 L0,0" fill="#ffffff" stroke="#ffffff" stroke-width="1"></path></marker><marker id="SvgjsMarker1181" markerWidth="13" markerHeight="9" refX="9.5" refY="4.5" viewBox="0 0 13 9" orient="auto" markerUnits="userSpaceOnUse" stroke-dasharray="0,0"><path id="SvgjsPath1182" d="M0,0 L13,4.5 L0,9 L0,0" fill="#ffffff" stroke="#ffffff" stroke-width="1"></path></marker><marker id="SvgjsMarker1189" markerWidth="13" markerHeight="9" refX="9.5" refY="4.5" viewBox="0 0 13 9" orient="auto" markerUnits="userSpaceOnUse" stroke-dasharray="0,0"><path id="SvgjsPath1190" d="M0,0 L13,4.5 L0,9 L0,0" fill="#ffffff" stroke="#ffffff" stroke-width="1"></path></marker><marker id="SvgjsMarker1197" markerWidth="13" markerHeight="9" refX="9.5" refY="4.5" viewBox="0 0 13 9" orient="auto" markerUnits="userSpaceOnUse" stroke-dasharray="0,0"><path id="SvgjsPath1198" d="M0,0 L13,4.5 L0,9 L0,0" fill="#ffffff" stroke="#ffffff" stroke-width="1"></path></marker><marker id="SvgjsMarker1205" markerWidth="13" markerHeight="9" refX="9.5" refY="4.5" viewBox="0 0 13 9" orient="auto" markerUnits="userSpaceOnUse" stroke-dasharray="0,0"><path id="SvgjsPath1206" d="M0,0 L13,4.5 L0,9 L0,0" fill="#ffffff" stroke="#ffffff" stroke-width="1"></path></marker></defs><rect id="svgbackgroundid" width="642.8181818181818" height="418.36363636363654" fill="#505461"></rect><rect id="SvgjsRect1009" width="642.8181818181818" height="418.36363636363654" fill="url(#pattern_mark_0)"></rect><rect id="SvgjsRect1010" width="642.8181818181818" height="418.36363636363654" fill="url(#pattern_mark_1)"></rect><g id="SvgjsG1011" transform="translate(187.09090909090904,26.909090909090878)"><path id="SvgjsPath1012" d="M 0 4Q 0 0 4 0L 426.72727272727275 0Q 430.72727272727275 0 430.72727272727275 4L 430.72727272727275 311.2727272727274Q 430.72727272727275 315.2727272727274 426.72727272727275 315.2727272727274L 4 315.2727272727274Q 0 315.2727272727274 0 311.2727272727274Z" stroke-dasharray="10,6" stroke="rgba(255,255,255,1)" stroke-width="1.5" fill="none"></path><g id="SvgjsG1013"><text id="SvgjsText1014" font-family="&quot;Comic Sans MS&quot;" text-anchor="middle" font-size="13px" width="411px" fill="#323232" font-weight="400" align="middle" lineHeight="125%" anchor="middle" family="&quot;Comic Sans MS&quot;" size="13px" weight="400" font-style="" opacity="1" y="147.0113636363637" transform="rotate(0)"></text></g></g><g id="SvgjsG1015" transform="translate(475.81818181818176,35.63636363636364)"><path id="SvgjsPath1016" d="M 0 4Q 0 0 4 0L 128 0Q 132 0 132 4L 132 82Q 132 86 128 86L 4 86Q 0 86 0 82Z" stroke="rgba(121,133,236,1)" stroke-width="1.5" fill="none"></path><g id="SvgjsG1017"><text id="SvgjsText1018" font-family="&quot;Comic Sans MS&quot;" text-anchor="middle" font-size="13px" width="112px" fill="#7985ec" font-weight="400" align="middle" lineHeight="125%" anchor="middle" family="&quot;Comic Sans MS&quot;" size="13px" weight="400" font-style="" opacity="1" y="-0.125" transform="rotate(0)"><tspan id="SvgjsTspan1019" dy="16.25" x="66"><tspan id="SvgjsTspan1020" style="">processing thread</tspan></tspan><tspan id="SvgjsTspan1021" dy="16.25" x="66"><tspan id="SvgjsTspan1022" style=""> </tspan></tspan><tspan id="SvgjsTspan1023" dy="16.25" x="66"><tspan id="SvgjsTspan1024" style=""> </tspan></tspan><tspan id="SvgjsTspan1025" dy="16.25" x="66"><tspan id="SvgjsTspan1026" style=""> </tspan></tspan><tspan id="SvgjsTspan1027" dy="16.25" x="66"><tspan id="SvgjsTspan1028" style=""> </tspan></tspan></text></g></g><g id="SvgjsG1029" transform="translate(486.81818181818176,57.636363636363654)"><path id="SvgjsPath1030" d="M 0 4Q 0 0 4 0L 105 0Q 109 0 109 4L 109 50Q 109 54 105 54L 4 54Q 0 54 0 50Z" stroke="rgba(224,196,49,1)" stroke-width="1.5" fill="none"></path><g id="SvgjsG1031"><text id="SvgjsText1032" font-family="&quot;Comic Sans MS&quot;" text-anchor="middle" font-size="13px" width="89px" fill="#e0c431" font-weight="400" align="middle" lineHeight="125%" anchor="middle" family="&quot;Comic Sans MS&quot;" size="13px" weight="400" font-style="" opacity="1" y="-0.125" transform="rotate(0)"><tspan id="SvgjsTspan1033" dy="16.25" x="54.5"><tspan id="SvgjsTspan1034" style="">EventHandler</tspan></tspan><tspan id="SvgjsTspan1035" dy="16.25" x="54.5"><tspan id="SvgjsTspan1036" style=""> </tspan></tspan><tspan id="SvgjsTspan1037" dy="16.25" x="54.5"><tspan id="SvgjsTspan1038" style=""> </tspan></tspan></text></g></g><g id="SvgjsG1039" transform="translate(493.81818181818176,83.6363636363636)"><path id="SvgjsPath1040" d="M 0 4Q 0 0 4 0L 92 0Q 96 0 96 4L 96 16Q 96 20 92 20L 4 20Q 0 20 0 16Z" stroke="rgba(255,255,255,1)" stroke-width="1.5" fill="none"></path><g id="SvgjsG1041"><text id="SvgjsText1042" font-family="&quot;Comic Sans MS&quot;" text-anchor="middle" font-size="13px" width="76px" fill="#ffffff" font-weight="400" align="middle" lineHeight="125%" anchor="middle" family="&quot;Comic Sans MS&quot;" size="13px" weight="400" font-style="" opacity="1" y="-0.625" transform="rotate(0)"><tspan id="SvgjsTspan1043" dy="16.25" x="48"><tspan id="SvgjsTspan1044" style="">eventHandle</tspan></tspan></text></g></g><g id="SvgjsG1045" transform="translate(486.81818181818176,363.36363636363654)"><path id="SvgjsPath1046" d="M 0 4Q 0 0 4 0L 36 0Q 40 0 40 4L 40 16Q 40 20 36 20L 4 20Q 0 20 0 16Z" stroke="rgba(224,196,49,1)" stroke-width="1.5" fill="none"></path><g id="SvgjsG1047"><text id="SvgjsText1048" font-family="&quot;Comic Sans MS&quot;" text-anchor="middle" font-size="13px" width="20px" fill="#e0c431" font-weight="400" align="middle" lineHeight="125%" anchor="middle" family="&quot;Comic Sans MS&quot;" size="13px" weight="400" font-style="" opacity="1" y="-0.625" transform="rotate(0)"><tspan id="SvgjsTspan1049" dy="16.25" x="20"><tspan id="SvgjsTspan1050" style=""> </tspan></tspan></text></g></g><g id="SvgjsG1051" transform="translate(496.81818181818176,353.36363636363654)"><path id="SvgjsPath1052" d="M 0 0L 100 0L 100 40L 0 40Z" stroke="none" fill="none"></path><g id="SvgjsG1053"><text id="SvgjsText1054" font-family="&quot;Comic Sans MS&quot;" text-anchor="middle" font-size="13px" width="100px" fill="#e0c431" font-weight="400" align="middle" lineHeight="125%" anchor="middle" family="&quot;Comic Sans MS&quot;" size="13px" weight="400" font-style="" opacity="1" y="9.375" transform="rotate(0)"><tspan id="SvgjsTspan1055" dy="16.25" x="50"><tspan id="SvgjsTspan1056" style="">Object</tspan></tspan></text></g></g><g id="SvgjsG1057" transform="translate(202.1818181818181,157.54545454545453)"><path id="SvgjsPath1058" d="M 0 4Q 0 0 4 0L 119.99999999999997 0Q 123.99999999999997 0 123.99999999999997 4L 123.99999999999997 50Q 123.99999999999997 54 119.99999999999997 54L 4 54Q 0 54 0 50Z" stroke="rgba(224,196,49,1)" stroke-width="1.5" fill="none"></path><g id="SvgjsG1059"><text id="SvgjsText1060" font-family="&quot;Comic Sans MS&quot;" text-anchor="middle" font-size="13px" width="104px" fill="#e0c431" font-weight="400" align="middle" lineHeight="125%" anchor="middle" family="&quot;Comic Sans MS&quot;" size="13px" weight="400" font-style="" opacity="1" y="-0.125" transform="rotate(0)"><tspan id="SvgjsTspan1061" dy="16.25" x="62"><tspan id="SvgjsTspan1062" style="">ServiceHandler</tspan></tspan><tspan id="SvgjsTspan1063" dy="16.25" x="62"><tspan id="SvgjsTspan1064" style=""> </tspan></tspan><tspan id="SvgjsTspan1065" dy="16.25" x="62"><tspan id="SvgjsTspan1066" style=""> </tspan></tspan></text></g></g><g id="SvgjsG1067" transform="translate(210.1451209341117,183.54545454545456)"><path id="SvgjsPath1068" d="M 0 4Q 0 0 4 0L 105.21100917431191 0Q 109.21100917431191 0 109.21100917431191 4L 109.21100917431191 16Q 109.21100917431191 20 105.21100917431191 20L 4 20Q 0 20 0 16Z" stroke="rgba(255,255,255,1)" stroke-width="1.5" fill="none"></path><g id="SvgjsG1069"><text id="SvgjsText1070" font-family="&quot;Comic Sans MS&quot;" text-anchor="middle" font-size="13px" width="90px" fill="#ffffff" font-weight="400" align="middle" lineHeight="125%" anchor="middle" family="&quot;Comic Sans MS&quot;" size="13px" weight="400" font-style="" opacity="1" y="-0.625" transform="rotate(0)"><tspan id="SvgjsTspan1071" dy="16.25" x="55"><tspan id="SvgjsTspan1072" style="">eventDispatch</tspan></tspan></text></g></g><g id="SvgjsG1073" transform="translate(475.81818181818176,141.5454545454546)"><path id="SvgjsPath1074" d="M 0 4Q 0 0 4 0L 128 0Q 132 0 132 4L 132 82Q 132 86 128 86L 4 86Q 0 86 0 82Z" stroke="rgba(121,133,236,1)" stroke-width="1.5" fill="none"></path><g id="SvgjsG1075"><text id="SvgjsText1076" font-family="&quot;Comic Sans MS&quot;" text-anchor="middle" font-size="13px" width="112px" fill="#7985ec" font-weight="400" align="middle" lineHeight="125%" anchor="middle" family="&quot;Comic Sans MS&quot;" size="13px" weight="400" font-style="" opacity="1" y="-0.125" transform="rotate(0)"><tspan id="SvgjsTspan1077" dy="16.25" x="66"><tspan id="SvgjsTspan1078" style="">processing thread</tspan></tspan><tspan id="SvgjsTspan1079" dy="16.25" x="66"><tspan id="SvgjsTspan1080" style=""> </tspan></tspan><tspan id="SvgjsTspan1081" dy="16.25" x="66"><tspan id="SvgjsTspan1082" style=""> </tspan></tspan><tspan id="SvgjsTspan1083" dy="16.25" x="66"><tspan id="SvgjsTspan1084" style=""> </tspan></tspan><tspan id="SvgjsTspan1085" dy="16.25" x="66"><tspan id="SvgjsTspan1086" style=""> </tspan></tspan></text></g></g><g id="SvgjsG1087" transform="translate(486.81818181818176,163.54545454545453)"><path id="SvgjsPath1088" d="M 0 4Q 0 0 4 0L 105 0Q 109 0 109 4L 109 50Q 109 54 105 54L 4 54Q 0 54 0 50Z" stroke="rgba(224,196,49,1)" stroke-width="1.5" fill="none"></path><g id="SvgjsG1089"><text id="SvgjsText1090" font-family="&quot;Comic Sans MS&quot;" text-anchor="middle" font-size="13px" width="89px" fill="#e0c431" font-weight="400" align="middle" lineHeight="125%" anchor="middle" family="&quot;Comic Sans MS&quot;" size="13px" weight="400" font-style="" opacity="1" y="-0.125" transform="rotate(0)"><tspan id="SvgjsTspan1091" dy="16.25" x="54.5"><tspan id="SvgjsTspan1092" style="">EventHandler</tspan></tspan><tspan id="SvgjsTspan1093" dy="16.25" x="54.5"><tspan id="SvgjsTspan1094" style=""> </tspan></tspan><tspan id="SvgjsTspan1095" dy="16.25" x="54.5"><tspan id="SvgjsTspan1096" style=""> </tspan></tspan></text></g></g><g id="SvgjsG1097" transform="translate(493.81818181818176,189.54545454545445)"><path id="SvgjsPath1098" d="M 0 4Q 0 0 4 0L 92 0Q 96 0 96 4L 96 16Q 96 20 92 20L 4 20Q 0 20 0 16Z" stroke="rgba(255,255,255,1)" stroke-width="1.5" fill="none"></path><g id="SvgjsG1099"><text id="SvgjsText1100" font-family="&quot;Comic Sans MS&quot;" text-anchor="middle" font-size="13px" width="76px" fill="#ffffff" font-weight="400" align="middle" lineHeight="125%" anchor="middle" family="&quot;Comic Sans MS&quot;" size="13px" weight="400" font-style="" opacity="1" y="-0.625" transform="rotate(0)"><tspan id="SvgjsTspan1101" dy="16.25" x="48"><tspan id="SvgjsTspan1102" style="">eventHandle</tspan></tspan></text></g></g><g id="SvgjsG1103" transform="translate(475.81818181818176,247.45454545454555)"><path id="SvgjsPath1104" d="M 0 4Q 0 0 4 0L 128 0Q 132 0 132 4L 132 82Q 132 86 128 86L 4 86Q 0 86 0 82Z" stroke="rgba(121,133,236,1)" stroke-width="1.5" fill="none"></path><g id="SvgjsG1105"><text id="SvgjsText1106" font-family="&quot;Comic Sans MS&quot;" text-anchor="middle" font-size="13px" width="112px" fill="#7985ec" font-weight="400" align="middle" lineHeight="125%" anchor="middle" family="&quot;Comic Sans MS&quot;" size="13px" weight="400" font-style="" opacity="1" y="-0.125" transform="rotate(0)"><tspan id="SvgjsTspan1107" dy="16.25" x="66"><tspan id="SvgjsTspan1108" style="">processing thread</tspan></tspan><tspan id="SvgjsTspan1109" dy="16.25" x="66"><tspan id="SvgjsTspan1110" style=""> </tspan></tspan><tspan id="SvgjsTspan1111" dy="16.25" x="66"><tspan id="SvgjsTspan1112" style=""> </tspan></tspan><tspan id="SvgjsTspan1113" dy="16.25" x="66"><tspan id="SvgjsTspan1114" style=""> </tspan></tspan><tspan id="SvgjsTspan1115" dy="16.25" x="66"><tspan id="SvgjsTspan1116" style=""> </tspan></tspan></text></g></g><g id="SvgjsG1117" transform="translate(486.81818181818176,269.45454545454544)"><path id="SvgjsPath1118" d="M 0 4Q 0 0 4 0L 105 0Q 109 0 109 4L 109 50Q 109 54 105 54L 4 54Q 0 54 0 50Z" stroke="rgba(224,196,49,1)" stroke-width="1.5" fill="none"></path><g id="SvgjsG1119"><text id="SvgjsText1120" font-family="&quot;Comic Sans MS&quot;" text-anchor="middle" font-size="13px" width="89px" fill="#e0c431" font-weight="400" align="middle" lineHeight="125%" anchor="middle" family="&quot;Comic Sans MS&quot;" size="13px" weight="400" font-style="" opacity="1" y="-0.125" transform="rotate(0)"><tspan id="SvgjsTspan1121" dy="16.25" x="54.5"><tspan id="SvgjsTspan1122" style="">EventHandler</tspan></tspan><tspan id="SvgjsTspan1123" dy="16.25" x="54.5"><tspan id="SvgjsTspan1124" style=""> </tspan></tspan><tspan id="SvgjsTspan1125" dy="16.25" x="54.5"><tspan id="SvgjsTspan1126" style=""> </tspan></tspan></text></g></g><g id="SvgjsG1127" transform="translate(493.81818181818176,295.4545454545453)"><path id="SvgjsPath1128" d="M 0 4Q 0 0 4 0L 92 0Q 96 0 96 4L 96 16Q 96 20 92 20L 4 20Q 0 20 0 16Z" stroke="rgba(255,255,255,1)" stroke-width="1.5" fill="none"></path><g id="SvgjsG1129"><text id="SvgjsText1130" font-family="&quot;Comic Sans MS&quot;" text-anchor="middle" font-size="13px" width="76px" fill="#ffffff" font-weight="400" align="middle" lineHeight="125%" anchor="middle" family="&quot;Comic Sans MS&quot;" size="13px" weight="400" font-style="" opacity="1" y="-0.625" transform="rotate(0)"><tspan id="SvgjsTspan1131" dy="16.25" x="48"><tspan id="SvgjsTspan1132" style="">eventHandle</tspan></tspan></text></g></g><g id="SvgjsG1133" transform="translate(180.72727272727266,25)"><path id="SvgjsPath1134" d="M 0 0L 100 0L 100 40L 0 40Z" stroke="none" fill="none"></path><g id="SvgjsG1135"><text id="SvgjsText1136" font-family="&quot;Comic Sans MS&quot;" text-anchor="middle" font-size="13px" width="100px" fill="#ffffff" font-weight="700" align="middle" lineHeight="125%" anchor="middle" family="&quot;Comic Sans MS&quot;" size="13px" weight="700" font-style="" opacity="1" y="9.375" transform="rotate(0)"><tspan id="SvgjsTspan1137" dy="16.25" x="50"><tspan id="SvgjsTspan1138" style="">Application</tspan></tspan></text></g></g><g id="SvgjsG1139" transform="translate(210.1451209341117,343.36363636363654)"><path id="SvgjsPath1140" d="M 0 0L 100 0L 100 40L 0 40Z" stroke="none" fill="none"></path><g id="SvgjsG1141"><text id="SvgjsText1142" font-family="&quot;Comic Sans MS&quot;" text-anchor="middle" font-size="13px" width="100px" fill="#ffffff" font-weight="400" align="middle" lineHeight="125%" anchor="middle" family="&quot;Comic Sans MS&quot;" size="13px" weight="400" font-style="" opacity="1" y="9.375" transform="rotate(0)"><tspan id="SvgjsTspan1143" dy="16.25" x="50"><tspan id="SvgjsTspan1144" style="">Reactor</tspan></tspan></text></g></g><g id="SvgjsG1145" transform="translate(25.000000000000014,74.63636363636365)"><path id="SvgjsPath1146" d="M 0 4Q 0 0 4 0L 58.090909090908994 0Q 62.090909090908994 0 62.090909090908994 4L 62.090909090908994 16Q 62.090909090908994 20 58.090909090908994 20L 4 20Q 0 20 0 16Z" stroke="rgba(224,196,49,1)" stroke-width="1.5" fill="none"></path><g id="SvgjsG1147"><text id="SvgjsText1148" font-family="&quot;Comic Sans MS&quot;" text-anchor="middle" font-size="13px" width="43px" fill="#e0c431" font-weight="400" align="middle" lineHeight="125%" anchor="middle" family="&quot;Comic Sans MS&quot;" size="13px" weight="400" font-style="" opacity="1" y="-0.625" transform="rotate(0)"><tspan id="SvgjsTspan1149" dy="16.25" x="31.5"><tspan id="SvgjsTspan1150" style="">Client</tspan></tspan></text></g></g><g id="SvgjsG1151" transform="translate(25.000000000000007,174.5454545454546)"><path id="SvgjsPath1152" d="M 0 4Q 0 0 4 0L 58.090909090908994 0Q 62.090909090908994 0 62.090909090908994 4L 62.090909090908994 16Q 62.090909090908994 20 58.090909090908994 20L 4 20Q 0 20 0 16Z" stroke="rgba(224,196,49,1)" stroke-width="1.5" fill="none"></path><g id="SvgjsG1153"><text id="SvgjsText1154" font-family="&quot;Comic Sans MS&quot;" text-anchor="middle" font-size="13px" width="43px" fill="#e0c431" font-weight="400" align="middle" lineHeight="125%" anchor="middle" family="&quot;Comic Sans MS&quot;" size="13px" weight="400" font-style="" opacity="1" y="-0.625" transform="rotate(0)"><tspan id="SvgjsTspan1155" dy="16.25" x="31.5"><tspan id="SvgjsTspan1156" style="">Client</tspan></tspan></text></g></g><g id="SvgjsG1157" transform="translate(25,269.45454545454544)"><path id="SvgjsPath1158" d="M 0 4Q 0 0 4 0L 58.090909090908994 0Q 62.090909090908994 0 62.090909090908994 4L 62.090909090908994 16Q 62.090909090908994 20 58.090909090908994 20L 4 20Q 0 20 0 16Z" stroke="rgba(224,196,49,1)" stroke-width="1.5" fill="none"></path><g id="SvgjsG1159"><text id="SvgjsText1160" font-family="&quot;Comic Sans MS&quot;" text-anchor="middle" font-size="13px" width="43px" fill="#e0c431" font-weight="400" align="middle" lineHeight="125%" anchor="middle" family="&quot;Comic Sans MS&quot;" size="13px" weight="400" font-style="" opacity="1" y="-0.625" transform="rotate(0)"><tspan id="SvgjsTspan1161" dy="16.25" x="31.5"><tspan id="SvgjsTspan1162" style="">Client</tspan></tspan></text></g></g><g id="SvgjsG1163"><path id="SvgjsPath1164" d="M87.65727717273359 85.12802123662053L200.14289308724963 182.77548718452977" stroke="#ffffff" stroke-width="1.5" fill="none" marker-end="url(#SvgjsMarker1165)"></path><rect id="SvgjsRect1167" width="90" height="18" x="72.81609833520065" y="102.30854608460733" fill="#ffffff"></rect><text id="SvgjsText1168" font-family="&quot;Comic Sans MS&quot;" text-anchor="middle" font-size="13px" width="90px" fill="#323232" font-weight="400" align="top" lineHeight="16px" anchor="middle" family="&quot;Comic Sans MS&quot;" size="13px" weight="400" font-style="" opacity="1" y="99.68354608460733" transform="rotate(0)"><tspan id="SvgjsTspan1169" dy="16.25" x="117.81609833520065"><tspan id="SvgjsTspan1170" style="">request(Event)</tspan></tspan></text></g><g id="SvgjsG1171"><path id="SvgjsPath1172" d="M87.84090909090901 184.5454545454546L199.4818181818181 184.5454545454546" stroke="#ffffff" stroke-width="1.5" fill="none" marker-end="url(#SvgjsMarker1173)"></path><rect id="SvgjsRect1175" width="90" height="18" x="93.10577337354582" y="175.54545454545462" fill="#ffffff"></rect><text id="SvgjsText1176" font-family="&quot;Comic Sans MS&quot;" text-anchor="middle" font-size="13px" width="90px" fill="#323232" font-weight="400" align="top" lineHeight="16px" anchor="middle" family="&quot;Comic Sans MS&quot;" size="13px" weight="400" font-style="" opacity="1" y="172.92045454545462" transform="rotate(0)"><tspan id="SvgjsTspan1177" dy="16.25" x="138.10577337354582"><tspan id="SvgjsTspan1178" style="">request(Event)</tspan></tspan></text></g><g id="SvgjsG1179"><path id="SvgjsPath1180" d="M87.66954000017695 278.9773806288932L200.09874690845345 186.26324791780263" stroke="#ffffff" stroke-width="1.5" fill="none" marker-end="url(#SvgjsMarker1181)"></path><rect id="SvgjsRect1183" width="90" height="18" x="85.9635353499475" y="234.2752233262388" fill="#ffffff"></rect><text id="SvgjsText1184" font-family="&quot;Comic Sans MS&quot;" text-anchor="middle" font-size="13px" width="90px" fill="#323232" font-weight="400" align="top" lineHeight="16px" anchor="middle" family="&quot;Comic Sans MS&quot;" size="13px" weight="400" font-style="" opacity="1" y="231.6502233262388" transform="rotate(0)"><tspan id="SvgjsTspan1185" dy="16.25" x="130.9635353499475"><tspan id="SvgjsTspan1186" style="">request(Event)</tspan></tspan></text></g><g id="SvgjsG1187"><path id="SvgjsPath1188" d="M326.81868606948103 184.14934939064884L484.52545742259485 86.06234219366414" stroke="#ffffff" stroke-width="1.5" fill="none" marker-end="url(#SvgjsMarker1189)"></path><rect id="SvgjsRect1191" width="53" height="18" x="375.1486295008702" y="128.60825837135252" fill="#ffffff"></rect><text id="SvgjsText1192" font-family="&quot;Comic Sans MS&quot;" text-anchor="middle" font-size="13px" width="53px" fill="#323232" font-weight="400" align="top" lineHeight="16px" anchor="middle" family="&quot;Comic Sans MS&quot;" size="13px" weight="400" font-style="" opacity="1" y="125.98325837135252" transform="rotate(0)"><tspan id="SvgjsTspan1193" dy="16.25" x="401.6486295008702"><tspan id="SvgjsTspan1194" style="">Dispatch</tspan></tspan></text></g><g id="SvgjsG1195"><path id="SvgjsPath1196" d="M326.93129555474036 184.57344860692191L484.12006327566144 190.44467592417197" stroke="#ffffff" stroke-width="1.5" fill="none" marker-end="url(#SvgjsMarker1197)"></path><rect id="SvgjsRect1199" width="53" height="18" x="373.3581723086702" y="178.29737269620284" fill="#ffffff"></rect><text id="SvgjsText1200" font-family="&quot;Comic Sans MS&quot;" text-anchor="middle" font-size="13px" width="53px" fill="#323232" font-weight="400" align="top" lineHeight="16px" anchor="middle" family="&quot;Comic Sans MS&quot;" size="13px" weight="400" font-style="" opacity="1" y="175.67237269620284" transform="rotate(0)"><tspan id="SvgjsTspan1201" dy="16.25" x="399.8581723086702"><tspan id="SvgjsTspan1202" style="">Dispatch</tspan></tspan></text></g><g id="SvgjsG1203"><path id="SvgjsPath1204" d="M326.7972059051831 184.97417117672924L484.60278601406753 294.9111655819565" stroke="#ffffff" stroke-width="1.5" fill="none" marker-end="url(#SvgjsMarker1205)"></path><rect id="SvgjsRect1207" width="53" height="18" x="370.0239195442074" y="224.55005374019206" fill="#ffffff"></rect><text id="SvgjsText1208" font-family="&quot;Comic Sans MS&quot;" text-anchor="middle" font-size="13px" width="53px" fill="#323232" font-weight="400" align="top" lineHeight="16px" anchor="middle" family="&quot;Comic Sans MS&quot;" size="13px" weight="400" font-style="" opacity="1" y="221.92505374019206" transform="rotate(0)"><tspan id="SvgjsTspan1209" dy="16.25" x="396.5239195442074"><tspan id="SvgjsTspan1210" style="">Dispatch</tspan></tspan></text></g></svg>