<svg id="SvgjsSvg1006" width="634.4102564102564" height="279.81684981685" xmlns="http://www.w3.org/2000/svg" version="1.1" xmlns:xlink="http://www.w3.org/1999/xlink" xmlns:svgjs="http://svgjs.com/svgjs"><defs id="SvgjsDefs1007"><pattern patternUnits="userSpaceOnUse" id="pattern_mark_0" width="300" height="300"><text x="150" y="100" fill="rgba(229,229,229,0.8)" font-size="18" transform="rotate(-45, 150, 150)" style="dominant-baseline: middle; text-anchor: middle;"></text></pattern><pattern patternUnits="userSpaceOnUse" id="pattern_mark_1" width="300" height="300"><text x="150" y="200" fill="rgba(229,229,229,0.8)" font-size="18" transform="rotate(-45, 150, 150)" style="dominant-baseline: middle; text-anchor: middle;"></text></pattern></defs><rect id="svgbackgroundid" width="634.4102564102564" height="279.81684981685" fill="transparent"></rect><rect id="SvgjsRect1009" width="634.4102564102564" height="279.81684981685" fill="url(#pattern_mark_0)"></rect><rect id="SvgjsRect1010" width="634.4102564102564" height="279.81684981685" fill="url(#pattern_mark_1)"></rect><g id="SvgjsG1011" transform="translate(109.41025641025634,96.84615384615381)"><path id="SvgjsPath1012" d="M0 0L65.15 0L65.15 80 L0 80Z" stroke="rgba(102, 102, 102,1)" stroke-width="1" fill-opacity="1" fill="#f4a499"></path><path id="SvgjsPath1013" d="M65.15 0L108.60000000000001 0L108.60000000000001 80 L65.15 80Z" stroke="rgba(102, 102, 102,1)" stroke-width="1" fill-opacity="1" fill="#f39f63"></path><path id="SvgjsPath1014" d="M108.60000000000001 0L151.95000000000002 0L151.95000000000002 80 L108.60000000000001 80Z" stroke="rgba(102, 102, 102,1)" stroke-width="1" fill-opacity="1" fill="#f39f63"></path><path id="SvgjsPath1015" d="M151.95 0L347.35 0L347.35 80 L151.95 80Z" stroke="rgba(102, 102, 102,1)" stroke-width="1" fill-opacity="1" fill="#95cbfe"></path><path id="SvgjsPath1016" d="M347.34999999999997 0L500 0L500 80 L347.34999999999997 80Z" stroke="rgba(102, 102, 102,1)" stroke-width="1" fill-opacity="1" fill="#91ee66"></path><g id="SvgjsG1017"><text id="SvgjsText1018" font-family="&quot;Microsoft YaHei&quot;, 微软雅黑, Arial" text-anchor="middle" font-size="16px" width="66px" fill="#323232" font-weight="400" align="middle" lineHeight="125%" anchor="middle" family="&quot;Microsoft YaHei&quot;, 微软雅黑, Arial" size="16px" weight="400" font-style="" opacity="1" y="26" transform="rotate(0)"><tspan id="SvgjsTspan1019" dy="20" x="33"><tspan id="SvgjsTspan1020" style="">eden</tspan></tspan></text></g><g id="SvgjsG1021"><text id="SvgjsText1022" font-family="&quot;Microsoft YaHei&quot;, 微软雅黑, Arial" text-anchor="middle" font-size="16px" width="44px" fill="#323232" font-weight="400" align="middle" lineHeight="125%" anchor="middle" family="&quot;Microsoft YaHei&quot;, 微软雅黑, Arial" size="16px" weight="400" font-style="" opacity="1" y="26" transform="rotate(0)"><tspan id="SvgjsTspan1023" dy="20" x="87.15"><tspan id="SvgjsTspan1024" style="">S0</tspan></tspan></text></g><g id="SvgjsG1025"><text id="SvgjsText1026" font-family="&quot;Microsoft YaHei&quot;, 微软雅黑, Arial" text-anchor="middle" font-size="16px" width="44px" fill="#323232" font-weight="400" align="middle" lineHeight="125%" anchor="middle" family="&quot;Microsoft YaHei&quot;, 微软雅黑, Arial" size="16px" weight="400" font-style="" opacity="1" y="26" transform="rotate(0)"><tspan id="SvgjsTspan1027" dy="20" x="130.60000000000002"><tspan id="SvgjsTspan1028" style="">S1</tspan></tspan></text></g><g id="SvgjsG1029"><text id="SvgjsText1030" font-family="&quot;Microsoft YaHei&quot;, 微软雅黑, Arial" text-anchor="middle" font-size="16px" width="196px" fill="#323232" font-weight="400" align="middle" lineHeight="125%" anchor="middle" family="&quot;Microsoft YaHei&quot;, 微软雅黑, Arial" size="16px" weight="400" font-style="" opacity="1" y="26" transform="rotate(0)"><tspan id="SvgjsTspan1031" dy="20" x="249.95"><tspan id="SvgjsTspan1032" style="">Tenured</tspan></tspan></text></g><g id="SvgjsG1033"><text id="SvgjsText1034" font-family="&quot;Microsoft YaHei&quot;, 微软雅黑, Arial" text-anchor="middle" font-size="16px" width="153px" fill="#323232" font-weight="400" align="middle" lineHeight="125%" anchor="middle" family="&quot;Microsoft YaHei&quot;, 微软雅黑, Arial" size="16px" weight="400" font-style="" opacity="1" y="26" transform="rotate(0)"><tspan id="SvgjsTspan1035" dy="20" x="423.84999999999997"><tspan id="SvgjsTspan1036" style="">Permanent</tspan></tspan></text></g></g><g id="SvgjsG1037" transform="matrix(-1.8369701987210297e-16,-1,1,-1.8369701987210297e-16,110.08883348402082,226.92308061201496)"><path id="SvgjsPath1038" d="M 47.362637362637344 0Q 42.626373626373606 0 42.626373626373606 9L 42.626373626373606 66.00686813186815Q 42.626373626373606 75.00686813186815 25.362637362637344 75.00686813186815Q 42.626373626373606 75.00686813186815 42.626373626373606 84.00686813186815L 42.626373626373606 141.0137362637363Q 42.626373626373606 150.0137362637363 47.362637362637344 150.0137362637363" stroke="rgba(167,147,44,1)" stroke-width="1.5" fill="none"></path><path id="SvgjsPath1039" d="M 0 0L 47.362637362637344 0L 47.362637362637344 150.0137362637363L 0 150.0137362637363Z" stroke="none" fill="none"></path><g id="SvgjsG1040"><text id="SvgjsText1041" font-family="&quot;Microsoft YaHei&quot;, 微软雅黑, Arial" text-anchor="end" font-size="13px" width="21px" fill="#a7932c" font-weight="400" align="middle" lineHeight="125%" anchor="end" family="&quot;Microsoft YaHei&quot;, 微软雅黑, Arial" size="13px" weight="400" font-style="" opacity="1" y="64.38186813186815" transform="rotate(0)"></text></g></g><g id="SvgjsG1042" transform="matrix(-1.8369701987210297e-16,-1,1,-1.8369701987210297e-16,262.78113530756343,227.05128202333563)"><path id="SvgjsPath1043" d="M 47.362637362637344 0Q 42.626373626373606 0 42.626373626373606 9L 42.626373626373606 86.77609890109899Q 42.626373626373606 95.77609890109899 25.362637362637344 95.77609890109899Q 42.626373626373606 95.77609890109899 42.626373626373606 104.77609890109899L 42.626373626373606 182.55219780219798Q 42.626373626373606 191.55219780219798 47.362637362637344 191.55219780219798" stroke="rgba(33,41,48,1)" stroke-width="1.5" fill="none"></path><path id="SvgjsPath1044" d="M 0 0L 47.362637362637344 0L 47.362637362637344 191.55219780219798L 0 191.55219780219798Z" stroke="none" fill="none"></path><g id="SvgjsG1045"><text id="SvgjsText1046" font-family="&quot;Microsoft YaHei&quot;, 微软雅黑, Arial" text-anchor="end" font-size="13px" width="21px" fill="#323232" font-weight="400" align="middle" lineHeight="125%" anchor="end" family="&quot;Microsoft YaHei&quot;, 微软雅黑, Arial" size="13px" weight="400" font-style="" opacity="1" y="85.15109890109899" transform="rotate(0)"></text></g></g><g id="SvgjsG1047" transform="matrix(-1.8369701987210297e-16,-1,1,-1.8369701987210297e-16,457.78112357003346,227.1794904771742)"><path id="SvgjsPath1048" d="M 47.362637362637344 0Q 42.626373626373606 0 42.626373626373606 9L 42.626373626373606 66.19917582417582Q 42.626373626373606 75.19917582417582 25.362637362637344 75.19917582417582Q 42.626373626373606 75.19917582417582 42.626373626373606 84.19917582417582L 42.626373626373606 141.39835164835165Q 42.626373626373606 150.39835164835165 47.362637362637344 150.39835164835165" stroke="rgba(224,196,49,1)" stroke-width="1.5" fill="none"></path><path id="SvgjsPath1049" d="M 0 0L 47.362637362637344 0L 47.362637362637344 150.39835164835165L 0 150.39835164835165Z" stroke="none" fill="none"></path><g id="SvgjsG1050"><text id="SvgjsText1051" font-family="&quot;Microsoft YaHei&quot;, 微软雅黑, Arial" text-anchor="end" font-size="13px" width="21px" fill="#e0c431" font-weight="400" align="middle" lineHeight="125%" anchor="end" family="&quot;Microsoft YaHei&quot;, 微软雅黑, Arial" size="13px" weight="400" font-style="" opacity="1" y="64.57417582417582" transform="rotate(0)"></text></g></g><g id="SvgjsG1052" transform="translate(483.8205128205127,191.8461538461538)"><path id="SvgjsPath1053" d="M 0 0L 100 0L 100 40L 0 40Z" stroke="none" fill="none"></path><g id="SvgjsG1054"><text id="SvgjsText1055" font-family="&quot;Microsoft YaHei&quot;, 微软雅黑, Arial" text-anchor="middle" font-size="13px" width="100px" fill="#e0c431" font-weight="700" align="middle" lineHeight="125%" anchor="middle" family="&quot;Microsoft YaHei&quot;, 微软雅黑, Arial" size="13px" weight="700" font-style="" opacity="1" y="9.375" transform="rotate(0)"><tspan id="SvgjsTspan1056" dy="16.25" x="50"><tspan id="SvgjsTspan1057" style="">永久代</tspan></tspan></text></g></g><g id="SvgjsG1058" transform="translate(309.41025641025635,191.8461538461538)"><path id="SvgjsPath1059" d="M 0 0L 100 0L 100 40L 0 40Z" stroke="none" fill="none"></path><g id="SvgjsG1060"><text id="SvgjsText1061" font-family="&quot;Microsoft YaHei&quot;, 微软雅黑, Arial" text-anchor="middle" font-size="13px" width="100px" fill="#323232" font-weight="700" align="middle" lineHeight="125%" anchor="middle" family="&quot;Microsoft YaHei&quot;, 微软雅黑, Arial" size="13px" weight="700" font-style="" opacity="1" y="9.375" transform="rotate(0)"><tspan id="SvgjsTspan1062" dy="16.25" x="50"><tspan id="SvgjsTspan1063" style="">老年代</tspan></tspan></text></g></g><g id="SvgjsG1064" transform="translate(135,191.8461538461538)"><path id="SvgjsPath1065" d="M 0 0L 100 0L 100 40L 0 40Z" stroke="none" fill="none"></path><g id="SvgjsG1066"><text id="SvgjsText1067" font-family="&quot;Microsoft YaHei&quot;, 微软雅黑, Arial" text-anchor="middle" font-size="13px" width="100px" fill="#a7932c" font-weight="700" align="middle" lineHeight="125%" anchor="middle" family="&quot;Microsoft YaHei&quot;, 微软雅黑, Arial" size="13px" weight="700" font-style="" opacity="1" y="9.375" transform="rotate(0)"><tspan id="SvgjsTspan1068" dy="16.25" x="50"><tspan id="SvgjsTspan1069" style="">年轻代</tspan></tspan></text></g></g><g id="SvgjsG1070" transform="matrix(6.123233995736766e-17,1,-1,6.123233995736766e-17,262.02564314957505,47.637363391918186)"><path id="SvgjsPath1071" d="M 47.362637362637344 0Q 42.626373626373606 0 42.626373626373606 8.770604395604403L 42.626373626373606 35.08241758241761Q 42.626373626373606 43.853021978022014 25.362637362637344 43.853021978022014Q 42.626373626373606 43.853021978022014 42.626373626373606 52.623626373626415L 42.626373626373606 78.93543956043962Q 42.626373626373606 87.70604395604403 47.362637362637344 87.70604395604403" stroke="rgba(167,147,44,1)" stroke-width="1.5" fill="none"></path><path id="SvgjsPath1072" d="M 0 0L 47.362637362637344 0L 47.362637362637344 87.70604395604403L 0 87.70604395604403Z" stroke="none" fill="none"></path><g id="SvgjsG1073"><text id="SvgjsText1074" font-family="&quot;Microsoft YaHei&quot;, 微软雅黑, Arial" text-anchor="end" font-size="13px" width="21px" fill="#a7932c" font-weight="400" align="middle" lineHeight="125%" anchor="end" family="&quot;Microsoft YaHei&quot;, 微软雅黑, Arial" size="13px" weight="400" font-style="" opacity="1" y="33.228021978022014" transform="rotate(0)"></text></g></g><g id="SvgjsG1075" transform="translate(167.17948717948718,46.153846153846224)"><path id="SvgjsPath1076" d="M 0 0L 100 0L 100 40L 0 40Z" stroke="none" fill="none"></path><g id="SvgjsG1077"><text id="SvgjsText1078" font-family="&quot;Microsoft YaHei&quot;, 微软雅黑, Arial" text-anchor="middle" font-size="13px" width="100px" fill="#a7932c" font-weight="700" align="middle" lineHeight="125%" anchor="middle" family="&quot;Microsoft YaHei&quot;, 微软雅黑, Arial" size="13px" weight="700" font-style="" opacity="1" y="9.375" transform="rotate(0)"><tspan id="SvgjsTspan1079" dy="16.25" x="50"><tspan id="SvgjsTspan1080" style="">Survivor区</tspan></tspan></text></g></g><g id="SvgjsG1081" transform="translate(25,119.22351233671986)"><path id="SvgjsPath1082" d="M 0 0L 100 0L 100 40L 0 40Z" stroke="none" fill="none"></path><g id="SvgjsG1083"><text id="SvgjsText1084" font-family="&quot;Microsoft YaHei&quot;, 微软雅黑, Arial" text-anchor="middle" font-size="16px" width="100px" fill="#323232" font-weight="400" align="middle" lineHeight="125%" anchor="middle" family="&quot;Microsoft YaHei&quot;, 微软雅黑, Arial" size="16px" weight="400" font-style="" opacity="1" y="6" transform="rotate(0)"><tspan id="SvgjsTspan1085" dy="20" x="50"><tspan id="SvgjsTspan1086" style="font-weight: bold;">JDK 7</tspan></tspan></text></g></g><g id="SvgjsG1087"></g></svg>