<svg id="SvgjsSvg1006" width="375" height="350" xmlns="http://www.w3.org/2000/svg" version="1.1" xmlns:xlink="http://www.w3.org/1999/xlink" xmlns:svgjs="http://svgjs.com/svgjs"><defs id="SvgjsDefs1007"><pattern patternUnits="userSpaceOnUse" id="pattern_mark_0" width="300" height="300"><text x="150" y="100" fill="rgba(229,229,229,0.8)" font-size="18" transform="rotate(-45, 150, 150)" style="dominant-baseline: middle; text-anchor: middle;"></text></pattern><pattern patternUnits="userSpaceOnUse" id="pattern_mark_1" width="300" height="300"><text x="150" y="200" fill="rgba(229,229,229,0.8)" font-size="18" transform="rotate(-45, 150, 150)" style="dominant-baseline: middle; text-anchor: middle;"></text></pattern><marker id="SvgjsMarker1091" markerWidth="13" markerHeight="9" refX="9.5" refY="4.5" viewBox="0 0 13 9" orient="auto" markerUnits="userSpaceOnUse" stroke-dasharray="0,0"><path id="SvgjsPath1092" d="M0,0 L13,4.5 L0,9 L0,0" fill="#323232" stroke="#323232" stroke-width="1"></path></marker><marker id="SvgjsMarker1095" markerWidth="13" markerHeight="9" refX="9.5" refY="4.5" viewBox="0 0 13 9" orient="auto" markerUnits="userSpaceOnUse" stroke-dasharray="0,0"><path id="SvgjsPath1096" d="M0,0 L13,4.5 L0,9 L0,0" fill="#323232" stroke="#323232" stroke-width="1"></path></marker><marker id="SvgjsMarker1099" markerWidth="13" markerHeight="9" refX="9.5" refY="4.5" viewBox="0 0 13 9" orient="auto" markerUnits="userSpaceOnUse" stroke-dasharray="0,0"><path id="SvgjsPath1100" d="M0,0 L13,4.5 L0,9 L0,0" fill="#323232" stroke="#323232" stroke-width="1"></path></marker></defs><rect id="svgbackgroundid" width="375" height="350" fill="transparent"></rect><rect id="SvgjsRect1009" width="375" height="350" fill="url(#pattern_mark_0)"></rect><rect id="SvgjsRect1010" width="375" height="350" fill="url(#pattern_mark_1)"></rect><g id="SvgjsG1011" transform="translate(35,265)"><path id="SvgjsPath1012" d="M 120 0Q 111 0 111 6L 111 24Q 111 30 98 30Q 111 30 111 36L 111 54Q 111 60 120 60" stroke="rgba(33,41,48,1)" stroke-width="1.5" fill="none"></path><path id="SvgjsPath1013" d="M 0 0L 120 0L 120 60L 0 60Z" stroke="none" fill="none"></path><g id="SvgjsG1014"><text id="SvgjsText1015" font-family="&quot;Microsoft YaHei&quot;, 微软雅黑, Arial" text-anchor="end" font-size="13px" width="93px" fill="#323232" font-weight="400" align="middle" lineHeight="125%" anchor="end" family="&quot;Microsoft YaHei&quot;, 微软雅黑, Arial" size="13px" weight="400" font-style="" opacity="1" y="19.375" transform="rotate(0)"></text></g></g><g id="SvgjsG1016" transform="translate(160,25)"><path id="SvgjsPath1017" d="M 0 0L 190 0L 190 60L 0 60Z" stroke-dasharray="7.5,3" stroke="rgba(33,41,48,1)" stroke-width="1.5" fill-opacity="1" fill="#f7cd97"></path><g id="SvgjsG1018"><text id="SvgjsText1019" font-family="&quot;Microsoft YaHei&quot;, 微软雅黑, Arial" text-anchor="middle" font-size="13px" width="170px" fill="#323232" font-weight="700" align="middle" lineHeight="125%" anchor="middle" family="&quot;Microsoft YaHei&quot;, 微软雅黑, Arial" size="13px" weight="700" font-style="" opacity="1" y="2.875" transform="rotate(0)"><tspan id="SvgjsTspan1020" dy="16.25" x="95"><tspan id="SvgjsTspan1021" style="">魔数检查</tspan></tspan><tspan id="SvgjsTspan1022" dy="16.25" x="95"><tspan id="SvgjsTspan1023" style="">版本检查</tspan></tspan><tspan id="SvgjsTspan1024" dy="16.25" x="95"><tspan id="SvgjsTspan1025" style="">长度检查</tspan></tspan></text></g></g><g id="SvgjsG1026" transform="translate(160,105)"><path id="SvgjsPath1027" d="M 0 0L 190 0L 190 60L 0 60Z" stroke-dasharray="7.5,3" stroke="rgba(33,41,48,1)" stroke-width="1.5" fill-opacity="1" fill="#f7cd97"></path><g id="SvgjsG1028"><text id="SvgjsText1029" font-family="&quot;Microsoft YaHei&quot;, 微软雅黑, Arial" text-anchor="middle" font-size="13px" width="170px" fill="#323232" font-weight="700" align="middle" lineHeight="125%" anchor="middle" family="&quot;Microsoft YaHei&quot;, 微软雅黑, Arial" size="13px" weight="700" font-style="" opacity="1" y="2.875" transform="rotate(0)"><tspan id="SvgjsTspan1030" dy="16.25" x="95"><tspan id="SvgjsTspan1031" style="">是否继承final</tspan></tspan><tspan id="SvgjsTspan1032" dy="16.25" x="95"><tspan id="SvgjsTspan1033" style="">是否有父类</tspan></tspan><tspan id="SvgjsTspan1034" dy="16.25" x="95"><tspan id="SvgjsTspan1035" style="">抽象方法是否有实现</tspan></tspan></text></g></g><g id="SvgjsG1036" transform="translate(160,185)"><path id="SvgjsPath1037" d="M 0 0L 190 0L 190 60L 0 60Z" stroke-dasharray="7.5,3" stroke="rgba(33,41,48,1)" stroke-width="1.5" fill-opacity="1" fill="#f7cd97"></path><g id="SvgjsG1038"><text id="SvgjsText1039" font-family="&quot;Microsoft YaHei&quot;, 微软雅黑, Arial" text-anchor="middle" font-size="13px" width="170px" fill="#323232" font-weight="700" align="middle" lineHeight="125%" anchor="middle" family="&quot;Microsoft YaHei&quot;, 微软雅黑, Arial" size="13px" weight="700" font-style="" opacity="1" y="10.875" transform="rotate(0)"><tspan id="SvgjsTspan1040" dy="16.25" x="95"><tspan id="SvgjsTspan1041" style="">跳转指令是否指向正确位置</tspan></tspan><tspan id="SvgjsTspan1042" dy="16.25" x="95"><tspan id="SvgjsTspan1043" style="">操作数类型是否合法</tspan></tspan></text></g></g><g id="SvgjsG1044" transform="translate(160,265)"><path id="SvgjsPath1045" d="M 0 0L 190 0L 190 60L 0 60Z" stroke-dasharray="7.5,3" stroke="rgba(33,41,48,1)" stroke-width="1.5" fill-opacity="1" fill="#f7cd97"></path><g id="SvgjsG1046"><text id="SvgjsText1047" font-family="&quot;Microsoft YaHei&quot;, 微软雅黑, Arial" text-anchor="middle" font-size="13px" width="170px" fill="#323232" font-weight="700" align="middle" lineHeight="125%" anchor="middle" family="&quot;Microsoft YaHei&quot;, 微软雅黑, Arial" size="13px" weight="700" font-style="" opacity="1" y="19.375" transform="rotate(0)"><tspan id="SvgjsTspan1048" dy="16.25" x="95"><tspan id="SvgjsTspan1049" style="">符号引用的直接引用是否存在</tspan></tspan></text></g></g><g id="SvgjsG1050" transform="translate(25,275)"><path id="SvgjsPath1051" d="M 0 0L 100 0L 100 40L 0 40Z" stroke="rgba(33,41,48,1)" stroke-width="1.5" fill-opacity="1" fill="#298200"></path><g id="SvgjsG1052"><text id="SvgjsText1053" font-family="&quot;Microsoft YaHei&quot;, 微软雅黑, Arial" text-anchor="middle" font-size="13px" width="80px" fill="#323232" font-weight="700" align="middle" lineHeight="125%" anchor="middle" family="&quot;Microsoft YaHei&quot;, 微软雅黑, Arial" size="13px" weight="700" font-style="" opacity="1" y="9.375" transform="rotate(0)"><tspan id="SvgjsTspan1054" dy="16.25" x="50"><tspan id="SvgjsTspan1055" style="">符号引用验证</tspan></tspan></text></g></g><g id="SvgjsG1056" transform="translate(35,25)"><path id="SvgjsPath1057" d="M 120 0Q 111 0 111 6L 111 24Q 111 30 98 30Q 111 30 111 36L 111 54Q 111 60 120 60" stroke="rgba(33,41,48,1)" stroke-width="1.5" fill="none"></path><path id="SvgjsPath1058" d="M 0 0L 120 0L 120 60L 0 60Z" stroke="none" fill="none"></path><g id="SvgjsG1059"><text id="SvgjsText1060" font-family="&quot;Microsoft YaHei&quot;, 微软雅黑, Arial" text-anchor="end" font-size="13px" width="93px" fill="#323232" font-weight="400" align="middle" lineHeight="125%" anchor="end" family="&quot;Microsoft YaHei&quot;, 微软雅黑, Arial" size="13px" weight="400" font-style="" opacity="1" y="19.375" transform="rotate(0)"></text></g></g><g id="SvgjsG1061" transform="translate(35,105)"><path id="SvgjsPath1062" d="M 120 0Q 111 0 111 6L 111 24Q 111 30 98 30Q 111 30 111 36L 111 54Q 111 60 120 60" stroke="rgba(33,41,48,1)" stroke-width="1.5" fill="none"></path><path id="SvgjsPath1063" d="M 0 0L 120 0L 120 60L 0 60Z" stroke="none" fill="none"></path><g id="SvgjsG1064"><text id="SvgjsText1065" font-family="&quot;Microsoft YaHei&quot;, 微软雅黑, Arial" text-anchor="end" font-size="13px" width="93px" fill="#323232" font-weight="400" align="middle" lineHeight="125%" anchor="end" family="&quot;Microsoft YaHei&quot;, 微软雅黑, Arial" size="13px" weight="400" font-style="" opacity="1" y="19.375" transform="rotate(0)"></text></g></g><g id="SvgjsG1066" transform="translate(35,185)"><path id="SvgjsPath1067" d="M 120 0Q 111 0 111 6L 111 24Q 111 30 98 30Q 111 30 111 36L 111 54Q 111 60 120 60" stroke="rgba(33,41,48,1)" stroke-width="1.5" fill="none"></path><path id="SvgjsPath1068" d="M 0 0L 120 0L 120 60L 0 60Z" stroke="none" fill="none"></path><g id="SvgjsG1069"><text id="SvgjsText1070" font-family="&quot;Microsoft YaHei&quot;, 微软雅黑, Arial" text-anchor="end" font-size="13px" width="93px" fill="#323232" font-weight="400" align="middle" lineHeight="125%" anchor="end" family="&quot;Microsoft YaHei&quot;, 微软雅黑, Arial" size="13px" weight="400" font-style="" opacity="1" y="19.375" transform="rotate(0)"></text></g></g><g id="SvgjsG1071" transform="translate(25,195)"><path id="SvgjsPath1072" d="M 0 0L 100 0L 100 40L 0 40Z" stroke="rgba(33,41,48,1)" stroke-width="1.5" fill-opacity="1" fill="#39ac00"></path><g id="SvgjsG1073"><text id="SvgjsText1074" font-family="&quot;Microsoft YaHei&quot;, 微软雅黑, Arial" text-anchor="middle" font-size="13px" width="80px" fill="#323232" font-weight="700" align="middle" lineHeight="125%" anchor="middle" family="&quot;Microsoft YaHei&quot;, 微软雅黑, Arial" size="13px" weight="700" font-style="" opacity="1" y="9.375" transform="rotate(0)"><tspan id="SvgjsTspan1075" dy="16.25" x="50"><tspan id="SvgjsTspan1076" style="">字节码验证</tspan></tspan></text></g></g><g id="SvgjsG1077" transform="translate(25,115)"><path id="SvgjsPath1078" d="M 0 0L 100 0L 100 40L 0 40Z" stroke="rgba(33,41,48,1)" stroke-width="1.5" fill-opacity="1" fill="#5ae861"></path><g id="SvgjsG1079"><text id="SvgjsText1080" font-family="&quot;Microsoft YaHei&quot;, 微软雅黑, Arial" text-anchor="middle" font-size="13px" width="80px" fill="#323232" font-weight="700" align="middle" lineHeight="125%" anchor="middle" family="&quot;Microsoft YaHei&quot;, 微软雅黑, Arial" size="13px" weight="700" font-style="" opacity="1" y="9.375" transform="rotate(0)"><tspan id="SvgjsTspan1081" dy="16.25" x="50"><tspan id="SvgjsTspan1082" style="">语义检查</tspan></tspan></text></g></g><g id="SvgjsG1083" transform="translate(25,35)"><path id="SvgjsPath1084" d="M 0 0L 100 0L 100 40L 0 40Z" stroke="rgba(33,41,48,1)" stroke-width="1.5" fill-opacity="1" fill="#c8f7ca"></path><g id="SvgjsG1085"><text id="SvgjsText1086" font-family="&quot;Microsoft YaHei&quot;, 微软雅黑, Arial" text-anchor="middle" font-size="13px" width="80px" fill="#323232" font-weight="700" align="middle" lineHeight="125%" anchor="middle" family="&quot;Microsoft YaHei&quot;, 微软雅黑, Arial" size="13px" weight="700" font-style="" opacity="1" y="9.375" transform="rotate(0)"><tspan id="SvgjsTspan1087" dy="16.25" x="50"><tspan id="SvgjsTspan1088" style="">格式检查</tspan></tspan></text></g></g><g id="SvgjsG1089"><path id="SvgjsPath1090" d="M75 75.75L75 95L75 95L75 112.30000000000001" stroke="#323232" stroke-width="1.5" fill="none" marker-end="url(#SvgjsMarker1091)"></path></g><g id="SvgjsG1093"><path id="SvgjsPath1094" d="M75 155.75L75 175L75 175L75 192.3" stroke="#323232" stroke-width="1.5" fill="none" marker-end="url(#SvgjsMarker1095)"></path></g><g id="SvgjsG1097"><path id="SvgjsPath1098" d="M75 235.75L75 255L75 255L75 272.3" stroke="#323232" stroke-width="1.5" fill="none" marker-end="url(#SvgjsMarker1099)"></path></g><g id="SvgjsG1101"></g></svg>