<svg xmlns="http://www.w3.org/2000/svg" xlink="http://www.w3.org/1999/xlink" id="mind-svg-con" version="1.1" width="978.7265625px" height="1235.375px" style="position: absolute; left: 0px; top: 0px; width: 978.727px; height: 1235.38px; background: rgb(248, 249, 248); z-index: 999;"><defs></defs><g id="svgbackgroundid"><defs></defs><rect x="0" y="0" width="978.7265625" height="1235.375" fill="#f8f9f8"></rect></g><g transform="translate(-9509.7734375, -9882.5)" id="sdjakdjak17"><defs></defs><g class="svg-topic-con" transform="translate(0.5,0.5)"><path part="right" sub="true" id="line_a9fd72019d42c3aa" d="M9999.99982244318 9969.5 L9999.99982244318 10030.5L10024.99982244318 10030.5" stroke="#cccdcd" fill="none" stroke-linecap="square" stroke-width="2"></path><path part="left" sub="true" id="line_56cd3b1ee0de8aba" d="M9999.99982244318 9969.5 L9999.99982244318 10088.5L9974.99982244318 10088.5" stroke="#cccdcd" fill="none" stroke-linecap="square" stroke-width="2"></path><path part="right" sub="true" id="line_6544e42fb494d1ca" d="M9999.99982244318 9969.5 L9999.99982244318 10173.5L10024.99982244318 10173.5" stroke="#cccdcd" fill="none" stroke-linecap="square" stroke-width="2"></path><path part="left" sub="true" id="line_4514fdf63caefac6" d="M9999.99982244318 9969.5 L9999.99982244318 10249.500532670454L9974.99982244318 10249.500532670454" stroke="#cccdcd" fill="none" stroke-linecap="square" stroke-width="2"></path><path part="right" sub="true" id="line_070c9a37949b4908" d="M9999.99982244318 9969.5 L9999.99982244318 10316.5L10024.99982244318 10316.5" stroke="#cccdcd" fill="none" stroke-linecap="square" stroke-width="2"></path><path part="left" sub="true" id="line_757a4f1cc1c10d4c" d="M9999.99982244318 9969.5 L9999.99982244318 10374.500177556818L9974.99982244318 10374.500177556818" stroke="#cccdcd" fill="none" stroke-linecap="square" stroke-width="2"></path><path part="right" sub="true" id="line_d5f90912297cb30c" d="M9999.99982244318 9969.5 L9999.99982244318 10459.5L10024.99982244318 10459.5" stroke="#cccdcd" fill="none" stroke-linecap="square" stroke-width="2"></path><path part="left" sub="true" id="line_75cd82acce98c9dc" d="M9999.99982244318 9969.5 L9999.99982244318 10517.5L9974.99982244318 10517.5" stroke="#cccdcd" fill="none" stroke-linecap="square" stroke-width="2"></path><path part="right" sub="true" id="line_f4889fd49a10f44f" d="M9999.99982244318 9969.5 L9999.99982244318 10575.5L10024.99982244318 10575.5" stroke="#cccdcd" fill="none" stroke-linecap="square" stroke-width="2"></path><path part="left" sub="true" id="line_38aeb96c58a6b71c" d="M9999.99982244318 9969.5 L9999.99982244318 10633.5L9974.99982244318 10633.5" stroke="#cccdcd" fill="none" stroke-linecap="square" stroke-width="2"></path><path part="right" sub="true" id="line_b8cfde2b9a81f623" d="M9999.99982244318 9969.5 L9999.99982244318 10718.5L10024.99982244318 10718.5" stroke="#cccdcd" fill="none" stroke-linecap="square" stroke-width="2"></path><path part="left" sub="true" id="line_d515f315fdfea1e9" d="M9999.99982244318 9969.5 L9999.99982244318 10776.5L9974.99982244318 10776.5" stroke="#cccdcd" fill="none" stroke-linecap="square" stroke-width="2"></path><path part="right" sub="true" id="line_ecd5b18fc715baff" d="M9999.99982244318 9969.5 L9999.99982244318 10843.5L10024.99982244318 10843.5" stroke="#cccdcd" fill="none" stroke-linecap="square" stroke-width="2"></path><path part="left" sub="true" id="line_b07a3907ad7e7e5b" d="M9999.99982244318 9969.5 L9999.99982244318 10901.500355113636L9974.99982244318 10901.500355113636" stroke="#cccdcd" fill="none" stroke-linecap="square" stroke-width="2"></path><path part="right" sub="true" id="line_72f70bbe3f39b234" d="M9999.99982244318 9969.5 L9999.99982244318 10959.500355113636L10024.99982244318 10959.500355113636" stroke="#cccdcd" fill="none" stroke-linecap="square" stroke-width="2"></path><path part="left" sub="true" id="line_8729fe4daf06fa1e" d="M9999.99982244318 9969.5 L9999.99982244318 11017.500355113636L9974.99982244318 11017.500355113636" stroke="#cccdcd" fill="none" stroke-linecap="square" stroke-width="2"></path></g><g class="svg-connection-con" transform="translate(0.5,0.5)"></g><g class="svg-freesums-con" transform="translate(0.5,0.5)"></g><g class="svg-freebos-con" transform="translate(0.5,0.5)"></g></g><g id="8729fe4daf06fa1e"><rect x="324.3984375" y="1115" rx="6px" ry="6px" width="141" height="40" style="fill: #F08000; stroke:none;stroke-width:0px;"></rect><g><text text-anchor="start" align="top" anchor="start" font-size="16px" font-weight="bold" fill="rgb(255, 255, 255)" style="font-size:16px;font-family:Comic Sans MS;color:#FFFFFF;font-style:normal;text-align:left;font-weight:bold;background-color:#F08000;"><tspan x="368" y="1141"><tspan dx="0">2018年4月</tspan></tspan></text></g><g><g transform="translate(341.3984375, 1127.1796875) scale(0.017578125)"><circle cx="512" cy="512" r="568.8888888888889" stroke="#ffffff" stroke-width="56.888888888888886" fill="#ffffff"></circle><path d="M1024 512c0 282.768-229.232 512-512 512C229.232 1024 0 794.768 0 512 0 229.232 229.232 0 512 0c282.768 0 512 229.232 512 512zM307.36 248c-7.232-5.28-15.936-8-24.864-8-8.912 0-17.616 2.88-24.848 8-7.232 5.28-12.64 12.64-15.472 21.12a42.464 42.464 0 0 0 14.816 47.36v442.08c0 6.72 2.688 13.12 7.472 17.92 4.784 4.8 11.28 7.52 18.032 7.52 6.768 0 13.248-2.72 18.032-7.52 4.784-4.8 7.472-11.2 7.472-17.92l0.032-442.08a42.336 42.336 0 0 0 14.816-47.36 42.944 42.944 0 0 0-15.488-21.12z m267.872 32.32c-30.08-17.76-62.784-23.36-112.016-23.36-49.232 0-91.04 17.44-121.216 35.52V585.6c30.192-17.92 71.984-35.36 121.216-35.36s81.904 5.6 112 23.36c30.176 18.08 48.448 23.36 97.712 23.36 49.28 0 80.8-12.32 111.072-30.24V284c-30.256 17.92-62.768 22.88-112.064 22.88-49.2 0-66.512-8.8-96.704-26.56z" fill="rgb(109, 126, 158)"></path></g></g></g><g id="eef881d96a37f4e0"><rect x="212.6328125" y="1179.375" rx="1px" ry="1px" width="172" height="24" style="fill: transparent; stroke:none;stroke-width:0px;"></rect><g><text text-anchor="start" align="top" anchor="start" font-size="13px" font-weight="normal" fill="rgb(68, 68, 68)" style="font-size:13px;font-family:Comic Sans MS;color:rgb(68,68,68);font-style:normal;text-align:left;font-weight:normal;"><tspan x="222" y="1197"><tspan dx="0">MySQL8.0.11 GA版本发布</tspan></tspan></text></g></g><g id="b07a3907ad7e7e5b"><rect x="350.1640625" y="999" rx="6px" ry="6px" width="115" height="40" style="fill: #F08000; stroke:none;stroke-width:0px;"></rect><g><text text-anchor="start" align="top" anchor="start" font-size="16px" font-weight="bold" fill="rgb(255, 255, 255)" style="font-size:16px;font-family:Comic Sans MS;color:#FFFFFF;font-style:normal;text-align:left;font-weight:bold;background-color:#F08000;"><tspan x="394" y="1025"><tspan dx="0">2015年</tspan></tspan></text></g><g><g transform="translate(367.1640625, 1011.1796875) scale(0.017578125)"><circle cx="512" cy="512" r="568.8888888888889" stroke="#ffffff" stroke-width="56.888888888888886" fill="#ffffff"></circle><path d="M1024 512c0 282.768-229.232 512-512 512C229.232 1024 0 794.768 0 512 0 229.232 229.232 0 512 0c282.768 0 512 229.232 512 512zM307.36 248c-7.232-5.28-15.936-8-24.864-8-8.912 0-17.616 2.88-24.848 8-7.232 5.28-12.64 12.64-15.472 21.12a42.464 42.464 0 0 0 14.816 47.36v442.08c0 6.72 2.688 13.12 7.472 17.92 4.784 4.8 11.28 7.52 18.032 7.52 6.768 0 13.248-2.72 18.032-7.52 4.784-4.8 7.472-11.2 7.472-17.92l0.032-442.08a42.336 42.336 0 0 0 14.816-47.36 42.944 42.944 0 0 0-15.488-21.12z m267.872 32.32c-30.08-17.76-62.784-23.36-112.016-23.36-49.232 0-91.04 17.44-121.216 35.52V585.6c30.192-17.92 71.984-35.36 121.216-35.36s81.904 5.6 112 23.36c30.176 18.08 48.448 23.36 97.712 23.36 49.28 0 80.8-12.32 111.072-30.24V284c-30.256 17.92-62.768 22.88-112.064 22.88-49.2 0-66.512-8.8-96.704-26.56z" fill="rgb(153, 90, 255)"></path></g></g></g><g id="60bc47e9f7f783de"><rect x="240.578125" y="1063.375" rx="1px" ry="1px" width="157" height="24" style="fill: transparent; stroke:none;stroke-width:0px;"></rect><g><text text-anchor="start" align="top" anchor="start" font-size="13px" font-weight="normal" fill="rgb(68, 68, 68)" style="font-size:13px;font-family:Comic Sans MS;color:rgb(68,68,68);font-style:normal;text-align:left;font-weight:normal;"><tspan x="250" y="1081"><tspan dx="0">MySQL5.7 GA版本发布</tspan></tspan></text></g></g><g id="d515f315fdfea1e9"><rect x="350.1640625" y="874" rx="6px" ry="6px" width="115" height="40" style="fill: #F08000; stroke:none;stroke-width:0px;"></rect><g><text text-anchor="start" align="top" anchor="start" font-size="16px" font-weight="bold" fill="rgb(255, 255, 255)" style="font-size:16px;font-family:Comic Sans MS;color:#FFFFFF;font-style:normal;text-align:left;font-weight:bold;background-color:#F08000;"><tspan x="394" y="900"><tspan dx="0">2010年</tspan></tspan></text></g><g><g transform="translate(367.1640625, 886.1796875) scale(0.017578125)"><circle cx="512" cy="512" r="568.8888888888889" stroke="#ffffff" stroke-width="56.888888888888886" fill="#ffffff"></circle><path d="M1024 512c0 282.768-229.232 512-512 512C229.232 1024 0 794.768 0 512 0 229.232 229.232 0 512 0c282.768 0 512 229.232 512 512zM307.36 248c-7.232-5.28-15.936-8-24.864-8-8.912 0-17.616 2.88-24.848 8-7.232 5.28-12.64 12.64-15.472 21.12a42.464 42.464 0 0 0 14.816 47.36v442.08c0 6.72 2.688 13.12 7.472 17.92 4.784 4.8 11.28 7.52 18.032 7.52 6.768 0 13.248-2.72 18.032-7.52 4.784-4.8 7.472-11.2 7.472-17.92l0.032-442.08a42.336 42.336 0 0 0 14.816-47.36 42.944 42.944 0 0 0-15.488-21.12z m267.872 32.32c-30.08-17.76-62.784-23.36-112.016-23.36-49.232 0-91.04 17.44-121.216 35.52V585.6c30.192-17.92 71.984-35.36 121.216-35.36s81.904 5.6 112 23.36c30.176 18.08 48.448 23.36 97.712 23.36 49.28 0 80.8-12.32 111.072-30.24V284c-30.256 17.92-62.768 22.88-112.064 22.88-49.2 0-66.512-8.8-96.704-26.56z" fill="rgb(40, 191, 90)"></path></g></g></g><g id="9900d62ba1dac94a"><rect x="86.234375" y="938.375" rx="1px" ry="1px" width="311" height="40" style="fill: transparent; stroke:none;stroke-width:0px;"></rect><g><text text-anchor="start" align="top" anchor="start" font-size="13px" font-weight="normal" fill="rgb(68, 68, 68)" style="font-size:13px;font-family:Comic Sans MS;color:rgb(68,68,68);font-style:normal;text-align:left;font-weight:normal;"><tspan x="95" y="954"><tspan dx="0">MySQL5.5发布，InnodDB存储引擎成为MySQL的</tspan></tspan><tspan x="95" y="972.2"><tspan dx="0">默认存储引擎</tspan></tspan></text></g></g><g id="38aeb96c58a6b71c"><rect x="350.1640625" y="731" rx="6px" ry="6px" width="115" height="40" style="fill: #F08000; stroke:none;stroke-width:0px;"></rect><g><text text-anchor="start" align="top" anchor="start" font-size="16px" font-weight="bold" fill="rgb(255, 255, 255)" style="font-size:16px;font-family:Comic Sans MS;color:#FFFFFF;font-style:normal;text-align:left;font-weight:bold;background-color:#F08000;"><tspan x="394" y="757"><tspan dx="0">2008年</tspan></tspan></text></g><g><g transform="translate(367.1640625, 743.1796875) scale(0.017578125)"><circle cx="512" cy="512" r="568.8888888888889" stroke="#ffffff" stroke-width="56.888888888888886" fill="#ffffff"></circle><path d="M1024 512c0 282.768-229.232 512-512 512C229.232 1024 0 794.768 0 512 0 229.232 229.232 0 512 0c282.768 0 512 229.232 512 512zM307.36 248c-7.232-5.28-15.936-8-24.864-8-8.912 0-17.616 2.88-24.848 8-7.232 5.28-12.64 12.64-15.472 21.12a42.464 42.464 0 0 0 14.816 47.36v442.08c0 6.72 2.688 13.12 7.472 17.92 4.784 4.8 11.28 7.52 18.032 7.52 6.768 0 13.248-2.72 18.032-7.52 4.784-4.8 7.472-11.2 7.472-17.92l0.032-442.08a42.336 42.336 0 0 0 14.816-47.36 42.944 42.944 0 0 0-15.488-21.12z m267.872 32.32c-30.08-17.76-62.784-23.36-112.016-23.36-49.232 0-91.04 17.44-121.216 35.52V585.6c30.192-17.92 71.984-35.36 121.216-35.36s81.904 5.6 112 23.36c30.176 18.08 48.448 23.36 97.712 23.36 49.28 0 80.8-12.32 111.072-30.24V284c-30.256 17.92-62.768 22.88-112.064 22.88-49.2 0-66.512-8.8-96.704-26.56z" fill="rgb(255, 134, 59)"></path></g></g></g><g id="8470248fd4626f68"><rect x="132.9609375" y="795.375" rx="1px" ry="1px" width="265" height="24" style="fill: transparent; stroke:none;stroke-width:0px;"></rect><g><text text-anchor="start" align="top" anchor="start" font-size="13px" font-weight="normal" fill="rgb(68, 68, 68)" style="font-size:13px;font-family:Comic Sans MS;color:rgb(68,68,68);font-style:normal;text-align:left;font-weight:normal;"><tspan x="142" y="813"><tspan dx="0">MySQL AB公司被Sun公司以10亿美金收购</tspan></tspan></text></g></g><g id="75cd82acce98c9dc"><rect x="350.1640625" y="615" rx="6px" ry="6px" width="115" height="40" style="fill: #F08000; stroke:none;stroke-width:0px;"></rect><g><text text-anchor="start" align="top" anchor="start" font-size="16px" font-weight="bold" fill="rgb(255, 255, 255)" style="font-size:16px;font-family:Comic Sans MS;color:#FFFFFF;font-style:normal;text-align:left;font-weight:bold;background-color:#F08000;"><tspan x="394" y="641"><tspan dx="0">2003年</tspan></tspan></text></g><g><g transform="translate(367.1640625, 627.1796875) scale(0.017578125)"><circle cx="512" cy="512" r="568.8888888888889" stroke="#ffffff" stroke-width="56.888888888888886" fill="#ffffff"></circle><path d="M1024 512c0 282.768-229.232 512-512 512C229.232 1024 0 794.768 0 512 0 229.232 229.232 0 512 0c282.768 0 512 229.232 512 512zM307.36 248c-7.232-5.28-15.936-8-24.864-8-8.912 0-17.616 2.88-24.848 8-7.232 5.28-12.64 12.64-15.472 21.12a42.464 42.464 0 0 0 14.816 47.36v442.08c0 6.72 2.688 13.12 7.472 17.92 4.784 4.8 11.28 7.52 18.032 7.52 6.768 0 13.248-2.72 18.032-7.52 4.784-4.8 7.472-11.2 7.472-17.92l0.032-442.08a42.336 42.336 0 0 0 14.816-47.36 42.944 42.944 0 0 0-15.488-21.12z m267.872 32.32c-30.08-17.76-62.784-23.36-112.016-23.36-49.232 0-91.04 17.44-121.216 35.52V585.6c30.192-17.92 71.984-35.36 121.216-35.36s81.904 5.6 112 23.36c30.176 18.08 48.448 23.36 97.712 23.36 49.28 0 80.8-12.32 111.072-30.24V284c-30.256 17.92-62.768 22.88-112.064 22.88-49.2 0-66.512-8.8-96.704-26.56z" fill="rgb(109, 126, 158)"></path></g></g></g><g id="27ad7455d738ff01"><rect x="126.6796875" y="679.375" rx="1px" ry="1px" width="271" height="24" style="fill: transparent; stroke:none;stroke-width:0px;"></rect><g><text text-anchor="start" align="top" anchor="start" font-size="13px" font-weight="normal" fill="rgb(68, 68, 68)" style="font-size:13px;font-family:Comic Sans MS;color:rgb(68,68,68);font-style:normal;text-align:left;font-weight:normal;"><tspan x="136" y="697"><tspan dx="0">MySQL发布了4.0版本，与InnoDB正式结合</tspan></tspan></text></g></g><g id="757a4f1cc1c10d4c"><rect x="350.1640625" y="472" rx="6px" ry="6px" width="115" height="40" style="fill: #F08000; stroke:none;stroke-width:0px;"></rect><g><text text-anchor="start" align="top" anchor="start" font-size="16px" font-weight="bold" fill="rgb(255, 255, 255)" style="font-size:16px;font-family:Comic Sans MS;color:#FFFFFF;font-style:normal;text-align:left;font-weight:bold;background-color:#F08000;"><tspan x="394" y="498"><tspan dx="0">2000年</tspan></tspan></text></g><g><g transform="translate(367.1640625, 484.1796875) scale(0.017578125)"><circle cx="512" cy="512" r="568.8888888888889" stroke="#ffffff" stroke-width="56.888888888888886" fill="#ffffff"></circle><path d="M1024 512c0 282.768-229.232 512-512 512C229.232 1024 0 794.768 0 512 0 229.232 229.232 0 512 0c282.768 0 512 229.232 512 512zM307.36 248c-7.232-5.28-15.936-8-24.864-8-8.912 0-17.616 2.88-24.848 8-7.232 5.28-12.64 12.64-15.472 21.12a42.464 42.464 0 0 0 14.816 47.36v442.08c0 6.72 2.688 13.12 7.472 17.92 4.784 4.8 11.28 7.52 18.032 7.52 6.768 0 13.248-2.72 18.032-7.52 4.784-4.8 7.472-11.2 7.472-17.92l0.032-442.08a42.336 42.336 0 0 0 14.816-47.36 42.944 42.944 0 0 0-15.488-21.12z m267.872 32.32c-30.08-17.76-62.784-23.36-112.016-23.36-49.232 0-91.04 17.44-121.216 35.52V585.6c30.192-17.92 71.984-35.36 121.216-35.36s81.904 5.6 112 23.36c30.176 18.08 48.448 23.36 97.712 23.36 49.28 0 80.8-12.32 111.072-30.24V284c-30.256 17.92-62.768 22.88-112.064 22.88-49.2 0-66.512-8.8-96.704-26.56z" fill="rgb(153, 90, 255)"></path></g></g></g><g id="f32e04681928cba7"><rect x="30" y="536.375" rx="1px" ry="1px" width="368" height="40" style="fill: transparent; stroke:none;stroke-width:0px;"></rect><g><text text-anchor="start" align="top" anchor="start" font-size="13px" font-weight="normal" fill="rgb(68, 68, 68)" style="font-size:13px;font-family:Comic Sans MS;color:rgb(68,68,68);font-style:normal;text-align:left;font-weight:normal;"><tspan x="39" y="552"><tspan dx="0">ISAM华丽转身为MySQL存储引擎，同年MySQL开放了自己</tspan></tspan><tspan x="39" y="570.2"><tspan dx="0">的源代码，并且基于GPL许可协议</tspan></tspan></text></g></g><g id="4514fdf63caefac6"><rect x="350.1640625" y="347" rx="6px" ry="6px" width="115" height="40" style="fill: #F08000; stroke:none;stroke-width:0px;"></rect><g><text text-anchor="start" align="top" anchor="start" font-size="16px" font-weight="bold" fill="rgb(255, 255, 255)" style="font-size:16px;font-family:Comic Sans MS;color:#FFFFFF;font-style:normal;text-align:left;font-weight:bold;background-color:#F08000;"><tspan x="394" y="373"><tspan dx="0">1998年</tspan></tspan></text></g><g><g transform="translate(367.1640625, 359.1796875) scale(0.017578125)"><circle cx="512" cy="512" r="568.8888888888889" stroke="#ffffff" stroke-width="56.888888888888886" fill="#ffffff"></circle><path d="M1024 512c0 282.768-229.232 512-512 512C229.232 1024 0 794.768 0 512 0 229.232 229.232 0 512 0c282.768 0 512 229.232 512 512zM307.36 248c-7.232-5.28-15.936-8-24.864-8-8.912 0-17.616 2.88-24.848 8-7.232 5.28-12.64 12.64-15.472 21.12a42.464 42.464 0 0 0 14.816 47.36v442.08c0 6.72 2.688 13.12 7.472 17.92 4.784 4.8 11.28 7.52 18.032 7.52 6.768 0 13.248-2.72 18.032-7.52 4.784-4.8 7.472-11.2 7.472-17.92l0.032-442.08a42.336 42.336 0 0 0 14.816-47.36 42.944 42.944 0 0 0-15.488-21.12z m267.872 32.32c-30.08-17.76-62.784-23.36-112.016-23.36-49.232 0-91.04 17.44-121.216 35.52V585.6c30.192-17.92 71.984-35.36 121.216-35.36s81.904 5.6 112 23.36c30.176 18.08 48.448 23.36 97.712 23.36 49.28 0 80.8-12.32 111.072-30.24V284c-30.256 17.92-62.768 22.88-112.064 22.88-49.2 0-66.512-8.8-96.704-26.56z" fill="rgb(40, 191, 90)"></path></g></g></g><g id="a3863e434bae6dbc"><rect x="56.96875" y="411.375" rx="1px" ry="1px" width="341" height="40" style="fill: transparent; stroke:none;stroke-width:0px;"></rect><g><text text-anchor="start" align="top" anchor="start" font-size="13px" font-weight="normal" fill="rgb(68, 68, 68)" style="font-size:13px;font-family:Comic Sans MS;color:rgb(68,68,68);font-style:normal;text-align:left;font-weight:normal;"><tspan x="66" y="427"><tspan dx="0">CX Dataonsult公司正式更名为MySQL AB公司，同年，</tspan></tspan><tspan x="66" y="445.2"><tspan dx="0">MySQL官方网站完成建立(www.mysql.com)</tspan></tspan></text></g></g><g id="56cd3b1ee0de8aba"><rect x="350.1640625" y="186" rx="6px" ry="6px" width="115" height="40" style="fill: #F08000; stroke:none;stroke-width:0px;"></rect><g><text text-anchor="start" align="top" anchor="start" font-size="16px" font-weight="bold" fill="rgb(255, 255, 255)" style="font-size:16px;font-family:Comic Sans MS;color:#FFFFFF;font-style:normal;text-align:left;font-weight:bold;background-color:#F08000;"><tspan x="394" y="212"><tspan dx="0">1985年</tspan></tspan></text></g><g><g transform="translate(367.1640625, 198.1796875) scale(0.017578125)"><circle cx="512" cy="512" r="568.8888888888889" stroke="#ffffff" stroke-width="56.888888888888886" fill="#ffffff"></circle><path d="M1024 512c0 282.768-229.232 512-512 512C229.232 1024 0 794.768 0 512 0 229.232 229.232 0 512 0c282.768 0 512 229.232 512 512zM307.36 248c-7.232-5.28-15.936-8-24.864-8-8.912 0-17.616 2.88-24.848 8-7.232 5.28-12.64 12.64-15.472 21.12a42.464 42.464 0 0 0 14.816 47.36v442.08c0 6.72 2.688 13.12 7.472 17.92 4.784 4.8 11.28 7.52 18.032 7.52 6.768 0 13.248-2.72 18.032-7.52 4.784-4.8 7.472-11.2 7.472-17.92l0.032-442.08a42.336 42.336 0 0 0 14.816-47.36 42.944 42.944 0 0 0-15.488-21.12z m267.872 32.32c-30.08-17.76-62.784-23.36-112.016-23.36-49.232 0-91.04 17.44-121.216 35.52V585.6c30.192-17.92 71.984-35.36 121.216-35.36s81.904 5.6 112 23.36c30.176 18.08 48.448 23.36 97.712 23.36 49.28 0 80.8-12.32 111.072-30.24V284c-30.256 17.92-62.768 22.88-112.064 22.88-49.2 0-66.512-8.8-96.704-26.56z" fill="rgb(255, 134, 59)"></path></g></g></g><g id="64ddcd1f092198f2"><rect x="56.6875" y="250.375" rx="1px" ry="1px" width="341" height="77" style="fill: transparent; stroke:none;stroke-width:0px;"></rect><g><text text-anchor="start" align="top" anchor="start" font-size="13px" font-weight="normal" fill="rgb(68, 68, 68)" style="font-size:13px;font-family:Comic Sans MS;color:rgb(68,68,68);font-style:normal;text-align:left;font-weight:normal;"><tspan x="66" y="266"><tspan dx="0">David Axmark、Allan Larsson和Michael Widenius成立</tspan></tspan><tspan x="66" y="284.2"><tspan dx="0">了一家公司，曾是MySQL AB的前身，他们设计了一个</tspan></tspan><tspan x="66" y="302.4"><tspan dx="0">利用索引顺序存取数据的方法，也就是ISAM(Index </tspan></tspan><tspan x="66" y="320.59999999999997"><tspan dx="0">Sequential Access Method)存储引擎栓发的前身。</tspan></tspan></text></g></g><g id="72f70bbe3f39b234"><rect x="515.2265625" y="1057" rx="6px" ry="6px" width="141" height="40" style="fill: #F08000; stroke:none;stroke-width:0px;"></rect><g><text text-anchor="start" align="top" anchor="start" font-size="16px" font-weight="bold" fill="rgb(255, 255, 255)" style="font-size:16px;font-family:Comic Sans MS;color:#FFFFFF;font-style:normal;text-align:left;font-weight:bold;background-color:#F08000;"><tspan x="559" y="1083"><tspan dx="0">2016年9月</tspan></tspan></text></g><g><g transform="translate(532.2265625, 1069.1796875) scale(0.017578125)"><circle cx="512" cy="512" r="568.8888888888889" stroke="#ffffff" stroke-width="56.888888888888886" fill="#ffffff"></circle><path d="M1024 512c0 282.768-229.232 512-512 512C229.232 1024 0 794.768 0 512 0 229.232 229.232 0 512 0c282.768 0 512 229.232 512 512zM307.36 248c-7.232-5.28-15.936-8-24.864-8-8.912 0-17.616 2.88-24.848 8-7.232 5.28-12.64 12.64-15.472 21.12a42.464 42.464 0 0 0 14.816 47.36v442.08c0 6.72 2.688 13.12 7.472 17.92 4.784 4.8 11.28 7.52 18.032 7.52 6.768 0 13.248-2.72 18.032-7.52 4.784-4.8 7.472-11.2 7.472-17.92l0.032-442.08a42.336 42.336 0 0 0 14.816-47.36 42.944 42.944 0 0 0-15.488-21.12z m267.872 32.32c-30.08-17.76-62.784-23.36-112.016-23.36-49.232 0-91.04 17.44-121.216 35.52V585.6c30.192-17.92 71.984-35.36 121.216-35.36s81.904 5.6 112 23.36c30.176 18.08 48.448 23.36 97.712 23.36 49.28 0 80.8-12.32 111.072-30.24V284c-30.256 17.92-62.768 22.88-112.064 22.88-49.2 0-66.512-8.8-96.704-26.56z" fill="rgb(220, 81, 189)"></path></g></g></g><g id="4a7cf5a3b64a29ac"><rect x="595.7265625" y="1121.375" rx="1px" ry="1px" width="231" height="24" style="fill: transparent; stroke:none;stroke-width:0px;"></rect><g><text text-anchor="start" align="top" anchor="start" font-size="13px" font-weight="normal" fill="rgb(68, 68, 68)" style="font-size:13px;font-family:Comic Sans MS;color:rgb(68,68,68);font-style:normal;text-align:left;font-weight:normal;"><tspan x="605" y="1139"><tspan dx="0">MySQL发布里程碑版本MySQL8.0.0</tspan></tspan></text></g></g><g id="ecd5b18fc715baff"><rect x="515.2265625" y="941" rx="6px" ry="6px" width="115" height="40" style="fill: #F08000; stroke:none;stroke-width:0px;"></rect><g><text text-anchor="start" align="top" anchor="start" font-size="16px" font-weight="bold" fill="rgb(255, 255, 255)" style="font-size:16px;font-family:Comic Sans MS;color:#FFFFFF;font-style:normal;text-align:left;font-weight:bold;background-color:#F08000;"><tspan x="559" y="967"><tspan dx="0">2013年</tspan></tspan></text></g><g><g transform="translate(532.2265625, 953.1796875) scale(0.017578125)"><circle cx="512" cy="512" r="568.8888888888889" stroke="#ffffff" stroke-width="56.888888888888886" fill="#ffffff"></circle><path d="M1024 512c0 282.768-229.232 512-512 512C229.232 1024 0 794.768 0 512 0 229.232 229.232 0 512 0c282.768 0 512 229.232 512 512zM307.36 248c-7.232-5.28-15.936-8-24.864-8-8.912 0-17.616 2.88-24.848 8-7.232 5.28-12.64 12.64-15.472 21.12a42.464 42.464 0 0 0 14.816 47.36v442.08c0 6.72 2.688 13.12 7.472 17.92 4.784 4.8 11.28 7.52 18.032 7.52 6.768 0 13.248-2.72 18.032-7.52 4.784-4.8 7.472-11.2 7.472-17.92l0.032-442.08a42.336 42.336 0 0 0 14.816-47.36 42.944 42.944 0 0 0-15.488-21.12z m267.872 32.32c-30.08-17.76-62.784-23.36-112.016-23.36-49.232 0-91.04 17.44-121.216 35.52V585.6c30.192-17.92 71.984-35.36 121.216-35.36s81.904 5.6 112 23.36c30.176 18.08 48.448 23.36 97.712 23.36 49.28 0 80.8-12.32 111.072-30.24V284c-30.256 17.92-62.768 22.88-112.064 22.88-49.2 0-66.512-8.8-96.704-26.56z" fill="rgb(30, 144, 244)"></path></g></g></g><g id="808d528b8ccd47df"><rect x="582.7265625" y="1005.375" rx="1px" ry="1px" width="161" height="24" style="fill: transparent; stroke:none;stroke-width:0px;"></rect><g><text text-anchor="start" align="top" anchor="start" font-size="13px" font-weight="normal" fill="rgb(68, 68, 68)" style="font-size:13px;font-family:Comic Sans MS;color:rgb(68,68,68);font-style:normal;text-align:left;font-weight:normal;"><tspan x="592" y="1023"><tspan dx="0">MySQL5.6 GA 版本发布</tspan></tspan></text></g></g><g id="b8cfde2b9a81f623"><rect x="515.2265625" y="816" rx="6px" ry="6px" width="115" height="40" style="fill: #F08000; stroke:none;stroke-width:0px;"></rect><g><text text-anchor="start" align="top" anchor="start" font-size="16px" font-weight="bold" fill="rgb(255, 255, 255)" style="font-size:16px;font-family:Comic Sans MS;color:#FFFFFF;font-style:normal;text-align:left;font-weight:bold;background-color:#F08000;"><tspan x="559" y="842"><tspan dx="0">2009年</tspan></tspan></text></g><g><g transform="translate(532.2265625, 828.1796875) scale(0.017578125)"><circle cx="512" cy="512" r="568.8888888888889" stroke="#ffffff" stroke-width="56.888888888888886" fill="#ffffff"></circle><path d="M1024 512c0 282.768-229.232 512-512 512C229.232 1024 0 794.768 0 512 0 229.232 229.232 0 512 0c282.768 0 512 229.232 512 512zM307.36 248c-7.232-5.28-15.936-8-24.864-8-8.912 0-17.616 2.88-24.848 8-7.232 5.28-12.64 12.64-15.472 21.12a42.464 42.464 0 0 0 14.816 47.36v442.08c0 6.72 2.688 13.12 7.472 17.92 4.784 4.8 11.28 7.52 18.032 7.52 6.768 0 13.248-2.72 18.032-7.52 4.784-4.8 7.472-11.2 7.472-17.92l0.032-442.08a42.336 42.336 0 0 0 14.816-47.36 42.944 42.944 0 0 0-15.488-21.12z m267.872 32.32c-30.08-17.76-62.784-23.36-112.016-23.36-49.232 0-91.04 17.44-121.216 35.52V585.6c30.192-17.92 71.984-35.36 121.216-35.36s81.904 5.6 112 23.36c30.176 18.08 48.448 23.36 97.712 23.36 49.28 0 80.8-12.32 111.072-30.24V284c-30.256 17.92-62.768 22.88-112.064 22.88-49.2 0-66.512-8.8-96.704-26.56z" fill="rgb(255, 182, 10)"></path></g></g></g><g id="49b96add9bce30d4"><rect x="582.7265625" y="880.375" rx="1px" ry="1px" width="338" height="40" style="fill: transparent; stroke:none;stroke-width:0px;"></rect><g><text text-anchor="start" align="top" anchor="start" font-size="13px" font-weight="normal" fill="rgb(68, 68, 68)" style="font-size:13px;font-family:Comic Sans MS;color:rgb(68,68,68);font-style:normal;text-align:left;font-weight:normal;"><tspan x="592" y="896"><tspan dx="0">Oracle公司以74亿美元收购Sun公司，自MySQL数据库</tspan></tspan><tspan x="592" y="914.2"><tspan dx="0">进入Oracle时代</tspan></tspan></text></g></g><g id="f4889fd49a10f44f"><rect x="515.2265625" y="673" rx="6px" ry="6px" width="115" height="40" style="fill: #F08000; stroke:none;stroke-width:0px;"></rect><g><text text-anchor="start" align="top" anchor="start" font-size="16px" font-weight="bold" fill="rgb(255, 255, 255)" style="font-size:16px;font-family:Comic Sans MS;color:#FFFFFF;font-style:normal;text-align:left;font-weight:bold;background-color:#F08000;"><tspan x="559" y="699"><tspan dx="0">2005年</tspan></tspan></text></g><g><g transform="translate(532.2265625, 685.1796875) scale(0.017578125)"><circle cx="512" cy="512" r="568.8888888888889" stroke="#ffffff" stroke-width="56.888888888888886" fill="#ffffff"></circle><path d="M1024 512c0 282.768-229.232 512-512 512C229.232 1024 0 794.768 0 512 0 229.232 229.232 0 512 0c282.768 0 512 229.232 512 512zM307.36 248c-7.232-5.28-15.936-8-24.864-8-8.912 0-17.616 2.88-24.848 8-7.232 5.28-12.64 12.64-15.472 21.12a42.464 42.464 0 0 0 14.816 47.36v442.08c0 6.72 2.688 13.12 7.472 17.92 4.784 4.8 11.28 7.52 18.032 7.52 6.768 0 13.248-2.72 18.032-7.52 4.784-4.8 7.472-11.2 7.472-17.92l0.032-442.08a42.336 42.336 0 0 0 14.816-47.36 42.944 42.944 0 0 0-15.488-21.12z m267.872 32.32c-30.08-17.76-62.784-23.36-112.016-23.36-49.232 0-91.04 17.44-121.216 35.52V585.6c30.192-17.92 71.984-35.36 121.216-35.36s81.904 5.6 112 23.36c30.176 18.08 48.448 23.36 97.712 23.36 49.28 0 80.8-12.32 111.072-30.24V284c-30.256 17.92-62.768 22.88-112.064 22.88-49.2 0-66.512-8.8-96.704-26.56z" fill="rgb(248, 87, 103)"></path></g></g></g><g id="daf931d223a98c48"><rect x="582.7265625" y="737.375" rx="1px" ry="1px" width="346" height="59" style="fill: transparent; stroke:none;stroke-width:0px;"></rect><g><text text-anchor="start" align="top" anchor="start" font-size="13px" font-weight="normal" fill="rgb(68, 68, 68)" style="font-size:13px;font-family:Comic Sans MS;color:rgb(68,68,68);font-style:normal;text-align:left;font-weight:normal;"><tspan x="592" y="753"><tspan dx="0">MySQL5.0发布，这是一个里程碑的版本，实现了许多功</tspan></tspan><tspan x="592" y="771.2"><tspan dx="0">能特性。同年5月，Oracle收购了开发InnoDB存储引擎的</tspan></tspan><tspan x="592" y="789.4000000000001"><tspan dx="0">Innobase Oy公司，预示着不久后对MySQL的收购</tspan></tspan></text></g></g><g id="d5f90912297cb30c"><rect x="515.2265625" y="557" rx="6px" ry="6px" width="115" height="40" style="fill: #F08000; stroke:none;stroke-width:0px;"></rect><g><text text-anchor="start" align="top" anchor="start" font-size="16px" font-weight="bold" fill="rgb(255, 255, 255)" style="font-size:16px;font-family:Comic Sans MS;color:#FFFFFF;font-style:normal;text-align:left;font-weight:bold;background-color:#F08000;"><tspan x="559" y="583"><tspan dx="0">2001年</tspan></tspan></text></g><g><g transform="translate(532.2265625, 569.1796875) scale(0.017578125)"><circle cx="512" cy="512" r="568.8888888888889" stroke="#ffffff" stroke-width="56.888888888888886" fill="#ffffff"></circle><path d="M1024 512c0 282.768-229.232 512-512 512C229.232 1024 0 794.768 0 512 0 229.232 229.232 0 512 0c282.768 0 512 229.232 512 512zM307.36 248c-7.232-5.28-15.936-8-24.864-8-8.912 0-17.616 2.88-24.848 8-7.232 5.28-12.64 12.64-15.472 21.12a42.464 42.464 0 0 0 14.816 47.36v442.08c0 6.72 2.688 13.12 7.472 17.92 4.784 4.8 11.28 7.52 18.032 7.52 6.768 0 13.248-2.72 18.032-7.52 4.784-4.8 7.472-11.2 7.472-17.92l0.032-442.08a42.336 42.336 0 0 0 14.816-47.36 42.944 42.944 0 0 0-15.488-21.12z m267.872 32.32c-30.08-17.76-62.784-23.36-112.016-23.36-49.232 0-91.04 17.44-121.216 35.52V585.6c30.192-17.92 71.984-35.36 121.216-35.36s81.904 5.6 112 23.36c30.176 18.08 48.448 23.36 97.712 23.36 49.28 0 80.8-12.32 111.072-30.24V284c-30.256 17.92-62.768 22.88-112.064 22.88-49.2 0-66.512-8.8-96.704-26.56z" fill="rgb(220, 81, 189)"></path></g></g></g><g id="64f9d337f8616ac3"><rect x="582.7265625" y="621.375" rx="1px" ry="1px" width="213" height="24" style="fill: transparent; stroke:none;stroke-width:0px;"></rect><g><text text-anchor="start" align="top" anchor="start" font-size="13px" font-weight="normal" fill="rgb(68, 68, 68)" style="font-size:13px;font-family:Comic Sans MS;color:rgb(68,68,68);font-style:normal;text-align:left;font-weight:normal;"><tspan x="592" y="639"><tspan dx="0">MySQL开始集成InnoDB存储引擎</tspan></tspan></text></g></g><g id="070c9a37949b4908"><rect x="515.2265625" y="414" rx="6px" ry="6px" width="115" height="40" style="fill: #F08000; stroke:none;stroke-width:0px;"></rect><g><text text-anchor="start" align="top" anchor="start" font-size="16px" font-weight="bold" fill="rgb(255, 255, 255)" style="font-size:16px;font-family:Comic Sans MS;color:#FFFFFF;font-style:normal;text-align:left;font-weight:bold;background-color:#F08000;"><tspan x="559" y="440"><tspan dx="0">1999年</tspan></tspan></text></g><g><g transform="translate(532.2265625, 426.1796875) scale(0.017578125)"><circle cx="512" cy="512" r="568.8888888888889" stroke="#ffffff" stroke-width="56.888888888888886" fill="#ffffff"></circle><path d="M1024 512c0 282.768-229.232 512-512 512C229.232 1024 0 794.768 0 512 0 229.232 229.232 0 512 0c282.768 0 512 229.232 512 512zM307.36 248c-7.232-5.28-15.936-8-24.864-8-8.912 0-17.616 2.88-24.848 8-7.232 5.28-12.64 12.64-15.472 21.12a42.464 42.464 0 0 0 14.816 47.36v442.08c0 6.72 2.688 13.12 7.472 17.92 4.784 4.8 11.28 7.52 18.032 7.52 6.768 0 13.248-2.72 18.032-7.52 4.784-4.8 7.472-11.2 7.472-17.92l0.032-442.08a42.336 42.336 0 0 0 14.816-47.36 42.944 42.944 0 0 0-15.488-21.12z m267.872 32.32c-30.08-17.76-62.784-23.36-112.016-23.36-49.232 0-91.04 17.44-121.216 35.52V585.6c30.192-17.92 71.984-35.36 121.216-35.36s81.904 5.6 112 23.36c30.176 18.08 48.448 23.36 97.712 23.36 49.28 0 80.8-12.32 111.072-30.24V284c-30.256 17.92-62.768 22.88-112.064 22.88-49.2 0-66.512-8.8-96.704-26.56z" fill="rgb(30, 144, 244)"></path></g></g></g><g id="2242b3633a473cdc"><rect x="582.7265625" y="478.375" rx="1px" ry="1px" width="366" height="59" style="fill: transparent; stroke:none;stroke-width:0px;"></rect><g><text text-anchor="start" align="top" anchor="start" font-size="13px" font-weight="normal" fill="rgb(68, 68, 68)" style="font-size:13px;font-family:Comic Sans MS;color:rgb(68,68,68);font-style:normal;text-align:left;font-weight:normal;"><tspan x="592" y="494"><tspan dx="0">MySQL与Sleepcat公司合作，MySQL提供了支持事务的</tspan></tspan><tspan x="592" y="512.2"><tspan dx="0">Berkeley DB存储引擎，后来由于这个存储引擎的许多问题，</tspan></tspan><tspan x="592" y="530.4000000000001"><tspan dx="0">MySQL5.1以后不对这个引擎提供支持了</tspan></tspan></text></g></g><g id="6544e42fb494d1ca"><rect x="515.2265625" y="271" rx="6px" ry="6px" width="115" height="40" style="fill: #F08000; stroke:none;stroke-width:0px;"></rect><g><text text-anchor="start" align="top" anchor="start" font-size="16px" font-weight="bold" fill="rgb(255, 255, 255)" style="font-size:16px;font-family:Comic Sans MS;color:#FFFFFF;font-style:normal;text-align:left;font-weight:bold;background-color:#F08000;"><tspan x="559" y="297"><tspan dx="0">1996年</tspan></tspan></text></g><g><g transform="translate(532.2265625, 283.1796875) scale(0.017578125)"><circle cx="512" cy="512" r="568.8888888888889" stroke="#ffffff" stroke-width="56.888888888888886" fill="#ffffff"></circle><path d="M1024 512c0 282.768-229.232 512-512 512C229.232 1024 0 794.768 0 512 0 229.232 229.232 0 512 0c282.768 0 512 229.232 512 512zM307.36 248c-7.232-5.28-15.936-8-24.864-8-8.912 0-17.616 2.88-24.848 8-7.232 5.28-12.64 12.64-15.472 21.12a42.464 42.464 0 0 0 14.816 47.36v442.08c0 6.72 2.688 13.12 7.472 17.92 4.784 4.8 11.28 7.52 18.032 7.52 6.768 0 13.248-2.72 18.032-7.52 4.784-4.8 7.472-11.2 7.472-17.92l0.032-442.08a42.336 42.336 0 0 0 14.816-47.36 42.944 42.944 0 0 0-15.488-21.12z m267.872 32.32c-30.08-17.76-62.784-23.36-112.016-23.36-49.232 0-91.04 17.44-121.216 35.52V585.6c30.192-17.92 71.984-35.36 121.216-35.36s81.904 5.6 112 23.36c30.176 18.08 48.448 23.36 97.712 23.36 49.28 0 80.8-12.32 111.072-30.24V284c-30.256 17.92-62.768 22.88-112.064 22.88-49.2 0-66.512-8.8-96.704-26.56z" fill="rgb(255, 182, 10)"></path></g></g></g><g id="6a546c305cb9b037"><rect x="582.7265625" y="335.375" rx="1px" ry="1px" width="326" height="59" style="fill: transparent; stroke:none;stroke-width:0px;"></rect><g><text text-anchor="start" align="top" anchor="start" font-size="13px" font-weight="normal" fill="rgb(68, 68, 68)" style="font-size:13px;font-family:Comic Sans MS;color:rgb(68,68,68);font-style:normal;text-align:left;font-weight:normal;"><tspan x="592" y="351"><tspan dx="0">Michael Widenius和David Axmark一起协作，写出了</tspan></tspan><tspan x="592" y="369.2"><tspan dx="0">MySQL的第一个版本，此时还只是小范围使用，几个</tspan></tspan><tspan x="592" y="387.4"><tspan dx="0">月后直接发布了3.11版本</tspan></tspan></text></g></g><g id="a9fd72019d42c3aa"><rect x="515.2265625" y="128" rx="6px" ry="6px" width="115" height="40" style="fill: #F08000; stroke:none;stroke-width:0px;"></rect><g><text text-anchor="start" align="top" anchor="start" font-size="16px" font-weight="bold" fill="rgb(255, 255, 255)" style="font-size:16px;font-family:Comic Sans MS;color:#FFFFFF;font-style:normal;text-align:left;font-weight:bold;background-color:#F08000;"><tspan x="559" y="154"><tspan dx="0">1979年</tspan></tspan></text></g><g><g transform="translate(532.2265625, 140.1796875) scale(0.017578125)"><circle cx="512" cy="512" r="568.8888888888889" stroke="#ffffff" stroke-width="56.888888888888886" fill="#ffffff"></circle><path d="M1024 512c0 282.768-229.232 512-512 512C229.232 1024 0 794.768 0 512 0 229.232 229.232 0 512 0c282.768 0 512 229.232 512 512zM307.36 248c-7.232-5.28-15.936-8-24.864-8-8.912 0-17.616 2.88-24.848 8-7.232 5.28-12.64 12.64-15.472 21.12a42.464 42.464 0 0 0 14.816 47.36v442.08c0 6.72 2.688 13.12 7.472 17.92 4.784 4.8 11.28 7.52 18.032 7.52 6.768 0 13.248-2.72 18.032-7.52 4.784-4.8 7.472-11.2 7.472-17.92l0.032-442.08a42.336 42.336 0 0 0 14.816-47.36 42.944 42.944 0 0 0-15.488-21.12z m267.872 32.32c-30.08-17.76-62.784-23.36-112.016-23.36-49.232 0-91.04 17.44-121.216 35.52V585.6c30.192-17.92 71.984-35.36 121.216-35.36s81.904 5.6 112 23.36c30.176 18.08 48.448 23.36 97.712 23.36 49.28 0 80.8-12.32 111.072-30.24V284c-30.256 17.92-62.768 22.88-112.064 22.88-49.2 0-66.512-8.8-96.704-26.56z" fill="rgb(248, 87, 103)"></path></g></g></g><g id="9b47baf0be73e0c5"><rect x="582.7265625" y="192.375" rx="1px" ry="1px" width="349" height="59" style="fill: transparent; stroke:none;stroke-width:0px;"></rect><g><text text-anchor="start" align="top" anchor="start" font-size="13px" font-weight="normal" fill="rgb(68, 68, 68)" style="font-size:13px;font-family:Comic Sans MS;color:rgb(68,68,68);font-style:normal;text-align:left;font-weight:normal;"><tspan x="592" y="208"><tspan dx="0">Michael Widenius用BASIC设计了一个报表工具Unireg，</tspan></tspan><tspan x="592" y="226.2"><tspan dx="0">这是一个很底层的面向报表的存储引擎，是存储引擎算</tspan></tspan><tspan x="592" y="244.39999999999998"><tspan dx="0">法的前身，但不支持SQL。</tspan></tspan></text></g></g><g transform="translate(212.6328125, 1115)" id="sdjakdjak0"><g id="subline_8729fe4daf06fa1e" transform="translate(0.5, 0.5)"><path id="line_eef881d96a37f4e0" d="M183 41.5 L183 88.875L0 88.875" p="8729fe4daf06fa1e" stroke="#cccdcd" fill="none" stroke-linecap="square" stroke-width="1"></path></g><g transform="translate(0.5,0.5)"></g><g class="svg-summary-con" transform="translate(0.5,0.5)"></g><g class="svg-boundary-con" transform="translate(0.5,0.5)"></g></g><g transform="translate(240.578125, 999)" id="sdjakdjak1"><g id="subline_b07a3907ad7e7e5b" transform="translate(0.5, 0.5)"><path id="line_60bc47e9f7f783de" d="M168 41.5 L168 88.875L0 88.875" p="b07a3907ad7e7e5b" stroke="#cccdcd" fill="none" stroke-linecap="square" stroke-width="1"></path></g><g transform="translate(0.5,0.5)"></g><g class="svg-summary-con" transform="translate(0.5,0.5)"></g><g class="svg-boundary-con" transform="translate(0.5,0.5)"></g></g><g transform="translate(86.234375, 874)" id="sdjakdjak2"><g id="subline_d515f315fdfea1e9" transform="translate(0.5, 0.5)"><path id="line_9900d62ba1dac94a" d="M322 41.5 L322 104.875L0 104.875" p="d515f315fdfea1e9" stroke="#cccdcd" fill="none" stroke-linecap="square" stroke-width="1"></path></g><g transform="translate(0.5,0.5)"></g><g class="svg-summary-con" transform="translate(0.5,0.5)"></g><g class="svg-boundary-con" transform="translate(0.5,0.5)"></g></g><g transform="translate(132.9609375, 731)" id="sdjakdjak3"><g id="subline_38aeb96c58a6b71c" transform="translate(0.5, 0.5)"><path id="line_8470248fd4626f68" d="M275 41.5 L275 88.875L0 88.875" p="38aeb96c58a6b71c" stroke="#cccdcd" fill="none" stroke-linecap="square" stroke-width="1"></path></g><g transform="translate(0.5,0.5)"></g><g class="svg-summary-con" transform="translate(0.5,0.5)"></g><g class="svg-boundary-con" transform="translate(0.5,0.5)"></g></g><g transform="translate(126.6796875, 615)" id="sdjakdjak4"><g id="subline_75cd82acce98c9dc" transform="translate(0.5, 0.5)"><path id="line_27ad7455d738ff01" d="M282 41.5 L282 88.875L0 88.875" p="75cd82acce98c9dc" stroke="#cccdcd" fill="none" stroke-linecap="square" stroke-width="1"></path></g><g transform="translate(0.5,0.5)"></g><g class="svg-summary-con" transform="translate(0.5,0.5)"></g><g class="svg-boundary-con" transform="translate(0.5,0.5)"></g></g><g transform="translate(30, 472)" id="sdjakdjak5"><g id="subline_757a4f1cc1c10d4c" transform="translate(0.5, 0.5)"><path id="line_f32e04681928cba7" d="M378 41.5 L378 104.875L0 104.875" p="757a4f1cc1c10d4c" stroke="#cccdcd" fill="none" stroke-linecap="square" stroke-width="1"></path></g><g transform="translate(0.5,0.5)"></g><g class="svg-summary-con" transform="translate(0.5,0.5)"></g><g class="svg-boundary-con" transform="translate(0.5,0.5)"></g></g><g transform="translate(56.96875, 347)" id="sdjakdjak6"><g id="subline_4514fdf63caefac6" transform="translate(0.5, 0.5)"><path id="line_a3863e434bae6dbc" d="M351 41.5 L351 104.875L0 104.875" p="4514fdf63caefac6" stroke="#cccdcd" fill="none" stroke-linecap="square" stroke-width="1"></path></g><g transform="translate(0.5,0.5)"></g><g class="svg-summary-con" transform="translate(0.5,0.5)"></g><g class="svg-boundary-con" transform="translate(0.5,0.5)"></g></g><g transform="translate(56.6875, 186)" id="sdjakdjak7"><g id="subline_56cd3b1ee0de8aba" transform="translate(0.5, 0.5)"><path id="line_64ddcd1f092198f2" d="M352 41.5 L352 141.875L0 141.875" p="56cd3b1ee0de8aba" stroke="#cccdcd" fill="none" stroke-linecap="square" stroke-width="1"></path></g><g transform="translate(0.5,0.5)"></g><g class="svg-summary-con" transform="translate(0.5,0.5)"></g><g class="svg-boundary-con" transform="translate(0.5,0.5)"></g></g><g transform="translate(515.2265625, 1057)" id="sdjakdjak8"><g id="subline_72f70bbe3f39b234" transform="translate(0.5, 0.5)"><path id="line_4a7cf5a3b64a29ac" d="M70 41.5 L70 88.875L316.4998224431818 88.875" p="72f70bbe3f39b234" stroke="#cccdcd" fill="none" stroke-linecap="square" stroke-width="1"></path></g><g transform="translate(0.5,0.5)"></g><g class="svg-summary-con" transform="translate(0.5,0.5)"></g><g class="svg-boundary-con" transform="translate(0.5,0.5)"></g></g><g transform="translate(515.2265625, 941)" id="sdjakdjak9"><g id="subline_ecd5b18fc715baff" transform="translate(0.5, 0.5)"><path id="line_808d528b8ccd47df" d="M57 41.5 L57 88.875L233.5 88.875" p="ecd5b18fc715baff" stroke="#cccdcd" fill="none" stroke-linecap="square" stroke-width="1"></path></g><g transform="translate(0.5,0.5)"></g><g class="svg-summary-con" transform="translate(0.5,0.5)"></g><g class="svg-boundary-con" transform="translate(0.5,0.5)"></g></g><g transform="translate(515.2265625, 816)" id="sdjakdjak10"><g id="subline_b8cfde2b9a81f623" transform="translate(0.5, 0.5)"><path id="line_49b96add9bce30d4" d="M57 41.5 L57 104.875L410.5 104.875" p="b8cfde2b9a81f623" stroke="#cccdcd" fill="none" stroke-linecap="square" stroke-width="1"></path></g><g transform="translate(0.5,0.5)"></g><g class="svg-summary-con" transform="translate(0.5,0.5)"></g><g class="svg-boundary-con" transform="translate(0.5,0.5)"></g></g><g transform="translate(515.2265625, 673)" id="sdjakdjak11"><g id="subline_f4889fd49a10f44f" transform="translate(0.5, 0.5)"><path id="line_daf931d223a98c48" d="M57 41.5 L57 123.875L418.5 123.875" p="f4889fd49a10f44f" stroke="#cccdcd" fill="none" stroke-linecap="square" stroke-width="1"></path></g><g transform="translate(0.5,0.5)"></g><g class="svg-summary-con" transform="translate(0.5,0.5)"></g><g class="svg-boundary-con" transform="translate(0.5,0.5)"></g></g><g transform="translate(515.2265625, 557)" id="sdjakdjak12"><g id="subline_d5f90912297cb30c" transform="translate(0.5, 0.5)"><path id="line_64f9d337f8616ac3" d="M57 41.5 L57 88.875L285.5 88.875" p="d5f90912297cb30c" stroke="#cccdcd" fill="none" stroke-linecap="square" stroke-width="1"></path></g><g transform="translate(0.5,0.5)"></g><g class="svg-summary-con" transform="translate(0.5,0.5)"></g><g class="svg-boundary-con" transform="translate(0.5,0.5)"></g></g><g transform="translate(515.2265625, 414)" id="sdjakdjak13"><g id="subline_070c9a37949b4908" transform="translate(0.5, 0.5)"><path id="line_2242b3633a473cdc" d="M57 41.5 L57 123.875L438.5 123.875" p="070c9a37949b4908" stroke="#cccdcd" fill="none" stroke-linecap="square" stroke-width="1"></path></g><g transform="translate(0.5,0.5)"></g><g class="svg-summary-con" transform="translate(0.5,0.5)"></g><g class="svg-boundary-con" transform="translate(0.5,0.5)"></g></g><g transform="translate(515.2265625, 271)" id="sdjakdjak14"><g id="subline_6544e42fb494d1ca" transform="translate(0.5, 0.5)"><path id="line_6a546c305cb9b037" d="M57 41.5 L57 123.875L398.5 123.875" p="6544e42fb494d1ca" stroke="#cccdcd" fill="none" stroke-linecap="square" stroke-width="1"></path></g><g transform="translate(0.5,0.5)"></g><g class="svg-summary-con" transform="translate(0.5,0.5)"></g><g class="svg-boundary-con" transform="translate(0.5,0.5)"></g></g><g transform="translate(515.2265625, 128)" id="sdjakdjak15"><g id="subline_a9fd72019d42c3aa" transform="translate(0.5, 0.5)"><path id="line_9b47baf0be73e0c5" d="M57 41.5 L57 123.875L421.5 123.875" p="a9fd72019d42c3aa" stroke="#cccdcd" fill="none" stroke-linecap="square" stroke-width="1"></path></g><g transform="translate(0.5,0.5)"></g><g class="svg-summary-con" transform="translate(0.5,0.5)"></g><g class="svg-boundary-con" transform="translate(0.5,0.5)"></g></g><g transform="translate(375.7265625, 30)" id="sdjakdjak16"><g id="subline_root" transform="translate(0.5, 0.5)"></g><g transform="translate(0.5,0.5)"></g><g class="svg-summary-con" transform="translate(0.5,0.5)"></g><g class="svg-boundary-con" transform="translate(0.5,0.5)"></g></g><g id="root"><rect x="375.7265625" y="30" rx="6px" ry="6px" width="229" height="58" style="fill: #41A80A; stroke:none;stroke-width:0px;"></rect><g><text text-anchor="start" align="top" anchor="start" font-size="25px" font-weight="bold" fill="rgb(255, 255, 255)" style="font-size:25px;font-family:Comic Sans MS;color:#fff;font-style:normal;text-align:left;font-weight:bold;background-color:#41A80A;"><tspan x="396" y="68"><tspan dx="0">MySQL发展历史</tspan></tspan></text></g></g></svg>