<svg id="SvgjsSvg1055" width="660" height="187.375" xmlns="http://www.w3.org/2000/svg" version="1.1" xmlns:xlink="http://www.w3.org/1999/xlink" xmlns:svgjs="http://svgjs.com/svgjs"><defs id="SvgjsDefs1056"><pattern patternUnits="userSpaceOnUse" id="pattern_mark_0" width="300" height="300"><text x="150" y="100" fill="rgba(229,229,229,0.8)" font-size="18" transform="rotate(-45, 150, 150)" style="dominant-baseline: middle; text-anchor: middle;"></text></pattern><pattern patternUnits="userSpaceOnUse" id="pattern_mark_1" width="300" height="300"><text x="150" y="200" fill="rgba(229,229,229,0.8)" font-size="18" transform="rotate(-45, 150, 150)" style="dominant-baseline: middle; text-anchor: middle;"></text></pattern><marker id="SvgjsMarker1068" markerWidth="14" markerHeight="12" refX="16" refY="6" viewBox="0 0 14 12" orient="auto" markerUnits="userSpaceOnUse" stroke-dasharray="0,0"><path id="SvgjsPath1069" d="M1,1 L14,6 L1,11L1,1" fill="#ffffff" stroke="#323232" stroke-width="6"></path></marker><marker id="SvgjsMarker1078" markerWidth="22" markerHeight="18" refX="14" refY="9" viewBox="0 0 22 18" orient="auto" markerUnits="userSpaceOnUse" stroke-dasharray="0,0"><path id="SvgjsPath1079" d="M0,0 L22,9 L0,18 L0,0" fill="#323232" stroke="#323232" stroke-width="1"></path></marker><marker id="SvgjsMarker1088" markerWidth="22" markerHeight="18" refX="14" refY="9" viewBox="0 0 22 18" orient="auto" markerUnits="userSpaceOnUse" stroke-dasharray="0,0"><path id="SvgjsPath1089" d="M0,0 L22,9 L0,18 L0,0" fill="#323232" stroke="#323232" stroke-width="1"></path></marker></defs><rect id="svgbackgroundid" width="660" height="187.375" fill="transparent"></rect><rect id="SvgjsRect1058" width="660" height="187.375" fill="url(#pattern_mark_0)"></rect><rect id="SvgjsRect1059" width="660" height="187.375" fill="url(#pattern_mark_1)"></rect><g id="SvgjsG1060" transform="translate(25,102.375)"><path id="SvgjsPath1061" d="M 16.666666666666668 0L 83.33333333333333 0C 105.55555555555556 0 105.55555555555556 50 83.33333333333333 50L 16.666666666666668 50C -5.555555555555556 50 -5.555555555555556 0 16.666666666666668 0Z" stroke="rgba(33,41,48,1)" stroke-width="1.5" fill-opacity="1" fill="#4ee334"></path><g id="SvgjsG1062"><text id="SvgjsText1063" font-family="微软雅黑" text-anchor="middle" font-size="13px" width="80px" fill="#323232" font-weight="400" align="middle" lineHeight="125%" anchor="middle" family="微软雅黑" size="13px" weight="400" font-style="" opacity="1" y="14.375" transform="rotate(0)"><tspan id="SvgjsTspan1064" dy="16.25" x="50"><tspan id="SvgjsTspan1065" style="">获得写锁</tspan></tspan></text></g></g><g id="SvgjsG1066"><path id="SvgjsPath1067" d="M125.75 127.375L160 127.375L160 127.375L186.45 127.375" stroke="#323232" stroke-width="6" fill="none" marker-end="url(#SvgjsMarker1068)"></path></g><g id="SvgjsG1070" transform="translate(195,92.375)"><path id="SvgjsPath1071" d="M 0 0L 100 0L 100 70L 0 70Z" stroke="rgba(33,41,48,1)" stroke-width="1.5" fill-opacity="1" fill="#ef5135"></path><g id="SvgjsG1072"><text id="SvgjsText1073" font-family="微软雅黑" text-anchor="middle" font-size="13px" width="80px" fill="#323232" font-weight="400" align="middle" lineHeight="125%" anchor="middle" family="微软雅黑" size="13px" weight="400" font-style="" opacity="1" y="24.375" transform="rotate(0)"><tspan id="SvgjsTspan1074" dy="16.25" x="50"><tspan id="SvgjsTspan1075" style="">获得读锁</tspan></tspan></text></g></g><g id="SvgjsG1076"><path id="SvgjsPath1077" d="M295.75 127.375L330 127.375L330 127.375L356.45 127.375" stroke="#323232" stroke-width="6" fill="none" marker-end="url(#SvgjsMarker1078)"></path></g><g id="SvgjsG1080" transform="translate(365,92.375)"><path id="SvgjsPath1081" d="M 0 0L 100 0L 100 70L 0 70Z" stroke="rgba(33,41,48,1)" stroke-width="1.5" fill-opacity="1" fill="#4ee334"></path><g id="SvgjsG1082"><text id="SvgjsText1083" font-family="微软雅黑" text-anchor="middle" font-size="13px" width="80px" fill="#323232" font-weight="400" align="middle" lineHeight="125%" anchor="middle" family="微软雅黑" size="13px" weight="400" font-style="" opacity="1" y="24.375" transform="rotate(0)"><tspan id="SvgjsTspan1084" dy="16.25" x="50"><tspan id="SvgjsTspan1085" style="">释放写锁</tspan></tspan></text></g></g><g id="SvgjsG1086"><path id="SvgjsPath1087" d="M465.75 127.375L500 127.375L500 127.375L526.45 127.375" stroke="#323232" stroke-width="6" fill="none" marker-end="url(#SvgjsMarker1088)"></path></g><g id="SvgjsG1090" transform="translate(535,102.375)"><path id="SvgjsPath1091" d="M 16.666666666666668 0L 83.33333333333333 0C 105.55555555555556 0 105.55555555555556 50 83.33333333333333 50L 16.666666666666668 50C -5.555555555555556 50 -5.555555555555556 0 16.666666666666668 0Z" stroke="rgba(33,41,48,1)" stroke-width="1.5" fill-opacity="1" fill="#ef5135"></path><g id="SvgjsG1092"><text id="SvgjsText1093" font-family="微软雅黑" text-anchor="middle" font-size="13px" width="80px" fill="#323232" font-weight="400" align="middle" lineHeight="125%" anchor="middle" family="微软雅黑" size="13px" weight="400" font-style="" opacity="1" y="14.375" transform="rotate(0)"><tspan id="SvgjsTspan1094" dy="16.25" x="50"><tspan id="SvgjsTspan1095" style="">释放读锁</tspan></tspan></text></g></g><g id="SvgjsG1096" transform="translate(173,25)"><path id="SvgjsPath1097" d="M 0 0L 319 0L 319 48.75L 0 48.75Z" stroke="none" fill="none"></path><g id="SvgjsG1098"><text id="SvgjsText1099" font-family="微软雅黑" text-anchor="middle" font-size="17px" width="319px" fill="#323232" font-weight="700" align="middle" lineHeight="125%" anchor="middle" family="微软雅黑" size="17px" weight="700" font-style="" opacity="1" y="9.75" transform="rotate(0)"><tspan id="SvgjsTspan1100" dy="21.25" x="159.5"><tspan id="SvgjsTspan1101" style="">写锁--------&gt;转换成--------&gt;读锁</tspan></tspan></text></g></g></svg>