<svg id="SvgjsSvg1006" width="563.8235321044922" height="435.1764678955078" xmlns="http://www.w3.org/2000/svg" version="1.1" xmlns:xlink="http://www.w3.org/1999/xlink" xmlns:svgjs="http://svgjs.com/svgjs"><defs id="SvgjsDefs1007"><pattern patternUnits="userSpaceOnUse" id="pattern_mark_0" width="300" height="300"><text x="150" y="100" fill="rgba(229,229,229,0.8)" font-size="18" transform="rotate(-45, 150, 150)" style="dominant-baseline: middle; text-anchor: middle;"></text></pattern><pattern patternUnits="userSpaceOnUse" id="pattern_mark_1" width="300" height="300"><text x="150" y="200" fill="rgba(229,229,229,0.8)" font-size="18" transform="rotate(-45, 150, 150)" style="dominant-baseline: middle; text-anchor: middle;"></text></pattern><marker id="SvgjsMarker1137" markerWidth="13" markerHeight="9" refX="3.5" refY="4.5" viewBox="0 0 13 9" orient="auto" markerUnits="userSpaceOnUse" stroke-dasharray="0,0"><path id="SvgjsPath1138" d="M13,0 L0,4.5 L13,9 L13,0" fill="#323232" stroke="#323232" stroke-width="1"></path></marker><marker id="SvgjsMarker1139" markerWidth="13" markerHeight="9" refX="9.5" refY="4.5" viewBox="0 0 13 9" orient="auto" markerUnits="userSpaceOnUse" stroke-dasharray="0,0"><path id="SvgjsPath1140" d="M0,0 L13,4.5 L0,9 L0,0" fill="#323232" stroke="#323232" stroke-width="1"></path></marker><marker id="SvgjsMarker1143" markerWidth="13" markerHeight="9" refX="9.5" refY="4.5" viewBox="0 0 13 9" orient="auto" markerUnits="userSpaceOnUse" stroke-dasharray="0,0"><path id="SvgjsPath1144" d="M0,0 L13,4.5 L0,9 L0,0" fill="#323232" stroke="#323232" stroke-width="1"></path></marker><marker id="SvgjsMarker1147" markerWidth="13" markerHeight="9" refX="9.5" refY="4.5" viewBox="0 0 13 9" orient="auto" markerUnits="userSpaceOnUse" stroke-dasharray="0,0"><path id="SvgjsPath1148" d="M0,0 L13,4.5 L0,9 L0,0" fill="#323232" stroke="#323232" stroke-width="1"></path></marker><marker id="SvgjsMarker1151" markerWidth="13" markerHeight="9" refX="9.5" refY="4.5" viewBox="0 0 13 9" orient="auto" markerUnits="userSpaceOnUse" stroke-dasharray="0,0"><path id="SvgjsPath1152" d="M0,0 L13,4.5 L0,9 L0,0" fill="#323232" stroke="#323232" stroke-width="1"></path></marker><marker id="SvgjsMarker1155" markerWidth="13" markerHeight="9" refX="9.5" refY="4.5" viewBox="0 0 13 9" orient="auto" markerUnits="userSpaceOnUse" stroke-dasharray="0,0"><path id="SvgjsPath1156" d="M0,0 L13,4.5 L0,9 L0,0" fill="#323232" stroke="#323232" stroke-width="1"></path></marker><marker id="SvgjsMarker1159" markerWidth="13" markerHeight="9" refX="9.5" refY="4.5" viewBox="0 0 13 9" orient="auto" markerUnits="userSpaceOnUse" stroke-dasharray="0,0"><path id="SvgjsPath1160" d="M0,0 L13,4.5 L0,9 L0,0" fill="#323232" stroke="#323232" stroke-width="1"></path></marker><marker id="SvgjsMarker1163" markerWidth="13" markerHeight="9" refX="9.5" refY="4.5" viewBox="0 0 13 9" orient="auto" markerUnits="userSpaceOnUse" stroke-dasharray="0,0"><path id="SvgjsPath1164" d="M0,0 L13,4.5 L0,9 L0,0" fill="#323232" stroke="#323232" stroke-width="1"></path></marker><marker id="SvgjsMarker1167" markerWidth="13" markerHeight="9" refX="9.5" refY="4.5" viewBox="0 0 13 9" orient="auto" markerUnits="userSpaceOnUse" stroke-dasharray="0,0"><path id="SvgjsPath1168" d="M0,0 L13,4.5 L0,9 L0,0" fill="#323232" stroke="#323232" stroke-width="1"></path></marker><marker id="SvgjsMarker1171" markerWidth="13" markerHeight="9" refX="9.5" refY="4.5" viewBox="0 0 13 9" orient="auto" markerUnits="userSpaceOnUse" stroke-dasharray="0,0"><path id="SvgjsPath1172" d="M0,0 L13,4.5 L0,9 L0,0" fill="#323232" stroke="#323232" stroke-width="1"></path></marker><marker id="SvgjsMarker1175" markerWidth="13" markerHeight="9" refX="9.5" refY="4.5" viewBox="0 0 13 9" orient="auto" markerUnits="userSpaceOnUse" stroke-dasharray="0,0"><path id="SvgjsPath1176" d="M0,0 L13,4.5 L0,9 L0,0" fill="#323232" stroke="#323232" stroke-width="1"></path></marker></defs><rect id="svgbackgroundid" width="563.8235321044922" height="435.1764678955078" fill="transparent"></rect><rect id="SvgjsRect1009" width="563.8235321044922" height="435.1764678955078" fill="url(#pattern_mark_0)"></rect><rect id="SvgjsRect1010" width="563.8235321044922" height="435.1764678955078" fill="url(#pattern_mark_1)"></rect><g id="SvgjsG1011" transform="translate(25,25)"><path id="SvgjsPath1012" d="M 0 0L 513.8235321044922 0L 513.8235321044922 385.1764678955078L 0 385.1764678955078Z" stroke="rgba(33,41,48,1)" stroke-width="1.5" fill-opacity="1" fill="#f6edc1"></path><g id="SvgjsG1013"><text id="SvgjsText1014" font-family="&quot;Comic Sans MS&quot;" text-anchor="middle" font-size="13px" width="494px" fill="#323232" font-weight="400" align="middle" lineHeight="125%" anchor="middle" family="&quot;Comic Sans MS&quot;" size="13px" weight="400" font-style="" opacity="1" y="182.4632339477539" transform="rotate(0)"></text></g></g><g id="SvgjsG1015" transform="translate(156.5771942138672,46.99999237060547)"><path id="SvgjsPath1016" d="M 0 4Q 0 0 4 0L 246 0Q 250 0 250 4L 250 36Q 250 40 246 40L 4 40Q 0 40 0 36Z" stroke="rgba(33,41,48,1)" stroke-width="1.5" fill-opacity="1" fill="#d2d6f9"></path><g id="SvgjsG1017"><text id="SvgjsText1018" font-family="&quot;Comic Sans MS&quot;" text-anchor="middle" font-size="13px" width="230px" fill="#323232" font-weight="400" align="middle" lineHeight="125%" anchor="middle" family="&quot;Comic Sans MS&quot;" size="13px" weight="400" font-style="" opacity="1" y="9.875" transform="rotate(0)"><tspan id="SvgjsTspan1019" dy="16.25" x="125"><tspan id="SvgjsTspan1020" style="">应用服务器</tspan></tspan></text></g></g><g id="SvgjsG1021" transform="translate(227.5771942138672,126.99999237060547)"><path id="SvgjsPath1022" d="M 0 18L 0 60.35C 0 74.55 108 74.55 108 60.35L 108 18C 108 -4.909090909090909 0 -4.909090909090909 0 18ZM 0 18C 0 40.5 108 40.5 108 18C 108 40.5 0 40.5 0 18" stroke="rgba(33,41,48,1)" stroke-width="1.5" fill-opacity="1" fill="#fadded"></path><g id="SvgjsG1023"><text id="SvgjsText1024" font-family="&quot;Comic Sans MS&quot;" text-anchor="middle" font-size="13px" width="108px" fill="#323232" font-weight="400" align="middle" lineHeight="125%" anchor="middle" family="&quot;Comic Sans MS&quot;" size="13px" weight="400" font-style="" opacity="1" y="-4.724999999999998" transform="rotate(0)"><tspan id="SvgjsTspan1025" dy="16.25" x="54"><tspan id="SvgjsTspan1026" style=""> </tspan></tspan><tspan id="SvgjsTspan1027" dy="16.25" x="54"><tspan id="SvgjsTspan1028" style=""> </tspan></tspan><tspan id="SvgjsTspan1029" dy="16.25" x="54"><tspan id="SvgjsTspan1030" style=""> </tspan></tspan><tspan id="SvgjsTspan1031" dy="16.25" x="54"><tspan id="SvgjsTspan1032" style="">数据库中间件</tspan></tspan></text></g></g><g id="SvgjsG1033" transform="translate(237,238.05146026611328)"><path id="SvgjsPath1034" d="M 0 14.970588684082031L 0 48.40000076293945C 0 59.78823623657227 89.82353210449219 59.78823623657227 89.82353210449219 48.40000076293945L 89.82353210449219 14.970588684082031C 89.82353210449219 -4.082887822931463 0 -4.082887822931463 0 14.970588684082031ZM 0 14.970588684082031C 0 33.68382453918457 89.82353210449219 33.68382453918457 89.82353210449219 14.970588684082031C 89.82353210449219 33.68382453918457 0 33.68382453918457 0 14.970588684082031" stroke="rgba(33,41,48,1)" stroke-width="1.5" fill-opacity="1" fill="#fadded"></path><g id="SvgjsG1035"><text id="SvgjsText1036" font-family="&quot;Comic Sans MS&quot;" text-anchor="middle" font-size="13px" width="90px" fill="#323232" font-weight="400" align="middle" lineHeight="125%" anchor="middle" family="&quot;Comic Sans MS&quot;" size="13px" weight="400" font-style="" opacity="1" y="-10.348529052734374" transform="rotate(0)"><tspan id="SvgjsTspan1037" dy="16.25" x="45"><tspan id="SvgjsTspan1038" style=""> </tspan></tspan><tspan id="SvgjsTspan1039" dy="16.25" x="45"><tspan id="SvgjsTspan1040" style=""> </tspan></tspan><tspan id="SvgjsTspan1041" dy="16.25" x="45"><tspan id="SvgjsTspan1042" style=""> </tspan></tspan><tspan id="SvgjsTspan1043" dy="16.25" x="45"><tspan id="SvgjsTspan1044" style=""> </tspan></tspan><tspan id="SvgjsTspan1045" dy="16.25" x="45"><tspan id="SvgjsTspan1046" style="">主机2</tspan></tspan></text></g></g><g id="SvgjsG1047" transform="translate(86,238.05146026611328)"><path id="SvgjsPath1048" d="M 0 14.970588684082031L 0 48.40000076293945C 0 59.78823623657227 89.82353210449219 59.78823623657227 89.82353210449219 48.40000076293945L 89.82353210449219 14.970588684082031C 89.82353210449219 -4.082887822931463 0 -4.082887822931463 0 14.970588684082031ZM 0 14.970588684082031C 0 33.68382453918457 89.82353210449219 33.68382453918457 89.82353210449219 14.970588684082031C 89.82353210449219 33.68382453918457 0 33.68382453918457 0 14.970588684082031" stroke="rgba(33,41,48,1)" stroke-width="1.5" fill-opacity="1" fill="#fadded"></path><g id="SvgjsG1049"><text id="SvgjsText1050" font-family="&quot;Comic Sans MS&quot;" text-anchor="middle" font-size="13px" width="90px" fill="#323232" font-weight="400" align="middle" lineHeight="125%" anchor="middle" family="&quot;Comic Sans MS&quot;" size="13px" weight="400" font-style="" opacity="1" y="-10.348529052734374" transform="rotate(0)"><tspan id="SvgjsTspan1051" dy="16.25" x="45"><tspan id="SvgjsTspan1052" style=""> </tspan></tspan><tspan id="SvgjsTspan1053" dy="16.25" x="45"><tspan id="SvgjsTspan1054" style=""> </tspan></tspan><tspan id="SvgjsTspan1055" dy="16.25" x="45"><tspan id="SvgjsTspan1056" style=""> </tspan></tspan><tspan id="SvgjsTspan1057" dy="16.25" x="45"><tspan id="SvgjsTspan1058" style=""> </tspan></tspan><tspan id="SvgjsTspan1059" dy="16.25" x="45"><tspan id="SvgjsTspan1060" style="">主机1</tspan></tspan></text></g></g><g id="SvgjsG1061" transform="translate(388,238.05146026611328)"><path id="SvgjsPath1062" d="M 0 14.970588684082031L 0 48.40000076293945C 0 59.78823623657227 89.82353210449219 59.78823623657227 89.82353210449219 48.40000076293945L 89.82353210449219 14.970588684082031C 89.82353210449219 -4.082887822931463 0 -4.082887822931463 0 14.970588684082031ZM 0 14.970588684082031C 0 33.68382453918457 89.82353210449219 33.68382453918457 89.82353210449219 14.970588684082031C 89.82353210449219 33.68382453918457 0 33.68382453918457 0 14.970588684082031" stroke="rgba(33,41,48,1)" stroke-width="1.5" fill-opacity="1" fill="#fadded"></path><g id="SvgjsG1063"><text id="SvgjsText1064" font-family="&quot;Comic Sans MS&quot;" text-anchor="middle" font-size="13px" width="90px" fill="#323232" font-weight="400" align="middle" lineHeight="125%" anchor="middle" family="&quot;Comic Sans MS&quot;" size="13px" weight="400" font-style="" opacity="1" y="-10.348529052734374" transform="rotate(0)"><tspan id="SvgjsTspan1065" dy="16.25" x="45"><tspan id="SvgjsTspan1066" style=""> </tspan></tspan><tspan id="SvgjsTspan1067" dy="16.25" x="45"><tspan id="SvgjsTspan1068" style=""> </tspan></tspan><tspan id="SvgjsTspan1069" dy="16.25" x="45"><tspan id="SvgjsTspan1070" style=""> </tspan></tspan><tspan id="SvgjsTspan1071" dy="16.25" x="45"><tspan id="SvgjsTspan1072" style=""> </tspan></tspan><tspan id="SvgjsTspan1073" dy="16.25" x="45"><tspan id="SvgjsTspan1074" style="">主机3</tspan></tspan></text></g></g><g id="SvgjsG1075" transform="translate(58,334.99999237060547)"><path id="SvgjsPath1076" d="M 0 10.470588684082031L 0 38.20000076293945C 0 47.188236236572266 62.82353210449219 47.188236236572266 62.82353210449219 38.20000076293945L 62.82353210449219 10.470588684082031C 62.82353210449219 -2.855615095658736 0 -2.855615095658736 0 10.470588684082031ZM 0 10.470588684082031C 0 23.55882453918457 62.82353210449219 23.55882453918457 62.82353210449219 10.470588684082031C 62.82353210449219 23.55882453918457 0 23.55882453918457 0 10.470588684082031" stroke="rgba(33,41,48,1)" stroke-width="1.5" fill-opacity="1" fill="#fadded"></path><g id="SvgjsG1077"><text id="SvgjsText1078" font-family="&quot;Comic Sans MS&quot;" text-anchor="middle" font-size="13px" width="63px" fill="#323232" font-weight="400" align="middle" lineHeight="125%" anchor="middle" family="&quot;Comic Sans MS&quot;" size="13px" weight="400" font-style="" opacity="1" y="-7.648529052734375" transform="rotate(0)"><tspan id="SvgjsTspan1079" dy="16.25" x="31.5"><tspan id="SvgjsTspan1080" style=""> </tspan></tspan><tspan id="SvgjsTspan1081" dy="16.25" x="31.5"><tspan id="SvgjsTspan1082" style=""> </tspan></tspan><tspan id="SvgjsTspan1083" dy="16.25" x="31.5"><tspan id="SvgjsTspan1084" style="">分片1</tspan></tspan></text></g></g><g id="SvgjsG1085" transform="translate(141,334.99999237060547)"><path id="SvgjsPath1086" d="M 0 10.470588684082031L 0 38.20000076293945C 0 47.188236236572266 62.82353210449219 47.188236236572266 62.82353210449219 38.20000076293945L 62.82353210449219 10.470588684082031C 62.82353210449219 -2.855615095658736 0 -2.855615095658736 0 10.470588684082031ZM 0 10.470588684082031C 0 23.55882453918457 62.82353210449219 23.55882453918457 62.82353210449219 10.470588684082031C 62.82353210449219 23.55882453918457 0 23.55882453918457 0 10.470588684082031" stroke="rgba(33,41,48,1)" stroke-width="1.5" fill-opacity="1" fill="#fadded"></path><g id="SvgjsG1087"><text id="SvgjsText1088" font-family="&quot;Comic Sans MS&quot;" text-anchor="middle" font-size="13px" width="63px" fill="#323232" font-weight="400" align="middle" lineHeight="125%" anchor="middle" family="&quot;Comic Sans MS&quot;" size="13px" weight="400" font-style="" opacity="1" y="-7.648529052734375" transform="rotate(0)"><tspan id="SvgjsTspan1089" dy="16.25" x="31.5"><tspan id="SvgjsTspan1090" style=""> </tspan></tspan><tspan id="SvgjsTspan1091" dy="16.25" x="31.5"><tspan id="SvgjsTspan1092" style=""> </tspan></tspan><tspan id="SvgjsTspan1093" dy="16.25" x="31.5"><tspan id="SvgjsTspan1094" style="">分片2</tspan></tspan></text></g></g><g id="SvgjsG1095" transform="translate(209,334.99999237060547)"><path id="SvgjsPath1096" d="M 0 10.470588684082031L 0 38.20000076293945C 0 47.188236236572266 62.82353210449219 47.188236236572266 62.82353210449219 38.20000076293945L 62.82353210449219 10.470588684082031C 62.82353210449219 -2.855615095658736 0 -2.855615095658736 0 10.470588684082031ZM 0 10.470588684082031C 0 23.55882453918457 62.82353210449219 23.55882453918457 62.82353210449219 10.470588684082031C 62.82353210449219 23.55882453918457 0 23.55882453918457 0 10.470588684082031" stroke="rgba(33,41,48,1)" stroke-width="1.5" fill-opacity="1" fill="#fadded"></path><g id="SvgjsG1097"><text id="SvgjsText1098" font-family="&quot;Comic Sans MS&quot;" text-anchor="middle" font-size="13px" width="63px" fill="#323232" font-weight="400" align="middle" lineHeight="125%" anchor="middle" family="&quot;Comic Sans MS&quot;" size="13px" weight="400" font-style="" opacity="1" y="-7.648529052734375" transform="rotate(0)"><tspan id="SvgjsTspan1099" dy="16.25" x="31.5"><tspan id="SvgjsTspan1100" style=""> </tspan></tspan><tspan id="SvgjsTspan1101" dy="16.25" x="31.5"><tspan id="SvgjsTspan1102" style=""> </tspan></tspan><tspan id="SvgjsTspan1103" dy="16.25" x="31.5"><tspan id="SvgjsTspan1104" style="">分片3</tspan></tspan></text></g></g><g id="SvgjsG1105" transform="translate(292,334.99999237060547)"><path id="SvgjsPath1106" d="M 0 10.470588684082031L 0 38.20000076293945C 0 47.188236236572266 62.82353210449219 47.188236236572266 62.82353210449219 38.20000076293945L 62.82353210449219 10.470588684082031C 62.82353210449219 -2.855615095658736 0 -2.855615095658736 0 10.470588684082031ZM 0 10.470588684082031C 0 23.55882453918457 62.82353210449219 23.55882453918457 62.82353210449219 10.470588684082031C 62.82353210449219 23.55882453918457 0 23.55882453918457 0 10.470588684082031" stroke="rgba(33,41,48,1)" stroke-width="1.5" fill-opacity="1" fill="#fadded"></path><g id="SvgjsG1107"><text id="SvgjsText1108" font-family="&quot;Comic Sans MS&quot;" text-anchor="middle" font-size="13px" width="63px" fill="#323232" font-weight="400" align="middle" lineHeight="125%" anchor="middle" family="&quot;Comic Sans MS&quot;" size="13px" weight="400" font-style="" opacity="1" y="-7.648529052734375" transform="rotate(0)"><tspan id="SvgjsTspan1109" dy="16.25" x="31.5"><tspan id="SvgjsTspan1110" style=""> </tspan></tspan><tspan id="SvgjsTspan1111" dy="16.25" x="31.5"><tspan id="SvgjsTspan1112" style=""> </tspan></tspan><tspan id="SvgjsTspan1113" dy="16.25" x="31.5"><tspan id="SvgjsTspan1114" style="">分片4</tspan></tspan></text></g></g><g id="SvgjsG1115" transform="translate(360,334.99999237060547)"><path id="SvgjsPath1116" d="M 0 10.470588684082031L 0 38.20000076293945C 0 47.188236236572266 62.82353210449219 47.188236236572266 62.82353210449219 38.20000076293945L 62.82353210449219 10.470588684082031C 62.82353210449219 -2.855615095658736 0 -2.855615095658736 0 10.470588684082031ZM 0 10.470588684082031C 0 23.55882453918457 62.82353210449219 23.55882453918457 62.82353210449219 10.470588684082031C 62.82353210449219 23.55882453918457 0 23.55882453918457 0 10.470588684082031" stroke="rgba(33,41,48,1)" stroke-width="1.5" fill-opacity="1" fill="#fadded"></path><g id="SvgjsG1117"><text id="SvgjsText1118" font-family="&quot;Comic Sans MS&quot;" text-anchor="middle" font-size="13px" width="63px" fill="#323232" font-weight="400" align="middle" lineHeight="125%" anchor="middle" family="&quot;Comic Sans MS&quot;" size="13px" weight="400" font-style="" opacity="1" y="-7.648529052734375" transform="rotate(0)"><tspan id="SvgjsTspan1119" dy="16.25" x="31.5"><tspan id="SvgjsTspan1120" style=""> </tspan></tspan><tspan id="SvgjsTspan1121" dy="16.25" x="31.5"><tspan id="SvgjsTspan1122" style=""> </tspan></tspan><tspan id="SvgjsTspan1123" dy="16.25" x="31.5"><tspan id="SvgjsTspan1124" style="">分片5</tspan></tspan></text></g></g><g id="SvgjsG1125" transform="translate(443,334.99999237060547)"><path id="SvgjsPath1126" d="M 0 10.470588684082031L 0 38.20000076293945C 0 47.188236236572266 62.82353210449219 47.188236236572266 62.82353210449219 38.20000076293945L 62.82353210449219 10.470588684082031C 62.82353210449219 -2.855615095658736 0 -2.855615095658736 0 10.470588684082031ZM 0 10.470588684082031C 0 23.55882453918457 62.82353210449219 23.55882453918457 62.82353210449219 10.470588684082031C 62.82353210449219 23.55882453918457 0 23.55882453918457 0 10.470588684082031" stroke="rgba(33,41,48,1)" stroke-width="1.5" fill-opacity="1" fill="#fadded"></path><g id="SvgjsG1127"><text id="SvgjsText1128" font-family="&quot;Comic Sans MS&quot;" text-anchor="middle" font-size="13px" width="63px" fill="#323232" font-weight="400" align="middle" lineHeight="125%" anchor="middle" family="&quot;Comic Sans MS&quot;" size="13px" weight="400" font-style="" opacity="1" y="-7.648529052734375" transform="rotate(0)"><tspan id="SvgjsTspan1129" dy="16.25" x="31.5"><tspan id="SvgjsTspan1130" style=""> </tspan></tspan><tspan id="SvgjsTspan1131" dy="16.25" x="31.5"><tspan id="SvgjsTspan1132" style=""> </tspan></tspan><tspan id="SvgjsTspan1133" dy="16.25" x="31.5"><tspan id="SvgjsTspan1134" style="">分片6</tspan></tspan></text></g></g><g id="SvgjsG1135"><path id="SvgjsPath1136" d="M281.5771942138672 89.69999237060547L281.5771942138672 107.01285934448242L281.5771942138672 107.01285934448242L281.5771942138672 124.32572631835939" stroke="#323232" stroke-width="1.5" fill="none" marker-start="url(#SvgjsMarker1137)" marker-end="url(#SvgjsMarker1139)"></path></g><g id="SvgjsG1141"><path id="SvgjsPath1142" d="M280.85233661166353 198.21829177872954L133.52125342017922 237.3582246087807" stroke="#323232" stroke-width="1.5" fill="none" marker-end="url(#SvgjsMarker1143)"></path></g><g id="SvgjsG1145"><path id="SvgjsPath1146" d="M281.5771942138672 198.77572631835938L281.5771942138672 235.3514602661133" stroke="#323232" stroke-width="1.5" fill="none" marker-end="url(#SvgjsMarker1147)"></path></g><g id="SvgjsG1149"><path id="SvgjsPath1150" d="M282.3022627257411 198.21749611026885L430.3015194095002 237.36108901523914" stroke="#323232" stroke-width="1.5" fill="none" marker-end="url(#SvgjsMarker1151)"></path></g><g id="SvgjsG1153"><path id="SvgjsPath1154" d="M130.3718145577086 295.51316850132247L91.35559143258104 333.1260812492431" stroke="#323232" stroke-width="1.5" fill="none" marker-end="url(#SvgjsMarker1155)"></path></g><g id="SvgjsG1157"><path id="SvgjsPath1158" d="M131.45171754678358 295.51316850132247L170.46794067191115 333.1260812492431" stroke="#323232" stroke-width="1.5" fill="none" marker-end="url(#SvgjsMarker1159)"></path></g><g id="SvgjsG1161"><path id="SvgjsPath1162" d="M281.3718145577086 295.51316850132247L242.35559143258104 333.1260812492431" stroke="#323232" stroke-width="1.5" fill="none" marker-end="url(#SvgjsMarker1163)"></path></g><g id="SvgjsG1165"><path id="SvgjsPath1166" d="M282.4517175467836 295.51316850132247L321.46794067191115 333.1260812492431" stroke="#323232" stroke-width="1.5" fill="none" marker-end="url(#SvgjsMarker1167)"></path></g><g id="SvgjsG1169"><path id="SvgjsPath1170" d="M432.3718145577086 295.51316850132247L393.35559143258104 333.1260812492431" stroke="#323232" stroke-width="1.5" fill="none" marker-end="url(#SvgjsMarker1171)"></path></g><g id="SvgjsG1173"><path id="SvgjsPath1174" d="M433.4517175467836 295.51316850132247L472.46794067191115 333.1260812492431" stroke="#323232" stroke-width="1.5" fill="none" marker-end="url(#SvgjsMarker1175)"></path></g></svg>