<svg id="SvgjsSvg1006" width="700" height="507" xmlns="http://www.w3.org/2000/svg" version="1.1" xmlns:xlink="http://www.w3.org/1999/xlink" xmlns:svgjs="http://svgjs.com/svgjs"><defs id="SvgjsDefs1007"><pattern patternUnits="userSpaceOnUse" id="pattern_mark_0" width="300" height="300"><text x="150" y="100" fill="rgba(229,229,229,0.8)" font-size="18" transform="rotate(-45, 150, 150)" style="dominant-baseline: middle; text-anchor: middle;"></text></pattern><pattern patternUnits="userSpaceOnUse" id="pattern_mark_1" width="300" height="300"><text x="150" y="200" fill="rgba(229,229,229,0.8)" font-size="18" transform="rotate(-45, 150, 150)" style="dominant-baseline: middle; text-anchor: middle;"></text></pattern><marker id="SvgjsMarker1152" markerWidth="13" markerHeight="9" refX="9.5" refY="4.5" viewBox="0 0 13 9" orient="auto" markerUnits="userSpaceOnUse" stroke-dasharray="0,0"><path id="SvgjsPath1153" d="M0,0 L13,4.5 L0,9 L0,0" fill="#9f9b50" stroke="#9f9b50" stroke-width="1"></path></marker><marker id="SvgjsMarker1162" markerWidth="13" markerHeight="9" refX="9.5" refY="4.5" viewBox="0 0 13 9" orient="auto" markerUnits="userSpaceOnUse" stroke-dasharray="0,0"><path id="SvgjsPath1163" d="M0,0 L13,4.5 L0,9 L0,0" fill="#5ea4d3" stroke="#5ea4d3" stroke-width="1"></path></marker></defs><rect id="svgbackgroundid" width="700" height="507" fill="transparent"></rect><rect id="SvgjsRect1009" width="700" height="507" fill="url(#pattern_mark_0)"></rect><rect id="SvgjsRect1010" width="700" height="507" fill="url(#pattern_mark_1)"></rect><g id="SvgjsG1011" transform="translate(143,212)"><path id="SvgjsPath1012" d="M 0 4Q 0 0 4 0L 96 0Q 100 0 100 4L 100 46Q 100 50 96 50L 4 50Q 0 50 0 46Z" stroke="rgba(33,41,48,1)" stroke-width="1.5" fill-opacity="1" fill="#f5cc00"></path><g id="SvgjsG1013"><text id="SvgjsText1014" font-family="&quot;Comic Sans MS&quot;" text-anchor="middle" font-size="13px" width="80px" fill="#323232" font-weight="700" align="middle" lineHeight="125%" anchor="middle" family="&quot;Comic Sans MS&quot;" size="13px" weight="700" font-style="" opacity="1" y="14.375" transform="rotate(0)"><tspan id="SvgjsTspan1015" dy="16.25" x="50"><tspan id="SvgjsTspan1016" style="">Product ID</tspan></tspan></text></g></g><g id="SvgjsG1017" transform="translate(143,267)"><path id="SvgjsPath1018" d="M 0 4Q 0 0 4 0L 96 0Q 100 0 100 4L 100 46Q 100 50 96 50L 4 50Q 0 50 0 46Z" stroke="rgba(33,41,48,1)" stroke-width="1.5" fill-opacity="1" fill="#f6d958"></path><g id="SvgjsG1019"><text id="SvgjsText1020" font-family="&quot;Comic Sans MS&quot;" text-anchor="middle" font-size="13px" width="80px" fill="#323232" font-weight="700" align="middle" lineHeight="125%" anchor="middle" family="&quot;Comic Sans MS&quot;" size="13px" weight="700" font-style="" opacity="1" y="14.375" transform="rotate(0)"><tspan id="SvgjsTspan1021" dy="16.25" x="50"><tspan id="SvgjsTspan1022" style="">1</tspan></tspan></text></g></g><g id="SvgjsG1023" transform="translate(143,322)"><path id="SvgjsPath1024" d="M 0 4Q 0 0 4 0L 96 0Q 100 0 100 4L 100 46Q 100 50 96 50L 4 50Q 0 50 0 46Z" stroke="rgba(33,41,48,1)" stroke-width="1.5" fill-opacity="1" fill="#f6d958"></path><g id="SvgjsG1025"><text id="SvgjsText1026" font-family="&quot;Comic Sans MS&quot;" text-anchor="middle" font-size="13px" width="80px" fill="#323232" font-weight="700" align="middle" lineHeight="125%" anchor="middle" family="&quot;Comic Sans MS&quot;" size="13px" weight="700" font-style="" opacity="1" y="14.375" transform="rotate(0)"><tspan id="SvgjsTspan1027" dy="16.25" x="50"><tspan id="SvgjsTspan1028" style="">2</tspan></tspan></text></g></g><g id="SvgjsG1029" transform="translate(143,377)"><path id="SvgjsPath1030" d="M 0 4Q 0 0 4 0L 96 0Q 100 0 100 4L 100 46Q 100 50 96 50L 4 50Q 0 50 0 46Z" stroke="rgba(33,41,48,1)" stroke-width="1.5" fill-opacity="1" fill="#f6d958"></path><g id="SvgjsG1031"><text id="SvgjsText1032" font-family="&quot;Comic Sans MS&quot;" text-anchor="middle" font-size="13px" width="80px" fill="#323232" font-weight="700" align="middle" lineHeight="125%" anchor="middle" family="&quot;Comic Sans MS&quot;" size="13px" weight="700" font-style="" opacity="1" y="14.375" transform="rotate(0)"><tspan id="SvgjsTspan1033" dy="16.25" x="50"><tspan id="SvgjsTspan1034" style="">2</tspan></tspan></text></g></g><g id="SvgjsG1035" transform="translate(143,432)"><path id="SvgjsPath1036" d="M 0 4Q 0 0 4 0L 96 0Q 100 0 100 4L 100 46Q 100 50 96 50L 4 50Q 0 50 0 46Z" stroke="rgba(33,41,48,1)" stroke-width="1.5" fill-opacity="1" fill="#f6d958"></path><g id="SvgjsG1037"><text id="SvgjsText1038" font-family="&quot;Comic Sans MS&quot;" text-anchor="middle" font-size="13px" width="80px" fill="#323232" font-weight="700" align="middle" lineHeight="125%" anchor="middle" family="&quot;Comic Sans MS&quot;" size="13px" weight="700" font-style="" opacity="1" y="14.375" transform="rotate(0)"><tspan id="SvgjsTspan1039" dy="16.25" x="50"><tspan id="SvgjsTspan1040" style="">3</tspan></tspan></text></g></g><g id="SvgjsG1041" transform="translate(251,212)"><path id="SvgjsPath1042" d="M 0 4Q 0 0 4 0L 96 0Q 100 0 100 4L 100 46Q 100 50 96 50L 4 50Q 0 50 0 46Z" stroke="rgba(33,41,48,1)" stroke-width="1.5" fill-opacity="1" fill="#2c5597"></path><g id="SvgjsG1043"><text id="SvgjsText1044" font-family="&quot;Comic Sans MS&quot;" text-anchor="middle" font-size="13px" width="80px" fill="#ffffff" font-weight="700" align="middle" lineHeight="125%" anchor="middle" family="&quot;Comic Sans MS&quot;" size="13px" weight="700" font-style="" opacity="1" y="14.375" transform="rotate(0)"><tspan id="SvgjsTspan1045" dy="16.25" x="50"><tspan id="SvgjsTspan1046" style="">Product ID</tspan></tspan></text></g></g><g id="SvgjsG1047" transform="translate(251,267)"><path id="SvgjsPath1048" d="M 0 4Q 0 0 4 0L 96 0Q 100 0 100 4L 100 46Q 100 50 96 50L 4 50Q 0 50 0 46Z" stroke="rgba(33,41,48,1)" stroke-width="1.5" fill-opacity="1" fill="#3c71c7"></path><g id="SvgjsG1049"><text id="SvgjsText1050" font-family="&quot;Comic Sans MS&quot;" text-anchor="middle" font-size="13px" width="80px" fill="#ffffff" font-weight="700" align="middle" lineHeight="125%" anchor="middle" family="&quot;Comic Sans MS&quot;" size="13px" weight="700" font-style="" opacity="1" y="14.375" transform="rotate(0)"><tspan id="SvgjsTspan1051" dy="16.25" x="50"><tspan id="SvgjsTspan1052" style="">Book ID</tspan></tspan></text></g></g><g id="SvgjsG1053" transform="translate(251,322)"><path id="SvgjsPath1054" d="M 0 4Q 0 0 4 0L 96 0Q 100 0 100 4L 100 46Q 100 50 96 50L 4 50Q 0 50 0 46Z" stroke="rgba(33,41,48,1)" stroke-width="1.5" fill-opacity="1" fill="#3c71c7"></path><g id="SvgjsG1055"><text id="SvgjsText1056" font-family="&quot;Comic Sans MS&quot;" text-anchor="middle" font-size="13px" width="80px" fill="#ffffff" font-weight="700" align="middle" lineHeight="125%" anchor="middle" family="&quot;Comic Sans MS&quot;" size="13px" weight="700" font-style="" opacity="1" y="14.375" transform="rotate(0)"><tspan id="SvgjsTspan1057" dy="16.25" x="50"><tspan id="SvgjsTspan1058" style="">Album ID</tspan></tspan></text></g></g><g id="SvgjsG1059" transform="translate(251,377)"><path id="SvgjsPath1060" d="M 0 4Q 0 0 4 0L 96 0Q 100 0 100 4L 100 46Q 100 50 96 50L 4 50Q 0 50 0 46Z" stroke="rgba(33,41,48,1)" stroke-width="1.5" fill-opacity="1" fill="#3c71c7"></path><g id="SvgjsG1061"><text id="SvgjsText1062" font-family="&quot;Comic Sans MS&quot;" text-anchor="middle" font-size="13px" width="80px" fill="#ffffff" font-weight="700" align="middle" lineHeight="125%" anchor="middle" family="&quot;Comic Sans MS&quot;" size="13px" weight="700" font-style="" opacity="1" y="5.875" transform="rotate(0)"><tspan id="SvgjsTspan1063" dy="16.25" x="50"><tspan id="SvgjsTspan1064" style="">Album ID:</tspan></tspan><tspan id="SvgjsTspan1065" dy="16.25" x="50"><tspan id="SvgjsTspan1066" style="">Track ID</tspan></tspan></text></g></g><g id="SvgjsG1067" transform="translate(251,432)"><path id="SvgjsPath1068" d="M 0 4Q 0 0 4 0L 96 0Q 100 0 100 4L 100 46Q 100 50 96 50L 4 50Q 0 50 0 46Z" stroke="rgba(33,41,48,1)" stroke-width="1.5" fill-opacity="1" fill="#3c71c7"></path><g id="SvgjsG1069"><text id="SvgjsText1070" font-family="&quot;Comic Sans MS&quot;" text-anchor="middle" font-size="13px" width="80px" fill="#ffffff" font-weight="700" align="middle" lineHeight="125%" anchor="middle" family="&quot;Comic Sans MS&quot;" size="13px" weight="700" font-style="" opacity="1" y="14.375" transform="rotate(0)"><tspan id="SvgjsTspan1071" dy="16.25" x="50"><tspan id="SvgjsTspan1072" style="">Movie ID</tspan></tspan></text></g></g><g id="SvgjsG1073" transform="translate(359,267)"><path id="SvgjsPath1074" d="M 0 4Q 0 0 4 0L 96 0Q 100 0 100 4L 100 46Q 100 50 96 50L 4 50Q 0 50 0 46Z" stroke="rgba(33,41,48,1)" stroke-width="1.5" fill-opacity="1" fill="#d9d9d9"></path><g id="SvgjsG1075"><text id="SvgjsText1076" font-family="&quot;Comic Sans MS&quot;" text-anchor="middle" font-size="13px" width="80px" fill="#000000" font-weight="700" align="middle" lineHeight="125%" anchor="middle" family="&quot;Comic Sans MS&quot;" size="13px" weight="700" font-style="" opacity="1" y="14.375" transform="rotate(0)"><tspan id="SvgjsTspan1077" dy="16.25" x="50"><tspan id="SvgjsTspan1078" style="">Odyssey</tspan></tspan></text></g></g><g id="SvgjsG1079" transform="translate(359,322)"><path id="SvgjsPath1080" d="M 0 4Q 0 0 4 0L 96 0Q 100 0 100 4L 100 46Q 100 50 96 50L 4 50Q 0 50 0 46Z" stroke="rgba(33,41,48,1)" stroke-width="1.5" fill-opacity="1" fill="#d9d9d9"></path><g id="SvgjsG1081"><text id="SvgjsText1082" font-family="&quot;Comic Sans MS&quot;" text-anchor="middle" font-size="13px" width="80px" fill="#000000" font-weight="700" align="middle" lineHeight="125%" anchor="middle" family="&quot;Comic Sans MS&quot;" size="13px" weight="700" font-style="" opacity="1" y="14.375" transform="rotate(0)"><tspan id="SvgjsTspan1083" dy="16.25" x="50"><tspan id="SvgjsTspan1084" style="">6 Partitas</tspan></tspan></text></g></g><g id="SvgjsG1085" transform="translate(359,377)"><path id="SvgjsPath1086" d="M 0 4Q 0 0 4 0L 96 0Q 100 0 100 4L 100 46Q 100 50 96 50L 4 50Q 0 50 0 46Z" stroke="rgba(33,41,48,1)" stroke-width="1.5" fill-opacity="1" fill="#d9d9d9"></path><g id="SvgjsG1087"><text id="SvgjsText1088" font-family="&quot;Comic Sans MS&quot;" text-anchor="middle" font-size="13px" width="80px" fill="#000000" font-weight="700" align="middle" lineHeight="125%" anchor="middle" family="&quot;Comic Sans MS&quot;" size="13px" weight="700" font-style="" opacity="1" y="5.875" transform="rotate(0)"><tspan id="SvgjsTspan1089" dy="16.25" x="50"><tspan id="SvgjsTspan1090" style="">Partita</tspan></tspan><tspan id="SvgjsTspan1091" dy="16.25" x="50"><tspan id="SvgjsTspan1092" style="">No. 1</tspan></tspan></text></g></g><g id="SvgjsG1093" transform="translate(359,432)"><path id="SvgjsPath1094" d="M 0 4Q 0 0 4 0L 96 0Q 100 0 100 4L 100 46Q 100 50 96 50L 4 50Q 0 50 0 46Z" stroke="rgba(33,41,48,1)" stroke-width="1.5" fill-opacity="1" fill="#d9d9d9"></path><g id="SvgjsG1095"><text id="SvgjsText1096" font-family="&quot;Comic Sans MS&quot;" text-anchor="middle" font-size="13px" width="80px" fill="#000000" font-weight="700" align="middle" lineHeight="125%" anchor="middle" family="&quot;Comic Sans MS&quot;" size="13px" weight="700" font-style="" opacity="1" y="14.375" transform="rotate(0)"><tspan id="SvgjsTspan1097" dy="16.25" x="50"><tspan id="SvgjsTspan1098" style="">The kid</tspan></tspan></text></g></g><g id="SvgjsG1099" transform="translate(467,267)"><path id="SvgjsPath1100" d="M 0 4Q 0 0 4 0L 96 0Q 100 0 100 4L 100 46Q 100 50 96 50L 4 50Q 0 50 0 46Z" stroke="rgba(33,41,48,1)" stroke-width="1.5" fill-opacity="1" fill="#d9d9d9"></path><g id="SvgjsG1101"><text id="SvgjsText1102" font-family="&quot;Comic Sans MS&quot;" text-anchor="middle" font-size="13px" width="80px" fill="#000000" font-weight="700" align="middle" lineHeight="125%" anchor="middle" family="&quot;Comic Sans MS&quot;" size="13px" weight="700" font-style="" opacity="1" y="14.375" transform="rotate(0)"><tspan id="SvgjsTspan1103" dy="16.25" x="50"><tspan id="SvgjsTspan1104" style="">Homer</tspan></tspan></text></g></g><g id="SvgjsG1105" transform="translate(575,267)"><path id="SvgjsPath1106" d="M 0 4Q 0 0 4 0L 96 0Q 100 0 100 4L 100 46Q 100 50 96 50L 4 50Q 0 50 0 46Z" stroke="rgba(33,41,48,1)" stroke-width="1.5" fill-opacity="1" fill="#d9d9d9"></path><g id="SvgjsG1107"><text id="SvgjsText1108" font-family="&quot;Comic Sans MS&quot;" text-anchor="middle" font-size="13px" width="80px" fill="#000000" font-weight="700" align="middle" lineHeight="125%" anchor="middle" family="&quot;Comic Sans MS&quot;" size="13px" weight="700" font-style="" opacity="1" y="14.375" transform="rotate(0)"><tspan id="SvgjsTspan1109" dy="16.25" x="50"><tspan id="SvgjsTspan1110" style="">1871</tspan></tspan></text></g></g><g id="SvgjsG1111" transform="translate(467,322)"><path id="SvgjsPath1112" d="M 0 4Q 0 0 4 0L 96 0Q 100 0 100 4L 100 46Q 100 50 96 50L 4 50Q 0 50 0 46Z" stroke="rgba(33,41,48,1)" stroke-width="1.5" fill-opacity="1" fill="#d9d9d9"></path><g id="SvgjsG1113"><text id="SvgjsText1114" font-family="&quot;Comic Sans MS&quot;" text-anchor="middle" font-size="13px" width="80px" fill="#000000" font-weight="700" align="middle" lineHeight="125%" anchor="middle" family="&quot;Comic Sans MS&quot;" size="13px" weight="700" font-style="" opacity="1" y="14.375" transform="rotate(0)"><tspan id="SvgjsTspan1115" dy="16.25" x="50"><tspan id="SvgjsTspan1116" style="">Bach</tspan></tspan></text></g></g><g id="SvgjsG1117" transform="translate(467,432)"><path id="SvgjsPath1118" d="M 0 4Q 0 0 4 0L 96 0Q 100 0 100 4L 100 46Q 100 50 96 50L 4 50Q 0 50 0 46Z" stroke="rgba(33,41,48,1)" stroke-width="1.5" fill-opacity="1" fill="#d9d9d9"></path><g id="SvgjsG1119"><text id="SvgjsText1120" font-family="&quot;Comic Sans MS&quot;" text-anchor="middle" font-size="13px" width="80px" fill="#000000" font-weight="700" align="middle" lineHeight="125%" anchor="middle" family="&quot;Comic Sans MS&quot;" size="13px" weight="700" font-style="" opacity="1" y="5.875" transform="rotate(0)"><tspan id="SvgjsTspan1121" dy="16.25" x="50"><tspan id="SvgjsTspan1122" style="">Drama,</tspan></tspan><tspan id="SvgjsTspan1123" dy="16.25" x="50"><tspan id="SvgjsTspan1124" style="">Comedy</tspan></tspan></text></g></g><g id="SvgjsG1125" transform="translate(575,432)"><path id="SvgjsPath1126" d="M 0 4Q 0 0 4 0L 96 0Q 100 0 100 4L 100 46Q 100 50 96 50L 4 50Q 0 50 0 46Z" stroke="rgba(33,41,48,1)" stroke-width="1.5" fill-opacity="1" fill="#d9d9d9"></path><g id="SvgjsG1127"><text id="SvgjsText1128" font-family="&quot;Comic Sans MS&quot;" text-anchor="middle" font-size="13px" width="80px" fill="#000000" font-weight="700" align="middle" lineHeight="125%" anchor="middle" family="&quot;Comic Sans MS&quot;" size="13px" weight="700" font-style="" opacity="1" y="14.375" transform="rotate(0)"><tspan id="SvgjsTspan1129" dy="16.25" x="50"><tspan id="SvgjsTspan1130" style="">Chaplin</tspan></tspan></text></g></g><g id="SvgjsG1131" transform="translate(359,212)"><path id="SvgjsPath1132" d="M 0 0L 316 0L 316 50L 0 50Z" stroke="rgba(33,41,48,1)" stroke-width="1.5" fill-opacity="1" fill="#ffffff"></path><g id="SvgjsG1133"><text id="SvgjsText1134" font-family="&quot;Comic Sans MS&quot;" text-anchor="middle" font-size="13px" width="296px" fill="#323232" font-weight="700" align="middle" lineHeight="125%" anchor="middle" family="&quot;Comic Sans MS&quot;" size="13px" weight="700" font-style="" opacity="1" y="14.375" transform="rotate(0)"><tspan id="SvgjsTspan1135" dy="16.25" x="158"><tspan id="SvgjsTspan1136" style="">Schema is defined per item</tspan></tspan></text></g></g><g id="SvgjsG1137" transform="translate(25,267)"><path id="SvgjsPath1138" d="M 120 0Q 111 0 111 9L 111 98.5Q 111 107.5 98 107.5Q 111 107.5 111 116.5L 111 206Q 111 215 120 215" stroke="rgba(33,41,48,1)" stroke-width="1.5" fill="none"></path><path id="SvgjsPath1139" d="M 0 0L 120 0L 120 215L 0 215Z" stroke="none" fill="none"></path><g id="SvgjsG1140"><text id="SvgjsText1141" font-family="&quot;Comic Sans MS&quot;" text-anchor="end" font-size="13px" width="93px" fill="#323232" font-weight="700" align="middle" lineHeight="125%" anchor="end" family="&quot;Comic Sans MS&quot;" size="13px" weight="700" font-style="" opacity="1" y="96.875" transform="rotate(0)"><tspan id="SvgjsTspan1142" dy="16.25" x="93"><tspan id="SvgjsTspan1143" style="">Items</tspan></tspan></text></g></g><g id="SvgjsG1144" transform="translate(143,142)"><path id="SvgjsPath1145" d="M 0 0L 100 0L 100 20L 0 20Z" stroke="none" fill="none"></path><g id="SvgjsG1146"><text id="SvgjsText1147" font-family="&quot;Comic Sans MS&quot;" text-anchor="middle" font-size="13px" width="100px" fill="#9f9b50" font-weight="700" align="middle" lineHeight="125%" anchor="middle" family="&quot;Comic Sans MS&quot;" size="13px" weight="700" font-style="" opacity="1" y="-0.625" transform="rotate(0)"><tspan id="SvgjsTspan1148" dy="16.25" x="50"><tspan id="SvgjsTspan1149" style="">Partition Key</tspan></tspan></text></g></g><g id="SvgjsG1150"><path id="SvgjsPath1151" d="M193 162.75L193 187L193 187L193 209.3" stroke="#9f9b50" stroke-width="1.5" fill="none" marker-end="url(#SvgjsMarker1152)"></path></g><g id="SvgjsG1154" transform="translate(251,140)"><path id="SvgjsPath1155" d="M 0 0L 100 0L 100 24L 0 24Z" stroke="none" fill="none"></path><g id="SvgjsG1156"><text id="SvgjsText1157" font-family="&quot;Comic Sans MS&quot;" text-anchor="middle" font-size="13px" width="100px" fill="#9f9b50" font-weight="700" align="middle" lineHeight="125%" anchor="middle" family="&quot;Comic Sans MS&quot;" size="13px" weight="700" font-style="" opacity="1" y="1.375" transform="rotate(0)"><tspan id="SvgjsTspan1158" dy="16.25" x="50"><tspan id="SvgjsTspan1159" style="fill: rgb(94, 164, 211);">Sort Key</tspan></tspan></text></g></g><g id="SvgjsG1160"><path id="SvgjsPath1161" d="M301 164.75L301 188L301 188L301 209.3" stroke="#5ea4d3" stroke-width="1.5" fill="none" marker-end="url(#SvgjsMarker1162)"></path></g><g id="SvgjsG1164" transform="matrix(6.123233995736766e-17,1,-1,6.123233995736766e-17,348,24.999999999999993)"><path id="SvgjsPath1165" d="M 120 0Q 111 0 111 9L 111 90.5Q 111 99.5 98 99.5Q 111 99.5 111 108.5L 111 190Q 111 199 120 199" stroke="rgba(33,41,48,1)" stroke-width="1.5" fill="none"></path><path id="SvgjsPath1166" d="M 0 0L 120 0L 120 199L 0 199Z" stroke="none" fill="none"></path><g id="SvgjsG1167"><text id="SvgjsText1168" font-family="&quot;Comic Sans MS&quot;" text-anchor="end" font-size="13px" width="93px" fill="#323232" font-weight="700" align="middle" lineHeight="125%" anchor="end" family="&quot;Comic Sans MS&quot;" size="13px" weight="700" font-style="" opacity="1" y="88.875" transform="rotate(0)"></text></g></g><g id="SvgjsG1169" transform="matrix(6.123233995736766e-17,1,-1,6.123233995736766e-17,673,87)"><path id="SvgjsPath1170" d="M 120 0Q 111 0 111 9L 111 147.5Q 111 156.5 98 156.5Q 111 156.5 111 165.5L 111 304Q 111 313 120 313" stroke="rgba(33,41,48,1)" stroke-width="1.5" fill="none"></path><path id="SvgjsPath1171" d="M 0 0L 120 0L 120 313L 0 313Z" stroke="none" fill="none"></path><g id="SvgjsG1172"><text id="SvgjsText1173" font-family="&quot;Comic Sans MS&quot;" text-anchor="end" font-size="13px" width="93px" fill="#323232" font-weight="700" align="middle" lineHeight="125%" anchor="end" family="&quot;Comic Sans MS&quot;" size="13px" weight="700" font-style="" opacity="1" y="145.875" transform="rotate(0)"></text></g></g><g id="SvgjsG1174" transform="translate(197,86.99999999999994)"><path id="SvgjsPath1175" d="M 0 0L 100 0L 100 40L 0 40Z" stroke="none" fill="none"></path><g id="SvgjsG1176"><text id="SvgjsText1177" font-family="&quot;Comic Sans MS&quot;" text-anchor="middle" font-size="13px" width="100px" fill="#323232" font-weight="700" align="middle" lineHeight="125%" anchor="middle" family="&quot;Comic Sans MS&quot;" size="13px" weight="700" font-style="" opacity="1" y="9.375" transform="rotate(0)"><tspan id="SvgjsTspan1178" dy="16.25" x="50"><tspan id="SvgjsTspan1179" style="">Primary Key</tspan></tspan></text></g></g><g id="SvgjsG1180" transform="translate(467,145)"><path id="SvgjsPath1181" d="M 0 0L 100 0L 100 40L 0 40Z" stroke="none" fill="none"></path><g id="SvgjsG1182"><text id="SvgjsText1183" font-family="&quot;Comic Sans MS&quot;" text-anchor="middle" font-size="13px" width="100px" fill="#9e9e9e" font-weight="700" align="middle" lineHeight="125%" anchor="middle" family="&quot;Comic Sans MS&quot;" size="13px" weight="700" font-style="" opacity="1" y="9.375" transform="rotate(0)"><tspan id="SvgjsTspan1184" dy="16.25" x="50"><tspan id="SvgjsTspan1185" style="">Attributes</tspan></tspan></text></g></g><g id="SvgjsG1186" transform="translate(367,100)"><path id="SvgjsPath1187" d="M 0 0L 100 0L 100 40L 0 40Z" stroke="none" fill="none"></path><g id="SvgjsG1188"><text id="SvgjsText1189" font-family="&quot;Comic Sans MS&quot;" text-anchor="middle" font-size="20px" width="100px" fill="#323232" font-weight="700" align="middle" lineHeight="125%" anchor="middle" family="&quot;Comic Sans MS&quot;" size="20px" weight="700" font-style="" opacity="1" y="2" transform="rotate(0)"><tspan id="SvgjsTspan1190" dy="25" x="50"><tspan id="SvgjsTspan1191" style="">Products</tspan></tspan></text></g></g></svg>