<svg id="SvgjsSvg1006" width="763" height="184.5" xmlns="http://www.w3.org/2000/svg" version="1.1" xmlns:xlink="http://www.w3.org/1999/xlink" xmlns:svgjs="http://svgjs.com/svgjs"><defs id="SvgjsDefs1007"><pattern patternUnits="userSpaceOnUse" id="pattern_mark_0" width="300" height="300"><text x="150" y="100" fill="rgba(229,229,229,0.8)" font-size="18" transform="rotate(-45, 150, 150)" style="dominant-baseline: middle; text-anchor: middle;"></text></pattern><pattern patternUnits="userSpaceOnUse" id="pattern_mark_1" width="300" height="300"><text x="150" y="200" fill="rgba(229,229,229,0.8)" font-size="18" transform="rotate(-45, 150, 150)" style="dominant-baseline: middle; text-anchor: middle;"></text></pattern><marker id="SvgjsMarker1019" markerWidth="14" markerHeight="12" refX="16" refY="6" viewBox="0 0 14 12" orient="auto" markerUnits="userSpaceOnUse" stroke-dasharray="0,0"><path id="SvgjsPath1020" d="M1,1 L14,6 L1,11L1,1" fill="#ffffff" stroke="#323232" stroke-width="6"></path></marker><marker id="SvgjsMarker1029" markerWidth="22" markerHeight="18" refX="14" refY="9" viewBox="0 0 22 18" orient="auto" markerUnits="userSpaceOnUse" stroke-dasharray="0,0"><path id="SvgjsPath1030" d="M0,0 L22,9 L0,18 L0,0" fill="#323232" stroke="#323232" stroke-width="1"></path></marker><marker id="SvgjsMarker1039" markerWidth="22" markerHeight="18" refX="14" refY="9" viewBox="0 0 22 18" orient="auto" markerUnits="userSpaceOnUse" stroke-dasharray="0,0"><path id="SvgjsPath1040" d="M0,0 L22,9 L0,18 L0,0" fill="#323232" stroke="#323232" stroke-width="1"></path></marker></defs><rect id="svgbackgroundid" width="763" height="184.5" fill="transparent"></rect><rect id="SvgjsRect1009" width="763" height="184.5" fill="url(#pattern_mark_0)"></rect><rect id="SvgjsRect1010" width="763" height="184.5" fill="url(#pattern_mark_1)"></rect><g id="SvgjsG1011" transform="translate(25,99.5)"><path id="SvgjsPath1012" d="M 16.666666666666668 0L 83.33333333333333 0C 105.55555555555556 0 105.55555555555556 50 83.33333333333333 50L 16.666666666666668 50C -5.555555555555556 50 -5.555555555555556 0 16.666666666666668 0Z" stroke="rgba(33,41,48,1)" stroke-width="1.5" fill-opacity="1" fill="#4ee334"></path><g id="SvgjsG1013"><text id="SvgjsText1014" font-family="微软雅黑" text-anchor="middle" font-size="13px" width="80px" fill="#323232" font-weight="400" align="middle" lineHeight="125%" anchor="middle" family="微软雅黑" size="13px" weight="400" font-style="" opacity="1" y="14.375" transform="rotate(0)"><tspan id="SvgjsTspan1015" dy="16.25" x="50"><tspan id="SvgjsTspan1016" style="">获得读锁</tspan></tspan></text></g></g><g id="SvgjsG1017"><path id="SvgjsPath1018" d="M125.75 124.5L160 124.5L160 124.5L186.45 124.5" stroke="#323232" stroke-width="6" fill="none" marker-end="url(#SvgjsMarker1019)"></path></g><g id="SvgjsG1021" transform="translate(195,89.5)"><path id="SvgjsPath1022" d="M 0 0L 100 0L 100 70L 0 70Z" stroke="rgba(33,41,48,1)" stroke-width="1.5" fill-opacity="1" fill="#ef5135"></path><g id="SvgjsG1023"><text id="SvgjsText1024" font-family="微软雅黑" text-anchor="middle" font-size="13px" width="80px" fill="#323232" font-weight="400" align="middle" lineHeight="125%" anchor="middle" family="微软雅黑" size="13px" weight="400" font-style="" opacity="1" y="24.375" transform="rotate(0)"><tspan id="SvgjsTspan1025" dy="16.25" x="50"><tspan id="SvgjsTspan1026" style="">获得写锁</tspan></tspan></text></g></g><g id="SvgjsG1027"><path id="SvgjsPath1028" d="M295.75 124.5L330 124.5L330 124.5L356.45 124.5" stroke="#323232" stroke-width="6" fill="none" marker-end="url(#SvgjsMarker1029)"></path></g><g id="SvgjsG1031" transform="translate(365,89.5)"><path id="SvgjsPath1032" d="M 0 0L 100 0L 100 70L 0 70Z" stroke="rgba(33,41,48,1)" stroke-width="1.5" fill-opacity="1" fill="#4ee334"></path><g id="SvgjsG1033"><text id="SvgjsText1034" font-family="微软雅黑" text-anchor="middle" font-size="13px" width="80px" fill="#323232" font-weight="400" align="middle" lineHeight="125%" anchor="middle" family="微软雅黑" size="13px" weight="400" font-style="" opacity="1" y="24.375" transform="rotate(0)"><tspan id="SvgjsTspan1035" dy="16.25" x="50"><tspan id="SvgjsTspan1036" style="">释放读锁</tspan></tspan></text></g></g><g id="SvgjsG1037"><path id="SvgjsPath1038" d="M465.75 124.5L500 124.5L500 124.5L526.45 124.5" stroke="#323232" stroke-width="6" fill="none" marker-end="url(#SvgjsMarker1039)"></path></g><g id="SvgjsG1041" transform="translate(535,99.5)"><path id="SvgjsPath1042" d="M 16.666666666666668 0L 83.33333333333333 0C 105.55555555555556 0 105.55555555555556 50 83.33333333333333 50L 16.666666666666668 50C -5.555555555555556 50 -5.555555555555556 0 16.666666666666668 0Z" stroke="rgba(33,41,48,1)" stroke-width="1.5" fill-opacity="1" fill="#ef5135"></path><g id="SvgjsG1043"><text id="SvgjsText1044" font-family="微软雅黑" text-anchor="middle" font-size="13px" width="80px" fill="#323232" font-weight="400" align="middle" lineHeight="125%" anchor="middle" family="微软雅黑" size="13px" weight="400" font-style="" opacity="1" y="14.375" transform="rotate(0)"><tspan id="SvgjsTspan1045" dy="16.25" x="50"><tspan id="SvgjsTspan1046" style="">释放写锁</tspan></tspan></text></g></g><g id="SvgjsG1047" transform="translate(173,26.5)"><path id="SvgjsPath1048" d="M 0 0L 334 0L 334 40L 0 40Z" stroke="none" fill="none"></path><g id="SvgjsG1049"><text id="SvgjsText1050" font-family="微软雅黑" text-anchor="middle" font-size="17px" width="334px" fill="#323232" font-weight="700" align="middle" lineHeight="125%" anchor="middle" family="微软雅黑" size="17px" weight="700" font-style="" opacity="1" y="-5.625" transform="rotate(0)"><tspan id="SvgjsTspan1051" dy="21.25" x="167"><tspan id="SvgjsTspan1052" style="">读锁--------&gt;转换成--------&gt;写锁 </tspan></tspan><tspan id="SvgjsTspan1053" dy="21.25" x="167"><tspan id="SvgjsTspan1054" style="">Error</tspan></tspan></text></g></g><g id="SvgjsG1055" transform="translate(638,104.5)"><path id="SvgjsPath1056" d="M 0 0L 100 0L 100 40L 0 40Z" stroke="none" fill="none"></path><g id="SvgjsG1057"><text id="SvgjsText1058" font-family="微软雅黑" text-anchor="middle" font-size="40px" width="100px" fill="#323232" font-weight="400" align="middle" lineHeight="125%" anchor="middle" family="微软雅黑" size="40px" weight="400" font-style="" opacity="1" y="-15" transform="rotate(0)"><tspan id="SvgjsTspan1059" dy="50" x="50"><tspan id="SvgjsTspan1060" style="">❌</tspan></tspan></text></g></g></svg>