<svg id="SvgjsSvg1006" width="437.04878048780483" height="477.95121951219517" xmlns="http://www.w3.org/2000/svg" version="1.1" xmlns:xlink="http://www.w3.org/1999/xlink" xmlns:svgjs="http://svgjs.com/svgjs"><defs id="SvgjsDefs1007"><pattern patternUnits="userSpaceOnUse" id="pattern_mark_0" width="300" height="300"><text x="150" y="100" fill="rgba(229,229,229,0.8)" font-size="18" transform="rotate(-45, 150, 150)" style="dominant-baseline: middle; text-anchor: middle;"></text></pattern><pattern patternUnits="userSpaceOnUse" id="pattern_mark_1" width="300" height="300"><text x="150" y="200" fill="rgba(229,229,229,0.8)" font-size="18" transform="rotate(-45, 150, 150)" style="dominant-baseline: middle; text-anchor: middle;"></text></pattern><marker id="SvgjsMarker1075" markerWidth="13" markerHeight="9" refX="3.5" refY="4.5" viewBox="0 0 13 9" orient="auto" markerUnits="userSpaceOnUse" stroke-dasharray="0,0"><path id="SvgjsPath1076" d="M13,0 L0,4.5 L13,9 L13,0" fill="#323232" stroke="#323232" stroke-width="1"></path></marker><marker id="SvgjsMarker1077" markerWidth="13" markerHeight="9" refX="9.5" refY="4.5" viewBox="0 0 13 9" orient="auto" markerUnits="userSpaceOnUse" stroke-dasharray="0,0"><path id="SvgjsPath1078" d="M0,0 L13,4.5 L0,9 L0,0" fill="#323232" stroke="#323232" stroke-width="1"></path></marker><marker id="SvgjsMarker1081" markerWidth="13" markerHeight="9" refX="3.5" refY="4.5" viewBox="0 0 13 9" orient="auto" markerUnits="userSpaceOnUse" stroke-dasharray="0,0"><path id="SvgjsPath1082" d="M13,0 L0,4.5 L13,9 L13,0" fill="#323232" stroke="#323232" stroke-width="1"></path></marker><marker id="SvgjsMarker1083" markerWidth="13" markerHeight="9" refX="9.5" refY="4.5" viewBox="0 0 13 9" orient="auto" markerUnits="userSpaceOnUse" stroke-dasharray="0,0"><path id="SvgjsPath1084" d="M0,0 L13,4.5 L0,9 L0,0" fill="#323232" stroke="#323232" stroke-width="1"></path></marker><marker id="SvgjsMarker1087" markerWidth="13" markerHeight="9" refX="3.5" refY="4.5" viewBox="0 0 13 9" orient="auto" markerUnits="userSpaceOnUse" stroke-dasharray="0,0"><path id="SvgjsPath1088" d="M13,0 L0,4.5 L13,9 L13,0" fill="#323232" stroke="#323232" stroke-width="1"></path></marker><marker id="SvgjsMarker1089" markerWidth="13" markerHeight="9" refX="9.5" refY="4.5" viewBox="0 0 13 9" orient="auto" markerUnits="userSpaceOnUse" stroke-dasharray="0,0"><path id="SvgjsPath1090" d="M0,0 L13,4.5 L0,9 L0,0" fill="#323232" stroke="#323232" stroke-width="1"></path></marker><marker id="SvgjsMarker1093" markerWidth="13" markerHeight="9" refX="3.5" refY="4.5" viewBox="0 0 13 9" orient="auto" markerUnits="userSpaceOnUse" stroke-dasharray="0,0"><path id="SvgjsPath1094" d="M13,0 L0,4.5 L13,9 L13,0" fill="#323232" stroke="#323232" stroke-width="1"></path></marker><marker id="SvgjsMarker1095" markerWidth="13" markerHeight="9" refX="9.5" refY="4.5" viewBox="0 0 13 9" orient="auto" markerUnits="userSpaceOnUse" stroke-dasharray="0,0"><path id="SvgjsPath1096" d="M0,0 L13,4.5 L0,9 L0,0" fill="#323232" stroke="#323232" stroke-width="1"></path></marker></defs><rect id="svgbackgroundid" width="437.04878048780483" height="477.95121951219517" fill="transparent"></rect><rect id="SvgjsRect1009" width="437.04878048780483" height="477.95121951219517" fill="url(#pattern_mark_0)"></rect><rect id="SvgjsRect1010" width="437.04878048780483" height="477.95121951219517" fill="url(#pattern_mark_1)"></rect><g id="SvgjsG1011" transform="translate(170.5,25)"><path id="SvgjsPath1012" d="M 0 4Q 0 0 4 0L 92 0Q 96 0 96 4L 96 50Q 96 54 92 54L 4 54Q 0 54 0 50Z" stroke="rgba(33,41,48,1)" stroke-width="1.5" fill-opacity="1" fill="#898989"></path><g id="SvgjsG1013"><text id="SvgjsText1014" font-family="微软雅黑" text-anchor="middle" font-size="13px" width="76px" fill="#323232" font-weight="400" align="middle" lineHeight="125%" anchor="middle" family="微软雅黑" size="13px" weight="400" font-style="" opacity="1" y="16.375" transform="rotate(0)"><tspan id="SvgjsTspan1015" dy="16.25" x="48"><tspan id="SvgjsTspan1016" style="">Client</tspan></tspan></text></g></g><g id="SvgjsG1017" transform="translate(25.439024390243844,141.97560975609755)"><path id="SvgjsPath1018" d="M 0 4Q 0 0 4 0L 382.609756097561 0Q 386.609756097561 0 386.609756097561 4L 386.609756097561 77Q 386.609756097561 81 382.609756097561 81L 4 81Q 0 81 0 77Z" stroke="rgba(33,41,48,1)" stroke-width="1.5" fill-opacity="1" fill="#f1f1f1"></path><g id="SvgjsG1019"><text id="SvgjsText1020" font-family="微软雅黑" text-anchor="middle" font-size="13px" width="367px" fill="#323232" font-weight="400" align="middle" lineHeight="125%" anchor="middle" family="微软雅黑" size="13px" weight="400" font-style="" opacity="1" y="29.875" transform="rotate(0)"></text></g></g><g id="SvgjsG1021" transform="translate(43.48780487804876,181.97560975609755)"><path id="SvgjsPath1022" d="M 0 4Q 0 0 4 0L 102 0Q 106 0 106 4L 106 24Q 106 28 102 28L 4 28Q 0 28 0 24Z" stroke="rgba(33,41,48,1)" stroke-width="1.5" fill-opacity="1" fill="#898989"></path><g id="SvgjsG1023"><text id="SvgjsText1024" font-family="微软雅黑" text-anchor="middle" font-size="13px" width="86px" fill="#323232" font-weight="400" align="middle" lineHeight="125%" anchor="middle" family="微软雅黑" size="13px" weight="400" font-style="" opacity="1" y="3.375" transform="rotate(0)"><tspan id="SvgjsTspan1025" dy="16.25" x="53"><tspan id="SvgjsTspan1026" style="">Sentinel1</tspan></tspan></text></g></g><g id="SvgjsG1027" transform="translate(165.7682926829268,181.97560975609755)"><path id="SvgjsPath1028" d="M 0 4Q 0 0 4 0L 102 0Q 106 0 106 4L 106 24Q 106 28 102 28L 4 28Q 0 28 0 24Z" stroke="rgba(33,41,48,1)" stroke-width="1.5" fill-opacity="1" fill="#898989"></path><g id="SvgjsG1029"><text id="SvgjsText1030" font-family="微软雅黑" text-anchor="middle" font-size="13px" width="86px" fill="#323232" font-weight="400" align="middle" lineHeight="125%" anchor="middle" family="微软雅黑" size="13px" weight="400" font-style="" opacity="1" y="3.375" transform="rotate(0)"><tspan id="SvgjsTspan1031" dy="16.25" x="53"><tspan id="SvgjsTspan1032" style="">Sentinel2</tspan></tspan></text></g></g><g id="SvgjsG1033" transform="translate(288.04878048780483,181.97560975609755)"><path id="SvgjsPath1034" d="M 0 4Q 0 0 4 0L 102 0Q 106 0 106 4L 106 24Q 106 28 102 28L 4 28Q 0 28 0 24Z" stroke="rgba(33,41,48,1)" stroke-width="1.5" fill-opacity="1" fill="#898989"></path><g id="SvgjsG1035"><text id="SvgjsText1036" font-family="微软雅黑" text-anchor="middle" font-size="13px" width="86px" fill="#323232" font-weight="400" align="middle" lineHeight="125%" anchor="middle" family="微软雅黑" size="13px" weight="400" font-style="" opacity="1" y="3.375" transform="rotate(0)"><tspan id="SvgjsTspan1037" dy="16.25" x="53"><tspan id="SvgjsTspan1038" style="">Sentinel3</tspan></tspan></text></g></g><g id="SvgjsG1039" transform="translate(25,141.8048780487805)"><path id="SvgjsPath1040" d="M 0 4Q 0 0 4 0L 383 0Q 387 0 387 4L 387 27.878048780487802Q 387 31.878048780487802 383 31.878048780487802L 4 31.878048780487802Q 0 31.878048780487802 0 27.878048780487802Z" stroke="none" fill-opacity="1" fill="#5eaec6"></path><g id="SvgjsG1041"><text id="SvgjsText1042" font-family="微软雅黑" text-anchor="middle" font-size="13px" width="367px" fill="#323232" font-weight="400" align="middle" lineHeight="125%" anchor="middle" family="微软雅黑" size="13px" weight="400" font-style="" opacity="1" y="5.314024390243901" transform="rotate(0)"><tspan id="SvgjsTspan1043" dy="16.25" x="193.5"><tspan id="SvgjsTspan1044" style="">Sentinel集群</tspan></tspan></text></g></g><g id="SvgjsG1045" transform="translate(66.6750321611855,302.1463414634147)"><path id="SvgjsPath1046" d="M 0 4Q 0 0 4 0L 300.4835044241803 0Q 304.4835044241803 0 304.4835044241803 4L 304.4835044241803 146.8048780487805Q 304.4835044241803 150.8048780487805 300.4835044241803 150.8048780487805L 4 150.8048780487805Q 0 150.8048780487805 0 146.8048780487805Z" stroke="rgba(33,41,48,1)" stroke-width="1.5" fill-opacity="1" fill="#f1f1f1"></path><g id="SvgjsG1047"><text id="SvgjsText1048" font-family="微软雅黑" text-anchor="middle" font-size="13px" width="285px" fill="#323232" font-weight="400" align="middle" lineHeight="125%" anchor="middle" family="微软雅黑" size="13px" weight="400" font-style="" opacity="1" y="64.77743902439025" transform="rotate(0)"></text></g></g><g id="SvgjsG1049" transform="translate(66.32926829268294,301.9756097560976)"><path id="SvgjsPath1050" d="M 0 4Q 0 0 4 0L 300.7908500850715 0Q 304.7908500850715 0 304.7908500850715 4L 304.7908500850715 27.878048780487802Q 304.7908500850715 31.878048780487802 300.7908500850715 31.878048780487802L 4 31.878048780487802Q 0 31.878048780487802 0 27.878048780487802Z" stroke="none" fill-opacity="1" fill="#5eaec6"></path><g id="SvgjsG1051"><text id="SvgjsText1052" font-family="微软雅黑" text-anchor="middle" font-size="13px" width="285px" fill="#323232" font-weight="400" align="middle" lineHeight="125%" anchor="middle" family="微软雅黑" size="13px" weight="400" font-style="" opacity="1" y="5.314024390243901" transform="rotate(0)"><tspan id="SvgjsTspan1053" dy="16.25" x="152.5"><tspan id="SvgjsTspan1054" style="">Redis主从复制</tspan></tspan></text></g></g><g id="SvgjsG1055" transform="translate(178.72469333521872,345.87804878048786)"><path id="SvgjsPath1056" d="M 0 4Q 0 0 4 0L 76 0Q 80 0 80 4L 80 24Q 80 28 76 28L 4 28Q 0 28 0 24Z" stroke="rgba(33,41,48,1)" stroke-width="1.5" fill-opacity="1" fill="#898989"></path><g id="SvgjsG1057"><text id="SvgjsText1058" font-family="微软雅黑" text-anchor="middle" font-size="13px" width="60px" fill="#323232" font-weight="400" align="middle" lineHeight="125%" anchor="middle" family="微软雅黑" size="13px" weight="400" font-style="" opacity="1" y="3.375" transform="rotate(0)"><tspan id="SvgjsTspan1059" dy="16.25" x="40"><tspan id="SvgjsTspan1060" style="">Master</tspan></tspan></text></g></g><g id="SvgjsG1061" transform="translate(98.72469333521872,403.6829268292683)"><path id="SvgjsPath1062" d="M 0 4Q 0 0 4 0L 76 0Q 80 0 80 4L 80 24Q 80 28 76 28L 4 28Q 0 28 0 24Z" stroke="rgba(33,41,48,1)" stroke-width="1.5" fill-opacity="1" fill="#898989"></path><g id="SvgjsG1063"><text id="SvgjsText1064" font-family="微软雅黑" text-anchor="middle" font-size="13px" width="60px" fill="#323232" font-weight="400" align="middle" lineHeight="125%" anchor="middle" family="微软雅黑" size="13px" weight="400" font-style="" opacity="1" y="3.375" transform="rotate(0)"><tspan id="SvgjsTspan1065" dy="16.25" x="40"><tspan id="SvgjsTspan1066" style="">Slave1</tspan></tspan></text></g></g><g id="SvgjsG1067" transform="translate(258.7246933352187,403.6829268292683)"><path id="SvgjsPath1068" d="M 0 4Q 0 0 4 0L 76 0Q 80 0 80 4L 80 24Q 80 28 76 28L 4 28Q 0 28 0 24Z" stroke="rgba(33,41,48,1)" stroke-width="1.5" fill-opacity="1" fill="#898989"></path><g id="SvgjsG1069"><text id="SvgjsText1070" font-family="微软雅黑" text-anchor="middle" font-size="13px" width="60px" fill="#323232" font-weight="400" align="middle" lineHeight="125%" anchor="middle" family="微软雅黑" size="13px" weight="400" font-style="" opacity="1" y="3.375" transform="rotate(0)"><tspan id="SvgjsTspan1071" dy="16.25" x="40"><tspan id="SvgjsTspan1072" style="">Slave2</tspan></tspan></text></g></g><g id="SvgjsG1073"><path id="SvgjsPath1074" d="M218.5 81.70000000000002L218.5 110.40243902439025L218.5 110.40243902439025L218.5 139.8548780487805" stroke="#323232" stroke-width="1.5" fill="none" marker-start="url(#SvgjsMarker1075)" marker-end="url(#SvgjsMarker1077)"></path></g><g id="SvgjsG1079"><path id="SvgjsPath1080" d="M218.74390243902434 225.67560975609754L218.74390243902434 262.4756097560976L218.74390243902434 262.4756097560976L218.74390243902434 300.0256097560976" stroke="#323232" stroke-width="1.5" fill="none" marker-start="url(#SvgjsMarker1081)" marker-end="url(#SvgjsMarker1083)"></path></g><g id="SvgjsG1085"><path id="SvgjsPath1086" d="M216.19458152141772 374.82066970623936L141.25480514901972 402.7403059035168" stroke="#323232" stroke-width="1.5" fill="none" marker-start="url(#SvgjsMarker1087)" marker-end="url(#SvgjsMarker1089)"></path></g><g id="SvgjsG1091"><path id="SvgjsPath1092" d="M296.1945815214177 402.7403059035168L221.25480514901972 374.82066970623936" stroke="#323232" stroke-width="1.5" fill="none" marker-start="url(#SvgjsMarker1093)" marker-end="url(#SvgjsMarker1095)"></path></g></svg>