<svg id="SvgjsSvg1006" width="702" height="389.5" xmlns="http://www.w3.org/2000/svg" version="1.1" xmlns:xlink="http://www.w3.org/1999/xlink" xmlns:svgjs="http://svgjs.com/svgjs"><defs id="SvgjsDefs1007"><pattern patternUnits="userSpaceOnUse" id="pattern_mark_0" width="300" height="300"><text x="150" y="100" fill="rgba(229,229,229,0.8)" font-size="18" transform="rotate(-45, 150, 150)" style="dominant-baseline: middle; text-anchor: middle;"></text></pattern><pattern patternUnits="userSpaceOnUse" id="pattern_mark_1" width="300" height="300"><text x="150" y="200" fill="rgba(229,229,229,0.8)" font-size="18" transform="rotate(-45, 150, 150)" style="dominant-baseline: middle; text-anchor: middle;"></text></pattern><pattern id="SvgjsPattern1019" x="0" y="0" width="147" height="40" patternUnits="userSpaceOnUse"><image id="SvgjsImage1020" xlink:href="https://cdn.processon.com/userId2-660988586c4f2a41e4f9d81b?e=1711904360&amp;token=trhI0BY8QfVrIGn9nENop6JAc6l5nZuxhjQ62UfM:Q-LDpjCWSyremVhpjGkmudVPV5g=" width="237.5" height="127.25" preserveAspectRatio="none" crossOrigin="anonymous" x="0" y="0"></image></pattern><pattern id="SvgjsPattern1023" x="0" y="0" width="211" height="81" patternUnits="userSpaceOnUse"><image id="SvgjsImage1024" xlink:href="https://cdn.processon.com/659075849306be2fed0d515e-66096a8fd709282ea56a8c8c?e=1711896735&amp;token=trhI0BY8QfVrIGn9nENop6JAc6l5nZuxhjQ62UfM:qmClbxp9Chujy-smWn32NtadwGs=" width="211" height="81" preserveAspectRatio="none" crossOrigin="anonymous" x="0" y="0"></image></pattern><pattern id="SvgjsPattern1039" x="0" y="0" width="237.5" height="87.25" patternUnits="userSpaceOnUse"><image id="SvgjsImage1040" xlink:href="https://cdn.processon.com/userId2-660988586c4f2a41e4f9d81b?e=1711904360&amp;token=trhI0BY8QfVrIGn9nENop6JAc6l5nZuxhjQ62UfM:Q-LDpjCWSyremVhpjGkmudVPV5g=" width="237.5" height="127.25" preserveAspectRatio="none" crossOrigin="anonymous" x="0" y="-40"></image></pattern><marker id="SvgjsMarker1061" markerWidth="16" markerHeight="12" refX="11" refY="6" viewBox="0 0 16 12" orient="auto" markerUnits="userSpaceOnUse" stroke-dasharray="0,0"><path id="SvgjsPath1062" d="M0,0 L16,6 L0,12 L0,0" fill="#f5cc00" stroke="#f5cc00" stroke-width="1"></path></marker><marker id="SvgjsMarker1065" markerWidth="16" markerHeight="12" refX="5" refY="6" viewBox="0 0 16 12" orient="0" markerUnits="userSpaceOnUse" stroke-dasharray="0,0"><path id="SvgjsPath1066" d="M16,0 L0,6 L16,12 L16,0" fill="#f5cc00" stroke="#f5cc00" stroke-width="1"></path></marker><marker id="SvgjsMarker1069" markerWidth="14" markerHeight="10" refX="10" refY="5" viewBox="0 0 14 10" orient="auto" markerUnits="userSpaceOnUse" stroke-dasharray="0,0"><path id="SvgjsPath1070" d="M0,0 L14,5 L0,10 L0,0" fill="#f5cc00" stroke="#f5cc00" stroke-width="1"></path></marker></defs><rect id="svgbackgroundid" width="702" height="389.5" fill="transparent"></rect><rect id="SvgjsRect1009" width="702" height="389.5" fill="url(#pattern_mark_0)"></rect><rect id="SvgjsRect1010" width="702" height="389.5" fill="url(#pattern_mark_1)"></rect><g id="SvgjsG1011" transform="translate(25,114.75)"><path id="SvgjsPath1012" d="M 0 4Q 0 0 4 0L 326 0Q 330 0 330 4L 330 216Q 330 220 326 220L 4 220Q 0 220 0 216Z" stroke="rgba(33,41,48,1)" stroke-width="1.5" fill-opacity="1" fill="#d5ffff"></path><g id="SvgjsG1013"><text id="SvgjsText1014" font-family="微软雅黑" text-anchor="middle" font-size="13px" width="310px" fill="#323232" font-weight="400" align="middle" lineHeight="125%" anchor="middle" family="微软雅黑" size="13px" weight="400" font-style="" opacity="1" y="99.375" transform="rotate(0)"></text></g></g><g id="SvgjsG1015" transform="translate(112,182.5)"><path id="SvgjsPath1016" d="M 0 0L 147 0L 147 40L 0 40Z" stroke="none" fill="none"></path><g id="SvgjsG1017"><rect id="SvgjsRect1018" width="147" height="40" fill="url(#SvgjsPattern1019)"></rect></g></g><g id="SvgjsG1021" transform="translate(48,236.75)"><path id="SvgjsPath1022" d="M 0 0L 211 0L 211 81L 0 81Z" stroke="none" fill="url(#SvgjsPattern1023)"></path></g><g id="SvgjsG1025" transform="translate(380,25)"><path id="SvgjsPath1026" d="M 0 49.5L 0 288.575C 0 356.475 297 356.475 297 288.575L 297 49.5C 297 -13.5 0 -13.5 0 49.5ZM 0 49.5C 0 111.375 297 111.375 297 49.5C 297 111.375 0 111.375 0 49.5" stroke="rgba(33,41,48,1)" stroke-width="1.5" fill-opacity="1" fill="#afafaf"></path><g id="SvgjsG1027"><text id="SvgjsText1028" font-family="微软雅黑" text-anchor="middle" font-size="13px" width="297px" fill="#323232" font-weight="400" align="middle" lineHeight="125%" anchor="middle" family="微软雅黑" size="13px" weight="400" font-style="" opacity="1" y="125.17500000000001" transform="rotate(0)"></text></g></g><g id="SvgjsG1029" transform="translate(445,56.5)"><path id="SvgjsPath1030" d="M 0 0L 167 0L 167 40L 0 40Z" stroke="none" fill="none"></path><g id="SvgjsG1031"><text id="SvgjsText1032" font-family="&quot;Comic Sans MS&quot;" text-anchor="middle" font-size="20px" width="167px" fill="#323232" font-weight="400" align="middle" lineHeight="125%" anchor="middle" family="&quot;Comic Sans MS&quot;" size="20px" weight="400" font-style="" opacity="1" y="2" transform="rotate(0)"><tspan id="SvgjsTspan1033" dy="25" x="83.5"><tspan id="SvgjsTspan1034" style="font-weight: bold;">MySQL Server</tspan></tspan></text></g></g><g id="SvgjsG1035" transform="translate(410,168.5)"><path id="SvgjsPath1036" d="M 0 0L 237.5 0L 237.5 87.25L 0 87.25Z" stroke="none" fill="none"></path><g id="SvgjsG1037"><rect id="SvgjsRect1038" width="237.5" height="87.25" fill="url(#SvgjsPattern1039)"></rect></g></g><g id="SvgjsG1041" transform="translate(445,112.5)"><path id="SvgjsPath1042" d="M 0 0L 167 0L 167 40L 0 40Z" stroke="none" fill="none"></path><g id="SvgjsG1043"><text id="SvgjsText1044" font-family="&quot;Comic Sans MS&quot;" text-anchor="middle" font-size="15px" width="167px" fill="#323232" font-weight="400" align="middle" lineHeight="125%" anchor="middle" family="&quot;Comic Sans MS&quot;" size="15px" weight="400" font-style="" opacity="1" y="7.625" transform="rotate(0)"><tspan id="SvgjsTspan1045" dy="18.75" x="83.5"><tspan id="SvgjsTspan1046" style="font-weight: bold;">USER_VIEWS</tspan></tspan></text></g></g><g id="SvgjsG1047" transform="translate(445,135.5)"><path id="SvgjsPath1048" d="M 0 0L 167 0L 167 40L 0 40Z" stroke="none" fill="none"></path><g id="SvgjsG1049"><text id="SvgjsText1050" font-family="&quot;Comic Sans MS&quot;" text-anchor="middle" font-size="13px" width="167px" fill="#323232" font-weight="400" align="middle" lineHeight="125%" anchor="middle" family="&quot;Comic Sans MS&quot;" size="13px" weight="400" font-style="" opacity="1" y="9.375" transform="rotate(0)"><tspan id="SvgjsTspan1051" dy="16.25" x="83.5"><tspan id="SvgjsTspan1052" style="font-weight: bold;">EMPVU80</tspan></tspan></text></g></g><g id="SvgjsG1053" transform="translate(468,306.5)"><path id="SvgjsPath1054" d="M 0 4Q 0 0 4 0L 118 0Q 122 0 122 4L 122 25Q 122 29 118 29L 4 29Q 0 29 0 25Z" stroke="rgba(33,41,48,1)" stroke-width="1.5" fill-opacity="1" fill="#7462ff"></path><g id="SvgjsG1055"><text id="SvgjsText1056" font-family="微软雅黑" text-anchor="middle" font-size="13px" width="102px" fill="#000000" font-weight="700" align="middle" lineHeight="125%" anchor="middle" family="微软雅黑" size="13px" weight="700" font-style="" opacity="1" y="3.875" transform="rotate(0)"><tspan id="SvgjsTspan1057" dy="16.25" x="61"><tspan id="SvgjsTspan1058" style="">EMPLOYEES</tspan></tspan></text></g></g><g id="SvgjsG1059"><path id="SvgjsPath1060" d="M260 202.5L334.5 202.5L334.5 202.5L405.1 202.5" stroke="#f5cc00" stroke-width="3" fill="none" marker-end="url(#SvgjsMarker1061)"></path></g><g id="SvgjsG1063"><path id="SvgjsPath1064" d="M263.9 298.75L332 298.75L332 298.75L405 298.75" stroke="#f5cc00" stroke-width="3" fill="none" marker-start="url(#SvgjsMarker1065)"></path></g><g id="SvgjsG1067"><path id="SvgjsPath1068" d="M528.75 256.75L528.75 281.125L528.75 281.125L528.75 303.15" stroke="#f5cc00" stroke-width="2" fill="none" marker-end="url(#SvgjsMarker1069)"></path></g></svg>