<svg id="SvgjsSvg1006" width="951.5" height="311" xmlns="http://www.w3.org/2000/svg" version="1.1" xmlns:xlink="http://www.w3.org/1999/xlink" xmlns:svgjs="http://svgjs.com/svgjs"><defs id="SvgjsDefs1007"><pattern patternUnits="userSpaceOnUse" id="pattern_mark_0" width="300" height="300"><text x="150" y="100" fill="rgba(229,229,229,0.8)" font-size="18" transform="rotate(-45, 150, 150)" style="dominant-baseline: middle; text-anchor: middle;"></text></pattern><pattern patternUnits="userSpaceOnUse" id="pattern_mark_1" width="300" height="300"><text x="150" y="200" fill="rgba(229,229,229,0.8)" font-size="18" transform="rotate(-45, 150, 150)" style="dominant-baseline: middle; text-anchor: middle;"></text></pattern><marker id="SvgjsMarker1017" markerWidth="13" markerHeight="9" refX="9.5" refY="4.5" viewBox="0 0 13 9" orient="auto" markerUnits="userSpaceOnUse" stroke-dasharray="0,0"><path id="SvgjsPath1018" d="M0,0 L13,4.5 L0,9 L0,0" fill="#323232" stroke="#323232" stroke-width="1"></path></marker><marker id="SvgjsMarker1027" markerWidth="13" markerHeight="9" refX="9.5" refY="4.5" viewBox="0 0 13 9" orient="auto" markerUnits="userSpaceOnUse" stroke-dasharray="0,0"><path id="SvgjsPath1028" d="M0,0 L13,4.5 L0,9 L0,0" fill="#323232" stroke="#323232" stroke-width="1"></path></marker><marker id="SvgjsMarker1031" markerWidth="13" markerHeight="9" refX="9.5" refY="4.5" viewBox="0 0 13 9" orient="auto" markerUnits="userSpaceOnUse" stroke-dasharray="0,0"><path id="SvgjsPath1032" d="M0,0 L13,4.5 L0,9 L0,0" fill="#323232" stroke="#323232" stroke-width="1"></path></marker><marker id="SvgjsMarker1101" markerWidth="16" markerHeight="12" refX="11" refY="6" viewBox="0 0 16 12" orient="auto" markerUnits="userSpaceOnUse" stroke-dasharray="0,0"><path id="SvgjsPath1102" d="M0,0 L16,6 L0,12 L0,0" fill="#7cb4fa" stroke="#7cb4fa" stroke-width="1"></path></marker><marker id="SvgjsMarker1105" markerWidth="16" markerHeight="12" refX="11" refY="6" viewBox="0 0 16 12" orient="auto" markerUnits="userSpaceOnUse" stroke-dasharray="0,0"><path id="SvgjsPath1106" d="M0,0 L16,6 L0,12 L0,0" fill="#7cb4fa" stroke="#7cb4fa" stroke-width="1"></path></marker><marker id="SvgjsMarker1145" markerWidth="16" markerHeight="12" refX="11" refY="6" viewBox="0 0 16 12" orient="auto" markerUnits="userSpaceOnUse" stroke-dasharray="0,0"><path id="SvgjsPath1146" d="M0,0 L16,6 L0,12 L0,0" fill="#7cb4fa" stroke="#7cb4fa" stroke-width="1"></path></marker><marker id="SvgjsMarker1149" markerWidth="16" markerHeight="12" refX="11" refY="6" viewBox="0 0 16 12" orient="auto" markerUnits="userSpaceOnUse" stroke-dasharray="0,0"><path id="SvgjsPath1150" d="M0,0 L16,6 L0,12 L0,0" fill="#7cb4fa" stroke="#7cb4fa" stroke-width="1"></path></marker><marker id="SvgjsMarker1153" markerWidth="16" markerHeight="12" refX="11" refY="6" viewBox="0 0 16 12" orient="auto" markerUnits="userSpaceOnUse" stroke-dasharray="0,0"><path id="SvgjsPath1154" d="M0,0 L16,6 L0,12 L0,0" fill="#7cb4fa" stroke="#7cb4fa" stroke-width="1"></path></marker></defs><rect id="svgbackgroundid" width="951.5" height="311" fill="transparent"></rect><rect id="SvgjsRect1009" width="951.5" height="311" fill="url(#pattern_mark_0)"></rect><rect id="SvgjsRect1010" width="951.5" height="311" fill="url(#pattern_mark_1)"></rect><g id="SvgjsG1011" transform="translate(241,66)"><path id="SvgjsPath1012" d="M 0 4Q 0 0 4 0L 81 0Q 85 0 85 4L 85 207Q 85 211 81 211L 4 211Q 0 211 0 207Z" stroke="rgba(33,41,48,1)" stroke-width="1.5" fill-opacity="1" fill="#e0e0e0"></path><g id="SvgjsG1013"><text id="SvgjsText1014" font-family="&quot;Microsoft YaHei&quot;, 微软雅黑, Arial" text-anchor="middle" font-size="13px" width="65px" fill="#323232" font-weight="400" align="middle" lineHeight="125%" anchor="middle" family="&quot;Microsoft YaHei&quot;, 微软雅黑, Arial" size="13px" weight="400" font-style="" opacity="1" y="94.875" transform="rotate(0)"></text></g></g><g id="SvgjsG1015"><path id="SvgjsPath1016" d="M95.5 101L926.5 101" stroke="#323232" stroke-width="1.5" fill="none" marker-end="url(#SvgjsMarker1017)"></path></g><g id="SvgjsG1019" transform="translate(137,88)"><path id="SvgjsPath1020" d="M 0 4Q 0 0 4 0L 81 0Q 85 0 85 4L 85 21Q 85 25 81 25L 4 25Q 0 25 0 21Z" stroke="rgba(33,41,48,1)" stroke-width="1.5" fill-opacity="1" fill="#c3defd"></path><g id="SvgjsG1021"><text id="SvgjsText1022" font-family="&quot;Microsoft YaHei&quot;, 微软雅黑, Arial" text-anchor="middle" font-size="13px" width="65px" fill="#323232" font-weight="400" align="middle" lineHeight="125%" anchor="middle" family="&quot;Microsoft YaHei&quot;, 微软雅黑, Arial" size="13px" weight="400" font-style="" opacity="1" y="1.875" transform="rotate(0)"><tspan id="SvgjsTspan1023" dy="16.25" x="42.5"><tspan id="SvgjsTspan1024" style="">execute</tspan></tspan></text></g></g><g id="SvgjsG1025"><path id="SvgjsPath1026" d="M95.5 171L923 171" stroke="#323232" stroke-width="1.5" fill="none" marker-end="url(#SvgjsMarker1027)"></path></g><g id="SvgjsG1029"><path id="SvgjsPath1030" d="M96.5 242.5L918 242.5" stroke="#323232" stroke-width="1.5" fill="none" marker-end="url(#SvgjsMarker1031)"></path></g><g id="SvgjsG1033" transform="translate(463.2222222222222,229.5)"><path id="SvgjsPath1034" d="M 0 4Q 0 0 4 0L 81 0Q 85 0 85 4L 85 21Q 85 25 81 25L 4 25Q 0 25 0 21Z" stroke="rgba(33,41,48,1)" stroke-width="1.5" fill-opacity="1" fill="#fcfac0"></path><g id="SvgjsG1035"><text id="SvgjsText1036" font-family="&quot;Microsoft YaHei&quot;, 微软雅黑, Arial" text-anchor="middle" font-size="13px" width="65px" fill="#323232" font-weight="400" align="middle" lineHeight="125%" anchor="middle" family="&quot;Microsoft YaHei&quot;, 微软雅黑, Arial" size="13px" weight="400" font-style="" opacity="1" y="1.875" transform="rotate(0)"><tspan id="SvgjsTspan1037" dy="16.25" x="42.5"><tspan id="SvgjsTspan1038" style="">relay log</tspan></tspan></text></g></g><g id="SvgjsG1039" transform="translate(573.2222222222222,229.5)"><path id="SvgjsPath1040" d="M 0 4Q 0 0 4 0L 81 0Q 85 0 85 4L 85 21Q 85 25 81 25L 4 25Q 0 25 0 21Z" stroke="rgba(33,41,48,1)" stroke-width="1.5" fill-opacity="1" fill="#cbe6c7"></path><g id="SvgjsG1041"><text id="SvgjsText1042" font-family="&quot;Microsoft YaHei&quot;, 微软雅黑, Arial" text-anchor="middle" font-size="13px" width="65px" fill="#323232" font-weight="400" align="middle" lineHeight="125%" anchor="middle" family="&quot;Microsoft YaHei&quot;, 微软雅黑, Arial" size="13px" weight="400" font-style="" opacity="1" y="1.875" transform="rotate(0)"><tspan id="SvgjsTspan1043" dy="16.25" x="42.5"><tspan id="SvgjsTspan1044" style="">apply</tspan></tspan></text></g></g><g id="SvgjsG1045" transform="translate(683.2222222222222,229.5)"><path id="SvgjsPath1046" d="M 0 4Q 0 0 4 0L 81 0Q 85 0 85 4L 85 21Q 85 25 81 25L 4 25Q 0 25 0 21Z" stroke="rgba(33,41,48,1)" stroke-width="1.5" fill-opacity="1" fill="#f9e0ae"></path><g id="SvgjsG1047"><text id="SvgjsText1048" font-family="&quot;Microsoft YaHei&quot;, 微软雅黑, Arial" text-anchor="middle" font-size="13px" width="65px" fill="#323232" font-weight="400" align="middle" lineHeight="125%" anchor="middle" family="&quot;Microsoft YaHei&quot;, 微软雅黑, Arial" size="13px" weight="400" font-style="" opacity="1" y="1.875" transform="rotate(0)"><tspan id="SvgjsTspan1049" dy="16.25" x="42.5"><tspan id="SvgjsTspan1050" style="">binlog</tspan></tspan></text></g></g><g id="SvgjsG1051" transform="translate(793.2222222222222,229.5)"><path id="SvgjsPath1052" d="M 0 4Q 0 0 4 0L 81 0Q 85 0 85 4L 85 21Q 85 25 81 25L 4 25Q 0 25 0 21Z" stroke="rgba(33,41,48,1)" stroke-width="1.5" fill-opacity="1" fill="#f9cdd2"></path><g id="SvgjsG1053"><text id="SvgjsText1054" font-family="&quot;Microsoft YaHei&quot;, 微软雅黑, Arial" text-anchor="middle" font-size="13px" width="65px" fill="#323232" font-weight="400" align="middle" lineHeight="125%" anchor="middle" family="&quot;Microsoft YaHei&quot;, 微软雅黑, Arial" size="13px" weight="400" font-style="" opacity="1" y="1.875" transform="rotate(0)"><tspan id="SvgjsTspan1055" dy="16.25" x="42.5"><tspan id="SvgjsTspan1056" style="">commit</tspan></tspan></text></g></g><g id="SvgjsG1057" transform="translate(461,159)"><path id="SvgjsPath1058" d="M 0 4Q 0 0 4 0L 81 0Q 85 0 85 4L 85 21Q 85 25 81 25L 4 25Q 0 25 0 21Z" stroke="rgba(33,41,48,1)" stroke-width="1.5" fill-opacity="1" fill="#fcfac0"></path><g id="SvgjsG1059"><text id="SvgjsText1060" font-family="&quot;Microsoft YaHei&quot;, 微软雅黑, Arial" text-anchor="middle" font-size="13px" width="65px" fill="#323232" font-weight="400" align="middle" lineHeight="125%" anchor="middle" family="&quot;Microsoft YaHei&quot;, 微软雅黑, Arial" size="13px" weight="400" font-style="" opacity="1" y="1.875" transform="rotate(0)"><tspan id="SvgjsTspan1061" dy="16.25" x="42.5"><tspan id="SvgjsTspan1062" style="">relay log</tspan></tspan></text></g></g><g id="SvgjsG1063" transform="translate(571,159)"><path id="SvgjsPath1064" d="M 0 4Q 0 0 4 0L 81 0Q 85 0 85 4L 85 21Q 85 25 81 25L 4 25Q 0 25 0 21Z" stroke="rgba(33,41,48,1)" stroke-width="1.5" fill-opacity="1" fill="#cbe6c7"></path><g id="SvgjsG1065"><text id="SvgjsText1066" font-family="&quot;Microsoft YaHei&quot;, 微软雅黑, Arial" text-anchor="middle" font-size="13px" width="65px" fill="#323232" font-weight="400" align="middle" lineHeight="125%" anchor="middle" family="&quot;Microsoft YaHei&quot;, 微软雅黑, Arial" size="13px" weight="400" font-style="" opacity="1" y="1.875" transform="rotate(0)"><tspan id="SvgjsTspan1067" dy="16.25" x="42.5"><tspan id="SvgjsTspan1068" style="">apply</tspan></tspan></text></g></g><g id="SvgjsG1069" transform="translate(681,159)"><path id="SvgjsPath1070" d="M 0 4Q 0 0 4 0L 81 0Q 85 0 85 4L 85 21Q 85 25 81 25L 4 25Q 0 25 0 21Z" stroke="rgba(33,41,48,1)" stroke-width="1.5" fill-opacity="1" fill="#f9e0ae"></path><g id="SvgjsG1071"><text id="SvgjsText1072" font-family="&quot;Microsoft YaHei&quot;, 微软雅黑, Arial" text-anchor="middle" font-size="13px" width="65px" fill="#323232" font-weight="400" align="middle" lineHeight="125%" anchor="middle" family="&quot;Microsoft YaHei&quot;, 微软雅黑, Arial" size="13px" weight="400" font-style="" opacity="1" y="1.875" transform="rotate(0)"><tspan id="SvgjsTspan1073" dy="16.25" x="42.5"><tspan id="SvgjsTspan1074" style="">binlog</tspan></tspan></text></g></g><g id="SvgjsG1075" transform="translate(791,159)"><path id="SvgjsPath1076" d="M 0 4Q 0 0 4 0L 81 0Q 85 0 85 4L 85 21Q 85 25 81 25L 4 25Q 0 25 0 21Z" stroke="rgba(33,41,48,1)" stroke-width="1.5" fill-opacity="1" fill="#f9cdd2"></path><g id="SvgjsG1077"><text id="SvgjsText1078" font-family="&quot;Microsoft YaHei&quot;, 微软雅黑, Arial" text-anchor="middle" font-size="13px" width="65px" fill="#323232" font-weight="400" align="middle" lineHeight="125%" anchor="middle" family="&quot;Microsoft YaHei&quot;, 微软雅黑, Arial" size="13px" weight="400" font-style="" opacity="1" y="1.875" transform="rotate(0)"><tspan id="SvgjsTspan1079" dy="16.25" x="42.5"><tspan id="SvgjsTspan1080" style="">commit</tspan></tspan></text></g></g><g id="SvgjsG1081" transform="translate(36,80.5)"><path id="SvgjsPath1082" d="M 0 0L 54 0L 54 40L 0 40Z" stroke="none" fill="none"></path><g id="SvgjsG1083"><text id="SvgjsText1084" font-family="&quot;Microsoft YaHei&quot;, 微软雅黑, Arial" text-anchor="middle" font-size="13px" width="54px" fill="#323232" font-weight="400" align="middle" lineHeight="125%" anchor="middle" family="&quot;Microsoft YaHei&quot;, 微软雅黑, Arial" size="13px" weight="400" font-style="" opacity="1" y="9.375" transform="rotate(0)"><tspan id="SvgjsTspan1085" dy="16.25" x="27"><tspan id="SvgjsTspan1086" style="">Master</tspan></tspan></text></g></g><g id="SvgjsG1087" transform="translate(36,151.5)"><path id="SvgjsPath1088" d="M 0 0L 54 0L 54 40L 0 40Z" stroke="none" fill="none"></path><g id="SvgjsG1089"><text id="SvgjsText1090" font-family="&quot;Microsoft YaHei&quot;, 微软雅黑, Arial" text-anchor="middle" font-size="13px" width="54px" fill="#323232" font-weight="400" align="middle" lineHeight="125%" anchor="middle" family="&quot;Microsoft YaHei&quot;, 微软雅黑, Arial" size="13px" weight="400" font-style="" opacity="1" y="9.375" transform="rotate(0)"><tspan id="SvgjsTspan1091" dy="16.25" x="27"><tspan id="SvgjsTspan1092" style="">Slave1</tspan></tspan></text></g></g><g id="SvgjsG1093" transform="translate(36,222)"><path id="SvgjsPath1094" d="M 0 0L 54 0L 54 40L 0 40Z" stroke="none" fill="none"></path><g id="SvgjsG1095"><text id="SvgjsText1096" font-family="&quot;Microsoft YaHei&quot;, 微软雅黑, Arial" text-anchor="middle" font-size="13px" width="54px" fill="#323232" font-weight="400" align="middle" lineHeight="125%" anchor="middle" family="&quot;Microsoft YaHei&quot;, 微软雅黑, Arial" size="13px" weight="400" font-style="" opacity="1" y="9.375" transform="rotate(0)"><tspan id="SvgjsTspan1097" dy="16.25" x="27"><tspan id="SvgjsTspan1098" style="">Slave2</tspan></tspan></text></g></g><g id="SvgjsG1099"><path id="SvgjsPath1100" d="M101.88888888888889 25.888888888888886L128.55555555555554 95.88888888888889" stroke="#7cb4fa" stroke-width="3" fill="none" marker-end="url(#SvgjsMarker1101)"></path></g><g id="SvgjsG1103"><path id="SvgjsPath1104" d="M674.1111111111111 98.33333333333331L733 25" stroke="#7cb4fa" stroke-width="3" fill="none" marker-end="url(#SvgjsMarker1105)"></path></g><g id="SvgjsG1107" transform="translate(351,159)"><path id="SvgjsPath1108" d="M 0 4Q 0 0 4 0L 81 0Q 85 0 85 4L 85 21Q 85 25 81 25L 4 25Q 0 25 0 21Z" stroke="rgba(33,41,48,1)" stroke-width="1.5" fill-opacity="1" fill="#bcebf3"></path><g id="SvgjsG1109"><text id="SvgjsText1110" font-family="&quot;Microsoft YaHei&quot;, 微软雅黑, Arial" text-anchor="middle" font-size="13px" width="65px" fill="#323232" font-weight="400" align="middle" lineHeight="125%" anchor="middle" family="&quot;Microsoft YaHei&quot;, 微软雅黑, Arial" size="13px" weight="400" font-style="" opacity="1" y="1.875" transform="rotate(0)"><tspan id="SvgjsTspan1111" dy="16.25" x="42.5"><tspan id="SvgjsTspan1112" style="">certify</tspan></tspan></text></g></g><g id="SvgjsG1113" transform="translate(353.2222222222222,229.5)"><path id="SvgjsPath1114" d="M 0 4Q 0 0 4 0L 81 0Q 85 0 85 4L 85 21Q 85 25 81 25L 4 25Q 0 25 0 21Z" stroke="rgba(33,41,48,1)" stroke-width="1.5" fill-opacity="1" fill="#bcebf3"></path><g id="SvgjsG1115"><text id="SvgjsText1116" font-family="&quot;Microsoft YaHei&quot;, 微软雅黑, Arial" text-anchor="middle" font-size="13px" width="65px" fill="#323232" font-weight="400" align="middle" lineHeight="125%" anchor="middle" family="&quot;Microsoft YaHei&quot;, 微软雅黑, Arial" size="13px" weight="400" font-style="" opacity="1" y="1.875" transform="rotate(0)"><tspan id="SvgjsTspan1117" dy="16.25" x="42.5"><tspan id="SvgjsTspan1118" style="">certify</tspan></tspan></text></g></g><g id="SvgjsG1119" transform="translate(351,88)"><path id="SvgjsPath1120" d="M 0 4Q 0 0 4 0L 81 0Q 85 0 85 4L 85 21Q 85 25 81 25L 4 25Q 0 25 0 21Z" stroke="rgba(33,41,48,1)" stroke-width="1.5" fill-opacity="1" fill="#bcebf3"></path><g id="SvgjsG1121"><text id="SvgjsText1122" font-family="&quot;Microsoft YaHei&quot;, 微软雅黑, Arial" text-anchor="middle" font-size="13px" width="65px" fill="#323232" font-weight="400" align="middle" lineHeight="125%" anchor="middle" family="&quot;Microsoft YaHei&quot;, 微软雅黑, Arial" size="13px" weight="400" font-style="" opacity="1" y="1.875" transform="rotate(0)"><tspan id="SvgjsTspan1123" dy="16.25" x="42.5"><tspan id="SvgjsTspan1124" style="">certify</tspan></tspan></text></g></g><g id="SvgjsG1125" transform="translate(461,88)"><path id="SvgjsPath1126" d="M 0 4Q 0 0 4 0L 81 0Q 85 0 85 4L 85 21Q 85 25 81 25L 4 25Q 0 25 0 21Z" stroke="rgba(33,41,48,1)" stroke-width="1.5" fill-opacity="1" fill="#f9e0ae"></path><g id="SvgjsG1127"><text id="SvgjsText1128" font-family="&quot;Microsoft YaHei&quot;, 微软雅黑, Arial" text-anchor="middle" font-size="13px" width="65px" fill="#323232" font-weight="400" align="middle" lineHeight="125%" anchor="middle" family="&quot;Microsoft YaHei&quot;, 微软雅黑, Arial" size="13px" weight="400" font-style="" opacity="1" y="1.875" transform="rotate(0)"><tspan id="SvgjsTspan1129" dy="16.25" x="42.5"><tspan id="SvgjsTspan1130" style="">binlog</tspan></tspan></text></g></g><g id="SvgjsG1131" transform="translate(571,88)"><path id="SvgjsPath1132" d="M 0 4Q 0 0 4 0L 81 0Q 85 0 85 4L 85 21Q 85 25 81 25L 4 25Q 0 25 0 21Z" stroke="rgba(33,41,48,1)" stroke-width="1.5" fill-opacity="1" fill="#f9cdd2"></path><g id="SvgjsG1133"><text id="SvgjsText1134" font-family="&quot;Microsoft YaHei&quot;, 微软雅黑, Arial" text-anchor="middle" font-size="13px" width="65px" fill="#323232" font-weight="400" align="middle" lineHeight="125%" anchor="middle" family="&quot;Microsoft YaHei&quot;, 微软雅黑, Arial" size="13px" weight="400" font-style="" opacity="1" y="1.875" transform="rotate(0)"><tspan id="SvgjsTspan1135" dy="16.25" x="42.5"><tspan id="SvgjsTspan1136" style="">commit</tspan></tspan></text></g></g><g id="SvgjsG1137" transform="translate(233.5,246)"><path id="SvgjsPath1138" d="M 0 0L 100 0L 100 40L 0 40Z" stroke="none" fill="none"></path><g id="SvgjsG1139"><text id="SvgjsText1140" font-family="&quot;Microsoft YaHei&quot;, 微软雅黑, Arial" text-anchor="middle" font-size="13px" width="100px" fill="#323232" font-weight="400" align="middle" lineHeight="125%" anchor="middle" family="&quot;Microsoft YaHei&quot;, 微软雅黑, Arial" size="13px" weight="400" font-style="" opacity="1" y="9.375" transform="rotate(0)"><tspan id="SvgjsTspan1141" dy="16.25" x="50"><tspan id="SvgjsTspan1142" style="">Consensus</tspan></tspan></text></g></g><g id="SvgjsG1143"><path id="SvgjsPath1144" d="M222.6125526232626 100.93275776565432L314.55555555555554 165.88888888888889" stroke="#7cb4fa" stroke-width="3" fill="none" marker-end="url(#SvgjsMarker1145)"></path></g><g id="SvgjsG1147"><path id="SvgjsPath1148" d="M222.42004578305605 101.121338506884L315.55555555555554 238.8888888888889" stroke="#7cb4fa" stroke-width="3" fill="none" marker-end="url(#SvgjsMarker1149)"></path></g><g id="SvgjsG1151"><path id="SvgjsPath1152" d="M222.74998086807904 100.49464299379943L307.55555555555554 99.88888888888889" stroke="#7cb4fa" stroke-width="3" fill="none" marker-end="url(#SvgjsMarker1153)"></path></g><g id="SvgjsG1155"></g></svg>