<svg id="SvgjsSvg1006" width="702" height="511" xmlns="http://www.w3.org/2000/svg" version="1.1" xmlns:xlink="http://www.w3.org/1999/xlink" xmlns:svgjs="http://svgjs.com/svgjs"><defs id="SvgjsDefs1007"><pattern patternUnits="userSpaceOnUse" id="pattern_mark_0" width="300" height="300"><text x="150" y="100" fill="rgba(229,229,229,0.8)" font-size="18" transform="rotate(-45, 150, 150)" style="dominant-baseline: middle; text-anchor: middle;"></text></pattern><pattern patternUnits="userSpaceOnUse" id="pattern_mark_1" width="300" height="300"><text x="150" y="200" fill="rgba(229,229,229,0.8)" font-size="18" transform="rotate(-45, 150, 150)" style="dominant-baseline: middle; text-anchor: middle;"></text></pattern><marker id="SvgjsMarker1045" markerWidth="13" markerHeight="9" refX="9.5" refY="4.5" viewBox="0 0 13 9" orient="auto" markerUnits="userSpaceOnUse" stroke-dasharray="0,0"><path id="SvgjsPath1046" d="M0,0 L13,4.5 L0,9 L0,0" fill="#323232" stroke="#323232" stroke-width="1"></path></marker><marker id="SvgjsMarker1057" markerWidth="13" markerHeight="9" refX="9.5" refY="4.5" viewBox="0 0 13 9" orient="auto" markerUnits="userSpaceOnUse" stroke-dasharray="0,0"><path id="SvgjsPath1058" d="M0,0 L13,4.5 L0,9 L0,0" fill="#323232" stroke="#323232" stroke-width="1"></path></marker><marker id="SvgjsMarker1065" markerWidth="13" markerHeight="9" refX="9.5" refY="4.5" viewBox="0 0 13 9" orient="auto" markerUnits="userSpaceOnUse" stroke-dasharray="0,0"><path id="SvgjsPath1066" d="M0,0 L13,4.5 L0,9 L0,0" fill="#323232" stroke="#323232" stroke-width="1"></path></marker><marker id="SvgjsMarker1073" markerWidth="13" markerHeight="9" refX="9.5" refY="4.5" viewBox="0 0 13 9" orient="auto" markerUnits="userSpaceOnUse" stroke-dasharray="0,0"><path id="SvgjsPath1074" d="M0,0 L13,4.5 L0,9 L0,0" fill="#323232" stroke="#323232" stroke-width="1"></path></marker><marker id="SvgjsMarker1083" markerWidth="13" markerHeight="9" refX="9.5" refY="4.5" viewBox="0 0 13 9" orient="auto" markerUnits="userSpaceOnUse" stroke-dasharray="0,0"><path id="SvgjsPath1084" d="M0,0 L13,4.5 L0,9 L0,0" fill="#323232" stroke="#323232" stroke-width="1"></path></marker><marker id="SvgjsMarker1091" markerWidth="13" markerHeight="9" refX="9.5" refY="4.5" viewBox="0 0 13 9" orient="auto" markerUnits="userSpaceOnUse" stroke-dasharray="0,0"><path id="SvgjsPath1092" d="M0,0 L13,4.5 L0,9 L0,0" fill="#323232" stroke="#323232" stroke-width="1"></path></marker></defs><rect id="svgbackgroundid" width="702" height="511" fill="transparent"></rect><rect id="SvgjsRect1009" width="702" height="511" fill="url(#pattern_mark_0)"></rect><rect id="SvgjsRect1010" width="702" height="511" fill="url(#pattern_mark_1)"></rect><g id="SvgjsG1011" transform="translate(25,25)"><path id="SvgjsPath1012" d="M 35 30L 35 461" stroke-dasharray="3,4" stroke="rgba(33,41,48,1)" stroke-width="2" fill="none"></path><path id="SvgjsPath1013" d="M 0 0L 70 0L 70 30L 0 30Z" stroke="rgba(33,41,48,1)" stroke-width="1.5" fill-opacity="1" fill="#fbeada"></path><g id="SvgjsG1014"><text id="SvgjsText1015" font-family="&quot;Comic Sans MS&quot;" text-anchor="middle" font-size="13px" width="50px" fill="#7985ec" font-weight="700" align="middle" lineHeight="125%" anchor="middle" family="&quot;Comic Sans MS&quot;" size="13px" weight="700" font-style="" opacity="1" y="4.375" transform="rotate(0)"><tspan id="SvgjsTspan1016" dy="16.25" x="35"><tspan id="SvgjsTspan1017" style="">线程A</tspan></tspan></text></g></g><g id="SvgjsG1018" transform="translate(219,25)"><path id="SvgjsPath1019" d="M 35 30L 35 444.24854651162786" stroke-dasharray="3,4" stroke="rgba(33,41,48,1)" stroke-width="2" fill="none"></path><path id="SvgjsPath1020" d="M 0 0L 70 0L 70 30L 0 30Z" stroke="rgba(33,41,48,1)" stroke-width="1.5" fill-opacity="1" fill="#fbeada"></path><g id="SvgjsG1021"><text id="SvgjsText1022" font-family="&quot;Comic Sans MS&quot;" text-anchor="middle" font-size="13px" width="50px" fill="#7985ec" font-weight="700" align="middle" lineHeight="125%" anchor="middle" family="&quot;Comic Sans MS&quot;" size="13px" weight="700" font-style="" opacity="1" y="4.375" transform="rotate(0)"><tspan id="SvgjsTspan1023" dy="16.25" x="35"><tspan id="SvgjsTspan1024" style="">线程B</tspan></tspan></text></g></g><g id="SvgjsG1025" transform="translate(413,25)"><path id="SvgjsPath1026" d="M 35 30L 35 454.2994186046511" stroke-dasharray="3,4" stroke="rgba(33,41,48,1)" stroke-width="2" fill="none"></path><path id="SvgjsPath1027" d="M 0 0L 70 0L 70 30L 0 30Z" stroke="rgba(33,41,48,1)" stroke-width="1.5" fill-opacity="1" fill="#e7ebed"></path><g id="SvgjsG1028"><text id="SvgjsText1029" font-family="&quot;Comic Sans MS&quot;" text-anchor="middle" font-size="13px" width="50px" fill="#7985ec" font-weight="700" align="middle" lineHeight="125%" anchor="middle" family="&quot;Comic Sans MS&quot;" size="13px" weight="700" font-style="" opacity="1" y="4.375" transform="rotate(0)"><tspan id="SvgjsTspan1030" dy="16.25" x="35"><tspan id="SvgjsTspan1031" style="">Redis</tspan></tspan></text></g></g><g id="SvgjsG1032" transform="translate(607,25)"><path id="SvgjsPath1033" d="M 35 30L 35 461" stroke-dasharray="3,4" stroke="rgba(33,41,48,1)" stroke-width="2" fill="none"></path><path id="SvgjsPath1034" d="M 0 0L 70 0L 70 30L 0 30Z" stroke="rgba(33,41,48,1)" stroke-width="1.5" fill-opacity="1" fill="#f1e4a2"></path><g id="SvgjsG1035"><text id="SvgjsText1036" font-family="&quot;Comic Sans MS&quot;" text-anchor="middle" font-size="13px" width="50px" fill="#7985ec" font-weight="700" align="middle" lineHeight="125%" anchor="middle" family="&quot;Comic Sans MS&quot;" size="13px" weight="700" font-style="" opacity="1" y="4.375" transform="rotate(0)"><tspan id="SvgjsTspan1037" dy="16.25" x="35"><tspan id="SvgjsTspan1038" style="">MySQL</tspan></tspan></text></g></g><g id="SvgjsG1039" transform="translate(45,75)"><path id="SvgjsPath1040" d="M 0 4Q 0 0 4 0L 26 0Q 30 0 30 4L 30 376.21947674418607Q 30 380.21947674418607 26 380.21947674418607L 4 380.21947674418607Q 0 380.21947674418607 0 376.21947674418607L 0 4Z" stroke="rgba(33,41,48,1)" stroke-width="1.5" fill-opacity="1" fill="#d2d6f9"></path></g><g id="SvgjsG1041" transform="translate(627,67)"><path id="SvgjsPath1042" d="M 0 4Q 0 0 4 0L 26 0Q 30 0 30 4L 30 256Q 30 260 26 260L 4 260Q 0 260 0 256L 0 4Z" stroke="rgba(33,41,48,1)" stroke-width="1.5" fill-opacity="1" fill="#d2d6f9"></path></g><g id="SvgjsG1043"><path id="SvgjsPath1044" d="M75.75 104L351 104L351 107L624.3 107" stroke="#323232" stroke-width="1.5" fill="none" marker-end="url(#SvgjsMarker1045)"></path><rect id="SvgjsRect1047" width="222" height="18" x="237.06602052451535" y="95" fill="#ffffff"></rect><text id="SvgjsText1048" font-family="&quot;Comic Sans MS&quot;" text-anchor="middle" font-size="13px" width="222px" fill="#7985ec" font-weight="700" align="top" lineHeight="16px" anchor="middle" family="&quot;Comic Sans MS&quot;" size="13px" weight="700" font-style="" opacity="1" y="92.375" transform="rotate(0)"><tspan id="SvgjsTspan1049" dy="16.25" x="348.06602052451535"><tspan id="SvgjsTspan1050" style="">1. update key = 80 when key = 90</tspan></tspan></text></g><g id="SvgjsG1051" transform="translate(239,167)"><path id="SvgjsPath1052" d="M 0 4Q 0 0 4 0L 26 0Q 30 0 30 4L 30 110Q 30 114 26 114L 4 114Q 0 114 0 110L 0 4Z" stroke="rgba(33,41,48,1)" stroke-width="1.5" fill-opacity="1" fill="#d2d6f9"></path></g><g id="SvgjsG1053" transform="translate(433,167)"><path id="SvgjsPath1054" d="M 0 4Q 0 0 4 0L 26 0Q 30 0 30 4L 30 110Q 30 114 26 114L 4 114Q 0 114 0 110L 0 4Z" stroke="rgba(33,41,48,1)" stroke-width="1.5" fill-opacity="1" fill="#d2d6f9"></path></g><g id="SvgjsG1055"><path id="SvgjsPath1056" d="M269.75 207L351 207L351 207L430.29999999999995 207" stroke="#323232" stroke-width="1.5" fill="none" marker-end="url(#SvgjsMarker1057)"></path><rect id="SvgjsRect1059" width="75" height="18" x="308.60914634146343" y="198" fill="#ffffff"></rect><text id="SvgjsText1060" font-family="&quot;Comic Sans MS&quot;" text-anchor="middle" font-size="13px" width="75px" fill="#7985ec" font-weight="700" align="top" lineHeight="16px" anchor="middle" family="&quot;Comic Sans MS&quot;" size="13px" weight="700" font-style="" opacity="1" y="195.375" transform="rotate(0)"><tspan id="SvgjsTspan1061" dy="16.25" x="346.10914634146343"><tspan id="SvgjsTspan1062" style="">2. read key</tspan></tspan></text></g><g id="SvgjsG1063"><path id="SvgjsPath1064" d="M432.25 252L351 252L351 252L271.7 252" stroke-dasharray="8,5" stroke="#323232" stroke-width="1.5" fill="none" marker-end="url(#SvgjsMarker1065)"></path><rect id="SvgjsRect1067" width="118" height="18" x="292.975" y="243" fill="#ffffff"></rect><text id="SvgjsText1068" font-family="&quot;Comic Sans MS&quot;" text-anchor="middle" font-size="13px" width="118px" fill="#7985ec" font-weight="700" align="top" lineHeight="16px" anchor="middle" family="&quot;Comic Sans MS&quot;" size="13px" weight="700" font-style="" opacity="1" y="240.375" transform="rotate(0)"><tspan id="SvgjsTspan1069" dy="16.25" x="351.975"><tspan id="SvgjsTspan1070" style="">2.1 return key=90</tspan></tspan></text></g><g id="SvgjsG1071"><path id="SvgjsPath1072" d="M626.25 311L351 311L351 311L77.69999999999999 311" stroke-dasharray="8,5" stroke="#323232" stroke-width="1.5" fill="none" marker-end="url(#SvgjsMarker1073)"></path><rect id="SvgjsRect1075" width="183" height="18" x="260.95873015873013" y="302" fill="#ffffff"></rect><text id="SvgjsText1076" font-family="&quot;Comic Sans MS&quot;" text-anchor="middle" font-size="13px" width="183px" fill="#7985ec" font-weight="700" align="top" lineHeight="16px" anchor="middle" family="&quot;Comic Sans MS&quot;" size="13px" weight="700" font-style="" opacity="1" y="299.375" transform="rotate(0)"><tspan id="SvgjsTspan1077" dy="16.25" x="352.45873015873013"><tspan id="SvgjsTspan1078" style="">1.1 update key = 80 success</tspan></tspan></text></g><g id="SvgjsG1079" transform="translate(433,352.21947674418607)"><path id="SvgjsPath1080" d="M 0 4Q 0 0 4 0L 26 0Q 30 0 30 4L 30 99Q 30 103 26 103L 4 103Q 0 103 0 99L 0 4Z" stroke="rgba(33,41,48,1)" stroke-width="1.5" fill-opacity="1" fill="#d2d6f9"></path></g><g id="SvgjsG1081"><path id="SvgjsPath1082" d="M75.75 374L254 374L254 374L430.29999999999995 374" stroke="#323232" stroke-width="1.5" fill="none" marker-end="url(#SvgjsMarker1083)"></path><rect id="SvgjsRect1085" width="85" height="18" x="210.52499999999998" y="365" fill="#ffffff"></rect><text id="SvgjsText1086" font-family="&quot;Comic Sans MS&quot;" text-anchor="middle" font-size="13px" width="85px" fill="#7985ec" font-weight="700" align="top" lineHeight="16px" anchor="middle" family="&quot;Comic Sans MS&quot;" size="13px" weight="700" font-style="" opacity="1" y="362.375" transform="rotate(0)"><tspan id="SvgjsTspan1087" dy="16.25" x="253.02499999999998"><tspan id="SvgjsTspan1088" style="">3. delete key</tspan></tspan></text></g><g id="SvgjsG1089"><path id="SvgjsPath1090" d="M432.25 423L254 423L254 423L77.69999999999999 423" stroke="#323232" stroke-width="1.5" fill="none" marker-end="url(#SvgjsMarker1091)"></path><rect id="SvgjsRect1093" width="118" height="18" x="193.99427374301672" y="414" fill="#ffffff"></rect><text id="SvgjsText1094" font-family="&quot;Comic Sans MS&quot;" text-anchor="middle" font-size="13px" width="118px" fill="#7985ec" font-weight="700" align="top" lineHeight="16px" anchor="middle" family="&quot;Comic Sans MS&quot;" size="13px" weight="700" font-style="" opacity="1" y="411.375" transform="rotate(0)"><tspan id="SvgjsTspan1095" dy="16.25" x="252.99427374301672"><tspan id="SvgjsTspan1096" style="">3.1 delete success</tspan></tspan></text></g></svg>