<svg id="SvgjsSvg1006" width="584" height="170" xmlns="http://www.w3.org/2000/svg" version="1.1" xmlns:xlink="http://www.w3.org/1999/xlink" xmlns:svgjs="http://svgjs.com/svgjs"><defs id="SvgjsDefs1007"><pattern patternUnits="userSpaceOnUse" id="pattern_mark_0" width="300" height="300"><text x="150" y="100" fill="rgba(229,229,229,0.8)" font-size="18" transform="rotate(-45, 150, 150)" style="dominant-baseline: middle; text-anchor: middle;"></text></pattern><pattern patternUnits="userSpaceOnUse" id="pattern_mark_1" width="300" height="300"><text x="150" y="200" fill="rgba(229,229,229,0.8)" font-size="18" transform="rotate(-45, 150, 150)" style="dominant-baseline: middle; text-anchor: middle;"></text></pattern></defs><rect id="svgbackgroundid" width="584" height="170" fill="transparent"></rect><rect id="SvgjsRect1009" width="584" height="170" fill="url(#pattern_mark_0)"></rect><rect id="SvgjsRect1010" width="584" height="170" fill="url(#pattern_mark_1)"></rect><g id="SvgjsG1011" transform="translate(25,75)"><path id="SvgjsPath1012" d="M 0 4Q 0 0 4 0L 26 0Q 30 0 30 4L 30 26Q 30 30 26 30L 4 30Q 0 30 0 26Z" stroke="none" fill-opacity="1" fill="#f7d777"></path><g id="SvgjsG1013"><text id="SvgjsText1014" font-family="&quot;Comic Sans MS&quot;" text-anchor="middle" font-size="13px" width="10px" fill="#323232" font-weight="400" align="middle" lineHeight="125%" anchor="middle" family="&quot;Comic Sans MS&quot;" size="13px" weight="400" font-style="" opacity="1" y="4.375" transform="rotate(0)"><tspan id="SvgjsTspan1015" dy="16.25" x="15"><tspan id="SvgjsTspan1016" style="">0</tspan></tspan></text></g></g><g id="SvgjsG1017" transform="translate(81,75)"><path id="SvgjsPath1018" d="M 0 4Q 0 0 4 0L 26 0Q 30 0 30 4L 30 26Q 30 30 26 30L 4 30Q 0 30 0 26Z" stroke="none" fill-opacity="1" fill="#f7d777"></path><g id="SvgjsG1019"><text id="SvgjsText1020" font-family="&quot;Comic Sans MS&quot;" text-anchor="middle" font-size="13px" width="10px" fill="#323232" font-weight="400" align="middle" lineHeight="125%" anchor="middle" family="&quot;Comic Sans MS&quot;" size="13px" weight="400" font-style="" opacity="1" y="4.375" transform="rotate(0)"><tspan id="SvgjsTspan1021" dy="16.25" x="15"><tspan id="SvgjsTspan1022" style="">0</tspan></tspan></text></g></g><g id="SvgjsG1023" transform="translate(137,75)"><path id="SvgjsPath1024" d="M 0 4Q 0 0 4 0L 26 0Q 30 0 30 4L 30 26Q 30 30 26 30L 4 30Q 0 30 0 26Z" stroke="none" fill-opacity="1" fill="#f7d777"></path><g id="SvgjsG1025"><text id="SvgjsText1026" font-family="&quot;Comic Sans MS&quot;" text-anchor="middle" font-size="13px" width="10px" fill="#323232" font-weight="400" align="middle" lineHeight="125%" anchor="middle" family="&quot;Comic Sans MS&quot;" size="13px" weight="400" font-style="" opacity="1" y="4.375" transform="rotate(0)"><tspan id="SvgjsTspan1027" dy="16.25" x="15"><tspan id="SvgjsTspan1028" style="">0</tspan></tspan></text></g></g><g id="SvgjsG1029" transform="translate(193,75)"><path id="SvgjsPath1030" d="M 0 4Q 0 0 4 0L 26 0Q 30 0 30 4L 30 26Q 30 30 26 30L 4 30Q 0 30 0 26Z" stroke="none" fill-opacity="1" fill="#f7d777"></path><g id="SvgjsG1031"><text id="SvgjsText1032" font-family="&quot;Comic Sans MS&quot;" text-anchor="middle" font-size="13px" width="10px" fill="#323232" font-weight="400" align="middle" lineHeight="125%" anchor="middle" family="&quot;Comic Sans MS&quot;" size="13px" weight="400" font-style="" opacity="1" y="4.375" transform="rotate(0)"><tspan id="SvgjsTspan1033" dy="16.25" x="15"><tspan id="SvgjsTspan1034" style="">0</tspan></tspan></text></g></g><g id="SvgjsG1035" transform="translate(249,75)"><path id="SvgjsPath1036" d="M 0 4Q 0 0 4 0L 26 0Q 30 0 30 4L 30 26Q 30 30 26 30L 4 30Q 0 30 0 26Z" stroke="none" fill-opacity="1" fill="#f7d777"></path><g id="SvgjsG1037"><text id="SvgjsText1038" font-family="&quot;Comic Sans MS&quot;" text-anchor="middle" font-size="13px" width="10px" fill="#323232" font-weight="400" align="middle" lineHeight="125%" anchor="middle" family="&quot;Comic Sans MS&quot;" size="13px" weight="400" font-style="" opacity="1" y="4.375" transform="rotate(0)"><tspan id="SvgjsTspan1039" dy="16.25" x="15"><tspan id="SvgjsTspan1040" style="">0</tspan></tspan></text></g></g><g id="SvgjsG1041" transform="translate(305,75)"><path id="SvgjsPath1042" d="M 0 4Q 0 0 4 0L 26 0Q 30 0 30 4L 30 26Q 30 30 26 30L 4 30Q 0 30 0 26Z" stroke="none" fill-opacity="1" fill="#f7d777"></path><g id="SvgjsG1043"><text id="SvgjsText1044" font-family="&quot;Comic Sans MS&quot;" text-anchor="middle" font-size="13px" width="10px" fill="#323232" font-weight="400" align="middle" lineHeight="125%" anchor="middle" family="&quot;Comic Sans MS&quot;" size="13px" weight="400" font-style="" opacity="1" y="4.375" transform="rotate(0)"><tspan id="SvgjsTspan1045" dy="16.25" x="15"><tspan id="SvgjsTspan1046" style="">0</tspan></tspan></text></g></g><g id="SvgjsG1047" transform="translate(361,75)"><path id="SvgjsPath1048" d="M 0 4Q 0 0 4 0L 26 0Q 30 0 30 4L 30 26Q 30 30 26 30L 4 30Q 0 30 0 26Z" stroke="none" fill-opacity="1" fill="#f7d777"></path><g id="SvgjsG1049"><text id="SvgjsText1050" font-family="&quot;Comic Sans MS&quot;" text-anchor="middle" font-size="13px" width="10px" fill="#323232" font-weight="400" align="middle" lineHeight="125%" anchor="middle" family="&quot;Comic Sans MS&quot;" size="13px" weight="400" font-style="" opacity="1" y="4.375" transform="rotate(0)"><tspan id="SvgjsTspan1051" dy="16.25" x="15"><tspan id="SvgjsTspan1052" style="">0</tspan></tspan></text></g></g><g id="SvgjsG1053" transform="translate(417,75)"><path id="SvgjsPath1054" d="M 0 4Q 0 0 4 0L 26 0Q 30 0 30 4L 30 26Q 30 30 26 30L 4 30Q 0 30 0 26Z" stroke="none" fill-opacity="1" fill="#f7d777"></path><g id="SvgjsG1055"><text id="SvgjsText1056" font-family="&quot;Comic Sans MS&quot;" text-anchor="middle" font-size="13px" width="10px" fill="#323232" font-weight="400" align="middle" lineHeight="125%" anchor="middle" family="&quot;Comic Sans MS&quot;" size="13px" weight="400" font-style="" opacity="1" y="4.375" transform="rotate(0)"><tspan id="SvgjsTspan1057" dy="16.25" x="15"><tspan id="SvgjsTspan1058" style="">0</tspan></tspan></text></g></g><g id="SvgjsG1059" transform="translate(25,115)"><path id="SvgjsPath1060" d="M 0 4Q 0 0 4 0L 26 0Q 30 0 30 4L 30 26Q 30 30 26 30L 4 30Q 0 30 0 26Z" stroke="none" fill="none"></path><g id="SvgjsG1061"><text id="SvgjsText1062" font-family="&quot;Comic Sans MS&quot;" text-anchor="middle" font-size="13px" width="10px" fill="#323232" font-weight="400" align="middle" lineHeight="125%" anchor="middle" family="&quot;Comic Sans MS&quot;" size="13px" weight="400" font-style="" opacity="1" y="4.375" transform="rotate(0)"><tspan id="SvgjsTspan1063" dy="16.25" x="15"><tspan id="SvgjsTspan1064" style="">0</tspan></tspan></text></g></g><g id="SvgjsG1065" transform="translate(81,115)"><path id="SvgjsPath1066" d="M 0 4Q 0 0 4 0L 26 0Q 30 0 30 4L 30 26Q 30 30 26 30L 4 30Q 0 30 0 26Z" stroke="none" fill="none"></path><g id="SvgjsG1067"><text id="SvgjsText1068" font-family="&quot;Comic Sans MS&quot;" text-anchor="middle" font-size="13px" width="10px" fill="#323232" font-weight="400" align="middle" lineHeight="125%" anchor="middle" family="&quot;Comic Sans MS&quot;" size="13px" weight="400" font-style="" opacity="1" y="4.375" transform="rotate(0)"><tspan id="SvgjsTspan1069" dy="16.25" x="15"><tspan id="SvgjsTspan1070" style="">1</tspan></tspan></text></g></g><g id="SvgjsG1071" transform="translate(137,115)"><path id="SvgjsPath1072" d="M 0 4Q 0 0 4 0L 26 0Q 30 0 30 4L 30 26Q 30 30 26 30L 4 30Q 0 30 0 26Z" stroke="none" fill="none"></path><g id="SvgjsG1073"><text id="SvgjsText1074" font-family="&quot;Comic Sans MS&quot;" text-anchor="middle" font-size="13px" width="10px" fill="#323232" font-weight="400" align="middle" lineHeight="125%" anchor="middle" family="&quot;Comic Sans MS&quot;" size="13px" weight="400" font-style="" opacity="1" y="4.375" transform="rotate(0)"><tspan id="SvgjsTspan1075" dy="16.25" x="15"><tspan id="SvgjsTspan1076" style="">2</tspan></tspan></text></g></g><g id="SvgjsG1077" transform="translate(193,115)"><path id="SvgjsPath1078" d="M 0 4Q 0 0 4 0L 26 0Q 30 0 30 4L 30 26Q 30 30 26 30L 4 30Q 0 30 0 26Z" stroke="none" fill="none"></path><g id="SvgjsG1079"><text id="SvgjsText1080" font-family="&quot;Comic Sans MS&quot;" text-anchor="middle" font-size="13px" width="10px" fill="#323232" font-weight="400" align="middle" lineHeight="125%" anchor="middle" family="&quot;Comic Sans MS&quot;" size="13px" weight="400" font-style="" opacity="1" y="4.375" transform="rotate(0)"><tspan id="SvgjsTspan1081" dy="16.25" x="15"><tspan id="SvgjsTspan1082" style="">3</tspan></tspan></text></g></g><g id="SvgjsG1083" transform="translate(249,115)"><path id="SvgjsPath1084" d="M 0 4Q 0 0 4 0L 26 0Q 30 0 30 4L 30 26Q 30 30 26 30L 4 30Q 0 30 0 26Z" stroke="none" fill="none"></path><g id="SvgjsG1085"><text id="SvgjsText1086" font-family="&quot;Comic Sans MS&quot;" text-anchor="middle" font-size="13px" width="10px" fill="#323232" font-weight="400" align="middle" lineHeight="125%" anchor="middle" family="&quot;Comic Sans MS&quot;" size="13px" weight="400" font-style="" opacity="1" y="4.375" transform="rotate(0)"><tspan id="SvgjsTspan1087" dy="16.25" x="15"><tspan id="SvgjsTspan1088" style="">4</tspan></tspan></text></g></g><g id="SvgjsG1089" transform="translate(305,115)"><path id="SvgjsPath1090" d="M 0 4Q 0 0 4 0L 26 0Q 30 0 30 4L 30 26Q 30 30 26 30L 4 30Q 0 30 0 26Z" stroke="none" fill="none"></path><g id="SvgjsG1091"><text id="SvgjsText1092" font-family="&quot;Comic Sans MS&quot;" text-anchor="middle" font-size="13px" width="10px" fill="#323232" font-weight="400" align="middle" lineHeight="125%" anchor="middle" family="&quot;Comic Sans MS&quot;" size="13px" weight="400" font-style="" opacity="1" y="4.375" transform="rotate(0)"><tspan id="SvgjsTspan1093" dy="16.25" x="15"><tspan id="SvgjsTspan1094" style="">5</tspan></tspan></text></g></g><g id="SvgjsG1095" transform="translate(361,115)"><path id="SvgjsPath1096" d="M 0 4Q 0 0 4 0L 26 0Q 30 0 30 4L 30 26Q 30 30 26 30L 4 30Q 0 30 0 26Z" stroke="none" fill="none"></path><g id="SvgjsG1097"><text id="SvgjsText1098" font-family="&quot;Comic Sans MS&quot;" text-anchor="middle" font-size="13px" width="10px" fill="#323232" font-weight="400" align="middle" lineHeight="125%" anchor="middle" family="&quot;Comic Sans MS&quot;" size="13px" weight="400" font-style="" opacity="1" y="4.375" transform="rotate(0)"><tspan id="SvgjsTspan1099" dy="16.25" x="15"><tspan id="SvgjsTspan1100" style="">6</tspan></tspan></text></g></g><g id="SvgjsG1101" transform="translate(417,115)"><path id="SvgjsPath1102" d="M 0 4Q 0 0 4 0L 26 0Q 30 0 30 4L 30 26Q 30 30 26 30L 4 30Q 0 30 0 26Z" stroke="none" fill="none"></path><g id="SvgjsG1103"><text id="SvgjsText1104" font-family="&quot;Comic Sans MS&quot;" text-anchor="middle" font-size="13px" width="10px" fill="#323232" font-weight="400" align="middle" lineHeight="125%" anchor="middle" family="&quot;Comic Sans MS&quot;" size="13px" weight="400" font-style="" opacity="1" y="4.375" transform="rotate(0)"><tspan id="SvgjsTspan1105" dy="16.25" x="15"><tspan id="SvgjsTspan1106" style="">7</tspan></tspan></text></g></g><g id="SvgjsG1107" transform="translate(182.42857142857144,25)"><path id="SvgjsPath1108" d="M 0 0L 214.57142857142856 0L 214.57142857142856 40L 0 40Z" stroke="none" fill="none"></path><g id="SvgjsG1109"><text id="SvgjsText1110" font-family="&quot;Comic Sans MS&quot;" text-anchor="middle" font-size="15px" width="215px" fill="#696873" font-weight="700" align="middle" lineHeight="125%" anchor="middle" family="&quot;Comic Sans MS&quot;" size="15px" weight="700" font-style="" opacity="1" y="7.625" transform="rotate(0)"><tspan id="SvgjsTspan1111" dy="18.75" x="107.5"><tspan id="SvgjsTspan1112" style="">布隆过滤器 - 初始化</tspan></tspan></text></g></g><g id="SvgjsG1113" transform="translate(473,75)"><path id="SvgjsPath1114" d="M 0 4Q 0 0 4 0L 26 0Q 30 0 30 4L 30 26Q 30 30 26 30L 4 30Q 0 30 0 26Z" stroke="none" fill-opacity="1" fill="#f7d777"></path><g id="SvgjsG1115"><text id="SvgjsText1116" font-family="&quot;Comic Sans MS&quot;" text-anchor="middle" font-size="13px" width="10px" fill="#323232" font-weight="400" align="middle" lineHeight="125%" anchor="middle" family="&quot;Comic Sans MS&quot;" size="13px" weight="400" font-style="" opacity="1" y="4.375" transform="rotate(0)"><tspan id="SvgjsTspan1117" dy="16.25" x="15"><tspan id="SvgjsTspan1118" style="">0</tspan></tspan></text></g></g><g id="SvgjsG1119" transform="translate(529,75)"><path id="SvgjsPath1120" d="M 0 4Q 0 0 4 0L 26 0Q 30 0 30 4L 30 26Q 30 30 26 30L 4 30Q 0 30 0 26Z" stroke="none" fill-opacity="1" fill="#f7d777"></path><g id="SvgjsG1121"><text id="SvgjsText1122" font-family="&quot;Comic Sans MS&quot;" text-anchor="middle" font-size="13px" width="10px" fill="#323232" font-weight="400" align="middle" lineHeight="125%" anchor="middle" family="&quot;Comic Sans MS&quot;" size="13px" weight="400" font-style="" opacity="1" y="4.375" transform="rotate(0)"><tspan id="SvgjsTspan1123" dy="16.25" x="15"><tspan id="SvgjsTspan1124" style="">0</tspan></tspan></text></g></g><g id="SvgjsG1125" transform="translate(473,115)"><path id="SvgjsPath1126" d="M 0 4Q 0 0 4 0L 26 0Q 30 0 30 4L 30 26Q 30 30 26 30L 4 30Q 0 30 0 26Z" stroke="none" fill="none"></path><g id="SvgjsG1127"><text id="SvgjsText1128" font-family="&quot;Comic Sans MS&quot;" text-anchor="middle" font-size="13px" width="10px" fill="#323232" font-weight="400" align="middle" lineHeight="125%" anchor="middle" family="&quot;Comic Sans MS&quot;" size="13px" weight="400" font-style="" opacity="1" y="4.375" transform="rotate(0)"><tspan id="SvgjsTspan1129" dy="16.25" x="15"><tspan id="SvgjsTspan1130" style="">8</tspan></tspan></text></g></g><g id="SvgjsG1131" transform="translate(529,115)"><path id="SvgjsPath1132" d="M 0 4Q 0 0 4 0L 26 0Q 30 0 30 4L 30 26Q 30 30 26 30L 4 30Q 0 30 0 26Z" stroke="none" fill="none"></path><g id="SvgjsG1133"><text id="SvgjsText1134" font-family="&quot;Comic Sans MS&quot;" text-anchor="middle" font-size="13px" width="10px" fill="#323232" font-weight="400" align="middle" lineHeight="125%" anchor="middle" family="&quot;Comic Sans MS&quot;" size="13px" weight="400" font-style="" opacity="1" y="4.375" transform="rotate(0)"><tspan id="SvgjsTspan1135" dy="16.25" x="15"><tspan id="SvgjsTspan1136" style="">9</tspan></tspan></text></g></g></svg>