<svg id="SvgjsSvg2402" width="488" height="444" xmlns="http://www.w3.org/2000/svg" version="1.1" xmlns:xlink="http://www.w3.org/1999/xlink" xmlns:svgjs="http://svgjs.com/svgjs"><defs id="SvgjsDefs2403"><pattern patternUnits="userSpaceOnUse" id="pattern_mark_0" width="300" height="300"><text x="150" y="100" fill="rgba(229,229,229,0.8)" font-size="18" transform="rotate(-45, 150, 150)" style="dominant-baseline: middle; text-anchor: middle;"></text></pattern><pattern patternUnits="userSpaceOnUse" id="pattern_mark_1" width="300" height="300"><text x="150" y="200" fill="rgba(229,229,229,0.8)" font-size="18" transform="rotate(-45, 150, 150)" style="dominant-baseline: middle; text-anchor: middle;"></text></pattern><marker id="SvgjsMarker2409" markerWidth="13" markerHeight="9" refX="9.5" refY="4.5" viewBox="0 0 13 9" orient="auto" markerUnits="userSpaceOnUse" stroke-dasharray="0,0"><path id="SvgjsPath2410" d="M0,0 L13,4.5 L0,9 L0,0" fill="#323232" stroke="#323232" stroke-width="1"></path></marker><marker id="SvgjsMarker2459" markerWidth="13" markerHeight="9" refX="9.5" refY="4.5" viewBox="0 0 13 9" orient="auto" markerUnits="userSpaceOnUse" stroke-dasharray="0,0"><path id="SvgjsPath2460" d="M0,0 L13,4.5 L0,9 L0,0" fill="#323232" stroke="#323232" stroke-width="1"></path></marker><marker id="SvgjsMarker2479" markerWidth="13" markerHeight="9" refX="9.5" refY="4.5" viewBox="0 0 13 9" orient="auto" markerUnits="userSpaceOnUse" stroke-dasharray="0,0"><path id="SvgjsPath2480" d="M0,0 L13,4.5 L0,9 L0,0" fill="#323232" stroke="#323232" stroke-width="1"></path></marker></defs><rect id="svgbackgroundid" width="488" height="444" fill="transparent"></rect><rect id="SvgjsRect2405" width="488" height="444" fill="url(#pattern_mark_0)"></rect><rect id="SvgjsRect2406" width="488" height="444" fill="url(#pattern_mark_1)"></rect><g id="SvgjsG2407"><path id="SvgjsPath2408" d="M49 30L49 224.5L49 224.5L49 419" stroke="#323232" stroke-width="1.5" fill="none" marker-end="url(#SvgjsMarker2409)"></path></g><g id="SvgjsG2411" transform="translate(25,100)"><path id="SvgjsPath2412" d="M 0 0L 20 0L 20 148L 0 148Z" stroke="none" fill="none"></path><g id="SvgjsG2413"><text id="SvgjsText2414" font-family="微软雅黑" text-anchor="middle" font-size="16px" width="20px" fill="#323232" font-weight="700" align="middle" lineHeight="125%" anchor="middle" family="微软雅黑" size="16px" weight="700" font-style="" opacity="1" y="10" transform="rotate(0)"><tspan id="SvgjsTspan2415" dy="20" x="10"><tspan id="SvgjsTspan2416" style="">指</tspan></tspan><tspan id="SvgjsTspan2417" dy="20" x="10"><tspan id="SvgjsTspan2418" style="">令</tspan></tspan><tspan id="SvgjsTspan2419" dy="20" x="10"><tspan id="SvgjsTspan2420" style="">执</tspan></tspan><tspan id="SvgjsTspan2421" dy="20" x="10"><tspan id="SvgjsTspan2422" style="">行</tspan></tspan><tspan id="SvgjsTspan2423" dy="20" x="10"><tspan id="SvgjsTspan2424" style="">顺</tspan></tspan><tspan id="SvgjsTspan2425" dy="20" x="10"><tspan id="SvgjsTspan2426" style="">序</tspan></tspan></text></g></g><g id="SvgjsG2427" transform="translate(197.5,109.25)"><path id="SvgjsPath2428" d="M 0 0L 121 0L 121 53L 0 53Z" stroke="rgba(33,41,48,1)" stroke-width="1.5" fill-opacity="1" fill="#ffffff"></path><g id="SvgjsG2429"><text id="SvgjsText2430" font-family="微软雅黑" text-anchor="middle" font-size="13px" width="101px" fill="#323232" font-weight="400" align="middle" lineHeight="125%" anchor="middle" family="微软雅黑" size="13px" weight="400" font-style="" opacity="1" y="15.875" transform="rotate(0)"><tspan id="SvgjsTspan2431" dy="16.25" x="60.5"><tspan id="SvgjsTspan2432" style="">LoadLoad屏障</tspan></tspan></text></g></g><g id="SvgjsG2433" transform="translate(197.5,193.5)"><path id="SvgjsPath2434" d="M 0 0L 121 0L 121 53L 0 53Z" stroke="rgba(33,41,48,1)" stroke-width="1.5" fill-opacity="1" fill="#ffffff"></path><g id="SvgjsG2435"><text id="SvgjsText2436" font-family="微软雅黑" text-anchor="middle" font-size="13px" width="101px" fill="#323232" font-weight="400" align="middle" lineHeight="125%" anchor="middle" family="微软雅黑" size="13px" weight="400" font-style="" opacity="1" y="15.875" transform="rotate(0)"><tspan id="SvgjsTspan2437" dy="16.25" x="60.5"><tspan id="SvgjsTspan2438" style="">LoadStore屏障</tspan></tspan></text></g></g><g id="SvgjsG2439" transform="translate(197.5,277.75)"><path id="SvgjsPath2440" d="M 0 0L 121 0L 121 53L 0 53Z" stroke="rgba(33,41,48,1)" stroke-width="1.5" fill-opacity="1" fill="#ffffff"></path><g id="SvgjsG2441"><text id="SvgjsText2442" font-family="微软雅黑" text-anchor="middle" font-size="13px" width="101px" fill="#323232" font-weight="400" align="middle" lineHeight="125%" anchor="middle" family="微软雅黑" size="13px" weight="400" font-style="" opacity="1" y="15.875" transform="rotate(0)"><tspan id="SvgjsTspan2443" dy="16.25" x="60.5"><tspan id="SvgjsTspan2444" style="">普通读</tspan></tspan></text></g></g><g id="SvgjsG2445" transform="translate(197.5,362)"><path id="SvgjsPath2446" d="M 0 0L 121 0L 121 53L 0 53Z" stroke="rgba(33,41,48,1)" stroke-width="1.5" fill-opacity="1" fill="#ffffff"></path><g id="SvgjsG2447"><text id="SvgjsText2448" font-family="微软雅黑" text-anchor="middle" font-size="13px" width="101px" fill="#323232" font-weight="400" align="middle" lineHeight="125%" anchor="middle" family="微软雅黑" size="13px" weight="400" font-style="" opacity="1" y="15.875" transform="rotate(0)"><tspan id="SvgjsTspan2449" dy="16.25" x="60.5"><tspan id="SvgjsTspan2450" style="">普通写</tspan></tspan></text></g></g><g id="SvgjsG2451" transform="translate(197.5,25)"><path id="SvgjsPath2452" d="M 0 0L 121 0L 121 53L 0 53Z" stroke="rgba(33,41,48,1)" stroke-width="1.5" fill-opacity="1" fill="#ffffff"></path><g id="SvgjsG2453"><text id="SvgjsText2454" font-family="微软雅黑" text-anchor="middle" font-size="13px" width="101px" fill="#323232" font-weight="400" align="middle" lineHeight="125%" anchor="middle" family="微软雅黑" size="13px" weight="400" font-style="" opacity="1" y="15.875" transform="rotate(0)"><tspan id="SvgjsTspan2455" dy="16.25" x="60.5"><tspan id="SvgjsTspan2456" style="">volatile读</tspan></tspan></text></g></g><g id="SvgjsG2457"><path id="SvgjsPath2458" d="M196.8649009015292 135.3510649988763L154.6512576560241 108.83473100292167" stroke="#323232" stroke-width="1.5" fill="none" marker-end="url(#SvgjsMarker2459)"></path></g><g id="SvgjsG2461" transform="translate(63,68.25)"><path id="SvgjsPath2462" d="M 0 0L 74 0L 90 16L 90 84L 0 84L 0 0Z" stroke="none" fill-opacity="1" fill="#fff7bc"></path><path id="SvgjsPath2463" d="M 74 0L 74 16L 90 16Z" stroke="none" fill-opacity="1" fill="#e4d089"></path><path id="SvgjsPath2464" d="M 0 0L 74 0L 90 16L 90 84L 0 84L 0 0Z" stroke="none" fill="none"></path><g id="SvgjsG2465"><text id="SvgjsText2466" font-family="微软雅黑" text-anchor="middle" font-size="13px" width="70px" fill="#323232" font-weight="400" align="middle" lineHeight="125%" anchor="middle" family="微软雅黑" size="13px" weight="400" font-style="" opacity="1" y="-1.125" transform="rotate(0)"><tspan id="SvgjsTspan2467" dy="16.25" x="45"><tspan id="SvgjsTspan2468" style="">禁止下面所</tspan></tspan><tspan id="SvgjsTspan2469" dy="16.25" x="45"><tspan id="SvgjsTspan2470" style="">有的普通读</tspan></tspan><tspan id="SvgjsTspan2471" dy="16.25" x="45"><tspan id="SvgjsTspan2472" style="">操作和上面</tspan></tspan><tspan id="SvgjsTspan2473" dy="16.25" x="45"><tspan id="SvgjsTspan2474" style="">的volatile读</tspan></tspan><tspan id="SvgjsTspan2475" dy="16.25" x="45"><tspan id="SvgjsTspan2476" style="">重排序</tspan></tspan></text></g></g><g id="SvgjsG2477"><path id="SvgjsPath2478" d="M319.16210069991786 220.3523104641765L371.2785381802135 248.08399279314114" stroke="#323232" stroke-width="1.5" fill="none" marker-end="url(#SvgjsMarker2479)"></path></g><g id="SvgjsG2481" transform="translate(373,207)"><path id="SvgjsPath2482" d="M 0 0L 74 0L 90 16L 90 84L 0 84L 0 0Z" stroke="none" fill-opacity="1" fill="#fff7bc"></path><path id="SvgjsPath2483" d="M 74 0L 74 16L 90 16Z" stroke="none" fill-opacity="1" fill="#e4d089"></path><path id="SvgjsPath2484" d="M 0 0L 74 0L 90 16L 90 84L 0 84L 0 0Z" stroke="none" fill="none"></path><g id="SvgjsG2485"><text id="SvgjsText2486" font-family="微软雅黑" text-anchor="middle" font-size="13px" width="70px" fill="#323232" font-weight="400" align="middle" lineHeight="125%" anchor="middle" family="微软雅黑" size="13px" weight="400" font-style="" opacity="1" y="-1.125" transform="rotate(0)"><tspan id="SvgjsTspan2487" dy="16.25" x="45"><tspan id="SvgjsTspan2488" style="">禁止下面所</tspan></tspan><tspan id="SvgjsTspan2489" dy="16.25" x="45"><tspan id="SvgjsTspan2490" style="">有的普通写</tspan></tspan><tspan id="SvgjsTspan2491" dy="16.25" x="45"><tspan id="SvgjsTspan2492" style="">操作和上面</tspan></tspan><tspan id="SvgjsTspan2493" dy="16.25" x="45"><tspan id="SvgjsTspan2494" style="">的volatile读</tspan></tspan><tspan id="SvgjsTspan2495" dy="16.25" x="45"><tspan id="SvgjsTspan2496" style="">重排序</tspan></tspan></text></g></g></svg>