<svg id="SvgjsSvg1006" width="634.21875" height="453.18478260869574" xmlns="http://www.w3.org/2000/svg" version="1.1" xmlns:xlink="http://www.w3.org/1999/xlink" xmlns:svgjs="http://svgjs.com/svgjs"><defs id="SvgjsDefs1007"><pattern patternUnits="userSpaceOnUse" id="pattern_mark_0" width="300" height="300"><text x="150" y="100" fill="rgba(73,76,88,0.8)" font-size="18" transform="rotate(-45, 150, 150)" style="dominant-baseline: middle; text-anchor: middle;"></text></pattern><pattern patternUnits="userSpaceOnUse" id="pattern_mark_1" width="300" height="300"><text x="150" y="200" fill="rgba(73,76,88,0.8)" font-size="18" transform="rotate(-45, 150, 150)" style="dominant-baseline: middle; text-anchor: middle;"></text></pattern><marker id="SvgjsMarker1101" markerWidth="16" markerHeight="16" refX="11" refY="8" viewBox="0 0 16 16" orient="auto" markerUnits="userSpaceOnUse" stroke-dasharray="0,0"><path id="SvgjsPath1102" d="M0,0 L10,8 L0,16" fill="none" stroke="#ffffff" stroke-width="2"></path></marker><marker id="SvgjsMarker1153" markerWidth="16" markerHeight="16" refX="11" refY="8" viewBox="0 0 16 16" orient="auto" markerUnits="userSpaceOnUse" stroke-dasharray="0,0"><path id="SvgjsPath1154" d="M0,0 L10,8 L0,16" fill="none" stroke="#ffffff" stroke-width="2"></path></marker><marker id="SvgjsMarker1177" markerWidth="16" markerHeight="16" refX="11" refY="8" viewBox="0 0 16 16" orient="auto" markerUnits="userSpaceOnUse" stroke-dasharray="0,0"><path id="SvgjsPath1178" d="M0,0 L10,8 L0,16" fill="none" stroke="#ffffff" stroke-width="2"></path></marker><marker id="SvgjsMarker1201" markerWidth="14" markerHeight="10" refX="10" refY="5" viewBox="0 0 14 10" orient="auto" markerUnits="userSpaceOnUse" stroke-dasharray="0,0"><path id="SvgjsPath1202" d="M0,0 L14,5 L0,10 L0,0" fill="#ffffff" stroke="#ffffff" stroke-width="1"></path></marker><marker id="SvgjsMarker1213" markerWidth="16" markerHeight="16" refX="11" refY="8" viewBox="0 0 16 16" orient="auto" markerUnits="userSpaceOnUse" stroke-dasharray="0,0"><path id="SvgjsPath1214" d="M0,0 L10,8 L0,16" fill="none" stroke="#ffffff" stroke-width="2"></path></marker><marker id="SvgjsMarker1237" markerWidth="16" markerHeight="16" refX="11" refY="8" viewBox="0 0 16 16" orient="auto" markerUnits="userSpaceOnUse" stroke-dasharray="0,0"><path id="SvgjsPath1238" d="M0,0 L10,8 L0,16" fill="none" stroke="#ffffff" stroke-width="2"></path></marker></defs><rect id="svgbackgroundid" width="634.21875" height="453.18478260869574" fill="#515562"></rect><rect id="SvgjsRect1009" width="634.21875" height="453.18478260869574" fill="url(#pattern_mark_0)"></rect><rect id="SvgjsRect1010" width="634.21875" height="453.18478260869574" fill="url(#pattern_mark_1)"></rect><g id="SvgjsG1011" transform="translate(30.21875,29)"><path id="SvgjsPath1012" d="M 0 0L 450 0L 450 275L 0 275Z" stroke="rgba(255,255,255,1)" stroke-width="1.5" fill="none"></path><g id="SvgjsG1013"><text id="SvgjsText1014" font-family="微软雅黑" text-anchor="middle" font-size="13px" width="430px" fill="#323232" font-weight="400" align="middle" lineHeight="125%" anchor="middle" family="微软雅黑" size="13px" weight="400" font-style="" opacity="1" y="126.875" transform="rotate(0)"></text></g></g><g id="SvgjsG1015" transform="translate(120.21875,54)"><path id="SvgjsPath1016" d="M 0 0L 90 0L 90 250L 0 250Z" stroke="rgba(255,255,255,1)" stroke-width="0.5" fill="none"></path><g id="SvgjsG1017"><text id="SvgjsText1018" font-family="微软雅黑" text-anchor="middle" font-size="13px" width="70px" fill="#323232" font-weight="400" align="middle" lineHeight="125%" anchor="middle" family="微软雅黑" size="13px" weight="400" font-style="" opacity="1" y="114.375" transform="rotate(0)"></text></g></g><g id="SvgjsG1019" transform="translate(489.21875,54)"><path id="SvgjsPath1020" d="M 0 120Q 9 120 9 111L 9 69Q 9 60 22 60Q 9 60 9 51L 9 9Q 9 0 0 0" stroke="rgba(255,255,255,1)" stroke-width="2" fill="none"></path><path id="SvgjsPath1021" d="M 0 0L 120 0L 120 120L 0 120Z" stroke="none" fill="none"></path><g id="SvgjsG1022"><text id="SvgjsText1023" font-family="&quot;Comic Sans MS&quot;" text-anchor="start" font-size="13px" width="93px" fill="#ffffff" font-weight="700" align="middle" lineHeight="125%" anchor="start" family="&quot;Comic Sans MS&quot;" size="13px" weight="700" font-style="" opacity="1" y="49.375" transform="rotate(0)"><tspan id="SvgjsTspan1024" dy="16.25" x="27"><tspan id="SvgjsTspan1025" style="">等待数据</tspan></tspan></text></g></g><g id="SvgjsG1026" transform="translate(489.21875,184)"><path id="SvgjsPath1027" d="M 0 120Q 9 120 9 111L 9 69Q 9 60 22 60Q 9 60 9 51L 9 9Q 9 0 0 0" stroke="rgba(255,255,255,1)" stroke-width="2" fill="none"></path><path id="SvgjsPath1028" d="M 0 0L 120 0L 120 120L 0 120Z" stroke="none" fill="none"></path><g id="SvgjsG1029"><text id="SvgjsText1030" font-family="&quot;Comic Sans MS&quot;" text-anchor="start" font-size="13px" width="93px" fill="#ffffff" font-weight="700" align="middle" lineHeight="125%" anchor="start" family="&quot;Comic Sans MS&quot;" size="13px" weight="700" font-style="" opacity="1" y="40.875" transform="rotate(0)"><tspan id="SvgjsTspan1031" dy="16.25" x="27"><tspan id="SvgjsTspan1032" style="">将数据从内核复</tspan></tspan><tspan id="SvgjsTspan1033" dy="16.25" x="27"><tspan id="SvgjsTspan1034" style="">制到用户空间</tspan></tspan></text></g></g><g id="SvgjsG1035" transform="translate(46.618206521739154,330.92527173913044)"><path id="SvgjsPath1036" d="M 0 0L 326.6440217391304 0L 326.6440217391304 20L 0 20Z" stroke="none" fill="none"></path><g id="SvgjsG1037"><text id="SvgjsText1038" font-family="&quot;Comic Sans MS&quot;" text-anchor="middle" font-size="12px" width="327px" fill="#323232" font-weight="400" align="middle" lineHeight="125%" anchor="middle" family="&quot;Comic Sans MS&quot;" size="12px" weight="400" font-style="" opacity="1" y="0" transform="rotate(0)"><tspan id="SvgjsTspan1039" dy="15" x="163.5"><tspan id="SvgjsTspan1040" style="fill: rgb(255, 255, 255);">第一阶段处理不同，第二阶段处理相同(阻塞于recvfrom调用)</tspan></tspan></text></g></g><g id="SvgjsG1041" transform="translate(390.21875,29)"><path id="SvgjsPath1042" d="M 0 0L 90 0L 90 25L 0 25Z" stroke="rgba(255,255,255,1)" stroke-width="2" fill="none"></path><g id="SvgjsG1043"><text id="SvgjsText1044" font-family="微软雅黑" text-anchor="middle" font-size="13px" width="70px" fill="#ffffff" font-weight="700" align="middle" lineHeight="125%" anchor="middle" family="微软雅黑" size="13px" weight="700" font-style="" opacity="1" y="1.875" transform="rotate(0)"><tspan id="SvgjsTspan1045" dy="16.25" x="45"><tspan id="SvgjsTspan1046" style="">异步I/O</tspan></tspan></text></g></g><g id="SvgjsG1047" transform="translate(300.21875,29)"><path id="SvgjsPath1048" d="M 0 0L 90 0L 90 25L 0 25Z" stroke="rgba(255,255,255,1)" stroke-width="2" fill="none"></path><g id="SvgjsG1049"><text id="SvgjsText1050" font-family="微软雅黑" text-anchor="middle" font-size="13px" width="70px" fill="#ffffff" font-weight="700" align="middle" lineHeight="125%" anchor="middle" family="微软雅黑" size="13px" weight="700" font-style="" opacity="1" y="-6.625" transform="rotate(0)"><tspan id="SvgjsTspan1051" dy="16.25" x="45"><tspan id="SvgjsTspan1052" style="">信号驱动</tspan></tspan><tspan id="SvgjsTspan1053" dy="16.25" x="45"><tspan id="SvgjsTspan1054" style="">I/O</tspan></tspan></text></g></g><g id="SvgjsG1055" transform="translate(210.21875,29)"><path id="SvgjsPath1056" d="M 0 0L 90 0L 90 25L 0 25Z" stroke="rgba(255,255,255,1)" stroke-width="2" fill="none"></path><g id="SvgjsG1057"><text id="SvgjsText1058" font-family="微软雅黑" text-anchor="middle" font-size="13px" width="70px" fill="#ffffff" font-weight="700" align="middle" lineHeight="125%" anchor="middle" family="微软雅黑" size="13px" weight="700" font-style="" opacity="1" y="1.875" transform="rotate(0)"><tspan id="SvgjsTspan1059" dy="16.25" x="45"><tspan id="SvgjsTspan1060" style="">I/O复用</tspan></tspan></text></g></g><g id="SvgjsG1061" transform="translate(119.75,29)"><path id="SvgjsPath1062" d="M 0 0L 90 0L 90 25L 0 25Z" stroke="rgba(255,255,255,1)" stroke-width="2" fill="none"></path><g id="SvgjsG1063"><text id="SvgjsText1064" font-family="微软雅黑" text-anchor="middle" font-size="13px" width="70px" fill="#ffffff" font-weight="700" align="middle" lineHeight="125%" anchor="middle" family="微软雅黑" size="13px" weight="700" font-style="" opacity="1" y="-6.625" transform="rotate(0)"><tspan id="SvgjsTspan1065" dy="16.25" x="45"><tspan id="SvgjsTspan1066" style="">非阻塞式</tspan></tspan><tspan id="SvgjsTspan1067" dy="16.25" x="45"><tspan id="SvgjsTspan1068" style="">I/O</tspan></tspan></text></g></g><g id="SvgjsG1069" transform="translate(30.21875,29)"><path id="SvgjsPath1070" d="M 0 0L 90 0L 90 25L 0 25Z" stroke="rgba(255,255,255,1)" stroke-width="2" fill="none"></path><g id="SvgjsG1071"><text id="SvgjsText1072" font-family="微软雅黑" text-anchor="middle" font-size="13px" width="70px" fill="#ffffff" font-weight="700" align="middle" lineHeight="125%" anchor="middle" family="微软雅黑" size="13px" weight="700" font-style="" opacity="1" y="1.875" transform="rotate(0)"><tspan id="SvgjsTspan1073" dy="16.25" x="45"><tspan id="SvgjsTspan1074" style="">阻塞式I/O</tspan></tspan></text></g></g><g id="SvgjsG1075" transform="translate(30.21875,54)"><path id="SvgjsPath1076" d="M 0 0L 90 0L 90 250L 0 250Z" stroke="rgba(255,255,255,1)" stroke-width="0.5" fill="none"></path><g id="SvgjsG1077"><text id="SvgjsText1078" font-family="微软雅黑" text-anchor="middle" font-size="13px" width="70px" fill="#323232" font-weight="400" align="middle" lineHeight="125%" anchor="middle" family="微软雅黑" size="13px" weight="400" font-style="" opacity="1" y="114.375" transform="rotate(0)"></text></g></g><g id="SvgjsG1079" transform="translate(142.21875,59)"><path id="SvgjsPath1080" d="M 0 0L 41.5625 0L 41.5625 130L 0 130Z" stroke="none" fill="none"></path><g id="SvgjsG1081"><text id="SvgjsText1082" font-family="微软雅黑" text-anchor="middle" font-size="13px" width="42px" fill="#ffffff" font-weight="400" align="middle" lineHeight="125%" anchor="middle" family="微软雅黑" size="13px" weight="400" font-style="" opacity="1" y="-2.625" transform="rotate(0)"><tspan id="SvgjsTspan1083" dy="16.25" x="21"><tspan id="SvgjsTspan1084" style="">检查</tspan></tspan><tspan id="SvgjsTspan1085" dy="16.25" x="21"><tspan id="SvgjsTspan1086" style="">检查</tspan></tspan><tspan id="SvgjsTspan1087" dy="16.25" x="21"><tspan id="SvgjsTspan1088" style="">检查</tspan></tspan><tspan id="SvgjsTspan1089" dy="16.25" x="21"><tspan id="SvgjsTspan1090" style="">检查</tspan></tspan><tspan id="SvgjsTspan1091" dy="16.25" x="21"><tspan id="SvgjsTspan1092" style="">检查</tspan></tspan><tspan id="SvgjsTspan1093" dy="16.25" x="21"><tspan id="SvgjsTspan1094" style="">检查</tspan></tspan><tspan id="SvgjsTspan1095" dy="16.25" x="21"><tspan id="SvgjsTspan1096" style="">检查</tspan></tspan><tspan id="SvgjsTspan1097" dy="16.25" x="21"><tspan id="SvgjsTspan1098" style="">检查</tspan></tspan></text></g></g><g id="SvgjsG1099"><path id="SvgjsPath1100" d="M163 189.75L163 277.828125" stroke="#ffffff" stroke-width="2" fill="none" marker-end="url(#SvgjsMarker1101)"></path></g><g id="SvgjsG1103" transform="translate(113,279.0625)"><path id="SvgjsPath1104" d="M 0 0L 100 0L 100 20L 0 20Z" stroke="none" fill="none"></path><g id="SvgjsG1105"><text id="SvgjsText1106" font-family="微软雅黑" text-anchor="middle" font-size="13px" width="100px" fill="#ffffff" font-weight="400" align="middle" lineHeight="125%" anchor="middle" family="微软雅黑" size="13px" weight="400" font-style="" opacity="1" y="-0.625" transform="rotate(0)"><tspan id="SvgjsTspan1107" dy="16.25" x="50"><tspan id="SvgjsTspan1108" style="">完成</tspan></tspan></text></g></g><g id="SvgjsG1109" transform="matrix(-1.8369701987210297e-16,-1,1,-1.8369701987210297e-16,30.375000663425595,427.7499993365745)"><path id="SvgjsPath1110" d="M 120 0Q 111 0 111 9L 111 171.13926630434784Q 111 180.13926630434784 98 180.13926630434784Q 111 180.13926630434784 111 189.13926630434784L 111 351.2785326086957Q 111 360.2785326086957 120 360.2785326086957" stroke="rgba(255,255,255,1)" stroke-width="2" fill="none"></path><path id="SvgjsPath1111" d="M 0 0L 120 0L 120 360.2785326086957L 0 360.2785326086957Z" stroke="none" fill="none"></path><g id="SvgjsG1112"><text id="SvgjsText1113" font-family="微软雅黑" text-anchor="end" font-size="13px" width="93px" fill="#323232" font-weight="400" align="middle" lineHeight="125%" anchor="end" family="微软雅黑" size="13px" weight="400" font-style="" opacity="1" y="169.51426630434784" transform="rotate(0)"></text></g></g><g id="SvgjsG1114" transform="matrix(-1.8369701987210297e-16,-1,1,-1.8369701987210297e-16,394.9402160644532,428.1847839355468)"><path id="SvgjsPath1115" d="M 120 0Q 111 0 111 8.48437499999999L 111 33.93749999999996Q 111 42.42187499999994 98 42.42187499999994Q 111 42.42187499999994 111 50.90624999999993L 111 76.3593749999999Q 111 84.84374999999989 120 84.84374999999989" stroke="rgba(255,255,255,1)" stroke-width="2" fill="none"></path><path id="SvgjsPath1116" d="M 0 0L 120 0L 120 84.84374999999989L 0 84.84374999999989Z" stroke="none" fill="none"></path><g id="SvgjsG1117"><text id="SvgjsText1118" font-family="微软雅黑" text-anchor="end" font-size="13px" width="93px" fill="#323232" font-weight="400" align="middle" lineHeight="125%" anchor="end" family="微软雅黑" size="13px" weight="400" font-style="" opacity="1" y="31.796874999999943" transform="rotate(0)"></text></g></g><g id="SvgjsG1119" transform="translate(384.9402173913044,330.92527173913044)"><path id="SvgjsPath1120" d="M 0 0L 108.97418478260863 0L 108.97418478260863 20L 0 20Z" stroke="none" fill="none"></path><g id="SvgjsG1121"><text id="SvgjsText1122" font-family="&quot;Comic Sans MS&quot;" text-anchor="middle" font-size="12px" width="109px" fill="#323232" font-weight="400" align="middle" lineHeight="125%" anchor="middle" family="&quot;Comic Sans MS&quot;" size="12px" weight="400" font-style="" opacity="1" y="0" transform="rotate(0)"><tspan id="SvgjsTspan1123" dy="15" x="54.5"><tspan id="SvgjsTspan1124" style="fill: rgb(255, 255, 255);">处理两个阶段</tspan></tspan></text></g></g><g id="SvgjsG1125" transform="translate(125.10030370843998,205.03125)"><path id="SvgjsPath1126" d="M 0 0L 100 0L 100 40L 0 40Z" stroke="none" fill="none"></path><g id="SvgjsG1127"><text id="SvgjsText1128" font-family="微软雅黑" text-anchor="middle" font-size="13px" width="100px" fill="#ffffff" font-weight="400" align="middle" lineHeight="125%" anchor="middle" family="微软雅黑" size="13px" weight="400" font-style="" opacity="1" y="0.875" transform="rotate(0)"><tspan id="SvgjsTspan1129" dy="16.25" x="50"><tspan id="SvgjsTspan1130" style="">阻</tspan></tspan><tspan id="SvgjsTspan1131" dy="16.25" x="50"><tspan id="SvgjsTspan1132" style="">塞</tspan></tspan></text></g></g><g id="SvgjsG1133" transform="translate(209.75,54)"><path id="SvgjsPath1134" d="M 0 0L 90 0L 90 250L 0 250Z" stroke="rgba(255,255,255,1)" stroke-width="0.5" fill="none"></path><g id="SvgjsG1135"><text id="SvgjsText1136" font-family="微软雅黑" text-anchor="middle" font-size="13px" width="70px" fill="#323232" font-weight="400" align="middle" lineHeight="125%" anchor="middle" family="微软雅黑" size="13px" weight="400" font-style="" opacity="1" y="114.375" transform="rotate(0)"></text></g></g><g id="SvgjsG1137" transform="translate(300.65353260869574,54)"><path id="SvgjsPath1138" d="M 0 0L 90 0L 90 250L 0 250Z" stroke="rgba(255,255,255,1)" stroke-width="0.5" fill="none"></path><g id="SvgjsG1139"><text id="SvgjsText1140" font-family="微软雅黑" text-anchor="middle" font-size="13px" width="70px" fill="#323232" font-weight="400" align="middle" lineHeight="125%" anchor="middle" family="微软雅黑" size="13px" weight="400" font-style="" opacity="1" y="114.375" transform="rotate(0)"></text></g></g><g id="SvgjsG1141" transform="translate(390.65353260869574,54)"><path id="SvgjsPath1142" d="M 0 0L 90 0L 90 250L 0 250Z" stroke="rgba(255,255,255,1)" stroke-width="0.5" fill="none"></path><g id="SvgjsG1143"><text id="SvgjsText1144" font-family="微软雅黑" text-anchor="middle" font-size="13px" width="70px" fill="#323232" font-weight="400" align="middle" lineHeight="125%" anchor="middle" family="微软雅黑" size="13px" weight="400" font-style="" opacity="1" y="114.375" transform="rotate(0)"></text></g></g><g id="SvgjsG1145" transform="translate(54.21875,56)"><path id="SvgjsPath1146" d="M 0 0L 41.5625 0L 41.5625 20L 0 20Z" stroke="none" fill="none"></path><g id="SvgjsG1147"><text id="SvgjsText1148" font-family="微软雅黑" text-anchor="middle" font-size="13px" width="42px" fill="#ffffff" font-weight="400" align="middle" lineHeight="125%" anchor="middle" family="微软雅黑" size="13px" weight="400" font-style="" opacity="1" y="-0.625" transform="rotate(0)"><tspan id="SvgjsTspan1149" dy="16.25" x="21"><tspan id="SvgjsTspan1150" style="">发起</tspan></tspan></text></g></g><g id="SvgjsG1151"><path id="SvgjsPath1152" d="M75 76.75L75 282.765625" stroke="#ffffff" stroke-width="2" fill="none" marker-end="url(#SvgjsMarker1153)"></path></g><g id="SvgjsG1155" transform="translate(25,284)"><path id="SvgjsPath1156" d="M 0 0L 100 0L 100 20L 0 20Z" stroke="none" fill="none"></path><g id="SvgjsG1157"><text id="SvgjsText1158" font-family="微软雅黑" text-anchor="middle" font-size="13px" width="100px" fill="#ffffff" font-weight="400" align="middle" lineHeight="125%" anchor="middle" family="微软雅黑" size="13px" weight="400" font-style="" opacity="1" y="-0.625" transform="rotate(0)"><tspan id="SvgjsTspan1159" dy="16.25" x="50"><tspan id="SvgjsTspan1160" style="">完成</tspan></tspan></text></g></g><g id="SvgjsG1161" transform="translate(36.835597826086996,151.26086956521738)"><path id="SvgjsPath1162" d="M 0 0L 100 0L 100 40L 0 40Z" stroke="none" fill="none"></path><g id="SvgjsG1163"><text id="SvgjsText1164" font-family="微软雅黑" text-anchor="middle" font-size="13px" width="100px" fill="#ffffff" font-weight="400" align="middle" lineHeight="125%" anchor="middle" family="微软雅黑" size="13px" weight="400" font-style="" opacity="1" y="0.875" transform="rotate(0)"><tspan id="SvgjsTspan1165" dy="16.25" x="50"><tspan id="SvgjsTspan1166" style="">阻</tspan></tspan><tspan id="SvgjsTspan1167" dy="16.25" x="50"><tspan id="SvgjsTspan1168" style="">塞</tspan></tspan></text></g></g><g id="SvgjsG1169" transform="translate(230.37259615384613,177)"><path id="SvgjsPath1170" d="M 0 0L 41.5625 0L 41.5625 20L 0 20Z" stroke="none" fill="none"></path><g id="SvgjsG1171"><text id="SvgjsText1172" font-family="微软雅黑" text-anchor="middle" font-size="13px" width="42px" fill="#ffffff" font-weight="400" align="middle" lineHeight="125%" anchor="middle" family="微软雅黑" size="13px" weight="400" font-style="" opacity="1" y="-0.625" transform="rotate(0)"><tspan id="SvgjsTspan1173" dy="16.25" x="21"><tspan id="SvgjsTspan1174" style="">发起</tspan></tspan></text></g></g><g id="SvgjsG1175"><path id="SvgjsPath1176" d="M251.15384615384613 197.75L251.15384615384613 280.8281249999999" stroke="#ffffff" stroke-width="2" fill="none" marker-end="url(#SvgjsMarker1177)"></path></g><g id="SvgjsG1179" transform="translate(201.15384615384613,282.0624999999999)"><path id="SvgjsPath1180" d="M 0 0L 100 0L 100 20L 0 20Z" stroke="none" fill="none"></path><g id="SvgjsG1181"><text id="SvgjsText1182" font-family="微软雅黑" text-anchor="middle" font-size="13px" width="100px" fill="#ffffff" font-weight="400" align="middle" lineHeight="125%" anchor="middle" family="微软雅黑" size="13px" weight="400" font-style="" opacity="1" y="-0.625" transform="rotate(0)"><tspan id="SvgjsTspan1183" dy="16.25" x="50"><tspan id="SvgjsTspan1184" style="">完成</tspan></tspan></text></g></g><g id="SvgjsG1185" transform="translate(213,213.19972826086934)"><path id="SvgjsPath1186" d="M 0 0L 100 0L 100 40L 0 40Z" stroke="none" fill="none"></path><g id="SvgjsG1187"><text id="SvgjsText1188" font-family="微软雅黑" text-anchor="middle" font-size="13px" width="100px" fill="#ffffff" font-weight="400" align="middle" lineHeight="125%" anchor="middle" family="微软雅黑" size="13px" weight="400" font-style="" opacity="1" y="0.875" transform="rotate(0)"><tspan id="SvgjsTspan1189" dy="16.25" x="50"><tspan id="SvgjsTspan1190" style="">阻</tspan></tspan><tspan id="SvgjsTspan1191" dy="16.25" x="50"><tspan id="SvgjsTspan1192" style="">塞</tspan></tspan></text></g></g><g id="SvgjsG1193" transform="translate(230.37259615384613,54)"><path id="SvgjsPath1194" d="M 0 0L 41.5625 0L 41.5625 20L 0 20Z" stroke="none" fill="none"></path><g id="SvgjsG1195"><text id="SvgjsText1196" font-family="微软雅黑" text-anchor="middle" font-size="13px" width="42px" fill="#ffffff" font-weight="400" align="middle" lineHeight="125%" anchor="middle" family="微软雅黑" size="13px" weight="400" font-style="" opacity="1" y="-0.625" transform="rotate(0)"><tspan id="SvgjsTspan1197" dy="16.25" x="21"><tspan id="SvgjsTspan1198" style="">检查</tspan></tspan></text></g></g><g id="SvgjsG1199"><path id="SvgjsPath1200" d="M251.15384615384613 74.75L251.15384615384613 125.5L251.15384615384613 125.5L251.15384615384613 173.64999999999998" stroke="#ffffff" stroke-width="2" fill="none" marker-end="url(#SvgjsMarker1201)"></path></g><g id="SvgjsG1203" transform="translate(321.30769230769226,154)"><path id="SvgjsPath1204" d="M 0 0L 41.5625 0L 41.5625 40L 0 40Z" stroke="none" fill="none"></path><g id="SvgjsG1205"><text id="SvgjsText1206" font-family="微软雅黑" text-anchor="middle" font-size="13px" width="42px" fill="#ffffff" font-weight="400" align="middle" lineHeight="125%" anchor="middle" family="微软雅黑" size="13px" weight="400" font-style="" opacity="1" y="0.875" transform="rotate(0)"><tspan id="SvgjsTspan1207" dy="16.25" x="21"><tspan id="SvgjsTspan1208" style="">通知发</tspan></tspan><tspan id="SvgjsTspan1209" dy="16.25" x="21"><tspan id="SvgjsTspan1210" style="">起</tspan></tspan></text></g></g><g id="SvgjsG1211"><path id="SvgjsPath1212" d="M342.08894230769226 194.75L342.08894230769226 280.765625" stroke="#ffffff" stroke-width="2" fill="none" marker-end="url(#SvgjsMarker1213)"></path></g><g id="SvgjsG1215" transform="translate(292.08894230769226,282)"><path id="SvgjsPath1216" d="M 0 0L 100 0L 100 20L 0 20Z" stroke="none" fill="none"></path><g id="SvgjsG1217"><text id="SvgjsText1218" font-family="微软雅黑" text-anchor="middle" font-size="13px" width="100px" fill="#ffffff" font-weight="400" align="middle" lineHeight="125%" anchor="middle" family="微软雅黑" size="13px" weight="400" font-style="" opacity="1" y="-0.625" transform="rotate(0)"><tspan id="SvgjsTspan1219" dy="16.25" x="50"><tspan id="SvgjsTspan1220" style="">完成</tspan></tspan></text></g></g><g id="SvgjsG1221" transform="translate(300.663043478261,224)"><path id="SvgjsPath1222" d="M 0 0L 100 0L 100 40L 0 40Z" stroke="none" fill="none"></path><g id="SvgjsG1223"><text id="SvgjsText1224" font-family="微软雅黑" text-anchor="middle" font-size="13px" width="100px" fill="#ffffff" font-weight="400" align="middle" lineHeight="125%" anchor="middle" family="微软雅黑" size="13px" weight="400" font-style="" opacity="1" y="0.875" transform="rotate(0)"><tspan id="SvgjsTspan1225" dy="16.25" x="50"><tspan id="SvgjsTspan1226" style="">阻</tspan></tspan><tspan id="SvgjsTspan1227" dy="16.25" x="50"><tspan id="SvgjsTspan1228" style="">塞</tspan></tspan></text></g></g><g id="SvgjsG1229" transform="translate(410.663043478261,54)"><path id="SvgjsPath1230" d="M 0 0L 41.5625 0L 41.5625 20L 0 20Z" stroke="none" fill="none"></path><g id="SvgjsG1231"><text id="SvgjsText1232" font-family="微软雅黑" text-anchor="middle" font-size="13px" width="42px" fill="#ffffff" font-weight="400" align="middle" lineHeight="125%" anchor="middle" family="微软雅黑" size="13px" weight="400" font-style="" opacity="1" y="-0.625" transform="rotate(0)"><tspan id="SvgjsTspan1233" dy="16.25" x="21"><tspan id="SvgjsTspan1234" style="">发起</tspan></tspan></text></g></g><g id="SvgjsG1235"><path id="SvgjsPath1236" d="M431.4442934782611 74.75L431.4442934782611 280.765625" stroke="#ffffff" stroke-width="2" fill="none" marker-end="url(#SvgjsMarker1237)"></path></g><g id="SvgjsG1239" transform="translate(381.444293478261,272)"><path id="SvgjsPath1240" d="M 0 0L 100 0L 100 40L 0 40Z" stroke="none" fill="none"></path><g id="SvgjsG1241"><text id="SvgjsText1242" font-family="微软雅黑" text-anchor="middle" font-size="13px" width="100px" fill="#ffffff" font-weight="400" align="middle" lineHeight="125%" anchor="middle" family="微软雅黑" size="13px" weight="400" font-style="" opacity="1" y="9.375" transform="rotate(0)"><tspan id="SvgjsTspan1243" dy="16.25" x="50"><tspan id="SvgjsTspan1244" style="">通知</tspan></tspan></text></g></g><g id="SvgjsG1245" transform="translate(194.42857142857144,359.6133540372672)"><path id="SvgjsPath1246" d="M 0 0L 137.14285714285717 0L 137.14285714285717 40L 0 40Z" stroke="none" fill="none"></path><g id="SvgjsG1247"><text id="SvgjsText1248" font-family="&quot;Comic Sans MS&quot;" text-anchor="middle" font-size="13px" width="138px" fill="#ffffff" font-weight="700" align="middle" lineHeight="125%" anchor="middle" family="&quot;Comic Sans MS&quot;" size="13px" weight="700" font-style="" opacity="1" y="9.375" transform="rotate(0)"><tspan id="SvgjsTspan1249" dy="16.25" x="69"><tspan id="SvgjsTspan1250" style="">5种I/O模型的比较</tspan></tspan></text></g></g></svg>