<svg id="SvgjsSvg1006" width="725" height="351" xmlns="http://www.w3.org/2000/svg" version="1.1" xmlns:xlink="http://www.w3.org/1999/xlink" xmlns:svgjs="http://svgjs.com/svgjs"><defs id="SvgjsDefs1007"><pattern patternUnits="userSpaceOnUse" id="pattern_mark_0" width="300" height="300"><text x="150" y="100" fill="rgba(229,229,229,0.8)" font-size="18" transform="rotate(-45, 150, 150)" style="dominant-baseline: middle; text-anchor: middle;"></text></pattern><pattern patternUnits="userSpaceOnUse" id="pattern_mark_1" width="300" height="300"><text x="150" y="200" fill="rgba(229,229,229,0.8)" font-size="18" transform="rotate(-45, 150, 150)" style="dominant-baseline: middle; text-anchor: middle;"></text></pattern><pattern id="SvgjsPattern1013" x="0" y="0" width="100" height="100" patternUnits="userSpaceOnUse"><image id="SvgjsImage1014" xlink:href="https://iconsapi.com/5ee27215e4b0b788a93450d2.svg" width="100" height="100" preserveAspectRatio="none" crossOrigin="anonymous" x="0" y="0"></image></pattern><linearGradient id="SvgjsLinearGradient1017" x1="0.5" y1="0" x2="0.5" y2="1"><stop id="SvgjsStop1018" stop-opacity="1" stop-color="#ffffff" offset="0"></stop><stop id="SvgjsStop1019" stop-opacity="1" stop-color="#c3c3c3" offset="1"></stop></linearGradient><pattern id="SvgjsPattern1044" x="0" y="0" width="78" height="66" patternUnits="userSpaceOnUse"><image id="SvgjsImage1045" xlink:href="https://iconsapi.com/5ee856f6e4b01754b3ccc192.svg" width="78" height="66" preserveAspectRatio="none" crossOrigin="anonymous" x="0" y="0"></image></pattern><pattern id="SvgjsPattern1048" x="0" y="0" width="78" height="66" patternUnits="userSpaceOnUse"><image id="SvgjsImage1049" xlink:href="https://iconsapi.com/5ee856f6e4b01754b3ccc192.svg" width="78" height="66" preserveAspectRatio="none" crossOrigin="anonymous" x="0" y="0"></image></pattern><pattern id="SvgjsPattern1052" x="0" y="0" width="78" height="66" patternUnits="userSpaceOnUse"><image id="SvgjsImage1053" xlink:href="https://iconsapi.com/5ee856f6e4b01754b3ccc192.svg" width="78" height="66" preserveAspectRatio="none" crossOrigin="anonymous" x="0" y="0"></image></pattern><marker id="SvgjsMarker1056" markerWidth="13" markerHeight="9" refX="9.5" refY="4.5" viewBox="0 0 13 9" orient="auto" markerUnits="userSpaceOnUse" stroke-dasharray="0,0"><path id="SvgjsPath1057" d="M0,0 L13,4.5 L0,9 L0,0" fill="#a7932c" stroke="#a7932c" stroke-width="1"></path></marker><marker id="SvgjsMarker1060" markerWidth="13" markerHeight="9" refX="9.5" refY="4.5" viewBox="0 0 13 9" orient="auto" markerUnits="userSpaceOnUse" stroke-dasharray="0,0"><path id="SvgjsPath1061" d="M0,0 L13,4.5 L0,9 L0,0" fill="#a7932c" stroke="#a7932c" stroke-width="1"></path></marker><marker id="SvgjsMarker1064" markerWidth="13" markerHeight="9" refX="9.5" refY="4.5" viewBox="0 0 13 9" orient="auto" markerUnits="userSpaceOnUse" stroke-dasharray="0,0"><path id="SvgjsPath1065" d="M0,0 L13,4.5 L0,9 L0,0" fill="#a7932c" stroke="#a7932c" stroke-width="1"></path></marker><marker id="SvgjsMarker1068" markerWidth="13" markerHeight="9" refX="9.5" refY="4.5" viewBox="0 0 13 9" orient="auto" markerUnits="userSpaceOnUse" stroke-dasharray="0,0"><path id="SvgjsPath1069" d="M0,0 L13,4.5 L0,9 L0,0" fill="#a7932c" stroke="#a7932c" stroke-width="1"></path></marker><pattern id="SvgjsPattern1072" x="0" y="0" width="20" height="20" patternUnits="userSpaceOnUse"><image id="SvgjsImage1073" xlink:href="https://iconsapi.com/5ee856f6e4b01754b3ccc192.svg" width="20" height="20" preserveAspectRatio="none" crossOrigin="anonymous" x="0" y="0"></image></pattern><pattern id="SvgjsPattern1076" x="0" y="0" width="20" height="20" patternUnits="userSpaceOnUse"><image id="SvgjsImage1077" xlink:href="https://iconsapi.com/5ee856f6e4b01754b3ccc192.svg" width="20" height="20" preserveAspectRatio="none" crossOrigin="anonymous" x="0" y="0"></image></pattern><pattern id="SvgjsPattern1080" x="0" y="0" width="20" height="20" patternUnits="userSpaceOnUse"><image id="SvgjsImage1081" xlink:href="https://iconsapi.com/5ee856f6e4b01754b3ccc192.svg" width="20" height="20" preserveAspectRatio="none" crossOrigin="anonymous" x="0" y="0"></image></pattern><pattern id="SvgjsPattern1084" x="0" y="0" width="20" height="20" patternUnits="userSpaceOnUse"><image id="SvgjsImage1085" xlink:href="https://iconsapi.com/5ee856f6e4b01754b3ccc192.svg" width="20" height="20" preserveAspectRatio="none" crossOrigin="anonymous" x="0" y="0"></image></pattern></defs><rect id="svgbackgroundid" width="725" height="351" fill="transparent"></rect><rect id="SvgjsRect1009" width="725" height="351" fill="url(#pattern_mark_0)"></rect><rect id="SvgjsRect1010" width="725" height="351" fill="url(#pattern_mark_1)"></rect><g id="SvgjsG1011" transform="translate(25,114)"><path id="SvgjsPath1012" d="M 0 0L 100 0L 100 100L 0 100Z" stroke="none" fill="url(#SvgjsPattern1013)"></path></g><g id="SvgjsG1015" transform="translate(205,137)"><path id="SvgjsPath1016" d="M 0 0L 319 0L 319 54L 0 54Z" stroke="rgba(167,147,44,1)" stroke-width="1.5" fill="url(#SvgjsLinearGradient1017)"></path><g id="SvgjsG1020"><text id="SvgjsText1021" font-family="微软雅黑" text-anchor="middle" font-size="13px" width="299px" fill="#323232" font-weight="400" align="middle" lineHeight="125%" anchor="middle" family="微软雅黑" size="13px" weight="400" font-style="" opacity="1" y="16.375" transform="rotate(0)"></text></g></g><g id="SvgjsG1022" transform="matrix(6.123233995736766e-17,1,-1,6.123233995736766e-17,258,153.5)"><path id="SvgjsPath1023" d="M 10 0L 20 35L 0 35Z" stroke="rgba(167,147,44,1)" stroke-width="1.5" fill-opacity="1" fill="#ffffff"></path><g id="SvgjsG1024"><text id="SvgjsText1025" font-family="微软雅黑" text-anchor="middle" font-size="13px" width="0px" fill="#323232" font-weight="400" align="middle" lineHeight="125%" anchor="middle" family="微软雅黑" size="13px" weight="400" font-style="" opacity="1" y="11.25" transform="rotate(0)"></text></g></g><g id="SvgjsG1026" transform="matrix(6.123233995736766e-17,1,-1,6.123233995736766e-17,500,153.5)"><path id="SvgjsPath1027" d="M 10 0L 20 35L 0 35Z" stroke="rgba(167,147,44,1)" stroke-width="1.5" fill-opacity="1" fill="#ffffff"></path><g id="SvgjsG1028"><text id="SvgjsText1029" font-family="微软雅黑" text-anchor="middle" font-size="13px" width="0px" fill="#323232" font-weight="400" align="middle" lineHeight="125%" anchor="middle" family="微软雅黑" size="13px" weight="400" font-style="" opacity="1" y="11.25" transform="rotate(0)"></text></g></g><g id="SvgjsG1030" transform="translate(291,142)"><path id="SvgjsPath1031" d="M 0 0L 25 0L 25 44.5L 0 44.5Z" stroke="rgba(167,147,44,1)" stroke-width="1.5" fill-opacity="1" fill="#ffffff"></path><g id="SvgjsG1032"><text id="SvgjsText1033" font-family="微软雅黑" text-anchor="middle" font-size="13px" width="5px" fill="#323232" font-weight="700" align="middle" lineHeight="125%" anchor="middle" family="微软雅黑" size="13px" weight="700" font-style="" opacity="1" y="11.625" transform="rotate(0)"></text></g></g><g id="SvgjsG1034" transform="translate(349,142)"><path id="SvgjsPath1035" d="M 0 0L 25 0L 25 44.5L 0 44.5Z" stroke="rgba(167,147,44,1)" stroke-width="1.5" fill-opacity="1" fill="#ffffff"></path><g id="SvgjsG1036"><text id="SvgjsText1037" font-family="微软雅黑" text-anchor="middle" font-size="13px" width="5px" fill="#323232" font-weight="400" align="middle" lineHeight="125%" anchor="middle" family="微软雅黑" size="13px" weight="400" font-style="" opacity="1" y="11.625" transform="rotate(0)"></text></g></g><g id="SvgjsG1038" transform="translate(407,142)"><path id="SvgjsPath1039" d="M 0 0L 25 0L 25 44.5L 0 44.5Z" stroke="rgba(167,147,44,1)" stroke-width="1.5" fill-opacity="1" fill="#ffffff"></path><g id="SvgjsG1040"><text id="SvgjsText1041" font-family="微软雅黑" text-anchor="middle" font-size="13px" width="5px" fill="#323232" font-weight="400" align="middle" lineHeight="125%" anchor="middle" family="微软雅黑" size="13px" weight="400" font-style="" opacity="1" y="11.625" transform="rotate(0)"></text></g></g><g id="SvgjsG1042" transform="translate(604,131)"><path id="SvgjsPath1043" d="M 0 0L 78 0L 78 66L 0 66Z" stroke="none" fill="url(#SvgjsPattern1044)"></path></g><g id="SvgjsG1046" transform="translate(604,25)"><path id="SvgjsPath1047" d="M 0 0L 78 0L 78 66L 0 66Z" stroke="none" fill="url(#SvgjsPattern1048)"></path></g><g id="SvgjsG1050" transform="translate(604,237)"><path id="SvgjsPath1051" d="M 0 0L 78 0L 78 66L 0 66Z" stroke="none" fill="url(#SvgjsPattern1052)"></path></g><g id="SvgjsG1054"><path id="SvgjsPath1055" d="M524.75 164L564 164L564 164L601.3 164" stroke="#a7932c" stroke-width="1.5" fill="none" marker-end="url(#SvgjsMarker1056)"></path></g><g id="SvgjsG1058"><path id="SvgjsPath1059" d="M524.4518051794339 163.40135813725007L602.3735013540379 60.155110705899716" stroke="#a7932c" stroke-width="1.5" fill="none" marker-end="url(#SvgjsMarker1060)"></path></g><g id="SvgjsG1062"><path id="SvgjsPath1063" d="M524.4518051794339 164.59864186274993L602.3735013540379 267.84488929410026" stroke="#a7932c" stroke-width="1.5" fill="none" marker-end="url(#SvgjsMarker1064)"></path></g><g id="SvgjsG1066"><path id="SvgjsPath1067" d="M125.75 164L202.3 164" stroke="#a7932c" stroke-width="1.5" fill="none" marker-end="url(#SvgjsMarker1068)"></path></g><g id="SvgjsG1070" transform="matrix(0.5735764363510462,0.8191520442889918,-0.8191520442889918,0.5735764363510462,561.3674382082858,196.98439732250586)"><path id="SvgjsPath1071" d="M 0 0L 20 0L 20 20L 0 20Z" stroke="none" fill="url(#SvgjsPattern1072)"></path></g><g id="SvgjsG1074" transform="translate(553,154)"><path id="SvgjsPath1075" d="M 0 0L 20 0L 20 20L 0 20Z" stroke="none" fill="url(#SvgjsPattern1076)"></path></g><g id="SvgjsG1078" transform="matrix(0.6427876096865393,-0.7660444431189781,0.7660444431189781,0.6427876096865393,548.9116794719448,114.23256833432438)"><path id="SvgjsPath1079" d="M 0 0L 20 0L 20 20L 0 20Z" stroke="none" fill="url(#SvgjsPattern1080)"></path></g><g id="SvgjsG1082" transform="translate(155,154)"><path id="SvgjsPath1083" d="M 0 0L 20 0L 20 20L 0 20Z" stroke="none" fill="url(#SvgjsPattern1084)"></path></g><g id="SvgjsG1086" transform="translate(25,180)"><path id="SvgjsPath1087" d="M 0 0L 100 0L 100 40L 0 40Z" stroke="none" fill="none"></path><g id="SvgjsG1088"><text id="SvgjsText1089" font-family="&quot;Comic Sans MS&quot;" text-anchor="middle" font-size="13px" width="100px" fill="#323232" font-weight="700" align="middle" lineHeight="125%" anchor="middle" family="&quot;Comic Sans MS&quot;" size="13px" weight="700" font-style="" opacity="1" y="9.375" transform="rotate(0)"><tspan id="SvgjsTspan1090" dy="16.25" x="50"><tspan id="SvgjsTspan1091" style="">Producer</tspan></tspan></text></g></g><g id="SvgjsG1092" transform="translate(593,74)"><path id="SvgjsPath1093" d="M 0 0L 100 0L 100 40L 0 40Z" stroke="none" fill="none"></path><g id="SvgjsG1094"><text id="SvgjsText1095" font-family="&quot;Comic Sans MS&quot;" text-anchor="middle" font-size="13px" width="100px" fill="#323232" font-weight="700" align="middle" lineHeight="125%" anchor="middle" family="&quot;Comic Sans MS&quot;" size="13px" weight="700" font-style="" opacity="1" y="9.375" transform="rotate(0)"><tspan id="SvgjsTspan1096" dy="16.25" x="50"><tspan id="SvgjsTspan1097" style="">Consumer</tspan></tspan></text></g></g><g id="SvgjsG1098" transform="translate(593,180)"><path id="SvgjsPath1099" d="M 0 0L 100 0L 100 40L 0 40Z" stroke="none" fill="none"></path><g id="SvgjsG1100"><text id="SvgjsText1101" font-family="&quot;Comic Sans MS&quot;" text-anchor="middle" font-size="13px" width="100px" fill="#323232" font-weight="700" align="middle" lineHeight="125%" anchor="middle" family="&quot;Comic Sans MS&quot;" size="13px" weight="700" font-style="" opacity="1" y="9.375" transform="rotate(0)"><tspan id="SvgjsTspan1102" dy="16.25" x="50"><tspan id="SvgjsTspan1103" style="">Consumer</tspan></tspan></text></g></g><g id="SvgjsG1104" transform="translate(600,286)"><path id="SvgjsPath1105" d="M 0 0L 100 0L 100 40L 0 40Z" stroke="none" fill="none"></path><g id="SvgjsG1106"><text id="SvgjsText1107" font-family="&quot;Comic Sans MS&quot;" text-anchor="middle" font-size="13px" width="100px" fill="#323232" font-weight="700" align="middle" lineHeight="125%" anchor="middle" family="&quot;Comic Sans MS&quot;" size="13px" weight="700" font-style="" opacity="1" y="9.375" transform="rotate(0)"><tspan id="SvgjsTspan1108" dy="16.25" x="50"><tspan id="SvgjsTspan1109" style="">Consumer</tspan></tspan></text></g></g></svg>