<svg id="SvgjsSvg1006" width="474" height="142" xmlns="http://www.w3.org/2000/svg" version="1.1" xmlns:xlink="http://www.w3.org/1999/xlink" xmlns:svgjs="http://svgjs.com/svgjs"><defs id="SvgjsDefs1007"><pattern patternUnits="userSpaceOnUse" id="pattern_mark_0" width="300" height="300"><text x="150" y="100" fill="rgba(229,229,229,0.8)" font-size="18" transform="rotate(-45, 150, 150)" style="dominant-baseline: middle; text-anchor: middle;"></text></pattern><pattern patternUnits="userSpaceOnUse" id="pattern_mark_1" width="300" height="300"><text x="150" y="200" fill="rgba(229,229,229,0.8)" font-size="18" transform="rotate(-45, 150, 150)" style="dominant-baseline: middle; text-anchor: middle;"></text></pattern><marker id="SvgjsMarker1033" markerWidth="18" markerHeight="14" refX="12" refY="7" viewBox="0 0 18 14" orient="auto" markerUnits="userSpaceOnUse" stroke-dasharray="0,0"><path id="SvgjsPath1034" d="M0,0 L18,7 L0,14 L0,0" fill="#f5cc00" stroke="#f5cc00" stroke-width="1"></path></marker></defs><rect id="svgbackgroundid" width="474" height="142" fill="transparent"></rect><rect id="SvgjsRect1009" width="474" height="142" fill="url(#pattern_mark_0)"></rect><rect id="SvgjsRect1010" width="474" height="142" fill="url(#pattern_mark_1)"></rect><g id="SvgjsG1011" transform="translate(25,25)"><path id="SvgjsPath1012" d="M 0 4Q 0 0 4 0L 151 0Q 155 0 155 4L 155 87Q 155 91 151 91L 4 91Q 0 91 0 87Z" stroke="rgba(33,41,48,1)" stroke-width="1.5" fill-opacity="1" fill="#fdffc8"></path><g id="SvgjsG1013"><text id="SvgjsText1014" font-family="&quot;Comic Sans MS&quot;" text-anchor="middle" font-size="13px" width="135px" fill="#323232" font-weight="400" align="middle" lineHeight="125%" anchor="middle" family="&quot;Comic Sans MS&quot;" size="13px" weight="400" font-style="" opacity="1" y="34.875" transform="rotate(0)"></text></g></g><g id="SvgjsG1015" transform="translate(25,27)"><path id="SvgjsPath1016" d="M 0 0L 100 0L 100 40L 0 40Z" stroke="none" fill="none"></path><g id="SvgjsG1017"><text id="SvgjsText1018" font-family="&quot;Comic Sans MS&quot;" text-anchor="middle" font-size="15px" width="100px" fill="#323232" font-weight="400" align="middle" lineHeight="125%" anchor="middle" family="&quot;Comic Sans MS&quot;" size="15px" weight="400" font-style="" opacity="1" y="7.625" transform="rotate(0)"><tspan id="SvgjsTspan1019" dy="18.75" x="50"><tspan id="SvgjsTspan1020" style="font-weight: bold;">Main Query:</tspan></tspan></text></g></g><g id="SvgjsG1021" transform="translate(69,75)"><path id="SvgjsPath1022" d="M 0 4Q 0 0 4 0L 107 0Q 111 0 111 4L 111 38Q 111 42 107 42L 4 42Q 0 42 0 38Z" stroke="rgba(33,41,48,1)" stroke-width="1.5" fill-opacity="1" fill="#f29860"></path><g id="SvgjsG1023"><text id="SvgjsText1024" font-family="&quot;Comic Sans MS&quot;" text-anchor="middle" font-size="13px" width="91px" fill="#323232" font-weight="400" align="middle" lineHeight="125%" anchor="middle" family="&quot;Comic Sans MS&quot;" size="13px" weight="400" font-style="" opacity="1" y="10.375" transform="rotate(0)"></text></g></g><g id="SvgjsG1025" transform="translate(70,76)"><path id="SvgjsPath1026" d="M 0 0L 100 0L 100 40L 0 40Z" stroke="none" fill="none"></path><g id="SvgjsG1027"><text id="SvgjsText1028" font-family="&quot;Comic Sans MS&quot;" text-anchor="middle" font-size="15px" width="100px" fill="#323232" font-weight="400" align="middle" lineHeight="125%" anchor="middle" family="&quot;Comic Sans MS&quot;" size="15px" weight="400" font-style="" opacity="1" y="7.625" transform="rotate(0)"><tspan id="SvgjsTspan1029" dy="18.75" x="50"><tspan id="SvgjsTspan1030" style="font-weight: bold;">SubQuery</tspan></tspan></text></g></g><g id="SvgjsG1031"><path id="SvgjsPath1032" d="M180.75 70.5L264.5 70.5L264.5 70.5L343.04999999999995 70.5" stroke="#f5cc00" stroke-width="4" fill="none" marker-end="url(#SvgjsMarker1033)"></path><rect id="SvgjsRect1035" width="30" height="21" x="246.41982248520708" y="60" fill="#ffffff"></rect><text id="SvgjsText1036" font-family="&quot;Comic Sans MS&quot;" text-anchor="middle" font-size="15px" width="30px" fill="#323232" font-weight="700" align="top" lineHeight="19px" anchor="middle" family="&quot;Comic Sans MS&quot;" size="15px" weight="700" font-style="" opacity="1" y="57.125" transform="rotate(0)"><tspan id="SvgjsTspan1037" dy="18.75" x="261.4198224852071"><tspan id="SvgjsTspan1038" style="">返回</tspan></tspan></text></g><g id="SvgjsG1039" transform="translate(349,50.5)"><path id="SvgjsPath1040" d="M 0 0L 100 0L 100 40L 0 40Z" stroke="none" fill="none"></path><g id="SvgjsG1041"><text id="SvgjsText1042" font-family="&quot;Comic Sans MS&quot;" text-anchor="start" font-size="15px" width="100px" fill="#323232" font-weight="400" align="middle" lineHeight="125%" anchor="start" family="&quot;Comic Sans MS&quot;" size="15px" weight="400" font-style="" opacity="1" y="7.625" transform="rotate(0)"><tspan id="SvgjsTspan1043" dy="18.75" x="0"><tspan id="SvgjsTspan1044" style="font-weight: bold;">ST_CLERK</tspan></tspan></text></g></g></svg>