<svg xmlns="http://www.w3.org/2000/svg" xlink="http://www.w3.org/1999/xlink" id="mind-svg-con" version="1.1" width="983.34375px" height="606px" style="position: absolute; left: 0px; top: 0px; width: 983.344px; height: 606px; background: rgb(251, 245, 224); z-index: 999;"><defs></defs><g id="svgbackgroundid"><defs></defs><rect x="0" y="0" width="983.34375" height="606" fill="#FBF5E0"></rect></g><g transform="translate(-9894, -9642)" id="sdjakdjak3"><defs></defs><g class="svg-topic-con" transform="translate(0.5,0.5)"><path part="right" sub="true" id="line_3d65d8b510b8247e" d="M 10000 9945 L 10106 9945 L 10106 9765 A 8 8 0 0 1 10114 9757 L 10136 9757" stroke="#6C8C78" fill="none" stroke-width="2"></path><path part="right" sub="true" id="line_6a81b7beed26d6a0" d="M 10000 9945 L 10106 9945 L 10106 10032 A 8 8 0 0 0 10114 10040 L 10136 10040" stroke="#6C8C78" fill="none" stroke-width="2"></path></g><g class="svg-connection-con" transform="translate(0.5,0.5)"></g><g class="svg-freesums-con" transform="translate(0.5,0.5)"></g><g class="svg-freebos-con" transform="translate(0.5,0.5)"></g></g><g id="6a81b7beed26d6a0"><rect x="242" y="382.203125" rx="16" ry="16" width="122" height="32" style="fill: transparent; stroke:none;stroke-width:0px;"></rect><g><text text-anchor="start" align="top" anchor="start" font-size="14px" font-weight="normal" fill="rgb(70, 99, 80)" style="font-size:14px;font-family:'Microsoft YaHei',微软雅黑,Arial;color:#466350;font-style:normal;text-align:left;font-weight:normal;"><tspan x="254" y="402"><tspan dx="0">创建对象的步骤</tspan></tspan></text></g></g><g id="f2f8253294036960"><rect x="400" y="220" rx="1px" ry="1px" width="259" height="26" style="fill: transparent; stroke:none;stroke-width:0px;"></rect><g><text text-anchor="start" align="top" anchor="start" font-size="12px" font-weight="normal" fill="rgb(70, 99, 80)" style="font-size:12px;font-family:'Microsoft YaHei',微软雅黑,Arial;color:#466350;font-style:normal;text-align:left;font-weight:normal;"><tspan x="409" y="235.16"><tspan dx="0">1. 判断对象对应的类是否加载、链接、初始化</tspan></tspan></text></g></g><g id="de5483082871f14d"><rect x="400" y="313" rx="1px" ry="1px" width="115" height="26" style="fill: transparent; stroke:none;stroke-width:0px;"></rect><g><text text-anchor="start" align="top" anchor="start" font-size="12px" font-weight="normal" fill="rgb(70, 99, 80)" style="font-size:12px;font-family:'Microsoft YaHei',微软雅黑,Arial;color:#466350;font-style:normal;text-align:left;font-weight:normal;"><tspan x="409" y="328.15999999999997"><tspan dx="0">2. 为对象分配内存</tspan></tspan></text></g></g><g id="2476e3dcd6c85ca2"><rect x="551.34375" y="257" rx="1px" ry="1px" width="90" height="26" style="fill: transparent; stroke:none;stroke-width:0px;"></rect><g><text text-anchor="start" align="top" anchor="start" font-size="12px" font-weight="normal" fill="rgb(70, 99, 80)" style="font-size:12px;font-family:'Microsoft YaHei',微软雅黑,Arial;color:#466350;font-style:normal;text-align:left;font-weight:normal;"><tspan x="560" y="272.15999999999997"><tspan dx="0">如果内存规整</tspan></tspan></text></g></g><g id="6f0af657f8612587"><rect x="677.34375" y="256" rx="1px" ry="1px" width="92" height="28" style="fill: transparent; stroke:none;stroke-width:0px;"></rect><g><text text-anchor="start" align="top" anchor="start" font-size="12px" font-weight="normal" fill="rgb(70, 99, 80)" style="font-size:12px;font-family:'Microsoft YaHei',微软雅黑,Arial;color:#466350;font-style:normal;text-align:left;font-weight:normal;"><tspan x="686" y="272.15999999999997"><tspan dx="0">指针碰撞</tspan></tspan></text></g><image xmlns:xlink="http://www.w3.org/1999/xlink" xlink:href="https://www.processon.com/v5_editor/static/images/note.svg" transform="translate(740.34375, 260)" width="20" height="20"></image></g><g id="e80c9f39e98cc53b"><rect x="551.34375" y="313" rx="1px" ry="1px" width="102" height="26" style="fill: transparent; stroke:none;stroke-width:0px;"></rect><g><text text-anchor="start" align="top" anchor="start" font-size="12px" font-weight="normal" fill="rgb(70, 99, 80)" style="font-size:12px;font-family:'Microsoft YaHei',微软雅黑,Arial;color:#466350;font-style:normal;text-align:left;font-weight:normal;"><tspan x="560" y="328.15999999999997"><tspan dx="0">如果内存不规整</tspan></tspan></text></g></g><g id="496c48e43653f72a"><rect x="689.34375" y="294" rx="1px" ry="1px" width="150" height="26" style="fill: transparent; stroke:none;stroke-width:0px;"></rect><g><text text-anchor="start" align="top" anchor="start" font-size="12px" font-weight="normal" fill="rgb(70, 99, 80)" style="font-size:12px;font-family:'Microsoft YaHei',微软雅黑,Arial;color:#466350;font-style:normal;text-align:left;font-weight:normal;"><tspan x="698" y="309.15999999999997"><tspan dx="0">虚拟机需要维护一个列表</tspan></tspan></text></g></g><g id="05eb2f2f5534ab88"><rect x="689.34375" y="330" rx="1px" ry="1px" width="116" height="28" style="fill: transparent; stroke:none;stroke-width:0px;"></rect><g><text text-anchor="start" align="top" anchor="start" font-size="12px" font-weight="normal" fill="rgb(70, 99, 80)" style="font-size:12px;font-family:'Microsoft YaHei',微软雅黑,Arial;color:#466350;font-style:normal;text-align:left;font-weight:normal;"><tspan x="698" y="346.15999999999997"><tspan dx="0">空闲列表分配</tspan></tspan></text></g><image xmlns:xlink="http://www.w3.org/1999/xlink" xlink:href="https://www.processon.com/v5_editor/static/images/note.svg" transform="translate(776.34375, 334)" width="20" height="20"></image></g><g id="af6c0fbff1ac86c6"><rect x="551.34375" y="368" rx="1px" ry="1px" width="68" height="28" style="fill: transparent; stroke:none;stroke-width:0px;"></rect><g><text text-anchor="start" align="top" anchor="start" font-size="12px" font-weight="normal" fill="rgb(70, 99, 80)" style="font-size:12px;font-family:'Microsoft YaHei',微软雅黑,Arial;color:#466350;font-style:normal;text-align:left;font-weight:normal;"><tspan x="560" y="384.15999999999997"><tspan dx="0">说明</tspan></tspan></text></g><image xmlns:xlink="http://www.w3.org/1999/xlink" xlink:href="https://www.processon.com/v5_editor/static/images/note.svg" transform="translate(590.34375, 372)" width="20" height="20"></image></g><g id="1fd8782c1e62c80f"><rect x="400" y="424" rx="1px" ry="1px" width="127" height="26" style="fill: transparent; stroke:none;stroke-width:0px;"></rect><g><text text-anchor="start" align="top" anchor="start" font-size="12px" font-weight="normal" fill="rgb(70, 99, 80)" style="font-size:12px;font-family:'Microsoft YaHei',微软雅黑,Arial;color:#466350;font-style:normal;text-align:left;font-weight:normal;"><tspan x="409" y="439.15999999999997"><tspan dx="0">3. 处理并发安全问题</tspan></tspan></text></g></g><g id="4d1cab63fc415154"><rect x="563.34375" y="406" rx="1px" ry="1px" width="235" height="26" style="fill: transparent; stroke:none;stroke-width:0px;"></rect><g><text text-anchor="start" align="top" anchor="start" font-size="12px" font-weight="normal" fill="rgb(70, 99, 80)" style="font-size:12px;font-family:'Microsoft YaHei',微软雅黑,Arial;color:#466350;font-style:normal;text-align:left;font-weight:normal;"><tspan x="572" y="421.15999999999997"><tspan dx="0">采用CAS配上失败重试保证更新的原子性</tspan></tspan></text></g></g><g id="4161fb45edcb35a3"><rect x="563.34375" y="442" rx="1px" ry="1px" width="156" height="26" style="fill: transparent; stroke:none;stroke-width:0px;"></rect><g><text text-anchor="start" align="top" anchor="start" font-size="12px" font-weight="normal" fill="rgb(70, 99, 80)" style="font-size:12px;font-family:'Microsoft YaHei',微软雅黑,Arial;color:#466350;font-style:normal;text-align:left;font-weight:normal;"><tspan x="572" y="457.15999999999997"><tspan dx="0">每个线程先分配一块TLAB</tspan></tspan></text></g></g><g id="a4489303b780e36c"><rect x="400" y="478" rx="1px" ry="1px" width="139" height="26" style="fill: transparent; stroke:none;stroke-width:0px;"></rect><g><text text-anchor="start" align="top" anchor="start" font-size="12px" font-weight="normal" fill="rgb(70, 99, 80)" style="font-size:12px;font-family:'Microsoft YaHei',微软雅黑,Arial;color:#466350;font-style:normal;text-align:left;font-weight:normal;"><tspan x="409" y="493.15999999999997"><tspan dx="0">4. 初始化分配到的空间</tspan></tspan></text></g></g><g id="a8ecd0aaa41419ed"><rect x="575.34375" y="478" rx="1px" ry="1px" width="378" height="26" style="fill: transparent; stroke:none;stroke-width:0px;"></rect><g><text text-anchor="start" align="top" anchor="start" font-size="12px" font-weight="normal" fill="rgb(70, 99, 80)" style="font-size:12px;font-family:'Microsoft YaHei',微软雅黑,Arial;color:#466350;font-style:normal;text-align:left;font-weight:normal;"><tspan x="584" y="493.15999999999997"><tspan dx="0">所有的属性设置默认值，保证对象实例字段在不赋值时可以直接使用</tspan></tspan></text></g></g><g id="d9ab56b53a9bc3ea"><rect x="400" y="514" rx="1px" ry="1px" width="127" height="26" style="fill: transparent; stroke:none;stroke-width:0px;"></rect><g><text text-anchor="start" align="top" anchor="start" font-size="12px" font-weight="normal" fill="rgb(70, 99, 80)" style="font-size:12px;font-family:'Microsoft YaHei',微软雅黑,Arial;color:#466350;font-style:normal;text-align:left;font-weight:normal;"><tspan x="409" y="529.1600000000001"><tspan dx="0">5. 设置对象的对象头</tspan></tspan></text></g></g><g id="c88df605df8c77ed"><rect x="400" y="550" rx="1px" ry="1px" width="155" height="26" style="fill: transparent; stroke:none;stroke-width:0px;"></rect><g><text text-anchor="start" align="top" anchor="start" font-size="12px" font-weight="normal" fill="rgb(70, 99, 80)" style="font-size:12px;font-family:'Microsoft YaHei',微软雅黑,Arial;color:#466350;font-style:normal;text-align:left;font-weight:normal;"><tspan x="409" y="565.1600000000001"><tspan dx="0">6. 执行init方法进行初始化</tspan></tspan></text></g></g><g id="3d65d8b510b8247e"><rect x="242" y="99.203125" rx="16" ry="16" width="122" height="32" style="fill: transparent; stroke:none;stroke-width:0px;"></rect><g><text text-anchor="start" align="top" anchor="start" font-size="14px" font-weight="normal" fill="rgb(70, 99, 80)" style="font-size:14px;font-family:'Microsoft YaHei',微软雅黑,Arial;color:#466350;font-style:normal;text-align:left;font-weight:normal;"><tspan x="254" y="119"><tspan dx="0">创建对象的方式</tspan></tspan></text></g></g><g id="a3e46b90ad69a698"><rect x="400" y="30" rx="1px" ry="1px" width="40" height="26" style="fill: transparent; stroke:none;stroke-width:0px;"></rect><g><text text-anchor="start" align="top" anchor="start" font-size="12px" font-weight="normal" fill="rgb(70, 99, 80)" style="font-size:12px;font-family:'Microsoft YaHei',微软雅黑,Arial;color:#466350;font-style:normal;text-align:left;font-weight:normal;"><tspan x="409" y="45.16"><tspan dx="0">new</tspan></tspan></text></g></g><g id="b4b8e0d850e577d9"><rect x="400" y="66" rx="1px" ry="1px" width="135" height="26" style="fill: transparent; stroke:none;stroke-width:0px;"></rect><g><text text-anchor="start" align="top" anchor="start" font-size="12px" font-weight="normal" fill="rgb(70, 99, 80)" style="font-size:12px;font-family:'Microsoft YaHei',微软雅黑,Arial;color:#466350;font-style:normal;text-align:left;font-weight:normal;"><tspan x="409" y="81.16"><tspan dx="0">Class的newInstance()</tspan></tspan></text></g></g><g id="15fb78bd4734a3bb"><rect x="400" y="102" rx="1px" ry="1px" width="79" height="26" style="fill: transparent; stroke:none;stroke-width:0px;"></rect><g><text text-anchor="start" align="top" anchor="start" font-size="12px" font-weight="normal" fill="rgb(70, 99, 80)" style="font-size:12px;font-family:'Microsoft YaHei',微软雅黑,Arial;color:#466350;font-style:normal;text-align:left;font-weight:normal;"><tspan x="409" y="117.16"><tspan dx="0">使用clone()</tspan></tspan></text></g></g><g id="6188bd94e3f0edaa"><rect x="400" y="138" rx="1px" ry="1px" width="90" height="26" style="fill: transparent; stroke:none;stroke-width:0px;"></rect><g><text text-anchor="start" align="top" anchor="start" font-size="12px" font-weight="normal" fill="rgb(70, 99, 80)" style="font-size:12px;font-family:'Microsoft YaHei',微软雅黑,Arial;color:#466350;font-style:normal;text-align:left;font-weight:normal;"><tspan x="409" y="153.16"><tspan dx="0">使用反序列化</tspan></tspan></text></g></g><g id="d51a3f5ef86741da"><rect x="400" y="174" rx="1px" ry="1px" width="119" height="26" style="fill: transparent; stroke:none;stroke-width:0px;"></rect><g><text text-anchor="start" align="top" anchor="start" font-size="12px" font-weight="normal" fill="rgb(70, 99, 80)" style="font-size:12px;font-family:'Microsoft YaHei',微软雅黑,Arial;color:#466350;font-style:normal;text-align:left;font-weight:normal;"><tspan x="409" y="189.16"><tspan dx="0">第三方库Objenesis</tspan></tspan></text></g></g><g transform="translate(242, 220)" id="sdjakdjak0"><g id="subline_6a81b7beed26d6a0" transform="translate(0.5, 0.5)"><path id="line_f2f8253294036960" d="M 122 178 L 140 178 L 140 17 A 4 4 0 0 1 144 13 L 158 13" p="6a81b7beed26d6a0" stroke="#6C8C78" fill="none" stroke-linecap="square" stroke-width="2"></path><path id="line_de5483082871f14d" d="M 122 178 L 140 178 L 140 110 A 4 4 0 0 1 144 106 L 158 106" p="6a81b7beed26d6a0" stroke="#6C8C78" fill="none" stroke-linecap="square" stroke-width="2"></path><path id="line_2476e3dcd6c85ca2" d="M 273.34375 106 L 292 106 L 292 54 A 4 4 0 0 1 296 50 L 309.34375 50" p="de5483082871f14d" stroke="#6C8C78" fill="none" stroke-linecap="square" stroke-width="2"></path><path id="line_6f0af657f8612587" d="M 399.34375 50 L 418 50 L 418 50 L 435.34375 50" p="2476e3dcd6c85ca2" stroke="#6C8C78" fill="none" stroke-linecap="square" stroke-width="2"></path><path id="line_e80c9f39e98cc53b" d="M 273.34375 106 L 292 106 L 292 106 L 309.34375 106" p="de5483082871f14d" stroke="#6C8C78" fill="none" stroke-linecap="square" stroke-width="2"></path><path id="line_496c48e43653f72a" d="M 411.34375 106 L 430 106 L 430 91 A 4 4 0 0 1 434 87 L 447.34375 87" p="e80c9f39e98cc53b" stroke="#6C8C78" fill="none" stroke-linecap="square" stroke-width="2"></path><path id="line_05eb2f2f5534ab88" d="M 411.34375 106 L 430 106 L 430 120 A 4 4 0 0 0 434 124 L 447.34375 124" p="e80c9f39e98cc53b" stroke="#6C8C78" fill="none" stroke-linecap="square" stroke-width="2"></path><path id="line_af6c0fbff1ac86c6" d="M 273.34375 106 L 292 106 L 292 158 A 4 4 0 0 0 296 162 L 309.34375 162" p="de5483082871f14d" stroke="#6C8C78" fill="none" stroke-linecap="square" stroke-width="2"></path><path id="line_1fd8782c1e62c80f" d="M 122 178 L 140 178 L 140 213 A 4 4 0 0 0 144 217 L 158 217" p="6a81b7beed26d6a0" stroke="#6C8C78" fill="none" stroke-linecap="square" stroke-width="2"></path><path id="line_4d1cab63fc415154" d="M 285.34375 217 L 304 217 L 304 203 A 4 4 0 0 1 308 199 L 321.34375 199" p="1fd8782c1e62c80f" stroke="#6C8C78" fill="none" stroke-linecap="square" stroke-width="2"></path><path id="line_4161fb45edcb35a3" d="M 285.34375 217 L 304 217 L 304 231 A 4 4 0 0 0 308 235 L 321.34375 235" p="1fd8782c1e62c80f" stroke="#6C8C78" fill="none" stroke-linecap="square" stroke-width="2"></path><path id="line_a4489303b780e36c" d="M 122 178 L 140 178 L 140 267 A 4 4 0 0 0 144 271 L 158 271" p="6a81b7beed26d6a0" stroke="#6C8C78" fill="none" stroke-linecap="square" stroke-width="2"></path><path id="line_a8ecd0aaa41419ed" d="M 297.34375 271 L 316 271 L 316 271 L 333.34375 271" p="a4489303b780e36c" stroke="#6C8C78" fill="none" stroke-linecap="square" stroke-width="2"></path><path id="line_d9ab56b53a9bc3ea" d="M 122 178 L 140 178 L 140 303 A 4 4 0 0 0 144 307 L 158 307" p="6a81b7beed26d6a0" stroke="#6C8C78" fill="none" stroke-linecap="square" stroke-width="2"></path><path id="line_c88df605df8c77ed" d="M 122 178 L 140 178 L 140 339 A 4 4 0 0 0 144 343 L 158 343" p="6a81b7beed26d6a0" stroke="#6C8C78" fill="none" stroke-linecap="square" stroke-width="2"></path></g><g transform="translate(0.5,0.5)"></g><g class="svg-summary-con" transform="translate(0.5,0.5)"></g><g class="svg-boundary-con" transform="translate(0.5,0.5)"></g></g><g transform="translate(242, 30)" id="sdjakdjak1"><g id="subline_3d65d8b510b8247e" transform="translate(0.5, 0.5)"><path id="line_a3e46b90ad69a698" d="M 122 85 L 140 85 L 140 17 A 4 4 0 0 1 144 13 L 158 13" p="3d65d8b510b8247e" stroke="#6C8C78" fill="none" stroke-linecap="square" stroke-width="2"></path><path id="line_b4b8e0d850e577d9" d="M 122 85 L 140 85 L 140 53 A 4 4 0 0 1 144 49 L 158 49" p="3d65d8b510b8247e" stroke="#6C8C78" fill="none" stroke-linecap="square" stroke-width="2"></path><path id="line_15fb78bd4734a3bb" d="M 122 85 L 140 85 L 140 85 L 158 85" p="3d65d8b510b8247e" stroke="#6C8C78" fill="none" stroke-linecap="square" stroke-width="2"></path><path id="line_6188bd94e3f0edaa" d="M 122 85 L 140 85 L 140 117 A 4 4 0 0 0 144 121 L 158 121" p="3d65d8b510b8247e" stroke="#6C8C78" fill="none" stroke-linecap="square" stroke-width="2"></path><path id="line_d51a3f5ef86741da" d="M 122 85 L 140 85 L 140 153 A 4 4 0 0 0 144 157 L 158 157" p="3d65d8b510b8247e" stroke="#6C8C78" fill="none" stroke-linecap="square" stroke-width="2"></path></g><g transform="translate(0.5,0.5)"></g><g class="svg-summary-con" transform="translate(0.5,0.5)"></g><g class="svg-boundary-con" transform="translate(0.5,0.5)"></g></g><g transform="translate(30, 278)" id="sdjakdjak2"><g id="subline_root" transform="translate(0.5, 0.5)"></g><g transform="translate(0.5,0.5)"></g><g class="svg-summary-con" transform="translate(0.5,0.5)"></g><g class="svg-boundary-con" transform="translate(0.5,0.5)"></g></g><g id="root"><rect x="30" y="278" rx="6px" ry="6px" width="152" height="50" style="fill: #6C8C78; stroke:none;stroke-width:0px;"></rect><g><text text-anchor="start" align="top" anchor="start" font-size="20px" font-weight="normal" fill="rgb(255, 255, 255)" style="font-size:20px;font-family:'Microsoft YaHei',微软雅黑,Arial;color:#ffffff;font-style:normal;text-align:left;font-weight:normal;"><tspan x="46" y="308"><tspan dx="0">对象的实例化</tspan></tspan></text></g></g></svg>