<svg id="SvgjsSvg1006" width="1086.4615384615383" height="309.2795497185741" xmlns="http://www.w3.org/2000/svg" version="1.1" xmlns:xlink="http://www.w3.org/1999/xlink" xmlns:svgjs="http://svgjs.com/svgjs"><defs id="SvgjsDefs1007"><pattern patternUnits="userSpaceOnUse" id="pattern_mark_0" width="300" height="300"><text x="150" y="100" fill="rgba(229,229,229,0.8)" font-size="18" transform="rotate(-45, 150, 150)" style="dominant-baseline: middle; text-anchor: middle;"></text></pattern><pattern patternUnits="userSpaceOnUse" id="pattern_mark_1" width="300" height="300"><text x="150" y="200" fill="rgba(229,229,229,0.8)" font-size="18" transform="rotate(-45, 150, 150)" style="dominant-baseline: middle; text-anchor: middle;"></text></pattern><marker id="SvgjsMarker1128" markerWidth="13" markerHeight="9" refX="9.5" refY="4.5" viewBox="0 0 13 9" orient="auto" markerUnits="userSpaceOnUse" stroke-dasharray="0,0"><path id="SvgjsPath1129" d="M0,0 L13,4.5 L0,9 L0,0" fill="#323232" stroke="#323232" stroke-width="1"></path></marker><marker id="SvgjsMarker1136" markerWidth="13" markerHeight="9" refX="9.5" refY="4.5" viewBox="0 0 13 9" orient="auto" markerUnits="userSpaceOnUse" stroke-dasharray="0,0"><path id="SvgjsPath1137" d="M0,0 L13,4.5 L0,9 L0,0" fill="#323232" stroke="#323232" stroke-width="1"></path></marker><marker id="SvgjsMarker1144" markerWidth="13" markerHeight="9" refX="9.5" refY="4.5" viewBox="0 0 13 9" orient="auto" markerUnits="userSpaceOnUse" stroke-dasharray="0,0"><path id="SvgjsPath1145" d="M0,0 L13,4.5 L0,9 L0,0" fill="#323232" stroke="#323232" stroke-width="1"></path></marker><marker id="SvgjsMarker1152" markerWidth="13" markerHeight="9" refX="9.5" refY="4.5" viewBox="0 0 13 9" orient="auto" markerUnits="userSpaceOnUse" stroke-dasharray="0,0"><path id="SvgjsPath1153" d="M0,0 L13,4.5 L0,9 L0,0" fill="#323232" stroke="#323232" stroke-width="1"></path></marker><marker id="SvgjsMarker1160" markerWidth="13" markerHeight="9" refX="9.5" refY="4.5" viewBox="0 0 13 9" orient="auto" markerUnits="userSpaceOnUse" stroke-dasharray="0,0"><path id="SvgjsPath1161" d="M0,0 L13,4.5 L0,9 L0,0" fill="#323232" stroke="#323232" stroke-width="1"></path></marker><marker id="SvgjsMarker1168" markerWidth="13" markerHeight="9" refX="9.5" refY="4.5" viewBox="0 0 13 9" orient="auto" markerUnits="userSpaceOnUse" stroke-dasharray="0,0"><path id="SvgjsPath1169" d="M0,0 L13,4.5 L0,9 L0,0" fill="#323232" stroke="#323232" stroke-width="1"></path></marker><marker id="SvgjsMarker1176" markerWidth="13" markerHeight="9" refX="9.5" refY="4.5" viewBox="0 0 13 9" orient="auto" markerUnits="userSpaceOnUse" stroke-dasharray="0,0"><path id="SvgjsPath1177" d="M0,0 L13,4.5 L0,9 L0,0" fill="#323232" stroke="#323232" stroke-width="1"></path></marker><marker id="SvgjsMarker1184" markerWidth="13" markerHeight="9" refX="9.5" refY="4.5" viewBox="0 0 13 9" orient="auto" markerUnits="userSpaceOnUse" stroke-dasharray="0,0"><path id="SvgjsPath1185" d="M0,0 L13,4.5 L0,9 L0,0" fill="#323232" stroke="#323232" stroke-width="1"></path></marker><marker id="SvgjsMarker1188" markerWidth="13" markerHeight="9" refX="9.5" refY="4.5" viewBox="0 0 13 9" orient="auto" markerUnits="userSpaceOnUse" stroke-dasharray="0,0"><path id="SvgjsPath1189" d="M0,0 L13,4.5 L0,9 L0,0" fill="#323232" stroke="#323232" stroke-width="1"></path></marker><marker id="SvgjsMarker1192" markerWidth="13" markerHeight="9" refX="9.5" refY="4.5" viewBox="0 0 13 9" orient="auto" markerUnits="userSpaceOnUse" stroke-dasharray="0,0"><path id="SvgjsPath1193" d="M0,0 L13,4.5 L0,9 L0,0" fill="#323232" stroke="#323232" stroke-width="1"></path></marker><marker id="SvgjsMarker1196" markerWidth="13" markerHeight="9" refX="9.5" refY="4.5" viewBox="0 0 13 9" orient="auto" markerUnits="userSpaceOnUse" stroke-dasharray="0,0"><path id="SvgjsPath1197" d="M0,0 L13,4.5 L0,9 L0,0" fill="#323232" stroke="#323232" stroke-width="1"></path></marker><marker id="SvgjsMarker1200" markerWidth="13" markerHeight="9" refX="9.5" refY="4.5" viewBox="0 0 13 9" orient="auto" markerUnits="userSpaceOnUse" stroke-dasharray="0,0"><path id="SvgjsPath1201" d="M0,0 L13,4.5 L0,9 L0,0" fill="#323232" stroke="#323232" stroke-width="1"></path></marker></defs><rect id="svgbackgroundid" width="1086.4615384615383" height="309.2795497185741" fill="transparent"></rect><rect id="SvgjsRect1009" width="1086.4615384615383" height="309.2795497185741" fill="url(#pattern_mark_0)"></rect><rect id="SvgjsRect1010" width="1086.4615384615383" height="309.2795497185741" fill="url(#pattern_mark_1)"></rect><g id="SvgjsG1011" transform="translate(190.3846153846154,26.818011257035607)"><path id="SvgjsPath1012" d="M 0 4Q 0 0 4 0L 867.076923076923 0Q 871.076923076923 0 871.076923076923 4L 871.076923076923 253.4615384615385Q 871.076923076923 257.4615384615385 867.076923076923 257.4615384615385L 4 257.4615384615385Q 0 257.4615384615385 0 253.4615384615385Z" stroke="rgba(33,41,48,1)" stroke-width="1.5" fill-opacity="1" fill="#ed9745"></path><g id="SvgjsG1013"><text id="SvgjsText1014" font-family="&quot;Comic Sans MS&quot;" text-anchor="middle" font-size="13px" width="852px" fill="#323232" font-weight="400" align="middle" lineHeight="125%" anchor="middle" family="&quot;Comic Sans MS&quot;" size="13px" weight="400" font-style="" opacity="1" y="118.10576923076925" transform="rotate(0)"></text></g></g><g id="SvgjsG1015" transform="translate(25,130.54878048780486)"><path id="SvgjsPath1016" d="M 18.666666666666664 6.25C 18.666666666666664 -2.083333333333333 37.33333333333333 -2.083333333333333 37.33333333333333 6.25C 37.33333333333333 14.583333333333334 18.666666666666664 14.583333333333334 18.666666666666664 6.25M 28 12.5L 28 37.5M 28 37.5L 4.666666666666666 50M 28 37.5L 51.33333333333333 50M 0 25L 56 25" stroke="rgba(33,41,48,1)" stroke-width="1.5" fill-opacity="1" fill="#a6aef3"></path><path id="SvgjsPath1017" d="M 0 0L 56 0L 56 50L 0 50Z" stroke="none" fill="none"></path><g id="SvgjsG1018"><text id="SvgjsText1019" font-family="&quot;Comic Sans MS&quot;" text-anchor="middle" font-size="13px" width="96px" fill="#323232" font-weight="400" align="middle" lineHeight="125%" anchor="middle" family="&quot;Comic Sans MS&quot;" size="13px" weight="400" font-style="" opacity="1" y="54.375" transform="rotate(0)"></text></g></g><g id="SvgjsG1020" transform="translate(215,57.04878048780486)"><path id="SvgjsPath1021" d="M 0 4Q 0 0 4 0L 122 0Q 126 0 126 4L 126 193Q 126 197 122 197L 4 197Q 0 197 0 193Z" stroke="rgba(33,41,48,1)" stroke-width="1.5" fill-opacity="1" fill="#b7eaeb"></path><g id="SvgjsG1022"><text id="SvgjsText1023" font-family="&quot;Comic Sans MS&quot;" text-anchor="middle" font-size="13px" width="106px" fill="#323232" font-weight="400" align="middle" lineHeight="125%" anchor="middle" family="&quot;Comic Sans MS&quot;" size="13px" weight="400" font-style="" opacity="1" y="87.875" transform="rotate(0)"></text></g></g><g id="SvgjsG1024" transform="translate(223,71.04878048780486)"><path id="SvgjsPath1025" d="M 0 23C 0 -7.666666666666667 110 -7.666666666666667 110 23C 110 53.666666666666664 0 53.666666666666664 0 23Z" stroke="rgba(33,41,48,1)" stroke-width="1.5" fill-opacity="1" fill="#b7eaeb"></path><g id="SvgjsG1026"><text id="SvgjsText1027" font-family="&quot;Comic Sans MS&quot;" text-anchor="middle" font-size="13px" width="90px" fill="#323232" font-weight="400" align="middle" lineHeight="125%" anchor="middle" family="&quot;Comic Sans MS&quot;" size="13px" weight="400" font-style="" opacity="1" y="12.375" transform="rotate(0)"><tspan id="SvgjsTspan1028" dy="16.25" x="55"><tspan id="SvgjsTspan1029" style="">socker server</tspan></tspan></text></g></g><g id="SvgjsG1030" transform="translate(223,132.54878048780486)"><path id="SvgjsPath1031" d="M 0 23C 0 -7.666666666666667 110 -7.666666666666667 110 23C 110 53.666666666666664 0 53.666666666666664 0 23Z" stroke="rgba(33,41,48,1)" stroke-width="1.5" fill-opacity="1" fill="#b7eaeb"></path><g id="SvgjsG1032"><text id="SvgjsText1033" font-family="&quot;Comic Sans MS&quot;" text-anchor="middle" font-size="13px" width="90px" fill="#323232" font-weight="400" align="middle" lineHeight="125%" anchor="middle" family="&quot;Comic Sans MS&quot;" size="13px" weight="400" font-style="" opacity="1" y="12.375" transform="rotate(0)"><tspan id="SvgjsTspan1034" dy="16.25" x="55"><tspan id="SvgjsTspan1035" style="">socker server1</tspan></tspan></text></g></g><g id="SvgjsG1036" transform="translate(223,194.04878048780486)"><path id="SvgjsPath1037" d="M 0 23C 0 -7.666666666666667 110 -7.666666666666667 110 23C 110 53.666666666666664 0 53.666666666666664 0 23Z" stroke="rgba(33,41,48,1)" stroke-width="1.5" fill-opacity="1" fill="#b7eaeb"></path><g id="SvgjsG1038"><text id="SvgjsText1039" font-family="&quot;Comic Sans MS&quot;" text-anchor="middle" font-size="13px" width="90px" fill="#323232" font-weight="400" align="middle" lineHeight="125%" anchor="middle" family="&quot;Comic Sans MS&quot;" size="13px" weight="400" font-style="" opacity="1" y="3.875" transform="rotate(0)"><tspan id="SvgjsTspan1040" dy="16.25" x="55"><tspan id="SvgjsTspan1041" style="">socker </tspan></tspan><tspan id="SvgjsTspan1042" dy="16.25" x="55"><tspan id="SvgjsTspan1043" style="">server2</tspan></tspan></text></g></g><g id="SvgjsG1044" transform="translate(460,128.54878048780486)"><path id="SvgjsPath1045" d="M 0 4Q 0 0 4 0L 92 0Q 96 0 96 4L 96 50Q 96 54 92 54L 4 54Q 0 54 0 50Z" stroke="rgba(33,41,48,1)" stroke-width="1.5" fill-opacity="1" fill="#f1e4a2"></path><g id="SvgjsG1046"><text id="SvgjsText1047" font-family="&quot;Comic Sans MS&quot;" text-anchor="middle" font-size="13px" width="76px" fill="#323232" font-weight="400" align="middle" lineHeight="125%" anchor="middle" family="&quot;Comic Sans MS&quot;" size="13px" weight="400" font-style="" opacity="1" y="7.875" transform="rotate(0)"><tspan id="SvgjsTspan1048" dy="16.25" x="48"><tspan id="SvgjsTspan1049" style="">IO多路复用</tspan></tspan><tspan id="SvgjsTspan1050" dy="16.25" x="48"><tspan id="SvgjsTspan1051" style="">(epoll)</tspan></tspan></text></g></g><g id="SvgjsG1052" transform="translate(615,57.04878048780486)"><path id="SvgjsPath1053" d="M 0 4Q 0 0 4 0L 92 0Q 96 0 96 4L 96 193Q 96 197 92 197L 4 197Q 0 197 0 193Z" stroke="rgba(33,41,48,1)" stroke-width="1.5" fill-opacity="1" fill="#f5b9b7"></path><g id="SvgjsG1054"><text id="SvgjsText1055" font-family="&quot;Comic Sans MS&quot;" text-anchor="middle" font-size="13px" width="76px" fill="#323232" font-weight="400" align="middle" lineHeight="125%" anchor="middle" family="&quot;Comic Sans MS&quot;" size="13px" weight="400" font-style="" opacity="1" y="6.375" transform="rotate(0)"><tspan id="SvgjsTspan1056" dy="16.25" x="48"><tspan id="SvgjsTspan1057" style="">事件队列</tspan></tspan><tspan id="SvgjsTspan1058" dy="16.25" x="48"><tspan id="SvgjsTspan1059" style=""> </tspan></tspan><tspan id="SvgjsTspan1060" dy="16.25" x="48"><tspan id="SvgjsTspan1061" style=""> </tspan></tspan><tspan id="SvgjsTspan1062" dy="16.25" x="48"><tspan id="SvgjsTspan1063" style=""> </tspan></tspan><tspan id="SvgjsTspan1064" dy="16.25" x="48"><tspan id="SvgjsTspan1065" style=""> </tspan></tspan><tspan id="SvgjsTspan1066" dy="16.25" x="48"><tspan id="SvgjsTspan1067" style=""> </tspan></tspan><tspan id="SvgjsTspan1068" dy="16.25" x="48"><tspan id="SvgjsTspan1069" style=""> </tspan></tspan><tspan id="SvgjsTspan1070" dy="16.25" x="48"><tspan id="SvgjsTspan1071" style=""> </tspan></tspan><tspan id="SvgjsTspan1072" dy="16.25" x="48"><tspan id="SvgjsTspan1073" style=""> </tspan></tspan><tspan id="SvgjsTspan1074" dy="16.25" x="48"><tspan id="SvgjsTspan1075" style=""> </tspan></tspan><tspan id="SvgjsTspan1076" dy="16.25" x="48"><tspan id="SvgjsTspan1077" style=""> </tspan></tspan></text></g></g><g id="SvgjsG1078" transform="translate(635,90.04878048780486)"><path id="SvgjsPath1079" d="M 0 19C 0 -6.333333333333333 56 -6.333333333333333 56 19C 56 44.333333333333336 0 44.333333333333336 0 19Z" stroke="rgba(33,41,48,1)" stroke-width="1.5" fill-opacity="1" fill="#f5b9b7"></path><g id="SvgjsG1080"><text id="SvgjsText1081" font-family="&quot;Comic Sans MS&quot;" text-anchor="middle" font-size="13px" width="36px" fill="#323232" font-weight="400" align="middle" lineHeight="125%" anchor="middle" family="&quot;Comic Sans MS&quot;" size="13px" weight="400" font-style="" opacity="1" y="8.375" transform="rotate(0)"><tspan id="SvgjsTspan1082" dy="16.25" x="28"><tspan id="SvgjsTspan1083" style="">ss</tspan></tspan></text></g></g><g id="SvgjsG1084" transform="translate(635,132.04878048780486)"><path id="SvgjsPath1085" d="M 0 19C 0 -6.333333333333333 56 -6.333333333333333 56 19C 56 44.333333333333336 0 44.333333333333336 0 19Z" stroke="rgba(33,41,48,1)" stroke-width="1.5" fill-opacity="1" fill="#f5b9b7"></path><g id="SvgjsG1086"><text id="SvgjsText1087" font-family="&quot;Comic Sans MS&quot;" text-anchor="middle" font-size="13px" width="36px" fill="#323232" font-weight="400" align="middle" lineHeight="125%" anchor="middle" family="&quot;Comic Sans MS&quot;" size="13px" weight="400" font-style="" opacity="1" y="8.375" transform="rotate(0)"><tspan id="SvgjsTspan1088" dy="16.25" x="28"><tspan id="SvgjsTspan1089" style="">s1</tspan></tspan></text></g></g><g id="SvgjsG1090" transform="translate(635,174.04878048780486)"><path id="SvgjsPath1091" d="M 0 19C 0 -6.333333333333333 56 -6.333333333333333 56 19C 56 44.333333333333336 0 44.333333333333336 0 19Z" stroke="rgba(33,41,48,1)" stroke-width="1.5" fill-opacity="1" fill="#f5b9b7"></path><g id="SvgjsG1092"><text id="SvgjsText1093" font-family="&quot;Comic Sans MS&quot;" text-anchor="middle" font-size="13px" width="36px" fill="#323232" font-weight="400" align="middle" lineHeight="125%" anchor="middle" family="&quot;Comic Sans MS&quot;" size="13px" weight="400" font-style="" opacity="1" y="8.375" transform="rotate(0)"><tspan id="SvgjsTspan1094" dy="16.25" x="28"><tspan id="SvgjsTspan1095" style="">s2</tspan></tspan></text></g></g><g id="SvgjsG1096" transform="translate(635,216.04878048780486)"><path id="SvgjsPath1097" d="M 0 19C 0 -6.333333333333333 56 -6.333333333333333 56 19C 56 44.333333333333336 0 44.333333333333336 0 19Z" stroke="rgba(33,41,48,1)" stroke-width="1.5" fill-opacity="1" fill="#f5b9b7"></path><g id="SvgjsG1098"><text id="SvgjsText1099" font-family="&quot;Comic Sans MS&quot;" text-anchor="middle" font-size="13px" width="36px" fill="#323232" font-weight="400" align="middle" lineHeight="125%" anchor="middle" family="&quot;Comic Sans MS&quot;" size="13px" weight="400" font-style="" opacity="1" y="8.375" transform="rotate(0)"><tspan id="SvgjsTspan1100" dy="16.25" x="28"><tspan id="SvgjsTspan1101" style="">sn</tspan></tspan></text></g></g><g id="SvgjsG1102" transform="translate(770,128.54878048780486)"><path id="SvgjsPath1103" d="M 0 4Q 0 0 4 0L 92 0Q 96 0 96 4L 96 50Q 96 54 92 54L 4 54Q 0 54 0 50Z" stroke="rgba(33,41,48,1)" stroke-width="1.5" fill-opacity="1" fill="#e0e0e0"></path><g id="SvgjsG1104"><text id="SvgjsText1105" font-family="&quot;Comic Sans MS&quot;" text-anchor="middle" font-size="13px" width="76px" fill="#323232" font-weight="400" align="middle" lineHeight="125%" anchor="middle" family="&quot;Comic Sans MS&quot;" size="13px" weight="400" font-style="" opacity="1" y="16.375" transform="rotate(0)"><tspan id="SvgjsTspan1106" dy="16.25" x="48"><tspan id="SvgjsTspan1107" style="">事件派发器</tspan></tspan></text></g></g><g id="SvgjsG1108" transform="translate(925,128.54878048780486)"><path id="SvgjsPath1109" d="M 0 4Q 0 0 4 0L 116 0Q 120 0 120 4L 120 50Q 120 54 116 54L 4 54Q 0 54 0 50Z" stroke="rgba(33,41,48,1)" stroke-width="1.5" fill-opacity="1" fill="#d2d6f9"></path><g id="SvgjsG1110"><text id="SvgjsText1111" font-family="&quot;Comic Sans MS&quot;" text-anchor="middle" font-size="13px" width="100px" fill="#323232" font-weight="400" align="middle" lineHeight="125%" anchor="middle" family="&quot;Comic Sans MS&quot;" size="13px" weight="400" font-style="" opacity="1" y="16.375" transform="rotate(0)"><tspan id="SvgjsTspan1112" dy="16.25" x="60"><tspan id="SvgjsTspan1113" style="">命令请求处理器</tspan></tspan></text></g></g><g id="SvgjsG1114" transform="translate(925,41.04878048780486)"><path id="SvgjsPath1115" d="M 0 4Q 0 0 4 0L 116 0Q 120 0 120 4L 120 50Q 120 54 116 54L 4 54Q 0 54 0 50Z" stroke="rgba(33,41,48,1)" stroke-width="1.5" fill-opacity="1" fill="#d2d6f9"></path><g id="SvgjsG1116"><text id="SvgjsText1117" font-family="&quot;Comic Sans MS&quot;" text-anchor="middle" font-size="13px" width="100px" fill="#323232" font-weight="400" align="middle" lineHeight="125%" anchor="middle" family="&quot;Comic Sans MS&quot;" size="13px" weight="400" font-style="" opacity="1" y="16.375" transform="rotate(0)"><tspan id="SvgjsTspan1118" dy="16.25" x="60"><tspan id="SvgjsTspan1119" style="">连接应答处理器</tspan></tspan></text></g></g><g id="SvgjsG1120" transform="translate(925,216.04878048780486)"><path id="SvgjsPath1121" d="M 0 4Q 0 0 4 0L 116 0Q 120 0 120 4L 120 50Q 120 54 116 54L 4 54Q 0 54 0 50Z" stroke="rgba(33,41,48,1)" stroke-width="1.5" fill-opacity="1" fill="#d2d6f9"></path><g id="SvgjsG1122"><text id="SvgjsText1123" font-family="&quot;Comic Sans MS&quot;" text-anchor="middle" font-size="13px" width="100px" fill="#323232" font-weight="400" align="middle" lineHeight="125%" anchor="middle" family="&quot;Comic Sans MS&quot;" size="13px" weight="400" font-style="" opacity="1" y="16.375" transform="rotate(0)"><tspan id="SvgjsTspan1124" dy="16.25" x="60"><tspan id="SvgjsTspan1125" style="">命令回复处理器</tspan></tspan></text></g></g><g id="SvgjsG1126"><path id="SvgjsPath1127" d="M333.75 94.04878048780486L508 94.04878048780486L508 125.84878048780487" stroke="#323232" stroke-width="1.5" fill="none" marker-end="url(#SvgjsMarker1128)"></path><rect id="SvgjsRect1130" width="120" height="18" x="358.33377088305485" y="85.04878048780486" fill="#ffffff"></rect><text id="SvgjsText1131" font-family="&quot;Comic Sans MS&quot;" text-anchor="middle" font-size="13px" width="120px" fill="#323232" font-weight="400" align="top" lineHeight="16px" anchor="middle" family="&quot;Comic Sans MS&quot;" size="13px" weight="400" font-style="" opacity="1" y="82.42378048780486" transform="rotate(0)"><tspan id="SvgjsTspan1132" dy="16.25" x="418.33377088305485"><tspan id="SvgjsTspan1133" style="">绑定AE_READABLE</tspan></tspan></text></g><g id="SvgjsG1134"><path id="SvgjsPath1135" d="M333.75 217.04878048780486L508 217.04878048780486L508 185.24878048780485" stroke="#323232" stroke-width="1.5" fill="none" marker-end="url(#SvgjsMarker1136)"></path><rect id="SvgjsRect1138" width="104" height="18" x="365.35023866348445" y="208.04878048780486" fill="#ffffff"></rect><text id="SvgjsText1139" font-family="&quot;Comic Sans MS&quot;" text-anchor="middle" font-size="13px" width="104px" fill="#323232" font-weight="400" align="top" lineHeight="16px" anchor="middle" family="&quot;Comic Sans MS&quot;" size="13px" weight="400" font-style="" opacity="1" y="205.42378048780486" transform="rotate(0)"><tspan id="SvgjsTspan1140" dy="16.25" x="417.35023866348445"><tspan id="SvgjsTspan1141" style="">AE_WRITESBEL</tspan></tspan></text></g><g id="SvgjsG1142"><path id="SvgjsPath1143" d="M278 179.29878048780486L278 186.54878048780486L430 186.54878048780486L430 155.54878048780486L457.3 155.54878048780486" stroke="#323232" stroke-width="1.5" fill="none" marker-end="url(#SvgjsMarker1144)"></path><rect id="SvgjsRect1146" width="104" height="18" x="301.4386877828054" y="177.54878048780483" fill="#ffffff"></rect><text id="SvgjsText1147" font-family="&quot;Comic Sans MS&quot;" text-anchor="middle" font-size="13px" width="104px" fill="#323232" font-weight="400" align="top" lineHeight="16px" anchor="middle" family="&quot;Comic Sans MS&quot;" size="13px" weight="400" font-style="" opacity="1" y="174.92378048780483" transform="rotate(0)"><tspan id="SvgjsTspan1148" dy="16.25" x="353.4386877828054"><tspan id="SvgjsTspan1149" style="">AE_WRITESBEL</tspan></tspan></text></g><g id="SvgjsG1150"><path id="SvgjsPath1151" d="M278 131.79878048780486L278 122.54878048780486L430 122.54878048780486L430 155.54878048780486L457.3 155.54878048780486" stroke="#323232" stroke-width="1.5" fill="none" marker-end="url(#SvgjsMarker1152)"></path><rect id="SvgjsRect1154" width="94" height="18" x="305.4466666666666" y="113.54878048780486" fill="#ffffff"></rect><text id="SvgjsText1155" font-family="&quot;Comic Sans MS&quot;" text-anchor="middle" font-size="13px" width="94px" fill="#323232" font-weight="400" align="top" lineHeight="16px" anchor="middle" family="&quot;Comic Sans MS&quot;" size="13px" weight="400" font-style="" opacity="1" y="110.92378048780486" transform="rotate(0)"><tspan id="SvgjsTspan1156" dy="16.25" x="352.4466666666666"><tspan id="SvgjsTspan1157" style="">AE_READABLE</tspan></tspan></text></g><g id="SvgjsG1158"><path id="SvgjsPath1159" d="M53 129.79878048780486L53 94.04878048780486L220.3 94.04878048780486" stroke="#323232" stroke-width="1.5" fill="none" marker-end="url(#SvgjsMarker1160)"></path><rect id="SvgjsRect1162" width="52" height="18" x="110.72579710144927" y="85.04878048780486" fill="#ffffff"></rect><text id="SvgjsText1163" font-family="&quot;Comic Sans MS&quot;" text-anchor="middle" font-size="13px" width="52px" fill="#323232" font-weight="400" align="top" lineHeight="16px" anchor="middle" family="&quot;Comic Sans MS&quot;" size="13px" weight="400" font-style="" opacity="1" y="82.42378048780486" transform="rotate(0)"><tspan id="SvgjsTspan1164" dy="16.25" x="136.72579710144927"><tspan id="SvgjsTspan1165" style="">建立连接</tspan></tspan></text></g><g id="SvgjsG1166"><path id="SvgjsPath1167" d="M81.75 155.54878048780486L152 155.54878048780486L152 155.54878048780486L220.3 155.54878048780486" stroke="#323232" stroke-width="1.5" fill="none" marker-end="url(#SvgjsMarker1168)"></path><rect id="SvgjsRect1170" width="79" height="18" x="111.525" y="146.54878048780486" fill="#ffffff"></rect><text id="SvgjsText1171" font-family="&quot;Comic Sans MS&quot;" text-anchor="middle" font-size="13px" width="79px" fill="#323232" font-weight="400" align="top" lineHeight="16px" anchor="middle" family="&quot;Comic Sans MS&quot;" size="13px" weight="400" font-style="" opacity="1" y="143.92378048780486" transform="rotate(0)"><tspan id="SvgjsTspan1172" dy="16.25" x="151.025"><tspan id="SvgjsTspan1173" style="">set key value</tspan></tspan></text></g><g id="SvgjsG1174"><path id="SvgjsPath1175" d="M53 181.29878048780486L53 217.04878048780486L220.3 217.04878048780486" stroke="#323232" stroke-width="1.5" fill="none" marker-end="url(#SvgjsMarker1176)"></path><rect id="SvgjsRect1178" width="45" height="18" x="118.93420289855072" y="208.04878048780486" fill="#ffffff"></rect><text id="SvgjsText1179" font-family="&quot;Comic Sans MS&quot;" text-anchor="middle" font-size="13px" width="45px" fill="#323232" font-weight="400" align="top" lineHeight="16px" anchor="middle" family="&quot;Comic Sans MS&quot;" size="13px" weight="400" font-style="" opacity="1" y="205.42378048780486" transform="rotate(0)"><tspan id="SvgjsTspan1180" dy="16.25" x="141.43420289855072"><tspan id="SvgjsTspan1181" style="">get key</tspan></tspan></text></g><g id="SvgjsG1182"><path id="SvgjsPath1183" d="M556.75 155.54878048780486L585.5 155.54878048780486L585.5 155.54878048780486L612.3 155.54878048780486" stroke="#323232" stroke-width="1.5" fill="none" marker-end="url(#SvgjsMarker1184)"></path></g><g id="SvgjsG1186"><path id="SvgjsPath1187" d="M711.75 155.54878048780486L740.5 155.54878048780486L740.5 155.54878048780486L767.3 155.54878048780486" stroke="#323232" stroke-width="1.5" fill="none" marker-end="url(#SvgjsMarker1188)"></path></g><g id="SvgjsG1190"><path id="SvgjsPath1191" d="M866.75 155.54878048780486L895.5 155.54878048780486L895.5 155.54878048780486L922.3 155.54878048780486" stroke="#323232" stroke-width="1.5" fill="none" marker-end="url(#SvgjsMarker1192)"></path></g><g id="SvgjsG1194"><path id="SvgjsPath1195" d="M866.75 155.54878048780486L895.5 155.54878048780486L895.5 68.04878048780486L922.3 68.04878048780486" stroke="#323232" stroke-width="1.5" fill="none" marker-end="url(#SvgjsMarker1196)"></path></g><g id="SvgjsG1198"><path id="SvgjsPath1199" d="M866.75 155.54878048780486L895.5 155.54878048780486L895.5 243.04878048780486L922.3 243.04878048780486" stroke="#323232" stroke-width="1.5" fill="none" marker-end="url(#SvgjsMarker1200)"></path></g><g id="SvgjsG1202" transform="translate(433.9756097560976,25)"><path id="SvgjsPath1203" d="M 0 0L 100 0L 100 40L 0 40Z" stroke="none" fill="none"></path><g id="SvgjsG1204"><text id="SvgjsText1205" font-family="&quot;Comic Sans MS&quot;" text-anchor="middle" font-size="20px" width="100px" fill="#5b79e8" font-weight="400" align="middle" lineHeight="125%" anchor="middle" family="&quot;Comic Sans MS&quot;" size="20px" weight="400" font-style="" opacity="1" y="2" transform="rotate(0)"><tspan id="SvgjsTspan1206" dy="25" x="50"><tspan id="SvgjsTspan1207" style="font-weight: bold;">Redis</tspan></tspan></text></g></g></svg>