<svg id="SvgjsSvg1006" width="496" height="331" xmlns="http://www.w3.org/2000/svg" version="1.1" xmlns:xlink="http://www.w3.org/1999/xlink" xmlns:svgjs="http://svgjs.com/svgjs"><defs id="SvgjsDefs1007"><pattern patternUnits="userSpaceOnUse" id="pattern_mark_0" width="300" height="300"><text x="150" y="100" fill="rgba(229,229,229,0.8)" font-size="18" transform="rotate(-45, 150, 150)" style="dominant-baseline: middle; text-anchor: middle;"></text></pattern><pattern patternUnits="userSpaceOnUse" id="pattern_mark_1" width="300" height="300"><text x="150" y="200" fill="rgba(229,229,229,0.8)" font-size="18" transform="rotate(-45, 150, 150)" style="dominant-baseline: middle; text-anchor: middle;"></text></pattern><marker id="SvgjsMarker1069" markerWidth="13" markerHeight="9" refX="9.5" refY="4.5" viewBox="0 0 13 9" orient="auto" markerUnits="userSpaceOnUse" stroke-dasharray="0,0"><path id="SvgjsPath1070" d="M0,0 L13,4.5 L0,9 L0,0" fill="#323232" stroke="#323232" stroke-width="1"></path></marker><marker id="SvgjsMarker1073" markerWidth="13" markerHeight="9" refX="9.5" refY="4.5" viewBox="0 0 13 9" orient="auto" markerUnits="userSpaceOnUse" stroke-dasharray="0,0"><path id="SvgjsPath1074" d="M0,0 L13,4.5 L0,9 L0,0" fill="#a6aef3" stroke="#a6aef3" stroke-width="1"></path></marker><marker id="SvgjsMarker1081" markerWidth="13" markerHeight="9" refX="9.5" refY="4.5" viewBox="0 0 13 9" orient="auto" markerUnits="userSpaceOnUse" stroke-dasharray="0,0"><path id="SvgjsPath1082" d="M0,0 L13,4.5 L0,9 L0,0" fill="#a6aef3" stroke="#a6aef3" stroke-width="1"></path></marker><marker id="SvgjsMarker1089" markerWidth="13" markerHeight="9" refX="9.5" refY="4.5" viewBox="0 0 13 9" orient="auto" markerUnits="userSpaceOnUse" stroke-dasharray="0,0"><path id="SvgjsPath1090" d="M0,0 L13,4.5 L0,9 L0,0" fill="#a6aef3" stroke="#a6aef3" stroke-width="1"></path></marker><marker id="SvgjsMarker1097" markerWidth="13" markerHeight="9" refX="9.5" refY="4.5" viewBox="0 0 13 9" orient="auto" markerUnits="userSpaceOnUse" stroke-dasharray="0,0"><path id="SvgjsPath1098" d="M0,0 L13,4.5 L0,9 L0,0" fill="#a6aef3" stroke="#a6aef3" stroke-width="1"></path></marker></defs><rect id="svgbackgroundid" width="496" height="331" fill="transparent"></rect><rect id="SvgjsRect1009" width="496" height="331" fill="url(#pattern_mark_0)"></rect><rect id="SvgjsRect1010" width="496" height="331" fill="url(#pattern_mark_1)"></rect><g id="SvgjsG1011" transform="translate(34,106.24390243902434)"><path id="SvgjsPath1012" d="M 0 4Q 0 0 4 0L 433 0Q 437 0 437 4L 437 195.75609756097566Q 437 199.75609756097566 433 199.75609756097566L 4 199.75609756097566Q 0 199.75609756097566 0 195.75609756097566Z" stroke="rgba(33,41,48,1)" stroke-width="1.5" fill-opacity="1" fill="#e5e5e5"></path><g id="SvgjsG1013"><text id="SvgjsText1014" font-family="&quot;Comic Sans MS&quot;" text-anchor="middle" font-size="13px" width="417px" fill="#323232" font-weight="400" align="middle" lineHeight="125%" anchor="middle" family="&quot;Comic Sans MS&quot;" size="13px" weight="400" font-style="" opacity="1" y="89.25304878048783" transform="rotate(0)"></text></g></g><g id="SvgjsG1015" transform="translate(76,179.14634146341464)"><path id="SvgjsPath1016" d="M 0 0L 90 0L 90 105.85365853658537L 0 105.85365853658537Z" stroke="rgba(33,41,48,1)" stroke-width="1.5" fill-opacity="1" fill="#4fbacf"></path><g id="SvgjsG1017"><text id="SvgjsText1018" font-family="&quot;Comic Sans MS&quot;" text-anchor="middle" font-size="13px" width="70px" fill="#323232" font-weight="400" align="middle" lineHeight="125%" anchor="middle" family="&quot;Comic Sans MS&quot;" size="13px" weight="400" font-style="" opacity="1" y="42.301829268292686" transform="rotate(0)"></text></g></g><g id="SvgjsG1019" transform="translate(254,25)"><path id="SvgjsPath1020" d="M 0 25L 25 0L 100 0L 100 50L 0 50L 0 25Z" stroke="rgba(33,41,48,1)" stroke-width="1.5" fill-opacity="1" fill="#b8b8b8"></path><g id="SvgjsG1021"><text id="SvgjsText1022" font-family="&quot;Comic Sans MS&quot;" text-anchor="middle" font-size="13px" width="80px" fill="#323232" font-weight="400" align="middle" lineHeight="125%" anchor="middle" family="&quot;Comic Sans MS&quot;" size="13px" weight="400" font-style="" opacity="1" y="14.375" transform="rotate(0)"><tspan id="SvgjsTspan1023" dy="16.25" x="50"><tspan id="SvgjsTspan1024" style="">User.class</tspan></tspan></text></g></g><g id="SvgjsG1025" transform="translate(249,125)"><path id="SvgjsPath1026" d="M 0 4Q 0 0 4 0L 106 0Q 110 0 110 4L 110 56Q 110 60 106 60L 4 60Q 0 60 0 56Z" stroke="rgba(33,41,48,1)" stroke-width="1.5" fill-opacity="1" fill="#ee1a03"></path><g id="SvgjsG1027"><text id="SvgjsText1028" font-family="&quot;Comic Sans MS&quot;" text-anchor="middle" font-size="13px" width="90px" fill="#323232" font-weight="400" align="middle" lineHeight="125%" anchor="middle" family="&quot;Comic Sans MS&quot;" size="13px" weight="400" font-style="" opacity="1" y="19.375" transform="rotate(0)"><tspan id="SvgjsTspan1029" dy="16.25" x="55"><tspan id="SvgjsTspan1030" style="">ClassLoader</tspan></tspan></text></g></g><g id="SvgjsG1031" transform="translate(249,235)"><path id="SvgjsPath1032" d="M 0 30C 0 -10 110 -10 110 30C 110 70 0 70 0 30Z" stroke="rgba(33,41,48,1)" stroke-width="1.5" fill-opacity="1" fill="#66edff"></path><g id="SvgjsG1033"><text id="SvgjsText1034" font-family="&quot;Comic Sans MS&quot;" text-anchor="middle" font-size="13px" width="90px" fill="#323232" font-weight="400" align="middle" lineHeight="125%" anchor="middle" family="&quot;Comic Sans MS&quot;" size="13px" weight="400" font-style="" opacity="1" y="19.375" transform="rotate(0)"><tspan id="SvgjsTspan1035" dy="16.25" x="55"><tspan id="SvgjsTspan1036" style="">User Class</tspan></tspan></text></g></g><g id="SvgjsG1037" transform="translate(76,145)"><path id="SvgjsPath1038" d="M 0 0L 90 0L 90 34.146341463414636L 0 34.146341463414636Z" stroke="rgba(33,41,48,1)" stroke-width="1.5" fill-opacity="1" fill="#4f95ff"></path><g id="SvgjsG1039"><text id="SvgjsText1040" font-family="&quot;Comic Sans MS&quot;" text-anchor="middle" font-size="13px" width="70px" fill="#323232" font-weight="400" align="middle" lineHeight="125%" anchor="middle" family="&quot;Comic Sans MS&quot;" size="13px" weight="400" font-style="" opacity="1" y="6.448170731707318" transform="rotate(0)"><tspan id="SvgjsTspan1041" dy="16.25" x="45"><tspan id="SvgjsTspan1042" style="">User实例</tspan></tspan></text></g></g><g id="SvgjsG1043" transform="translate(91,191.9512195121951)"><path id="SvgjsPath1044" d="M 0 4Q 0 0 4 0L 56 0Q 60 0 60 4L 60 17.341463414634145Q 60 21.341463414634145 56 21.341463414634145L 4 21.341463414634145Q 0 21.341463414634145 0 17.341463414634145Z" stroke="rgba(33,41,48,1)" stroke-width="1.5" fill-opacity="1" fill="#ffffff"></path><g id="SvgjsG1045"><text id="SvgjsText1046" font-family="&quot;Comic Sans MS&quot;" text-anchor="middle" font-size="13px" width="40px" fill="#323232" font-weight="400" align="middle" lineHeight="125%" anchor="middle" family="&quot;Comic Sans MS&quot;" size="13px" weight="400" font-style="" opacity="1" y="0.045731707317072434" transform="rotate(0)"><tspan id="SvgjsTspan1047" dy="16.25" x="30"><tspan id="SvgjsTspan1048" style="">user 1</tspan></tspan></text></g></g><g id="SvgjsG1049" transform="translate(91,221.40243902439022)"><path id="SvgjsPath1050" d="M 0 4Q 0 0 4 0L 56 0Q 60 0 60 4L 60 17.341463414634145Q 60 21.341463414634145 56 21.341463414634145L 4 21.341463414634145Q 0 21.341463414634145 0 17.341463414634145Z" stroke="rgba(33,41,48,1)" stroke-width="1.5" fill-opacity="1" fill="#ffffff"></path><g id="SvgjsG1051"><text id="SvgjsText1052" font-family="&quot;Comic Sans MS&quot;" text-anchor="middle" font-size="13px" width="40px" fill="#323232" font-weight="400" align="middle" lineHeight="125%" anchor="middle" family="&quot;Comic Sans MS&quot;" size="13px" weight="400" font-style="" opacity="1" y="0.045731707317072434" transform="rotate(0)"><tspan id="SvgjsTspan1053" dy="16.25" x="30"><tspan id="SvgjsTspan1054" style="">user 1</tspan></tspan></text></g></g><g id="SvgjsG1055" transform="translate(91,250.85365853658539)"><path id="SvgjsPath1056" d="M 0 4Q 0 0 4 0L 56 0Q 60 0 60 4L 60 17.341463414634145Q 60 21.341463414634145 56 21.341463414634145L 4 21.341463414634145Q 0 21.341463414634145 0 17.341463414634145Z" stroke="rgba(33,41,48,1)" stroke-width="1.5" fill-opacity="1" fill="#ffffff"></path><g id="SvgjsG1057"><text id="SvgjsText1058" font-family="&quot;Comic Sans MS&quot;" text-anchor="middle" font-size="13px" width="40px" fill="#323232" font-weight="400" align="middle" lineHeight="125%" anchor="middle" family="&quot;Comic Sans MS&quot;" size="13px" weight="400" font-style="" opacity="1" y="0.045731707317072434" transform="rotate(0)"><tspan id="SvgjsTspan1059" dy="16.25" x="30"><tspan id="SvgjsTspan1060" style="">user 1</tspan></tspan></text></g></g><g id="SvgjsG1061" transform="translate(41,96)"><path id="SvgjsPath1062" d="M 0 0L 50 0L 50 20L 0 20Z" stroke="rgba(33,41,48,1)" stroke-width="1.5" fill-opacity="1" fill="#b8b8b8"></path><g id="SvgjsG1063"><text id="SvgjsText1064" font-family="&quot;Comic Sans MS&quot;" text-anchor="middle" font-size="13px" width="30px" fill="#323232" font-weight="400" align="middle" lineHeight="125%" anchor="middle" family="&quot;Comic Sans MS&quot;" size="13px" weight="400" font-style="" opacity="1" y="-0.625" transform="rotate(0)"><tspan id="SvgjsTspan1065" dy="16.25" x="25"><tspan id="SvgjsTspan1066" style="">JVM</tspan></tspan></text></g></g><g id="SvgjsG1067"><path id="SvgjsPath1068" d="M304 75.75L304 100L304 100L304 122.30000000000001" stroke="#323232" stroke-width="1.5" fill="none" marker-end="url(#SvgjsMarker1069)"></path></g><g id="SvgjsG1071"><path id="SvgjsPath1072" d="M304 185.75L304 210L304 210L304 232.3" stroke="#a6aef3" stroke-width="1.5" fill="none" marker-end="url(#SvgjsMarker1073)"></path><rect id="SvgjsRect1075" width="78" height="18" x="265" y="196.53375" fill="#ffffff"></rect><text id="SvgjsText1076" font-family="&quot;Comic Sans MS&quot;" text-anchor="middle" font-size="13px" width="78px" fill="#323232" font-weight="400" align="top" lineHeight="16px" anchor="middle" family="&quot;Comic Sans MS&quot;" size="13px" weight="400" font-style="" opacity="1" y="193.90875" transform="rotate(0)"><tspan id="SvgjsTspan1077" dy="16.25" x="304"><tspan id="SvgjsTspan1078" style="">加载并初始化</tspan></tspan></text></g><g id="SvgjsG1079"><path id="SvgjsPath1080" d="M359.73763105799253 264.86435184378377C 420 266 439 155 361.6653896851126 155.4309267066401" stroke="#a6aef3" stroke-width="1.5" fill="none" marker-end="url(#SvgjsMarker1081)"></path><rect id="SvgjsRect1083" width="102" height="18" x="361.59445297803734" y="194.81152399400088" fill="#ffffff"></rect><text id="SvgjsText1084" font-family="&quot;Comic Sans MS&quot;" text-anchor="middle" font-size="13px" width="102px" fill="#323232" font-weight="400" align="top" lineHeight="16px" anchor="middle" family="&quot;Comic Sans MS&quot;" size="13px" weight="400" font-style="" opacity="1" y="192.18652399400088" transform="rotate(0)"><tspan id="SvgjsTspan1085" dy="16.25" x="412.59445297803734"><tspan id="SvgjsTspan1086" style="">getClassLoader()</tspan></tspan></text></g><g id="SvgjsG1087"><path id="SvgjsPath1088" d="M248.25099998175216 265.0387165683494C 215.4464956798406 270.3143530026754 199.97175297213846 247 168.6883239462315 247.25082735121634" stroke="#a6aef3" stroke-width="1.5" fill="none" marker-end="url(#SvgjsMarker1089)"></path><rect id="SvgjsRect1091" width="39" height="18" x="188.39925873549006" y="249.02907536594898" fill="#ffffff"></rect><text id="SvgjsText1092" font-family="&quot;Comic Sans MS&quot;" text-anchor="middle" font-size="13px" width="39px" fill="#323232" font-weight="400" align="top" lineHeight="16px" anchor="middle" family="&quot;Comic Sans MS&quot;" size="13px" weight="400" font-style="" opacity="1" y="246.40407536594898" transform="rotate(0)"><tspan id="SvgjsTspan1093" dy="16.25" x="207.89925873549006"><tspan id="SvgjsTspan1094" style="">实例化</tspan></tspan></text></g><g id="SvgjsG1095"><path id="SvgjsPath1096" d="M151.74722434643553 202.68641652874112C 197.46015164604643 203.43291618306873 217 234 247.0907506408691 263.0908727426758" stroke-dasharray="7.5,3" stroke="#a6aef3" stroke-width="1.5" fill="none" marker-end="url(#SvgjsMarker1097)"></path><rect id="SvgjsRect1099" width="60" height="18" x="171.79095894244898" y="210.60038801695907" fill="#ffffff"></rect><text id="SvgjsText1100" font-family="&quot;Comic Sans MS&quot;" text-anchor="middle" font-size="13px" width="60px" fill="#323232" font-weight="400" align="top" lineHeight="16px" anchor="middle" family="&quot;Comic Sans MS&quot;" size="13px" weight="400" font-style="" opacity="1" y="207.97538801695907" transform="rotate(0)"><tspan id="SvgjsTspan1101" dy="16.25" x="201.79095894244898"><tspan id="SvgjsTspan1102" style="">getClass()</tspan></tspan></text></g><g id="SvgjsG1103"></g></svg>