<svg id="SvgjsSvg1006" width="350" height="340" xmlns="http://www.w3.org/2000/svg" version="1.1" xmlns:xlink="http://www.w3.org/1999/xlink" xmlns:svgjs="http://svgjs.com/svgjs"><defs id="SvgjsDefs1007"><pattern patternUnits="userSpaceOnUse" id="pattern_mark_0" width="300" height="300"><text x="150" y="100" fill="rgba(229,229,229,0.8)" font-size="18" transform="rotate(-45, 150, 150)" style="dominant-baseline: middle; text-anchor: middle;"></text></pattern><pattern patternUnits="userSpaceOnUse" id="pattern_mark_1" width="300" height="300"><text x="150" y="200" fill="rgba(229,229,229,0.8)" font-size="18" transform="rotate(-45, 150, 150)" style="dominant-baseline: middle; text-anchor: middle;"></text></pattern><marker id="SvgjsMarker1039" markerWidth="13" markerHeight="9" refX="9.5" refY="4.5" viewBox="0 0 13 9" orient="auto" markerUnits="userSpaceOnUse" stroke-dasharray="0,0"><path id="SvgjsPath1040" d="M0,0 L13,4.5 L0,9 L0,0" fill="#323232" stroke="#323232" stroke-width="1"></path></marker><marker id="SvgjsMarker1043" markerWidth="13" markerHeight="9" refX="9.5" refY="4.5" viewBox="0 0 13 9" orient="auto" markerUnits="userSpaceOnUse" stroke-dasharray="0,0"><path id="SvgjsPath1044" d="M0,0 L13,4.5 L0,9 L0,0" fill="#323232" stroke="#323232" stroke-width="1"></path></marker><marker id="SvgjsMarker1047" markerWidth="13" markerHeight="9" refX="9.5" refY="4.5" viewBox="0 0 13 9" orient="auto" markerUnits="userSpaceOnUse" stroke-dasharray="0,0"><path id="SvgjsPath1048" d="M0,0 L13,4.5 L0,9 L0,0" fill="#323232" stroke="#323232" stroke-width="1"></path></marker></defs><rect id="svgbackgroundid" width="350" height="340" fill="transparent"></rect><rect id="SvgjsRect1009" width="350" height="340" fill="url(#pattern_mark_0)"></rect><rect id="SvgjsRect1010" width="350" height="340" fill="url(#pattern_mark_1)"></rect><g id="SvgjsG1011" transform="translate(25,145)"><path id="SvgjsPath1012" d="M 0 0L 100 0L 100 50L 0 50Z" stroke="rgba(33,41,48,1)" stroke-width="1.5" fill-opacity="1" fill="#f9cfce"></path><g id="SvgjsG1013"><text id="SvgjsText1014" font-family="&quot;Comic Sans MS&quot;" text-anchor="middle" font-size="15px" width="80px" fill="#323232" font-weight="700" align="middle" lineHeight="125%" anchor="middle" family="&quot;Comic Sans MS&quot;" size="15px" weight="700" font-style="" opacity="1" y="3.125" transform="rotate(0)"><tspan id="SvgjsTspan1015" dy="18.75" x="50"><tspan id="SvgjsTspan1016" style="">Redis性能</tspan></tspan><tspan id="SvgjsTspan1017" dy="18.75" x="50"><tspan id="SvgjsTspan1018" style="">影响因素</tspan></tspan></text></g></g><g id="SvgjsG1019" transform="translate(225,145)"><path id="SvgjsPath1020" d="M 0 4Q 0 0 4 0L 96 0Q 100 0 100 4L 100 46Q 100 50 96 50L 4 50Q 0 50 0 46Z" stroke="rgba(33,41,48,1)" stroke-width="1.5" fill-opacity="1" fill="#ee3131"></path><g id="SvgjsG1021"><text id="SvgjsText1022" font-family="&quot;Comic Sans MS&quot;" text-anchor="middle" font-size="15px" width="80px" fill="#323232" font-weight="700" align="middle" lineHeight="125%" anchor="middle" family="&quot;Comic Sans MS&quot;" size="15px" weight="700" font-style="" opacity="1" y="12.625" transform="rotate(0)"><tspan id="SvgjsTspan1023" dy="18.75" x="50"><tspan id="SvgjsTspan1024" style="">内存</tspan></tspan></text></g></g><g id="SvgjsG1025" transform="translate(225,265)"><path id="SvgjsPath1026" d="M 0 4Q 0 0 4 0L 96 0Q 100 0 100 4L 100 46Q 100 50 96 50L 4 50Q 0 50 0 46Z" stroke="rgba(33,41,48,1)" stroke-width="1.5" fill-opacity="1" fill="#67ada1"></path><g id="SvgjsG1027"><text id="SvgjsText1028" font-family="&quot;Comic Sans MS&quot;" text-anchor="middle" font-size="15px" width="80px" fill="#323232" font-weight="700" align="middle" lineHeight="125%" anchor="middle" family="&quot;Comic Sans MS&quot;" size="15px" weight="700" font-style="" opacity="1" y="12.625" transform="rotate(0)"><tspan id="SvgjsTspan1029" dy="18.75" x="50"><tspan id="SvgjsTspan1030" style="">网络IO</tspan></tspan></text></g></g><g id="SvgjsG1031" transform="translate(225,25)"><path id="SvgjsPath1032" d="M 0 4Q 0 0 4 0L 96 0Q 100 0 100 4L 100 46Q 100 50 96 50L 4 50Q 0 50 0 46Z" stroke="rgba(33,41,48,1)" stroke-width="1.5" fill-opacity="1" fill="#6bffff"></path><g id="SvgjsG1033"><text id="SvgjsText1034" font-family="&quot;Comic Sans MS&quot;" text-anchor="middle" font-size="15px" width="80px" fill="#323232" font-weight="700" align="middle" lineHeight="125%" anchor="middle" family="&quot;Comic Sans MS&quot;" size="15px" weight="700" font-style="" opacity="1" y="12.625" transform="rotate(0)"><tspan id="SvgjsTspan1035" dy="18.75" x="50"><tspan id="SvgjsTspan1036" style="">CPU</tspan></tspan></text></g></g><g id="SvgjsG1037"><path id="SvgjsPath1038" d="M125.75 170L175 170L175 170L222.3 170" stroke="#323232" stroke-width="1.5" fill="none" marker-end="url(#SvgjsMarker1039)"></path></g><g id="SvgjsG1041"><path id="SvgjsPath1042" d="M125.74105005699693 169.88448024833448C 187.48199740725323 169.99999999999994 162.51800259274677 50 222.33221979481107 50.41587110599582" stroke="#323232" stroke-width="1.5" fill="none" marker-end="url(#SvgjsMarker1043)"></path></g><g id="SvgjsG1045"><path id="SvgjsPath1046" d="M125.74105005699693 170.11551975166552C 187.48199740725323 169.99999999999994 162.51800259274677 290 222.33221979481107 289.5841288940042" stroke="#323232" stroke-width="1.5" fill="none" marker-end="url(#SvgjsMarker1047)"></path></g></svg>