<svg id="SvgjsSvg1006" width="544" height="428.5" xmlns="http://www.w3.org/2000/svg" version="1.1" xmlns:xlink="http://www.w3.org/1999/xlink" xmlns:svgjs="http://svgjs.com/svgjs"><defs id="SvgjsDefs1007"><pattern patternUnits="userSpaceOnUse" id="pattern_mark_0" width="300" height="300"><text x="150" y="100" fill="rgba(229,229,229,0.8)" font-size="18" transform="rotate(-45, 150, 150)" style="dominant-baseline: middle; text-anchor: middle;"></text></pattern><pattern patternUnits="userSpaceOnUse" id="pattern_mark_1" width="300" height="300"><text x="150" y="200" fill="rgba(229,229,229,0.8)" font-size="18" transform="rotate(-45, 150, 150)" style="dominant-baseline: middle; text-anchor: middle;"></text></pattern><marker id="SvgjsMarker1053" markerWidth="13" markerHeight="9" refX="9.5" refY="4.5" viewBox="0 0 13 9" orient="auto" markerUnits="userSpaceOnUse" stroke-dasharray="0,0"><path id="SvgjsPath1054" d="M0,0 L13,4.5 L0,9 L0,0" fill="#bb3625" stroke="#bb3625" stroke-width="1"></path></marker><marker id="SvgjsMarker1061" markerWidth="13" markerHeight="9" refX="9.5" refY="4.5" viewBox="0 0 13 9" orient="auto" markerUnits="userSpaceOnUse" stroke-dasharray="0,0"><path id="SvgjsPath1062" d="M0,0 L13,4.5 L0,9 L0,0" fill="#bb3625" stroke="#bb3625" stroke-width="1"></path></marker><marker id="SvgjsMarker1069" markerWidth="13" markerHeight="9" refX="9.5" refY="4.5" viewBox="0 0 13 9" orient="auto" markerUnits="userSpaceOnUse" stroke-dasharray="0,0"><path id="SvgjsPath1070" d="M0,0 L13,4.5 L0,9 L0,0" fill="#bb3625" stroke="#bb3625" stroke-width="1"></path></marker><marker id="SvgjsMarker1073" markerWidth="13" markerHeight="9" refX="9.5" refY="4.5" viewBox="0 0 13 9" orient="auto" markerUnits="userSpaceOnUse" stroke-dasharray="0,0"><path id="SvgjsPath1074" d="M0,0 L13,4.5 L0,9 L0,0" fill="#bb3625" stroke="#bb3625" stroke-width="1"></path></marker><marker id="SvgjsMarker1077" markerWidth="13" markerHeight="9" refX="9.5" refY="4.5" viewBox="0 0 13 9" orient="auto" markerUnits="userSpaceOnUse" stroke-dasharray="0,0"><path id="SvgjsPath1078" d="M0,0 L13,4.5 L0,9 L0,0" fill="#bb3625" stroke="#bb3625" stroke-width="1"></path></marker></defs><rect id="svgbackgroundid" width="544" height="428.5" fill="transparent"></rect><rect id="SvgjsRect1009" width="544" height="428.5" fill="url(#pattern_mark_0)"></rect><rect id="SvgjsRect1010" width="544" height="428.5" fill="url(#pattern_mark_1)"></rect><g id="SvgjsG1011" transform="translate(154,25)"><path id="SvgjsPath1012" d="M 0 4Q 0 0 4 0L 196 0Q 200 0 200 4L 200 46Q 200 50 196 50L 4 50Q 0 50 0 46Z" stroke="none" fill-opacity="1" fill="#7ebe49"></path><g id="SvgjsG1013"><text id="SvgjsText1014" font-family="&quot;Microsoft YaHei&quot;, 微软雅黑, Arial" text-anchor="middle" font-size="13px" width="180px" fill="#323232" font-weight="400" align="middle" lineHeight="125%" anchor="middle" family="&quot;Microsoft YaHei&quot;, 微软雅黑, Arial" size="13px" weight="400" font-style="" opacity="1" y="5.875" transform="rotate(0)"><tspan id="SvgjsTspan1015" dy="16.25" x="100"><tspan id="SvgjsTspan1016" style="">引导类加载器</tspan></tspan><tspan id="SvgjsTspan1017" dy="16.25" x="100"><tspan id="SvgjsTspan1018" style="">Bootstrap ClassLoader</tspan></tspan></text></g></g><g id="SvgjsG1019" transform="translate(25,353.5)"><path id="SvgjsPath1020" d="M 0 4Q 0 0 4 0L 196 0Q 200 0 200 4L 200 46Q 200 50 196 50L 4 50Q 0 50 0 46Z" stroke="none" fill-opacity="1" fill="#7ebe49"></path><g id="SvgjsG1021"><text id="SvgjsText1022" font-family="&quot;Microsoft YaHei&quot;, 微软雅黑, Arial" text-anchor="middle" font-size="13px" width="180px" fill="#323232" font-weight="400" align="middle" lineHeight="125%" anchor="middle" family="&quot;Microsoft YaHei&quot;, 微软雅黑, Arial" size="13px" weight="400" font-style="" opacity="1" y="5.875" transform="rotate(0)"><tspan id="SvgjsTspan1023" dy="16.25" x="100"><tspan id="SvgjsTspan1024" style="">自定义类加载器</tspan></tspan><tspan id="SvgjsTspan1025" dy="16.25" x="100"><tspan id="SvgjsTspan1026" style="">Custom ClassLoader</tspan></tspan></text></g></g><g id="SvgjsG1027" transform="translate(275,353.5)"><path id="SvgjsPath1028" d="M 0 4Q 0 0 4 0L 196 0Q 200 0 200 4L 200 46Q 200 50 196 50L 4 50Q 0 50 0 46Z" stroke="none" fill-opacity="1" fill="#7ebe49"></path><g id="SvgjsG1029"><text id="SvgjsText1030" font-family="&quot;Microsoft YaHei&quot;, 微软雅黑, Arial" text-anchor="middle" font-size="13px" width="180px" fill="#323232" font-weight="400" align="middle" lineHeight="125%" anchor="middle" family="&quot;Microsoft YaHei&quot;, 微软雅黑, Arial" size="13px" weight="400" font-style="" opacity="1" y="5.875" transform="rotate(0)"><tspan id="SvgjsTspan1031" dy="16.25" x="100"><tspan id="SvgjsTspan1032" style="">自定义类加载器</tspan></tspan><tspan id="SvgjsTspan1033" dy="16.25" x="100"><tspan id="SvgjsTspan1034" style="">Custom ClassLoader</tspan></tspan></text></g></g><g id="SvgjsG1035" transform="translate(154,134.5)"><path id="SvgjsPath1036" d="M 0 4Q 0 0 4 0L 196 0Q 200 0 200 4L 200 46Q 200 50 196 50L 4 50Q 0 50 0 46Z" stroke="none" fill-opacity="1" fill="#7ebe49"></path><g id="SvgjsG1037"><text id="SvgjsText1038" font-family="&quot;Microsoft YaHei&quot;, 微软雅黑, Arial" text-anchor="middle" font-size="13px" width="180px" fill="#323232" font-weight="400" align="middle" lineHeight="125%" anchor="middle" family="&quot;Microsoft YaHei&quot;, 微软雅黑, Arial" size="13px" weight="400" font-style="" opacity="1" y="5.875" transform="rotate(0)"><tspan id="SvgjsTspan1039" dy="16.25" x="100"><tspan id="SvgjsTspan1040" style="">扩展类加载器</tspan></tspan><tspan id="SvgjsTspan1041" dy="16.25" x="100"><tspan id="SvgjsTspan1042" style="">Extension ClassLoader</tspan></tspan></text></g></g><g id="SvgjsG1043" transform="translate(154,244)"><path id="SvgjsPath1044" d="M 0 4Q 0 0 4 0L 196 0Q 200 0 200 4L 200 46Q 200 50 196 50L 4 50Q 0 50 0 46Z" stroke="none" fill-opacity="1" fill="#7ebe49"></path><g id="SvgjsG1045"><text id="SvgjsText1046" font-family="&quot;Microsoft YaHei&quot;, 微软雅黑, Arial" text-anchor="middle" font-size="13px" width="180px" fill="#323232" font-weight="400" align="middle" lineHeight="125%" anchor="middle" family="&quot;Microsoft YaHei&quot;, 微软雅黑, Arial" size="13px" weight="400" font-style="" opacity="1" y="5.875" transform="rotate(0)"><tspan id="SvgjsTspan1047" dy="16.25" x="100"><tspan id="SvgjsTspan1048" style="">系统类加载器</tspan></tspan><tspan id="SvgjsTspan1049" dy="16.25" x="100"><tspan id="SvgjsTspan1050" style="">Application ClassLoader</tspan></tspan></text></g></g><g id="SvgjsG1051"><path id="SvgjsPath1052" d="M254 134.5L254 104.75L254 104.75L254 76.95" stroke="#bb3625" stroke-width="1.5" fill="none" marker-end="url(#SvgjsMarker1053)"></path><rect id="SvgjsRect1055" width="52" height="18" x="228" y="98.90126050420167" fill="#ffffff"></rect><text id="SvgjsText1056" font-family="&quot;Microsoft YaHei&quot;, 微软雅黑, Arial" text-anchor="middle" font-size="13px" width="52px" fill="#323232" font-weight="400" align="top" lineHeight="16px" anchor="middle" family="&quot;Microsoft YaHei&quot;, 微软雅黑, Arial" size="13px" weight="400" font-style="" opacity="1" y="96.27626050420167" transform="rotate(0)"><tspan id="SvgjsTspan1057" dy="16.25" x="254"><tspan id="SvgjsTspan1058" style="">向上委托</tspan></tspan></text></g><g id="SvgjsG1059"><path id="SvgjsPath1060" d="M254 244L254 214.25L254 214.25L254 186.45" stroke="#bb3625" stroke-width="1.5" fill="none" marker-end="url(#SvgjsMarker1061)"></path><rect id="SvgjsRect1063" width="52" height="18" x="228" y="206.9504201680672" fill="#ffffff"></rect><text id="SvgjsText1064" font-family="&quot;Microsoft YaHei&quot;, 微软雅黑, Arial" text-anchor="middle" font-size="13px" width="52px" fill="#323232" font-weight="400" align="top" lineHeight="16px" anchor="middle" family="&quot;Microsoft YaHei&quot;, 微软雅黑, Arial" size="13px" weight="400" font-style="" opacity="1" y="204.3254201680672" transform="rotate(0)"><tspan id="SvgjsTspan1065" dy="16.25" x="254"><tspan id="SvgjsTspan1066" style="">向上委托</tspan></tspan></text></g><g id="SvgjsG1067"><path id="SvgjsPath1068" d="M125 353.5L125 323.75L254 323.75L254 295.95" stroke="#bb3625" stroke-width="1.5" fill="none" marker-end="url(#SvgjsMarker1069)"></path></g><g id="SvgjsG1071"><path id="SvgjsPath1072" d="M375 353.5L375 323.75L254 323.75L254 295.95" stroke="#bb3625" stroke-width="1.5" fill="none" marker-end="url(#SvgjsMarker1073)"></path></g><g id="SvgjsG1075"><path id="SvgjsPath1076" d="M425 51L425 162L425 162L425 273" stroke="#bb3625" stroke-width="1.5" fill="none" marker-end="url(#SvgjsMarker1077)"></path></g><g id="SvgjsG1079" transform="translate(419,135)"><path id="SvgjsPath1080" d="M 0 0L 100 0L 100 49L 0 49Z" stroke="none" fill="none"></path><g id="SvgjsG1081"><text id="SvgjsText1082" font-family="&quot;Microsoft YaHei&quot;, 微软雅黑, Arial" text-anchor="middle" font-size="13px" width="100px" fill="#323232" font-weight="400" align="middle" lineHeight="125%" anchor="middle" family="&quot;Microsoft YaHei&quot;, 微软雅黑, Arial" size="13px" weight="400" font-style="" opacity="1" y="-2.625" transform="rotate(0)"><tspan id="SvgjsTspan1083" dy="16.25" x="50"><tspan id="SvgjsTspan1084" style="">父类加载失败</tspan></tspan><tspan id="SvgjsTspan1085" dy="16.25" x="50"><tspan id="SvgjsTspan1086" style="">交由子加载器</tspan></tspan><tspan id="SvgjsTspan1087" dy="16.25" x="50"><tspan id="SvgjsTspan1088" style="">自己处理</tspan></tspan></text></g></g><g id="SvgjsG1089"></g></svg>