<svg id="SvgjsSvg1006" width="602" height="540" xmlns="http://www.w3.org/2000/svg" version="1.1" xmlns:xlink="http://www.w3.org/1999/xlink" xmlns:svgjs="http://svgjs.com/svgjs"><defs id="SvgjsDefs1007"><pattern patternUnits="userSpaceOnUse" id="pattern_mark_0" width="300" height="300"><text x="150" y="100" fill="rgba(229,229,229,0.8)" font-size="18" transform="rotate(-45, 150, 150)" style="dominant-baseline: middle; text-anchor: middle;"></text></pattern><pattern patternUnits="userSpaceOnUse" id="pattern_mark_1" width="300" height="300"><text x="150" y="200" fill="rgba(229,229,229,0.8)" font-size="18" transform="rotate(-45, 150, 150)" style="dominant-baseline: middle; text-anchor: middle;"></text></pattern><marker id="SvgjsMarker1049" markerWidth="13" markerHeight="9" refX="9.5" refY="4.5" viewBox="0 0 13 9" orient="auto" markerUnits="userSpaceOnUse" stroke-dasharray="0,0"><path id="SvgjsPath1050" d="M0,0 L13,4.5 L0,9 L0,0" fill="#323232" stroke="#323232" stroke-width="1"></path></marker><marker id="SvgjsMarker1059" markerWidth="13" markerHeight="9" refX="9.5" refY="4.5" viewBox="0 0 13 9" orient="auto" markerUnits="userSpaceOnUse" stroke-dasharray="0,0"><path id="SvgjsPath1060" d="M0,0 L13,4.5 L0,9 L0,0" fill="#323232" stroke="#323232" stroke-width="1"></path></marker><marker id="SvgjsMarker1071" markerWidth="13" markerHeight="9" refX="9.5" refY="4.5" viewBox="0 0 13 9" orient="auto" markerUnits="userSpaceOnUse" stroke-dasharray="0,0"><path id="SvgjsPath1072" d="M0,0 L13,4.5 L0,9 L0,0" fill="#323232" stroke="#323232" stroke-width="1"></path></marker><marker id="SvgjsMarker1081" markerWidth="13" markerHeight="9" refX="9.5" refY="4.5" viewBox="0 0 13 9" orient="auto" markerUnits="userSpaceOnUse" stroke-dasharray="0,0"><path id="SvgjsPath1082" d="M0,0 L13,4.5 L0,9 L0,0" fill="#323232" stroke="#323232" stroke-width="1"></path></marker></defs><rect id="svgbackgroundid" width="602" height="540" fill="transparent"></rect><rect id="SvgjsRect1009" width="602" height="540" fill="url(#pattern_mark_0)"></rect><rect id="SvgjsRect1010" width="602" height="540" fill="url(#pattern_mark_1)"></rect><g id="SvgjsG1011" transform="translate(25,25)"><path id="SvgjsPath1012" d="M 35 30L 35 490" stroke-dasharray="3,4" stroke="rgba(33,41,48,1)" stroke-width="2" fill="none"></path><path id="SvgjsPath1013" d="M 0 0L 70 0L 70 30L 0 30Z" stroke="rgba(33,41,48,1)" stroke-width="1.5" fill-opacity="1" fill="#fbeada"></path><g id="SvgjsG1014"><text id="SvgjsText1015" font-family="&quot;Comic Sans MS&quot;" text-anchor="middle" font-size="13px" width="50px" fill="#323232" font-weight="400" align="middle" lineHeight="125%" anchor="middle" family="&quot;Comic Sans MS&quot;" size="13px" weight="400" font-style="" opacity="1" y="4.375" transform="rotate(0)"><tspan id="SvgjsTspan1016" dy="16.25" x="35"><tspan id="SvgjsTspan1017" style="">线程A</tspan></tspan></text></g></g><g id="SvgjsG1018" transform="translate(185.66666666666669,25)"><path id="SvgjsPath1019" d="M 35 30L 35 490" stroke-dasharray="3,4" stroke="rgba(33,41,48,1)" stroke-width="2" fill="none"></path><path id="SvgjsPath1020" d="M 0 0L 70 0L 70 30L 0 30Z" stroke="rgba(33,41,48,1)" stroke-width="1.5" fill-opacity="1" fill="#fbeada"></path><g id="SvgjsG1021"><text id="SvgjsText1022" font-family="&quot;Comic Sans MS&quot;" text-anchor="middle" font-size="13px" width="50px" fill="#323232" font-weight="400" align="middle" lineHeight="125%" anchor="middle" family="&quot;Comic Sans MS&quot;" size="13px" weight="400" font-style="" opacity="1" y="4.375" transform="rotate(0)"><tspan id="SvgjsTspan1023" dy="16.25" x="35"><tspan id="SvgjsTspan1024" style="">线程B</tspan></tspan></text></g></g><g id="SvgjsG1025" transform="translate(45,96)"><path id="SvgjsPath1026" d="M 0 4Q 0 0 4 0L 26 0Q 30 0 30 4L 30 76Q 30 80 26 80L 4 80Q 0 80 0 76L 0 4Z" stroke="rgba(33,41,48,1)" stroke-width="1.5" fill-opacity="1" fill="#d2d6f9"></path></g><g id="SvgjsG1027" transform="translate(45,379)"><path id="SvgjsPath1028" d="M 0 4Q 0 0 4 0L 26 0Q 30 0 30 4L 30 76Q 30 80 26 80L 4 80Q 0 80 0 76L 0 4Z" stroke="rgba(33,41,48,1)" stroke-width="1.5" fill-opacity="1" fill="#d2d6f9"></path></g><g id="SvgjsG1029" transform="translate(346.33333333333337,25)"><path id="SvgjsPath1030" d="M 35 30L 35 490" stroke-dasharray="3,4" stroke="rgba(33,41,48,1)" stroke-width="2" fill="none"></path><path id="SvgjsPath1031" d="M 0 0L 70 0L 70 30L 0 30Z" stroke="rgba(33,41,48,1)" stroke-width="1.5" fill-opacity="1" fill="#a7932c"></path><g id="SvgjsG1032"><text id="SvgjsText1033" font-family="&quot;Comic Sans MS&quot;" text-anchor="middle" font-size="13px" width="50px" fill="#323232" font-weight="400" align="middle" lineHeight="125%" anchor="middle" family="&quot;Comic Sans MS&quot;" size="13px" weight="400" font-style="" opacity="1" y="4.375" transform="rotate(0)"><tspan id="SvgjsTspan1034" dy="16.25" x="35"><tspan id="SvgjsTspan1035" style="">Redis</tspan></tspan></text></g></g><g id="SvgjsG1036" transform="translate(507,25)"><path id="SvgjsPath1037" d="M 35 30L 35 490" stroke-dasharray="3,4" stroke="rgba(33,41,48,1)" stroke-width="2" fill="none"></path><path id="SvgjsPath1038" d="M 0 0L 70 0L 70 30L 0 30Z" stroke="rgba(33,41,48,1)" stroke-width="1.5" fill-opacity="1" fill="#7985ec"></path><g id="SvgjsG1039"><text id="SvgjsText1040" font-family="&quot;Comic Sans MS&quot;" text-anchor="middle" font-size="13px" width="50px" fill="#323232" font-weight="400" align="middle" lineHeight="125%" anchor="middle" family="&quot;Comic Sans MS&quot;" size="13px" weight="400" font-style="" opacity="1" y="4.375" transform="rotate(0)"><tspan id="SvgjsTspan1041" dy="16.25" x="35"><tspan id="SvgjsTspan1042" style="">MySQL</tspan></tspan></text></g></g><g id="SvgjsG1043" transform="translate(366.33333333333337,96)"><path id="SvgjsPath1044" d="M 0 4Q 0 0 4 0L 26 0Q 30 0 30 4L 30 76Q 30 80 26 80L 4 80Q 0 80 0 76L 0 4Z" stroke="rgba(33,41,48,1)" stroke-width="1.5" fill-opacity="1" fill="#d2d6f9"></path></g><g id="SvgjsG1045" transform="translate(205.66666666666669,190)"><path id="SvgjsPath1046" d="M 0 4Q 0 0 4 0L 26 0Q 30 0 30 4L 30 76Q 30 80 26 80L 4 80Q 0 80 0 76L 0 4Z" stroke="rgba(33,41,48,1)" stroke-width="1.5" fill-opacity="1" fill="#d2d6f9"></path></g><g id="SvgjsG1047"><path id="SvgjsPath1048" d="M75.75 136L363.6333333333333 136" stroke="#323232" stroke-width="1.5" fill="none" marker-end="url(#SvgjsMarker1049)"></path><rect id="SvgjsRect1051" width="102" height="18" x="172.8224429727741" y="127" fill="#ffffff"></rect><text id="SvgjsText1052" font-family="&quot;Comic Sans MS&quot;" text-anchor="middle" font-size="13px" width="102px" fill="#323232" font-weight="400" align="top" lineHeight="16px" anchor="middle" family="&quot;Comic Sans MS&quot;" size="13px" weight="400" font-style="" opacity="1" y="124.375" transform="rotate(0)"><tspan id="SvgjsTspan1053" dy="16.25" x="223.8224429727741"><tspan id="SvgjsTspan1054" style="">update key = 100</tspan></tspan></text></g><g id="SvgjsG1055" transform="translate(366.33333333333337,190)"><path id="SvgjsPath1056" d="M 0 4Q 0 0 4 0L 26 0Q 30 0 30 4L 30 76Q 30 80 26 80L 4 80Q 0 80 0 76L 0 4Z" stroke="rgba(33,41,48,1)" stroke-width="1.5" fill-opacity="1" fill="#d2d6f9"></path></g><g id="SvgjsG1057"><path id="SvgjsPath1058" d="M236.41666666666669 230L363.6333333333333 230" stroke="#323232" stroke-width="1.5" fill="none" marker-end="url(#SvgjsMarker1059)"></path><rect id="SvgjsRect1061" width="96" height="18" x="251.2271759787153" y="221" fill="#ffffff"></rect><text id="SvgjsText1062" font-family="&quot;Comic Sans MS&quot;" text-anchor="middle" font-size="13px" width="96px" fill="#323232" font-weight="400" align="top" lineHeight="16px" anchor="middle" family="&quot;Comic Sans MS&quot;" size="13px" weight="400" font-style="" opacity="1" y="218.375" transform="rotate(0)"><tspan id="SvgjsTspan1063" dy="16.25" x="299.2271759787153"><tspan id="SvgjsTspan1064" style="">update key = 80</tspan></tspan></text></g><g id="SvgjsG1065" transform="translate(205.66666666666669,284)"><path id="SvgjsPath1066" d="M 0 4Q 0 0 4 0L 26 0Q 30 0 30 4L 30 76Q 30 80 26 80L 4 80Q 0 80 0 76L 0 4Z" stroke="rgba(33,41,48,1)" stroke-width="1.5" fill-opacity="1" fill="#d2d6f9"></path></g><g id="SvgjsG1067" transform="translate(527,284)"><path id="SvgjsPath1068" d="M 0 4Q 0 0 4 0L 26 0Q 30 0 30 4L 30 76Q 30 80 26 80L 4 80Q 0 80 0 76L 0 4Z" stroke="rgba(33,41,48,1)" stroke-width="1.5" fill-opacity="1" fill="#d2d6f9"></path></g><g id="SvgjsG1069"><path id="SvgjsPath1070" d="M236.41666666666669 324L524.3 324" stroke="#323232" stroke-width="1.5" fill="none" marker-end="url(#SvgjsMarker1071)"></path><rect id="SvgjsRect1073" width="96" height="18" x="330.15514455782306" y="315" fill="#ffffff"></rect><text id="SvgjsText1074" font-family="&quot;Comic Sans MS&quot;" text-anchor="middle" font-size="13px" width="96px" fill="#323232" font-weight="400" align="top" lineHeight="16px" anchor="middle" family="&quot;Comic Sans MS&quot;" size="13px" weight="400" font-style="" opacity="1" y="312.375" transform="rotate(0)"><tspan id="SvgjsTspan1075" dy="16.25" x="378.15514455782306"><tspan id="SvgjsTspan1076" style="">update key = 80</tspan></tspan></text></g><g id="SvgjsG1077" transform="translate(527,379)"><path id="SvgjsPath1078" d="M 0 4Q 0 0 4 0L 26 0Q 30 0 30 4L 30 76Q 30 80 26 80L 4 80Q 0 80 0 76L 0 4Z" stroke="rgba(33,41,48,1)" stroke-width="1.5" fill-opacity="1" fill="#d2d6f9"></path></g><g id="SvgjsG1079"><path id="SvgjsPath1080" d="M75.75 419L524.3 419" stroke="#323232" stroke-width="1.5" fill="none" marker-end="url(#SvgjsMarker1081)"></path><rect id="SvgjsRect1083" width="102" height="18" x="249.5382151029748" y="410" fill="#ffffff"></rect><text id="SvgjsText1084" font-family="&quot;Comic Sans MS&quot;" text-anchor="middle" font-size="13px" width="102px" fill="#323232" font-weight="400" align="top" lineHeight="16px" anchor="middle" family="&quot;Comic Sans MS&quot;" size="13px" weight="400" font-style="" opacity="1" y="407.375" transform="rotate(0)"><tspan id="SvgjsTspan1085" dy="16.25" x="300.5382151029748"><tspan id="SvgjsTspan1086" style="">update key = 100</tspan></tspan></text></g></svg>