<svg id="SvgjsSvg1006" width="670" height="104" xmlns="http://www.w3.org/2000/svg" version="1.1" xmlns:xlink="http://www.w3.org/1999/xlink" xmlns:svgjs="http://svgjs.com/svgjs"><defs id="SvgjsDefs1007"><pattern patternUnits="userSpaceOnUse" id="pattern_mark_0" width="300" height="300"><text x="150" y="100" fill="rgba(229,229,229,0.8)" font-size="18" transform="rotate(-45, 150, 150)" style="dominant-baseline: middle; text-anchor: middle;"></text></pattern><pattern patternUnits="userSpaceOnUse" id="pattern_mark_1" width="300" height="300"><text x="150" y="200" fill="rgba(229,229,229,0.8)" font-size="18" transform="rotate(-45, 150, 150)" style="dominant-baseline: middle; text-anchor: middle;"></text></pattern><marker id="SvgjsMarker1037" markerWidth="18" markerHeight="14" refX="12" refY="7" viewBox="0 0 18 14" orient="auto" markerUnits="userSpaceOnUse" stroke-dasharray="0,0"><path id="SvgjsPath1038" d="M0,0 L18,7 L0,14 L0,0" fill="#e0c431" stroke="#e0c431" stroke-width="1"></path></marker><marker id="SvgjsMarker1041" markerWidth="18" markerHeight="14" refX="12" refY="7" viewBox="0 0 18 14" orient="auto" markerUnits="userSpaceOnUse" stroke-dasharray="0,0"><path id="SvgjsPath1042" d="M0,0 L18,7 L0,14 L0,0" fill="#e0c431" stroke="#e0c431" stroke-width="1"></path></marker><marker id="SvgjsMarker1045" markerWidth="18" markerHeight="14" refX="12" refY="7" viewBox="0 0 18 14" orient="auto" markerUnits="userSpaceOnUse" stroke-dasharray="0,0"><path id="SvgjsPath1046" d="M0,0 L18,7 L0,14 L0,0" fill="#e0c431" stroke="#e0c431" stroke-width="1"></path></marker></defs><rect id="svgbackgroundid" width="670" height="104" fill="transparent"></rect><rect id="SvgjsRect1009" width="670" height="104" fill="url(#pattern_mark_0)"></rect><rect id="SvgjsRect1010" width="670" height="104" fill="url(#pattern_mark_1)"></rect><g id="SvgjsG1011" transform="translate(25,25)"><path id="SvgjsPath1012" d="M 0 0L 110 0L 110 54L 0 54Z" stroke="rgba(224,196,49,1)" stroke-width="4" fill-opacity="1" fill="#ffffff"></path><g id="SvgjsG1013"><text id="SvgjsText1014" font-family="微软雅黑" text-anchor="middle" font-size="20px" width="90px" fill="#e0c431" font-weight="700" align="middle" lineHeight="125%" anchor="middle" family="微软雅黑" size="20px" weight="700" font-style="" opacity="1" y="9" transform="rotate(0)"><tspan id="SvgjsTspan1015" dy="25" x="55"><tspan id="SvgjsTspan1016" style="">无锁</tspan></tspan></text></g></g><g id="SvgjsG1017" transform="translate(195,25)"><path id="SvgjsPath1018" d="M 0 0L 110 0L 110 54L 0 54Z" stroke="rgba(224,196,49,1)" stroke-width="4" fill-opacity="1" fill="#ffffff"></path><g id="SvgjsG1019"><text id="SvgjsText1020" font-family="微软雅黑" text-anchor="middle" font-size="20px" width="90px" fill="#e0c431" font-weight="700" align="middle" lineHeight="125%" anchor="middle" family="微软雅黑" size="20px" weight="700" font-style="" opacity="1" y="9" transform="rotate(0)"><tspan id="SvgjsTspan1021" dy="25" x="55"><tspan id="SvgjsTspan1022" style="">偏向锁</tspan></tspan></text></g></g><g id="SvgjsG1023" transform="translate(365,25)"><path id="SvgjsPath1024" d="M 0 0L 110 0L 110 54L 0 54Z" stroke="rgba(224,196,49,1)" stroke-width="4" fill-opacity="1" fill="#ffffff"></path><g id="SvgjsG1025"><text id="SvgjsText1026" font-family="微软雅黑" text-anchor="middle" font-size="20px" width="90px" fill="#e0c431" font-weight="700" align="middle" lineHeight="125%" anchor="middle" family="微软雅黑" size="20px" weight="700" font-style="" opacity="1" y="9" transform="rotate(0)"><tspan id="SvgjsTspan1027" dy="25" x="55"><tspan id="SvgjsTspan1028" style="">轻量级锁</tspan></tspan></text></g></g><g id="SvgjsG1029" transform="translate(535,25)"><path id="SvgjsPath1030" d="M 0 0L 110 0L 110 54L 0 54Z" stroke="rgba(224,196,49,1)" stroke-width="4" fill-opacity="1" fill="#ffffff"></path><g id="SvgjsG1031"><text id="SvgjsText1032" font-family="微软雅黑" text-anchor="middle" font-size="20px" width="90px" fill="#e0c431" font-weight="700" align="middle" lineHeight="125%" anchor="middle" family="微软雅黑" size="20px" weight="700" font-style="" opacity="1" y="9" transform="rotate(0)"><tspan id="SvgjsTspan1033" dy="25" x="55"><tspan id="SvgjsTspan1034" style="">重量级锁</tspan></tspan></text></g></g><g id="SvgjsG1035"><path id="SvgjsPath1036" d="M137 52L187.8 52" stroke="#e0c431" stroke-width="4" fill="none" marker-end="url(#SvgjsMarker1037)"></path></g><g id="SvgjsG1039"><path id="SvgjsPath1040" d="M307 52L335 52L335 52L357.8 52" stroke="#e0c431" stroke-width="4" fill="none" marker-end="url(#SvgjsMarker1041)"></path></g><g id="SvgjsG1043"><path id="SvgjsPath1044" d="M477 52L505 52L505 52L527.8 52" stroke="#e0c431" stroke-width="4" fill="none" marker-end="url(#SvgjsMarker1045)"></path></g></svg>