<svg id="SvgjsSvg1132" width="790" height="380" xmlns="http://www.w3.org/2000/svg" version="1.1" xmlns:xlink="http://www.w3.org/1999/xlink" xmlns:svgjs="http://svgjs.com/svgjs"><defs id="SvgjsDefs1133"><pattern patternUnits="userSpaceOnUse" id="pattern_mark_0" width="300" height="300"><text x="150" y="100" fill="rgba(229,229,229,0.8)" font-size="18" transform="rotate(-45, 150, 150)" style="dominant-baseline: middle; text-anchor: middle;"></text></pattern><pattern patternUnits="userSpaceOnUse" id="pattern_mark_1" width="300" height="300"><text x="150" y="200" fill="rgba(229,229,229,0.8)" font-size="18" transform="rotate(-45, 150, 150)" style="dominant-baseline: middle; text-anchor: middle;"></text></pattern><marker id="SvgjsMarker1193" markerWidth="13" markerHeight="9" refX="9.5" refY="4.5" viewBox="0 0 13 9" orient="auto" markerUnits="userSpaceOnUse" stroke-dasharray="0,0"><path id="SvgjsPath1194" d="M0,0 L13,4.5 L0,9 L0,0" fill="#a5b9cb" stroke="#a5b9cb" stroke-width="1"></path></marker><marker id="SvgjsMarker1197" markerWidth="13" markerHeight="9" refX="9.5" refY="4.5" viewBox="0 0 13 9" orient="auto" markerUnits="userSpaceOnUse" stroke-dasharray="0,0"><path id="SvgjsPath1198" d="M0,0 L13,4.5 L0,9 L0,0" fill="#a5b9cb" stroke="#a5b9cb" stroke-width="1"></path></marker><marker id="SvgjsMarker1201" markerWidth="13" markerHeight="9" refX="9.5" refY="4.5" viewBox="0 0 13 9" orient="auto" markerUnits="userSpaceOnUse" stroke-dasharray="0,0"><path id="SvgjsPath1202" d="M0,0 L13,4.5 L0,9 L0,0" fill="#a5b9cb" stroke="#a5b9cb" stroke-width="1"></path></marker><marker id="SvgjsMarker1205" markerWidth="13" markerHeight="9" refX="9.5" refY="4.5" viewBox="0 0 13 9" orient="auto" markerUnits="userSpaceOnUse" stroke-dasharray="0,0"><path id="SvgjsPath1206" d="M0,0 L13,4.5 L0,9 L0,0" fill="#a5b9cb" stroke="#a5b9cb" stroke-width="1"></path></marker><marker id="SvgjsMarker1209" markerWidth="13" markerHeight="9" refX="9.5" refY="4.5" viewBox="0 0 13 9" orient="auto" markerUnits="userSpaceOnUse" stroke-dasharray="0,0"><path id="SvgjsPath1210" d="M0,0 L13,4.5 L0,9 L0,0" fill="#a5b9cb" stroke="#a5b9cb" stroke-width="1"></path></marker><marker id="SvgjsMarker1213" markerWidth="13" markerHeight="9" refX="9.5" refY="4.5" viewBox="0 0 13 9" orient="auto" markerUnits="userSpaceOnUse" stroke-dasharray="0,0"><path id="SvgjsPath1214" d="M0,0 L13,4.5 L0,9 L0,0" fill="#a5b9cb" stroke="#a5b9cb" stroke-width="1"></path></marker><marker id="SvgjsMarker1217" markerWidth="13" markerHeight="9" refX="9.5" refY="4.5" viewBox="0 0 13 9" orient="auto" markerUnits="userSpaceOnUse" stroke-dasharray="0,0"><path id="SvgjsPath1218" d="M0,0 L13,4.5 L0,9 L0,0" fill="#a5b9cb" stroke="#a5b9cb" stroke-width="1"></path></marker><marker id="SvgjsMarker1221" markerWidth="13" markerHeight="9" refX="9.5" refY="4.5" viewBox="0 0 13 9" orient="auto" markerUnits="userSpaceOnUse" stroke-dasharray="0,0"><path id="SvgjsPath1222" d="M0,0 L13,4.5 L0,9 L0,0" fill="#a5b9cb" stroke="#a5b9cb" stroke-width="1"></path></marker><marker id="SvgjsMarker1225" markerWidth="13" markerHeight="9" refX="9.5" refY="4.5" viewBox="0 0 13 9" orient="auto" markerUnits="userSpaceOnUse" stroke-dasharray="0,0"><path id="SvgjsPath1226" d="M0,0 L13,4.5 L0,9 L0,0" fill="#a5b9cb" stroke="#a5b9cb" stroke-width="1"></path></marker><marker id="SvgjsMarker1241" markerWidth="13" markerHeight="9" refX="9.5" refY="4.5" viewBox="0 0 13 9" orient="auto" markerUnits="userSpaceOnUse" stroke-dasharray="0,0"><path id="SvgjsPath1242" d="M0,0 L13,4.5 L0,9 L0,0" fill="#a5b9cb" stroke="#a5b9cb" stroke-width="1"></path></marker><marker id="SvgjsMarker1245" markerWidth="13" markerHeight="9" refX="9.5" refY="4.5" viewBox="0 0 13 9" orient="auto" markerUnits="userSpaceOnUse" stroke-dasharray="0,0"><path id="SvgjsPath1246" d="M0,0 L13,4.5 L0,9 L0,0" fill="#a5b9cb" stroke="#a5b9cb" stroke-width="1"></path></marker><marker id="SvgjsMarker1255" markerWidth="13" markerHeight="9" refX="9.5" refY="4.5" viewBox="0 0 13 9" orient="auto" markerUnits="userSpaceOnUse" stroke-dasharray="0,0"><path id="SvgjsPath1256" d="M0,0 L13,4.5 L0,9 L0,0" fill="#a5b9cb" stroke="#a5b9cb" stroke-width="1"></path></marker><marker id="SvgjsMarker1259" markerWidth="13" markerHeight="9" refX="9.5" refY="4.5" viewBox="0 0 13 9" orient="auto" markerUnits="userSpaceOnUse" stroke-dasharray="0,0"><path id="SvgjsPath1260" d="M0,0 L13,4.5 L0,9 L0,0" fill="#a5b9cb" stroke="#a5b9cb" stroke-width="1"></path></marker></defs><rect id="svgbackgroundid" width="790" height="380" fill="transparent"></rect><rect id="SvgjsRect1135" width="790" height="380" fill="url(#pattern_mark_0)"></rect><rect id="SvgjsRect1136" width="790" height="380" fill="url(#pattern_mark_1)"></rect><g id="SvgjsG1137" transform="translate(315,25)"><path id="SvgjsPath1138" d="M 0 0L 200 0L 200 30L 0 30Z" stroke="none" fill-opacity="1" fill="#98b7de"></path><g id="SvgjsG1139"><text id="SvgjsText1140" font-family="&quot;Microsoft YaHei&quot;, 微软雅黑, Arial" text-anchor="middle" font-size="13px" width="180px" fill="#ffffff" font-weight="400" align="middle" lineHeight="125%" anchor="middle" family="&quot;Microsoft YaHei&quot;, 微软雅黑, Arial" size="13px" weight="400" font-style="" opacity="1" y="4.375" transform="rotate(0)"><tspan id="SvgjsTspan1141" dy="16.25" x="100"><tspan id="SvgjsTspan1142" style="">内存区域</tspan></tspan></text></g></g><g id="SvgjsG1143" transform="translate(365,105)"><path id="SvgjsPath1144" d="M 0 0L 100 0L 100 30L 0 30Z" stroke="none" fill-opacity="1" fill="#bad3bd"></path><g id="SvgjsG1145"><text id="SvgjsText1146" font-family="&quot;Microsoft YaHei&quot;, 微软雅黑, Arial" text-anchor="middle" font-size="13px" width="80px" fill="#ffffff" font-weight="400" align="middle" lineHeight="125%" anchor="middle" family="&quot;Microsoft YaHei&quot;, 微软雅黑, Arial" size="13px" weight="400" font-style="" opacity="1" y="4.375" transform="rotate(0)"><tspan id="SvgjsTspan1147" dy="16.25" x="50"><tspan id="SvgjsTspan1148" style="">ThreadLocal</tspan></tspan></text></g></g><g id="SvgjsG1149" transform="translate(555,105)"><path id="SvgjsPath1150" d="M 0 0L 100 0L 100 30L 0 30Z" stroke="none" fill-opacity="1" fill="#f3aa56"></path><g id="SvgjsG1151"><text id="SvgjsText1152" font-family="&quot;Microsoft YaHei&quot;, 微软雅黑, Arial" text-anchor="middle" font-size="13px" width="80px" fill="#ffffff" font-weight="400" align="middle" lineHeight="125%" anchor="middle" family="&quot;Microsoft YaHei&quot;, 微软雅黑, Arial" size="13px" weight="400" font-style="" opacity="1" y="4.375" transform="rotate(0)"><tspan id="SvgjsTspan1153" dy="16.25" x="50"><tspan id="SvgjsTspan1154" style="">线程私有</tspan></tspan></text></g></g><g id="SvgjsG1155" transform="translate(175,105)"><path id="SvgjsPath1156" d="M 0 0L 100 0L 100 30L 0 30Z" stroke="none" fill-opacity="1" fill="#9bbc8e"></path><g id="SvgjsG1157"><text id="SvgjsText1158" font-family="&quot;Microsoft YaHei&quot;, 微软雅黑, Arial" text-anchor="middle" font-size="13px" width="80px" fill="#ffffff" font-weight="400" align="middle" lineHeight="125%" anchor="middle" family="&quot;Microsoft YaHei&quot;, 微软雅黑, Arial" size="13px" weight="400" font-style="" opacity="1" y="4.375" transform="rotate(0)"><tspan id="SvgjsTspan1159" dy="16.25" x="50"><tspan id="SvgjsTspan1160" style="">线程共享</tspan></tspan></text></g></g><g id="SvgjsG1161" transform="translate(250,185)"><path id="SvgjsPath1162" d="M 0 0L 100 0L 100 30L 0 30Z" stroke="none" fill-opacity="1" fill="#9ebe91"></path><g id="SvgjsG1163"><text id="SvgjsText1164" font-family="&quot;Microsoft YaHei&quot;, 微软雅黑, Arial" text-anchor="middle" font-size="13px" width="80px" fill="#ffffff" font-weight="400" align="middle" lineHeight="125%" anchor="middle" family="&quot;Microsoft YaHei&quot;, 微软雅黑, Arial" size="13px" weight="400" font-style="" opacity="1" y="4.375" transform="rotate(0)"><tspan id="SvgjsTspan1165" dy="16.25" x="50"><tspan id="SvgjsTspan1166" style="">元空间</tspan></tspan></text></g></g><g id="SvgjsG1167" transform="translate(100,185)"><path id="SvgjsPath1168" d="M 0 0L 100 0L 100 30L 0 30Z" stroke="none" fill-opacity="1" fill="#96bb8c"></path><g id="SvgjsG1169"><text id="SvgjsText1170" font-family="&quot;Microsoft YaHei&quot;, 微软雅黑, Arial" text-anchor="middle" font-size="13px" width="80px" fill="#ffffff" font-weight="400" align="middle" lineHeight="125%" anchor="middle" family="&quot;Microsoft YaHei&quot;, 微软雅黑, Arial" size="13px" weight="400" font-style="" opacity="1" y="4.375" transform="rotate(0)"><tspan id="SvgjsTspan1171" dy="16.25" x="50"><tspan id="SvgjsTspan1172" style="">堆</tspan></tspan></text></g></g><g id="SvgjsG1173" transform="translate(555,185)"><path id="SvgjsPath1174" d="M 0 0L 100 0L 100 30L 0 30Z" stroke="none" fill-opacity="1" fill="#f3aa56"></path><g id="SvgjsG1175"><text id="SvgjsText1176" font-family="&quot;Microsoft YaHei&quot;, 微软雅黑, Arial" text-anchor="middle" font-size="13px" width="80px" fill="#ffffff" font-weight="400" align="middle" lineHeight="125%" anchor="middle" family="&quot;Microsoft YaHei&quot;, 微软雅黑, Arial" size="13px" weight="400" font-style="" opacity="1" y="4.375" transform="rotate(0)"><tspan id="SvgjsTspan1177" dy="16.25" x="50"><tspan id="SvgjsTspan1178" style="">本地方法栈</tspan></tspan></text></g></g><g id="SvgjsG1179" transform="translate(445,185)"><path id="SvgjsPath1180" d="M 0 0L 100 0L 100 30L 0 30Z" stroke="none" fill-opacity="1" fill="#f3aa56"></path><g id="SvgjsG1181"><text id="SvgjsText1182" font-family="&quot;Microsoft YaHei&quot;, 微软雅黑, Arial" text-anchor="middle" font-size="13px" width="80px" fill="#ffffff" font-weight="400" align="middle" lineHeight="125%" anchor="middle" family="&quot;Microsoft YaHei&quot;, 微软雅黑, Arial" size="13px" weight="400" font-style="" opacity="1" y="4.375" transform="rotate(0)"><tspan id="SvgjsTspan1183" dy="16.25" x="50"><tspan id="SvgjsTspan1184" style="">虚拟机栈</tspan></tspan></text></g></g><g id="SvgjsG1185" transform="translate(665,185)"><path id="SvgjsPath1186" d="M 0 0L 100 0L 100 30L 0 30Z" stroke="none" fill-opacity="1" fill="#f3aa56"></path><g id="SvgjsG1187"><text id="SvgjsText1188" font-family="&quot;Microsoft YaHei&quot;, 微软雅黑, Arial" text-anchor="middle" font-size="13px" width="80px" fill="#ffffff" font-weight="400" align="middle" lineHeight="125%" anchor="middle" family="&quot;Microsoft YaHei&quot;, 微软雅黑, Arial" size="13px" weight="400" font-style="" opacity="1" y="4.375" transform="rotate(0)"><tspan id="SvgjsTspan1189" dy="16.25" x="50"><tspan id="SvgjsTspan1190" style="">程序计数器</tspan></tspan></text></g></g><g id="SvgjsG1191"><path id="SvgjsPath1192" d="M415 55L415 80L225 80L225 103.05" stroke="#a5b9cb" stroke-width="1.5" fill="none" marker-end="url(#SvgjsMarker1193)"></path></g><g id="SvgjsG1195"><path id="SvgjsPath1196" d="M415 55L415 80L605 80L605 103.05" stroke="#a5b9cb" stroke-width="1.5" fill="none" marker-end="url(#SvgjsMarker1197)"></path></g><g id="SvgjsG1199"><path id="SvgjsPath1200" d="M225 135L225 160L150 160L150 183.05" stroke="#a5b9cb" stroke-width="1.5" fill="none" marker-end="url(#SvgjsMarker1201)"></path></g><g id="SvgjsG1203"><path id="SvgjsPath1204" d="M225 135L225 160L300 160L300 183.05" stroke="#a5b9cb" stroke-width="1.5" fill="none" marker-end="url(#SvgjsMarker1205)"></path></g><g id="SvgjsG1207"><path id="SvgjsPath1208" d="M605 135L605 160L605 160L605 183.05" stroke="#a5b9cb" stroke-width="1.5" fill="none" marker-end="url(#SvgjsMarker1209)"></path></g><g id="SvgjsG1211"><path id="SvgjsPath1212" d="M605 135L605 160L495 160L495 183.05" stroke="#a5b9cb" stroke-width="1.5" fill="none" marker-end="url(#SvgjsMarker1213)"></path></g><g id="SvgjsG1215"><path id="SvgjsPath1216" d="M605 135L605 160L715 160L715 183.05" stroke="#a5b9cb" stroke-width="1.5" fill="none" marker-end="url(#SvgjsMarker1217)"></path></g><g id="SvgjsG1219"><path id="SvgjsPath1220" d="M275 120L320 120L320 120L363.05 120" stroke="#a5b9cb" stroke-width="1.5" fill="none" marker-end="url(#SvgjsMarker1221)"></path></g><g id="SvgjsG1223"><path id="SvgjsPath1224" d="M465 120L510 120L510 120L553.05 120" stroke="#a5b9cb" stroke-width="1.5" fill="none" marker-end="url(#SvgjsMarker1225)"></path></g><g id="SvgjsG1227" transform="translate(190,255)"><path id="SvgjsPath1228" d="M 0 0L 220 0L 220 30L 0 30Z" stroke="none" fill-opacity="1" fill="#f28280"></path><g id="SvgjsG1229"><text id="SvgjsText1230" font-family="&quot;Microsoft YaHei&quot;, 微软雅黑, Arial" text-anchor="middle" font-size="13px" width="200px" fill="#ffffff" font-weight="400" align="middle" lineHeight="125%" anchor="middle" family="&quot;Microsoft YaHei&quot;, 微软雅黑, Arial" size="13px" weight="400" font-style="" opacity="1" y="4.375" transform="rotate(0)"><tspan id="SvgjsTspan1231" dy="16.25" x="110"><tspan id="SvgjsTspan1232" style="">OutOfMemeoryError: Metaspace</tspan></tspan></text></g></g><g id="SvgjsG1233" transform="translate(25,325)"><path id="SvgjsPath1234" d="M 0 0L 250 0L 250 30L 0 30Z" stroke="none" fill-opacity="1" fill="#f28288"></path><g id="SvgjsG1235"><text id="SvgjsText1236" font-family="&quot;Microsoft YaHei&quot;, 微软雅黑, Arial" text-anchor="middle" font-size="13px" width="230px" fill="#ffffff" font-weight="400" align="middle" lineHeight="125%" anchor="middle" family="&quot;Microsoft YaHei&quot;, 微软雅黑, Arial" size="13px" weight="400" font-style="" opacity="1" y="4.375" transform="rotate(0)"><tspan id="SvgjsTspan1237" dy="16.25" x="125"><tspan id="SvgjsTspan1238" style="">OutOfMemeoryError: Java heap space</tspan></tspan></text></g></g><g id="SvgjsG1239"><path id="SvgjsPath1240" d="M300 215L300 235L300 235L300 253.05" stroke="#a5b9cb" stroke-width="1.5" fill="none" marker-end="url(#SvgjsMarker1241)"></path></g><g id="SvgjsG1243"><path id="SvgjsPath1244" d="M150 215L150 270L150 270L150 323.05" stroke="#a5b9cb" stroke-width="1.5" fill="none" marker-end="url(#SvgjsMarker1245)"></path></g><g id="SvgjsG1247" transform="translate(535,325)"><path id="SvgjsPath1248" d="M 0 0L 140 0L 140 30L 0 30Z" stroke="none" fill-opacity="1" fill="#f17d7d"></path><g id="SvgjsG1249"><text id="SvgjsText1250" font-family="&quot;Microsoft YaHei&quot;, 微软雅黑, Arial" text-anchor="middle" font-size="13px" width="120px" fill="#ffffff" font-weight="400" align="middle" lineHeight="125%" anchor="middle" family="&quot;Microsoft YaHei&quot;, 微软雅黑, Arial" size="13px" weight="400" font-style="" opacity="1" y="4.375" transform="rotate(0)"><tspan id="SvgjsTspan1251" dy="16.25" x="70"><tspan id="SvgjsTspan1252" style="">StackOverflowError</tspan></tspan></text></g></g><g id="SvgjsG1253"><path id="SvgjsPath1254" d="M605 215L605 270L605 270L605 323.05" stroke="#a5b9cb" stroke-width="1.5" fill="none" marker-end="url(#SvgjsMarker1255)"></path></g><g id="SvgjsG1257"><path id="SvgjsPath1258" d="M495 215L495 270L605 270L605 323.05" stroke="#a5b9cb" stroke-width="1.5" fill="none" marker-end="url(#SvgjsMarker1259)"></path></g><g id="SvgjsG1261"></g></svg>