<svg id="SvgjsSvg1006" width="777" height="513" xmlns="http://www.w3.org/2000/svg" version="1.1" xmlns:xlink="http://www.w3.org/1999/xlink" xmlns:svgjs="http://svgjs.com/svgjs"><defs id="SvgjsDefs1007"><pattern patternUnits="userSpaceOnUse" id="pattern_mark_0" width="300" height="300"><text x="150" y="100" fill="rgba(229,229,229,0.8)" font-size="18" transform="rotate(-45, 150, 150)" style="dominant-baseline: middle; text-anchor: middle;"></text></pattern><pattern patternUnits="userSpaceOnUse" id="pattern_mark_1" width="300" height="300"><text x="150" y="200" fill="rgba(229,229,229,0.8)" font-size="18" transform="rotate(-45, 150, 150)" style="dominant-baseline: middle; text-anchor: middle;"></text></pattern><marker id="SvgjsMarker1037" markerWidth="13" markerHeight="9" refX="3.5" refY="4.5" viewBox="0 0 13 9" orient="auto" markerUnits="userSpaceOnUse" stroke-dasharray="0,0"><path id="SvgjsPath1038" d="M13,0 L0,4.5 L13,9 L13,0" fill="#323232" stroke="#323232" stroke-width="1"></path></marker><marker id="SvgjsMarker1041" markerWidth="13" markerHeight="9" refX="9.5" refY="4.5" viewBox="0 0 13 9" orient="auto" markerUnits="userSpaceOnUse" stroke-dasharray="0,0"><path id="SvgjsPath1042" d="M0,0 L13,4.5 L0,9 L0,0" fill="#323232" stroke="#323232" stroke-width="1"></path></marker><marker id="SvgjsMarker1091" markerWidth="13" markerHeight="9" refX="9.5" refY="4.5" viewBox="0 0 13 9" orient="auto" markerUnits="userSpaceOnUse" stroke-dasharray="0,0"><path id="SvgjsPath1092" d="M0,0 L13,4.5 L0,9 L0,0" fill="#323232" stroke="#323232" stroke-width="1"></path></marker><marker id="SvgjsMarker1095" markerWidth="13" markerHeight="9" refX="9.5" refY="4.5" viewBox="0 0 13 9" orient="auto" markerUnits="userSpaceOnUse" stroke-dasharray="0,0"><path id="SvgjsPath1096" d="M0,0 L13,4.5 L0,9 L0,0" fill="#323232" stroke="#323232" stroke-width="1"></path></marker><marker id="SvgjsMarker1099" markerWidth="13" markerHeight="9" refX="9.5" refY="4.5" viewBox="0 0 13 9" orient="auto" markerUnits="userSpaceOnUse" stroke-dasharray="0,0"><path id="SvgjsPath1100" d="M0,0 L13,4.5 L0,9 L0,0" fill="#323232" stroke="#323232" stroke-width="1"></path></marker><marker id="SvgjsMarker1145" markerWidth="13" markerHeight="9" refX="9.5" refY="4.5" viewBox="0 0 13 9" orient="auto" markerUnits="userSpaceOnUse" stroke-dasharray="0,0"><path id="SvgjsPath1146" d="M0,0 L13,4.5 L0,9 L0,0" fill="#323232" stroke="#323232" stroke-width="1"></path></marker><marker id="SvgjsMarker1149" markerWidth="13" markerHeight="9" refX="9.5" refY="4.5" viewBox="0 0 13 9" orient="auto" markerUnits="userSpaceOnUse" stroke-dasharray="0,0"><path id="SvgjsPath1150" d="M0,0 L13,4.5 L0,9 L0,0" fill="#323232" stroke="#323232" stroke-width="1"></path></marker><marker id="SvgjsMarker1153" markerWidth="13" markerHeight="9" refX="9.5" refY="4.5" viewBox="0 0 13 9" orient="auto" markerUnits="userSpaceOnUse" stroke-dasharray="0,0"><path id="SvgjsPath1154" d="M0,0 L13,4.5 L0,9 L0,0" fill="#323232" stroke="#323232" stroke-width="1"></path></marker><marker id="SvgjsMarker1157" markerWidth="13" markerHeight="9" refX="9.5" refY="4.5" viewBox="0 0 13 9" orient="auto" markerUnits="userSpaceOnUse" stroke-dasharray="0,0"><path id="SvgjsPath1158" d="M0,0 L13,4.5 L0,9 L0,0" fill="#323232" stroke="#323232" stroke-width="1"></path></marker><marker id="SvgjsMarker1179" markerWidth="13" markerHeight="9" refX="9.5" refY="4.5" viewBox="0 0 13 9" orient="auto" markerUnits="userSpaceOnUse" stroke-dasharray="0,0"><path id="SvgjsPath1180" d="M0,0 L13,4.5 L0,9 L0,0" fill="#323232" stroke="#323232" stroke-width="1"></path></marker><marker id="SvgjsMarker1187" markerWidth="13" markerHeight="9" refX="9.5" refY="4.5" viewBox="0 0 13 9" orient="auto" markerUnits="userSpaceOnUse" stroke-dasharray="0,0"><path id="SvgjsPath1188" d="M0,0 L13,4.5 L0,9 L0,0" fill="#323232" stroke="#323232" stroke-width="1"></path></marker><marker id="SvgjsMarker1195" markerWidth="13" markerHeight="9" refX="3.5" refY="4.5" viewBox="0 0 13 9" orient="0" markerUnits="userSpaceOnUse" stroke-dasharray="0,0"><path id="SvgjsPath1196" d="M13,0 L0,4.5 L13,9 L13,0" fill="#323232" stroke="#323232" stroke-width="1"></path></marker><marker id="SvgjsMarker1197" markerWidth="13" markerHeight="9" refX="9.5" refY="4.5" viewBox="0 0 13 9" orient="auto" markerUnits="userSpaceOnUse" stroke-dasharray="0,0"><path id="SvgjsPath1198" d="M0,0 L13,4.5 L0,9 L0,0" fill="#323232" stroke="#323232" stroke-width="1"></path></marker><marker id="SvgjsMarker1241" markerWidth="13" markerHeight="9" refX="9.5" refY="4.5" viewBox="0 0 13 9" orient="auto" markerUnits="userSpaceOnUse" stroke-dasharray="0,0"><path id="SvgjsPath1242" d="M0,0 L13,4.5 L0,9 L0,0" fill="#323232" stroke="#323232" stroke-width="1"></path></marker><marker id="SvgjsMarker1245" markerWidth="13" markerHeight="9" refX="9.5" refY="4.5" viewBox="0 0 13 9" orient="auto" markerUnits="userSpaceOnUse" stroke-dasharray="0,0"><path id="SvgjsPath1246" d="M0,0 L13,4.5 L0,9 L0,0" fill="#323232" stroke="#323232" stroke-width="1"></path></marker></defs><rect id="svgbackgroundid" width="777" height="513" fill="transparent"></rect><rect id="SvgjsRect1009" width="777" height="513" fill="url(#pattern_mark_0)"></rect><rect id="SvgjsRect1010" width="777" height="513" fill="url(#pattern_mark_1)"></rect><g id="SvgjsG1011" transform="translate(209.5,361)"><path id="SvgjsPath1012" d="M 0 4Q 0 0 4 0L 519 0Q 523 0 523 4L 523 123Q 523 127 519 127L 4 127Q 0 127 0 123Z" stroke-dasharray="7.5,3" stroke="rgba(33,41,48,1)" stroke-width="1.5" fill-opacity="1" fill="#ffffff"></path><g id="SvgjsG1013"><text id="SvgjsText1014" font-family="&quot;Comic Sans MS&quot;" text-anchor="middle" font-size="13px" width="503px" fill="#323232" font-weight="700" align="middle" lineHeight="125%" anchor="middle" family="&quot;Comic Sans MS&quot;" size="13px" weight="700" font-style="" opacity="1" y="52.875" transform="rotate(0)"></text></g></g><g id="SvgjsG1015" transform="translate(209.5,25)"><path id="SvgjsPath1016" d="M 0 4Q 0 0 4 0L 519 0Q 523 0 523 4L 523 276Q 523 280 519 280L 4 280Q 0 280 0 276Z" stroke-dasharray="7.5,3" stroke="rgba(33,41,48,1)" stroke-width="1.5" fill-opacity="1" fill="#ffffff"></path><g id="SvgjsG1017"><text id="SvgjsText1018" font-family="&quot;Comic Sans MS&quot;" text-anchor="middle" font-size="13px" width="503px" fill="#323232" font-weight="700" align="middle" lineHeight="125%" anchor="middle" family="&quot;Comic Sans MS&quot;" size="13px" weight="700" font-style="" opacity="1" y="129.375" transform="rotate(0)"></text></g></g><g id="SvgjsG1019" transform="translate(25,51.5)"><path id="SvgjsPath1020" d="M 0 4Q 0 0 4 0L 76 0Q 80 0 80 4L 80 31Q 80 35 76 35L 4 35Q 0 35 0 31Z" stroke="rgba(33,41,48,1)" stroke-width="1.5" fill-opacity="1" fill="#ffffff"></path><g id="SvgjsG1021"><text id="SvgjsText1022" font-family="&quot;Comic Sans MS&quot;" text-anchor="middle" font-size="13px" width="60px" fill="#323232" font-weight="700" align="middle" lineHeight="125%" anchor="middle" family="&quot;Comic Sans MS&quot;" size="13px" weight="700" font-style="" opacity="1" y="6.875" transform="rotate(0)"><tspan id="SvgjsTspan1023" dy="16.25" x="40"><tspan id="SvgjsTspan1024" style="">客户端</tspan></tspan></text></g></g><g id="SvgjsG1025" transform="translate(219,35)"><path id="SvgjsPath1026" d="M 0 4Q 0 0 4 0L 162 0Q 166 0 166 4L 166 64Q 166 68 162 68L 4 68Q 0 68 0 64Z" stroke-dasharray="1.5,2.25" stroke="rgba(33,41,48,1)" stroke-width="1.5" fill-opacity="1" fill="#e7ebed"></path><g id="SvgjsG1027"><text id="SvgjsText1028" font-family="&quot;Comic Sans MS&quot;" text-anchor="middle" font-size="13px" width="146px" fill="#323232" font-weight="700" align="middle" lineHeight="125%" anchor="middle" family="&quot;Comic Sans MS&quot;" size="13px" weight="700" font-style="" opacity="1" y="23.375" transform="rotate(0)"></text></g></g><g id="SvgjsG1029" transform="translate(291,51.5)"><path id="SvgjsPath1030" d="M 0 4Q 0 0 4 0L 76 0Q 80 0 80 4L 80 31Q 80 35 76 35L 4 35Q 0 35 0 31Z" stroke="rgba(33,41,48,1)" stroke-width="1.5" fill-opacity="1" fill="#ffffff"></path><g id="SvgjsG1031"><text id="SvgjsText1032" font-family="&quot;Comic Sans MS&quot;" text-anchor="middle" font-size="13px" width="60px" fill="#323232" font-weight="700" align="middle" lineHeight="125%" anchor="middle" family="&quot;Comic Sans MS&quot;" size="13px" weight="700" font-style="" opacity="1" y="6.875" transform="rotate(0)"><tspan id="SvgjsTspan1033" dy="16.25" x="40"><tspan id="SvgjsTspan1034" style="">查询缓存</tspan></tspan></text></g></g><g id="SvgjsG1035"><path id="SvgjsPath1036" d="M288.3000501919377 59.483536891414246L209 59" stroke="#323232" stroke-width="1.5" fill="none" marker-start="url(#SvgjsMarker1037)"></path></g><g id="SvgjsG1039"><path id="SvgjsPath1040" d="M290.25001394220493 77.886080197256L209 77.39065328297426" stroke="#323232" stroke-width="1.5" fill="none" marker-end="url(#SvgjsMarker1041)"></path></g><g id="SvgjsG1043" transform="translate(226.5,28.5)"><path id="SvgjsPath1044" d="M 0 0L 43 0L 43 41L 0 41Z" stroke="none" fill="none"></path><g id="SvgjsG1045"><text id="SvgjsText1046" font-family="&quot;Comic Sans MS&quot;" text-anchor="middle" font-size="13px" width="43px" fill="#323232" font-weight="700" align="middle" lineHeight="125%" anchor="middle" family="&quot;Comic Sans MS&quot;" size="13px" weight="700" font-style="" opacity="1" y="9.875" transform="rotate(0)"><tspan id="SvgjsTspan1047" dy="16.25" x="21.5"><tspan id="SvgjsTspan1048" style="">SQL</tspan></tspan></text></g></g><g id="SvgjsG1049" transform="translate(222.5,64)"><path id="SvgjsPath1050" d="M 0 0L 51 0L 51 41L 0 41Z" stroke="none" fill="none"></path><g id="SvgjsG1051"><text id="SvgjsText1052" font-family="&quot;Comic Sans MS&quot;" text-anchor="middle" font-size="13px" width="51px" fill="#323232" font-weight="700" align="middle" lineHeight="125%" anchor="middle" family="&quot;Comic Sans MS&quot;" size="13px" weight="700" font-style="" opacity="1" y="9.875" transform="rotate(0)"><tspan id="SvgjsTspan1053" dy="16.25" x="25.5"><tspan id="SvgjsTspan1054" style="">结果</tspan></tspan></text></g></g><g id="SvgjsG1055" transform="translate(365,84)"><path id="SvgjsPath1056" d="M 0 0L 26 0L 26 20L 0 20Z" stroke="none" fill="none"></path><g id="SvgjsG1057"><text id="SvgjsText1058" font-family="&quot;Comic Sans MS&quot;" text-anchor="middle" font-size="13px" width="26px" fill="#323232" font-weight="700" align="middle" lineHeight="125%" anchor="middle" family="&quot;Comic Sans MS&quot;" size="13px" weight="700" font-style="" opacity="1" y="-0.625" transform="rotate(0)"><tspan id="SvgjsTspan1059" dy="16.25" x="13"><tspan id="SvgjsTspan1060" style="">②</tspan></tspan></text></g></g><g id="SvgjsG1061" transform="translate(475,34.5)"><path id="SvgjsPath1062" d="M 0 4Q 0 0 4 0L 244 0Q 248 0 248 4L 248 148.5Q 248 152.5 244 152.5L 4 152.5Q 0 152.5 0 148.5Z" stroke-dasharray="1.5,2.25" stroke="rgba(33,41,48,1)" stroke-width="1.5" fill-opacity="1" fill="#e7ebed"></path><g id="SvgjsG1063"><text id="SvgjsText1064" font-family="&quot;Comic Sans MS&quot;" text-anchor="middle" font-size="13px" width="228px" fill="#323232" font-weight="700" align="middle" lineHeight="125%" anchor="middle" family="&quot;Comic Sans MS&quot;" size="13px" weight="700" font-style="" opacity="1" y="65.625" transform="rotate(0)"></text></g></g><g id="SvgjsG1065" transform="translate(484,51.5)"><path id="SvgjsPath1066" d="M 0 4Q 0 0 4 0L 76 0Q 80 0 80 4L 80 31Q 80 35 76 35L 4 35Q 0 35 0 31Z" stroke="rgba(33,41,48,1)" stroke-width="1.5" fill-opacity="1" fill="#ffffff"></path><g id="SvgjsG1067"><text id="SvgjsText1068" font-family="&quot;Comic Sans MS&quot;" text-anchor="middle" font-size="13px" width="60px" fill="#323232" font-weight="700" align="middle" lineHeight="125%" anchor="middle" family="&quot;Comic Sans MS&quot;" size="13px" weight="700" font-style="" opacity="1" y="6.875" transform="rotate(0)"><tspan id="SvgjsTspan1069" dy="16.25" x="40"><tspan id="SvgjsTspan1070" style="">解析器</tspan></tspan></text></g></g><g id="SvgjsG1071" transform="translate(632,139.5)"><path id="SvgjsPath1072" d="M 0 4Q 0 0 4 0L 76 0Q 80 0 80 4L 80 31Q 80 35 76 35L 4 35Q 0 35 0 31Z" stroke="rgba(33,41,48,1)" stroke-width="1.5" fill-opacity="1" fill="#ffffff"></path><g id="SvgjsG1073"><text id="SvgjsText1074" font-family="&quot;Comic Sans MS&quot;" text-anchor="middle" font-size="13px" width="60px" fill="#323232" font-weight="700" align="middle" lineHeight="125%" anchor="middle" family="&quot;Comic Sans MS&quot;" size="13px" weight="700" font-style="" opacity="1" y="6.875" transform="rotate(0)"><tspan id="SvgjsTspan1075" dy="16.25" x="40"><tspan id="SvgjsTspan1076" style="">预处理器</tspan></tspan></text></g></g><g id="SvgjsG1077" transform="translate(632,48.5)"><path id="SvgjsPath1078" d="M 0 35.875L 0 0L 80 0L 80 35.875Q 60 25.625 40 35.875Q 20 46.125 0 35.875Z" stroke="rgba(33,41,48,1)" stroke-width="1.5" fill-opacity="1" fill="#e0e0e0"></path><g id="SvgjsG1079"><text id="SvgjsText1080" font-family="&quot;Comic Sans MS&quot;" text-anchor="middle" font-size="13px" width="80px" fill="#323232" font-weight="700" align="middle" lineHeight="125%" anchor="middle" family="&quot;Comic Sans MS&quot;" size="13px" weight="700" font-style="" opacity="1" y="7.824999999999999" transform="rotate(0)"><tspan id="SvgjsTspan1081" dy="16.25" x="40"><tspan id="SvgjsTspan1082" style="">解析树</tspan></tspan></text></g></g><g id="SvgjsG1083" transform="translate(484,136.5)"><path id="SvgjsPath1084" d="M 0 35.875L 0 0L 80 0L 80 35.875Q 60 25.625 40 35.875Q 20 46.125 0 35.875Z" stroke="rgba(33,41,48,1)" stroke-width="1.5" fill-opacity="1" fill="#e0e0e0"></path><g id="SvgjsG1085"><text id="SvgjsText1086" font-family="&quot;Comic Sans MS&quot;" text-anchor="middle" font-size="13px" width="80px" fill="#323232" font-weight="700" align="middle" lineHeight="125%" anchor="middle" family="&quot;Comic Sans MS&quot;" size="13px" weight="700" font-style="" opacity="1" y="7.824999999999999" transform="rotate(0)"><tspan id="SvgjsTspan1087" dy="16.25" x="40"><tspan id="SvgjsTspan1088" style="">新解析树</tspan></tspan></text></g></g><g id="SvgjsG1089"><path id="SvgjsPath1090" d="M564.75 69L597.5 69L597.5 69L629.3 69" stroke="#323232" stroke-width="1.5" fill="none" marker-end="url(#SvgjsMarker1091)"></path></g><g id="SvgjsG1093"><path id="SvgjsPath1094" d="M672 84.6875L672 112.96875L672 112.96875L672 136.8" stroke="#323232" stroke-width="1.5" fill="none" marker-end="url(#SvgjsMarker1095)"></path></g><g id="SvgjsG1097"><path id="SvgjsPath1098" d="M631.25 157L596.5 157L596.5 157L566.7 157" stroke="#323232" stroke-width="1.5" fill="none" marker-end="url(#SvgjsMarker1099)"></path></g><g id="SvgjsG1101" transform="translate(542,36)"><path id="SvgjsPath1102" d="M 0 0L 100 0L 100 41L 0 41Z" stroke="none" fill="none"></path><g id="SvgjsG1103"><text id="SvgjsText1104" font-family="&quot;Comic Sans MS&quot;" text-anchor="middle" font-size="13px" width="100px" fill="#323232" font-weight="700" align="middle" lineHeight="125%" anchor="middle" family="&quot;Comic Sans MS&quot;" size="13px" weight="700" font-style="" opacity="1" y="9.875" transform="rotate(0)"><tspan id="SvgjsTspan1105" dy="16.25" x="50"><tspan id="SvgjsTspan1106" style="">语法解析</tspan></tspan></text></g></g><g id="SvgjsG1107" transform="translate(652,93.75)"><path id="SvgjsPath1108" d="M 0 0L 100 0L 100 41L 0 41Z" stroke="none" fill="none"></path><g id="SvgjsG1109"><text id="SvgjsText1110" font-family="&quot;Comic Sans MS&quot;" text-anchor="middle" font-size="13px" width="100px" fill="#323232" font-weight="700" align="middle" lineHeight="125%" anchor="middle" family="&quot;Comic Sans MS&quot;" size="13px" weight="700" font-style="" opacity="1" y="9.875" transform="rotate(0)"><tspan id="SvgjsTspan1111" dy="16.25" x="50"><tspan id="SvgjsTspan1112" style="">③</tspan></tspan></text></g></g><g id="SvgjsG1113" transform="translate(219,123)"><path id="SvgjsPath1114" d="M 0 4Q 0 0 4 0L 162 0Q 166 0 166 4L 166 64Q 166 68 162 68L 4 68Q 0 68 0 64Z" stroke-dasharray="1.5,2.25" stroke="rgba(33,41,48,1)" stroke-width="1.5" fill-opacity="1" fill="#e7ebed"></path><g id="SvgjsG1115"><text id="SvgjsText1116" font-family="&quot;Comic Sans MS&quot;" text-anchor="middle" font-size="13px" width="146px" fill="#323232" font-weight="700" align="middle" lineHeight="125%" anchor="middle" family="&quot;Comic Sans MS&quot;" size="13px" weight="700" font-style="" opacity="1" y="23.375" transform="rotate(0)"></text></g></g><g id="SvgjsG1117" transform="translate(473,229)"><path id="SvgjsPath1118" d="M 0 4Q 0 0 4 0L 244 0Q 248 0 248 4L 248 64Q 248 68 244 68L 4 68Q 0 68 0 64Z" stroke-dasharray="1.5,2.25" stroke="rgba(33,41,48,1)" stroke-width="1.5" fill-opacity="1" fill="#e7ebed"></path><g id="SvgjsG1119"><text id="SvgjsText1120" font-family="&quot;Comic Sans MS&quot;" text-anchor="middle" font-size="13px" width="228px" fill="#323232" font-weight="700" align="middle" lineHeight="125%" anchor="middle" family="&quot;Comic Sans MS&quot;" size="13px" weight="700" font-style="" opacity="1" y="23.375" transform="rotate(0)"></text></g></g><g id="SvgjsG1121" transform="translate(214,229)"><path id="SvgjsPath1122" d="M 0 4Q 0 0 4 0L 230 0Q 234 0 234 4L 234 64Q 234 68 230 68L 4 68Q 0 68 0 64Z" stroke-dasharray="1.5,2.25" stroke="rgba(33,41,48,1)" stroke-width="1.5" fill-opacity="1" fill="#e7ebed"></path><g id="SvgjsG1123"><text id="SvgjsText1124" font-family="&quot;Comic Sans MS&quot;" text-anchor="middle" font-size="13px" width="214px" fill="#323232" font-weight="700" align="middle" lineHeight="125%" anchor="middle" family="&quot;Comic Sans MS&quot;" size="13px" weight="700" font-style="" opacity="1" y="23.375" transform="rotate(0)"></text></g></g><g id="SvgjsG1125" transform="translate(228,245.5)"><path id="SvgjsPath1126" d="M 0 4Q 0 0 4 0L 96 0Q 100 0 100 4L 100 31Q 100 35 96 35L 4 35Q 0 35 0 31Z" stroke="rgba(33,41,48,1)" stroke-width="1.5" fill-opacity="1" fill="#ffffff"></path><g id="SvgjsG1127"><text id="SvgjsText1128" font-family="&quot;Comic Sans MS&quot;" text-anchor="middle" font-size="13px" width="80px" fill="#323232" font-weight="700" align="middle" lineHeight="125%" anchor="middle" family="&quot;Comic Sans MS&quot;" size="13px" weight="700" font-style="" opacity="1" y="6.875" transform="rotate(0)"><tspan id="SvgjsTspan1129" dy="16.25" x="50"><tspan id="SvgjsTspan1130" style="">查询执行引擎</tspan></tspan></text></g></g><g id="SvgjsG1131" transform="translate(365,242.5)"><path id="SvgjsPath1132" d="M 0 35.875L 0 0L 80 0L 80 35.875Q 60 25.625 40 35.875Q 20 46.125 0 35.875Z" stroke="rgba(33,41,48,1)" stroke-width="1.5" fill-opacity="1" fill="#ffffff"></path><g id="SvgjsG1133"><text id="SvgjsText1134" font-family="&quot;Comic Sans MS&quot;" text-anchor="middle" font-size="13px" width="80px" fill="#323232" font-weight="700" align="middle" lineHeight="125%" anchor="middle" family="&quot;Comic Sans MS&quot;" size="13px" weight="700" font-style="" opacity="1" y="7.824999999999999" transform="rotate(0)"><tspan id="SvgjsTspan1135" dy="16.25" x="40"><tspan id="SvgjsTspan1136" style="">执行计划</tspan></tspan></text></g></g><g id="SvgjsG1137" transform="translate(479.5,245.5)"><path id="SvgjsPath1138" d="M 0 4Q 0 0 4 0L 85 0Q 89 0 89 4L 89 31Q 89 35 85 35L 4 35Q 0 35 0 31Z" stroke="rgba(33,41,48,1)" stroke-width="1.5" fill-opacity="1" fill="#ffffff"></path><g id="SvgjsG1139"><text id="SvgjsText1140" font-family="&quot;Comic Sans MS&quot;" text-anchor="middle" font-size="13px" width="69px" fill="#323232" font-weight="700" align="middle" lineHeight="125%" anchor="middle" family="&quot;Comic Sans MS&quot;" size="13px" weight="700" font-style="" opacity="1" y="6.875" transform="rotate(0)"><tspan id="SvgjsTspan1141" dy="16.25" x="44.5"><tspan id="SvgjsTspan1142" style="">查询优化器</tspan></tspan></text></g></g><g id="SvgjsG1143"><path id="SvgjsPath1144" d="M371.75 69L424 69L424 69L481.29999999999995 69" stroke="#323232" stroke-width="1.5" fill="none" marker-end="url(#SvgjsMarker1145)"></path></g><g id="SvgjsG1147"><path id="SvgjsPath1148" d="M524 176.9375L524 210.84375L524 210.84375L524 242.8" stroke="#323232" stroke-width="1.5" fill="none" marker-end="url(#SvgjsMarker1149)"></path></g><g id="SvgjsG1151"><path id="SvgjsPath1152" d="M478.75 263L460.75 263L460.75 263L447.70000000000005 263" stroke="#323232" stroke-width="1.5" fill="none" marker-end="url(#SvgjsMarker1153)"></path></g><g id="SvgjsG1155"><path id="SvgjsPath1156" d="M364.25 263L346 263L346 263L330.7 263" stroke="#323232" stroke-width="1.5" fill="none" marker-end="url(#SvgjsMarker1157)"></path></g><g id="SvgjsG1159" transform="translate(652,242.5)"><path id="SvgjsPath1160" d="M 0 0L 100 0L 100 41L 0 41Z" stroke="none" fill="none"></path><g id="SvgjsG1161"><text id="SvgjsText1162" font-family="&quot;Comic Sans MS&quot;" text-anchor="middle" font-size="13px" width="100px" fill="#323232" font-weight="700" align="middle" lineHeight="125%" anchor="middle" family="&quot;Comic Sans MS&quot;" size="13px" weight="700" font-style="" opacity="1" y="9.875" transform="rotate(0)"><tspan id="SvgjsTspan1163" dy="16.25" x="50"><tspan id="SvgjsTspan1164" style="">④</tspan></tspan></text></g></g><g id="SvgjsG1165" transform="translate(299,220)"><path id="SvgjsPath1166" d="M 0 0L 100 0L 100 41L 0 41Z" stroke="none" fill="none"></path><g id="SvgjsG1167"><text id="SvgjsText1168" font-family="&quot;Comic Sans MS&quot;" text-anchor="middle" font-size="13px" width="100px" fill="#323232" font-weight="700" align="middle" lineHeight="125%" anchor="middle" family="&quot;Comic Sans MS&quot;" size="13px" weight="700" font-style="" opacity="1" y="9.875" transform="rotate(0)"><tspan id="SvgjsTspan1169" dy="16.25" x="50"><tspan id="SvgjsTspan1170" style="">⑤</tspan></tspan></text></g></g><g id="SvgjsG1171" transform="translate(319,136.5)"><path id="SvgjsPath1172" d="M 0 0L 100 0L 100 41L 0 41Z" stroke="none" fill="none"></path><g id="SvgjsG1173"><text id="SvgjsText1174" font-family="&quot;Comic Sans MS&quot;" text-anchor="middle" font-size="13px" width="100px" fill="#323232" font-weight="700" align="middle" lineHeight="125%" anchor="middle" family="&quot;Comic Sans MS&quot;" size="13px" weight="700" font-style="" opacity="1" y="9.875" transform="rotate(0)"><tspan id="SvgjsTspan1175" dy="16.25" x="50"><tspan id="SvgjsTspan1176" style="">⑥</tspan></tspan></text></g></g><g id="SvgjsG1177"><path id="SvgjsPath1178" d="M278.03268012399167 244.75071233194728C 277.5 178.93093811686992 325 152.56906188313008 330.62781824329966 89.17422525976767" stroke="#323232" stroke-width="1.5" fill="none" marker-end="url(#SvgjsMarker1179)"></path><rect id="SvgjsRect1181" width="52.4" height="18" x="280.3381907522974" y="148.86246348778508" fill="#ffffff"></rect><text id="SvgjsText1182" font-family="&quot;Comic Sans MS&quot;" text-anchor="middle" font-size="13px" width="52.4px" fill="#323232" font-weight="700" align="top" lineHeight="16px" anchor="middle" family="&quot;Comic Sans MS&quot;" size="13px" weight="700" font-style="" opacity="1" y="146.23746348778508" transform="rotate(0)"><tspan id="SvgjsTspan1183" dy="16.25" x="306.3381907522974"><tspan id="SvgjsTspan1184" style="">缓存结果</tspan></tspan></text></g><g id="SvgjsG1185"><path id="SvgjsPath1186" d="M277.99271061242433 244.75003542428408C 277.5 178.26370028028015 276.23629971971985 92.00000000000003 209 92" stroke="#323232" stroke-width="1.5" fill="none" marker-end="url(#SvgjsMarker1187)"></path><rect id="SvgjsRect1189" width="52.4" height="18" x="237.43569488825256" y="120.7943797337424" fill="#ffffff"></rect><text id="SvgjsText1190" font-family="&quot;Comic Sans MS&quot;" text-anchor="middle" font-size="13px" width="52.4px" fill="#323232" font-weight="700" align="top" lineHeight="16px" anchor="middle" family="&quot;Comic Sans MS&quot;" size="13px" weight="700" font-style="" opacity="1" y="118.1693797337424" transform="rotate(0)"><tspan id="SvgjsTspan1191" dy="16.25" x="263.43569488825256"><tspan id="SvgjsTspan1192" style="">返回结果</tspan></tspan></text></g><g id="SvgjsG1193"><path id="SvgjsPath1194" d="M107.69999999999999 68.5L157 68.5L157 68.5L206.8 68.5" stroke="#323232" stroke-width="1.5" fill="none" marker-start="url(#SvgjsMarker1195)" marker-end="url(#SvgjsMarker1197)"></path></g><g id="SvgjsG1199" transform="translate(107,28.5)"><path id="SvgjsPath1200" d="M 0 0L 100 0L 100 41L 0 41Z" stroke="none" fill="none"></path><g id="SvgjsG1201"><text id="SvgjsText1202" font-family="&quot;Comic Sans MS&quot;" text-anchor="middle" font-size="13px" width="100px" fill="#323232" font-weight="700" align="middle" lineHeight="125%" anchor="middle" family="&quot;Comic Sans MS&quot;" size="13px" weight="700" font-style="" opacity="1" y="1.375" transform="rotate(0)"><tspan id="SvgjsTspan1203" dy="16.25" x="50"><tspan id="SvgjsTspan1204" style="">①客户端/服务器</tspan></tspan><tspan id="SvgjsTspan1205" dy="16.25" x="50"><tspan id="SvgjsTspan1206" style="">通信协议</tspan></tspan></text></g></g><g id="SvgjsG1207" transform="translate(228,379)"><path id="SvgjsPath1208" d="M 0 4Q 0 0 4 0L 96 0Q 100 0 100 4L 100 90Q 100 94 96 94L 4 94Q 0 94 0 90Z" stroke="rgba(33,41,48,1)" stroke-width="1.5" fill-opacity="1" fill="#ffffff"></path><g id="SvgjsG1209"><text id="SvgjsText1210" font-family="&quot;Comic Sans MS&quot;" text-anchor="middle" font-size="13px" width="80px" fill="#323232" font-weight="700" align="middle" lineHeight="125%" anchor="middle" family="&quot;Comic Sans MS&quot;" size="13px" weight="700" font-style="" opacity="1" y="36.375" transform="rotate(0)"></text></g></g><g id="SvgjsG1211" transform="translate(238,389)"><path id="SvgjsPath1212" d="M 0 4Q 0 0 4 0L 76 0Q 80 0 80 4L 80 16Q 80 20 76 20L 4 20Q 0 20 0 16Z" stroke="rgba(33,41,48,1)" stroke-width="1.5" fill-opacity="1" fill="#ffffff"></path><g id="SvgjsG1213"><text id="SvgjsText1214" font-family="&quot;Comic Sans MS&quot;" text-anchor="middle" font-size="13px" width="60px" fill="#323232" font-weight="700" align="middle" lineHeight="125%" anchor="middle" family="&quot;Comic Sans MS&quot;" size="13px" weight="700" font-style="" opacity="1" y="-0.625" transform="rotate(0)"><tspan id="SvgjsTspan1215" dy="16.25" x="40"><tspan id="SvgjsTspan1216" style="">MyISAM</tspan></tspan></text></g></g><g id="SvgjsG1217" transform="translate(238,414.5)"><path id="SvgjsPath1218" d="M 0 4Q 0 0 4 0L 76 0Q 80 0 80 4L 80 16Q 80 20 76 20L 4 20Q 0 20 0 16Z" stroke="rgba(33,41,48,1)" stroke-width="1.5" fill-opacity="1" fill="#ffffff"></path><g id="SvgjsG1219"><text id="SvgjsText1220" font-family="&quot;Comic Sans MS&quot;" text-anchor="middle" font-size="13px" width="60px" fill="#323232" font-weight="700" align="middle" lineHeight="125%" anchor="middle" family="&quot;Comic Sans MS&quot;" size="13px" weight="700" font-style="" opacity="1" y="-0.625" transform="rotate(0)"><tspan id="SvgjsTspan1221" dy="16.25" x="40"><tspan id="SvgjsTspan1222" style="">InnoDB</tspan></tspan></text></g></g><g id="SvgjsG1223" transform="translate(238,440)"><path id="SvgjsPath1224" d="M 0 4Q 0 0 4 0L 76 0Q 80 0 80 4L 80 16Q 80 20 76 20L 4 20Q 0 20 0 16Z" stroke="rgba(33,41,48,1)" stroke-width="1.5" fill-opacity="1" fill="#ffffff"></path><g id="SvgjsG1225"><text id="SvgjsText1226" font-family="&quot;Comic Sans MS&quot;" text-anchor="middle" font-size="13px" width="60px" fill="#323232" font-weight="700" align="middle" lineHeight="125%" anchor="middle" family="&quot;Comic Sans MS&quot;" size="13px" weight="700" font-style="" opacity="1" y="-0.625" transform="rotate(0)"><tspan id="SvgjsTspan1227" dy="16.25" x="40"><tspan id="SvgjsTspan1228" style="">••••••</tspan></tspan></text></g></g><g id="SvgjsG1229" transform="translate(405,399.5)"><path id="SvgjsPath1230" d="M 0 11.666666666666666L 0 42.5C 0 52.5 70 52.5 70 42.5L 70 11.666666666666666C 70 -3.1818181818181817 0 -3.1818181818181817 0 11.666666666666666ZM 0 11.666666666666666C 0 26.25 70 26.25 70 11.666666666666666C 70 26.25 0 26.25 0 11.666666666666666" stroke="rgba(33,41,48,1)" stroke-width="1.5" fill-opacity="1" fill="#ffffff"></path><g id="SvgjsG1231"><text id="SvgjsText1232" font-family="&quot;Comic Sans MS&quot;" text-anchor="middle" font-size="13px" width="70px" fill="#323232" font-weight="700" align="middle" lineHeight="125%" anchor="middle" family="&quot;Comic Sans MS&quot;" size="13px" weight="700" font-style="" opacity="1" y="-7.125" transform="rotate(0)"><tspan id="SvgjsTspan1233" dy="16.25" x="35"><tspan id="SvgjsTspan1234" style=""> </tspan></tspan><tspan id="SvgjsTspan1235" dy="16.25" x="35"><tspan id="SvgjsTspan1236" style=""> </tspan></tspan><tspan id="SvgjsTspan1237" dy="16.25" x="35"><tspan id="SvgjsTspan1238" style="">数据</tspan></tspan></text></g></g><g id="SvgjsG1239"><path id="SvgjsPath1240" d="M328.75 424.5L365.25 424.5L365.25 424.5L402.3 424.5" stroke="#323232" stroke-width="1.5" fill="none" marker-end="url(#SvgjsMarker1241)"></path></g><g id="SvgjsG1243"><path id="SvgjsPath1244" d="M278 281.25L278 329L278 329L278 376.3" stroke="#323232" stroke-width="1.5" fill="none" marker-end="url(#SvgjsMarker1245)"></path><rect id="SvgjsRect1247" width="75.4" height="18" x="240.3" y="318.7951030927835" fill="#ffffff"></rect><text id="SvgjsText1248" font-family="&quot;Comic Sans MS&quot;" text-anchor="middle" font-size="13px" width="75.4px" fill="#323232" font-weight="700" align="top" lineHeight="16px" anchor="middle" family="&quot;Comic Sans MS&quot;" size="13px" weight="700" font-style="" opacity="1" y="316.1701030927835" transform="rotate(0)"><tspan id="SvgjsTspan1249" dy="16.25" x="277.8"><tspan id="SvgjsTspan1250" style="">API接口查询</tspan></tspan></text></g><g id="SvgjsG1251" transform="translate(652,409.5)"><path id="SvgjsPath1252" d="M 0 0L 100 0L 100 41L 0 41Z" stroke="none" fill="none"></path><g id="SvgjsG1253"><text id="SvgjsText1254" font-family="&quot;Comic Sans MS&quot;" text-anchor="middle" font-size="13px" width="100px" fill="#323232" font-weight="700" align="middle" lineHeight="125%" anchor="middle" family="&quot;Comic Sans MS&quot;" size="13px" weight="700" font-style="" opacity="1" y="9.875" transform="rotate(0)"><tspan id="SvgjsTspan1255" dy="16.25" x="50"><tspan id="SvgjsTspan1256" style="">存储引擎</tspan></tspan></text></g></g></svg>