<svg id="SvgjsSvg1006" width="748" height="503" xmlns="http://www.w3.org/2000/svg" version="1.1" xmlns:xlink="http://www.w3.org/1999/xlink" xmlns:svgjs="http://svgjs.com/svgjs"><defs id="SvgjsDefs1007"><pattern patternUnits="userSpaceOnUse" id="pattern_mark_0" width="300" height="300"><text x="150" y="100" fill="rgba(229,229,229,0.8)" font-size="18" transform="rotate(-45, 150, 150)" style="dominant-baseline: middle; text-anchor: middle;"></text></pattern><pattern patternUnits="userSpaceOnUse" id="pattern_mark_1" width="300" height="300"><text x="150" y="200" fill="rgba(229,229,229,0.8)" font-size="18" transform="rotate(-45, 150, 150)" style="dominant-baseline: middle; text-anchor: middle;"></text></pattern><marker id="SvgjsMarker1017" markerWidth="20" markerHeight="12" refX="0" refY="6" viewBox="0 0 20 12" orient="auto" markerUnits="userSpaceOnUse" stroke-dasharray="0,0"><path id="SvgjsPath1018" d="M2,6 L10,2 L18,6 L10,10L2,6" fill="#ffffff" stroke="#323232" stroke-width="1.5"></path></marker><marker id="SvgjsMarker1021" markerWidth="20" markerHeight="12" refX="0" refY="6" viewBox="0 0 20 12" orient="0" markerUnits="userSpaceOnUse" stroke-dasharray="0,0"><path id="SvgjsPath1022" d="M2,6 L10,2 L18,6 L10,10L2,6" fill="#ffffff" stroke="#323232" stroke-width="1.5"></path></marker><marker id="SvgjsMarker1025" markerWidth="20" markerHeight="12" refX="0" refY="6" viewBox="0 0 20 12" orient="0" markerUnits="userSpaceOnUse" stroke-dasharray="0,0"><path id="SvgjsPath1026" d="M2,6 L10,2 L18,6 L10,10L2,6" fill="#ffffff" stroke="#323232" stroke-width="1.5"></path></marker><marker id="SvgjsMarker1029" markerWidth="20" markerHeight="12" refX="0" refY="6" viewBox="0 0 20 12" orient="0" markerUnits="userSpaceOnUse" stroke-dasharray="0,0"><path id="SvgjsPath1030" d="M2,6 L10,2 L18,6 L10,10L2,6" fill="#ffffff" stroke="#323232" stroke-width="1.5"></path></marker><marker id="SvgjsMarker1117" markerWidth="13" markerHeight="9" refX="9.5" refY="4.5" viewBox="0 0 13 9" orient="auto" markerUnits="userSpaceOnUse" stroke-dasharray="0,0"><path id="SvgjsPath1118" d="M0,0 L13,4.5 L0,9 L0,0" fill="#323232" stroke="#323232" stroke-width="1"></path></marker><marker id="SvgjsMarker1121" markerWidth="13" markerHeight="9" refX="9.5" refY="4.5" viewBox="0 0 13 9" orient="auto" markerUnits="userSpaceOnUse" stroke-dasharray="0,0"><path id="SvgjsPath1122" d="M0,0 L13,4.5 L0,9 L0,0" fill="#323232" stroke="#323232" stroke-width="1"></path></marker><marker id="SvgjsMarker1125" markerWidth="13" markerHeight="9" refX="9.5" refY="4.5" viewBox="0 0 13 9" orient="auto" markerUnits="userSpaceOnUse" stroke-dasharray="0,0"><path id="SvgjsPath1126" d="M0,0 L13,4.5 L0,9 L0,0" fill="#323232" stroke="#323232" stroke-width="1"></path></marker><marker id="SvgjsMarker1129" markerWidth="13" markerHeight="9" refX="9.5" refY="4.5" viewBox="0 0 13 9" orient="auto" markerUnits="userSpaceOnUse" stroke-dasharray="0,0"><path id="SvgjsPath1130" d="M0,0 L13,4.5 L0,9 L0,0" fill="#323232" stroke="#323232" stroke-width="1"></path></marker><marker id="SvgjsMarker1133" markerWidth="13" markerHeight="9" refX="9.5" refY="4.5" viewBox="0 0 13 9" orient="auto" markerUnits="userSpaceOnUse" stroke-dasharray="0,0"><path id="SvgjsPath1134" d="M0,0 L13,4.5 L0,9 L0,0" fill="#323232" stroke="#323232" stroke-width="1"></path></marker><marker id="SvgjsMarker1137" markerWidth="13" markerHeight="9" refX="9.5" refY="4.5" viewBox="0 0 13 9" orient="auto" markerUnits="userSpaceOnUse" stroke-dasharray="0,0"><path id="SvgjsPath1138" d="M0,0 L13,4.5 L0,9 L0,0" fill="#323232" stroke="#323232" stroke-width="1"></path></marker><marker id="SvgjsMarker1141" markerWidth="13" markerHeight="9" refX="9.5" refY="4.5" viewBox="0 0 13 9" orient="auto" markerUnits="userSpaceOnUse" stroke-dasharray="0,0"><path id="SvgjsPath1142" d="M0,0 L13,4.5 L0,9 L0,0" fill="#323232" stroke="#323232" stroke-width="1"></path></marker><marker id="SvgjsMarker1145" markerWidth="13" markerHeight="9" refX="9.5" refY="4.5" viewBox="0 0 13 9" orient="auto" markerUnits="userSpaceOnUse" stroke-dasharray="0,0"><path id="SvgjsPath1146" d="M0,0 L13,4.5 L0,9 L0,0" fill="#323232" stroke="#323232" stroke-width="1"></path></marker><marker id="SvgjsMarker1149" markerWidth="13" markerHeight="9" refX="9.5" refY="4.5" viewBox="0 0 13 9" orient="auto" markerUnits="userSpaceOnUse" stroke-dasharray="0,0"><path id="SvgjsPath1150" d="M0,0 L13,4.5 L0,9 L0,0" fill="#323232" stroke="#323232" stroke-width="1"></path></marker><marker id="SvgjsMarker1153" markerWidth="13" markerHeight="9" refX="9.5" refY="4.5" viewBox="0 0 13 9" orient="auto" markerUnits="userSpaceOnUse" stroke-dasharray="0,0"><path id="SvgjsPath1154" d="M0,0 L13,4.5 L0,9 L0,0" fill="#323232" stroke="#323232" stroke-width="1"></path></marker><marker id="SvgjsMarker1157" markerWidth="13" markerHeight="9" refX="9.5" refY="4.5" viewBox="0 0 13 9" orient="auto" markerUnits="userSpaceOnUse" stroke-dasharray="0,0"><path id="SvgjsPath1158" d="M0,0 L13,4.5 L0,9 L0,0" fill="#323232" stroke="#323232" stroke-width="1"></path></marker><marker id="SvgjsMarker1161" markerWidth="13" markerHeight="9" refX="9.5" refY="4.5" viewBox="0 0 13 9" orient="auto" markerUnits="userSpaceOnUse" stroke-dasharray="0,0"><path id="SvgjsPath1162" d="M0,0 L13,4.5 L0,9 L0,0" fill="#323232" stroke="#323232" stroke-width="1"></path></marker><marker id="SvgjsMarker1165" markerWidth="13" markerHeight="9" refX="9.5" refY="4.5" viewBox="0 0 13 9" orient="auto" markerUnits="userSpaceOnUse" stroke-dasharray="0,0"><path id="SvgjsPath1166" d="M0,0 L13,4.5 L0,9 L0,0" fill="#323232" stroke="#323232" stroke-width="1"></path></marker></defs><rect id="svgbackgroundid" width="748" height="503" fill="transparent"></rect><rect id="SvgjsRect1009" width="748" height="503" fill="url(#pattern_mark_0)"></rect><rect id="SvgjsRect1010" width="748" height="503" fill="url(#pattern_mark_1)"></rect><g id="SvgjsG1011" transform="translate(25.363636363636346,256.6363636363636)"><path id="SvgjsPath1012" d="M 0 0L 688.9090909090909 0L 688.9090909090909 111.5454545454545L 0 111.5454545454545Z" stroke="rgba(33,41,48,1)" stroke-width="1.5" fill-opacity="1" fill="#f6edc1"></path><g id="SvgjsG1013"><text id="SvgjsText1014" font-family="微软雅黑" text-anchor="middle" font-size="13px" width="669px" fill="#323232" font-weight="400" align="middle" lineHeight="125%" anchor="middle" family="微软雅黑" size="13px" weight="400" font-style="" opacity="1" y="45.14772727272725" transform="rotate(0)"></text></g></g><g id="SvgjsG1015"><path id="SvgjsPath1016" d="M181 25L181 251.5L181 251.5L181 478" stroke-dasharray="8,5" stroke="#323232" stroke-width="1.5" fill="none" marker-start="url(#SvgjsMarker1017)"></path></g><g id="SvgjsG1019"><path id="SvgjsPath1020" d="M35 126L375 126L375 126L715 126" stroke-dasharray="8,5" stroke="#323232" stroke-width="1.5" fill="none" marker-start="url(#SvgjsMarker1021)"></path></g><g id="SvgjsG1023"><path id="SvgjsPath1024" d="M29 252L369 252L369 252L709 252" stroke-dasharray="8,5" stroke="#323232" stroke-width="1.5" fill="none" marker-start="url(#SvgjsMarker1025)"></path></g><g id="SvgjsG1027"><path id="SvgjsPath1028" d="M25 372L365 372L365 372L705 372" stroke-dasharray="8,5" stroke="#323232" stroke-width="1.5" fill="none" marker-start="url(#SvgjsMarker1029)"></path></g><g id="SvgjsG1031" transform="translate(62,68)"><path id="SvgjsPath1032" d="M 0 0L 100 0L 100 40L 0 40Z" stroke="none" fill="none"></path><g id="SvgjsG1033"><text id="SvgjsText1034" font-family="微软雅黑" text-anchor="middle" font-size="15px" width="100px" fill="#323232" font-weight="700" align="middle" lineHeight="125%" anchor="middle" family="微软雅黑" size="15px" weight="700" font-style="" opacity="1" y="7.625" transform="rotate(0)"><tspan id="SvgjsTspan1035" dy="18.75" x="50"><tspan id="SvgjsTspan1036" style="">外部请求</tspan></tspan></text></g></g><g id="SvgjsG1037" transform="translate(62,172)"><path id="SvgjsPath1038" d="M 0 0L 100 0L 100 40L 0 40Z" stroke="none" fill="none"></path><g id="SvgjsG1039"><text id="SvgjsText1040" font-family="微软雅黑" text-anchor="middle" font-size="15px" width="100px" fill="#323232" font-weight="700" align="middle" lineHeight="125%" anchor="middle" family="微软雅黑" size="15px" weight="700" font-style="" opacity="1" y="7.625" transform="rotate(0)"><tspan id="SvgjsTspan1041" dy="18.75" x="50"><tspan id="SvgjsTspan1042" style="">负载均衡</tspan></tspan></text></g></g><g id="SvgjsG1043" transform="translate(62,276)"><path id="SvgjsPath1044" d="M 0 0L 100 0L 100 40L 0 40Z" stroke="none" fill="none"></path><g id="SvgjsG1045"><text id="SvgjsText1046" font-family="微软雅黑" text-anchor="middle" font-size="15px" width="100px" fill="#323232" font-weight="700" align="middle" lineHeight="125%" anchor="middle" family="微软雅黑" size="15px" weight="700" font-style="" opacity="1" y="7.625" transform="rotate(0)"><tspan id="SvgjsTspan1047" dy="18.75" x="50"><tspan id="SvgjsTspan1048" style="">网关</tspan></tspan></text></g></g><g id="SvgjsG1049" transform="translate(62,408)"><path id="SvgjsPath1050" d="M 0 0L 100 0L 100 40L 0 40Z" stroke="none" fill="none"></path><g id="SvgjsG1051"><text id="SvgjsText1052" font-family="微软雅黑" text-anchor="middle" font-size="15px" width="100px" fill="#323232" font-weight="700" align="middle" lineHeight="125%" anchor="middle" family="微软雅黑" size="15px" weight="700" font-style="" opacity="1" y="7.625" transform="rotate(0)"><tspan id="SvgjsTspan1053" dy="18.75" x="50"><tspan id="SvgjsTspan1054" style="">微服务</tspan></tspan></text></g></g><g id="SvgjsG1055" transform="translate(204,74)"><path id="SvgjsPath1056" d="M 9.333333333333334 0L 88.66666666666667 0C 101.11111111111111 0 101.11111111111111 28 88.66666666666667 28L 9.333333333333334 28C -3.111111111111111 28 -3.111111111111111 0 9.333333333333334 0Z" stroke="rgba(33,41,48,1)" stroke-width="1.5" fill-opacity="1" fill="#d2d6f9"></path><g id="SvgjsG1057"><text id="SvgjsText1058" font-family="微软雅黑" text-anchor="middle" font-size="13px" width="78px" fill="#323232" font-weight="400" align="middle" lineHeight="125%" anchor="middle" family="微软雅黑" size="13px" weight="400" font-style="" opacity="1" y="3.375" transform="rotate(0)"><tspan id="SvgjsTspan1059" dy="16.25" x="49"><tspan id="SvgjsTspan1060" style="fill: rgb(255, 255, 255);">手持终端</tspan></tspan></text></g></g><g id="SvgjsG1061" transform="translate(353,74)"><path id="SvgjsPath1062" d="M 9.333333333333334 0L 88.66666666666667 0C 101.11111111111111 0 101.11111111111111 28 88.66666666666667 28L 9.333333333333334 28C -3.111111111111111 28 -3.111111111111111 0 9.333333333333334 0Z" stroke="rgba(33,41,48,1)" stroke-width="1.5" fill-opacity="1" fill="#d2d6f9"></path><g id="SvgjsG1063"><text id="SvgjsText1064" font-family="微软雅黑" text-anchor="middle" font-size="13px" width="78px" fill="#323232" font-weight="400" align="middle" lineHeight="125%" anchor="middle" family="微软雅黑" size="13px" weight="400" font-style="" opacity="1" y="3.375" transform="rotate(0)"><tspan id="SvgjsTspan1065" dy="16.25" x="49"><tspan id="SvgjsTspan1066" style="fill: rgb(255, 255, 255);">Html5</tspan></tspan></text></g></g><g id="SvgjsG1067" transform="translate(502,74)"><path id="SvgjsPath1068" d="M 9.333333333333334 0L 88.66666666666667 0C 101.11111111111111 0 101.11111111111111 28 88.66666666666667 28L 9.333333333333334 28C -3.111111111111111 28 -3.111111111111111 0 9.333333333333334 0Z" stroke="rgba(33,41,48,1)" stroke-width="1.5" fill-opacity="1" fill="#d2d6f9"></path><g id="SvgjsG1069"><text id="SvgjsText1070" font-family="微软雅黑" text-anchor="middle" font-size="13px" width="78px" fill="#323232" font-weight="400" align="middle" lineHeight="125%" anchor="middle" family="微软雅黑" size="13px" weight="400" font-style="" opacity="1" y="3.375" transform="rotate(0)"><tspan id="SvgjsTspan1071" dy="16.25" x="49"><tspan id="SvgjsTspan1072" style="fill: rgb(255, 255, 255);">Open接口</tspan></tspan></text></g></g><g id="SvgjsG1073" transform="translate(357,157)"><path id="SvgjsPath1074" d="M 10.799999999999999 49C -9 35 3.6 24.5 8.1 21C 6.300000000000001 3.5 28.8 0 37.8 7C 45 -3.5 67.5 0 67.5 10.5C 85.5 7 92.7 21 85.5 38.5C 91.8 52.5 85.5 70 64.8 63C 60.300000000000004 72.10000000000001 42.3 72.10000000000001 37.8 63C 28.8 70 10.799999999999999 66.5 10.799999999999999 49Z" stroke="rgba(33,41,48,1)" stroke-width="1.5" fill-opacity="1" fill="#b0e38f"></path><g id="SvgjsG1075"><text id="SvgjsText1076" font-family="微软雅黑" text-anchor="middle" font-size="14px" width="70px" fill="#323232" font-weight="400" align="middle" lineHeight="125%" anchor="middle" family="微软雅黑" size="14px" weight="400" font-style="" opacity="1" y="23.25" transform="rotate(0)"><tspan id="SvgjsTspan1077" dy="17.5" x="45"><tspan id="SvgjsTspan1078" style="font-weight: bold;fill: rgb(255, 255, 255);">负载均衡</tspan></tspan></text></g></g><g id="SvgjsG1079" transform="translate(247,283)"><path id="SvgjsPath1080" d="M 0 4Q 0 0 4 0L 92 0Q 96 0 96 4L 96 50Q 96 54 92 54L 4 54Q 0 54 0 50Z" stroke="rgba(33,41,48,1)" stroke-width="1.5" fill-opacity="1" fill="#e0e0e0"></path><g id="SvgjsG1081"><text id="SvgjsText1082" font-family="微软雅黑" text-anchor="middle" font-size="13px" width="76px" fill="#323232" font-weight="700" align="middle" lineHeight="125%" anchor="middle" family="微软雅黑" size="13px" weight="700" font-style="" opacity="1" y="16.375" transform="rotate(0)"><tspan id="SvgjsTspan1083" dy="16.25" x="48"><tspan id="SvgjsTspan1084" style="">网关</tspan></tspan></text></g></g><g id="SvgjsG1085" transform="translate(483,283)"><path id="SvgjsPath1086" d="M 0 4Q 0 0 4 0L 92 0Q 96 0 96 4L 96 50Q 96 54 92 54L 4 54Q 0 54 0 50Z" stroke="rgba(33,41,48,1)" stroke-width="1.5" fill-opacity="1" fill="#e0e0e0"></path><g id="SvgjsG1087"><text id="SvgjsText1088" font-family="微软雅黑" text-anchor="middle" font-size="13px" width="76px" fill="#323232" font-weight="700" align="middle" lineHeight="125%" anchor="middle" family="微软雅黑" size="13px" weight="700" font-style="" opacity="1" y="16.375" transform="rotate(0)"><tspan id="SvgjsTspan1089" dy="16.25" x="48"><tspan id="SvgjsTspan1090" style="">网关</tspan></tspan></text></g></g><g id="SvgjsG1091" transform="translate(203,403)"><path id="SvgjsPath1092" d="M 16.666666666666668 0L 83.33333333333333 0C 105.55555555555556 0 105.55555555555556 50 83.33333333333333 50L 16.666666666666668 50C -5.555555555555556 50 -5.555555555555556 0 16.666666666666668 0Z" stroke="rgba(33,41,48,1)" stroke-width="1.5" fill-opacity="1" fill="#ec7270"></path><g id="SvgjsG1093"><text id="SvgjsText1094" font-family="微软雅黑" text-anchor="middle" font-size="13px" width="80px" fill="#323232" font-weight="400" align="middle" lineHeight="125%" anchor="middle" family="微软雅黑" size="13px" weight="400" font-style="" opacity="1" y="14.375" transform="rotate(0)"><tspan id="SvgjsTspan1095" dy="16.25" x="50"><tspan id="SvgjsTspan1096" style="font-weight: bold;fill: rgb(255, 255, 255);">微服务A</tspan></tspan></text></g></g><g id="SvgjsG1097" transform="translate(343,403)"><path id="SvgjsPath1098" d="M 16.666666666666668 0L 83.33333333333333 0C 105.55555555555556 0 105.55555555555556 50 83.33333333333333 50L 16.666666666666668 50C -5.555555555555556 50 -5.555555555555556 0 16.666666666666668 0Z" stroke="rgba(33,41,48,1)" stroke-width="1.5" fill-opacity="1" fill="#f1ac6a"></path><g id="SvgjsG1099"><text id="SvgjsText1100" font-family="微软雅黑" text-anchor="middle" font-size="13px" width="80px" fill="#323232" font-weight="400" align="middle" lineHeight="125%" anchor="middle" family="微软雅黑" size="13px" weight="400" font-style="" opacity="1" y="14.375" transform="rotate(0)"><tspan id="SvgjsTspan1101" dy="16.25" x="50"><tspan id="SvgjsTspan1102" style="font-weight: bold;fill: rgb(255, 255, 255);">微服务A</tspan></tspan></text></g></g><g id="SvgjsG1103" transform="translate(483,403)"><path id="SvgjsPath1104" d="M 16.666666666666668 0L 83.33333333333333 0C 105.55555555555556 0 105.55555555555556 50 83.33333333333333 50L 16.666666666666668 50C -5.555555555555556 50 -5.555555555555556 0 16.666666666666668 0Z" stroke="rgba(33,41,48,1)" stroke-width="1.5" fill-opacity="1" fill="#a66a30"></path><g id="SvgjsG1105"><text id="SvgjsText1106" font-family="微软雅黑" text-anchor="middle" font-size="13px" width="80px" fill="#323232" font-weight="400" align="middle" lineHeight="125%" anchor="middle" family="微软雅黑" size="13px" weight="400" font-style="" opacity="1" y="14.375" transform="rotate(0)"><tspan id="SvgjsTspan1107" dy="16.25" x="50"><tspan id="SvgjsTspan1108" style="font-weight: bold;fill: rgb(255, 255, 255);">微服务A</tspan></tspan></text></g></g><g id="SvgjsG1109" transform="translate(623,403)"><path id="SvgjsPath1110" d="M 16.666666666666668 0L 83.33333333333333 0C 105.55555555555556 0 105.55555555555556 50 83.33333333333333 50L 16.666666666666668 50C -5.555555555555556 50 -5.555555555555556 0 16.666666666666668 0Z" stroke="rgba(33,41,48,1)" stroke-width="1.5" fill-opacity="1" fill="#70d5d7"></path><g id="SvgjsG1111"><text id="SvgjsText1112" font-family="微软雅黑" text-anchor="middle" font-size="13px" width="80px" fill="#323232" font-weight="400" align="middle" lineHeight="125%" anchor="middle" family="微软雅黑" size="13px" weight="400" font-style="" opacity="1" y="14.375" transform="rotate(0)"><tspan id="SvgjsTspan1113" dy="16.25" x="50"><tspan id="SvgjsTspan1114" style="font-weight: bold;fill: rgb(255, 255, 255);">微服务A</tspan></tspan></text></g></g><g id="SvgjsG1115"><path id="SvgjsPath1116" d="M253.667089266242 102.34277093060047L369.8984786415288 162.06602464983837" stroke="#323232" stroke-width="1.5" fill="none" marker-end="url(#SvgjsMarker1117)"></path></g><g id="SvgjsG1119"><path id="SvgjsPath1120" d="M402 102.75L402 156.1689142678891" stroke="#323232" stroke-width="1.5" fill="none" marker-end="url(#SvgjsMarker1121)"></path></g><g id="SvgjsG1123"><path id="SvgjsPath1124" d="M550.373365411806 102.41210325511817L445.14288451749815 171.6164282815746" stroke="#323232" stroke-width="1.5" fill="none" marker-end="url(#SvgjsMarker1125)"></path></g><g id="SvgjsG1127"><path id="SvgjsPath1128" d="M373.5133367452294 220.46725391972882L297.11198771717426 281.31788588897626" stroke="#323232" stroke-width="1.5" fill="none" marker-end="url(#SvgjsMarker1129)"></path></g><g id="SvgjsG1131"><path id="SvgjsPath1132" d="M444.165442475007 213.46878258122265L528.8924070899751 281.31238270759843" stroke="#323232" stroke-width="1.5" fill="none" marker-end="url(#SvgjsMarker1133)"></path></g><g id="SvgjsG1135"><path id="SvgjsPath1136" d="M294.59734338085514 337.6327461157991L254.44956382892155 400.72211398312334" stroke="#323232" stroke-width="1.5" fill="none" marker-end="url(#SvgjsMarker1137)"></path></g><g id="SvgjsG1139"><path id="SvgjsPath1140" d="M295.622077695329 337.4189502846093L390.76052029681574 401.49177897540653" stroke="#323232" stroke-width="1.5" fill="none" marker-end="url(#SvgjsMarker1141)"></path></g><g id="SvgjsG1143"><path id="SvgjsPath1144" d="M295.72272537468467 337.2004196417193L530.3981886511351 402.2784892898106" stroke="#323232" stroke-width="1.5" fill="none" marker-end="url(#SvgjsMarker1145)"></path></g><g id="SvgjsG1147"><path id="SvgjsPath1148" d="M295.7388225781309 337.12900076761014L670.3402387187288 402.53559723660345" stroke="#323232" stroke-width="1.5" fill="none" marker-end="url(#SvgjsMarker1149)"></path></g><g id="SvgjsG1151"><path id="SvgjsPath1152" d="M530.2702828365335 337.1732422042762L255.6269817884792 402.3763280646057" stroke="#323232" stroke-width="1.5" fill="none" marker-end="url(#SvgjsMarker1153)"></path></g><g id="SvgjsG1155"><path id="SvgjsPath1156" d="M530.3233993337733 337.32359162297803L395.4357623984163 401.8350701572792" stroke="#323232" stroke-width="1.5" fill="none" marker-end="url(#SvgjsMarker1157)"></path></g><g id="SvgjsG1159"><path id="SvgjsPath1160" d="M531 337.75L531 400.3" stroke="#323232" stroke-width="1.5" fill="none" marker-end="url(#SvgjsMarker1161)"></path></g><g id="SvgjsG1163"><path id="SvgjsPath1164" d="M531.680125995908 337.31611489950654L670.551546414731 401.86198636177636" stroke="#323232" stroke-width="1.5" fill="none" marker-end="url(#SvgjsMarker1165)"></path></g></svg>