<svg id="SvgjsSvg1006" width="696" height="228" xmlns="http://www.w3.org/2000/svg" version="1.1" xmlns:xlink="http://www.w3.org/1999/xlink" xmlns:svgjs="http://svgjs.com/svgjs"><defs id="SvgjsDefs1007"><pattern patternUnits="userSpaceOnUse" id="pattern_mark_0" width="300" height="300"><text x="150" y="100" fill="rgba(229,229,229,0.8)" font-size="18" transform="rotate(-45, 150, 150)" style="dominant-baseline: middle; text-anchor: middle;"></text></pattern><pattern patternUnits="userSpaceOnUse" id="pattern_mark_1" width="300" height="300"><text x="150" y="200" fill="rgba(229,229,229,0.8)" font-size="18" transform="rotate(-45, 150, 150)" style="dominant-baseline: middle; text-anchor: middle;"></text></pattern><marker id="SvgjsMarker1067" markerWidth="12" markerHeight="8" refX="9" refY="4" viewBox="0 0 12 8" orient="auto" markerUnits="userSpaceOnUse" stroke-dasharray="0,0"><path id="SvgjsPath1068" d="M0,0 L12,4 L0,8 L0,0" fill="#323232" stroke="#323232" stroke-width="1"></path></marker><marker id="SvgjsMarker1071" markerWidth="12" markerHeight="8" refX="9" refY="4" viewBox="0 0 12 8" orient="auto" markerUnits="userSpaceOnUse" stroke-dasharray="0,0"><path id="SvgjsPath1072" d="M0,0 L12,4 L0,8 L0,0" fill="#323232" stroke="#323232" stroke-width="1"></path></marker><marker id="SvgjsMarker1075" markerWidth="12" markerHeight="8" refX="9" refY="4" viewBox="0 0 12 8" orient="auto" markerUnits="userSpaceOnUse" stroke-dasharray="0,0"><path id="SvgjsPath1076" d="M0,0 L12,4 L0,8 L0,0" fill="#323232" stroke="#323232" stroke-width="1"></path></marker><marker id="SvgjsMarker1079" markerWidth="12" markerHeight="8" refX="9" refY="4" viewBox="0 0 12 8" orient="auto" markerUnits="userSpaceOnUse" stroke-dasharray="0,0"><path id="SvgjsPath1080" d="M0,0 L12,4 L0,8 L0,0" fill="#323232" stroke="#323232" stroke-width="1"></path></marker><marker id="SvgjsMarker1083" markerWidth="12" markerHeight="8" refX="9" refY="4" viewBox="0 0 12 8" orient="auto" markerUnits="userSpaceOnUse" stroke-dasharray="0,0"><path id="SvgjsPath1084" d="M0,0 L12,4 L0,8 L0,0" fill="#323232" stroke="#323232" stroke-width="1"></path></marker><marker id="SvgjsMarker1087" markerWidth="12" markerHeight="8" refX="9" refY="4" viewBox="0 0 12 8" orient="auto" markerUnits="userSpaceOnUse" stroke-dasharray="0,0"><path id="SvgjsPath1088" d="M0,0 L12,4 L0,8 L0,0" fill="#323232" stroke="#323232" stroke-width="1"></path></marker><marker id="SvgjsMarker1091" markerWidth="12" markerHeight="8" refX="9" refY="4" viewBox="0 0 12 8" orient="auto" markerUnits="userSpaceOnUse" stroke-dasharray="0,0"><path id="SvgjsPath1092" d="M0,0 L12,4 L0,8 L0,0" fill="#323232" stroke="#323232" stroke-width="1"></path></marker><marker id="SvgjsMarker1095" markerWidth="12" markerHeight="8" refX="9" refY="4" viewBox="0 0 12 8" orient="auto" markerUnits="userSpaceOnUse" stroke-dasharray="0,0"><path id="SvgjsPath1096" d="M0,0 L12,4 L0,8 L0,0" fill="#323232" stroke="#323232" stroke-width="1"></path></marker><pattern id="SvgjsPattern1113" x="0" y="0" width="396" height="57" patternUnits="userSpaceOnUse"><image id="SvgjsImage1114" xlink:href="https://cdn.processon.com/userId2-65ff76138098b65e5c8b2c86?e=1711244323&amp;token=trhI0BY8QfVrIGn9nENop6JAc6l5nZuxhjQ62UfM:TJxz9RoIuaUZOlbB_VvEMnaSSEs=" width="396" height="57" preserveAspectRatio="none" crossOrigin="anonymous" x="0" y="0"></image></pattern></defs><rect id="svgbackgroundid" width="696" height="228" fill="transparent"></rect><rect id="SvgjsRect1009" width="696" height="228" fill="url(#pattern_mark_0)"></rect><rect id="SvgjsRect1010" width="696" height="228" fill="url(#pattern_mark_1)"></rect><g id="SvgjsG1011" transform="translate(25,25)"><path id="SvgjsPath1012" d="M 0 4Q 0 0 4 0L 46 0Q 50 0 50 4L 50 16Q 50 20 46 20L 4 20Q 0 20 0 16Z" stroke="none" fill-opacity="1" fill="#99ffce"></path><g id="SvgjsG1013"><text id="SvgjsText1014" font-family="&quot;Comic Sans MS&quot;" text-anchor="middle" font-size="13px" width="30px" fill="#323232" font-weight="700" align="middle" lineHeight="125%" anchor="middle" family="&quot;Comic Sans MS&quot;" size="13px" weight="700" font-style="" opacity="1" y="-0.625" transform="rotate(0)"><tspan id="SvgjsTspan1015" dy="16.25" x="25"><tspan id="SvgjsTspan1016" style="">1</tspan></tspan></text></g></g><g id="SvgjsG1017" transform="translate(99.5,25)"><path id="SvgjsPath1018" d="M 0 4Q 0 0 4 0L 46 0Q 50 0 50 4L 50 16Q 50 20 46 20L 4 20Q 0 20 0 16Z" stroke="none" fill-opacity="1" fill="#99ffce"></path><g id="SvgjsG1019"><text id="SvgjsText1020" font-family="&quot;Comic Sans MS&quot;" text-anchor="middle" font-size="13px" width="30px" fill="#323232" font-weight="700" align="middle" lineHeight="125%" anchor="middle" family="&quot;Comic Sans MS&quot;" size="13px" weight="700" font-style="" opacity="1" y="-0.625" transform="rotate(0)"><tspan id="SvgjsTspan1021" dy="16.25" x="25"><tspan id="SvgjsTspan1022" style="">3</tspan></tspan></text></g></g><g id="SvgjsG1023" transform="translate(174,25)"><path id="SvgjsPath1024" d="M 0 4Q 0 0 4 0L 46 0Q 50 0 50 4L 50 16Q 50 20 46 20L 4 20Q 0 20 0 16Z" stroke="none" fill-opacity="1" fill="#99ffce"></path><g id="SvgjsG1025"><text id="SvgjsText1026" font-family="&quot;Comic Sans MS&quot;" text-anchor="middle" font-size="13px" width="30px" fill="#323232" font-weight="700" align="middle" lineHeight="125%" anchor="middle" family="&quot;Comic Sans MS&quot;" size="13px" weight="700" font-style="" opacity="1" y="-0.625" transform="rotate(0)"><tspan id="SvgjsTspan1027" dy="16.25" x="25"><tspan id="SvgjsTspan1028" style="">5</tspan></tspan></text></g></g><g id="SvgjsG1029" transform="translate(248.5,25)"><path id="SvgjsPath1030" d="M 0 4Q 0 0 4 0L 46 0Q 50 0 50 4L 50 16Q 50 20 46 20L 4 20Q 0 20 0 16Z" stroke="none" fill-opacity="1" fill="#99ffce"></path><g id="SvgjsG1031"><text id="SvgjsText1032" font-family="&quot;Comic Sans MS&quot;" text-anchor="middle" font-size="13px" width="30px" fill="#323232" font-weight="700" align="middle" lineHeight="125%" anchor="middle" family="&quot;Comic Sans MS&quot;" size="13px" weight="700" font-style="" opacity="1" y="-0.625" transform="rotate(0)"><tspan id="SvgjsTspan1033" dy="16.25" x="25"><tspan id="SvgjsTspan1034" style="">8</tspan></tspan></text></g></g><g id="SvgjsG1035" transform="translate(323,25)"><path id="SvgjsPath1036" d="M 0 4Q 0 0 4 0L 46 0Q 50 0 50 4L 50 16Q 50 20 46 20L 4 20Q 0 20 0 16Z" stroke="none" fill-opacity="1" fill="#99ffce"></path><g id="SvgjsG1037"><text id="SvgjsText1038" font-family="&quot;Comic Sans MS&quot;" text-anchor="middle" font-size="13px" width="30px" fill="#323232" font-weight="700" align="middle" lineHeight="125%" anchor="middle" family="&quot;Comic Sans MS&quot;" size="13px" weight="700" font-style="" opacity="1" y="-0.625" transform="rotate(0)"><tspan id="SvgjsTspan1039" dy="16.25" x="25"><tspan id="SvgjsTspan1040" style="">10</tspan></tspan></text></g></g><g id="SvgjsG1041" transform="translate(397.5,25)"><path id="SvgjsPath1042" d="M 0 4Q 0 0 4 0L 46 0Q 50 0 50 4L 50 16Q 50 20 46 20L 4 20Q 0 20 0 16Z" stroke="none" fill-opacity="1" fill="#99ffce"></path><g id="SvgjsG1043"><text id="SvgjsText1044" font-family="&quot;Comic Sans MS&quot;" text-anchor="middle" font-size="13px" width="30px" fill="#323232" font-weight="700" align="middle" lineHeight="125%" anchor="middle" family="&quot;Comic Sans MS&quot;" size="13px" weight="700" font-style="" opacity="1" y="-0.625" transform="rotate(0)"><tspan id="SvgjsTspan1045" dy="16.25" x="25"><tspan id="SvgjsTspan1046" style="">12</tspan></tspan></text></g></g><g id="SvgjsG1047" transform="translate(472,25)"><path id="SvgjsPath1048" d="M 0 4Q 0 0 4 0L 46 0Q 50 0 50 4L 50 16Q 50 20 46 20L 4 20Q 0 20 0 16Z" stroke="none" fill-opacity="1" fill="#99ffce"></path><g id="SvgjsG1049"><text id="SvgjsText1050" font-family="&quot;Comic Sans MS&quot;" text-anchor="middle" font-size="13px" width="30px" fill="#323232" font-weight="700" align="middle" lineHeight="125%" anchor="middle" family="&quot;Comic Sans MS&quot;" size="13px" weight="700" font-style="" opacity="1" y="-0.625" transform="rotate(0)"><tspan id="SvgjsTspan1051" dy="16.25" x="25"><tspan id="SvgjsTspan1052" style="">15</tspan></tspan></text></g></g><g id="SvgjsG1053" transform="translate(546.5,25)"><path id="SvgjsPath1054" d="M 0 4Q 0 0 4 0L 46 0Q 50 0 50 4L 50 16Q 50 20 46 20L 4 20Q 0 20 0 16Z" stroke="none" fill-opacity="1" fill="#99ffce"></path><g id="SvgjsG1055"><text id="SvgjsText1056" font-family="&quot;Comic Sans MS&quot;" text-anchor="middle" font-size="13px" width="30px" fill="#323232" font-weight="700" align="middle" lineHeight="125%" anchor="middle" family="&quot;Comic Sans MS&quot;" size="13px" weight="700" font-style="" opacity="1" y="-0.625" transform="rotate(0)"><tspan id="SvgjsTspan1057" dy="16.25" x="25"><tspan id="SvgjsTspan1058" style="">18</tspan></tspan></text></g></g><g id="SvgjsG1059" transform="translate(621,25)"><path id="SvgjsPath1060" d="M 0 4Q 0 0 4 0L 46 0Q 50 0 50 4L 50 16Q 50 20 46 20L 4 20Q 0 20 0 16Z" stroke="none" fill-opacity="1" fill="#99ffce"></path><g id="SvgjsG1061"><text id="SvgjsText1062" font-family="&quot;Comic Sans MS&quot;" text-anchor="middle" font-size="13px" width="30px" fill="#323232" font-weight="700" align="middle" lineHeight="125%" anchor="middle" family="&quot;Comic Sans MS&quot;" size="13px" weight="700" font-style="" opacity="1" y="-0.625" transform="rotate(0)"><tspan id="SvgjsTspan1063" dy="16.25" x="25"><tspan id="SvgjsTspan1064" style="">18</tspan></tspan></text></g></g><g id="SvgjsG1065"><path id="SvgjsPath1066" d="M75 35L87.25 35L87.25 35L98.2 35" stroke="#323232" stroke-width="1" fill="none" marker-end="url(#SvgjsMarker1067)"></path></g><g id="SvgjsG1069"><path id="SvgjsPath1070" d="M149.5 35L161.75 35L161.75 35L172.7 35" stroke="#323232" stroke-width="1" fill="none" marker-end="url(#SvgjsMarker1071)"></path></g><g id="SvgjsG1073"><path id="SvgjsPath1074" d="M224 35L236.25 35L236.25 35L247.2 35" stroke="#323232" stroke-width="1" fill="none" marker-end="url(#SvgjsMarker1075)"></path></g><g id="SvgjsG1077"><path id="SvgjsPath1078" d="M298.5 35L310.75 35L310.75 35L321.7 35" stroke="#323232" stroke-width="1" fill="none" marker-end="url(#SvgjsMarker1079)"></path></g><g id="SvgjsG1081"><path id="SvgjsPath1082" d="M373 35L385.25 35L385.25 35L396.2 35" stroke="#323232" stroke-width="1" fill="none" marker-end="url(#SvgjsMarker1083)"></path></g><g id="SvgjsG1085"><path id="SvgjsPath1086" d="M447.5 35L459.75 35L459.75 35L470.7 35" stroke="#323232" stroke-width="1" fill="none" marker-end="url(#SvgjsMarker1087)"></path></g><g id="SvgjsG1089"><path id="SvgjsPath1090" d="M522 35L534.25 35L534.25 35L545.2 35" stroke="#323232" stroke-width="1" fill="none" marker-end="url(#SvgjsMarker1091)"></path></g><g id="SvgjsG1093"><path id="SvgjsPath1094" d="M596.5 35L608.75 35L608.75 35L619.7 35" stroke="#323232" stroke-width="1" fill="none" marker-end="url(#SvgjsMarker1095)"></path></g><g id="SvgjsG1097" transform="translate(561.5,45)"><path id="SvgjsPath1098" d="M 10 0L 20 20L 0 20Z" stroke="none" fill-opacity="1" fill="#cccc00"></path><g id="SvgjsG1099"><text id="SvgjsText1100" font-family="&quot;Comic Sans MS&quot;" text-anchor="middle" font-size="13px" width="0px" fill="#323232" font-weight="700" align="middle" lineHeight="125%" anchor="middle" family="&quot;Comic Sans MS&quot;" size="13px" weight="700" font-style="" opacity="1" y="1.875" transform="rotate(0)"></text></g></g><g id="SvgjsG1101" transform="translate(522,54)"><path id="SvgjsPath1102" d="M 0 0L 105 0L 105 40L 0 40Z" stroke="none" fill="none"></path><g id="SvgjsG1103"><text id="SvgjsText1104" font-family="&quot;Comic Sans MS&quot;" text-anchor="middle" font-size="13px" width="105px" fill="#323232" font-weight="700" align="middle" lineHeight="125%" anchor="middle" family="&quot;Comic Sans MS&quot;" size="13px" weight="700" font-style="" opacity="1" y="9.375" transform="rotate(0)"><tspan id="SvgjsTspan1105" dy="16.25" x="52.5"><tspan id="SvgjsTspan1106" style="">找18需要比较8次</tspan></tspan></text></g></g><g id="SvgjsG1107" transform="translate(126,103)"><path id="SvgjsPath1108" d="M 0 0L 400 0L 416 16L 416 100L 0 100L 0 0Z" stroke="none" fill-opacity="1" fill="#fff7bc"></path><path id="SvgjsPath1109" d="M 400 0L 400 16L 416 16Z" stroke="none" fill-opacity="1" fill="#e4d089"></path><path id="SvgjsPath1110" d="M 0 0L 400 0L 416 16L 416 100L 0 100L 0 0Z" stroke="none" fill="none"></path><g id="SvgjsG1111"><rect id="SvgjsRect1112" width="396" height="57" transform="translate(10,21.5)" fill="url(#SvgjsPattern1113)"></rect></g></g></svg>