<svg id="SvgjsSvg1006" width="760.8181818181818" height="411" xmlns="http://www.w3.org/2000/svg" version="1.1" xmlns:xlink="http://www.w3.org/1999/xlink" xmlns:svgjs="http://svgjs.com/svgjs"><defs id="SvgjsDefs1007"><pattern patternUnits="userSpaceOnUse" id="pattern_mark_0" width="300" height="300"><text x="150" y="100" fill="rgba(229,229,229,0.8)" font-size="18" transform="rotate(-45, 150, 150)" style="dominant-baseline: middle; text-anchor: middle;"></text></pattern><pattern patternUnits="userSpaceOnUse" id="pattern_mark_1" width="300" height="300"><text x="150" y="200" fill="rgba(229,229,229,0.8)" font-size="18" transform="rotate(-45, 150, 150)" style="dominant-baseline: middle; text-anchor: middle;"></text></pattern><marker id="SvgjsMarker1099" markerWidth="13" markerHeight="9" refX="9.5" refY="4.5" viewBox="0 0 13 9" orient="auto" markerUnits="userSpaceOnUse" stroke-dasharray="0,0"><path id="SvgjsPath1100" d="M0,0 L13,4.5 L0,9 L0,0" fill="#323232" stroke="#323232" stroke-width="1"></path></marker><marker id="SvgjsMarker1107" markerWidth="13" markerHeight="9" refX="3.5" refY="4.5" viewBox="0 0 13 9" orient="auto" markerUnits="userSpaceOnUse" stroke-dasharray="0,0"><path id="SvgjsPath1108" d="M13,0 L0,4.5 L13,9 L13,0" fill="#323232" stroke="#323232" stroke-width="1"></path></marker><marker id="SvgjsMarker1115" markerWidth="13" markerHeight="9" refX="3.5" refY="4.5" viewBox="0 0 13 9" orient="auto" markerUnits="userSpaceOnUse" stroke-dasharray="0,0"><path id="SvgjsPath1116" d="M13,0 L0,4.5 L13,9 L13,0" fill="#323232" stroke="#323232" stroke-width="1"></path></marker><marker id="SvgjsMarker1135" markerWidth="13" markerHeight="9" refX="3.5" refY="4.5" viewBox="0 0 13 9" orient="auto" markerUnits="userSpaceOnUse" stroke-dasharray="0,0"><path id="SvgjsPath1136" d="M13,0 L0,4.5 L13,9 L13,0" fill="#323232" stroke="#323232" stroke-width="1"></path></marker><marker id="SvgjsMarker1143" markerWidth="13" markerHeight="9" refX="3.5" refY="4.5" viewBox="0 0 13 9" orient="auto" markerUnits="userSpaceOnUse" stroke-dasharray="0,0"><path id="SvgjsPath1144" d="M13,0 L0,4.5 L13,9 L13,0" fill="#323232" stroke="#323232" stroke-width="1"></path></marker><marker id="SvgjsMarker1147" markerWidth="13" markerHeight="9" refX="3.5" refY="4.5" viewBox="0 0 13 9" orient="auto" markerUnits="userSpaceOnUse" stroke-dasharray="0,0"><path id="SvgjsPath1148" d="M13,0 L0,4.5 L13,9 L13,0" fill="#323232" stroke="#323232" stroke-width="1"></path></marker><marker id="SvgjsMarker1151" markerWidth="13" markerHeight="9" refX="3.5" refY="4.5" viewBox="0 0 13 9" orient="auto" markerUnits="userSpaceOnUse" stroke-dasharray="0,0"><path id="SvgjsPath1152" d="M13,0 L0,4.5 L13,9 L13,0" fill="#323232" stroke="#323232" stroke-width="1"></path></marker><marker id="SvgjsMarker1155" markerWidth="13" markerHeight="9" refX="3.5" refY="4.5" viewBox="0 0 13 9" orient="auto" markerUnits="userSpaceOnUse" stroke-dasharray="0,0"><path id="SvgjsPath1156" d="M13,0 L0,4.5 L13,9 L13,0" fill="#323232" stroke="#323232" stroke-width="1"></path></marker><marker id="SvgjsMarker1159" markerWidth="13" markerHeight="9" refX="9.5" refY="4.5" viewBox="0 0 13 9" orient="auto" markerUnits="userSpaceOnUse" stroke-dasharray="0,0"><path id="SvgjsPath1160" d="M0,0 L13,4.5 L0,9 L0,0" fill="#323232" stroke="#323232" stroke-width="1"></path></marker><marker id="SvgjsMarker1163" markerWidth="13" markerHeight="9" refX="9.5" refY="4.5" viewBox="0 0 13 9" orient="auto" markerUnits="userSpaceOnUse" stroke-dasharray="0,0"><path id="SvgjsPath1164" d="M0,0 L13,4.5 L0,9 L0,0" fill="#323232" stroke="#323232" stroke-width="1"></path></marker><marker id="SvgjsMarker1167" markerWidth="13" markerHeight="9" refX="9.5" refY="4.5" viewBox="0 0 13 9" orient="auto" markerUnits="userSpaceOnUse" stroke-dasharray="0,0"><path id="SvgjsPath1168" d="M0,0 L13,4.5 L0,9 L0,0" fill="#323232" stroke="#323232" stroke-width="1"></path></marker><marker id="SvgjsMarker1171" markerWidth="13" markerHeight="9" refX="9.5" refY="4.5" viewBox="0 0 13 9" orient="auto" markerUnits="userSpaceOnUse" stroke-dasharray="0,0"><path id="SvgjsPath1172" d="M0,0 L13,4.5 L0,9 L0,0" fill="#323232" stroke="#323232" stroke-width="1"></path></marker></defs><rect id="svgbackgroundid" width="760.8181818181818" height="411" fill="transparent"></rect><rect id="SvgjsRect1009" width="760.8181818181818" height="411" fill="url(#pattern_mark_0)"></rect><rect id="SvgjsRect1010" width="760.8181818181818" height="411" fill="url(#pattern_mark_1)"></rect><g id="SvgjsG1011" transform="translate(209,132)"><path id="SvgjsPath1012" d="M 17.64 49C -14.700000000000001 35 5.88 24.5 13.229999999999999 21C 10.290000000000001 3.5 47.04 0 61.739999999999995 7C 73.5 -3.5 110.25 0 110.25 10.5C 139.65 7 151.41 21 139.65 38.5C 149.94 52.5 139.65 70 105.83999999999999 63C 98.49000000000001 72.10000000000001 69.08999999999999 72.10000000000001 61.739999999999995 63C 47.04 70 17.64 66.5 17.64 49Z" stroke="rgba(33,41,48,1)" stroke-width="1.5" fill-opacity="1" fill="#7da6dc"></path><g id="SvgjsG1013"><text id="SvgjsText1014" font-family="&quot;Microsoft YaHei&quot;, 微软雅黑, Arial" text-anchor="middle" font-size="13px" width="127px" fill="#ffffff" font-weight="400" align="middle" lineHeight="125%" anchor="middle" family="&quot;Microsoft YaHei&quot;, 微软雅黑, Arial" size="13px" weight="400" font-style="" opacity="1" y="24.375" transform="rotate(0)"><tspan id="SvgjsTspan1015" dy="16.25" x="73.5"><tspan id="SvgjsTspan1016" style="">MyCat</tspan></tspan></text></g></g><g id="SvgjsG1017" transform="translate(35,25)"><path id="SvgjsPath1018" d="M 0 4Q 0 0 4 0L 76 0Q 80 0 80 4L 80 36Q 80 40 76 40L 4 40Q 0 40 0 36Z" stroke="rgba(33,41,48,1)" stroke-width="1.5" fill-opacity="1" fill="#7da6dd"></path><g id="SvgjsG1019"><text id="SvgjsText1020" font-family="&quot;Microsoft YaHei&quot;, 微软雅黑, Arial" text-anchor="middle" font-size="13px" width="60px" fill="#ffffff" font-weight="400" align="middle" lineHeight="125%" anchor="middle" family="&quot;Microsoft YaHei&quot;, 微软雅黑, Arial" size="13px" weight="400" font-style="" opacity="1" y="9.375" transform="rotate(0)"><tspan id="SvgjsTspan1021" dy="16.25" x="40"><tspan id="SvgjsTspan1022" style="">客户端1</tspan></tspan></text></g></g><g id="SvgjsG1023" transform="translate(35,103)"><path id="SvgjsPath1024" d="M 0 4Q 0 0 4 0L 76 0Q 80 0 80 4L 80 36Q 80 40 76 40L 4 40Q 0 40 0 36Z" stroke="rgba(33,41,48,1)" stroke-width="1.5" fill-opacity="1" fill="#7da6dd"></path><g id="SvgjsG1025"><text id="SvgjsText1026" font-family="&quot;Microsoft YaHei&quot;, 微软雅黑, Arial" text-anchor="middle" font-size="13px" width="60px" fill="#ffffff" font-weight="400" align="middle" lineHeight="125%" anchor="middle" family="&quot;Microsoft YaHei&quot;, 微软雅黑, Arial" size="13px" weight="400" font-style="" opacity="1" y="9.375" transform="rotate(0)"><tspan id="SvgjsTspan1027" dy="16.25" x="40"><tspan id="SvgjsTspan1028" style="">客户端2</tspan></tspan></text></g></g><g id="SvgjsG1029" transform="translate(35,268)"><path id="SvgjsPath1030" d="M 0 4Q 0 0 4 0L 76 0Q 80 0 80 4L 80 36Q 80 40 76 40L 4 40Q 0 40 0 36Z" stroke="rgba(33,41,48,1)" stroke-width="1.5" fill-opacity="1" fill="#7da6dd"></path><g id="SvgjsG1031"><text id="SvgjsText1032" font-family="&quot;Microsoft YaHei&quot;, 微软雅黑, Arial" text-anchor="middle" font-size="13px" width="60px" fill="#ffffff" font-weight="400" align="middle" lineHeight="125%" anchor="middle" family="&quot;Microsoft YaHei&quot;, 微软雅黑, Arial" size="13px" weight="400" font-style="" opacity="1" y="9.375" transform="rotate(0)"><tspan id="SvgjsTspan1033" dy="16.25" x="40"><tspan id="SvgjsTspan1034" style="">客户端N</tspan></tspan></text></g></g><g id="SvgjsG1035" transform="translate(25,181)"><path id="SvgjsPath1036" d="M 0 0L 100 0L 100 49L 0 49Z" stroke="none" fill="none"></path><g id="SvgjsG1037"><text id="SvgjsText1038" font-family="&quot;Microsoft YaHei&quot;, 微软雅黑, Arial" text-anchor="middle" font-size="13px" width="100px" fill="#323232" font-weight="400" align="middle" lineHeight="125%" anchor="middle" family="&quot;Microsoft YaHei&quot;, 微软雅黑, Arial" size="13px" weight="400" font-style="" opacity="1" y="-2.625" transform="rotate(0)"><tspan id="SvgjsTspan1039" dy="16.25" x="50"><tspan id="SvgjsTspan1040" style="">•</tspan></tspan><tspan id="SvgjsTspan1041" dy="16.25" x="50"><tspan id="SvgjsTspan1042" style="">•</tspan></tspan><tspan id="SvgjsTspan1043" dy="16.25" x="50"><tspan id="SvgjsTspan1044" style="">•</tspan></tspan></text></g></g><g id="SvgjsG1045"><path id="SvgjsPath1046" d="M115.45775360648452 45.59410574458629L208.54224639351548 166.40589425541373" stroke="#323232" stroke-width="1.5" fill="none"></path></g><g id="SvgjsG1047"><path id="SvgjsPath1048" d="M115.67926766991883 123.31795507953646L208.32073233008117 166.68204492046354" stroke="#323232" stroke-width="1.5" fill="none"></path></g><g id="SvgjsG1049"><path id="SvgjsPath1050" d="M115.46011651002135 287.40772236475976L208.53988348997865 167.59227763524024" stroke="#323232" stroke-width="1.5" fill="none"></path></g><g id="SvgjsG1051" transform="translate(440,25)"><path id="SvgjsPath1052" d="M 0 4Q 0 0 4 0L 87.37241137241135 0Q 91.37241137241135 0 91.37241137241135 4L 91.37241137241135 26Q 91.37241137241135 30 87.37241137241135 30L 4 30Q 0 30 0 26Z" stroke="rgba(33,41,48,1)" stroke-width="1.5" fill-opacity="1" fill="#7ca6e0"></path><g id="SvgjsG1053"><text id="SvgjsText1054" font-family="&quot;Microsoft YaHei&quot;, 微软雅黑, Arial" text-anchor="middle" font-size="13px" width="72px" fill="#ffffff" font-weight="400" align="middle" lineHeight="125%" anchor="middle" family="&quot;Microsoft YaHei&quot;, 微软雅黑, Arial" size="13px" weight="400" font-style="" opacity="1" y="4.375" transform="rotate(0)"><tspan id="SvgjsTspan1055" dy="16.25" x="46"><tspan id="SvgjsTspan1056" style="">master1</tspan></tspan></text></g></g><g id="SvgjsG1057" transform="translate(440,103)"><path id="SvgjsPath1058" d="M 0 4Q 0 0 4 0L 87.37241137241135 0Q 91.37241137241135 0 91.37241137241135 4L 91.37241137241135 26Q 91.37241137241135 30 87.37241137241135 30L 4 30Q 0 30 0 26Z" stroke="rgba(33,41,48,1)" stroke-width="1.5" fill-opacity="1" fill="#385786"></path><g id="SvgjsG1059"><text id="SvgjsText1060" font-family="&quot;Microsoft YaHei&quot;, 微软雅黑, Arial" text-anchor="middle" font-size="13px" width="72px" fill="#ffffff" font-weight="400" align="middle" lineHeight="125%" anchor="middle" family="&quot;Microsoft YaHei&quot;, 微软雅黑, Arial" size="13px" weight="400" font-style="" opacity="1" y="4.375" transform="rotate(0)"><tspan id="SvgjsTspan1061" dy="16.25" x="46"><tspan id="SvgjsTspan1062" style="">master2</tspan></tspan></text></g></g><g id="SvgjsG1063" transform="translate(440,278)"><path id="SvgjsPath1064" d="M 0 4Q 0 0 4 0L 87.37241137241135 0Q 91.37241137241135 0 91.37241137241135 4L 91.37241137241135 26Q 91.37241137241135 30 87.37241137241135 30L 4 30Q 0 30 0 26Z" stroke="rgba(33,41,48,1)" stroke-width="1.5" fill-opacity="1" fill="#7ca6e0"></path><g id="SvgjsG1065"><text id="SvgjsText1066" font-family="&quot;Microsoft YaHei&quot;, 微软雅黑, Arial" text-anchor="middle" font-size="13px" width="72px" fill="#ffffff" font-weight="400" align="middle" lineHeight="125%" anchor="middle" family="&quot;Microsoft YaHei&quot;, 微软雅黑, Arial" size="13px" weight="400" font-style="" opacity="1" y="4.375" transform="rotate(0)"><tspan id="SvgjsTspan1067" dy="16.25" x="46"><tspan id="SvgjsTspan1068" style="">master N</tspan></tspan></text></g></g><g id="SvgjsG1069" transform="translate(430,181)"><path id="SvgjsPath1070" d="M 0 0L 100 0L 100 49L 0 49Z" stroke="none" fill="none"></path><g id="SvgjsG1071"><text id="SvgjsText1072" font-family="&quot;Microsoft YaHei&quot;, 微软雅黑, Arial" text-anchor="middle" font-size="13px" width="100px" fill="#323232" font-weight="400" align="middle" lineHeight="125%" anchor="middle" family="&quot;Microsoft YaHei&quot;, 微软雅黑, Arial" size="13px" weight="400" font-style="" opacity="1" y="-2.625" transform="rotate(0)"><tspan id="SvgjsTspan1073" dy="16.25" x="50"><tspan id="SvgjsTspan1074" style="">•</tspan></tspan><tspan id="SvgjsTspan1075" dy="16.25" x="50"><tspan id="SvgjsTspan1076" style="">•</tspan></tspan><tspan id="SvgjsTspan1077" dy="16.25" x="50"><tspan id="SvgjsTspan1078" style="">•</tspan></tspan></text></g></g><g id="SvgjsG1079" transform="translate(644.4457704457704,25)"><path id="SvgjsPath1080" d="M 0 4Q 0 0 4 0L 87.37241137241135 0Q 91.37241137241135 0 91.37241137241135 4L 91.37241137241135 26Q 91.37241137241135 30 87.37241137241135 30L 4 30Q 0 30 0 26Z" stroke="rgba(33,41,48,1)" stroke-width="1.5" fill-opacity="1" fill="#6b863a"></path><g id="SvgjsG1081"><text id="SvgjsText1082" font-family="&quot;Microsoft YaHei&quot;, 微软雅黑, Arial" text-anchor="middle" font-size="13px" width="72px" fill="#ffffff" font-weight="400" align="middle" lineHeight="125%" anchor="middle" family="&quot;Microsoft YaHei&quot;, 微软雅黑, Arial" size="13px" weight="400" font-style="" opacity="1" y="4.375" transform="rotate(0)"><tspan id="SvgjsTspan1083" dy="16.25" x="46"><tspan id="SvgjsTspan1084" style="">slave1</tspan></tspan></text></g></g><g id="SvgjsG1085" transform="translate(644.4457704457704,103)"><path id="SvgjsPath1086" d="M 0 4Q 0 0 4 0L 87.37241137241135 0Q 91.37241137241135 0 91.37241137241135 4L 91.37241137241135 26Q 91.37241137241135 30 87.37241137241135 30L 4 30Q 0 30 0 26Z" stroke="rgba(33,41,48,1)" stroke-width="1.5" fill-opacity="1" fill="#6b863a"></path><g id="SvgjsG1087"><text id="SvgjsText1088" font-family="&quot;Microsoft YaHei&quot;, 微软雅黑, Arial" text-anchor="middle" font-size="13px" width="72px" fill="#ffffff" font-weight="400" align="middle" lineHeight="125%" anchor="middle" family="&quot;Microsoft YaHei&quot;, 微软雅黑, Arial" size="13px" weight="400" font-style="" opacity="1" y="4.375" transform="rotate(0)"><tspan id="SvgjsTspan1089" dy="16.25" x="46"><tspan id="SvgjsTspan1090" style="">slave2</tspan></tspan></text></g></g><g id="SvgjsG1091" transform="translate(644.4457704457704,278)"><path id="SvgjsPath1092" d="M 0 4Q 0 0 4 0L 87.37241137241135 0Q 91.37241137241135 0 91.37241137241135 4L 91.37241137241135 26Q 91.37241137241135 30 87.37241137241135 30L 4 30Q 0 30 0 26Z" stroke="rgba(33,41,48,1)" stroke-width="1.5" fill-opacity="1" fill="#6b863a"></path><g id="SvgjsG1093"><text id="SvgjsText1094" font-family="&quot;Microsoft YaHei&quot;, 微软雅黑, Arial" text-anchor="middle" font-size="13px" width="72px" fill="#ffffff" font-weight="400" align="middle" lineHeight="125%" anchor="middle" family="&quot;Microsoft YaHei&quot;, 微软雅黑, Arial" size="13px" weight="400" font-style="" opacity="1" y="4.375" transform="rotate(0)"><tspan id="SvgjsTspan1095" dy="16.25" x="46"><tspan id="SvgjsTspan1096" style="">slave N</tspan></tspan></text></g></g><g id="SvgjsG1097"><path id="SvgjsPath1098" d="M348.89777797822023 170.49812221365423L438.4544591117476 42.21388874217742" stroke="#323232" stroke-width="1.5" fill="none" marker-end="url(#SvgjsMarker1099)"></path><rect id="SvgjsRect1101" width="13" height="18" x="394.12076357468857" y="87.40824442769483" fill="#ffffff"></rect><text id="SvgjsText1102" font-family="&quot;Microsoft YaHei&quot;, 微软雅黑, Arial" text-anchor="middle" font-size="13px" width="13px" fill="#323232" font-weight="400" align="top" lineHeight="16px" anchor="middle" family="&quot;Microsoft YaHei&quot;, 微软雅黑, Arial" size="13px" weight="400" font-style="" opacity="1" y="84.78324442769483" transform="rotate(0)"><tspan id="SvgjsTspan1103" dy="16.25" x="400.62076357468857"><tspan id="SvgjsTspan1104" style="">主</tspan></tspan></text></g><g id="SvgjsG1105"><path id="SvgjsPath1106" d="M437.64627253477806 119.3228631900011L349.6635451160423 168.77171110373754" stroke-dasharray="7.5,3" stroke="#323232" stroke-width="1.5" fill="none" marker-start="url(#SvgjsMarker1107)"></path><rect id="SvgjsRect1109" width="13" height="18" x="385.5780552842304" y="135.9335246303806" fill="#ffffff"></rect><text id="SvgjsText1110" font-family="&quot;Microsoft YaHei&quot;, 微软雅黑, Arial" text-anchor="middle" font-size="13px" width="13px" fill="#323232" font-weight="400" align="top" lineHeight="16px" anchor="middle" family="&quot;Microsoft YaHei&quot;, 微软雅黑, Arial" size="13px" weight="400" font-style="" opacity="1" y="133.3085246303806" transform="rotate(0)"><tspan id="SvgjsTspan1111" dy="16.25" x="392.0780552842304"><tspan id="SvgjsTspan1112" style="">备</tspan></tspan></text></g><g id="SvgjsG1113"><path id="SvgjsPath1114" d="M438.4311042426988 290.80260014955803L350.4371748422735 167.55805289110205" stroke="#323232" stroke-width="1.5" fill="none" marker-start="url(#SvgjsMarker1115)"></path><rect id="SvgjsRect1117" width="13" height="18" x="393.3252239174459" y="227.73109459662004" fill="#ffffff"></rect><text id="SvgjsText1118" font-family="&quot;Microsoft YaHei&quot;, 微软雅黑, Arial" text-anchor="middle" font-size="13px" width="13px" fill="#323232" font-weight="400" align="top" lineHeight="16px" anchor="middle" family="&quot;Microsoft YaHei&quot;, 微软雅黑, Arial" size="13px" weight="400" font-style="" opacity="1" y="225.10609459662004" transform="rotate(0)"><tspan id="SvgjsTspan1119" dy="16.25" x="399.8252239174459"><tspan id="SvgjsTspan1120" style="">主</tspan></tspan></text></g><g id="SvgjsG1121" transform="translate(440,356)"><path id="SvgjsPath1122" d="M 0 4Q 0 0 4 0L 87.37241137241135 0Q 91.37241137241135 0 91.37241137241135 4L 91.37241137241135 26Q 91.37241137241135 30 87.37241137241135 30L 4 30Q 0 30 0 26Z" stroke="rgba(33,41,48,1)" stroke-width="1.5" fill-opacity="1" fill="#385786"></path><g id="SvgjsG1123"><text id="SvgjsText1124" font-family="&quot;Microsoft YaHei&quot;, 微软雅黑, Arial" text-anchor="middle" font-size="13px" width="72px" fill="#ffffff" font-weight="400" align="middle" lineHeight="125%" anchor="middle" family="&quot;Microsoft YaHei&quot;, 微软雅黑, Arial" size="13px" weight="400" font-style="" opacity="1" y="4.375" transform="rotate(0)"><tspan id="SvgjsTspan1125" dy="16.25" x="46"><tspan id="SvgjsTspan1126" style="">master N+1</tspan></tspan></text></g></g><g id="SvgjsG1127" transform="translate(644.4457704457704,356)"><path id="SvgjsPath1128" d="M 0 4Q 0 0 4 0L 87.37241137241135 0Q 91.37241137241135 0 91.37241137241135 4L 91.37241137241135 26Q 91.37241137241135 30 87.37241137241135 30L 4 30Q 0 30 0 26Z" stroke="rgba(33,41,48,1)" stroke-width="1.5" fill-opacity="1" fill="#6b863a"></path><g id="SvgjsG1129"><text id="SvgjsText1130" font-family="&quot;Microsoft YaHei&quot;, 微软雅黑, Arial" text-anchor="middle" font-size="13px" width="72px" fill="#ffffff" font-weight="400" align="middle" lineHeight="125%" anchor="middle" family="&quot;Microsoft YaHei&quot;, 微软雅黑, Arial" size="13px" weight="400" font-style="" opacity="1" y="4.375" transform="rotate(0)"><tspan id="SvgjsTspan1131" dy="16.25" x="46"><tspan id="SvgjsTspan1132" style="">slave N+1</tspan></tspan></text></g></g><g id="SvgjsG1133"><path id="SvgjsPath1134" d="M438.8864544177221 368.5403219242776L349.1202573987911 170.25841028777273" stroke-dasharray="7.5,3" stroke="#323232" stroke-width="1.5" fill="none" marker-start="url(#SvgjsMarker1135)"></path><rect id="SvgjsRect1137" width="13" height="18" x="390.0111200830406" y="265.9386926122472" fill="#ffffff"></rect><text id="SvgjsText1138" font-family="&quot;Microsoft YaHei&quot;, 微软雅黑, Arial" text-anchor="middle" font-size="13px" width="13px" fill="#323232" font-weight="400" align="top" lineHeight="16px" anchor="middle" family="&quot;Microsoft YaHei&quot;, 微软雅黑, Arial" size="13px" weight="400" font-style="" opacity="1" y="263.3136926122472" transform="rotate(0)"><tspan id="SvgjsTspan1139" dy="16.25" x="396.5111200830406"><tspan id="SvgjsTspan1140" style="">备</tspan></tspan></text></g><g id="SvgjsG1141"><path id="SvgjsPath1142" d="M467.7096774193549 56.99032258064517L467.7096774193549 102.89516129032259" stroke="#323232" stroke-width="1.5" fill="none" marker-start="url(#SvgjsMarker1143)"></path></g><g id="SvgjsG1145"><path id="SvgjsPath1146" d="M505.61290322580646 100.9451612903226L505.61290322580646 55.04032258064517" stroke="#323232" stroke-width="1.5" fill="none" marker-start="url(#SvgjsMarker1147)"></path></g><g id="SvgjsG1149"><path id="SvgjsPath1150" d="M465.2903225806451 310.4096774193548L465.2903225806451 355.508064516129" stroke="#323232" stroke-width="1.5" fill="none" marker-start="url(#SvgjsMarker1151)"></path></g><g id="SvgjsG1153"><path id="SvgjsPath1154" d="M508.8387096774194 354.1709677419355L508.8387096774194 308.26612903225805" stroke="#323232" stroke-width="1.5" fill="none" marker-start="url(#SvgjsMarker1155)"></path></g><g id="SvgjsG1157"><path id="SvgjsPath1158" d="M532.1224113724113 40L641.7457704457704 40" stroke="#323232" stroke-width="1.5" fill="none" marker-end="url(#SvgjsMarker1159)"></path></g><g id="SvgjsG1161"><path id="SvgjsPath1162" d="M532.1224113724113 118L641.7457704457704 118" stroke="#323232" stroke-width="1.5" fill="none" marker-end="url(#SvgjsMarker1163)"></path></g><g id="SvgjsG1165"><path id="SvgjsPath1166" d="M532.1224113724113 293L641.7457704457704 293" stroke="#323232" stroke-width="1.5" fill="none" marker-end="url(#SvgjsMarker1167)"></path></g><g id="SvgjsG1169"><path id="SvgjsPath1170" d="M532.1224113724113 371L641.7457704457704 371" stroke="#323232" stroke-width="1.5" fill="none" marker-end="url(#SvgjsMarker1171)"></path></g><g id="SvgjsG1173"></g></svg>