<svg id="SvgjsSvg1006" width="778.3076923076922" height="279" xmlns="http://www.w3.org/2000/svg" version="1.1" xmlns:xlink="http://www.w3.org/1999/xlink" xmlns:svgjs="http://svgjs.com/svgjs"><defs id="SvgjsDefs1007"><pattern patternUnits="userSpaceOnUse" id="pattern_mark_0" width="300" height="300"><text x="150" y="100" fill="rgba(229,229,229,0.8)" font-size="18" transform="rotate(-45, 150, 150)" style="dominant-baseline: middle; text-anchor: middle;"></text></pattern><pattern patternUnits="userSpaceOnUse" id="pattern_mark_1" width="300" height="300"><text x="150" y="200" fill="rgba(229,229,229,0.8)" font-size="18" transform="rotate(-45, 150, 150)" style="dominant-baseline: middle; text-anchor: middle;"></text></pattern><linearGradient id="SvgjsLinearGradient1013" x1="0.5" y1="0" x2="0.5" y2="1"><stop id="SvgjsStop1014" stop-opacity="1" stop-color="#ffffff" offset="0"></stop><stop id="SvgjsStop1015" stop-opacity="1" stop-color="#c3c3c3" offset="1"></stop></linearGradient><linearGradient id="SvgjsLinearGradient1024" x1="0.5" y1="0" x2="0.5" y2="1"><stop id="SvgjsStop1025" stop-opacity="1" stop-color="#ffffff" offset="0"></stop><stop id="SvgjsStop1026" stop-opacity="1" stop-color="#c3c3c3" offset="1"></stop></linearGradient><linearGradient id="SvgjsLinearGradient1035" x1="0.5" y1="0" x2="0.5" y2="1"><stop id="SvgjsStop1036" stop-opacity="1" stop-color="#ffffff" offset="0"></stop><stop id="SvgjsStop1037" stop-opacity="1" stop-color="#c3c3c3" offset="1"></stop></linearGradient><linearGradient id="SvgjsLinearGradient1046" x1="0.5" y1="0" x2="0.5" y2="1"><stop id="SvgjsStop1047" stop-opacity="1" stop-color="#ffffff" offset="0"></stop><stop id="SvgjsStop1048" stop-opacity="1" stop-color="#c3c3c3" offset="1"></stop></linearGradient><linearGradient id="SvgjsLinearGradient1055" x1="0.5" y1="0" x2="0.5" y2="1"><stop id="SvgjsStop1056" stop-opacity="1" stop-color="#ffffff" offset="0"></stop><stop id="SvgjsStop1057" stop-opacity="1" stop-color="#c3c3c3" offset="1"></stop></linearGradient><linearGradient id="SvgjsLinearGradient1064" x1="0.5" y1="0" x2="0.5" y2="1"><stop id="SvgjsStop1065" stop-opacity="1" stop-color="#ffffff" offset="0"></stop><stop id="SvgjsStop1066" stop-opacity="1" stop-color="#c3c3c3" offset="1"></stop></linearGradient><marker id="SvgjsMarker1073" markerWidth="13" markerHeight="9" refX="9.5" refY="4.5" viewBox="0 0 13 9" orient="auto" markerUnits="userSpaceOnUse" stroke-dasharray="0,0"><path id="SvgjsPath1074" d="M0,0 L13,4.5 L0,9 L0,0" fill="#323232" stroke="#323232" stroke-width="1"></path></marker><marker id="SvgjsMarker1077" markerWidth="13" markerHeight="9" refX="9.5" refY="4.5" viewBox="0 0 13 9" orient="auto" markerUnits="userSpaceOnUse" stroke-dasharray="0,0"><path id="SvgjsPath1078" d="M0,0 L13,4.5 L0,9 L0,0" fill="#323232" stroke="#323232" stroke-width="1"></path></marker><marker id="SvgjsMarker1081" markerWidth="13" markerHeight="9" refX="9.5" refY="4.5" viewBox="0 0 13 9" orient="auto" markerUnits="userSpaceOnUse" stroke-dasharray="0,0"><path id="SvgjsPath1082" d="M0,0 L13,4.5 L0,9 L0,0" fill="#323232" stroke="#323232" stroke-width="1"></path></marker><marker id="SvgjsMarker1085" markerWidth="13" markerHeight="9" refX="9.5" refY="4.5" viewBox="0 0 13 9" orient="auto" markerUnits="userSpaceOnUse" stroke-dasharray="0,0"><path id="SvgjsPath1086" d="M0,0 L13,4.5 L0,9 L0,0" fill="#323232" stroke="#323232" stroke-width="1"></path></marker><marker id="SvgjsMarker1089" markerWidth="13" markerHeight="9" refX="9.5" refY="4.5" viewBox="0 0 13 9" orient="auto" markerUnits="userSpaceOnUse" stroke-dasharray="0,0"><path id="SvgjsPath1090" d="M0,0 L13,4.5 L0,9 L0,0" fill="#323232" stroke="#323232" stroke-width="1"></path></marker><marker id="SvgjsMarker1093" markerWidth="13" markerHeight="9" refX="9.5" refY="4.5" viewBox="0 0 13 9" orient="auto" markerUnits="userSpaceOnUse" stroke-dasharray="0,0"><path id="SvgjsPath1094" d="M0,0 L13,4.5 L0,9 L0,0" fill="#323232" stroke="#323232" stroke-width="1"></path></marker></defs><rect id="svgbackgroundid" width="778.3076923076922" height="279" fill="transparent"></rect><rect id="SvgjsRect1009" width="778.3076923076922" height="279" fill="url(#pattern_mark_0)"></rect><rect id="SvgjsRect1010" width="778.3076923076922" height="279" fill="url(#pattern_mark_1)"></rect><g id="SvgjsG1011" transform="translate(446.53846153846143,112.5)"><path id="SvgjsPath1012" d="M 0 4Q 0 0 4 0L 92 0Q 96 0 96 4L 96 50Q 96 54 92 54L 4 54Q 0 54 0 50Z" stroke="rgba(33,41,48,1)" stroke-width="1.5" fill="url(#SvgjsLinearGradient1013)"></path><g id="SvgjsG1016"><text id="SvgjsText1017" font-family="&quot;Comic Sans MS&quot;" text-anchor="middle" font-size="13px" width="76px" fill="#323232" font-weight="400" align="middle" lineHeight="125%" anchor="middle" family="&quot;Comic Sans MS&quot;" size="13px" weight="400" font-style="" opacity="1" y="7.875" transform="rotate(0)"><tspan id="SvgjsTspan1018" dy="16.25" x="48"><tspan id="SvgjsTspan1019" style="">Consumer</tspan></tspan><tspan id="SvgjsTspan1020" dy="16.25" x="48"><tspan id="SvgjsTspan1021" style="">group</tspan></tspan></text></g></g><g id="SvgjsG1022" transform="translate(446.53846153846143,200)"><path id="SvgjsPath1023" d="M 0 4Q 0 0 4 0L 92 0Q 96 0 96 4L 96 50Q 96 54 92 54L 4 54Q 0 54 0 50Z" stroke="rgba(33,41,48,1)" stroke-width="1.5" fill="url(#SvgjsLinearGradient1024)"></path><g id="SvgjsG1027"><text id="SvgjsText1028" font-family="&quot;Comic Sans MS&quot;" text-anchor="middle" font-size="13px" width="76px" fill="#323232" font-weight="400" align="middle" lineHeight="125%" anchor="middle" family="&quot;Comic Sans MS&quot;" size="13px" weight="400" font-style="" opacity="1" y="7.875" transform="rotate(0)"><tspan id="SvgjsTspan1029" dy="16.25" x="48"><tspan id="SvgjsTspan1030" style="">Consumer</tspan></tspan><tspan id="SvgjsTspan1031" dy="16.25" x="48"><tspan id="SvgjsTspan1032" style="">group</tspan></tspan></text></g></g><g id="SvgjsG1033" transform="translate(446.53846153846143,25)"><path id="SvgjsPath1034" d="M 0 4Q 0 0 4 0L 92 0Q 96 0 96 4L 96 50Q 96 54 92 54L 4 54Q 0 54 0 50Z" stroke="rgba(33,41,48,1)" stroke-width="1.5" fill="url(#SvgjsLinearGradient1035)"></path><g id="SvgjsG1038"><text id="SvgjsText1039" font-family="&quot;Comic Sans MS&quot;" text-anchor="middle" font-size="13px" width="76px" fill="#323232" font-weight="400" align="middle" lineHeight="125%" anchor="middle" family="&quot;Comic Sans MS&quot;" size="13px" weight="400" font-style="" opacity="1" y="7.875" transform="rotate(0)"><tspan id="SvgjsTspan1040" dy="16.25" x="48"><tspan id="SvgjsTspan1041" style="">Consumer</tspan></tspan><tspan id="SvgjsTspan1042" dy="16.25" x="48"><tspan id="SvgjsTspan1043" style="">group</tspan></tspan></text></g></g><g id="SvgjsG1044" transform="translate(657.3076923076922,112.5)"><path id="SvgjsPath1045" d="M 0 4Q 0 0 4 0L 92 0Q 96 0 96 4L 96 50Q 96 54 92 54L 4 54Q 0 54 0 50Z" stroke="rgba(33,41,48,1)" stroke-width="1.5" fill="url(#SvgjsLinearGradient1046)"></path><g id="SvgjsG1049"><text id="SvgjsText1050" font-family="&quot;Comic Sans MS&quot;" text-anchor="middle" font-size="13px" width="76px" fill="#323232" font-weight="400" align="middle" lineHeight="125%" anchor="middle" family="&quot;Comic Sans MS&quot;" size="13px" weight="400" font-style="" opacity="1" y="16.375" transform="rotate(0)"><tspan id="SvgjsTspan1051" dy="16.25" x="48"><tspan id="SvgjsTspan1052" style="">Clients</tspan></tspan></text></g></g><g id="SvgjsG1053" transform="translate(235.76923076923072,112.5)"><path id="SvgjsPath1054" d="M 0 4Q 0 0 4 0L 92 0Q 96 0 96 4L 96 50Q 96 54 92 54L 4 54Q 0 54 0 50Z" stroke="rgba(33,41,48,1)" stroke-width="1.5" fill="url(#SvgjsLinearGradient1055)"></path><g id="SvgjsG1058"><text id="SvgjsText1059" font-family="&quot;Comic Sans MS&quot;" text-anchor="middle" font-size="13px" width="76px" fill="#323232" font-weight="400" align="middle" lineHeight="125%" anchor="middle" family="&quot;Comic Sans MS&quot;" size="13px" weight="400" font-style="" opacity="1" y="16.375" transform="rotate(0)"><tspan id="SvgjsTspan1060" dy="16.25" x="48"><tspan id="SvgjsTspan1061" style="">Stream</tspan></tspan></text></g></g><g id="SvgjsG1062" transform="translate(25,112.5)"><path id="SvgjsPath1063" d="M 0 4Q 0 0 4 0L 92 0Q 96 0 96 4L 96 50Q 96 54 92 54L 4 54Q 0 54 0 50Z" stroke="rgba(33,41,48,1)" stroke-width="1.5" fill="url(#SvgjsLinearGradient1064)"></path><g id="SvgjsG1067"><text id="SvgjsText1068" font-family="&quot;Comic Sans MS&quot;" text-anchor="middle" font-size="13px" width="76px" fill="#323232" font-weight="400" align="middle" lineHeight="125%" anchor="middle" family="&quot;Comic Sans MS&quot;" size="13px" weight="400" font-style="" opacity="1" y="16.375" transform="rotate(0)"><tspan id="SvgjsTspan1069" dy="16.25" x="48"><tspan id="SvgjsTspan1070" style="">Publisher</tspan></tspan></text></g></g><g id="SvgjsG1071"><path id="SvgjsPath1072" d="M121.75 139.5L178.38461538461536 139.5L178.38461538461536 139.5L233.06923076923073 139.5" stroke="#323232" stroke-width="1.5" fill="none" marker-end="url(#SvgjsMarker1073)"></path></g><g id="SvgjsG1075"><path id="SvgjsPath1076" d="M332.5192307692307 139.5L389.1538461538461 139.5L389.1538461538461 52L443.83846153846144 52" stroke="#323232" stroke-width="1.5" fill="none" marker-end="url(#SvgjsMarker1077)"></path></g><g id="SvgjsG1079"><path id="SvgjsPath1080" d="M332.5192307692307 139.5L389.1538461538461 139.5L389.1538461538461 139.5L443.83846153846144 139.5" stroke="#323232" stroke-width="1.5" fill="none" marker-end="url(#SvgjsMarker1081)"></path></g><g id="SvgjsG1083"><path id="SvgjsPath1084" d="M332.5192307692307 139.5L389.1538461538461 139.5L389.1538461538461 227L443.83846153846144 227" stroke="#323232" stroke-width="1.5" fill="none" marker-end="url(#SvgjsMarker1085)"></path></g><g id="SvgjsG1087"><path id="SvgjsPath1088" d="M543.2884615384614 139.5L599.9230769230768 139.5L599.9230769230768 139.5L654.6076923076921 139.5" stroke="#323232" stroke-width="1.5" fill="none" marker-end="url(#SvgjsMarker1089)"></path></g><g id="SvgjsG1091"><path id="SvgjsPath1092" d="M705.3076923076922 167.25L705.3076923076922 187.26923076923072L494.53846153846143 187.26923076923072L494.53846153846143 169.2" stroke="#323232" stroke-width="1.5" fill="none" marker-end="url(#SvgjsMarker1093)"></path></g><g id="SvgjsG1095" transform="translate(121.46153846153834,106.34615384615384)"><path id="SvgjsPath1096" d="M 0 0L 100 0L 100 40L 0 40Z" stroke="none" fill="none"></path><g id="SvgjsG1097"><text id="SvgjsText1098" font-family="&quot;Comic Sans MS&quot;" text-anchor="middle" font-size="13px" width="100px" fill="#323232" font-weight="400" align="middle" lineHeight="125%" anchor="middle" family="&quot;Comic Sans MS&quot;" size="13px" weight="400" font-style="" opacity="1" y="9.375" transform="rotate(0)"><tspan id="SvgjsTspan1099" dy="16.25" x="50"><tspan id="SvgjsTspan1100" style="">XADD</tspan></tspan></text></g></g><g id="SvgjsG1101" transform="translate(369.9230769230768,97.88461538461539)"><path id="SvgjsPath1102" d="M 0 0L 100 0L 100 40L 0 40Z" stroke="none" fill="none"></path><g id="SvgjsG1103"><text id="SvgjsText1104" font-family="&quot;Comic Sans MS&quot;" text-anchor="middle" font-size="13px" width="100px" fill="#323232" font-weight="400" align="middle" lineHeight="125%" anchor="middle" family="&quot;Comic Sans MS&quot;" size="13px" weight="400" font-style="" opacity="1" y="0.875" transform="rotate(0)"><tspan id="SvgjsTspan1105" dy="16.25" x="50"><tspan id="SvgjsTspan1106" style="">XGROUP</tspan></tspan><tspan id="SvgjsTspan1107" dy="16.25" x="50"><tspan id="SvgjsTspan1108" style="">CREATE</tspan></tspan></text></g></g><g id="SvgjsG1109" transform="translate(542.5384615384614,106.34615384615384)"><path id="SvgjsPath1110" d="M 0 0L 100 0L 100 40L 0 40Z" stroke="none" fill="none"></path><g id="SvgjsG1111"><text id="SvgjsText1112" font-family="&quot;Comic Sans MS&quot;" text-anchor="middle" font-size="13px" width="100px" fill="#323232" font-weight="400" align="middle" lineHeight="125%" anchor="middle" family="&quot;Comic Sans MS&quot;" size="13px" weight="400" font-style="" opacity="1" y="9.375" transform="rotate(0)"><tspan id="SvgjsTspan1113" dy="16.25" x="50"><tspan id="SvgjsTspan1114" style="">XREADGROUP</tspan></tspan></text></g></g><g id="SvgjsG1115" transform="translate(542.5384615384614,156.34615384615384)"><path id="SvgjsPath1116" d="M 0 0L 100 0L 100 40L 0 40Z" stroke="none" fill="none"></path><g id="SvgjsG1117"><text id="SvgjsText1118" font-family="&quot;Comic Sans MS&quot;" text-anchor="middle" font-size="13px" width="100px" fill="#323232" font-weight="400" align="middle" lineHeight="125%" anchor="middle" family="&quot;Comic Sans MS&quot;" size="13px" weight="400" font-style="" opacity="1" y="9.375" transform="rotate(0)"><tspan id="SvgjsTspan1119" dy="16.25" x="50"><tspan id="SvgjsTspan1120" style="">XACK</tspan></tspan></text></g></g></svg>