<svg id="SvgjsSvg1006" width="384" height="150" xmlns="http://www.w3.org/2000/svg" version="1.1" xmlns:xlink="http://www.w3.org/1999/xlink" xmlns:svgjs="http://svgjs.com/svgjs"><defs id="SvgjsDefs1007"><pattern patternUnits="userSpaceOnUse" id="pattern_mark_0" width="300" height="300"><text x="150" y="100" fill="rgba(229,229,229,0.8)" font-size="18" transform="rotate(-45, 150, 150)" style="dominant-baseline: middle; text-anchor: middle;"></text></pattern><pattern patternUnits="userSpaceOnUse" id="pattern_mark_1" width="300" height="300"><text x="150" y="200" fill="rgba(229,229,229,0.8)" font-size="18" transform="rotate(-45, 150, 150)" style="dominant-baseline: middle; text-anchor: middle;"></text></pattern><marker id="SvgjsMarker1035" markerWidth="13" markerHeight="9" refX="9.5" refY="4.5" viewBox="0 0 13 9" orient="auto" markerUnits="userSpaceOnUse" stroke-dasharray="0,0"><path id="SvgjsPath1036" d="M0,0 L13,4.5 L0,9 L0,0" fill="#4000ff" stroke="#4000ff" stroke-width="1"></path></marker></defs><rect id="svgbackgroundid" width="384" height="150" fill="transparent"></rect><rect id="SvgjsRect1009" width="384" height="150" fill="url(#pattern_mark_0)"></rect><rect id="SvgjsRect1010" width="384" height="150" fill="url(#pattern_mark_1)"></rect><g id="SvgjsG1011" transform="translate(25,25)"><path id="SvgjsPath1012" d="M 0 0L 318 0L 334 16L 334 100L 0 100L 0 0Z" stroke="none" fill-opacity="1" fill="#fff7bc"></path><path id="SvgjsPath1013" d="M 318 0L 318 16L 334 16Z" stroke="none" fill-opacity="1" fill="#e4d089"></path><path id="SvgjsPath1014" d="M 0 0L 318 0L 334 16L 334 100L 0 100L 0 0Z" stroke="none" fill="none"></path><g id="SvgjsG1015"><text id="SvgjsText1016" font-family="&quot;Comic Sans MS&quot;" text-anchor="start" font-size="13px" width="314px" fill="#323232" font-weight="700" align="middle" lineHeight="125%" anchor="start" family="&quot;Comic Sans MS&quot;" size="13px" weight="700" font-style="" opacity="1" y="-1.625" transform="rotate(0)"><tspan id="SvgjsTspan1017" dy="16.25" x="10"><tspan id="SvgjsTspan1018" style="">SELECT  last_name</tspan></tspan><tspan id="SvgjsTspan1019" dy="16.25" x="10"><tspan id="SvgjsTspan1020" style="">FROM    employees</tspan></tspan><tspan id="SvgjsTspan1021" dy="16.25" x="10"><tspan id="SvgjsTspan1022" style="">WHERE  salary &gt; </tspan></tspan><tspan id="SvgjsTspan1023" dy="16.25" x="10"><tspan id="SvgjsTspan1024" style="">                    (SELECT salary</tspan></tspan><tspan id="SvgjsTspan1025" dy="16.25" x="10"><tspan id="SvgjsTspan1026" style="">                     FROM employees</tspan></tspan><tspan id="SvgjsTspan1027" dy="16.25" x="10"><tspan id="SvgjsTspan1028" style="">                     WHERE employee_id = 149);</tspan></tspan></text></g></g><g id="SvgjsG1029" transform="translate(151,76)"><path id="SvgjsPath1030" d="M 0 0L 196 0L 196 49L 0 49Z" stroke="rgba(235,0,31,1)" stroke-width="1.5" fill="none"></path><g id="SvgjsG1031"><text id="SvgjsText1032" font-family="微软雅黑" text-anchor="middle" font-size="13px" width="176px" fill="#323232" font-weight="400" align="middle" lineHeight="125%" anchor="middle" family="微软雅黑" size="13px" weight="400" font-style="" opacity="1" y="13.875" transform="rotate(0)"></text></g></g><g id="SvgjsG1033"><path id="SvgjsPath1034" d="M249 75.25L249 66L169 66" stroke="#4000ff" stroke-width="1.5" fill="none" marker-end="url(#SvgjsMarker1035)"></path></g><g id="SvgjsG1037" transform="translate(166,42)"><path id="SvgjsPath1038" d="M 0 0L 100 0L 100 20L 0 20Z" stroke="none" fill="none"></path><g id="SvgjsG1039"><text id="SvgjsText1040" font-family="&quot;Comic Sans MS&quot;" text-anchor="middle" font-size="13px" width="100px" fill="#323232" font-weight="400" align="middle" lineHeight="125%" anchor="middle" family="&quot;Comic Sans MS&quot;" size="13px" weight="400" font-style="" opacity="1" y="-0.625" transform="rotate(0)"><tspan id="SvgjsTspan1041" dy="16.25" x="50"><tspan id="SvgjsTspan1042" style="font-weight: bold;">10500</tspan></tspan></text></g></g></svg>