<svg id="SvgjsSvg1006" width="737.5675675675676" height="403" xmlns="http://www.w3.org/2000/svg" version="1.1" xmlns:xlink="http://www.w3.org/1999/xlink" xmlns:svgjs="http://svgjs.com/svgjs"><defs id="SvgjsDefs1007"><pattern patternUnits="userSpaceOnUse" id="pattern_mark_0" width="300" height="300"><text x="150" y="100" fill="rgba(73,76,88,0.8)" font-size="18" transform="rotate(-45, 150, 150)" style="dominant-baseline: middle; text-anchor: middle;"></text></pattern><pattern patternUnits="userSpaceOnUse" id="pattern_mark_1" width="300" height="300"><text x="150" y="200" fill="rgba(73,76,88,0.8)" font-size="18" transform="rotate(-45, 150, 150)" style="dominant-baseline: middle; text-anchor: middle;"></text></pattern><marker id="SvgjsMarker1046" markerWidth="14" markerHeight="10" refX="10" refY="5" viewBox="0 0 14 10" orient="auto" markerUnits="userSpaceOnUse" stroke-dasharray="0,0"><path id="SvgjsPath1047" d="M0,0 L14,5 L0,10 L0,0" fill="#ffffff" stroke="#ffffff" stroke-width="1"></path></marker><marker id="SvgjsMarker1080" markerWidth="14" markerHeight="10" refX="10" refY="5" viewBox="0 0 14 10" orient="auto" markerUnits="userSpaceOnUse" stroke-dasharray="0,0"><path id="SvgjsPath1081" d="M0,0 L14,5 L0,10 L0,0" fill="#ffffff" stroke="#ffffff" stroke-width="1"></path></marker><marker id="SvgjsMarker1084" markerWidth="14" markerHeight="10" refX="10" refY="5" viewBox="0 0 14 10" orient="auto" markerUnits="userSpaceOnUse" stroke-dasharray="0,0"><path id="SvgjsPath1085" d="M0,0 L14,5 L0,10 L0,0" fill="#ffffff" stroke="#ffffff" stroke-width="1"></path></marker><marker id="SvgjsMarker1139" markerWidth="14" markerHeight="10" refX="10" refY="5" viewBox="0 0 14 10" orient="auto" markerUnits="userSpaceOnUse" stroke-dasharray="0,0"><path id="SvgjsPath1140" d="M0,0 L14,5 L0,10 L0,0" fill="#ffffff" stroke="#ffffff" stroke-width="1"></path></marker><marker id="SvgjsMarker1143" markerWidth="14" markerHeight="10" refX="10" refY="5" viewBox="0 0 14 10" orient="auto" markerUnits="userSpaceOnUse" stroke-dasharray="0,0"><path id="SvgjsPath1144" d="M0,0 L14,5 L0,10 L0,0" fill="#ffffff" stroke="#ffffff" stroke-width="1"></path></marker><marker id="SvgjsMarker1147" markerWidth="14" markerHeight="10" refX="4" refY="5" viewBox="0 0 14 10" orient="auto" markerUnits="userSpaceOnUse" stroke-dasharray="0,0"><path id="SvgjsPath1148" d="M14,0 L0,5 L14,10 L14,0" fill="#ffffff" stroke="#ffffff" stroke-width="1"></path></marker></defs><rect id="svgbackgroundid" width="737.5675675675676" height="403" fill="#515562"></rect><rect id="SvgjsRect1009" width="737.5675675675676" height="403" fill="url(#pattern_mark_0)"></rect><rect id="SvgjsRect1010" width="737.5675675675676" height="403" fill="url(#pattern_mark_1)"></rect><g id="SvgjsG1011" transform="translate(25.000000000000043,73)"><path id="SvgjsPath1012" d="M 159.56756756756758 0Q 150.56756756756758 0 150.56756756756758 9L 150.56756756756758 51Q 150.56756756756758 60 137.56756756756758 60Q 150.56756756756758 60 150.56756756756758 69L 150.56756756756758 111Q 150.56756756756758 120 159.56756756756758 120" stroke="rgba(255,255,255,1)" stroke-width="2" fill="none"></path><path id="SvgjsPath1013" d="M 0 0L 159.56756756756758 0L 159.56756756756758 120L 0 120Z" stroke="none" fill="none"></path><g id="SvgjsG1014"><text id="SvgjsText1015" font-family="&quot;Comic Sans MS&quot;" text-anchor="start" font-size="13px" width="133px" fill="#ffffff" font-weight="700" align="middle" lineHeight="125%" anchor="start" family="&quot;Comic Sans MS&quot;" size="13px" weight="700" font-style="" opacity="1" y="32.875" transform="rotate(0)"><tspan id="SvgjsTspan1016" dy="16.25" x="0"><tspan id="SvgjsTspan1017" style="">进程受阻于select调</tspan></tspan><tspan id="SvgjsTspan1018" dy="16.25" x="0"><tspan id="SvgjsTspan1019" style="">用，等待可能多个套接</tspan></tspan><tspan id="SvgjsTspan1020" dy="16.25" x="0"><tspan id="SvgjsTspan1021" style="">字中任一个变为刻度</tspan></tspan></text></g></g><g id="SvgjsG1022" transform="translate(521.5675675675676,73)"><path id="SvgjsPath1023" d="M 0 120Q 9 120 9 111L 9 69Q 9 60 22 60Q 9 60 9 51L 9 9Q 9 0 0 0" stroke="rgba(255,255,255,1)" stroke-width="2" fill="none"></path><path id="SvgjsPath1024" d="M 0 0L 120 0L 120 120L 0 120Z" stroke="none" fill="none"></path><g id="SvgjsG1025"><text id="SvgjsText1026" font-family="&quot;Comic Sans MS&quot;" text-anchor="start" font-size="13px" width="93px" fill="#ffffff" font-weight="700" align="middle" lineHeight="125%" anchor="start" family="&quot;Comic Sans MS&quot;" size="13px" weight="700" font-style="" opacity="1" y="49.375" transform="rotate(0)"><tspan id="SvgjsTspan1027" dy="16.25" x="27"><tspan id="SvgjsTspan1028" style="">等待数据</tspan></tspan></text></g></g><g id="SvgjsG1029" transform="translate(521.5675675675676,203)"><path id="SvgjsPath1030" d="M 0 120Q 9 120 9 111L 9 69Q 9 60 22 60Q 9 60 9 51L 9 9Q 9 0 0 0" stroke="rgba(255,255,255,1)" stroke-width="2" fill="none"></path><path id="SvgjsPath1031" d="M 0 0L 120 0L 120 120L 0 120Z" stroke="none" fill="none"></path><g id="SvgjsG1032"><text id="SvgjsText1033" font-family="&quot;Comic Sans MS&quot;" text-anchor="start" font-size="13px" width="93px" fill="#ffffff" font-weight="700" align="middle" lineHeight="125%" anchor="start" family="&quot;Comic Sans MS&quot;" size="13px" weight="700" font-style="" opacity="1" y="40.875" transform="rotate(0)"><tspan id="SvgjsTspan1034" dy="16.25" x="27"><tspan id="SvgjsTspan1035" style="">将数据从内核复</tspan></tspan><tspan id="SvgjsTspan1036" dy="16.25" x="27"><tspan id="SvgjsTspan1037" style="">制到用户空间</tspan></tspan></text></g></g><g id="SvgjsG1038" transform="translate(184.56756756756758,66)"><path id="SvgjsPath1039" d="M 0 0L 67 0L 67 20L 0 20Z" stroke="none" fill="none"></path><g id="SvgjsG1040"><text id="SvgjsText1041" font-family="&quot;Comic Sans MS&quot;" text-anchor="middle" font-size="13px" width="67px" fill="#ffffff" font-weight="700" align="middle" lineHeight="125%" anchor="middle" family="&quot;Comic Sans MS&quot;" size="13px" weight="700" font-style="" opacity="1" y="-0.625" transform="rotate(0)"><tspan id="SvgjsTspan1042" dy="16.25" x="33.5"><tspan id="SvgjsTspan1043" style="">recvfrom</tspan></tspan></text></g></g><g id="SvgjsG1044"><path id="SvgjsPath1045" d="M252.31756756756758 76L336.5675675675676 76L336.5675675675676 76L418.2175675675676 76" stroke="#ffffff" stroke-width="2" fill="none" marker-end="url(#SvgjsMarker1046)"></path></g><g id="SvgjsG1048" transform="translate(421.5675675675676,66)"><path id="SvgjsPath1049" d="M 0 0L 100 0L 100 20L 0 20Z" stroke="none" fill="none"></path><g id="SvgjsG1050"><text id="SvgjsText1051" font-family="&quot;Comic Sans MS&quot;" text-anchor="middle" font-size="13px" width="100px" fill="#ffffff" font-weight="400" align="middle" lineHeight="125%" anchor="middle" family="&quot;Comic Sans MS&quot;" size="13px" weight="400" font-style="" opacity="1" y="-0.625" transform="rotate(0)"><tspan id="SvgjsTspan1052" dy="16.25" x="50"><tspan id="SvgjsTspan1053" style="">无数据报准备好</tspan></tspan></text></g></g><g id="SvgjsG1054" transform="translate(169.56756756756758,25)"><path id="SvgjsPath1055" d="M 0 0L 100 0L 100 40L 0 40Z" stroke="none" fill="none"></path><g id="SvgjsG1056"><text id="SvgjsText1057" font-family="&quot;Comic Sans MS&quot;" text-anchor="middle" font-size="15px" width="100px" fill="#323232" font-weight="400" align="middle" lineHeight="125%" anchor="middle" family="&quot;Comic Sans MS&quot;" size="15px" weight="400" font-style="" opacity="1" y="7.625" transform="rotate(0)"><tspan id="SvgjsTspan1058" dy="18.75" x="50"><tspan id="SvgjsTspan1059" style="font-weight: bold;fill: rgb(255, 255, 255);">Application</tspan></tspan></text></g></g><g id="SvgjsG1060" transform="translate(426.5675675675676,25)"><path id="SvgjsPath1061" d="M 0 0L 100 0L 100 40L 0 40Z" stroke="none" fill="none"></path><g id="SvgjsG1062"><text id="SvgjsText1063" font-family="&quot;Comic Sans MS&quot;" text-anchor="middle" font-size="15px" width="100px" fill="#323232" font-weight="400" align="middle" lineHeight="125%" anchor="middle" family="&quot;Comic Sans MS&quot;" size="15px" weight="400" font-style="" opacity="1" y="7.625" transform="rotate(0)"><tspan id="SvgjsTspan1064" dy="18.75" x="50"><tspan id="SvgjsTspan1065" style="font-weight: bold;fill: rgb(255, 255, 255);">kernel</tspan></tspan></text></g></g><g id="SvgjsG1066" transform="translate(189.56756756756758,293)"><path id="SvgjsPath1067" d="M 0 0L 67 0L 67 40L 0 40Z" stroke="none" fill="none"></path><g id="SvgjsG1068"><text id="SvgjsText1069" font-family="&quot;Comic Sans MS&quot;" text-anchor="middle" font-size="13px" width="67px" fill="#ffffff" font-weight="700" align="middle" lineHeight="125%" anchor="middle" family="&quot;Comic Sans MS&quot;" size="13px" weight="700" font-style="" opacity="1" y="9.375" transform="rotate(0)"><tspan id="SvgjsTspan1070" dy="16.25" x="33.5"><tspan id="SvgjsTspan1071" style="">处理数据报</tspan></tspan></text></g></g><g id="SvgjsG1072" transform="translate(426.5675675675676,303)"><path id="SvgjsPath1073" d="M 0 0L 90 0L 90 20L 0 20Z" stroke="none" fill="none"></path><g id="SvgjsG1074"><text id="SvgjsText1075" font-family="&quot;Comic Sans MS&quot;" text-anchor="middle" font-size="13px" width="90px" fill="#ffffff" font-weight="700" align="middle" lineHeight="125%" anchor="middle" family="&quot;Comic Sans MS&quot;" size="13px" weight="700" font-style="" opacity="1" y="-0.625" transform="rotate(0)"><tspan id="SvgjsTspan1076" dy="16.25" x="45"><tspan id="SvgjsTspan1077" style="">复制完成</tspan></tspan></text></g></g><g id="SvgjsG1078"><path id="SvgjsPath1079" d="M425.8175675675676 313L341.5675675675676 313L341.5675675675676 313L259.91756756756763 313" stroke-dasharray="8,5" stroke="#ffffff" stroke-width="2" fill="none" marker-end="url(#SvgjsMarker1080)"></path></g><g id="SvgjsG1082"><path id="SvgjsPath1083" d="M471.5675675675676 86.75L471.5675675675676 168.64999999999998" stroke="#ffffff" stroke-width="2" fill="none" marker-end="url(#SvgjsMarker1084)"></path></g><g id="SvgjsG1086" transform="translate(421.5675675675676,172)"><path id="SvgjsPath1087" d="M 0 0L 100 0L 100 21L 0 21Z" stroke="none" fill="none"></path><g id="SvgjsG1088"><text id="SvgjsText1089" font-family="&quot;Comic Sans MS&quot;" text-anchor="middle" font-size="13px" width="100px" fill="#323232" font-weight="400" align="middle" lineHeight="125%" anchor="middle" family="&quot;Comic Sans MS&quot;" size="13px" weight="400" font-style="" opacity="1" y="-0.125" transform="rotate(0)"><tspan id="SvgjsTspan1090" dy="16.25" x="50"><tspan id="SvgjsTspan1091" style="font-weight: bold;fill: rgb(255, 255, 255);">数据报准备好</tspan></tspan></text></g></g><g id="SvgjsG1092" transform="translate(282.5675675675676,53)"><path id="SvgjsPath1093" d="M 0 0L 100 0L 100 20L 0 20Z" stroke="none" fill="none"></path><g id="SvgjsG1094"><text id="SvgjsText1095" font-family="&quot;Comic Sans MS&quot;" text-anchor="middle" font-size="13px" width="100px" fill="#ffffff" font-weight="700" align="middle" lineHeight="125%" anchor="middle" family="&quot;Comic Sans MS&quot;" size="13px" weight="700" font-style="" opacity="1" y="-0.625" transform="rotate(0)"><tspan id="SvgjsTspan1096" dy="16.25" x="50"><tspan id="SvgjsTspan1097" style="">系统调用</tspan></tspan></text></g></g><g id="SvgjsG1098" transform="translate(291.5675675675676,283)"><path id="SvgjsPath1099" d="M 0 0L 100 0L 100 40L 0 40Z" stroke="none" fill="none"></path><g id="SvgjsG1100"><text id="SvgjsText1101" font-family="&quot;Comic Sans MS&quot;" text-anchor="middle" font-size="13px" width="100px" fill="#ffffff" font-weight="700" align="middle" lineHeight="125%" anchor="middle" family="&quot;Comic Sans MS&quot;" size="13px" weight="700" font-style="" opacity="1" y="9.375" transform="rotate(0)"><tspan id="SvgjsTspan1102" dy="16.25" x="50"><tspan id="SvgjsTspan1103" style="">返回成功指示</tspan></tspan></text></g></g><g id="SvgjsG1104" transform="translate(612.5675675675676,97.5)"><path id="SvgjsPath1105" d="M 0 0L 100 0L 100 65L 0 65Z" stroke="none" fill="none"></path><g id="SvgjsG1106"><text id="SvgjsText1107" font-family="&quot;Comic Sans MS&quot;" text-anchor="start" font-size="13px" width="100px" fill="#323232" font-weight="400" align="middle" lineHeight="125%" anchor="start" family="&quot;Comic Sans MS&quot;" size="13px" weight="400" font-style="" opacity="1" y="-2.625" transform="rotate(0)"><tspan id="SvgjsTspan1108" dy="16.25" x="0"><tspan id="SvgjsTspan1109" style="font-weight: bold;fill: rgb(149, 218, 105);">select调用阻塞</tspan></tspan><tspan id="SvgjsTspan1110" dy="16.25" x="0"><tspan id="SvgjsTspan1111" style="font-weight: bold;fill: rgb(149, 218, 105);">于多个文件描述</tspan></tspan><tspan id="SvgjsTspan1112" dy="16.25" x="0"><tspan id="SvgjsTspan1113" style="font-weight: bold;fill: rgb(149, 218, 105);">符上，等待有数</tspan></tspan><tspan id="SvgjsTspan1114" dy="16.25" x="0"><tspan id="SvgjsTspan1115" style="font-weight: bold;fill: rgb(149, 218, 105);">据报准备好</tspan></tspan></text></g></g><g id="SvgjsG1116" transform="translate(263.8175675675676,328)"><path id="SvgjsPath1117" d="M 0 0L 162.75 0L 162.75 50L 0 50Z" stroke="none" fill="none"></path><g id="SvgjsG1118"><text id="SvgjsText1119" font-family="&quot;Comic Sans MS&quot;" text-anchor="middle" font-size="20px" width="163px" fill="#323232" font-weight="400" align="middle" lineHeight="125%" anchor="middle" family="&quot;Comic Sans MS&quot;" size="20px" weight="400" font-style="" opacity="1" y="7" transform="rotate(0)"><tspan id="SvgjsTspan1120" dy="25" x="81.5"><tspan id="SvgjsTspan1121" style="font-weight: bold;fill: rgb(255, 255, 255);">I/O多路复用模型</tspan></tspan></text></g></g><g id="SvgjsG1122" transform="translate(25,199)"><path id="SvgjsPath1123" d="M 159.56756756756758 0Q 150.56756756756758 0 150.56756756756758 9L 150.56756756756758 51Q 150.56756756756758 60 137.56756756756758 60Q 150.56756756756758 60 150.56756756756758 69L 150.56756756756758 111Q 150.56756756756758 120 159.56756756756758 120" stroke="rgba(255,255,255,1)" stroke-width="2" fill="none"></path><path id="SvgjsPath1124" d="M 0 0L 159.56756756756758 0L 159.56756756756758 120L 0 120Z" stroke="none" fill="none"></path><g id="SvgjsG1125"><text id="SvgjsText1126" font-family="&quot;Comic Sans MS&quot;" text-anchor="start" font-size="13px" width="133px" fill="#ffffff" font-weight="700" align="middle" lineHeight="125%" anchor="start" family="&quot;Comic Sans MS&quot;" size="13px" weight="700" font-style="" opacity="1" y="40.875" transform="rotate(0)"><tspan id="SvgjsTspan1127" dy="16.25" x="0"><tspan id="SvgjsTspan1128" style="">数据复制到应用缓冲区</tspan></tspan><tspan id="SvgjsTspan1129" dy="16.25" x="0"><tspan id="SvgjsTspan1130" style="">期间进程阻塞</tspan></tspan></text></g></g><g id="SvgjsG1131" transform="translate(421.5675675675676,201)"><path id="SvgjsPath1132" d="M 0 0L 100 0L 100 21L 0 21Z" stroke="none" fill="none"></path><g id="SvgjsG1133"><text id="SvgjsText1134" font-family="&quot;Comic Sans MS&quot;" text-anchor="middle" font-size="13px" width="100px" fill="#323232" font-weight="400" align="middle" lineHeight="125%" anchor="middle" family="&quot;Comic Sans MS&quot;" size="13px" weight="400" font-style="" opacity="1" y="-0.125" transform="rotate(0)"><tspan id="SvgjsTspan1135" dy="16.25" x="50"><tspan id="SvgjsTspan1136" style="font-weight: bold;fill: rgb(255, 255, 255);">复制数据报</tspan></tspan></text></g></g><g id="SvgjsG1137"><path id="SvgjsPath1138" d="M471.5675675675676 222.75L471.5675675675676 262.5L471.5675675675676 262.5L471.5675675675676 299.65" stroke="#ffffff" stroke-width="2" fill="none" marker-end="url(#SvgjsMarker1139)"></path></g><g id="SvgjsG1141"><path id="SvgjsPath1142" d="M420.8175675675676 182.5L336.5675675675676 182.5L336.5675675675676 182.5L251.56756756756758 182.5" stroke-dasharray="8,5" stroke="#ffffff" stroke-width="2" fill="none" marker-end="url(#SvgjsMarker1143)"></path></g><g id="SvgjsG1145"><path id="SvgjsPath1146" d="M418.2175675675676 211.5L336.5675675675676 211.5L336.5675675675676 210.75L252.31756756756758 210.75" stroke="#ffffff" stroke-width="2" fill="none" marker-start="url(#SvgjsMarker1147)"></path></g><g id="SvgjsG1149" transform="translate(194.56756756756758,201.5)"><path id="SvgjsPath1150" d="M 0 0L 57 0L 57 20L 0 20Z" stroke="none" fill="none"></path><g id="SvgjsG1151"><text id="SvgjsText1152" font-family="&quot;Comic Sans MS&quot;" text-anchor="middle" font-size="13px" width="57px" fill="#ffffff" font-weight="700" align="middle" lineHeight="125%" anchor="middle" family="&quot;Comic Sans MS&quot;" size="13px" weight="700" font-style="" opacity="1" y="-0.625" transform="rotate(0)"><tspan id="SvgjsTspan1153" dy="16.25" x="28.5"><tspan id="SvgjsTspan1154" style="">recvfrom</tspan></tspan></text></g></g><g id="SvgjsG1155" transform="translate(282.5675675675676,152.5)"><path id="SvgjsPath1156" d="M 0 0L 100 0L 100 40L 0 40Z" stroke="none" fill="none"></path><g id="SvgjsG1157"><text id="SvgjsText1158" font-family="&quot;Comic Sans MS&quot;" text-anchor="middle" font-size="13px" width="100px" fill="#ffffff" font-weight="700" align="middle" lineHeight="125%" anchor="middle" family="&quot;Comic Sans MS&quot;" size="13px" weight="700" font-style="" opacity="1" y="9.375" transform="rotate(0)"><tspan id="SvgjsTspan1159" dy="16.25" x="50"><tspan id="SvgjsTspan1160" style="">返回可读条件</tspan></tspan></text></g></g></svg>