<svg id="SvgjsSvg1472" width="673" height="295" xmlns="http://www.w3.org/2000/svg" version="1.1" xmlns:xlink="http://www.w3.org/1999/xlink" xmlns:svgjs="http://svgjs.com/svgjs"><defs id="SvgjsDefs1473"><pattern patternUnits="userSpaceOnUse" id="pattern_mark_0" width="300" height="300"><text x="150" y="100" fill="rgba(229,229,229,0.8)" font-size="18" transform="rotate(-45, 150, 150)" style="dominant-baseline: middle; text-anchor: middle;"></text></pattern><pattern patternUnits="userSpaceOnUse" id="pattern_mark_1" width="300" height="300"><text x="150" y="200" fill="rgba(229,229,229,0.8)" font-size="18" transform="rotate(-45, 150, 150)" style="dominant-baseline: middle; text-anchor: middle;"></text></pattern><marker id="SvgjsMarker1509" markerWidth="13" markerHeight="9" refX="9.5" refY="4.5" viewBox="0 0 13 9" orient="auto" markerUnits="userSpaceOnUse" stroke-dasharray="0,0"><path id="SvgjsPath1510" d="M0,0 L13,4.5 L0,9 L0,0" fill="#323232" stroke="#323232" stroke-width="1"></path></marker><marker id="SvgjsMarker1513" markerWidth="13" markerHeight="9" refX="9.5" refY="4.5" viewBox="0 0 13 9" orient="auto" markerUnits="userSpaceOnUse" stroke-dasharray="0,0"><path id="SvgjsPath1514" d="M0,0 L13,4.5 L0,9 L0,0" fill="#323232" stroke="#323232" stroke-width="1"></path></marker><marker id="SvgjsMarker1517" markerWidth="13" markerHeight="9" refX="9.5" refY="4.5" viewBox="0 0 13 9" orient="auto" markerUnits="userSpaceOnUse" stroke-dasharray="0,0"><path id="SvgjsPath1518" d="M0,0 L13,4.5 L0,9 L0,0" fill="#323232" stroke="#323232" stroke-width="1"></path></marker><marker id="SvgjsMarker1521" markerWidth="13" markerHeight="9" refX="9.5" refY="4.5" viewBox="0 0 13 9" orient="auto" markerUnits="userSpaceOnUse" stroke-dasharray="0,0"><path id="SvgjsPath1522" d="M0,0 L13,4.5 L0,9 L0,0" fill="#323232" stroke="#323232" stroke-width="1"></path></marker></defs><rect id="svgbackgroundid" width="673" height="295" fill="transparent"></rect><rect id="SvgjsRect1475" width="673" height="295" fill="url(#pattern_mark_0)"></rect><rect id="SvgjsRect1476" width="673" height="295" fill="url(#pattern_mark_1)"></rect><g id="SvgjsG1477" transform="translate(45,25)"><path id="SvgjsPath1478" d="M 0 4Q 0 0 4 0L 41 0Q 45 0 45 4L 45 21Q 45 25 41 25L 4 25Q 0 25 0 21Z" stroke="rgba(33,41,48,1)" stroke-width="1.5" fill-opacity="1" fill="#95dffc"></path><g id="SvgjsG1479"><text id="SvgjsText1480" font-family="&quot;Microsoft YaHei&quot;, 微软雅黑, Arial" text-anchor="middle" font-size="13px" width="25px" fill="#323232" font-weight="400" align="middle" lineHeight="125%" anchor="middle" family="&quot;Microsoft YaHei&quot;, 微软雅黑, Arial" size="13px" weight="400" font-style="" opacity="1" y="1.875" transform="rotate(0)"><tspan id="SvgjsTspan1481" dy="16.25" x="22.5"><tspan id="SvgjsTspan1482" style="">A</tspan></tspan></text></g></g><g id="SvgjsG1483" transform="translate(150,25)"><path id="SvgjsPath1484" d="M 0 4Q 0 0 4 0L 41 0Q 45 0 45 4L 45 21Q 45 25 41 25L 4 25Q 0 25 0 21Z" stroke="rgba(33,41,48,1)" stroke-width="1.5" fill-opacity="1" fill="#95dffc"></path><g id="SvgjsG1485"><text id="SvgjsText1486" font-family="&quot;Microsoft YaHei&quot;, 微软雅黑, Arial" text-anchor="middle" font-size="13px" width="25px" fill="#323232" font-weight="400" align="middle" lineHeight="125%" anchor="middle" family="&quot;Microsoft YaHei&quot;, 微软雅黑, Arial" size="13px" weight="400" font-style="" opacity="1" y="1.875" transform="rotate(0)"><tspan id="SvgjsTspan1487" dy="16.25" x="22.5"><tspan id="SvgjsTspan1488" style="">B</tspan></tspan></text></g></g><g id="SvgjsG1489" transform="translate(255,25)"><path id="SvgjsPath1490" d="M 0 4Q 0 0 4 0L 41 0Q 45 0 45 4L 45 21Q 45 25 41 25L 4 25Q 0 25 0 21Z" stroke="rgba(33,41,48,1)" stroke-width="1.5" fill-opacity="1" fill="#95dffc"></path><g id="SvgjsG1491"><text id="SvgjsText1492" font-family="&quot;Microsoft YaHei&quot;, 微软雅黑, Arial" text-anchor="middle" font-size="13px" width="25px" fill="#323232" font-weight="400" align="middle" lineHeight="125%" anchor="middle" family="&quot;Microsoft YaHei&quot;, 微软雅黑, Arial" size="13px" weight="400" font-style="" opacity="1" y="1.875" transform="rotate(0)"><tspan id="SvgjsTspan1493" dy="16.25" x="22.5"><tspan id="SvgjsTspan1494" style="">C</tspan></tspan></text></g></g><g id="SvgjsG1495" transform="translate(127.5,120)"><path id="SvgjsPath1496" d="M 0 0L 90 0L 90 45L 0 45Z" stroke="rgba(33,41,48,1)" stroke-width="1.5" fill-opacity="1" fill="#f2947c"></path><g id="SvgjsG1497"><text id="SvgjsText1498" font-family="&quot;Microsoft YaHei&quot;, 微软雅黑, Arial" text-anchor="middle" font-size="13px" width="70px" fill="#323232" font-weight="400" align="middle" lineHeight="125%" anchor="middle" family="&quot;Microsoft YaHei&quot;, 微软雅黑, Arial" size="13px" weight="400" font-style="" opacity="1" y="11.875" transform="rotate(0)"><tspan id="SvgjsTspan1499" dy="16.25" x="45"><tspan id="SvgjsTspan1500" style="">X</tspan></tspan></text></g></g><g id="SvgjsG1501" transform="translate(357.5,120)"><path id="SvgjsPath1502" d="M 0 0L 90 0L 90 45L 0 45Z" stroke="rgba(33,41,48,1)" stroke-width="1.5" fill-opacity="1" fill="#5db1ff"></path><g id="SvgjsG1503"><text id="SvgjsText1504" font-family="&quot;Microsoft YaHei&quot;, 微软雅黑, Arial" text-anchor="middle" font-size="13px" width="70px" fill="#323232" font-weight="400" align="middle" lineHeight="125%" anchor="middle" family="&quot;Microsoft YaHei&quot;, 微软雅黑, Arial" size="13px" weight="400" font-style="" opacity="1" y="11.875" transform="rotate(0)"><tspan id="SvgjsTspan1505" dy="16.25" x="45"><tspan id="SvgjsTspan1506" style="">Y</tspan></tspan></text></g></g><g id="SvgjsG1507"><path id="SvgjsPath1508" d="M218.25 142.5L287.5 142.5L287.5 142.5L354.79999999999995 142.5" stroke="#323232" stroke-width="1.5" fill="none" marker-end="url(#SvgjsMarker1509)"></path></g><g id="SvgjsG1511"><path id="SvgjsPath1512" d="M172.5 119.25L172.5 85L172.5 85L172.5 52.69999999999999" stroke="#323232" stroke-width="1.5" fill="none" marker-end="url(#SvgjsMarker1513)"></path></g><g id="SvgjsG1515"><path id="SvgjsPath1516" d="M172.6585917167085 119.26695930031718C 172.5 69.52228214350416 277.5 100.47771785649587 276.9290698198494 52.63894651885809" stroke="#323232" stroke-width="1.5" fill="none" marker-end="url(#SvgjsMarker1517)"></path></g><g id="SvgjsG1519"><path id="SvgjsPath1520" d="M172.3414082832915 119.26695930031718C 172.5 69.52228214350416 67.5 100.47771785649587 68.07093018015058 52.63894651885809" stroke="#323232" stroke-width="1.5" fill="none" marker-end="url(#SvgjsMarker1521)"></path></g><g id="SvgjsG1523" transform="translate(45,210)"><path id="SvgjsPath1524" d="M 0 0L 290 0L 290 20L 0 20Z" stroke="rgba(33,41,48,1)" stroke-width="1.5" fill-opacity="1" fill="#f6c5a4"></path><g id="SvgjsG1525"><text id="SvgjsText1526" font-family="&quot;Microsoft YaHei&quot;, 微软雅黑, Arial" text-anchor="middle" font-size="13px" width="270px" fill="#323232" font-weight="400" align="middle" lineHeight="125%" anchor="middle" family="&quot;Microsoft YaHei&quot;, 微软雅黑, Arial" size="13px" weight="400" font-style="" opacity="1" y="-0.625" transform="rotate(0)"><tspan id="SvgjsTspan1527" dy="16.25" x="145"><tspan id="SvgjsTspan1528" style="">X-生命周期</tspan></tspan></text></g></g><g id="SvgjsG1529" transform="translate(45,250)"><path id="SvgjsPath1530" d="M 0 0L 179 0L 179 20L 0 20Z" stroke="rgba(33,41,48,1)" stroke-width="1.5" fill-opacity="1" fill="#f6c5a4"></path><g id="SvgjsG1531"><text id="SvgjsText1532" font-family="&quot;Microsoft YaHei&quot;, 微软雅黑, Arial" text-anchor="middle" font-size="13px" width="159px" fill="#323232" font-weight="400" align="middle" lineHeight="125%" anchor="middle" family="&quot;Microsoft YaHei&quot;, 微软雅黑, Arial" size="13px" weight="400" font-style="" opacity="1" y="-0.625" transform="rotate(0)"><tspan id="SvgjsTspan1533" dy="16.25" x="89.5"><tspan id="SvgjsTspan1534" style="">Y-生命周期</tspan></tspan></text></g></g><g id="SvgjsG1535" transform="translate(340,210)"><path id="SvgjsPath1536" d="M 0 60Q 9 60 9 54L 9 36Q 9 30 22 30Q 9 30 9 24L 9 6Q 9 0 0 0" stroke="rgba(33,41,48,1)" stroke-width="1.5" fill="none"></path><path id="SvgjsPath1537" d="M 0 0L 308 0L 308 60L 0 60Z" stroke="none" fill="none"></path><g id="SvgjsG1538"><text id="SvgjsText1539" font-family="&quot;Microsoft YaHei&quot;, 微软雅黑, Arial" text-anchor="start" font-size="13px" width="281px" fill="#323232" font-weight="400" align="middle" lineHeight="125%" anchor="start" family="&quot;Microsoft YaHei&quot;, 微软雅黑, Arial" size="13px" weight="400" font-style="" opacity="1" y="2.875" transform="rotate(0)"><tspan id="SvgjsTspan1540" dy="16.25" x="27"><tspan id="SvgjsTspan1541" style="">对象X引用对象Y</tspan></tspan><tspan id="SvgjsTspan1542" dy="16.25" x="27"><tspan id="SvgjsTspan1543" style="">X的生命周期长于Y的生命周期</tspan></tspan><tspan id="SvgjsTspan1544" dy="16.25" x="27"><tspan id="SvgjsTspan1545" style="">Y生命周期结束后，垃圾回收不会回收对象</tspan></tspan></text></g></g><g id="SvgjsG1546"></g></svg>