<svg id="SvgjsSvg1006" width="436" height="347" xmlns="http://www.w3.org/2000/svg" version="1.1" xmlns:xlink="http://www.w3.org/1999/xlink" xmlns:svgjs="http://svgjs.com/svgjs"><defs id="SvgjsDefs1007"><pattern patternUnits="userSpaceOnUse" id="pattern_mark_0" width="300" height="300"><text x="150" y="100" fill="rgba(229,229,229,0.8)" font-size="18" transform="rotate(-45, 150, 150)" style="dominant-baseline: middle; text-anchor: middle;"></text></pattern><pattern patternUnits="userSpaceOnUse" id="pattern_mark_1" width="300" height="300"><text x="150" y="200" fill="rgba(229,229,229,0.8)" font-size="18" transform="rotate(-45, 150, 150)" style="dominant-baseline: middle; text-anchor: middle;"></text></pattern><marker id="SvgjsMarker1087" markerWidth="13" markerHeight="9" refX="9.5" refY="4.5" viewBox="0 0 13 9" orient="auto" markerUnits="userSpaceOnUse" stroke-dasharray="0,0"><path id="SvgjsPath1088" d="M0,0 L13,4.5 L0,9 L0,0" fill="#323232" stroke="#323232" stroke-width="1"></path></marker><marker id="SvgjsMarker1091" markerWidth="13" markerHeight="9" refX="9.5" refY="4.5" viewBox="0 0 13 9" orient="auto" markerUnits="userSpaceOnUse" stroke-dasharray="0,0"><path id="SvgjsPath1092" d="M0,0 L13,4.5 L0,9 L0,0" fill="#323232" stroke="#323232" stroke-width="1"></path></marker><marker id="SvgjsMarker1095" markerWidth="13" markerHeight="9" refX="9.5" refY="4.5" viewBox="0 0 13 9" orient="auto" markerUnits="userSpaceOnUse" stroke-dasharray="0,0"><path id="SvgjsPath1096" d="M0,0 L13,4.5 L0,9 L0,0" fill="#323232" stroke="#323232" stroke-width="1"></path></marker></defs><rect id="svgbackgroundid" width="436" height="347" fill="transparent"></rect><rect id="SvgjsRect1009" width="436" height="347" fill="url(#pattern_mark_0)"></rect><rect id="SvgjsRect1010" width="436" height="347" fill="url(#pattern_mark_1)"></rect><g id="SvgjsG1011" transform="translate(25,34.5)"><path id="SvgjsPath1012" d="M 0 4Q 0 0 4 0L 382 0Q 386 0 386 4L 386 127Q 386 131 382 131L 4 131Q 0 131 0 127Z" stroke="rgba(33,41,48,1)" stroke-width="1.5" fill-opacity="1" fill="#dfdfdf"></path><g id="SvgjsG1013"><text id="SvgjsText1014" font-family="&quot;Comic Sans MS&quot;" text-anchor="middle" font-size="15px" width="366px" fill="#323232" font-weight="700" align="middle" lineHeight="125%" anchor="middle" family="&quot;Comic Sans MS&quot;" size="15px" weight="700" font-style="" opacity="1" y="-12.375" transform="rotate(0)"><tspan id="SvgjsTspan1015" dy="18.75" x="193"><tspan id="SvgjsTspan1016" style=""> </tspan></tspan><tspan id="SvgjsTspan1017" dy="18.75" x="193"><tspan id="SvgjsTspan1018" style="">memory</tspan></tspan><tspan id="SvgjsTspan1019" dy="18.75" x="193"><tspan id="SvgjsTspan1020" style=""> </tspan></tspan><tspan id="SvgjsTspan1021" dy="18.75" x="193"><tspan id="SvgjsTspan1022" style=""> </tspan></tspan><tspan id="SvgjsTspan1023" dy="18.75" x="193"><tspan id="SvgjsTspan1024" style=""> </tspan></tspan><tspan id="SvgjsTspan1025" dy="18.75" x="193"><tspan id="SvgjsTspan1026" style=""> </tspan></tspan><tspan id="SvgjsTspan1027" dy="18.75" x="193"><tspan id="SvgjsTspan1028" style=""> </tspan></tspan><tspan id="SvgjsTspan1029" dy="18.75" x="193"><tspan id="SvgjsTspan1030" style=""> </tspan></tspan></text></g></g><g id="SvgjsG1031" transform="translate(48,81.5)"><path id="SvgjsPath1032" d="M 23.333333333333332 0L 100 0L 76.66666666666667 70L 0 70L 23.333333333333332 0Z" stroke="rgba(33,41,48,1)" stroke-width="1.5" fill-opacity="1" fill="#ffffff"></path><g id="SvgjsG1033"><text id="SvgjsText1034" font-family="&quot;Comic Sans MS&quot;" text-anchor="middle" font-size="15px" width="70px" fill="#323232" font-weight="700" align="middle" lineHeight="125%" anchor="middle" family="&quot;Comic Sans MS&quot;" size="15px" weight="700" font-style="" opacity="1" y="22.625" transform="rotate(0)"><tspan id="SvgjsTspan1035" dy="18.75" x="50"><tspan id="SvgjsTspan1036" style="">data</tspan></tspan></text></g></g><g id="SvgjsG1037" transform="translate(168,81.5)"><path id="SvgjsPath1038" d="M 23.333333333333332 0L 100 0L 76.66666666666667 70L 0 70L 23.333333333333332 0Z" stroke="rgba(33,41,48,1)" stroke-width="1.5" fill-opacity="1" fill="#ffffff"></path><g id="SvgjsG1039"><text id="SvgjsText1040" font-family="&quot;Comic Sans MS&quot;" text-anchor="middle" font-size="15px" width="70px" fill="#323232" font-weight="700" align="middle" lineHeight="125%" anchor="middle" family="&quot;Comic Sans MS&quot;" size="15px" weight="700" font-style="" opacity="1" y="22.625" transform="rotate(0)"><tspan id="SvgjsTspan1041" dy="18.75" x="50"><tspan id="SvgjsTspan1042" style="">data</tspan></tspan></text></g></g><g id="SvgjsG1043" transform="translate(288,81.5)"><path id="SvgjsPath1044" d="M 23.333333333333332 0L 100 0L 76.66666666666667 70L 0 70L 23.333333333333332 0Z" stroke="rgba(33,41,48,1)" stroke-width="1.5" fill-opacity="1" fill="#ffffff"></path><g id="SvgjsG1045"><text id="SvgjsText1046" font-family="&quot;Comic Sans MS&quot;" text-anchor="middle" font-size="15px" width="70px" fill="#323232" font-weight="700" align="middle" lineHeight="125%" anchor="middle" family="&quot;Comic Sans MS&quot;" size="15px" weight="700" font-style="" opacity="1" y="22.625" transform="rotate(0)"><tspan id="SvgjsTspan1047" dy="18.75" x="50"><tspan id="SvgjsTspan1048" style="">data</tspan></tspan></text></g></g><g id="SvgjsG1049" transform="translate(25,205.5)"><path id="SvgjsPath1050" d="M 0 4Q 0 0 4 0L 382 0Q 386 0 386 4L 386 98Q 386 102 382 102L 4 102Q 0 102 0 98Z" stroke="rgba(33,41,48,1)" stroke-width="1.5" fill-opacity="1" fill="#93b3f8"></path><g id="SvgjsG1051"><text id="SvgjsText1052" font-family="&quot;Comic Sans MS&quot;" text-anchor="middle" font-size="15px" width="366px" fill="#323232" font-weight="700" align="middle" lineHeight="125%" anchor="middle" family="&quot;Comic Sans MS&quot;" size="15px" weight="700" font-style="" opacity="1" y="-17.375" transform="rotate(0)"><tspan id="SvgjsTspan1053" dy="18.75" x="193"><tspan id="SvgjsTspan1054" style=""> </tspan></tspan><tspan id="SvgjsTspan1055" dy="18.75" x="193"><tspan id="SvgjsTspan1056" style="">storage media</tspan></tspan><tspan id="SvgjsTspan1057" dy="18.75" x="193"><tspan id="SvgjsTspan1058" style=""> </tspan></tspan><tspan id="SvgjsTspan1059" dy="18.75" x="193"><tspan id="SvgjsTspan1060" style=""> </tspan></tspan><tspan id="SvgjsTspan1061" dy="18.75" x="193"><tspan id="SvgjsTspan1062" style=""> </tspan></tspan><tspan id="SvgjsTspan1063" dy="18.75" x="193"><tspan id="SvgjsTspan1064" style=""> </tspan></tspan><tspan id="SvgjsTspan1065" dy="18.75" x="193"><tspan id="SvgjsTspan1066" style=""> </tspan></tspan></text></g></g><g id="SvgjsG1067" transform="translate(76.5,248.5)"><path id="SvgjsPath1068" d="M 12.15 0L 73.41666666666667 0C 83.06818181818181 0 83.06818181818181 45.5 73.41666666666667 45.5L 12.15 45.5C -4.05 45.5 -4.05 0 12.15 0ZM 73.41666666666667 0C 63.9375 0 63.9375 45.5 73.41666666666667 45.5C 63.9375 45.5 63.9375 0 73.41666666666667 0" stroke="rgba(33,41,48,1)" stroke-width="1.5" fill-opacity="1" fill="#9d9d9d"></path><g id="SvgjsG1069"><text id="SvgjsText1070" font-family="&quot;Comic Sans MS&quot;" text-anchor="middle" font-size="15px" width="65px" fill="#323232" font-weight="700" align="middle" lineHeight="125%" anchor="middle" family="&quot;Comic Sans MS&quot;" size="15px" weight="700" font-style="" opacity="1" y="10.375" transform="rotate(0)"><tspan id="SvgjsTspan1071" dy="18.75" x="32.5"><tspan id="SvgjsTspan1072" style="">file</tspan></tspan></text></g></g><g id="SvgjsG1073" transform="translate(177.5,248.5)"><path id="SvgjsPath1074" d="M 12.15 0L 73.41666666666667 0C 83.06818181818181 0 83.06818181818181 45.5 73.41666666666667 45.5L 12.15 45.5C -4.05 45.5 -4.05 0 12.15 0ZM 73.41666666666667 0C 63.9375 0 63.9375 45.5 73.41666666666667 45.5C 63.9375 45.5 63.9375 0 73.41666666666667 0" stroke="rgba(33,41,48,1)" stroke-width="1.5" fill-opacity="1" fill="#9d9d9d"></path><g id="SvgjsG1075"><text id="SvgjsText1076" font-family="&quot;Comic Sans MS&quot;" text-anchor="middle" font-size="15px" width="65px" fill="#323232" font-weight="700" align="middle" lineHeight="125%" anchor="middle" family="&quot;Comic Sans MS&quot;" size="15px" weight="700" font-style="" opacity="1" y="10.375" transform="rotate(0)"><tspan id="SvgjsTspan1077" dy="18.75" x="32.5"><tspan id="SvgjsTspan1078" style="">DB</tspan></tspan></text></g></g><g id="SvgjsG1079" transform="translate(278.5,248.5)"><path id="SvgjsPath1080" d="M 12.15 0L 73.41666666666667 0C 83.06818181818181 0 83.06818181818181 45.5 73.41666666666667 45.5L 12.15 45.5C -4.05 45.5 -4.05 0 12.15 0ZM 73.41666666666667 0C 63.9375 0 63.9375 45.5 73.41666666666667 45.5C 63.9375 45.5 63.9375 0 73.41666666666667 0" stroke="rgba(33,41,48,1)" stroke-width="1.5" fill-opacity="1" fill="#9d9d9d"></path><g id="SvgjsG1081"><text id="SvgjsText1082" font-family="&quot;Comic Sans MS&quot;" text-anchor="middle" font-size="15px" width="65px" fill="#323232" font-weight="700" align="middle" lineHeight="125%" anchor="middle" family="&quot;Comic Sans MS&quot;" size="15px" weight="700" font-style="" opacity="1" y="10.375" transform="rotate(0)"><tspan id="SvgjsTspan1083" dy="18.75" x="32.5"><tspan id="SvgjsTspan1084" style="">other</tspan></tspan></text></g></g><g id="SvgjsG1085"><path id="SvgjsPath1086" d="M98.68394112888132 151.8077735079966L215.5378119360272 204.39201537121224" stroke="#323232" stroke-width="1.5" fill="none" marker-end="url(#SvgjsMarker1087)"></path></g><g id="SvgjsG1089"><path id="SvgjsPath1090" d="M218 152.25L218 202.8" stroke="#323232" stroke-width="1.5" fill="none" marker-end="url(#SvgjsMarker1091)"></path></g><g id="SvgjsG1093"><path id="SvgjsPath1094" d="M337.3160588711187 151.8077735079966L220.4621880639728 204.39201537121224" stroke="#323232" stroke-width="1.5" fill="none" marker-end="url(#SvgjsMarker1095)"></path></g><g id="SvgjsG1097" transform="translate(249.5,176.5)"><path id="SvgjsPath1098" d="M 0 0L 127.5 0L 127.5 40L 0 40Z" stroke="none" fill="none"></path><g id="SvgjsG1099"><text id="SvgjsText1100" font-family="&quot;Comic Sans MS&quot;" text-anchor="middle" font-size="15px" width="128px" fill="#323232" font-weight="700" align="middle" lineHeight="125%" anchor="middle" family="&quot;Comic Sans MS&quot;" size="15px" weight="700" font-style="" opacity="1" y="7.625" transform="rotate(0)"><tspan id="SvgjsTspan1101" dy="18.75" x="64"><tspan id="SvgjsTspan1102" style="">data persistence</tspan></tspan></text></g></g></svg>