<svg id="SvgjsSvg1006" width="715" height="684" xmlns="http://www.w3.org/2000/svg" version="1.1" xmlns:xlink="http://www.w3.org/1999/xlink" xmlns:svgjs="http://svgjs.com/svgjs"><defs id="SvgjsDefs1007"><pattern patternUnits="userSpaceOnUse" id="pattern_mark_0" width="300" height="300"><text x="150" y="100" fill="rgba(229,229,229,0.8)" font-size="18" transform="rotate(-45, 150, 150)" style="dominant-baseline: middle; text-anchor: middle;"></text></pattern><pattern patternUnits="userSpaceOnUse" id="pattern_mark_1" width="300" height="300"><text x="150" y="200" fill="rgba(229,229,229,0.8)" font-size="18" transform="rotate(-45, 150, 150)" style="dominant-baseline: middle; text-anchor: middle;"></text></pattern><marker id="SvgjsMarker1093" markerWidth="13" markerHeight="9" refX="9.5" refY="4.5" viewBox="0 0 13 9" orient="auto" markerUnits="userSpaceOnUse" stroke-dasharray="0,0"><path id="SvgjsPath1094" d="M0,0 L13,4.5 L0,9 L0,0" fill="#323232" stroke="#323232" stroke-width="1"></path></marker><marker id="SvgjsMarker1097" markerWidth="13" markerHeight="9" refX="9.5" refY="4.5" viewBox="0 0 13 9" orient="auto" markerUnits="userSpaceOnUse" stroke-dasharray="0,0"><path id="SvgjsPath1098" d="M0,0 L13,4.5 L0,9 L0,0" fill="#323232" stroke="#323232" stroke-width="1"></path></marker><marker id="SvgjsMarker1101" markerWidth="13" markerHeight="9" refX="9.5" refY="4.5" viewBox="0 0 13 9" orient="auto" markerUnits="userSpaceOnUse" stroke-dasharray="0,0"><path id="SvgjsPath1102" d="M0,0 L13,4.5 L0,9 L0,0" fill="#323232" stroke="#323232" stroke-width="1"></path></marker><marker id="SvgjsMarker1105" markerWidth="13" markerHeight="9" refX="9.5" refY="4.5" viewBox="0 0 13 9" orient="auto" markerUnits="userSpaceOnUse" stroke-dasharray="0,0"><path id="SvgjsPath1106" d="M0,0 L13,4.5 L0,9 L0,0" fill="#a7932c" stroke="#a7932c" stroke-width="1"></path></marker><marker id="SvgjsMarker1113" markerWidth="13" markerHeight="9" refX="9.5" refY="4.5" viewBox="0 0 13 9" orient="auto" markerUnits="userSpaceOnUse" stroke-dasharray="0,0"><path id="SvgjsPath1114" d="M0,0 L13,4.5 L0,9 L0,0" fill="#a7932c" stroke="#a7932c" stroke-width="1"></path></marker><marker id="SvgjsMarker1121" markerWidth="13" markerHeight="9" refX="9.5" refY="4.5" viewBox="0 0 13 9" orient="auto" markerUnits="userSpaceOnUse" stroke-dasharray="0,0"><path id="SvgjsPath1122" d="M0,0 L13,4.5 L0,9 L0,0" fill="#323232" stroke="#323232" stroke-width="1"></path></marker><marker id="SvgjsMarker1211" markerWidth="13" markerHeight="9" refX="9.5" refY="4.5" viewBox="0 0 13 9" orient="auto" markerUnits="userSpaceOnUse" stroke-dasharray="0,0"><path id="SvgjsPath1212" d="M0,0 L13,4.5 L0,9 L0,0" fill="#323232" stroke="#323232" stroke-width="1"></path></marker><marker id="SvgjsMarker1219" markerWidth="13" markerHeight="9" refX="9.5" refY="4.5" viewBox="0 0 13 9" orient="auto" markerUnits="userSpaceOnUse" stroke-dasharray="0,0"><path id="SvgjsPath1220" d="M0,0 L13,4.5 L0,9 L0,0" fill="#323232" stroke="#323232" stroke-width="1"></path></marker><marker id="SvgjsMarker1223" markerWidth="13" markerHeight="9" refX="9.5" refY="4.5" viewBox="0 0 13 9" orient="auto" markerUnits="userSpaceOnUse" stroke-dasharray="0,0"><path id="SvgjsPath1224" d="M0,0 L13,4.5 L0,9 L0,0" fill="#a7932c" stroke="#a7932c" stroke-width="1"></path></marker><marker id="SvgjsMarker1231" markerWidth="13" markerHeight="9" refX="9.5" refY="4.5" viewBox="0 0 13 9" orient="auto" markerUnits="userSpaceOnUse" stroke-dasharray="0,0"><path id="SvgjsPath1232" d="M0,0 L13,4.5 L0,9 L0,0" fill="#323232" stroke="#323232" stroke-width="1"></path></marker><marker id="SvgjsMarker1239" markerWidth="13" markerHeight="9" refX="9.5" refY="4.5" viewBox="0 0 13 9" orient="auto" markerUnits="userSpaceOnUse" stroke-dasharray="0,0"><path id="SvgjsPath1240" d="M0,0 L13,4.5 L0,9 L0,0" fill="#323232" stroke="#323232" stroke-width="1"></path></marker><marker id="SvgjsMarker1243" markerWidth="13" markerHeight="9" refX="9.5" refY="4.5" viewBox="0 0 13 9" orient="auto" markerUnits="userSpaceOnUse" stroke-dasharray="0,0"><path id="SvgjsPath1244" d="M0,0 L13,4.5 L0,9 L0,0" fill="#a7932c" stroke="#a7932c" stroke-width="1"></path></marker></defs><rect id="svgbackgroundid" width="715" height="684" fill="transparent"></rect><rect id="SvgjsRect1009" width="715" height="684" fill="url(#pattern_mark_0)"></rect><rect id="SvgjsRect1010" width="715" height="684" fill="url(#pattern_mark_1)"></rect><g id="SvgjsG1011" transform="translate(25,25)"><path id="SvgjsPath1012" d="M 0 0L 665 0L 665 302L 0 302Z" stroke="rgba(33,41,48,1)" stroke-width="1.5" fill-opacity="1" fill="#ffffff"></path><g id="SvgjsG1013"><text id="SvgjsText1014" font-family="&quot;Microsoft YaHei&quot;, 微软雅黑, Arial" text-anchor="middle" font-size="13px" width="645px" fill="#323232" font-weight="700" align="bottom" lineHeight="125%" anchor="middle" family="&quot;Microsoft YaHei&quot;, 微软雅黑, Arial" size="13px" weight="700" font-style="" opacity="1" y="283.375" transform="rotate(0)"><tspan id="SvgjsTspan1015" dy="16.25" x="332.5"><tspan id="SvgjsTspan1016" style="">JDK6 代码图</tspan></tspan></text></g></g><g id="SvgjsG1017" transform="translate(528,39)"><path id="SvgjsPath1018" d="M 0 0L 140 0L 140 269L 0 269Z" stroke="rgba(33,41,48,1)" stroke-width="1.5" fill-opacity="1" fill="#ffffff"></path><g id="SvgjsG1019"><text id="SvgjsText1020" font-family="&quot;Microsoft YaHei&quot;, 微软雅黑, Arial" text-anchor="middle" font-size="13px" width="120px" fill="#323232" font-weight="400" align="top" lineHeight="125%" anchor="middle" family="&quot;Microsoft YaHei&quot;, 微软雅黑, Arial" size="13px" weight="400" font-style="" opacity="1" y="-2.625" transform="rotate(0)"><tspan id="SvgjsTspan1021" dy="16.25" x="70"><tspan id="SvgjsTspan1022" style="">Perm Space</tspan></tspan></text></g></g><g id="SvgjsG1023" transform="translate(52,49)"><path id="SvgjsPath1024" d="M 0 0L 90 0L 90 230L 0 230Z" stroke="rgba(33,41,48,1)" stroke-width="1.5" fill-opacity="1" fill="#ffffff"></path><g id="SvgjsG1025"><text id="SvgjsText1026" font-family="&quot;Microsoft YaHei&quot;, 微软雅黑, Arial" text-anchor="middle" font-size="13px" width="70px" fill="#323232" font-weight="400" align="middle" lineHeight="125%" anchor="middle" family="&quot;Microsoft YaHei&quot;, 微软雅黑, Arial" size="13px" weight="400" font-style="" opacity="1" y="104.375" transform="rotate(0)"><tspan id="SvgjsTspan1027" dy="16.25" x="45"><tspan id="SvgjsTspan1028" style="">栈</tspan></tspan></text></g></g><g id="SvgjsG1029" transform="translate(62,178)"><path id="SvgjsPath1030" d="M 0 4Q 0 0 4 0L 66 0Q 70 0 70 4L 70 36Q 70 40 66 40L 4 40Q 0 40 0 36Z" stroke="rgba(33,41,48,1)" stroke-width="1.5" fill-opacity="1" fill="#ffffff"></path><g id="SvgjsG1031"><text id="SvgjsText1032" font-family="&quot;Microsoft YaHei&quot;, 微软雅黑, Arial" text-anchor="middle" font-size="13px" width="50px" fill="#323232" font-weight="400" align="middle" lineHeight="125%" anchor="middle" family="&quot;Microsoft YaHei&quot;, 微软雅黑, Arial" size="13px" weight="400" font-style="" opacity="1" y="9.375" transform="rotate(0)"><tspan id="SvgjsTspan1033" dy="16.25" x="35"><tspan id="SvgjsTspan1034" style="">s2引用</tspan></tspan></text></g></g><g id="SvgjsG1035" transform="translate(62,108)"><path id="SvgjsPath1036" d="M 0 4Q 0 0 4 0L 66 0Q 70 0 70 4L 70 36Q 70 40 66 40L 4 40Q 0 40 0 36Z" stroke="rgba(33,41,48,1)" stroke-width="1.5" fill-opacity="1" fill="#ffffff"></path><g id="SvgjsG1037"><text id="SvgjsText1038" font-family="&quot;Microsoft YaHei&quot;, 微软雅黑, Arial" text-anchor="middle" font-size="13px" width="50px" fill="#323232" font-weight="400" align="middle" lineHeight="125%" anchor="middle" family="&quot;Microsoft YaHei&quot;, 微软雅黑, Arial" size="13px" weight="400" font-style="" opacity="1" y="9.375" transform="rotate(0)"><tspan id="SvgjsTspan1039" dy="16.25" x="35"><tspan id="SvgjsTspan1040" style="">s3引用</tspan></tspan></text></g></g><g id="SvgjsG1041" transform="translate(62,58)"><path id="SvgjsPath1042" d="M 0 4Q 0 0 4 0L 66 0Q 70 0 70 4L 70 36Q 70 40 66 40L 4 40Q 0 40 0 36Z" stroke="rgba(33,41,48,1)" stroke-width="1.5" fill-opacity="1" fill="#ffffff"></path><g id="SvgjsG1043"><text id="SvgjsText1044" font-family="&quot;Microsoft YaHei&quot;, 微软雅黑, Arial" text-anchor="middle" font-size="13px" width="50px" fill="#323232" font-weight="400" align="middle" lineHeight="125%" anchor="middle" family="&quot;Microsoft YaHei&quot;, 微软雅黑, Arial" size="13px" weight="400" font-style="" opacity="1" y="9.375" transform="rotate(0)"><tspan id="SvgjsTspan1045" dy="16.25" x="35"><tspan id="SvgjsTspan1046" style="">s4引用</tspan></tspan></text></g></g><g id="SvgjsG1047" transform="translate(62,228)"><path id="SvgjsPath1048" d="M 0 4Q 0 0 4 0L 66 0Q 70 0 70 4L 70 36Q 70 40 66 40L 4 40Q 0 40 0 36Z" stroke="rgba(33,41,48,1)" stroke-width="1.5" fill-opacity="1" fill="#ffffff"></path><g id="SvgjsG1049"><text id="SvgjsText1050" font-family="&quot;Microsoft YaHei&quot;, 微软雅黑, Arial" text-anchor="middle" font-size="13px" width="50px" fill="#323232" font-weight="400" align="middle" lineHeight="125%" anchor="middle" family="&quot;Microsoft YaHei&quot;, 微软雅黑, Arial" size="13px" weight="400" font-style="" opacity="1" y="9.375" transform="rotate(0)"><tspan id="SvgjsTspan1051" dy="16.25" x="35"><tspan id="SvgjsTspan1052" style="">s1引用</tspan></tspan></text></g></g><g id="SvgjsG1053" transform="translate(538,79)"><path id="SvgjsPath1054" d="M 0 0L 120 0L 120 200L 0 200Z" stroke="rgba(33,41,48,1)" stroke-width="1.5" fill-opacity="1" fill="#ffffff"></path><g id="SvgjsG1055"><text id="SvgjsText1056" font-family="&quot;Microsoft YaHei&quot;, 微软雅黑, Arial" text-anchor="middle" font-size="13px" width="100px" fill="#323232" font-weight="400" align="middle" lineHeight="125%" anchor="middle" family="&quot;Microsoft YaHei&quot;, 微软雅黑, Arial" size="13px" weight="400" font-style="" opacity="1" y="89.375" transform="rotate(0)"><tspan id="SvgjsTspan1057" dy="16.25" x="60"><tspan id="SvgjsTspan1058" style="">String Pool</tspan></tspan></text></g></g><g id="SvgjsG1059" transform="translate(563,92)"><path id="SvgjsPath1060" d="M 0 35C 0 -11.666666666666666 70 -11.666666666666666 70 35C 70 81.66666666666667 0 81.66666666666667 0 35Z" stroke="rgba(33,41,48,1)" stroke-width="1.5" fill-opacity="1" fill="#ffffff"></path><g id="SvgjsG1061"><text id="SvgjsText1062" font-family="&quot;Microsoft YaHei&quot;, 微软雅黑, Arial" text-anchor="middle" font-size="13px" width="50px" fill="#323232" font-weight="400" align="middle" lineHeight="125%" anchor="middle" family="&quot;Microsoft YaHei&quot;, 微软雅黑, Arial" size="13px" weight="400" font-style="" opacity="1" y="24.375" transform="rotate(0)"><tspan id="SvgjsTspan1063" dy="16.25" x="35"><tspan id="SvgjsTspan1064" style="">"11"</tspan></tspan></text></g></g><g id="SvgjsG1065" transform="translate(563,199)"><path id="SvgjsPath1066" d="M 0 35C 0 -11.666666666666666 70 -11.666666666666666 70 35C 70 81.66666666666667 0 81.66666666666667 0 35Z" stroke="rgba(33,41,48,1)" stroke-width="1.5" fill-opacity="1" fill="#ffffff"></path><g id="SvgjsG1067"><text id="SvgjsText1068" font-family="&quot;Microsoft YaHei&quot;, 微软雅黑, Arial" text-anchor="middle" font-size="13px" width="50px" fill="#323232" font-weight="400" align="middle" lineHeight="125%" anchor="middle" family="&quot;Microsoft YaHei&quot;, 微软雅黑, Arial" size="13px" weight="400" font-style="" opacity="1" y="24.375" transform="rotate(0)"><tspan id="SvgjsTspan1069" dy="16.25" x="35"><tspan id="SvgjsTspan1070" style="">"1"</tspan></tspan></text></g></g><g id="SvgjsG1071" transform="translate(223,39)"><path id="SvgjsPath1072" d="M 0 0L 305 0L 305 269L 0 269Z" stroke="rgba(33,41,48,1)" stroke-width="1.5" fill-opacity="1" fill="#ffffff"></path><g id="SvgjsG1073"><text id="SvgjsText1074" font-family="&quot;Microsoft YaHei&quot;, 微软雅黑, Arial" text-anchor="middle" font-size="13px" width="285px" fill="#323232" font-weight="400" align="top" lineHeight="125%" anchor="middle" family="&quot;Microsoft YaHei&quot;, 微软雅黑, Arial" size="13px" weight="400" font-style="" opacity="1" y="-2.625" transform="rotate(0)"></text></g></g><g id="SvgjsG1075" transform="translate(303,92)"><path id="SvgjsPath1076" d="M 0 35C 0 -11.666666666666666 70 -11.666666666666666 70 35C 70 81.66666666666667 0 81.66666666666667 0 35Z" stroke="rgba(33,41,48,1)" stroke-width="1.5" fill-opacity="1" fill="#ffffff"></path><g id="SvgjsG1077"><text id="SvgjsText1078" font-family="&quot;Microsoft YaHei&quot;, 微软雅黑, Arial" text-anchor="middle" font-size="13px" width="50px" fill="#323232" font-weight="400" align="middle" lineHeight="125%" anchor="middle" family="&quot;Microsoft YaHei&quot;, 微软雅黑, Arial" size="13px" weight="400" font-style="" opacity="1" y="15.875" transform="rotate(0)"><tspan id="SvgjsTspan1079" dy="16.25" x="35"><tspan id="SvgjsTspan1080" style="">String </tspan></tspan><tspan id="SvgjsTspan1081" dy="16.25" x="35"><tspan id="SvgjsTspan1082" style="">obj</tspan></tspan></text></g></g><g id="SvgjsG1083" transform="translate(303,199)"><path id="SvgjsPath1084" d="M 0 35C 0 -11.666666666666666 70 -11.666666666666666 70 35C 70 81.66666666666667 0 81.66666666666667 0 35Z" stroke="rgba(33,41,48,1)" stroke-width="1.5" fill-opacity="1" fill="#ffffff"></path><g id="SvgjsG1085"><text id="SvgjsText1086" font-family="&quot;Microsoft YaHei&quot;, 微软雅黑, Arial" text-anchor="middle" font-size="13px" width="50px" fill="#323232" font-weight="400" align="middle" lineHeight="125%" anchor="middle" family="&quot;Microsoft YaHei&quot;, 微软雅黑, Arial" size="13px" weight="400" font-style="" opacity="1" y="15.875" transform="rotate(0)"><tspan id="SvgjsTspan1087" dy="16.25" x="35"><tspan id="SvgjsTspan1088" style="">String </tspan></tspan><tspan id="SvgjsTspan1089" dy="16.25" x="35"><tspan id="SvgjsTspan1090" style="">obj</tspan></tspan></text></g></g><g id="SvgjsG1091"><path id="SvgjsPath1092" d="M132.75 128L217.5 128L217.5 128L300.3 128" stroke="#323232" stroke-width="1.5" fill="none" marker-end="url(#SvgjsMarker1093)"></path></g><g id="SvgjsG1095"><path id="SvgjsPath1096" d="M132.75 248L217.5 248L217.5 234L300.3 234" stroke="#323232" stroke-width="1.5" fill="none" marker-end="url(#SvgjsMarker1097)"></path></g><g id="SvgjsG1099"><path id="SvgjsPath1100" d="M132.75 78L152 78L152 67L598 67L598 89.3" stroke="#323232" stroke-width="1.5" fill="none" marker-end="url(#SvgjsMarker1101)"></path></g><g id="SvgjsG1103"><path id="SvgjsPath1104" d="M373.75 234L403 234L403 294L598 294L598 271.7" stroke="#a7932c" stroke-width="1.5" fill="none" marker-end="url(#SvgjsMarker1105)"></path><rect id="SvgjsRect1107" width="43" height="18" x="472.34812500000004" y="285" fill="#ffffff"></rect><text id="SvgjsText1108" font-family="&quot;Microsoft YaHei&quot;, 微软雅黑, Arial" text-anchor="middle" font-size="13px" width="43px" fill="#323232" font-weight="400" align="top" lineHeight="16px" anchor="middle" family="&quot;Microsoft YaHei&quot;, 微软雅黑, Arial" size="13px" weight="400" font-style="" opacity="1" y="282.375" transform="rotate(0)"><tspan id="SvgjsTspan1109" dy="16.25" x="493.84812500000004"><tspan id="SvgjsTspan1110" style="">s.intern</tspan></tspan></text></g><g id="SvgjsG1111"><path id="SvgjsPath1112" d="M373.75 127L468 127L468 127L560.3 127" stroke="#a7932c" stroke-width="1.5" fill="none" marker-end="url(#SvgjsMarker1113)"></path><rect id="SvgjsRect1115" width="59" height="18" x="435.5613157894737" y="118" fill="#ffffff"></rect><text id="SvgjsText1116" font-family="&quot;Microsoft YaHei&quot;, 微软雅黑, Arial" text-anchor="middle" font-size="13px" width="59px" fill="#323232" font-weight="400" align="top" lineHeight="16px" anchor="middle" family="&quot;Microsoft YaHei&quot;, 微软雅黑, Arial" size="13px" weight="400" font-style="" opacity="1" y="115.375" transform="rotate(0)"><tspan id="SvgjsTspan1117" dy="16.25" x="465.0613157894737"><tspan id="SvgjsTspan1118" style="">s3.intern()</tspan></tspan></text></g><g id="SvgjsG1119"><path id="SvgjsPath1120" d="M132.75 198L418.5 198L418.5 234L560.3 234" stroke="#323232" stroke-width="1.5" fill="none" marker-end="url(#SvgjsMarker1121)"></path></g><g id="SvgjsG1123" transform="translate(25,357)"><path id="SvgjsPath1124" d="M 0 0L 665 0L 665 302L 0 302Z" stroke="rgba(33,41,48,1)" stroke-width="1.5" fill-opacity="1" fill="#ffffff"></path><g id="SvgjsG1125"><text id="SvgjsText1126" font-family="&quot;Microsoft YaHei&quot;, 微软雅黑, Arial" text-anchor="middle" font-size="13px" width="645px" fill="#323232" font-weight="700" align="bottom" lineHeight="125%" anchor="middle" family="&quot;Microsoft YaHei&quot;, 微软雅黑, Arial" size="13px" weight="700" font-style="" opacity="1" y="283.375" transform="rotate(0)"><tspan id="SvgjsTspan1127" dy="16.25" x="332.5"><tspan id="SvgjsTspan1128" style="">JDK7第一段代码</tspan></tspan></text></g></g><g id="SvgjsG1129" transform="translate(528,371)"><path id="SvgjsPath1130" d="M 0 0L 140 0L 140 269L 0 269Z" stroke="rgba(33,41,48,1)" stroke-width="1.5" fill-opacity="1" fill="#ffffff"></path><g id="SvgjsG1131"><text id="SvgjsText1132" font-family="&quot;Microsoft YaHei&quot;, 微软雅黑, Arial" text-anchor="middle" font-size="13px" width="120px" fill="#323232" font-weight="700" align="middle" lineHeight="125%" anchor="middle" family="&quot;Microsoft YaHei&quot;, 微软雅黑, Arial" size="13px" weight="700" font-style="" opacity="1" y="123.875" transform="rotate(0)"><tspan id="SvgjsTspan1133" dy="16.25" x="70"><tspan id="SvgjsTspan1134" style="">Perm Space</tspan></tspan></text></g></g><g id="SvgjsG1135" transform="translate(52,381)"><path id="SvgjsPath1136" d="M 0 0L 90 0L 90 230L 0 230Z" stroke="rgba(33,41,48,1)" stroke-width="1.5" fill-opacity="1" fill="#ffffff"></path><g id="SvgjsG1137"><text id="SvgjsText1138" font-family="&quot;Microsoft YaHei&quot;, 微软雅黑, Arial" text-anchor="middle" font-size="13px" width="70px" fill="#323232" font-weight="400" align="middle" lineHeight="125%" anchor="middle" family="&quot;Microsoft YaHei&quot;, 微软雅黑, Arial" size="13px" weight="400" font-style="" opacity="1" y="104.375" transform="rotate(0)"><tspan id="SvgjsTspan1139" dy="16.25" x="45"><tspan id="SvgjsTspan1140" style="">栈</tspan></tspan></text></g></g><g id="SvgjsG1141" transform="translate(62,510)"><path id="SvgjsPath1142" d="M 0 4Q 0 0 4 0L 66 0Q 70 0 70 4L 70 36Q 70 40 66 40L 4 40Q 0 40 0 36Z" stroke="rgba(33,41,48,1)" stroke-width="1.5" fill-opacity="1" fill="#ffffff"></path><g id="SvgjsG1143"><text id="SvgjsText1144" font-family="&quot;Microsoft YaHei&quot;, 微软雅黑, Arial" text-anchor="middle" font-size="13px" width="50px" fill="#323232" font-weight="400" align="middle" lineHeight="125%" anchor="middle" family="&quot;Microsoft YaHei&quot;, 微软雅黑, Arial" size="13px" weight="400" font-style="" opacity="1" y="9.375" transform="rotate(0)"><tspan id="SvgjsTspan1145" dy="16.25" x="35"><tspan id="SvgjsTspan1146" style="">s2引用</tspan></tspan></text></g></g><g id="SvgjsG1147" transform="translate(62,440)"><path id="SvgjsPath1148" d="M 0 4Q 0 0 4 0L 66 0Q 70 0 70 4L 70 36Q 70 40 66 40L 4 40Q 0 40 0 36Z" stroke="rgba(33,41,48,1)" stroke-width="1.5" fill-opacity="1" fill="#ffffff"></path><g id="SvgjsG1149"><text id="SvgjsText1150" font-family="&quot;Microsoft YaHei&quot;, 微软雅黑, Arial" text-anchor="middle" font-size="13px" width="50px" fill="#323232" font-weight="400" align="middle" lineHeight="125%" anchor="middle" family="&quot;Microsoft YaHei&quot;, 微软雅黑, Arial" size="13px" weight="400" font-style="" opacity="1" y="9.375" transform="rotate(0)"><tspan id="SvgjsTspan1151" dy="16.25" x="35"><tspan id="SvgjsTspan1152" style="">s3引用</tspan></tspan></text></g></g><g id="SvgjsG1153" transform="translate(62,390)"><path id="SvgjsPath1154" d="M 0 4Q 0 0 4 0L 66 0Q 70 0 70 4L 70 36Q 70 40 66 40L 4 40Q 0 40 0 36Z" stroke="rgba(33,41,48,1)" stroke-width="1.5" fill-opacity="1" fill="#ffffff"></path><g id="SvgjsG1155"><text id="SvgjsText1156" font-family="&quot;Microsoft YaHei&quot;, 微软雅黑, Arial" text-anchor="middle" font-size="13px" width="50px" fill="#323232" font-weight="400" align="middle" lineHeight="125%" anchor="middle" family="&quot;Microsoft YaHei&quot;, 微软雅黑, Arial" size="13px" weight="400" font-style="" opacity="1" y="9.375" transform="rotate(0)"><tspan id="SvgjsTspan1157" dy="16.25" x="35"><tspan id="SvgjsTspan1158" style="">s4引用</tspan></tspan></text></g></g><g id="SvgjsG1159" transform="translate(62,560)"><path id="SvgjsPath1160" d="M 0 4Q 0 0 4 0L 66 0Q 70 0 70 4L 70 36Q 70 40 66 40L 4 40Q 0 40 0 36Z" stroke="rgba(33,41,48,1)" stroke-width="1.5" fill-opacity="1" fill="#ffffff"></path><g id="SvgjsG1161"><text id="SvgjsText1162" font-family="&quot;Microsoft YaHei&quot;, 微软雅黑, Arial" text-anchor="middle" font-size="13px" width="50px" fill="#323232" font-weight="400" align="middle" lineHeight="125%" anchor="middle" family="&quot;Microsoft YaHei&quot;, 微软雅黑, Arial" size="13px" weight="400" font-style="" opacity="1" y="9.375" transform="rotate(0)"><tspan id="SvgjsTspan1163" dy="16.25" x="35"><tspan id="SvgjsTspan1164" style="">s1引用</tspan></tspan></text></g></g><g id="SvgjsG1165" transform="translate(223,371)"><path id="SvgjsPath1166" d="M 0 0L 305 0L 305 269L 0 269Z" stroke="rgba(33,41,48,1)" stroke-width="1.5" fill-opacity="1" fill="#ffffff"></path><g id="SvgjsG1167"><text id="SvgjsText1168" font-family="&quot;Microsoft YaHei&quot;, 微软雅黑, Arial" text-anchor="middle" font-size="13px" width="285px" fill="#323232" font-weight="700" align="middle" lineHeight="125%" anchor="middle" family="&quot;Microsoft YaHei&quot;, 微软雅黑, Arial" size="13px" weight="700" font-style="" opacity="1" y="123.875" transform="rotate(0)"><tspan id="SvgjsTspan1169" dy="16.25" x="152.5"><tspan id="SvgjsTspan1170" style="">Java Heap                </tspan></tspan></text></g></g><g id="SvgjsG1171" transform="translate(243,424)"><path id="SvgjsPath1172" d="M 0 35C 0 -11.666666666666666 70 -11.666666666666666 70 35C 70 81.66666666666667 0 81.66666666666667 0 35Z" stroke="rgba(33,41,48,1)" stroke-width="1.5" fill-opacity="1" fill="#ffffff"></path><g id="SvgjsG1173"><text id="SvgjsText1174" font-family="&quot;Microsoft YaHei&quot;, 微软雅黑, Arial" text-anchor="middle" font-size="13px" width="50px" fill="#323232" font-weight="400" align="middle" lineHeight="125%" anchor="middle" family="&quot;Microsoft YaHei&quot;, 微软雅黑, Arial" size="13px" weight="400" font-style="" opacity="1" y="15.875" transform="rotate(0)"><tspan id="SvgjsTspan1175" dy="16.25" x="35"><tspan id="SvgjsTspan1176" style="">String </tspan></tspan><tspan id="SvgjsTspan1177" dy="16.25" x="35"><tspan id="SvgjsTspan1178" style="">obj</tspan></tspan></text></g></g><g id="SvgjsG1179" transform="translate(243,531)"><path id="SvgjsPath1180" d="M 0 35C 0 -11.666666666666666 70 -11.666666666666666 70 35C 70 81.66666666666667 0 81.66666666666667 0 35Z" stroke="rgba(33,41,48,1)" stroke-width="1.5" fill-opacity="1" fill="#ffffff"></path><g id="SvgjsG1181"><text id="SvgjsText1182" font-family="&quot;Microsoft YaHei&quot;, 微软雅黑, Arial" text-anchor="middle" font-size="13px" width="50px" fill="#323232" font-weight="400" align="middle" lineHeight="125%" anchor="middle" family="&quot;Microsoft YaHei&quot;, 微软雅黑, Arial" size="13px" weight="400" font-style="" opacity="1" y="15.875" transform="rotate(0)"><tspan id="SvgjsTspan1183" dy="16.25" x="35"><tspan id="SvgjsTspan1184" style="">String </tspan></tspan><tspan id="SvgjsTspan1185" dy="16.25" x="35"><tspan id="SvgjsTspan1186" style="">obj</tspan></tspan></text></g></g><g id="SvgjsG1187" transform="translate(388,411)"><path id="SvgjsPath1188" d="M 0 0L 120 0L 120 200L 0 200Z" stroke="rgba(33,41,48,1)" stroke-width="1.5" fill-opacity="1" fill="#ffffff"></path><g id="SvgjsG1189"><text id="SvgjsText1190" font-family="&quot;Microsoft YaHei&quot;, 微软雅黑, Arial" text-anchor="middle" font-size="13px" width="100px" fill="#323232" font-weight="400" align="middle" lineHeight="125%" anchor="middle" family="&quot;Microsoft YaHei&quot;, 微软雅黑, Arial" size="13px" weight="400" font-style="" opacity="1" y="89.375" transform="rotate(0)"><tspan id="SvgjsTspan1191" dy="16.25" x="60"><tspan id="SvgjsTspan1192" style="">String Pool</tspan></tspan></text></g></g><g id="SvgjsG1193" transform="translate(413,424)"><path id="SvgjsPath1194" d="M 0 0L 70 0L 70 70L 0 70Z" stroke="rgba(33,41,48,1)" stroke-width="1.5" fill-opacity="1" fill="#ffffff"></path><g id="SvgjsG1195"><text id="SvgjsText1196" font-family="&quot;Microsoft YaHei&quot;, 微软雅黑, Arial" text-anchor="middle" font-size="13px" width="50px" fill="#323232" font-weight="400" align="middle" lineHeight="125%" anchor="middle" family="&quot;Microsoft YaHei&quot;, 微软雅黑, Arial" size="13px" weight="400" font-style="" opacity="1" y="7.875" transform="rotate(0)"><tspan id="SvgjsTspan1197" dy="16.25" x="35"><tspan id="SvgjsTspan1198" style="">"11"引</tspan></tspan><tspan id="SvgjsTspan1199" dy="16.25" x="35"><tspan id="SvgjsTspan1200" style="">用，等</tspan></tspan><tspan id="SvgjsTspan1201" dy="16.25" x="35"><tspan id="SvgjsTspan1202" style="">于s3</tspan></tspan></text></g></g><g id="SvgjsG1203" transform="translate(413,531)"><path id="SvgjsPath1204" d="M 0 35C 0 -11.666666666666666 70 -11.666666666666666 70 35C 70 81.66666666666667 0 81.66666666666667 0 35Z" stroke="rgba(33,41,48,1)" stroke-width="1.5" fill-opacity="1" fill="#ffffff"></path><g id="SvgjsG1205"><text id="SvgjsText1206" font-family="&quot;Microsoft YaHei&quot;, 微软雅黑, Arial" text-anchor="middle" font-size="13px" width="50px" fill="#323232" font-weight="400" align="middle" lineHeight="125%" anchor="middle" family="&quot;Microsoft YaHei&quot;, 微软雅黑, Arial" size="13px" weight="400" font-style="" opacity="1" y="24.375" transform="rotate(0)"><tspan id="SvgjsTspan1207" dy="16.25" x="35"><tspan id="SvgjsTspan1208" style="">"1"</tspan></tspan></text></g></g><g id="SvgjsG1209"><path id="SvgjsPath1210" d="M132.75 410L152 410L152 399L448 399L448 421.3" stroke="#323232" stroke-width="1.5" fill="none" marker-end="url(#SvgjsMarker1211)"></path><rect id="SvgjsRect1213" width="51" height="18" x="274.4857954545455" y="390" fill="#ffffff"></rect><text id="SvgjsText1214" font-family="&quot;Microsoft YaHei&quot;, 微软雅黑, Arial" text-anchor="middle" font-size="13px" width="51px" fill="#323232" font-weight="400" align="top" lineHeight="16px" anchor="middle" family="&quot;Microsoft YaHei&quot;, 微软雅黑, Arial" size="13px" weight="400" font-style="" opacity="1" y="387.375" transform="rotate(0)"><tspan id="SvgjsTspan1215" dy="16.25" x="299.9857954545455"><tspan id="SvgjsTspan1216" style="">s4 = "11"</tspan></tspan></text></g><g id="SvgjsG1217"><path id="SvgjsPath1218" d="M132.75 460L187.5 460L187.5 460L240.3 460" stroke="#323232" stroke-width="1.5" fill="none" marker-end="url(#SvgjsMarker1219)"></path></g><g id="SvgjsG1221"><path id="SvgjsPath1222" d="M313.75 459L363 459L363 459L410.3 459" stroke="#a7932c" stroke-width="1.5" fill="none" marker-end="url(#SvgjsMarker1223)"></path><rect id="SvgjsRect1225" width="59" height="18" x="328.663" y="450" fill="#ffffff"></rect><text id="SvgjsText1226" font-family="&quot;Microsoft YaHei&quot;, 微软雅黑, Arial" text-anchor="middle" font-size="13px" width="59px" fill="#323232" font-weight="400" align="top" lineHeight="16px" anchor="middle" family="&quot;Microsoft YaHei&quot;, 微软雅黑, Arial" size="13px" weight="400" font-style="" opacity="1" y="447.375" transform="rotate(0)"><tspan id="SvgjsTspan1227" dy="16.25" x="358.163"><tspan id="SvgjsTspan1228" style="">s3.intern()</tspan></tspan></text></g><g id="SvgjsG1229"><path id="SvgjsPath1230" d="M132.75 530L152 530L152 520L348.9985784132782 520L348.9985784132782 542.8879611731495L418.63143788437094 542.8879611731495" stroke="#323232" stroke-width="1.5" fill="none" marker-end="url(#SvgjsMarker1231)"></path><rect id="SvgjsRect1233" width="45" height="18" x="223.0021197025115" y="511" fill="#ffffff"></rect><text id="SvgjsText1234" font-family="&quot;Microsoft YaHei&quot;, 微软雅黑, Arial" text-anchor="middle" font-size="13px" width="45px" fill="#323232" font-weight="400" align="top" lineHeight="16px" anchor="middle" family="&quot;Microsoft YaHei&quot;, 微软雅黑, Arial" size="13px" weight="400" font-style="" opacity="1" y="508.375" transform="rotate(0)"><tspan id="SvgjsTspan1235" dy="16.25" x="245.5021197025115"><tspan id="SvgjsTspan1236" style="">s2 = "1"</tspan></tspan></text></g><g id="SvgjsG1237"><path id="SvgjsPath1238" d="M132.75 580L187.5 580L187.5 566L240.3 566" stroke="#323232" stroke-width="1.5" fill="none" marker-end="url(#SvgjsMarker1239)"></path></g><g id="SvgjsG1241"><path id="SvgjsPath1242" d="M313.75 566L363 566L363 566L410.3 566" stroke="#a7932c" stroke-width="1.5" fill="none" marker-end="url(#SvgjsMarker1243)"></path><rect id="SvgjsRect1245" width="51" height="18" x="333.62850000000003" y="557" fill="#ffffff"></rect><text id="SvgjsText1246" font-family="&quot;Microsoft YaHei&quot;, 微软雅黑, Arial" text-anchor="middle" font-size="13px" width="51px" fill="#323232" font-weight="400" align="top" lineHeight="16px" anchor="middle" family="&quot;Microsoft YaHei&quot;, 微软雅黑, Arial" size="13px" weight="400" font-style="" opacity="1" y="554.375" transform="rotate(0)"><tspan id="SvgjsTspan1247" dy="16.25" x="359.12850000000003"><tspan id="SvgjsTspan1248" style="">s.intern()</tspan></tspan></text></g><g id="SvgjsG1249"></g></svg>