<svg id="SvgjsSvg1006" width="988.25" height="310" xmlns="http://www.w3.org/2000/svg" version="1.1" xmlns:xlink="http://www.w3.org/1999/xlink" xmlns:svgjs="http://svgjs.com/svgjs"><defs id="SvgjsDefs1007"><pattern patternUnits="userSpaceOnUse" id="pattern_mark_0" width="300" height="300"><text x="150" y="100" fill="rgba(229,229,229,0.8)" font-size="18" transform="rotate(-45, 150, 150)" style="dominant-baseline: middle; text-anchor: middle;"></text></pattern><pattern patternUnits="userSpaceOnUse" id="pattern_mark_1" width="300" height="300"><text x="150" y="200" fill="rgba(229,229,229,0.8)" font-size="18" transform="rotate(-45, 150, 150)" style="dominant-baseline: middle; text-anchor: middle;"></text></pattern><marker id="SvgjsMarker1019" markerWidth="18" markerHeight="14" refX="12" refY="7" viewBox="0 0 18 14" orient="auto" markerUnits="userSpaceOnUse" stroke-dasharray="0,0"><path id="SvgjsPath1020" d="M0,0 L18,7 L0,14 L0,0" fill="#f37cb0" stroke="#f37cb0" stroke-width="1"></path></marker><marker id="SvgjsMarker1023" markerWidth="18" markerHeight="14" refX="12" refY="7" viewBox="0 0 18 14" orient="auto" markerUnits="userSpaceOnUse" stroke-dasharray="0,0"><path id="SvgjsPath1024" d="M0,0 L18,7 L0,14 L0,0" fill="#f37cb0" stroke="#f37cb0" stroke-width="1"></path></marker><marker id="SvgjsMarker1027" markerWidth="18" markerHeight="14" refX="12" refY="7" viewBox="0 0 18 14" orient="auto" markerUnits="userSpaceOnUse" stroke-dasharray="0,0"><path id="SvgjsPath1028" d="M0,0 L18,7 L0,14 L0,0" fill="#f37cb0" stroke="#f37cb0" stroke-width="1"></path></marker><marker id="SvgjsMarker1031" markerWidth="18" markerHeight="14" refX="12" refY="7" viewBox="0 0 18 14" orient="auto" markerUnits="userSpaceOnUse" stroke-dasharray="0,0"><path id="SvgjsPath1032" d="M0,0 L18,7 L0,14 L0,0" fill="#f37cb0" stroke="#f37cb0" stroke-width="1"></path></marker><marker id="SvgjsMarker1059" markerWidth="18" markerHeight="14" refX="12" refY="7" viewBox="0 0 18 14" orient="auto" markerUnits="userSpaceOnUse" stroke-dasharray="0,0"><path id="SvgjsPath1060" d="M0,0 L18,7 L0,14 L0,0" fill="#f37cb0" stroke="#f37cb0" stroke-width="1"></path></marker><marker id="SvgjsMarker1063" markerWidth="18" markerHeight="14" refX="12" refY="7" viewBox="0 0 18 14" orient="auto" markerUnits="userSpaceOnUse" stroke-dasharray="0,0"><path id="SvgjsPath1064" d="M0,0 L18,7 L0,14 L0,0" fill="#f37cb0" stroke="#f37cb0" stroke-width="1"></path></marker><marker id="SvgjsMarker1067" markerWidth="18" markerHeight="14" refX="12" refY="7" viewBox="0 0 18 14" orient="auto" markerUnits="userSpaceOnUse" stroke-dasharray="0,0"><path id="SvgjsPath1068" d="M0,0 L18,7 L0,14 L0,0" fill="#f37cb0" stroke="#f37cb0" stroke-width="1"></path></marker><marker id="SvgjsMarker1071" markerWidth="18" markerHeight="14" refX="12" refY="7" viewBox="0 0 18 14" orient="auto" markerUnits="userSpaceOnUse" stroke-dasharray="0,0"><path id="SvgjsPath1072" d="M0,0 L18,7 L0,14 L0,0" fill="#f37cb0" stroke="#f37cb0" stroke-width="1"></path></marker><marker id="SvgjsMarker1099" markerWidth="18" markerHeight="14" refX="12" refY="7" viewBox="0 0 18 14" orient="auto" markerUnits="userSpaceOnUse" stroke-dasharray="0,0"><path id="SvgjsPath1100" d="M0,0 L18,7 L0,14 L0,0" fill="#f37cb0" stroke="#f37cb0" stroke-width="1"></path></marker><marker id="SvgjsMarker1103" markerWidth="18" markerHeight="14" refX="12" refY="7" viewBox="0 0 18 14" orient="auto" markerUnits="userSpaceOnUse" stroke-dasharray="0,0"><path id="SvgjsPath1104" d="M0,0 L18,7 L0,14 L0,0" fill="#f37cb0" stroke="#f37cb0" stroke-width="1"></path></marker><marker id="SvgjsMarker1107" markerWidth="18" markerHeight="14" refX="12" refY="7" viewBox="0 0 18 14" orient="auto" markerUnits="userSpaceOnUse" stroke-dasharray="0,0"><path id="SvgjsPath1108" d="M0,0 L18,7 L0,14 L0,0" fill="#f37cb0" stroke="#f37cb0" stroke-width="1"></path></marker><marker id="SvgjsMarker1111" markerWidth="18" markerHeight="14" refX="12" refY="7" viewBox="0 0 18 14" orient="auto" markerUnits="userSpaceOnUse" stroke-dasharray="0,0"><path id="SvgjsPath1112" d="M0,0 L18,7 L0,14 L0,0" fill="#f37cb0" stroke="#f37cb0" stroke-width="1"></path></marker><marker id="SvgjsMarker1139" markerWidth="22" markerHeight="18" refX="14" refY="9" viewBox="0 0 22 18" orient="auto" markerUnits="userSpaceOnUse" stroke-dasharray="0,0"><path id="SvgjsPath1140" d="M0,0 L22,9 L0,18 L0,0" fill="#4e1095" stroke="#4e1095" stroke-width="1"></path></marker><marker id="SvgjsMarker1143" markerWidth="22" markerHeight="18" refX="14" refY="9" viewBox="0 0 22 18" orient="auto" markerUnits="userSpaceOnUse" stroke-dasharray="0,0"><path id="SvgjsPath1144" d="M0,0 L22,9 L0,18 L0,0" fill="#4e1095" stroke="#4e1095" stroke-width="1"></path></marker></defs><rect id="svgbackgroundid" width="988.25" height="310" fill="transparent"></rect><rect id="SvgjsRect1009" width="988.25" height="310" fill="url(#pattern_mark_0)"></rect><rect id="SvgjsRect1010" width="988.25" height="310" fill="url(#pattern_mark_1)"></rect><g id="SvgjsG1011" transform="translate(41.25,25)"><path id="SvgjsPath1012" d="M 0 0L 922 0L 922 260L 0 260Z" stroke="rgba(33,41,48,1)" stroke-width="1.5" fill-opacity="1" fill="#f1f1f1"></path><g id="SvgjsG1013"><text id="SvgjsText1014" font-family="&quot;Microsoft YaHei&quot;, 微软雅黑, Arial" text-anchor="middle" font-size="13px" width="902px" fill="#323232" font-weight="700" align="bottom" lineHeight="125%" anchor="middle" family="&quot;Microsoft YaHei&quot;, 微软雅黑, Arial" size="13px" weight="700" font-style="" opacity="1" y="241.375" transform="rotate(0)"><tspan id="SvgjsTspan1015" dy="16.25" x="461"><tspan id="SvgjsTspan1016" style="">Serial/Serial Old收集器</tspan></tspan></text></g></g><g id="SvgjsG1017"><path id="SvgjsPath1018" d="M439.75 85.5L519.75 85.5L519.75 85.5L599.75 85.5" stroke="#f37cb0" stroke-width="4" fill="none" marker-end="url(#SvgjsMarker1019)"></path></g><g id="SvgjsG1021"><path id="SvgjsPath1022" d="M439.75 133.5L519.75 133.5L519.75 133.5L599.75 133.5" stroke="#f37cb0" stroke-width="4" fill="none" marker-end="url(#SvgjsMarker1023)"></path></g><g id="SvgjsG1025"><path id="SvgjsPath1026" d="M439.75 181.5L519.75 181.5L519.75 181.5L599.75 181.5" stroke="#f37cb0" stroke-width="4" fill="none" marker-end="url(#SvgjsMarker1027)"></path></g><g id="SvgjsG1029"><path id="SvgjsPath1030" d="M439.75 229.5L519.75 229.5L519.75 229.5L599.75 229.5" stroke="#f37cb0" stroke-width="4" fill="none" marker-end="url(#SvgjsMarker1031)"></path></g><g id="SvgjsG1033" transform="translate(469.75,54.5)"><path id="SvgjsPath1034" d="M 0 0L 100 0L 100 40L 0 40Z" stroke="none" fill="none"></path><g id="SvgjsG1035"><text id="SvgjsText1036" font-family="&quot;Microsoft YaHei&quot;, 微软雅黑, Arial" text-anchor="middle" font-size="13px" width="100px" fill="#323232" font-weight="400" align="middle" lineHeight="125%" anchor="middle" family="&quot;Microsoft YaHei&quot;, 微软雅黑, Arial" size="13px" weight="400" font-style="" opacity="1" y="9.375" transform="rotate(0)"><tspan id="SvgjsTspan1037" dy="16.25" x="50"><tspan id="SvgjsTspan1038" style="">用户线程1</tspan></tspan></text></g></g><g id="SvgjsG1039" transform="translate(469.75,102.5)"><path id="SvgjsPath1040" d="M 0 0L 100 0L 100 40L 0 40Z" stroke="none" fill="none"></path><g id="SvgjsG1041"><text id="SvgjsText1042" font-family="&quot;Microsoft YaHei&quot;, 微软雅黑, Arial" text-anchor="middle" font-size="13px" width="100px" fill="#323232" font-weight="400" align="middle" lineHeight="125%" anchor="middle" family="&quot;Microsoft YaHei&quot;, 微软雅黑, Arial" size="13px" weight="400" font-style="" opacity="1" y="9.375" transform="rotate(0)"><tspan id="SvgjsTspan1043" dy="16.25" x="50"><tspan id="SvgjsTspan1044" style="">用户线程2</tspan></tspan></text></g></g><g id="SvgjsG1045" transform="translate(469.75,150.5)"><path id="SvgjsPath1046" d="M 0 0L 100 0L 100 40L 0 40Z" stroke="none" fill="none"></path><g id="SvgjsG1047"><text id="SvgjsText1048" font-family="&quot;Microsoft YaHei&quot;, 微软雅黑, Arial" text-anchor="middle" font-size="13px" width="100px" fill="#323232" font-weight="400" align="middle" lineHeight="125%" anchor="middle" family="&quot;Microsoft YaHei&quot;, 微软雅黑, Arial" size="13px" weight="400" font-style="" opacity="1" y="9.375" transform="rotate(0)"><tspan id="SvgjsTspan1049" dy="16.25" x="50"><tspan id="SvgjsTspan1050" style="">用户线程3</tspan></tspan></text></g></g><g id="SvgjsG1051" transform="translate(469.75,198.5)"><path id="SvgjsPath1052" d="M 0 0L 100 0L 100 40L 0 40Z" stroke="none" fill="none"></path><g id="SvgjsG1053"><text id="SvgjsText1054" font-family="&quot;Microsoft YaHei&quot;, 微软雅黑, Arial" text-anchor="middle" font-size="13px" width="100px" fill="#323232" font-weight="400" align="middle" lineHeight="125%" anchor="middle" family="&quot;Microsoft YaHei&quot;, 微软雅黑, Arial" size="13px" weight="400" font-style="" opacity="1" y="9.375" transform="rotate(0)"><tspan id="SvgjsTspan1055" dy="16.25" x="50"><tspan id="SvgjsTspan1056" style="">用户线程4</tspan></tspan></text></g></g><g id="SvgjsG1057"><path id="SvgjsPath1058" d="M94.25 85.5L174.25 85.5L174.25 85.5L254.25 85.5" stroke="#f37cb0" stroke-width="4" fill="none" marker-end="url(#SvgjsMarker1059)"></path></g><g id="SvgjsG1061"><path id="SvgjsPath1062" d="M94.25 133.5L174.25 133.5L174.25 133.5L254.25 133.5" stroke="#f37cb0" stroke-width="4" fill="none" marker-end="url(#SvgjsMarker1063)"></path></g><g id="SvgjsG1065"><path id="SvgjsPath1066" d="M94.25 181.5L174.25 181.5L174.25 181.5L254.25 181.5" stroke="#f37cb0" stroke-width="4" fill="none" marker-end="url(#SvgjsMarker1067)"></path></g><g id="SvgjsG1069"><path id="SvgjsPath1070" d="M94.25 229.5L174.25 229.5L174.25 229.5L254.25 229.5" stroke="#f37cb0" stroke-width="4" fill="none" marker-end="url(#SvgjsMarker1071)"></path></g><g id="SvgjsG1073" transform="translate(124.25,54.5)"><path id="SvgjsPath1074" d="M 0 0L 100 0L 100 40L 0 40Z" stroke="none" fill="none"></path><g id="SvgjsG1075"><text id="SvgjsText1076" font-family="&quot;Microsoft YaHei&quot;, 微软雅黑, Arial" text-anchor="middle" font-size="13px" width="100px" fill="#323232" font-weight="400" align="middle" lineHeight="125%" anchor="middle" family="&quot;Microsoft YaHei&quot;, 微软雅黑, Arial" size="13px" weight="400" font-style="" opacity="1" y="9.375" transform="rotate(0)"><tspan id="SvgjsTspan1077" dy="16.25" x="50"><tspan id="SvgjsTspan1078" style="">用户线程1</tspan></tspan></text></g></g><g id="SvgjsG1079" transform="translate(124.25,102.5)"><path id="SvgjsPath1080" d="M 0 0L 100 0L 100 40L 0 40Z" stroke="none" fill="none"></path><g id="SvgjsG1081"><text id="SvgjsText1082" font-family="&quot;Microsoft YaHei&quot;, 微软雅黑, Arial" text-anchor="middle" font-size="13px" width="100px" fill="#323232" font-weight="400" align="middle" lineHeight="125%" anchor="middle" family="&quot;Microsoft YaHei&quot;, 微软雅黑, Arial" size="13px" weight="400" font-style="" opacity="1" y="9.375" transform="rotate(0)"><tspan id="SvgjsTspan1083" dy="16.25" x="50"><tspan id="SvgjsTspan1084" style="">用户线程2</tspan></tspan></text></g></g><g id="SvgjsG1085" transform="translate(124.25,150.5)"><path id="SvgjsPath1086" d="M 0 0L 100 0L 100 40L 0 40Z" stroke="none" fill="none"></path><g id="SvgjsG1087"><text id="SvgjsText1088" font-family="&quot;Microsoft YaHei&quot;, 微软雅黑, Arial" text-anchor="middle" font-size="13px" width="100px" fill="#323232" font-weight="400" align="middle" lineHeight="125%" anchor="middle" family="&quot;Microsoft YaHei&quot;, 微软雅黑, Arial" size="13px" weight="400" font-style="" opacity="1" y="9.375" transform="rotate(0)"><tspan id="SvgjsTspan1089" dy="16.25" x="50"><tspan id="SvgjsTspan1090" style="">用户线程3</tspan></tspan></text></g></g><g id="SvgjsG1091" transform="translate(124.25,198.5)"><path id="SvgjsPath1092" d="M 0 0L 100 0L 100 40L 0 40Z" stroke="none" fill="none"></path><g id="SvgjsG1093"><text id="SvgjsText1094" font-family="&quot;Microsoft YaHei&quot;, 微软雅黑, Arial" text-anchor="middle" font-size="13px" width="100px" fill="#323232" font-weight="400" align="middle" lineHeight="125%" anchor="middle" family="&quot;Microsoft YaHei&quot;, 微软雅黑, Arial" size="13px" weight="400" font-style="" opacity="1" y="9.375" transform="rotate(0)"><tspan id="SvgjsTspan1095" dy="16.25" x="50"><tspan id="SvgjsTspan1096" style="">用户线程4</tspan></tspan></text></g></g><g id="SvgjsG1097"><path id="SvgjsPath1098" d="M787.25 85.5L867.25 85.5L867.25 85.5L947.25 85.5" stroke="#f37cb0" stroke-width="4" fill="none" marker-end="url(#SvgjsMarker1099)"></path></g><g id="SvgjsG1101"><path id="SvgjsPath1102" d="M787.25 133.5L867.25 133.5L867.25 133.5L947.25 133.5" stroke="#f37cb0" stroke-width="4" fill="none" marker-end="url(#SvgjsMarker1103)"></path></g><g id="SvgjsG1105"><path id="SvgjsPath1106" d="M787.25 181.5L867.25 181.5L867.25 181.5L947.25 181.5" stroke="#f37cb0" stroke-width="4" fill="none" marker-end="url(#SvgjsMarker1107)"></path></g><g id="SvgjsG1109"><path id="SvgjsPath1110" d="M787.25 229.5L867.25 229.5L867.25 229.5L947.25 229.5" stroke="#f37cb0" stroke-width="4" fill="none" marker-end="url(#SvgjsMarker1111)"></path></g><g id="SvgjsG1113" transform="translate(817.25,54.5)"><path id="SvgjsPath1114" d="M 0 0L 100 0L 100 40L 0 40Z" stroke="none" fill="none"></path><g id="SvgjsG1115"><text id="SvgjsText1116" font-family="&quot;Microsoft YaHei&quot;, 微软雅黑, Arial" text-anchor="middle" font-size="13px" width="100px" fill="#323232" font-weight="400" align="middle" lineHeight="125%" anchor="middle" family="&quot;Microsoft YaHei&quot;, 微软雅黑, Arial" size="13px" weight="400" font-style="" opacity="1" y="9.375" transform="rotate(0)"><tspan id="SvgjsTspan1117" dy="16.25" x="50"><tspan id="SvgjsTspan1118" style="">用户线程1</tspan></tspan></text></g></g><g id="SvgjsG1119" transform="translate(817.25,102.5)"><path id="SvgjsPath1120" d="M 0 0L 100 0L 100 40L 0 40Z" stroke="none" fill="none"></path><g id="SvgjsG1121"><text id="SvgjsText1122" font-family="&quot;Microsoft YaHei&quot;, 微软雅黑, Arial" text-anchor="middle" font-size="13px" width="100px" fill="#323232" font-weight="400" align="middle" lineHeight="125%" anchor="middle" family="&quot;Microsoft YaHei&quot;, 微软雅黑, Arial" size="13px" weight="400" font-style="" opacity="1" y="9.375" transform="rotate(0)"><tspan id="SvgjsTspan1123" dy="16.25" x="50"><tspan id="SvgjsTspan1124" style="">用户线程2</tspan></tspan></text></g></g><g id="SvgjsG1125" transform="translate(817.25,150.5)"><path id="SvgjsPath1126" d="M 0 0L 100 0L 100 40L 0 40Z" stroke="none" fill="none"></path><g id="SvgjsG1127"><text id="SvgjsText1128" font-family="&quot;Microsoft YaHei&quot;, 微软雅黑, Arial" text-anchor="middle" font-size="13px" width="100px" fill="#323232" font-weight="400" align="middle" lineHeight="125%" anchor="middle" family="&quot;Microsoft YaHei&quot;, 微软雅黑, Arial" size="13px" weight="400" font-style="" opacity="1" y="9.375" transform="rotate(0)"><tspan id="SvgjsTspan1129" dy="16.25" x="50"><tspan id="SvgjsTspan1130" style="">用户线程3</tspan></tspan></text></g></g><g id="SvgjsG1131" transform="translate(817.25,198.5)"><path id="SvgjsPath1132" d="M 0 0L 100 0L 100 40L 0 40Z" stroke="none" fill="none"></path><g id="SvgjsG1133"><text id="SvgjsText1134" font-family="&quot;Microsoft YaHei&quot;, 微软雅黑, Arial" text-anchor="middle" font-size="13px" width="100px" fill="#323232" font-weight="400" align="middle" lineHeight="125%" anchor="middle" family="&quot;Microsoft YaHei&quot;, 微软雅黑, Arial" size="13px" weight="400" font-style="" opacity="1" y="9.375" transform="rotate(0)"><tspan id="SvgjsTspan1135" dy="16.25" x="50"><tspan id="SvgjsTspan1136" style="">用户线程4</tspan></tspan></text></g></g><g id="SvgjsG1137"><path id="SvgjsPath1138" d="M265.5 147L345.5 147L345.5 147L425.5 147" stroke="#4e1095" stroke-width="6" fill="none" marker-end="url(#SvgjsMarker1139)"></path></g><g id="SvgjsG1141"><path id="SvgjsPath1142" d="M613 147L693 147L693 147L773 147" stroke="#4e1095" stroke-width="6" fill="none" marker-end="url(#SvgjsMarker1143)"></path></g><g id="SvgjsG1145"><path id="SvgjsPath1146" d="M261.25 62.5L261.25 150.5L261.25 150.5L261.25 238.5" stroke="#000000" stroke-width="4" fill="none"></path></g><g id="SvgjsG1147"><path id="SvgjsPath1148" d="M608.75 58.5L608.75 146.5L608.75 146.5L608.75 234.5" stroke="#000000" stroke-width="4" fill="none"></path></g><g id="SvgjsG1149"><path id="SvgjsPath1150" d="M435.75 58.5L435.75 146.5L435.75 146.5L435.75 234.5" stroke="#3119cc" stroke-width="4" fill="none"></path></g><g id="SvgjsG1151"><path id="SvgjsPath1152" d="M783.25 58.5L783.25 146.5L783.25 146.5L783.25 234.5" stroke="#3119cc" stroke-width="4" fill="none"></path></g><g id="SvgjsG1153" transform="translate(297,110.5)"><path id="SvgjsPath1154" d="M 0 0L 100 0L 100 40L 0 40Z" stroke="none" fill="none"></path><g id="SvgjsG1155"><text id="SvgjsText1156" font-family="&quot;Microsoft YaHei&quot;, 微软雅黑, Arial" text-anchor="middle" font-size="13px" width="100px" fill="#323232" font-weight="400" align="middle" lineHeight="125%" anchor="middle" family="&quot;Microsoft YaHei&quot;, 微软雅黑, Arial" size="13px" weight="400" font-style="" opacity="1" y="9.375" transform="rotate(0)"><tspan id="SvgjsTspan1157" dy="16.25" x="50"><tspan id="SvgjsTspan1158" style="">GC线程</tspan></tspan></text></g></g><g id="SvgjsG1159" transform="translate(643.5,110.5)"><path id="SvgjsPath1160" d="M 0 0L 100 0L 100 40L 0 40Z" stroke="none" fill="none"></path><g id="SvgjsG1161"><text id="SvgjsText1162" font-family="&quot;Microsoft YaHei&quot;, 微软雅黑, Arial" text-anchor="middle" font-size="13px" width="100px" fill="#323232" font-weight="400" align="middle" lineHeight="125%" anchor="middle" family="&quot;Microsoft YaHei&quot;, 微软雅黑, Arial" size="13px" weight="400" font-style="" opacity="1" y="9.375" transform="rotate(0)"><tspan id="SvgjsTspan1163" dy="16.25" x="50"><tspan id="SvgjsTspan1164" style="">GC线程</tspan></tspan></text></g></g><g id="SvgjsG1165" transform="translate(286.875,133.5)"><path id="SvgjsPath1166" d="M 0 0L 120.25 0L 120.25 65L 0 65Z" stroke="none" fill="none"></path><g id="SvgjsG1167"><text id="SvgjsText1168" font-family="&quot;Microsoft YaHei&quot;, 微软雅黑, Arial" text-anchor="middle" font-size="13px" width="121px" fill="#323232" font-weight="400" align="middle" lineHeight="125%" anchor="middle" family="&quot;Microsoft YaHei&quot;, 微软雅黑, Arial" size="13px" weight="400" font-style="" opacity="1" y="13.375" transform="rotate(0)"><tspan id="SvgjsTspan1169" dy="16.25" x="60.5"><tspan id="SvgjsTspan1170" style="">新生代采取复制算法</tspan></tspan><tspan id="SvgjsTspan1171" dy="16.25" x="60.5"><tspan id="SvgjsTspan1172" style="">暂停所有用户线程</tspan></tspan></text></g></g><g id="SvgjsG1173" transform="translate(617.0625,150.5)"><path id="SvgjsPath1174" d="M 0 0L 152.875 0L 152.875 40L 0 40Z" stroke="none" fill="none"></path><g id="SvgjsG1175"><text id="SvgjsText1176" font-family="&quot;Microsoft YaHei&quot;, 微软雅黑, Arial" text-anchor="middle" font-size="13px" width="153px" fill="#323232" font-weight="400" align="middle" lineHeight="125%" anchor="middle" family="&quot;Microsoft YaHei&quot;, 微软雅黑, Arial" size="13px" weight="400" font-style="" opacity="1" y="0.875" transform="rotate(0)"><tspan id="SvgjsTspan1177" dy="16.25" x="76.5"><tspan id="SvgjsTspan1178" style="">老年代采取标记-整理算法</tspan></tspan><tspan id="SvgjsTspan1179" dy="16.25" x="76.5"><tspan id="SvgjsTspan1180" style="">暂停所有用户线程</tspan></tspan></text></g></g><g id="SvgjsG1181" transform="translate(212,239)"><path id="SvgjsPath1182" d="M 0 0L 100 0L 100 20L 0 20Z" stroke="none" fill="none"></path><g id="SvgjsG1183"><text id="SvgjsText1184" font-family="&quot;Microsoft YaHei&quot;, 微软雅黑, Arial" text-anchor="middle" font-size="13px" width="100px" fill="#323232" font-weight="400" align="middle" lineHeight="125%" anchor="middle" family="&quot;Microsoft YaHei&quot;, 微软雅黑, Arial" size="13px" weight="400" font-style="" opacity="1" y="-0.625" transform="rotate(0)"><tspan id="SvgjsTspan1185" dy="16.25" x="50"><tspan id="SvgjsTspan1186" style="">Safepoint</tspan></tspan></text></g></g><g id="SvgjsG1187" transform="translate(559,239)"><path id="SvgjsPath1188" d="M 0 0L 100 0L 100 20L 0 20Z" stroke="none" fill="none"></path><g id="SvgjsG1189"><text id="SvgjsText1190" font-family="&quot;Microsoft YaHei&quot;, 微软雅黑, Arial" text-anchor="middle" font-size="13px" width="100px" fill="#323232" font-weight="400" align="middle" lineHeight="125%" anchor="middle" family="&quot;Microsoft YaHei&quot;, 微软雅黑, Arial" size="13px" weight="400" font-style="" opacity="1" y="-0.625" transform="rotate(0)"><tspan id="SvgjsTspan1191" dy="16.25" x="50"><tspan id="SvgjsTspan1192" style="">Safepoint</tspan></tspan></text></g></g><g id="SvgjsG1193" transform="translate(40.25,74.5)"><path id="SvgjsPath1194" d="M 0 0L 49.75 0L 49.75 20L 0 20Z" stroke="none" fill="none"></path><g id="SvgjsG1195"><text id="SvgjsText1196" font-family="&quot;Microsoft YaHei&quot;, 微软雅黑, Arial" text-anchor="middle" font-size="13px" width="50px" fill="#323232" font-weight="400" align="middle" lineHeight="125%" anchor="middle" family="&quot;Microsoft YaHei&quot;, 微软雅黑, Arial" size="13px" weight="400" font-style="" opacity="1" y="-0.625" transform="rotate(0)"><tspan id="SvgjsTspan1197" dy="16.25" x="25"><tspan id="SvgjsTspan1198" style="">CPU 0</tspan></tspan></text></g></g><g id="SvgjsG1199" transform="translate(40.25,114.5)"><path id="SvgjsPath1200" d="M 0 0L 49.75 0L 49.75 40L 0 40Z" stroke="none" fill="none"></path><g id="SvgjsG1201"><text id="SvgjsText1202" font-family="&quot;Microsoft YaHei&quot;, 微软雅黑, Arial" text-anchor="middle" font-size="13px" width="50px" fill="#323232" font-weight="400" align="middle" lineHeight="125%" anchor="middle" family="&quot;Microsoft YaHei&quot;, 微软雅黑, Arial" size="13px" weight="400" font-style="" opacity="1" y="9.375" transform="rotate(0)"><tspan id="SvgjsTspan1203" dy="16.25" x="25"><tspan id="SvgjsTspan1204" style="">CPU 1</tspan></tspan></text></g></g><g id="SvgjsG1205" transform="translate(40.25,162.5)"><path id="SvgjsPath1206" d="M 0 0L 49.75 0L 49.75 40L 0 40Z" stroke="none" fill="none"></path><g id="SvgjsG1207"><text id="SvgjsText1208" font-family="&quot;Microsoft YaHei&quot;, 微软雅黑, Arial" text-anchor="middle" font-size="13px" width="50px" fill="#323232" font-weight="400" align="middle" lineHeight="125%" anchor="middle" family="&quot;Microsoft YaHei&quot;, 微软雅黑, Arial" size="13px" weight="400" font-style="" opacity="1" y="9.375" transform="rotate(0)"><tspan id="SvgjsTspan1209" dy="16.25" x="25"><tspan id="SvgjsTspan1210" style="">CPU 2</tspan></tspan></text></g></g><g id="SvgjsG1211" transform="translate(40.25,207.5)"><path id="SvgjsPath1212" d="M 0 0L 49.75 0L 49.75 40L 0 40Z" stroke="none" fill="none"></path><g id="SvgjsG1213"><text id="SvgjsText1214" font-family="&quot;Microsoft YaHei&quot;, 微软雅黑, Arial" text-anchor="middle" font-size="13px" width="50px" fill="#323232" font-weight="400" align="middle" lineHeight="125%" anchor="middle" family="&quot;Microsoft YaHei&quot;, 微软雅黑, Arial" size="13px" weight="400" font-style="" opacity="1" y="9.375" transform="rotate(0)"><tspan id="SvgjsTspan1215" dy="16.25" x="25"><tspan id="SvgjsTspan1216" style="">CPU 3</tspan></tspan></text></g></g><g id="SvgjsG1217"></g></svg>