<svg id="SvgjsSvg3526" width="1345.651422764228" height="514.3878470624331" xmlns="http://www.w3.org/2000/svg" version="1.1" xmlns:xlink="http://www.w3.org/1999/xlink" xmlns:svgjs="http://svgjs.com/svgjs"><defs id="SvgjsDefs3527"><pattern patternUnits="userSpaceOnUse" id="pattern_mark_0" width="300" height="300"><text x="150" y="100" fill="rgba(229,229,229,0.8)" font-size="18" transform="rotate(-45, 150, 150)" style="dominant-baseline: middle; text-anchor: middle;"></text></pattern><pattern patternUnits="userSpaceOnUse" id="pattern_mark_1" width="300" height="300"><text x="150" y="200" fill="rgba(229,229,229,0.8)" font-size="18" transform="rotate(-45, 150, 150)" style="dominant-baseline: middle; text-anchor: middle;"></text></pattern><marker id="SvgjsMarker3537" markerWidth="13" markerHeight="9" refX="9.5" refY="4.5" viewBox="0 0 13 9" orient="auto" markerUnits="userSpaceOnUse" stroke-dasharray="0,0"><path id="SvgjsPath3538" d="M0,0 L13,4.5 L0,9 L0,0" fill="#323232" stroke="#323232" stroke-width="1"></path></marker><marker id="SvgjsMarker3639" markerWidth="13" markerHeight="9" refX="9.5" refY="4.5" viewBox="0 0 13 9" orient="auto" markerUnits="userSpaceOnUse" stroke-dasharray="0,0"><path id="SvgjsPath3640" d="M0,0 L13,4.5 L0,9 L0,0" fill="#323232" stroke="#323232" stroke-width="1"></path></marker><marker id="SvgjsMarker3643" markerWidth="13" markerHeight="9" refX="9.5" refY="4.5" viewBox="0 0 13 9" orient="auto" markerUnits="userSpaceOnUse" stroke-dasharray="0,0"><path id="SvgjsPath3644" d="M0,0 L13,4.5 L0,9 L0,0" fill="#323232" stroke="#323232" stroke-width="1"></path></marker><marker id="SvgjsMarker3647" markerWidth="13" markerHeight="9" refX="9.5" refY="4.5" viewBox="0 0 13 9" orient="auto" markerUnits="userSpaceOnUse" stroke-dasharray="0,0"><path id="SvgjsPath3648" d="M0,0 L13,4.5 L0,9 L0,0" fill="#323232" stroke="#323232" stroke-width="1"></path></marker><marker id="SvgjsMarker3651" markerWidth="13" markerHeight="9" refX="9.5" refY="4.5" viewBox="0 0 13 9" orient="auto" markerUnits="userSpaceOnUse" stroke-dasharray="0,0"><path id="SvgjsPath3652" d="M0,0 L13,4.5 L0,9 L0,0" fill="#323232" stroke="#323232" stroke-width="1"></path></marker><marker id="SvgjsMarker3655" markerWidth="13" markerHeight="9" refX="3.5" refY="4.5" viewBox="0 0 13 9" orient="auto" markerUnits="userSpaceOnUse" stroke-dasharray="0,0"><path id="SvgjsPath3656" d="M13,0 L0,4.5 L13,9 L13,0" fill="#323232" stroke="#323232" stroke-width="1"></path></marker><marker id="SvgjsMarker3663" markerWidth="13" markerHeight="9" refX="9.5" refY="4.5" viewBox="0 0 13 9" orient="auto" markerUnits="userSpaceOnUse" stroke-dasharray="0,0"><path id="SvgjsPath3664" d="M0,0 L13,4.5 L0,9 L0,0" fill="#323232" stroke="#323232" stroke-width="1"></path></marker><marker id="SvgjsMarker3671" markerWidth="13" markerHeight="9" refX="3.5" refY="4.5" viewBox="0 0 13 9" orient="auto" markerUnits="userSpaceOnUse" stroke-dasharray="0,0"><path id="SvgjsPath3672" d="M13,0 L0,4.5 L13,9 L13,0" fill="#323232" stroke="#323232" stroke-width="1"></path></marker><marker id="SvgjsMarker3673" markerWidth="16" markerHeight="16" refX="13" refY="8" viewBox="0 0 16 16" orient="auto" markerUnits="userSpaceOnUse" stroke-dasharray="0,0"><circle id="SvgjsCircle3674" r="4" cx="8" cy="8" fill="#323232" stroke="#323232" stroke-width="1.5"></circle></marker><marker id="SvgjsMarker3773" markerWidth="13" markerHeight="9" refX="9.5" refY="4.5" viewBox="0 0 13 9" orient="auto" markerUnits="userSpaceOnUse" stroke-dasharray="0,0"><path id="SvgjsPath3774" d="M0,0 L13,4.5 L0,9 L0,0" fill="#323232" stroke="#323232" stroke-width="1"></path></marker><marker id="SvgjsMarker3777" markerWidth="13" markerHeight="9" refX="9.5" refY="4.5" viewBox="0 0 13 9" orient="auto" markerUnits="userSpaceOnUse" stroke-dasharray="0,0"><path id="SvgjsPath3778" d="M0,0 L13,4.5 L0,9 L0,0" fill="#323232" stroke="#323232" stroke-width="1"></path></marker><marker id="SvgjsMarker3781" markerWidth="13" markerHeight="9" refX="9.5" refY="4.5" viewBox="0 0 13 9" orient="auto" markerUnits="userSpaceOnUse" stroke-dasharray="0,0"><path id="SvgjsPath3782" d="M0,0 L13,4.5 L0,9 L0,0" fill="#323232" stroke="#323232" stroke-width="1"></path></marker><marker id="SvgjsMarker3785" markerWidth="13" markerHeight="9" refX="9.5" refY="4.5" viewBox="0 0 13 9" orient="auto" markerUnits="userSpaceOnUse" stroke-dasharray="0,0"><path id="SvgjsPath3786" d="M0,0 L13,4.5 L0,9 L0,0" fill="#323232" stroke="#323232" stroke-width="1"></path></marker><marker id="SvgjsMarker3789" markerWidth="13" markerHeight="9" refX="9.5" refY="4.5" viewBox="0 0 13 9" orient="auto" markerUnits="userSpaceOnUse" stroke-dasharray="0,0"><path id="SvgjsPath3790" d="M0,0 L13,4.5 L0,9 L0,0" fill="#323232" stroke="#323232" stroke-width="1"></path></marker><marker id="SvgjsMarker3793" markerWidth="13" markerHeight="9" refX="9.5" refY="4.5" viewBox="0 0 13 9" orient="auto" markerUnits="userSpaceOnUse" stroke-dasharray="0,0"><path id="SvgjsPath3794" d="M0,0 L13,4.5 L0,9 L0,0" fill="#323232" stroke="#323232" stroke-width="1"></path></marker><marker id="SvgjsMarker3797" markerWidth="13" markerHeight="9" refX="9.5" refY="4.5" viewBox="0 0 13 9" orient="auto" markerUnits="userSpaceOnUse" stroke-dasharray="0,0"><path id="SvgjsPath3798" d="M0,0 L13,4.5 L0,9 L0,0" fill="#323232" stroke="#323232" stroke-width="1"></path></marker><marker id="SvgjsMarker3801" markerWidth="13" markerHeight="9" refX="9.5" refY="4.5" viewBox="0 0 13 9" orient="auto" markerUnits="userSpaceOnUse" stroke-dasharray="0,0"><path id="SvgjsPath3802" d="M0,0 L13,4.5 L0,9 L0,0" fill="#323232" stroke="#323232" stroke-width="1"></path></marker><marker id="SvgjsMarker3805" markerWidth="13" markerHeight="9" refX="9.5" refY="4.5" viewBox="0 0 13 9" orient="auto" markerUnits="userSpaceOnUse" stroke-dasharray="0,0"><path id="SvgjsPath3806" d="M0,0 L13,4.5 L0,9 L0,0" fill="#323232" stroke="#323232" stroke-width="1"></path></marker><marker id="SvgjsMarker3809" markerWidth="13" markerHeight="9" refX="9.5" refY="4.5" viewBox="0 0 13 9" orient="auto" markerUnits="userSpaceOnUse" stroke-dasharray="0,0"><path id="SvgjsPath3810" d="M0,0 L13,4.5 L0,9 L0,0" fill="#323232" stroke="#323232" stroke-width="1"></path></marker><marker id="SvgjsMarker3813" markerWidth="13" markerHeight="9" refX="3.5" refY="4.5" viewBox="0 0 13 9" orient="auto" markerUnits="userSpaceOnUse" stroke-dasharray="0,0"><path id="SvgjsPath3814" d="M13,0 L0,4.5 L13,9 L13,0" fill="#323232" stroke="#323232" stroke-width="1"></path></marker><marker id="SvgjsMarker3815" markerWidth="13" markerHeight="9" refX="9.5" refY="4.5" viewBox="0 0 13 9" orient="auto" markerUnits="userSpaceOnUse" stroke-dasharray="0,0"><path id="SvgjsPath3816" d="M0,0 L13,4.5 L0,9 L0,0" fill="#323232" stroke="#323232" stroke-width="1"></path></marker><marker id="SvgjsMarker3821" markerWidth="13" markerHeight="9" refX="3.5" refY="4.5" viewBox="0 0 13 9" orient="auto" markerUnits="userSpaceOnUse" stroke-dasharray="0,0"><path id="SvgjsPath3822" d="M13,0 L0,4.5 L13,9 L13,0" fill="#323232" stroke="#323232" stroke-width="1"></path></marker><marker id="SvgjsMarker3827" markerWidth="13" markerHeight="9" refX="9.5" refY="4.5" viewBox="0 0 13 9" orient="auto" markerUnits="userSpaceOnUse" stroke-dasharray="0,0"><path id="SvgjsPath3828" d="M0,0 L13,4.5 L0,9 L0,0" fill="#323232" stroke="#323232" stroke-width="1"></path></marker><marker id="SvgjsMarker3841" markerWidth="16" markerHeight="12" refX="11" refY="6" viewBox="0 0 16 12" orient="auto" markerUnits="userSpaceOnUse" stroke-dasharray="0,0"><path id="SvgjsPath3842" d="M0,0 L16,6 L0,12 L0,0" fill="#a7932c" stroke="#a7932c" stroke-width="1"></path></marker><marker id="SvgjsMarker3845" markerWidth="16" markerHeight="12" refX="11" refY="6" viewBox="0 0 16 12" orient="auto" markerUnits="userSpaceOnUse" stroke-dasharray="0,0"><path id="SvgjsPath3846" d="M0,0 L16,6 L0,12 L0,0" fill="#a7932c" stroke="#a7932c" stroke-width="1"></path></marker><marker id="SvgjsMarker3849" markerWidth="16" markerHeight="12" refX="11" refY="6" viewBox="0 0 16 12" orient="auto" markerUnits="userSpaceOnUse" stroke-dasharray="0,0"><path id="SvgjsPath3850" d="M0,0 L16,6 L0,12 L0,0" fill="#5b79e8" stroke="#5b79e8" stroke-width="1"></path></marker></defs><rect id="svgbackgroundid" width="1345.651422764228" height="514.3878470624331" fill="transparent"></rect><rect id="SvgjsRect3529" width="1345.651422764228" height="514.3878470624331" fill="url(#pattern_mark_0)"></rect><rect id="SvgjsRect3530" width="1345.651422764228" height="514.3878470624331" fill="url(#pattern_mark_1)"></rect><g id="SvgjsG3531" transform="translate(925.8831300813007,277.55547246510196)"><path id="SvgjsPath3532" d="M 0 0L 105.43902439024373 0L 105.43902439024373 187.21855345911962L 0 187.21855345911962Z" stroke="rgba(167,147,44,1)" stroke-width="3" fill-opacity="1" fill="#ffffff"></path><g id="SvgjsG3533"><text id="SvgjsText3534" font-family="微软雅黑" text-anchor="middle" font-size="13px" width="86px" fill="#323232" font-weight="400" align="middle" lineHeight="125%" anchor="middle" family="微软雅黑" size="13px" weight="400" font-style="" opacity="1" y="82.98427672955981" transform="rotate(0)"></text></g></g><g id="SvgjsG3535"><path id="SvgjsPath3536" d="M1225.6105646240906 104.55605380142697L980.9197154471545 398.45020325203257" stroke-dasharray="10,5,3,5" stroke="#323232" stroke-width="1.5" fill="none" marker-end="url(#SvgjsMarker3537)"></path></g><g id="SvgjsG3539" transform="translate(925.8831300813009,77.16666666666667)"><path id="SvgjsPath3540" d="M 0 0L 105.43902439024373 0L 105.43902439024373 187.21855345911962L 0 187.21855345911962Z" stroke="rgba(167,147,44,1)" stroke-width="3" fill-opacity="1" fill="#ffffff"></path><g id="SvgjsG3541"><text id="SvgjsText3542" font-family="微软雅黑" text-anchor="middle" font-size="13px" width="86px" fill="#323232" font-weight="400" align="middle" lineHeight="125%" anchor="middle" family="微软雅黑" size="13px" weight="400" font-style="" opacity="1" y="82.98427672955981" transform="rotate(0)"></text></g></g><g id="SvgjsG3543" transform="translate(930.6026422764227,282.94165132689074)"><path id="SvgjsPath3544" d="M 0 4Q 0 0 4 0L 92 0Q 96 0 96 4L 96 172.44619573554235Q 96 176.44619573554235 92 176.44619573554235L 4 176.44619573554235Q 0 176.44619573554235 0 172.44619573554235Z" stroke="rgba(255,255,255,1)" stroke-width="1.5" fill-opacity="1" fill="#fcf9ea"></path><g id="SvgjsG3545"><text id="SvgjsText3546" font-family="微软雅黑" text-anchor="middle" font-size="13px" width="76px" fill="#323232" font-weight="400" align="middle" lineHeight="125%" anchor="middle" family="微软雅黑" size="13px" weight="400" font-style="" opacity="1" y="77.59809786777117" transform="rotate(0)"></text></g></g><g id="SvgjsG3547" transform="translate(930.6026422764227,82.55284552845528)"><path id="SvgjsPath3548" d="M 0 4Q 0 0 4 0L 92 0Q 96 0 96 4L 96 172.44619573554235Q 96 176.44619573554235 92 176.44619573554235L 4 176.44619573554235Q 0 176.44619573554235 0 172.44619573554235Z" stroke="rgba(255,255,255,1)" stroke-width="1.5" fill-opacity="1" fill="#fcf9ea"></path><g id="SvgjsG3549"><text id="SvgjsText3550" font-family="微软雅黑" text-anchor="middle" font-size="13px" width="76px" fill="#323232" font-weight="400" align="middle" lineHeight="125%" anchor="middle" family="微软雅黑" size="13px" weight="400" font-style="" opacity="1" y="77.59809786777117" transform="rotate(0)"></text></g></g><g id="SvgjsG3551" transform="translate(25.000000000000057,77.16666666666669)"><path id="SvgjsPath3552" d="M 0 4Q 0 0 4 0L 349.12500000000006 0Q 353.12500000000006 0 353.12500000000006 4L 353.12500000000006 366.75Q 353.12500000000006 370.75 349.12500000000006 370.75L 4 370.75Q 0 370.75 0 366.75Z" stroke="rgba(233,214,111,1)" stroke-width="1.5" fill-opacity="1" fill="#ffffff"></path><g id="SvgjsG3553"><text id="SvgjsText3554" font-family="微软雅黑" text-anchor="middle" font-size="13px" width="334px" fill="#323232" font-weight="400" align="middle" lineHeight="125%" anchor="middle" family="微软雅黑" size="13px" weight="400" font-style="" opacity="1" y="174.75" transform="rotate(0)"></text></g></g><g id="SvgjsG3555" transform="translate(33.70204402515722,161.187893081761)"><path id="SvgjsPath3556" d="M 0 0L 184.92924528301887 0L 184.92924528301887 154.995283018868L 0 154.995283018868Z" stroke="rgba(233,214,111,1)" stroke-width="1.5" fill-opacity="1" fill="#ffffff"></path><g id="SvgjsG3557"><text id="SvgjsText3558" font-family="微软雅黑" text-anchor="middle" font-size="13px" width="165px" fill="#323232" font-weight="400" align="middle" lineHeight="125%" anchor="middle" family="微软雅黑" size="13px" weight="400" font-style="" opacity="1" y="66.872641509434" transform="rotate(0)"></text></g></g><g id="SvgjsG3559" transform="translate(25,25.000000000000004)"><path id="SvgjsPath3560" d="M 7.986111111111112 0L 345.1388888888889 0C 355.787037037037 0 355.787037037037 23.958333333333336 345.1388888888889 23.958333333333336L 7.986111111111112 23.958333333333336C -2.662037037037037 23.958333333333336 -2.662037037037037 0 7.986111111111112 0Z" stroke="rgba(233,214,111,1)" stroke-width="1.5" fill-opacity="1" fill="#ffffff"></path><g id="SvgjsG3561"><text id="SvgjsText3562" font-family="微软雅黑" text-anchor="middle" font-size="13px" width="334px" fill="#e9d66f" font-weight="400" align="middle" lineHeight="125%" anchor="middle" family="微软雅黑" size="13px" weight="400" font-style="" opacity="1" y="1.3541666666666679" transform="rotate(0)"><tspan id="SvgjsTspan3563" dy="16.25" x="177"><tspan id="SvgjsTspan3564" style="">线程工作内存</tspan></tspan></text></g></g><g id="SvgjsG3565" transform="translate(468.75,25)"><path id="SvgjsPath3566" d="M 7.986111111111112 0L 204.51388888888889 0C 215.16203703703704 0 215.16203703703704 23.958333333333336 204.51388888888889 23.958333333333336L 7.986111111111112 23.958333333333336C -2.662037037037037 23.958333333333336 -2.662037037037037 0 7.986111111111112 0Z" stroke="rgba(233,214,111,1)" stroke-width="1.5" fill-opacity="1" fill="#ffffff"></path><g id="SvgjsG3567"><text id="SvgjsText3568" font-family="微软雅黑" text-anchor="middle" font-size="13px" width="193px" fill="#e9d66f" font-weight="400" align="middle" lineHeight="125%" anchor="middle" family="微软雅黑" size="13px" weight="400" font-style="" opacity="1" y="1.3541666666666679" transform="rotate(0)"><tspan id="SvgjsTspan3569" dy="16.25" x="106.5"><tspan id="SvgjsTspan3570" style="">主内存</tspan></tspan></text></g></g><g id="SvgjsG3571" transform="translate(468.75,77.16666666666667)"><path id="SvgjsPath3572" d="M 0 4Q 0 0 4 0L 208.5 0Q 212.5 0 212.5 4L 212.5 366.75Q 212.5 370.75 208.5 370.75L 4 370.75Q 0 370.75 0 366.75Z" stroke="rgba(233,214,111,1)" stroke-width="1.5" fill-opacity="1" fill="#ffffff"></path><g id="SvgjsG3573"><text id="SvgjsText3574" font-family="微软雅黑" text-anchor="middle" font-size="13px" width="193px" fill="#323232" font-weight="400" align="middle" lineHeight="125%" anchor="middle" family="微软雅黑" size="13px" weight="400" font-style="" opacity="1" y="174.75" transform="rotate(0)"></text></g></g><g id="SvgjsG3575" transform="translate(49.04166666666666,103.20833333333336)"><path id="SvgjsPath3576" d="M 0 0L 154.25000000000003 0L 154.25000000000003 33.25L 0 33.25Z" stroke="rgba(33,41,48,1)" stroke-width="1.5" fill-opacity="1" fill="#95da69"></path><g id="SvgjsG3577"><text id="SvgjsText3578" font-family="微软雅黑" text-anchor="middle" font-size="13px" width="135px" fill="#ffffff" font-weight="400" align="middle" lineHeight="125%" anchor="middle" family="微软雅黑" size="13px" weight="400" font-style="" opacity="1" y="6" transform="rotate(0)"><tspan id="SvgjsTspan3579" dy="16.25" x="77.5"><tspan id="SvgjsTspan3580" style="">数据读取到本地内存</tspan></tspan></text></g></g><g id="SvgjsG3581" transform="translate(49.04166666666666,173.72720125786165)"><path id="SvgjsPath3582" d="M 0 0L 154.25000000000003 0L 154.25000000000003 33.25L 0 33.25Z" stroke="rgba(33,41,48,1)" stroke-width="1.5" fill-opacity="1" fill="#95da69"></path><g id="SvgjsG3583"><text id="SvgjsText3584" font-family="微软雅黑" text-anchor="middle" font-size="13px" width="135px" fill="#ffffff" font-weight="400" align="middle" lineHeight="125%" anchor="middle" family="微软雅黑" size="13px" weight="400" font-style="" opacity="1" y="6" transform="rotate(0)"><tspan id="SvgjsTspan3585" dy="16.25" x="77.5"><tspan id="SvgjsTspan3586" style="">数据加载</tspan></tspan></text></g></g><g id="SvgjsG3587" transform="translate(49.04166666666666,222.060534591195)"><path id="SvgjsPath3588" d="M 0 0L 154.25000000000003 0L 154.25000000000003 33.25L 0 33.25Z" stroke="rgba(33,41,48,1)" stroke-width="1.5" fill-opacity="1" fill="#95da69"></path><g id="SvgjsG3589"><text id="SvgjsText3590" font-family="微软雅黑" text-anchor="middle" font-size="13px" width="135px" fill="#ffffff" font-weight="400" align="middle" lineHeight="125%" anchor="middle" family="微软雅黑" size="13px" weight="400" font-style="" opacity="1" y="6" transform="rotate(0)"><tspan id="SvgjsTspan3591" dy="16.25" x="77.5"><tspan id="SvgjsTspan3592" style="">数据计算</tspan></tspan></text></g></g><g id="SvgjsG3593" transform="translate(49.04166666666666,270.39386792452837)"><path id="SvgjsPath3594" d="M 0 0L 154.25000000000003 0L 154.25000000000003 33.25L 0 33.25Z" stroke="rgba(33,41,48,1)" stroke-width="1.5" fill-opacity="1" fill="#95da69"></path><g id="SvgjsG3595"><text id="SvgjsText3596" font-family="微软雅黑" text-anchor="middle" font-size="13px" width="135px" fill="#ffffff" font-weight="400" align="middle" lineHeight="125%" anchor="middle" family="微软雅黑" size="13px" weight="400" font-style="" opacity="1" y="6" transform="rotate(0)"><tspan id="SvgjsTspan3597" dy="16.25" x="77.5"><tspan id="SvgjsTspan3598" style="">数据赋值</tspan></tspan></text></g></g><g id="SvgjsG3599" transform="translate(49.04166666666666,339.6136006289309)"><path id="SvgjsPath3600" d="M 0 0L 154.25000000000003 0L 154.25000000000003 33.25L 0 33.25Z" stroke="rgba(33,41,48,1)" stroke-width="1.5" fill-opacity="1" fill="#95da69"></path><g id="SvgjsG3601"><text id="SvgjsText3602" font-family="微软雅黑" text-anchor="middle" font-size="13px" width="135px" fill="#ffffff" font-weight="400" align="middle" lineHeight="125%" anchor="middle" family="微软雅黑" size="13px" weight="400" font-style="" opacity="1" y="6" transform="rotate(0)"><tspan id="SvgjsTspan3603" dy="16.25" x="77.5"><tspan id="SvgjsTspan3604" style="">数据保存到本地</tspan></tspan></text></g></g><g id="SvgjsG3605" transform="translate(49.04166666666666,408.83333333333337)"><path id="SvgjsPath3606" d="M 0 0L 154.25000000000003 0L 154.25000000000003 33.25L 0 33.25Z" stroke="rgba(33,41,48,1)" stroke-width="1.5" fill-opacity="1" fill="#95da69"></path><g id="SvgjsG3607"><text id="SvgjsText3608" font-family="微软雅黑" text-anchor="middle" font-size="13px" width="135px" fill="#ffffff" font-weight="400" align="middle" lineHeight="125%" anchor="middle" family="微软雅黑" size="13px" weight="400" font-style="" opacity="1" y="6" transform="rotate(0)"><tspan id="SvgjsTspan3609" dy="16.25" x="77.5"><tspan id="SvgjsTspan3610" style="">数据写入主内存</tspan></tspan></text></g></g><g id="SvgjsG3611" transform="translate(259.06053459119494,171.56525157232704)"><path id="SvgjsPath3612" d="M 0 0L 31.1320754716981 0L 31.1320754716981 134.24056603773596L 0 134.24056603773596Z" stroke="rgba(33,41,48,1)" stroke-width="1.5" fill-opacity="1" fill="#ffffff"></path><g id="SvgjsG3613"><text id="SvgjsText3614" font-family="微软雅黑" text-anchor="middle" font-size="13px" width="12px" fill="#f1ac6a" font-weight="400" align="middle" lineHeight="125%" anchor="middle" family="微软雅黑" size="13px" weight="400" font-style="" opacity="1" y="-0.5047169811320202" transform="rotate(0)"><tspan id="SvgjsTspan3615" dy="16.25" x="16"><tspan id="SvgjsTspan3616" style="">这</tspan></tspan><tspan id="SvgjsTspan3617" dy="16.25" x="16"><tspan id="SvgjsTspan3618" style="">三</tspan></tspan><tspan id="SvgjsTspan3619" dy="16.25" x="16"><tspan id="SvgjsTspan3620" style="">步</tspan></tspan><tspan id="SvgjsTspan3621" dy="16.25" x="16"><tspan id="SvgjsTspan3622" style="">非</tspan></tspan><tspan id="SvgjsTspan3623" dy="16.25" x="16"><tspan id="SvgjsTspan3624" style="">原</tspan></tspan><tspan id="SvgjsTspan3625" dy="16.25" x="16"><tspan id="SvgjsTspan3626" style="">子</tspan></tspan><tspan id="SvgjsTspan3627" dy="16.25" x="16"><tspan id="SvgjsTspan3628" style="">操</tspan></tspan><tspan id="SvgjsTspan3629" dy="16.25" x="16"><tspan id="SvgjsTspan3630" style="">作</tspan></tspan></text></g></g><g id="SvgjsG3631" transform="translate(497.875,222.06053459119502)"><path id="SvgjsPath3632" d="M 0 0L 154.25000000000003 0L 154.25000000000003 33.25L 0 33.25Z" stroke="rgba(33,41,48,1)" stroke-width="1.5" fill-opacity="1" fill="#95da69"></path><g id="SvgjsG3633"><text id="SvgjsText3634" font-family="微软雅黑" text-anchor="middle" font-size="13px" width="135px" fill="#ffffff" font-weight="400" align="middle" lineHeight="125%" anchor="middle" family="微软雅黑" size="13px" weight="400" font-style="" opacity="1" y="6" transform="rotate(0)"><tspan id="SvgjsTspan3635" dy="16.25" x="77.5"><tspan id="SvgjsTspan3636" style="">count变量</tspan></tspan></text></g></g><g id="SvgjsG3637"><path id="SvgjsPath3638" d="M126.16666666666666 137.20833333333334L126.16666666666666 158.487893081761" stroke="#323232" stroke-width="1.5" fill="none" marker-end="url(#SvgjsMarker3639)"></path></g><g id="SvgjsG3641"><path id="SvgjsPath3642" d="M126.16666666666666 316.93317610062905L126.16666666666666 336.9136006289309" stroke="#323232" stroke-width="1.5" fill="none" marker-end="url(#SvgjsMarker3643)"></path></g><g id="SvgjsG3645"><path id="SvgjsPath3646" d="M126.16666666666666 373.6136006289309L126.16666666666666 406.1333333333334" stroke="#323232" stroke-width="1.5" fill="none" marker-end="url(#SvgjsMarker3647)"></path></g><g id="SvgjsG3649"><path id="SvgjsPath3650" d="M258.31053459119494 238.68553459119502L221.33128930817608 238.68553459119502" stroke="#323232" stroke-width="1.5" fill="none" marker-end="url(#SvgjsMarker3651)"></path></g><g id="SvgjsG3653"><path id="SvgjsPath3654" d="M205.79555636034914 120.84354935076261L497.17947508508814 238.404919030798" stroke="#323232" stroke-width="1.5" fill="none" marker-start="url(#SvgjsMarker3655)"></path><rect id="SvgjsRect3657" width="104" height="16" x="319.22451160882565" y="179.58729639371498" fill="#ffffff"></rect><text id="SvgjsText3658" font-family="微软雅黑" text-anchor="middle" font-size="13px" width="104px" fill="#323232" font-weight="400" align="top" lineHeight="16px" anchor="middle" family="微软雅黑" size="13px" weight="400" font-style="" opacity="1" y="176.96229639371498" transform="rotate(0)"><tspan id="SvgjsTspan3659" dy="16.25" x="371.22451160882565"><tspan id="SvgjsTspan3660" style="">读取到本地内存中</tspan></tspan></text></g><g id="SvgjsG3661"><path id="SvgjsPath3662" d="M203.92508324758776 425.05673224392467L495.5947003086841 240.13129851306627" stroke="#323232" stroke-width="1.5" fill="none" marker-end="url(#SvgjsMarker3663)"></path><rect id="SvgjsRect3665" width="91" height="16" x="330.54859438002006" y="307.9263563337872" fill="#ffffff"></rect><text id="SvgjsText3666" font-family="微软雅黑" text-anchor="middle" font-size="13px" width="91px" fill="#323232" font-weight="400" align="top" lineHeight="16px" anchor="middle" family="微软雅黑" size="13px" weight="400" font-style="" opacity="1" y="305.3013563337872" transform="rotate(0)"><tspan id="SvgjsTspan3667" dy="16.25" x="376.04859438002006"><tspan id="SvgjsTspan3668" style="">同步到主内存中</tspan></tspan></text></g><g id="SvgjsG3669"><path id="SvgjsPath3670" d="M654.825 238.68553459119502L818.724593495935 238.68553459119502" stroke="#323232" stroke-width="1.5" fill="none" marker-start="url(#SvgjsMarker3671)" marker-end="url(#SvgjsMarker3673)"></path><rect id="SvgjsRect3675" width="104" height="16" x="690.1030533301555" y="230.68553459119502" fill="#ffffff"></rect><text id="SvgjsText3676" font-family="微软雅黑" text-anchor="middle" font-size="13px" width="104px" fill="#323232" font-weight="400" align="top" lineHeight="16px" anchor="middle" family="微软雅黑" size="13px" weight="400" font-style="" opacity="1" y="228.06053459119502" transform="rotate(0)"><tspan id="SvgjsTspan3677" dy="16.25" x="742.1030533301555"><tspan id="SvgjsTspan3678" style="">其他线程变更该值</tspan></tspan></text></g><g id="SvgjsG3679" transform="translate(932.0416666666666,25)"><path id="SvgjsPath3680" d="M 0 4Q 0 0 4 0L 89.12195121951231 0Q 93.12195121951231 0 93.12195121951231 4L 93.12195121951231 38.85365853658537Q 93.12195121951231 42.85365853658537 89.12195121951231 42.85365853658537L 4 42.85365853658537Q 0 42.85365853658537 0 38.85365853658537Z" stroke="rgba(33,41,48,1)" stroke-width="1.5" fill-opacity="1" fill="#a6aef3"></path><g id="SvgjsG3681"><text id="SvgjsText3682" font-family="微软雅黑" text-anchor="middle" font-size="13px" width="74px" fill="#323232" font-weight="700" align="middle" lineHeight="125%" anchor="middle" family="微软雅黑" size="13px" weight="700" font-style="" opacity="1" y="10.801829268292686" transform="rotate(0)"><tspan id="SvgjsTspan3683" dy="16.25" x="47"><tspan id="SvgjsTspan3684" style="">线程1</tspan></tspan></text></g></g><g id="SvgjsG3685" transform="translate(1226.0904471544718,25.000000000000004)"><path id="SvgjsPath3686" d="M 0 4Q 0 0 4 0L 89.12195121951231 0Q 93.12195121951231 0 93.12195121951231 4L 93.12195121951231 38.85365853658537Q 93.12195121951231 42.85365853658537 89.12195121951231 42.85365853658537L 4 42.85365853658537Q 0 42.85365853658537 0 38.85365853658537Z" stroke="rgba(33,41,48,1)" stroke-width="1.5" fill-opacity="1" fill="#a6aef3"></path><g id="SvgjsG3687"><text id="SvgjsText3688" font-family="微软雅黑" text-anchor="middle" font-size="13px" width="74px" fill="#323232" font-weight="700" align="middle" lineHeight="125%" anchor="middle" family="微软雅黑" size="13px" weight="700" font-style="" opacity="1" y="10.801829268292686" transform="rotate(0)"><tspan id="SvgjsTspan3689" dy="16.25" x="47"><tspan id="SvgjsTspan3690" style="">线程1</tspan></tspan></text></g></g><g id="SvgjsG3691" transform="translate(932.0416666666666,82.5528455284553)"><path id="SvgjsPath3692" d="M 0 4Q 0 0 4 0L 89.12195121951231 0Q 93.12195121951231 0 93.12195121951231 4L 93.12195121951231 38.85365853658537Q 93.12195121951231 42.85365853658537 89.12195121951231 42.85365853658537L 4 42.85365853658537Q 0 42.85365853658537 0 38.85365853658537Z" stroke="rgba(255,255,255,1)" stroke-width="1.5" fill-opacity="1" fill="#f6edc1"></path><g id="SvgjsG3693"><text id="SvgjsText3694" font-family="微软雅黑" text-anchor="middle" font-size="13px" width="74px" fill="#323232" font-weight="700" align="middle" lineHeight="125%" anchor="middle" family="微软雅黑" size="13px" weight="700" font-style="" opacity="1" y="10.801829268292686" transform="rotate(0)"><tspan id="SvgjsTspan3695" dy="16.25" x="47"><tspan id="SvgjsTspan3696" style="">read</tspan></tspan></text></g></g><g id="SvgjsG3697" transform="translate(932.0416666666666,149.34911412793375)"><path id="SvgjsPath3698" d="M 0 4Q 0 0 4 0L 89.12195121951231 0Q 93.12195121951231 0 93.12195121951231 4L 93.12195121951231 38.85365853658537Q 93.12195121951231 42.85365853658537 89.12195121951231 42.85365853658537L 4 42.85365853658537Q 0 42.85365853658537 0 38.85365853658537Z" stroke="rgba(255,255,255,1)" stroke-width="1.5" fill-opacity="1" fill="#f6edc1"></path><g id="SvgjsG3699"><text id="SvgjsText3700" font-family="微软雅黑" text-anchor="middle" font-size="13px" width="74px" fill="#323232" font-weight="700" align="middle" lineHeight="125%" anchor="middle" family="微软雅黑" size="13px" weight="700" font-style="" opacity="1" y="10.801829268292686" transform="rotate(0)"><tspan id="SvgjsTspan3701" dy="16.25" x="47"><tspan id="SvgjsTspan3702" style="">load</tspan></tspan></text></g></g><g id="SvgjsG3703" transform="translate(932.0416666666666,216.14538272741223)"><path id="SvgjsPath3704" d="M 0 4Q 0 0 4 0L 89.12195121951231 0Q 93.12195121951231 0 93.12195121951231 4L 93.12195121951231 38.85365853658537Q 93.12195121951231 42.85365853658537 89.12195121951231 42.85365853658537L 4 42.85365853658537Q 0 42.85365853658537 0 38.85365853658537Z" stroke="rgba(255,255,255,1)" stroke-width="1.5" fill-opacity="1" fill="#f6edc1"></path><g id="SvgjsG3705"><text id="SvgjsText3706" font-family="微软雅黑" text-anchor="middle" font-size="13px" width="74px" fill="#323232" font-weight="700" align="middle" lineHeight="125%" anchor="middle" family="微软雅黑" size="13px" weight="700" font-style="" opacity="1" y="10.801829268292686" transform="rotate(0)"><tspan id="SvgjsTspan3707" dy="16.25" x="47"><tspan id="SvgjsTspan3708" style="">use</tspan></tspan></text></g></g><g id="SvgjsG3709" transform="translate(932.0416666666666,282.94165132689074)"><path id="SvgjsPath3710" d="M 0 4Q 0 0 4 0L 89.12195121951231 0Q 93.12195121951231 0 93.12195121951231 4L 93.12195121951231 38.85365853658537Q 93.12195121951231 42.85365853658537 89.12195121951231 42.85365853658537L 4 42.85365853658537Q 0 42.85365853658537 0 38.85365853658537Z" stroke="rgba(255,255,255,1)" stroke-width="1.5" fill-opacity="1" fill="#f6edc1"></path><g id="SvgjsG3711"><text id="SvgjsText3712" font-family="微软雅黑" text-anchor="middle" font-size="13px" width="74px" fill="#323232" font-weight="700" align="middle" lineHeight="125%" anchor="middle" family="微软雅黑" size="13px" weight="700" font-style="" opacity="1" y="10.801829268292686" transform="rotate(0)"><tspan id="SvgjsTspan3713" dy="16.25" x="47"><tspan id="SvgjsTspan3714" style="">assign</tspan></tspan></text></g></g><g id="SvgjsG3715" transform="translate(932.0416666666666,349.7379199263692)"><path id="SvgjsPath3716" d="M 0 4Q 0 0 4 0L 89.12195121951231 0Q 93.12195121951231 0 93.12195121951231 4L 93.12195121951231 38.85365853658537Q 93.12195121951231 42.85365853658537 89.12195121951231 42.85365853658537L 4 42.85365853658537Q 0 42.85365853658537 0 38.85365853658537Z" stroke="rgba(255,255,255,1)" stroke-width="1.5" fill-opacity="1" fill="#f6edc1"></path><g id="SvgjsG3717"><text id="SvgjsText3718" font-family="微软雅黑" text-anchor="middle" font-size="13px" width="74px" fill="#323232" font-weight="700" align="middle" lineHeight="125%" anchor="middle" family="微软雅黑" size="13px" weight="700" font-style="" opacity="1" y="10.801829268292686" transform="rotate(0)"><tspan id="SvgjsTspan3719" dy="16.25" x="47"><tspan id="SvgjsTspan3720" style="">store</tspan></tspan></text></g></g><g id="SvgjsG3721" transform="translate(932.0416666666666,416.5341885258477)"><path id="SvgjsPath3722" d="M 0 4Q 0 0 4 0L 89.12195121951231 0Q 93.12195121951231 0 93.12195121951231 4L 93.12195121951231 38.85365853658537Q 93.12195121951231 42.85365853658537 89.12195121951231 42.85365853658537L 4 42.85365853658537Q 0 42.85365853658537 0 38.85365853658537Z" stroke="rgba(255,255,255,1)" stroke-width="1.5" fill-opacity="1" fill="#f6edc1"></path><g id="SvgjsG3723"><text id="SvgjsText3724" font-family="微软雅黑" text-anchor="middle" font-size="13px" width="74px" fill="#323232" font-weight="700" align="middle" lineHeight="125%" anchor="middle" family="微软雅黑" size="13px" weight="700" font-style="" opacity="1" y="10.801829268292686" transform="rotate(0)"><tspan id="SvgjsTspan3725" dy="16.25" x="47"><tspan id="SvgjsTspan3726" style="">write</tspan></tspan></text></g></g><g id="SvgjsG3727" transform="translate(1224.651422764228,282.9416513268906)"><path id="SvgjsPath3728" d="M 0 4Q 0 0 4 0L 92 0Q 96 0 96 4L 96 172.44619573554235Q 96 176.44619573554235 92 176.44619573554235L 4 176.44619573554235Q 0 176.44619573554235 0 172.44619573554235Z" stroke="rgba(255,255,255,1)" stroke-width="1.5" fill-opacity="1" fill="#fcf9ea"></path><g id="SvgjsG3729"><text id="SvgjsText3730" font-family="微软雅黑" text-anchor="middle" font-size="13px" width="76px" fill="#323232" font-weight="400" align="middle" lineHeight="125%" anchor="middle" family="微软雅黑" size="13px" weight="400" font-style="" opacity="1" y="77.59809786777117" transform="rotate(0)"></text></g></g><g id="SvgjsG3731" transform="translate(1224.651422764228,82.55284552845531)"><path id="SvgjsPath3732" d="M 0 4Q 0 0 4 0L 92 0Q 96 0 96 4L 96 172.44619573554235Q 96 176.44619573554235 92 176.44619573554235L 4 176.44619573554235Q 0 176.44619573554235 0 172.44619573554235Z" stroke="rgba(255,255,255,1)" stroke-width="1.5" fill-opacity="1" fill="#fcf9ea"></path><g id="SvgjsG3733"><text id="SvgjsText3734" font-family="微软雅黑" text-anchor="middle" font-size="13px" width="76px" fill="#323232" font-weight="400" align="middle" lineHeight="125%" anchor="middle" family="微软雅黑" size="13px" weight="400" font-style="" opacity="1" y="77.59809786777117" transform="rotate(0)"></text></g></g><g id="SvgjsG3735" transform="translate(1226.090447154472,82.55284552845532)"><path id="SvgjsPath3736" d="M 0 4Q 0 0 4 0L 89.12195121951231 0Q 93.12195121951231 0 93.12195121951231 4L 93.12195121951231 38.85365853658537Q 93.12195121951231 42.85365853658537 89.12195121951231 42.85365853658537L 4 42.85365853658537Q 0 42.85365853658537 0 38.85365853658537Z" stroke="rgba(255,255,255,1)" stroke-width="1.5" fill-opacity="1" fill="#f6edc1"></path><g id="SvgjsG3737"><text id="SvgjsText3738" font-family="微软雅黑" text-anchor="middle" font-size="13px" width="74px" fill="#323232" font-weight="700" align="middle" lineHeight="125%" anchor="middle" family="微软雅黑" size="13px" weight="700" font-style="" opacity="1" y="10.801829268292686" transform="rotate(0)"><tspan id="SvgjsTspan3739" dy="16.25" x="47"><tspan id="SvgjsTspan3740" style="">read</tspan></tspan></text></g></g><g id="SvgjsG3741" transform="translate(1226.090447154472,149.34911412793377)"><path id="SvgjsPath3742" d="M 0 4Q 0 0 4 0L 89.12195121951231 0Q 93.12195121951231 0 93.12195121951231 4L 93.12195121951231 38.85365853658537Q 93.12195121951231 42.85365853658537 89.12195121951231 42.85365853658537L 4 42.85365853658537Q 0 42.85365853658537 0 38.85365853658537Z" stroke="rgba(255,255,255,1)" stroke-width="1.5" fill-opacity="1" fill="#f6edc1"></path><g id="SvgjsG3743"><text id="SvgjsText3744" font-family="微软雅黑" text-anchor="middle" font-size="13px" width="74px" fill="#323232" font-weight="700" align="middle" lineHeight="125%" anchor="middle" family="微软雅黑" size="13px" weight="700" font-style="" opacity="1" y="10.801829268292686" transform="rotate(0)"><tspan id="SvgjsTspan3745" dy="16.25" x="47"><tspan id="SvgjsTspan3746" style="">load</tspan></tspan></text></g></g><g id="SvgjsG3747" transform="translate(1226.090447154472,216.14538272741225)"><path id="SvgjsPath3748" d="M 0 4Q 0 0 4 0L 89.12195121951231 0Q 93.12195121951231 0 93.12195121951231 4L 93.12195121951231 38.85365853658537Q 93.12195121951231 42.85365853658537 89.12195121951231 42.85365853658537L 4 42.85365853658537Q 0 42.85365853658537 0 38.85365853658537Z" stroke="rgba(255,255,255,1)" stroke-width="1.5" fill-opacity="1" fill="#f6edc1"></path><g id="SvgjsG3749"><text id="SvgjsText3750" font-family="微软雅黑" text-anchor="middle" font-size="13px" width="74px" fill="#323232" font-weight="700" align="middle" lineHeight="125%" anchor="middle" family="微软雅黑" size="13px" weight="700" font-style="" opacity="1" y="10.801829268292686" transform="rotate(0)"><tspan id="SvgjsTspan3751" dy="16.25" x="47"><tspan id="SvgjsTspan3752" style="">use</tspan></tspan></text></g></g><g id="SvgjsG3753" transform="translate(1226.090447154472,282.9416513268906)"><path id="SvgjsPath3754" d="M 0 4Q 0 0 4 0L 89.12195121951231 0Q 93.12195121951231 0 93.12195121951231 4L 93.12195121951231 38.85365853658537Q 93.12195121951231 42.85365853658537 89.12195121951231 42.85365853658537L 4 42.85365853658537Q 0 42.85365853658537 0 38.85365853658537Z" stroke="rgba(255,255,255,1)" stroke-width="1.5" fill-opacity="1" fill="#f6edc1"></path><g id="SvgjsG3755"><text id="SvgjsText3756" font-family="微软雅黑" text-anchor="middle" font-size="13px" width="74px" fill="#323232" font-weight="700" align="middle" lineHeight="125%" anchor="middle" family="微软雅黑" size="13px" weight="700" font-style="" opacity="1" y="10.801829268292686" transform="rotate(0)"><tspan id="SvgjsTspan3757" dy="16.25" x="47"><tspan id="SvgjsTspan3758" style="">assign</tspan></tspan></text></g></g><g id="SvgjsG3759" transform="translate(1226.090447154472,349.7379199263691)"><path id="SvgjsPath3760" d="M 0 4Q 0 0 4 0L 89.12195121951231 0Q 93.12195121951231 0 93.12195121951231 4L 93.12195121951231 38.85365853658537Q 93.12195121951231 42.85365853658537 89.12195121951231 42.85365853658537L 4 42.85365853658537Q 0 42.85365853658537 0 38.85365853658537Z" stroke="rgba(255,255,255,1)" stroke-width="1.5" fill-opacity="1" fill="#f6edc1"></path><g id="SvgjsG3761"><text id="SvgjsText3762" font-family="微软雅黑" text-anchor="middle" font-size="13px" width="74px" fill="#323232" font-weight="700" align="middle" lineHeight="125%" anchor="middle" family="微软雅黑" size="13px" weight="700" font-style="" opacity="1" y="10.801829268292686" transform="rotate(0)"><tspan id="SvgjsTspan3763" dy="16.25" x="47"><tspan id="SvgjsTspan3764" style="">store</tspan></tspan></text></g></g><g id="SvgjsG3765" transform="translate(1226.090447154472,416.5341885258476)"><path id="SvgjsPath3766" d="M 0 4Q 0 0 4 0L 89.12195121951231 0Q 93.12195121951231 0 93.12195121951231 4L 93.12195121951231 38.85365853658537Q 93.12195121951231 42.85365853658537 89.12195121951231 42.85365853658537L 4 42.85365853658537Q 0 42.85365853658537 0 38.85365853658537Z" stroke="rgba(255,255,255,1)" stroke-width="1.5" fill-opacity="1" fill="#f6edc1"></path><g id="SvgjsG3767"><text id="SvgjsText3768" font-family="微软雅黑" text-anchor="middle" font-size="13px" width="74px" fill="#323232" font-weight="700" align="middle" lineHeight="125%" anchor="middle" family="微软雅黑" size="13px" weight="700" font-style="" opacity="1" y="10.801829268292686" transform="rotate(0)"><tspan id="SvgjsTspan3769" dy="16.25" x="47"><tspan id="SvgjsTspan3770" style="">write</tspan></tspan></text></g></g><g id="SvgjsG3771"><path id="SvgjsPath3772" d="M978.6026422764227 126.15650406504066L978.6026422764227 146.64911412793376" stroke="#323232" stroke-width="1.5" fill="none" marker-end="url(#SvgjsMarker3773)"></path></g><g id="SvgjsG3775"><path id="SvgjsPath3776" d="M978.6026422764227 192.95277266451913L978.6026422764227 213.44538272741224" stroke="#323232" stroke-width="1.5" fill="none" marker-end="url(#SvgjsMarker3777)"></path></g><g id="SvgjsG3779"><path id="SvgjsPath3780" d="M978.6026422764227 259.74904126399764L978.6026422764227 280.24165132689075" stroke="#323232" stroke-width="1.5" fill="none" marker-end="url(#SvgjsMarker3781)"></path></g><g id="SvgjsG3783"><path id="SvgjsPath3784" d="M978.6026422764227 326.5453098634761L978.6026422764227 347.0379199263692" stroke="#323232" stroke-width="1.5" fill="none" marker-end="url(#SvgjsMarker3785)"></path></g><g id="SvgjsG3787"><path id="SvgjsPath3788" d="M978.6026422764227 393.3415784629546L978.6026422764227 413.8341885258477" stroke="#323232" stroke-width="1.5" fill="none" marker-end="url(#SvgjsMarker3789)"></path></g><g id="SvgjsG3791"><path id="SvgjsPath3792" d="M1272.651422764228 126.15650406504069L1272.651422764228 146.64911412793379" stroke="#323232" stroke-width="1.5" fill="none" marker-end="url(#SvgjsMarker3793)"></path></g><g id="SvgjsG3795"><path id="SvgjsPath3796" d="M1272.651422764228 192.95277266451913L1272.651422764228 213.44538272741227" stroke="#323232" stroke-width="1.5" fill="none" marker-end="url(#SvgjsMarker3797)"></path></g><g id="SvgjsG3799"><path id="SvgjsPath3800" d="M1272.651422764228 259.74904126399764L1272.651422764228 280.24165132689063" stroke="#323232" stroke-width="1.5" fill="none" marker-end="url(#SvgjsMarker3801)"></path></g><g id="SvgjsG3803"><path id="SvgjsPath3804" d="M1272.651422764228 326.545309863476L1272.651422764228 347.0379199263691" stroke="#323232" stroke-width="1.5" fill="none" marker-end="url(#SvgjsMarker3805)"></path></g><g id="SvgjsG3807"><path id="SvgjsPath3808" d="M1272.651422764228 393.3415784629545L1272.651422764228 413.8341885258476" stroke="#323232" stroke-width="1.5" fill="none" marker-end="url(#SvgjsMarker3809)"></path></g><g id="SvgjsG3811"><path id="SvgjsPath3812" d="M1027.863617886179 103.97967479674797L1223.390447154472 103.97967479674797" stroke="#323232" stroke-width="1.5" fill="none" marker-start="url(#SvgjsMarker3813)" marker-end="url(#SvgjsMarker3815)"></path></g><g id="SvgjsG3817"><path id="SvgjsPath3818" d="M978.6026422764227 460.1378470624331L978.6026422764227 489.3878470624331L1272.651422764228 489.3878470624331L1272.651422764228 460.1378470624331" stroke="#323232" stroke-width="1.5" fill="none"></path></g><g id="SvgjsG3819"><path id="SvgjsPath3820" d="M1125.6270325203254 273.09386792452835L1125.6270325203254 379.5439868077927L1125.6270325203254 379.5439868077927L1125.6270325203254 488.69410569105696" stroke="#323232" stroke-width="1.5" fill="none" marker-start="url(#SvgjsMarker3821)"></path></g><g id="SvgjsG3823"><path id="SvgjsPath3824" d="M1125.6270325203254 226.79020938794318L1125.6270325203254 165.37427136063826L1125.6270325203254 165.37427136063826L1125.6270325203254 103.20833333333336" stroke="#323232" stroke-width="1.5" fill="none"></path></g><g id="SvgjsG3825"><path id="SvgjsPath3826" d="M1225.4610786806077 104.3875906264305L981.4977372561992 262.50880730924683" stroke-dasharray="10,5,3,5" stroke="#323232" stroke-width="1.5" fill="none" marker-end="url(#SvgjsMarker3827)"></path></g><g id="SvgjsG3829" transform="translate(1075.2002032520327,227.54020938794318)"><path id="SvgjsPath3830" d="M 0 21.42682926829258C 0 -7.142276422764193 100.85365853658539 -7.142276422764193 100.85365853658539 21.42682926829258C 100.85365853658539 49.99593495934935 0 49.99593495934935 0 21.42682926829258Z" stroke="rgba(33,41,48,1)" stroke-width="1.5" fill-opacity="1" fill="#95da69"></path><g id="SvgjsG3831"><text id="SvgjsText3832" font-family="微软雅黑" text-anchor="middle" font-size="15px" width="81px" fill="#323232" font-weight="700" align="middle" lineHeight="125%" anchor="middle" family="微软雅黑" size="15px" weight="700" font-style="" opacity="1" y="9.051829268292579" transform="rotate(0)"><tspan id="SvgjsTspan3833" dy="18.75" x="50.5"><tspan id="SvgjsTspan3834" style="">主内存对象</tspan></tspan></text></g></g><g id="SvgjsG3835" transform="translate(919.505081300813,255.31053459119502)"><path id="SvgjsPath3836" d="M 0 0L 118.19512195121933 0L 118.19512195121933 30.94454670961801L 0 30.94454670961801Z" stroke="rgba(91,121,232,1)" stroke-width="3" fill="none"></path><g id="SvgjsG3837"><text id="SvgjsText3838" font-family="微软雅黑" text-anchor="middle" font-size="13px" width="99px" fill="#323232" font-weight="400" align="middle" lineHeight="125%" anchor="middle" family="微软雅黑" size="13px" weight="400" font-style="" opacity="1" y="4.847273354809005" transform="rotate(0)"></text></g></g><g id="SvgjsG3839"><path id="SvgjsPath3840" d="M924.3839746621983 170.82627260618727L428.4806910569106 187.47459349593495" stroke="#a7932c" stroke-width="3" fill="none" marker-end="url(#SvgjsMarker3841)"></path></g><g id="SvgjsG3843"><path id="SvgjsPath3844" d="M924.3919941617447 371.001919008854L422.3831300813008 316.18317610062905" stroke="#a7932c" stroke-width="3" fill="none" marker-end="url(#SvgjsMarker3845)"></path></g><g id="SvgjsG3847"><path id="SvgjsPath3848" d="M918.00702853665 270.7064016911325L294.8365736317985 238.92239398129692" stroke="#5b79e8" stroke-width="3" fill="none" marker-end="url(#SvgjsMarker3849)"></path></g></svg>