<svg id="SvgjsSvg1006" width="671" height="320" xmlns="http://www.w3.org/2000/svg" version="1.1" xmlns:xlink="http://www.w3.org/1999/xlink" xmlns:svgjs="http://svgjs.com/svgjs"><defs id="SvgjsDefs1007"><pattern patternUnits="userSpaceOnUse" id="pattern_mark_0" width="300" height="300"><text x="150" y="100" fill="rgba(229,229,229,0.8)" font-size="18" transform="rotate(-45, 150, 150)" style="dominant-baseline: middle; text-anchor: middle;"></text></pattern><pattern patternUnits="userSpaceOnUse" id="pattern_mark_1" width="300" height="300"><text x="150" y="200" fill="rgba(229,229,229,0.8)" font-size="18" transform="rotate(-45, 150, 150)" style="dominant-baseline: middle; text-anchor: middle;"></text></pattern><marker id="SvgjsMarker1057" markerWidth="13" markerHeight="9" refX="9.5" refY="4.5" viewBox="0 0 13 9" orient="auto" markerUnits="userSpaceOnUse" stroke-dasharray="0,0"><path id="SvgjsPath1058" d="M0,0 L13,4.5 L0,9 L0,0" fill="#323232" stroke="#323232" stroke-width="1"></path></marker><marker id="SvgjsMarker1065" markerWidth="13" markerHeight="9" refX="9.5" refY="4.5" viewBox="0 0 13 9" orient="auto" markerUnits="userSpaceOnUse" stroke-dasharray="0,0"><path id="SvgjsPath1066" d="M0,0 L13,4.5 L0,9 L0,0" fill="#323232" stroke="#323232" stroke-width="1"></path></marker><marker id="SvgjsMarker1079" markerWidth="13" markerHeight="9" refX="9.5" refY="4.5" viewBox="0 0 13 9" orient="auto" markerUnits="userSpaceOnUse" stroke-dasharray="0,0"><path id="SvgjsPath1080" d="M0,0 L13,4.5 L0,9 L0,0" fill="#323232" stroke="#323232" stroke-width="1"></path></marker><marker id="SvgjsMarker1087" markerWidth="13" markerHeight="9" refX="9.5" refY="4.5" viewBox="0 0 13 9" orient="auto" markerUnits="userSpaceOnUse" stroke-dasharray="0,0"><path id="SvgjsPath1088" d="M0,0 L13,4.5 L0,9 L0,0" fill="#323232" stroke="#323232" stroke-width="1"></path></marker><marker id="SvgjsMarker1097" markerWidth="13" markerHeight="9" refX="9.5" refY="4.5" viewBox="0 0 13 9" orient="auto" markerUnits="userSpaceOnUse" stroke-dasharray="0,0"><path id="SvgjsPath1098" d="M0,0 L13,4.5 L0,9 L0,0" fill="#323232" stroke="#323232" stroke-width="1"></path></marker><marker id="SvgjsMarker1105" markerWidth="13" markerHeight="9" refX="9.5" refY="4.5" viewBox="0 0 13 9" orient="auto" markerUnits="userSpaceOnUse" stroke-dasharray="0,0"><path id="SvgjsPath1106" d="M0,0 L13,4.5 L0,9 L0,0" fill="#323232" stroke="#323232" stroke-width="1"></path></marker></defs><rect id="svgbackgroundid" width="671" height="320" fill="transparent"></rect><rect id="SvgjsRect1009" width="671" height="320" fill="url(#pattern_mark_0)"></rect><rect id="SvgjsRect1010" width="671" height="320" fill="url(#pattern_mark_1)"></rect><g id="SvgjsG1011" transform="translate(172,27)"><path id="SvgjsPath1012" d="M 0 4Q 0 0 4 0L 470 0Q 474 0 474 4L 474 126Q 474 130 470 130L 4 130Q 0 130 0 126Z" stroke="rgba(33,41,48,1)" stroke-width="1.5" fill-opacity="1" fill="#faeed1"></path><g id="SvgjsG1013"><text id="SvgjsText1014" font-family="&quot;Microsoft YaHei&quot;, 微软雅黑, Arial" text-anchor="middle" font-size="13px" width="454px" fill="#323232" font-weight="400" align="middle" lineHeight="125%" anchor="middle" family="&quot;Microsoft YaHei&quot;, 微软雅黑, Arial" size="13px" weight="400" font-style="" opacity="1" y="54.375" transform="rotate(0)"></text></g></g><g id="SvgjsG1015" transform="translate(30,201)"><path id="SvgjsPath1016" d="M 0 4Q 0 0 4 0L 106 0Q 110 0 110 4L 110 21Q 110 25 106 25L 4 25Q 0 25 0 21Z" stroke="rgba(33,41,48,1)" stroke-width="1.5" fill-opacity="1" fill="#b6c8ee"></path><g id="SvgjsG1017"><text id="SvgjsText1018" font-family="&quot;Microsoft YaHei&quot;, 微软雅黑, Arial" text-anchor="middle" font-size="13px" width="90px" fill="#323232" font-weight="400" align="middle" lineHeight="125%" anchor="middle" family="&quot;Microsoft YaHei&quot;, 微软雅黑, Arial" size="13px" weight="400" font-style="" opacity="1" y="1.875" transform="rotate(0)"><tspan id="SvgjsTspan1019" dy="16.25" x="55"><tspan id="SvgjsTspan1020" style="">undo日志文件</tspan></tspan></text></g></g><g id="SvgjsG1021" transform="translate(189.5,201)"><path id="SvgjsPath1022" d="M 0 4Q 0 0 4 0L 106 0Q 110 0 110 4L 110 21Q 110 25 106 25L 4 25Q 0 25 0 21Z" stroke="rgba(33,41,48,1)" stroke-width="1.5" fill-opacity="1" fill="#b6c8ee"></path><g id="SvgjsG1023"><text id="SvgjsText1024" font-family="&quot;Microsoft YaHei&quot;, 微软雅黑, Arial" text-anchor="middle" font-size="13px" width="90px" fill="#323232" font-weight="400" align="middle" lineHeight="125%" anchor="middle" family="&quot;Microsoft YaHei&quot;, 微软雅黑, Arial" size="13px" weight="400" font-style="" opacity="1" y="1.875" transform="rotate(0)"><tspan id="SvgjsTspan1025" dy="16.25" x="55"><tspan id="SvgjsTspan1026" style="">磁盘文件</tspan></tspan></text></g></g><g id="SvgjsG1027" transform="translate(410,201)"><path id="SvgjsPath1028" d="M 0 4Q 0 0 4 0L 106 0Q 110 0 110 4L 110 21Q 110 25 106 25L 4 25Q 0 25 0 21Z" stroke="rgba(33,41,48,1)" stroke-width="1.5" fill-opacity="1" fill="#b6c8ee"></path><g id="SvgjsG1029"><text id="SvgjsText1030" font-family="&quot;Microsoft YaHei&quot;, 微软雅黑, Arial" text-anchor="middle" font-size="13px" width="90px" fill="#323232" font-weight="400" align="middle" lineHeight="125%" anchor="middle" family="&quot;Microsoft YaHei&quot;, 微软雅黑, Arial" size="13px" weight="400" font-style="" opacity="1" y="1.875" transform="rotate(0)"><tspan id="SvgjsTspan1031" dy="16.25" x="55"><tspan id="SvgjsTspan1032" style="">os cache</tspan></tspan></text></g></g><g id="SvgjsG1033" transform="translate(410,270)"><path id="SvgjsPath1034" d="M 0 4Q 0 0 4 0L 106 0Q 110 0 110 4L 110 21Q 110 25 106 25L 4 25Q 0 25 0 21Z" stroke="rgba(33,41,48,1)" stroke-width="1.5" fill-opacity="1" fill="#b6c8ee"></path><g id="SvgjsG1035"><text id="SvgjsText1036" font-family="&quot;Microsoft YaHei&quot;, 微软雅黑, Arial" text-anchor="middle" font-size="13px" width="90px" fill="#323232" font-weight="400" align="middle" lineHeight="125%" anchor="middle" family="&quot;Microsoft YaHei&quot;, 微软雅黑, Arial" size="13px" weight="400" font-style="" opacity="1" y="1.875" transform="rotate(0)"><tspan id="SvgjsTspan1037" dy="16.25" x="55"><tspan id="SvgjsTspan1038" style="">redo日志文件</tspan></tspan></text></g></g><g id="SvgjsG1039" transform="translate(194,101)"><path id="SvgjsPath1040" d="M 0 4Q 0 0 4 0L 97 0Q 101 0 101 4L 101 36Q 101 40 97 40L 4 40Q 0 40 0 36Z" stroke="rgba(33,41,48,1)" stroke-width="1.5" fill-opacity="1" fill="#acc9c5"></path><g id="SvgjsG1041"><text id="SvgjsText1042" font-family="&quot;Microsoft YaHei&quot;, 微软雅黑, Arial" text-anchor="middle" font-size="13px" width="81px" fill="#323232" font-weight="400" align="middle" lineHeight="125%" anchor="middle" family="&quot;Microsoft YaHei&quot;, 微软雅黑, Arial" size="13px" weight="400" font-style="" opacity="1" y="0.875" transform="rotate(0)"><tspan id="SvgjsTspan1043" dy="16.25" x="50.5"><tspan id="SvgjsTspan1044" style="">Buffer Pool</tspan></tspan><tspan id="SvgjsTspan1045" dy="16.25" x="50.5"><tspan id="SvgjsTspan1046" style="">缓冲池</tspan></tspan></text></g></g><g id="SvgjsG1047" transform="translate(414.5,101)"><path id="SvgjsPath1048" d="M 0 4Q 0 0 4 0L 97 0Q 101 0 101 4L 101 36Q 101 40 97 40L 4 40Q 0 40 0 36Z" stroke="rgba(33,41,48,1)" stroke-width="1.5" fill-opacity="1" fill="#acc9c5"></path><g id="SvgjsG1049"><text id="SvgjsText1050" font-family="&quot;Microsoft YaHei&quot;, 微软雅黑, Arial" text-anchor="middle" font-size="13px" width="81px" fill="#323232" font-weight="400" align="middle" lineHeight="125%" anchor="middle" family="&quot;Microsoft YaHei&quot;, 微软雅黑, Arial" size="13px" weight="400" font-style="" opacity="1" y="0.875" transform="rotate(0)"><tspan id="SvgjsTspan1051" dy="16.25" x="50.5"><tspan id="SvgjsTspan1052" style="">Redo Log</tspan></tspan><tspan id="SvgjsTspan1053" dy="16.25" x="50.5"><tspan id="SvgjsTspan1054" style="">Buffer</tspan></tspan></text></g></g><g id="SvgjsG1055"><path id="SvgjsPath1056" d="M244.5 100.25L244.5 71L353 71L353 121L297.7 121" stroke="#323232" stroke-width="1.5" fill="none" marker-end="url(#SvgjsMarker1057)"></path><rect id="SvgjsRect1059" width="92" height="18" x="307" y="83.48965517241379" fill="#ffffff"></rect><text id="SvgjsText1060" font-family="&quot;Microsoft YaHei&quot;, 微软雅黑, Arial" text-anchor="middle" font-size="13px" width="92px" fill="#323232" font-weight="400" align="top" lineHeight="16px" anchor="middle" family="&quot;Microsoft YaHei&quot;, 微软雅黑, Arial" size="13px" weight="400" font-style="" opacity="1" y="80.86465517241379" transform="rotate(0)"><tspan id="SvgjsTspan1061" dy="16.25" x="353"><tspan id="SvgjsTspan1062" style="">3. 更新内存数据</tspan></tspan></text></g><g id="SvgjsG1063"><path id="SvgjsPath1064" d="M465 100.25L465 71L591.5 71L591.5 121L518.2 121" stroke="#323232" stroke-width="1.5" fill="none" marker-end="url(#SvgjsMarker1065)"></path><rect id="SvgjsRect1067" width="79" height="18" x="552" y="83.55787610619467" fill="#ffffff"></rect><text id="SvgjsText1068" font-family="&quot;Microsoft YaHei&quot;, 微软雅黑, Arial" text-anchor="middle" font-size="13px" width="79px" fill="#323232" font-weight="400" align="top" lineHeight="16px" anchor="middle" family="&quot;Microsoft YaHei&quot;, 微软雅黑, Arial" size="13px" weight="400" font-style="" opacity="1" y="80.93287610619467" transform="rotate(0)"><tspan id="SvgjsTspan1069" dy="16.25" x="591.5"><tspan id="SvgjsTspan1070" style="">4. 写redo日志</tspan></tspan></text></g><g id="SvgjsG1071" transform="translate(354,25)"><path id="SvgjsPath1072" d="M 0 0L 100 0L 100 40L 0 40Z" stroke="none" fill="none"></path><g id="SvgjsG1073"><text id="SvgjsText1074" font-family="&quot;Microsoft YaHei&quot;, 微软雅黑, Arial" text-anchor="middle" font-size="13px" width="100px" fill="#4a4125" font-weight="400" align="middle" lineHeight="125%" anchor="middle" family="&quot;Microsoft YaHei&quot;, 微软雅黑, Arial" size="13px" weight="400" font-style="" opacity="1" y="9.375" transform="rotate(0)"><tspan id="SvgjsTspan1075" dy="16.25" x="50"><tspan id="SvgjsTspan1076" style="font-weight: bold;">InnoDB存储引擎</tspan></tspan></text></g></g><g id="SvgjsG1077"><path id="SvgjsPath1078" d="M244.5 200.25L244.5 171L244.5 171L244.5 143.7" stroke="#323232" stroke-width="1.5" fill="none" marker-end="url(#SvgjsMarker1079)"></path><rect id="SvgjsRect1081" width="92" height="18" x="198.5" y="162.0325" fill="#ffffff"></rect><text id="SvgjsText1082" font-family="&quot;Microsoft YaHei&quot;, 微软雅黑, Arial" text-anchor="middle" font-size="13px" width="92px" fill="#323232" font-weight="400" align="top" lineHeight="16px" anchor="middle" family="&quot;Microsoft YaHei&quot;, 微软雅黑, Arial" size="13px" weight="400" font-style="" opacity="1" y="159.4075" transform="rotate(0)"><tspan id="SvgjsTspan1083" dy="16.25" x="244.5"><tspan id="SvgjsTspan1084" style="">1. 加载缓存数据</tspan></tspan></text></g><g id="SvgjsG1085"><path id="SvgjsPath1086" d="M171.25 92L85 92L85 198.3" stroke="#323232" stroke-width="1.5" fill="none" marker-end="url(#SvgjsMarker1087)"></path><rect id="SvgjsRect1089" width="118" height="34" x="26" y="127.26811224489796" fill="#ffffff"></rect><text id="SvgjsText1090" font-family="&quot;Microsoft YaHei&quot;, 微软雅黑, Arial" text-anchor="middle" font-size="13px" width="118px" fill="#323232" font-weight="400" align="top" lineHeight="16px" anchor="middle" family="&quot;Microsoft YaHei&quot;, 微软雅黑, Arial" size="13px" weight="400" font-style="" opacity="1" y="124.64311224489796" transform="rotate(0)"><tspan id="SvgjsTspan1091" dy="16.25" x="85"><tspan id="SvgjsTspan1092" style="">2. 写入数据的旧值，</tspan></tspan><tspan id="SvgjsTspan1093" dy="16.25" x="85"><tspan id="SvgjsTspan1094" style="">便于回滚</tspan></tspan></text></g><g id="SvgjsG1095"><path id="SvgjsPath1096" d="M465 141.75L465 171L465 171L465 198.3" stroke="#323232" stroke-width="1.5" fill="none" marker-end="url(#SvgjsMarker1097)"></path><rect id="SvgjsRect1099" width="118" height="18" x="406" y="161.9675" fill="#ffffff"></rect><text id="SvgjsText1100" font-family="&quot;Microsoft YaHei&quot;, 微软雅黑, Arial" text-anchor="middle" font-size="13px" width="118px" fill="#323232" font-weight="400" align="top" lineHeight="16px" anchor="middle" family="&quot;Microsoft YaHei&quot;, 微软雅黑, Arial" size="13px" weight="400" font-style="" opacity="1" y="159.3425" transform="rotate(0)"><tspan id="SvgjsTspan1101" dy="16.25" x="465"><tspan id="SvgjsTspan1102" style="">5. redo日志刷入磁盘</tspan></tspan></text></g><g id="SvgjsG1103"><path id="SvgjsPath1104" d="M465 226.75L465 248L465 248L465 267.3" stroke="#323232" stroke-width="1.5" fill="none" marker-end="url(#SvgjsMarker1105)"></path></g><g id="SvgjsG1107"></g></svg>