<svg id="SvgjsSvg1271" width="982" height="528.3826859021799" xmlns="http://www.w3.org/2000/svg" version="1.1" xmlns:xlink="http://www.w3.org/1999/xlink" xmlns:svgjs="http://svgjs.com/svgjs"><defs id="SvgjsDefs1272"><pattern patternUnits="userSpaceOnUse" id="pattern_mark_0" width="300" height="300"><text x="150" y="100" fill="rgba(229,229,229,0.8)" font-size="18" transform="rotate(-45, 150, 150)" style="dominant-baseline: middle; text-anchor: middle;"></text></pattern><pattern patternUnits="userSpaceOnUse" id="pattern_mark_1" width="300" height="300"><text x="150" y="200" fill="rgba(229,229,229,0.8)" font-size="18" transform="rotate(-45, 150, 150)" style="dominant-baseline: middle; text-anchor: middle;"></text></pattern><marker id="SvgjsMarker1278" markerWidth="16" markerHeight="12" refX="11" refY="6" viewBox="0 0 16 12" orient="auto" markerUnits="userSpaceOnUse" stroke-dasharray="0,0"><path id="SvgjsPath1279" d="M0,0 L16,6 L0,12 L0,0" fill="#7985ec" stroke="#7985ec" stroke-width="1"></path></marker><marker id="SvgjsMarker1282" markerWidth="16" markerHeight="12" refX="11" refY="6" viewBox="0 0 16 12" orient="auto" markerUnits="userSpaceOnUse" stroke-dasharray="0,0"><path id="SvgjsPath1283" d="M0,0 L16,6 L0,12 L0,0" fill="#a7932c" stroke="#a7932c" stroke-width="1"></path></marker><marker id="SvgjsMarker1290" markerWidth="16" markerHeight="12" refX="11" refY="6" viewBox="0 0 16 12" orient="auto" markerUnits="userSpaceOnUse" stroke-dasharray="0,0"><path id="SvgjsPath1291" d="M0,0 L16,6 L0,12 L0,0" fill="#e0c431" stroke="#e0c431" stroke-width="1"></path></marker><marker id="SvgjsMarker1302" markerWidth="14" markerHeight="12" refX="16" refY="6" viewBox="0 0 14 12" orient="auto" markerUnits="userSpaceOnUse" stroke-dasharray="0,0"><path id="SvgjsPath1303" d="M1,1 L14,6 L1,11L1,1" fill="#ffffff" stroke="#a7932c" stroke-width="3"></path></marker><marker id="SvgjsMarker1330" markerWidth="14" markerHeight="12" refX="16" refY="6" viewBox="0 0 14 12" orient="auto" markerUnits="userSpaceOnUse" stroke-dasharray="0,0"><path id="SvgjsPath1331" d="M1,1 L14,6 L1,11L1,1" fill="#ffffff" stroke="#e0c331" stroke-width="3"></path></marker><marker id="SvgjsMarker1334" markerWidth="14" markerHeight="12" refX="16" refY="6" viewBox="0 0 14 12" orient="auto" markerUnits="userSpaceOnUse" stroke-dasharray="0,0"><path id="SvgjsPath1335" d="M1,1 L14,6 L1,11L1,1" fill="#ffffff" stroke="#e0c331" stroke-width="3"></path></marker><marker id="SvgjsMarker1392" markerWidth="14" markerHeight="12" refX="16" refY="6" viewBox="0 0 14 12" orient="auto" markerUnits="userSpaceOnUse" stroke-dasharray="0,0"><path id="SvgjsPath1393" d="M1,1 L14,6 L1,11L1,1" fill="#ffffff" stroke="#e0c331" stroke-width="3"></path></marker><marker id="SvgjsMarker1396" markerWidth="14" markerHeight="12" refX="16" refY="6" viewBox="0 0 14 12" orient="auto" markerUnits="userSpaceOnUse" stroke-dasharray="0,0"><path id="SvgjsPath1397" d="M1,1 L14,6 L1,11L1,1" fill="#ffffff" stroke="#a7932c" stroke-width="3"></path></marker></defs><rect id="svgbackgroundid" width="982" height="528.3826859021799" fill="transparent"></rect><rect id="SvgjsRect1274" width="982" height="528.3826859021799" fill="url(#pattern_mark_0)"></rect><rect id="SvgjsRect1275" width="982" height="528.3826859021799" fill="url(#pattern_mark_1)"></rect><g id="SvgjsG1276"><path id="SvgjsPath1277" d="M125.75 179.38268590217984L528.5 179.38268590217984L528.5 179.38268590217984L932 179.38268590217984" stroke="#7985ec" stroke-width="3" fill="none" marker-end="url(#SvgjsMarker1278)"></path></g><g id="SvgjsG1280"><path id="SvgjsPath1281" d="M125.75 302.38268590217984L528.5 302.38268590217984L528.5 302.38268590217984L932 302.38268590217984" stroke="#a7932c" stroke-width="3" fill="none" marker-end="url(#SvgjsMarker1282)"></path><rect id="SvgjsRect1284" width="60" height="21" x="193.7803970223325" y="291.88268590217984" fill="#ffffff"></rect><text id="SvgjsText1285" font-family="&quot;Comic Sans MS&quot;" text-anchor="middle" font-size="15px" width="60px" fill="#323232" font-weight="700" align="top" lineHeight="19px" anchor="middle" family="&quot;Comic Sans MS&quot;" size="15px" weight="700" font-style="" opacity="1" y="289.00768590217984" transform="rotate(0)"><tspan id="SvgjsTspan1286" dy="18.75" x="223.7803970223325"><tspan id="SvgjsTspan1287" style="">一顿操作</tspan></tspan></text></g><g id="SvgjsG1288"><path id="SvgjsPath1289" d="M125.75 425.7653718043597L528.5 425.7653718043597L528.5 425.7653718043597L932 425.7653718043597" stroke="#e0c431" stroke-width="3" fill="none" marker-end="url(#SvgjsMarker1290)"></path><rect id="SvgjsRect1292" width="60" height="21" x="649.921836228288" y="415.2653718043597" fill="#ffffff"></rect><text id="SvgjsText1293" font-family="&quot;Comic Sans MS&quot;" text-anchor="middle" font-size="15px" width="60px" fill="#323232" font-weight="700" align="top" lineHeight="19px" anchor="middle" family="&quot;Comic Sans MS&quot;" size="15px" weight="700" font-style="" opacity="1" y="412.3903718043597" transform="rotate(0)"><tspan id="SvgjsTspan1294" dy="18.75" x="679.921836228288"><tspan id="SvgjsTspan1295" style="">一顿操作</tspan></tspan></text></g><g id="SvgjsG1296"><path id="SvgjsPath1297" d="M126 503.38268590217984L126 284.1913429510899L127 284.1913429510899L127 65.75" stroke-dasharray="8,5" stroke="#a6a6a6" stroke-width="2" fill="none"></path></g><g id="SvgjsG1298"><path id="SvgjsPath1299" d="M224 503.38268590217984L224 284.1913429510899L224.5 284.1913429510899L224.5 65.75" stroke-dasharray="8,5" stroke="#a6a6a6" stroke-width="2" fill="none"></path></g><g id="SvgjsG1300"><path id="SvgjsPath1301" d="M125.47492834269295 301.80221792777735L224 181.38268590217984" stroke="#a7932c" stroke-width="3" fill="none" marker-end="url(#SvgjsMarker1302)"></path></g><g id="SvgjsG1304"><path id="SvgjsPath1305" d="M419 503.38268590217984L419 284.1913429510899L419.5 284.1913429510899L419.5 65.75" stroke-dasharray="8,5" stroke="#a6a6a6" stroke-width="2" fill="none"></path></g><g id="SvgjsG1306"><path id="SvgjsPath1307" d="M516 503.38268590217984L516 284.1913429510899L517 284.1913429510899L517 65.75" stroke-dasharray="8,5" stroke="#a6a6a6" stroke-width="2" fill="none"></path></g><g id="SvgjsG1308"><path id="SvgjsPath1309" d="M614 503.38268590217984L614 284.1913429510899L614.5 284.1913429510899L614.5 65.75" stroke-dasharray="8,5" stroke="#a6a6a6" stroke-width="2" fill="none"></path></g><g id="SvgjsG1310"><path id="SvgjsPath1311" d="M711 503.38268590217984L711 284.1913429510899L712 284.1913429510899L712 65.75" stroke-dasharray="8,5" stroke="#a6a6a6" stroke-width="2" fill="none"></path></g><g id="SvgjsG1312"><path id="SvgjsPath1313" d="M809 503.38268590217984L809 284.1913429510899L809.5 284.1913429510899L809.5 65.75" stroke-dasharray="8,5" stroke="#a6a6a6" stroke-width="2" fill="none"></path></g><g id="SvgjsG1314"><path id="SvgjsPath1315" d="M321 503.38268590217984L321 284.1913429510899L322 284.1913429510899L322 65.75" stroke-dasharray="8,5" stroke="#a6a6a6" stroke-width="2" fill="none"></path></g><g id="SvgjsG1316"><path id="SvgjsPath1317" d="M906 503.38268590217984L906 284.1913429510899L907 284.1913429510899L907 65.75" stroke-dasharray="8,5" stroke="#a6a6a6" stroke-width="2" fill="none"></path></g><g id="SvgjsG1318" transform="matrix(0.8660254037844384,-0.5000000000000004,0.5000000000000004,0.8660254037844384,96.57372981077808,249.23925748351405)"><path id="SvgjsPath1319" d="M 0 4Q 0 0 4 0L 96 0Q 100 0 100 4L 100 46Q 100 50 96 50L 4 50Q 0 50 0 46Z" stroke="rgba(167,147,44,1)" stroke-width="1.5" fill-opacity="1" fill="#ffffff"></path><g id="SvgjsG1320"><text id="SvgjsText1321" font-family="&quot;Comic Sans MS&quot;" text-anchor="middle" font-size="13px" width="80px" fill="#a7932c" font-weight="700" align="middle" lineHeight="125%" anchor="middle" family="&quot;Comic Sans MS&quot;" size="13px" weight="700" font-style="" opacity="1" y="-2.125" transform="rotate(0)"><tspan id="SvgjsTspan1322" dy="16.25" x="50"><tspan id="SvgjsTspan1323" style="">SET Test</tspan></tspan><tspan id="SvgjsTspan1324" dy="16.25" x="50"><tspan id="SvgjsTspan1325" style="">value NX PX</tspan></tspan><tspan id="SvgjsTspan1326" dy="16.25" x="50"><tspan id="SvgjsTspan1327" style="">30000</tspan></tspan></text></g></g><g id="SvgjsG1328"><path id="SvgjsPath1329" d="M275 424.38268590217984L376 180.38268590217984" stroke="#e0c331" stroke-width="3" fill="none" marker-end="url(#SvgjsMarker1330)"></path></g><g id="SvgjsG1332"><path id="SvgjsPath1333" d="M553 423.38268590217984L613 180.38268590217984" stroke="#e0c331" stroke-width="3" fill="none" marker-end="url(#SvgjsMarker1334)"></path></g><g id="SvgjsG1336" transform="translate(77,25)"><path id="SvgjsPath1337" d="M 0 0L 100 0L 100 40L 0 40Z" stroke="none" fill="none"></path><g id="SvgjsG1338"><text id="SvgjsText1339" font-family="&quot;Comic Sans MS&quot;" text-anchor="middle" font-size="20px" width="100px" fill="#323232" font-weight="700" align="middle" lineHeight="125%" anchor="middle" family="&quot;Comic Sans MS&quot;" size="20px" weight="700" font-style="" opacity="1" y="2" transform="rotate(0)"><tspan id="SvgjsTspan1340" dy="25" x="50"><tspan id="SvgjsTspan1341" style="">时间点T1</tspan></tspan></text></g></g><g id="SvgjsG1342" transform="translate(174.5,25)"><path id="SvgjsPath1343" d="M 0 0L 100 0L 100 40L 0 40Z" stroke="none" fill="none"></path><g id="SvgjsG1344"><text id="SvgjsText1345" font-family="&quot;Comic Sans MS&quot;" text-anchor="middle" font-size="20px" width="100px" fill="#323232" font-weight="700" align="middle" lineHeight="125%" anchor="middle" family="&quot;Comic Sans MS&quot;" size="20px" weight="700" font-style="" opacity="1" y="2" transform="rotate(0)"><tspan id="SvgjsTspan1346" dy="25" x="50"><tspan id="SvgjsTspan1347" style="">T2</tspan></tspan></text></g></g><g id="SvgjsG1348" transform="translate(272,25)"><path id="SvgjsPath1349" d="M 0 0L 100 0L 100 40L 0 40Z" stroke="none" fill="none"></path><g id="SvgjsG1350"><text id="SvgjsText1351" font-family="&quot;Comic Sans MS&quot;" text-anchor="middle" font-size="20px" width="100px" fill="#323232" font-weight="700" align="middle" lineHeight="125%" anchor="middle" family="&quot;Comic Sans MS&quot;" size="20px" weight="700" font-style="" opacity="1" y="2" transform="rotate(0)"><tspan id="SvgjsTspan1352" dy="25" x="50"><tspan id="SvgjsTspan1353" style="">T3</tspan></tspan></text></g></g><g id="SvgjsG1354" transform="translate(369.5,25)"><path id="SvgjsPath1355" d="M 0 0L 100 0L 100 40L 0 40Z" stroke="none" fill="none"></path><g id="SvgjsG1356"><text id="SvgjsText1357" font-family="&quot;Comic Sans MS&quot;" text-anchor="middle" font-size="20px" width="100px" fill="#323232" font-weight="700" align="middle" lineHeight="125%" anchor="middle" family="&quot;Comic Sans MS&quot;" size="20px" weight="700" font-style="" opacity="1" y="2" transform="rotate(0)"><tspan id="SvgjsTspan1358" dy="25" x="50"><tspan id="SvgjsTspan1359" style="">T4</tspan></tspan></text></g></g><g id="SvgjsG1360" transform="translate(467,25)"><path id="SvgjsPath1361" d="M 0 0L 100 0L 100 40L 0 40Z" stroke="none" fill="none"></path><g id="SvgjsG1362"><text id="SvgjsText1363" font-family="&quot;Comic Sans MS&quot;" text-anchor="middle" font-size="20px" width="100px" fill="#323232" font-weight="700" align="middle" lineHeight="125%" anchor="middle" family="&quot;Comic Sans MS&quot;" size="20px" weight="700" font-style="" opacity="1" y="2" transform="rotate(0)"><tspan id="SvgjsTspan1364" dy="25" x="50"><tspan id="SvgjsTspan1365" style="">T5</tspan></tspan></text></g></g><g id="SvgjsG1366" transform="translate(564.5,25)"><path id="SvgjsPath1367" d="M 0 0L 100 0L 100 40L 0 40Z" stroke="none" fill="none"></path><g id="SvgjsG1368"><text id="SvgjsText1369" font-family="&quot;Comic Sans MS&quot;" text-anchor="middle" font-size="20px" width="100px" fill="#323232" font-weight="700" align="middle" lineHeight="125%" anchor="middle" family="&quot;Comic Sans MS&quot;" size="20px" weight="700" font-style="" opacity="1" y="2" transform="rotate(0)"><tspan id="SvgjsTspan1370" dy="25" x="50"><tspan id="SvgjsTspan1371" style="">T6</tspan></tspan></text></g></g><g id="SvgjsG1372" transform="translate(662,25)"><path id="SvgjsPath1373" d="M 0 0L 100 0L 100 40L 0 40Z" stroke="none" fill="none"></path><g id="SvgjsG1374"><text id="SvgjsText1375" font-family="&quot;Comic Sans MS&quot;" text-anchor="middle" font-size="20px" width="100px" fill="#323232" font-weight="700" align="middle" lineHeight="125%" anchor="middle" family="&quot;Comic Sans MS&quot;" size="20px" weight="700" font-style="" opacity="1" y="2" transform="rotate(0)"><tspan id="SvgjsTspan1376" dy="25" x="50"><tspan id="SvgjsTspan1377" style="">T7</tspan></tspan></text></g></g><g id="SvgjsG1378" transform="translate(759.5,25)"><path id="SvgjsPath1379" d="M 0 0L 100 0L 100 40L 0 40Z" stroke="none" fill="none"></path><g id="SvgjsG1380"><text id="SvgjsText1381" font-family="&quot;Comic Sans MS&quot;" text-anchor="middle" font-size="20px" width="100px" fill="#323232" font-weight="700" align="middle" lineHeight="125%" anchor="middle" family="&quot;Comic Sans MS&quot;" size="20px" weight="700" font-style="" opacity="1" y="2" transform="rotate(0)"><tspan id="SvgjsTspan1382" dy="25" x="50"><tspan id="SvgjsTspan1383" style="">T8</tspan></tspan></text></g></g><g id="SvgjsG1384" transform="translate(857,25)"><path id="SvgjsPath1385" d="M 0 0L 100 0L 100 40L 0 40Z" stroke="none" fill="none"></path><g id="SvgjsG1386"><text id="SvgjsText1387" font-family="&quot;Comic Sans MS&quot;" text-anchor="middle" font-size="20px" width="100px" fill="#323232" font-weight="700" align="middle" lineHeight="125%" anchor="middle" family="&quot;Comic Sans MS&quot;" size="20px" weight="700" font-style="" opacity="1" y="2" transform="rotate(0)"><tspan id="SvgjsTspan1388" dy="25" x="50"><tspan id="SvgjsTspan1389" style="">T9</tspan></tspan></text></g></g><g id="SvgjsG1390"><path id="SvgjsPath1391" d="M749 423.38268590217984L809 180.38268590217984" stroke="#e0c331" stroke-width="3" fill="none" marker-end="url(#SvgjsMarker1392)"></path></g><g id="SvgjsG1394"><path id="SvgjsPath1395" d="M678 302.38268590217984L709 184.38268590217984" stroke="#a7932c" stroke-width="3" fill="none" marker-end="url(#SvgjsMarker1396)"></path></g><g id="SvgjsG1398" transform="matrix(0.8660254037844384,-0.5000000000000004,0.5000000000000004,0.8660254037844384,223.73397761351245,378.51684537413905)"><path id="SvgjsPath1399" d="M 0 4Q 0 0 4 0L 96 0Q 100 0 100 4L 100 46Q 100 50 96 50L 4 50Q 0 50 0 46Z" stroke="rgba(224,195,49,1)" stroke-width="1.5" fill-opacity="1" fill="#ffffff"></path><g id="SvgjsG1400"><text id="SvgjsText1401" font-family="&quot;Comic Sans MS&quot;" text-anchor="middle" font-size="13px" width="80px" fill="#e0c331" font-weight="700" align="middle" lineHeight="125%" anchor="middle" family="&quot;Comic Sans MS&quot;" size="13px" weight="700" font-style="" opacity="1" y="-2.125" transform="rotate(0)"><tspan id="SvgjsTspan1402" dy="16.25" x="50"><tspan id="SvgjsTspan1403" style="">SET Test</tspan></tspan><tspan id="SvgjsTspan1404" dy="16.25" x="50"><tspan id="SvgjsTspan1405" style="">value NX PX</tspan></tspan><tspan id="SvgjsTspan1406" dy="16.25" x="50"><tspan id="SvgjsTspan1407" style="">30000</tspan></tspan></text></g></g><g id="SvgjsG1408" transform="matrix(0.8660254037844384,-0.5000000000000004,0.5000000000000004,0.8660254037844384,495.7764580822625,379.5054623174984)"><path id="SvgjsPath1409" d="M 0 4Q 0 0 4 0L 96 0Q 100 0 100 4L 100 46Q 100 50 96 50L 4 50Q 0 50 0 46Z" stroke="rgba(224,195,49,1)" stroke-width="1.5" fill-opacity="1" fill="#ffffff"></path><g id="SvgjsG1410"><text id="SvgjsText1411" font-family="&quot;Comic Sans MS&quot;" text-anchor="middle" font-size="13px" width="80px" fill="#e0c331" font-weight="700" align="middle" lineHeight="125%" anchor="middle" family="&quot;Comic Sans MS&quot;" size="13px" weight="700" font-style="" opacity="1" y="-2.125" transform="rotate(0)"><tspan id="SvgjsTspan1412" dy="16.25" x="50"><tspan id="SvgjsTspan1413" style="">SET Test</tspan></tspan><tspan id="SvgjsTspan1414" dy="16.25" x="50"><tspan id="SvgjsTspan1415" style="">value NX PX</tspan></tspan><tspan id="SvgjsTspan1416" dy="16.25" x="50"><tspan id="SvgjsTspan1417" style="">30000</tspan></tspan></text></g></g><g id="SvgjsG1418" transform="matrix(0.8660254037844384,-0.5000000000000004,0.5000000000000004,0.8660254037844384,721.3529049444516,376.2810802498887)"><path id="SvgjsPath1419" d="M 0 4Q 0 0 4 0L 54.56217782649105 0Q 58.56217782649105 0 58.56217782649105 4L 58.56217782649105 27.29422863405989Q 58.56217782649105 31.29422863405989 54.56217782649105 31.29422863405989L 4 31.29422863405989Q 0 31.29422863405989 0 27.29422863405989Z" stroke="rgba(224,195,49,1)" stroke-width="1.5" fill-opacity="1" fill="#ffffff"></path><g id="SvgjsG1420"><text id="SvgjsText1421" font-family="&quot;Comic Sans MS&quot;" text-anchor="middle" font-size="13px" width="39px" fill="#e0c331" font-weight="700" align="middle" lineHeight="125%" anchor="middle" family="&quot;Comic Sans MS&quot;" size="13px" weight="700" font-style="" opacity="1" y="-3.4778856829700544" transform="rotate(0)"><tspan id="SvgjsTspan1422" dy="16.25" x="29.5"><tspan id="SvgjsTspan1423" style="">DEL </tspan></tspan><tspan id="SvgjsTspan1424" dy="16.25" x="29.5"><tspan id="SvgjsTspan1425" style="">Test</tspan></tspan></text></g></g><g id="SvgjsG1426" transform="matrix(0.8660254037844384,-0.5000000000000004,0.5000000000000004,0.8660254037844384,649.3529049444516,251.2810955086778)"><path id="SvgjsPath1427" d="M 0 4Q 0 0 4 0L 54.56217782649105 0Q 58.56217782649105 0 58.56217782649105 4L 58.56217782649105 27.29422863405989Q 58.56217782649105 31.29422863405989 54.56217782649105 31.29422863405989L 4 31.29422863405989Q 0 31.29422863405989 0 27.29422863405989Z" stroke="rgba(167,147,44,1)" stroke-width="1.5" fill-opacity="1" fill="#ffffff"></path><g id="SvgjsG1428"><text id="SvgjsText1429" font-family="&quot;Comic Sans MS&quot;" text-anchor="middle" font-size="13px" width="39px" fill="#a7932c" font-weight="700" align="middle" lineHeight="125%" anchor="middle" family="&quot;Comic Sans MS&quot;" size="13px" weight="700" font-style="" opacity="1" y="-3.4778856829700544" transform="rotate(0)"><tspan id="SvgjsTspan1430" dy="16.25" x="29.5"><tspan id="SvgjsTspan1431" style="">DEL </tspan></tspan><tspan id="SvgjsTspan1432" dy="16.25" x="29.5"><tspan id="SvgjsTspan1433" style="">Test</tspan></tspan></text></g></g><g id="SvgjsG1434" transform="translate(25,159.38268590217984)"><path id="SvgjsPath1435" d="M 0 0L 100 0L 100 40L 0 40Z" stroke="none" fill="none"></path><g id="SvgjsG1436"><text id="SvgjsText1437" font-family="&quot;Comic Sans MS&quot;" text-anchor="middle" font-size="20px" width="100px" fill="#323232" font-weight="400" align="middle" lineHeight="125%" anchor="middle" family="&quot;Comic Sans MS&quot;" size="20px" weight="400" font-style="" opacity="1" y="2" transform="rotate(0)"><tspan id="SvgjsTspan1438" dy="25" x="50"><tspan id="SvgjsTspan1439" style="font-weight: bold;">Redis</tspan></tspan></text></g></g><g id="SvgjsG1440" transform="translate(25,282.38268590217984)"><path id="SvgjsPath1441" d="M 0 0L 100 0L 100 40L 0 40Z" stroke="none" fill="none"></path><g id="SvgjsG1442"><text id="SvgjsText1443" font-family="&quot;Comic Sans MS&quot;" text-anchor="middle" font-size="20px" width="100px" fill="#323232" font-weight="700" align="middle" lineHeight="125%" anchor="middle" family="&quot;Comic Sans MS&quot;" size="20px" weight="700" font-style="" opacity="1" y="2" transform="rotate(0)"><tspan id="SvgjsTspan1444" dy="25" x="50"><tspan id="SvgjsTspan1445" style="">进程A</tspan></tspan></text></g></g><g id="SvgjsG1446" transform="translate(25,405.7653718043597)"><path id="SvgjsPath1447" d="M 0 0L 100 0L 100 40L 0 40Z" stroke="none" fill="none"></path><g id="SvgjsG1448"><text id="SvgjsText1449" font-family="&quot;Comic Sans MS&quot;" text-anchor="middle" font-size="20px" width="100px" fill="#323232" font-weight="400" align="middle" lineHeight="125%" anchor="middle" family="&quot;Comic Sans MS&quot;" size="20px" weight="400" font-style="" opacity="1" y="2" transform="rotate(0)"><tspan id="SvgjsTspan1450" dy="25" x="50"><tspan id="SvgjsTspan1451" style="font-weight: bold;">进程B</tspan></tspan></text></g></g><g id="SvgjsG1452" transform="matrix(-0.7071067811865475,0.7071067811865476,-0.7071067811865476,-0.7071067811865475,273.17951394166397,128.2001934092169)"><path id="SvgjsPath1453" d="M 66.81980515339461 0L 66.81980515339461 33.40990257669734C 66.81980515339461 77.95643934562713 0 77.95643934562713 0 33.40990257669734Q 0 0 33.409902576697306 0L 33.409902576697306 0L 66.81980515339461 0Z" stroke="rgba(167,146,44,1)" stroke-width="1.5" fill-opacity="1" fill="#ffffff"></path><g id="SvgjsG1454"><text id="SvgjsText1455" font-family="&quot;Comic Sans MS&quot;" text-anchor="middle" font-size="13px" width="47px" fill="#323232" font-weight="400" align="middle" lineHeight="125%" anchor="middle" family="&quot;Comic Sans MS&quot;" size="13px" weight="400" font-style="" opacity="1" y="22.78490257669734" transform="rotate(0)"></text></g></g><g id="SvgjsG1456" transform="translate(177,97.9514565439602)"><path id="SvgjsPath1457" d="M 0 0L 100 0L 100 65L 0 65Z" stroke="none" fill="none"></path><g id="SvgjsG1458"><text id="SvgjsText1459" font-family="&quot;Comic Sans MS&quot;" text-anchor="middle" font-size="13px" width="100px" fill="#323232" font-weight="700" align="middle" lineHeight="125%" anchor="middle" family="&quot;Comic Sans MS&quot;" size="13px" weight="700" font-style="" opacity="1" y="-2.625" transform="rotate(0)"><tspan id="SvgjsTspan1460" dy="16.25" x="50"><tspan id="SvgjsTspan1461" style="">Test</tspan></tspan><tspan id="SvgjsTspan1462" dy="16.25" x="50"><tspan id="SvgjsTspan1463" style="">不存在</tspan></tspan><tspan id="SvgjsTspan1464" dy="16.25" x="50"><tspan id="SvgjsTspan1465" style="">获取锁</tspan></tspan><tspan id="SvgjsTspan1466" dy="16.25" x="50"><tspan id="SvgjsTspan1467" style="">成功</tspan></tspan></text></g></g><g id="SvgjsG1468" transform="matrix(-0.7071067811865475,0.7071067811865476,-0.7071067811865476,-0.7071067811865475,423.04108620728897,128.2001934092169)"><path id="SvgjsPath1469" d="M 66.81980515339461 0L 66.81980515339461 33.40990257669734C 66.81980515339461 77.95643934562713 0 77.95643934562713 0 33.40990257669734Q 0 0 33.409902576697306 0L 33.409902576697306 0L 66.81980515339461 0Z" stroke="rgba(224,195,49,1)" stroke-width="1.5" fill-opacity="1" fill="#ffffff"></path><g id="SvgjsG1470"><text id="SvgjsText1471" font-family="&quot;Comic Sans MS&quot;" text-anchor="middle" font-size="13px" width="47px" fill="#323232" font-weight="400" align="middle" lineHeight="125%" anchor="middle" family="&quot;Comic Sans MS&quot;" size="13px" weight="400" font-style="" opacity="1" y="22.78490257669734" transform="rotate(0)"></text></g></g><g id="SvgjsG1472" transform="translate(326.86156123669394,97.95145654396023)"><path id="SvgjsPath1473" d="M 0 0L 100 0L 100 65L 0 65Z" stroke="none" fill="none"></path><g id="SvgjsG1474"><text id="SvgjsText1475" font-family="&quot;Comic Sans MS&quot;" text-anchor="middle" font-size="13px" width="100px" fill="#323232" font-weight="700" align="middle" lineHeight="125%" anchor="middle" family="&quot;Comic Sans MS&quot;" size="13px" weight="700" font-style="" opacity="1" y="-2.625" transform="rotate(0)"><tspan id="SvgjsTspan1476" dy="16.25" x="50"><tspan id="SvgjsTspan1477" style="">Test</tspan></tspan><tspan id="SvgjsTspan1478" dy="16.25" x="50"><tspan id="SvgjsTspan1479" style="">存在</tspan></tspan><tspan id="SvgjsTspan1480" dy="16.25" x="50"><tspan id="SvgjsTspan1481" style="">获取锁</tspan></tspan><tspan id="SvgjsTspan1482" dy="16.25" x="50"><tspan id="SvgjsTspan1483" style="">失败</tspan></tspan></text></g></g><g id="SvgjsG1484" transform="matrix(-0.7071067811865475,0.7071067811865476,-0.7071067811865476,-0.7071067811865475,563.1795139416639,128.2001934092169)"><path id="SvgjsPath1485" d="M 66.81980515339461 0L 66.81980515339461 33.40990257669734C 66.81980515339461 77.95643934562713 0 77.95643934562713 0 33.40990257669734Q 0 0 33.409902576697306 0L 33.409902576697306 0L 66.81980515339461 0Z" stroke="rgba(167,146,44,1)" stroke-width="1.5" fill-opacity="1" fill="#ffffff"></path><g id="SvgjsG1486"><text id="SvgjsText1487" font-family="&quot;Comic Sans MS&quot;" text-anchor="middle" font-size="13px" width="47px" fill="#323232" font-weight="400" align="middle" lineHeight="125%" anchor="middle" family="&quot;Comic Sans MS&quot;" size="13px" weight="400" font-style="" opacity="1" y="22.78490257669734" transform="rotate(0)"></text></g></g><g id="SvgjsG1488" transform="translate(467,110.45145654396018)"><path id="SvgjsPath1489" d="M 0 0L 100 0L 100 40L 0 40Z" stroke="none" fill="none"></path><g id="SvgjsG1490"><text id="SvgjsText1491" font-family="&quot;Comic Sans MS&quot;" text-anchor="middle" font-size="13px" width="100px" fill="#323232" font-weight="700" align="middle" lineHeight="125%" anchor="middle" family="&quot;Comic Sans MS&quot;" size="13px" weight="700" font-style="" opacity="1" y="0.875" transform="rotate(0)"><tspan id="SvgjsTspan1492" dy="16.25" x="50"><tspan id="SvgjsTspan1493" style="">到达30秒</tspan></tspan><tspan id="SvgjsTspan1494" dy="16.25" x="50"><tspan id="SvgjsTspan1495" style="">锁释放</tspan></tspan></text></g></g><g id="SvgjsG1496" transform="matrix(-0.7071067811865475,0.7071067811865476,-0.7071067811865476,-0.7071067811865475,660.6795139416639,128.31980705667783)"><path id="SvgjsPath1497" d="M 66.81980515339461 0L 66.81980515339461 33.40990257669734C 66.81980515339461 77.95643934562713 0 77.95643934562713 0 33.40990257669734Q 0 0 33.409902576697306 0L 33.409902576697306 0L 66.81980515339461 0Z" stroke="rgba(224,195,49,1)" stroke-width="1.5" fill-opacity="1" fill="#ffffff"></path><g id="SvgjsG1498"><text id="SvgjsText1499" font-family="&quot;Comic Sans MS&quot;" text-anchor="middle" font-size="13px" width="47px" fill="#323232" font-weight="400" align="middle" lineHeight="125%" anchor="middle" family="&quot;Comic Sans MS&quot;" size="13px" weight="400" font-style="" opacity="1" y="22.78490257669734" transform="rotate(0)"></text></g></g><g id="SvgjsG1500" transform="translate(564.5,98.07106781186545)"><path id="SvgjsPath1501" d="M 0 0L 100 0L 100 65L 0 65Z" stroke="none" fill="none"></path><g id="SvgjsG1502"><text id="SvgjsText1503" font-family="&quot;Comic Sans MS&quot;" text-anchor="middle" font-size="13px" width="100px" fill="#323232" font-weight="700" align="middle" lineHeight="125%" anchor="middle" family="&quot;Comic Sans MS&quot;" size="13px" weight="700" font-style="" opacity="1" y="-2.625" transform="rotate(0)"><tspan id="SvgjsTspan1504" dy="16.25" x="50"><tspan id="SvgjsTspan1505" style="">Test</tspan></tspan><tspan id="SvgjsTspan1506" dy="16.25" x="50"><tspan id="SvgjsTspan1507" style="">不存在</tspan></tspan><tspan id="SvgjsTspan1508" dy="16.25" x="50"><tspan id="SvgjsTspan1509" style="">获取锁</tspan></tspan><tspan id="SvgjsTspan1510" dy="16.25" x="50"><tspan id="SvgjsTspan1511" style="">成功</tspan></tspan></text></g></g><g id="SvgjsG1512" transform="matrix(-0.7071067811865475,0.7071067811865476,-0.7071067811865476,-0.7071067811865475,758.1795139416639,128.2001934092169)"><path id="SvgjsPath1513" d="M 66.81980515339461 0L 66.81980515339461 33.40990257669734C 66.81980515339461 77.95643934562713 0 77.95643934562713 0 33.40990257669734Q 0 0 33.409902576697306 0L 33.409902576697306 0L 66.81980515339461 0Z" stroke="rgba(167,146,44,1)" stroke-width="1.5" fill-opacity="1" fill="#ffffff"></path><g id="SvgjsG1514"><text id="SvgjsText1515" font-family="&quot;Comic Sans MS&quot;" text-anchor="middle" font-size="13px" width="47px" fill="#323232" font-weight="400" align="middle" lineHeight="125%" anchor="middle" family="&quot;Comic Sans MS&quot;" size="13px" weight="400" font-style="" opacity="1" y="22.78490257669734" transform="rotate(0)"></text></g></g><g id="SvgjsG1516" transform="translate(662,105.9514565439602)"><path id="SvgjsPath1517" d="M 0 0L 100 0L 100 49L 0 49Z" stroke="none" fill="none"></path><g id="SvgjsG1518"><text id="SvgjsText1519" font-family="&quot;Comic Sans MS&quot;" text-anchor="middle" font-size="13px" width="100px" fill="#323232" font-weight="700" align="middle" lineHeight="125%" anchor="middle" family="&quot;Comic Sans MS&quot;" size="13px" weight="700" font-style="" opacity="1" y="-2.625" transform="rotate(0)"><tspan id="SvgjsTspan1520" dy="16.25" x="50"><tspan id="SvgjsTspan1521" style="">Test</tspan></tspan><tspan id="SvgjsTspan1522" dy="16.25" x="50"><tspan id="SvgjsTspan1523" style="">被进程A</tspan></tspan><tspan id="SvgjsTspan1524" dy="16.25" x="50"><tspan id="SvgjsTspan1525" style="">删除</tspan></tspan></text></g></g><g id="SvgjsG1526" transform="matrix(-0.7071067811865475,0.7071067811865476,-0.7071067811865476,-0.7071067811865475,855.6795139416639,128.2001934092169)"><path id="SvgjsPath1527" d="M 66.81980515339461 0L 66.81980515339461 33.40990257669734C 66.81980515339461 77.95643934562713 0 77.95643934562713 0 33.40990257669734Q 0 0 33.409902576697306 0L 33.409902576697306 0L 66.81980515339461 0Z" stroke="rgba(224,195,49,1)" stroke-width="1.5" fill-opacity="1" fill="#ffffff"></path><g id="SvgjsG1528"><text id="SvgjsText1529" font-family="&quot;Comic Sans MS&quot;" text-anchor="middle" font-size="39px" width="47px" fill="#323232" font-weight="400" align="middle" lineHeight="125%" anchor="middle" family="&quot;Comic Sans MS&quot;" size="39px" weight="400" font-style="" opacity="1" y="0.0349025766973412" transform="rotate(0)"></text></g></g><g id="SvgjsG1530" transform="translate(759.5,110.45145654396023)"><path id="SvgjsPath1531" d="M 0 0L 100 0L 100 40L 0 40Z" stroke="none" fill="none"></path><g id="SvgjsG1532"><text id="SvgjsText1533" font-family="&quot;Comic Sans MS&quot;" text-anchor="middle" font-size="39px" width="100px" fill="#323232" font-weight="700" align="middle" lineHeight="125%" anchor="middle" family="&quot;Comic Sans MS&quot;" size="39px" weight="700" font-style="" opacity="1" y="-13.375" transform="rotate(0)"><tspan id="SvgjsTspan1534" dy="48.75" x="50"><tspan id="SvgjsTspan1535" style="font-weight: normal;"> ？</tspan></tspan></text></g></g></svg>