<svg id="SvgjsSvg1006" width="925.2728695824769" height="441.84180790960477" xmlns="http://www.w3.org/2000/svg" version="1.1" xmlns:xlink="http://www.w3.org/1999/xlink" xmlns:svgjs="http://svgjs.com/svgjs"><defs id="SvgjsDefs1007"><pattern patternUnits="userSpaceOnUse" id="pattern_mark_0" width="300" height="300"><text x="150" y="100" fill="rgba(229,229,229,0.8)" font-size="18" transform="rotate(-45, 150, 150)" style="dominant-baseline: middle; text-anchor: middle;"></text></pattern><pattern patternUnits="userSpaceOnUse" id="pattern_mark_1" width="300" height="300"><text x="150" y="200" fill="rgba(229,229,229,0.8)" font-size="18" transform="rotate(-45, 150, 150)" style="dominant-baseline: middle; text-anchor: middle;"></text></pattern><marker id="SvgjsMarker1131" markerWidth="13" markerHeight="9" refX="3.5" refY="4.5" viewBox="0 0 13 9" orient="0" markerUnits="userSpaceOnUse" stroke-dasharray="0,0"><path id="SvgjsPath1132" d="M13,0 L0,4.5 L13,9 L13,0" fill="#73a0cb" stroke="#73a0cb" stroke-width="1"></path></marker><marker id="SvgjsMarker1133" markerWidth="13" markerHeight="9" refX="9.5" refY="4.5" viewBox="0 0 13 9" orient="auto" markerUnits="userSpaceOnUse" stroke-dasharray="0,0"><path id="SvgjsPath1134" d="M0,0 L13,4.5 L0,9 L0,0" fill="#73a0cb" stroke="#73a0cb" stroke-width="1"></path></marker><marker id="SvgjsMarker1288" markerWidth="13" markerHeight="9" refX="3.5" refY="4.5" viewBox="0 0 13 9" orient="0" markerUnits="userSpaceOnUse" stroke-dasharray="0,0"><path id="SvgjsPath1289" d="M13,0 L0,4.5 L13,9 L13,0" fill="#73a0cb" stroke="#73a0cb" stroke-width="1"></path></marker><marker id="SvgjsMarker1290" markerWidth="13" markerHeight="9" refX="9.5" refY="4.5" viewBox="0 0 13 9" orient="auto" markerUnits="userSpaceOnUse" stroke-dasharray="0,0"><path id="SvgjsPath1291" d="M0,0 L13,4.5 L0,9 L0,0" fill="#73a0cb" stroke="#73a0cb" stroke-width="1"></path></marker><marker id="SvgjsMarker1309" markerWidth="14" markerHeight="10" refX="10" refY="5" viewBox="0 0 14 10" orient="auto" markerUnits="userSpaceOnUse" stroke-dasharray="0,0"><path id="SvgjsPath1310" d="M0,0 L14,5 L0,10 L0,0" fill="#d2d6f9" stroke="#d2d6f9" stroke-width="1"></path></marker></defs><rect id="svgbackgroundid" width="925.2728695824769" height="441.84180790960477" fill="transparent"></rect><rect id="SvgjsRect1009" width="925.2728695824769" height="441.84180790960477" fill="url(#pattern_mark_0)"></rect><rect id="SvgjsRect1010" width="925.2728695824769" height="441.84180790960477" fill="url(#pattern_mark_1)"></rect><g id="SvgjsG1011" transform="translate(82.95468776429502,73.8333333333334)"><path id="SvgjsPath1012" d="M0 0L50.02453456 0L50.02453456 20 L0 20Z" stroke="rgba(102, 102, 102,1)" stroke-width="1" fill-opacity="1" fill="#e0ead9"></path><path id="SvgjsPath1013" d="M50.02453456 0L100.04906912 0L100.04906912 20 L50.02453456 20Z" stroke="rgba(102, 102, 102,1)" stroke-width="1" fill-opacity="1" fill="#e0ead9"></path><path id="SvgjsPath1014" d="M100.04906912 0L150.07360368 0L150.07360368 20 L100.04906912 20Z" stroke="rgba(102, 102, 102,1)" stroke-width="1" fill-opacity="1" fill="#e0ead9"></path><path id="SvgjsPath1015" d="M150.07360368000002 0L200.09813824000003 0L200.09813824000003 20 L150.07360368000002 20Z" stroke="rgba(102, 102, 102,1)" stroke-width="1" fill-opacity="1" fill="#e0ead9"></path><path id="SvgjsPath1016" d="M200.09813824 0L250.1226728 0L250.1226728 20 L200.09813824 20Z" stroke="rgba(102, 102, 102,1)" stroke-width="1" fill-opacity="1" fill="#b4c4e9"></path><path id="SvgjsPath1017" d="M250.12267279999998 0L300.0972328 0L300.0972328 20 L250.12267279999998 20Z" stroke="rgba(102, 102, 102,1)" stroke-width="1" fill-opacity="1" fill="#b4c4e9"></path><path id="SvgjsPath1018" d="M300.14720736000004 0L350.0717928 0L350.0717928 20 L300.14720736000004 20Z" stroke="rgba(102, 102, 102,1)" stroke-width="1" fill-opacity="1" fill="#f8e293"></path><path id="SvgjsPath1019" d="M350.0717928 0L399.99637824 0L399.99637824 20 L350.0717928 20Z" stroke="rgba(102, 102, 102,1)" stroke-width="1" fill-opacity="1" fill="#f8e293"></path><path id="SvgjsPath1020" d="M399.99637824 0L449.82101456000004 0L449.82101456000004 20 L399.99637824 20Z" stroke="rgba(102, 102, 102,1)" stroke-width="1" fill-opacity="1" fill="#f7cda8"></path><path id="SvgjsPath1021" d="M449.87098912000005 0L499.7456 0L499.7456 20 L449.87098912000005 20Z" stroke="rgba(102, 102, 102,1)" stroke-width="1" fill-opacity="1" fill="#f7cda8"></path><g id="SvgjsG1022"><text id="SvgjsText1023" font-family="&quot;Microsoft YaHei&quot;, 微软雅黑, Arial" text-anchor="middle" font-size="16px" width="51px" fill="#323232" font-weight="400" align="middle" lineHeight="125%" anchor="middle" family="&quot;Microsoft YaHei&quot;, 微软雅黑, Arial" size="16px" weight="400" font-style="" opacity="1" y="-4" transform="rotate(0)"><tspan id="SvgjsTspan1024" dy="20" x="25.5"><tspan id="SvgjsTspan1025" style="">CA</tspan></tspan></text></g><g id="SvgjsG1026"><text id="SvgjsText1027" font-family="&quot;Microsoft YaHei&quot;, 微软雅黑, Arial" text-anchor="middle" font-size="16px" width="51px" fill="#323232" font-weight="400" align="middle" lineHeight="125%" anchor="middle" family="&quot;Microsoft YaHei&quot;, 微软雅黑, Arial" size="16px" weight="400" font-style="" opacity="1" y="-4" transform="rotate(0)"><tspan id="SvgjsTspan1028" dy="20" x="75.52453456"><tspan id="SvgjsTspan1029" style="">FE</tspan></tspan></text></g><g id="SvgjsG1030"><text id="SvgjsText1031" font-family="&quot;Microsoft YaHei&quot;, 微软雅黑, Arial" text-anchor="middle" font-size="16px" width="51px" fill="#323232" font-weight="400" align="middle" lineHeight="125%" anchor="middle" family="&quot;Microsoft YaHei&quot;, 微软雅黑, Arial" size="16px" weight="400" font-style="" opacity="1" y="-4" transform="rotate(0)"><tspan id="SvgjsTspan1032" dy="20" x="125.54906912"><tspan id="SvgjsTspan1033" style="">BA</tspan></tspan></text></g><g id="SvgjsG1034"><text id="SvgjsText1035" font-family="&quot;Microsoft YaHei&quot;, 微软雅黑, Arial" text-anchor="middle" font-size="16px" width="51px" fill="#323232" font-weight="400" align="middle" lineHeight="125%" anchor="middle" family="&quot;Microsoft YaHei&quot;, 微软雅黑, Arial" size="16px" weight="400" font-style="" opacity="1" y="-4" transform="rotate(0)"><tspan id="SvgjsTspan1036" dy="20" x="175.57360368000002"><tspan id="SvgjsTspan1037" style="">BE</tspan></tspan></text></g><g id="SvgjsG1038"><text id="SvgjsText1039" font-family="&quot;Microsoft YaHei&quot;, 微软雅黑, Arial" text-anchor="middle" font-size="16px" width="51px" fill="#323232" font-weight="400" align="middle" lineHeight="125%" anchor="middle" family="&quot;Microsoft YaHei&quot;, 微软雅黑, Arial" size="16px" weight="400" font-style="" opacity="1" y="-4" transform="rotate(0)"></text></g><g id="SvgjsG1040"><text id="SvgjsText1041" font-family="&quot;Microsoft YaHei&quot;, 微软雅黑, Arial" text-anchor="middle" font-size="16px" width="50px" fill="#323232" font-weight="400" align="middle" lineHeight="125%" anchor="middle" family="&quot;Microsoft YaHei&quot;, 微软雅黑, Arial" size="16px" weight="400" font-style="" opacity="1" y="-4" transform="rotate(0)"></text></g><g id="SvgjsG1042"><text id="SvgjsText1043" font-family="&quot;Microsoft YaHei&quot;, 微软雅黑, Arial" text-anchor="middle" font-size="16px" width="50px" fill="#323232" font-weight="400" align="middle" lineHeight="125%" anchor="middle" family="&quot;Microsoft YaHei&quot;, 微软雅黑, Arial" size="16px" weight="400" font-style="" opacity="1" y="-4" transform="rotate(0)"></text></g><g id="SvgjsG1044"><text id="SvgjsText1045" font-family="&quot;Microsoft YaHei&quot;, 微软雅黑, Arial" text-anchor="middle" font-size="16px" width="50px" fill="#323232" font-weight="400" align="middle" lineHeight="125%" anchor="middle" family="&quot;Microsoft YaHei&quot;, 微软雅黑, Arial" size="16px" weight="400" font-style="" opacity="1" y="-4" transform="rotate(0)"></text></g><g id="SvgjsG1046"><text id="SvgjsText1047" font-family="&quot;Microsoft YaHei&quot;, 微软雅黑, Arial" text-anchor="middle" font-size="16px" width="50px" fill="#323232" font-weight="400" align="middle" lineHeight="125%" anchor="middle" family="&quot;Microsoft YaHei&quot;, 微软雅黑, Arial" size="16px" weight="400" font-style="" opacity="1" y="-4" transform="rotate(0)"></text></g><g id="SvgjsG1048"><text id="SvgjsText1049" font-family="&quot;Microsoft YaHei&quot;, 微软雅黑, Arial" text-anchor="middle" font-size="16px" width="50px" fill="#323232" font-weight="400" align="middle" lineHeight="125%" anchor="middle" family="&quot;Microsoft YaHei&quot;, 微软雅黑, Arial" size="16px" weight="400" font-style="" opacity="1" y="-4" transform="rotate(0)"></text></g></g><g id="SvgjsG1050" transform="translate(83.53046655217389,276.3333333333335)"><path id="SvgjsPath1051" d="M0 0L50.00398371 0L50.00398371 20 L0 20Z" stroke="rgba(102, 102, 102,1)" stroke-width="1" fill-opacity="1" fill="#ebedeb"></path><path id="SvgjsPath1052" d="M50.00398371 0L100.00796742 0L100.00796742 20 L50.00398371 20Z" stroke="rgba(102, 102, 102,1)" stroke-width="1" fill-opacity="1" fill="#ebedeb"></path><path id="SvgjsPath1053" d="M100.00796742 0L150.01195113 0L150.01195113 20 L100.00796742 20Z" stroke="rgba(102, 102, 102,1)" stroke-width="1" fill-opacity="1" fill="#dbdadc"></path><path id="SvgjsPath1054" d="M150.01195113000003 0L199.97596363000002 0L199.97596363000002 20 L150.01195113000003 20Z" stroke="rgba(102, 102, 102,1)" stroke-width="1" fill-opacity="1" fill="#dbdadc"></path><path id="SvgjsPath1055" d="M199.97596363 0L249.90000492 0L249.90000492 20 L199.97596363 20Z" stroke="rgba(102, 102, 102,1)" stroke-width="1" fill-opacity="1" fill="#c2dbb6"></path><path id="SvgjsPath1056" d="M249.90000492000001 0L299.82404621 0L299.82404621 20 L249.90000492000001 20Z" stroke="rgba(102, 102, 102,1)" stroke-width="1" fill-opacity="1" fill="#c2dbb6"></path><path id="SvgjsPath1057" d="M299.82404621 0L349.66814508 0L349.66814508 20 L299.82404621 20Z" stroke="rgba(102, 102, 102,1)" stroke-width="1" fill-opacity="1" fill="#a4c78c"></path><path id="SvgjsPath1058" d="M349.66814508000004 0L399.7121 0L399.7121 20 L349.66814508000004 20Z" stroke="rgba(102, 102, 102,1)" stroke-width="1" fill-opacity="1" fill="#a4c78c"></path><g id="SvgjsG1059"><text id="SvgjsText1060" font-family="&quot;Microsoft YaHei&quot;, 微软雅黑, Arial" text-anchor="middle" font-size="16px" width="51px" fill="#323232" font-weight="400" align="middle" lineHeight="125%" anchor="middle" family="&quot;Microsoft YaHei&quot;, 微软雅黑, Arial" size="16px" weight="400" font-style="" opacity="1" y="-4" transform="rotate(0)"></text></g><g id="SvgjsG1061"><text id="SvgjsText1062" font-family="&quot;Microsoft YaHei&quot;, 微软雅黑, Arial" text-anchor="middle" font-size="16px" width="51px" fill="#323232" font-weight="400" align="middle" lineHeight="125%" anchor="middle" family="&quot;Microsoft YaHei&quot;, 微软雅黑, Arial" size="16px" weight="400" font-style="" opacity="1" y="-4" transform="rotate(0)"></text></g><g id="SvgjsG1063"><text id="SvgjsText1064" font-family="&quot;Microsoft YaHei&quot;, 微软雅黑, Arial" text-anchor="middle" font-size="16px" width="51px" fill="#323232" font-weight="400" align="middle" lineHeight="125%" anchor="middle" family="&quot;Microsoft YaHei&quot;, 微软雅黑, Arial" size="16px" weight="400" font-style="" opacity="1" y="-4" transform="rotate(0)"></text></g><g id="SvgjsG1065"><text id="SvgjsText1066" font-family="&quot;Microsoft YaHei&quot;, 微软雅黑, Arial" text-anchor="middle" font-size="16px" width="50px" fill="#323232" font-weight="400" align="middle" lineHeight="125%" anchor="middle" family="&quot;Microsoft YaHei&quot;, 微软雅黑, Arial" size="16px" weight="400" font-style="" opacity="1" y="-4" transform="rotate(0)"></text></g><g id="SvgjsG1067"><text id="SvgjsText1068" font-family="&quot;Microsoft YaHei&quot;, 微软雅黑, Arial" text-anchor="middle" font-size="16px" width="50px" fill="#323232" font-weight="400" align="middle" lineHeight="125%" anchor="middle" family="&quot;Microsoft YaHei&quot;, 微软雅黑, Arial" size="16px" weight="400" font-style="" opacity="1" y="-4" transform="rotate(0)"></text></g><g id="SvgjsG1069"><text id="SvgjsText1070" font-family="&quot;Microsoft YaHei&quot;, 微软雅黑, Arial" text-anchor="middle" font-size="16px" width="50px" fill="#323232" font-weight="400" align="middle" lineHeight="125%" anchor="middle" family="&quot;Microsoft YaHei&quot;, 微软雅黑, Arial" size="16px" weight="400" font-style="" opacity="1" y="-4" transform="rotate(0)"></text></g><g id="SvgjsG1071"><text id="SvgjsText1072" font-family="&quot;Microsoft YaHei&quot;, 微软雅黑, Arial" text-anchor="middle" font-size="16px" width="50px" fill="#323232" font-weight="400" align="middle" lineHeight="125%" anchor="middle" family="&quot;Microsoft YaHei&quot;, 微软雅黑, Arial" size="16px" weight="400" font-style="" opacity="1" y="-4" transform="rotate(0)"></text></g><g id="SvgjsG1073"><text id="SvgjsText1074" font-family="&quot;Microsoft YaHei&quot;, 微软雅黑, Arial" text-anchor="middle" font-size="16px" width="51px" fill="#323232" font-weight="400" align="middle" lineHeight="125%" anchor="middle" family="&quot;Microsoft YaHei&quot;, 微软雅黑, Arial" size="16px" weight="400" font-style="" opacity="1" y="-4" transform="rotate(0)"></text></g></g><g id="SvgjsG1075" transform="translate(630.6202295824768,73.8333333333334)"><path id="SvgjsPath1076" d="M0 0L70 0L70 20 L0 20Z" stroke="rgba(102, 102, 102,1)" stroke-width="1" fill-opacity="1" fill="#e0ead9"></path><g id="SvgjsG1077"><text id="SvgjsText1078" font-family="&quot;Microsoft YaHei&quot;, 微软雅黑, Arial" text-anchor="middle" font-size="16px" width="70px" fill="#a57213" font-weight="400" align="middle" lineHeight="125%" anchor="middle" family="&quot;Microsoft YaHei&quot;, 微软雅黑, Arial" size="16px" weight="400" font-style="" opacity="1" y="-4" transform="rotate(0)"><tspan id="SvgjsTspan1079" dy="20" x="35"><tspan id="SvgjsTspan1080" style="">cp_info</tspan></tspan></text></g></g><g id="SvgjsG1081" transform="translate(748.5401714006587,73.8333333333334)"><path id="SvgjsPath1082" d="M0 0L70 0L70 20 L0 20Z" stroke="rgba(102, 102, 102,1)" stroke-width="1" fill-opacity="1" fill="#e0ead9"></path><g id="SvgjsG1083"><text id="SvgjsText1084" font-family="&quot;Microsoft YaHei&quot;, 微软雅黑, Arial" text-anchor="middle" font-size="16px" width="70px" fill="#a57213" font-weight="400" align="middle" lineHeight="125%" anchor="middle" family="&quot;Microsoft YaHei&quot;, 微软雅黑, Arial" size="16px" weight="400" font-style="" opacity="1" y="-4" transform="rotate(0)"><tspan id="SvgjsTspan1085" dy="20" x="35"><tspan id="SvgjsTspan1086" style="">cp_info</tspan></tspan></text></g></g><g id="SvgjsG1087" transform="translate(594.4329859461131,73.8333333333334)"><path id="SvgjsPath1088" d="M 0 0L 24.454545454545382 0L 24.454545454545382 20L 0 20Z" stroke="none" fill="none"></path><g id="SvgjsG1089"><text id="SvgjsText1090" font-family="&quot;Microsoft YaHei&quot;, 微软雅黑, Arial" text-anchor="middle" font-size="14px" width="25px" fill="#a6aef3" font-weight="400" align="middle" lineHeight="125%" anchor="middle" family="&quot;Microsoft YaHei&quot;, 微软雅黑, Arial" size="14px" weight="400" font-style="" opacity="1" y="-1.75" transform="rotate(0)"><tspan id="SvgjsTspan1091" dy="17.5" x="12.5"><tspan id="SvgjsTspan1092" style="">•••</tspan></tspan></text></g></g><g id="SvgjsG1093" transform="translate(712.352927764295,73.8333333333334)"><path id="SvgjsPath1094" d="M 0 0L 24.454545454545382 0L 24.454545454545382 20L 0 20Z" stroke="none" fill="none"></path><g id="SvgjsG1095"><text id="SvgjsText1096" font-family="&quot;Microsoft YaHei&quot;, 微软雅黑, Arial" text-anchor="middle" font-size="14px" width="25px" fill="#a6aef3" font-weight="400" align="middle" lineHeight="125%" anchor="middle" family="&quot;Microsoft YaHei&quot;, 微软雅黑, Arial" size="14px" weight="400" font-style="" opacity="1" y="-1.75" transform="rotate(0)"><tspan id="SvgjsTspan1097" dy="17.5" x="12.5"><tspan id="SvgjsTspan1098" style="">•••</tspan></tspan></text></g></g><g id="SvgjsG1099" transform="translate(830.2728695824769,73.8333333333334)"><path id="SvgjsPath1100" d="M 0 0L 24.454545454545382 0L 24.454545454545382 20L 0 20Z" stroke="none" fill="none"></path><g id="SvgjsG1101"><text id="SvgjsText1102" font-family="&quot;Microsoft YaHei&quot;, 微软雅黑, Arial" text-anchor="middle" font-size="14px" width="25px" fill="#a6aef3" font-weight="400" align="middle" lineHeight="125%" anchor="middle" family="&quot;Microsoft YaHei&quot;, 微软雅黑, Arial" size="14px" weight="400" font-style="" opacity="1" y="-1.75" transform="rotate(0)"><tspan id="SvgjsTspan1103" dy="17.5" x="12.5"><tspan id="SvgjsTspan1104" style="">•••</tspan></tspan></text></g></g><g id="SvgjsG1105" transform="matrix(-1.8369701987210297e-16,-1,1,-1.8369701987210297e-16,83.24256896972659,216.3333320617676)"><path id="SvgjsPath1106" d="M 120 0Q 111 0 111 9L 111 89.74999999999999Q 111 98.74999999999999 98 98.74999999999999Q 111 98.74999999999999 111 107.74999999999999L 111 188.49999999999997Q 111 197.49999999999997 120 197.49999999999997" stroke="rgba(215,214,215,1)" stroke-width="1.5" fill="none"></path><path id="SvgjsPath1107" d="M 0 0L 120 0L 120 197.49999999999997L 0 197.49999999999997Z" stroke="none" fill="none"></path><g id="SvgjsG1108"><text id="SvgjsText1109" font-family="&quot;Microsoft YaHei&quot;, 微软雅黑, Arial" text-anchor="end" font-size="13px" width="93px" fill="#323232" font-weight="400" align="middle" lineHeight="125%" anchor="end" family="&quot;Microsoft YaHei&quot;, 微软雅黑, Arial" size="13px" weight="400" font-style="" opacity="1" y="88.12499999999999" transform="rotate(0)"></text></g></g><g id="SvgjsG1110" transform="matrix(-1.8369701987210297e-16,-1,1,-1.8369701987210297e-16,282.4092305501302,216.33333079020184)"><path id="SvgjsPath1111" d="M 120 0Q 111 0 111 9L 111 41.4166666666667Q 111 50.4166666666667 98 50.4166666666667Q 111 50.4166666666667 111 59.4166666666667L 111 91.8333333333334Q 111 100.8333333333334 120 100.8333333333334" stroke="rgba(215,214,215,1)" stroke-width="1.5" fill="none"></path><path id="SvgjsPath1112" d="M 0 0L 120 0L 120 100.8333333333334L 0 100.8333333333334Z" stroke="none" fill="none"></path><g id="SvgjsG1113"><text id="SvgjsText1114" font-family="&quot;Microsoft YaHei&quot;, 微软雅黑, Arial" text-anchor="end" font-size="13px" width="93px" fill="#323232" font-weight="400" align="middle" lineHeight="125%" anchor="end" family="&quot;Microsoft YaHei&quot;, 微软雅黑, Arial" size="13px" weight="400" font-style="" opacity="1" y="39.7916666666667" transform="rotate(0)"></text></g></g><g id="SvgjsG1115" transform="matrix(-1.8369701987210297e-16,-1,1,-1.8369701987210297e-16,384.0758870442708,216.33333079020184)"><path id="SvgjsPath1116" d="M 120 0Q 111 0 111 9L 111 40.166666666666686Q 111 49.166666666666686 98 49.166666666666686Q 111 49.166666666666686 111 58.166666666666686L 111 89.33333333333337Q 111 98.33333333333337 120 98.33333333333337" stroke="rgba(215,214,215,1)" stroke-width="1.5" fill="none"></path><path id="SvgjsPath1117" d="M 0 0L 120 0L 120 98.33333333333337L 0 98.33333333333337Z" stroke="none" fill="none"></path><g id="SvgjsG1118"><text id="SvgjsText1119" font-family="&quot;Microsoft YaHei&quot;, 微软雅黑, Arial" text-anchor="end" font-size="13px" width="93px" fill="#323232" font-weight="400" align="middle" lineHeight="125%" anchor="end" family="&quot;Microsoft YaHei&quot;, 微软雅黑, Arial" size="13px" weight="400" font-style="" opacity="1" y="38.541666666666686" transform="rotate(0)"></text></g></g><g id="SvgjsG1120" transform="matrix(-1.8369701987210297e-16,-1,1,-1.8369701987210297e-16,484.0758870442708,216.33333079020184)"><path id="SvgjsPath1121" d="M 120 0Q 111 0 111 9L 111 40.166666666666686Q 111 49.166666666666686 98 49.166666666666686Q 111 49.166666666666686 111 58.166666666666686L 111 89.33333333333337Q 111 98.33333333333337 120 98.33333333333337" stroke="rgba(215,214,215,1)" stroke-width="1.5" fill="none"></path><path id="SvgjsPath1122" d="M 0 0L 120 0L 120 98.33333333333337L 0 98.33333333333337Z" stroke="none" fill="none"></path><g id="SvgjsG1123"><text id="SvgjsText1124" font-family="&quot;Microsoft YaHei&quot;, 微软雅黑, Arial" text-anchor="end" font-size="13px" width="93px" fill="#323232" font-weight="400" align="middle" lineHeight="125%" anchor="end" family="&quot;Microsoft YaHei&quot;, 微软雅黑, Arial" size="13px" weight="400" font-style="" opacity="1" y="38.541666666666686" transform="rotate(0)"></text></g></g><g id="SvgjsG1125"><path id="SvgjsPath1126" d="M584.0758998855072 95.66666666666674L584.0758998855072 60.66666666666674L584.0758998855072 60.66666666666674L584.0758998855072 25.666666666666742" stroke="#73a0cb" stroke-width="1.5" fill="none"></path></g><g id="SvgjsG1127"><path id="SvgjsPath1128" d="M859.9092332188405 96.16666666666677L859.9092332188405 61.16666666666676L859.9092332188405 61.16666666666676L859.9092332188405 26.166666666666742" stroke="#73a0cb" stroke-width="1.5" fill="none"></path></g><g id="SvgjsG1129"><path id="SvgjsPath1130" d="M586.575899885507 34L721.9925665521737 34L721.9925665521737 34L857.4092332188404 34" stroke="#73a0cb" stroke-width="1.5" fill="none" marker-start="url(#SvgjsMarker1131)" marker-end="url(#SvgjsMarker1133)"></path><rect id="SvgjsRect1135" width="201" height="18" x="626.6164404260476" y="25" fill="#ffffff"></rect><text id="SvgjsText1136" font-family="&quot;Microsoft YaHei&quot;, 微软雅黑, Arial" text-anchor="middle" font-size="13px" width="201px" fill="#323232" font-weight="400" align="top" lineHeight="16px" anchor="middle" family="&quot;Microsoft YaHei&quot;, 微软雅黑, Arial" size="13px" weight="400" font-style="" opacity="1" y="22.375" transform="rotate(0)"><tspan id="SvgjsTspan1137" dy="16.25" x="727.1164404260476"><tspan id="SvgjsTspan1138" style="">constant_pool_count个cp_info结构</tspan></tspan></text></g><g id="SvgjsG1139" transform="matrix(-1.8369701987210297e-16,-1,1,-1.8369701987210297e-16,583.2425944010416,216.3333333333334)"><path id="SvgjsPath1140" d="M 120 0Q 111 0 111 9L 111 129.33333333333337Q 111 138.33333333333337 98 138.33333333333337Q 111 138.33333333333337 111 147.33333333333337L 111 267.66666666666674Q 111 276.66666666666674 120 276.66666666666674" stroke="rgba(215,214,215,1)" stroke-width="1.5" fill="none"></path><path id="SvgjsPath1141" d="M 0 0L 120 0L 120 276.66666666666674L 0 276.66666666666674Z" stroke="none" fill="none"></path><g id="SvgjsG1142"><text id="SvgjsText1143" font-family="&quot;Microsoft YaHei&quot;, 微软雅黑, Arial" text-anchor="end" font-size="13px" width="93px" fill="#323232" font-weight="400" align="middle" lineHeight="125%" anchor="end" family="&quot;Microsoft YaHei&quot;, 微软雅黑, Arial" size="13px" weight="400" font-style="" opacity="1" y="127.70833333333337" transform="rotate(0)"></text></g></g><g id="SvgjsG1144" transform="translate(132.40923321884046,114.66666666666674)"><path id="SvgjsPath1145" d="M 0 0L 100 0L 100 40L 0 40Z" stroke="none" fill="none"></path><g id="SvgjsG1146"><text id="SvgjsText1147" font-family="&quot;Microsoft YaHei&quot;, 微软雅黑, Arial" text-anchor="middle" font-size="12px" width="100px" fill="#323232" font-weight="400" align="middle" lineHeight="125%" anchor="middle" family="&quot;Microsoft YaHei&quot;, 微软雅黑, Arial" size="12px" weight="400" font-style="" opacity="1" y="2.5" transform="rotate(0)"><tspan id="SvgjsTspan1148" dy="15" x="50"><tspan id="SvgjsTspan1149" style="">魔数</tspan></tspan><tspan id="SvgjsTspan1150" dy="15" x="50"><tspan id="SvgjsTspan1151" style="">[</tspan><tspan id="SvgjsTspan1152" style="fill: rgb(165, 114, 19);">magic</tspan><tspan id="SvgjsTspan1153" style="">]</tspan></tspan></text></g></g><g id="SvgjsG1154" transform="translate(282.8274877642951,114.66666666666674)"><path id="SvgjsPath1155" d="M 0 0L 100 0L 100 40L 0 40Z" stroke="none" fill="none"></path><g id="SvgjsG1156"><text id="SvgjsText1157" font-family="&quot;Microsoft YaHei&quot;, 微软雅黑, Arial" text-anchor="middle" font-size="12px" width="100px" fill="#323232" font-weight="400" align="middle" lineHeight="125%" anchor="middle" family="&quot;Microsoft YaHei&quot;, 微软雅黑, Arial" size="12px" weight="400" font-style="" opacity="1" y="2.5" transform="rotate(0)"><tspan id="SvgjsTspan1158" dy="15" x="50"><tspan id="SvgjsTspan1159" style="">副版本号</tspan></tspan><tspan id="SvgjsTspan1160" dy="15" x="50"><tspan id="SvgjsTspan1161" style="">[</tspan><tspan id="SvgjsTspan1162" style="fill: rgb(165, 114, 19);">minor_version</tspan><tspan id="SvgjsTspan1163" style="">]</tspan></tspan></text></g></g><g id="SvgjsG1164" transform="translate(383.2425665521739,114.66666666666674)"><path id="SvgjsPath1165" d="M 0 0L 100 0L 100 40L 0 40Z" stroke="none" fill="none"></path><g id="SvgjsG1166"><text id="SvgjsText1167" font-family="&quot;Microsoft YaHei&quot;, 微软雅黑, Arial" text-anchor="middle" font-size="12px" width="100px" fill="#323232" font-weight="400" align="middle" lineHeight="125%" anchor="middle" family="&quot;Microsoft YaHei&quot;, 微软雅黑, Arial" size="12px" weight="400" font-style="" opacity="1" y="2.5" transform="rotate(0)"><tspan id="SvgjsTspan1168" dy="15" x="50"><tspan id="SvgjsTspan1169" style="">主版本号</tspan></tspan><tspan id="SvgjsTspan1170" dy="15" x="50"><tspan id="SvgjsTspan1171" style="">[</tspan><tspan id="SvgjsTspan1172" style="fill: rgb(165, 114, 19);">major_version</tspan><tspan id="SvgjsTspan1173" style="">]</tspan></tspan></text></g></g><g id="SvgjsG1174" transform="translate(470.200287764295,110.16666666666674)"><path id="SvgjsPath1175" d="M 0 0L 128.8756121212122 0L 128.8756121212122 49L 0 49Z" stroke="none" fill="none"></path><g id="SvgjsG1176"><text id="SvgjsText1177" font-family="&quot;Microsoft YaHei&quot;, 微软雅黑, Arial" text-anchor="middle" font-size="12px" width="129px" fill="#323232" font-weight="400" align="middle" lineHeight="125%" anchor="middle" family="&quot;Microsoft YaHei&quot;, 微软雅黑, Arial" size="12px" weight="400" font-style="" opacity="1" y="7" transform="rotate(0)"><tspan id="SvgjsTspan1178" dy="15" x="64.5"><tspan id="SvgjsTspan1179" style="">常量池计数器</tspan></tspan><tspan id="SvgjsTspan1180" dy="15" x="64.5"><tspan id="SvgjsTspan1181" style="">[</tspan><tspan id="SvgjsTspan1182" style="fill: rgb(165, 114, 19);">constant_pool_count</tspan><tspan id="SvgjsTspan1183" style="">]</tspan></tspan></text></g></g><g id="SvgjsG1184" transform="translate(656.0336210976283,114.66666666666674)"><path id="SvgjsPath1185" d="M 0 0L 128.8756121212122 0L 128.8756121212122 40L 0 40Z" stroke="none" fill="none"></path><g id="SvgjsG1186"><text id="SvgjsText1187" font-family="&quot;Microsoft YaHei&quot;, 微软雅黑, Arial" text-anchor="middle" font-size="12px" width="129px" fill="#323232" font-weight="400" align="middle" lineHeight="125%" anchor="middle" family="&quot;Microsoft YaHei&quot;, 微软雅黑, Arial" size="12px" weight="400" font-style="" opacity="1" y="10" transform="rotate(0)"><tspan id="SvgjsTspan1188" dy="15" x="64.5"><tspan id="SvgjsTspan1189" style="">常量池数据区</tspan></tspan></text></g></g><g id="SvgjsG1190" transform="matrix(-1.8369701987210297e-16,-1,1,-1.8369701987210297e-16,82.40923055013019,416.3333231608073)"><path id="SvgjsPath1191" d="M 120 0Q 111 0 111 9L 111 41.4166666666667Q 111 50.4166666666667 98 50.4166666666667Q 111 50.4166666666667 111 59.4166666666667L 111 91.8333333333334Q 111 100.8333333333334 120 100.8333333333334" stroke="rgba(215,214,215,1)" stroke-width="1.5" fill="none"></path><path id="SvgjsPath1192" d="M 0 0L 120 0L 120 100.8333333333334L 0 100.8333333333334Z" stroke="none" fill="none"></path><g id="SvgjsG1193"><text id="SvgjsText1194" font-family="&quot;Microsoft YaHei&quot;, 微软雅黑, Arial" text-anchor="end" font-size="13px" width="93px" fill="#323232" font-weight="400" align="middle" lineHeight="125%" anchor="end" family="&quot;Microsoft YaHei&quot;, 微软雅黑, Arial" size="13px" weight="400" font-style="" opacity="1" y="39.7916666666667" transform="rotate(0)"></text></g></g><g id="SvgjsG1195" transform="translate(82.82748776429506,314.66666666666674)"><path id="SvgjsPath1196" d="M 0 0L 100 0L 100 40L 0 40Z" stroke="none" fill="none"></path><g id="SvgjsG1197"><text id="SvgjsText1198" font-family="&quot;Microsoft YaHei&quot;, 微软雅黑, Arial" text-anchor="middle" font-size="12px" width="100px" fill="#323232" font-weight="400" align="middle" lineHeight="125%" anchor="middle" family="&quot;Microsoft YaHei&quot;, 微软雅黑, Arial" size="12px" weight="400" font-style="" opacity="1" y="2.5" transform="rotate(0)"><tspan id="SvgjsTspan1199" dy="15" x="50"><tspan id="SvgjsTspan1200" style="">访问标志</tspan></tspan><tspan id="SvgjsTspan1201" dy="15" x="50"><tspan id="SvgjsTspan1202" style="">[</tspan><tspan id="SvgjsTspan1203" style="fill: rgb(165, 114, 19);">access_flags</tspan><tspan id="SvgjsTspan1204" style="">]</tspan></tspan></text></g></g><g id="SvgjsG1205" transform="matrix(-1.8369701987210297e-16,-1,1,-1.8369701987210297e-16,183.24257405598956,416.3333231608073)"><path id="SvgjsPath1206" d="M 120 0Q 111 0 111 9L 111 41.4166666666667Q 111 50.4166666666667 98 50.4166666666667Q 111 50.4166666666667 111 59.4166666666667L 111 91.8333333333334Q 111 100.8333333333334 120 100.8333333333334" stroke="rgba(215,214,215,1)" stroke-width="1.5" fill="none"></path><path id="SvgjsPath1207" d="M 0 0L 120 0L 120 100.8333333333334L 0 100.8333333333334Z" stroke="none" fill="none"></path><g id="SvgjsG1208"><text id="SvgjsText1209" font-family="&quot;Microsoft YaHei&quot;, 微软雅黑, Arial" text-anchor="end" font-size="13px" width="93px" fill="#323232" font-weight="400" align="middle" lineHeight="125%" anchor="end" family="&quot;Microsoft YaHei&quot;, 微软雅黑, Arial" size="13px" weight="400" font-style="" opacity="1" y="39.7916666666667" transform="rotate(0)"></text></g></g><g id="SvgjsG1210" transform="translate(183.6608210976284,314.66666666666674)"><path id="SvgjsPath1211" d="M 0 0L 100 0L 100 40L 0 40Z" stroke="none" fill="none"></path><g id="SvgjsG1212"><text id="SvgjsText1213" font-family="&quot;Microsoft YaHei&quot;, 微软雅黑, Arial" text-anchor="middle" font-size="12px" width="100px" fill="#323232" font-weight="400" align="middle" lineHeight="125%" anchor="middle" family="&quot;Microsoft YaHei&quot;, 微软雅黑, Arial" size="12px" weight="400" font-style="" opacity="1" y="2.5" transform="rotate(0)"><tspan id="SvgjsTspan1214" dy="15" x="50"><tspan id="SvgjsTspan1215" style="">类索引</tspan></tspan><tspan id="SvgjsTspan1216" dy="15" x="50"><tspan id="SvgjsTspan1217" style="">[</tspan><tspan id="SvgjsTspan1218" style="fill: rgb(165, 114, 19);">this_class</tspan><tspan id="SvgjsTspan1219" style="">]</tspan></tspan></text></g></g><g id="SvgjsG1220" transform="matrix(-1.8369701987210297e-16,-1,1,-1.8369701987210297e-16,282.4092305501302,416.3333231608073)"><path id="SvgjsPath1221" d="M 120 0Q 111 0 111 9L 111 41.4166666666667Q 111 50.4166666666667 98 50.4166666666667Q 111 50.4166666666667 111 59.4166666666667L 111 91.8333333333334Q 111 100.8333333333334 120 100.8333333333334" stroke="rgba(215,214,215,1)" stroke-width="1.5" fill="none"></path><path id="SvgjsPath1222" d="M 0 0L 120 0L 120 100.8333333333334L 0 100.8333333333334Z" stroke="none" fill="none"></path><g id="SvgjsG1223"><text id="SvgjsText1224" font-family="&quot;Microsoft YaHei&quot;, 微软雅黑, Arial" text-anchor="end" font-size="13px" width="93px" fill="#323232" font-weight="400" align="middle" lineHeight="125%" anchor="end" family="&quot;Microsoft YaHei&quot;, 微软雅黑, Arial" size="13px" weight="400" font-style="" opacity="1" y="39.7916666666667" transform="rotate(0)"></text></g></g><g id="SvgjsG1225" transform="translate(282.8274877642951,314.66666666666663)"><path id="SvgjsPath1226" d="M 0 0L 100 0L 100 40L 0 40Z" stroke="none" fill="none"></path><g id="SvgjsG1227"><text id="SvgjsText1228" font-family="&quot;Microsoft YaHei&quot;, 微软雅黑, Arial" text-anchor="middle" font-size="12px" width="100px" fill="#323232" font-weight="400" align="middle" lineHeight="125%" anchor="middle" family="&quot;Microsoft YaHei&quot;, 微软雅黑, Arial" size="12px" weight="400" font-style="" opacity="1" y="2.5" transform="rotate(0)"><tspan id="SvgjsTspan1229" dy="15" x="50"><tspan id="SvgjsTspan1230" style="">父类索引</tspan></tspan><tspan id="SvgjsTspan1231" dy="15" x="50"><tspan id="SvgjsTspan1232" style="">[</tspan><tspan id="SvgjsTspan1233" style="fill: rgb(165, 114, 19);">super_class</tspan><tspan id="SvgjsTspan1234" style="">]</tspan></tspan></text></g></g><g id="SvgjsG1235" transform="matrix(-1.8369701987210297e-16,-1,1,-1.8369701987210297e-16,382.8258870442708,416.3333231608073)"><path id="SvgjsPath1236" d="M 120 0Q 111 0 111 9L 111 41.4166666666667Q 111 50.4166666666667 98 50.4166666666667Q 111 50.4166666666667 111 59.4166666666667L 111 91.8333333333334Q 111 100.8333333333334 120 100.8333333333334" stroke="rgba(215,214,215,1)" stroke-width="1.5" fill="none"></path><path id="SvgjsPath1237" d="M 0 0L 120 0L 120 100.8333333333334L 0 100.8333333333334Z" stroke="none" fill="none"></path><g id="SvgjsG1238"><text id="SvgjsText1239" font-family="&quot;Microsoft YaHei&quot;, 微软雅黑, Arial" text-anchor="end" font-size="13px" width="93px" fill="#323232" font-weight="400" align="middle" lineHeight="125%" anchor="end" family="&quot;Microsoft YaHei&quot;, 微软雅黑, Arial" size="13px" weight="400" font-style="" opacity="1" y="39.7916666666667" transform="rotate(0)"></text></g></g><g id="SvgjsG1240" transform="translate(383.2441544309617,314.66666666666663)"><path id="SvgjsPath1241" d="M 0 0L 100 0L 100 40L 0 40Z" stroke="none" fill="none"></path><g id="SvgjsG1242"><text id="SvgjsText1243" font-family="&quot;Microsoft YaHei&quot;, 微软雅黑, Arial" text-anchor="middle" font-size="12px" width="100px" fill="#323232" font-weight="400" align="middle" lineHeight="125%" anchor="middle" family="&quot;Microsoft YaHei&quot;, 微软雅黑, Arial" size="12px" weight="400" font-style="" opacity="1" y="2.5" transform="rotate(0)"><tspan id="SvgjsTspan1244" dy="15" x="50"><tspan id="SvgjsTspan1245" style="">接口计数器</tspan></tspan><tspan id="SvgjsTspan1246" dy="15" x="50"><tspan id="SvgjsTspan1247" style="">[</tspan><tspan id="SvgjsTspan1248" style="fill: rgb(165, 114, 19);">interface_count</tspan><tspan id="SvgjsTspan1249" style="">]</tspan></tspan></text></g></g><g id="SvgjsG1250" transform="translate(523.5808084915677,276.3333333333335)"><path id="SvgjsPath1251" d="M0 0L50.01925000000002 0L50.01925000000002 20 L0 20Z" stroke="rgba(102, 102, 102,1)" stroke-width="1" fill-opacity="1" fill="#e1b246"></path><path id="SvgjsPath1252" d="M50.01925000000002 0L100.03850000000004 0L100.03850000000004 20 L50.01925000000002 20Z" stroke="rgba(102, 102, 102,1)" stroke-width="1" fill-opacity="1" fill="#e1b246"></path><g id="SvgjsG1253"><text id="SvgjsText1254" font-family="&quot;Microsoft YaHei&quot;, 微软雅黑, Arial" text-anchor="middle" font-size="16px" width="51px" fill="#323232" font-weight="400" align="middle" lineHeight="125%" anchor="middle" family="&quot;Microsoft YaHei&quot;, 微软雅黑, Arial" size="16px" weight="400" font-style="" opacity="1" y="-4" transform="rotate(0)"></text></g><g id="SvgjsG1255"><text id="SvgjsText1256" font-family="&quot;Microsoft YaHei&quot;, 微软雅黑, Arial" text-anchor="middle" font-size="16px" width="51px" fill="#323232" font-weight="400" align="middle" lineHeight="125%" anchor="middle" family="&quot;Microsoft YaHei&quot;, 微软雅黑, Arial" size="16px" weight="400" font-style="" opacity="1" y="-4" transform="rotate(0)"></text></g></g><g id="SvgjsG1257" transform="translate(491.3927481279315,276.3333333333335)"><path id="SvgjsPath1258" d="M 0 0L 24.454545454545382 0L 24.454545454545382 20L 0 20Z" stroke="none" fill="none"></path><g id="SvgjsG1259"><text id="SvgjsText1260" font-family="&quot;Microsoft YaHei&quot;, 微软雅黑, Arial" text-anchor="middle" font-size="14px" width="25px" fill="#a6aef3" font-weight="400" align="middle" lineHeight="125%" anchor="middle" family="&quot;Microsoft YaHei&quot;, 微软雅黑, Arial" size="14px" weight="400" font-style="" opacity="1" y="-1.75" transform="rotate(0)"><tspan id="SvgjsTspan1261" dy="17.5" x="12.5"><tspan id="SvgjsTspan1262" style="">•••</tspan></tspan></text></g></g><g id="SvgjsG1263" transform="translate(631.3528234006587,276.3333333333335)"><path id="SvgjsPath1264" d="M 0 0L 24.454545454545382 0L 24.454545454545382 20L 0 20Z" stroke="none" fill="none"></path><g id="SvgjsG1265"><text id="SvgjsText1266" font-family="&quot;Microsoft YaHei&quot;, 微软雅黑, Arial" text-anchor="middle" font-size="14px" width="25px" fill="#a6aef3" font-weight="400" align="middle" lineHeight="125%" anchor="middle" family="&quot;Microsoft YaHei&quot;, 微软雅黑, Arial" size="14px" weight="400" font-style="" opacity="1" y="-1.75" transform="rotate(0)"><tspan id="SvgjsTspan1267" dy="17.5" x="12.5"><tspan id="SvgjsTspan1268" style="">•••</tspan></tspan></text></g></g><g id="SvgjsG1269" transform="translate(771.3128986733859,276.3333333333335)"><path id="SvgjsPath1270" d="M 0 0L 24.454545454545382 0L 24.454545454545382 20L 0 20Z" stroke="none" fill="none"></path><g id="SvgjsG1271"><text id="SvgjsText1272" font-family="&quot;Microsoft YaHei&quot;, 微软雅黑, Arial" text-anchor="middle" font-size="14px" width="25px" fill="#a6aef3" font-weight="400" align="middle" lineHeight="125%" anchor="middle" family="&quot;Microsoft YaHei&quot;, 微软雅黑, Arial" size="14px" weight="400" font-style="" opacity="1" y="-1.75" transform="rotate(0)"><tspan id="SvgjsTspan1273" dy="17.5" x="12.5"><tspan id="SvgjsTspan1274" style="">•••</tspan></tspan></text></g></g><g id="SvgjsG1275" transform="translate(663.540883764295,276.3333333333335)"><path id="SvgjsPath1276" d="M0 0L50.01925000000002 0L50.01925000000002 20 L0 20Z" stroke="rgba(102, 102, 102,1)" stroke-width="1" fill-opacity="1" fill="#e1b246"></path><path id="SvgjsPath1277" d="M50.01925000000002 0L100.03850000000004 0L100.03850000000004 20 L50.01925000000002 20Z" stroke="rgba(102, 102, 102,1)" stroke-width="1" fill-opacity="1" fill="#e1b246"></path><g id="SvgjsG1278"><text id="SvgjsText1279" font-family="&quot;Microsoft YaHei&quot;, 微软雅黑, Arial" text-anchor="middle" font-size="16px" width="51px" fill="#323232" font-weight="400" align="middle" lineHeight="125%" anchor="middle" family="&quot;Microsoft YaHei&quot;, 微软雅黑, Arial" size="16px" weight="400" font-style="" opacity="1" y="-4" transform="rotate(0)"></text></g><g id="SvgjsG1280"><text id="SvgjsText1281" font-family="&quot;Microsoft YaHei&quot;, 微软雅黑, Arial" text-anchor="middle" font-size="16px" width="51px" fill="#323232" font-weight="400" align="middle" lineHeight="125%" anchor="middle" family="&quot;Microsoft YaHei&quot;, 微软雅黑, Arial" size="16px" weight="400" font-style="" opacity="1" y="-4" transform="rotate(0)"></text></g></g><g id="SvgjsG1282"><path id="SvgjsPath1283" d="M484.4037687379662 299.7978142076503L484.4037687379662 229.79781420765036" stroke="#73a0cb" stroke-width="1.5" fill="none"></path></g><g id="SvgjsG1284"><path id="SvgjsPath1285" d="M794.5677031641957 299.4043715846998L794.5677031641957 229.40437158469953" stroke="#73a0cb" stroke-width="1.5" fill="none"></path></g><g id="SvgjsG1286"><path id="SvgjsPath1287" d="M487.931832088897 240.2711864406779L639.7891767216654 240.2711864406779L639.7891767216654 240.2711864406779L791.6465213544337 240.2711864406779" stroke="#73a0cb" stroke-width="1.5" fill="none" marker-start="url(#SvgjsMarker1288)" marker-end="url(#SvgjsMarker1290)"></path><rect id="SvgjsRect1292" width="178" height="18" x="556.5351303023648" y="231.2711864406779" fill="#ffffff"></rect><text id="SvgjsText1293" font-family="&quot;Microsoft YaHei&quot;, 微软雅黑, Arial" text-anchor="middle" font-size="13px" width="178px" fill="#323232" font-weight="400" align="top" lineHeight="16px" anchor="middle" family="&quot;Microsoft YaHei&quot;, 微软雅黑, Arial" size="13px" weight="400" font-style="" opacity="1" y="228.6461864406779" transform="rotate(0)"><tspan id="SvgjsTspan1294" dy="16.25" x="645.5351303023648"><tspan id="SvgjsTspan1295" style="">interface_count个interface信息</tspan></tspan></text></g><g id="SvgjsG1296" transform="matrix(-1.8369701987210297e-16,-1,1,-1.8369701987210297e-16,485.02926756433175,416.84181092687925)"><path id="SvgjsPath1297" d="M 120 0Q 111 0 111 9L 111 145.579802259887Q 111 154.579802259887 98 154.579802259887Q 111 154.579802259887 111 163.579802259887L 111 300.159604519774Q 111 309.159604519774 120 309.159604519774" stroke="rgba(215,214,215,1)" stroke-width="1.5" fill="none"></path><path id="SvgjsPath1298" d="M 0 0L 120 0L 120 309.159604519774L 0 309.159604519774Z" stroke="none" fill="none"></path><g id="SvgjsG1299"><text id="SvgjsText1300" font-family="&quot;Microsoft YaHei&quot;, 微软雅黑, Arial" text-anchor="end" font-size="13px" width="93px" fill="#323232" font-weight="400" align="middle" lineHeight="125%" anchor="end" family="&quot;Microsoft YaHei&quot;, 微软雅黑, Arial" size="13px" weight="400" font-style="" opacity="1" y="143.954802259887" transform="rotate(0)"></text></g></g><g id="SvgjsG1301" transform="translate(588.4953503652196,314.66666666666663)"><path id="SvgjsPath1302" d="M 0 0L 100 0L 100 40L 0 40Z" stroke="none" fill="none"></path><g id="SvgjsG1303"><text id="SvgjsText1304" font-family="&quot;Microsoft YaHei&quot;, 微软雅黑, Arial" text-anchor="middle" font-size="12px" width="100px" fill="#323232" font-weight="400" align="middle" lineHeight="125%" anchor="middle" family="&quot;Microsoft YaHei&quot;, 微软雅黑, Arial" size="12px" weight="400" font-style="" opacity="1" y="10" transform="rotate(0)"><tspan id="SvgjsTspan1305" dy="15" x="50"><tspan id="SvgjsTspan1306" style="">接口信息数据区</tspan></tspan></text></g></g><g id="SvgjsG1307"><path id="SvgjsPath1308" d="M862.0469143782608 64.05072463768123C 1067.617566552174 208.2083333333334 -269.8824334478262 172.79166666666674 80.5944870242422 285.33833372953154" stroke-dasharray="2,3" stroke="#d2d6f9" stroke-width="2" fill="none" marker-end="url(#SvgjsMarker1309)"></path></g><g id="SvgjsG1311"></g></svg>