<svg id="SvgjsSvg1006" width="480" height="415.5000000000001" xmlns="http://www.w3.org/2000/svg" version="1.1" xmlns:xlink="http://www.w3.org/1999/xlink" xmlns:svgjs="http://svgjs.com/svgjs"><defs id="SvgjsDefs1007"><pattern patternUnits="userSpaceOnUse" id="pattern_mark_0" width="300" height="300"><text x="150" y="100" fill="rgba(229,229,229,0.8)" font-size="18" transform="rotate(-45, 150, 150)" style="dominant-baseline: middle; text-anchor: middle;"></text></pattern><pattern patternUnits="userSpaceOnUse" id="pattern_mark_1" width="300" height="300"><text x="150" y="200" fill="rgba(229,229,229,0.8)" font-size="18" transform="rotate(-45, 150, 150)" style="dominant-baseline: middle; text-anchor: middle;"></text></pattern></defs><rect id="svgbackgroundid" width="480" height="415.5000000000001" fill="transparent"></rect><rect id="SvgjsRect1009" width="480" height="415.5000000000001" fill="url(#pattern_mark_0)"></rect><rect id="SvgjsRect1010" width="480" height="415.5000000000001" fill="url(#pattern_mark_1)"></rect><g id="SvgjsG1011" transform="translate(155,27.5)"><path id="SvgjsPath1012" d="M 0 4Q 0 0 4 0L 166 0Q 170 0 170 4L 170 31Q 170 35 166 35L 4 35Q 0 35 0 31Z" stroke="rgba(166,106,48,1)" stroke-width="1.5" fill-opacity="1" fill="#ffffff"></path><g id="SvgjsG1013"><text id="SvgjsText1014" font-family="&quot;Microsoft YaHei&quot;, 微软雅黑, Arial" text-anchor="middle" font-size="15px" width="150px" fill="#a66a30" font-weight="700" align="middle" lineHeight="125%" anchor="middle" family="&quot;Microsoft YaHei&quot;, 微软雅黑, Arial" size="15px" weight="700" font-style="" opacity="1" y="5.125" transform="rotate(0)"><tspan id="SvgjsTspan1015" dy="18.75" x="85"><tspan id="SvgjsTspan1016" style="">应用层</tspan></tspan></text></g></g><g id="SvgjsG1017" transform="translate(155,246.16666666666674)"><path id="SvgjsPath1018" d="M 0 4Q 0 0 4 0L 166 0Q 170 0 170 4L 170 31Q 170 35 166 35L 4 35Q 0 35 0 31Z" stroke="rgba(167,147,44,1)" stroke-width="1.5" fill-opacity="1" fill="#a66a30"></path><g id="SvgjsG1019"><text id="SvgjsText1020" font-family="&quot;Microsoft YaHei&quot;, 微软雅黑, Arial" text-anchor="middle" font-size="15px" width="150px" fill="#ffffff" font-weight="700" align="middle" lineHeight="125%" anchor="middle" family="&quot;Microsoft YaHei&quot;, 微软雅黑, Arial" size="15px" weight="700" font-style="" opacity="1" y="5.125" transform="rotate(0)"><tspan id="SvgjsTspan1021" dy="18.75" x="85"><tspan id="SvgjsTspan1022" style="">传统机器层</tspan></tspan></text></g></g><g id="SvgjsG1023" transform="translate(155,82.16666666666669)"><path id="SvgjsPath1024" d="M 0 4Q 0 0 4 0L 166 0Q 170 0 170 4L 170 31Q 170 35 166 35L 4 35Q 0 35 0 31Z" stroke="rgba(166,106,48,1)" stroke-width="1.5" fill-opacity="1" fill="#ffffff"></path><g id="SvgjsG1025"><text id="SvgjsText1026" font-family="&quot;Microsoft YaHei&quot;, 微软雅黑, Arial" text-anchor="middle" font-size="15px" width="150px" fill="#a66a30" font-weight="700" align="middle" lineHeight="125%" anchor="middle" family="&quot;Microsoft YaHei&quot;, 微软雅黑, Arial" size="15px" weight="700" font-style="" opacity="1" y="5.125" transform="rotate(0)"><tspan id="SvgjsTspan1027" dy="18.75" x="85"><tspan id="SvgjsTspan1028" style="">高级语言层</tspan></tspan></text></g></g><g id="SvgjsG1029" transform="translate(155,136.83333333333337)"><path id="SvgjsPath1030" d="M 0 4Q 0 0 4 0L 166 0Q 170 0 170 4L 170 31Q 170 35 166 35L 4 35Q 0 35 0 31Z" stroke="rgba(166,106,48,1)" stroke-width="1.5" fill-opacity="1" fill="#ffffff"></path><g id="SvgjsG1031"><text id="SvgjsText1032" font-family="&quot;Microsoft YaHei&quot;, 微软雅黑, Arial" text-anchor="middle" font-size="15px" width="150px" fill="#a66a30" font-weight="700" align="middle" lineHeight="125%" anchor="middle" family="&quot;Microsoft YaHei&quot;, 微软雅黑, Arial" size="15px" weight="700" font-style="" opacity="1" y="5.125" transform="rotate(0)"><tspan id="SvgjsTspan1033" dy="18.75" x="85"><tspan id="SvgjsTspan1034" style="">汇编语言层</tspan></tspan></text></g></g><g id="SvgjsG1035" transform="translate(155,191.50000000000006)"><path id="SvgjsPath1036" d="M 0 4Q 0 0 4 0L 166 0Q 170 0 170 4L 170 31Q 170 35 166 35L 4 35Q 0 35 0 31Z" stroke="rgba(166,106,48,1)" stroke-width="1.5" fill-opacity="1" fill="#ffffff"></path><g id="SvgjsG1037"><text id="SvgjsText1038" font-family="&quot;Microsoft YaHei&quot;, 微软雅黑, Arial" text-anchor="middle" font-size="15px" width="150px" fill="#a66a30" font-weight="700" align="middle" lineHeight="125%" anchor="middle" family="&quot;Microsoft YaHei&quot;, 微软雅黑, Arial" size="15px" weight="700" font-style="" opacity="1" y="5.125" transform="rotate(0)"><tspan id="SvgjsTspan1039" dy="18.75" x="85"><tspan id="SvgjsTspan1040" style="">操作系统层</tspan></tspan></text></g></g><g id="SvgjsG1041" transform="translate(155,300.8333333333334)"><path id="SvgjsPath1042" d="M 0 4Q 0 0 4 0L 166 0Q 170 0 170 4L 170 31Q 170 35 166 35L 4 35Q 0 35 0 31Z" stroke="rgba(167,147,44,1)" stroke-width="1.5" fill-opacity="1" fill="#a66a30"></path><g id="SvgjsG1043"><text id="SvgjsText1044" font-family="&quot;Microsoft YaHei&quot;, 微软雅黑, Arial" text-anchor="middle" font-size="15px" width="150px" fill="#ffffff" font-weight="700" align="middle" lineHeight="125%" anchor="middle" family="&quot;Microsoft YaHei&quot;, 微软雅黑, Arial" size="15px" weight="700" font-style="" opacity="1" y="5.125" transform="rotate(0)"><tspan id="SvgjsTspan1045" dy="18.75" x="85"><tspan id="SvgjsTspan1046" style="">微程序机器层</tspan></tspan></text></g></g><g id="SvgjsG1047" transform="translate(155,355.5000000000001)"><path id="SvgjsPath1048" d="M 0 4Q 0 0 4 0L 166 0Q 170 0 170 4L 170 31Q 170 35 166 35L 4 35Q 0 35 0 31Z" stroke="rgba(167,147,44,1)" stroke-width="1.5" fill-opacity="1" fill="#a66a30"></path><g id="SvgjsG1049"><text id="SvgjsText1050" font-family="&quot;Microsoft YaHei&quot;, 微软雅黑, Arial" text-anchor="middle" font-size="15px" width="150px" fill="#ffffff" font-weight="700" align="middle" lineHeight="125%" anchor="middle" family="&quot;Microsoft YaHei&quot;, 微软雅黑, Arial" size="15px" weight="700" font-style="" opacity="1" y="5.125" transform="rotate(0)"><tspan id="SvgjsTspan1051" dy="18.75" x="85"><tspan id="SvgjsTspan1052" style="">硬件逻辑层</tspan></tspan></text></g></g><g id="SvgjsG1053" transform="translate(25,82.16666666666669)"><path id="SvgjsPath1054" d="M 120 0Q 111 0 111 9L 111 63.1666666666667Q 111 72.1666666666667 98 72.1666666666667Q 111 72.1666666666667 111 81.1666666666667L 111 135.3333333333334Q 111 144.3333333333334 120 144.3333333333334" stroke="rgba(33,41,48,1)" stroke-width="1.5" fill="none"></path><path id="SvgjsPath1055" d="M 0 0L 120 0L 120 144.3333333333334L 0 144.3333333333334Z" stroke="none" fill="none"></path><g id="SvgjsG1056"><text id="SvgjsText1057" font-family="&quot;Microsoft YaHei&quot;, 微软雅黑, Arial" text-anchor="end" font-size="15px" width="93px" fill="#323232" font-weight="700" align="middle" lineHeight="125%" anchor="end" family="&quot;Microsoft YaHei&quot;, 微软雅黑, Arial" size="15px" weight="700" font-style="" opacity="1" y="59.7916666666667" transform="rotate(0)"><tspan id="SvgjsTspan1058" dy="18.75" x="93"><tspan id="SvgjsTspan1059" style="">系统软件</tspan></tspan></text></g></g><g id="SvgjsG1060" transform="translate(335,27.5)"><path id="SvgjsPath1061" d="M 0 199.00000000000006Q 9 199.00000000000006 9 190.00000000000006L 9 108.50000000000003Q 9 99.50000000000003 22 99.50000000000003Q 9 99.50000000000003 9 90.50000000000003L 9 9Q 9 0 0 0" stroke="rgba(33,41,48,1)" stroke-width="1.5" fill="none"></path><path id="SvgjsPath1062" d="M 0 0L 120 0L 120 199.00000000000006L 0 199.00000000000006Z" stroke="none" fill="none"></path><g id="SvgjsG1063"><text id="SvgjsText1064" font-family="&quot;Microsoft YaHei&quot;, 微软雅黑, Arial" text-anchor="start" font-size="15px" width="93px" fill="#323232" font-weight="700" align="middle" lineHeight="125%" anchor="start" family="&quot;Microsoft YaHei&quot;, 微软雅黑, Arial" size="15px" weight="700" font-style="" opacity="1" y="87.12500000000003" transform="rotate(0)"><tspan id="SvgjsTspan1065" dy="18.75" x="27"><tspan id="SvgjsTspan1066" style="">虚拟机器</tspan></tspan></text></g></g><g id="SvgjsG1067" transform="translate(335,246.16666666666674)"><path id="SvgjsPath1068" d="M 0 144.3333333333334Q 9 144.3333333333334 9 135.3333333333334L 9 81.1666666666667Q 9 72.1666666666667 22 72.1666666666667Q 9 72.1666666666667 9 63.1666666666667L 9 9Q 9 0 0 0" stroke="rgba(33,41,48,1)" stroke-width="1.5" fill="none"></path><path id="SvgjsPath1069" d="M 0 0L 120 0L 120 144.3333333333334L 0 144.3333333333334Z" stroke="none" fill="none"></path><g id="SvgjsG1070"><text id="SvgjsText1071" font-family="&quot;Microsoft YaHei&quot;, 微软雅黑, Arial" text-anchor="start" font-size="15px" width="93px" fill="#323232" font-weight="700" align="middle" lineHeight="125%" anchor="start" family="&quot;Microsoft YaHei&quot;, 微软雅黑, Arial" size="15px" weight="700" font-style="" opacity="1" y="59.7916666666667" transform="rotate(0)"><tspan id="SvgjsTspan1072" dy="18.75" x="27"><tspan id="SvgjsTspan1073" style="">实际机器</tspan></tspan></text></g></g><g id="SvgjsG1074" transform="translate(40,25)"><path id="SvgjsPath1075" d="M 0 0L 100 0L 100 40L 0 40Z" stroke="none" fill="none"></path><g id="SvgjsG1076"><text id="SvgjsText1077" font-family="&quot;Microsoft YaHei&quot;, 微软雅黑, Arial" text-anchor="middle" font-size="15px" width="100px" fill="#323232" font-weight="400" align="middle" lineHeight="125%" anchor="middle" family="&quot;Microsoft YaHei&quot;, 微软雅黑, Arial" size="15px" weight="400" font-style="" opacity="1" y="7.625" transform="rotate(0)"><tspan id="SvgjsTspan1078" dy="18.75" x="50"><tspan id="SvgjsTspan1079" style="font-weight: bold;">应用软件</tspan></tspan></text></g></g><g id="SvgjsG1080"></g></svg>