<svg id="SvgjsSvg1006" width="937.1155885471898" height="709" xmlns="http://www.w3.org/2000/svg" version="1.1" xmlns:xlink="http://www.w3.org/1999/xlink" xmlns:svgjs="http://svgjs.com/svgjs"><defs id="SvgjsDefs1007"><pattern patternUnits="userSpaceOnUse" id="pattern_mark_0" width="300" height="300"><text x="150" y="100" fill="rgba(229,229,229,0.8)" font-size="18" transform="rotate(-45, 150, 150)" style="dominant-baseline: middle; text-anchor: middle;"></text></pattern><pattern patternUnits="userSpaceOnUse" id="pattern_mark_1" width="300" height="300"><text x="150" y="200" fill="rgba(229,229,229,0.8)" font-size="18" transform="rotate(-45, 150, 150)" style="dominant-baseline: middle; text-anchor: middle;"></text></pattern><marker id="SvgjsMarker1086" markerWidth="13" markerHeight="9" refX="9.5" refY="4.5" viewBox="0 0 13 9" orient="auto" markerUnits="userSpaceOnUse" stroke-dasharray="0,0"><path id="SvgjsPath1087" d="M0,0 L13,4.5 L0,9 L0,0" fill="#323232" stroke="#323232" stroke-width="1"></path></marker><marker id="SvgjsMarker1094" markerWidth="13" markerHeight="9" refX="9.5" refY="4.5" viewBox="0 0 13 9" orient="auto" markerUnits="userSpaceOnUse" stroke-dasharray="0,0"><path id="SvgjsPath1095" d="M0,0 L13,4.5 L0,9 L0,0" fill="#323232" stroke="#323232" stroke-width="1"></path></marker><marker id="SvgjsMarker1102" markerWidth="13" markerHeight="9" refX="9.5" refY="4.5" viewBox="0 0 13 9" orient="auto" markerUnits="userSpaceOnUse" stroke-dasharray="0,0"><path id="SvgjsPath1103" d="M0,0 L13,4.5 L0,9 L0,0" fill="#323232" stroke="#323232" stroke-width="1"></path></marker><marker id="SvgjsMarker1110" markerWidth="13" markerHeight="9" refX="9.5" refY="4.5" viewBox="0 0 13 9" orient="auto" markerUnits="userSpaceOnUse" stroke-dasharray="0,0"><path id="SvgjsPath1111" d="M0,0 L13,4.5 L0,9 L0,0" fill="#323232" stroke="#323232" stroke-width="1"></path></marker><marker id="SvgjsMarker1118" markerWidth="13" markerHeight="9" refX="9.5" refY="4.5" viewBox="0 0 13 9" orient="auto" markerUnits="userSpaceOnUse" stroke-dasharray="0,0"><path id="SvgjsPath1119" d="M0,0 L13,4.5 L0,9 L0,0" fill="#323232" stroke="#323232" stroke-width="1"></path></marker><marker id="SvgjsMarker1126" markerWidth="13" markerHeight="9" refX="9.5" refY="4.5" viewBox="0 0 13 9" orient="auto" markerUnits="userSpaceOnUse" stroke-dasharray="0,0"><path id="SvgjsPath1127" d="M0,0 L13,4.5 L0,9 L0,0" fill="#323232" stroke="#323232" stroke-width="1"></path></marker><marker id="SvgjsMarker1134" markerWidth="13" markerHeight="9" refX="9.5" refY="4.5" viewBox="0 0 13 9" orient="auto" markerUnits="userSpaceOnUse" stroke-dasharray="0,0"><path id="SvgjsPath1135" d="M0,0 L13,4.5 L0,9 L0,0" fill="#323232" stroke="#323232" stroke-width="1"></path></marker><marker id="SvgjsMarker1144" markerWidth="13" markerHeight="9" refX="9.5" refY="4.5" viewBox="0 0 13 9" orient="auto" markerUnits="userSpaceOnUse" stroke-dasharray="0,0"><path id="SvgjsPath1145" d="M0,0 L13,4.5 L0,9 L0,0" fill="#323232" stroke="#323232" stroke-width="1"></path></marker><marker id="SvgjsMarker1152" markerWidth="13" markerHeight="9" refX="9.5" refY="4.5" viewBox="0 0 13 9" orient="auto" markerUnits="userSpaceOnUse" stroke-dasharray="0,0"><path id="SvgjsPath1153" d="M0,0 L13,4.5 L0,9 L0,0" fill="#323232" stroke="#323232" stroke-width="1"></path></marker><marker id="SvgjsMarker1160" markerWidth="13" markerHeight="9" refX="9.5" refY="4.5" viewBox="0 0 13 9" orient="auto" markerUnits="userSpaceOnUse" stroke-dasharray="0,0"><path id="SvgjsPath1161" d="M0,0 L13,4.5 L0,9 L0,0" fill="#323232" stroke="#323232" stroke-width="1"></path></marker><marker id="SvgjsMarker1168" markerWidth="13" markerHeight="9" refX="9.5" refY="4.5" viewBox="0 0 13 9" orient="auto" markerUnits="userSpaceOnUse" stroke-dasharray="0,0"><path id="SvgjsPath1169" d="M0,0 L13,4.5 L0,9 L0,0" fill="#323232" stroke="#323232" stroke-width="1"></path></marker></defs><rect id="svgbackgroundid" width="937.1155885471898" height="709" fill="transparent"></rect><rect id="SvgjsRect1009" width="937.1155885471898" height="709" fill="url(#pattern_mark_0)"></rect><rect id="SvgjsRect1010" width="937.1155885471898" height="709" fill="url(#pattern_mark_1)"></rect><g id="SvgjsG1011" transform="translate(25,78.6829268292683)"><path id="SvgjsPath1012" d="M 0 4Q 0 0 4 0L 883.1155885471898 0Q 887.1155885471898 0 887.1155885471898 4L 887.1155885471898 574.9512195121952Q 887.1155885471898 578.9512195121952 883.1155885471898 578.9512195121952L 4 578.9512195121952Q 0 578.9512195121952 0 574.9512195121952Z" stroke="rgba(121,133,236,1)" stroke-width="1.5" fill-opacity="1" fill="#ffffff"></path><path id="SvgjsPath1013" d="M 0 25L 266.1346765641569 25L 274.1346765641569 17L 274.1346765641569 0" stroke="rgba(121,133,236,1)" stroke-width="1.5" fill-opacity="1" fill="#ffffff"></path><path id="SvgjsPath1014" d="M 0 0L 887.1155885471898 0L 887.1155885471898 578.9512195121952L 0 578.9512195121952Z" stroke="none" fill="none"></path><g id="SvgjsG1015"><text id="SvgjsText1016" font-family="&quot;Comic Sans MS&quot;" text-anchor="start" font-size="13px" width="868px" fill="#7985ec" font-weight="700" align="top" lineHeight="125%" anchor="start" family="&quot;Comic Sans MS&quot;" size="13px" weight="700" font-style="" opacity="1" y="27.375" transform="rotate(0)"><tspan id="SvgjsTspan1017" dy="16.25" x="10"><tspan id="SvgjsTspan1018" style="">Bloom Filter</tspan></tspan><tspan id="SvgjsTspan1019" dy="16.25" x="10"><tspan id="SvgjsTspan1020" style="">查询不存在</tspan></tspan><tspan id="SvgjsTspan1021" dy="16.25" x="10"><tspan id="SvgjsTspan1022" style=""> </tspan></tspan><tspan id="SvgjsTspan1023" dy="16.25" x="10"><tspan id="SvgjsTspan1024" style=""> </tspan></tspan><tspan id="SvgjsTspan1025" dy="16.25" x="10"><tspan id="SvgjsTspan1026" style=""> </tspan></tspan><tspan id="SvgjsTspan1027" dy="16.25" x="10"><tspan id="SvgjsTspan1028" style=""> </tspan></tspan><tspan id="SvgjsTspan1029" dy="16.25" x="10"><tspan id="SvgjsTspan1030" style=""> </tspan></tspan><tspan id="SvgjsTspan1031" dy="16.25" x="10"><tspan id="SvgjsTspan1032" style="">Bloom Filter</tspan></tspan><tspan id="SvgjsTspan1033" dy="16.25" x="10"><tspan id="SvgjsTspan1034" style="">查询存在</tspan></tspan></text></g><g id="SvgjsG1035"><text id="SvgjsText1036" font-family="&quot;Comic Sans MS&quot;" text-anchor="start" font-size="13px" width="257px" fill="#7985ec" font-weight="700" align="middle" lineHeight="125%" anchor="start" family="&quot;Comic Sans MS&quot;" size="13px" weight="700" font-style="" opacity="1" y="1.875" transform="rotate(0)"><tspan id="SvgjsTspan1037" dy="16.25" x="10"><tspan id="SvgjsTspan1038" style="">Alt</tspan></tspan></text></g></g><g id="SvgjsG1039" transform="translate(96.46341463414637,25)"><path id="SvgjsPath1040" d="M 45 30L 45 659" stroke-dasharray="3,4" stroke="rgba(33,41,48,1)" stroke-width="2" fill="none"></path><path id="SvgjsPath1041" d="M 0 0L 90 0L 90 30L 0 30Z" stroke="rgba(33,41,48,1)" stroke-width="1.5" fill-opacity="1" fill="#efeceb"></path><g id="SvgjsG1042"><text id="SvgjsText1043" font-family="&quot;Comic Sans MS&quot;" text-anchor="middle" font-size="13px" width="70px" fill="#323232" font-weight="700" align="middle" lineHeight="125%" anchor="middle" family="&quot;Comic Sans MS&quot;" size="13px" weight="700" font-style="" opacity="1" y="4.375" transform="rotate(0)"><tspan id="SvgjsTspan1044" dy="16.25" x="45"><tspan id="SvgjsTspan1045" style="">Client</tspan></tspan></text></g></g><g id="SvgjsG1046" transform="translate(290.4634146341464,25)"><path id="SvgjsPath1047" d="M 45 30L 45 659" stroke-dasharray="3,4" stroke="rgba(33,41,48,1)" stroke-width="2" fill="none"></path><path id="SvgjsPath1048" d="M 0 0L 90 0L 90 30L 0 30Z" stroke="rgba(33,41,48,1)" stroke-width="1.5" fill-opacity="1" fill="#f2f2f2"></path><g id="SvgjsG1049"><text id="SvgjsText1050" font-family="&quot;Comic Sans MS&quot;" text-anchor="middle" font-size="13px" width="70px" fill="#323232" font-weight="700" align="middle" lineHeight="125%" anchor="middle" family="&quot;Comic Sans MS&quot;" size="13px" weight="700" font-style="" opacity="1" y="4.375" transform="rotate(0)"><tspan id="SvgjsTspan1051" dy="16.25" x="45"><tspan id="SvgjsTspan1052" style="">Server</tspan></tspan></text></g></g><g id="SvgjsG1053" transform="translate(524.4634146341464,25)"><path id="SvgjsPath1054" d="M 49.53658536585368 30L 49.53658536585368 659" stroke-dasharray="3,4" stroke="rgba(33,41,48,1)" stroke-width="2" fill="none"></path><path id="SvgjsPath1055" d="M 0 0L 99.07317073170736 0L 99.07317073170736 30L 0 30Z" stroke="rgba(33,41,48,1)" stroke-width="1.5" fill-opacity="1" fill="#e7ebed"></path><g id="SvgjsG1056"><text id="SvgjsText1057" font-family="&quot;Comic Sans MS&quot;" text-anchor="middle" font-size="13px" width="80px" fill="#323232" font-weight="700" align="middle" lineHeight="125%" anchor="middle" family="&quot;Comic Sans MS&quot;" size="13px" weight="700" font-style="" opacity="1" y="4.375" transform="rotate(0)"><tspan id="SvgjsTspan1058" dy="16.25" x="50"><tspan id="SvgjsTspan1059" style="">Bloom Filter</tspan></tspan></text></g></g><g id="SvgjsG1060" transform="translate(678.4634146341464,25)"><path id="SvgjsPath1061" d="M 45 30L 45 659" stroke-dasharray="3,4" stroke="rgba(33,41,48,1)" stroke-width="2" fill="none"></path><path id="SvgjsPath1062" d="M 0 0L 90 0L 90 30L 0 30Z" stroke="rgba(33,41,48,1)" stroke-width="1.5" fill-opacity="1" fill="#fadcdb"></path><g id="SvgjsG1063"><text id="SvgjsText1064" font-family="&quot;Comic Sans MS&quot;" text-anchor="middle" font-size="13px" width="70px" fill="#323232" font-weight="700" align="middle" lineHeight="125%" anchor="middle" family="&quot;Comic Sans MS&quot;" size="13px" weight="700" font-style="" opacity="1" y="4.375" transform="rotate(0)"><tspan id="SvgjsTspan1065" dy="16.25" x="45"><tspan id="SvgjsTspan1066" style="">Redis</tspan></tspan></text></g></g><g id="SvgjsG1067" transform="translate(802.4634146341464,25)"><path id="SvgjsPath1068" d="M 45 30L 45 659" stroke-dasharray="3,4" stroke="rgba(33,41,48,1)" stroke-width="2" fill="none"></path><path id="SvgjsPath1069" d="M 0 0L 90 0L 90 30L 0 30Z" stroke="rgba(33,41,48,1)" stroke-width="1.5" fill-opacity="1" fill="#fbeada"></path><g id="SvgjsG1070"><text id="SvgjsText1071" font-family="&quot;Comic Sans MS&quot;" text-anchor="middle" font-size="13px" width="70px" fill="#323232" font-weight="700" align="middle" lineHeight="125%" anchor="middle" family="&quot;Comic Sans MS&quot;" size="13px" weight="700" font-style="" opacity="1" y="4.375" transform="rotate(0)"><tspan id="SvgjsTspan1072" dy="16.25" x="45"><tspan id="SvgjsTspan1073" style="">DB</tspan></tspan></text></g></g><g id="SvgjsG1074" transform="translate(126.46341463414637,86)"><path id="SvgjsPath1075" d="M 0 4Q 0 0 4 0L 26 0Q 30 0 30 4L 30 551Q 30 555 26 555L 4 555Q 0 555 0 551L 0 4Z" stroke="rgba(33,41,48,1)" stroke-width="1.5" fill-opacity="1" fill="#d2d6f9"></path></g><g id="SvgjsG1076" transform="translate(320.4634146341464,86)"><path id="SvgjsPath1077" d="M 0 4Q 0 0 4 0L 26 0Q 30 0 30 4L 30 551Q 30 555 26 555L 4 555Q 0 555 0 551L 0 4Z" stroke="rgba(33,41,48,1)" stroke-width="1.5" fill-opacity="1" fill="#d2d6f9"></path></g><g id="SvgjsG1078" transform="translate(559.4634146341464,108.78048780487805)"><path id="SvgjsPath1079" d="M 0 4Q 0 0 4 0L 26 0Q 30 0 30 4L 30 96Q 30 100 26 100L 4 100Q 0 100 0 96L 0 4Z" stroke="rgba(33,41,48,1)" stroke-width="1.5" fill-opacity="1" fill="#d2d6f9"></path></g><g id="SvgjsG1080" transform="translate(559.4634146341464,222.5609756097561)"><path id="SvgjsPath1081" d="M 0 4Q 0 0 4 0L 26 0Q 30 0 30 4L 30 96Q 30 100 26 100L 4 100Q 0 100 0 96L 0 4Z" stroke="rgba(33,41,48,1)" stroke-width="1.5" fill-opacity="1" fill="#d2d6f9"></path></g><g id="SvgjsG1082" transform="translate(832.4634146341464,344)"><path id="SvgjsPath1083" d="M 0 4Q 0 0 4 0L 26 0Q 30 0 30 4L 30 96Q 30 100 26 100L 4 100Q 0 100 0 96L 0 4Z" stroke="rgba(33,41,48,1)" stroke-width="1.5" fill-opacity="1" fill="#d2d6f9"></path></g><g id="SvgjsG1084"><path id="SvgjsPath1085" d="M157.21341463414637 110L238.71341463414637 110L238.71341463414637 110L318.2634146341464 110" stroke="#323232" stroke-width="1.5" fill="none" marker-end="url(#SvgjsMarker1086)"></path><rect id="SvgjsRect1088" width="45" height="18" x="210.17015716509752" y="101" fill="#ffffff"></rect><text id="SvgjsText1089" font-family="&quot;Comic Sans MS&quot;" text-anchor="middle" font-size="13px" width="45px" fill="#323232" font-weight="700" align="top" lineHeight="16px" anchor="middle" family="&quot;Comic Sans MS&quot;" size="13px" weight="700" font-style="" opacity="1" y="98.375" transform="rotate(0)"><tspan id="SvgjsTspan1090" dy="16.25" x="232.67015716509752"><tspan id="SvgjsTspan1091" style="">1. 查询</tspan></tspan></text></g><g id="SvgjsG1092"><path id="SvgjsPath1093" d="M350.7134146341464 128L454.7134146341464 128L454.7134146341464 126.78048780487805L556.7634146341463 126.78048780487805" stroke="#323232" stroke-width="1.5" fill="none" marker-end="url(#SvgjsMarker1094)"></path><rect id="SvgjsRect1096" width="26" height="18" x="438.4288818275507" y="119" fill="#ffffff"></rect><text id="SvgjsText1097" font-family="&quot;Comic Sans MS&quot;" text-anchor="middle" font-size="13px" width="26px" fill="#323232" font-weight="700" align="top" lineHeight="16px" anchor="middle" family="&quot;Comic Sans MS&quot;" size="13px" weight="700" font-style="" opacity="1" y="116.375" transform="rotate(0)"><tspan id="SvgjsTspan1098" dy="16.25" x="451.4288818275507"><tspan id="SvgjsTspan1099" style="">请求</tspan></tspan></text></g><g id="SvgjsG1100"><path id="SvgjsPath1101" d="M558.7134146341464 185.78048780487805L454.7134146341464 185.78048780487805L454.7134146341464 187L352.66341463414636 187" stroke="#323232" stroke-width="1.5" fill="none" marker-end="url(#SvgjsMarker1102)"></path><rect id="SvgjsRect1104" width="128" height="17" x="393.997947440742" y="177.28048780487805" fill="#ffffff"></rect><text id="SvgjsText1105" font-family="&quot;Comic Sans MS&quot;" text-anchor="middle" font-size="12px" width="128px" fill="#323232" font-weight="700" align="top" lineHeight="15px" anchor="middle" family="&quot;Comic Sans MS&quot;" size="12px" weight="700" font-style="" opacity="1" y="174.78048780487805" transform="rotate(0)"><tspan id="SvgjsTspan1106" dy="15" x="457.997947440742"><tspan id="SvgjsTspan1107" style="">不存在的key，直接返回</tspan></tspan></text></g><g id="SvgjsG1108"><path id="SvgjsPath1109" d="M350.7134146341464 250L454.9634146341464 250L454.9634146341464 247.5609756097561L557.2634146341463 247.5609756097561" stroke="#323232" stroke-width="1.5" fill="none" marker-end="url(#SvgjsMarker1110)"></path><rect id="SvgjsRect1112" width="160" height="18" x="373.4723990151252" y="241" fill="#ffffff"></rect><text id="SvgjsText1113" font-family="&quot;Comic Sans MS&quot;" text-anchor="middle" font-size="13px" width="160px" fill="#323232" font-weight="700" align="top" lineHeight="16px" anchor="middle" family="&quot;Comic Sans MS&quot;" size="13px" weight="700" font-style="" opacity="1" y="238.375" transform="rotate(0)"><tspan id="SvgjsTspan1114" dy="16.25" x="453.4723990151252"><tspan id="SvgjsTspan1115" style="">有效的key和误判的无效key</tspan></tspan></text></g><g id="SvgjsG1116"><path id="SvgjsPath1117" d="M559.2134146341464 297.5609756097561L454.9634146341464 297.5609756097561L454.9634146341464 300L352.66341463414636 300" stroke="#323232" stroke-width="1.5" fill="none" marker-end="url(#SvgjsMarker1118)"></path><rect id="SvgjsRect1120" width="78" height="18" x="415.9634146341464" y="289.6666943020725" fill="#ffffff"></rect><text id="SvgjsText1121" font-family="&quot;Comic Sans MS&quot;" text-anchor="middle" font-size="13px" width="78px" fill="#323232" font-weight="700" align="top" lineHeight="16px" anchor="middle" family="&quot;Comic Sans MS&quot;" size="13px" weight="700" font-style="" opacity="1" y="287.0416943020725" transform="rotate(0)"><tspan id="SvgjsTspan1122" dy="16.25" x="454.9634146341464"><tspan id="SvgjsTspan1123" style="">返回查询结果</tspan></tspan></text></g><g id="SvgjsG1124"><path id="SvgjsPath1125" d="M350.7134146341464 368L591.2134146341464 368L591.2134146341464 368L829.7634146341463 368" stroke="#323232" stroke-width="1.5" fill="none" marker-end="url(#SvgjsMarker1126)"></path><rect id="SvgjsRect1128" width="213" height="18" x="485.8584791965568" y="359" fill="#ffffff"></rect><text id="SvgjsText1129" font-family="&quot;Comic Sans MS&quot;" text-anchor="middle" font-size="13px" width="213px" fill="#323232" font-weight="700" align="top" lineHeight="16px" anchor="middle" family="&quot;Comic Sans MS&quot;" size="13px" weight="700" font-style="" opacity="1" y="356.375" transform="rotate(0)"><tspan id="SvgjsTspan1130" dy="16.25" x="592.3584791965568"><tspan id="SvgjsTspan1131" style="">若 Redis 查询结果为空，查询数据库</tspan></tspan></text></g><g id="SvgjsG1132"><path id="SvgjsPath1133" d="M831.7134146341464 431L591.4634146341464 431L591.4634146341464 431L353.16341463414636 431" stroke="#323232" stroke-width="1.5" fill="none" marker-end="url(#SvgjsMarker1134)"></path><rect id="SvgjsRect1136" width="78" height="18" x="551.1124823259103" y="422" fill="#ffffff"></rect><text id="SvgjsText1137" font-family="&quot;Comic Sans MS&quot;" text-anchor="middle" font-size="13px" width="78px" fill="#323232" font-weight="700" align="top" lineHeight="16px" anchor="middle" family="&quot;Comic Sans MS&quot;" size="13px" weight="700" font-style="" opacity="1" y="419.375" transform="rotate(0)"><tspan id="SvgjsTspan1138" dy="16.25" x="590.1124823259103"><tspan id="SvgjsTspan1139" style="">返回查询结果</tspan></tspan></text></g><g id="SvgjsG1140" transform="translate(708.4634146341464,466)"><path id="SvgjsPath1141" d="M 0 4Q 0 0 4 0L 26 0Q 30 0 30 4L 30 96Q 30 100 26 100L 4 100Q 0 100 0 96L 0 4Z" stroke="rgba(33,41,48,1)" stroke-width="1.5" fill-opacity="1" fill="#d2d6f9"></path></g><g id="SvgjsG1142"><path id="SvgjsPath1143" d="M350.7134146341464 486L529.4634146341464 486L529.4634146341464 486L706.2634146341463 486" stroke="#323232" stroke-width="1.5" fill="none" marker-end="url(#SvgjsMarker1144)"></path><rect id="SvgjsRect1146" width="59" height="18" x="501.3922385960426" y="477" fill="#ffffff"></rect><text id="SvgjsText1147" font-family="&quot;Comic Sans MS&quot;" text-anchor="middle" font-size="13px" width="59px" fill="#323232" font-weight="700" align="top" lineHeight="16px" anchor="middle" family="&quot;Comic Sans MS&quot;" size="13px" weight="700" font-style="" opacity="1" y="474.375" transform="rotate(0)"><tspan id="SvgjsTspan1148" dy="16.25" x="530.8922385960426"><tspan id="SvgjsTspan1149" style="">回写Redis</tspan></tspan></text></g><g id="SvgjsG1150"><path id="SvgjsPath1151" d="M708.2134146341464 549L529.7134146341464 549L529.7134146341464 549L353.16341463414636 549" stroke="#323232" stroke-width="1.5" fill="none" marker-end="url(#SvgjsMarker1152)"></path><rect id="SvgjsRect1154" width="52" height="18" x="504.5861340503169" y="540" fill="#ffffff"></rect><text id="SvgjsText1155" font-family="&quot;Comic Sans MS&quot;" text-anchor="middle" font-size="13px" width="52px" fill="#323232" font-weight="700" align="top" lineHeight="16px" anchor="middle" family="&quot;Comic Sans MS&quot;" size="13px" weight="700" font-style="" opacity="1" y="537.375" transform="rotate(0)"><tspan id="SvgjsTspan1156" dy="16.25" x="530.5861340503169"><tspan id="SvgjsTspan1157" style="">回写结果</tspan></tspan></text></g><g id="SvgjsG1158"><path id="SvgjsPath1159" d="M320.2134146341464 596L238.71341463414637 596L238.71341463414637 596L159.16341463414636 596" stroke="#323232" stroke-width="1.5" fill="none" marker-end="url(#SvgjsMarker1160)"></path><rect id="SvgjsRect1162" width="105" height="18" x="189.28377196233973" y="587" fill="#ffffff"></rect><text id="SvgjsText1163" font-family="&quot;Comic Sans MS&quot;" text-anchor="middle" font-size="13px" width="105px" fill="#323232" font-weight="700" align="top" lineHeight="16px" anchor="middle" family="&quot;Comic Sans MS&quot;" size="13px" weight="700" font-style="" opacity="1" y="584.375" transform="rotate(0)"><tspan id="SvgjsTspan1164" dy="16.25" x="241.78377196233973"><tspan id="SvgjsTspan1165" style="">1.2 返回查询结果</tspan></tspan></text></g><g id="SvgjsG1166"><path id="SvgjsPath1167" d="M319.93292682926835 185.6829268292683L238.19512195121956 185.6829268292683L238.19512195121956 185.6829268292683L158.40731707317076 185.6829268292683" stroke="#323232" stroke-width="1.5" fill="none" marker-end="url(#SvgjsMarker1168)"></path><rect id="SvgjsRect1170" width="66" height="18" x="203.99702459938555" y="176.6829268292683" fill="#ffffff"></rect><text id="SvgjsText1171" font-family="&quot;Comic Sans MS&quot;" text-anchor="middle" font-size="13px" width="66px" fill="#323232" font-weight="700" align="top" lineHeight="16px" anchor="middle" family="&quot;Comic Sans MS&quot;" size="13px" weight="700" font-style="" opacity="1" y="174.0579268292683" transform="rotate(0)"><tspan id="SvgjsTspan1172" dy="16.25" x="236.99702459938555"><tspan id="SvgjsTspan1173" style="">1.1 返回空</tspan></tspan></text></g><g id="SvgjsG1174"><path id="SvgjsPath1175" d="M25 210L909.9416755037115 210" stroke-dasharray="8,5" stroke="#7985ec" stroke-width="1.5" fill="none"></path></g></svg>