<svg id="SvgjsSvg1006" width="680.5880075274879" height="560.3389830508474" xmlns="http://www.w3.org/2000/svg" version="1.1" xmlns:xlink="http://www.w3.org/1999/xlink" xmlns:svgjs="http://svgjs.com/svgjs"><defs id="SvgjsDefs1007"><pattern patternUnits="userSpaceOnUse" id="pattern_mark_0" width="300" height="300"><text x="150" y="100" fill="rgba(229,229,229,0.8)" font-size="18" transform="rotate(-45, 150, 150)" style="dominant-baseline: middle; text-anchor: middle;"></text></pattern><pattern patternUnits="userSpaceOnUse" id="pattern_mark_1" width="300" height="300"><text x="150" y="200" fill="rgba(229,229,229,0.8)" font-size="18" transform="rotate(-45, 150, 150)" style="dominant-baseline: middle; text-anchor: middle;"></text></pattern><marker id="SvgjsMarker1151" markerWidth="13" markerHeight="9" refX="9.5" refY="4.5" viewBox="0 0 13 9" orient="auto" markerUnits="userSpaceOnUse" stroke-dasharray="0,0"><path id="SvgjsPath1152" d="M0,0 L13,4.5 L0,9 L0,0" fill="#323232" stroke="#323232" stroke-width="1"></path></marker><marker id="SvgjsMarker1155" markerWidth="13" markerHeight="9" refX="9.5" refY="4.5" viewBox="0 0 13 9" orient="auto" markerUnits="userSpaceOnUse" stroke-dasharray="0,0"><path id="SvgjsPath1156" d="M0,0 L13,4.5 L0,9 L0,0" fill="#323232" stroke="#323232" stroke-width="1"></path></marker><marker id="SvgjsMarker1257" markerWidth="13" markerHeight="9" refX="9.5" refY="4.5" viewBox="0 0 13 9" orient="auto" markerUnits="userSpaceOnUse" stroke-dasharray="0,0"><path id="SvgjsPath1258" d="M0,0 L13,4.5 L0,9 L0,0" fill="#323232" stroke="#323232" stroke-width="1"></path></marker><marker id="SvgjsMarker1261" markerWidth="13" markerHeight="9" refX="9.5" refY="4.5" viewBox="0 0 13 9" orient="auto" markerUnits="userSpaceOnUse" stroke-dasharray="0,0"><path id="SvgjsPath1262" d="M0,0 L13,4.5 L0,9 L0,0" fill="#323232" stroke="#323232" stroke-width="1"></path></marker></defs><rect id="svgbackgroundid" width="680.5880075274879" height="560.3389830508474" fill="transparent"></rect><rect id="SvgjsRect1009" width="680.5880075274879" height="560.3389830508474" fill="url(#pattern_mark_0)"></rect><rect id="SvgjsRect1010" width="680.5880075274879" height="560.3389830508474" fill="url(#pattern_mark_1)"></rect><g id="SvgjsG1011" transform="translate(247.06412463072354,363.57627118644064)"><path id="SvgjsPath1012" d="M 0 0L 283 0L 283 167.01694915254245L 0 167.01694915254245Z" stroke="rgba(33,41,48,1)" stroke-width="1.5" fill-opacity="1" fill="#e6cd0d"></path><g id="SvgjsG1013"><text id="SvgjsText1014" font-family="&quot;Comic Sans MS&quot;" text-anchor="middle" font-size="13px" width="263px" fill="#323232" font-weight="400" align="middle" lineHeight="125%" anchor="middle" family="&quot;Comic Sans MS&quot;" size="13px" weight="400" font-style="" opacity="1" y="72.88347457627123" transform="rotate(0)"></text></g></g><g id="SvgjsG1015" transform="translate(191.32837732717962,66.41756548536209)"><path id="SvgjsPath1016" d="M 0 0L 418.4545454545455 0L 418.4545454545455 247.3636363636364L 0 247.3636363636364Z" stroke="rgba(33,41,48,1)" stroke-width="1.5" fill-opacity="1" fill="#d16599"></path><g id="SvgjsG1017"><text id="SvgjsText1018" font-family="&quot;Comic Sans MS&quot;" text-anchor="middle" font-size="13px" width="399px" fill="#323232" font-weight="400" align="middle" lineHeight="125%" anchor="middle" family="&quot;Comic Sans MS&quot;" size="13px" weight="400" font-style="" opacity="1" y="113.0568181818182" transform="rotate(0)"></text></g></g><g id="SvgjsG1019" transform="translate(196.60110459990688,105.44029275808926)"><path id="SvgjsPath1020" d="M 0 0L 408 0L 408 157.3636363636365L 0 157.3636363636365Z" stroke="rgba(33,41,48,1)" stroke-width="1.5" fill-opacity="1" fill="#cccccc"></path><g id="SvgjsG1021"><text id="SvgjsText1022" font-family="&quot;Comic Sans MS&quot;" text-anchor="middle" font-size="13px" width="388px" fill="#323232" font-weight="400" align="middle" lineHeight="125%" anchor="middle" family="&quot;Comic Sans MS&quot;" size="13px" weight="400" font-style="" opacity="1" y="68.05681818181824" transform="rotate(0)"></text></g></g><g id="SvgjsG1023" transform="translate(196.60110459990688,274.50847457627117)"><path id="SvgjsPath1024" d="M 0 15C 0 -5 63 -5 63 15C 63 35 0 35 0 15Z" stroke="rgba(33,41,48,1)" stroke-width="1.5" fill-opacity="1" fill="#e6cf00"></path><g id="SvgjsG1025"><text id="SvgjsText1026" font-family="&quot;Comic Sans MS&quot;" text-anchor="middle" font-size="13px" width="43px" fill="#323232" font-weight="700" align="middle" lineHeight="125%" anchor="middle" family="&quot;Comic Sans MS&quot;" size="13px" weight="700" font-style="" opacity="1" y="4.375" transform="rotate(0)"><tspan id="SvgjsTspan1027" dy="16.25" x="31.5"><tspan id="SvgjsTspan1028" style="">PMON</tspan></tspan></text></g></g><g id="SvgjsG1029" transform="translate(265.6011045999069,274.50847457627117)"><path id="SvgjsPath1030" d="M 0 15C 0 -5 63 -5 63 15C 63 35 0 35 0 15Z" stroke="rgba(33,41,48,1)" stroke-width="1.5" fill-opacity="1" fill="#e6cf00"></path><g id="SvgjsG1031"><text id="SvgjsText1032" font-family="&quot;Comic Sans MS&quot;" text-anchor="middle" font-size="13px" width="43px" fill="#323232" font-weight="700" align="middle" lineHeight="125%" anchor="middle" family="&quot;Comic Sans MS&quot;" size="13px" weight="700" font-style="" opacity="1" y="4.375" transform="rotate(0)"><tspan id="SvgjsTspan1033" dy="16.25" x="31.5"><tspan id="SvgjsTspan1034" style="">SMON</tspan></tspan></text></g></g><g id="SvgjsG1035" transform="translate(334.6011045999069,274.50847457627117)"><path id="SvgjsPath1036" d="M 0 15C 0 -5 63 -5 63 15C 63 35 0 35 0 15Z" stroke="rgba(33,41,48,1)" stroke-width="1.5" fill-opacity="1" fill="#e6cf00"></path><g id="SvgjsG1037"><text id="SvgjsText1038" font-family="&quot;Comic Sans MS&quot;" text-anchor="middle" font-size="13px" width="43px" fill="#323232" font-weight="700" align="middle" lineHeight="125%" anchor="middle" family="&quot;Comic Sans MS&quot;" size="13px" weight="700" font-style="" opacity="1" y="4.375" transform="rotate(0)"><tspan id="SvgjsTspan1039" dy="16.25" x="31.5"><tspan id="SvgjsTspan1040" style="">DBWn</tspan></tspan></text></g></g><g id="SvgjsG1041" transform="translate(403.6011045999069,274.50847457627117)"><path id="SvgjsPath1042" d="M 0 15C 0 -5 63 -5 63 15C 63 35 0 35 0 15Z" stroke="rgba(33,41,48,1)" stroke-width="1.5" fill-opacity="1" fill="#e6cf00"></path><g id="SvgjsG1043"><text id="SvgjsText1044" font-family="&quot;Comic Sans MS&quot;" text-anchor="middle" font-size="13px" width="43px" fill="#323232" font-weight="700" align="middle" lineHeight="125%" anchor="middle" family="&quot;Comic Sans MS&quot;" size="13px" weight="700" font-style="" opacity="1" y="4.375" transform="rotate(0)"><tspan id="SvgjsTspan1045" dy="16.25" x="31.5"><tspan id="SvgjsTspan1046" style="">LGWR</tspan></tspan></text></g></g><g id="SvgjsG1047" transform="translate(472.6011045999069,274.50847457627117)"><path id="SvgjsPath1048" d="M 0 15C 0 -5 63 -5 63 15C 63 35 0 35 0 15Z" stroke="rgba(33,41,48,1)" stroke-width="1.5" fill-opacity="1" fill="#e6cf00"></path><g id="SvgjsG1049"><text id="SvgjsText1050" font-family="&quot;Comic Sans MS&quot;" text-anchor="middle" font-size="13px" width="43px" fill="#323232" font-weight="700" align="middle" lineHeight="125%" anchor="middle" family="&quot;Comic Sans MS&quot;" size="13px" weight="700" font-style="" opacity="1" y="4.375" transform="rotate(0)"><tspan id="SvgjsTspan1051" dy="16.25" x="31.5"><tspan id="SvgjsTspan1052" style="">CKPT</tspan></tspan></text></g></g><g id="SvgjsG1053" transform="translate(541.6011045999069,274.50847457627117)"><path id="SvgjsPath1054" d="M 0 15C 0 -5 63 -5 63 15C 63 35 0 35 0 15Z" stroke="rgba(33,41,48,1)" stroke-width="1.5" fill-opacity="1" fill="#e6cf00"></path><g id="SvgjsG1055"><text id="SvgjsText1056" font-family="&quot;Comic Sans MS&quot;" text-anchor="middle" font-size="13px" width="43px" fill="#323232" font-weight="700" align="middle" lineHeight="125%" anchor="middle" family="&quot;Comic Sans MS&quot;" size="13px" weight="700" font-style="" opacity="1" y="4.375" transform="rotate(0)"><tspan id="SvgjsTspan1057" dy="16.25" x="31.5"><tspan id="SvgjsTspan1058" style="">其它</tspan></tspan></text></g></g><g id="SvgjsG1059" transform="translate(379.9101747653376,232.50847457627117)"><path id="SvgjsPath1060" d="M 0 0L 81.92584141471762 0L 81.92584141471762 25L 0 25Z" stroke="rgba(33,41,48,1)" stroke-width="1.5" fill-opacity="1" fill="#db9996"></path><g id="SvgjsG1061"><text id="SvgjsText1062" font-family="&quot;Comic Sans MS&quot;" text-anchor="middle" font-size="13px" width="62px" fill="#323232" font-weight="700" align="middle" lineHeight="125%" anchor="middle" family="&quot;Comic Sans MS&quot;" size="13px" weight="700" font-style="" opacity="1" y="1.875" transform="rotate(0)"><tspan id="SvgjsTspan1063" dy="16.25" x="41"><tspan id="SvgjsTspan1064" style="">Java 池</tspan></tspan></text></g></g><g id="SvgjsG1065" transform="translate(502.286900378572,232.50847457627117)"><path id="SvgjsPath1066" d="M 0 0L 95.75082715345124 0L 95.75082715345124 25L 0 25Z" stroke="rgba(33,41,48,1)" stroke-width="1.5" fill-opacity="1" fill="#db9996"></path><g id="SvgjsG1067"><text id="SvgjsText1068" font-family="&quot;Comic Sans MS&quot;" text-anchor="middle" font-size="13px" width="76px" fill="#323232" font-weight="700" align="middle" lineHeight="125%" anchor="middle" family="&quot;Comic Sans MS&quot;" size="13px" weight="700" font-style="" opacity="1" y="1.875" transform="rotate(0)"><tspan id="SvgjsTspan1069" dy="16.25" x="48"><tspan id="SvgjsTspan1070" style="">大型共享池</tspan></tspan></text></g></g><g id="SvgjsG1071" transform="translate(502.286900378572,147.0993836671803)"><path id="SvgjsPath1072" d="M 0 0L 95.75082715345124 0L 95.75082715345124 78.13636363636363L 0 78.13636363636363Z" stroke="rgba(33,41,48,1)" stroke-width="1.5" fill-opacity="1" fill="#db9996"></path><g id="SvgjsG1073"><text id="SvgjsText1074" font-family="&quot;Comic Sans MS&quot;" text-anchor="middle" font-size="13px" width="76px" fill="#323232" font-weight="700" align="middle" lineHeight="125%" anchor="middle" family="&quot;Comic Sans MS&quot;" size="13px" weight="700" font-style="" opacity="1" y="19.943181818181813" transform="rotate(0)"><tspan id="SvgjsTspan1075" dy="16.25" x="48"><tspan id="SvgjsTspan1076" style="">重做日志</tspan></tspan><tspan id="SvgjsTspan1077" dy="16.25" x="48"><tspan id="SvgjsTspan1078" style="">缓冲池</tspan></tspan></text></g></g><g id="SvgjsG1079" transform="translate(352.07400819374595,147.0993836671803)"><path id="SvgjsPath1080" d="M 0 0L 141.97375926982323 0L 141.97375926982323 78.13636363636363L 0 78.13636363636363Z" stroke="rgba(33,41,48,1)" stroke-width="1.5" fill-opacity="1" fill="#db9996"></path><g id="SvgjsG1081"><text id="SvgjsText1082" font-family="&quot;Comic Sans MS&quot;" text-anchor="middle" font-size="13px" width="122px" fill="#323232" font-weight="700" align="middle" lineHeight="125%" anchor="middle" family="&quot;Comic Sans MS&quot;" size="13px" weight="700" font-style="" opacity="1" y="28.443181818181813" transform="rotate(0)"><tspan id="SvgjsTspan1083" dy="16.25" x="71"><tspan id="SvgjsTspan1084" style="">数据库高速缓冲区</tspan></tspan></text></g></g><g id="SvgjsG1085" transform="translate(201.86111600891985,110.7357473035439)"><path id="SvgjsPath1086" d="M 0 0L 141.97375926982323 0L 141.97375926982323 146.77272727272722L 0 146.77272727272722Z" stroke="rgba(33,41,48,1)" stroke-width="1.5" fill-opacity="1" fill="#e6cd0d"></path><g id="SvgjsG1087"><text id="SvgjsText1088" font-family="&quot;Comic Sans MS&quot;" text-anchor="middle" font-size="13px" width="122px" fill="#323232" font-weight="700" align="middle" lineHeight="125%" anchor="middle" family="&quot;Comic Sans MS&quot;" size="13px" weight="700" font-style="" opacity="1" y="5.761363636363612" transform="rotate(0)"><tspan id="SvgjsTspan1089" dy="16.25" x="71"><tspan id="SvgjsTspan1090" style="">共享池</tspan></tspan><tspan id="SvgjsTspan1091" dy="16.25" x="71"><tspan id="SvgjsTspan1092" style=""> </tspan></tspan><tspan id="SvgjsTspan1093" dy="16.25" x="71"><tspan id="SvgjsTspan1094" style=""> </tspan></tspan><tspan id="SvgjsTspan1095" dy="16.25" x="71"><tspan id="SvgjsTspan1096" style=""> </tspan></tspan><tspan id="SvgjsTspan1097" dy="16.25" x="71"><tspan id="SvgjsTspan1098" style=""> </tspan></tspan><tspan id="SvgjsTspan1099" dy="16.25" x="71"><tspan id="SvgjsTspan1100" style=""> </tspan></tspan><tspan id="SvgjsTspan1101" dy="16.25" x="71"><tspan id="SvgjsTspan1102" style=""> </tspan></tspan><tspan id="SvgjsTspan1103" dy="16.25" x="71"><tspan id="SvgjsTspan1104" style=""> </tspan></tspan></text></g></g><g id="SvgjsG1105" transform="translate(226.01992947155549,147.0993836671803)"><path id="SvgjsPath1106" d="M 0 0L 95.75082715345124 0L 95.75082715345124 50L 0 50Z" stroke="rgba(33,41,48,1)" stroke-width="1.5" fill-opacity="1" fill="#db9996"></path><g id="SvgjsG1107"><text id="SvgjsText1108" font-family="&quot;Comic Sans MS&quot;" text-anchor="middle" font-size="13px" width="76px" fill="#323232" font-weight="700" align="middle" lineHeight="125%" anchor="middle" family="&quot;Comic Sans MS&quot;" size="13px" weight="700" font-style="" opacity="1" y="14.375" transform="rotate(0)"><tspan id="SvgjsTspan1109" dy="16.25" x="48"><tspan id="SvgjsTspan1110" style="">库高速缓存</tspan></tspan></text></g></g><g id="SvgjsG1111" transform="translate(226.01992947155549,203.46302003081666)"><path id="SvgjsPath1112" d="M 0 0L 95.75082715345124 0L 95.75082715345124 50L 0 50Z" stroke="rgba(33,41,48,1)" stroke-width="1.5" fill-opacity="1" fill="#db9996"></path><g id="SvgjsG1113"><text id="SvgjsText1114" font-family="&quot;Comic Sans MS&quot;" text-anchor="middle" font-size="13px" width="76px" fill="#323232" font-weight="700" align="middle" lineHeight="125%" anchor="middle" family="&quot;Comic Sans MS&quot;" size="13px" weight="700" font-style="" opacity="1" y="5.875" transform="rotate(0)"><tspan id="SvgjsTspan1115" dy="16.25" x="48"><tspan id="SvgjsTspan1116" style="">数据字典</tspan></tspan><tspan id="SvgjsTspan1117" dy="16.25" x="48"><tspan id="SvgjsTspan1118" style="">高速缓存</tspan></tspan></text></g></g><g id="SvgjsG1119" transform="translate(346.86054555826394,99.826656394453)"><path id="SvgjsPath1120" d="M 0 0L 102.40730176839705 0L 102.40730176839705 40L 0 40Z" stroke="none" fill="none"></path><g id="SvgjsG1121"><text id="SvgjsText1122" font-family="&quot;Comic Sans MS&quot;" text-anchor="middle" font-size="20px" width="103px" fill="#323232" font-weight="400" align="middle" lineHeight="125%" anchor="middle" family="&quot;Comic Sans MS&quot;" size="20px" weight="400" font-style="" opacity="1" y="2" transform="rotate(0)"><tspan id="SvgjsTspan1123" dy="25" x="51.5"><tspan id="SvgjsTspan1124" style="font-weight: bold;">SGA</tspan></tspan></text></g></g><g id="SvgjsG1125" transform="translate(352.07400819374595,64.59938366718028)"><path id="SvgjsPath1126" d="M 0 0L 100 0L 100 40L 0 40Z" stroke="none" fill="none"></path><g id="SvgjsG1127"><text id="SvgjsText1128" font-family="&quot;Comic Sans MS&quot;" text-anchor="middle" font-size="20px" width="100px" fill="#323232" font-weight="400" align="middle" lineHeight="125%" anchor="middle" family="&quot;Comic Sans MS&quot;" size="20px" weight="400" font-style="" opacity="1" y="2" transform="rotate(0)"><tspan id="SvgjsTspan1129" dy="25" x="50"><tspan id="SvgjsTspan1130" style="font-weight: bold;">例程</tspan></tspan></text></g></g><g id="SvgjsG1131" transform="translate(25.000000000000014,105.44029275808926)"><path id="SvgjsPath1132" d="M 0 25.340909090909093C 0 -8.446969696969697 100.01019550899777 -8.446969696969697 100.01019550899777 25.340909090909093C 100.01019550899777 59.12878787878788 0 59.12878787878788 0 25.340909090909093Z" stroke="rgba(33,41,48,1)" stroke-width="1.5" fill-opacity="1" fill="#e6cd0d"></path><g id="SvgjsG1133"><text id="SvgjsText1134" font-family="&quot;Comic Sans MS&quot;" text-anchor="middle" font-size="15px" width="81px" fill="#323232" font-weight="700" align="middle" lineHeight="125%" anchor="middle" family="&quot;Comic Sans MS&quot;" size="15px" weight="700" font-style="" opacity="1" y="12.965909090909093" transform="rotate(0)"><tspan id="SvgjsTspan1135" dy="18.75" x="50.5"><tspan id="SvgjsTspan1136" style="">用户进程</tspan></tspan></text></g></g><g id="SvgjsG1137" transform="translate(25,203.1221109399076)"><path id="SvgjsPath1138" d="M 0 25.340909090909093C 0 -8.446969696969697 100.01019550899777 -8.446969696969697 100.01019550899777 25.340909090909093C 100.01019550899777 59.12878787878788 0 59.12878787878788 0 25.340909090909093Z" stroke="rgba(33,41,48,1)" stroke-width="1.5" fill-opacity="1" fill="#de9acf"></path><g id="SvgjsG1139"><text id="SvgjsText1140" font-family="&quot;Comic Sans MS&quot;" text-anchor="middle" font-size="15px" width="81px" fill="#323232" font-weight="700" align="middle" lineHeight="125%" anchor="middle" family="&quot;Comic Sans MS&quot;" size="15px" weight="700" font-style="" opacity="1" y="12.965909090909093" transform="rotate(0)"><tspan id="SvgjsTspan1141" dy="18.75" x="50.5"><tspan id="SvgjsTspan1142" style="">服务器进程</tspan></tspan></text></g></g><g id="SvgjsG1143" transform="translate(92.23746823627049,244.1221109399077)"><path id="SvgjsPath1144" d="M 0 0L 59.363636363636374 0L 59.363636363636374 30.386363636363455L 0 30.386363636363455Z" stroke="none" fill-opacity="1" fill="#b2caff"></path><g id="SvgjsG1145"><text id="SvgjsText1146" font-family="&quot;Comic Sans MS&quot;" text-anchor="middle" font-size="15px" width="40px" fill="#323232" font-weight="700" align="middle" lineHeight="125%" anchor="middle" family="&quot;Comic Sans MS&quot;" size="15px" weight="700" font-style="" opacity="1" y="2.8181818181817277" transform="rotate(0)"><tspan id="SvgjsTspan1147" dy="18.75" x="30"><tspan id="SvgjsTspan1148" style="">PGA</tspan></tspan></text></g></g><g id="SvgjsG1149"><path id="SvgjsPath1150" d="M75.00509775449889 156.87211093990743L75.00509775449889 179.6221109399075L75.00509775449889 179.6221109399075L75.00509775449889 200.4221109399076" stroke="#323232" stroke-width="1.5" fill="none" marker-end="url(#SvgjsMarker1151)"></path></g><g id="SvgjsG1153"><path id="SvgjsPath1154" d="M125.76019550899777 228.46302003081666L158.53292278172506 228.46302003081666L158.53292278172506 228.46302003081666L189.35565005445233 228.46302003081666" stroke="#323232" stroke-width="1.5" fill="none" marker-end="url(#SvgjsMarker1155)"></path></g><g id="SvgjsG1157" transform="translate(117.98785344428283,423.3489984591679)"><path id="SvgjsPath1158" d="M 0 14.924242424242422L 0 59.5C 0 73.5 89.54545454545453 73.5 89.54545454545453 59.5L 89.54545454545453 14.924242424242422C 89.54545454545453 -4.070247933884297 0 -4.070247933884297 0 14.924242424242422ZM 0 14.924242424242422C 0 33.57954545454545 89.54545454545453 33.57954545454545 89.54545454545453 14.924242424242422C 89.54545454545453 33.57954545454545 0 33.57954545454545 0 14.924242424242422" stroke="rgba(33,41,48,1)" stroke-width="1.5" fill-opacity="1" fill="#a299ff"></path><g id="SvgjsG1159"><text id="SvgjsText1160" font-family="&quot;Comic Sans MS&quot;" text-anchor="middle" font-size="15px" width="90px" fill="#323232" font-weight="700" align="middle" lineHeight="125%" anchor="middle" family="&quot;Comic Sans MS&quot;" size="15px" weight="700" font-style="" opacity="1" y="-2.875" transform="rotate(0)"><tspan id="SvgjsTspan1161" dy="18.75" x="45"><tspan id="SvgjsTspan1162" style=""> </tspan></tspan><tspan id="SvgjsTspan1163" dy="18.75" x="45"><tspan id="SvgjsTspan1164" style=""> </tspan></tspan><tspan id="SvgjsTspan1165" dy="18.75" x="45"><tspan id="SvgjsTspan1166" style=""> </tspan></tspan><tspan id="SvgjsTspan1167" dy="18.75" x="45"><tspan id="SvgjsTspan1168" style="">口令文件</tspan></tspan></text></g></g><g id="SvgjsG1169" transform="translate(117.98785344428283,363.57627118644064)"><path id="SvgjsPath1170" d="M 0 14.924242424242422L 0 59.5C 0 73.5 89.54545454545453 73.5 89.54545454545453 59.5L 89.54545454545453 14.924242424242422C 89.54545454545453 -4.070247933884297 0 -4.070247933884297 0 14.924242424242422ZM 0 14.924242424242422C 0 33.57954545454545 89.54545454545453 33.57954545454545 89.54545454545453 14.924242424242422C 89.54545454545453 33.57954545454545 0 33.57954545454545 0 14.924242424242422" stroke="rgba(33,41,48,1)" stroke-width="1.5" fill-opacity="1" fill="#a299ff"></path><g id="SvgjsG1171"><text id="SvgjsText1172" font-family="&quot;Comic Sans MS&quot;" text-anchor="middle" font-size="15px" width="90px" fill="#323232" font-weight="700" align="middle" lineHeight="125%" anchor="middle" family="&quot;Comic Sans MS&quot;" size="15px" weight="700" font-style="" opacity="1" y="-2.875" transform="rotate(0)"><tspan id="SvgjsTspan1173" dy="18.75" x="45"><tspan id="SvgjsTspan1174" style=""> </tspan></tspan><tspan id="SvgjsTspan1175" dy="18.75" x="45"><tspan id="SvgjsTspan1176" style=""> </tspan></tspan><tspan id="SvgjsTspan1177" dy="18.75" x="45"><tspan id="SvgjsTspan1178" style="">参数文件</tspan></tspan></text></g></g><g id="SvgjsG1179" transform="translate(257.06412463072354,458.57627118644064)"><path id="SvgjsPath1180" d="M 0 13.333333333333334L 0 51C 0 63 80 63 80 51L 80 13.333333333333334C 80 -3.6363636363636362 0 -3.6363636363636362 0 13.333333333333334ZM 0 13.333333333333334C 0 30 80 30 80 13.333333333333334C 80 30 0 30 0 13.333333333333334" stroke="rgba(33,41,48,1)" stroke-width="1.5" fill-opacity="1" fill="#969696"></path><g id="SvgjsG1181"><text id="SvgjsText1182" font-family="&quot;Comic Sans MS&quot;" text-anchor="middle" font-size="15px" width="80px" fill="#323232" font-weight="700" align="middle" lineHeight="125%" anchor="middle" family="&quot;Comic Sans MS&quot;" size="15px" weight="700" font-style="" opacity="1" y="11.625" transform="rotate(0)"><tspan id="SvgjsTspan1183" dy="18.75" x="40"><tspan id="SvgjsTspan1184" style=""> </tspan></tspan></text></g></g><g id="SvgjsG1185" transform="translate(565.5880075274879,380.50847457627117)"><path id="SvgjsPath1186" d="M 0 14.924242424242422L 0 59.5C 0 73.5 89.54545454545453 73.5 89.54545454545453 59.5L 89.54545454545453 14.924242424242422C 89.54545454545453 -4.070247933884297 0 -4.070247933884297 0 14.924242424242422ZM 0 14.924242424242422C 0 33.57954545454545 89.54545454545453 33.57954545454545 89.54545454545453 14.924242424242422C 89.54545454545453 33.57954545454545 0 33.57954545454545 0 14.924242424242422" stroke="rgba(33,41,48,1)" stroke-width="1.5" fill-opacity="1" fill="#a299ff"></path><g id="SvgjsG1187"><text id="SvgjsText1188" font-family="&quot;Comic Sans MS&quot;" text-anchor="middle" font-size="15px" width="90px" fill="#323232" font-weight="700" align="middle" lineHeight="125%" anchor="middle" family="&quot;Comic Sans MS&quot;" size="15px" weight="700" font-style="" opacity="1" y="-12.375" transform="rotate(0)"><tspan id="SvgjsTspan1189" dy="18.75" x="45"><tspan id="SvgjsTspan1190" style=""> </tspan></tspan><tspan id="SvgjsTspan1191" dy="18.75" x="45"><tspan id="SvgjsTspan1192" style=""> </tspan></tspan><tspan id="SvgjsTspan1193" dy="18.75" x="45"><tspan id="SvgjsTspan1194" style=""> </tspan></tspan><tspan id="SvgjsTspan1195" dy="18.75" x="45"><tspan id="SvgjsTspan1196" style="">归档</tspan></tspan><tspan id="SvgjsTspan1197" dy="18.75" x="45"><tspan id="SvgjsTspan1198" style="">日志文件</tspan></tspan></text></g></g><g id="SvgjsG1199" transform="translate(257.06412463072354,413.5762711864407)"><path id="SvgjsPath1200" d="M 0 13.333333333333334L 0 51C 0 63 80 63 80 51L 80 13.333333333333334C 80 -3.6363636363636362 0 -3.6363636363636362 0 13.333333333333334ZM 0 13.333333333333334C 0 30 80 30 80 13.333333333333334C 80 30 0 30 0 13.333333333333334" stroke="rgba(33,41,48,1)" stroke-width="1.5" fill-opacity="1" fill="#969696"></path><g id="SvgjsG1201"><text id="SvgjsText1202" font-family="&quot;Comic Sans MS&quot;" text-anchor="middle" font-size="15px" width="80px" fill="#323232" font-weight="700" align="middle" lineHeight="125%" anchor="middle" family="&quot;Comic Sans MS&quot;" size="15px" weight="700" font-style="" opacity="1" y="11.625" transform="rotate(0)"><tspan id="SvgjsTspan1203" dy="18.75" x="40"><tspan id="SvgjsTspan1204" style=""> </tspan></tspan></text></g></g><g id="SvgjsG1205" transform="translate(257.06412463072354,368.57627118644064)"><path id="SvgjsPath1206" d="M 0 13.333333333333334L 0 51C 0 63 80 63 80 51L 80 13.333333333333334C 80 -3.6363636363636362 0 -3.6363636363636362 0 13.333333333333334ZM 0 13.333333333333334C 0 30 80 30 80 13.333333333333334C 80 30 0 30 0 13.333333333333334" stroke="rgba(33,41,48,1)" stroke-width="1.5" fill-opacity="1" fill="#969696"></path><g id="SvgjsG1207"><text id="SvgjsText1208" font-family="&quot;Comic Sans MS&quot;" text-anchor="middle" font-size="15px" width="80px" fill="#323232" font-weight="700" align="middle" lineHeight="125%" anchor="middle" family="&quot;Comic Sans MS&quot;" size="15px" weight="700" font-style="" opacity="1" y="-6.875" transform="rotate(0)"><tspan id="SvgjsTspan1209" dy="18.75" x="40"><tspan id="SvgjsTspan1210" style=""> </tspan></tspan><tspan id="SvgjsTspan1211" dy="18.75" x="40"><tspan id="SvgjsTspan1212" style=""> </tspan></tspan><tspan id="SvgjsTspan1213" dy="18.75" x="40"><tspan id="SvgjsTspan1214" style="">数据文件</tspan></tspan></text></g></g><g id="SvgjsG1215" transform="translate(348.56412463072354,413.5762711864407)"><path id="SvgjsPath1216" d="M 0 13.333333333333334L 0 51C 0 63 80 63 80 51L 80 13.333333333333334C 80 -3.6363636363636362 0 -3.6363636363636362 0 13.333333333333334ZM 0 13.333333333333334C 0 30 80 30 80 13.333333333333334C 80 30 0 30 0 13.333333333333334" stroke="rgba(33,41,48,1)" stroke-width="1.5" fill-opacity="1" fill="#969696"></path><g id="SvgjsG1217"><text id="SvgjsText1218" font-family="&quot;Comic Sans MS&quot;" text-anchor="middle" font-size="15px" width="80px" fill="#323232" font-weight="700" align="middle" lineHeight="125%" anchor="middle" family="&quot;Comic Sans MS&quot;" size="15px" weight="700" font-style="" opacity="1" y="11.625" transform="rotate(0)"><tspan id="SvgjsTspan1219" dy="18.75" x="40"><tspan id="SvgjsTspan1220" style=""> </tspan></tspan></text></g></g><g id="SvgjsG1221" transform="translate(348.56412463072354,368.57627118644064)"><path id="SvgjsPath1222" d="M 0 13.333333333333334L 0 51C 0 63 80 63 80 51L 80 13.333333333333334C 80 -3.6363636363636362 0 -3.6363636363636362 0 13.333333333333334ZM 0 13.333333333333334C 0 30 80 30 80 13.333333333333334C 80 30 0 30 0 13.333333333333334" stroke="rgba(33,41,48,1)" stroke-width="1.5" fill-opacity="1" fill="#969696"></path><g id="SvgjsG1223"><text id="SvgjsText1224" font-family="&quot;Comic Sans MS&quot;" text-anchor="middle" font-size="15px" width="80px" fill="#323232" font-weight="700" align="middle" lineHeight="125%" anchor="middle" family="&quot;Comic Sans MS&quot;" size="15px" weight="700" font-style="" opacity="1" y="-6.875" transform="rotate(0)"><tspan id="SvgjsTspan1225" dy="18.75" x="40"><tspan id="SvgjsTspan1226" style=""> </tspan></tspan><tspan id="SvgjsTspan1227" dy="18.75" x="40"><tspan id="SvgjsTspan1228" style=""> </tspan></tspan><tspan id="SvgjsTspan1229" dy="18.75" x="40"><tspan id="SvgjsTspan1230" style="">控制文件</tspan></tspan></text></g></g><g id="SvgjsG1231" transform="translate(440.06412463072354,413.5762711864407)"><path id="SvgjsPath1232" d="M 0 13.333333333333334L 0 51C 0 63 80 63 80 51L 80 13.333333333333334C 80 -3.6363636363636362 0 -3.6363636363636362 0 13.333333333333334ZM 0 13.333333333333334C 0 30 80 30 80 13.333333333333334C 80 30 0 30 0 13.333333333333334" stroke="rgba(33,41,48,1)" stroke-width="1.5" fill-opacity="1" fill="#969696"></path><g id="SvgjsG1233"><text id="SvgjsText1234" font-family="&quot;Comic Sans MS&quot;" text-anchor="middle" font-size="15px" width="80px" fill="#323232" font-weight="700" align="middle" lineHeight="125%" anchor="middle" family="&quot;Comic Sans MS&quot;" size="15px" weight="700" font-style="" opacity="1" y="11.625" transform="rotate(0)"><tspan id="SvgjsTspan1235" dy="18.75" x="40"><tspan id="SvgjsTspan1236" style=""> </tspan></tspan></text></g></g><g id="SvgjsG1237" transform="translate(440.06412463072354,368.57627118644064)"><path id="SvgjsPath1238" d="M 0 13.333333333333334L 0 51C 0 63 80 63 80 51L 80 13.333333333333334C 80 -3.6363636363636362 0 -3.6363636363636362 0 13.333333333333334ZM 0 13.333333333333334C 0 30 80 30 80 13.333333333333334C 80 30 0 30 0 13.333333333333334" stroke="rgba(33,41,48,1)" stroke-width="1.5" fill-opacity="1" fill="#969696"></path><g id="SvgjsG1239"><text id="SvgjsText1240" font-family="&quot;Comic Sans MS&quot;" text-anchor="middle" font-size="15px" width="80px" fill="#323232" font-weight="700" align="middle" lineHeight="125%" anchor="middle" family="&quot;Comic Sans MS&quot;" size="15px" weight="700" font-style="" opacity="1" y="-16.375" transform="rotate(0)"><tspan id="SvgjsTspan1241" dy="18.75" x="40"><tspan id="SvgjsTspan1242" style=""> </tspan></tspan><tspan id="SvgjsTspan1243" dy="18.75" x="40"><tspan id="SvgjsTspan1244" style=""> </tspan></tspan><tspan id="SvgjsTspan1245" dy="18.75" x="40"><tspan id="SvgjsTspan1246" style="">重做日志</tspan></tspan><tspan id="SvgjsTspan1247" dy="18.75" x="40"><tspan id="SvgjsTspan1248" style="">文件</tspan></tspan></text></g></g><g id="SvgjsG1249" transform="translate(454.0471754781811,495.33898305084745)"><path id="SvgjsPath1250" d="M 0 0L 100 0L 100 40L 0 40Z" stroke="none" fill="none"></path><g id="SvgjsG1251"><text id="SvgjsText1252" font-family="&quot;Comic Sans MS&quot;" text-anchor="middle" font-size="15px" width="100px" fill="#323232" font-weight="400" align="middle" lineHeight="125%" anchor="middle" family="&quot;Comic Sans MS&quot;" size="15px" weight="400" font-style="" opacity="1" y="7.625" transform="rotate(0)"><tspan id="SvgjsTspan1253" dy="18.75" x="50"><tspan id="SvgjsTspan1254" style="font-weight: bold;">数据库</tspan></tspan></text></g></g><g id="SvgjsG1255"><path id="SvgjsPath1256" d="M380.58415544736454 314.24152542372883L380.58415544736454 338.87288135593224L380.58415544736454 338.87288135593224L380.58415544736454 361.5542372881356" stroke="#323232" stroke-width="1.5" fill="none" marker-end="url(#SvgjsMarker1257)"></path></g><g id="SvgjsG1259"><path id="SvgjsPath1260" d="M405.16042663380523 363.35169491525426L405.16042663380523 338.79661016949154L405.16042663380523 338.79661016949154L405.16042663380523 316.1915254237288" stroke="#323232" stroke-width="1.5" fill="none" marker-end="url(#SvgjsMarker1261)"></path></g><g id="SvgjsG1263" transform="translate(297.6011045999069,25)"><path id="SvgjsPath1264" d="M 0 0L 159.25423728813564 0L 159.25423728813564 40L 0 40Z" stroke="none" fill="none"></path><g id="SvgjsG1265"><text id="SvgjsText1266" font-family="&quot;Comic Sans MS&quot;" text-anchor="middle" font-size="25px" width="160px" fill="#323232" font-weight="400" align="middle" lineHeight="125%" anchor="middle" family="&quot;Comic Sans MS&quot;" size="25px" weight="400" font-style="" opacity="1" y="-1.625" transform="rotate(0)"><tspan id="SvgjsTspan1267" dy="31.25" x="80"><tspan id="SvgjsTspan1268" style="font-weight: bold;">基本组件概览</tspan></tspan></text></g></g></svg>