<svg id="SvgjsSvg1006" width="1004" height="428" xmlns="http://www.w3.org/2000/svg" version="1.1" xmlns:xlink="http://www.w3.org/1999/xlink" xmlns:svgjs="http://svgjs.com/svgjs"><defs id="SvgjsDefs1007"><pattern patternUnits="userSpaceOnUse" id="pattern_mark_0" width="300" height="300"><text x="150" y="100" fill="rgba(229,229,229,0.8)" font-size="18" transform="rotate(-45, 150, 150)" style="dominant-baseline: middle; text-anchor: middle;"></text></pattern><pattern patternUnits="userSpaceOnUse" id="pattern_mark_1" width="300" height="300"><text x="150" y="200" fill="rgba(229,229,229,0.8)" font-size="18" transform="rotate(-45, 150, 150)" style="dominant-baseline: middle; text-anchor: middle;"></text></pattern><pattern id="SvgjsPattern1061" x="0" y="0" width="70" height="70" patternUnits="userSpaceOnUse"><image id="SvgjsImage1062" xlink:href="https://iconsapi.com/5ee26338e4b0b788a932b241.svg" width="70" height="70" preserveAspectRatio="none" crossOrigin="anonymous" x="0" y="0"></image></pattern><pattern id="SvgjsPattern1065" x="0" y="0" width="70" height="70" patternUnits="userSpaceOnUse"><image id="SvgjsImage1066" xlink:href="https://iconsapi.com/5ee26338e4b0b788a932b241.svg" width="70" height="70" preserveAspectRatio="none" crossOrigin="anonymous" x="0" y="0"></image></pattern><pattern id="SvgjsPattern1077" x="0" y="0" width="70" height="70" patternUnits="userSpaceOnUse"><image id="SvgjsImage1078" xlink:href="https://iconsapi.com/5ee26338e4b0b788a932b241.svg" width="70" height="70" preserveAspectRatio="none" crossOrigin="anonymous" x="0" y="0"></image></pattern><pattern id="SvgjsPattern1081" x="0" y="0" width="70" height="70" patternUnits="userSpaceOnUse"><image id="SvgjsImage1082" xlink:href="https://iconsapi.com/5ee26338e4b0b788a932b241.svg" width="70" height="70" preserveAspectRatio="none" crossOrigin="anonymous" x="0" y="0"></image></pattern></defs><rect id="svgbackgroundid" width="1004" height="428" fill="transparent"></rect><rect id="SvgjsRect1009" width="1004" height="428" fill="url(#pattern_mark_0)"></rect><rect id="SvgjsRect1010" width="1004" height="428" fill="url(#pattern_mark_1)"></rect><g id="SvgjsG1011" transform="translate(25,147)"><path id="SvgjsPath1012" d="M 0 4Q 0 0 4 0L 92 0Q 96 0 96 4L 96 50Q 96 54 92 54L 4 54Q 0 54 0 50Z" stroke="rgba(202,188,130,1)" stroke-width="1.5" fill-opacity="1" fill="#ffffff"></path><g id="SvgjsG1013"><text id="SvgjsText1014" font-family="&quot;Microsoft YaHei&quot;, 微软雅黑, Arial" text-anchor="middle" font-size="13px" width="76px" fill="#323232" font-weight="400" align="middle" lineHeight="125%" anchor="middle" family="&quot;Microsoft YaHei&quot;, 微软雅黑, Arial" size="13px" weight="400" font-style="" opacity="1" y="16.375" transform="rotate(0)"><tspan id="SvgjsTspan1015" dy="16.25" x="48"><tspan id="SvgjsTspan1016" style="">MySQL</tspan></tspan></text></g></g><g id="SvgjsG1017" transform="translate(321,301)"><path id="SvgjsPath1018" d="M 0 4Q 0 0 4 0L 92 0Q 96 0 96 4L 96 50Q 96 54 92 54L 4 54Q 0 54 0 50Z" stroke="rgba(202,188,130,1)" stroke-width="1.5" fill-opacity="1" fill="#ffffff"></path><g id="SvgjsG1019"><text id="SvgjsText1020" font-family="&quot;Microsoft YaHei&quot;, 微软雅黑, Arial" text-anchor="middle" font-size="13px" width="76px" fill="#323232" font-weight="400" align="middle" lineHeight="125%" anchor="middle" family="&quot;Microsoft YaHei&quot;, 微软雅黑, Arial" size="13px" weight="400" font-style="" opacity="1" y="16.375" transform="rotate(0)"><tspan id="SvgjsTspan1021" dy="16.25" x="48"><tspan id="SvgjsTspan1022" style="">MySQL-主</tspan></tspan></text></g></g><g id="SvgjsG1023" transform="translate(321,147)"><path id="SvgjsPath1024" d="M 0 4Q 0 0 4 0L 92 0Q 96 0 96 4L 96 50Q 96 54 92 54L 4 54Q 0 54 0 50Z" stroke="rgba(202,188,130,1)" stroke-width="1.5" fill-opacity="1" fill="#ffffff"></path><g id="SvgjsG1025"><text id="SvgjsText1026" font-family="&quot;Microsoft YaHei&quot;, 微软雅黑, Arial" text-anchor="middle" font-size="13px" width="76px" fill="#323232" font-weight="400" align="middle" lineHeight="125%" anchor="middle" family="&quot;Microsoft YaHei&quot;, 微软雅黑, Arial" size="13px" weight="400" font-style="" opacity="1" y="16.375" transform="rotate(0)"><tspan id="SvgjsTspan1027" dy="16.25" x="48"><tspan id="SvgjsTspan1028" style="">MySQL</tspan></tspan></text></g></g><g id="SvgjsG1029" transform="translate(883,301)"><path id="SvgjsPath1030" d="M 0 4Q 0 0 4 0L 92 0Q 96 0 96 4L 96 50Q 96 54 92 54L 4 54Q 0 54 0 50Z" stroke="rgba(202,188,130,1)" stroke-width="1.5" fill-opacity="1" fill="#ffffff"></path><g id="SvgjsG1031"><text id="SvgjsText1032" font-family="&quot;Microsoft YaHei&quot;, 微软雅黑, Arial" text-anchor="middle" font-size="13px" width="76px" fill="#323232" font-weight="400" align="middle" lineHeight="125%" anchor="middle" family="&quot;Microsoft YaHei&quot;, 微软雅黑, Arial" size="13px" weight="400" font-style="" opacity="1" y="16.375" transform="rotate(0)"><tspan id="SvgjsTspan1033" dy="16.25" x="48"><tspan id="SvgjsTspan1034" style="">MySQL-从</tspan></tspan></text></g></g><g id="SvgjsG1035" transform="translate(587,301)"><path id="SvgjsPath1036" d="M 0 4Q 0 0 4 0L 92 0Q 96 0 96 4L 96 50Q 96 54 92 54L 4 54Q 0 54 0 50Z" stroke="rgba(202,188,130,1)" stroke-width="1.5" fill-opacity="1" fill="#ffffff"></path><g id="SvgjsG1037"><text id="SvgjsText1038" font-family="&quot;Microsoft YaHei&quot;, 微软雅黑, Arial" text-anchor="middle" font-size="13px" width="76px" fill="#323232" font-weight="400" align="middle" lineHeight="125%" anchor="middle" family="&quot;Microsoft YaHei&quot;, 微软雅黑, Arial" size="13px" weight="400" font-style="" opacity="1" y="16.375" transform="rotate(0)"><tspan id="SvgjsTspan1039" dy="16.25" x="48"><tspan id="SvgjsTspan1040" style="">MySQL-主</tspan></tspan></text></g></g><g id="SvgjsG1041" transform="translate(883,147)"><path id="SvgjsPath1042" d="M 0 4Q 0 0 4 0L 92 0Q 96 0 96 4L 96 50Q 96 54 92 54L 4 54Q 0 54 0 50Z" stroke="rgba(202,188,130,1)" stroke-width="1.5" fill-opacity="1" fill="#ffffff"></path><g id="SvgjsG1043"><text id="SvgjsText1044" font-family="&quot;Microsoft YaHei&quot;, 微软雅黑, Arial" text-anchor="middle" font-size="13px" width="76px" fill="#323232" font-weight="400" align="middle" lineHeight="125%" anchor="middle" family="&quot;Microsoft YaHei&quot;, 微软雅黑, Arial" size="13px" weight="400" font-style="" opacity="1" y="16.375" transform="rotate(0)"><tspan id="SvgjsTspan1045" dy="16.25" x="48"><tspan id="SvgjsTspan1046" style="">MySQL-备</tspan></tspan></text></g></g><g id="SvgjsG1047" transform="translate(25,301)"><path id="SvgjsPath1048" d="M 0 4Q 0 0 4 0L 92 0Q 96 0 96 4L 96 50Q 96 54 92 54L 4 54Q 0 54 0 50Z" stroke="rgba(202,188,130,1)" stroke-width="1.5" fill-opacity="1" fill="#ffffff"></path><g id="SvgjsG1049"><text id="SvgjsText1050" font-family="&quot;Microsoft YaHei&quot;, 微软雅黑, Arial" text-anchor="middle" font-size="13px" width="76px" fill="#323232" font-weight="400" align="middle" lineHeight="125%" anchor="middle" family="&quot;Microsoft YaHei&quot;, 微软雅黑, Arial" size="13px" weight="400" font-style="" opacity="1" y="16.375" transform="rotate(0)"><tspan id="SvgjsTspan1051" dy="16.25" x="48"><tspan id="SvgjsTspan1052" style="">MySQL-主</tspan></tspan></text></g></g><g id="SvgjsG1053" transform="translate(587,147)"><path id="SvgjsPath1054" d="M 0 4Q 0 0 4 0L 92 0Q 96 0 96 4L 96 50Q 96 54 92 54L 4 54Q 0 54 0 50Z" stroke="rgba(202,188,130,1)" stroke-width="1.5" fill-opacity="1" fill="#ffffff"></path><g id="SvgjsG1055"><text id="SvgjsText1056" font-family="&quot;Microsoft YaHei&quot;, 微软雅黑, Arial" text-anchor="middle" font-size="13px" width="76px" fill="#323232" font-weight="400" align="middle" lineHeight="125%" anchor="middle" family="&quot;Microsoft YaHei&quot;, 微软雅黑, Arial" size="13px" weight="400" font-style="" opacity="1" y="16.375" transform="rotate(0)"><tspan id="SvgjsTspan1057" dy="16.25" x="48"><tspan id="SvgjsTspan1058" style="">MySQL-主</tspan></tspan></text></g></g><g id="SvgjsG1059" transform="translate(186,139)"><path id="SvgjsPath1060" d="M 0 0L 70 0L 70 70L 0 70Z" stroke="none" fill="url(#SvgjsPattern1061)"></path></g><g id="SvgjsG1063" transform="translate(186,293)"><path id="SvgjsPath1064" d="M 0 0L 70 0L 70 70L 0 70Z" stroke="none" fill="url(#SvgjsPattern1065)"></path></g><g id="SvgjsG1067" transform="translate(131,164)"><path id="SvgjsPath1068" d="M 0 6.6000000000000005L 45 6.6000000000000005L 45 0L 55 10L 45 20L 45 13.4L 0 13.4L 0 6.6000000000000005Z" stroke="rgba(190,176,153,1)" stroke-width="1.5" fill-opacity="1" fill="#f3d7d1"></path><g id="SvgjsG1069"><text id="SvgjsText1070" font-family="&quot;Microsoft YaHei&quot;, 微软雅黑, Arial" text-anchor="middle" font-size="13px" width="55px" fill="#323232" font-weight="400" align="middle" lineHeight="125%" anchor="middle" family="&quot;Microsoft YaHei&quot;, 微软雅黑, Arial" size="13px" weight="400" font-style="" opacity="1" y="-0.6249999999999991" transform="rotate(0)"></text></g></g><g id="SvgjsG1071" transform="translate(256,164)"><path id="SvgjsPath1072" d="M 0 6.6000000000000005L 45 6.6000000000000005L 45 0L 55 10L 45 20L 45 13.4L 0 13.4L 0 6.6000000000000005Z" stroke="rgba(190,176,153,1)" stroke-width="1.5" fill-opacity="1" fill="#f3d7d1"></path><g id="SvgjsG1073"><text id="SvgjsText1074" font-family="&quot;Microsoft YaHei&quot;, 微软雅黑, Arial" text-anchor="middle" font-size="13px" width="55px" fill="#323232" font-weight="400" align="middle" lineHeight="125%" anchor="middle" family="&quot;Microsoft YaHei&quot;, 微软雅黑, Arial" size="13px" weight="400" font-style="" opacity="1" y="-0.6249999999999991" transform="rotate(0)"></text></g></g><g id="SvgjsG1075" transform="translate(748,139)"><path id="SvgjsPath1076" d="M 0 0L 70 0L 70 70L 0 70Z" stroke="none" fill="url(#SvgjsPattern1077)"></path></g><g id="SvgjsG1079" transform="translate(748,293)"><path id="SvgjsPath1080" d="M 0 0L 70 0L 70 70L 0 70Z" stroke="none" fill="url(#SvgjsPattern1081)"></path></g><g id="SvgjsG1083" transform="translate(693,164)"><path id="SvgjsPath1084" d="M 0 6.6000000000000005L 45 6.6000000000000005L 45 0L 55 10L 45 20L 45 13.4L 0 13.4L 0 6.6000000000000005Z" stroke="rgba(190,176,153,1)" stroke-width="1.5" fill-opacity="1" fill="#f3d7d1"></path><g id="SvgjsG1085"><text id="SvgjsText1086" font-family="&quot;Microsoft YaHei&quot;, 微软雅黑, Arial" text-anchor="middle" font-size="13px" width="55px" fill="#323232" font-weight="400" align="middle" lineHeight="125%" anchor="middle" family="&quot;Microsoft YaHei&quot;, 微软雅黑, Arial" size="13px" weight="400" font-style="" opacity="1" y="-0.6249999999999991" transform="rotate(0)"></text></g></g><g id="SvgjsG1087" transform="matrix(-1,1.2246467991473532e-16,-1.2246467991473532e-16,-1,873,184)"><path id="SvgjsPath1088" d="M 0 6.6000000000000005L 45 6.6000000000000005L 45 0L 55 10L 45 20L 45 13.4L 0 13.4L 0 6.6000000000000005Z" stroke="rgba(190,176,153,1)" stroke-width="1.5" fill-opacity="1" fill="#f3d7d1"></path><g id="SvgjsG1089"><text id="SvgjsText1090" font-family="&quot;Microsoft YaHei&quot;, 微软雅黑, Arial" text-anchor="middle" font-size="13px" width="55px" fill="#323232" font-weight="400" align="middle" lineHeight="125%" anchor="middle" family="&quot;Microsoft YaHei&quot;, 微软雅黑, Arial" size="13px" weight="400" font-style="" opacity="1" y="-0.6249999999999991" transform="rotate(0)"></text></g></g><g id="SvgjsG1091" transform="matrix(-1,1.2246467991473532e-16,-1.2246467991473532e-16,-1,875,339)"><path id="SvgjsPath1092" d="M 0 6.6000000000000005L 45 6.6000000000000005L 45 0L 55 10L 45 20L 45 13.4L 0 13.4L 0 6.6000000000000005Z" stroke="rgba(190,176,153,1)" stroke-width="1.5" fill-opacity="1" fill="#f3d7d1"></path><g id="SvgjsG1093"><text id="SvgjsText1094" font-family="&quot;Microsoft YaHei&quot;, 微软雅黑, Arial" text-anchor="middle" font-size="13px" width="55px" fill="#323232" font-weight="400" align="middle" lineHeight="125%" anchor="middle" family="&quot;Microsoft YaHei&quot;, 微软雅黑, Arial" size="13px" weight="400" font-style="" opacity="1" y="-0.6249999999999991" transform="rotate(0)"></text></g></g><g id="SvgjsG1095" transform="translate(693,318)"><path id="SvgjsPath1096" d="M 0 6.6000000000000005L 45 6.6000000000000005L 45 0L 55 10L 45 20L 45 13.4L 0 13.4L 0 6.6000000000000005Z" stroke="rgba(190,176,153,1)" stroke-width="1.5" fill-opacity="1" fill="#f3d7d1"></path><g id="SvgjsG1097"><text id="SvgjsText1098" font-family="&quot;Microsoft YaHei&quot;, 微软雅黑, Arial" text-anchor="middle" font-size="13px" width="55px" fill="#323232" font-weight="400" align="middle" lineHeight="125%" anchor="middle" family="&quot;Microsoft YaHei&quot;, 微软雅黑, Arial" size="13px" weight="400" font-style="" opacity="1" y="-0.6249999999999991" transform="rotate(0)"></text></g></g><g id="SvgjsG1099" transform="translate(131,318)"><path id="SvgjsPath1100" d="M 0 10L 10 0L 10 6.6000000000000005L 45 6.6000000000000005L 45 0L 55 10L 45 20L 45 13.4L 10 13.4L 10 20L 0 10Z" stroke="rgba(175,194,192,1)" stroke-width="1.5" fill-opacity="1" fill="#e2ecff"></path><g id="SvgjsG1101"><text id="SvgjsText1102" font-family="&quot;Microsoft YaHei&quot;, 微软雅黑, Arial" text-anchor="middle" font-size="13px" width="55px" fill="#323232" font-weight="400" align="middle" lineHeight="125%" anchor="middle" family="&quot;Microsoft YaHei&quot;, 微软雅黑, Arial" size="13px" weight="400" font-style="" opacity="1" y="-0.6249999999999991" transform="rotate(0)"></text></g></g><g id="SvgjsG1103" transform="translate(256,318)"><path id="SvgjsPath1104" d="M 0 10L 10 0L 10 6.6000000000000005L 45 6.6000000000000005L 45 0L 55 10L 45 20L 45 13.4L 10 13.4L 10 20L 0 10Z" stroke="rgba(175,194,192,1)" stroke-width="1.5" fill-opacity="1" fill="#e2ecff"></path><g id="SvgjsG1105"><text id="SvgjsText1106" font-family="&quot;Microsoft YaHei&quot;, 微软雅黑, Arial" text-anchor="middle" font-size="13px" width="55px" fill="#323232" font-weight="400" align="middle" lineHeight="125%" anchor="middle" family="&quot;Microsoft YaHei&quot;, 微软雅黑, Arial" size="13px" weight="400" font-style="" opacity="1" y="-0.6249999999999991" transform="rotate(0)"></text></g></g><g id="SvgjsG1107" transform="translate(171,201)"><path id="SvgjsPath1108" d="M 0 0L 100 0L 100 40L 0 40Z" stroke="none" fill="none"></path><g id="SvgjsG1109"><text id="SvgjsText1110" font-family="&quot;Microsoft YaHei&quot;, 微软雅黑, Arial" text-anchor="middle" font-size="13px" width="100px" fill="#323232" font-weight="400" align="middle" lineHeight="125%" anchor="middle" family="&quot;Microsoft YaHei&quot;, 微软雅黑, Arial" size="13px" weight="400" font-style="" opacity="1" y="0.875" transform="rotate(0)"><tspan id="SvgjsTspan1111" dy="16.25" x="50"><tspan id="SvgjsTspan1112" style="">binlog</tspan></tspan><tspan id="SvgjsTspan1113" dy="16.25" x="50"><tspan id="SvgjsTspan1114" style="">归档日志</tspan></tspan></text></g></g><g id="SvgjsG1115" transform="translate(171,355)"><path id="SvgjsPath1116" d="M 0 0L 100 0L 100 40L 0 40Z" stroke="none" fill="none"></path><g id="SvgjsG1117"><text id="SvgjsText1118" font-family="&quot;Microsoft YaHei&quot;, 微软雅黑, Arial" text-anchor="middle" font-size="13px" width="100px" fill="#323232" font-weight="400" align="middle" lineHeight="125%" anchor="middle" family="&quot;Microsoft YaHei&quot;, 微软雅黑, Arial" size="13px" weight="400" font-style="" opacity="1" y="0.875" transform="rotate(0)"><tspan id="SvgjsTspan1119" dy="16.25" x="50"><tspan id="SvgjsTspan1120" style="">binlog</tspan></tspan><tspan id="SvgjsTspan1121" dy="16.25" x="50"><tspan id="SvgjsTspan1122" style="">归档日志</tspan></tspan></text></g></g><g id="SvgjsG1123" transform="translate(733,209)"><path id="SvgjsPath1124" d="M 0 0L 100 0L 100 40L 0 40Z" stroke="none" fill="none"></path><g id="SvgjsG1125"><text id="SvgjsText1126" font-family="&quot;Microsoft YaHei&quot;, 微软雅黑, Arial" text-anchor="middle" font-size="13px" width="100px" fill="#323232" font-weight="400" align="middle" lineHeight="125%" anchor="middle" family="&quot;Microsoft YaHei&quot;, 微软雅黑, Arial" size="13px" weight="400" font-style="" opacity="1" y="0.875" transform="rotate(0)"><tspan id="SvgjsTspan1127" dy="16.25" x="50"><tspan id="SvgjsTspan1128" style="">binlog</tspan></tspan><tspan id="SvgjsTspan1129" dy="16.25" x="50"><tspan id="SvgjsTspan1130" style="">归档日志</tspan></tspan></text></g></g><g id="SvgjsG1131" transform="translate(733,363)"><path id="SvgjsPath1132" d="M 0 0L 100 0L 100 40L 0 40Z" stroke="none" fill="none"></path><g id="SvgjsG1133"><text id="SvgjsText1134" font-family="&quot;Microsoft YaHei&quot;, 微软雅黑, Arial" text-anchor="middle" font-size="13px" width="100px" fill="#323232" font-weight="400" align="middle" lineHeight="125%" anchor="middle" family="&quot;Microsoft YaHei&quot;, 微软雅黑, Arial" size="13px" weight="400" font-style="" opacity="1" y="0.875" transform="rotate(0)"><tspan id="SvgjsTspan1135" dy="16.25" x="50"><tspan id="SvgjsTspan1136" style="">binlog</tspan></tspan><tspan id="SvgjsTspan1137" dy="16.25" x="50"><tspan id="SvgjsTspan1138" style="">归档日志</tspan></tspan></text></g></g><g id="SvgjsG1139" transform="translate(108.5,139)"><path id="SvgjsPath1140" d="M 0 0L 100 0L 100 40L 0 40Z" stroke="none" fill="none"></path><g id="SvgjsG1141"><text id="SvgjsText1142" font-family="&quot;Microsoft YaHei&quot;, 微软雅黑, Arial" text-anchor="middle" font-size="13px" width="100px" fill="#323232" font-weight="400" align="middle" lineHeight="125%" anchor="middle" family="&quot;Microsoft YaHei&quot;, 微软雅黑, Arial" size="13px" weight="400" font-style="" opacity="1" y="9.375" transform="rotate(0)"><tspan id="SvgjsTspan1143" dy="16.25" x="50"><tspan id="SvgjsTspan1144" style="">写</tspan></tspan></text></g></g><g id="SvgjsG1145" transform="translate(670.5,144)"><path id="SvgjsPath1146" d="M 0 0L 100 0L 100 40L 0 40Z" stroke="none" fill="none"></path><g id="SvgjsG1147"><text id="SvgjsText1148" font-family="&quot;Microsoft YaHei&quot;, 微软雅黑, Arial" text-anchor="middle" font-size="13px" width="100px" fill="#323232" font-weight="400" align="middle" lineHeight="125%" anchor="middle" family="&quot;Microsoft YaHei&quot;, 微软雅黑, Arial" size="13px" weight="400" font-style="" opacity="1" y="9.375" transform="rotate(0)"><tspan id="SvgjsTspan1149" dy="16.25" x="50"><tspan id="SvgjsTspan1150" style="">写</tspan></tspan></text></g></g><g id="SvgjsG1151" transform="translate(670.5,298)"><path id="SvgjsPath1152" d="M 0 0L 100 0L 100 40L 0 40Z" stroke="none" fill="none"></path><g id="SvgjsG1153"><text id="SvgjsText1154" font-family="&quot;Microsoft YaHei&quot;, 微软雅黑, Arial" text-anchor="middle" font-size="13px" width="100px" fill="#323232" font-weight="400" align="middle" lineHeight="125%" anchor="middle" family="&quot;Microsoft YaHei&quot;, 微软雅黑, Arial" size="13px" weight="400" font-style="" opacity="1" y="9.375" transform="rotate(0)"><tspan id="SvgjsTspan1155" dy="16.25" x="50"><tspan id="SvgjsTspan1156" style="">写</tspan></tspan></text></g></g><g id="SvgjsG1157" transform="translate(795.5,298)"><path id="SvgjsPath1158" d="M 0 0L 100 0L 100 40L 0 40Z" stroke="none" fill="none"></path><g id="SvgjsG1159"><text id="SvgjsText1160" font-family="&quot;Microsoft YaHei&quot;, 微软雅黑, Arial" text-anchor="middle" font-size="13px" width="100px" fill="#323232" font-weight="400" align="middle" lineHeight="125%" anchor="middle" family="&quot;Microsoft YaHei&quot;, 微软雅黑, Arial" size="13px" weight="400" font-style="" opacity="1" y="9.375" transform="rotate(0)"><tspan id="SvgjsTspan1161" dy="16.25" x="50"><tspan id="SvgjsTspan1162" style="">读</tspan></tspan></text></g></g><g id="SvgjsG1163" transform="translate(797.5,144)"><path id="SvgjsPath1164" d="M 0 0L 100 0L 100 40L 0 40Z" stroke="none" fill="none"></path><g id="SvgjsG1165"><text id="SvgjsText1166" font-family="&quot;Microsoft YaHei&quot;, 微软雅黑, Arial" text-anchor="middle" font-size="13px" width="100px" fill="#323232" font-weight="400" align="middle" lineHeight="125%" anchor="middle" family="&quot;Microsoft YaHei&quot;, 微软雅黑, Arial" size="13px" weight="400" font-style="" opacity="1" y="9.375" transform="rotate(0)"><tspan id="SvgjsTspan1167" dy="16.25" x="50"><tspan id="SvgjsTspan1168" style="">读</tspan></tspan></text></g></g><g id="SvgjsG1169" transform="translate(108.5,298)"><path id="SvgjsPath1170" d="M 0 0L 100 0L 100 40L 0 40Z" stroke="none" fill="none"></path><g id="SvgjsG1171"><text id="SvgjsText1172" font-family="&quot;Microsoft YaHei&quot;, 微软雅黑, Arial" text-anchor="middle" font-size="13px" width="100px" fill="#323232" font-weight="400" align="middle" lineHeight="125%" anchor="middle" family="&quot;Microsoft YaHei&quot;, 微软雅黑, Arial" size="13px" weight="400" font-style="" opacity="1" y="9.375" transform="rotate(0)"><tspan id="SvgjsTspan1173" dy="16.25" x="50"><tspan id="SvgjsTspan1174" style="">读写</tspan></tspan></text></g></g><g id="SvgjsG1175" transform="translate(233.5,298)"><path id="SvgjsPath1176" d="M 0 0L 100 0L 100 40L 0 40Z" stroke="none" fill="none"></path><g id="SvgjsG1177"><text id="SvgjsText1178" font-family="&quot;Microsoft YaHei&quot;, 微软雅黑, Arial" text-anchor="middle" font-size="13px" width="100px" fill="#323232" font-weight="400" align="middle" lineHeight="125%" anchor="middle" family="&quot;Microsoft YaHei&quot;, 微软雅黑, Arial" size="13px" weight="400" font-style="" opacity="1" y="9.375" transform="rotate(0)"><tspan id="SvgjsTspan1179" dy="16.25" x="50"><tspan id="SvgjsTspan1180" style="">读写</tspan></tspan></text></g></g><g id="SvgjsG1181" transform="translate(168,25)"><path id="SvgjsPath1182" d="M 0 24.5C 0 -8.166666666666666 106 -8.166666666666666 106 24.5C 106 57.166666666666664 0 57.166666666666664 0 24.5Z" stroke="rgba(170,191,147,1)" stroke-width="1.5" fill-opacity="1" fill="#dfeadb"></path><g id="SvgjsG1183"><text id="SvgjsText1184" font-family="&quot;Microsoft YaHei&quot;, 微软雅黑, Arial" text-anchor="middle" font-size="13px" width="86px" fill="#323232" font-weight="400" align="middle" lineHeight="125%" anchor="middle" family="&quot;Microsoft YaHei&quot;, 微软雅黑, Arial" size="13px" weight="400" font-style="" opacity="1" y="5.375" transform="rotate(0)"><tspan id="SvgjsTspan1185" dy="16.25" x="53"><tspan id="SvgjsTspan1186" style="">根据binlog还</tspan></tspan><tspan id="SvgjsTspan1187" dy="16.25" x="53"><tspan id="SvgjsTspan1188" style="">原MySQL实例</tspan></tspan></text></g></g><g id="SvgjsG1189" transform="translate(211,80)"><path id="SvgjsPath1190" d="M 6.6000000000000005 0L 13.4 0L 13.4 45L 20 45L 10 55L 0 45L 6.6000000000000005 45L 6.6000000000000005 0Z" stroke="rgba(190,176,153,1)" stroke-width="1.5" fill-opacity="1" fill="#f3d7d1"></path><g id="SvgjsG1191"><text id="SvgjsText1192" font-family="&quot;Microsoft YaHei&quot;, 微软雅黑, Arial" text-anchor="middle" font-size="13px" width="28px" fill="#323232" font-weight="400" align="middle" lineHeight="125%" anchor="middle" family="&quot;Microsoft YaHei&quot;, 微软雅黑, Arial" size="13px" weight="400" font-style="" opacity="1" y="14.125" transform="rotate(0)"></text></g></g><g id="SvgjsG1193"></g></svg>