<svg id="SvgjsSvg1006" width="702.476" height="422" xmlns="http://www.w3.org/2000/svg" version="1.1" xmlns:xlink="http://www.w3.org/1999/xlink" xmlns:svgjs="http://svgjs.com/svgjs"><defs id="SvgjsDefs1007"><pattern patternUnits="userSpaceOnUse" id="pattern_mark_0" width="300" height="300"><text x="150" y="100" fill="rgba(229,229,229,0.8)" font-size="18" transform="rotate(-45, 150, 150)" style="dominant-baseline: middle; text-anchor: middle;"></text></pattern><pattern patternUnits="userSpaceOnUse" id="pattern_mark_1" width="300" height="300"><text x="150" y="200" fill="rgba(229,229,229,0.8)" font-size="18" transform="rotate(-45, 150, 150)" style="dominant-baseline: middle; text-anchor: middle;"></text></pattern><marker id="SvgjsMarker1154" markerWidth="13" markerHeight="9" refX="9.5" refY="4.5" viewBox="0 0 13 9" orient="auto" markerUnits="userSpaceOnUse" stroke-dasharray="0,0"><path id="SvgjsPath1155" d="M0,0 L13,4.5 L0,9 L0,0" fill="#323232" stroke="#323232" stroke-width="1"></path></marker><marker id="SvgjsMarker1158" markerWidth="13" markerHeight="9" refX="9.5" refY="4.5" viewBox="0 0 13 9" orient="auto" markerUnits="userSpaceOnUse" stroke-dasharray="0,0"><path id="SvgjsPath1159" d="M0,0 L13,4.5 L0,9 L0,0" fill="#323232" stroke="#323232" stroke-width="1"></path></marker><marker id="SvgjsMarker1162" markerWidth="13" markerHeight="9" refX="9.5" refY="4.5" viewBox="0 0 13 9" orient="auto" markerUnits="userSpaceOnUse" stroke-dasharray="0,0"><path id="SvgjsPath1163" d="M0,0 L13,4.5 L0,9 L0,0" fill="#323232" stroke="#323232" stroke-width="1"></path></marker><marker id="SvgjsMarker1166" markerWidth="13" markerHeight="9" refX="3.5" refY="4.5" viewBox="0 0 13 9" orient="auto" markerUnits="userSpaceOnUse" stroke-dasharray="0,0"><path id="SvgjsPath1167" d="M13,0 L0,4.5 L13,9 L13,0" fill="#323232" stroke="#323232" stroke-width="1"></path></marker><marker id="SvgjsMarker1168" markerWidth="13" markerHeight="9" refX="9.5" refY="4.5" viewBox="0 0 13 9" orient="auto" markerUnits="userSpaceOnUse" stroke-dasharray="0,0"><path id="SvgjsPath1169" d="M0,0 L13,4.5 L0,9 L0,0" fill="#323232" stroke="#323232" stroke-width="1"></path></marker><marker id="SvgjsMarker1172" markerWidth="13" markerHeight="9" refX="3.5" refY="4.5" viewBox="0 0 13 9" orient="auto" markerUnits="userSpaceOnUse" stroke-dasharray="0,0"><path id="SvgjsPath1173" d="M13,0 L0,4.5 L13,9 L13,0" fill="#323232" stroke="#323232" stroke-width="1"></path></marker><marker id="SvgjsMarker1174" markerWidth="13" markerHeight="9" refX="9.5" refY="4.5" viewBox="0 0 13 9" orient="auto" markerUnits="userSpaceOnUse" stroke-dasharray="0,0"><path id="SvgjsPath1175" d="M0,0 L13,4.5 L0,9 L0,0" fill="#323232" stroke="#323232" stroke-width="1"></path></marker></defs><rect id="svgbackgroundid" width="702.476" height="422" fill="transparent"></rect><rect id="SvgjsRect1009" width="702.476" height="422" fill="url(#pattern_mark_0)"></rect><rect id="SvgjsRect1010" width="702.476" height="422" fill="url(#pattern_mark_1)"></rect><g id="SvgjsG1011" transform="translate(47.476000000000006,319)"><path id="SvgjsPath1012" d="M 0 0L 624 0L 624 78L 0 78Z" stroke="rgba(33,41,48,1)" stroke-width="1.5" fill-opacity="1" fill="#cdffff"></path><g id="SvgjsG1013"><text id="SvgjsText1014" font-family="&quot;Comic Sans MS&quot;" text-anchor="middle" font-size="13px" width="604px" fill="#323232" font-weight="700" align="middle" lineHeight="125%" anchor="middle" family="&quot;Comic Sans MS&quot;" size="13px" weight="700" font-style="" opacity="1" y="28.375" transform="rotate(0)"></text></g></g><g id="SvgjsG1015" transform="translate(284.476,25)"><path id="SvgjsPath1016" d="M 0 4Q 0 0 4 0L 146 0Q 150 0 150 4L 150 46Q 150 50 146 50L 4 50Q 0 50 0 46Z" stroke="rgba(33,41,48,1)" stroke-width="1.5" fill-opacity="1" fill="#f39b99"></path><g id="SvgjsG1017"><text id="SvgjsText1018" font-family="&quot;Comic Sans MS&quot;" text-anchor="middle" font-size="13px" width="130px" fill="#323232" font-weight="700" align="middle" lineHeight="125%" anchor="middle" family="&quot;Comic Sans MS&quot;" size="13px" weight="700" font-style="" opacity="1" y="14.375" transform="rotate(0)"><tspan id="SvgjsTspan1019" dy="16.25" x="75"><tspan id="SvgjsTspan1020" style="">quicklist</tspan></tspan></text></g></g><g id="SvgjsG1021" transform="translate(234.476,25)"><path id="SvgjsPath1022" d="M 0 4Q 0 0 4 0L 46 0Q 50 0 50 4L 50 46Q 50 50 46 50L 4 50Q 0 50 0 46Z" stroke="rgba(33,41,48,1)" stroke-width="1.5" fill-opacity="1" fill="#f39b99"></path><g id="SvgjsG1023"><text id="SvgjsText1024" font-family="&quot;Comic Sans MS&quot;" text-anchor="middle" font-size="13px" width="30px" fill="#323232" font-weight="700" align="middle" lineHeight="125%" anchor="middle" family="&quot;Comic Sans MS&quot;" size="13px" weight="700" font-style="" opacity="1" y="14.375" transform="rotate(0)"><tspan id="SvgjsTspan1025" dy="16.25" x="25"><tspan id="SvgjsTspan1026" style="">head</tspan></tspan></text></g></g><g id="SvgjsG1027" transform="translate(434.476,25)"><path id="SvgjsPath1028" d="M 0 4Q 0 0 4 0L 46 0Q 50 0 50 4L 50 46Q 50 50 46 50L 4 50Q 0 50 0 46Z" stroke="rgba(33,41,48,1)" stroke-width="1.5" fill-opacity="1" fill="#f39b99"></path><g id="SvgjsG1029"><text id="SvgjsText1030" font-family="&quot;Comic Sans MS&quot;" text-anchor="middle" font-size="13px" width="30px" fill="#323232" font-weight="700" align="middle" lineHeight="125%" anchor="middle" family="&quot;Comic Sans MS&quot;" size="13px" weight="700" font-style="" opacity="1" y="14.375" transform="rotate(0)"><tspan id="SvgjsTspan1031" dy="16.25" x="25"><tspan id="SvgjsTspan1032" style="">tail</tspan></tspan></text></g></g><g id="SvgjsG1033" transform="translate(41.476000000000006,145)"><path id="SvgjsPath1034" d="M 0 4Q 0 0 4 0L 173 0Q 177 0 177 4L 177 46Q 177 50 173 50L 4 50Q 0 50 0 46Z" stroke="rgba(33,41,48,1)" stroke-width="1.5" fill-opacity="1" fill="#cdff9a"></path><g id="SvgjsG1035"><text id="SvgjsText1036" font-family="&quot;Comic Sans MS&quot;" text-anchor="middle" font-size="13px" width="157px" fill="#323232" font-weight="700" align="middle" lineHeight="125%" anchor="middle" family="&quot;Comic Sans MS&quot;" size="13px" weight="700" font-style="" opacity="1" y="14.375" transform="rotate(0)"><tspan id="SvgjsTspan1037" dy="16.25" x="88.5"><tspan id="SvgjsTspan1038" style="">quicklist node</tspan></tspan></text></g></g><g id="SvgjsG1039" transform="translate(41.476000000000006,195)"><path id="SvgjsPath1040" d="M 0 4Q 0 0 4 0L 55 0Q 59 0 59 4L 59 46Q 59 50 55 50L 4 50Q 0 50 0 46Z" stroke="rgba(33,41,48,1)" stroke-width="1.5" fill-opacity="1" fill="#fcff99"></path><g id="SvgjsG1041"><text id="SvgjsText1042" font-family="&quot;Comic Sans MS&quot;" text-anchor="middle" font-size="13px" width="39px" fill="#323232" font-weight="700" align="middle" lineHeight="125%" anchor="middle" family="&quot;Comic Sans MS&quot;" size="13px" weight="700" font-style="" opacity="1" y="14.375" transform="rotate(0)"><tspan id="SvgjsTspan1043" dy="16.25" x="29.5"><tspan id="SvgjsTspan1044" style="">prev</tspan></tspan></text></g></g><g id="SvgjsG1045" transform="translate(100.476,195)"><path id="SvgjsPath1046" d="M 0 4Q 0 0 4 0L 55 0Q 59 0 59 4L 59 46Q 59 50 55 50L 4 50Q 0 50 0 46Z" stroke="rgba(33,41,48,1)" stroke-width="1.5" fill-opacity="1" fill="#f06666"></path><g id="SvgjsG1047"><text id="SvgjsText1048" font-family="&quot;Comic Sans MS&quot;" text-anchor="middle" font-size="13px" width="39px" fill="#323232" font-weight="700" align="middle" lineHeight="125%" anchor="middle" family="&quot;Comic Sans MS&quot;" size="13px" weight="700" font-style="" opacity="1" y="14.375" transform="rotate(0)"><tspan id="SvgjsTspan1049" dy="16.25" x="29.5"><tspan id="SvgjsTspan1050" style="">ziplist</tspan></tspan></text></g></g><g id="SvgjsG1051" transform="translate(159.476,195)"><path id="SvgjsPath1052" d="M 0 4Q 0 0 4 0L 55 0Q 59 0 59 4L 59 46Q 59 50 55 50L 4 50Q 0 50 0 46Z" stroke="rgba(33,41,48,1)" stroke-width="1.5" fill-opacity="1" fill="#fcff99"></path><g id="SvgjsG1053"><text id="SvgjsText1054" font-family="&quot;Comic Sans MS&quot;" text-anchor="middle" font-size="13px" width="39px" fill="#323232" font-weight="700" align="middle" lineHeight="125%" anchor="middle" family="&quot;Comic Sans MS&quot;" size="13px" weight="700" font-style="" opacity="1" y="14.375" transform="rotate(0)"><tspan id="SvgjsTspan1055" dy="16.25" x="29.5"><tspan id="SvgjsTspan1056" style="">next</tspan></tspan></text></g></g><g id="SvgjsG1057" transform="translate(59.726000000000006,343)"><path id="SvgjsPath1058" d="M0 0L74.99744999999999 0L74.99744999999999 30 L0 30Z" stroke="rgba(102, 102, 102,1)" stroke-width="1" fill-opacity="1" fill="#99ffce"></path><path id="SvgjsPath1059" d="M74.99744999999999 0L149.99489999999997 0L149.99489999999997 30 L74.99744999999999 30Z" stroke="rgba(102, 102, 102,1)" stroke-width="1" fill-opacity="1" fill="#99ffce"></path><path id="SvgjsPath1060" d="M149.93495 0L224.93239999999997 0L224.93239999999997 30 L149.93495 30Z" stroke="rgba(102, 102, 102,1)" stroke-width="1" fill-opacity="1" fill="#99ffce"></path><path id="SvgjsPath1061" d="M224.93239999999997 0L299.98979999999995 0L299.98979999999995 30 L224.93239999999997 30Z" stroke="rgba(102, 102, 102,1)" stroke-width="1" fill-opacity="1" fill="#99ffce"></path><path id="SvgjsPath1062" d="M299.92985 0L374.92729999999995 0L374.92729999999995 30 L299.92985 30Z" stroke="rgba(102, 102, 102,1)" stroke-width="1" fill-opacity="1" fill="#99ffce"></path><path id="SvgjsPath1063" d="M374.92729999999995 0L449.86479999999995 0L449.86479999999995 30 L374.92729999999995 30Z" stroke="rgba(102, 102, 102,1)" stroke-width="1" fill-opacity="1" fill="#99ffce"></path><path id="SvgjsPath1064" d="M449.86479999999995 0L524.6823999999999 0L524.6823999999999 30 L449.86479999999995 30Z" stroke="rgba(102, 102, 102,1)" stroke-width="1" fill-opacity="1" fill="#99ffce"></path><path id="SvgjsPath1065" d="M524.6824 0L599.5 0L599.5 30 L524.6824 30Z" stroke="rgba(102, 102, 102,1)" stroke-width="1" fill-opacity="1" fill="#99ffce"></path><g id="SvgjsG1066"><text id="SvgjsText1067" font-family="&quot;Comic Sans MS&quot;" text-anchor="middle" font-size="16px" width="75px" fill="#323232" font-weight="700" align="middle" lineHeight="125%" anchor="middle" family="&quot;Comic Sans MS&quot;" size="16px" weight="700" font-style="" opacity="1" y="1" transform="rotate(0)"><tspan id="SvgjsTspan1068" dy="20" x="37.5"><tspan id="SvgjsTspan1069" style="">zlbytes</tspan></tspan></text></g><g id="SvgjsG1070"><text id="SvgjsText1071" font-family="&quot;Comic Sans MS&quot;" text-anchor="middle" font-size="16px" width="75px" fill="#323232" font-weight="700" align="middle" lineHeight="125%" anchor="middle" family="&quot;Comic Sans MS&quot;" size="16px" weight="700" font-style="" opacity="1" y="1" transform="rotate(0)"><tspan id="SvgjsTspan1072" dy="20" x="112.49744999999999"><tspan id="SvgjsTspan1073" style="">zltail</tspan></tspan></text></g><g id="SvgjsG1074"><text id="SvgjsText1075" font-family="&quot;Comic Sans MS&quot;" text-anchor="middle" font-size="16px" width="75px" fill="#323232" font-weight="700" align="middle" lineHeight="125%" anchor="middle" family="&quot;Comic Sans MS&quot;" size="16px" weight="700" font-style="" opacity="1" y="1" transform="rotate(0)"><tspan id="SvgjsTspan1076" dy="20" x="187.43495"><tspan id="SvgjsTspan1077" style="">zllen</tspan></tspan></text></g><g id="SvgjsG1078"><text id="SvgjsText1079" font-family="&quot;Comic Sans MS&quot;" text-anchor="middle" font-size="16px" width="76px" fill="#323232" font-weight="700" align="middle" lineHeight="125%" anchor="middle" family="&quot;Comic Sans MS&quot;" size="16px" weight="700" font-style="" opacity="1" y="1" transform="rotate(0)"><tspan id="SvgjsTspan1080" dy="20" x="262.9324"><tspan id="SvgjsTspan1081" style="">entry1</tspan></tspan></text></g><g id="SvgjsG1082"><text id="SvgjsText1083" font-family="&quot;Comic Sans MS&quot;" text-anchor="middle" font-size="16px" width="75px" fill="#323232" font-weight="700" align="middle" lineHeight="125%" anchor="middle" family="&quot;Comic Sans MS&quot;" size="16px" weight="700" font-style="" opacity="1" y="1" transform="rotate(0)"><tspan id="SvgjsTspan1084" dy="20" x="337.42985"><tspan id="SvgjsTspan1085" style="">entry2</tspan></tspan></text></g><g id="SvgjsG1086"><text id="SvgjsText1087" font-family="&quot;Comic Sans MS&quot;" text-anchor="middle" font-size="16px" width="75px" fill="#323232" font-weight="700" align="middle" lineHeight="125%" anchor="middle" family="&quot;Comic Sans MS&quot;" size="16px" weight="700" font-style="" opacity="1" y="1" transform="rotate(0)"><tspan id="SvgjsTspan1088" dy="20" x="412.42729999999995"><tspan id="SvgjsTspan1089" style="">...</tspan></tspan></text></g><g id="SvgjsG1090"><text id="SvgjsText1091" font-family="&quot;Comic Sans MS&quot;" text-anchor="middle" font-size="16px" width="75px" fill="#323232" font-weight="700" align="middle" lineHeight="125%" anchor="middle" family="&quot;Comic Sans MS&quot;" size="16px" weight="700" font-style="" opacity="1" y="1" transform="rotate(0)"><tspan id="SvgjsTspan1092" dy="20" x="487.36479999999995"><tspan id="SvgjsTspan1093" style="">entryN</tspan></tspan></text></g><g id="SvgjsG1094"><text id="SvgjsText1095" font-family="&quot;Comic Sans MS&quot;" text-anchor="middle" font-size="16px" width="75px" fill="#323232" font-weight="700" align="middle" lineHeight="125%" anchor="middle" family="&quot;Comic Sans MS&quot;" size="16px" weight="700" font-style="" opacity="1" y="1" transform="rotate(0)"><tspan id="SvgjsTspan1096" dy="20" x="562.1824"><tspan id="SvgjsTspan1097" style="">zlend</tspan></tspan></text></g></g><g id="SvgjsG1098" transform="translate(27.476000000000006,310)"><path id="SvgjsPath1099" d="M 0 0L 100 0L 100 40L 0 40Z" stroke="none" fill="none"></path><g id="SvgjsG1100"><text id="SvgjsText1101" font-family="&quot;Comic Sans MS&quot;" text-anchor="middle" font-size="13px" width="100px" fill="#323232" font-weight="700" align="middle" lineHeight="125%" anchor="middle" family="&quot;Comic Sans MS&quot;" size="13px" weight="700" font-style="" opacity="1" y="9.375" transform="rotate(0)"><tspan id="SvgjsTspan1102" dy="16.25" x="50"><tspan id="SvgjsTspan1103" style="">ziplist</tspan></tspan></text></g></g><g id="SvgjsG1104" transform="translate(270.976,145)"><path id="SvgjsPath1105" d="M 0 4Q 0 0 4 0L 173 0Q 177 0 177 4L 177 46Q 177 50 173 50L 4 50Q 0 50 0 46Z" stroke="rgba(33,41,48,1)" stroke-width="1.5" fill-opacity="1" fill="#cdff9a"></path><g id="SvgjsG1106"><text id="SvgjsText1107" font-family="&quot;Comic Sans MS&quot;" text-anchor="middle" font-size="13px" width="157px" fill="#323232" font-weight="700" align="middle" lineHeight="125%" anchor="middle" family="&quot;Comic Sans MS&quot;" size="13px" weight="700" font-style="" opacity="1" y="14.375" transform="rotate(0)"><tspan id="SvgjsTspan1108" dy="16.25" x="88.5"><tspan id="SvgjsTspan1109" style="">quicklist node</tspan></tspan></text></g></g><g id="SvgjsG1110" transform="translate(270.976,195)"><path id="SvgjsPath1111" d="M 0 4Q 0 0 4 0L 55 0Q 59 0 59 4L 59 46Q 59 50 55 50L 4 50Q 0 50 0 46Z" stroke="rgba(33,41,48,1)" stroke-width="1.5" fill-opacity="1" fill="#fcff99"></path><g id="SvgjsG1112"><text id="SvgjsText1113" font-family="&quot;Comic Sans MS&quot;" text-anchor="middle" font-size="13px" width="39px" fill="#323232" font-weight="700" align="middle" lineHeight="125%" anchor="middle" family="&quot;Comic Sans MS&quot;" size="13px" weight="700" font-style="" opacity="1" y="14.375" transform="rotate(0)"><tspan id="SvgjsTspan1114" dy="16.25" x="29.5"><tspan id="SvgjsTspan1115" style="">prev</tspan></tspan></text></g></g><g id="SvgjsG1116" transform="translate(329.976,195)"><path id="SvgjsPath1117" d="M 0 4Q 0 0 4 0L 55 0Q 59 0 59 4L 59 46Q 59 50 55 50L 4 50Q 0 50 0 46Z" stroke="rgba(33,41,48,1)" stroke-width="1.5" fill-opacity="1" fill="#f06666"></path><g id="SvgjsG1118"><text id="SvgjsText1119" font-family="&quot;Comic Sans MS&quot;" text-anchor="middle" font-size="13px" width="39px" fill="#323232" font-weight="700" align="middle" lineHeight="125%" anchor="middle" family="&quot;Comic Sans MS&quot;" size="13px" weight="700" font-style="" opacity="1" y="14.375" transform="rotate(0)"><tspan id="SvgjsTspan1120" dy="16.25" x="29.5"><tspan id="SvgjsTspan1121" style="">ziplist</tspan></tspan></text></g></g><g id="SvgjsG1122" transform="translate(388.976,195)"><path id="SvgjsPath1123" d="M 0 4Q 0 0 4 0L 55 0Q 59 0 59 4L 59 46Q 59 50 55 50L 4 50Q 0 50 0 46Z" stroke="rgba(33,41,48,1)" stroke-width="1.5" fill-opacity="1" fill="#fcff99"></path><g id="SvgjsG1124"><text id="SvgjsText1125" font-family="&quot;Comic Sans MS&quot;" text-anchor="middle" font-size="13px" width="39px" fill="#323232" font-weight="700" align="middle" lineHeight="125%" anchor="middle" family="&quot;Comic Sans MS&quot;" size="13px" weight="700" font-style="" opacity="1" y="14.375" transform="rotate(0)"><tspan id="SvgjsTspan1126" dy="16.25" x="29.5"><tspan id="SvgjsTspan1127" style="">next</tspan></tspan></text></g></g><g id="SvgjsG1128" transform="translate(500.476,145)"><path id="SvgjsPath1129" d="M 0 4Q 0 0 4 0L 173 0Q 177 0 177 4L 177 46Q 177 50 173 50L 4 50Q 0 50 0 46Z" stroke="rgba(33,41,48,1)" stroke-width="1.5" fill-opacity="1" fill="#cdff9a"></path><g id="SvgjsG1130"><text id="SvgjsText1131" font-family="&quot;Comic Sans MS&quot;" text-anchor="middle" font-size="13px" width="157px" fill="#323232" font-weight="700" align="middle" lineHeight="125%" anchor="middle" family="&quot;Comic Sans MS&quot;" size="13px" weight="700" font-style="" opacity="1" y="14.375" transform="rotate(0)"><tspan id="SvgjsTspan1132" dy="16.25" x="88.5"><tspan id="SvgjsTspan1133" style="">quicklist node</tspan></tspan></text></g></g><g id="SvgjsG1134" transform="translate(500.476,195)"><path id="SvgjsPath1135" d="M 0 4Q 0 0 4 0L 55 0Q 59 0 59 4L 59 46Q 59 50 55 50L 4 50Q 0 50 0 46Z" stroke="rgba(33,41,48,1)" stroke-width="1.5" fill-opacity="1" fill="#fcff99"></path><g id="SvgjsG1136"><text id="SvgjsText1137" font-family="&quot;Comic Sans MS&quot;" text-anchor="middle" font-size="13px" width="39px" fill="#323232" font-weight="700" align="middle" lineHeight="125%" anchor="middle" family="&quot;Comic Sans MS&quot;" size="13px" weight="700" font-style="" opacity="1" y="14.375" transform="rotate(0)"><tspan id="SvgjsTspan1138" dy="16.25" x="29.5"><tspan id="SvgjsTspan1139" style="">prev</tspan></tspan></text></g></g><g id="SvgjsG1140" transform="translate(559.476,195)"><path id="SvgjsPath1141" d="M 0 4Q 0 0 4 0L 55 0Q 59 0 59 4L 59 46Q 59 50 55 50L 4 50Q 0 50 0 46Z" stroke="rgba(33,41,48,1)" stroke-width="1.5" fill-opacity="1" fill="#f06666"></path><g id="SvgjsG1142"><text id="SvgjsText1143" font-family="&quot;Comic Sans MS&quot;" text-anchor="middle" font-size="13px" width="39px" fill="#323232" font-weight="700" align="middle" lineHeight="125%" anchor="middle" family="&quot;Comic Sans MS&quot;" size="13px" weight="700" font-style="" opacity="1" y="14.375" transform="rotate(0)"><tspan id="SvgjsTspan1144" dy="16.25" x="29.5"><tspan id="SvgjsTspan1145" style="">ziplist</tspan></tspan></text></g></g><g id="SvgjsG1146" transform="translate(618.476,195)"><path id="SvgjsPath1147" d="M 0 4Q 0 0 4 0L 55 0Q 59 0 59 4L 59 46Q 59 50 55 50L 4 50Q 0 50 0 46Z" stroke="rgba(33,41,48,1)" stroke-width="1.5" fill-opacity="1" fill="#fcff99"></path><g id="SvgjsG1148"><text id="SvgjsText1149" font-family="&quot;Comic Sans MS&quot;" text-anchor="middle" font-size="13px" width="39px" fill="#323232" font-weight="700" align="middle" lineHeight="125%" anchor="middle" family="&quot;Comic Sans MS&quot;" size="13px" weight="700" font-style="" opacity="1" y="14.375" transform="rotate(0)"><tspan id="SvgjsTspan1150" dy="16.25" x="29.5"><tspan id="SvgjsTspan1151" style="">next</tspan></tspan></text></g></g><g id="SvgjsG1152"><path id="SvgjsPath1153" d="M233.72725328691502 50.04334004665952C 177.98493876018966 50 129.97600000000003 88.50893876018966 130.17137953666864 142.3070783827502" stroke="#323232" stroke-width="1.5" fill="none" marker-end="url(#SvgjsMarker1154)"></path></g><g id="SvgjsG1156"><path id="SvgjsPath1157" d="M485.224746713085 50.04334004665952C 540.9670612398103 49.99999999999994 588.976 88.50893876018966 588.7806204633314 142.3070783827502" stroke="#323232" stroke-width="1.5" fill="none" marker-end="url(#SvgjsMarker1158)"></path></g><g id="SvgjsG1160"><path id="SvgjsPath1161" d="M129.79801575671414 245.7285750538839C 134.476 283 -34.523999999999994 324 45.12233386343656 356.6770276958324" stroke="#323232" stroke-width="1.5" fill="none" marker-end="url(#SvgjsMarker1162)"></path></g><g id="SvgjsG1164"><path id="SvgjsPath1165" d="M221.176 220C 239.476 220 249.976 220 268.276 220" stroke="#323232" stroke-width="1.5" fill="none" marker-start="url(#SvgjsMarker1166)" marker-end="url(#SvgjsMarker1168)"></path></g><g id="SvgjsG1170"><path id="SvgjsPath1171" d="M450.676 220C 468.976 220 479.476 220 497.776 220" stroke="#323232" stroke-width="1.5" fill="none" marker-start="url(#SvgjsMarker1172)" marker-end="url(#SvgjsMarker1174)"></path></g></svg>