<svg id="SvgjsSvg1006" width="689" height="312" xmlns="http://www.w3.org/2000/svg" version="1.1" xmlns:xlink="http://www.w3.org/1999/xlink" xmlns:svgjs="http://svgjs.com/svgjs"><defs id="SvgjsDefs1007"><pattern patternUnits="userSpaceOnUse" id="pattern_mark_0" width="300" height="300"><text x="150" y="100" fill="rgba(229,229,229,0.8)" font-size="18" transform="rotate(-45, 150, 150)" style="dominant-baseline: middle; text-anchor: middle;"></text></pattern><pattern patternUnits="userSpaceOnUse" id="pattern_mark_1" width="300" height="300"><text x="150" y="200" fill="rgba(229,229,229,0.8)" font-size="18" transform="rotate(-45, 150, 150)" style="dominant-baseline: middle; text-anchor: middle;"></text></pattern></defs><rect id="svgbackgroundid" width="689" height="312" fill="transparent"></rect><rect id="SvgjsRect1009" width="689" height="312" fill="url(#pattern_mark_0)"></rect><rect id="SvgjsRect1010" width="689" height="312" fill="url(#pattern_mark_1)"></rect><g id="SvgjsG1011" transform="translate(25,25)"><path id="SvgjsPath1012" d="M 0 4Q 0 0 4 0L 635 0Q 639 0 639 4L 639 221Q 639 225 635 225L 4 225Q 0 225 0 221Z" stroke="rgba(33,41,48,1)" stroke-width="1.5" fill-opacity="1" fill="#f0f0f0"></path><g id="SvgjsG1013"><text id="SvgjsText1014" font-family="思源黑体" text-anchor="middle" font-size="13px" width="619px" fill="#323232" font-weight="700" align="top" lineHeight="125%" anchor="middle" family="思源黑体" size="13px" weight="700" font-style="" opacity="1" y="-2.625" transform="rotate(0)"><tspan id="SvgjsTspan1015" dy="16.25" x="319.5"><tspan id="SvgjsTspan1016" style="">JVM运行时内存结构</tspan></tspan></text></g></g><g id="SvgjsG1017" transform="translate(44.5,57)"><path id="SvgjsPath1018" d="M 0 4Q 0 0 4 0L 136 0Q 140 0 140 4L 140 46Q 140 50 136 50L 4 50Q 0 50 0 46Z" stroke="none" fill-opacity="1" fill="#e34999"></path><g id="SvgjsG1019"><text id="SvgjsText1020" font-family="思源黑体" text-anchor="middle" font-size="13px" width="120px" fill="#ffffff" font-weight="700" align="middle" lineHeight="125%" anchor="middle" family="思源黑体" size="13px" weight="700" font-style="" opacity="1" y="5.875" transform="rotate(0)"><tspan id="SvgjsTspan1021" dy="16.25" x="70"><tspan id="SvgjsTspan1022" style="">PC寄存器</tspan></tspan><tspan id="SvgjsTspan1023" dy="16.25" x="70"><tspan id="SvgjsTspan1024" style="">(The PC Register)</tspan></tspan></text></g></g><g id="SvgjsG1025" transform="translate(224.5,57)"><path id="SvgjsPath1026" d="M 0 4Q 0 0 4 0L 206 0Q 210 0 210 4L 210 46Q 210 50 206 50L 4 50Q 0 50 0 46Z" stroke="none" fill-opacity="1" fill="#e34999"></path><g id="SvgjsG1027"><text id="SvgjsText1028" font-family="思源黑体" text-anchor="middle" font-size="13px" width="190px" fill="#ffffff" font-weight="700" align="middle" lineHeight="125%" anchor="middle" family="思源黑体" size="13px" weight="700" font-style="" opacity="1" y="5.875" transform="rotate(0)"><tspan id="SvgjsTspan1029" dy="16.25" x="105"><tspan id="SvgjsTspan1030" style="">Java虚拟机栈</tspan></tspan><tspan id="SvgjsTspan1031" dy="16.25" x="105"><tspan id="SvgjsTspan1032" style="">(Java Virtual Machine Stacks)</tspan></tspan></text></g></g><g id="SvgjsG1033" transform="translate(474.5,57)"><path id="SvgjsPath1034" d="M 0 4Q 0 0 4 0L 166 0Q 170 0 170 4L 170 46Q 170 50 166 50L 4 50Q 0 50 0 46Z" stroke="none" fill-opacity="1" fill="#e34999"></path><g id="SvgjsG1035"><text id="SvgjsText1036" font-family="思源黑体" text-anchor="middle" font-size="13px" width="150px" fill="#ffffff" font-weight="700" align="middle" lineHeight="125%" anchor="middle" family="思源黑体" size="13px" weight="700" font-style="" opacity="1" y="5.875" transform="rotate(0)"><tspan id="SvgjsTspan1037" dy="16.25" x="85"><tspan id="SvgjsTspan1038" style="">本地方法栈</tspan></tspan><tspan id="SvgjsTspan1039" dy="16.25" x="85"><tspan id="SvgjsTspan1040" style="">(Native Method Stacks)</tspan></tspan></text></g></g><g id="SvgjsG1041" transform="translate(44.5,127)"><path id="SvgjsPath1042" d="M 0 4Q 0 0 4 0L 276 0Q 280 0 280 4L 280 106Q 280 110 276 110L 4 110Q 0 110 0 106Z" stroke="none" fill-opacity="1" fill="#4792d8"></path><g id="SvgjsG1043"><text id="SvgjsText1044" font-family="思源黑体" text-anchor="middle" font-size="13px" width="260px" fill="#ffffff" font-weight="700" align="middle" lineHeight="125%" anchor="middle" family="思源黑体" size="13px" weight="700" font-style="" opacity="1" y="35.875" transform="rotate(0)"><tspan id="SvgjsTspan1045" dy="16.25" x="140"><tspan id="SvgjsTspan1046" style="">Java堆</tspan></tspan><tspan id="SvgjsTspan1047" dy="16.25" x="140"><tspan id="SvgjsTspan1048" style="">(Heap)</tspan></tspan></text></g></g><g id="SvgjsG1049" transform="translate(364.5,127)"><path id="SvgjsPath1050" d="M 0 4Q 0 0 4 0L 276 0Q 280 0 280 4L 280 106Q 280 110 276 110L 4 110Q 0 110 0 106Z" stroke="none" fill-opacity="1" fill="#4792d8"></path><g id="SvgjsG1051"><text id="SvgjsText1052" font-family="思源黑体" text-anchor="middle" font-size="13px" width="260px" fill="#ffffff" font-weight="700" align="top" lineHeight="125%" anchor="middle" family="思源黑体" size="13px" weight="700" font-style="" opacity="1" y="-2.625" transform="rotate(0)"><tspan id="SvgjsTspan1053" dy="16.25" x="140"><tspan id="SvgjsTspan1054" style="">方法区</tspan></tspan><tspan id="SvgjsTspan1055" dy="16.25" x="140"><tspan id="SvgjsTspan1056" style="">(Method Area)</tspan></tspan></text></g></g><g id="SvgjsG1057" transform="translate(404.5,159)"><path id="SvgjsPath1058" d="M 0 4Q 0 0 4 0L 196 0Q 200 0 200 4L 200 66Q 200 70 196 70L 4 70Q 0 70 0 66Z" stroke="none" fill-opacity="1" fill="#86ea6f"></path><g id="SvgjsG1059"><text id="SvgjsText1060" font-family="思源黑体" text-anchor="middle" font-size="13px" width="180px" fill="#000000" font-weight="700" align="middle" lineHeight="125%" anchor="middle" family="思源黑体" size="13px" weight="700" font-style="" opacity="1" y="15.875" transform="rotate(0)"><tspan id="SvgjsTspan1061" dy="16.25" x="100"><tspan id="SvgjsTspan1062" style="">运行时常量池</tspan></tspan><tspan id="SvgjsTspan1063" dy="16.25" x="100"><tspan id="SvgjsTspan1064" style="">(Run-Time Constant Pool)</tspan></tspan></text></g></g><g id="SvgjsG1065" transform="translate(25,257)"><path id="SvgjsPath1066" d="M 0 4Q 0 0 4 0L 196.49999999999994 0Q 200.49999999999994 0 200.49999999999994 4L 200.49999999999994 25.999999999999943Q 200.49999999999994 29.999999999999943 196.49999999999994 29.999999999999943L 4 29.999999999999943Q 0 29.999999999999943 0 25.999999999999943Z" stroke="none" fill-opacity="1" fill="#4792d8"></path><g id="SvgjsG1067"><text id="SvgjsText1068" font-family="思源黑体" text-anchor="middle" font-size="13px" width="181px" fill="#ffffff" font-weight="700" align="middle" lineHeight="125%" anchor="middle" family="思源黑体" size="13px" weight="700" font-style="" opacity="1" y="4.374999999999972" transform="rotate(0)"><tspan id="SvgjsTspan1069" dy="16.25" x="100.5"><tspan id="SvgjsTspan1070" style="">所有线程共享的数据区域</tspan></tspan></text></g></g><g id="SvgjsG1071" transform="translate(244.50000000000006,257)"><path id="SvgjsPath1072" d="M 0 4Q 0 0 4 0L 196 0Q 200 0 200 4L 200 26Q 200 30 196 30L 4 30Q 0 30 0 26Z" stroke="none" fill-opacity="1" fill="#e34999"></path><g id="SvgjsG1073"><text id="SvgjsText1074" font-family="思源黑体" text-anchor="middle" font-size="13px" width="180px" fill="#ffffff" font-weight="700" align="middle" lineHeight="125%" anchor="middle" family="思源黑体" size="13px" weight="700" font-style="" opacity="1" y="4.375" transform="rotate(0)"><tspan id="SvgjsTspan1075" dy="16.25" x="100"><tspan id="SvgjsTspan1076" style="">各个线程独享的数据区域</tspan></tspan></text></g></g><g id="SvgjsG1077" transform="translate(464,257)"><path id="SvgjsPath1078" d="M 0 4Q 0 0 4 0L 196 0Q 200 0 200 4L 200 26Q 200 30 196 30L 4 30Q 0 30 0 26Z" stroke="none" fill-opacity="1" fill="#86ea6f"></path><g id="SvgjsG1079"><text id="SvgjsText1080" font-family="思源黑体" text-anchor="middle" font-size="13px" width="180px" fill="#000000" font-weight="700" align="middle" lineHeight="125%" anchor="middle" family="思源黑体" size="13px" weight="700" font-style="" opacity="1" y="4.375" transform="rotate(0)"><tspan id="SvgjsTspan1081" dy="16.25" x="100"><tspan id="SvgjsTspan1082" style="">运行时常量</tspan></tspan></text></g></g><g id="SvgjsG1083"></g></svg>