<svg id="SvgjsSvg1006" width="1156" height="292.56410256410254" xmlns="http://www.w3.org/2000/svg" version="1.1" xmlns:xlink="http://www.w3.org/1999/xlink" xmlns:svgjs="http://svgjs.com/svgjs"><defs id="SvgjsDefs1007"><pattern patternUnits="userSpaceOnUse" id="pattern_mark_0" width="300" height="300"><text x="150" y="100" fill="rgba(229,229,229,0.8)" font-size="18" transform="rotate(-45, 150, 150)" style="dominant-baseline: middle; text-anchor: middle;"></text></pattern><pattern patternUnits="userSpaceOnUse" id="pattern_mark_1" width="300" height="300"><text x="150" y="200" fill="rgba(229,229,229,0.8)" font-size="18" transform="rotate(-45, 150, 150)" style="dominant-baseline: middle; text-anchor: middle;"></text></pattern><linearGradient id="SvgjsLinearGradient1071" x1="0.5" y1="0" x2="0.5" y2="1"><stop id="SvgjsStop1072" stop-opacity="1" stop-color="#d3d3d3" offset="0"></stop><stop id="SvgjsStop1073" stop-opacity="1" stop-color="#979797" offset="1"></stop></linearGradient><linearGradient id="SvgjsLinearGradient1082" x1="0.5" y1="0" x2="0.5" y2="1"><stop id="SvgjsStop1083" stop-opacity="1" stop-color="#d3d3d3" offset="0"></stop><stop id="SvgjsStop1084" stop-opacity="1" stop-color="#979797" offset="1"></stop></linearGradient><linearGradient id="SvgjsLinearGradient1089" x1="0.5" y1="0" x2="0.5" y2="1"><stop id="SvgjsStop1090" stop-opacity="1" stop-color="#d3d3d3" offset="0"></stop><stop id="SvgjsStop1091" stop-opacity="1" stop-color="#979797" offset="1"></stop></linearGradient><linearGradient id="SvgjsLinearGradient1104" x1="0.5" y1="0" x2="0.5" y2="1"><stop id="SvgjsStop1105" stop-opacity="1" stop-color="#d3d3d3" offset="0"></stop><stop id="SvgjsStop1106" stop-opacity="1" stop-color="#979797" offset="1"></stop></linearGradient><linearGradient id="SvgjsLinearGradient1115" x1="0.5" y1="0" x2="0.5" y2="1"><stop id="SvgjsStop1116" stop-opacity="1" stop-color="#d3d3d3" offset="0"></stop><stop id="SvgjsStop1117" stop-opacity="1" stop-color="#979797" offset="1"></stop></linearGradient></defs><rect id="svgbackgroundid" width="1156" height="292.56410256410254" fill="transparent"></rect><rect id="SvgjsRect1009" width="1156" height="292.56410256410254" fill="url(#pattern_mark_0)"></rect><rect id="SvgjsRect1010" width="1156" height="292.56410256410254" fill="url(#pattern_mark_1)"></rect><g id="SvgjsG1011" transform="translate(58.48717948717949,59.923076923076906)"><path id="SvgjsPath1012" d="M 0 0L 1035.8974358974358 0L 1035.8974358974358 83.79487179487182L 0 83.79487179487182Z" stroke="rgba(33,41,48,1)" stroke-width="1.5" fill-opacity="1" fill="#b0b0b0"></path><g id="SvgjsG1013"><text id="SvgjsText1014" font-family="&quot;Microsoft YaHei&quot;, 微软雅黑, Arial" text-anchor="middle" font-size="13px" width="1016px" fill="#323232" font-weight="400" align="middle" lineHeight="125%" anchor="middle" family="&quot;Microsoft YaHei&quot;, 微软雅黑, Arial" size="13px" weight="400" font-style="" opacity="1" y="31.272435897435912" transform="rotate(0)"></text></g></g><g id="SvgjsG1015" transform="translate(78,71.82051282051282)"><path id="SvgjsPath1016" d="M 0 4Q 0 0 4 0L 116 0Q 120 0 120 4L 120 56Q 120 60 116 60L 4 60Q 0 60 0 56Z" stroke="rgba(33,41,48,1)" stroke-width="1.5" fill-opacity="1" fill="#ffffff"></path><g id="SvgjsG1017"><text id="SvgjsText1018" font-family="&quot;Microsoft YaHei&quot;, 微软雅黑, Arial" text-anchor="middle" font-size="30px" width="100px" fill="#323232" font-weight="400" align="middle" lineHeight="125%" anchor="middle" family="&quot;Microsoft YaHei&quot;, 微软雅黑, Arial" size="30px" weight="400" font-style="" opacity="1" y="4.25" transform="rotate(0)"><tspan id="SvgjsTspan1019" dy="37.5" x="60"><tspan id="SvgjsTspan1020" style="">✖️</tspan></tspan></text></g></g><g id="SvgjsG1021" transform="translate(208,71.82051282051282)"><path id="SvgjsPath1022" d="M 0 4Q 0 0 4 0L 116 0Q 120 0 120 4L 120 56Q 120 60 116 60L 4 60Q 0 60 0 56Z" stroke="rgba(33,41,48,1)" stroke-width="1.5" fill-opacity="1" fill="#ffffff"></path><g id="SvgjsG1023"><text id="SvgjsText1024" font-family="&quot;Microsoft YaHei&quot;, 微软雅黑, Arial" text-anchor="middle" font-size="30px" width="100px" fill="#323232" font-weight="400" align="middle" lineHeight="125%" anchor="middle" family="&quot;Microsoft YaHei&quot;, 微软雅黑, Arial" size="30px" weight="400" font-style="" opacity="1" y="4.25" transform="rotate(0)"></text></g></g><g id="SvgjsG1025" transform="translate(338,71.82051282051282)"><path id="SvgjsPath1026" d="M 0 4Q 0 0 4 0L 46 0Q 50 0 50 4L 50 56Q 50 60 46 60L 4 60Q 0 60 0 56Z" stroke="rgba(33,41,48,1)" stroke-width="1.5" fill-opacity="1" fill="#ffffff"></path><g id="SvgjsG1027"><text id="SvgjsText1028" font-family="&quot;Microsoft YaHei&quot;, 微软雅黑, Arial" text-anchor="middle" font-size="30px" width="30px" fill="#323232" font-weight="400" align="middle" lineHeight="125%" anchor="middle" family="&quot;Microsoft YaHei&quot;, 微软雅黑, Arial" size="30px" weight="400" font-style="" opacity="1" y="4.25" transform="rotate(0)"><tspan id="SvgjsTspan1029" dy="37.5" x="25"><tspan id="SvgjsTspan1030" style="">✖️</tspan></tspan></text></g></g><g id="SvgjsG1031" transform="translate(398,71.82051282051282)"><path id="SvgjsPath1032" d="M 0 4Q 0 0 4 0L 46 0Q 50 0 50 4L 50 56Q 50 60 46 60L 4 60Q 0 60 0 56Z" stroke="rgba(33,41,48,1)" stroke-width="1.5" fill-opacity="1" fill="#ffffff"></path><g id="SvgjsG1033"><text id="SvgjsText1034" font-family="&quot;Microsoft YaHei&quot;, 微软雅黑, Arial" text-anchor="middle" font-size="30px" width="30px" fill="#323232" font-weight="400" align="middle" lineHeight="125%" anchor="middle" family="&quot;Microsoft YaHei&quot;, 微软雅黑, Arial" size="30px" weight="400" font-style="" opacity="1" y="4.25" transform="rotate(0)"><tspan id="SvgjsTspan1035" dy="37.5" x="25"><tspan id="SvgjsTspan1036" style="">✖️</tspan></tspan></text></g></g><g id="SvgjsG1037" transform="translate(458,71.82051282051282)"><path id="SvgjsPath1038" d="M 0 4Q 0 0 4 0L 46 0Q 50 0 50 4L 50 56Q 50 60 46 60L 4 60Q 0 60 0 56Z" stroke="rgba(33,41,48,1)" stroke-width="1.5" fill-opacity="1" fill="#ffffff"></path><g id="SvgjsG1039"><text id="SvgjsText1040" font-family="&quot;Microsoft YaHei&quot;, 微软雅黑, Arial" text-anchor="middle" font-size="30px" width="30px" fill="#323232" font-weight="400" align="middle" lineHeight="125%" anchor="middle" family="&quot;Microsoft YaHei&quot;, 微软雅黑, Arial" size="30px" weight="400" font-style="" opacity="1" y="4.25" transform="rotate(0)"></text></g></g><g id="SvgjsG1041" transform="translate(518,71.82051282051282)"><path id="SvgjsPath1042" d="M 0 4Q 0 0 4 0L 176 0Q 180 0 180 4L 180 56Q 180 60 176 60L 4 60Q 0 60 0 56Z" stroke="rgba(33,41,48,1)" stroke-width="1.5" fill-opacity="1" fill="#ffffff"></path><g id="SvgjsG1043"><text id="SvgjsText1044" font-family="&quot;Microsoft YaHei&quot;, 微软雅黑, Arial" text-anchor="middle" font-size="30px" width="160px" fill="#323232" font-weight="400" align="middle" lineHeight="125%" anchor="middle" family="&quot;Microsoft YaHei&quot;, 微软雅黑, Arial" size="30px" weight="400" font-style="" opacity="1" y="4.25" transform="rotate(0)"></text></g></g><g id="SvgjsG1045" transform="translate(708,71.82051282051282)"><path id="SvgjsPath1046" d="M 0 4Q 0 0 4 0L 46 0Q 50 0 50 4L 50 56Q 50 60 46 60L 4 60Q 0 60 0 56Z" stroke="rgba(33,41,48,1)" stroke-width="1.5" fill-opacity="1" fill="#ffffff"></path><g id="SvgjsG1047"><text id="SvgjsText1048" font-family="&quot;Microsoft YaHei&quot;, 微软雅黑, Arial" text-anchor="middle" font-size="30px" width="30px" fill="#323232" font-weight="400" align="middle" lineHeight="125%" anchor="middle" family="&quot;Microsoft YaHei&quot;, 微软雅黑, Arial" size="30px" weight="400" font-style="" opacity="1" y="4.25" transform="rotate(0)"><tspan id="SvgjsTspan1049" dy="37.5" x="25"><tspan id="SvgjsTspan1050" style="">✖️</tspan></tspan></text></g></g><g id="SvgjsG1051" transform="translate(828,71.82051282051282)"><path id="SvgjsPath1052" d="M 0 4Q 0 0 4 0L 116 0Q 120 0 120 4L 120 56Q 120 60 116 60L 4 60Q 0 60 0 56Z" stroke="rgba(33,41,48,1)" stroke-width="1.5" fill-opacity="1" fill="#ffffff"></path><g id="SvgjsG1053"><text id="SvgjsText1054" font-family="&quot;Microsoft YaHei&quot;, 微软雅黑, Arial" text-anchor="middle" font-size="30px" width="100px" fill="#323232" font-weight="400" align="middle" lineHeight="125%" anchor="middle" family="&quot;Microsoft YaHei&quot;, 微软雅黑, Arial" size="30px" weight="400" font-style="" opacity="1" y="4.25" transform="rotate(0)"></text></g></g><g id="SvgjsG1055" transform="translate(958,71.82051282051282)"><path id="SvgjsPath1056" d="M 0 4Q 0 0 4 0L 116 0Q 120 0 120 4L 120 56Q 120 60 116 60L 4 60Q 0 60 0 56Z" stroke="rgba(33,41,48,1)" stroke-width="1.5" fill-opacity="1" fill="#ffffff"></path><g id="SvgjsG1057"><text id="SvgjsText1058" font-family="&quot;Microsoft YaHei&quot;, 微软雅黑, Arial" text-anchor="middle" font-size="30px" width="100px" fill="#323232" font-weight="400" align="middle" lineHeight="125%" anchor="middle" family="&quot;Microsoft YaHei&quot;, 微软雅黑, Arial" size="30px" weight="400" font-style="" opacity="1" y="4.25" transform="rotate(0)"><tspan id="SvgjsTspan1059" dy="37.5" x="60"><tspan id="SvgjsTspan1060" style="">✖️</tspan></tspan></text></g></g><g id="SvgjsG1061" transform="translate(768,71.82051282051282)"><path id="SvgjsPath1062" d="M 0 4Q 0 0 4 0L 46 0Q 50 0 50 4L 50 56Q 50 60 46 60L 4 60Q 0 60 0 56Z" stroke="rgba(33,41,48,1)" stroke-width="1.5" fill-opacity="1" fill="#ffffff"></path><g id="SvgjsG1063"><text id="SvgjsText1064" font-family="&quot;Microsoft YaHei&quot;, 微软雅黑, Arial" text-anchor="middle" font-size="30px" width="30px" fill="#323232" font-weight="400" align="middle" lineHeight="125%" anchor="middle" family="&quot;Microsoft YaHei&quot;, 微软雅黑, Arial" size="30px" weight="400" font-style="" opacity="1" y="4.25" transform="rotate(0)"></text></g></g><g id="SvgjsG1065" transform="translate(58.48717948717949,183.76923076923072)"><path id="SvgjsPath1066" d="M 0 0L 1035.8974358974358 0L 1035.8974358974358 83.79487179487182L 0 83.79487179487182Z" stroke="rgba(33,41,48,1)" stroke-width="1.5" fill-opacity="1" fill="#b0b0b0"></path><g id="SvgjsG1067"><text id="SvgjsText1068" font-family="&quot;Microsoft YaHei&quot;, 微软雅黑, Arial" text-anchor="middle" font-size="13px" width="1016px" fill="#323232" font-weight="400" align="middle" lineHeight="125%" anchor="middle" family="&quot;Microsoft YaHei&quot;, 微软雅黑, Arial" size="13px" weight="400" font-style="" opacity="1" y="31.272435897435912" transform="rotate(0)"></text></g></g><g id="SvgjsG1069" transform="translate(78,195.66666666666663)"><path id="SvgjsPath1070" d="M 0 4Q 0 0 4 0L 116 0Q 120 0 120 4L 120 56Q 120 60 116 60L 4 60Q 0 60 0 56Z" stroke="rgba(33,41,48,1)" stroke-width="1.5" fill="url(#SvgjsLinearGradient1071)"></path><g id="SvgjsG1074"><text id="SvgjsText1075" font-family="&quot;Microsoft YaHei&quot;, 微软雅黑, Arial" text-anchor="middle" font-size="30px" width="100px" fill="#323232" font-weight="400" align="middle" lineHeight="125%" anchor="middle" family="&quot;Microsoft YaHei&quot;, 微软雅黑, Arial" size="30px" weight="400" font-style="" opacity="1" y="4.25" transform="rotate(0)"></text></g></g><g id="SvgjsG1076" transform="translate(208,195.66666666666663)"><path id="SvgjsPath1077" d="M 0 4Q 0 0 4 0L 116 0Q 120 0 120 4L 120 56Q 120 60 116 60L 4 60Q 0 60 0 56Z" stroke="rgba(33,41,48,1)" stroke-width="1.5" fill-opacity="1" fill="#ffffff"></path><g id="SvgjsG1078"><text id="SvgjsText1079" font-family="&quot;Microsoft YaHei&quot;, 微软雅黑, Arial" text-anchor="middle" font-size="30px" width="100px" fill="#323232" font-weight="400" align="middle" lineHeight="125%" anchor="middle" family="&quot;Microsoft YaHei&quot;, 微软雅黑, Arial" size="30px" weight="400" font-style="" opacity="1" y="4.25" transform="rotate(0)"></text></g></g><g id="SvgjsG1080" transform="translate(338,195.66666666666663)"><path id="SvgjsPath1081" d="M 0 4Q 0 0 4 0L 46 0Q 50 0 50 4L 50 56Q 50 60 46 60L 4 60Q 0 60 0 56Z" stroke="rgba(33,41,48,1)" stroke-width="1.5" fill="url(#SvgjsLinearGradient1082)"></path><g id="SvgjsG1085"><text id="SvgjsText1086" font-family="&quot;Microsoft YaHei&quot;, 微软雅黑, Arial" text-anchor="middle" font-size="30px" width="30px" fill="#323232" font-weight="400" align="middle" lineHeight="125%" anchor="middle" family="&quot;Microsoft YaHei&quot;, 微软雅黑, Arial" size="30px" weight="400" font-style="" opacity="1" y="4.25" transform="rotate(0)"></text></g></g><g id="SvgjsG1087" transform="translate(398,195.66666666666663)"><path id="SvgjsPath1088" d="M 0 4Q 0 0 4 0L 46 0Q 50 0 50 4L 50 56Q 50 60 46 60L 4 60Q 0 60 0 56Z" stroke="rgba(33,41,48,1)" stroke-width="1.5" fill="url(#SvgjsLinearGradient1089)"></path><g id="SvgjsG1092"><text id="SvgjsText1093" font-family="&quot;Microsoft YaHei&quot;, 微软雅黑, Arial" text-anchor="middle" font-size="30px" width="30px" fill="#323232" font-weight="400" align="middle" lineHeight="125%" anchor="middle" family="&quot;Microsoft YaHei&quot;, 微软雅黑, Arial" size="30px" weight="400" font-style="" opacity="1" y="4.25" transform="rotate(0)"></text></g></g><g id="SvgjsG1094" transform="translate(458,195.66666666666663)"><path id="SvgjsPath1095" d="M 0 4Q 0 0 4 0L 46 0Q 50 0 50 4L 50 56Q 50 60 46 60L 4 60Q 0 60 0 56Z" stroke="rgba(33,41,48,1)" stroke-width="1.5" fill-opacity="1" fill="#ffffff"></path><g id="SvgjsG1096"><text id="SvgjsText1097" font-family="&quot;Microsoft YaHei&quot;, 微软雅黑, Arial" text-anchor="middle" font-size="30px" width="30px" fill="#323232" font-weight="400" align="middle" lineHeight="125%" anchor="middle" family="&quot;Microsoft YaHei&quot;, 微软雅黑, Arial" size="30px" weight="400" font-style="" opacity="1" y="4.25" transform="rotate(0)"></text></g></g><g id="SvgjsG1098" transform="translate(518,195.66666666666663)"><path id="SvgjsPath1099" d="M 0 4Q 0 0 4 0L 176 0Q 180 0 180 4L 180 56Q 180 60 176 60L 4 60Q 0 60 0 56Z" stroke="rgba(33,41,48,1)" stroke-width="1.5" fill-opacity="1" fill="#ffffff"></path><g id="SvgjsG1100"><text id="SvgjsText1101" font-family="&quot;Microsoft YaHei&quot;, 微软雅黑, Arial" text-anchor="middle" font-size="30px" width="160px" fill="#323232" font-weight="400" align="middle" lineHeight="125%" anchor="middle" family="&quot;Microsoft YaHei&quot;, 微软雅黑, Arial" size="30px" weight="400" font-style="" opacity="1" y="4.25" transform="rotate(0)"></text></g></g><g id="SvgjsG1102" transform="translate(708,195.66666666666663)"><path id="SvgjsPath1103" d="M 0 4Q 0 0 4 0L 46 0Q 50 0 50 4L 50 56Q 50 60 46 60L 4 60Q 0 60 0 56Z" stroke="rgba(33,41,48,1)" stroke-width="1.5" fill="url(#SvgjsLinearGradient1104)"></path><g id="SvgjsG1107"><text id="SvgjsText1108" font-family="&quot;Microsoft YaHei&quot;, 微软雅黑, Arial" text-anchor="middle" font-size="30px" width="30px" fill="#323232" font-weight="400" align="middle" lineHeight="125%" anchor="middle" family="&quot;Microsoft YaHei&quot;, 微软雅黑, Arial" size="30px" weight="400" font-style="" opacity="1" y="4.25" transform="rotate(0)"></text></g></g><g id="SvgjsG1109" transform="translate(828,195.66666666666663)"><path id="SvgjsPath1110" d="M 0 4Q 0 0 4 0L 116 0Q 120 0 120 4L 120 56Q 120 60 116 60L 4 60Q 0 60 0 56Z" stroke="rgba(33,41,48,1)" stroke-width="1.5" fill-opacity="1" fill="#ffffff"></path><g id="SvgjsG1111"><text id="SvgjsText1112" font-family="&quot;Microsoft YaHei&quot;, 微软雅黑, Arial" text-anchor="middle" font-size="30px" width="100px" fill="#323232" font-weight="400" align="middle" lineHeight="125%" anchor="middle" family="&quot;Microsoft YaHei&quot;, 微软雅黑, Arial" size="30px" weight="400" font-style="" opacity="1" y="4.25" transform="rotate(0)"></text></g></g><g id="SvgjsG1113" transform="translate(958,195.66666666666663)"><path id="SvgjsPath1114" d="M 0 4Q 0 0 4 0L 116 0Q 120 0 120 4L 120 56Q 120 60 116 60L 4 60Q 0 60 0 56Z" stroke="rgba(33,41,48,1)" stroke-width="1.5" fill="url(#SvgjsLinearGradient1115)"></path><g id="SvgjsG1118"><text id="SvgjsText1119" font-family="&quot;Microsoft YaHei&quot;, 微软雅黑, Arial" text-anchor="middle" font-size="30px" width="100px" fill="#323232" font-weight="400" align="middle" lineHeight="125%" anchor="middle" family="&quot;Microsoft YaHei&quot;, 微软雅黑, Arial" size="30px" weight="400" font-style="" opacity="1" y="4.25" transform="rotate(0)"></text></g></g><g id="SvgjsG1120" transform="translate(768,195.66666666666663)"><path id="SvgjsPath1121" d="M 0 4Q 0 0 4 0L 46 0Q 50 0 50 4L 50 56Q 50 60 46 60L 4 60Q 0 60 0 56Z" stroke="rgba(33,41,48,1)" stroke-width="1.5" fill-opacity="1" fill="#ffffff"></path><g id="SvgjsG1122"><text id="SvgjsText1123" font-family="&quot;Microsoft YaHei&quot;, 微软雅黑, Arial" text-anchor="middle" font-size="30px" width="30px" fill="#323232" font-weight="400" align="middle" lineHeight="125%" anchor="middle" family="&quot;Microsoft YaHei&quot;, 微软雅黑, Arial" size="30px" weight="400" font-style="" opacity="1" y="4.25" transform="rotate(0)"></text></g></g><g id="SvgjsG1124" transform="translate(53.35897435897435,25)"><path id="SvgjsPath1125" d="M 0 0L 207.69230769230768 0L 207.69230769230768 40L 0 40Z" stroke="none" fill="none"></path><g id="SvgjsG1126"><text id="SvgjsText1127" font-family="&quot;Microsoft YaHei&quot;, 微软雅黑, Arial" text-anchor="middle" font-size="20px" width="208px" fill="#323232" font-weight="700" align="middle" lineHeight="125%" anchor="middle" family="&quot;Microsoft YaHei&quot;, 微软雅黑, Arial" size="20px" weight="700" font-style="" opacity="1" y="2" transform="rotate(0)"><tspan id="SvgjsTspan1128" dy="25" x="104"><tspan id="SvgjsTspan1129" style="">a) Start of Sweeping</tspan></tspan></text></g></g><g id="SvgjsG1130" transform="translate(53.358974358974336,148.8461538461538)"><path id="SvgjsPath1131" d="M 0 0L 207.69230769230768 0L 207.69230769230768 40L 0 40Z" stroke="none" fill="none"></path><g id="SvgjsG1132"><text id="SvgjsText1133" font-family="&quot;Microsoft YaHei&quot;, 微软雅黑, Arial" text-anchor="middle" font-size="20px" width="208px" fill="#323232" font-weight="700" align="middle" lineHeight="125%" anchor="middle" family="&quot;Microsoft YaHei&quot;, 微软雅黑, Arial" size="20px" weight="700" font-style="" opacity="1" y="2" transform="rotate(0)"><tspan id="SvgjsTspan1134" dy="25" x="104"><tspan id="SvgjsTspan1135" style="">b) End of Sweeping</tspan></tspan></text></g></g><g id="SvgjsG1136"></g></svg>