<svg id="SvgjsSvg1201" width="475.0000000000001" height="205.83333333333334" xmlns="http://www.w3.org/2000/svg" version="1.1" xmlns:xlink="http://www.w3.org/1999/xlink" xmlns:svgjs="http://svgjs.com/svgjs"><defs id="SvgjsDefs1202"><pattern patternUnits="userSpaceOnUse" id="pattern_mark_0" width="300" height="300"><text x="150" y="100" fill="rgba(229,229,229,0.8)" font-size="18" transform="rotate(-45, 150, 150)" style="dominant-baseline: middle; text-anchor: middle;"></text></pattern><pattern patternUnits="userSpaceOnUse" id="pattern_mark_1" width="300" height="300"><text x="150" y="200" fill="rgba(229,229,229,0.8)" font-size="18" transform="rotate(-45, 150, 150)" style="dominant-baseline: middle; text-anchor: middle;"></text></pattern><marker id="SvgjsMarker1232" markerWidth="12" markerHeight="8" refX="9" refY="4" viewBox="0 0 12 8" orient="auto" markerUnits="userSpaceOnUse" stroke-dasharray="0,0"><path id="SvgjsPath1233" d="M0,0 L12,4 L0,8 L0,0" fill="#d2d6f9" stroke="#d2d6f9" stroke-width="1"></path></marker><marker id="SvgjsMarker1236" markerWidth="12" markerHeight="8" refX="9" refY="4" viewBox="0 0 12 8" orient="auto" markerUnits="userSpaceOnUse" stroke-dasharray="0,0"><path id="SvgjsPath1237" d="M0,0 L12,4 L0,8 L0,0" fill="#d2d6f9" stroke="#d2d6f9" stroke-width="1"></path></marker><marker id="SvgjsMarker1240" markerWidth="12" markerHeight="8" refX="9" refY="4" viewBox="0 0 12 8" orient="auto" markerUnits="userSpaceOnUse" stroke-dasharray="0,0"><path id="SvgjsPath1241" d="M0,0 L12,4 L0,8 L0,0" fill="#d2d6f9" stroke="#d2d6f9" stroke-width="1"></path></marker><marker id="SvgjsMarker1244" markerWidth="12" markerHeight="8" refX="9" refY="4" viewBox="0 0 12 8" orient="auto" markerUnits="userSpaceOnUse" stroke-dasharray="0,0"><path id="SvgjsPath1245" d="M0,0 L12,4 L0,8 L0,0" fill="#d2d6f9" stroke="#d2d6f9" stroke-width="1"></path></marker><marker id="SvgjsMarker1248" markerWidth="12" markerHeight="8" refX="9" refY="4" viewBox="0 0 12 8" orient="auto" markerUnits="userSpaceOnUse" stroke-dasharray="0,0"><path id="SvgjsPath1249" d="M0,0 L12,4 L0,8 L0,0" fill="#d2d6f9" stroke="#d2d6f9" stroke-width="1"></path></marker></defs><rect id="svgbackgroundid" width="475.0000000000001" height="205.83333333333334" fill="transparent"></rect><rect id="SvgjsRect1204" width="475.0000000000001" height="205.83333333333334" fill="url(#pattern_mark_0)"></rect><rect id="SvgjsRect1205" width="475.0000000000001" height="205.83333333333334" fill="url(#pattern_mark_1)"></rect><g id="SvgjsG1206" transform="translate(211.66666666666674,25)"><path id="SvgjsPath1207" d="M 0 10C 0 -3.3333333333333335 20 -3.3333333333333335 20 10C 20 23.333333333333332 0 23.333333333333332 0 10Z" stroke="rgba(33,41,48,1)" stroke-width="1.5" fill-opacity="1" fill="#a6aef3"></path><g id="SvgjsG1208"><text id="SvgjsText1209" font-family="微软雅黑" text-anchor="middle" font-size="13px" width="0px" fill="#323232" font-weight="400" align="middle" lineHeight="125%" anchor="middle" family="微软雅黑" size="13px" weight="400" font-style="" opacity="1" y="-0.625" transform="rotate(0)"></text></g></g><g id="SvgjsG1210" transform="translate(88.33333333333337,75)"><path id="SvgjsPath1211" d="M 0 10C 0 -3.3333333333333335 20 -3.3333333333333335 20 10C 20 23.333333333333332 0 23.333333333333332 0 10Z" stroke="rgba(33,41,48,1)" stroke-width="1.5" fill-opacity="1" fill="#a6aef3"></path><g id="SvgjsG1212"><text id="SvgjsText1213" font-family="微软雅黑" text-anchor="middle" font-size="13px" width="0px" fill="#323232" font-weight="400" align="middle" lineHeight="125%" anchor="middle" family="微软雅黑" size="13px" weight="400" font-style="" opacity="1" y="-0.625" transform="rotate(0)"></text></g></g><g id="SvgjsG1214" transform="translate(155.83333333333343,155)"><path id="SvgjsPath1215" d="M 0 10C 0 -3.3333333333333335 20 -3.3333333333333335 20 10C 20 23.333333333333332 0 23.333333333333332 0 10Z" stroke="rgba(33,41,48,1)" stroke-width="1.5" fill-opacity="1" fill="#a6aef3"></path><g id="SvgjsG1216"><text id="SvgjsText1217" font-family="微软雅黑" text-anchor="middle" font-size="13px" width="0px" fill="#323232" font-weight="400" align="middle" lineHeight="125%" anchor="middle" family="微软雅黑" size="13px" weight="400" font-style="" opacity="1" y="-0.625" transform="rotate(0)"></text></g></g><g id="SvgjsG1218" transform="translate(326.66666666666674,75)"><path id="SvgjsPath1219" d="M 0 10C 0 -3.3333333333333335 20 -3.3333333333333335 20 10C 20 23.333333333333332 0 23.333333333333332 0 10Z" stroke="rgba(33,41,48,1)" stroke-width="1.5" fill-opacity="1" fill="#a6aef3"></path><g id="SvgjsG1220"><text id="SvgjsText1221" font-family="微软雅黑" text-anchor="middle" font-size="13px" width="0px" fill="#323232" font-weight="400" align="middle" lineHeight="125%" anchor="middle" family="微软雅黑" size="13px" weight="400" font-style="" opacity="1" y="-0.625" transform="rotate(0)"></text></g></g><g id="SvgjsG1222" transform="translate(326.66666666666674,155)"><path id="SvgjsPath1223" d="M 0 10C 0 -3.3333333333333335 20 -3.3333333333333335 20 10C 20 23.333333333333332 0 23.333333333333332 0 10Z" stroke="rgba(33,41,48,1)" stroke-width="1.5" fill-opacity="1" fill="#a6aef3"></path><g id="SvgjsG1224"><text id="SvgjsText1225" font-family="微软雅黑" text-anchor="middle" font-size="13px" width="0px" fill="#323232" font-weight="400" align="middle" lineHeight="125%" anchor="middle" family="微软雅黑" size="13px" weight="400" font-style="" opacity="1" y="-0.625" transform="rotate(0)"></text></g></g><g id="SvgjsG1226" transform="translate(25,155)"><path id="SvgjsPath1227" d="M 0 10C 0 -3.3333333333333335 20 -3.3333333333333335 20 10C 20 23.333333333333332 0 23.333333333333332 0 10Z" stroke="rgba(33,41,48,1)" stroke-width="1.5" fill-opacity="1" fill="#a6aef3"></path><g id="SvgjsG1228"><text id="SvgjsText1229" font-family="微软雅黑" text-anchor="middle" font-size="13px" width="0px" fill="#323232" font-weight="400" align="middle" lineHeight="125%" anchor="middle" family="微软雅黑" size="13px" weight="400" font-style="" opacity="1" y="-0.625" transform="rotate(0)"></text></g></g><g id="SvgjsG1230"><path id="SvgjsPath1231" d="M221.66666666666674 45.75L221.66666666666674 60L98.33333333333337 60L98.33333333333337 72.95" stroke="#d2d6f9" stroke-width="1" fill="none" marker-end="url(#SvgjsMarker1232)"></path></g><g id="SvgjsG1234"><path id="SvgjsPath1235" d="M221.66666666666674 45.75L221.66666666666674 60L336.66666666666674 60L336.66666666666674 72.95" stroke="#d2d6f9" stroke-width="1" fill="none" marker-end="url(#SvgjsMarker1236)"></path></g><g id="SvgjsG1238"><path id="SvgjsPath1239" d="M98.33333333333337 95.75L98.33333333333337 125L35 125L35 152.95" stroke="#d2d6f9" stroke-width="1" fill="none" marker-end="url(#SvgjsMarker1240)"></path></g><g id="SvgjsG1242"><path id="SvgjsPath1243" d="M98.33333333333337 95.75L98.33333333333337 125L165.83333333333343 125L165.83333333333343 152.95" stroke="#d2d6f9" stroke-width="1" fill="none" marker-end="url(#SvgjsMarker1244)"></path></g><g id="SvgjsG1246"><path id="SvgjsPath1247" d="M336.66666666666674 95.75L336.66666666666674 152.95" stroke="#d2d6f9" stroke-width="1" fill="none" marker-end="url(#SvgjsMarker1248)"></path></g><g id="SvgjsG1250" transform="translate(217.50000000000006,25.83333333333333)"><path id="SvgjsPath1251" d="M 0 0L 45 0L 45 20L 0 20Z" stroke="none" fill="none"></path><g id="SvgjsG1252"><text id="SvgjsText1253" font-family="微软雅黑" text-anchor="middle" font-size="13px" width="45px" fill="#323232" font-weight="400" align="middle" lineHeight="125%" anchor="middle" family="微软雅黑" size="13px" weight="400" font-style="" opacity="1" y="-0.625" transform="rotate(0)"><tspan id="SvgjsTspan1254" dy="16.25" x="22.5"><tspan id="SvgjsTspan1255" style="">/</tspan></tspan></text></g></g><g id="SvgjsG1256" transform="translate(109.16666666666674,67.08333333333333)"><path id="SvgjsPath1257" d="M 0 0L 53.33333333333337 0L 53.33333333333337 35.83333333333334L 0 35.83333333333334Z" stroke="none" fill="none"></path><g id="SvgjsG1258"><text id="SvgjsText1259" font-family="微软雅黑" text-anchor="middle" font-size="13px" width="54px" fill="#323232" font-weight="400" align="middle" lineHeight="125%" anchor="middle" family="微软雅黑" size="13px" weight="400" font-style="" opacity="1" y="7.291666666666671" transform="rotate(0)"><tspan id="SvgjsTspan1260" dy="16.25" x="27"><tspan id="SvgjsTspan1261" style="">/znode1</tspan></tspan></text></g></g><g id="SvgjsG1262" transform="translate(360,65)"><path id="SvgjsPath1263" d="M 0 0L 53.33333333333337 0L 53.33333333333337 40L 0 40Z" stroke="none" fill="none"></path><g id="SvgjsG1264"><text id="SvgjsText1265" font-family="微软雅黑" text-anchor="middle" font-size="13px" width="54px" fill="#323232" font-weight="400" align="middle" lineHeight="125%" anchor="middle" family="微软雅黑" size="13px" weight="400" font-style="" opacity="1" y="9.375" transform="rotate(0)"><tspan id="SvgjsTspan1266" dy="16.25" x="27"><tspan id="SvgjsTspan1267" style="">/znode2</tspan></tspan></text></g></g><g id="SvgjsG1268" transform="translate(360,145.00000000000003)"><path id="SvgjsPath1269" d="M 0 0L 90.00000000000011 0L 90.00000000000011 35.833333333333314L 0 35.833333333333314Z" stroke="none" fill="none"></path><g id="SvgjsG1270"><text id="SvgjsText1271" font-family="微软雅黑" text-anchor="middle" font-size="13px" width="91px" fill="#323232" font-weight="400" align="middle" lineHeight="125%" anchor="middle" family="微软雅黑" size="13px" weight="400" font-style="" opacity="1" y="7.291666666666657" transform="rotate(0)"><tspan id="SvgjsTspan1272" dy="16.25" x="45.5"><tspan id="SvgjsTspan1273" style="">/znode2/leaf</tspan></tspan></text></g></g><g id="SvgjsG1274" transform="translate(44.1666666666668,149.16666666666669)"><path id="SvgjsPath1275" d="M 0 0L 86.66666666666669 0L 86.66666666666669 31.666666666666657L 0 31.666666666666657Z" stroke="none" fill="none"></path><g id="SvgjsG1276"><text id="SvgjsText1277" font-family="微软雅黑" text-anchor="middle" font-size="13px" width="87px" fill="#323232" font-weight="400" align="middle" lineHeight="125%" anchor="middle" family="微软雅黑" size="13px" weight="400" font-style="" opacity="1" y="5.208333333333329" transform="rotate(0)"><tspan id="SvgjsTspan1278" dy="16.25" x="43.5"><tspan id="SvgjsTspan1279" style="">/znode1/leaf1</tspan></tspan></text></g></g><g id="SvgjsG1280" transform="translate(178.33333333333337,144.99999999999997)"><path id="SvgjsPath1281" d="M 0 0L 90.83333333333337 0L 90.83333333333337 35.83333333333337L 0 35.83333333333337Z" stroke="none" fill="none"></path><g id="SvgjsG1282"><text id="SvgjsText1283" font-family="微软雅黑" text-anchor="middle" font-size="13px" width="91px" fill="#323232" font-weight="400" align="middle" lineHeight="125%" anchor="middle" family="微软雅黑" size="13px" weight="400" font-style="" opacity="1" y="7.291666666666686" transform="rotate(0)"><tspan id="SvgjsTspan1284" dy="16.25" x="45.5"><tspan id="SvgjsTspan1285" style="">/znode1/leaf2</tspan></tspan></text></g></g></svg>