<svg id="SvgjsSvg1006" width="576" height="490" xmlns="http://www.w3.org/2000/svg" version="1.1" xmlns:xlink="http://www.w3.org/1999/xlink" xmlns:svgjs="http://svgjs.com/svgjs"><defs id="SvgjsDefs1007"><pattern patternUnits="userSpaceOnUse" id="pattern_mark_0" width="300" height="300"><text x="150" y="100" fill="rgba(229,229,229,0.8)" font-size="18" transform="rotate(-45, 150, 150)" style="dominant-baseline: middle; text-anchor: middle;"></text></pattern><pattern patternUnits="userSpaceOnUse" id="pattern_mark_1" width="300" height="300"><text x="150" y="200" fill="rgba(229,229,229,0.8)" font-size="18" transform="rotate(-45, 150, 150)" style="dominant-baseline: middle; text-anchor: middle;"></text></pattern><marker id="SvgjsMarker1053" markerWidth="13" markerHeight="9" refX="9.5" refY="4.5" viewBox="0 0 13 9" orient="auto" markerUnits="userSpaceOnUse" stroke-dasharray="0,0"><path id="SvgjsPath1054" d="M0,0 L13,4.5 L0,9 L0,0" fill="#323232" stroke="#323232" stroke-width="1"></path></marker><marker id="SvgjsMarker1057" markerWidth="13" markerHeight="9" refX="9.5" refY="4.5" viewBox="0 0 13 9" orient="auto" markerUnits="userSpaceOnUse" stroke-dasharray="0,0"><path id="SvgjsPath1058" d="M0,0 L13,4.5 L0,9 L0,0" fill="#323232" stroke="#323232" stroke-width="1"></path></marker><marker id="SvgjsMarker1061" markerWidth="13" markerHeight="9" refX="9.5" refY="4.5" viewBox="0 0 13 9" orient="auto" markerUnits="userSpaceOnUse" stroke-dasharray="0,0"><path id="SvgjsPath1062" d="M0,0 L13,4.5 L0,9 L0,0" fill="#323232" stroke="#323232" stroke-width="1"></path></marker><marker id="SvgjsMarker1065" markerWidth="13" markerHeight="9" refX="9.5" refY="4.5" viewBox="0 0 13 9" orient="auto" markerUnits="userSpaceOnUse" stroke-dasharray="0,0"><path id="SvgjsPath1066" d="M0,0 L13,4.5 L0,9 L0,0" fill="#323232" stroke="#323232" stroke-width="1"></path></marker></defs><rect id="svgbackgroundid" width="576" height="490" fill="transparent"></rect><rect id="SvgjsRect1009" width="576" height="490" fill="url(#pattern_mark_0)"></rect><rect id="SvgjsRect1010" width="576" height="490" fill="url(#pattern_mark_1)"></rect><g id="SvgjsG1011" transform="translate(25,195)"><path id="SvgjsPath1012" d="M 0 50C 0 -16.666666666666668 100 -16.666666666666668 100 50C 100 116.66666666666667 0 116.66666666666667 0 50Z" stroke="rgba(33,41,48,1)" stroke-width="1.5" fill-opacity="1" fill="#50a9e9"></path><g id="SvgjsG1013"><text id="SvgjsText1014" font-family="微软雅黑" text-anchor="middle" font-size="15px" width="80px" fill="#323232" font-weight="700" align="middle" lineHeight="125%" anchor="middle" family="微软雅黑" size="15px" weight="700" font-style="" opacity="1" y="37.625" transform="rotate(0)"><tspan id="SvgjsTspan1015" dy="18.75" x="50"><tspan id="SvgjsTspan1016" style="">消息发布者</tspan></tspan></text></g></g><g id="SvgjsG1017" transform="translate(451,195)"><path id="SvgjsPath1018" d="M 0 50C 0 -16.666666666666668 100 -16.666666666666668 100 50C 100 116.66666666666667 0 116.66666666666667 0 50Z" stroke="rgba(33,41,48,1)" stroke-width="1.5" fill-opacity="1" fill="#b7eaeb"></path><g id="SvgjsG1019"><text id="SvgjsText1020" font-family="微软雅黑" text-anchor="middle" font-size="15px" width="80px" fill="#323232" font-weight="700" align="middle" lineHeight="125%" anchor="middle" family="微软雅黑" size="15px" weight="700" font-style="" opacity="1" y="37.625" transform="rotate(0)"><tspan id="SvgjsTspan1021" dy="18.75" x="50"><tspan id="SvgjsTspan1022" style="">消息订阅者</tspan></tspan></text></g></g><g id="SvgjsG1023" transform="translate(451,365)"><path id="SvgjsPath1024" d="M 0 50C 0 -16.666666666666668 100 -16.666666666666668 100 50C 100 116.66666666666667 0 116.66666666666667 0 50Z" stroke="rgba(33,41,48,1)" stroke-width="1.5" fill-opacity="1" fill="#b7eaeb"></path><g id="SvgjsG1025"><text id="SvgjsText1026" font-family="微软雅黑" text-anchor="middle" font-size="15px" width="80px" fill="#323232" font-weight="700" align="middle" lineHeight="125%" anchor="middle" family="微软雅黑" size="15px" weight="700" font-style="" opacity="1" y="37.625" transform="rotate(0)"><tspan id="SvgjsTspan1027" dy="18.75" x="50"><tspan id="SvgjsTspan1028" style="">消息订阅者</tspan></tspan></text></g></g><g id="SvgjsG1029" transform="translate(451,25)"><path id="SvgjsPath1030" d="M 0 50C 0 -16.666666666666668 100 -16.666666666666668 100 50C 100 116.66666666666667 0 116.66666666666667 0 50Z" stroke="rgba(33,41,48,1)" stroke-width="1.5" fill-opacity="1" fill="#b7eaeb"></path><g id="SvgjsG1031"><text id="SvgjsText1032" font-family="微软雅黑" text-anchor="middle" font-size="15px" width="80px" fill="#323232" font-weight="700" align="middle" lineHeight="125%" anchor="middle" family="微软雅黑" size="15px" weight="700" font-style="" opacity="1" y="37.625" transform="rotate(0)"><tspan id="SvgjsTspan1033" dy="18.75" x="50"><tspan id="SvgjsTspan1034" style="">消息订阅者</tspan></tspan></text></g></g><g id="SvgjsG1035" transform="translate(253,162)"><path id="SvgjsPath1036" d="M 0 11.666666666666666L 0 141.1C 0 174.3 70 174.3 70 141.1L 70 11.666666666666666C 70 -3.1818181818181817 0 -3.1818181818181817 0 11.666666666666666ZM 0 11.666666666666666C 0 26.25 70 26.25 70 11.666666666666666C 70 26.25 0 26.25 0 11.666666666666666" stroke="rgba(33,41,48,1)" stroke-width="1.5" fill-opacity="1" fill="#eab000"></path><g id="SvgjsG1037"><text id="SvgjsText1038" font-family="微软雅黑" text-anchor="middle" font-size="15px" width="70px" fill="#323232" font-weight="700" align="middle" lineHeight="125%" anchor="middle" family="微软雅黑" size="15px" weight="700" font-style="" opacity="1" y="7.025000000000006" transform="rotate(0)"><tspan id="SvgjsTspan1039" dy="18.75" x="35"><tspan id="SvgjsTspan1040" style=""> </tspan></tspan><tspan id="SvgjsTspan1041" dy="18.75" x="35"><tspan id="SvgjsTspan1042" style=""> </tspan></tspan><tspan id="SvgjsTspan1043" dy="18.75" x="35"><tspan id="SvgjsTspan1044" style="">消</tspan></tspan><tspan id="SvgjsTspan1045" dy="18.75" x="35"><tspan id="SvgjsTspan1046" style="">息</tspan></tspan><tspan id="SvgjsTspan1047" dy="18.75" x="35"><tspan id="SvgjsTspan1048" style="">主</tspan></tspan><tspan id="SvgjsTspan1049" dy="18.75" x="35"><tspan id="SvgjsTspan1050" style="">题</tspan></tspan></text></g></g><g id="SvgjsG1051"><path id="SvgjsPath1052" d="M125.75 245L189 245L189 245L250.3 245" stroke="#323232" stroke-width="1.5" fill="none" marker-end="url(#SvgjsMarker1053)"></path></g><g id="SvgjsG1055"><path id="SvgjsPath1056" d="M323.45112702257296 244.40084692314528L449.3759427187374 77.15695107667693" stroke="#323232" stroke-width="1.5" fill="none" marker-end="url(#SvgjsMarker1057)"></path></g><g id="SvgjsG1059"><path id="SvgjsPath1060" d="M323.75 245L448.29999999999995 245" stroke="#323232" stroke-width="1.5" fill="none" marker-end="url(#SvgjsMarker1061)"></path></g><g id="SvgjsG1063"><path id="SvgjsPath1064" d="M323.45112702257296 245.59915307685472L449.3759427187374 412.84304892332307" stroke="#323232" stroke-width="1.5" fill="none" marker-end="url(#SvgjsMarker1065)"></path></g><g id="SvgjsG1067" transform="translate(160,235)"><path id="SvgjsPath1068" d="M 0 0L 30 0L 30 20L 0 20Z" stroke="rgba(33,41,48,1)" stroke-width="1.5" fill-opacity="1" fill="#f4db76"></path><path id="SvgjsPath1069" d="M 0 0L 15 10M 30 0L 15 10" stroke="rgba(33,41,48,1)" stroke-width="1.5" fill-opacity="1" fill="#f4db76"></path><path id="SvgjsPath1070" d="M 0 0L 30 0L 30 20L 0 20Z" stroke="none" fill="none"></path><g id="SvgjsG1071"><text id="SvgjsText1072" font-family="微软雅黑" text-anchor="middle" font-size="13px" width="10px" fill="#323232" font-weight="400" align="middle" lineHeight="125%" anchor="middle" family="微软雅黑" size="13px" weight="400" font-style="" opacity="1" y="-0.625" transform="rotate(0)"></text></g></g><g id="SvgjsG1073" transform="translate(372,235)"><path id="SvgjsPath1074" d="M 0 0L 30 0L 30 20L 0 20Z" stroke="rgba(33,41,48,1)" stroke-width="1.5" fill-opacity="1" fill="#f4db76"></path><path id="SvgjsPath1075" d="M 0 0L 15 10M 30 0L 15 10" stroke="rgba(33,41,48,1)" stroke-width="1.5" fill-opacity="1" fill="#f4db76"></path><path id="SvgjsPath1076" d="M 0 0L 30 0L 30 20L 0 20Z" stroke="none" fill="none"></path><g id="SvgjsG1077"><text id="SvgjsText1078" font-family="微软雅黑" text-anchor="middle" font-size="13px" width="10px" fill="#323232" font-weight="400" align="middle" lineHeight="125%" anchor="middle" family="微软雅黑" size="13px" weight="400" font-style="" opacity="1" y="-0.625" transform="rotate(0)"></text></g></g><g id="SvgjsG1079" transform="matrix(0.6427876096865393,-0.7660444431189781,0.7660444431189781,0.6427876096865393,375.6977414235121,160.06279054991927)"><path id="SvgjsPath1080" d="M 0 0L 30 0L 30 20L 0 20Z" stroke="rgba(33,41,48,1)" stroke-width="1.5" fill-opacity="1" fill="#f4db76"></path><path id="SvgjsPath1081" d="M 0 0L 15 10M 30 0L 15 10" stroke="rgba(33,41,48,1)" stroke-width="1.5" fill-opacity="1" fill="#f4db76"></path><path id="SvgjsPath1082" d="M 0 0L 30 0L 30 20L 0 20Z" stroke="none" fill="none"></path><g id="SvgjsG1083"><text id="SvgjsText1084" font-family="微软雅黑" text-anchor="middle" font-size="13px" width="10px" fill="#323232" font-weight="400" align="middle" lineHeight="125%" anchor="middle" family="微软雅黑" size="13px" weight="400" font-style="" opacity="1" y="-0.625" transform="rotate(0)"></text></g></g><g id="SvgjsG1085" transform="matrix(0.6427876096865394,0.766044443118978,-0.766044443118978,0.6427876096865394,388.0186302858917,318.08145725634995)"><path id="SvgjsPath1086" d="M 0 0L 30 0L 30 20L 0 20Z" stroke="rgba(33,41,48,1)" stroke-width="1.5" fill-opacity="1" fill="#f4db76"></path><path id="SvgjsPath1087" d="M 0 0L 15 10M 30 0L 15 10" stroke="rgba(33,41,48,1)" stroke-width="1.5" fill-opacity="1" fill="#f4db76"></path><path id="SvgjsPath1088" d="M 0 0L 30 0L 30 20L 0 20Z" stroke="none" fill="none"></path><g id="SvgjsG1089"><text id="SvgjsText1090" font-family="微软雅黑" text-anchor="middle" font-size="13px" width="10px" fill="#323232" font-weight="400" align="middle" lineHeight="125%" anchor="middle" family="微软雅黑" size="13px" weight="400" font-style="" opacity="1" y="-0.625" transform="rotate(0)"></text></g></g></svg>