<svg id="SvgjsSvg1006" width="585" height="104" xmlns="http://www.w3.org/2000/svg" version="1.1" xmlns:xlink="http://www.w3.org/1999/xlink" xmlns:svgjs="http://svgjs.com/svgjs"><defs id="SvgjsDefs1007"><pattern patternUnits="userSpaceOnUse" id="pattern_mark_0" width="300" height="300"><text x="150" y="100" fill="rgba(225,224,212,0.8)" font-size="18" transform="rotate(-45, 150, 150)" style="dominant-baseline: middle; text-anchor: middle;"></text></pattern><pattern patternUnits="userSpaceOnUse" id="pattern_mark_1" width="300" height="300"><text x="150" y="200" fill="rgba(225,224,212,0.8)" font-size="18" transform="rotate(-45, 150, 150)" style="dominant-baseline: middle; text-anchor: middle;"></text></pattern><marker id="SvgjsMarker1037" markerWidth="22" markerHeight="18" refX="14" refY="9" viewBox="0 0 22 18" orient="auto" markerUnits="userSpaceOnUse" stroke-dasharray="0,0"><path id="SvgjsPath1038" d="M0,0 L22,9 L0,18 L0,0" fill="#c4af96" stroke="#c4af96" stroke-width="1"></path></marker><marker id="SvgjsMarker1041" markerWidth="22" markerHeight="18" refX="14" refY="9" viewBox="0 0 22 18" orient="auto" markerUnits="userSpaceOnUse" stroke-dasharray="0,0"><path id="SvgjsPath1042" d="M0,0 L22,9 L0,18 L0,0" fill="#c4af96" stroke="#c4af96" stroke-width="1"></path></marker><marker id="SvgjsMarker1045" markerWidth="22" markerHeight="18" refX="14" refY="9" viewBox="0 0 22 18" orient="auto" markerUnits="userSpaceOnUse" stroke-dasharray="0,0"><path id="SvgjsPath1046" d="M0,0 L22,9 L0,18 L0,0" fill="#c4af96" stroke="#c4af96" stroke-width="1"></path></marker></defs><rect id="svgbackgroundid" width="585" height="104" fill="#faf9ec"></rect><rect id="SvgjsRect1009" width="585" height="104" fill="url(#pattern_mark_0)"></rect><rect id="SvgjsRect1010" width="585" height="104" fill="url(#pattern_mark_1)"></rect><g id="SvgjsG1011" transform="translate(25,25)"><path id="SvgjsPath1012" d="M 0 4Q 0 0 4 0L 92 0Q 96 0 96 4L 96 50Q 96 54 92 54L 4 54Q 0 54 0 50Z" stroke="rgba(33,41,48,1)" stroke-width="1.5" fill-opacity="1" fill="#c5e9b8"></path><g id="SvgjsG1013"><text id="SvgjsText1014" font-family="&quot;Comic Sans MS&quot;" text-anchor="middle" font-size="15px" width="76px" fill="#323232" font-weight="700" align="middle" lineHeight="125%" anchor="middle" family="&quot;Comic Sans MS&quot;" size="15px" weight="700" font-style="" opacity="1" y="14.625" transform="rotate(0)"><tspan id="SvgjsTspan1015" dy="18.75" x="48"><tspan id="SvgjsTspan1016" style="">创建数据库</tspan></tspan></text></g></g><g id="SvgjsG1017" transform="translate(171.33333333333334,25)"><path id="SvgjsPath1018" d="M 0 4Q 0 0 4 0L 92 0Q 96 0 96 4L 96 50Q 96 54 92 54L 4 54Q 0 54 0 50Z" stroke="rgba(33,41,48,1)" stroke-width="1.5" fill-opacity="1" fill="#c5e9b8"></path><g id="SvgjsG1019"><text id="SvgjsText1020" font-family="&quot;Comic Sans MS&quot;" text-anchor="middle" font-size="15px" width="76px" fill="#323232" font-weight="700" align="middle" lineHeight="125%" anchor="middle" family="&quot;Comic Sans MS&quot;" size="15px" weight="700" font-style="" opacity="1" y="14.625" transform="rotate(0)"><tspan id="SvgjsTspan1021" dy="18.75" x="48"><tspan id="SvgjsTspan1022" style="">确认字段</tspan></tspan></text></g></g><g id="SvgjsG1023" transform="translate(317.6666666666667,25)"><path id="SvgjsPath1024" d="M 0 4Q 0 0 4 0L 92 0Q 96 0 96 4L 96 50Q 96 54 92 54L 4 54Q 0 54 0 50Z" stroke="rgba(33,41,48,1)" stroke-width="1.5" fill-opacity="1" fill="#c5e9b8"></path><g id="SvgjsG1025"><text id="SvgjsText1026" font-family="&quot;Comic Sans MS&quot;" text-anchor="middle" font-size="15px" width="76px" fill="#323232" font-weight="700" align="middle" lineHeight="125%" anchor="middle" family="&quot;Comic Sans MS&quot;" size="15px" weight="700" font-style="" opacity="1" y="14.625" transform="rotate(0)"><tspan id="SvgjsTspan1027" dy="18.75" x="48"><tspan id="SvgjsTspan1028" style="">创建数据表</tspan></tspan></text></g></g><g id="SvgjsG1029" transform="translate(464,25)"><path id="SvgjsPath1030" d="M 0 4Q 0 0 4 0L 92 0Q 96 0 96 4L 96 50Q 96 54 92 54L 4 54Q 0 54 0 50Z" stroke="rgba(33,41,48,1)" stroke-width="1.5" fill-opacity="1" fill="#c5e9b8"></path><g id="SvgjsG1031"><text id="SvgjsText1032" font-family="&quot;Comic Sans MS&quot;" text-anchor="middle" font-size="15px" width="76px" fill="#323232" font-weight="700" align="middle" lineHeight="125%" anchor="middle" family="&quot;Comic Sans MS&quot;" size="15px" weight="700" font-style="" opacity="1" y="14.625" transform="rotate(0)"><tspan id="SvgjsTspan1033" dy="18.75" x="48"><tspan id="SvgjsTspan1034" style="">插入数据</tspan></tspan></text></g></g><g id="SvgjsG1035"><path id="SvgjsPath1036" d="M121.75 52L146.16666666666669 52L146.16666666666669 52L162.78333333333333 52" stroke="#c4af96" stroke-width="6" fill="none" marker-end="url(#SvgjsMarker1037)"></path></g><g id="SvgjsG1039"><path id="SvgjsPath1040" d="M268.08333333333337 52L292.5 52L292.5 52L309.1166666666667 52" stroke="#c4af96" stroke-width="6" fill="none" marker-end="url(#SvgjsMarker1041)"></path></g><g id="SvgjsG1043"><path id="SvgjsPath1044" d="M414.4166666666667 52L438.83333333333337 52L438.83333333333337 52L455.45 52" stroke="#c4af96" stroke-width="6" fill="none" marker-end="url(#SvgjsMarker1045)"></path></g></svg>