<svg id="SvgjsSvg1006" width="900" height="100" xmlns="http://www.w3.org/2000/svg" version="1.1" xmlns:xlink="http://www.w3.org/1999/xlink" xmlns:svgjs="http://svgjs.com/svgjs"><defs id="SvgjsDefs1007"><pattern patternUnits="userSpaceOnUse" id="pattern_mark_0" width="300" height="300"><text x="150" y="100" fill="rgba(229,229,229,0.8)" font-size="18" transform="rotate(-45, 150, 150)" style="dominant-baseline: middle; text-anchor: middle;"></text></pattern><pattern patternUnits="userSpaceOnUse" id="pattern_mark_1" width="300" height="300"><text x="150" y="200" fill="rgba(229,229,229,0.8)" font-size="18" transform="rotate(-45, 150, 150)" style="dominant-baseline: middle; text-anchor: middle;"></text></pattern></defs><rect id="svgbackgroundid" width="900" height="100" fill="transparent"></rect><rect id="SvgjsRect1009" width="900" height="100" fill="url(#pattern_mark_0)"></rect><rect id="SvgjsRect1010" width="900" height="100" fill="url(#pattern_mark_1)"></rect><g id="SvgjsG1011" transform="translate(25,25)"><path id="SvgjsPath1012" d="M 0 4Q 0 0 4 0L 96 0Q 100 0 100 4L 100 46Q 100 50 96 50L 4 50Q 0 50 0 46Z" stroke="rgba(190,71,107,1)" stroke-width="1.5" fill-opacity="1" fill="#ffffff"></path><path id="SvgjsPath1013" d="M 7 8.399999999999999L 23 8.399999999999999L 23 20.4L 7 20.4ZM 7 11.399999999999999L 23 11.399999999999999M 7 14.399999999999999L 23 14.399999999999999M 7 17.4L 23 17.4M 11 8.399999999999999L 11 20.4" stroke="rgba(50,50,50,1)" stroke-width="1" fill="none"></path><path id="SvgjsPath1014" d="M 0 4Q 0 0 4 0L 96 0Q 100 0 100 4L 100 46Q 100 50 96 50L 4 50Q 0 50 0 46Z" stroke="none" fill="none"></path><g id="SvgjsG1015"><text id="SvgjsText1016" font-family="&quot;Microsoft YaHei&quot;, 微软雅黑, Arial" text-anchor="middle" font-size="13px" width="80px" fill="#323232" font-weight="700" align="middle" lineHeight="125%" anchor="middle" family="&quot;Microsoft YaHei&quot;, 微软雅黑, Arial" size="13px" weight="700" font-style="" opacity="1" y="14.375" transform="rotate(0)"><tspan id="SvgjsTspan1017" dy="16.25" x="50"><tspan id="SvgjsTspan1018" style="">类型信息</tspan></tspan></text></g></g><g id="SvgjsG1019" transform="translate(175,25)"><path id="SvgjsPath1020" d="M 0 4Q 0 0 4 0L 96 0Q 100 0 100 4L 100 46Q 100 50 96 50L 4 50Q 0 50 0 46Z" stroke="rgba(190,71,107,1)" stroke-width="1.5" fill-opacity="1" fill="#ffffff"></path><path id="SvgjsPath1021" d="M 7 8.399999999999999L 23 8.399999999999999L 23 20.4L 7 20.4ZM 7 11.399999999999999L 23 11.399999999999999M 7 14.399999999999999L 23 14.399999999999999M 7 17.4L 23 17.4M 11 8.399999999999999L 11 20.4" stroke="rgba(50,50,50,1)" stroke-width="1" fill="none"></path><path id="SvgjsPath1022" d="M 0 4Q 0 0 4 0L 96 0Q 100 0 100 4L 100 46Q 100 50 96 50L 4 50Q 0 50 0 46Z" stroke="none" fill="none"></path><g id="SvgjsG1023"><text id="SvgjsText1024" font-family="&quot;Microsoft YaHei&quot;, 微软雅黑, Arial" text-anchor="middle" font-size="13px" width="80px" fill="#323232" font-weight="700" align="middle" lineHeight="125%" anchor="middle" family="&quot;Microsoft YaHei&quot;, 微软雅黑, Arial" size="13px" weight="700" font-style="" opacity="1" y="14.375" transform="rotate(0)"><tspan id="SvgjsTspan1025" dy="16.25" x="50"><tspan id="SvgjsTspan1026" style="">运行时常量池</tspan></tspan></text></g></g><g id="SvgjsG1027" transform="translate(325,25)"><path id="SvgjsPath1028" d="M 0 4Q 0 0 4 0L 96 0Q 100 0 100 4L 100 46Q 100 50 96 50L 4 50Q 0 50 0 46Z" stroke="rgba(190,71,107,1)" stroke-width="1.5" fill-opacity="1" fill="#ffffff"></path><path id="SvgjsPath1029" d="M 7 8.399999999999999L 23 8.399999999999999L 23 20.4L 7 20.4ZM 7 11.399999999999999L 23 11.399999999999999M 7 14.399999999999999L 23 14.399999999999999M 7 17.4L 23 17.4M 11 8.399999999999999L 11 20.4" stroke="rgba(50,50,50,1)" stroke-width="1" fill="none"></path><path id="SvgjsPath1030" d="M 0 4Q 0 0 4 0L 96 0Q 100 0 100 4L 100 46Q 100 50 96 50L 4 50Q 0 50 0 46Z" stroke="none" fill="none"></path><g id="SvgjsG1031"><text id="SvgjsText1032" font-family="&quot;Microsoft YaHei&quot;, 微软雅黑, Arial" text-anchor="middle" font-size="13px" width="80px" fill="#323232" font-weight="700" align="middle" lineHeight="125%" anchor="middle" family="&quot;Microsoft YaHei&quot;, 微软雅黑, Arial" size="13px" weight="700" font-style="" opacity="1" y="14.375" transform="rotate(0)"><tspan id="SvgjsTspan1033" dy="16.25" x="50"><tspan id="SvgjsTspan1034" style="">静态变量</tspan></tspan></text></g></g><g id="SvgjsG1035" transform="translate(475,25)"><path id="SvgjsPath1036" d="M 0 4Q 0 0 4 0L 96 0Q 100 0 100 4L 100 46Q 100 50 96 50L 4 50Q 0 50 0 46Z" stroke="rgba(190,71,107,1)" stroke-width="1.5" fill-opacity="1" fill="#ffffff"></path><path id="SvgjsPath1037" d="M 7 8.399999999999999L 23 8.399999999999999L 23 20.4L 7 20.4ZM 7 11.399999999999999L 23 11.399999999999999M 7 14.399999999999999L 23 14.399999999999999M 7 17.4L 23 17.4M 11 8.399999999999999L 11 20.4" stroke="rgba(50,50,50,1)" stroke-width="1" fill="none"></path><path id="SvgjsPath1038" d="M 0 4Q 0 0 4 0L 96 0Q 100 0 100 4L 100 46Q 100 50 96 50L 4 50Q 0 50 0 46Z" stroke="none" fill="none"></path><g id="SvgjsG1039"><text id="SvgjsText1040" font-family="&quot;Microsoft YaHei&quot;, 微软雅黑, Arial" text-anchor="middle" font-size="13px" width="80px" fill="#323232" font-weight="700" align="middle" lineHeight="125%" anchor="middle" family="&quot;Microsoft YaHei&quot;, 微软雅黑, Arial" size="13px" weight="700" font-style="" opacity="1" y="14.375" transform="rotate(0)"><tspan id="SvgjsTspan1041" dy="16.25" x="50"><tspan id="SvgjsTspan1042" style="">JIT代码缓存</tspan></tspan></text></g></g><g id="SvgjsG1043" transform="translate(625,25)"><path id="SvgjsPath1044" d="M 0 4Q 0 0 4 0L 96 0Q 100 0 100 4L 100 46Q 100 50 96 50L 4 50Q 0 50 0 46Z" stroke="rgba(190,71,107,1)" stroke-width="1.5" fill-opacity="1" fill="#ffffff"></path><path id="SvgjsPath1045" d="M 7 8.399999999999999L 23 8.399999999999999L 23 20.4L 7 20.4ZM 7 11.399999999999999L 23 11.399999999999999M 7 14.399999999999999L 23 14.399999999999999M 7 17.4L 23 17.4M 11 8.399999999999999L 11 20.4" stroke="rgba(50,50,50,1)" stroke-width="1" fill="none"></path><path id="SvgjsPath1046" d="M 0 4Q 0 0 4 0L 96 0Q 100 0 100 4L 100 46Q 100 50 96 50L 4 50Q 0 50 0 46Z" stroke="none" fill="none"></path><g id="SvgjsG1047"><text id="SvgjsText1048" font-family="&quot;Microsoft YaHei&quot;, 微软雅黑, Arial" text-anchor="middle" font-size="13px" width="80px" fill="#323232" font-weight="700" align="middle" lineHeight="125%" anchor="middle" family="&quot;Microsoft YaHei&quot;, 微软雅黑, Arial" size="13px" weight="700" font-style="" opacity="1" y="14.375" transform="rotate(0)"><tspan id="SvgjsTspan1049" dy="16.25" x="50"><tspan id="SvgjsTspan1050" style="">域信息</tspan></tspan></text></g></g><g id="SvgjsG1051" transform="translate(775,25)"><path id="SvgjsPath1052" d="M 0 4Q 0 0 4 0L 96 0Q 100 0 100 4L 100 46Q 100 50 96 50L 4 50Q 0 50 0 46Z" stroke="rgba(190,71,107,1)" stroke-width="1.5" fill-opacity="1" fill="#ffffff"></path><path id="SvgjsPath1053" d="M 7 8.399999999999999L 23 8.399999999999999L 23 20.4L 7 20.4ZM 7 11.399999999999999L 23 11.399999999999999M 7 14.399999999999999L 23 14.399999999999999M 7 17.4L 23 17.4M 11 8.399999999999999L 11 20.4" stroke="rgba(50,50,50,1)" stroke-width="1" fill="none"></path><path id="SvgjsPath1054" d="M 0 4Q 0 0 4 0L 96 0Q 100 0 100 4L 100 46Q 100 50 96 50L 4 50Q 0 50 0 46Z" stroke="none" fill="none"></path><g id="SvgjsG1055"><text id="SvgjsText1056" font-family="&quot;Microsoft YaHei&quot;, 微软雅黑, Arial" text-anchor="middle" font-size="13px" width="80px" fill="#323232" font-weight="700" align="middle" lineHeight="125%" anchor="middle" family="&quot;Microsoft YaHei&quot;, 微软雅黑, Arial" size="13px" weight="700" font-style="" opacity="1" y="14.375" transform="rotate(0)"><tspan id="SvgjsTspan1057" dy="16.25" x="50"><tspan id="SvgjsTspan1058" style="">方法信息</tspan></tspan></text></g></g><g id="SvgjsG1059" transform="translate(125.5,38)"><path id="SvgjsPath1060" d="M 0 8.085L 36.75 8.085L 36.75 0L 49 12.25L 36.75 24.5L 36.75 16.415000000000003L 0 16.415000000000003L 0 8.085Z" stroke="rgba(75,75,211,1)" stroke-width="1.5" fill-opacity="1" fill="#ffffff"></path><g id="SvgjsG1061"><text id="SvgjsText1062" font-family="&quot;Microsoft YaHei&quot;, 微软雅黑, Arial" text-anchor="middle" font-size="13px" width="49px" fill="#323232" font-weight="400" align="middle" lineHeight="125%" anchor="middle" family="&quot;Microsoft YaHei&quot;, 微软雅黑, Arial" size="13px" weight="400" font-style="" opacity="1" y="1.6250000000000009" transform="rotate(0)"></text></g></g><g id="SvgjsG1063" transform="translate(275.5,38)"><path id="SvgjsPath1064" d="M 0 8.085L 36.75 8.085L 36.75 0L 49 12.25L 36.75 24.5L 36.75 16.415000000000003L 0 16.415000000000003L 0 8.085Z" stroke="rgba(75,75,211,1)" stroke-width="1.5" fill-opacity="1" fill="#ffffff"></path><g id="SvgjsG1065"><text id="SvgjsText1066" font-family="&quot;Microsoft YaHei&quot;, 微软雅黑, Arial" text-anchor="middle" font-size="13px" width="49px" fill="#323232" font-weight="400" align="middle" lineHeight="125%" anchor="middle" family="&quot;Microsoft YaHei&quot;, 微软雅黑, Arial" size="13px" weight="400" font-style="" opacity="1" y="1.6250000000000009" transform="rotate(0)"></text></g></g><g id="SvgjsG1067" transform="translate(425.5,38)"><path id="SvgjsPath1068" d="M 0 8.085L 36.75 8.085L 36.75 0L 49 12.25L 36.75 24.5L 36.75 16.415000000000003L 0 16.415000000000003L 0 8.085Z" stroke="rgba(75,75,211,1)" stroke-width="1.5" fill-opacity="1" fill="#ffffff"></path><g id="SvgjsG1069"><text id="SvgjsText1070" font-family="&quot;Microsoft YaHei&quot;, 微软雅黑, Arial" text-anchor="middle" font-size="13px" width="49px" fill="#323232" font-weight="400" align="middle" lineHeight="125%" anchor="middle" family="&quot;Microsoft YaHei&quot;, 微软雅黑, Arial" size="13px" weight="400" font-style="" opacity="1" y="1.6250000000000009" transform="rotate(0)"></text></g></g><g id="SvgjsG1071" transform="translate(575.5,38)"><path id="SvgjsPath1072" d="M 0 8.085L 36.75 8.085L 36.75 0L 49 12.25L 36.75 24.5L 36.75 16.415000000000003L 0 16.415000000000003L 0 8.085Z" stroke="rgba(75,75,211,1)" stroke-width="1.5" fill-opacity="1" fill="#ffffff"></path><g id="SvgjsG1073"><text id="SvgjsText1074" font-family="&quot;Microsoft YaHei&quot;, 微软雅黑, Arial" text-anchor="middle" font-size="13px" width="49px" fill="#323232" font-weight="400" align="middle" lineHeight="125%" anchor="middle" family="&quot;Microsoft YaHei&quot;, 微软雅黑, Arial" size="13px" weight="400" font-style="" opacity="1" y="1.6250000000000009" transform="rotate(0)"></text></g></g><g id="SvgjsG1075" transform="translate(725.5,38)"><path id="SvgjsPath1076" d="M 0 8.085L 36.75 8.085L 36.75 0L 49 12.25L 36.75 24.5L 36.75 16.415000000000003L 0 16.415000000000003L 0 8.085Z" stroke="rgba(75,75,211,1)" stroke-width="1.5" fill-opacity="1" fill="#ffffff"></path><g id="SvgjsG1077"><text id="SvgjsText1078" font-family="&quot;Microsoft YaHei&quot;, 微软雅黑, Arial" text-anchor="middle" font-size="13px" width="49px" fill="#323232" font-weight="400" align="middle" lineHeight="125%" anchor="middle" family="&quot;Microsoft YaHei&quot;, 微软雅黑, Arial" size="13px" weight="400" font-style="" opacity="1" y="1.6250000000000009" transform="rotate(0)"></text></g></g><g id="SvgjsG1079"></g></svg>