<svg xmlns="http://www.w3.org/2000/svg" xlink="http://www.w3.org/1999/xlink" id="mind-svg-con" version="1.1" width="600px" height="420px" style="position: absolute; left: 0px; top: 0px; width: 600px; height: 420px; background: rgb(251, 245, 224); z-index: 999;"><defs></defs><g id="svgbackgroundid"><defs></defs><rect x="0" y="0" width="600" height="420" fill="#FBF5E0"></rect></g><g transform="translate(-9914, -9735)" id="sdjakdjak3"><defs></defs><g class="svg-topic-con" transform="translate(0.5,0.5)"><path part="right" sub="true" id="line_46ff27c6edaa6bae" d="M 10000 9945 L 10086 9945 L 10086 9822 A 8 8 0 0 1 10094 9814 L 10116 9814" stroke="#6C8C78" fill="none" stroke-width="2"></path><path part="right" sub="true" id="line_54f59ca0ce2b9ddd" d="M 10000 9945 L 10086 9945 L 10086 9996 A 8 8 0 0 0 10094 10004 L 10116 10004" stroke="#6C8C78" fill="none" stroke-width="2"></path></g><g class="svg-connection-con" transform="translate(0.5,0.5)"></g><g class="svg-freesums-con" transform="translate(0.5,0.5)"></g><g class="svg-freebos-con" transform="translate(0.5,0.5)"></g></g><g id="54f59ca0ce2b9ddd"><rect x="202" y="253.203125" rx="16" ry="16" width="80" height="32" style="fill: transparent; stroke:none;stroke-width:0px;"></rect><g><text text-anchor="start" align="top" anchor="start" font-size="14px" font-weight="normal" fill="rgb(70, 99, 80)" style="font-size:14px;font-family:'Microsoft YaHei',微软雅黑,Arial;color:#466350;font-style:normal;text-align:left;font-weight:normal;"><tspan x="214" y="273"><tspan dx="0">逻辑迁移</tspan></tspan></text></g></g><g id="e1d132eb91de6e1b"><rect x="318" y="148" rx="1px" ry="1px" width="126" height="26" style="fill: transparent; stroke:none;stroke-width:0px;"></rect><g><text text-anchor="start" align="top" anchor="start" font-size="12px" font-weight="normal" fill="rgb(70, 99, 80)" style="font-size:12px;font-family:'Microsoft YaHei',微软雅黑,Arial;color:#466350;font-style:normal;text-align:left;font-weight:normal;"><tspan x="327" y="163.16"><tspan dx="0">适用场景：各种场景</tspan></tspan></text></g></g><g id="471980011aeebd68"><rect x="318" y="184" rx="1px" ry="1px" width="222" height="26" style="fill: transparent; stroke:none;stroke-width:0px;"></rect><g><text text-anchor="start" align="top" anchor="start" font-size="12px" font-weight="normal" fill="rgb(70, 99, 80)" style="font-size:12px;font-family:'Microsoft YaHei',微软雅黑,Arial;color:#466350;font-style:normal;text-align:left;font-weight:normal;"><tspan x="327" y="199.16"><tspan dx="0">优点：兼容性高、灵活方便、可跨版本</tspan></tspan></text></g></g><g id="55471626d7e1d05d"><rect x="318" y="220" rx="1px" ry="1px" width="114" height="26" style="fill: transparent; stroke:none;stroke-width:0px;"></rect><g><text text-anchor="start" align="top" anchor="start" font-size="12px" font-weight="normal" fill="rgb(70, 99, 80)" style="font-size:12px;font-family:'Microsoft YaHei',微软雅黑,Arial;color:#466350;font-style:normal;text-align:left;font-weight:normal;"><tspan x="327" y="235.16"><tspan dx="0">缺点：迁移时间长</tspan></tspan></text></g></g><g id="787def7db9dd3521"><rect x="318" y="310" rx="1px" ry="1px" width="66" height="26" style="fill: transparent; stroke:none;stroke-width:0px;"></rect><g><text text-anchor="start" align="top" anchor="start" font-size="12px" font-weight="normal" fill="rgb(70, 99, 80)" style="font-size:12px;font-family:'Microsoft YaHei',微软雅黑,Arial;color:#466350;font-style:normal;text-align:left;font-weight:normal;"><tspan x="327" y="325.15999999999997"><tspan dx="0">几点建议</tspan></tspan></text></g></g><g id="385cc637951ee4d7"><rect x="420" y="256" rx="1px" ry="1px" width="126" height="26" style="fill: transparent; stroke:none;stroke-width:0px;"></rect><g><text text-anchor="start" align="top" anchor="start" font-size="12px" font-weight="normal" fill="rgb(70, 99, 80)" style="font-size:12px;font-family:'Microsoft YaHei',微软雅黑,Arial;color:#466350;font-style:normal;text-align:left;font-weight:normal;"><tspan x="429" y="271.15999999999997"><tspan dx="0">排除不需要迁移的表</tspan></tspan></text></g></g><g id="9accc11d2204bab4"><rect x="420" y="292" rx="1px" ry="1px" width="114" height="26" style="fill: transparent; stroke:none;stroke-width:0px;"></rect><g><text text-anchor="start" align="top" anchor="start" font-size="12px" font-weight="normal" fill="rgb(70, 99, 80)" style="font-size:12px;font-family:'Microsoft YaHei',微软雅黑,Arial;color:#466350;font-style:normal;text-align:left;font-weight:normal;"><tspan x="429" y="307.15999999999997"><tspan dx="0">大表可以单独处理</tspan></tspan></text></g></g><g id="8996bef65619f3c5"><rect x="420" y="328" rx="1px" ry="1px" width="150" height="26" style="fill: transparent; stroke:none;stroke-width:0px;"></rect><g><text text-anchor="start" align="top" anchor="start" font-size="12px" font-weight="normal" fill="rgb(70, 99, 80)" style="font-size:12px;font-family:'Microsoft YaHei',微软雅黑,Arial;color:#466350;font-style:normal;text-align:left;font-weight:normal;"><tspan x="429" y="343.15999999999997"><tspan dx="0">注意数据库用户权限问题</tspan></tspan></text></g></g><g id="63ae0f10eefb1e3b"><rect x="420" y="364" rx="1px" ry="1px" width="90" height="26" style="fill: transparent; stroke:none;stroke-width:0px;"></rect><g><text text-anchor="start" align="top" anchor="start" font-size="12px" font-weight="normal" fill="rgb(70, 99, 80)" style="font-size:12px;font-family:'Microsoft YaHei',微软雅黑,Arial;color:#466350;font-style:normal;text-align:left;font-weight:normal;"><tspan x="429" y="379.15999999999997"><tspan dx="0">迁移后要核实</tspan></tspan></text></g></g><g id="46ff27c6edaa6bae"><rect x="202" y="63.203125" rx="16" ry="16" width="80" height="32" style="fill: transparent; stroke:none;stroke-width:0px;"></rect><g><text text-anchor="start" align="top" anchor="start" font-size="14px" font-weight="normal" fill="rgb(70, 99, 80)" style="font-size:14px;font-family:'Microsoft YaHei',微软雅黑,Arial;color:#466350;font-style:normal;text-align:left;font-weight:normal;"><tspan x="214" y="83"><tspan dx="0">物理迁移</tspan></tspan></text></g></g><g id="1d61ac021de523b1"><rect x="318" y="30" rx="1px" ry="1px" width="198" height="26" style="fill: transparent; stroke:none;stroke-width:0px;"></rect><g><text text-anchor="start" align="top" anchor="start" font-size="12px" font-weight="normal" fill="rgb(70, 99, 80)" style="font-size:12px;font-family:'Microsoft YaHei',微软雅黑,Arial;color:#466350;font-style:normal;text-align:left;font-weight:normal;"><tspan x="327" y="45.16"><tspan dx="0">适用场景：大数据量下的整体迁移</tspan></tspan></text></g></g><g id="de1bd6ae17106106"><rect x="318" y="66" rx="1px" ry="1px" width="114" height="26" style="fill: transparent; stroke:none;stroke-width:0px;"></rect><g><text text-anchor="start" align="top" anchor="start" font-size="12px" font-weight="normal" fill="rgb(70, 99, 80)" style="font-size:12px;font-family:'Microsoft YaHei',微软雅黑,Arial;color:#466350;font-style:normal;text-align:left;font-weight:normal;"><tspan x="327" y="81.16"><tspan dx="0">优点：迁移速度快</tspan></tspan></text></g></g><g id="0f6d4343eaf5b718"><rect x="318" y="102" rx="1px" ry="1px" width="234" height="26" style="fill: transparent; stroke:none;stroke-width:0px;"></rect><g><text text-anchor="start" align="top" anchor="start" font-size="12px" font-weight="normal" fill="rgb(70, 99, 80)" style="font-size:12px;font-family:'Microsoft YaHei',微软雅黑,Arial;color:#466350;font-style:normal;text-align:left;font-weight:normal;"><tspan x="327" y="117.16"><tspan dx="0">缺点：需停机、不灵活、可能有位置错误</tspan></tspan></text></g></g><g transform="translate(202, 148)" id="sdjakdjak0"><g id="subline_54f59ca0ce2b9ddd" transform="translate(0.5, 0.5)"><path id="line_e1d132eb91de6e1b" d="M 80 121 L 98 121 L 98 17 A 4 4 0 0 1 102 13 L 116 13" p="54f59ca0ce2b9ddd" stroke="#6C8C78" fill="none" stroke-linecap="square" stroke-width="2"></path><path id="line_471980011aeebd68" d="M 80 121 L 98 121 L 98 53 A 4 4 0 0 1 102 49 L 116 49" p="54f59ca0ce2b9ddd" stroke="#6C8C78" fill="none" stroke-linecap="square" stroke-width="2"></path><path id="line_55471626d7e1d05d" d="M 80 121 L 98 121 L 98 89 A 4 4 0 0 1 102 85 L 116 85" p="54f59ca0ce2b9ddd" stroke="#6C8C78" fill="none" stroke-linecap="square" stroke-width="2"></path><path id="line_787def7db9dd3521" d="M 80 121 L 98 121 L 98 171 A 4 4 0 0 0 102 175 L 116 175" p="54f59ca0ce2b9ddd" stroke="#6C8C78" fill="none" stroke-linecap="square" stroke-width="2"></path><path id="line_385cc637951ee4d7" d="M 182 175 L 200 175 L 200 125 A 4 4 0 0 1 204 121 L 218 121" p="787def7db9dd3521" stroke="#6C8C78" fill="none" stroke-linecap="square" stroke-width="2"></path><path id="line_9accc11d2204bab4" d="M 182 175 L 200 175 L 200 161 A 4 4 0 0 1 204 157 L 218 157" p="787def7db9dd3521" stroke="#6C8C78" fill="none" stroke-linecap="square" stroke-width="2"></path><path id="line_8996bef65619f3c5" d="M 182 175 L 200 175 L 200 189 A 4 4 0 0 0 204 193 L 218 193" p="787def7db9dd3521" stroke="#6C8C78" fill="none" stroke-linecap="square" stroke-width="2"></path><path id="line_63ae0f10eefb1e3b" d="M 182 175 L 200 175 L 200 225 A 4 4 0 0 0 204 229 L 218 229" p="787def7db9dd3521" stroke="#6C8C78" fill="none" stroke-linecap="square" stroke-width="2"></path></g><g transform="translate(0.5,0.5)"></g><g class="svg-summary-con" transform="translate(0.5,0.5)"></g><g class="svg-boundary-con" transform="translate(0.5,0.5)"></g></g><g transform="translate(202, 30)" id="sdjakdjak1"><g id="subline_46ff27c6edaa6bae" transform="translate(0.5, 0.5)"><path id="line_1d61ac021de523b1" d="M 80 49 L 98 49 L 98 17 A 4 4 0 0 1 102 13 L 116 13" p="46ff27c6edaa6bae" stroke="#6C8C78" fill="none" stroke-linecap="square" stroke-width="2"></path><path id="line_de1bd6ae17106106" d="M 80 49 L 98 49 L 98 49 L 116 49" p="46ff27c6edaa6bae" stroke="#6C8C78" fill="none" stroke-linecap="square" stroke-width="2"></path><path id="line_0f6d4343eaf5b718" d="M 80 49 L 98 49 L 98 81 A 4 4 0 0 0 102 85 L 116 85" p="46ff27c6edaa6bae" stroke="#6C8C78" fill="none" stroke-linecap="square" stroke-width="2"></path></g><g transform="translate(0.5,0.5)"></g><g class="svg-summary-con" transform="translate(0.5,0.5)"></g><g class="svg-boundary-con" transform="translate(0.5,0.5)"></g></g><g transform="translate(30, 185)" id="sdjakdjak2"><g id="subline_root" transform="translate(0.5, 0.5)"></g><g transform="translate(0.5,0.5)"></g><g class="svg-summary-con" transform="translate(0.5,0.5)"></g><g class="svg-boundary-con" transform="translate(0.5,0.5)"></g></g><g id="root"><rect x="30" y="185" rx="6px" ry="6px" width="112" height="50" style="fill: #6C8C78; stroke:none;stroke-width:0px;"></rect><g><text text-anchor="start" align="top" anchor="start" font-size="20px" font-weight="normal" fill="rgb(255, 255, 255)" style="font-size:20px;font-family:'Microsoft YaHei',微软雅黑,Arial;color:#ffffff;font-style:normal;text-align:left;font-weight:normal;"><tspan x="46" y="215"><tspan dx="0">数据迁移</tspan></tspan></text></g></g></svg>