<svg id="SvgjsSvg1006" width="898.2830810546875" height="923.5293807983398" xmlns="http://www.w3.org/2000/svg" version="1.1" xmlns:xlink="http://www.w3.org/1999/xlink" xmlns:svgjs="http://svgjs.com/svgjs"><defs id="SvgjsDefs1007"><pattern patternUnits="userSpaceOnUse" id="pattern_mark_0" width="300" height="300"><text x="150" y="100" fill="rgba(229,229,229,0.8)" font-size="18" transform="rotate(-45, 150, 150)" style="dominant-baseline: middle; text-anchor: middle;"></text></pattern><pattern patternUnits="userSpaceOnUse" id="pattern_mark_1" width="300" height="300"><text x="150" y="200" fill="rgba(229,229,229,0.8)" font-size="18" transform="rotate(-45, 150, 150)" style="dominant-baseline: middle; text-anchor: middle;"></text></pattern><marker id="SvgjsMarker1137" markerWidth="13" markerHeight="9" refX="3.5" refY="4.5" viewBox="0 0 13 9" orient="auto" markerUnits="userSpaceOnUse" stroke-dasharray="0,0"><path id="SvgjsPath1138" d="M13,0 L0,4.5 L13,9 L13,0" fill="#323232" stroke="#323232" stroke-width="1"></path></marker><marker id="SvgjsMarker1139" markerWidth="13" markerHeight="9" refX="9.5" refY="4.5" viewBox="0 0 13 9" orient="auto" markerUnits="userSpaceOnUse" stroke-dasharray="0,0"><path id="SvgjsPath1140" d="M0,0 L13,4.5 L0,9 L0,0" fill="#323232" stroke="#323232" stroke-width="1"></path></marker><marker id="SvgjsMarker1143" markerWidth="13" markerHeight="9" refX="9.5" refY="4.5" viewBox="0 0 13 9" orient="auto" markerUnits="userSpaceOnUse" stroke-dasharray="0,0"><path id="SvgjsPath1144" d="M0,0 L13,4.5 L0,9 L0,0" fill="#323232" stroke="#323232" stroke-width="1"></path></marker><marker id="SvgjsMarker1147" markerWidth="13" markerHeight="9" refX="9.5" refY="4.5" viewBox="0 0 13 9" orient="auto" markerUnits="userSpaceOnUse" stroke-dasharray="0,0"><path id="SvgjsPath1148" d="M0,0 L13,4.5 L0,9 L0,0" fill="#323232" stroke="#323232" stroke-width="1"></path></marker><marker id="SvgjsMarker1151" markerWidth="13" markerHeight="9" refX="9.5" refY="4.5" viewBox="0 0 13 9" orient="auto" markerUnits="userSpaceOnUse" stroke-dasharray="0,0"><path id="SvgjsPath1152" d="M0,0 L13,4.5 L0,9 L0,0" fill="#323232" stroke="#323232" stroke-width="1"></path></marker><marker id="SvgjsMarker1155" markerWidth="13" markerHeight="9" refX="9.5" refY="4.5" viewBox="0 0 13 9" orient="auto" markerUnits="userSpaceOnUse" stroke-dasharray="0,0"><path id="SvgjsPath1156" d="M0,0 L13,4.5 L0,9 L0,0" fill="#323232" stroke="#323232" stroke-width="1"></path></marker><marker id="SvgjsMarker1159" markerWidth="13" markerHeight="9" refX="9.5" refY="4.5" viewBox="0 0 13 9" orient="auto" markerUnits="userSpaceOnUse" stroke-dasharray="0,0"><path id="SvgjsPath1160" d="M0,0 L13,4.5 L0,9 L0,0" fill="#323232" stroke="#323232" stroke-width="1"></path></marker><marker id="SvgjsMarker1163" markerWidth="13" markerHeight="9" refX="9.5" refY="4.5" viewBox="0 0 13 9" orient="auto" markerUnits="userSpaceOnUse" stroke-dasharray="0,0"><path id="SvgjsPath1164" d="M0,0 L13,4.5 L0,9 L0,0" fill="#323232" stroke="#323232" stroke-width="1"></path></marker><marker id="SvgjsMarker1167" markerWidth="13" markerHeight="9" refX="9.5" refY="4.5" viewBox="0 0 13 9" orient="auto" markerUnits="userSpaceOnUse" stroke-dasharray="0,0"><path id="SvgjsPath1168" d="M0,0 L13,4.5 L0,9 L0,0" fill="#323232" stroke="#323232" stroke-width="1"></path></marker><marker id="SvgjsMarker1171" markerWidth="13" markerHeight="9" refX="9.5" refY="4.5" viewBox="0 0 13 9" orient="auto" markerUnits="userSpaceOnUse" stroke-dasharray="0,0"><path id="SvgjsPath1172" d="M0,0 L13,4.5 L0,9 L0,0" fill="#323232" stroke="#323232" stroke-width="1"></path></marker><marker id="SvgjsMarker1175" markerWidth="13" markerHeight="9" refX="9.5" refY="4.5" viewBox="0 0 13 9" orient="auto" markerUnits="userSpaceOnUse" stroke-dasharray="0,0"><path id="SvgjsPath1176" d="M0,0 L13,4.5 L0,9 L0,0" fill="#323232" stroke="#323232" stroke-width="1"></path></marker><marker id="SvgjsMarker1325" markerWidth="13" markerHeight="9" refX="9.5" refY="4.5" viewBox="0 0 13 9" orient="auto" markerUnits="userSpaceOnUse" stroke-dasharray="0,0"><path id="SvgjsPath1326" d="M0,0 L13,4.5 L0,9 L0,0" fill="#323232" stroke="#323232" stroke-width="1"></path></marker><marker id="SvgjsMarker1329" markerWidth="13" markerHeight="9" refX="9.5" refY="4.5" viewBox="0 0 13 9" orient="auto" markerUnits="userSpaceOnUse" stroke-dasharray="0,0"><path id="SvgjsPath1330" d="M0,0 L13,4.5 L0,9 L0,0" fill="#323232" stroke="#323232" stroke-width="1"></path></marker><marker id="SvgjsMarker1333" markerWidth="13" markerHeight="9" refX="9.5" refY="4.5" viewBox="0 0 13 9" orient="auto" markerUnits="userSpaceOnUse" stroke-dasharray="0,0"><path id="SvgjsPath1334" d="M0,0 L13,4.5 L0,9 L0,0" fill="#323232" stroke="#323232" stroke-width="1"></path></marker><marker id="SvgjsMarker1337" markerWidth="13" markerHeight="9" refX="9.5" refY="4.5" viewBox="0 0 13 9" orient="auto" markerUnits="userSpaceOnUse" stroke-dasharray="0,0"><path id="SvgjsPath1338" d="M0,0 L13,4.5 L0,9 L0,0" fill="#323232" stroke="#323232" stroke-width="1"></path></marker><marker id="SvgjsMarker1341" markerWidth="13" markerHeight="9" refX="9.5" refY="4.5" viewBox="0 0 13 9" orient="auto" markerUnits="userSpaceOnUse" stroke-dasharray="0,0"><path id="SvgjsPath1342" d="M0,0 L13,4.5 L0,9 L0,0" fill="#323232" stroke="#323232" stroke-width="1"></path></marker><marker id="SvgjsMarker1345" markerWidth="13" markerHeight="9" refX="9.5" refY="4.5" viewBox="0 0 13 9" orient="auto" markerUnits="userSpaceOnUse" stroke-dasharray="0,0"><path id="SvgjsPath1346" d="M0,0 L13,4.5 L0,9 L0,0" fill="#323232" stroke="#323232" stroke-width="1"></path></marker></defs><rect id="svgbackgroundid" width="898.2830810546875" height="923.5293807983398" fill="transparent"></rect><rect id="SvgjsRect1009" width="898.2830810546875" height="923.5293807983398" fill="url(#pattern_mark_0)"></rect><rect id="SvgjsRect1010" width="898.2830810546875" height="923.5293807983398" fill="url(#pattern_mark_1)"></rect><g id="SvgjsG1011" transform="translate(159.4705810546875,25)"><path id="SvgjsPath1012" d="M 0 0L 513.8235321044922 0L 513.8235321044922 385.1764678955078L 0 385.1764678955078Z" stroke="rgba(33,41,48,1)" stroke-width="1.5" fill-opacity="1" fill="#f6edc1"></path><g id="SvgjsG1013"><text id="SvgjsText1014" font-family="&quot;Comic Sans MS&quot;" text-anchor="middle" font-size="13px" width="494px" fill="#323232" font-weight="400" align="middle" lineHeight="125%" anchor="middle" family="&quot;Comic Sans MS&quot;" size="13px" weight="400" font-style="" opacity="1" y="182.4632339477539" transform="rotate(0)"></text></g></g><g id="SvgjsG1015" transform="translate(291.0477752685547,46.99999237060547)"><path id="SvgjsPath1016" d="M 0 4Q 0 0 4 0L 246 0Q 250 0 250 4L 250 36Q 250 40 246 40L 4 40Q 0 40 0 36Z" stroke="rgba(33,41,48,1)" stroke-width="1.5" fill-opacity="1" fill="#d2d6f9"></path><g id="SvgjsG1017"><text id="SvgjsText1018" font-family="&quot;Comic Sans MS&quot;" text-anchor="middle" font-size="13px" width="230px" fill="#323232" font-weight="400" align="middle" lineHeight="125%" anchor="middle" family="&quot;Comic Sans MS&quot;" size="13px" weight="400" font-style="" opacity="1" y="9.875" transform="rotate(0)"><tspan id="SvgjsTspan1019" dy="16.25" x="125"><tspan id="SvgjsTspan1020" style="">应用服务器</tspan></tspan></text></g></g><g id="SvgjsG1021" transform="translate(362.0477752685547,126.99999237060547)"><path id="SvgjsPath1022" d="M 0 18L 0 60.35C 0 74.55 108 74.55 108 60.35L 108 18C 108 -4.909090909090909 0 -4.909090909090909 0 18ZM 0 18C 0 40.5 108 40.5 108 18C 108 40.5 0 40.5 0 18" stroke="rgba(33,41,48,1)" stroke-width="1.5" fill-opacity="1" fill="#fadded"></path><g id="SvgjsG1023"><text id="SvgjsText1024" font-family="&quot;Comic Sans MS&quot;" text-anchor="middle" font-size="13px" width="108px" fill="#323232" font-weight="400" align="middle" lineHeight="125%" anchor="middle" family="&quot;Comic Sans MS&quot;" size="13px" weight="400" font-style="" opacity="1" y="-4.724999999999998" transform="rotate(0)"><tspan id="SvgjsTspan1025" dy="16.25" x="54"><tspan id="SvgjsTspan1026" style=""> </tspan></tspan><tspan id="SvgjsTspan1027" dy="16.25" x="54"><tspan id="SvgjsTspan1028" style=""> </tspan></tspan><tspan id="SvgjsTspan1029" dy="16.25" x="54"><tspan id="SvgjsTspan1030" style=""> </tspan></tspan><tspan id="SvgjsTspan1031" dy="16.25" x="54"><tspan id="SvgjsTspan1032" style="">数据库中间件</tspan></tspan></text></g></g><g id="SvgjsG1033" transform="translate(371.4705810546875,238.05146026611328)"><path id="SvgjsPath1034" d="M 0 14.970588684082031L 0 48.40000076293945C 0 59.78823623657227 89.82353210449219 59.78823623657227 89.82353210449219 48.40000076293945L 89.82353210449219 14.970588684082031C 89.82353210449219 -4.082887822931463 0 -4.082887822931463 0 14.970588684082031ZM 0 14.970588684082031C 0 33.68382453918457 89.82353210449219 33.68382453918457 89.82353210449219 14.970588684082031C 89.82353210449219 33.68382453918457 0 33.68382453918457 0 14.970588684082031" stroke="rgba(33,41,48,1)" stroke-width="1.5" fill-opacity="1" fill="#fadded"></path><g id="SvgjsG1035"><text id="SvgjsText1036" font-family="&quot;Comic Sans MS&quot;" text-anchor="middle" font-size="13px" width="90px" fill="#323232" font-weight="400" align="middle" lineHeight="125%" anchor="middle" family="&quot;Comic Sans MS&quot;" size="13px" weight="400" font-style="" opacity="1" y="-10.348529052734374" transform="rotate(0)"><tspan id="SvgjsTspan1037" dy="16.25" x="45"><tspan id="SvgjsTspan1038" style=""> </tspan></tspan><tspan id="SvgjsTspan1039" dy="16.25" x="45"><tspan id="SvgjsTspan1040" style=""> </tspan></tspan><tspan id="SvgjsTspan1041" dy="16.25" x="45"><tspan id="SvgjsTspan1042" style=""> </tspan></tspan><tspan id="SvgjsTspan1043" dy="16.25" x="45"><tspan id="SvgjsTspan1044" style=""> </tspan></tspan><tspan id="SvgjsTspan1045" dy="16.25" x="45"><tspan id="SvgjsTspan1046" style="">主机2</tspan></tspan></text></g></g><g id="SvgjsG1047" transform="translate(220.4705810546875,238.05146026611328)"><path id="SvgjsPath1048" d="M 0 14.970588684082031L 0 48.40000076293945C 0 59.78823623657227 89.82353210449219 59.78823623657227 89.82353210449219 48.40000076293945L 89.82353210449219 14.970588684082031C 89.82353210449219 -4.082887822931463 0 -4.082887822931463 0 14.970588684082031ZM 0 14.970588684082031C 0 33.68382453918457 89.82353210449219 33.68382453918457 89.82353210449219 14.970588684082031C 89.82353210449219 33.68382453918457 0 33.68382453918457 0 14.970588684082031" stroke="rgba(33,41,48,1)" stroke-width="1.5" fill-opacity="1" fill="#fadded"></path><g id="SvgjsG1049"><text id="SvgjsText1050" font-family="&quot;Comic Sans MS&quot;" text-anchor="middle" font-size="13px" width="90px" fill="#323232" font-weight="400" align="middle" lineHeight="125%" anchor="middle" family="&quot;Comic Sans MS&quot;" size="13px" weight="400" font-style="" opacity="1" y="-10.348529052734374" transform="rotate(0)"><tspan id="SvgjsTspan1051" dy="16.25" x="45"><tspan id="SvgjsTspan1052" style=""> </tspan></tspan><tspan id="SvgjsTspan1053" dy="16.25" x="45"><tspan id="SvgjsTspan1054" style=""> </tspan></tspan><tspan id="SvgjsTspan1055" dy="16.25" x="45"><tspan id="SvgjsTspan1056" style=""> </tspan></tspan><tspan id="SvgjsTspan1057" dy="16.25" x="45"><tspan id="SvgjsTspan1058" style=""> </tspan></tspan><tspan id="SvgjsTspan1059" dy="16.25" x="45"><tspan id="SvgjsTspan1060" style="">主机1</tspan></tspan></text></g></g><g id="SvgjsG1061" transform="translate(522.4705810546875,238.05146026611328)"><path id="SvgjsPath1062" d="M 0 14.970588684082031L 0 48.40000076293945C 0 59.78823623657227 89.82353210449219 59.78823623657227 89.82353210449219 48.40000076293945L 89.82353210449219 14.970588684082031C 89.82353210449219 -4.082887822931463 0 -4.082887822931463 0 14.970588684082031ZM 0 14.970588684082031C 0 33.68382453918457 89.82353210449219 33.68382453918457 89.82353210449219 14.970588684082031C 89.82353210449219 33.68382453918457 0 33.68382453918457 0 14.970588684082031" stroke="rgba(33,41,48,1)" stroke-width="1.5" fill-opacity="1" fill="#fadded"></path><g id="SvgjsG1063"><text id="SvgjsText1064" font-family="&quot;Comic Sans MS&quot;" text-anchor="middle" font-size="13px" width="90px" fill="#323232" font-weight="400" align="middle" lineHeight="125%" anchor="middle" family="&quot;Comic Sans MS&quot;" size="13px" weight="400" font-style="" opacity="1" y="-10.348529052734374" transform="rotate(0)"><tspan id="SvgjsTspan1065" dy="16.25" x="45"><tspan id="SvgjsTspan1066" style=""> </tspan></tspan><tspan id="SvgjsTspan1067" dy="16.25" x="45"><tspan id="SvgjsTspan1068" style=""> </tspan></tspan><tspan id="SvgjsTspan1069" dy="16.25" x="45"><tspan id="SvgjsTspan1070" style=""> </tspan></tspan><tspan id="SvgjsTspan1071" dy="16.25" x="45"><tspan id="SvgjsTspan1072" style=""> </tspan></tspan><tspan id="SvgjsTspan1073" dy="16.25" x="45"><tspan id="SvgjsTspan1074" style="">主机3</tspan></tspan></text></g></g><g id="SvgjsG1075" transform="translate(192.4705810546875,334.99999237060547)"><path id="SvgjsPath1076" d="M 0 10.470588684082031L 0 38.20000076293945C 0 47.188236236572266 62.82353210449219 47.188236236572266 62.82353210449219 38.20000076293945L 62.82353210449219 10.470588684082031C 62.82353210449219 -2.855615095658736 0 -2.855615095658736 0 10.470588684082031ZM 0 10.470588684082031C 0 23.55882453918457 62.82353210449219 23.55882453918457 62.82353210449219 10.470588684082031C 62.82353210449219 23.55882453918457 0 23.55882453918457 0 10.470588684082031" stroke="rgba(33,41,48,1)" stroke-width="1.5" fill-opacity="1" fill="#fadded"></path><g id="SvgjsG1077"><text id="SvgjsText1078" font-family="&quot;Comic Sans MS&quot;" text-anchor="middle" font-size="13px" width="63px" fill="#323232" font-weight="400" align="middle" lineHeight="125%" anchor="middle" family="&quot;Comic Sans MS&quot;" size="13px" weight="400" font-style="" opacity="1" y="-7.648529052734375" transform="rotate(0)"><tspan id="SvgjsTspan1079" dy="16.25" x="31.5"><tspan id="SvgjsTspan1080" style=""> </tspan></tspan><tspan id="SvgjsTspan1081" dy="16.25" x="31.5"><tspan id="SvgjsTspan1082" style=""> </tspan></tspan><tspan id="SvgjsTspan1083" dy="16.25" x="31.5"><tspan id="SvgjsTspan1084" style="">分片1</tspan></tspan></text></g></g><g id="SvgjsG1085" transform="translate(275.4705810546875,334.99999237060547)"><path id="SvgjsPath1086" d="M 0 10.470588684082031L 0 38.20000076293945C 0 47.188236236572266 62.82353210449219 47.188236236572266 62.82353210449219 38.20000076293945L 62.82353210449219 10.470588684082031C 62.82353210449219 -2.855615095658736 0 -2.855615095658736 0 10.470588684082031ZM 0 10.470588684082031C 0 23.55882453918457 62.82353210449219 23.55882453918457 62.82353210449219 10.470588684082031C 62.82353210449219 23.55882453918457 0 23.55882453918457 0 10.470588684082031" stroke="rgba(33,41,48,1)" stroke-width="1.5" fill-opacity="1" fill="#fadded"></path><g id="SvgjsG1087"><text id="SvgjsText1088" font-family="&quot;Comic Sans MS&quot;" text-anchor="middle" font-size="13px" width="63px" fill="#323232" font-weight="400" align="middle" lineHeight="125%" anchor="middle" family="&quot;Comic Sans MS&quot;" size="13px" weight="400" font-style="" opacity="1" y="-7.648529052734375" transform="rotate(0)"><tspan id="SvgjsTspan1089" dy="16.25" x="31.5"><tspan id="SvgjsTspan1090" style=""> </tspan></tspan><tspan id="SvgjsTspan1091" dy="16.25" x="31.5"><tspan id="SvgjsTspan1092" style=""> </tspan></tspan><tspan id="SvgjsTspan1093" dy="16.25" x="31.5"><tspan id="SvgjsTspan1094" style="">分片2</tspan></tspan></text></g></g><g id="SvgjsG1095" transform="translate(343.4705810546875,334.99999237060547)"><path id="SvgjsPath1096" d="M 0 10.470588684082031L 0 38.20000076293945C 0 47.188236236572266 62.82353210449219 47.188236236572266 62.82353210449219 38.20000076293945L 62.82353210449219 10.470588684082031C 62.82353210449219 -2.855615095658736 0 -2.855615095658736 0 10.470588684082031ZM 0 10.470588684082031C 0 23.55882453918457 62.82353210449219 23.55882453918457 62.82353210449219 10.470588684082031C 62.82353210449219 23.55882453918457 0 23.55882453918457 0 10.470588684082031" stroke="rgba(33,41,48,1)" stroke-width="1.5" fill-opacity="1" fill="#fadded"></path><g id="SvgjsG1097"><text id="SvgjsText1098" font-family="&quot;Comic Sans MS&quot;" text-anchor="middle" font-size="13px" width="63px" fill="#323232" font-weight="400" align="middle" lineHeight="125%" anchor="middle" family="&quot;Comic Sans MS&quot;" size="13px" weight="400" font-style="" opacity="1" y="-7.648529052734375" transform="rotate(0)"><tspan id="SvgjsTspan1099" dy="16.25" x="31.5"><tspan id="SvgjsTspan1100" style=""> </tspan></tspan><tspan id="SvgjsTspan1101" dy="16.25" x="31.5"><tspan id="SvgjsTspan1102" style=""> </tspan></tspan><tspan id="SvgjsTspan1103" dy="16.25" x="31.5"><tspan id="SvgjsTspan1104" style="">分片3</tspan></tspan></text></g></g><g id="SvgjsG1105" transform="translate(426.4705810546875,334.99999237060547)"><path id="SvgjsPath1106" d="M 0 10.470588684082031L 0 38.20000076293945C 0 47.188236236572266 62.82353210449219 47.188236236572266 62.82353210449219 38.20000076293945L 62.82353210449219 10.470588684082031C 62.82353210449219 -2.855615095658736 0 -2.855615095658736 0 10.470588684082031ZM 0 10.470588684082031C 0 23.55882453918457 62.82353210449219 23.55882453918457 62.82353210449219 10.470588684082031C 62.82353210449219 23.55882453918457 0 23.55882453918457 0 10.470588684082031" stroke="rgba(33,41,48,1)" stroke-width="1.5" fill-opacity="1" fill="#fadded"></path><g id="SvgjsG1107"><text id="SvgjsText1108" font-family="&quot;Comic Sans MS&quot;" text-anchor="middle" font-size="13px" width="63px" fill="#323232" font-weight="400" align="middle" lineHeight="125%" anchor="middle" family="&quot;Comic Sans MS&quot;" size="13px" weight="400" font-style="" opacity="1" y="-7.648529052734375" transform="rotate(0)"><tspan id="SvgjsTspan1109" dy="16.25" x="31.5"><tspan id="SvgjsTspan1110" style=""> </tspan></tspan><tspan id="SvgjsTspan1111" dy="16.25" x="31.5"><tspan id="SvgjsTspan1112" style=""> </tspan></tspan><tspan id="SvgjsTspan1113" dy="16.25" x="31.5"><tspan id="SvgjsTspan1114" style="">分片4</tspan></tspan></text></g></g><g id="SvgjsG1115" transform="translate(494.4705810546875,334.99999237060547)"><path id="SvgjsPath1116" d="M 0 10.470588684082031L 0 38.20000076293945C 0 47.188236236572266 62.82353210449219 47.188236236572266 62.82353210449219 38.20000076293945L 62.82353210449219 10.470588684082031C 62.82353210449219 -2.855615095658736 0 -2.855615095658736 0 10.470588684082031ZM 0 10.470588684082031C 0 23.55882453918457 62.82353210449219 23.55882453918457 62.82353210449219 10.470588684082031C 62.82353210449219 23.55882453918457 0 23.55882453918457 0 10.470588684082031" stroke="rgba(33,41,48,1)" stroke-width="1.5" fill-opacity="1" fill="#fadded"></path><g id="SvgjsG1117"><text id="SvgjsText1118" font-family="&quot;Comic Sans MS&quot;" text-anchor="middle" font-size="13px" width="63px" fill="#323232" font-weight="400" align="middle" lineHeight="125%" anchor="middle" family="&quot;Comic Sans MS&quot;" size="13px" weight="400" font-style="" opacity="1" y="-7.648529052734375" transform="rotate(0)"><tspan id="SvgjsTspan1119" dy="16.25" x="31.5"><tspan id="SvgjsTspan1120" style=""> </tspan></tspan><tspan id="SvgjsTspan1121" dy="16.25" x="31.5"><tspan id="SvgjsTspan1122" style=""> </tspan></tspan><tspan id="SvgjsTspan1123" dy="16.25" x="31.5"><tspan id="SvgjsTspan1124" style="">分片5</tspan></tspan></text></g></g><g id="SvgjsG1125" transform="translate(577.4705810546875,334.99999237060547)"><path id="SvgjsPath1126" d="M 0 10.470588684082031L 0 38.20000076293945C 0 47.188236236572266 62.82353210449219 47.188236236572266 62.82353210449219 38.20000076293945L 62.82353210449219 10.470588684082031C 62.82353210449219 -2.855615095658736 0 -2.855615095658736 0 10.470588684082031ZM 0 10.470588684082031C 0 23.55882453918457 62.82353210449219 23.55882453918457 62.82353210449219 10.470588684082031C 62.82353210449219 23.55882453918457 0 23.55882453918457 0 10.470588684082031" stroke="rgba(33,41,48,1)" stroke-width="1.5" fill-opacity="1" fill="#fadded"></path><g id="SvgjsG1127"><text id="SvgjsText1128" font-family="&quot;Comic Sans MS&quot;" text-anchor="middle" font-size="13px" width="63px" fill="#323232" font-weight="400" align="middle" lineHeight="125%" anchor="middle" family="&quot;Comic Sans MS&quot;" size="13px" weight="400" font-style="" opacity="1" y="-7.648529052734375" transform="rotate(0)"><tspan id="SvgjsTspan1129" dy="16.25" x="31.5"><tspan id="SvgjsTspan1130" style=""> </tspan></tspan><tspan id="SvgjsTspan1131" dy="16.25" x="31.5"><tspan id="SvgjsTspan1132" style=""> </tspan></tspan><tspan id="SvgjsTspan1133" dy="16.25" x="31.5"><tspan id="SvgjsTspan1134" style="">分片6</tspan></tspan></text></g></g><g id="SvgjsG1135"><path id="SvgjsPath1136" d="M416.0477752685547 89.69999237060547L416.0477752685547 107.01285934448242L416.0477752685547 107.01285934448242L416.0477752685547 124.32572631835939" stroke="#323232" stroke-width="1.5" fill="none" marker-start="url(#SvgjsMarker1137)" marker-end="url(#SvgjsMarker1139)"></path></g><g id="SvgjsG1141"><path id="SvgjsPath1142" d="M415.32291766635103 198.21829177872954L267.9918344748667 237.3582246087807" stroke="#323232" stroke-width="1.5" fill="none" marker-end="url(#SvgjsMarker1143)"></path></g><g id="SvgjsG1145"><path id="SvgjsPath1146" d="M416.0477752685547 198.77572631835938L416.0477752685547 235.3514602661133" stroke="#323232" stroke-width="1.5" fill="none" marker-end="url(#SvgjsMarker1147)"></path></g><g id="SvgjsG1149"><path id="SvgjsPath1150" d="M416.7728437804286 198.21749611026885L564.7721004641877 237.36108901523912" stroke="#323232" stroke-width="1.5" fill="none" marker-end="url(#SvgjsMarker1151)"></path></g><g id="SvgjsG1153"><path id="SvgjsPath1154" d="M264.8423956123961 295.51316850132247L225.82617248726854 333.1260812492431" stroke="#323232" stroke-width="1.5" fill="none" marker-end="url(#SvgjsMarker1155)"></path></g><g id="SvgjsG1157"><path id="SvgjsPath1158" d="M265.9222986014711 295.51316850132247L304.93852172659865 333.1260812492431" stroke="#323232" stroke-width="1.5" fill="none" marker-end="url(#SvgjsMarker1159)"></path></g><g id="SvgjsG1161"><path id="SvgjsPath1162" d="M415.8423956123961 295.51316850132247L376.82617248726854 333.1260812492431" stroke="#323232" stroke-width="1.5" fill="none" marker-end="url(#SvgjsMarker1163)"></path></g><g id="SvgjsG1165"><path id="SvgjsPath1166" d="M416.9222986014711 295.51316850132247L455.93852172659865 333.1260812492431" stroke="#323232" stroke-width="1.5" fill="none" marker-end="url(#SvgjsMarker1167)"></path></g><g id="SvgjsG1169"><path id="SvgjsPath1170" d="M566.8423956123961 295.51316850132247L527.8261724872685 333.1260812492431" stroke="#323232" stroke-width="1.5" fill="none" marker-end="url(#SvgjsMarker1171)"></path></g><g id="SvgjsG1173"><path id="SvgjsPath1174" d="M567.9222986014711 295.51316850132247L606.9385217265987 333.1260812492431" stroke="#323232" stroke-width="1.5" fill="none" marker-end="url(#SvgjsMarker1175)"></path></g><g id="SvgjsG1177" transform="translate(111.11764526367188,505.0514602661133)"><path id="SvgjsPath1178" d="M 0 0L 100 0L 100 130.05881881713867L 0 130.05881881713867Z" stroke="rgba(33,41,48,1)" stroke-width="1.5" fill-opacity="1" fill="#a6aef3"></path><g id="SvgjsG1179"><text id="SvgjsText1180" font-family="&quot;Comic Sans MS&quot;" text-anchor="middle" font-size="13px" width="80px" fill="#323232" font-weight="400" align="middle" lineHeight="125%" anchor="middle" family="&quot;Comic Sans MS&quot;" size="13px" weight="400" font-style="" opacity="1" y="54.904409408569336" transform="rotate(0)"><tspan id="SvgjsTspan1181" dy="16.25" x="50"><tspan id="SvgjsTspan1182" style="">表</tspan></tspan></text></g></g><g id="SvgjsG1183" transform="translate(111.11764526367188,688.0514602661133)"><path id="SvgjsPath1184" d="M 0 0L 100 0L 100 130.05881881713867L 0 130.05881881713867Z" stroke="rgba(33,41,48,1)" stroke-width="1.5" fill-opacity="1" fill="#a6aef3"></path><g id="SvgjsG1185"><text id="SvgjsText1186" font-family="&quot;Comic Sans MS&quot;" text-anchor="middle" font-size="13px" width="80px" fill="#323232" font-weight="400" align="middle" lineHeight="125%" anchor="middle" family="&quot;Comic Sans MS&quot;" size="13px" weight="400" font-style="" opacity="1" y="54.904409408569336" transform="rotate(0)"><tspan id="SvgjsTspan1187" dy="16.25" x="50"><tspan id="SvgjsTspan1188" style="">表</tspan></tspan></text></g></g><g id="SvgjsG1189" transform="translate(310.0477752685547,504.5882263183594)"><path id="SvgjsPath1190" d="M 0 0L 234.7646942138672 0L 234.7646942138672 313.94115447998047L 0 313.94115447998047Z" stroke="rgba(33,41,48,1)" stroke-width="1.5" fill-opacity="1" fill="#e7ebed"></path><g id="SvgjsG1191"><text id="SvgjsText1192" font-family="&quot;Comic Sans MS&quot;" text-anchor="middle" font-size="13px" width="215px" fill="#323232" font-weight="400" align="middle" lineHeight="125%" anchor="middle" family="&quot;Comic Sans MS&quot;" size="13px" weight="400" font-style="" opacity="1" y="146.84557723999023" transform="rotate(0)"></text></g></g><g id="SvgjsG1193" transform="translate(325.7646942138672,538.5293807983398)"><path id="SvgjsPath1194" d="M 0 0L 79.82353210449219 0L 79.82353210449219 40L 0 40Z" stroke="rgba(33,41,48,1)" stroke-width="1.5" fill-opacity="1" fill="#f6edc1"></path><g id="SvgjsG1195"><text id="SvgjsText1196" font-family="&quot;Comic Sans MS&quot;" text-anchor="middle" font-size="13px" width="60px" fill="#323232" font-weight="400" align="middle" lineHeight="125%" anchor="middle" family="&quot;Comic Sans MS&quot;" size="13px" weight="400" font-style="" opacity="1" y="9.875" transform="rotate(0)"><tspan id="SvgjsTspan1197" dy="16.25" x="40"><tspan id="SvgjsTspan1198" style="">表</tspan></tspan></text></g></g><g id="SvgjsG1199" transform="translate(325.7646942138672,609.4019311269125)"><path id="SvgjsPath1200" d="M 0 0L 79.82353210449219 0L 79.82353210449219 40L 0 40Z" stroke="rgba(33,41,48,1)" stroke-width="1.5" fill-opacity="1" fill="#f6edc1"></path><g id="SvgjsG1201"><text id="SvgjsText1202" font-family="&quot;Comic Sans MS&quot;" text-anchor="middle" font-size="13px" width="60px" fill="#323232" font-weight="400" align="middle" lineHeight="125%" anchor="middle" family="&quot;Comic Sans MS&quot;" size="13px" weight="400" font-style="" opacity="1" y="9.875" transform="rotate(0)"><tspan id="SvgjsTspan1203" dy="16.25" x="40"><tspan id="SvgjsTspan1204" style="">表</tspan></tspan></text></g></g><g id="SvgjsG1205" transform="translate(325.7646942138672,680.2744814554851)"><path id="SvgjsPath1206" d="M 0 0L 79.82353210449219 0L 79.82353210449219 40L 0 40Z" stroke="none" fill="none"></path><g id="SvgjsG1207"><text id="SvgjsText1208" font-family="&quot;Comic Sans MS&quot;" text-anchor="middle" font-size="13px" width="60px" fill="#323232" font-weight="400" align="middle" lineHeight="125%" anchor="middle" family="&quot;Comic Sans MS&quot;" size="13px" weight="400" font-style="" opacity="1" y="-5.625" transform="rotate(0)"><tspan id="SvgjsTspan1209" dy="16.25" x="40"><tspan id="SvgjsTspan1210" style="">•</tspan></tspan><tspan id="SvgjsTspan1211" dy="16.25" x="40"><tspan id="SvgjsTspan1212" style="">•</tspan></tspan><tspan id="SvgjsTspan1213" dy="16.25" x="40"><tspan id="SvgjsTspan1214" style="">•</tspan></tspan></text></g></g><g id="SvgjsG1215" transform="translate(325.7646942138672,751.1470317840577)"><path id="SvgjsPath1216" d="M 0 0L 79.82353210449219 0L 79.82353210449219 40L 0 40Z" stroke="rgba(33,41,48,1)" stroke-width="1.5" fill-opacity="1" fill="#f6edc1"></path><g id="SvgjsG1217"><text id="SvgjsText1218" font-family="&quot;Comic Sans MS&quot;" text-anchor="middle" font-size="13px" width="60px" fill="#323232" font-weight="400" align="middle" lineHeight="125%" anchor="middle" family="&quot;Comic Sans MS&quot;" size="13px" weight="400" font-style="" opacity="1" y="9.875" transform="rotate(0)"><tspan id="SvgjsTspan1219" dy="16.25" x="40"><tspan id="SvgjsTspan1220" style="">表</tspan></tspan></text></g></g><g id="SvgjsG1221" transform="translate(449.7646942138672,538.5293807983398)"><path id="SvgjsPath1222" d="M 0 0L 79.82353210449219 0L 79.82353210449219 40L 0 40Z" stroke="rgba(33,41,48,1)" stroke-width="1.5" fill-opacity="1" fill="#fadcdb"></path><g id="SvgjsG1223"><text id="SvgjsText1224" font-family="&quot;Comic Sans MS&quot;" text-anchor="middle" font-size="13px" width="60px" fill="#323232" font-weight="400" align="middle" lineHeight="125%" anchor="middle" family="&quot;Comic Sans MS&quot;" size="13px" weight="400" font-style="" opacity="1" y="9.875" transform="rotate(0)"><tspan id="SvgjsTspan1225" dy="16.25" x="40"><tspan id="SvgjsTspan1226" style="">表</tspan></tspan></text></g></g><g id="SvgjsG1227" transform="translate(449.7646942138672,609.4019311269125)"><path id="SvgjsPath1228" d="M 0 0L 79.82353210449219 0L 79.82353210449219 40L 0 40Z" stroke="rgba(33,41,48,1)" stroke-width="1.5" fill-opacity="1" fill="#fadcdb"></path><g id="SvgjsG1229"><text id="SvgjsText1230" font-family="&quot;Comic Sans MS&quot;" text-anchor="middle" font-size="13px" width="60px" fill="#323232" font-weight="400" align="middle" lineHeight="125%" anchor="middle" family="&quot;Comic Sans MS&quot;" size="13px" weight="400" font-style="" opacity="1" y="9.875" transform="rotate(0)"><tspan id="SvgjsTspan1231" dy="16.25" x="40"><tspan id="SvgjsTspan1232" style="">表</tspan></tspan></text></g></g><g id="SvgjsG1233" transform="translate(449.7646942138672,680.2744814554851)"><path id="SvgjsPath1234" d="M 0 0L 79.82353210449219 0L 79.82353210449219 40L 0 40Z" stroke="none" fill="none"></path><g id="SvgjsG1235"><text id="SvgjsText1236" font-family="&quot;Comic Sans MS&quot;" text-anchor="middle" font-size="13px" width="60px" fill="#323232" font-weight="400" align="middle" lineHeight="125%" anchor="middle" family="&quot;Comic Sans MS&quot;" size="13px" weight="400" font-style="" opacity="1" y="-5.625" transform="rotate(0)"><tspan id="SvgjsTspan1237" dy="16.25" x="40"><tspan id="SvgjsTspan1238" style="">•</tspan></tspan><tspan id="SvgjsTspan1239" dy="16.25" x="40"><tspan id="SvgjsTspan1240" style="">•</tspan></tspan><tspan id="SvgjsTspan1241" dy="16.25" x="40"><tspan id="SvgjsTspan1242" style="">•</tspan></tspan></text></g></g><g id="SvgjsG1243" transform="translate(449.7646942138672,751.1470317840577)"><path id="SvgjsPath1244" d="M 0 0L 79.82353210449219 0L 79.82353210449219 40L 0 40Z" stroke="rgba(33,41,48,1)" stroke-width="1.5" fill-opacity="1" fill="#fadcdb"></path><g id="SvgjsG1245"><text id="SvgjsText1246" font-family="&quot;Comic Sans MS&quot;" text-anchor="middle" font-size="13px" width="60px" fill="#323232" font-weight="400" align="middle" lineHeight="125%" anchor="middle" family="&quot;Comic Sans MS&quot;" size="13px" weight="400" font-style="" opacity="1" y="9.875" transform="rotate(0)"><tspan id="SvgjsTspan1247" dy="16.25" x="40"><tspan id="SvgjsTspan1248" style="">表</tspan></tspan></text></g></g><g id="SvgjsG1249" transform="translate(626.0477752685547,518.5293807983398)"><path id="SvgjsPath1250" d="M 0 11.666666666666666L 0 68C 0 84 70 84 70 68L 70 11.666666666666666C 70 -3.1818181818181817 0 -3.1818181818181817 0 11.666666666666666ZM 0 11.666666666666666C 0 26.25 70 26.25 70 11.666666666666666C 70 26.25 0 26.25 0 11.666666666666666" stroke="rgba(33,41,48,1)" stroke-width="1.5" fill-opacity="1" fill="#a6aef3"></path><g id="SvgjsG1251"><text id="SvgjsText1252" font-family="&quot;Comic Sans MS&quot;" text-anchor="middle" font-size="13px" width="70px" fill="#323232" font-weight="400" align="middle" lineHeight="125%" anchor="middle" family="&quot;Comic Sans MS&quot;" size="13px" weight="400" font-style="" opacity="1" y="6.375" transform="rotate(0)"><tspan id="SvgjsTspan1253" dy="16.25" x="35"><tspan id="SvgjsTspan1254" style=""> </tspan></tspan><tspan id="SvgjsTspan1255" dy="16.25" x="35"><tspan id="SvgjsTspan1256" style=""> </tspan></tspan><tspan id="SvgjsTspan1257" dy="16.25" x="35"><tspan id="SvgjsTspan1258" style="">dn1</tspan></tspan></text></g></g><g id="SvgjsG1259" transform="translate(626.0477752685547,621.5293807983398)"><path id="SvgjsPath1260" d="M 0 11.666666666666666L 0 68C 0 84 70 84 70 68L 70 11.666666666666666C 70 -3.1818181818181817 0 -3.1818181818181817 0 11.666666666666666ZM 0 11.666666666666666C 0 26.25 70 26.25 70 11.666666666666666C 70 26.25 0 26.25 0 11.666666666666666" stroke="rgba(33,41,48,1)" stroke-width="1.5" fill-opacity="1" fill="#a6aef3"></path><g id="SvgjsG1261"><text id="SvgjsText1262" font-family="&quot;Comic Sans MS&quot;" text-anchor="middle" font-size="13px" width="70px" fill="#323232" font-weight="400" align="middle" lineHeight="125%" anchor="middle" family="&quot;Comic Sans MS&quot;" size="13px" weight="400" font-style="" opacity="1" y="6.375" transform="rotate(0)"><tspan id="SvgjsTspan1263" dy="16.25" x="35"><tspan id="SvgjsTspan1264" style=""> </tspan></tspan><tspan id="SvgjsTspan1265" dy="16.25" x="35"><tspan id="SvgjsTspan1266" style=""> </tspan></tspan><tspan id="SvgjsTspan1267" dy="16.25" x="35"><tspan id="SvgjsTspan1268" style="">dn1</tspan></tspan></text></g></g><g id="SvgjsG1269" transform="translate(626.0477752685547,724.5293807983398)"><path id="SvgjsPath1270" d="M 0 11.666666666666666L 0 68C 0 84 70 84 70 68L 70 11.666666666666666C 70 -3.1818181818181817 0 -3.1818181818181817 0 11.666666666666666ZM 0 11.666666666666666C 0 26.25 70 26.25 70 11.666666666666666C 70 26.25 0 26.25 0 11.666666666666666" stroke="rgba(33,41,48,1)" stroke-width="1.5" fill-opacity="1" fill="#a6aef3"></path><g id="SvgjsG1271"><text id="SvgjsText1272" font-family="&quot;Comic Sans MS&quot;" text-anchor="middle" font-size="13px" width="70px" fill="#323232" font-weight="400" align="middle" lineHeight="125%" anchor="middle" family="&quot;Comic Sans MS&quot;" size="13px" weight="400" font-style="" opacity="1" y="6.375" transform="rotate(0)"><tspan id="SvgjsTspan1273" dy="16.25" x="35"><tspan id="SvgjsTspan1274" style=""> </tspan></tspan><tspan id="SvgjsTspan1275" dy="16.25" x="35"><tspan id="SvgjsTspan1276" style=""> </tspan></tspan><tspan id="SvgjsTspan1277" dy="16.25" x="35"><tspan id="SvgjsTspan1278" style="">dn1</tspan></tspan></text></g></g><g id="SvgjsG1279" transform="translate(777.2830810546875,634.5293807983398)"><path id="SvgjsPath1280" d="M 0 0L 96 0L 96 54L 0 54Z" stroke="rgba(33,41,48,1)" stroke-width="1.5" fill-opacity="1" fill="#a7932c"></path><g id="SvgjsG1281"><text id="SvgjsText1282" font-family="&quot;Comic Sans MS&quot;" text-anchor="middle" font-size="13px" width="76px" fill="#323232" font-weight="400" align="middle" lineHeight="125%" anchor="middle" family="&quot;Comic Sans MS&quot;" size="13px" weight="400" font-style="" opacity="1" y="16.875" transform="rotate(0)"><tspan id="SvgjsTspan1283" dy="16.25" x="48"><tspan id="SvgjsTspan1284" style="">Mycat</tspan></tspan></text></g></g><g id="SvgjsG1285"><path id="SvgjsPath1286" d="M84.3529281616211 597.1176357269287L164.3529281616211 597.1176357269287L164.3529281616211 597.1176357269287L244.3529281616211 597.1176357269287" stroke="#a7932c" stroke-width="3" fill="none"></path></g><g id="SvgjsG1287"><path id="SvgjsPath1288" d="M84.3529281616211 542.1176357269287L164.3529281616211 542.1176357269287L164.3529281616211 542.1176357269287L244.3529281616211 542.1176357269287" stroke="#a7932c" stroke-width="3" fill="none"></path></g><g id="SvgjsG1289"><path id="SvgjsPath1290" d="M160.17645263671875 660.9999771118164L160.17645263671875 752.7646789550781L160.17645263671875 752.7646789550781L160.17645263671875 844.5293807983398" stroke="#a7932c" stroke-width="3" fill="none"></path></g><g id="SvgjsG1291"><path id="SvgjsPath1292" d="M426.8235168457031 482.9999771118164L426.8235168457031 656.1470413208008L426.8235168457031 656.1470413208008L426.8235168457031 829.2941055297852" stroke="#a7932c" stroke-width="3" fill="none"></path></g><g id="SvgjsG1293" transform="translate(111.11764526367188,471.29410552978516)"><path id="SvgjsPath1294" d="M 0 0L 100 0L 100 40L 0 40Z" stroke="none" fill="none"></path><g id="SvgjsG1295"><text id="SvgjsText1296" font-family="&quot;Microsoft YaHei&quot;, 微软雅黑, Arial" text-anchor="middle" font-size="13px" width="100px" fill="#323232" font-weight="400" align="middle" lineHeight="125%" anchor="middle" family="&quot;Microsoft YaHei&quot;, 微软雅黑, Arial" size="13px" weight="400" font-style="" opacity="1" y="9.875" transform="rotate(0)"><tspan id="SvgjsTspan1297" dy="16.25" x="50"><tspan id="SvgjsTspan1298" style="">千万级数据量</tspan></tspan></text></g></g><g id="SvgjsG1299" transform="translate(405.4301223754883,431.29410552978516)"><path id="SvgjsPath1300" d="M 0 0L 44 0L 44 40L 0 40Z" stroke="none" fill="none"></path><g id="SvgjsG1301"><text id="SvgjsText1302" font-family="&quot;Microsoft YaHei&quot;, 微软雅黑, Arial" text-anchor="middle" font-size="15px" width="44px" fill="#323232" font-weight="400" align="middle" lineHeight="125%" anchor="middle" family="&quot;Microsoft YaHei&quot;, 微软雅黑, Arial" size="15px" weight="400" font-style="" opacity="1" y="8.125" transform="rotate(0)"><tspan id="SvgjsTspan1303" dy="18.75" x="22"><tspan id="SvgjsTspan1304" style="font-weight: bold;">分库</tspan></tspan></text></g></g><g id="SvgjsG1305" transform="translate(139.11764526367188,858.5293807983398)"><path id="SvgjsPath1306" d="M 0 0L 44 0L 44 40L 0 40Z" stroke="none" fill="none"></path><g id="SvgjsG1307"><text id="SvgjsText1308" font-family="&quot;Microsoft YaHei&quot;, 微软雅黑, Arial" text-anchor="middle" font-size="15px" width="44px" fill="#323232" font-weight="400" align="middle" lineHeight="125%" anchor="middle" family="&quot;Microsoft YaHei&quot;, 微软雅黑, Arial" size="15px" weight="400" font-style="" opacity="1" y="8.125" transform="rotate(0)"><tspan id="SvgjsTspan1309" dy="18.75" x="22"><tspan id="SvgjsTspan1310" style="font-weight: bold;">分表</tspan></tspan></text></g></g><g id="SvgjsG1311" transform="translate(25,569.4019311269125)"><path id="SvgjsPath1312" d="M 0 0L 44 0L 44 40L 0 40Z" stroke="none" fill="none"></path><g id="SvgjsG1313"><text id="SvgjsText1314" font-family="&quot;Microsoft YaHei&quot;, 微软雅黑, Arial" text-anchor="middle" font-size="15px" width="44px" fill="#323232" font-weight="400" align="middle" lineHeight="125%" anchor="middle" family="&quot;Microsoft YaHei&quot;, 微软雅黑, Arial" size="15px" weight="400" font-style="" opacity="1" y="8.125" transform="rotate(0)"><tspan id="SvgjsTspan1315" dy="18.75" x="22"><tspan id="SvgjsTspan1316" style="font-weight: bold;">分表</tspan></tspan></text></g></g><g id="SvgjsG1317" transform="translate(25,518.5293807983398)"><path id="SvgjsPath1318" d="M 0 0L 44 0L 44 40L 0 40Z" stroke="none" fill="none"></path><g id="SvgjsG1319"><text id="SvgjsText1320" font-family="&quot;Microsoft YaHei&quot;, 微软雅黑, Arial" text-anchor="middle" font-size="15px" width="44px" fill="#323232" font-weight="400" align="middle" lineHeight="125%" anchor="middle" family="&quot;Microsoft YaHei&quot;, 微软雅黑, Arial" size="15px" weight="400" font-style="" opacity="1" y="8.125" transform="rotate(0)"><tspan id="SvgjsTspan1321" dy="18.75" x="22"><tspan id="SvgjsTspan1322" style="font-weight: bold;">分表</tspan></tspan></text></g></g><g id="SvgjsG1323"><path id="SvgjsPath1324" d="M776.8186313648832 660.9404949981708L697.7197941518501 560.6493696789483" stroke="#323232" stroke-width="1.5" fill="none" marker-end="url(#SvgjsMarker1325)"></path></g><g id="SvgjsG1327"><path id="SvgjsPath1328" d="M776.5330810546875 661.5293807983398L698.7477752685547 661.5293807983398" stroke="#323232" stroke-width="1.5" fill="none" marker-end="url(#SvgjsMarker1329)"></path></g><g id="SvgjsG1331"><path id="SvgjsPath1332" d="M776.8186313648832 662.1182665985089L697.7197941518501 762.4093919177313" stroke="#323232" stroke-width="1.5" fill="none" marker-end="url(#SvgjsMarker1333)"></path></g><g id="SvgjsG1335"><path id="SvgjsPath1336" d="M625.2977752685547 558.5293807983398L547.8823394775391 558.5293807983398" stroke="#323232" stroke-width="1.5" fill="none" marker-end="url(#SvgjsMarker1337)"></path></g><g id="SvgjsG1339"><path id="SvgjsPath1340" d="M625.2977752685547 661.5293807983398L547.5124694824219 661.5293807983398" stroke="#323232" stroke-width="1.5" fill="none" marker-end="url(#SvgjsMarker1341)"></path></g><g id="SvgjsG1343"><path id="SvgjsPath1344" d="M625.2977752685547 764.5293807983398L546.5823394775391 764.5293807983398" stroke="#323232" stroke-width="1.5" fill="none" marker-end="url(#SvgjsMarker1345)"></path></g><g id="SvgjsG1347" transform="translate(246.11764526367188,551.1249904632568)"><path id="SvgjsPath1348" d="M 0 18.95587921142578L 18.95587921142578 0L 18.95587921142578 12.510880279541016L 68.76469421386719 12.510880279541016L 68.76469421386719 25.40087814331055L 18.95587921142578 25.40087814331055L 18.95587921142578 37.91175842285156L 0 18.95587921142578Z" stroke="rgba(33,41,48,1)" stroke-width="1.5" fill-opacity="1" fill="#fadcdb"></path><g id="SvgjsG1349"><text id="SvgjsText1350" font-family="&quot;Microsoft YaHei&quot;, 微软雅黑, Arial" text-anchor="middle" font-size="13px" width="69px" fill="#323232" font-weight="400" align="middle" lineHeight="125%" anchor="middle" family="&quot;Microsoft YaHei&quot;, 微软雅黑, Arial" size="13px" weight="400" font-style="" opacity="1" y="8.830879211425781" transform="rotate(0)"></text></g></g><g id="SvgjsG1351" transform="translate(246.11764526367188,734.1249904632568)"><path id="SvgjsPath1352" d="M 0 18.95587921142578L 18.95587921142578 0L 18.95587921142578 12.510880279541016L 68.76469421386719 12.510880279541016L 68.76469421386719 25.40087814331055L 18.95587921142578 25.40087814331055L 18.95587921142578 37.91175842285156L 0 18.95587921142578Z" stroke="rgba(33,41,48,1)" stroke-width="1.5" fill-opacity="1" fill="#fadcdb"></path><g id="SvgjsG1353"><text id="SvgjsText1354" font-family="&quot;Microsoft YaHei&quot;, 微软雅黑, Arial" text-anchor="middle" font-size="13px" width="69px" fill="#323232" font-weight="400" align="middle" lineHeight="125%" anchor="middle" family="&quot;Microsoft YaHei&quot;, 微软雅黑, Arial" size="13px" weight="400" font-style="" opacity="1" y="8.830879211425781" transform="rotate(0)"></text></g></g></svg>