<svg id="SvgjsSvg1006" width="360" height="206" xmlns="http://www.w3.org/2000/svg" version="1.1" xmlns:xlink="http://www.w3.org/1999/xlink" xmlns:svgjs="http://svgjs.com/svgjs"><defs id="SvgjsDefs1007"><pattern patternUnits="userSpaceOnUse" id="pattern_mark_0" width="300" height="300"><text x="150" y="100" fill="rgba(229,229,229,0.8)" font-size="18" transform="rotate(-45, 150, 150)" style="dominant-baseline: middle; text-anchor: middle;"></text></pattern><pattern patternUnits="userSpaceOnUse" id="pattern_mark_1" width="300" height="300"><text x="150" y="200" fill="rgba(229,229,229,0.8)" font-size="18" transform="rotate(-45, 150, 150)" style="dominant-baseline: middle; text-anchor: middle;"></text></pattern><marker id="SvgjsMarker1029" markerWidth="13" markerHeight="9" refX="9.5" refY="4.5" viewBox="0 0 13 9" orient="auto" markerUnits="userSpaceOnUse" stroke-dasharray="0,0"><path id="SvgjsPath1030" d="M0,0 L13,4.5 L0,9 L0,0" fill="#323232" stroke="#323232" stroke-width="1"></path></marker><marker id="SvgjsMarker1033" markerWidth="13" markerHeight="9" refX="9.5" refY="4.5" viewBox="0 0 13 9" orient="auto" markerUnits="userSpaceOnUse" stroke-dasharray="0,0"><path id="SvgjsPath1034" d="M0,0 L13,4.5 L0,9 L0,0" fill="#323232" stroke="#323232" stroke-width="1"></path></marker></defs><rect id="svgbackgroundid" width="360" height="206" fill="transparent"></rect><rect id="SvgjsRect1009" width="360" height="206" fill="url(#pattern_mark_0)"></rect><rect id="SvgjsRect1010" width="360" height="206" fill="url(#pattern_mark_1)"></rect><g id="SvgjsG1011" transform="translate(25,65)"><path id="SvgjsPath1012" d="M 0 40C 0 -13.333333333333334 80 -13.333333333333334 80 40C 80 93.33333333333333 0 93.33333333333333 0 40Z" stroke="rgba(33,41,48,1)" stroke-width="1.5" fill-opacity="1" fill="#a7e271"></path><g id="SvgjsG1013"><text id="SvgjsText1014" font-family="&quot;Comic Sans MS&quot;" text-anchor="middle" font-size="13px" width="60px" fill="#323232" font-weight="700" align="middle" lineHeight="125%" anchor="middle" family="&quot;Comic Sans MS&quot;" size="13px" weight="700" font-style="" opacity="1" y="20.875" transform="rotate(0)"><tspan id="SvgjsTspan1015" dy="16.25" x="40"><tspan id="SvgjsTspan1016" style="">内存中的</tspan></tspan><tspan id="SvgjsTspan1017" dy="16.25" x="40"><tspan id="SvgjsTspan1018" style="">数据对象</tspan></tspan></text></g></g><g id="SvgjsG1019" transform="translate(255,65)"><path id="SvgjsPath1020" d="M 0 40C 0 -13.333333333333334 80 -13.333333333333334 80 40C 80 93.33333333333333 0 93.33333333333333 0 40Z" stroke="rgba(33,41,48,1)" stroke-width="1.5" fill-opacity="1" fill="#95bce3"></path><g id="SvgjsG1021"><text id="SvgjsText1022" font-family="&quot;Comic Sans MS&quot;" text-anchor="middle" font-size="13px" width="60px" fill="#323232" font-weight="700" align="middle" lineHeight="125%" anchor="middle" family="&quot;Comic Sans MS&quot;" size="13px" weight="700" font-style="" opacity="1" y="20.875" transform="rotate(0)"><tspan id="SvgjsTspan1023" dy="16.25" x="40"><tspan id="SvgjsTspan1024" style="">磁盘中的</tspan></tspan><tspan id="SvgjsTspan1025" dy="16.25" x="40"><tspan id="SvgjsTspan1026" style="">RDB文件</tspan></tspan></text></g></g><g id="SvgjsG1027"><path id="SvgjsPath1028" d="M105.75 105L180 105L180 105L252.3 105" stroke="#323232" stroke-width="1.5" fill="none" marker-end="url(#SvgjsMarker1029)"></path></g><g id="SvgjsG1031"><path id="SvgjsPath1032" d="M266.11987736690423 133.7732791516596C 223.25052291046717 186.79120770122438 142.18785934053324 182.8066526288893 96.28609867221866 135.0576841499928" stroke="#323232" stroke-width="1.5" fill="none" marker-end="url(#SvgjsMarker1033)"></path></g><g id="SvgjsG1035" transform="translate(130,73)"><path id="SvgjsPath1036" d="M 0 0L 100 0L 100 40L 0 40Z" stroke="none" fill="none"></path><g id="SvgjsG1037"><text id="SvgjsText1038" font-family="&quot;Comic Sans MS&quot;" text-anchor="middle" font-size="13px" width="100px" fill="#323232" font-weight="700" align="middle" lineHeight="125%" anchor="middle" family="&quot;Comic Sans MS&quot;" size="13px" weight="700" font-style="" opacity="1" y="9.375" transform="rotate(0)"><tspan id="SvgjsTspan1039" dy="16.25" x="50"><tspan id="SvgjsTspan1040" style="">rdbSave</tspan></tspan></text></g></g><g id="SvgjsG1041" transform="translate(130,141)"><path id="SvgjsPath1042" d="M 0 0L 100 0L 100 40L 0 40Z" stroke="none" fill="none"></path><g id="SvgjsG1043"><text id="SvgjsText1044" font-family="&quot;Comic Sans MS&quot;" text-anchor="middle" font-size="13px" width="100px" fill="#323232" font-weight="700" align="middle" lineHeight="125%" anchor="middle" family="&quot;Comic Sans MS&quot;" size="13px" weight="700" font-style="" opacity="1" y="9.375" transform="rotate(0)"><tspan id="SvgjsTspan1045" dy="16.25" x="50"><tspan id="SvgjsTspan1046" style="">rdbLoad</tspan></tspan></text></g></g><g id="SvgjsG1047" transform="translate(125,25)"><path id="SvgjsPath1048" d="M 0 0L 100 0L 100 40L 0 40Z" stroke="none" fill="none"></path><g id="SvgjsG1049"><text id="SvgjsText1050" font-family="&quot;Comic Sans MS&quot;" text-anchor="middle" font-size="28px" width="100px" fill="#323232" font-weight="700" align="middle" lineHeight="125%" anchor="middle" family="&quot;Comic Sans MS&quot;" size="28px" weight="700" font-style="" opacity="1" y="-4" transform="rotate(0)"><tspan id="SvgjsTspan1051" dy="35" x="50"><tspan id="SvgjsTspan1052" style="">RDB</tspan></tspan></text></g></g></svg>