<svg id="SvgjsSvg1006" width="906.2222222222222" height="288.1111111111111" xmlns="http://www.w3.org/2000/svg" version="1.1" xmlns:xlink="http://www.w3.org/1999/xlink" xmlns:svgjs="http://svgjs.com/svgjs"><defs id="SvgjsDefs1007"><pattern patternUnits="userSpaceOnUse" id="pattern_mark_0" width="300" height="300"><text x="150" y="100" fill="rgba(229,229,229,0.8)" font-size="18" transform="rotate(-45, 150, 150)" style="dominant-baseline: middle; text-anchor: middle;"></text></pattern><pattern patternUnits="userSpaceOnUse" id="pattern_mark_1" width="300" height="300"><text x="150" y="200" fill="rgba(229,229,229,0.8)" font-size="18" transform="rotate(-45, 150, 150)" style="dominant-baseline: middle; text-anchor: middle;"></text></pattern><marker id="SvgjsMarker1013" markerWidth="13" markerHeight="9" refX="9.5" refY="4.5" viewBox="0 0 13 9" orient="auto" markerUnits="userSpaceOnUse" stroke-dasharray="0,0"><path id="SvgjsPath1014" d="M0,0 L13,4.5 L0,9 L0,0" fill="#323232" stroke="#323232" stroke-width="1"></path></marker><marker id="SvgjsMarker1037" markerWidth="13" markerHeight="9" refX="9.5" refY="4.5" viewBox="0 0 13 9" orient="auto" markerUnits="userSpaceOnUse" stroke-dasharray="0,0"><path id="SvgjsPath1038" d="M0,0 L13,4.5 L0,9 L0,0" fill="#323232" stroke="#323232" stroke-width="1"></path></marker><marker id="SvgjsMarker1041" markerWidth="13" markerHeight="9" refX="9.5" refY="4.5" viewBox="0 0 13 9" orient="auto" markerUnits="userSpaceOnUse" stroke-dasharray="0,0"><path id="SvgjsPath1042" d="M0,0 L13,4.5 L0,9 L0,0" fill="#323232" stroke="#323232" stroke-width="1"></path></marker><marker id="SvgjsMarker1111" markerWidth="16" markerHeight="12" refX="11" refY="6" viewBox="0 0 16 12" orient="auto" markerUnits="userSpaceOnUse" stroke-dasharray="0,0"><path id="SvgjsPath1112" d="M0,0 L16,6 L0,12 L0,0" fill="#7cb4fa" stroke="#7cb4fa" stroke-width="1"></path></marker><marker id="SvgjsMarker1115" markerWidth="16" markerHeight="12" refX="11" refY="6" viewBox="0 0 16 12" orient="auto" markerUnits="userSpaceOnUse" stroke-dasharray="0,0"><path id="SvgjsPath1116" d="M0,0 L16,6 L0,12 L0,0" fill="#7cb4fa" stroke="#7cb4fa" stroke-width="1"></path></marker><marker id="SvgjsMarker1119" markerWidth="16" markerHeight="12" refX="11" refY="6" viewBox="0 0 16 12" orient="auto" markerUnits="userSpaceOnUse" stroke-dasharray="0,0"><path id="SvgjsPath1120" d="M0,0 L16,6 L0,12 L0,0" fill="#7cb4fa" stroke="#7cb4fa" stroke-width="1"></path></marker><marker id="SvgjsMarker1123" markerWidth="16" markerHeight="12" refX="11" refY="6" viewBox="0 0 16 12" orient="auto" markerUnits="userSpaceOnUse" stroke-dasharray="0,0"><path id="SvgjsPath1124" d="M0,0 L16,6 L0,12 L0,0" fill="#7cb4fa" stroke="#7cb4fa" stroke-width="1"></path></marker></defs><rect id="svgbackgroundid" width="906.2222222222222" height="288.1111111111111" fill="transparent"></rect><rect id="SvgjsRect1009" width="906.2222222222222" height="288.1111111111111" fill="url(#pattern_mark_0)"></rect><rect id="SvgjsRect1010" width="906.2222222222222" height="288.1111111111111" fill="url(#pattern_mark_1)"></rect><g id="SvgjsG1011"><path id="SvgjsPath1012" d="M101 102.11111111111111L560 102.11111111111111" stroke="#323232" stroke-width="1.5" fill="none" marker-end="url(#SvgjsMarker1013)"></path><rect id="SvgjsRect1015" width="0" height="18" x="343" y="93.11111111111111" fill="#ffffff"></rect><text id="SvgjsText1016" font-family="&quot;Microsoft YaHei&quot;, 微软雅黑, Arial" text-anchor="middle" font-size="13px" width="0px" fill="#323232" font-weight="400" align="top" lineHeight="16px" anchor="middle" family="&quot;Microsoft YaHei&quot;, 微软雅黑, Arial" size="13px" weight="400" font-style="" opacity="1" y="90.48611111111111" transform="rotate(0)"></text></g><g id="SvgjsG1017" transform="translate(290,89.11111111111111)"><path id="SvgjsPath1018" d="M 0 4Q 0 0 4 0L 81 0Q 85 0 85 4L 85 21Q 85 25 81 25L 4 25Q 0 25 0 21Z" stroke="rgba(33,41,48,1)" stroke-width="1.5" fill-opacity="1" fill="#f9e0ae"></path><g id="SvgjsG1019"><text id="SvgjsText1020" font-family="&quot;Microsoft YaHei&quot;, 微软雅黑, Arial" text-anchor="middle" font-size="13px" width="65px" fill="#323232" font-weight="400" align="middle" lineHeight="125%" anchor="middle" family="&quot;Microsoft YaHei&quot;, 微软雅黑, Arial" size="13px" weight="400" font-style="" opacity="1" y="1.875" transform="rotate(0)"><tspan id="SvgjsTspan1021" dy="16.25" x="42.5"><tspan id="SvgjsTspan1022" style="">binlog</tspan></tspan></text></g></g><g id="SvgjsG1023" transform="translate(180,89.11111111111111)"><path id="SvgjsPath1024" d="M 0 4Q 0 0 4 0L 81 0Q 85 0 85 4L 85 21Q 85 25 81 25L 4 25Q 0 25 0 21Z" stroke="rgba(33,41,48,1)" stroke-width="1.5" fill-opacity="1" fill="#c3defd"></path><g id="SvgjsG1025"><text id="SvgjsText1026" font-family="&quot;Microsoft YaHei&quot;, 微软雅黑, Arial" text-anchor="middle" font-size="13px" width="65px" fill="#323232" font-weight="400" align="middle" lineHeight="125%" anchor="middle" family="&quot;Microsoft YaHei&quot;, 微软雅黑, Arial" size="13px" weight="400" font-style="" opacity="1" y="1.875" transform="rotate(0)"><tspan id="SvgjsTspan1027" dy="16.25" x="42.5"><tspan id="SvgjsTspan1028" style="">execute</tspan></tspan></text></g></g><g id="SvgjsG1029" transform="translate(400,89.11111111111111)"><path id="SvgjsPath1030" d="M 0 4Q 0 0 4 0L 81 0Q 85 0 85 4L 85 21Q 85 25 81 25L 4 25Q 0 25 0 21Z" stroke="rgba(33,41,48,1)" stroke-width="1.5" fill-opacity="1" fill="#f9cdd2"></path><g id="SvgjsG1031"><text id="SvgjsText1032" font-family="&quot;Microsoft YaHei&quot;, 微软雅黑, Arial" text-anchor="middle" font-size="13px" width="65px" fill="#323232" font-weight="400" align="middle" lineHeight="125%" anchor="middle" family="&quot;Microsoft YaHei&quot;, 微软雅黑, Arial" size="13px" weight="400" font-style="" opacity="1" y="1.875" transform="rotate(0)"><tspan id="SvgjsTspan1033" dy="16.25" x="42.5"><tspan id="SvgjsTspan1034" style="">commit</tspan></tspan></text></g></g><g id="SvgjsG1035"><path id="SvgjsPath1036" d="M101 172.11111111111111L880 172.11111111111111" stroke="#323232" stroke-width="1.5" fill="none" marker-end="url(#SvgjsMarker1037)"></path></g><g id="SvgjsG1039"><path id="SvgjsPath1040" d="M103.22222222222217 243.61111111111111L881.2222222222222 243.61111111111111" stroke="#323232" stroke-width="1.5" fill="none" marker-end="url(#SvgjsMarker1041)"></path></g><g id="SvgjsG1043" transform="translate(433.2222222222222,230.61111111111111)"><path id="SvgjsPath1044" d="M 0 4Q 0 0 4 0L 81 0Q 85 0 85 4L 85 21Q 85 25 81 25L 4 25Q 0 25 0 21Z" stroke="rgba(33,41,48,1)" stroke-width="1.5" fill-opacity="1" fill="#fcfac0"></path><g id="SvgjsG1045"><text id="SvgjsText1046" font-family="&quot;Microsoft YaHei&quot;, 微软雅黑, Arial" text-anchor="middle" font-size="13px" width="65px" fill="#323232" font-weight="400" align="middle" lineHeight="125%" anchor="middle" family="&quot;Microsoft YaHei&quot;, 微软雅黑, Arial" size="13px" weight="400" font-style="" opacity="1" y="1.875" transform="rotate(0)"><tspan id="SvgjsTspan1047" dy="16.25" x="42.5"><tspan id="SvgjsTspan1048" style="">relay log</tspan></tspan></text></g></g><g id="SvgjsG1049" transform="translate(543.2222222222222,230.61111111111111)"><path id="SvgjsPath1050" d="M 0 4Q 0 0 4 0L 81 0Q 85 0 85 4L 85 21Q 85 25 81 25L 4 25Q 0 25 0 21Z" stroke="rgba(33,41,48,1)" stroke-width="1.5" fill-opacity="1" fill="#cbe6c7"></path><g id="SvgjsG1051"><text id="SvgjsText1052" font-family="&quot;Microsoft YaHei&quot;, 微软雅黑, Arial" text-anchor="middle" font-size="13px" width="65px" fill="#323232" font-weight="400" align="middle" lineHeight="125%" anchor="middle" family="&quot;Microsoft YaHei&quot;, 微软雅黑, Arial" size="13px" weight="400" font-style="" opacity="1" y="1.875" transform="rotate(0)"><tspan id="SvgjsTspan1053" dy="16.25" x="42.5"><tspan id="SvgjsTspan1054" style="">apply</tspan></tspan></text></g></g><g id="SvgjsG1055" transform="translate(653.2222222222222,230.61111111111111)"><path id="SvgjsPath1056" d="M 0 4Q 0 0 4 0L 81 0Q 85 0 85 4L 85 21Q 85 25 81 25L 4 25Q 0 25 0 21Z" stroke="rgba(33,41,48,1)" stroke-width="1.5" fill-opacity="1" fill="#f9e0ae"></path><g id="SvgjsG1057"><text id="SvgjsText1058" font-family="&quot;Microsoft YaHei&quot;, 微软雅黑, Arial" text-anchor="middle" font-size="13px" width="65px" fill="#323232" font-weight="400" align="middle" lineHeight="125%" anchor="middle" family="&quot;Microsoft YaHei&quot;, 微软雅黑, Arial" size="13px" weight="400" font-style="" opacity="1" y="1.875" transform="rotate(0)"><tspan id="SvgjsTspan1059" dy="16.25" x="42.5"><tspan id="SvgjsTspan1060" style="">binlog</tspan></tspan></text></g></g><g id="SvgjsG1061" transform="translate(763.2222222222222,230.61111111111111)"><path id="SvgjsPath1062" d="M 0 4Q 0 0 4 0L 81 0Q 85 0 85 4L 85 21Q 85 25 81 25L 4 25Q 0 25 0 21Z" stroke="rgba(33,41,48,1)" stroke-width="1.5" fill-opacity="1" fill="#f9cdd2"></path><g id="SvgjsG1063"><text id="SvgjsText1064" font-family="&quot;Microsoft YaHei&quot;, 微软雅黑, Arial" text-anchor="middle" font-size="13px" width="65px" fill="#323232" font-weight="400" align="middle" lineHeight="125%" anchor="middle" family="&quot;Microsoft YaHei&quot;, 微软雅黑, Arial" size="13px" weight="400" font-style="" opacity="1" y="1.875" transform="rotate(0)"><tspan id="SvgjsTspan1065" dy="16.25" x="42.5"><tspan id="SvgjsTspan1066" style="">commit</tspan></tspan></text></g></g><g id="SvgjsG1067" transform="translate(431,160.11111111111111)"><path id="SvgjsPath1068" d="M 0 4Q 0 0 4 0L 81 0Q 85 0 85 4L 85 21Q 85 25 81 25L 4 25Q 0 25 0 21Z" stroke="rgba(33,41,48,1)" stroke-width="1.5" fill-opacity="1" fill="#fcfac0"></path><g id="SvgjsG1069"><text id="SvgjsText1070" font-family="&quot;Microsoft YaHei&quot;, 微软雅黑, Arial" text-anchor="middle" font-size="13px" width="65px" fill="#323232" font-weight="400" align="middle" lineHeight="125%" anchor="middle" family="&quot;Microsoft YaHei&quot;, 微软雅黑, Arial" size="13px" weight="400" font-style="" opacity="1" y="1.875" transform="rotate(0)"><tspan id="SvgjsTspan1071" dy="16.25" x="42.5"><tspan id="SvgjsTspan1072" style="">relay log</tspan></tspan></text></g></g><g id="SvgjsG1073" transform="translate(541,160.11111111111111)"><path id="SvgjsPath1074" d="M 0 4Q 0 0 4 0L 81 0Q 85 0 85 4L 85 21Q 85 25 81 25L 4 25Q 0 25 0 21Z" stroke="rgba(33,41,48,1)" stroke-width="1.5" fill-opacity="1" fill="#cbe6c7"></path><g id="SvgjsG1075"><text id="SvgjsText1076" font-family="&quot;Microsoft YaHei&quot;, 微软雅黑, Arial" text-anchor="middle" font-size="13px" width="65px" fill="#323232" font-weight="400" align="middle" lineHeight="125%" anchor="middle" family="&quot;Microsoft YaHei&quot;, 微软雅黑, Arial" size="13px" weight="400" font-style="" opacity="1" y="1.875" transform="rotate(0)"><tspan id="SvgjsTspan1077" dy="16.25" x="42.5"><tspan id="SvgjsTspan1078" style="">apply</tspan></tspan></text></g></g><g id="SvgjsG1079" transform="translate(651,160.11111111111111)"><path id="SvgjsPath1080" d="M 0 4Q 0 0 4 0L 81 0Q 85 0 85 4L 85 21Q 85 25 81 25L 4 25Q 0 25 0 21Z" stroke="rgba(33,41,48,1)" stroke-width="1.5" fill-opacity="1" fill="#f9e0ae"></path><g id="SvgjsG1081"><text id="SvgjsText1082" font-family="&quot;Microsoft YaHei&quot;, 微软雅黑, Arial" text-anchor="middle" font-size="13px" width="65px" fill="#323232" font-weight="400" align="middle" lineHeight="125%" anchor="middle" family="&quot;Microsoft YaHei&quot;, 微软雅黑, Arial" size="13px" weight="400" font-style="" opacity="1" y="1.875" transform="rotate(0)"><tspan id="SvgjsTspan1083" dy="16.25" x="42.5"><tspan id="SvgjsTspan1084" style="">binlog</tspan></tspan></text></g></g><g id="SvgjsG1085" transform="translate(761,160.11111111111111)"><path id="SvgjsPath1086" d="M 0 4Q 0 0 4 0L 81 0Q 85 0 85 4L 85 21Q 85 25 81 25L 4 25Q 0 25 0 21Z" stroke="rgba(33,41,48,1)" stroke-width="1.5" fill-opacity="1" fill="#f9cdd2"></path><g id="SvgjsG1087"><text id="SvgjsText1088" font-family="&quot;Microsoft YaHei&quot;, 微软雅黑, Arial" text-anchor="middle" font-size="13px" width="65px" fill="#323232" font-weight="400" align="middle" lineHeight="125%" anchor="middle" family="&quot;Microsoft YaHei&quot;, 微软雅黑, Arial" size="13px" weight="400" font-style="" opacity="1" y="1.875" transform="rotate(0)"><tspan id="SvgjsTspan1089" dy="16.25" x="42.5"><tspan id="SvgjsTspan1090" style="">commit</tspan></tspan></text></g></g><g id="SvgjsG1091" transform="translate(36,81.61111111111111)"><path id="SvgjsPath1092" d="M 0 0L 54 0L 54 40L 0 40Z" stroke="none" fill="none"></path><g id="SvgjsG1093"><text id="SvgjsText1094" font-family="&quot;Microsoft YaHei&quot;, 微软雅黑, Arial" text-anchor="middle" font-size="13px" width="54px" fill="#323232" font-weight="400" align="middle" lineHeight="125%" anchor="middle" family="&quot;Microsoft YaHei&quot;, 微软雅黑, Arial" size="13px" weight="400" font-style="" opacity="1" y="9.375" transform="rotate(0)"><tspan id="SvgjsTspan1095" dy="16.25" x="27"><tspan id="SvgjsTspan1096" style="">Master</tspan></tspan></text></g></g><g id="SvgjsG1097" transform="translate(36,152.61111111111111)"><path id="SvgjsPath1098" d="M 0 0L 54 0L 54 40L 0 40Z" stroke="none" fill="none"></path><g id="SvgjsG1099"><text id="SvgjsText1100" font-family="&quot;Microsoft YaHei&quot;, 微软雅黑, Arial" text-anchor="middle" font-size="13px" width="54px" fill="#323232" font-weight="400" align="middle" lineHeight="125%" anchor="middle" family="&quot;Microsoft YaHei&quot;, 微软雅黑, Arial" size="13px" weight="400" font-style="" opacity="1" y="9.375" transform="rotate(0)"><tspan id="SvgjsTspan1101" dy="16.25" x="27"><tspan id="SvgjsTspan1102" style="">Slave1</tspan></tspan></text></g></g><g id="SvgjsG1103" transform="translate(36,223.11111111111111)"><path id="SvgjsPath1104" d="M 0 0L 54 0L 54 40L 0 40Z" stroke="none" fill="none"></path><g id="SvgjsG1105"><text id="SvgjsText1106" font-family="&quot;Microsoft YaHei&quot;, 微软雅黑, Arial" text-anchor="middle" font-size="13px" width="54px" fill="#323232" font-weight="400" align="middle" lineHeight="125%" anchor="middle" family="&quot;Microsoft YaHei&quot;, 微软雅黑, Arial" size="13px" weight="400" font-style="" opacity="1" y="9.375" transform="rotate(0)"><tspan id="SvgjsTspan1107" dy="16.25" x="27"><tspan id="SvgjsTspan1108" style="">Slave2</tspan></tspan></text></g></g><g id="SvgjsG1109"><path id="SvgjsPath1110" d="M123.88888888888889 25L150.55555555555554 95" stroke="#7cb4fa" stroke-width="3" fill="none" marker-end="url(#SvgjsMarker1111)"></path></g><g id="SvgjsG1113"><path id="SvgjsPath1114" d="M387.22222222222223 102.77777777777777L420.55555555555554 168.33333333333334" stroke="#7cb4fa" stroke-width="3" fill="none" marker-end="url(#SvgjsMarker1115)"></path></g><g id="SvgjsG1117"><path id="SvgjsPath1118" d="M385 102.77777777777777L422.77777777777777 237.2222222222222" stroke="#7cb4fa" stroke-width="3" fill="none" marker-end="url(#SvgjsMarker1119)"></path></g><g id="SvgjsG1121"><path id="SvgjsPath1122" d="M496.1111111111111 99.44444444444444L555 26.111111111111114" stroke="#7cb4fa" stroke-width="3" fill="none" marker-end="url(#SvgjsMarker1123)"></path></g><g id="SvgjsG1125"></g></svg>