<svg id="SvgjsSvg1006" width="469" height="209" xmlns="http://www.w3.org/2000/svg" version="1.1" xmlns:xlink="http://www.w3.org/1999/xlink" xmlns:svgjs="http://svgjs.com/svgjs"><defs id="SvgjsDefs1007"><pattern patternUnits="userSpaceOnUse" id="pattern_mark_0" width="300" height="300"><text x="150" y="100" fill="rgba(229,229,229,0.8)" font-size="18" transform="rotate(-45, 150, 150)" style="dominant-baseline: middle; text-anchor: middle;"></text></pattern><pattern patternUnits="userSpaceOnUse" id="pattern_mark_1" width="300" height="300"><text x="150" y="200" fill="rgba(229,229,229,0.8)" font-size="18" transform="rotate(-45, 150, 150)" style="dominant-baseline: middle; text-anchor: middle;"></text></pattern></defs><rect id="svgbackgroundid" width="469" height="209" fill="transparent"></rect><rect id="SvgjsRect1009" width="469" height="209" fill="url(#pattern_mark_0)"></rect><rect id="SvgjsRect1010" width="469" height="209" fill="url(#pattern_mark_1)"></rect><g id="SvgjsG1011" transform="translate(25,25)"><path id="SvgjsPath1012" d="M 0 0L 403 0L 419 16L 419 159L 0 159L 0 0Z" stroke="none" fill-opacity="1" fill="#fff7bc"></path><path id="SvgjsPath1013" d="M 403 0L 403 16L 419 16Z" stroke="none" fill-opacity="1" fill="#e4d089"></path><path id="SvgjsPath1014" d="M 0 0L 403 0L 419 16L 419 159L 0 159L 0 0Z" stroke="none" fill="none"></path><g id="SvgjsG1015"><text id="SvgjsText1016" font-family="&quot;Comic Sans MS&quot;" text-anchor="start" font-size="13px" width="399px" fill="#323232" font-weight="700" align="middle" lineHeight="150%" anchor="start" family="&quot;Comic Sans MS&quot;" size="13px" weight="700" font-style="" opacity="1" y="6.75" transform="rotate(0)"><tspan id="SvgjsTspan1017" dy="19.5" x="10"><tspan id="SvgjsTspan1018" style="">SELECT  column1, column2, ...</tspan></tspan><tspan id="SvgjsTspan1019" dy="19.5" x="10"><tspan id="SvgjsTspan1020" style="">FROM    table outer</tspan></tspan><tspan id="SvgjsTspan1021" dy="19.5" x="10"><tspan id="SvgjsTspan1022" style="">WHERE  column1 operator</tspan></tspan><tspan id="SvgjsTspan1023" dy="19.5" x="10"><tspan id="SvgjsTspan1024" style="">                           (SELECT column1, column2</tspan></tspan><tspan id="SvgjsTspan1025" dy="19.5" x="10"><tspan id="SvgjsTspan1026" style="">                            FROM table2</tspan></tspan><tspan id="SvgjsTspan1027" dy="19.5" x="10"><tspan id="SvgjsTspan1028" style="">                            WHERE expr1 = </tspan></tspan><tspan id="SvgjsTspan1029" dy="19.5" x="10"><tspan id="SvgjsTspan1030" style="">                                        outer.expr2);</tspan></tspan></text></g></g><g id="SvgjsG1031" transform="translate(132,57)"><path id="SvgjsPath1032" d="M 0 0L 40 0L 40 20L 0 20Z" stroke="rgba(167,147,44,1)" stroke-width="1.5" fill="none"></path><g id="SvgjsG1033"><text id="SvgjsText1034" font-family="微软雅黑" text-anchor="middle" font-size="13px" width="20px" fill="#323232" font-weight="400" align="middle" lineHeight="150%" anchor="middle" family="微软雅黑" size="13px" weight="400" font-style="" opacity="1" y="-4.25" transform="rotate(0)"></text></g></g><g id="SvgjsG1035" transform="translate(270,155)"><path id="SvgjsPath1036" d="M 0 0L 37 0L 37 20L 0 20Z" stroke="rgba(167,147,44,1)" stroke-width="1.5" fill="none"></path><g id="SvgjsG1037"><text id="SvgjsText1038" font-family="微软雅黑" text-anchor="middle" font-size="13px" width="17px" fill="#323232" font-weight="400" align="middle" lineHeight="150%" anchor="middle" family="微软雅黑" size="13px" weight="400" font-style="" opacity="1" y="-4.25" transform="rotate(0)"></text></g></g></svg>