<svg id="SvgjsSvg1006" width="520.9166666666667" height="459.1666666666668" xmlns="http://www.w3.org/2000/svg" version="1.1" xmlns:xlink="http://www.w3.org/1999/xlink" xmlns:svgjs="http://svgjs.com/svgjs"><defs id="SvgjsDefs1007"><pattern patternUnits="userSpaceOnUse" id="pattern_mark_0" width="300" height="300"><text x="150" y="100" fill="rgba(229,229,229,0.8)" font-size="18" transform="rotate(-45, 150, 150)" style="dominant-baseline: middle; text-anchor: middle;"></text></pattern><pattern patternUnits="userSpaceOnUse" id="pattern_mark_1" width="300" height="300"><text x="150" y="200" fill="rgba(229,229,229,0.8)" font-size="18" transform="rotate(-45, 150, 150)" style="dominant-baseline: middle; text-anchor: middle;"></text></pattern><marker id="SvgjsMarker1013" markerWidth="13" markerHeight="9" refX="9.5" refY="4.5" viewBox="0 0 13 9" orient="auto" markerUnits="userSpaceOnUse" stroke-dasharray="0,0"><path id="SvgjsPath1014" d="M0,0 L13,4.5 L0,9 L0,0" fill="#2b526c" stroke="#2b526c" stroke-width="1"></path></marker><marker id="SvgjsMarker1017" markerWidth="13" markerHeight="9" refX="9.5" refY="4.5" viewBox="0 0 13 9" orient="auto" markerUnits="userSpaceOnUse" stroke-dasharray="0,0"><path id="SvgjsPath1018" d="M0,0 L13,4.5 L0,9 L0,0" fill="#2b526c" stroke="#2b526c" stroke-width="1"></path></marker><marker id="SvgjsMarker1021" markerWidth="13" markerHeight="9" refX="9.5" refY="4.5" viewBox="0 0 13 9" orient="auto" markerUnits="userSpaceOnUse" stroke-dasharray="0,0"><path id="SvgjsPath1022" d="M0,0 L13,4.5 L0,9 L0,0" fill="#2b526c" stroke="#2b526c" stroke-width="1"></path></marker><marker id="SvgjsMarker1025" markerWidth="13" markerHeight="9" refX="9.5" refY="4.5" viewBox="0 0 13 9" orient="auto" markerUnits="userSpaceOnUse" stroke-dasharray="0,0"><path id="SvgjsPath1026" d="M0,0 L13,4.5 L0,9 L0,0" fill="#2b526c" stroke="#2b526c" stroke-width="1"></path></marker><marker id="SvgjsMarker1029" markerWidth="13" markerHeight="9" refX="9.5" refY="4.5" viewBox="0 0 13 9" orient="auto" markerUnits="userSpaceOnUse" stroke-dasharray="0,0"><path id="SvgjsPath1030" d="M0,0 L13,4.5 L0,9 L0,0" fill="#2b526c" stroke="#2b526c" stroke-width="1"></path></marker><marker id="SvgjsMarker1033" markerWidth="13" markerHeight="9" refX="9.5" refY="4.5" viewBox="0 0 13 9" orient="auto" markerUnits="userSpaceOnUse" stroke-dasharray="0,0"><path id="SvgjsPath1034" d="M0,0 L13,4.5 L0,9 L0,0" fill="#2b526c" stroke="#2b526c" stroke-width="1"></path></marker><marker id="SvgjsMarker1037" markerWidth="13" markerHeight="9" refX="9.5" refY="4.5" viewBox="0 0 13 9" orient="auto" markerUnits="userSpaceOnUse" stroke-dasharray="0,0"><path id="SvgjsPath1038" d="M0,0 L13,4.5 L0,9 L0,0" fill="#2b526c" stroke="#2b526c" stroke-width="1"></path></marker><marker id="SvgjsMarker1041" markerWidth="13" markerHeight="9" refX="9.5" refY="4.5" viewBox="0 0 13 9" orient="auto" markerUnits="userSpaceOnUse" stroke-dasharray="0,0"><path id="SvgjsPath1042" d="M0,0 L13,4.5 L0,9 L0,0" fill="#e8a55e" stroke="#e8a55e" stroke-width="1"></path></marker><marker id="SvgjsMarker1049" markerWidth="13" markerHeight="9" refX="9.5" refY="4.5" viewBox="0 0 13 9" orient="auto" markerUnits="userSpaceOnUse" stroke-dasharray="0,0"><path id="SvgjsPath1050" d="M0,0 L13,4.5 L0,9 L0,0" fill="#2b526c" stroke="#2b526c" stroke-width="1"></path></marker><marker id="SvgjsMarker1053" markerWidth="13" markerHeight="9" refX="9.5" refY="4.5" viewBox="0 0 13 9" orient="auto" markerUnits="userSpaceOnUse" stroke-dasharray="0,0"><path id="SvgjsPath1054" d="M0,0 L13,4.5 L0,9 L0,0" fill="#2b526c" stroke="#2b526c" stroke-width="1"></path></marker><marker id="SvgjsMarker1057" markerWidth="13" markerHeight="9" refX="9.5" refY="4.5" viewBox="0 0 13 9" orient="auto" markerUnits="userSpaceOnUse" stroke-dasharray="0,0"><path id="SvgjsPath1058" d="M0,0 L13,4.5 L0,9 L0,0" fill="#2b526c" stroke="#2b526c" stroke-width="1"></path></marker><marker id="SvgjsMarker1061" markerWidth="13" markerHeight="9" refX="9.5" refY="4.5" viewBox="0 0 13 9" orient="auto" markerUnits="userSpaceOnUse" stroke-dasharray="0,0"><path id="SvgjsPath1062" d="M0,0 L13,4.5 L0,9 L0,0" fill="#2b526c" stroke="#2b526c" stroke-width="1"></path></marker><marker id="SvgjsMarker1065" markerWidth="13" markerHeight="9" refX="9.5" refY="4.5" viewBox="0 0 13 9" orient="auto" markerUnits="userSpaceOnUse" stroke-dasharray="0,0"><path id="SvgjsPath1066" d="M0,0 L13,4.5 L0,9 L0,0" fill="#2b526c" stroke="#2b526c" stroke-width="1"></path></marker><marker id="SvgjsMarker1069" markerWidth="13" markerHeight="9" refX="9.5" refY="4.5" viewBox="0 0 13 9" orient="auto" markerUnits="userSpaceOnUse" stroke-dasharray="0,0"><path id="SvgjsPath1070" d="M0,0 L13,4.5 L0,9 L0,0" fill="#2b526c" stroke="#2b526c" stroke-width="1"></path></marker><marker id="SvgjsMarker1073" markerWidth="13" markerHeight="9" refX="9.5" refY="4.5" viewBox="0 0 13 9" orient="auto" markerUnits="userSpaceOnUse" stroke-dasharray="0,0"><path id="SvgjsPath1074" d="M0,0 L13,4.5 L0,9 L0,0" fill="#2b526c" stroke="#2b526c" stroke-width="1"></path></marker><marker id="SvgjsMarker1077" markerWidth="13" markerHeight="9" refX="9.5" refY="4.5" viewBox="0 0 13 9" orient="auto" markerUnits="userSpaceOnUse" stroke-dasharray="0,0"><path id="SvgjsPath1078" d="M0,0 L13,4.5 L0,9 L0,0" fill="#2b526c" stroke="#2b526c" stroke-width="1"></path></marker><marker id="SvgjsMarker1081" markerWidth="13" markerHeight="9" refX="9.5" refY="4.5" viewBox="0 0 13 9" orient="auto" markerUnits="userSpaceOnUse" stroke-dasharray="0,0"><path id="SvgjsPath1082" d="M0,0 L13,4.5 L0,9 L0,0" fill="#2b526c" stroke="#2b526c" stroke-width="1"></path></marker><marker id="SvgjsMarker1085" markerWidth="13" markerHeight="9" refX="9.5" refY="4.5" viewBox="0 0 13 9" orient="auto" markerUnits="userSpaceOnUse" stroke-dasharray="0,0"><path id="SvgjsPath1086" d="M0,0 L13,4.5 L0,9 L0,0" fill="#2b526c" stroke="#2b526c" stroke-width="1"></path></marker><marker id="SvgjsMarker1089" markerWidth="13" markerHeight="9" refX="9.5" refY="4.5" viewBox="0 0 13 9" orient="auto" markerUnits="userSpaceOnUse" stroke-dasharray="0,0"><path id="SvgjsPath1090" d="M0,0 L13,4.5 L0,9 L0,0" fill="#2b526c" stroke="#2b526c" stroke-width="1"></path></marker><marker id="SvgjsMarker1093" markerWidth="13" markerHeight="9" refX="9.5" refY="4.5" viewBox="0 0 13 9" orient="auto" markerUnits="userSpaceOnUse" stroke-dasharray="0,0"><path id="SvgjsPath1094" d="M0,0 L13,4.5 L0,9 L0,0" fill="#2b526c" stroke="#2b526c" stroke-width="1"></path></marker><marker id="SvgjsMarker1097" markerWidth="13" markerHeight="9" refX="9.5" refY="4.5" viewBox="0 0 13 9" orient="auto" markerUnits="userSpaceOnUse" stroke-dasharray="0,0"><path id="SvgjsPath1098" d="M0,0 L13,4.5 L0,9 L0,0" fill="#2b526c" stroke="#2b526c" stroke-width="1"></path></marker><marker id="SvgjsMarker1101" markerWidth="13" markerHeight="9" refX="9.5" refY="4.5" viewBox="0 0 13 9" orient="auto" markerUnits="userSpaceOnUse" stroke-dasharray="0,0"><path id="SvgjsPath1102" d="M0,0 L13,4.5 L0,9 L0,0" fill="#2b526c" stroke="#2b526c" stroke-width="1"></path></marker><marker id="SvgjsMarker1109" markerWidth="13" markerHeight="9" refX="9.5" refY="4.5" viewBox="0 0 13 9" orient="auto" markerUnits="userSpaceOnUse" stroke-dasharray="0,0"><path id="SvgjsPath1110" d="M0,0 L13,4.5 L0,9 L0,0" fill="#2b526c" stroke="#2b526c" stroke-width="1"></path></marker><marker id="SvgjsMarker1113" markerWidth="13" markerHeight="9" refX="9.5" refY="4.5" viewBox="0 0 13 9" orient="auto" markerUnits="userSpaceOnUse" stroke-dasharray="0,0"><path id="SvgjsPath1114" d="M0,0 L13,4.5 L0,9 L0,0" fill="#2b526c" stroke="#2b526c" stroke-width="1"></path></marker><marker id="SvgjsMarker1117" markerWidth="13" markerHeight="9" refX="9.5" refY="4.5" viewBox="0 0 13 9" orient="auto" markerUnits="userSpaceOnUse" stroke-dasharray="0,0"><path id="SvgjsPath1118" d="M0,0 L13,4.5 L0,9 L0,0" fill="#2b526c" stroke="#2b526c" stroke-width="1"></path></marker><marker id="SvgjsMarker1121" markerWidth="13" markerHeight="9" refX="9.5" refY="4.5" viewBox="0 0 13 9" orient="auto" markerUnits="userSpaceOnUse" stroke-dasharray="0,0"><path id="SvgjsPath1122" d="M0,0 L13,4.5 L0,9 L0,0" fill="#2b526c" stroke="#2b526c" stroke-width="1"></path></marker><marker id="SvgjsMarker1125" markerWidth="13" markerHeight="9" refX="9.5" refY="4.5" viewBox="0 0 13 9" orient="auto" markerUnits="userSpaceOnUse" stroke-dasharray="0,0"><path id="SvgjsPath1126" d="M0,0 L13,4.5 L0,9 L0,0" fill="#2b526c" stroke="#2b526c" stroke-width="1"></path></marker><marker id="SvgjsMarker1129" markerWidth="13" markerHeight="9" refX="9.5" refY="4.5" viewBox="0 0 13 9" orient="auto" markerUnits="userSpaceOnUse" stroke-dasharray="0,0"><path id="SvgjsPath1130" d="M0,0 L13,4.5 L0,9 L0,0" fill="#2b526c" stroke="#2b526c" stroke-width="1"></path></marker><marker id="SvgjsMarker1133" markerWidth="13" markerHeight="9" refX="9.5" refY="4.5" viewBox="0 0 13 9" orient="auto" markerUnits="userSpaceOnUse" stroke-dasharray="0,0"><path id="SvgjsPath1134" d="M0,0 L13,4.5 L0,9 L0,0" fill="#2b526c" stroke="#2b526c" stroke-width="1"></path></marker><marker id="SvgjsMarker1137" markerWidth="13" markerHeight="9" refX="9.5" refY="4.5" viewBox="0 0 13 9" orient="auto" markerUnits="userSpaceOnUse" stroke-dasharray="0,0"><path id="SvgjsPath1138" d="M0,0 L13,4.5 L0,9 L0,0" fill="#e8a55e" stroke="#e8a55e" stroke-width="1"></path></marker><marker id="SvgjsMarker1141" markerWidth="13" markerHeight="9" refX="9.5" refY="4.5" viewBox="0 0 13 9" orient="auto" markerUnits="userSpaceOnUse" stroke-dasharray="0,0"><path id="SvgjsPath1142" d="M0,0 L13,4.5 L0,9 L0,0" fill="#e8a55e" stroke="#e8a55e" stroke-width="1"></path></marker><marker id="SvgjsMarker1145" markerWidth="13" markerHeight="9" refX="9.5" refY="4.5" viewBox="0 0 13 9" orient="auto" markerUnits="userSpaceOnUse" stroke-dasharray="0,0"><path id="SvgjsPath1146" d="M0,0 L13,4.5 L0,9 L0,0" fill="#e8a55e" stroke="#e8a55e" stroke-width="1"></path></marker><marker id="SvgjsMarker1149" markerWidth="13" markerHeight="9" refX="9.5" refY="4.5" viewBox="0 0 13 9" orient="auto" markerUnits="userSpaceOnUse" stroke-dasharray="0,0"><path id="SvgjsPath1150" d="M0,0 L13,4.5 L0,9 L0,0" fill="#e8a55e" stroke="#e8a55e" stroke-width="1"></path></marker><marker id="SvgjsMarker1153" markerWidth="13" markerHeight="9" refX="9.5" refY="4.5" viewBox="0 0 13 9" orient="auto" markerUnits="userSpaceOnUse" stroke-dasharray="0,0"><path id="SvgjsPath1154" d="M0,0 L13,4.5 L0,9 L0,0" fill="#e8a55e" stroke="#e8a55e" stroke-width="1"></path></marker><marker id="SvgjsMarker1157" markerWidth="13" markerHeight="9" refX="9.5" refY="4.5" viewBox="0 0 13 9" orient="auto" markerUnits="userSpaceOnUse" stroke-dasharray="0,0"><path id="SvgjsPath1158" d="M0,0 L13,4.5 L0,9 L0,0" fill="#e8a55e" stroke="#e8a55e" stroke-width="1"></path></marker><marker id="SvgjsMarker1161" markerWidth="13" markerHeight="9" refX="9.5" refY="4.5" viewBox="0 0 13 9" orient="auto" markerUnits="userSpaceOnUse" stroke-dasharray="0,0"><path id="SvgjsPath1162" d="M0,0 L13,4.5 L0,9 L0,0" fill="#e8a55e" stroke="#e8a55e" stroke-width="1"></path></marker><marker id="SvgjsMarker1177" markerWidth="13" markerHeight="9" refX="3.5" refY="4.5" viewBox="0 0 13 9" orient="0" markerUnits="userSpaceOnUse" stroke-dasharray="0,0"><path id="SvgjsPath1178" d="M13,0 L0,4.5 L13,9 L13,0" fill="#323232" stroke="#323232" stroke-width="1"></path></marker><marker id="SvgjsMarker1179" markerWidth="13" markerHeight="9" refX="9.5" refY="4.5" viewBox="0 0 13 9" orient="auto" markerUnits="userSpaceOnUse" stroke-dasharray="0,0"><path id="SvgjsPath1180" d="M0,0 L13,4.5 L0,9 L0,0" fill="#323232" stroke="#323232" stroke-width="1"></path></marker></defs><rect id="svgbackgroundid" width="520.9166666666667" height="459.1666666666668" fill="transparent"></rect><rect id="SvgjsRect1009" width="520.9166666666667" height="459.1666666666668" fill="url(#pattern_mark_0)"></rect><rect id="SvgjsRect1010" width="520.9166666666667" height="459.1666666666668" fill="url(#pattern_mark_1)"></rect><g id="SvgjsG1011"><path id="SvgjsPath1012" d="M29.625000000000057 67.5L29.625000000000057 127.5L29.625000000000057 127.5L29.625000000000057 187.5" stroke="#2b526c" stroke-width="1.5" fill="none" marker-end="url(#SvgjsMarker1013)"></path></g><g id="SvgjsG1015"><path id="SvgjsPath1016" d="M49.62500000000006 67.5L49.62500000000006 127.5L49.62500000000006 127.5L49.62500000000006 187.5" stroke="#2b526c" stroke-width="1.5" fill="none" marker-end="url(#SvgjsMarker1017)"></path></g><g id="SvgjsG1019"><path id="SvgjsPath1020" d="M69.62500000000006 67.5L69.62500000000006 127.5L69.62500000000006 127.5L69.62500000000006 187.5" stroke="#2b526c" stroke-width="1.5" fill="none" marker-end="url(#SvgjsMarker1021)"></path></g><g id="SvgjsG1023"><path id="SvgjsPath1024" d="M89.62500000000006 67.5L89.62500000000006 127.5L89.62500000000006 127.5L89.62500000000006 187.5" stroke="#2b526c" stroke-width="1.5" fill="none" marker-end="url(#SvgjsMarker1025)"></path></g><g id="SvgjsG1027"><path id="SvgjsPath1028" d="M109.62500000000006 67.5L109.62500000000006 127.5L109.62500000000006 127.5L109.62500000000006 187.5" stroke="#2b526c" stroke-width="1.5" fill="none" marker-end="url(#SvgjsMarker1029)"></path></g><g id="SvgjsG1031"><path id="SvgjsPath1032" d="M129.62500000000006 67.5L129.62500000000006 127.5L129.62500000000006 127.5L129.62500000000006 187.5" stroke="#2b526c" stroke-width="1.5" fill="none" marker-end="url(#SvgjsMarker1033)"></path></g><g id="SvgjsG1035"><path id="SvgjsPath1036" d="M149.62500000000006 67.5L149.62500000000006 127.5L149.62500000000006 127.5L149.62500000000006 187.5" stroke="#2b526c" stroke-width="1.5" fill="none" marker-end="url(#SvgjsMarker1037)"></path></g><g id="SvgjsG1039"><path id="SvgjsPath1040" d="M89.50000000000006 190.16666666666669L89.50000000000006 250.16666666666669L89.50000000000006 250.16666666666669L89.50000000000006 310.1666666666667" stroke="#e8a55e" stroke-width="1.5" fill="none" marker-end="url(#SvgjsMarker1041)"></path></g><g id="SvgjsG1043"><path id="SvgjsPath1044" d="M25.250000000000057 190L89.75000000000006 190L89.75000000000006 190L154.25000000000006 190" stroke="#e8a55e" stroke-width="1.5" fill="none"></path></g><g id="SvgjsG1045"><path id="SvgjsPath1046" d="M25 314.16666666666674L89.5 314.16666666666674L89.5 314.16666666666674L154 314.16666666666674" stroke="#e8a55e" stroke-width="1.5" fill="none"></path></g><g id="SvgjsG1047"><path id="SvgjsPath1048" d="M29.625000000000057 314.1666666666667L29.625000000000057 374.16666666666674L29.625000000000057 374.16666666666674L29.625000000000057 434.1666666666668" stroke="#2b526c" stroke-width="1.5" fill="none" marker-end="url(#SvgjsMarker1049)"></path></g><g id="SvgjsG1051"><path id="SvgjsPath1052" d="M49.62500000000006 314.1666666666667L49.62500000000006 374.16666666666674L49.62500000000006 374.16666666666674L49.62500000000006 434.1666666666668" stroke="#2b526c" stroke-width="1.5" fill="none" marker-end="url(#SvgjsMarker1053)"></path></g><g id="SvgjsG1055"><path id="SvgjsPath1056" d="M69.62500000000006 314.1666666666667L69.62500000000006 374.16666666666674L69.62500000000006 374.16666666666674L69.62500000000006 434.1666666666668" stroke="#2b526c" stroke-width="1.5" fill="none" marker-end="url(#SvgjsMarker1057)"></path></g><g id="SvgjsG1059"><path id="SvgjsPath1060" d="M89.62500000000006 314.1666666666667L89.62500000000006 374.16666666666674L89.62500000000006 374.16666666666674L89.62500000000006 434.1666666666668" stroke="#2b526c" stroke-width="1.5" fill="none" marker-end="url(#SvgjsMarker1061)"></path></g><g id="SvgjsG1063"><path id="SvgjsPath1064" d="M109.62500000000006 314.1666666666667L109.62500000000006 374.16666666666674L109.62500000000006 374.16666666666674L109.62500000000006 434.1666666666668" stroke="#2b526c" stroke-width="1.5" fill="none" marker-end="url(#SvgjsMarker1065)"></path></g><g id="SvgjsG1067"><path id="SvgjsPath1068" d="M129.62500000000006 314.1666666666667L129.62500000000006 374.16666666666674L129.62500000000006 374.16666666666674L129.62500000000006 434.1666666666668" stroke="#2b526c" stroke-width="1.5" fill="none" marker-end="url(#SvgjsMarker1069)"></path></g><g id="SvgjsG1071"><path id="SvgjsPath1072" d="M149.62500000000006 314.1666666666667L149.62500000000006 374.16666666666674L149.62500000000006 374.16666666666674L149.62500000000006 434.1666666666668" stroke="#2b526c" stroke-width="1.5" fill="none" marker-end="url(#SvgjsMarker1073)"></path></g><g id="SvgjsG1075"><path id="SvgjsPath1076" d="M371.2916666666667 65.83333333333334L371.2916666666667 125.83333333333334L371.2916666666667 125.83333333333334L371.2916666666667 185.83333333333334" stroke="#2b526c" stroke-width="1.5" fill="none" marker-end="url(#SvgjsMarker1077)"></path></g><g id="SvgjsG1079"><path id="SvgjsPath1080" d="M391.2916666666667 65.83333333333334L391.2916666666667 125.83333333333334L391.2916666666667 125.83333333333334L391.2916666666667 185.83333333333334" stroke="#2b526c" stroke-width="1.5" fill="none" marker-end="url(#SvgjsMarker1081)"></path></g><g id="SvgjsG1083"><path id="SvgjsPath1084" d="M411.2916666666667 65.83333333333334L411.2916666666667 125.83333333333334L411.2916666666667 125.83333333333334L411.2916666666667 185.83333333333334" stroke="#2b526c" stroke-width="1.5" fill="none" marker-end="url(#SvgjsMarker1085)"></path></g><g id="SvgjsG1087"><path id="SvgjsPath1088" d="M431.2916666666667 65.83333333333334L431.2916666666667 125.83333333333334L431.2916666666667 125.83333333333334L431.2916666666667 185.83333333333334" stroke="#2b526c" stroke-width="1.5" fill="none" marker-end="url(#SvgjsMarker1089)"></path></g><g id="SvgjsG1091"><path id="SvgjsPath1092" d="M451.2916666666667 65.83333333333334L451.2916666666667 125.83333333333334L451.2916666666667 125.83333333333334L451.2916666666667 185.83333333333334" stroke="#2b526c" stroke-width="1.5" fill="none" marker-end="url(#SvgjsMarker1093)"></path></g><g id="SvgjsG1095"><path id="SvgjsPath1096" d="M471.2916666666667 65.83333333333334L471.2916666666667 125.83333333333334L471.2916666666667 125.83333333333334L471.2916666666667 185.83333333333334" stroke="#2b526c" stroke-width="1.5" fill="none" marker-end="url(#SvgjsMarker1097)"></path></g><g id="SvgjsG1099"><path id="SvgjsPath1100" d="M491.2916666666667 65.83333333333334L491.2916666666667 125.83333333333334L491.2916666666667 125.83333333333334L491.2916666666667 185.83333333333334" stroke="#2b526c" stroke-width="1.5" fill="none" marker-end="url(#SvgjsMarker1101)"></path></g><g id="SvgjsG1103"><path id="SvgjsPath1104" d="M366.9166666666667 188.33333333333334L431.4166666666667 188.33333333333334L431.4166666666667 188.33333333333334L495.9166666666667 188.33333333333334" stroke="#e8a55e" stroke-width="1.5" fill="none"></path></g><g id="SvgjsG1105"><path id="SvgjsPath1106" d="M366.6666666666667 243.38235294117658L431.1666666666667 243.38235294117658L431.1666666666667 243.38235294117658L495.6666666666667 243.38235294117658" stroke="#e8a55e" stroke-width="1.5" fill="none"></path></g><g id="SvgjsG1107"><path id="SvgjsPath1108" d="M371.2916666666667 243.38235294117646L371.2916666666667 303.3823529411765L371.2916666666667 303.3823529411765L371.2916666666667 363.3823529411766" stroke="#2b526c" stroke-width="1.5" fill="none" marker-end="url(#SvgjsMarker1109)"></path></g><g id="SvgjsG1111"><path id="SvgjsPath1112" d="M391.2916666666667 243.38235294117646L391.2916666666667 303.3823529411765L391.2916666666667 303.3823529411765L391.2916666666667 363.3823529411766" stroke="#2b526c" stroke-width="1.5" fill="none" marker-end="url(#SvgjsMarker1113)"></path></g><g id="SvgjsG1115"><path id="SvgjsPath1116" d="M411.2916666666667 243.38235294117646L411.2916666666667 303.3823529411765L411.2916666666667 303.3823529411765L411.2916666666667 363.3823529411766" stroke="#2b526c" stroke-width="1.5" fill="none" marker-end="url(#SvgjsMarker1117)"></path></g><g id="SvgjsG1119"><path id="SvgjsPath1120" d="M431.2916666666667 243.38235294117646L431.2916666666667 303.3823529411765L431.2916666666667 303.3823529411765L431.2916666666667 363.3823529411766" stroke="#2b526c" stroke-width="1.5" fill="none" marker-end="url(#SvgjsMarker1121)"></path></g><g id="SvgjsG1123"><path id="SvgjsPath1124" d="M451.2916666666667 243.38235294117646L451.2916666666667 303.3823529411765L451.2916666666667 303.3823529411765L451.2916666666667 363.3823529411766" stroke="#2b526c" stroke-width="1.5" fill="none" marker-end="url(#SvgjsMarker1125)"></path></g><g id="SvgjsG1127"><path id="SvgjsPath1128" d="M471.2916666666667 243.38235294117646L471.2916666666667 303.3823529411765L471.2916666666667 303.3823529411765L471.2916666666667 363.3823529411766" stroke="#2b526c" stroke-width="1.5" fill="none" marker-end="url(#SvgjsMarker1129)"></path></g><g id="SvgjsG1131"><path id="SvgjsPath1132" d="M491.2916666666667 243.38235294117646L491.2916666666667 303.3823529411765L491.2916666666667 303.3823529411765L491.2916666666667 363.3823529411766" stroke="#2b526c" stroke-width="1.5" fill="none" marker-end="url(#SvgjsMarker1133)"></path></g><g id="SvgjsG1135"><path id="SvgjsPath1136" d="M371.2916666666667 188.23529411764704L371.2916666666667 214.66176470588232L371.2916666666667 214.66176470588232L371.2916666666667 241.08823529411762" stroke="#e8a55e" stroke-width="1.5" fill="none" marker-end="url(#SvgjsMarker1137)"></path></g><g id="SvgjsG1139"><path id="SvgjsPath1140" d="M391.2916666666667 188.23529411764704L391.2916666666667 214.66176470588232L391.2916666666667 214.66176470588232L391.2916666666667 241.08823529411762" stroke="#e8a55e" stroke-width="1.5" fill="none" marker-end="url(#SvgjsMarker1141)"></path></g><g id="SvgjsG1143"><path id="SvgjsPath1144" d="M411.2916666666667 188.23529411764704L411.2916666666667 214.66176470588232L411.2916666666667 214.66176470588232L411.2916666666667 241.08823529411762" stroke="#e8a55e" stroke-width="1.5" fill="none" marker-end="url(#SvgjsMarker1145)"></path></g><g id="SvgjsG1147"><path id="SvgjsPath1148" d="M431.2916666666667 188.23529411764704L431.2916666666667 214.66176470588232L431.2916666666667 214.66176470588232L431.2916666666667 241.08823529411762" stroke="#e8a55e" stroke-width="1.5" fill="none" marker-end="url(#SvgjsMarker1149)"></path></g><g id="SvgjsG1151"><path id="SvgjsPath1152" d="M451.2916666666667 188.23529411764704L451.2916666666667 214.66176470588232L451.2916666666667 214.66176470588232L451.2916666666667 241.08823529411762" stroke="#e8a55e" stroke-width="1.5" fill="none" marker-end="url(#SvgjsMarker1153)"></path></g><g id="SvgjsG1155"><path id="SvgjsPath1156" d="M471.2916666666667 188.23529411764704L471.2916666666667 214.66176470588232L471.2916666666667 214.66176470588232L471.2916666666667 241.08823529411762" stroke="#e8a55e" stroke-width="1.5" fill="none" marker-end="url(#SvgjsMarker1157)"></path></g><g id="SvgjsG1159"><path id="SvgjsPath1160" d="M491.2916666666667 188.23529411764704L491.2916666666667 214.66176470588232L491.2916666666667 214.66176470588232L491.2916666666667 241.08823529411762" stroke="#e8a55e" stroke-width="1.5" fill="none" marker-end="url(#SvgjsMarker1161)"></path></g><g id="SvgjsG1163" transform="translate(40.50000000000006,35)"><path id="SvgjsPath1164" d="M 0 0L 100 0L 100 20L 0 20Z" stroke="none" fill="none"></path><g id="SvgjsG1165"><text id="SvgjsText1166" font-family="&quot;Microsoft YaHei&quot;, 微软雅黑, Arial" text-anchor="middle" font-size="13px" width="100px" fill="#323232" font-weight="400" align="middle" lineHeight="125%" anchor="middle" family="&quot;Microsoft YaHei&quot;, 微软雅黑, Arial" size="13px" weight="400" font-style="" opacity="1" y="-0.625" transform="rotate(0)"><tspan id="SvgjsTspan1167" dy="16.25" x="50"><tspan id="SvgjsTspan1168" style="font-weight: bold;">Serial Collector</tspan></tspan></text></g></g><g id="SvgjsG1169" transform="translate(374.50000000000006,25)"><path id="SvgjsPath1170" d="M 0 0L 115 0L 115 40L 0 40Z" stroke="none" fill="none"></path><g id="SvgjsG1171"><text id="SvgjsText1172" font-family="&quot;Microsoft YaHei&quot;, 微软雅黑, Arial" text-anchor="middle" font-size="13px" width="115px" fill="#323232" font-weight="400" align="middle" lineHeight="125%" anchor="middle" family="&quot;Microsoft YaHei&quot;, 微软雅黑, Arial" size="13px" weight="400" font-style="" opacity="1" y="9.375" transform="rotate(0)"><tspan id="SvgjsTspan1173" dy="16.25" x="57.5"><tspan id="SvgjsTspan1174" style="font-weight: bold;">Parallel Collector</tspan></tspan></text></g></g><g id="SvgjsG1175"><path id="SvgjsPath1176" d="M100.50000000000006 210L230.50000000000006 210L230.50000000000006 210L360.50000000000006 210" stroke="#323232" stroke-width="1.5" fill="none" marker-start="url(#SvgjsMarker1177)" marker-end="url(#SvgjsMarker1179)"></path><rect id="SvgjsRect1181" width="133" height="18" x="163.00000000000006" y="201" fill="#ffffff"></rect><text id="SvgjsText1182" font-family="&quot;Microsoft YaHei&quot;, 微软雅黑, Arial" text-anchor="middle" font-size="13px" width="133px" fill="#323232" font-weight="700" align="top" lineHeight="16px" anchor="middle" family="&quot;Microsoft YaHei&quot;, 微软雅黑, Arial" size="13px" weight="700" font-style="" opacity="1" y="198.375" transform="rotate(0)"><tspan id="SvgjsTspan1183" dy="16.25" x="229.50000000000006"><tspan id="SvgjsTspan1184" style="">Stop-the-world pause</tspan></tspan></text></g><g id="SvgjsG1185"></g></svg>