<svg xmlns="http://www.w3.org/2000/svg" xlink="http://www.w3.org/1999/xlink" id="mind-svg-con" version="1.1" width="764px" height="248px" style="position: absolute; left: 0px; top: 0px; width: 764px; height: 248px; background: rgb(255, 255, 255); z-index: 999;"><defs></defs><g id="svgbackgroundid"><defs></defs><rect x="0" y="0" width="764" height="248" fill="#ffffff"></rect></g><g transform="translate(-9634, -9805)" id="sdjakdjak9"><defs></defs><g class="svg-topic-con" transform="translate(0.5,0.5)"><path part="right" sub="true" id="line_dc9c836290b0b18c" d="M 10023.2 9937 C 10023.2 9937 10096 9865.8984375 10216 9865.8984375 L 10320 9865.8984375 L 10216 9865.8984375 C 10116 9865.8984375 10028.2 9943 10028.2 9943 L 10023.2 9937 Z" stroke="#A6E520" fill="#A6E520" stroke-width="2"></path><path part="right" sub="true" id="line_ca195855869ef413" d="M 10023.2 9937 C 10023.2 9937 10096 9917.8984375 10216 9917.8984375 L 10336 9917.8984375 L 10216 9917.8984375 C 10116 9917.8984375 10028.2 9943 10028.2 9943 L 10023.2 9937 Z" stroke="#03C1EB" fill="#03C1EB" stroke-width="2"></path><path part="right" sub="true" id="line_734d6f33354b540e" d="M 10023.2 9949 C 10023.2 9949 10096 9969.8984375 10216 9969.8984375 L 10336 9969.8984375 L 10216 9969.8984375 C 10116 9969.8984375 10028.2 9943 10028.2 9943 L 10023.2 9949 Z" stroke="#6A6CFF" fill="#6A6CFF" stroke-width="2"></path><path part="right" sub="true" id="line_103a0a945a8ed521" d="M 10023.2 9949 C 10023.2 9949 10096 10021.8984375 10216 10021.8984375 L 10368 10021.8984375 L 10216 10021.8984375 C 10116 10021.8984375 10028.2 9943 10028.2 9943 L 10023.2 9949 Z" stroke="#FE3E1E" fill="#FE3E1E" stroke-width="2"></path><path part="left" sub="true" id="line_8f875af226045c0f" d="M 9976.8 9937 C 9976.8 9937 9903 9865.8984375 9783 9865.8984375 L 9663 9865.8984375 L 9783 9865.8984375 C 9883 9865.8984375 9971.8 9943 9971.8 9943 L 9976.8 9937 Z" stroke="#B16FFF" fill="#B16FFF" stroke-width="2"></path><path part="left" sub="true" id="line_42a4526e85e72dbf" d="M 9976.8 9937 C 9976.8 9937 9903 9917.8984375 9783 9917.8984375 L 9663 9917.8984375 L 9783 9917.8984375 C 9883 9917.8984375 9971.8 9943 9971.8 9943 L 9976.8 9937 Z" stroke="#4F7CFF" fill="#4F7CFF" stroke-width="2"></path><path part="left" sub="true" id="line_9464f9ca16c12120" d="M 9976.8 9949 C 9976.8 9949 9903 9969.8984375 9783 9969.8984375 L 9663 9969.8984375 L 9783 9969.8984375 C 9883 9969.8984375 9971.8 9943 9971.8 9943 L 9976.8 9949 Z" stroke="#FF44BC" fill="#FF44BC" stroke-width="2"></path><path part="left" sub="true" id="line_8d28dce1209f096d" d="M 9976.8 9949 C 9976.8 9949 9903 10021.8984375 9783 10021.8984375 L 9663 10021.8984375 L 9783 10021.8984375 C 9883 10021.8984375 9971.8 9943 9971.8 9943 L 9976.8 9949 Z" stroke="#FFD424" fill="#FFD424" stroke-width="2"></path></g><g class="svg-connection-con" transform="translate(0.5,0.5)"></g><g class="svg-freesums-con" transform="translate(0.5,0.5)"></g><g class="svg-freebos-con" transform="translate(0.5,0.5)"></g></g><g id="103a0a945a8ed521"><rect x="582" y="186" rx="1px" ry="1px" width="152" height="30" style="fill: transparent; stroke:none;stroke-width:0px;"></rect><g><text text-anchor="start" align="top" anchor="start" font-size="16px" font-weight="normal" fill="rgb(51, 67, 90)" style="font-size:16px;font-family:微软雅黑;color:#33435A;font-style:normal;text-align:left;font-weight:normal;"><tspan x="602" y="206"><tspan dx="0">运算符的优先级</tspan></tspan></text></g><line x1="582" y1="217" x2="734" y2="217" style="stroke:rgb(254, 62, 30);stroke-width:2"></line></g><g id="734d6f33354b540e"><rect x="582" y="134" rx="1px" ry="1px" width="120" height="30" style="fill: transparent; stroke:none;stroke-width:0px;"></rect><g><text text-anchor="start" align="top" anchor="start" font-size="16px" font-weight="normal" fill="rgb(51, 67, 90)" style="font-size:16px;font-family:微软雅黑;color:#33435A;font-style:normal;text-align:left;font-weight:normal;"><tspan x="602" y="154"><tspan dx="0">身份运算符</tspan></tspan></text></g><line x1="582" y1="165" x2="702" y2="165" style="stroke:rgb(106, 108, 255);stroke-width:2"></line></g><g id="ca195855869ef413"><rect x="582" y="82" rx="1px" ry="1px" width="120" height="30" style="fill: transparent; stroke:none;stroke-width:0px;"></rect><g><text text-anchor="start" align="top" anchor="start" font-size="16px" font-weight="normal" fill="rgb(51, 67, 90)" style="font-size:16px;font-family:微软雅黑;color:#33435A;font-style:normal;text-align:left;font-weight:normal;"><tspan x="602" y="102"><tspan dx="0">成员运算符</tspan></tspan></text></g><line x1="582" y1="113" x2="702" y2="113" style="stroke:rgb(3, 193, 235);stroke-width:2"></line></g><g id="dc9c836290b0b18c"><rect x="582" y="30" rx="1px" ry="1px" width="104" height="30" style="fill: transparent; stroke:none;stroke-width:0px;"></rect><g><text text-anchor="start" align="top" anchor="start" font-size="16px" font-weight="normal" fill="rgb(51, 67, 90)" style="font-size:16px;font-family:微软雅黑;color:#33435A;font-style:normal;text-align:left;font-weight:normal;"><tspan x="602" y="50"><tspan dx="0">位运算符</tspan></tspan></text></g><line x1="582" y1="61" x2="686" y2="61" style="stroke:rgb(166, 229, 32);stroke-width:2"></line></g><g id="8d28dce1209f096d"><rect x="30" y="186" rx="1px" ry="1px" width="120" height="30" style="fill: transparent; stroke:none;stroke-width:0px;"></rect><g><text text-anchor="start" align="top" anchor="start" font-size="16px" font-weight="normal" fill="rgb(51, 67, 90)" style="font-size:16px;font-family:微软雅黑;color:#33435A;font-style:normal;text-align:left;font-weight:normal;"><tspan x="50" y="206"><tspan dx="0">逻辑运算符</tspan></tspan></text></g><line x1="30" y1="217" x2="150" y2="217" style="stroke:rgb(255, 212, 36);stroke-width:2"></line></g><g id="9464f9ca16c12120"><rect x="30" y="134" rx="1px" ry="1px" width="120" height="30" style="fill: transparent; stroke:none;stroke-width:0px;"></rect><g><text text-anchor="start" align="top" anchor="start" font-size="16px" font-weight="normal" fill="rgb(51, 67, 90)" style="font-size:16px;font-family:微软雅黑;color:#33435A;font-style:normal;text-align:left;font-weight:normal;"><tspan x="50" y="154"><tspan dx="0">比较运算符</tspan></tspan></text></g><line x1="30" y1="165" x2="150" y2="165" style="stroke:rgb(255, 68, 188);stroke-width:2"></line></g><g id="42a4526e85e72dbf"><rect x="30" y="82" rx="1px" ry="1px" width="120" height="30" style="fill: transparent; stroke:none;stroke-width:0px;"></rect><g><text text-anchor="start" align="top" anchor="start" font-size="16px" font-weight="normal" fill="rgb(51, 67, 90)" style="font-size:16px;font-family:微软雅黑;color:#33435A;font-style:normal;text-align:left;font-weight:normal;"><tspan x="50" y="102"><tspan dx="0">赋值运算符</tspan></tspan></text></g><line x1="30" y1="113" x2="150" y2="113" style="stroke:rgb(79, 124, 255);stroke-width:2"></line></g><g id="8f875af226045c0f"><rect x="30" y="30" rx="1px" ry="1px" width="120" height="30" style="fill: transparent; stroke:none;stroke-width:0px;"></rect><g><text text-anchor="start" align="top" anchor="start" font-size="16px" font-weight="normal" fill="rgb(51, 67, 90)" style="font-size:16px;font-family:微软雅黑;color:#33435A;font-style:normal;text-align:left;font-weight:normal;"><tspan x="50" y="50"><tspan dx="0">算术运算符</tspan></tspan></text></g><line x1="30" y1="61" x2="150" y2="61" style="stroke:rgb(177, 111, 255);stroke-width:2"></line></g><g transform="translate(582, 186)" id="sdjakdjak0"><g id="subline_103a0a945a8ed521" transform="translate(0.5, 0.5)"></g><g transform="translate(0.5,0.5)"></g><g class="svg-summary-con" transform="translate(0.5,0.5)"></g><g class="svg-boundary-con" transform="translate(0.5,0.5)"></g></g><g transform="translate(582, 134)" id="sdjakdjak1"><g id="subline_734d6f33354b540e" transform="translate(0.5, 0.5)"></g><g transform="translate(0.5,0.5)"></g><g class="svg-summary-con" transform="translate(0.5,0.5)"></g><g class="svg-boundary-con" transform="translate(0.5,0.5)"></g></g><g transform="translate(582, 82)" id="sdjakdjak2"><g id="subline_ca195855869ef413" transform="translate(0.5, 0.5)"></g><g transform="translate(0.5,0.5)"></g><g class="svg-summary-con" transform="translate(0.5,0.5)"></g><g class="svg-boundary-con" transform="translate(0.5,0.5)"></g></g><g transform="translate(582, 30)" id="sdjakdjak3"><g id="subline_dc9c836290b0b18c" transform="translate(0.5, 0.5)"></g><g transform="translate(0.5,0.5)"></g><g class="svg-summary-con" transform="translate(0.5,0.5)"></g><g class="svg-boundary-con" transform="translate(0.5,0.5)"></g></g><g transform="translate(30, 186)" id="sdjakdjak4"><g id="subline_8d28dce1209f096d" transform="translate(0.5, 0.5)"></g><g transform="translate(0.5,0.5)"></g><g class="svg-summary-con" transform="translate(0.5,0.5)"></g><g class="svg-boundary-con" transform="translate(0.5,0.5)"></g></g><g transform="translate(30, 134)" id="sdjakdjak5"><g id="subline_9464f9ca16c12120" transform="translate(0.5, 0.5)"></g><g transform="translate(0.5,0.5)"></g><g class="svg-summary-con" transform="translate(0.5,0.5)"></g><g class="svg-boundary-con" transform="translate(0.5,0.5)"></g></g><g transform="translate(30, 82)" id="sdjakdjak6"><g id="subline_42a4526e85e72dbf" transform="translate(0.5, 0.5)"></g><g transform="translate(0.5,0.5)"></g><g class="svg-summary-con" transform="translate(0.5,0.5)"></g><g class="svg-boundary-con" transform="translate(0.5,0.5)"></g></g><g transform="translate(30, 30)" id="sdjakdjak7"><g id="subline_8f875af226045c0f" transform="translate(0.5, 0.5)"></g><g transform="translate(0.5,0.5)"></g><g class="svg-summary-con" transform="translate(0.5,0.5)"></g><g class="svg-boundary-con" transform="translate(0.5,0.5)"></g></g><g transform="translate(250, 111)" id="sdjakdjak8"><g id="subline_root" transform="translate(0.5, 0.5)"></g><g transform="translate(0.5,0.5)"></g><g class="svg-summary-con" transform="translate(0.5,0.5)"></g><g class="svg-boundary-con" transform="translate(0.5,0.5)"></g></g><g id="root"><rect x="250" y="110.9" rx="6px" ry="6px" width="233" height="56" stroke="rgba(0, 0, 0, 0.1)" style="fill:rgba(0, 0, 0, 0.1);"></rect><rect x="250" y="111" rx="6px" ry="6px" width="232" height="54" style="fill: #ffffff; stroke:none;stroke-width:0px;"></rect><g><text text-anchor="start" align="top" anchor="start" font-size="24px" font-weight="normal" fill="rgb(51, 67, 90)" style="font-size:24px;font-family:微软雅黑;color:#33435A;font-style:normal;text-align:left;font-weight:normal;"><tspan x="282" y="145"><tspan dx="0">运算符与表达式</tspan></tspan></text></g></g></svg>