<svg id="SvgjsSvg1006" width="705" height="397" xmlns="http://www.w3.org/2000/svg" version="1.1" xmlns:xlink="http://www.w3.org/1999/xlink" xmlns:svgjs="http://svgjs.com/svgjs"><defs id="SvgjsDefs1007"><pattern patternUnits="userSpaceOnUse" id="pattern_mark_0" width="300" height="300"><text x="150" y="100" fill="rgba(229,229,229,0.8)" font-size="18" transform="rotate(-45, 150, 150)" style="dominant-baseline: middle; text-anchor: middle;"></text></pattern><pattern patternUnits="userSpaceOnUse" id="pattern_mark_1" width="300" height="300"><text x="150" y="200" fill="rgba(229,229,229,0.8)" font-size="18" transform="rotate(-45, 150, 150)" style="dominant-baseline: middle; text-anchor: middle;"></text></pattern><marker id="SvgjsMarker1079" markerWidth="13" markerHeight="9" refX="9.5" refY="4.5" viewBox="0 0 13 9" orient="auto" markerUnits="userSpaceOnUse" stroke-dasharray="0,0"><path id="SvgjsPath1080" d="M0,0 L13,4.5 L0,9 L0,0" fill="#727272" stroke="#727272" stroke-width="1"></path></marker><marker id="SvgjsMarker1087" markerWidth="13" markerHeight="9" refX="9.5" refY="4.5" viewBox="0 0 13 9" orient="auto" markerUnits="userSpaceOnUse" stroke-dasharray="0,0"><path id="SvgjsPath1088" d="M0,0 L13,4.5 L0,9 L0,0" fill="#727272" stroke="#727272" stroke-width="1"></path></marker><marker id="SvgjsMarker1147" markerWidth="14" markerHeight="10" refX="10" refY="5" viewBox="0 0 14 10" orient="auto" markerUnits="userSpaceOnUse" stroke-dasharray="0,0"><path id="SvgjsPath1148" d="M0,0 L14,5 L0,10 L0,0" fill="#3673a9" stroke="#3673a9" stroke-width="1"></path></marker></defs><rect id="svgbackgroundid" width="705" height="397" fill="transparent"></rect><rect id="SvgjsRect1009" width="705" height="397" fill="url(#pattern_mark_0)"></rect><rect id="SvgjsRect1010" width="705" height="397" fill="url(#pattern_mark_1)"></rect><g id="SvgjsG1011" transform="translate(345,218)"><path id="SvgjsPath1012" d="M 0 4Q 0 0 4 0L 331 0Q 335 0 335 4L 335 150Q 335 154 331 154L 4 154Q 0 154 0 150Z" stroke="rgba(33,41,48,1)" stroke-width="1.5" fill-opacity="1" fill="#e3e3e3"></path><g id="SvgjsG1013"><text id="SvgjsText1014" font-family="&quot;Microsoft YaHei&quot;, 微软雅黑, Arial" text-anchor="middle" font-size="15px" width="315px" fill="#b13d45" font-weight="700" align="top" lineHeight="125%" anchor="middle" family="&quot;Microsoft YaHei&quot;, 微软雅黑, Arial" size="15px" weight="700" font-style="" opacity="1" y="-2.875" transform="rotate(0)"><tspan id="SvgjsTspan1015" dy="18.75" x="167.5"><tspan id="SvgjsTspan1016" style="">方法区</tspan></tspan></text></g></g><g id="SvgjsG1017" transform="translate(345,25)"><path id="SvgjsPath1018" d="M 0 4Q 0 0 4 0L 331 0Q 335 0 335 4L 335 144Q 335 148 331 148L 4 148Q 0 148 0 144Z" stroke="rgba(227,227,227,1)" stroke-width="1.5" fill-opacity="1" fill="#ffffff"></path><g id="SvgjsG1019"><text id="SvgjsText1020" font-family="&quot;Microsoft YaHei&quot;, 微软雅黑, Arial" text-anchor="middle" font-size="15px" width="315px" fill="#37719e" font-weight="700" align="top" lineHeight="125%" anchor="middle" family="&quot;Microsoft YaHei&quot;, 微软雅黑, Arial" size="15px" weight="700" font-style="" opacity="1" y="-2.875" transform="rotate(0)"><tspan id="SvgjsTspan1021" dy="18.75" x="167.5"><tspan id="SvgjsTspan1022" style="">JVM运行时数据区</tspan></tspan></text></g></g><g id="SvgjsG1023" transform="translate(478,54)"><path id="SvgjsPath1024" d="M 0 0L 190 0L 190 115L 0 115Z" stroke="none" fill-opacity="1" fill="#b8bab9"></path><g id="SvgjsG1025"><text id="SvgjsText1026" font-family="&quot;Microsoft YaHei&quot;, 微软雅黑, Arial" text-anchor="middle" font-size="13px" width="170px" fill="#5282a5" font-weight="700" align="top" lineHeight="125%" anchor="middle" family="&quot;Microsoft YaHei&quot;, 微软雅黑, Arial" size="13px" weight="700" font-style="" opacity="1" y="-2.625" transform="rotate(0)"><tspan id="SvgjsTspan1027" dy="16.25" x="95"><tspan id="SvgjsTspan1028" style="">线程共享部分</tspan></tspan></text></g></g><g id="SvgjsG1029" transform="translate(356,54)"><path id="SvgjsPath1030" d="M 0 0L 112 0L 112 115L 0 115Z" stroke="none" fill-opacity="1" fill="#edfaff"></path><g id="SvgjsG1031"><text id="SvgjsText1032" font-family="&quot;Microsoft YaHei&quot;, 微软雅黑, Arial" text-anchor="middle" font-size="13px" width="92px" fill="#5282a5" font-weight="700" align="top" lineHeight="125%" anchor="middle" family="&quot;Microsoft YaHei&quot;, 微软雅黑, Arial" size="13px" weight="700" font-style="" opacity="1" y="-2.625" transform="rotate(0)"><tspan id="SvgjsTspan1033" dy="16.25" x="56"><tspan id="SvgjsTspan1034" style="">线程共享部分</tspan></tspan></text></g></g><g id="SvgjsG1035" transform="translate(25,43)"><path id="SvgjsPath1036" d="M 0 4Q 0 0 4 0L 96 0Q 100 0 100 4L 100 36Q 100 40 96 40L 4 40Q 0 40 0 36Z" stroke="none" fill-opacity="1" fill="#3974b8"></path><g id="SvgjsG1037"><text id="SvgjsText1038" font-family="&quot;Microsoft YaHei&quot;, 微软雅黑, Arial" text-anchor="middle" font-size="13px" width="80px" fill="#ffffff" font-weight="700" align="middle" lineHeight="125%" anchor="middle" family="&quot;Microsoft YaHei&quot;, 微软雅黑, Arial" size="13px" weight="700" font-style="" opacity="1" y="9.375" transform="rotate(0)"><tspan id="SvgjsTspan1039" dy="16.25" x="50"><tspan id="SvgjsTspan1040" style="">.java源代码</tspan></tspan></text></g></g><g id="SvgjsG1041" transform="translate(185,43)"><path id="SvgjsPath1042" d="M 0 4Q 0 0 4 0L 96 0Q 100 0 100 4L 100 36Q 100 40 96 40L 4 40Q 0 40 0 36Z" stroke="none" fill-opacity="1" fill="#3974b8"></path><g id="SvgjsG1043"><text id="SvgjsText1044" font-family="&quot;Microsoft YaHei&quot;, 微软雅黑, Arial" text-anchor="middle" font-size="13px" width="80px" fill="#ffffff" font-weight="700" align="middle" lineHeight="125%" anchor="middle" family="&quot;Microsoft YaHei&quot;, 微软雅黑, Arial" size="13px" weight="700" font-style="" opacity="1" y="9.375" transform="rotate(0)"><tspan id="SvgjsTspan1045" dy="16.25" x="50"><tspan id="SvgjsTspan1046" style="">.class字节码</tspan></tspan></text></g></g><g id="SvgjsG1047" transform="translate(372,79)"><path id="SvgjsPath1048" d="M 0 4Q 0 0 4 0L 76 0Q 80 0 80 4L 80 36Q 80 40 76 40L 4 40Q 0 40 0 36Z" stroke="none" fill-opacity="1" fill="#6f7178"></path><g id="SvgjsG1049"><text id="SvgjsText1050" font-family="&quot;Microsoft YaHei&quot;, 微软雅黑, Arial" text-anchor="middle" font-size="13px" width="60px" fill="#ffffff" font-weight="700" align="middle" lineHeight="125%" anchor="middle" family="&quot;Microsoft YaHei&quot;, 微软雅黑, Arial" size="13px" weight="700" font-style="" opacity="1" y="9.375" transform="rotate(0)"><tspan id="SvgjsTspan1051" dy="16.25" x="40"><tspan id="SvgjsTspan1052" style="">方法区</tspan></tspan></text></g></g><g id="SvgjsG1053" transform="translate(372,124)"><path id="SvgjsPath1054" d="M 0 4Q 0 0 4 0L 76 0Q 80 0 80 4L 80 36Q 80 40 76 40L 4 40Q 0 40 0 36Z" stroke="none" fill-opacity="1" fill="#6f7178"></path><g id="SvgjsG1055"><text id="SvgjsText1056" font-family="&quot;Microsoft YaHei&quot;, 微软雅黑, Arial" text-anchor="middle" font-size="13px" width="60px" fill="#ffffff" font-weight="700" align="middle" lineHeight="125%" anchor="middle" family="&quot;Microsoft YaHei&quot;, 微软雅黑, Arial" size="13px" weight="700" font-style="" opacity="1" y="9.375" transform="rotate(0)"><tspan id="SvgjsTspan1057" dy="16.25" x="40"><tspan id="SvgjsTspan1058" style="">堆内存</tspan></tspan></text></g></g><g id="SvgjsG1059" transform="translate(488,124)"><path id="SvgjsPath1060" d="M 0 4Q 0 0 4 0L 166 0Q 170 0 170 4L 170 36Q 170 40 166 40L 4 40Q 0 40 0 36Z" stroke="none" fill-opacity="1" fill="#6f7178"></path><g id="SvgjsG1061"><text id="SvgjsText1062" font-family="&quot;Microsoft YaHei&quot;, 微软雅黑, Arial" text-anchor="middle" font-size="13px" width="150px" fill="#ffffff" font-weight="700" align="middle" lineHeight="125%" anchor="middle" family="&quot;Microsoft YaHei&quot;, 微软雅黑, Arial" size="13px" weight="700" font-style="" opacity="1" y="9.375" transform="rotate(0)"><tspan id="SvgjsTspan1063" dy="16.25" x="85"><tspan id="SvgjsTspan1064" style="">程序计数器</tspan></tspan></text></g></g><g id="SvgjsG1065" transform="translate(488,79)"><path id="SvgjsPath1066" d="M 0 4Q 0 0 4 0L 76 0Q 80 0 80 4L 80 36Q 80 40 76 40L 4 40Q 0 40 0 36Z" stroke="none" fill-opacity="1" fill="#6f7178"></path><g id="SvgjsG1067"><text id="SvgjsText1068" font-family="&quot;Microsoft YaHei&quot;, 微软雅黑, Arial" text-anchor="middle" font-size="13px" width="60px" fill="#ffffff" font-weight="700" align="middle" lineHeight="125%" anchor="middle" family="&quot;Microsoft YaHei&quot;, 微软雅黑, Arial" size="13px" weight="700" font-style="" opacity="1" y="9.375" transform="rotate(0)"><tspan id="SvgjsTspan1069" dy="16.25" x="40"><tspan id="SvgjsTspan1070" style="">虚拟机栈</tspan></tspan></text></g></g><g id="SvgjsG1071" transform="translate(573,79)"><path id="SvgjsPath1072" d="M 0 4Q 0 0 4 0L 81 0Q 85 0 85 4L 85 36Q 85 40 81 40L 4 40Q 0 40 0 36Z" stroke="none" fill-opacity="1" fill="#6f7178"></path><g id="SvgjsG1073"><text id="SvgjsText1074" font-family="&quot;Microsoft YaHei&quot;, 微软雅黑, Arial" text-anchor="middle" font-size="13px" width="65px" fill="#ffffff" font-weight="700" align="middle" lineHeight="125%" anchor="middle" family="&quot;Microsoft YaHei&quot;, 微软雅黑, Arial" size="13px" weight="700" font-style="" opacity="1" y="9.375" transform="rotate(0)"><tspan id="SvgjsTspan1075" dy="16.25" x="42.5"><tspan id="SvgjsTspan1076" style="">本地方法栈</tspan></tspan></text></g></g><g id="SvgjsG1077"><path id="SvgjsPath1078" d="M125 63L155 63L155 63L183.05 63" stroke="#727272" stroke-width="1.5" fill="none" marker-end="url(#SvgjsMarker1079)"></path><rect id="SvgjsRect1081" width="26" height="18" x="139.09000000000003" y="54" fill="#ffffff"></rect><text id="SvgjsText1082" font-family="&quot;Microsoft YaHei&quot;, 微软雅黑, Arial" text-anchor="middle" font-size="13px" width="26px" fill="#323232" font-weight="400" align="top" lineHeight="16px" anchor="middle" family="&quot;Microsoft YaHei&quot;, 微软雅黑, Arial" size="13px" weight="400" font-style="" opacity="1" y="51.375" transform="rotate(0)"><tspan id="SvgjsTspan1083" dy="16.25" x="152.09000000000003"><tspan id="SvgjsTspan1084" style="">编译</tspan></tspan></text></g><g id="SvgjsG1085"><path id="SvgjsPath1086" d="M285 63L315 63L315 63L345 63" stroke="#727272" stroke-width="1.5" fill="none" marker-end="url(#SvgjsMarker1087)"></path></g><g id="SvgjsG1089" transform="translate(382.5,234)"><path id="SvgjsPath1090" d="M 0 4Q 0 0 4 0L 86 0Q 90 0 90 4L 90 35Q 90 39 86 39L 4 39Q 0 39 0 35Z" stroke="none" fill-opacity="1" fill="#6f7178"></path><g id="SvgjsG1091"><text id="SvgjsText1092" font-family="&quot;Microsoft YaHei&quot;, 微软雅黑, Arial" text-anchor="middle" font-size="13px" width="70px" fill="#ffffff" font-weight="700" align="middle" lineHeight="125%" anchor="middle" family="&quot;Microsoft YaHei&quot;, 微软雅黑, Arial" size="13px" weight="700" font-style="" opacity="1" y="0.375" transform="rotate(0)"><tspan id="SvgjsTspan1093" dy="16.25" x="45"><tspan id="SvgjsTspan1094" style="">类信息</tspan></tspan><tspan id="SvgjsTspan1095" dy="16.25" x="45"><tspan id="SvgjsTspan1096" style="">Demo1...</tspan></tspan></text></g></g><g id="SvgjsG1097" transform="translate(393.5,252.60000000000002)"><path id="SvgjsPath1098" d="M 0 4Q 0 0 4 0L 86 0Q 90 0 90 4L 90 35Q 90 39 86 39L 4 39Q 0 39 0 35Z" stroke="none" fill-opacity="1" fill="#6f7178"></path><g id="SvgjsG1099"><text id="SvgjsText1100" font-family="&quot;Microsoft YaHei&quot;, 微软雅黑, Arial" text-anchor="middle" font-size="13px" width="70px" fill="#ffffff" font-weight="700" align="middle" lineHeight="125%" anchor="middle" family="&quot;Microsoft YaHei&quot;, 微软雅黑, Arial" size="13px" weight="700" font-style="" opacity="1" y="0.375" transform="rotate(0)"><tspan id="SvgjsTspan1101" dy="16.25" x="45"><tspan id="SvgjsTspan1102" style="">类信息</tspan></tspan><tspan id="SvgjsTspan1103" dy="16.25" x="45"><tspan id="SvgjsTspan1104" style="">Demo1...</tspan></tspan></text></g></g><g id="SvgjsG1105" transform="translate(404.5,271.20000000000005)"><path id="SvgjsPath1106" d="M 0 4Q 0 0 4 0L 86 0Q 90 0 90 4L 90 35Q 90 39 86 39L 4 39Q 0 39 0 35Z" stroke="none" fill-opacity="1" fill="#6f7178"></path><g id="SvgjsG1107"><text id="SvgjsText1108" font-family="&quot;Microsoft YaHei&quot;, 微软雅黑, Arial" text-anchor="middle" font-size="13px" width="70px" fill="#ffffff" font-weight="700" align="middle" lineHeight="125%" anchor="middle" family="&quot;Microsoft YaHei&quot;, 微软雅黑, Arial" size="13px" weight="700" font-style="" opacity="1" y="0.375" transform="rotate(0)"><tspan id="SvgjsTspan1109" dy="16.25" x="45"><tspan id="SvgjsTspan1110" style="">类信息</tspan></tspan><tspan id="SvgjsTspan1111" dy="16.25" x="45"><tspan id="SvgjsTspan1112" style="">Demo1...</tspan></tspan></text></g></g><g id="SvgjsG1113" transform="translate(415.5,289.80000000000007)"><path id="SvgjsPath1114" d="M 0 4Q 0 0 4 0L 86 0Q 90 0 90 4L 90 35Q 90 39 86 39L 4 39Q 0 39 0 35Z" stroke="none" fill-opacity="1" fill="#6f7178"></path><g id="SvgjsG1115"><text id="SvgjsText1116" font-family="&quot;Microsoft YaHei&quot;, 微软雅黑, Arial" text-anchor="middle" font-size="13px" width="70px" fill="#ffffff" font-weight="700" align="middle" lineHeight="125%" anchor="middle" family="&quot;Microsoft YaHei&quot;, 微软雅黑, Arial" size="13px" weight="700" font-style="" opacity="1" y="0.375" transform="rotate(0)"><tspan id="SvgjsTspan1117" dy="16.25" x="45"><tspan id="SvgjsTspan1118" style="">类信息</tspan></tspan><tspan id="SvgjsTspan1119" dy="16.25" x="45"><tspan id="SvgjsTspan1120" style="">Demo1...</tspan></tspan></text></g></g><g id="SvgjsG1121" transform="translate(426.5,308.4000000000001)"><path id="SvgjsPath1122" d="M 0 4Q 0 0 4 0L 86 0Q 90 0 90 4L 90 35Q 90 39 86 39L 4 39Q 0 39 0 35Z" stroke="none" fill-opacity="1" fill="#6f7178"></path><g id="SvgjsG1123"><text id="SvgjsText1124" font-family="&quot;Microsoft YaHei&quot;, 微软雅黑, Arial" text-anchor="middle" font-size="13px" width="70px" fill="#ffffff" font-weight="700" align="middle" lineHeight="125%" anchor="middle" family="&quot;Microsoft YaHei&quot;, 微软雅黑, Arial" size="13px" weight="700" font-style="" opacity="1" y="0.375" transform="rotate(0)"><tspan id="SvgjsTspan1125" dy="16.25" x="45"><tspan id="SvgjsTspan1126" style="">类信息</tspan></tspan><tspan id="SvgjsTspan1127" dy="16.25" x="45"><tspan id="SvgjsTspan1128" style="">Demo1...</tspan></tspan></text></g></g><g id="SvgjsG1129" transform="translate(437.5,327.0000000000001)"><path id="SvgjsPath1130" d="M 0 4Q 0 0 4 0L 86 0Q 90 0 90 4L 90 35Q 90 39 86 39L 4 39Q 0 39 0 35Z" stroke="none" fill-opacity="1" fill="#6f7178"></path><g id="SvgjsG1131"><text id="SvgjsText1132" font-family="&quot;Microsoft YaHei&quot;, 微软雅黑, Arial" text-anchor="middle" font-size="13px" width="70px" fill="#ffffff" font-weight="700" align="middle" lineHeight="125%" anchor="middle" family="&quot;Microsoft YaHei&quot;, 微软雅黑, Arial" size="13px" weight="700" font-style="" opacity="1" y="0.375" transform="rotate(0)"><tspan id="SvgjsTspan1133" dy="16.25" x="45"><tspan id="SvgjsTspan1134" style="">类信息</tspan></tspan><tspan id="SvgjsTspan1135" dy="16.25" x="45"><tspan id="SvgjsTspan1136" style="">Demo1...</tspan></tspan></text></g></g><g id="SvgjsG1137" transform="translate(542.5,275)"><path id="SvgjsPath1138" d="M 0 4Q 0 0 4 0L 96 0Q 100 0 100 4L 100 45.999999999999886Q 100 49.999999999999886 96 49.999999999999886L 4 49.999999999999886Q 0 49.999999999999886 0 45.999999999999886Z" stroke="none" fill-opacity="1" fill="#707176"></path><g id="SvgjsG1139"><text id="SvgjsText1140" font-family="&quot;Microsoft YaHei&quot;, 微软雅黑, Arial" text-anchor="middle" font-size="13px" width="80px" fill="#ffffff" font-weight="700" align="middle" lineHeight="125%" anchor="middle" family="&quot;Microsoft YaHei&quot;, 微软雅黑, Arial" size="13px" weight="700" font-style="" opacity="1" y="5.874999999999943" transform="rotate(0)"><tspan id="SvgjsTspan1141" dy="16.25" x="50"><tspan id="SvgjsTspan1142" style="">运行时常量池</tspan></tspan><tspan id="SvgjsTspan1143" dy="16.25" x="50"><tspan id="SvgjsTspan1144" style="text-decoration: underline;fill: rgb(241, 228, 162);">字符串常量</tspan></tspan></text></g></g><g id="SvgjsG1145"><path id="SvgjsPath1146" d="M436 119L459 228" stroke="#3673a9" stroke-width="2" fill="none" marker-end="url(#SvgjsMarker1147)"></path></g><g id="SvgjsG1149" transform="translate(188,218)"><path id="SvgjsPath1150" d="M 152 0Q 143 0 143 9L 143 68Q 143 77 130 77Q 143 77 143 86L 143 145Q 143 154 152 154" stroke="rgba(33,41,48,1)" stroke-width="1.5" fill="none"></path><path id="SvgjsPath1151" d="M 0 0L 152 0L 152 154L 0 154Z" stroke="none" fill="none"></path><g id="SvgjsG1152"><text id="SvgjsText1153" font-family="&quot;Microsoft YaHei&quot;, 微软雅黑, Arial" text-anchor="end" font-size="15px" width="125px" fill="#5481a9" font-weight="700" align="middle" lineHeight="125%" anchor="end" family="&quot;Microsoft YaHei&quot;, 微软雅黑, Arial" size="15px" weight="700" font-style="" opacity="1" y="64.625" transform="rotate(0)"><tspan id="SvgjsTspan1154" dy="18.75" x="125"><tspan id="SvgjsTspan1155" style="">加载信息到方法区</tspan></tspan></text></g></g><g id="SvgjsG1156"></g></svg>