<svg id="SvgjsSvg1006" width="645.6100628930817" height="273" xmlns="http://www.w3.org/2000/svg" version="1.1" xmlns:xlink="http://www.w3.org/1999/xlink" xmlns:svgjs="http://svgjs.com/svgjs"><defs id="SvgjsDefs1007"><pattern patternUnits="userSpaceOnUse" id="pattern_mark_0" width="300" height="300"><text x="150" y="100" fill="rgba(229,229,229,0.8)" font-size="18" transform="rotate(-45, 150, 150)" style="dominant-baseline: middle; text-anchor: middle;"></text></pattern><pattern patternUnits="userSpaceOnUse" id="pattern_mark_1" width="300" height="300"><text x="150" y="200" fill="rgba(229,229,229,0.8)" font-size="18" transform="rotate(-45, 150, 150)" style="dominant-baseline: middle; text-anchor: middle;"></text></pattern></defs><rect id="svgbackgroundid" width="645.6100628930817" height="273" fill="transparent"></rect><rect id="SvgjsRect1009" width="645.6100628930817" height="273" fill="url(#pattern_mark_0)"></rect><rect id="SvgjsRect1010" width="645.6100628930817" height="273" fill="url(#pattern_mark_1)"></rect><g id="SvgjsG1011" transform="translate(118.9433962264151,25)"><path id="SvgjsPath1012" d="M0 0L150.00187499999998 0L150.00187499999998 100 L0 100Z" stroke="rgba(102, 102, 102,1)" stroke-width="1" fill-opacity="1" fill="#f08502"></path><path id="SvgjsPath1013" d="M150.00187499999998 0L200.0025 0L200.0025 100 L150.00187499999998 100Z" stroke="rgba(102, 102, 102,1)" stroke-width="1" fill-opacity="1" fill="#f07363"></path><path id="SvgjsPath1014" d="M199.9624995 0L249.9631245 0L249.9631245 100 L199.9624995 100Z" stroke="rgba(102, 102, 102,1)" stroke-width="1" fill-opacity="1" fill="#f07363"></path><path id="SvgjsPath1015" d="M249.9631245 0L400.005 0L400.005 100 L249.9631245 100Z" stroke="rgba(102, 102, 102,1)" stroke-width="1" fill-opacity="1" fill="#4f95fe"></path><g id="SvgjsG1016"><text id="SvgjsText1017" font-family="&quot;Microsoft YaHei&quot;, 微软雅黑, Arial" text-anchor="middle" font-size="16px" width="151px" fill="#323232" font-weight="700" align="middle" lineHeight="125%" anchor="middle" family="&quot;Microsoft YaHei&quot;, 微软雅黑, Arial" size="16px" weight="700" font-style="" opacity="1" y="36" transform="rotate(0)"><tspan id="SvgjsTspan1018" dy="20" x="75.5"><tspan id="SvgjsTspan1019" style="">Eden</tspan></tspan></text></g><g id="SvgjsG1020"><text id="SvgjsText1021" font-family="&quot;Microsoft YaHei&quot;, 微软雅黑, Arial" text-anchor="middle" font-size="16px" width="51px" fill="#323232" font-weight="700" align="middle" lineHeight="125%" anchor="middle" family="&quot;Microsoft YaHei&quot;, 微软雅黑, Arial" size="16px" weight="700" font-style="" opacity="1" y="36" transform="rotate(0)"><tspan id="SvgjsTspan1022" dy="20" x="175.50187499999998"><tspan id="SvgjsTspan1023" style="">S0</tspan></tspan></text></g><g id="SvgjsG1024"><text id="SvgjsText1025" font-family="&quot;Microsoft YaHei&quot;, 微软雅黑, Arial" text-anchor="middle" font-size="16px" width="51px" fill="#323232" font-weight="700" align="middle" lineHeight="125%" anchor="middle" family="&quot;Microsoft YaHei&quot;, 微软雅黑, Arial" size="16px" weight="700" font-style="" opacity="1" y="36" transform="rotate(0)"><tspan id="SvgjsTspan1026" dy="20" x="225.4624995"><tspan id="SvgjsTspan1027" style="">S1</tspan></tspan></text></g><g id="SvgjsG1028"><text id="SvgjsText1029" font-family="&quot;Microsoft YaHei&quot;, 微软雅黑, Arial" text-anchor="middle" font-size="16px" width="151px" fill="#323232" font-weight="700" align="middle" lineHeight="125%" anchor="middle" family="&quot;Microsoft YaHei&quot;, 微软雅黑, Arial" size="16px" weight="700" font-style="" opacity="1" y="36" transform="rotate(0)"><tspan id="SvgjsTspan1030" dy="20" x="325.4631245"><tspan id="SvgjsTspan1031" style="">Tenured</tspan></tspan></text></g></g><g id="SvgjsG1032" transform="translate(519.9433962264151,25)"><path id="SvgjsPath1033" d="M 0 0L 100 0L 100 100L 0 100Z" stroke-dasharray="7.5,3" stroke="rgba(33,41,48,1)" stroke-width="1.5" fill-opacity="1" fill="#e3e5e3"></path><g id="SvgjsG1034"><text id="SvgjsText1035" font-family="&quot;Microsoft YaHei&quot;, 微软雅黑, Arial" text-anchor="middle" font-size="14px" width="80px" fill="#323232" font-weight="700" align="middle" lineHeight="125%" anchor="middle" family="&quot;Microsoft YaHei&quot;, 微软雅黑, Arial" size="14px" weight="700" font-style="" opacity="1" y="38.25" transform="rotate(0)"><tspan id="SvgjsTspan1036" dy="17.5" x="50"><tspan id="SvgjsTspan1037" style="">Meta space</tspan></tspan></text></g></g><g id="SvgjsG1038" transform="matrix(-1.8369701987210297e-16,-1,1,-1.8369701987210297e-16,269.27674357096356,168.99999745686847)"><path id="SvgjsPath1039" d="M 43 0Q 38.7 0 38.7 9L 38.7 40.333333333333314Q 38.7 49.333333333333314 21 49.333333333333314Q 38.7 49.333333333333314 38.7 58.333333333333314L 38.7 89.66666666666663Q 38.7 98.66666666666663 43 98.66666666666663" stroke="rgba(33,41,48,1)" stroke-width="1.5" fill="none"></path><path id="SvgjsPath1040" d="M 0 0L 43 0L 43 98.66666666666663L 0 98.66666666666663Z" stroke="none" fill="none"></path><g id="SvgjsG1041"><text id="SvgjsText1042" font-family="&quot;Microsoft YaHei&quot;, 微软雅黑, Arial" text-anchor="end" font-size="13px" width="16px" fill="#323232" font-weight="400" align="middle" lineHeight="125%" anchor="end" family="&quot;Microsoft YaHei&quot;, 微软雅黑, Arial" size="13px" weight="400" font-style="" opacity="1" y="38.708333333333314" transform="rotate(0)"></text></g></g><g id="SvgjsG1043" transform="translate(268.9458962264151,137)"><path id="SvgjsPath1044" d="M 0 0L 100 0L 100 40L 0 40Z" stroke="none" fill="none"></path><g id="SvgjsG1045"><text id="SvgjsText1046" font-family="&quot;Microsoft YaHei&quot;, 微软雅黑, Arial" text-anchor="middle" font-size="13px" width="100px" fill="#a7932c" font-weight="700" align="middle" lineHeight="125%" anchor="middle" family="&quot;Microsoft YaHei&quot;, 微软雅黑, Arial" size="13px" weight="700" font-style="" opacity="1" y="9.375" transform="rotate(0)"><tspan id="SvgjsTspan1047" dy="16.25" x="50"><tspan id="SvgjsTspan1048" style="">Survivro区</tspan></tspan></text></g></g><g id="SvgjsG1049" transform="matrix(-1.8369701987210297e-16,-1,1,-1.8369701987210297e-16,120.61005655924481,212.9999974568685)"><path id="SvgjsPath1050" d="M 43 0Q 38.7 0 38.7 9L 38.7 114.33333333333331Q 38.7 123.33333333333331 21 123.33333333333331Q 38.7 123.33333333333331 38.7 132.33333333333331L 38.7 237.66666666666663Q 38.7 246.66666666666663 43 246.66666666666663" stroke="rgba(33,41,48,1)" stroke-width="1.5" fill="none"></path><path id="SvgjsPath1051" d="M 0 0L 43 0L 43 246.66666666666663L 0 246.66666666666663Z" stroke="none" fill="none"></path><g id="SvgjsG1052"><text id="SvgjsText1053" font-family="&quot;Microsoft YaHei&quot;, 微软雅黑, Arial" text-anchor="end" font-size="13px" width="16px" fill="#323232" font-weight="400" align="middle" lineHeight="125%" anchor="end" family="&quot;Microsoft YaHei&quot;, 微软雅黑, Arial" size="13px" weight="400" font-style="" opacity="1" y="112.70833333333331" transform="rotate(0)"></text></g></g><g id="SvgjsG1054" transform="matrix(-1.8369701987210297e-16,-1,1,-1.8369701987210297e-16,368.6100769042969,213)"><path id="SvgjsPath1055" d="M 43 0Q 38.7 0 38.7 9L 38.7 65.99999999999997Q 38.7 74.99999999999997 21 74.99999999999997Q 38.7 74.99999999999997 38.7 83.99999999999997L 38.7 140.99999999999994Q 38.7 149.99999999999994 43 149.99999999999994" stroke="rgba(33,41,48,1)" stroke-width="1.5" fill="none"></path><path id="SvgjsPath1056" d="M 0 0L 43 0L 43 149.99999999999994L 0 149.99999999999994Z" stroke="none" fill="none"></path><g id="SvgjsG1057"><text id="SvgjsText1058" font-family="&quot;Microsoft YaHei&quot;, 微软雅黑, Arial" text-anchor="end" font-size="13px" width="16px" fill="#323232" font-weight="400" align="middle" lineHeight="125%" anchor="end" family="&quot;Microsoft YaHei&quot;, 微软雅黑, Arial" size="13px" weight="400" font-style="" opacity="1" y="64.37499999999997" transform="rotate(0)"></text></g></g><g id="SvgjsG1059" transform="matrix(-1.8369701987210297e-16,-1,1,-1.8369701987210297e-16,520.6100463867189,212.99999999999994)"><path id="SvgjsPath1060" d="M 43 0Q 38.7 0 38.7 9L 38.7 40.99999999999994Q 38.7 49.99999999999994 21 49.99999999999994Q 38.7 49.99999999999994 38.7 58.99999999999994L 38.7 90.99999999999989Q 38.7 99.99999999999989 43 99.99999999999989" stroke="rgba(33,41,48,1)" stroke-width="1.5" fill="none"></path><path id="SvgjsPath1061" d="M 0 0L 43 0L 43 99.99999999999989L 0 99.99999999999989Z" stroke="none" fill="none"></path><g id="SvgjsG1062"><text id="SvgjsText1063" font-family="&quot;Microsoft YaHei&quot;, 微软雅黑, Arial" text-anchor="end" font-size="13px" width="16px" fill="#323232" font-weight="400" align="middle" lineHeight="125%" anchor="end" family="&quot;Microsoft YaHei&quot;, 微软雅黑, Arial" size="13px" weight="400" font-style="" opacity="1" y="39.37499999999994" transform="rotate(0)"></text></g></g><g id="SvgjsG1064" transform="translate(194.27922955974842,189)"><path id="SvgjsPath1065" d="M 0 0L 100 0L 100 40L 0 40Z" stroke="none" fill="none"></path><g id="SvgjsG1066"><text id="SvgjsText1067" font-family="&quot;Microsoft YaHei&quot;, 微软雅黑, Arial" text-anchor="middle" font-size="13px" width="100px" fill="#a7932c" font-weight="700" align="middle" lineHeight="125%" anchor="middle" family="&quot;Microsoft YaHei&quot;, 微软雅黑, Arial" size="13px" weight="700" font-style="" opacity="1" y="9.375" transform="rotate(0)"><tspan id="SvgjsTspan1068" dy="16.25" x="50"><tspan id="SvgjsTspan1069" style="">年轻代</tspan></tspan></text></g></g><g id="SvgjsG1070" transform="translate(393.94339622641513,189)"><path id="SvgjsPath1071" d="M 0 0L 100 0L 100 40L 0 40Z" stroke="none" fill="none"></path><g id="SvgjsG1072"><text id="SvgjsText1073" font-family="&quot;Microsoft YaHei&quot;, 微软雅黑, Arial" text-anchor="middle" font-size="13px" width="100px" fill="#a7932c" font-weight="700" align="middle" lineHeight="125%" anchor="middle" family="&quot;Microsoft YaHei&quot;, 微软雅黑, Arial" size="13px" weight="700" font-style="" opacity="1" y="9.375" transform="rotate(0)"><tspan id="SvgjsTspan1074" dy="16.25" x="50"><tspan id="SvgjsTspan1075" style="">老年代</tspan></tspan></text></g></g><g id="SvgjsG1076" transform="translate(519.9433962264151,189)"><path id="SvgjsPath1077" d="M 0 0L 100 0L 100 40L 0 40Z" stroke="none" fill="none"></path><g id="SvgjsG1078"><text id="SvgjsText1079" font-family="&quot;Microsoft YaHei&quot;, 微软雅黑, Arial" text-anchor="middle" font-size="13px" width="100px" fill="#a7932c" font-weight="700" align="middle" lineHeight="125%" anchor="middle" family="&quot;Microsoft YaHei&quot;, 微软雅黑, Arial" size="13px" weight="700" font-style="" opacity="1" y="9.375" transform="rotate(0)"><tspan id="SvgjsTspan1080" dy="16.25" x="50"><tspan id="SvgjsTspan1081" style="">元空间</tspan></tspan></text></g></g><g id="SvgjsG1082" transform="translate(25,55)"><path id="SvgjsPath1083" d="M 0 0L 100 0L 100 40L 0 40Z" stroke="none" fill="none"></path><g id="SvgjsG1084"><text id="SvgjsText1085" font-family="&quot;Microsoft YaHei&quot;, 微软雅黑, Arial" text-anchor="middle" font-size="16px" width="100px" fill="#323232" font-weight="400" align="middle" lineHeight="125%" anchor="middle" family="&quot;Microsoft YaHei&quot;, 微软雅黑, Arial" size="16px" weight="400" font-style="" opacity="1" y="6" transform="rotate(0)"><tspan id="SvgjsTspan1086" dy="20" x="50"><tspan id="SvgjsTspan1087" style="font-weight: bold;">JDK 8</tspan></tspan></text></g></g><g id="SvgjsG1088"></g></svg>