<svg id="SvgjsSvg1006" width="518" height="428" xmlns="http://www.w3.org/2000/svg" version="1.1" xmlns:xlink="http://www.w3.org/1999/xlink" xmlns:svgjs="http://svgjs.com/svgjs"><defs id="SvgjsDefs1007"><pattern patternUnits="userSpaceOnUse" id="pattern_mark_0" width="300" height="300"><text x="150" y="100" fill="rgba(229,229,229,0.8)" font-size="18" transform="rotate(-45, 150, 150)" style="dominant-baseline: middle; text-anchor: middle;"></text></pattern><pattern patternUnits="userSpaceOnUse" id="pattern_mark_1" width="300" height="300"><text x="150" y="200" fill="rgba(229,229,229,0.8)" font-size="18" transform="rotate(-45, 150, 150)" style="dominant-baseline: middle; text-anchor: middle;"></text></pattern><marker id="SvgjsMarker1081" markerWidth="13" markerHeight="9" refX="9.5" refY="4.5" viewBox="0 0 13 9" orient="auto" markerUnits="userSpaceOnUse" stroke-dasharray="0,0"><path id="SvgjsPath1082" d="M0,0 L13,4.5 L0,9 L0,0" fill="#323232" stroke="#323232" stroke-width="1"></path></marker><marker id="SvgjsMarker1085" markerWidth="13" markerHeight="9" refX="9.5" refY="4.5" viewBox="0 0 13 9" orient="auto" markerUnits="userSpaceOnUse" stroke-dasharray="0,0"><path id="SvgjsPath1086" d="M0,0 L13,4.5 L0,9 L0,0" fill="#323232" stroke="#323232" stroke-width="1"></path></marker><marker id="SvgjsMarker1089" markerWidth="13" markerHeight="9" refX="9.5" refY="4.5" viewBox="0 0 13 9" orient="auto" markerUnits="userSpaceOnUse" stroke-dasharray="0,0"><path id="SvgjsPath1090" d="M0,0 L13,4.5 L0,9 L0,0" fill="#323232" stroke="#323232" stroke-width="1"></path></marker></defs><rect id="svgbackgroundid" width="518" height="428" fill="transparent"></rect><rect id="SvgjsRect1009" width="518" height="428" fill="url(#pattern_mark_0)"></rect><rect id="SvgjsRect1010" width="518" height="428" fill="url(#pattern_mark_1)"></rect><g id="SvgjsG1011" transform="translate(40,155)"><path id="SvgjsPath1012" d="M 0 4Q 0 0 4 0L 449 0Q 453 0 453 4L 453 244Q 453 248 449 248L 4 248Q 0 248 0 244Z" stroke="rgba(33,41,48,1)" stroke-width="1.5" fill-opacity="1" fill="#cbe6c7"></path><g id="SvgjsG1013"><text id="SvgjsText1014" font-family="&quot;Comic Sans MS&quot;" text-anchor="middle" font-size="13px" width="433px" fill="#323232" font-weight="700" align="middle" lineHeight="125%" anchor="middle" family="&quot;Comic Sans MS&quot;" size="13px" weight="700" font-style="" opacity="1" y="113.375" transform="rotate(0)"></text></g></g><g id="SvgjsG1015" transform="translate(131,291)"><path id="SvgjsPath1016" d="M 0 4Q 0 0 4 0L 328 0Q 332 0 332 4L 332 85Q 332 89 328 89L 4 89Q 0 89 0 85Z" stroke="rgba(33,41,48,1)" stroke-width="1.5" fill-opacity="1" fill="#f9cdd2"></path><g id="SvgjsG1017"><text id="SvgjsText1018" font-family="&quot;Comic Sans MS&quot;" text-anchor="middle" font-size="13px" width="312px" fill="#323232" font-weight="700" align="middle" lineHeight="125%" anchor="middle" family="&quot;Comic Sans MS&quot;" size="13px" weight="700" font-style="" opacity="1" y="33.875" transform="rotate(0)"></text></g></g><g id="SvgjsG1019" transform="translate(61,25)"><path id="SvgjsPath1020" d="M 0 4Q 0 0 4 0L 96 0Q 100 0 100 4L 100 46Q 100 50 96 50L 4 50Q 0 50 0 46Z" stroke="rgba(33,41,48,1)" stroke-width="1.5" fill-opacity="1" fill="#f9e0ae"></path><g id="SvgjsG1021"><text id="SvgjsText1022" font-family="&quot;Comic Sans MS&quot;" text-anchor="middle" font-size="13px" width="80px" fill="#323232" font-weight="700" align="middle" lineHeight="125%" anchor="middle" family="&quot;Comic Sans MS&quot;" size="13px" weight="700" font-style="" opacity="1" y="14.375" transform="rotate(0)"><tspan id="SvgjsTspan1023" dy="16.25" x="50"><tspan id="SvgjsTspan1024" style="">Application</tspan></tspan></text></g></g><g id="SvgjsG1025" transform="translate(147,338)"><path id="SvgjsPath1026" d="M 0 4Q 0 0 4 0L 76 0Q 80 0 80 4L 80 26Q 80 30 76 30L 4 30Q 0 30 0 26Z" stroke="rgba(33,41,48,1)" stroke-width="1.5" fill-opacity="1" fill="#c3defd"></path><g id="SvgjsG1027"><text id="SvgjsText1028" font-family="&quot;Comic Sans MS&quot;" text-anchor="middle" font-size="13px" width="60px" fill="#323232" font-weight="700" align="middle" lineHeight="125%" anchor="middle" family="&quot;Comic Sans MS&quot;" size="13px" weight="700" font-style="" opacity="1" y="4.375" transform="rotate(0)"><tspan id="SvgjsTspan1029" dy="16.25" x="40"><tspan id="SvgjsTspan1030" style="">disk</tspan></tspan></text></g></g><g id="SvgjsG1031" transform="translate(216.5,25)"><path id="SvgjsPath1032" d="M 0 4Q 0 0 4 0L 96 0Q 100 0 100 4L 100 46Q 100 50 96 50L 4 50Q 0 50 0 46Z" stroke="rgba(33,41,48,1)" stroke-width="1.5" fill-opacity="1" fill="#f9e0ae"></path><g id="SvgjsG1033"><text id="SvgjsText1034" font-family="&quot;Comic Sans MS&quot;" text-anchor="middle" font-size="13px" width="80px" fill="#323232" font-weight="700" align="middle" lineHeight="125%" anchor="middle" family="&quot;Comic Sans MS&quot;" size="13px" weight="700" font-style="" opacity="1" y="14.375" transform="rotate(0)"><tspan id="SvgjsTspan1035" dy="16.25" x="50"><tspan id="SvgjsTspan1036" style="">Application</tspan></tspan></text></g></g><g id="SvgjsG1037" transform="translate(372,25)"><path id="SvgjsPath1038" d="M 0 4Q 0 0 4 0L 96 0Q 100 0 100 4L 100 46Q 100 50 96 50L 4 50Q 0 50 0 46Z" stroke="rgba(33,41,48,1)" stroke-width="1.5" fill-opacity="1" fill="#f9e0ae"></path><g id="SvgjsG1039"><text id="SvgjsText1040" font-family="&quot;Comic Sans MS&quot;" text-anchor="middle" font-size="13px" width="80px" fill="#323232" font-weight="700" align="middle" lineHeight="125%" anchor="middle" family="&quot;Comic Sans MS&quot;" size="13px" weight="700" font-style="" opacity="1" y="14.375" transform="rotate(0)"><tspan id="SvgjsTspan1041" dy="16.25" x="50"><tspan id="SvgjsTspan1042" style="">Application</tspan></tspan></text></g></g><g id="SvgjsG1043" transform="translate(257,338)"><path id="SvgjsPath1044" d="M 0 4Q 0 0 4 0L 76 0Q 80 0 80 4L 80 26Q 80 30 76 30L 4 30Q 0 30 0 26Z" stroke="rgba(33,41,48,1)" stroke-width="1.5" fill-opacity="1" fill="#c3defd"></path><g id="SvgjsG1045"><text id="SvgjsText1046" font-family="&quot;Comic Sans MS&quot;" text-anchor="middle" font-size="13px" width="60px" fill="#323232" font-weight="700" align="middle" lineHeight="125%" anchor="middle" family="&quot;Comic Sans MS&quot;" size="13px" weight="700" font-style="" opacity="1" y="4.375" transform="rotate(0)"><tspan id="SvgjsTspan1047" dy="16.25" x="40"><tspan id="SvgjsTspan1048" style="">memory</tspan></tspan></text></g></g><g id="SvgjsG1049" transform="translate(367,338)"><path id="SvgjsPath1050" d="M 0 4Q 0 0 4 0L 76 0Q 80 0 80 4L 80 26Q 80 30 76 30L 4 30Q 0 30 0 26Z" stroke="rgba(33,41,48,1)" stroke-width="1.5" fill-opacity="1" fill="#c3defd"></path><g id="SvgjsG1051"><text id="SvgjsText1052" font-family="&quot;Comic Sans MS&quot;" text-anchor="middle" font-size="13px" width="60px" fill="#323232" font-weight="700" align="middle" lineHeight="125%" anchor="middle" family="&quot;Comic Sans MS&quot;" size="13px" weight="700" font-style="" opacity="1" y="4.375" transform="rotate(0)"><tspan id="SvgjsTspan1053" dy="16.25" x="40"><tspan id="SvgjsTspan1054" style="">network</tspan></tspan></text></g></g><g id="SvgjsG1055" transform="translate(227,291)"><path id="SvgjsPath1056" d="M 0 0L 140 0L 140 40L 0 40Z" stroke="none" fill="none"></path><g id="SvgjsG1057"><text id="SvgjsText1058" font-family="&quot;Comic Sans MS&quot;" text-anchor="middle" font-size="13px" width="140px" fill="#323232" font-weight="700" align="middle" lineHeight="125%" anchor="middle" family="&quot;Comic Sans MS&quot;" size="13px" weight="700" font-style="" opacity="1" y="9.375" transform="rotate(0)"><tspan id="SvgjsTspan1059" dy="16.25" x="70"><tspan id="SvgjsTspan1060" style="">storage engine layer</tspan></tspan></text></g></g><g id="SvgjsG1061" transform="translate(131,235)"><path id="SvgjsPath1062" d="M 0 4Q 0 0 4 0L 328 0Q 332 0 332 4L 332 26Q 332 30 328 30L 4 30Q 0 30 0 26Z" stroke="rgba(33,41,48,1)" stroke-width="1.5" fill-opacity="1" fill="#f9cdd2"></path><g id="SvgjsG1063"><text id="SvgjsText1064" font-family="&quot;Comic Sans MS&quot;" text-anchor="middle" font-size="13px" width="312px" fill="#323232" font-weight="700" align="middle" lineHeight="125%" anchor="middle" family="&quot;Comic Sans MS&quot;" size="13px" weight="700" font-style="" opacity="1" y="4.375" transform="rotate(0)"><tspan id="SvgjsTspan1065" dy="16.25" x="166"><tspan id="SvgjsTspan1066" style="">SQL layer</tspan></tspan></text></g></g><g id="SvgjsG1067" transform="translate(131,179)"><path id="SvgjsPath1068" d="M 0 4Q 0 0 4 0L 328 0Q 332 0 332 4L 332 26Q 332 30 328 30L 4 30Q 0 30 0 26Z" stroke="rgba(33,41,48,1)" stroke-width="1.5" fill-opacity="1" fill="#f9cdd2"></path><g id="SvgjsG1069"><text id="SvgjsText1070" font-family="&quot;Comic Sans MS&quot;" text-anchor="middle" font-size="13px" width="312px" fill="#323232" font-weight="700" align="middle" lineHeight="125%" anchor="middle" family="&quot;Comic Sans MS&quot;" size="13px" weight="700" font-style="" opacity="1" y="4.375" transform="rotate(0)"><tspan id="SvgjsTspan1071" dy="16.25" x="166"><tspan id="SvgjsTspan1072" style="">connection layer</tspan></tspan></text></g></g><g id="SvgjsG1073" transform="translate(25,251)"><path id="SvgjsPath1074" d="M 0 0L 100 0L 100 40L 0 40Z" stroke="none" fill="none"></path><g id="SvgjsG1075"><text id="SvgjsText1076" font-family="&quot;Comic Sans MS&quot;" text-anchor="middle" font-size="13px" width="100px" fill="#323232" font-weight="700" align="middle" lineHeight="125%" anchor="middle" family="&quot;Comic Sans MS&quot;" size="13px" weight="700" font-style="" opacity="1" y="9.375" transform="rotate(0)"><tspan id="SvgjsTspan1077" dy="16.25" x="50"><tspan id="SvgjsTspan1078" style="">mysqld</tspan></tspan></text></g></g><g id="SvgjsG1079"><path id="SvgjsPath1080" d="M111 75.75L111 115L111 115L111 152.3" stroke="#323232" stroke-width="1.5" fill="none" marker-end="url(#SvgjsMarker1081)"></path></g><g id="SvgjsG1083"><path id="SvgjsPath1084" d="M266.5 75.75L266.5 115L266.5 115L266.5 152.3" stroke="#323232" stroke-width="1.5" fill="none" marker-end="url(#SvgjsMarker1085)"></path></g><g id="SvgjsG1087"><path id="SvgjsPath1088" d="M422 75.75L422 115L422 115L422 152.3" stroke="#323232" stroke-width="1.5" fill="none" marker-end="url(#SvgjsMarker1089)"></path></g></svg>