<svg id="SvgjsSvg1006" width="354.8533003224902" height="265.2428632418822" xmlns="http://www.w3.org/2000/svg" version="1.1" xmlns:xlink="http://www.w3.org/1999/xlink" xmlns:svgjs="http://svgjs.com/svgjs"><defs id="SvgjsDefs1007"><pattern patternUnits="userSpaceOnUse" id="pattern_mark_0" width="300" height="300"><text x="150" y="100" fill="rgba(229,229,229,0.8)" font-size="18" transform="rotate(-45, 150, 150)" style="dominant-baseline: middle; text-anchor: middle;"></text></pattern><pattern patternUnits="userSpaceOnUse" id="pattern_mark_1" width="300" height="300"><text x="150" y="200" fill="rgba(229,229,229,0.8)" font-size="18" transform="rotate(-45, 150, 150)" style="dominant-baseline: middle; text-anchor: middle;"></text></pattern><marker id="SvgjsMarker1057" markerWidth="13" markerHeight="9" refX="9.5" refY="4.5" viewBox="0 0 13 9" orient="auto" markerUnits="userSpaceOnUse" stroke-dasharray="0,0"><path id="SvgjsPath1058" d="M0,0 L13,4.5 L0,9 L0,0" fill="#d4bd63" stroke="#d4bd63" stroke-width="1"></path></marker><marker id="SvgjsMarker1067" markerWidth="13" markerHeight="9" refX="9.5" refY="4.5" viewBox="0 0 13 9" orient="auto" markerUnits="userSpaceOnUse" stroke-dasharray="0,0"><path id="SvgjsPath1068" d="M0,0 L13,4.5 L0,9 L0,0" fill="#a2b574" stroke="#a2b574" stroke-width="1"></path></marker><marker id="SvgjsMarker1071" markerWidth="13" markerHeight="9" refX="9.5" refY="4.5" viewBox="0 0 13 9" orient="auto" markerUnits="userSpaceOnUse" stroke-dasharray="0,0"><path id="SvgjsPath1072" d="M0,0 L13,4.5 L0,9 L0,0" fill="#323232" stroke="#323232" stroke-width="1"></path></marker><marker id="SvgjsMarker1085" markerWidth="13" markerHeight="9" refX="9.5" refY="4.5" viewBox="0 0 13 9" orient="auto" markerUnits="userSpaceOnUse" stroke-dasharray="0,0"><path id="SvgjsPath1086" d="M0,0 L13,4.5 L0,9 L0,0" fill="#d4bd63" stroke="#d4bd63" stroke-width="1"></path></marker></defs><rect id="svgbackgroundid" width="354.8533003224902" height="265.2428632418822" fill="transparent"></rect><rect id="SvgjsRect1009" width="354.8533003224902" height="265.2428632418822" fill="url(#pattern_mark_0)"></rect><rect id="SvgjsRect1010" width="354.8533003224902" height="265.2428632418822" fill="url(#pattern_mark_1)"></rect><g id="SvgjsG1011" transform="translate(42.353300322490185,40.24286324188222)"><path id="SvgjsPath1012" d="M 0 65C 0 -21.666666666666668 130 -21.666666666666668 130 65C 130 151.66666666666666 0 151.66666666666666 0 65Z" stroke="rgba(200,186,144,1)" stroke-width="1.5" fill-opacity="1" fill="#fcf3d3"></path><g id="SvgjsG1013"><text id="SvgjsText1014" font-family="&quot;Microsoft YaHei&quot;, 微软雅黑, Arial" text-anchor="middle" font-size="13px" width="110px" fill="#323232" font-weight="400" align="middle" lineHeight="125%" anchor="middle" family="&quot;Microsoft YaHei&quot;, 微软雅黑, Arial" size="13px" weight="400" font-style="" opacity="1" y="54.375" transform="rotate(0)"></text></g></g><g id="SvgjsG1015"><path id="SvgjsPath1016" d="M107.35330032249018 40.99286324188222L107.35330032249018 169.49286324188222" stroke="#323232" stroke-width="1.5" fill="none"></path></g><g id="SvgjsG1017"><path id="SvgjsPath1018" d="M43.103300322490185 105.24286324188222L171.60330032249018 105.24286324188222" stroke="#323232" stroke-width="1.5" fill="none"></path></g><g id="SvgjsG1019" transform="translate(67.35330032249018,65.24286324188222)"><path id="SvgjsPath1020" d="M 0 40C 0 -13.333333333333334 80 -13.333333333333334 80 40C 80 93.33333333333333 0 93.33333333333333 0 40Z" stroke="rgba(33,41,48,1)" stroke-width="1.5" fill-opacity="1" fill="#ffffff"></path><g id="SvgjsG1021"><text id="SvgjsText1022" font-family="&quot;Microsoft YaHei&quot;, 微软雅黑, Arial" text-anchor="middle" font-size="13px" width="60px" fill="#323232" font-weight="400" align="middle" lineHeight="125%" anchor="middle" family="&quot;Microsoft YaHei&quot;, 微软雅黑, Arial" size="13px" weight="400" font-style="" opacity="1" y="29.375" transform="rotate(0)"><tspan id="SvgjsTspan1023" dy="16.25" x="40"><tspan id="SvgjsTspan1024" style="">ib_logfile</tspan></tspan></text></g></g><g id="SvgjsG1025" transform="matrix(0.6427876096865393,-0.7660444431189781,0.7660444431189781,0.6427876096865393,47.944074401248905,78.22076435913274)"><path id="SvgjsPath1026" d="M 0 0L 35 0L 35 20L 0 20Z" stroke="none" fill="none"></path><g id="SvgjsG1027"><text id="SvgjsText1028" font-family="&quot;Microsoft YaHei&quot;, 微软雅黑, Arial" text-anchor="middle" font-size="13px" width="35px" fill="#323232" font-weight="400" align="middle" lineHeight="125%" anchor="middle" family="&quot;Microsoft YaHei&quot;, 微软雅黑, Arial" size="13px" weight="400" font-style="" opacity="1" y="-0.625" transform="rotate(0)"><tspan id="SvgjsTspan1029" dy="16.25" x="17.5"><tspan id="SvgjsTspan1030" style="">0</tspan></tspan></text></g></g><g id="SvgjsG1031" transform="matrix(-0.7071067811865475,0.7071067811865476,-0.7071067811865476,-0.7071067811865475,171.36980629644864,142.01063346907964)"><path id="SvgjsPath1032" d="M 0 0L 35 0L 35 40L 0 40Z" stroke="none" fill="none"></path><g id="SvgjsG1033"><text id="SvgjsText1034" font-family="&quot;Microsoft YaHei&quot;, 微软雅黑, Arial" text-anchor="middle" font-size="13px" width="35px" fill="#323232" font-weight="400" align="middle" lineHeight="125%" anchor="middle" family="&quot;Microsoft YaHei&quot;, 微软雅黑, Arial" size="13px" weight="400" font-style="" opacity="1" y="9.375" transform="rotate(0)"><tspan id="SvgjsTspan1035" dy="16.25" x="17.5"><tspan id="SvgjsTspan1036" style="">2</tspan></tspan></text></g></g><g id="SvgjsG1037" transform="matrix(0.6427876096865394,0.766044443118978,-0.766044443118978,0.6427876096865394,150.92540769481823,47.98133275310312)"><path id="SvgjsPath1038" d="M 0 0L 35 0L 35 40L 0 40Z" stroke="none" fill="none"></path><g id="SvgjsG1039"><text id="SvgjsText1040" font-family="&quot;Microsoft YaHei&quot;, 微软雅黑, Arial" text-anchor="middle" font-size="13px" width="35px" fill="#323232" font-weight="400" align="middle" lineHeight="125%" anchor="middle" family="&quot;Microsoft YaHei&quot;, 微软雅黑, Arial" size="13px" weight="400" font-style="" opacity="1" y="9.375" transform="rotate(0)"><tspan id="SvgjsTspan1041" dy="16.25" x="17.5"><tspan id="SvgjsTspan1042" style="">1</tspan></tspan></text></g></g><g id="SvgjsG1043" transform="matrix(-0.6427876096865395,-0.7660444431189779,0.7660444431189779,-0.6427876096865395,66.781196309088,166.50439646442618)"><path id="SvgjsPath1044" d="M 0 0L 35 0L 35 40L 0 40Z" stroke="none" fill="none"></path><g id="SvgjsG1045"><text id="SvgjsText1046" font-family="&quot;Microsoft YaHei&quot;, 微软雅黑, Arial" text-anchor="middle" font-size="13px" width="35px" fill="#323232" font-weight="400" align="middle" lineHeight="125%" anchor="middle" family="&quot;Microsoft YaHei&quot;, 微软雅黑, Arial" size="13px" weight="400" font-style="" opacity="1" y="9.375" transform="rotate(0)"><tspan id="SvgjsTspan1047" dy="16.25" x="17.5"><tspan id="SvgjsTspan1048" style="">3</tspan></tspan></text></g></g><g id="SvgjsG1049" transform="translate(241.85330032249018,95.24286324188222)"><path id="SvgjsPath1050" d="M 0 4Q 0 0 4 0L 84 0Q 88 0 88 4L 88 16Q 88 20 84 20L 4 20Q 0 20 0 16Z" stroke-dasharray="7.5,3" stroke="rgba(200,186,144,1)" stroke-width="1.5" fill-opacity="1" fill="#fcf3d3"></path><g id="SvgjsG1051"><text id="SvgjsText1052" font-family="&quot;Microsoft YaHei&quot;, 微软雅黑, Arial" text-anchor="middle" font-size="13px" width="68px" fill="#323232" font-weight="400" align="middle" lineHeight="125%" anchor="middle" family="&quot;Microsoft YaHei&quot;, 微软雅黑, Arial" size="13px" weight="400" font-style="" opacity="1" y="-0.625" transform="rotate(0)"><tspan id="SvgjsTspan1053" dy="16.25" x="44"><tspan id="SvgjsTspan1054" style="">checkpoint</tspan></tspan></text></g></g><g id="SvgjsG1055"><path id="SvgjsPath1056" d="M107.35330032249018 219.49286324188222L107.35330032249018 172.9428632418822" stroke="#d4bd63" stroke-width="1.5" fill="none" marker-end="url(#SvgjsMarker1057)"></path></g><g id="SvgjsG1059" transform="translate(241.85330032249018,61.24286324188222)"><path id="SvgjsPath1060" d="M 0 4Q 0 0 4 0L 84 0Q 88 0 88 4L 88 16Q 88 20 84 20L 4 20Q 0 20 0 16Z" stroke="rgba(200,186,144,1)" stroke-width="1.5" fill-opacity="1" fill="#e0eadb"></path><g id="SvgjsG1061"><text id="SvgjsText1062" font-family="&quot;Microsoft YaHei&quot;, 微软雅黑, Arial" text-anchor="middle" font-size="13px" width="68px" fill="#323232" font-weight="400" align="middle" lineHeight="125%" anchor="middle" family="&quot;Microsoft YaHei&quot;, 微软雅黑, Arial" size="13px" weight="400" font-style="" opacity="1" y="-0.625" transform="rotate(0)"><tspan id="SvgjsTspan1063" dy="16.25" x="44"><tspan id="SvgjsTspan1064" style="">write pos</tspan></tspan></text></g></g><g id="SvgjsG1065"><path id="SvgjsPath1066" d="M241.1795970716736 71.57244468832485L174.77863202542974 104.05637003468877" stroke="#a2b574" stroke-width="1.5" fill="none" marker-end="url(#SvgjsMarker1067)"></path></g><g id="SvgjsG1069"><path id="SvgjsPath1070" d="M285.8073820115832 115.99145626130161C 285.8533003224902 186.0273248136142 222.12698107787256 231.4782224346764 154.05231449399727 230.16990776227948" stroke-dasharray="7.5,3" stroke="#323232" stroke-width="1.5" fill="none" marker-end="url(#SvgjsMarker1071)"></path><rect id="SvgjsRect1073" width="26" height="18" x="246.05493893186076" y="177.81456102989517" fill="#ffffff"></rect><text id="SvgjsText1074" font-family="&quot;Microsoft YaHei&quot;, 微软雅黑, Arial" text-anchor="middle" font-size="13px" width="26px" fill="#323232" font-weight="400" align="top" lineHeight="16px" anchor="middle" family="&quot;Microsoft YaHei&quot;, 微软雅黑, Arial" size="13px" weight="400" font-style="" opacity="1" y="175.18956102989517" transform="rotate(0)"><tspan id="SvgjsTspan1075" dy="16.25" x="259.05493893186076"><tspan id="SvgjsTspan1076" style="">后移</tspan></tspan></text></g><g id="SvgjsG1077" transform="translate(63.353300322490185,220.24286324188222)"><path id="SvgjsPath1078" d="M 0 4Q 0 0 4 0L 84 0Q 88 0 88 4L 88 16Q 88 20 84 20L 4 20Q 0 20 0 16Z" stroke="rgba(200,186,144,1)" stroke-width="1.5" fill-opacity="1" fill="#fcf3d3"></path><g id="SvgjsG1079"><text id="SvgjsText1080" font-family="&quot;Microsoft YaHei&quot;, 微软雅黑, Arial" text-anchor="middle" font-size="13px" width="68px" fill="#323232" font-weight="400" align="middle" lineHeight="125%" anchor="middle" family="&quot;Microsoft YaHei&quot;, 微软雅黑, Arial" size="13px" weight="400" font-style="" opacity="1" y="-0.625" transform="rotate(0)"><tspan id="SvgjsTspan1081" dy="16.25" x="44"><tspan id="SvgjsTspan1082" style="">checkpoint</tspan></tspan></text></g></g><g id="SvgjsG1083"><path id="SvgjsPath1084" d="M241.10330032249018 105.24286324188222L175.05330032249017 105.24286324188222" stroke="#d4bd63" stroke-width="1.5" fill="none" marker-end="url(#SvgjsMarker1085)"></path></g><g id="SvgjsG1087"></g></svg>