<svg id="SvgjsSvg1157" width="705" height="397" xmlns="http://www.w3.org/2000/svg" version="1.1" xmlns:xlink="http://www.w3.org/1999/xlink" xmlns:svgjs="http://svgjs.com/svgjs"><defs id="SvgjsDefs1158"><pattern patternUnits="userSpaceOnUse" id="pattern_mark_0" width="300" height="300"><text x="150" y="100" fill="rgba(229,229,229,0.8)" font-size="18" transform="rotate(-45, 150, 150)" style="dominant-baseline: middle; text-anchor: middle;"></text></pattern><pattern patternUnits="userSpaceOnUse" id="pattern_mark_1" width="300" height="300"><text x="150" y="200" fill="rgba(229,229,229,0.8)" font-size="18" transform="rotate(-45, 150, 150)" style="dominant-baseline: middle; text-anchor: middle;"></text></pattern><marker id="SvgjsMarker1230" markerWidth="13" markerHeight="9" refX="9.5" refY="4.5" viewBox="0 0 13 9" orient="auto" markerUnits="userSpaceOnUse" stroke-dasharray="0,0"><path id="SvgjsPath1231" d="M0,0 L13,4.5 L0,9 L0,0" fill="#727272" stroke="#727272" stroke-width="1"></path></marker><marker id="SvgjsMarker1238" markerWidth="13" markerHeight="9" refX="9.5" refY="4.5" viewBox="0 0 13 9" orient="auto" markerUnits="userSpaceOnUse" stroke-dasharray="0,0"><path id="SvgjsPath1239" d="M0,0 L13,4.5 L0,9 L0,0" fill="#727272" stroke="#727272" stroke-width="1"></path></marker><marker id="SvgjsMarker1298" markerWidth="14" markerHeight="10" refX="10" refY="5" viewBox="0 0 14 10" orient="auto" markerUnits="userSpaceOnUse" stroke-dasharray="0,0"><path id="SvgjsPath1299" d="M0,0 L14,5 L0,10 L0,0" fill="#3673a9" stroke="#3673a9" stroke-width="1"></path></marker></defs><rect id="svgbackgroundid" width="705" height="397" fill="transparent"></rect><rect id="SvgjsRect1160" width="705" height="397" fill="url(#pattern_mark_0)"></rect><rect id="SvgjsRect1161" width="705" height="397" fill="url(#pattern_mark_1)"></rect><g id="SvgjsG1162" transform="translate(345,218)"><path id="SvgjsPath1163" d="M 0 4Q 0 0 4 0L 331 0Q 335 0 335 4L 335 150Q 335 154 331 154L 4 154Q 0 154 0 150Z" stroke="rgba(33,41,48,1)" stroke-width="1.5" fill-opacity="1" fill="#e3e3e3"></path><g id="SvgjsG1164"><text id="SvgjsText1165" font-family="&quot;Microsoft YaHei&quot;, 微软雅黑, Arial" text-anchor="middle" font-size="15px" width="315px" fill="#b13d45" font-weight="700" align="top" lineHeight="125%" anchor="middle" family="&quot;Microsoft YaHei&quot;, 微软雅黑, Arial" size="15px" weight="700" font-style="" opacity="1" y="-2.875" transform="rotate(0)"><tspan id="SvgjsTspan1166" dy="18.75" x="167.5"><tspan id="SvgjsTspan1167" style="">方法区</tspan></tspan></text></g></g><g id="SvgjsG1168" transform="translate(345,25)"><path id="SvgjsPath1169" d="M 0 4Q 0 0 4 0L 331 0Q 335 0 335 4L 335 144Q 335 148 331 148L 4 148Q 0 148 0 144Z" stroke="rgba(227,227,227,1)" stroke-width="1.5" fill-opacity="1" fill="#ffffff"></path><g id="SvgjsG1170"><text id="SvgjsText1171" font-family="&quot;Microsoft YaHei&quot;, 微软雅黑, Arial" text-anchor="middle" font-size="15px" width="315px" fill="#37719e" font-weight="700" align="top" lineHeight="125%" anchor="middle" family="&quot;Microsoft YaHei&quot;, 微软雅黑, Arial" size="15px" weight="700" font-style="" opacity="1" y="-2.875" transform="rotate(0)"><tspan id="SvgjsTspan1172" dy="18.75" x="167.5"><tspan id="SvgjsTspan1173" style="">JVM运行时数据区</tspan></tspan></text></g></g><g id="SvgjsG1174" transform="translate(478,54)"><path id="SvgjsPath1175" d="M 0 0L 190 0L 190 115L 0 115Z" stroke="none" fill-opacity="1" fill="#b8bab9"></path><g id="SvgjsG1176"><text id="SvgjsText1177" font-family="&quot;Microsoft YaHei&quot;, 微软雅黑, Arial" text-anchor="middle" font-size="13px" width="170px" fill="#5282a5" font-weight="700" align="top" lineHeight="125%" anchor="middle" family="&quot;Microsoft YaHei&quot;, 微软雅黑, Arial" size="13px" weight="700" font-style="" opacity="1" y="-2.625" transform="rotate(0)"><tspan id="SvgjsTspan1178" dy="16.25" x="95"><tspan id="SvgjsTspan1179" style="">线程共享部分</tspan></tspan></text></g></g><g id="SvgjsG1180" transform="translate(356,54)"><path id="SvgjsPath1181" d="M 0 0L 112 0L 112 115L 0 115Z" stroke="none" fill-opacity="1" fill="#edfaff"></path><g id="SvgjsG1182"><text id="SvgjsText1183" font-family="&quot;Microsoft YaHei&quot;, 微软雅黑, Arial" text-anchor="middle" font-size="13px" width="92px" fill="#5282a5" font-weight="700" align="top" lineHeight="125%" anchor="middle" family="&quot;Microsoft YaHei&quot;, 微软雅黑, Arial" size="13px" weight="700" font-style="" opacity="1" y="-2.625" transform="rotate(0)"><tspan id="SvgjsTspan1184" dy="16.25" x="56"><tspan id="SvgjsTspan1185" style="">线程共享部分</tspan></tspan></text></g></g><g id="SvgjsG1186" transform="translate(25,43)"><path id="SvgjsPath1187" d="M 0 4Q 0 0 4 0L 96 0Q 100 0 100 4L 100 36Q 100 40 96 40L 4 40Q 0 40 0 36Z" stroke="none" fill-opacity="1" fill="#3974b8"></path><g id="SvgjsG1188"><text id="SvgjsText1189" font-family="&quot;Microsoft YaHei&quot;, 微软雅黑, Arial" text-anchor="middle" font-size="13px" width="80px" fill="#ffffff" font-weight="700" align="middle" lineHeight="125%" anchor="middle" family="&quot;Microsoft YaHei&quot;, 微软雅黑, Arial" size="13px" weight="700" font-style="" opacity="1" y="9.375" transform="rotate(0)"><tspan id="SvgjsTspan1190" dy="16.25" x="50"><tspan id="SvgjsTspan1191" style="">.java源代码</tspan></tspan></text></g></g><g id="SvgjsG1192" transform="translate(185,43)"><path id="SvgjsPath1193" d="M 0 4Q 0 0 4 0L 96 0Q 100 0 100 4L 100 36Q 100 40 96 40L 4 40Q 0 40 0 36Z" stroke="none" fill-opacity="1" fill="#3974b8"></path><g id="SvgjsG1194"><text id="SvgjsText1195" font-family="&quot;Microsoft YaHei&quot;, 微软雅黑, Arial" text-anchor="middle" font-size="13px" width="80px" fill="#ffffff" font-weight="700" align="middle" lineHeight="125%" anchor="middle" family="&quot;Microsoft YaHei&quot;, 微软雅黑, Arial" size="13px" weight="700" font-style="" opacity="1" y="9.375" transform="rotate(0)"><tspan id="SvgjsTspan1196" dy="16.25" x="50"><tspan id="SvgjsTspan1197" style="">.class字节码</tspan></tspan></text></g></g><g id="SvgjsG1198" transform="translate(372,79)"><path id="SvgjsPath1199" d="M 0 4Q 0 0 4 0L 76 0Q 80 0 80 4L 80 36Q 80 40 76 40L 4 40Q 0 40 0 36Z" stroke="none" fill-opacity="1" fill="#6f7178"></path><g id="SvgjsG1200"><text id="SvgjsText1201" font-family="&quot;Microsoft YaHei&quot;, 微软雅黑, Arial" text-anchor="middle" font-size="13px" width="60px" fill="#ffffff" font-weight="700" align="middle" lineHeight="125%" anchor="middle" family="&quot;Microsoft YaHei&quot;, 微软雅黑, Arial" size="13px" weight="700" font-style="" opacity="1" y="9.375" transform="rotate(0)"><tspan id="SvgjsTspan1202" dy="16.25" x="40"><tspan id="SvgjsTspan1203" style="">方法区</tspan></tspan></text></g></g><g id="SvgjsG1204" transform="translate(372,124)"><path id="SvgjsPath1205" d="M 0 4Q 0 0 4 0L 76 0Q 80 0 80 4L 80 36Q 80 40 76 40L 4 40Q 0 40 0 36Z" stroke="none" fill-opacity="1" fill="#6f7178"></path><g id="SvgjsG1206"><text id="SvgjsText1207" font-family="&quot;Microsoft YaHei&quot;, 微软雅黑, Arial" text-anchor="middle" font-size="13px" width="60px" fill="#ffffff" font-weight="700" align="middle" lineHeight="125%" anchor="middle" family="&quot;Microsoft YaHei&quot;, 微软雅黑, Arial" size="13px" weight="700" font-style="" opacity="1" y="9.375" transform="rotate(0)"><tspan id="SvgjsTspan1208" dy="16.25" x="40"><tspan id="SvgjsTspan1209" style="">堆内存</tspan></tspan></text></g></g><g id="SvgjsG1210" transform="translate(488,124)"><path id="SvgjsPath1211" d="M 0 4Q 0 0 4 0L 166 0Q 170 0 170 4L 170 36Q 170 40 166 40L 4 40Q 0 40 0 36Z" stroke="none" fill-opacity="1" fill="#6f7178"></path><g id="SvgjsG1212"><text id="SvgjsText1213" font-family="&quot;Microsoft YaHei&quot;, 微软雅黑, Arial" text-anchor="middle" font-size="13px" width="150px" fill="#ffffff" font-weight="700" align="middle" lineHeight="125%" anchor="middle" family="&quot;Microsoft YaHei&quot;, 微软雅黑, Arial" size="13px" weight="700" font-style="" opacity="1" y="9.375" transform="rotate(0)"><tspan id="SvgjsTspan1214" dy="16.25" x="85"><tspan id="SvgjsTspan1215" style="">程序计数器</tspan></tspan></text></g></g><g id="SvgjsG1216" transform="translate(488,79)"><path id="SvgjsPath1217" d="M 0 4Q 0 0 4 0L 76 0Q 80 0 80 4L 80 36Q 80 40 76 40L 4 40Q 0 40 0 36Z" stroke="none" fill-opacity="1" fill="#6f7178"></path><g id="SvgjsG1218"><text id="SvgjsText1219" font-family="&quot;Microsoft YaHei&quot;, 微软雅黑, Arial" text-anchor="middle" font-size="13px" width="60px" fill="#ffffff" font-weight="700" align="middle" lineHeight="125%" anchor="middle" family="&quot;Microsoft YaHei&quot;, 微软雅黑, Arial" size="13px" weight="700" font-style="" opacity="1" y="9.375" transform="rotate(0)"><tspan id="SvgjsTspan1220" dy="16.25" x="40"><tspan id="SvgjsTspan1221" style="">虚拟机栈</tspan></tspan></text></g></g><g id="SvgjsG1222" transform="translate(573,79)"><path id="SvgjsPath1223" d="M 0 4Q 0 0 4 0L 81 0Q 85 0 85 4L 85 36Q 85 40 81 40L 4 40Q 0 40 0 36Z" stroke="none" fill-opacity="1" fill="#6f7178"></path><g id="SvgjsG1224"><text id="SvgjsText1225" font-family="&quot;Microsoft YaHei&quot;, 微软雅黑, Arial" text-anchor="middle" font-size="13px" width="65px" fill="#ffffff" font-weight="700" align="middle" lineHeight="125%" anchor="middle" family="&quot;Microsoft YaHei&quot;, 微软雅黑, Arial" size="13px" weight="700" font-style="" opacity="1" y="9.375" transform="rotate(0)"><tspan id="SvgjsTspan1226" dy="16.25" x="42.5"><tspan id="SvgjsTspan1227" style="">本地方法栈</tspan></tspan></text></g></g><g id="SvgjsG1228"><path id="SvgjsPath1229" d="M125 63L155 63L155 63L183.05 63" stroke="#727272" stroke-width="1.5" fill="none" marker-end="url(#SvgjsMarker1230)"></path><rect id="SvgjsRect1232" width="26" height="18" x="139.09000000000003" y="54" fill="#ffffff"></rect><text id="SvgjsText1233" font-family="&quot;Microsoft YaHei&quot;, 微软雅黑, Arial" text-anchor="middle" font-size="13px" width="26px" fill="#323232" font-weight="400" align="top" lineHeight="16px" anchor="middle" family="&quot;Microsoft YaHei&quot;, 微软雅黑, Arial" size="13px" weight="400" font-style="" opacity="1" y="51.375" transform="rotate(0)"><tspan id="SvgjsTspan1234" dy="16.25" x="152.09000000000003"><tspan id="SvgjsTspan1235" style="">编译</tspan></tspan></text></g><g id="SvgjsG1236"><path id="SvgjsPath1237" d="M285 63L315 63L315 63L345 63" stroke="#727272" stroke-width="1.5" fill="none" marker-end="url(#SvgjsMarker1238)"></path></g><g id="SvgjsG1240" transform="translate(382.5,234)"><path id="SvgjsPath1241" d="M 0 4Q 0 0 4 0L 86 0Q 90 0 90 4L 90 35Q 90 39 86 39L 4 39Q 0 39 0 35Z" stroke="none" fill-opacity="1" fill="#6f7178"></path><g id="SvgjsG1242"><text id="SvgjsText1243" font-family="&quot;Microsoft YaHei&quot;, 微软雅黑, Arial" text-anchor="middle" font-size="13px" width="70px" fill="#ffffff" font-weight="700" align="middle" lineHeight="125%" anchor="middle" family="&quot;Microsoft YaHei&quot;, 微软雅黑, Arial" size="13px" weight="700" font-style="" opacity="1" y="0.375" transform="rotate(0)"><tspan id="SvgjsTspan1244" dy="16.25" x="45"><tspan id="SvgjsTspan1245" style="">类信息</tspan></tspan><tspan id="SvgjsTspan1246" dy="16.25" x="45"><tspan id="SvgjsTspan1247" style="">Demo1...</tspan></tspan></text></g></g><g id="SvgjsG1248" transform="translate(393.5,252.60000000000002)"><path id="SvgjsPath1249" d="M 0 4Q 0 0 4 0L 86 0Q 90 0 90 4L 90 35Q 90 39 86 39L 4 39Q 0 39 0 35Z" stroke="none" fill-opacity="1" fill="#6f7178"></path><g id="SvgjsG1250"><text id="SvgjsText1251" font-family="&quot;Microsoft YaHei&quot;, 微软雅黑, Arial" text-anchor="middle" font-size="13px" width="70px" fill="#ffffff" font-weight="700" align="middle" lineHeight="125%" anchor="middle" family="&quot;Microsoft YaHei&quot;, 微软雅黑, Arial" size="13px" weight="700" font-style="" opacity="1" y="0.375" transform="rotate(0)"><tspan id="SvgjsTspan1252" dy="16.25" x="45"><tspan id="SvgjsTspan1253" style="">类信息</tspan></tspan><tspan id="SvgjsTspan1254" dy="16.25" x="45"><tspan id="SvgjsTspan1255" style="">Demo1...</tspan></tspan></text></g></g><g id="SvgjsG1256" transform="translate(404.5,271.20000000000005)"><path id="SvgjsPath1257" d="M 0 4Q 0 0 4 0L 86 0Q 90 0 90 4L 90 35Q 90 39 86 39L 4 39Q 0 39 0 35Z" stroke="none" fill-opacity="1" fill="#6f7178"></path><g id="SvgjsG1258"><text id="SvgjsText1259" font-family="&quot;Microsoft YaHei&quot;, 微软雅黑, Arial" text-anchor="middle" font-size="13px" width="70px" fill="#ffffff" font-weight="700" align="middle" lineHeight="125%" anchor="middle" family="&quot;Microsoft YaHei&quot;, 微软雅黑, Arial" size="13px" weight="700" font-style="" opacity="1" y="0.375" transform="rotate(0)"><tspan id="SvgjsTspan1260" dy="16.25" x="45"><tspan id="SvgjsTspan1261" style="">类信息</tspan></tspan><tspan id="SvgjsTspan1262" dy="16.25" x="45"><tspan id="SvgjsTspan1263" style="">Demo1...</tspan></tspan></text></g></g><g id="SvgjsG1264" transform="translate(415.5,289.80000000000007)"><path id="SvgjsPath1265" d="M 0 4Q 0 0 4 0L 86 0Q 90 0 90 4L 90 35Q 90 39 86 39L 4 39Q 0 39 0 35Z" stroke="none" fill-opacity="1" fill="#6f7178"></path><g id="SvgjsG1266"><text id="SvgjsText1267" font-family="&quot;Microsoft YaHei&quot;, 微软雅黑, Arial" text-anchor="middle" font-size="13px" width="70px" fill="#ffffff" font-weight="700" align="middle" lineHeight="125%" anchor="middle" family="&quot;Microsoft YaHei&quot;, 微软雅黑, Arial" size="13px" weight="700" font-style="" opacity="1" y="0.375" transform="rotate(0)"><tspan id="SvgjsTspan1268" dy="16.25" x="45"><tspan id="SvgjsTspan1269" style="">类信息</tspan></tspan><tspan id="SvgjsTspan1270" dy="16.25" x="45"><tspan id="SvgjsTspan1271" style="">Demo1...</tspan></tspan></text></g></g><g id="SvgjsG1272" transform="translate(426.5,308.4000000000001)"><path id="SvgjsPath1273" d="M 0 4Q 0 0 4 0L 86 0Q 90 0 90 4L 90 35Q 90 39 86 39L 4 39Q 0 39 0 35Z" stroke="none" fill-opacity="1" fill="#6f7178"></path><g id="SvgjsG1274"><text id="SvgjsText1275" font-family="&quot;Microsoft YaHei&quot;, 微软雅黑, Arial" text-anchor="middle" font-size="13px" width="70px" fill="#ffffff" font-weight="700" align="middle" lineHeight="125%" anchor="middle" family="&quot;Microsoft YaHei&quot;, 微软雅黑, Arial" size="13px" weight="700" font-style="" opacity="1" y="0.375" transform="rotate(0)"><tspan id="SvgjsTspan1276" dy="16.25" x="45"><tspan id="SvgjsTspan1277" style="">类信息</tspan></tspan><tspan id="SvgjsTspan1278" dy="16.25" x="45"><tspan id="SvgjsTspan1279" style="">Demo1...</tspan></tspan></text></g></g><g id="SvgjsG1280" transform="translate(437.5,327.0000000000001)"><path id="SvgjsPath1281" d="M 0 4Q 0 0 4 0L 86 0Q 90 0 90 4L 90 35Q 90 39 86 39L 4 39Q 0 39 0 35Z" stroke="none" fill-opacity="1" fill="#6f7178"></path><g id="SvgjsG1282"><text id="SvgjsText1283" font-family="&quot;Microsoft YaHei&quot;, 微软雅黑, Arial" text-anchor="middle" font-size="13px" width="70px" fill="#ffffff" font-weight="700" align="middle" lineHeight="125%" anchor="middle" family="&quot;Microsoft YaHei&quot;, 微软雅黑, Arial" size="13px" weight="700" font-style="" opacity="1" y="0.375" transform="rotate(0)"><tspan id="SvgjsTspan1284" dy="16.25" x="45"><tspan id="SvgjsTspan1285" style="">类信息</tspan></tspan><tspan id="SvgjsTspan1286" dy="16.25" x="45"><tspan id="SvgjsTspan1287" style="">Demo1...</tspan></tspan></text></g></g><g id="SvgjsG1288" transform="translate(542.5,275)"><path id="SvgjsPath1289" d="M 0 4Q 0 0 4 0L 96 0Q 100 0 100 4L 100 45.999999999999886Q 100 49.999999999999886 96 49.999999999999886L 4 49.999999999999886Q 0 49.999999999999886 0 45.999999999999886Z" stroke="none" fill-opacity="1" fill="#707176"></path><g id="SvgjsG1290"><text id="SvgjsText1291" font-family="&quot;Microsoft YaHei&quot;, 微软雅黑, Arial" text-anchor="middle" font-size="13px" width="80px" fill="#ffffff" font-weight="700" align="middle" lineHeight="125%" anchor="middle" family="&quot;Microsoft YaHei&quot;, 微软雅黑, Arial" size="13px" weight="700" font-style="" opacity="1" y="5.874999999999943" transform="rotate(0)"><tspan id="SvgjsTspan1292" dy="16.25" x="50"><tspan id="SvgjsTspan1293" style="">运行时常量池</tspan></tspan><tspan id="SvgjsTspan1294" dy="16.25" x="50"><tspan id="SvgjsTspan1295" style="">字符串常量</tspan></tspan></text></g></g><g id="SvgjsG1296"><path id="SvgjsPath1297" d="M436 119L459 228" stroke="#3673a9" stroke-width="2" fill="none" marker-end="url(#SvgjsMarker1298)"></path></g><g id="SvgjsG1300" transform="translate(188,218)"><path id="SvgjsPath1301" d="M 152 0Q 143 0 143 9L 143 68Q 143 77 130 77Q 143 77 143 86L 143 145Q 143 154 152 154" stroke="rgba(33,41,48,1)" stroke-width="1.5" fill="none"></path><path id="SvgjsPath1302" d="M 0 0L 152 0L 152 154L 0 154Z" stroke="none" fill="none"></path><g id="SvgjsG1303"><text id="SvgjsText1304" font-family="&quot;Microsoft YaHei&quot;, 微软雅黑, Arial" text-anchor="end" font-size="15px" width="125px" fill="#5481a9" font-weight="700" align="middle" lineHeight="125%" anchor="end" family="&quot;Microsoft YaHei&quot;, 微软雅黑, Arial" size="15px" weight="700" font-style="" opacity="1" y="64.625" transform="rotate(0)"><tspan id="SvgjsTspan1305" dy="18.75" x="125"><tspan id="SvgjsTspan1306" style="">加载信息到方法区</tspan></tspan></text></g></g><g id="SvgjsG1307"></g></svg>