<svg id="SvgjsSvg1006" width="709.0000000000002" height="595" xmlns="http://www.w3.org/2000/svg" version="1.1" xmlns:xlink="http://www.w3.org/1999/xlink" xmlns:svgjs="http://svgjs.com/svgjs"><defs id="SvgjsDefs1007"><pattern patternUnits="userSpaceOnUse" id="pattern_mark_0" width="300" height="300"><text x="150" y="100" fill="rgba(229,229,229,0.8)" font-size="18" transform="rotate(-45, 150, 150)" style="dominant-baseline: middle; text-anchor: middle;"></text></pattern><pattern patternUnits="userSpaceOnUse" id="pattern_mark_1" width="300" height="300"><text x="150" y="200" fill="rgba(229,229,229,0.8)" font-size="18" transform="rotate(-45, 150, 150)" style="dominant-baseline: middle; text-anchor: middle;"></text></pattern><marker id="SvgjsMarker1069" markerWidth="13" markerHeight="9" refX="9.5" refY="4.5" viewBox="0 0 13 9" orient="auto" markerUnits="userSpaceOnUse" stroke-dasharray="0,0"><path id="SvgjsPath1070" d="M0,0 L13,4.5 L0,9 L0,0" fill="#323232" stroke="#323232" stroke-width="1"></path></marker><marker id="SvgjsMarker1073" markerWidth="13" markerHeight="9" refX="9.5" refY="4.5" viewBox="0 0 13 9" orient="auto" markerUnits="userSpaceOnUse" stroke-dasharray="0,0"><path id="SvgjsPath1074" d="M0,0 L13,4.5 L0,9 L0,0" fill="#323232" stroke="#323232" stroke-width="1"></path></marker><marker id="SvgjsMarker1114" markerWidth="13" markerHeight="9" refX="9.5" refY="4.5" viewBox="0 0 13 9" orient="auto" markerUnits="userSpaceOnUse" stroke-dasharray="0,0"><path id="SvgjsPath1115" d="M0,0 L13,4.5 L0,9 L0,0" fill="#323232" stroke="#323232" stroke-width="1"></path></marker></defs><rect id="svgbackgroundid" width="709.0000000000002" height="595" fill="transparent"></rect><rect id="SvgjsRect1009" width="709.0000000000002" height="595" fill="url(#pattern_mark_0)"></rect><rect id="SvgjsRect1010" width="709.0000000000002" height="595" fill="url(#pattern_mark_1)"></rect><g id="SvgjsG1011" transform="translate(202.00000000000017,25)"><path id="SvgjsPath1012" d="M 0 4Q 0 0 4 0L 226 0Q 230 0 230 4L 230 89Q 230 93 226 93L 4 93Q 0 93 0 89Z" stroke="rgba(33,41,48,1)" stroke-width="1.5" fill-opacity="1" fill="#ffffff"></path><path id="SvgjsPath1013" d="M 0 30L 230 30" stroke="rgba(33,41,48,1)" stroke-width="1.5" fill="none"></path><path id="SvgjsPath1014" d="M 0 0L 230 0L 230 93L 0 93Z" stroke="none" fill="none"></path><g id="SvgjsG1015"><text id="SvgjsText1016" font-family="微软雅黑" text-anchor="middle" font-size="13px" width="210px" fill="#323232" font-weight="700" align="middle" lineHeight="125%" anchor="middle" family="微软雅黑" size="13px" weight="700" font-style="" opacity="1" y="4.375" transform="rotate(0)"><tspan id="SvgjsTspan1017" dy="16.25" x="115"><tspan id="SvgjsTspan1018" style="">ReentrantLock</tspan></tspan></text></g><g id="SvgjsG1019"><text id="SvgjsText1020" font-family="微软雅黑" text-anchor="start" font-size="13px" width="210px" fill="#323232" font-weight="400" align="middle" lineHeight="125%" anchor="start" family="微软雅黑" size="13px" weight="400" font-style="" opacity="1" y="34.375" transform="rotate(0)"><tspan id="SvgjsTspan1021" dy="16.25" x="10"><tspan id="SvgjsTspan1022" style="">public void lock() {</tspan></tspan><tspan id="SvgjsTspan1023" dy="16.25" x="10"><tspan id="SvgjsTspan1024" style="">    sync.lock();</tspan></tspan><tspan id="SvgjsTspan1025" dy="16.25" x="10"><tspan id="SvgjsTspan1026" style="">}</tspan></tspan></text></g></g><g id="SvgjsG1027" transform="translate(28.00000000000017,180)"><path id="SvgjsPath1028" d="M 0 4Q 0 0 4 0L 226 0Q 230 0 230 4L 230 89Q 230 93 226 93L 4 93Q 0 93 0 89Z" stroke="rgba(33,41,48,1)" stroke-width="1.5" fill-opacity="1" fill="#ffffff"></path><path id="SvgjsPath1029" d="M 0 30L 230 30" stroke="rgba(33,41,48,1)" stroke-width="1.5" fill="none"></path><path id="SvgjsPath1030" d="M 0 0L 230 0L 230 93L 0 93Z" stroke="none" fill="none"></path><g id="SvgjsG1031"><text id="SvgjsText1032" font-family="微软雅黑" text-anchor="middle" font-size="13px" width="210px" fill="#323232" font-weight="700" align="middle" lineHeight="125%" anchor="middle" family="微软雅黑" size="13px" weight="700" font-style="" opacity="1" y="4.375" transform="rotate(0)"><tspan id="SvgjsTspan1033" dy="16.25" x="115"><tspan id="SvgjsTspan1034" style="">FairSync</tspan></tspan></text></g><g id="SvgjsG1035"><text id="SvgjsText1036" font-family="微软雅黑" text-anchor="start" font-size="13px" width="210px" fill="#323232" font-weight="400" align="middle" lineHeight="125%" anchor="start" family="微软雅黑" size="13px" weight="400" font-style="" opacity="1" y="34.375" transform="rotate(0)"><tspan id="SvgjsTspan1037" dy="16.25" x="10"><tspan id="SvgjsTspan1038" style="">final void lock() {</tspan></tspan><tspan id="SvgjsTspan1039" dy="16.25" x="10"><tspan id="SvgjsTspan1040" style="">    acquire(1);</tspan></tspan><tspan id="SvgjsTspan1041" dy="16.25" x="10"><tspan id="SvgjsTspan1042" style="">}</tspan></tspan></text></g></g><g id="SvgjsG1043" transform="translate(332.00000000000017,180)"><path id="SvgjsPath1044" d="M 0 4Q 0 0 4 0L 348 0Q 352 0 352 4L 352 126Q 352 130 348 130L 4 130Q 0 130 0 126Z" stroke="rgba(33,41,48,1)" stroke-width="1.5" fill-opacity="1" fill="#ffffff"></path><path id="SvgjsPath1045" d="M 0 30L 352 30" stroke="rgba(33,41,48,1)" stroke-width="1.5" fill="none"></path><path id="SvgjsPath1046" d="M 0 0L 352 0L 352 130L 0 130Z" stroke="none" fill="none"></path><g id="SvgjsG1047"><text id="SvgjsText1048" font-family="微软雅黑" text-anchor="middle" font-size="13px" width="332px" fill="#323232" font-weight="700" align="middle" lineHeight="125%" anchor="middle" family="微软雅黑" size="13px" weight="700" font-style="" opacity="1" y="4.375" transform="rotate(0)"><tspan id="SvgjsTspan1049" dy="16.25" x="176"><tspan id="SvgjsTspan1050" style="">NonfairSync</tspan></tspan></text></g><g id="SvgjsG1051"><text id="SvgjsText1052" font-family="微软雅黑" text-anchor="start" font-size="13px" width="332px" fill="#323232" font-weight="400" align="middle" lineHeight="125%" anchor="start" family="微软雅黑" size="13px" weight="400" font-style="" opacity="1" y="20.375" transform="rotate(0)"><tspan id="SvgjsTspan1053" dy="16.25" x="10"><tspan id="SvgjsTspan1054" style="">final void lock() {</tspan></tspan><tspan id="SvgjsTspan1055" dy="16.25" x="10"><tspan id="SvgjsTspan1056" style="">    if (compareAndSetState(0, 1))</tspan></tspan><tspan id="SvgjsTspan1057" dy="16.25" x="10"><tspan id="SvgjsTspan1058" style="">        setExclusiveOwnerThread(Thread.currentThread(</tspan></tspan><tspan id="SvgjsTspan1059" dy="16.25" x="10"><tspan id="SvgjsTspan1060" style="">));</tspan></tspan><tspan id="SvgjsTspan1061" dy="16.25" x="10"><tspan id="SvgjsTspan1062" style="">    else</tspan></tspan><tspan id="SvgjsTspan1063" dy="16.25" x="10"><tspan id="SvgjsTspan1064" style="">        acquire(1);</tspan></tspan><tspan id="SvgjsTspan1065" dy="16.25" x="10"><tspan id="SvgjsTspan1066" style="">}</tspan></tspan></text></g></g><g id="SvgjsG1067"><path id="SvgjsPath1068" d="M201.2554396369033 71.59016576792239C 152.5983805933451 71.5 143.0000000000002 130.59838059334493 143.0553408942147 177.30056721042595" stroke="#323232" stroke-width="1.5" fill="none" marker-end="url(#SvgjsMarker1069)"></path></g><g id="SvgjsG1071"><path id="SvgjsPath1072" d="M432.74650826469195 71.57228700261399C 484.98792315235636 71.49999999999994 508.00000000000017 127.01207684764385 507.8930344973813 177.30211965030887" stroke="#323232" stroke-width="1.5" fill="none" marker-end="url(#SvgjsMarker1073)"></path></g><g id="SvgjsG1075" transform="matrix(-1.8369701987210297e-16,-1,1,-1.8369701987210297e-16,25,393.00000000000017)"><path id="SvgjsPath1076" d="M 79.00000000000011 0Q 71.10000000000011 0 71.10000000000011 9L 71.10000000000011 320.50000000000006Q 71.10000000000011 329.50000000000006 57.000000000000114 329.50000000000006Q 71.10000000000011 329.50000000000006 71.10000000000011 338.50000000000006L 71.10000000000011 650.0000000000001Q 71.10000000000011 659.0000000000001 79.00000000000011 659.0000000000001" stroke="rgba(33,41,48,1)" stroke-width="1.5" fill="none"></path><path id="SvgjsPath1077" d="M 0 0L 79.00000000000011 0L 79.00000000000011 659.0000000000001L 0 659.0000000000001Z" stroke="none" fill="none"></path><g id="SvgjsG1078"><text id="SvgjsText1079" font-family="微软雅黑" text-anchor="end" font-size="13px" width="53px" fill="#323232" font-weight="400" align="middle" lineHeight="125%" anchor="end" family="微软雅黑" size="13px" weight="400" font-style="" opacity="1" y="318.87500000000006" transform="rotate(0)"></text></g></g><g id="SvgjsG1080" transform="translate(224.00000000000017,335)"><path id="SvgjsPath1081" d="M 0 0L 256 0L 256 48L 0 48Z" stroke="none" fill="none"></path><g id="SvgjsG1082"><text id="SvgjsText1083" font-family="微软雅黑" text-anchor="middle" font-size="13px" width="256px" fill="#323232" font-weight="400" align="middle" lineHeight="125%" anchor="middle" family="微软雅黑" size="13px" weight="400" font-style="" opacity="1" y="-3.125" transform="rotate(0)"><tspan id="SvgjsTspan1084" dy="16.25" x="128"><tspan id="SvgjsTspan1085" style="">在创建完公平锁/非公平锁后，调用 lock 方</tspan></tspan><tspan id="SvgjsTspan1086" dy="16.25" x="128"><tspan id="SvgjsTspan1087" style="">法会进行加锁，最终都会调用到 acquire 方</tspan></tspan><tspan id="SvgjsTspan1088" dy="16.25" x="128"><tspan id="SvgjsTspan1089" style="">法</tspan></tspan></text></g></g><g id="SvgjsG1090" transform="translate(171.25000000000017,445)"><path id="SvgjsPath1091" d="M 0 4Q 0 0 4 0L 357.50000000000006 0Q 361.50000000000006 0 361.50000000000006 4L 361.50000000000006 118Q 361.50000000000006 122 357.50000000000006 122L 4 122Q 0 122 0 118Z" stroke="rgba(33,41,48,1)" stroke-width="1.5" fill-opacity="1" fill="#ffffff"></path><path id="SvgjsPath1092" d="M 0 30L 361.50000000000006 30" stroke="rgba(33,41,48,1)" stroke-width="1.5" fill="none"></path><path id="SvgjsPath1093" d="M 0 0L 361.50000000000006 0L 361.50000000000006 122L 0 122Z" stroke="none" fill="none"></path><g id="SvgjsG1094"><text id="SvgjsText1095" font-family="微软雅黑" text-anchor="middle" font-size="13px" width="342px" fill="#323232" font-weight="700" align="middle" lineHeight="125%" anchor="middle" family="微软雅黑" size="13px" weight="700" font-style="" opacity="1" y="4.375" transform="rotate(0)"><tspan id="SvgjsTspan1096" dy="16.25" x="181"><tspan id="SvgjsTspan1097" style="">AbstractQueuedsynchronizer</tspan></tspan></text></g><g id="SvgjsG1098"><text id="SvgjsText1099" font-family="微软雅黑" text-anchor="start" font-size="13px" width="342px" fill="#323232" font-weight="400" align="middle" lineHeight="125%" anchor="start" family="微软雅黑" size="13px" weight="400" font-style="" opacity="1" y="24.375" transform="rotate(0)"><tspan id="SvgjsTspan1100" dy="16.25" x="10"><tspan id="SvgjsTspan1101" style="">public final void acquire(int arg) {</tspan></tspan><tspan id="SvgjsTspan1102" dy="16.25" x="10"><tspan id="SvgjsTspan1103" style="">    if (!tryAcquire(arg) &amp;&amp;</tspan></tspan><tspan id="SvgjsTspan1104" dy="16.25" x="10"><tspan id="SvgjsTspan1105" style="">        acquireQueued(addWaiter(Node.EXCLUSIVE), arg)</tspan></tspan><tspan id="SvgjsTspan1106" dy="16.25" x="10"><tspan id="SvgjsTspan1107" style="">)</tspan></tspan><tspan id="SvgjsTspan1108" dy="16.25" x="10"><tspan id="SvgjsTspan1109" style="">        selfInterrupt();</tspan></tspan><tspan id="SvgjsTspan1110" dy="16.25" x="10"><tspan id="SvgjsTspan1111" style="">}</tspan></tspan></text></g></g><g id="SvgjsG1112"><path id="SvgjsPath1113" d="M352.00000000000017 383.75L352.0000000000002 442.3" stroke="#323232" stroke-width="1.5" fill="none" marker-end="url(#SvgjsMarker1114)"></path></g></svg>