<svg id="SvgjsSvg1301" width="986.9090909090909" height="608.3636363636364" xmlns="http://www.w3.org/2000/svg" version="1.1" xmlns:xlink="http://www.w3.org/1999/xlink" xmlns:svgjs="http://svgjs.com/svgjs"><defs id="SvgjsDefs1302"><pattern patternUnits="userSpaceOnUse" id="pattern_mark_0" width="300" height="300"><text x="150" y="100" fill="rgba(229,229,229,0.8)" font-size="18" transform="rotate(-45, 150, 150)" style="dominant-baseline: middle; text-anchor: middle;"></text></pattern><pattern patternUnits="userSpaceOnUse" id="pattern_mark_1" width="300" height="300"><text x="150" y="200" fill="rgba(229,229,229,0.8)" font-size="18" transform="rotate(-45, 150, 150)" style="dominant-baseline: middle; text-anchor: middle;"></text></pattern><marker id="SvgjsMarker1386" markerWidth="13" markerHeight="9" refX="9.5" refY="4.5" viewBox="0 0 13 9" orient="auto" markerUnits="userSpaceOnUse" stroke-dasharray="0,0"><path id="SvgjsPath1387" d="M0,0 L13,4.5 L0,9 L0,0" fill="#323232" stroke="#323232" stroke-width="1"></path></marker><marker id="SvgjsMarker1538" markerWidth="13" markerHeight="9" refX="9.5" refY="4.5" viewBox="0 0 13 9" orient="auto" markerUnits="userSpaceOnUse" stroke-dasharray="0,0"><path id="SvgjsPath1539" d="M0,0 L13,4.5 L0,9 L0,0" fill="#323232" stroke="#323232" stroke-width="1"></path></marker><marker id="SvgjsMarker1542" markerWidth="13" markerHeight="9" refX="9.5" refY="4.5" viewBox="0 0 13 9" orient="auto" markerUnits="userSpaceOnUse" stroke-dasharray="0,0"><path id="SvgjsPath1543" d="M0,0 L13,4.5 L0,9 L0,0" fill="#323232" stroke="#323232" stroke-width="1"></path></marker><marker id="SvgjsMarker1546" markerWidth="13" markerHeight="9" refX="9.5" refY="4.5" viewBox="0 0 13 9" orient="auto" markerUnits="userSpaceOnUse" stroke-dasharray="0,0"><path id="SvgjsPath1547" d="M0,0 L13,4.5 L0,9 L0,0" fill="#323232" stroke="#323232" stroke-width="1"></path></marker><marker id="SvgjsMarker1550" markerWidth="13" markerHeight="9" refX="9.5" refY="4.5" viewBox="0 0 13 9" orient="auto" markerUnits="userSpaceOnUse" stroke-dasharray="0,0"><path id="SvgjsPath1551" d="M0,0 L13,4.5 L0,9 L0,0" fill="#323232" stroke="#323232" stroke-width="1"></path></marker><marker id="SvgjsMarker1566" markerWidth="13" markerHeight="9" refX="9.5" refY="4.5" viewBox="0 0 13 9" orient="auto" markerUnits="userSpaceOnUse" stroke-dasharray="0,0"><path id="SvgjsPath1567" d="M0,0 L13,4.5 L0,9 L0,0" fill="#323232" stroke="#323232" stroke-width="1"></path></marker><marker id="SvgjsMarker1570" markerWidth="13" markerHeight="9" refX="9.5" refY="4.5" viewBox="0 0 13 9" orient="auto" markerUnits="userSpaceOnUse" stroke-dasharray="0,0"><path id="SvgjsPath1571" d="M0,0 L13,4.5 L0,9 L0,0" fill="#323232" stroke="#323232" stroke-width="1"></path></marker><marker id="SvgjsMarker1574" markerWidth="16" markerHeight="12" refX="11" refY="6" viewBox="0 0 16 12" orient="auto" markerUnits="userSpaceOnUse" stroke-dasharray="0,0"><path id="SvgjsPath1575" d="M0,0 L16,6 L0,12 L0,0" fill="#4669ea" stroke="#4669ea" stroke-width="1"></path></marker><marker id="SvgjsMarker1578" markerWidth="16" markerHeight="12" refX="11" refY="6" viewBox="0 0 16 12" orient="auto" markerUnits="userSpaceOnUse" stroke-dasharray="0,0"><path id="SvgjsPath1579" d="M0,0 L16,6 L0,12 L0,0" fill="#4669ea" stroke="#4669ea" stroke-width="1"></path></marker></defs><rect id="svgbackgroundid" width="986.9090909090909" height="608.3636363636364" fill="transparent"></rect><rect id="SvgjsRect1304" width="986.9090909090909" height="608.3636363636364" fill="url(#pattern_mark_0)"></rect><rect id="SvgjsRect1305" width="986.9090909090909" height="608.3636363636364" fill="url(#pattern_mark_1)"></rect><g id="SvgjsG1306" transform="translate(25,80.86363636363636)"><path id="SvgjsPath1307" d="M 0 0L 132 0L 132 311L 0 311Z" stroke="rgba(33,41,48,1)" stroke-width="1.5" fill-opacity="1" fill="#fbeada"></path><g id="SvgjsG1308"><text id="SvgjsText1309" font-family="微软雅黑" text-anchor="middle" font-size="13px" width="112px" fill="#323232" font-weight="400" align="middle" lineHeight="125%" anchor="middle" family="微软雅黑" size="13px" weight="400" font-style="" opacity="1" y="144.875" transform="rotate(0)"></text></g></g><g id="SvgjsG1310" transform="translate(25,36.36363636363636)"><path id="SvgjsPath1311" d="M 0 0L 132 0L 132 42L 0 42Z" stroke="none" fill="none"></path><g id="SvgjsG1312"><text id="SvgjsText1313" font-family="微软雅黑" text-anchor="middle" font-size="13px" width="132px" fill="#a7932c" font-weight="700" align="middle" lineHeight="125%" anchor="middle" family="微软雅黑" size="13px" weight="700" font-style="" opacity="1" y="10.375" transform="rotate(0)"><tspan id="SvgjsTspan1314" dy="16.25" x="66"><tspan id="SvgjsTspan1315" style="">主线程的虚拟机栈</tspan></tspan></text></g></g><g id="SvgjsG1316" transform="translate(33,126.36363636363636)"><path id="SvgjsPath1317" d="M 0 0L 116 0L 116 219L 0 219Z" stroke="rgba(33,41,48,1)" stroke-width="1.5" fill-opacity="1" fill="#fbf997"></path><g id="SvgjsG1318"><text id="SvgjsText1319" font-family="微软雅黑" text-anchor="middle" font-size="13px" width="96px" fill="#323232" font-weight="400" align="middle" lineHeight="125%" anchor="middle" family="微软雅黑" size="13px" weight="400" font-style="" opacity="1" y="98.875" transform="rotate(0)"></text></g></g><g id="SvgjsG1320" transform="translate(40.5,135.86363636363637)"><path id="SvgjsPath1321" d="M 0 0L 101 0L 101 29L 0 29Z" stroke="rgba(33,41,48,1)" stroke-width="1.5" fill-opacity="1" fill="#fbeada"></path><g id="SvgjsG1322"><text id="SvgjsText1323" font-family="微软雅黑" text-anchor="middle" font-size="13px" width="81px" fill="#323232" font-weight="400" align="middle" lineHeight="125%" anchor="middle" family="微软雅黑" size="13px" weight="400" font-style="" opacity="1" y="3.875" transform="rotate(0)"><tspan id="SvgjsTspan1324" dy="16.25" x="50.5"><tspan id="SvgjsTspan1325" style="">局部变量表</tspan></tspan></text></g></g><g id="SvgjsG1326" transform="translate(40.5,179.36363636363637)"><path id="SvgjsPath1327" d="M 0 0L 101 0L 101 29L 0 29Z" stroke="rgba(33,41,48,1)" stroke-width="1.5" fill-opacity="1" fill="#f8d5b5"></path><g id="SvgjsG1328"><text id="SvgjsText1329" font-family="微软雅黑" text-anchor="middle" font-size="13px" width="81px" fill="#323232" font-weight="400" align="middle" lineHeight="125%" anchor="middle" family="微软雅黑" size="13px" weight="400" font-style="" opacity="1" y="3.875" transform="rotate(0)"><tspan id="SvgjsTspan1330" dy="16.25" x="50.5"><tspan id="SvgjsTspan1331" style="">操作数栈</tspan></tspan></text></g></g><g id="SvgjsG1332" transform="translate(40.5,221.36363636363637)"><path id="SvgjsPath1333" d="M 0 0L 101 0L 101 29L 0 29Z" stroke="rgba(33,41,48,1)" stroke-width="1.5" fill-opacity="1" fill="#f4c18f"></path><g id="SvgjsG1334"><text id="SvgjsText1335" font-family="微软雅黑" text-anchor="middle" font-size="13px" width="81px" fill="#323232" font-weight="400" align="middle" lineHeight="125%" anchor="middle" family="微软雅黑" size="13px" weight="400" font-style="" opacity="1" y="3.875" transform="rotate(0)"><tspan id="SvgjsTspan1336" dy="16.25" x="50.5"><tspan id="SvgjsTspan1337" style="">动态链接</tspan></tspan></text></g></g><g id="SvgjsG1338" transform="translate(40.5,263.3636363636364)"><path id="SvgjsPath1339" d="M 0 0L 101 0L 101 29L 0 29Z" stroke="rgba(33,41,48,1)" stroke-width="1.5" fill-opacity="1" fill="#f1ac6a"></path><g id="SvgjsG1340"><text id="SvgjsText1341" font-family="微软雅黑" text-anchor="middle" font-size="13px" width="81px" fill="#323232" font-weight="400" align="middle" lineHeight="125%" anchor="middle" family="微软雅黑" size="13px" weight="400" font-style="" opacity="1" y="3.875" transform="rotate(0)"><tspan id="SvgjsTspan1342" dy="16.25" x="50.5"><tspan id="SvgjsTspan1343" style="">方法返回地址</tspan></tspan></text></g></g><g id="SvgjsG1344" transform="translate(40.5,306.8636363636364)"><path id="SvgjsPath1345" d="M 0 0L 101 0L 101 29L 0 29Z" stroke="rgba(33,41,48,1)" stroke-width="1.5" fill-opacity="1" fill="#a66a30"></path><g id="SvgjsG1346"><text id="SvgjsText1347" font-family="微软雅黑" text-anchor="middle" font-size="13px" width="81px" fill="#323232" font-weight="400" align="middle" lineHeight="125%" anchor="middle" family="微软雅黑" size="13px" weight="400" font-style="" opacity="1" y="3.875" transform="rotate(0)"><tspan id="SvgjsTspan1348" dy="16.25" x="50.5"><tspan id="SvgjsTspan1349" style="">附加信息</tspan></tspan></text></g></g><g id="SvgjsG1350" transform="translate(40.5,82.36363636363636)"><path id="SvgjsPath1351" d="M 0 0L 101 0L 101 42L 0 42Z" stroke="none" fill="none"></path><g id="SvgjsG1352"><text id="SvgjsText1353" font-family="微软雅黑" text-anchor="middle" font-size="13px" width="101px" fill="#323232" font-weight="400" align="middle" lineHeight="125%" anchor="middle" family="微软雅黑" size="13px" weight="400" font-style="" opacity="1" y="10.375" transform="rotate(0)"><tspan id="SvgjsTspan1354" dy="16.25" x="50.5"><tspan id="SvgjsTspan1355" style="">main()的栈帧</tspan></tspan></text></g></g><g id="SvgjsG1356" transform="translate(40.5,344.8636363636364)"><path id="SvgjsPath1357" d="M 0 0L 101 0L 101 42L 0 42Z" stroke="none" fill="none"></path><g id="SvgjsG1358"><text id="SvgjsText1359" font-family="微软雅黑" text-anchor="middle" font-size="13px" width="101px" fill="#323232" font-weight="400" align="middle" lineHeight="125%" anchor="middle" family="微软雅黑" size="13px" weight="400" font-style="" opacity="1" y="10.375" transform="rotate(0)"><tspan id="SvgjsTspan1360" dy="16.25" x="50.5"><tspan id="SvgjsTspan1361" style="">......</tspan></tspan></text></g></g><g id="SvgjsG1362" transform="translate(217.5,111.36363636363636)"><path id="SvgjsPath1363" d="M 0 0L 101 0L 101 75L 0 75Z" stroke="rgba(33,41,48,1)" stroke-width="1.5" fill-opacity="1" fill="#ffffff"></path><g id="SvgjsG1364"><text id="SvgjsText1365" font-family="微软雅黑" text-anchor="middle" font-size="13px" width="81px" fill="#323232" font-weight="400" align="middle" lineHeight="125%" anchor="middle" family="微软雅黑" size="13px" weight="400" font-style="" opacity="1" y="26.875" transform="rotate(0)"></text></g></g><g id="SvgjsG1366" transform="translate(241,120.36363636363636)"><path id="SvgjsPath1367" d="M 0 0L 54 0L 54 21L 0 21Z" stroke="rgba(33,41,48,1)" stroke-width="1.5" fill-opacity="1" fill="#314aa4"></path><g id="SvgjsG1368"><text id="SvgjsText1369" font-family="微软雅黑" text-anchor="middle" font-size="13px" width="34px" fill="#ffffff" font-weight="400" align="middle" lineHeight="125%" anchor="middle" family="微软雅黑" size="13px" weight="400" font-style="" opacity="1" y="-0.125" transform="rotate(0)"><tspan id="SvgjsTspan1370" dy="16.25" x="27"><tspan id="SvgjsTspan1371" style="">args</tspan></tspan></text></g></g><g id="SvgjsG1372" transform="translate(241,153.36363636363637)"><path id="SvgjsPath1373" d="M 0 0L 54 0L 54 21L 0 21Z" stroke="rgba(33,41,48,1)" stroke-width="1.5" fill-opacity="1" fill="#314aa4"></path><g id="SvgjsG1374"><text id="SvgjsText1375" font-family="微软雅黑" text-anchor="middle" font-size="13px" width="34px" fill="#ffffff" font-weight="400" align="middle" lineHeight="125%" anchor="middle" family="微软雅黑" size="13px" weight="400" font-style="" opacity="1" y="-0.125" transform="rotate(0)"><tspan id="SvgjsTspan1376" dy="16.25" x="27"><tspan id="SvgjsTspan1377" style="">cust</tspan></tspan></text></g></g><g id="SvgjsG1378" transform="translate(217.5,80.86363636363636)"><path id="SvgjsPath1379" d="M 0 0L 101 0L 101 42L 0 42Z" stroke="none" fill="none"></path><g id="SvgjsG1380"><text id="SvgjsText1381" font-family="微软雅黑" text-anchor="middle" font-size="13px" width="101px" fill="#a7932c" font-weight="700" align="middle" lineHeight="125%" anchor="middle" family="微软雅黑" size="13px" weight="700" font-style="" opacity="1" y="10.375" transform="rotate(0)"><tspan id="SvgjsTspan1382" dy="16.25" x="50.5"><tspan id="SvgjsTspan1383" style="">局部变量表</tspan></tspan></text></g></g><g id="SvgjsG1384"><path id="SvgjsPath1385" d="M142.25 150.36363636363637L179.5 150.36363636363637L179.5 148.86363636363637L214.8 148.86363636363637" stroke-dasharray="8,5" stroke="#323232" stroke-width="1.5" fill="none" marker-end="url(#SvgjsMarker1386)"></path></g><g id="SvgjsG1388" transform="translate(353,57.36363636363636)"><path id="SvgjsPath1389" d="M 0 0L 608.9090909090909 0L 608.9090909090909 357L 0 357Z" stroke="rgba(33,41,48,1)" stroke-width="1.5" fill-opacity="1" fill="#d2d6f9"></path><g id="SvgjsG1390"><text id="SvgjsText1391" font-family="微软雅黑" text-anchor="middle" font-size="13px" width="589px" fill="#323232" font-weight="400" align="middle" lineHeight="125%" anchor="middle" family="微软雅黑" size="13px" weight="400" font-style="" opacity="1" y="167.875" transform="rotate(0)"></text></g></g><g id="SvgjsG1392" transform="translate(389.5,102.36363636363636)"><path id="SvgjsPath1393" d="M 0 0L 159 0L 159 251L 0 251Z" stroke="rgba(33,41,48,1)" stroke-width="1.5" fill-opacity="1" fill="#ffffff"></path><g id="SvgjsG1394"><text id="SvgjsText1395" font-family="微软雅黑" text-anchor="middle" font-size="13px" width="139px" fill="#323232" font-weight="400" align="middle" lineHeight="125%" anchor="middle" family="微软雅黑" size="13px" weight="400" font-style="" opacity="1" y="114.875" transform="rotate(0)"></text></g></g><g id="SvgjsG1396" transform="translate(389.5,104.11363636363636)"><path id="SvgjsPath1397" d="M 0 0L 159 0L 159 92.5L 0 92.5Z" stroke="rgba(33,41,48,1)" stroke-width="1.5" fill-opacity="1" fill="#ffffff"></path><g id="SvgjsG1398"><text id="SvgjsText1399" font-family="微软雅黑" text-anchor="middle" font-size="13px" width="139px" fill="#323232" font-weight="400" align="middle" lineHeight="125%" anchor="middle" family="微软雅黑" size="13px" weight="400" font-style="" opacity="1" y="35.625" transform="rotate(0)"></text></g></g><g id="SvgjsG1400" transform="translate(389.5,195.36363636363637)"><path id="SvgjsPath1401" d="M 0 0L 159 0L 159 125L 0 125Z" stroke="rgba(33,41,48,1)" stroke-width="1.5" fill-opacity="1" fill="#f1e4a2"></path><g id="SvgjsG1402"><text id="SvgjsText1403" font-family="微软雅黑" text-anchor="middle" font-size="13px" width="139px" fill="#323232" font-weight="400" align="middle" lineHeight="125%" anchor="middle" family="微软雅黑" size="13px" weight="400" font-style="" opacity="1" y="51.875" transform="rotate(0)"></text></g></g><g id="SvgjsG1404" transform="translate(389.5,320.3636363636364)"><path id="SvgjsPath1405" d="M 0 0L 159 0L 159 36L 0 36Z" stroke="rgba(33,41,48,1)" stroke-width="1.5" fill-opacity="1" fill="#e0c431"></path><g id="SvgjsG1406"><text id="SvgjsText1407" font-family="微软雅黑" text-anchor="middle" font-size="13px" width="139px" fill="#323232" font-weight="400" align="middle" lineHeight="125%" anchor="middle" family="微软雅黑" size="13px" weight="400" font-style="" opacity="1" y="7.375" transform="rotate(0)"><tspan id="SvgjsTspan1408" dy="16.25" x="79.5"><tspan id="SvgjsTspan1409" style="">对齐填充(padding)</tspan></tspan></text></g></g><g id="SvgjsG1410" transform="translate(411,109.11363636363636)"><path id="SvgjsPath1411" d="M 0 0L 116 0L 116 82.5L 0 82.5Z" stroke="rgba(70,105,234,1)" stroke-width="3" fill-opacity="1" fill="#ffffff"></path><g id="SvgjsG1412"><text id="SvgjsText1413" font-family="微软雅黑" text-anchor="middle" font-size="13px" width="96px" fill="#323232" font-weight="400" align="middle" lineHeight="125%" anchor="middle" family="微软雅黑" size="13px" weight="400" font-style="" opacity="1" y="30.625" transform="rotate(0)"></text></g></g><g id="SvgjsG1414" transform="translate(393,201.36363636363637)"><path id="SvgjsPath1415" d="M 0 0L 126 0L 126 75L 0 75Z" stroke="none" fill="none"></path><g id="SvgjsG1416"><text id="SvgjsText1417" font-family="微软雅黑" text-anchor="start" font-size="13px" width="126px" fill="#323232" font-weight="400" align="middle" lineHeight="125%" anchor="start" family="微软雅黑" size="13px" weight="400" font-style="" opacity="1" y="2.375" transform="rotate(0)"><tspan id="SvgjsTspan1418" dy="16.25" x="0"><tspan id="SvgjsTspan1419" style="">父类的实例数据：略</tspan></tspan><tspan id="SvgjsTspan1420" dy="16.25" x="0"><tspan id="SvgjsTspan1421" style="">id:1001</tspan></tspan><tspan id="SvgjsTspan1422" dy="16.25" x="0"><tspan id="SvgjsTspan1423" style="">name:</tspan></tspan><tspan id="SvgjsTspan1424" dy="16.25" x="0"><tspan id="SvgjsTspan1425" style="">acct:</tspan></tspan></text></g></g><g id="SvgjsG1426" transform="translate(418.5,117.86363636363636)"><path id="SvgjsPath1427" d="M 0 0L 101 0L 101 29L 0 29Z" stroke="rgba(33,41,48,1)" stroke-width="1.5" fill-opacity="1" fill="#fadded"></path><g id="SvgjsG1428"><text id="SvgjsText1429" font-family="微软雅黑" text-anchor="middle" font-size="13px" width="81px" fill="#323232" font-weight="400" align="middle" lineHeight="125%" anchor="middle" family="微软雅黑" size="13px" weight="400" font-style="" opacity="1" y="3.875" transform="rotate(0)"><tspan id="SvgjsTspan1430" dy="16.25" x="50.5"><tspan id="SvgjsTspan1431" style="">运行时元数据</tspan></tspan></text></g></g><g id="SvgjsG1432" transform="translate(418.5,150.86363636363637)"><path id="SvgjsPath1433" d="M 0 0L 101 0L 101 29L 0 29Z" stroke="rgba(33,41,48,1)" stroke-width="1.5" fill-opacity="1" fill="#beb3af"></path><g id="SvgjsG1434"><text id="SvgjsText1435" font-family="微软雅黑" text-anchor="middle" font-size="13px" width="81px" fill="#323232" font-weight="400" align="middle" lineHeight="125%" anchor="middle" family="微软雅黑" size="13px" weight="400" font-style="" opacity="1" y="3.875" transform="rotate(0)"><tspan id="SvgjsTspan1436" dy="16.25" x="50.5"><tspan id="SvgjsTspan1437" style="">类型指针</tspan></tspan></text></g></g><g id="SvgjsG1438" transform="translate(420.5,465.3636363636364)"><path id="SvgjsPath1439" d="M 0 0L 358.5 0L 358.5 118L 0 118Z" stroke="rgba(33,41,48,1)" stroke-width="1.5" fill-opacity="1" fill="#efeceb"></path><g id="SvgjsG1440"><text id="SvgjsText1441" font-family="微软雅黑" text-anchor="middle" font-size="13px" width="339px" fill="#323232" font-weight="400" align="middle" lineHeight="125%" anchor="middle" family="微软雅黑" size="13px" weight="400" font-style="" opacity="1" y="48.375" transform="rotate(0)"></text></g></g><g id="SvgjsG1442" transform="translate(458,493.8636363636364)"><path id="SvgjsPath1443" d="M 0 30.5C 0 -10.166666666666666 132 -10.166666666666666 132 30.5C 132 71.16666666666667 0 71.16666666666667 0 30.5Z" stroke="rgba(33,41,48,1)" stroke-width="1.5" fill-opacity="1" fill="#ffffff"></path><g id="SvgjsG1444"><text id="SvgjsText1445" font-family="微软雅黑" text-anchor="middle" font-size="13px" width="112px" fill="#323232" font-weight="400" align="middle" lineHeight="125%" anchor="middle" family="微软雅黑" size="13px" weight="400" font-style="" opacity="1" y="11.375" transform="rotate(0)"><tspan id="SvgjsTspan1446" dy="16.25" x="66"><tspan id="SvgjsTspan1447" style="">Customer的Klass</tspan></tspan><tspan id="SvgjsTspan1448" dy="16.25" x="66"><tspan id="SvgjsTspan1449" style="">类元信息</tspan></tspan></text></g></g><g id="SvgjsG1450" transform="translate(617.0909090909091,493.8636363636364)"><path id="SvgjsPath1451" d="M 0 30.5C 0 -10.166666666666666 132 -10.166666666666666 132 30.5C 132 71.16666666666667 0 71.16666666666667 0 30.5Z" stroke="rgba(33,41,48,1)" stroke-width="1.5" fill-opacity="1" fill="#ffffff"></path><g id="SvgjsG1452"><text id="SvgjsText1453" font-family="微软雅黑" text-anchor="middle" font-size="13px" width="112px" fill="#323232" font-weight="400" align="middle" lineHeight="125%" anchor="middle" family="微软雅黑" size="13px" weight="400" font-style="" opacity="1" y="11.375" transform="rotate(0)"><tspan id="SvgjsTspan1454" dy="16.25" x="66"><tspan id="SvgjsTspan1455" style="">Account的Klass</tspan></tspan><tspan id="SvgjsTspan1456" dy="16.25" x="66"><tspan id="SvgjsTspan1457" style="">类元信息</tspan></tspan></text></g></g><g id="SvgjsG1458" transform="translate(636.0909090909091,116.86363636363636)"><path id="SvgjsPath1459" d="M 0 0L 116 0L 116 67L 0 67Z" stroke="rgba(33,41,48,1)" stroke-width="1.5" fill-opacity="1" fill="#fadded"></path><g id="SvgjsG1460"><text id="SvgjsText1461" font-family="微软雅黑" text-anchor="middle" font-size="13px" width="96px" fill="#323232" font-weight="400" align="middle" lineHeight="125%" anchor="middle" family="微软雅黑" size="13px" weight="400" font-style="" opacity="1" y="-1.625" transform="rotate(0)"><tspan id="SvgjsTspan1462" dy="16.25" x="58"><tspan id="SvgjsTspan1463" style="">哈希值</tspan></tspan><tspan id="SvgjsTspan1464" dy="16.25" x="58"><tspan id="SvgjsTspan1465" style="">GC分代年龄</tspan></tspan><tspan id="SvgjsTspan1466" dy="16.25" x="58"><tspan id="SvgjsTspan1467" style="">锁状态标志</tspan></tspan><tspan id="SvgjsTspan1468" dy="16.25" x="58"><tspan id="SvgjsTspan1469" style="">...</tspan></tspan></text></g></g><g id="SvgjsG1470" transform="translate(794,224.86363636363637)"><path id="SvgjsPath1471" d="M 0 0L 126 0L 126 67L 0 67Z" stroke="rgba(33,41,48,1)" stroke-width="1.5" fill-opacity="1" fill="#a6aef3"></path><g id="SvgjsG1472"><text id="SvgjsText1473" font-family="微软雅黑" text-anchor="middle" font-size="13px" width="106px" fill="#323232" font-weight="400" align="middle" lineHeight="125%" anchor="middle" family="微软雅黑" size="13px" weight="400" font-style="" opacity="1" y="22.875" transform="rotate(0)"><tspan id="SvgjsTspan1474" dy="16.25" x="63"><tspan id="SvgjsTspan1475" style="">匿名客户端</tspan></tspan></text></g></g><g id="SvgjsG1476" transform="translate(606.4545454545454,25)"><path id="SvgjsPath1477" d="M 0 0L 101 0L 101 42L 0 42Z" stroke="none" fill="none"></path><g id="SvgjsG1478"><text id="SvgjsText1479" font-family="微软雅黑" text-anchor="middle" font-size="13px" width="101px" fill="#a7932c" font-weight="400" align="middle" lineHeight="125%" anchor="middle" family="微软雅黑" size="13px" weight="400" font-style="" opacity="1" y="10.375" transform="rotate(0)"><tspan id="SvgjsTspan1480" dy="16.25" x="50.5"><tspan id="SvgjsTspan1481" style="font-weight: bold;">堆空间</tspan></tspan></text></g></g><g id="SvgjsG1482" transform="translate(340.81818181818187,512.3636363636364)"><path id="SvgjsPath1483" d="M 0 0L 101 0L 101 42L 0 42Z" stroke="none" fill="none"></path><g id="SvgjsG1484"><text id="SvgjsText1485" font-family="微软雅黑" text-anchor="middle" font-size="13px" width="101px" fill="#a7932c" font-weight="400" align="middle" lineHeight="125%" anchor="middle" family="微软雅黑" size="13px" weight="400" font-style="" opacity="1" y="10.375" transform="rotate(0)"><tspan id="SvgjsTspan1486" dy="16.25" x="50.5"><tspan id="SvgjsTspan1487" style="font-weight: bold;">方法区</tspan></tspan></text></g></g><g id="SvgjsG1488" transform="translate(563,139.86363636363637)"><path id="SvgjsPath1489" d="M 0 25.5C 0 -8.5 70 -8.5 70 25.5C 70 59.5 0 59.5 0 25.5Z" stroke="rgba(70,105,234,1)" stroke-width="3" fill="none"></path><g id="SvgjsG1490"><text id="SvgjsText1491" font-family="微软雅黑" text-anchor="middle" font-size="13px" width="50px" fill="#323232" font-weight="400" align="middle" lineHeight="125%" anchor="middle" family="微软雅黑" size="13px" weight="400" font-style="" opacity="1" y="14.875" transform="rotate(0)"></text></g></g><g id="SvgjsG1492" transform="translate(568.9545454545455,147.36363636363637)"><path id="SvgjsPath1493" d="M 0 0L 58.09090909090901 0L 58.09090909090901 36L 0 36Z" stroke="none" fill="none"></path><g id="SvgjsG1494"><text id="SvgjsText1495" font-family="微软雅黑" text-anchor="middle" font-size="13px" width="59px" fill="#323232" font-weight="400" align="middle" lineHeight="125%" anchor="middle" family="微软雅黑" size="13px" weight="400" font-style="" opacity="1" y="-1.125" transform="rotate(0)"><tspan id="SvgjsTspan1496" dy="16.25" x="29.5"><tspan id="SvgjsTspan1497" style="font-weight: bold;fill: rgb(167, 147, 44);">对象头</tspan></tspan><tspan id="SvgjsTspan1498" dy="16.25" x="29.5"><tspan id="SvgjsTspan1499" style="font-weight: bold;fill: rgb(167, 147, 44);">(Header)</tspan></tspan></text></g></g><g id="SvgjsG1500" transform="translate(548,227.36363636363637)"><path id="SvgjsPath1501" d="M 0 0L 101 0L 101 36L 0 36Z" stroke="none" fill="none"></path><g id="SvgjsG1502"><text id="SvgjsText1503" font-family="微软雅黑" text-anchor="middle" font-size="13px" width="101px" fill="#323232" font-weight="400" align="middle" lineHeight="125%" anchor="middle" family="微软雅黑" size="13px" weight="400" font-style="" opacity="1" y="-1.125" transform="rotate(0)"><tspan id="SvgjsTspan1504" dy="16.25" x="50.5"><tspan id="SvgjsTspan1505" style="fill: rgb(167, 147, 44);font-weight: bold;">实例数据</tspan></tspan><tspan id="SvgjsTspan1506" dy="16.25" x="50.5"><tspan id="SvgjsTspan1507" style="fill: rgb(167, 147, 44);font-weight: bold;">(Instance Data)</tspan></tspan></text></g></g><g id="SvgjsG1508" transform="translate(806.5,197.86363636363637)"><path id="SvgjsPath1509" d="M 0 0L 101 0L 101 29L 0 29Z" stroke="none" fill="none"></path><g id="SvgjsG1510"><text id="SvgjsText1511" font-family="微软雅黑" text-anchor="middle" font-size="13px" width="101px" fill="#323232" font-weight="400" align="middle" lineHeight="125%" anchor="middle" family="微软雅黑" size="13px" weight="400" font-style="" opacity="1" y="3.875" transform="rotate(0)"><tspan id="SvgjsTspan1512" dy="16.25" x="50.5"><tspan id="SvgjsTspan1513" style="fill: rgb(167, 147, 44);font-weight: bold;">字符串常量</tspan></tspan></text></g></g><g id="SvgjsG1514" transform="translate(660.1363636363636,310.3636363636364)"><path id="SvgjsPath1515" d="M 0 0L 105.72727272727275 0L 105.72727272727275 42L 0 42Z" stroke="rgba(33,41,48,1)" stroke-width="1.5" fill-opacity="1" fill="#ffffff"></path><g id="SvgjsG1516"><text id="SvgjsText1517" font-family="微软雅黑" text-anchor="middle" font-size="13px" width="86px" fill="#323232" font-weight="400" align="middle" lineHeight="125%" anchor="middle" family="微软雅黑" size="13px" weight="400" font-style="" opacity="1" y="10.375" transform="rotate(0)"></text></g></g><g id="SvgjsG1518" transform="translate(674.2727272727273,320.8636363636364)"><path id="SvgjsPath1519" d="M 0 0L 77.4545454545455 0L 77.4545454545455 21L 0 21Z" stroke="rgba(33,41,48,1)" stroke-width="1.5" fill-opacity="1" fill="#beb3af"></path><g id="SvgjsG1520"><text id="SvgjsText1521" font-family="微软雅黑" text-anchor="middle" font-size="13px" width="58px" fill="#323232" font-weight="400" align="middle" lineHeight="125%" anchor="middle" family="微软雅黑" size="13px" weight="400" font-style="" opacity="1" y="-0.125" transform="rotate(0)"><tspan id="SvgjsTspan1522" dy="16.25" x="39"><tspan id="SvgjsTspan1523" style="">类型指针</tspan></tspan></text></g></g><g id="SvgjsG1524" transform="translate(769,393.45454545454544)"><path id="SvgjsPath1525" d="M 0 0L 144 0L 144 21L 0 21Z" stroke="none" fill="none"></path><g id="SvgjsG1526"><text id="SvgjsText1527" font-family="微软雅黑" text-anchor="middle" font-size="13px" width="144px" fill="#323232" font-weight="400" align="middle" lineHeight="125%" anchor="middle" family="微软雅黑" size="13px" weight="400" font-style="" opacity="1" y="-0.125" transform="rotate(0)"><tspan id="SvgjsTspan1528" dy="16.25" x="72"><tspan id="SvgjsTspan1529" style="fill: rgb(167, 147, 44);font-weight: bold;">new Account()实例</tspan></tspan></text></g></g><g id="SvgjsG1530" transform="translate(397,57.20454545454545)"><path id="SvgjsPath1531" d="M 0 0L 144 0L 144 67L 0 67Z" stroke="none" fill="none"></path><g id="SvgjsG1532"><text id="SvgjsText1533" font-family="微软雅黑" text-anchor="middle" font-size="13px" width="144px" fill="#323232" font-weight="400" align="middle" lineHeight="125%" anchor="middle" family="微软雅黑" size="13px" weight="400" font-style="" opacity="1" y="22.875" transform="rotate(0)"><tspan id="SvgjsTspan1534" dy="16.25" x="72"><tspan id="SvgjsTspan1535" style="fill: rgb(167, 147, 44);font-weight: bold;">new Customer()实例</tspan></tspan></text></g></g><g id="SvgjsG1536"><path id="SvgjsPath1537" d="M295.6390835000162 163.47111594377648L389.9814717251426 105.52670987513198" stroke="#323232" stroke-width="1.5" fill="none" marker-end="url(#SvgjsMarker1538)"></path></g><g id="SvgjsG1540"><path id="SvgjsPath1541" d="M417.75412170251184 165.4421574775875C 276.2450701376656 167.36363636363637 317.8678802759679 549.3525611157175 455.3099114737205 524.5947720830296" stroke="#323232" stroke-width="1.5" fill="none" marker-end="url(#SvgjsMarker1542)"></path></g><g id="SvgjsG1544"><path id="SvgjsPath1545" d="M520.2412185368522 132.47807010265916L633.4225223582413 149.95167490315433" stroke-dasharray="8,5" stroke="#323232" stroke-width="1.5" fill="none" marker-end="url(#SvgjsMarker1546)"></path></g><g id="SvgjsG1548"><path id="SvgjsPath1549" d="M429 245.36363636363637C 579.936170212766 288.17214700193426 666.1063829787234 280.72533849129593 819.0696286212974 258.685073409054" stroke="#323232" stroke-width="1.5" fill="none" marker-end="url(#SvgjsMarker1550)"></path></g><g id="SvgjsG1552" transform="translate(389,234.86363636363637)"><path id="SvgjsPath1553" d="M 0 4Q 0 0 4 0L 36 0Q 40 0 40 4L 40 17Q 40 21 36 21L 4 21Q 0 21 0 17Z" stroke="none" fill="none"></path><g id="SvgjsG1554"><text id="SvgjsText1555" font-family="微软雅黑" text-anchor="middle" font-size="13px" width="20px" fill="#323232" font-weight="400" align="middle" lineHeight="125%" anchor="middle" family="微软雅黑" size="13px" weight="400" font-style="" opacity="1" y="-0.125" transform="rotate(0)"></text></g></g><g id="SvgjsG1556" transform="translate(821,247.9090909090909)"><path id="SvgjsPath1557" d="M 0 4Q 0 0 4 0L 36 0Q 40 0 40 4L 40 17Q 40 21 36 21L 4 21Q 0 21 0 17Z" stroke="none" fill="none"></path><g id="SvgjsG1558"><text id="SvgjsText1559" font-family="微软雅黑" text-anchor="middle" font-size="13px" width="20px" fill="#323232" font-weight="400" align="middle" lineHeight="125%" anchor="middle" family="微软雅黑" size="13px" weight="400" font-style="" opacity="1" y="-0.125" transform="rotate(0)"></text></g></g><g id="SvgjsG1560" transform="translate(389,256.80947775628624)"><path id="SvgjsPath1561" d="M 0 4Q 0 0 4 0L 36 0Q 40 0 40 4L 40 17Q 40 21 36 21L 4 21Q 0 21 0 17Z" stroke="none" fill="none"></path><g id="SvgjsG1562"><text id="SvgjsText1563" font-family="微软雅黑" text-anchor="middle" font-size="13px" width="20px" fill="#323232" font-weight="400" align="middle" lineHeight="125%" anchor="middle" family="微软雅黑" size="13px" weight="400" font-style="" opacity="1" y="-0.125" transform="rotate(0)"></text></g></g><g id="SvgjsG1564"><path id="SvgjsPath1565" d="M429 267.30947775628624C 522.7188446736394 268.41400433529424 566.1178199890173 309.4487427466151 657.4384112977818 310.96860864776596" stroke="#323232" stroke-width="1.5" fill="none" marker-end="url(#SvgjsMarker1566)"></path></g><g id="SvgjsG1568"><path id="SvgjsPath1569" d="M712.9701668661125 342.6130427848275C 712.7272727272727 401.42978342924897 685.1741127154944 429.806942272846 683.2642014027948 491.1692032554221" stroke="#323232" stroke-width="1.5" fill="none" marker-end="url(#SvgjsMarker1570)"></path></g><g id="SvgjsG1572"><path id="SvgjsPath1573" d="M520.220329614848 132.5725029382072L566.7652793385938 146.06866360129723" stroke="#4669ea" stroke-width="3" fill="none" marker-end="url(#SvgjsMarker1574)"></path></g><g id="SvgjsG1576"><path id="SvgjsPath1577" d="M520.25 165.36363636363637L564.3045454545455 165.36363636363637" stroke="#4669ea" stroke-width="3" fill="none" marker-end="url(#SvgjsMarker1578)"></path></g><g id="SvgjsG1580" transform="translate(548,219.86363636363637)"><path id="SvgjsPath1581" d="M 0 25.5C 0 -8.5 101 -8.5 101 25.5C 101 59.5 0 59.5 0 25.5Z" stroke="rgba(70,105,234,1)" stroke-width="3" fill="none"></path><g id="SvgjsG1582"><text id="SvgjsText1583" font-family="微软雅黑" text-anchor="middle" font-size="13px" width="81px" fill="#323232" font-weight="400" align="middle" lineHeight="125%" anchor="middle" family="微软雅黑" size="13px" weight="400" font-style="" opacity="1" y="14.875" transform="rotate(0)"></text></g></g><g id="SvgjsG1584" transform="translate(668.0454545454546,300.3636363636364)"><path id="SvgjsPath1585" d="M 0 21C 0 -7 89.90909090909076 -7 89.90909090909076 21C 89.90909090909076 49 0 49 0 21Z" stroke="rgba(70,105,234,1)" stroke-width="3" fill="none"></path><g id="SvgjsG1586"><text id="SvgjsText1587" font-family="微软雅黑" text-anchor="middle" font-size="13px" width="70px" fill="#323232" font-weight="400" align="middle" lineHeight="125%" anchor="middle" family="微软雅黑" size="13px" weight="400" font-style="" opacity="1" y="10.375" transform="rotate(0)"></text></g></g><g id="SvgjsG1588" transform="translate(390,201.86363636363637)"><path id="SvgjsPath1589" d="M 0 0L 132 0L 132 21L 0 21Z" stroke="rgba(70,105,234,1)" stroke-width="3" fill="none"></path><g id="SvgjsG1590"><text id="SvgjsText1591" font-family="微软雅黑" text-anchor="middle" font-size="13px" width="112px" fill="#323232" font-weight="400" align="middle" lineHeight="125%" anchor="middle" family="微软雅黑" size="13px" weight="400" font-style="" opacity="1" y="-0.125" transform="rotate(0)"></text></g></g><g id="SvgjsG1592" transform="translate(403,320.8636363636364)"><path id="SvgjsPath1593" d="M 0 0L 132 0L 132 21L 0 21Z" stroke="rgba(70,105,234,1)" stroke-width="3" fill="none"></path><g id="SvgjsG1594"><text id="SvgjsText1595" font-family="微软雅黑" text-anchor="middle" font-size="13px" width="112px" fill="#323232" font-weight="400" align="middle" lineHeight="125%" anchor="middle" family="微软雅黑" size="13px" weight="400" font-style="" opacity="1" y="-0.125" transform="rotate(0)"></text></g></g></svg>