<svg id="SvgjsSvg1006" width="815.047619047619" height="503.4761904761905" xmlns="http://www.w3.org/2000/svg" version="1.1" xmlns:xlink="http://www.w3.org/1999/xlink" xmlns:svgjs="http://svgjs.com/svgjs"><defs id="SvgjsDefs1007"><pattern patternUnits="userSpaceOnUse" id="pattern_mark_0" width="300" height="300"><text x="150" y="100" fill="rgba(229,229,229,0.8)" font-size="18" transform="rotate(-45, 150, 150)" style="dominant-baseline: middle; text-anchor: middle;"></text></pattern><pattern patternUnits="userSpaceOnUse" id="pattern_mark_1" width="300" height="300"><text x="150" y="200" fill="rgba(229,229,229,0.8)" font-size="18" transform="rotate(-45, 150, 150)" style="dominant-baseline: middle; text-anchor: middle;"></text></pattern><marker id="SvgjsMarker1067" markerWidth="13" markerHeight="9" refX="9.5" refY="4.5" viewBox="0 0 13 9" orient="auto" markerUnits="userSpaceOnUse" stroke-dasharray="0,0"><path id="SvgjsPath1068" d="M0,0 L13,4.5 L0,9 L0,0" fill="#323232" stroke="#323232" stroke-width="1"></path></marker><marker id="SvgjsMarker1075" markerWidth="13" markerHeight="9" refX="9.5" refY="4.5" viewBox="0 0 13 9" orient="auto" markerUnits="userSpaceOnUse" stroke-dasharray="0,0"><path id="SvgjsPath1076" d="M0,0 L13,4.5 L0,9 L0,0" fill="#323232" stroke="#323232" stroke-width="1"></path></marker><marker id="SvgjsMarker1083" markerWidth="13" markerHeight="9" refX="9.5" refY="4.5" viewBox="0 0 13 9" orient="auto" markerUnits="userSpaceOnUse" stroke-dasharray="0,0"><path id="SvgjsPath1084" d="M0,0 L13,4.5 L0,9 L0,0" fill="#323232" stroke="#323232" stroke-width="1"></path></marker><marker id="SvgjsMarker1091" markerWidth="13" markerHeight="9" refX="9.5" refY="4.5" viewBox="0 0 13 9" orient="auto" markerUnits="userSpaceOnUse" stroke-dasharray="0,0"><path id="SvgjsPath1092" d="M0,0 L13,4.5 L0,9 L0,0" fill="#323232" stroke="#323232" stroke-width="1"></path></marker><marker id="SvgjsMarker1099" markerWidth="13" markerHeight="9" refX="3.5" refY="4.5" viewBox="0 0 13 9" orient="auto" markerUnits="userSpaceOnUse" stroke-dasharray="0,0"><path id="SvgjsPath1100" d="M13,0 L0,4.5 L13,9 L13,0" fill="#323232" stroke="#323232" stroke-width="1"></path></marker><marker id="SvgjsMarker1107" markerWidth="13" markerHeight="9" refX="9.5" refY="4.5" viewBox="0 0 13 9" orient="auto" markerUnits="userSpaceOnUse" stroke-dasharray="0,0"><path id="SvgjsPath1108" d="M0,0 L13,4.5 L0,9 L0,0" fill="#323232" stroke="#323232" stroke-width="1"></path></marker><marker id="SvgjsMarker1164" markerWidth="13" markerHeight="9" refX="9.5" refY="4.5" viewBox="0 0 13 9" orient="auto" markerUnits="userSpaceOnUse" stroke-dasharray="0,0"><path id="SvgjsPath1165" d="M0,0 L13,4.5 L0,9 L0,0" fill="#a7932c" stroke="#a7932c" stroke-width="1"></path></marker><marker id="SvgjsMarker1168" markerWidth="13" markerHeight="9" refX="9.5" refY="4.5" viewBox="0 0 13 9" orient="auto" markerUnits="userSpaceOnUse" stroke-dasharray="0,0"><path id="SvgjsPath1169" d="M0,0 L13,4.5 L0,9 L0,0" fill="#a7932c" stroke="#a7932c" stroke-width="1"></path></marker></defs><rect id="svgbackgroundid" width="815.047619047619" height="503.4761904761905" fill="transparent"></rect><rect id="SvgjsRect1009" width="815.047619047619" height="503.4761904761905" fill="url(#pattern_mark_0)"></rect><rect id="SvgjsRect1010" width="815.047619047619" height="503.4761904761905" fill="url(#pattern_mark_1)"></rect><g id="SvgjsG1011" transform="translate(232.04761904761904,118.47619047619048)"><path id="SvgjsPath1012" d="M 0 0L 154 0L 154 236L 0 236Z" stroke-dasharray="7.5,3" stroke="rgba(33,41,48,1)" stroke-width="1.5" fill-opacity="1" fill="#ffffff"></path><g id="SvgjsG1013"><text id="SvgjsText1014" font-family="&quot;Microsoft YaHei&quot;, 微软雅黑, Arial" text-anchor="middle" font-size="13px" width="134px" fill="#323232" font-weight="400" align="middle" lineHeight="125%" anchor="middle" family="&quot;Microsoft YaHei&quot;, 微软雅黑, Arial" size="13px" weight="400" font-style="" opacity="1" y="107.375" transform="rotate(0)"></text></g></g><g id="SvgjsG1015" transform="translate(259.04761904761904,146.47619047619048)"><path id="SvgjsPath1016" d="M 0 0L 100 0L 100 180L 0 180Z" stroke="rgba(33,41,48,1)" stroke-width="1.5" fill-opacity="1" fill="#ffffff"></path><g id="SvgjsG1017"><text id="SvgjsText1018" font-family="&quot;Microsoft YaHei&quot;, 微软雅黑, Arial" text-anchor="middle" font-size="13px" width="80px" fill="#323232" font-weight="400" align="top" lineHeight="125%" anchor="middle" family="&quot;Microsoft YaHei&quot;, 微软雅黑, Arial" size="13px" weight="400" font-style="" opacity="1" y="-2.625" transform="rotate(0)"><tspan id="SvgjsTspan1019" dy="16.25" x="50"><tspan id="SvgjsTspan1020" style="">内核地址空间</tspan></tspan></text></g></g><g id="SvgjsG1021" transform="translate(279.04761904761904,181.47619047619048)"><path id="SvgjsPath1022" d="M 0 10L 0 93.5C 0 115.5 60 115.5 60 93.5L 60 10C 60 -2.727272727272727 0 -2.727272727272727 0 10ZM 0 10C 0 22.5 60 22.5 60 10C 60 22.5 0 22.5 0 10" stroke="rgba(33,41,48,1)" stroke-width="1.5" fill-opacity="1" fill="#ffffff"></path><g id="SvgjsG1023"><text id="SvgjsText1024" font-family="&quot;Microsoft YaHei&quot;, 微软雅黑, Arial" text-anchor="middle" font-size="13px" width="60px" fill="#323232" font-weight="400" align="middle" lineHeight="125%" anchor="middle" family="&quot;Microsoft YaHei&quot;, 微软雅黑, Arial" size="13px" weight="400" font-style="" opacity="1" y="16.875" transform="rotate(0)"><tspan id="SvgjsTspan1025" dy="16.25" x="30"><tspan id="SvgjsTspan1026" style=""> </tspan></tspan><tspan id="SvgjsTspan1027" dy="16.25" x="30"><tspan id="SvgjsTspan1028" style=""> </tspan></tspan><tspan id="SvgjsTspan1029" dy="16.25" x="30"><tspan id="SvgjsTspan1030" style="">缓存</tspan></tspan></text></g></g><g id="SvgjsG1031" transform="translate(436.04761904761904,118.47619047619048)"><path id="SvgjsPath1032" d="M 0 0L 154 0L 154 236L 0 236Z" stroke-dasharray="7.5,3" stroke="rgba(33,41,48,1)" stroke-width="1.5" fill-opacity="1" fill="#ffffff"></path><g id="SvgjsG1033"><text id="SvgjsText1034" font-family="&quot;Microsoft YaHei&quot;, 微软雅黑, Arial" text-anchor="middle" font-size="13px" width="134px" fill="#323232" font-weight="400" align="middle" lineHeight="125%" anchor="middle" family="&quot;Microsoft YaHei&quot;, 微软雅黑, Arial" size="13px" weight="400" font-style="" opacity="1" y="107.375" transform="rotate(0)"></text></g></g><g id="SvgjsG1035" transform="translate(463.04761904761904,146.47619047619048)"><path id="SvgjsPath1036" d="M 0 0L 100 0L 100 180L 0 180Z" stroke="rgba(33,41,48,1)" stroke-width="1.5" fill-opacity="1" fill="#ffffff"></path><g id="SvgjsG1037"><text id="SvgjsText1038" font-family="&quot;Microsoft YaHei&quot;, 微软雅黑, Arial" text-anchor="middle" font-size="13px" width="80px" fill="#323232" font-weight="400" align="top" lineHeight="125%" anchor="middle" family="&quot;Microsoft YaHei&quot;, 微软雅黑, Arial" size="13px" weight="400" font-style="" opacity="1" y="-2.625" transform="rotate(0)"><tspan id="SvgjsTspan1039" dy="16.25" x="50"><tspan id="SvgjsTspan1040" style="">用户地址空间</tspan></tspan></text></g></g><g id="SvgjsG1041" transform="translate(483.04761904761904,181.47619047619048)"><path id="SvgjsPath1042" d="M 0 10L 0 93.5C 0 115.5 60 115.5 60 93.5L 60 10C 60 -2.727272727272727 0 -2.727272727272727 0 10ZM 0 10C 0 22.5 60 22.5 60 10C 60 22.5 0 22.5 0 10" stroke="rgba(33,41,48,1)" stroke-width="1.5" fill-opacity="1" fill="#ffffff"></path><g id="SvgjsG1043"><text id="SvgjsText1044" font-family="&quot;Microsoft YaHei&quot;, 微软雅黑, Arial" text-anchor="middle" font-size="13px" width="60px" fill="#323232" font-weight="400" align="middle" lineHeight="125%" anchor="middle" family="&quot;Microsoft YaHei&quot;, 微软雅黑, Arial" size="13px" weight="400" font-style="" opacity="1" y="16.875" transform="rotate(0)"><tspan id="SvgjsTspan1045" dy="16.25" x="30"><tspan id="SvgjsTspan1046" style=""> </tspan></tspan><tspan id="SvgjsTspan1047" dy="16.25" x="30"><tspan id="SvgjsTspan1048" style=""> </tspan></tspan><tspan id="SvgjsTspan1049" dy="16.25" x="30"><tspan id="SvgjsTspan1050" style="">缓存</tspan></tspan></text></g></g><g id="SvgjsG1051"><path id="SvgjsPath1052" d="M410.9761904761905 66.47619047619048L410.9761904761905 141.47619047619048L410.9761904761905 141.47619047619048L410.9761904761905 215.72619047619048" stroke="#323232" stroke-width="3" fill="none"></path></g><g id="SvgjsG1053" transform="translate(667.047619047619,201.47619047619048)"><path id="SvgjsPath1054" d="M 0 0L 100 0L 100 70L 0 70Z" stroke="rgba(33,41,48,1)" stroke-width="1.5" fill-opacity="1" fill="#ffffff"></path><g id="SvgjsG1055"><text id="SvgjsText1056" font-family="&quot;Microsoft YaHei&quot;, 微软雅黑, Arial" text-anchor="middle" font-size="13px" width="80px" fill="#323232" font-weight="400" align="middle" lineHeight="125%" anchor="middle" family="&quot;Microsoft YaHei&quot;, 微软雅黑, Arial" size="13px" weight="400" font-style="" opacity="1" y="24.375" transform="rotate(0)"><tspan id="SvgjsTspan1057" dy="16.25" x="50"><tspan id="SvgjsTspan1058" style="">应用程序</tspan></tspan></text></g></g><g id="SvgjsG1059" transform="translate(55.04761904761904,201.47619047619048)"><path id="SvgjsPath1060" d="M 16.666666666666668 0L 100 0C 83.33333333333333 0 83.33333333333333 70 100 70L 16.666666666666668 70C -5.882352941176471 70 -5.882352941176471 0 14.285714285714286 0Z" stroke="rgba(33,41,48,1)" stroke-width="1.5" fill-opacity="1" fill="#ffffff"></path><g id="SvgjsG1061"><text id="SvgjsText1062" font-family="&quot;Microsoft YaHei&quot;, 微软雅黑, Arial" text-anchor="middle" font-size="13px" width="75px" fill="#323232" font-weight="400" align="middle" lineHeight="125%" anchor="middle" family="&quot;Microsoft YaHei&quot;, 微软雅黑, Arial" size="13px" weight="400" font-style="" opacity="1" y="24.375" transform="rotate(0)"><tspan id="SvgjsTspan1063" dy="16.25" x="47.5"><tspan id="SvgjsTspan1064" style="">物理磁盘</tspan></tspan></text></g></g><g id="SvgjsG1065"><path id="SvgjsPath1066" d="M339.79761904761904 203.47619047619048L411.04761904761904 203.47619047619048L411.04761904761904 203.47619047619048L480.34761904761905 203.47619047619048" stroke="#323232" stroke-width="1.5" fill="none" marker-end="url(#SvgjsMarker1067)"></path><rect id="SvgjsRect1069" width="27" height="18" x="370.44473443223444" y="194.47619047619048" fill="#ffffff"></rect><text id="SvgjsText1070" font-family="&quot;Microsoft YaHei&quot;, 微软雅黑, Arial" text-anchor="middle" font-size="13px" width="27px" fill="#323232" font-weight="400" align="top" lineHeight="16px" anchor="middle" family="&quot;Microsoft YaHei&quot;, 微软雅黑, Arial" size="13px" weight="400" font-style="" opacity="1" y="191.85119047619048" transform="rotate(0)"><tspan id="SvgjsTspan1071" dy="16.25" x="383.94473443223444"><tspan id="SvgjsTspan1072" style="">copy</tspan></tspan></text></g><g id="SvgjsG1073"><path id="SvgjsPath1074" d="M483.296857523401 269.3889284440041L411.54723828551005 269.3889284440041L411.54723828551005 269.3889284440041L341.747619047619 269.3889284440041" stroke="#323232" stroke-width="1.5" fill="none" marker-end="url(#SvgjsMarker1075)"></path><rect id="SvgjsRect1077" width="27" height="18" x="423.4653256921582" y="260.38892844400414" fill="#ffffff"></rect><text id="SvgjsText1078" font-family="&quot;Microsoft YaHei&quot;, 微软雅黑, Arial" text-anchor="middle" font-size="13px" width="27px" fill="#323232" font-weight="400" align="top" lineHeight="16px" anchor="middle" family="&quot;Microsoft YaHei&quot;, 微软雅黑, Arial" size="13px" weight="400" font-style="" opacity="1" y="257.76392844400414" transform="rotate(0)"><tspan id="SvgjsTspan1079" dy="16.25" x="436.9653256921582"><tspan id="SvgjsTspan1080" style="">copy</tspan></tspan></text></g><g id="SvgjsG1081"><path id="SvgjsPath1082" d="M543.797619047619 202.47619047619048L605.3956671437754 202.47619047619048L605.3956671437754 202.47619047619048L665.0437152399319 202.47619047619048" stroke="#323232" stroke-width="1.5" fill="none" marker-end="url(#SvgjsMarker1083)"></path><rect id="SvgjsRect1085" width="35" height="18" x="585.8343003293929" y="193.47619047619048" fill="#ffffff"></rect><text id="SvgjsText1086" font-family="&quot;Microsoft YaHei&quot;, 微软雅黑, Arial" text-anchor="middle" font-size="13px" width="35px" fill="#323232" font-weight="400" align="top" lineHeight="16px" anchor="middle" family="&quot;Microsoft YaHei&quot;, 微软雅黑, Arial" size="13px" weight="400" font-style="" opacity="1" y="190.85119047619048" transform="rotate(0)"><tspan id="SvgjsTspan1087" dy="16.25" x="603.3343003293929"><tspan id="SvgjsTspan1088" style="">read()</tspan></tspan></text></g><g id="SvgjsG1089"><path id="SvgjsPath1090" d="M667.1942210028682 267.3404606689056L667.1942210028682 271.37149198608296L544.7494465665618 271.37149198608296" stroke="#323232" stroke-width="1.5" fill="none" marker-end="url(#SvgjsMarker1091)"></path><rect id="SvgjsRect1093" width="36" height="18" x="588.0747897447782" y="262.37149198608296" fill="#ffffff"></rect><text id="SvgjsText1094" font-family="&quot;Microsoft YaHei&quot;, 微软雅黑, Arial" text-anchor="middle" font-size="13px" width="36px" fill="#323232" font-weight="400" align="top" lineHeight="16px" anchor="middle" family="&quot;Microsoft YaHei&quot;, 微软雅黑, Arial" size="13px" weight="400" font-style="" opacity="1" y="259.74649198608296" transform="rotate(0)"><tspan id="SvgjsTspan1095" dy="16.25" x="606.0747897447782"><tspan id="SvgjsTspan1096" style="">write()</tspan></tspan></text></g><g id="SvgjsG1097"><path id="SvgjsPath1098" d="M276.8860805860806 202.78388278388277L217.3168498168498 202.78388278388277L217.3168498168498 202.78388278388277L155.04761904761904 202.78388278388277" stroke="#323232" stroke-width="1.5" fill="none" marker-start="url(#SvgjsMarker1099)"></path><rect id="SvgjsRect1101" width="35" height="18" x="194.7417084665386" y="193.78388278388277" fill="#ffffff"></rect><text id="SvgjsText1102" font-family="&quot;Microsoft YaHei&quot;, 微软雅黑, Arial" text-anchor="middle" font-size="13px" width="35px" fill="#323232" font-weight="400" align="top" lineHeight="16px" anchor="middle" family="&quot;Microsoft YaHei&quot;, 微软雅黑, Arial" size="13px" weight="400" font-style="" opacity="1" y="191.15888278388277" transform="rotate(0)"><tspan id="SvgjsTspan1103" dy="16.25" x="212.2417084665386"><tspan id="SvgjsTspan1104" style="">read()</tspan></tspan></text></g><g id="SvgjsG1105"><path id="SvgjsPath1106" d="M278.37393295156124 269.6720602102572L217.08577599959014 269.6720602102572L217.08577599959014 269.6720602102572L155.04761904761904 269.6720602102572" stroke="#323232" stroke-width="1.5" fill="none" marker-end="url(#SvgjsMarker1107)"></path><rect id="SvgjsRect1109" width="36" height="18" x="198.2141010784561" y="260.6720602102572" fill="#ffffff"></rect><text id="SvgjsText1110" font-family="&quot;Microsoft YaHei&quot;, 微软雅黑, Arial" text-anchor="middle" font-size="13px" width="36px" fill="#323232" font-weight="400" align="top" lineHeight="16px" anchor="middle" family="&quot;Microsoft YaHei&quot;, 微软雅黑, Arial" size="13px" weight="400" font-style="" opacity="1" y="258.0470602102572" transform="rotate(0)"><tspan id="SvgjsTspan1111" dy="16.25" x="216.2141010784561"><tspan id="SvgjsTspan1112" style="">write()</tspan></tspan></text></g><g id="SvgjsG1113" transform="translate(345.95238095238096,25)"><path id="SvgjsPath1114" d="M 0 0L 130.0476190476191 0L 130.0476190476191 40L 0 40Z" stroke="none" fill="none"></path><g id="SvgjsG1115"><text id="SvgjsText1116" font-family="&quot;Microsoft YaHei&quot;, 微软雅黑, Arial" text-anchor="middle" font-size="20px" width="131px" fill="#323232" font-weight="400" align="middle" lineHeight="125%" anchor="middle" family="&quot;Microsoft YaHei&quot;, 微软雅黑, Arial" size="20px" weight="400" font-style="" opacity="1" y="2" transform="rotate(0)"><tspan id="SvgjsTspan1117" dy="25" x="65.5"><tspan id="SvgjsTspan1118" style="font-weight: bold;">直接缓冲区</tspan></tspan></text></g></g><g id="SvgjsG1119" transform="translate(660,108.47619047619048)"><path id="SvgjsPath1120" d="M 0 0L 130.0476190476191 0L 130.0476190476191 40L 0 40Z" stroke="none" fill="none"></path><g id="SvgjsG1121"><text id="SvgjsText1122" font-family="&quot;Microsoft YaHei&quot;, 微软雅黑, Arial" text-anchor="middle" font-size="20px" width="131px" fill="#323232" font-weight="400" align="middle" lineHeight="125%" anchor="middle" family="&quot;Microsoft YaHei&quot;, 微软雅黑, Arial" size="20px" weight="400" font-style="" opacity="1" y="2" transform="rotate(0)"><tspan id="SvgjsTspan1123" dy="25" x="65.5"><tspan id="SvgjsTspan1124" style="font-weight: bold;fill: rgb(167, 147, 44);">JVM</tspan></tspan></text></g></g><g id="SvgjsG1125" transform="translate(25,118.47619047619048)"><path id="SvgjsPath1126" d="M 0 0L 130.0476190476191 0L 130.0476190476191 40L 0 40Z" stroke="none" fill="none"></path><g id="SvgjsG1127"><text id="SvgjsText1128" font-family="&quot;Microsoft YaHei&quot;, 微软雅黑, Arial" text-anchor="middle" font-size="20px" width="131px" fill="#323232" font-weight="400" align="middle" lineHeight="125%" anchor="middle" family="&quot;Microsoft YaHei&quot;, 微软雅黑, Arial" size="20px" weight="400" font-style="" opacity="1" y="2" transform="rotate(0)"><tspan id="SvgjsTspan1129" dy="25" x="65.5"><tspan id="SvgjsTspan1130" style="font-weight: bold;fill: rgb(167, 147, 44);">OS</tspan></tspan></text></g></g><g id="SvgjsG1131" transform="translate(363.04761904761904,417.95238095238096)"><path id="SvgjsPath1132" d="M 0 3.293333333333333C 0 -0.9409523809523808 100 -0.9409523809523808 100 3.293333333333333L 100 20.230476190476185C 100 24.4647619047619 0 24.4647619047619 0 20.230476190476185L 0 3.293333333333333Z" stroke="rgba(167,147,44,1)" stroke-width="1.5" fill-opacity="1" fill="#ffffff"></path><path id="SvgjsPath1133" d="M 100 3.293333333333333C 100 7.057142857142855 0 7.057142857142855 0 3.293333333333333C 0 -0.9409523809523808 100 -0.9409523809523808 100 3.293333333333333Z" stroke="rgba(167,147,44,1)" stroke-width="1.5" fill-opacity="1" fill="#ffffff"></path><path id="SvgjsPath1134" d="M 0 2.352380952380952Q 50 -2.352380952380952 100 2.352380952380952L 100 21.171428571428567Q 50 25.876190476190473 0 21.171428571428567L 0 2.352380952380952Z" stroke="none" fill="none"></path><g id="SvgjsG1135"><text id="SvgjsText1136" font-family="&quot;Microsoft YaHei&quot;, 微软雅黑, Arial" text-anchor="middle" font-size="13px" width="100px" fill="#323232" font-weight="400" align="middle" lineHeight="125%" anchor="middle" family="&quot;Microsoft YaHei&quot;, 微软雅黑, Arial" size="13px" weight="400" font-style="" opacity="1" y="2.7835714285714257" transform="rotate(0)"></text></g></g><g id="SvgjsG1137" transform="translate(390.9761904761905,216.47619047619048)"><path id="SvgjsPath1138" d="M 0 20C 0 -6.666666666666667 40 -6.666666666666667 40 20C 40 46.666666666666664 0 46.666666666666664 0 20Z" stroke="rgba(33,41,48,1)" stroke-width="1.5" fill-opacity="1" fill="#ffffff"></path><path id="SvgjsPath1139" d="M 3 20C 3 -2.666666666666667 37 -2.666666666666667 37 20C 37 42.666666666666664 3 42.666666666666664 3 20" stroke="rgba(33,41,48,1)" stroke-width="1.5" fill-opacity="1" fill="#ffffff"></path><path id="SvgjsPath1140" d="M 20 20M 20 16L 26.4 10L 30 13.6L 24 20L 30 26.4L 26.4 30L 20 24L 13.6 30L 10 26.4L 16 20L 10 13.6L 13.6 10L 20 16Z" stroke="rgba(33,41,48,1)" stroke-width="1.5" fill-opacity="1" fill="#ffffff"></path><path id="SvgjsPath1141" d="M 0 20C 0 -6.666666666666667 40 -6.666666666666667 40 20C 40 46.666666666666664 0 46.666666666666664 0 20Z" stroke="none" fill="none"></path><g id="SvgjsG1142"><text id="SvgjsText1143" font-family="&quot;Microsoft YaHei&quot;, 微软雅黑, Arial" text-anchor="middle" font-size="13px" width="120px" fill="#323232" font-weight="400" align="middle" lineHeight="125%" anchor="middle" family="&quot;Microsoft YaHei&quot;, 微软雅黑, Arial" size="13px" weight="400" font-style="" opacity="1" y="44.375" transform="rotate(0)"></text></g></g><g id="SvgjsG1144"><path id="SvgjsPath1145" d="M410.9761904761905 257.2261904761905L410.9761904761905 331.4761904761905L410.9761904761905 331.4761904761905L410.9761904761905 406.4761904761905" stroke="#323232" stroke-width="3" fill="none"></path></g><g id="SvgjsG1146"><path id="SvgjsPath1147" d="M460.6319096328239 419.5854943416162L338.6655985609191 279.55693015355" stroke="#323232" stroke-width="1.5" fill="none"></path></g><g id="SvgjsG1148"><path id="SvgjsPath1149" d="M363.09800501963053 419.8887303938476L280.702510455572 278.8294971127694" stroke="#323232" stroke-width="1.5" fill="none"></path></g><g id="SvgjsG1150"><path id="SvgjsPath1151" d="M365.99090110980063 420.0524827799313L483.36561839678734 279.4501261637245" stroke="#323232" stroke-width="1.5" fill="none"></path></g><g id="SvgjsG1152"><path id="SvgjsPath1153" d="M459.86556172058437 419.3803422036189L542.6581744725474 283.11715297349224" stroke="#323232" stroke-width="1.5" fill="none"></path></g><g id="SvgjsG1154" transform="translate(359.04761904761904,438.4761904761905)"><path id="SvgjsPath1155" d="M 0 0L 100 0L 100 40L 0 40Z" stroke="none" fill="none"></path><g id="SvgjsG1156"><text id="SvgjsText1157" font-family="&quot;Microsoft YaHei&quot;, 微软雅黑, Arial" text-anchor="middle" font-size="13px" width="100px" fill="#323232" font-weight="400" align="middle" lineHeight="125%" anchor="middle" family="&quot;Microsoft YaHei&quot;, 微软雅黑, Arial" size="13px" weight="400" font-style="" opacity="1" y="0.875" transform="rotate(0)"><tspan id="SvgjsTspan1158" dy="16.25" x="50"><tspan id="SvgjsTspan1159" style="">物理内存</tspan></tspan><tspan id="SvgjsTspan1160" dy="16.25" x="50"><tspan id="SvgjsTspan1161" style="">映射文件</tspan></tspan></text></g></g><g id="SvgjsG1162"><path id="SvgjsPath1163" d="M362.29761904761904 429.7142857142857L105.04761904761904 429.7142857142857L105.04761904761904 274.17619047619047" stroke="#a7932c" stroke-width="1.5" fill="none" marker-end="url(#SvgjsMarker1164)"></path></g><g id="SvgjsG1166"><path id="SvgjsPath1167" d="M463.79761904761904 429.7142857142857L717.047619047619 429.7142857142857L717.047619047619 274.17619047619047" stroke="#a7932c" stroke-width="1.5" fill="none" marker-end="url(#SvgjsMarker1168)"></path></g><g id="SvgjsG1170"></g></svg>