<svg id="SvgjsSvg1006" width="720" height="505" xmlns="http://www.w3.org/2000/svg" version="1.1" xmlns:xlink="http://www.w3.org/1999/xlink" xmlns:svgjs="http://svgjs.com/svgjs"><defs id="SvgjsDefs1007"><pattern patternUnits="userSpaceOnUse" id="pattern_mark_0" width="300" height="300"><text x="150" y="100" fill="rgba(229,229,229,0.8)" font-size="18" transform="rotate(-45, 150, 150)" style="dominant-baseline: middle; text-anchor: middle;"></text></pattern><pattern patternUnits="userSpaceOnUse" id="pattern_mark_1" width="300" height="300"><text x="150" y="200" fill="rgba(229,229,229,0.8)" font-size="18" transform="rotate(-45, 150, 150)" style="dominant-baseline: middle; text-anchor: middle;"></text></pattern><marker id="SvgjsMarker1117" markerWidth="13" markerHeight="9" refX="9.5" refY="4.5" viewBox="0 0 13 9" orient="auto" markerUnits="userSpaceOnUse" stroke-dasharray="0,0"><path id="SvgjsPath1118" d="M0,0 L13,4.5 L0,9 L0,0" fill="#323232" stroke="#323232" stroke-width="1"></path></marker><marker id="SvgjsMarker1121" markerWidth="13" markerHeight="9" refX="9.5" refY="4.5" viewBox="0 0 13 9" orient="auto" markerUnits="userSpaceOnUse" stroke-dasharray="0,0"><path id="SvgjsPath1122" d="M0,0 L13,4.5 L0,9 L0,0" fill="#323232" stroke="#323232" stroke-width="1"></path></marker><marker id="SvgjsMarker1125" markerWidth="13" markerHeight="9" refX="9.5" refY="4.5" viewBox="0 0 13 9" orient="auto" markerUnits="userSpaceOnUse" stroke-dasharray="0,0"><path id="SvgjsPath1126" d="M0,0 L13,4.5 L0,9 L0,0" fill="#323232" stroke="#323232" stroke-width="1"></path></marker><marker id="SvgjsMarker1129" markerWidth="13" markerHeight="9" refX="9.5" refY="4.5" viewBox="0 0 13 9" orient="auto" markerUnits="userSpaceOnUse" stroke-dasharray="0,0"><path id="SvgjsPath1130" d="M0,0 L13,4.5 L0,9 L0,0" fill="#323232" stroke="#323232" stroke-width="1"></path></marker><marker id="SvgjsMarker1133" markerWidth="13" markerHeight="9" refX="9.5" refY="4.5" viewBox="0 0 13 9" orient="auto" markerUnits="userSpaceOnUse" stroke-dasharray="0,0"><path id="SvgjsPath1134" d="M0,0 L13,4.5 L0,9 L0,0" fill="#323232" stroke="#323232" stroke-width="1"></path></marker><marker id="SvgjsMarker1137" markerWidth="13" markerHeight="9" refX="9.5" refY="4.5" viewBox="0 0 13 9" orient="auto" markerUnits="userSpaceOnUse" stroke-dasharray="0,0"><path id="SvgjsPath1138" d="M0,0 L13,4.5 L0,9 L0,0" fill="#323232" stroke="#323232" stroke-width="1"></path></marker><marker id="SvgjsMarker1141" markerWidth="13" markerHeight="9" refX="9.5" refY="4.5" viewBox="0 0 13 9" orient="auto" markerUnits="userSpaceOnUse" stroke-dasharray="0,0"><path id="SvgjsPath1142" d="M0,0 L13,4.5 L0,9 L0,0" fill="#323232" stroke="#323232" stroke-width="1"></path></marker><marker id="SvgjsMarker1145" markerWidth="13" markerHeight="9" refX="9.5" refY="4.5" viewBox="0 0 13 9" orient="auto" markerUnits="userSpaceOnUse" stroke-dasharray="0,0"><path id="SvgjsPath1146" d="M0,0 L13,4.5 L0,9 L0,0" fill="#323232" stroke="#323232" stroke-width="1"></path></marker><marker id="SvgjsMarker1149" markerWidth="13" markerHeight="9" refX="9.5" refY="4.5" viewBox="0 0 13 9" orient="auto" markerUnits="userSpaceOnUse" stroke-dasharray="0,0"><path id="SvgjsPath1150" d="M0,0 L13,4.5 L0,9 L0,0" fill="#323232" stroke="#323232" stroke-width="1"></path></marker><marker id="SvgjsMarker1153" markerWidth="13" markerHeight="9" refX="9.5" refY="4.5" viewBox="0 0 13 9" orient="auto" markerUnits="userSpaceOnUse" stroke-dasharray="0,0"><path id="SvgjsPath1154" d="M0,0 L13,4.5 L0,9 L0,0" fill="#323232" stroke="#323232" stroke-width="1"></path></marker><marker id="SvgjsMarker1157" markerWidth="13" markerHeight="9" refX="9.5" refY="4.5" viewBox="0 0 13 9" orient="auto" markerUnits="userSpaceOnUse" stroke-dasharray="0,0"><path id="SvgjsPath1158" d="M0,0 L13,4.5 L0,9 L0,0" fill="#323232" stroke="#323232" stroke-width="1"></path></marker><marker id="SvgjsMarker1161" markerWidth="13" markerHeight="9" refX="9.5" refY="4.5" viewBox="0 0 13 9" orient="auto" markerUnits="userSpaceOnUse" stroke-dasharray="0,0"><path id="SvgjsPath1162" d="M0,0 L13,4.5 L0,9 L0,0" fill="#323232" stroke="#323232" stroke-width="1"></path></marker><marker id="SvgjsMarker1165" markerWidth="13" markerHeight="9" refX="9.5" refY="4.5" viewBox="0 0 13 9" orient="auto" markerUnits="userSpaceOnUse" stroke-dasharray="0,0"><path id="SvgjsPath1166" d="M0,0 L13,4.5 L0,9 L0,0" fill="#323232" stroke="#323232" stroke-width="1"></path></marker><marker id="SvgjsMarker1169" markerWidth="13" markerHeight="9" refX="9.5" refY="4.5" viewBox="0 0 13 9" orient="auto" markerUnits="userSpaceOnUse" stroke-dasharray="0,0"><path id="SvgjsPath1170" d="M0,0 L13,4.5 L0,9 L0,0" fill="#323232" stroke="#323232" stroke-width="1"></path></marker><marker id="SvgjsMarker1173" markerWidth="13" markerHeight="9" refX="9.5" refY="4.5" viewBox="0 0 13 9" orient="auto" markerUnits="userSpaceOnUse" stroke-dasharray="0,0"><path id="SvgjsPath1174" d="M0,0 L13,4.5 L0,9 L0,0" fill="#323232" stroke="#323232" stroke-width="1"></path></marker></defs><rect id="svgbackgroundid" width="720" height="505" fill="transparent"></rect><rect id="SvgjsRect1009" width="720" height="505" fill="url(#pattern_mark_0)"></rect><rect id="SvgjsRect1010" width="720" height="505" fill="url(#pattern_mark_1)"></rect><g id="SvgjsG1011" transform="translate(25,240)"><path id="SvgjsPath1012" d="M 0 4Q 0 0 4 0L 96 0Q 100 0 100 4L 100 36Q 100 40 96 40L 4 40Q 0 40 0 36Z" stroke="none" fill-opacity="1" fill="#a8e26f"></path><g id="SvgjsG1013"><text id="SvgjsText1014" font-family="&quot;Comic Sans MS&quot;" text-anchor="middle" font-size="13px" width="80px" fill="#323232" font-weight="400" align="middle" lineHeight="125%" anchor="middle" family="&quot;Comic Sans MS&quot;" size="13px" weight="400" font-style="" opacity="1" y="9.375" transform="rotate(0)"><tspan id="SvgjsTspan1015" dy="16.25" x="50"><tspan id="SvgjsTspan1016" style="">redisObject</tspan></tspan></text></g></g><g id="SvgjsG1017" transform="translate(185,80)"><path id="SvgjsPath1018" d="M 0 4Q 0 0 4 0L 116 0Q 120 0 120 4L 120 36Q 120 40 116 40L 4 40Q 0 40 0 36Z" stroke="none" fill-opacity="1" fill="#97bce3"></path><g id="SvgjsG1019"><text id="SvgjsText1020" font-family="&quot;Comic Sans MS&quot;" text-anchor="middle" font-size="13px" width="100px" fill="#323232" font-weight="400" align="middle" lineHeight="125%" anchor="middle" family="&quot;Comic Sans MS&quot;" size="13px" weight="400" font-style="" opacity="1" y="-7.125" transform="rotate(0)"><tspan id="SvgjsTspan1021" dy="16.25" x="60"><tspan id="SvgjsTspan1022" style="">字符串</tspan></tspan><tspan id="SvgjsTspan1023" dy="16.25" x="60"><tspan id="SvgjsTspan1024" style="">REDIS_STRIN</tspan></tspan><tspan id="SvgjsTspan1025" dy="16.25" x="60"><tspan id="SvgjsTspan1026" style="">G</tspan></tspan></text></g></g><g id="SvgjsG1027" transform="translate(185,400)"><path id="SvgjsPath1028" d="M 0 4Q 0 0 4 0L 116 0Q 120 0 120 4L 120 36Q 120 40 116 40L 4 40Q 0 40 0 36Z" stroke="none" fill-opacity="1" fill="#97bce3"></path><g id="SvgjsG1029"><text id="SvgjsText1030" font-family="&quot;Comic Sans MS&quot;" text-anchor="middle" font-size="13px" width="100px" fill="#323232" font-weight="400" align="middle" lineHeight="125%" anchor="middle" family="&quot;Comic Sans MS&quot;" size="13px" weight="400" font-style="" opacity="1" y="0.875" transform="rotate(0)"><tspan id="SvgjsTspan1031" dy="16.25" x="60"><tspan id="SvgjsTspan1032" style="">集合</tspan></tspan><tspan id="SvgjsTspan1033" dy="16.25" x="60"><tspan id="SvgjsTspan1034" style="">REDIS_SET</tspan></tspan></text></g></g><g id="SvgjsG1035" transform="translate(185,320)"><path id="SvgjsPath1036" d="M 0 4Q 0 0 4 0L 116 0Q 120 0 120 4L 120 36Q 120 40 116 40L 4 40Q 0 40 0 36Z" stroke="none" fill-opacity="1" fill="#97bce3"></path><g id="SvgjsG1037"><text id="SvgjsText1038" font-family="&quot;Comic Sans MS&quot;" text-anchor="middle" font-size="13px" width="100px" fill="#323232" font-weight="400" align="middle" lineHeight="125%" anchor="middle" family="&quot;Comic Sans MS&quot;" size="13px" weight="400" font-style="" opacity="1" y="0.875" transform="rotate(0)"><tspan id="SvgjsTspan1039" dy="16.25" x="60"><tspan id="SvgjsTspan1040" style="">哈希表</tspan></tspan><tspan id="SvgjsTspan1041" dy="16.25" x="60"><tspan id="SvgjsTspan1042" style="">REDIS_HASH</tspan></tspan></text></g></g><g id="SvgjsG1043" transform="translate(185,160)"><path id="SvgjsPath1044" d="M 0 4Q 0 0 4 0L 116 0Q 120 0 120 4L 120 36Q 120 40 116 40L 4 40Q 0 40 0 36Z" stroke="none" fill-opacity="1" fill="#97bce3"></path><g id="SvgjsG1045"><text id="SvgjsText1046" font-family="&quot;Comic Sans MS&quot;" text-anchor="middle" font-size="13px" width="100px" fill="#323232" font-weight="400" align="middle" lineHeight="125%" anchor="middle" family="&quot;Comic Sans MS&quot;" size="13px" weight="400" font-style="" opacity="1" y="0.875" transform="rotate(0)"><tspan id="SvgjsTspan1047" dy="16.25" x="60"><tspan id="SvgjsTspan1048" style="">列表</tspan></tspan><tspan id="SvgjsTspan1049" dy="16.25" x="60"><tspan id="SvgjsTspan1050" style="">REDIS_LIST</tspan></tspan></text></g></g><g id="SvgjsG1051" transform="translate(185,240)"><path id="SvgjsPath1052" d="M 0 4Q 0 0 4 0L 116 0Q 120 0 120 4L 120 36Q 120 40 116 40L 4 40Q 0 40 0 36Z" stroke="none" fill-opacity="1" fill="#97bce3"></path><g id="SvgjsG1053"><text id="SvgjsText1054" font-family="&quot;Comic Sans MS&quot;" text-anchor="middle" font-size="13px" width="100px" fill="#323232" font-weight="400" align="middle" lineHeight="125%" anchor="middle" family="&quot;Comic Sans MS&quot;" size="13px" weight="400" font-style="" opacity="1" y="0.875" transform="rotate(0)"><tspan id="SvgjsTspan1055" dy="16.25" x="60"><tspan id="SvgjsTspan1056" style="">有序集合</tspan></tspan><tspan id="SvgjsTspan1057" dy="16.25" x="60"><tspan id="SvgjsTspan1058" style="">REDIS_ZSET</tspan></tspan></text></g></g><g id="SvgjsG1059" transform="translate(455,25)"><path id="SvgjsPath1060" d="M 0 4Q 0 0 4 0L 236 0Q 240 0 240 4L 240 36Q 240 40 236 40L 4 40Q 0 40 0 36Z" stroke="none" fill-opacity="1" fill="#f9dcae"></path><g id="SvgjsG1061"><text id="SvgjsText1062" font-family="&quot;Comic Sans MS&quot;" text-anchor="middle" font-size="13px" width="220px" fill="#323232" font-weight="400" align="middle" lineHeight="125%" anchor="middle" family="&quot;Comic Sans MS&quot;" size="13px" weight="400" font-style="" opacity="1" y="0.875" transform="rotate(0)"><tspan id="SvgjsTspan1063" dy="16.25" x="120"><tspan id="SvgjsTspan1064" style="">整数</tspan></tspan><tspan id="SvgjsTspan1065" dy="16.25" x="120"><tspan id="SvgjsTspan1066" style="">REDIS_ENCODING_INT</tspan></tspan></text></g></g><g id="SvgjsG1067" transform="translate(455,94.16666666666667)"><path id="SvgjsPath1068" d="M 0 4Q 0 0 4 0L 236 0Q 240 0 240 4L 240 36Q 240 40 236 40L 4 40Q 0 40 0 36Z" stroke="none" fill-opacity="1" fill="#f9dcae"></path><g id="SvgjsG1069"><text id="SvgjsText1070" font-family="&quot;Comic Sans MS&quot;" text-anchor="middle" font-size="13px" width="220px" fill="#323232" font-weight="400" align="middle" lineHeight="125%" anchor="middle" family="&quot;Comic Sans MS&quot;" size="13px" weight="400" font-style="" opacity="1" y="0.875" transform="rotate(0)"><tspan id="SvgjsTspan1071" dy="16.25" x="120"><tspan id="SvgjsTspan1072" style="">字符串</tspan></tspan><tspan id="SvgjsTspan1073" dy="16.25" x="120"><tspan id="SvgjsTspan1074" style="">REDIS_ENCODING_RAW</tspan></tspan></text></g></g><g id="SvgjsG1075" transform="translate(455,163.33333333333334)"><path id="SvgjsPath1076" d="M 0 4Q 0 0 4 0L 236 0Q 240 0 240 4L 240 36Q 240 40 236 40L 4 40Q 0 40 0 36Z" stroke="none" fill-opacity="1" fill="#f9dcae"></path><g id="SvgjsG1077"><text id="SvgjsText1078" font-family="&quot;Comic Sans MS&quot;" text-anchor="middle" font-size="13px" width="220px" fill="#323232" font-weight="400" align="middle" lineHeight="125%" anchor="middle" family="&quot;Comic Sans MS&quot;" size="13px" weight="400" font-style="" opacity="1" y="0.875" transform="rotate(0)"><tspan id="SvgjsTspan1079" dy="16.25" x="120"><tspan id="SvgjsTspan1080" style="">双端链表</tspan></tspan><tspan id="SvgjsTspan1081" dy="16.25" x="120"><tspan id="SvgjsTspan1082" style="">REDIS_ENCODING_LINKEDLIST</tspan></tspan></text></g></g><g id="SvgjsG1083" transform="translate(455,301.6666666666667)"><path id="SvgjsPath1084" d="M 0 4Q 0 0 4 0L 236 0Q 240 0 240 4L 240 36Q 240 40 236 40L 4 40Q 0 40 0 36Z" stroke="none" fill-opacity="1" fill="#f9dcae"></path><g id="SvgjsG1085"><text id="SvgjsText1086" font-family="&quot;Comic Sans MS&quot;" text-anchor="middle" font-size="13px" width="220px" fill="#323232" font-weight="400" align="middle" lineHeight="125%" anchor="middle" family="&quot;Comic Sans MS&quot;" size="13px" weight="400" font-style="" opacity="1" y="0.875" transform="rotate(0)"><tspan id="SvgjsTspan1087" dy="16.25" x="120"><tspan id="SvgjsTspan1088" style="">压缩列表</tspan></tspan><tspan id="SvgjsTspan1089" dy="16.25" x="120"><tspan id="SvgjsTspan1090" style="">REDIS_ENCODING_ZIPLIST</tspan></tspan></text></g></g><g id="SvgjsG1091" transform="translate(455,440)"><path id="SvgjsPath1092" d="M 0 4Q 0 0 4 0L 236 0Q 240 0 240 4L 240 36Q 240 40 236 40L 4 40Q 0 40 0 36Z" stroke="none" fill-opacity="1" fill="#f9dcae"></path><g id="SvgjsG1093"><text id="SvgjsText1094" font-family="&quot;Comic Sans MS&quot;" text-anchor="middle" font-size="13px" width="220px" fill="#323232" font-weight="400" align="middle" lineHeight="125%" anchor="middle" family="&quot;Comic Sans MS&quot;" size="13px" weight="400" font-style="" opacity="1" y="0.875" transform="rotate(0)"><tspan id="SvgjsTspan1095" dy="16.25" x="120"><tspan id="SvgjsTspan1096" style="">整数集合</tspan></tspan><tspan id="SvgjsTspan1097" dy="16.25" x="120"><tspan id="SvgjsTspan1098" style="">REDIS_ENCODING_INTSET</tspan></tspan></text></g></g><g id="SvgjsG1099" transform="translate(455,370.83333333333337)"><path id="SvgjsPath1100" d="M 0 4Q 0 0 4 0L 236 0Q 240 0 240 4L 240 36Q 240 40 236 40L 4 40Q 0 40 0 36Z" stroke="none" fill-opacity="1" fill="#f9dcae"></path><g id="SvgjsG1101"><text id="SvgjsText1102" font-family="&quot;Comic Sans MS&quot;" text-anchor="middle" font-size="13px" width="220px" fill="#323232" font-weight="400" align="middle" lineHeight="125%" anchor="middle" family="&quot;Comic Sans MS&quot;" size="13px" weight="400" font-style="" opacity="1" y="0.875" transform="rotate(0)"><tspan id="SvgjsTspan1103" dy="16.25" x="120"><tspan id="SvgjsTspan1104" style="">字典</tspan></tspan><tspan id="SvgjsTspan1105" dy="16.25" x="120"><tspan id="SvgjsTspan1106" style="">REDIS_ENCODING_HT</tspan></tspan></text></g></g><g id="SvgjsG1107" transform="translate(455,232.5)"><path id="SvgjsPath1108" d="M 0 4Q 0 0 4 0L 236 0Q 240 0 240 4L 240 36Q 240 40 236 40L 4 40Q 0 40 0 36Z" stroke="none" fill-opacity="1" fill="#f9dcae"></path><g id="SvgjsG1109"><text id="SvgjsText1110" font-family="&quot;Comic Sans MS&quot;" text-anchor="middle" font-size="13px" width="220px" fill="#323232" font-weight="400" align="middle" lineHeight="125%" anchor="middle" family="&quot;Comic Sans MS&quot;" size="13px" weight="400" font-style="" opacity="1" y="0.875" transform="rotate(0)"><tspan id="SvgjsTspan1111" dy="16.25" x="120"><tspan id="SvgjsTspan1112" style="">跳跃表</tspan></tspan><tspan id="SvgjsTspan1113" dy="16.25" x="120"><tspan id="SvgjsTspan1114" style="">REDIS_ENCODING_SKIPLIST</tspan></tspan></text></g></g><g id="SvgjsG1115"><path id="SvgjsPath1116" d="M125 260C 193.35202996254026 259.99999999999994 116.64797003745974 100 183.0817286956788 100.35033584318171" stroke="#323232" stroke-width="1.5" fill="none" marker-end="url(#SvgjsMarker1117)"></path></g><g id="SvgjsG1119"><path id="SvgjsPath1120" d="M125 260C 149 260 161 260 183.05 260" stroke="#323232" stroke-width="1.5" fill="none" marker-end="url(#SvgjsMarker1121)"></path></g><g id="SvgjsG1123"><path id="SvgjsPath1124" d="M125 260C 165 259.99999999999994 145 180 183.1148853615146 180.49884145754743" stroke="#323232" stroke-width="1.5" fill="none" marker-end="url(#SvgjsMarker1125)"></path></g><g id="SvgjsG1127"><path id="SvgjsPath1128" d="M125 260C 165 259.99999999999994 145 340 183.1148853615146 339.5011585424526" stroke="#323232" stroke-width="1.5" fill="none" marker-end="url(#SvgjsMarker1129)"></path></g><g id="SvgjsG1131"><path id="SvgjsPath1132" d="M125 260C 193.35202996254026 259.99999999999994 116.64797003745974 420 183.0817286956788 419.6496641568183" stroke="#323232" stroke-width="1.5" fill="none" marker-end="url(#SvgjsMarker1133)"></path></g><g id="SvgjsG1135"><path id="SvgjsPath1136" d="M305 100C 368.90618123468187 99.99999999999994 391.09381876531813 45 453.0540318244092 45.12533100010644" stroke="#323232" stroke-width="1.5" fill="none" marker-end="url(#SvgjsMarker1137)"></path></g><g id="SvgjsG1139"><path id="SvgjsPath1140" d="M305 100C 365.26699852416004 99.99999999999994 394.73300147583996 114.16666666666669 453.0503313944423 114.13071769584761" stroke="#323232" stroke-width="1.5" fill="none" marker-end="url(#SvgjsMarker1141)"></path></g><g id="SvgjsG1143"><path id="SvgjsPath1144" d="M305 180C 365.0148129862768 179.99999999999994 394.9851870137232 183.33333333333334 453.05001862835354 183.32480982279486" stroke="#323232" stroke-width="1.5" fill="none" marker-end="url(#SvgjsMarker1145)"></path></g><g id="SvgjsG1147"><path id="SvgjsPath1148" d="M305 180C 387.529456020933 179.99999999999991 372.470543979067 321.6666666666667 453.06021457478903 321.4673365281046" stroke="#323232" stroke-width="1.5" fill="none" marker-end="url(#SvgjsMarker1149)"></path></g><g id="SvgjsG1151"><path id="SvgjsPath1152" d="M305 260C 365.0749531835024 259.99999999999994 394.9250468164976 252.5 453.05009396409446 252.51914291354876" stroke="#323232" stroke-width="1.5" fill="none" marker-end="url(#SvgjsMarker1153)"></path></g><g id="SvgjsG1155"><path id="SvgjsPath1156" d="M305 260C 369.87252457276844 259.99999999999994 390.12747542723156 321.6666666666667 453.0547959442596 321.52998754781186" stroke="#323232" stroke-width="1.5" fill="none" marker-end="url(#SvgjsMarker1157)"></path></g><g id="SvgjsG1159"><path id="SvgjsPath1160" d="M305 340C 365.4464868935969 339.99999999999994 394.5535131064031 321.6666666666667 453.05054903902874 321.7129370758743" stroke="#323232" stroke-width="1.5" fill="none" marker-end="url(#SvgjsMarker1161)"></path></g><g id="SvgjsG1163"><path id="SvgjsPath1164" d="M305 340C 368.3517517077819 339.99999999999994 391.6482482922181 390.83333333333337 453.0535561064379 390.71562110281076" stroke="#323232" stroke-width="1.5" fill="none" marker-end="url(#SvgjsMarker1165)"></path></g><g id="SvgjsG1167"><path id="SvgjsPath1168" d="M305 420C 366.1237360696408 419.99999999999994 393.8762639303592 390.83333333333337 453.0513344295591 390.90546165355624" stroke="#323232" stroke-width="1.5" fill="none" marker-end="url(#SvgjsMarker1169)"></path></g><g id="SvgjsG1171"><path id="SvgjsPath1172" d="M305 420C 367.0966987850401 419.99999999999994 392.9033012149599 460 453.0523693137968 459.90390260066135" stroke="#323232" stroke-width="1.5" fill="none" marker-end="url(#SvgjsMarker1173)"></path></g></svg>