<svg id="SvgjsSvg1006" width="808" height="318" xmlns="http://www.w3.org/2000/svg" version="1.1" xmlns:xlink="http://www.w3.org/1999/xlink" xmlns:svgjs="http://svgjs.com/svgjs"><defs id="SvgjsDefs1007"><pattern patternUnits="userSpaceOnUse" id="pattern_mark_0" width="300" height="300"><text x="150" y="100" fill="rgba(224,226,209,0.8)" font-size="18" transform="rotate(-45, 150, 150)" style="dominant-baseline: middle; text-anchor: middle;"></text></pattern><pattern patternUnits="userSpaceOnUse" id="pattern_mark_1" width="300" height="300"><text x="150" y="200" fill="rgba(224,226,209,0.8)" font-size="18" transform="rotate(-45, 150, 150)" style="dominant-baseline: middle; text-anchor: middle;"></text></pattern></defs><rect id="svgbackgroundid" width="808" height="318" fill="#f9fce9"></rect><rect id="SvgjsRect1009" width="808" height="318" fill="url(#pattern_mark_0)"></rect><rect id="SvgjsRect1010" width="808" height="318" fill="url(#pattern_mark_1)"></rect><g id="SvgjsG1011" transform="translate(221.92151260375977,25)"><path id="SvgjsPath1012" d="M 0 0L 364.15697479248047 0L 364.15697479248047 40L 0 40Z" stroke="none" fill="none"></path><g id="SvgjsG1013"><text id="SvgjsText1014" font-family="&quot;Comic Sans MS&quot;" text-anchor="middle" font-size="20px" width="365px" fill="#323232" font-weight="700" align="middle" lineHeight="125%" anchor="middle" family="&quot;Comic Sans MS&quot;" size="20px" weight="700" font-style="" opacity="1" y="2" transform="rotate(0)"><tspan id="SvgjsTspan1015" dy="25" x="182.5"><tspan id="SvgjsTspan1016" style="">Redis7数据类型与数据结构之间的关系</tspan></tspan></text></g></g><g id="SvgjsG1017" transform="translate(25,99)"><path id="SvgjsPath1018" d="M 0 0L 96 0L 96 54L 0 54Z" stroke="rgba(33,41,48,1)" stroke-width="1.5" fill-opacity="1" fill="#79d3e1"></path><g id="SvgjsG1019"><text id="SvgjsText1020" font-family="&quot;Comic Sans MS&quot;" text-anchor="middle" font-size="14px" width="76px" fill="#323232" font-weight="700" align="middle" lineHeight="125%" anchor="middle" family="&quot;Comic Sans MS&quot;" size="14px" weight="700" font-style="" opacity="1" y="15.25" transform="rotate(0)"><tspan id="SvgjsTspan1021" dy="17.5" x="48"><tspan id="SvgjsTspan1022" style="">hash</tspan></tspan></text></g></g><g id="SvgjsG1023" transform="translate(190.5,99)"><path id="SvgjsPath1024" d="M 0 0L 96 0L 96 54L 0 54Z" stroke="rgba(33,41,48,1)" stroke-width="1.5" fill-opacity="1" fill="#79d3e1"></path><g id="SvgjsG1025"><text id="SvgjsText1026" font-family="&quot;Comic Sans MS&quot;" text-anchor="middle" font-size="14px" width="76px" fill="#323232" font-weight="700" align="middle" lineHeight="125%" anchor="middle" family="&quot;Comic Sans MS&quot;" size="14px" weight="700" font-style="" opacity="1" y="15.25" transform="rotate(0)"><tspan id="SvgjsTspan1027" dy="17.5" x="48"><tspan id="SvgjsTspan1028" style="">list</tspan></tspan></text></g></g><g id="SvgjsG1029" transform="translate(356,99)"><path id="SvgjsPath1030" d="M 0 0L 96 0L 96 54L 0 54Z" stroke="rgba(33,41,48,1)" stroke-width="1.5" fill-opacity="1" fill="#79d3e1"></path><g id="SvgjsG1031"><text id="SvgjsText1032" font-family="&quot;Comic Sans MS&quot;" text-anchor="middle" font-size="14px" width="76px" fill="#323232" font-weight="700" align="middle" lineHeight="125%" anchor="middle" family="&quot;Comic Sans MS&quot;" size="14px" weight="700" font-style="" opacity="1" y="15.25" transform="rotate(0)"><tspan id="SvgjsTspan1033" dy="17.5" x="48"><tspan id="SvgjsTspan1034" style="">sorted set</tspan></tspan></text></g></g><g id="SvgjsG1035" transform="translate(521.5,99)"><path id="SvgjsPath1036" d="M 0 0L 96 0L 96 54L 0 54Z" stroke="rgba(33,41,48,1)" stroke-width="1.5" fill-opacity="1" fill="#79d3e1"></path><g id="SvgjsG1037"><text id="SvgjsText1038" font-family="&quot;Comic Sans MS&quot;" text-anchor="middle" font-size="14px" width="76px" fill="#323232" font-weight="700" align="middle" lineHeight="125%" anchor="middle" family="&quot;Comic Sans MS&quot;" size="14px" weight="700" font-style="" opacity="1" y="15.25" transform="rotate(0)"><tspan id="SvgjsTspan1039" dy="17.5" x="48"><tspan id="SvgjsTspan1040" style="">set</tspan></tspan></text></g></g><g id="SvgjsG1041" transform="translate(687,99)"><path id="SvgjsPath1042" d="M 0 0L 96 0L 96 54L 0 54Z" stroke="rgba(33,41,48,1)" stroke-width="1.5" fill-opacity="1" fill="#79d3e1"></path><g id="SvgjsG1043"><text id="SvgjsText1044" font-family="&quot;Comic Sans MS&quot;" text-anchor="middle" font-size="14px" width="76px" fill="#323232" font-weight="700" align="middle" lineHeight="125%" anchor="middle" family="&quot;Comic Sans MS&quot;" size="14px" weight="700" font-style="" opacity="1" y="15.25" transform="rotate(0)"><tspan id="SvgjsTspan1045" dy="17.5" x="48"><tspan id="SvgjsTspan1046" style="">string</tspan></tspan></text></g></g><g id="SvgjsG1047" transform="translate(356,193)"><path id="SvgjsPath1048" d="M 0 4Q 0 0 4 0L 92 0Q 96 0 96 4L 96 26Q 96 30 92 30L 4 30Q 0 30 0 26Z" stroke="rgba(33,41,48,1)" stroke-width="1.5" fill-opacity="1" fill="#f7aaef"></path><g id="SvgjsG1049"><text id="SvgjsText1050" font-family="&quot;Comic Sans MS&quot;" text-anchor="middle" font-size="14px" width="76px" fill="#323232" font-weight="700" align="middle" lineHeight="125%" anchor="middle" family="&quot;Comic Sans MS&quot;" size="14px" weight="700" font-style="" opacity="1" y="3.25" transform="rotate(0)"><tspan id="SvgjsTspan1051" dy="17.5" x="48"><tspan id="SvgjsTspan1052" style="">跳表</tspan></tspan></text></g></g><g id="SvgjsG1053" transform="translate(521.5,193)"><path id="SvgjsPath1054" d="M 0 4Q 0 0 4 0L 92 0Q 96 0 96 4L 96 26Q 96 30 92 30L 4 30Q 0 30 0 26Z" stroke="rgba(33,41,48,1)" stroke-width="1.5" fill-opacity="1" fill="#f7aaef"></path><g id="SvgjsG1055"><text id="SvgjsText1056" font-family="&quot;Comic Sans MS&quot;" text-anchor="middle" font-size="14px" width="76px" fill="#323232" font-weight="700" align="middle" lineHeight="125%" anchor="middle" family="&quot;Comic Sans MS&quot;" size="14px" weight="700" font-style="" opacity="1" y="3.25" transform="rotate(0)"><tspan id="SvgjsTspan1057" dy="17.5" x="48"><tspan id="SvgjsTspan1058" style="">哈希表</tspan></tspan></text></g></g><g id="SvgjsG1059" transform="translate(687,193)"><path id="SvgjsPath1060" d="M 0 4Q 0 0 4 0L 92 0Q 96 0 96 4L 96 26Q 96 30 92 30L 4 30Q 0 30 0 26Z" stroke="rgba(33,41,48,1)" stroke-width="1.5" fill-opacity="1" fill="#f7aaef"></path><g id="SvgjsG1061"><text id="SvgjsText1062" font-family="&quot;Comic Sans MS&quot;" text-anchor="middle" font-size="14px" width="76px" fill="#323232" font-weight="700" align="middle" lineHeight="125%" anchor="middle" family="&quot;Comic Sans MS&quot;" size="14px" weight="700" font-style="" opacity="1" y="3.25" transform="rotate(0)"><tspan id="SvgjsTspan1063" dy="17.5" x="48"><tspan id="SvgjsTspan1064" style="">动态字符串</tspan></tspan></text></g></g><g id="SvgjsG1065" transform="translate(190.5,193)"><path id="SvgjsPath1066" d="M 0 4Q 0 0 4 0L 92 0Q 96 0 96 4L 96 26Q 96 30 92 30L 4 30Q 0 30 0 26Z" stroke="rgba(33,41,48,1)" stroke-width="1.5" fill-opacity="1" fill="#f7aaef"></path><g id="SvgjsG1067"><text id="SvgjsText1068" font-family="&quot;Comic Sans MS&quot;" text-anchor="middle" font-size="14px" width="76px" fill="#323232" font-weight="700" align="middle" lineHeight="125%" anchor="middle" family="&quot;Comic Sans MS&quot;" size="14px" weight="700" font-style="" opacity="1" y="3.25" transform="rotate(0)"><tspan id="SvgjsTspan1069" dy="17.5" x="48"><tspan id="SvgjsTspan1070" style="">quicklist</tspan></tspan></text></g></g><g id="SvgjsG1071" transform="translate(25,193)"><path id="SvgjsPath1072" d="M 0 4Q 0 0 4 0L 92 0Q 96 0 96 4L 96 26Q 96 30 92 30L 4 30Q 0 30 0 26Z" stroke="rgba(33,41,48,1)" stroke-width="1.5" fill-opacity="1" fill="#f7aaef"></path><g id="SvgjsG1073"><text id="SvgjsText1074" font-family="&quot;Comic Sans MS&quot;" text-anchor="middle" font-size="14px" width="76px" fill="#323232" font-weight="700" align="middle" lineHeight="125%" anchor="middle" family="&quot;Comic Sans MS&quot;" size="14px" weight="700" font-style="" opacity="1" y="3.25" transform="rotate(0)"><tspan id="SvgjsTspan1075" dy="17.5" x="48"><tspan id="SvgjsTspan1076" style="">哈希表</tspan></tspan></text></g></g><g id="SvgjsG1077" transform="translate(25,263)"><path id="SvgjsPath1078" d="M 0 4Q 0 0 4 0L 92 0Q 96 0 96 4L 96 26Q 96 30 92 30L 4 30Q 0 30 0 26Z" stroke="rgba(33,41,48,1)" stroke-width="1.5" fill-opacity="1" fill="#d8d8d8"></path><g id="SvgjsG1079"><text id="SvgjsText1080" font-family="&quot;Comic Sans MS&quot;" text-anchor="middle" font-size="14px" width="76px" fill="#323232" font-weight="700" align="middle" lineHeight="125%" anchor="middle" family="&quot;Comic Sans MS&quot;" size="14px" weight="700" font-style="" opacity="1" y="3.25" transform="rotate(0)"><tspan id="SvgjsTspan1081" dy="17.5" x="48"><tspan id="SvgjsTspan1082" style="">listpack</tspan></tspan></text></g></g><g id="SvgjsG1083" transform="translate(521.5,263)"><path id="SvgjsPath1084" d="M 0 4Q 0 0 4 0L 92 0Q 96 0 96 4L 96 26Q 96 30 92 30L 4 30Q 0 30 0 26Z" stroke="rgba(33,41,48,1)" stroke-width="1.5" fill-opacity="1" fill="#d8d8d8"></path><g id="SvgjsG1085"><text id="SvgjsText1086" font-family="&quot;Comic Sans MS&quot;" text-anchor="middle" font-size="14px" width="76px" fill="#323232" font-weight="700" align="middle" lineHeight="125%" anchor="middle" family="&quot;Comic Sans MS&quot;" size="14px" weight="700" font-style="" opacity="1" y="3.25" transform="rotate(0)"><tspan id="SvgjsTspan1087" dy="17.5" x="48"><tspan id="SvgjsTspan1088" style="">整数数组</tspan></tspan></text></g></g><g id="SvgjsG1089" transform="translate(356,263)"><path id="SvgjsPath1090" d="M 0 4Q 0 0 4 0L 92 0Q 96 0 96 4L 96 26Q 96 30 92 30L 4 30Q 0 30 0 26Z" stroke="rgba(33,41,48,1)" stroke-width="1.5" fill-opacity="1" fill="#d8d8d8"></path><g id="SvgjsG1091"><text id="SvgjsText1092" font-family="&quot;Comic Sans MS&quot;" text-anchor="middle" font-size="14px" width="76px" fill="#323232" font-weight="700" align="middle" lineHeight="125%" anchor="middle" family="&quot;Comic Sans MS&quot;" size="14px" weight="700" font-style="" opacity="1" y="3.25" transform="rotate(0)"><tspan id="SvgjsTspan1093" dy="17.5" x="48"><tspan id="SvgjsTspan1094" style="">listpack</tspan></tspan></text></g></g></svg>