<svg id="SvgjsSvg1006" width="833" height="209" xmlns="http://www.w3.org/2000/svg" version="1.1" xmlns:xlink="http://www.w3.org/1999/xlink" xmlns:svgjs="http://svgjs.com/svgjs"><defs id="SvgjsDefs1007"><pattern patternUnits="userSpaceOnUse" id="pattern_mark_0" width="300" height="300"><text x="150" y="100" fill="rgba(229,229,229,0.8)" font-size="18" transform="rotate(-45, 150, 150)" style="dominant-baseline: middle; text-anchor: middle;"></text></pattern><pattern patternUnits="userSpaceOnUse" id="pattern_mark_1" width="300" height="300"><text x="150" y="200" fill="rgba(229,229,229,0.8)" font-size="18" transform="rotate(-45, 150, 150)" style="dominant-baseline: middle; text-anchor: middle;"></text></pattern><marker id="SvgjsMarker1116" markerWidth="16" markerHeight="16" refX="3" refY="8" viewBox="0 0 16 16" orient="auto" markerUnits="userSpaceOnUse" stroke-dasharray="0,0"><circle id="SvgjsCircle1117" r="4" cx="8" cy="8" fill="#323232" stroke="#323232" stroke-width="1.5"></circle></marker><marker id="SvgjsMarker1118" markerWidth="13" markerHeight="9" refX="9.5" refY="4.5" viewBox="0 0 13 9" orient="auto" markerUnits="userSpaceOnUse" stroke-dasharray="0,0"><path id="SvgjsPath1119" d="M0,0 L13,4.5 L0,9 L0,0" fill="#323232" stroke="#323232" stroke-width="1"></path></marker><marker id="SvgjsMarker1122" markerWidth="16" markerHeight="16" refX="3" refY="8" viewBox="0 0 16 16" orient="auto" markerUnits="userSpaceOnUse" stroke-dasharray="0,0"><circle id="SvgjsCircle1123" r="4" cx="8" cy="8" fill="#323232" stroke="#323232" stroke-width="1.5"></circle></marker><marker id="SvgjsMarker1124" markerWidth="13" markerHeight="9" refX="9.5" refY="4.5" viewBox="0 0 13 9" orient="auto" markerUnits="userSpaceOnUse" stroke-dasharray="0,0"><path id="SvgjsPath1125" d="M0,0 L13,4.5 L0,9 L0,0" fill="#323232" stroke="#323232" stroke-width="1"></path></marker></defs><rect id="svgbackgroundid" width="833" height="209" fill="transparent"></rect><rect id="SvgjsRect1009" width="833" height="209" fill="url(#pattern_mark_0)"></rect><rect id="SvgjsRect1010" width="833" height="209" fill="url(#pattern_mark_1)"></rect><g id="SvgjsG1011" transform="translate(198.00000000000003,46)"><path id="SvgjsPath1012" d="M0 0L82 0L82 20 L0 20Z" stroke="rgba(102, 102, 102,1)" stroke-width="1" fill-opacity="1" fill="#cce2fe"></path><path id="SvgjsPath1013" d="M82 0L164 0L164 20 L82 20Z" stroke="rgba(102, 102, 102,1)" stroke-width="1" fill-opacity="1" fill="#cce2fe"></path><path id="SvgjsPath1014" d="M164 0L246 0L246 20 L164 20Z" stroke="rgba(102, 102, 102,1)" stroke-width="1" fill-opacity="1" fill="#cce2fe"></path><path id="SvgjsPath1015" d="M246 0L328 0L328 20 L246 20Z" stroke="rgba(102, 102, 102,1)" stroke-width="1" fill-opacity="1" fill="#cce2fe"></path><path id="SvgjsPath1016" d="M328 0L410 0L410 20 L328 20Z" stroke="rgba(102, 102, 102,1)" stroke-width="1" fill-opacity="1" fill="#cce2fe"></path><g id="SvgjsG1017"><text id="SvgjsText1018" font-family="&quot;Microsoft YaHei&quot;, 微软雅黑, Arial" text-anchor="middle" font-size="16px" width="82px" fill="#323232" font-weight="400" align="middle" lineHeight="125%" anchor="middle" family="&quot;Microsoft YaHei&quot;, 微软雅黑, Arial" size="16px" weight="400" font-style="" opacity="1" y="-4" transform="rotate(0)"><tspan id="SvgjsTspan1019" dy="20" x="41"><tspan id="SvgjsTspan1020" style="">1</tspan></tspan></text></g><g id="SvgjsG1021"><text id="SvgjsText1022" font-family="&quot;Microsoft YaHei&quot;, 微软雅黑, Arial" text-anchor="middle" font-size="16px" width="82px" fill="#323232" font-weight="400" align="middle" lineHeight="125%" anchor="middle" family="&quot;Microsoft YaHei&quot;, 微软雅黑, Arial" size="16px" weight="400" font-style="" opacity="1" y="-4" transform="rotate(0)"><tspan id="SvgjsTspan1023" dy="20" x="123"><tspan id="SvgjsTspan1024" style="">'王五'</tspan></tspan></text></g><g id="SvgjsG1025"><text id="SvgjsText1026" font-family="&quot;Microsoft YaHei&quot;, 微软雅黑, Arial" text-anchor="middle" font-size="16px" width="82px" fill="#323232" font-weight="400" align="middle" lineHeight="125%" anchor="middle" family="&quot;Microsoft YaHei&quot;, 微软雅黑, Arial" size="16px" weight="400" font-style="" opacity="1" y="-4" transform="rotate(0)"><tspan id="SvgjsTspan1027" dy="20" x="205"><tspan id="SvgjsTspan1028" style="">'一班'</tspan></tspan></text></g><g id="SvgjsG1029"><text id="SvgjsText1030" font-family="&quot;Microsoft YaHei&quot;, 微软雅黑, Arial" text-anchor="middle" font-size="16px" width="82px" fill="#323232" font-weight="400" align="middle" lineHeight="125%" anchor="middle" family="&quot;Microsoft YaHei&quot;, 微软雅黑, Arial" size="16px" weight="400" font-style="" opacity="1" y="-4" transform="rotate(0)"><tspan id="SvgjsTspan1031" dy="20" x="287"><tspan id="SvgjsTspan1032" style="">20</tspan></tspan></text></g><g id="SvgjsG1033"><text id="SvgjsText1034" font-family="&quot;Microsoft YaHei&quot;, 微软雅黑, Arial" text-anchor="middle" font-size="16px" width="82px" fill="#323232" font-weight="400" align="middle" lineHeight="125%" anchor="middle" family="&quot;Microsoft YaHei&quot;, 微软雅黑, Arial" size="16px" weight="400" font-style="" opacity="1" y="-4" transform="rotate(0)"></text></g></g><g id="SvgjsG1035" transform="translate(198.00000000000003,25)"><path id="SvgjsPath1036" d="M0 0L82 0L82 20 L0 20Z" stroke="none" fill="none"></path><path id="SvgjsPath1037" d="M82 0L164 0L164 20 L82 20Z" stroke="none" fill="none"></path><path id="SvgjsPath1038" d="M164 0L246 0L246 20 L164 20Z" stroke="none" fill="none"></path><path id="SvgjsPath1039" d="M246 0L328 0L328 20 L246 20Z" stroke="none" fill="none"></path><path id="SvgjsPath1040" d="M328 0L410 0L410 20 L328 20Z" stroke="none" fill="none"></path><g id="SvgjsG1041"><text id="SvgjsText1042" font-family="&quot;Microsoft YaHei&quot;, 微软雅黑, Arial" text-anchor="middle" font-size="16px" width="82px" fill="#323232" font-weight="400" align="middle" lineHeight="125%" anchor="middle" family="&quot;Microsoft YaHei&quot;, 微软雅黑, Arial" size="16px" weight="400" font-style="" opacity="1" y="-4" transform="rotate(0)"><tspan id="SvgjsTspan1043" dy="20" x="41"><tspan id="SvgjsTspan1044" style="">id</tspan></tspan></text></g><g id="SvgjsG1045"><text id="SvgjsText1046" font-family="&quot;Microsoft YaHei&quot;, 微软雅黑, Arial" text-anchor="middle" font-size="16px" width="82px" fill="#323232" font-weight="400" align="middle" lineHeight="125%" anchor="middle" family="&quot;Microsoft YaHei&quot;, 微软雅黑, Arial" size="16px" weight="400" font-style="" opacity="1" y="-4" transform="rotate(0)"><tspan id="SvgjsTspan1047" dy="20" x="123"><tspan id="SvgjsTspan1048" style="">name</tspan></tspan></text></g><g id="SvgjsG1049"><text id="SvgjsText1050" font-family="&quot;Microsoft YaHei&quot;, 微软雅黑, Arial" text-anchor="middle" font-size="16px" width="82px" fill="#323232" font-weight="400" align="middle" lineHeight="125%" anchor="middle" family="&quot;Microsoft YaHei&quot;, 微软雅黑, Arial" size="16px" weight="400" font-style="" opacity="1" y="-4" transform="rotate(0)"><tspan id="SvgjsTspan1051" dy="20" x="205"><tspan id="SvgjsTspan1052" style="">class</tspan></tspan></text></g><g id="SvgjsG1053"><text id="SvgjsText1054" font-family="&quot;Microsoft YaHei&quot;, 微软雅黑, Arial" text-anchor="middle" font-size="16px" width="82px" fill="#323232" font-weight="400" align="middle" lineHeight="125%" anchor="middle" family="&quot;Microsoft YaHei&quot;, 微软雅黑, Arial" size="16px" weight="400" font-style="" opacity="1" y="-4" transform="rotate(0)"><tspan id="SvgjsTspan1055" dy="20" x="287"><tspan id="SvgjsTspan1056" style="">trx_id</tspan></tspan></text></g><g id="SvgjsG1057"><text id="SvgjsText1058" font-family="&quot;Microsoft YaHei&quot;, 微软雅黑, Arial" text-anchor="middle" font-size="16px" width="82px" fill="#323232" font-weight="400" align="middle" lineHeight="125%" anchor="middle" family="&quot;Microsoft YaHei&quot;, 微软雅黑, Arial" size="16px" weight="400" font-style="" opacity="1" y="-4" transform="rotate(0)"><tspan id="SvgjsTspan1059" dy="20" x="369"><tspan id="SvgjsTspan1060" style="">roll_pointer</tspan></tspan></text></g></g><g id="SvgjsG1061" transform="translate(198.00000000000003,104)"><path id="SvgjsPath1062" d="M0 0L82 0L82 20 L0 20Z" stroke="rgba(102, 102, 102,1)" stroke-width="1" fill-opacity="1" fill="#d7e6d2"></path><path id="SvgjsPath1063" d="M82 0L164 0L164 20 L82 20Z" stroke="rgba(102, 102, 102,1)" stroke-width="1" fill-opacity="1" fill="#d7e6d2"></path><path id="SvgjsPath1064" d="M164 0L246 0L246 20 L164 20Z" stroke="rgba(102, 102, 102,1)" stroke-width="1" fill-opacity="1" fill="#d7e6d2"></path><path id="SvgjsPath1065" d="M246 0L328 0L328 20 L246 20Z" stroke="rgba(102, 102, 102,1)" stroke-width="1" fill-opacity="1" fill="#d7e6d2"></path><path id="SvgjsPath1066" d="M328 0L410 0L410 20 L328 20Z" stroke="rgba(102, 102, 102,1)" stroke-width="1" fill-opacity="1" fill="#d7e6d2"></path><g id="SvgjsG1067"><text id="SvgjsText1068" font-family="&quot;Microsoft YaHei&quot;, 微软雅黑, Arial" text-anchor="middle" font-size="16px" width="82px" fill="#323232" font-weight="400" align="middle" lineHeight="125%" anchor="middle" family="&quot;Microsoft YaHei&quot;, 微软雅黑, Arial" size="16px" weight="400" font-style="" opacity="1" y="-4" transform="rotate(0)"><tspan id="SvgjsTspan1069" dy="20" x="41"><tspan id="SvgjsTspan1070" style="">1</tspan></tspan></text></g><g id="SvgjsG1071"><text id="SvgjsText1072" font-family="&quot;Microsoft YaHei&quot;, 微软雅黑, Arial" text-anchor="middle" font-size="16px" width="82px" fill="#323232" font-weight="400" align="middle" lineHeight="125%" anchor="middle" family="&quot;Microsoft YaHei&quot;, 微软雅黑, Arial" size="16px" weight="400" font-style="" opacity="1" y="-4" transform="rotate(0)"><tspan id="SvgjsTspan1073" dy="20" x="123"><tspan id="SvgjsTspan1074" style="">'李四'</tspan></tspan></text></g><g id="SvgjsG1075"><text id="SvgjsText1076" font-family="&quot;Microsoft YaHei&quot;, 微软雅黑, Arial" text-anchor="middle" font-size="16px" width="82px" fill="#323232" font-weight="400" align="middle" lineHeight="125%" anchor="middle" family="&quot;Microsoft YaHei&quot;, 微软雅黑, Arial" size="16px" weight="400" font-style="" opacity="1" y="-4" transform="rotate(0)"><tspan id="SvgjsTspan1077" dy="20" x="205"><tspan id="SvgjsTspan1078" style="">'一班'</tspan></tspan></text></g><g id="SvgjsG1079"><text id="SvgjsText1080" font-family="&quot;Microsoft YaHei&quot;, 微软雅黑, Arial" text-anchor="middle" font-size="16px" width="82px" fill="#323232" font-weight="400" align="middle" lineHeight="125%" anchor="middle" family="&quot;Microsoft YaHei&quot;, 微软雅黑, Arial" size="16px" weight="400" font-style="" opacity="1" y="-4" transform="rotate(0)"><tspan id="SvgjsTspan1081" dy="20" x="287"><tspan id="SvgjsTspan1082" style="">20</tspan></tspan></text></g><g id="SvgjsG1083"><text id="SvgjsText1084" font-family="&quot;Microsoft YaHei&quot;, 微软雅黑, Arial" text-anchor="middle" font-size="16px" width="82px" fill="#323232" font-weight="400" align="middle" lineHeight="125%" anchor="middle" family="&quot;Microsoft YaHei&quot;, 微软雅黑, Arial" size="16px" weight="400" font-style="" opacity="1" y="-4" transform="rotate(0)"></text></g></g><g id="SvgjsG1085" transform="translate(198.00000000000003,162)"><path id="SvgjsPath1086" d="M0 0L82 0L82 20 L0 20Z" stroke="rgba(102, 102, 102,1)" stroke-width="1" fill-opacity="1" fill="#d7e6d2"></path><path id="SvgjsPath1087" d="M82 0L164 0L164 20 L82 20Z" stroke="rgba(102, 102, 102,1)" stroke-width="1" fill-opacity="1" fill="#d7e6d2"></path><path id="SvgjsPath1088" d="M164 0L246 0L246 20 L164 20Z" stroke="rgba(102, 102, 102,1)" stroke-width="1" fill-opacity="1" fill="#d7e6d2"></path><path id="SvgjsPath1089" d="M246 0L328 0L328 20 L246 20Z" stroke="rgba(102, 102, 102,1)" stroke-width="1" fill-opacity="1" fill="#d7e6d2"></path><path id="SvgjsPath1090" d="M328 0L410 0L410 20 L328 20Z" stroke="rgba(102, 102, 102,1)" stroke-width="1" fill-opacity="1" fill="#d7e6d2"></path><g id="SvgjsG1091"><text id="SvgjsText1092" font-family="&quot;Microsoft YaHei&quot;, 微软雅黑, Arial" text-anchor="middle" font-size="16px" width="82px" fill="#323232" font-weight="400" align="middle" lineHeight="125%" anchor="middle" family="&quot;Microsoft YaHei&quot;, 微软雅黑, Arial" size="16px" weight="400" font-style="" opacity="1" y="-4" transform="rotate(0)"><tspan id="SvgjsTspan1093" dy="20" x="41"><tspan id="SvgjsTspan1094" style="">1</tspan></tspan></text></g><g id="SvgjsG1095"><text id="SvgjsText1096" font-family="&quot;Microsoft YaHei&quot;, 微软雅黑, Arial" text-anchor="middle" font-size="16px" width="82px" fill="#323232" font-weight="400" align="middle" lineHeight="125%" anchor="middle" family="&quot;Microsoft YaHei&quot;, 微软雅黑, Arial" size="16px" weight="400" font-style="" opacity="1" y="-4" transform="rotate(0)"><tspan id="SvgjsTspan1097" dy="20" x="123"><tspan id="SvgjsTspan1098" style="">'张三'</tspan></tspan></text></g><g id="SvgjsG1099"><text id="SvgjsText1100" font-family="&quot;Microsoft YaHei&quot;, 微软雅黑, Arial" text-anchor="middle" font-size="16px" width="82px" fill="#323232" font-weight="400" align="middle" lineHeight="125%" anchor="middle" family="&quot;Microsoft YaHei&quot;, 微软雅黑, Arial" size="16px" weight="400" font-style="" opacity="1" y="-4" transform="rotate(0)"><tspan id="SvgjsTspan1101" dy="20" x="205"><tspan id="SvgjsTspan1102" style="">'一班'</tspan></tspan></text></g><g id="SvgjsG1103"><text id="SvgjsText1104" font-family="&quot;Microsoft YaHei&quot;, 微软雅黑, Arial" text-anchor="middle" font-size="16px" width="82px" fill="#323232" font-weight="400" align="middle" lineHeight="125%" anchor="middle" family="&quot;Microsoft YaHei&quot;, 微软雅黑, Arial" size="16px" weight="400" font-style="" opacity="1" y="-4" transform="rotate(0)"><tspan id="SvgjsTspan1105" dy="20" x="287"><tspan id="SvgjsTspan1106" style="">10</tspan></tspan></text></g><g id="SvgjsG1107"><text id="SvgjsText1108" font-family="&quot;Microsoft YaHei&quot;, 微软雅黑, Arial" text-anchor="middle" font-size="16px" width="82px" fill="#323232" font-weight="400" align="middle" lineHeight="125%" anchor="middle" family="&quot;Microsoft YaHei&quot;, 微软雅黑, Arial" size="16px" weight="400" font-style="" opacity="1" y="-4" transform="rotate(0)"></text></g></g><g id="SvgjsG1109" transform="translate(628,46)"><path id="SvgjsPath1110" d="M 0 136Q 9 136 9 127L 9 77Q 9 68 22 68Q 9 68 9 59L 9 9Q 9 0 0 0" stroke="rgba(33,41,48,1)" stroke-width="1.5" fill="none"></path><path id="SvgjsPath1111" d="M 0 0L 120 0L 120 136L 0 136Z" stroke="none" fill="none"></path><g id="SvgjsG1112"><text id="SvgjsText1113" font-family="&quot;Microsoft YaHei&quot;, 微软雅黑, Arial" text-anchor="start" font-size="13px" width="93px" fill="#323232" font-weight="400" align="middle" lineHeight="125%" anchor="start" family="&quot;Microsoft YaHei&quot;, 微软雅黑, Arial" size="13px" weight="400" font-style="" opacity="1" y="57.375" transform="rotate(0)"></text></g></g><g id="SvgjsG1114"><path id="SvgjsPath1115" d="M565 53L565 86L177.00000000000003 86L177.00000000000003 114L195.55000000000004 114" stroke="#323232" stroke-width="1.5" fill="none" marker-start="url(#SvgjsMarker1116)" marker-end="url(#SvgjsMarker1118)"></path></g><g id="SvgjsG1120"><path id="SvgjsPath1121" d="M566 112L566 145L177.00000000000003 145L177.00000000000003 172L195.55000000000004 172" stroke="#323232" stroke-width="1.5" fill="none" marker-start="url(#SvgjsMarker1122)" marker-end="url(#SvgjsMarker1124)"></path></g><g id="SvgjsG1126" transform="translate(42.00000000000002,34)"><path id="SvgjsPath1127" d="M 120 0Q 111 0 111 3.2L 111 12.8Q 111 16 98 16Q 111 16 111 19.2L 111 28.8Q 111 32 120 32" stroke="rgba(33,41,48,1)" stroke-width="1.5" fill="none"></path><path id="SvgjsPath1128" d="M 0 0L 120 0L 120 32L 0 32Z" stroke="none" fill="none"></path><g id="SvgjsG1129"><text id="SvgjsText1130" font-family="&quot;Microsoft YaHei&quot;, 微软雅黑, Arial" text-anchor="end" font-size="13px" width="93px" fill="#323232" font-weight="400" align="middle" lineHeight="125%" anchor="end" family="&quot;Microsoft YaHei&quot;, 微软雅黑, Arial" size="13px" weight="400" font-style="" opacity="1" y="5.375" transform="rotate(0)"></text></g></g><g id="SvgjsG1131" transform="translate(38.00000000000002,104)"><path id="SvgjsPath1132" d="M 120 0Q 111 0 111 7.800000000000001L 111 31.2Q 111 39 98 39Q 111 39 111 46.8L 111 70.2Q 111 78 120 78" stroke="rgba(33,41,48,1)" stroke-width="1.5" fill="none"></path><path id="SvgjsPath1133" d="M 0 0L 120 0L 120 78L 0 78Z" stroke="none" fill="none"></path><g id="SvgjsG1134"><text id="SvgjsText1135" font-family="&quot;Microsoft YaHei&quot;, 微软雅黑, Arial" text-anchor="end" font-size="13px" width="93px" fill="#323232" font-weight="400" align="middle" lineHeight="125%" anchor="end" family="&quot;Microsoft YaHei&quot;, 微软雅黑, Arial" size="13px" weight="400" font-style="" opacity="1" y="28.375" transform="rotate(0)"></text></g></g><g id="SvgjsG1136" transform="translate(660,64)"><path id="SvgjsPath1137" d="M 0 22C 0 -7.333333333333333 148 -7.333333333333333 148 22Q 145.04 43.12 74 44Q 49.333333333333336 44 24.666666666666668 39.6L 0 44L 17.316000000000003 37.708Q 0 30.799999999999997 0 22" stroke="rgba(33,41,48,1)" stroke-width="1.5" fill-opacity="1" fill="#f8e3b9"></path><g id="SvgjsG1138"><text id="SvgjsText1139" font-family="&quot;Microsoft YaHei&quot;, 微软雅黑, Arial" text-anchor="middle" font-size="13px" width="128px" fill="#323232" font-weight="400" align="middle" lineHeight="125%" anchor="middle" family="&quot;Microsoft YaHei&quot;, 微软雅黑, Arial" size="13px" weight="400" font-style="" opacity="1" y="11.375" transform="rotate(0)"><tspan id="SvgjsTspan1140" dy="16.25" x="74"><tspan id="SvgjsTspan1141" style="">串成了一个版本链</tspan></tspan></text></g></g><g id="SvgjsG1142" transform="matrix(-1,1.2246467991473532e-16,-1.2246467991473532e-16,-1,131,184)"><path id="SvgjsPath1143" d="M 0 20.5C 0 -6.833333333333333 106 -6.833333333333333 106 20.5Q 103.88 40.18 53 41Q 35.333333333333336 41 17.666666666666668 36.9L 0 41L 12.402000000000001 35.137Q 0 28.7 0 20.5" stroke="rgba(33,41,48,1)" stroke-width="1.5" fill-opacity="1" fill="#f8e3b9"></path><g id="SvgjsG1144"><text id="SvgjsText1145" font-family="&quot;Microsoft YaHei&quot;, 微软雅黑, Arial" text-anchor="middle" font-size="13px" width="86px" fill="#323232" font-weight="400" align="middle" lineHeight="125%" anchor="middle" family="&quot;Microsoft YaHei&quot;, 微软雅黑, Arial" size="13px" weight="400" font-style="" opacity="1" y="9.875" transform="rotate(0)"></text></g></g><g id="SvgjsG1146" transform="translate(28.00000000000002,143)"><path id="SvgjsPath1147" d="M 0 0L 100 0L 100 40L 0 40Z" stroke="none" fill="none"></path><g id="SvgjsG1148"><text id="SvgjsText1149" font-family="&quot;Microsoft YaHei&quot;, 微软雅黑, Arial" text-anchor="middle" font-size="13px" width="100px" fill="#323232" font-weight="400" align="middle" lineHeight="125%" anchor="middle" family="&quot;Microsoft YaHei&quot;, 微软雅黑, Arial" size="13px" weight="400" font-style="" opacity="1" y="9.375" transform="rotate(0)"><tspan id="SvgjsTspan1150" dy="16.25" x="50"><tspan id="SvgjsTspan1151" style="">这些是undo日志</tspan></tspan></text></g></g><g id="SvgjsG1152" transform="matrix(-1,1.2246467991473532e-16,-1.2246467991473532e-16,-1,134,92)"><path id="SvgjsPath1153" d="M 0 20.5C 0 -6.833333333333333 106 -6.833333333333333 106 20.5Q 103.88 40.18 53 41Q 35.333333333333336 41 17.666666666666668 36.9L 0 41L 12.402000000000001 35.137Q 0 28.7 0 20.5" stroke="rgba(33,41,48,1)" stroke-width="1.5" fill-opacity="1" fill="#f8e3b9"></path><g id="SvgjsG1154"><text id="SvgjsText1155" font-family="&quot;Microsoft YaHei&quot;, 微软雅黑, Arial" text-anchor="middle" font-size="13px" width="86px" fill="#323232" font-weight="400" align="middle" lineHeight="125%" anchor="middle" family="&quot;Microsoft YaHei&quot;, 微软雅黑, Arial" size="13px" weight="400" font-style="" opacity="1" y="9.875" transform="rotate(0)"></text></g></g><g id="SvgjsG1156" transform="translate(31.00000000000002,51)"><path id="SvgjsPath1157" d="M 0 0L 100 0L 100 40L 0 40Z" stroke="none" fill="none"></path><g id="SvgjsG1158"><text id="SvgjsText1159" font-family="&quot;Microsoft YaHei&quot;, 微软雅黑, Arial" text-anchor="middle" font-size="13px" width="100px" fill="#323232" font-weight="400" align="middle" lineHeight="125%" anchor="middle" family="&quot;Microsoft YaHei&quot;, 微软雅黑, Arial" size="13px" weight="400" font-style="" opacity="1" y="0.875" transform="rotate(0)"><tspan id="SvgjsTspan1160" dy="16.25" x="50"><tspan id="SvgjsTspan1161" style="">这个是页面</tspan></tspan><tspan id="SvgjsTspan1162" dy="16.25" x="50"><tspan id="SvgjsTspan1163" style="">中的记录</tspan></tspan></text></g></g><g id="SvgjsG1164"></g></svg>