<svg id="SvgjsSvg1104" width="587.8125" height="250.05146026611328" xmlns="http://www.w3.org/2000/svg" version="1.1" xmlns:xlink="http://www.w3.org/1999/xlink" xmlns:svgjs="http://svgjs.com/svgjs"><defs id="SvgjsDefs1105"><pattern patternUnits="userSpaceOnUse" id="pattern_mark_0" width="300" height="300"><text x="150" y="100" fill="rgba(229,229,229,0.8)" font-size="18" transform="rotate(-45, 150, 150)" style="dominant-baseline: middle; text-anchor: middle;"></text></pattern><pattern patternUnits="userSpaceOnUse" id="pattern_mark_1" width="300" height="300"><text x="150" y="200" fill="rgba(229,229,229,0.8)" font-size="18" transform="rotate(-45, 150, 150)" style="dominant-baseline: middle; text-anchor: middle;"></text></pattern><marker id="SvgjsMarker1188" markerWidth="12" markerHeight="8" refX="9" refY="4" viewBox="0 0 12 8" orient="auto" markerUnits="userSpaceOnUse" stroke-dasharray="0,0"><path id="SvgjsPath1189" d="M0,0 L12,4 L0,8 L0,0" fill="#323232" stroke="#323232" stroke-width="1"></path></marker><marker id="SvgjsMarker1192" markerWidth="12" markerHeight="8" refX="9" refY="4" viewBox="0 0 12 8" orient="auto" markerUnits="userSpaceOnUse" stroke-dasharray="0,0"><path id="SvgjsPath1193" d="M0,0 L12,4 L0,8 L0,0" fill="#323232" stroke="#323232" stroke-width="1"></path></marker><marker id="SvgjsMarker1196" markerWidth="12" markerHeight="8" refX="9" refY="4" viewBox="0 0 12 8" orient="auto" markerUnits="userSpaceOnUse" stroke-dasharray="0,0"><path id="SvgjsPath1197" d="M0,0 L12,4 L0,8 L0,0" fill="#323232" stroke="#323232" stroke-width="1"></path></marker><marker id="SvgjsMarker1200" markerWidth="12" markerHeight="8" refX="9" refY="4" viewBox="0 0 12 8" orient="auto" markerUnits="userSpaceOnUse" stroke-dasharray="0,0"><path id="SvgjsPath1201" d="M0,0 L12,4 L0,8 L0,0" fill="#323232" stroke="#323232" stroke-width="1"></path></marker></defs><rect id="svgbackgroundid" width="587.8125" height="250.05146026611328" fill="transparent"></rect><rect id="SvgjsRect1107" width="587.8125" height="250.05146026611328" fill="url(#pattern_mark_0)"></rect><rect id="SvgjsRect1108" width="587.8125" height="250.05146026611328" fill="url(#pattern_mark_1)"></rect><g id="SvgjsG1109" transform="translate(81.8125,27.5)"><path id="SvgjsPath1110" d="M 0 0L 481 0L 481 20L 0 20Z" stroke="none" fill="none"></path><g id="SvgjsG1111"><text id="SvgjsText1112" font-family="&quot;Comic Sans MS&quot;" text-anchor="middle" font-size="20px" width="481px" fill="#323232" font-weight="400" align="middle" lineHeight="125%" anchor="middle" family="&quot;Comic Sans MS&quot;" size="20px" weight="400" font-style="" opacity="1" y="-8" transform="rotate(0)"><tspan id="SvgjsTspan1113" dy="25" x="240.5"><tspan id="SvgjsTspan1114" style="font-weight: bold;">e0ea12d4-6473-11eb-943c-00155dbaa39d</tspan></tspan></text></g></g><g id="SvgjsG1115" transform="matrix(6.123233995736766e-17,1,-1,6.123233995736766e-17,315.8125,50.00000000000001)"><path id="SvgjsPath1116" d="M 0 206.00000000000003Q 9 206.00000000000003 9 197.00000000000003L 9 112.00000000000001Q 9 103.00000000000001 22 103.00000000000001Q 9 103.00000000000001 9 94.00000000000001L 9 9Q 9 0 0 0" stroke="rgba(33,41,48,1)" stroke-width="1.5" fill="none"></path><path id="SvgjsPath1117" d="M 0 0L 120 0L 120 206.00000000000003L 0 206.00000000000003Z" stroke="none" fill="none"></path><g id="SvgjsG1118"><text id="SvgjsText1119" font-family="&quot;Comic Sans MS&quot;" text-anchor="start" font-size="13px" width="93px" fill="#323232" font-weight="400" align="middle" lineHeight="125%" anchor="start" family="&quot;Comic Sans MS&quot;" size="13px" weight="400" font-style="" opacity="1" y="92.87500000000001" transform="rotate(0)"></text></g></g><g id="SvgjsG1120" transform="matrix(6.123233995736766e-17,1,-1,6.123233995736766e-17,377.8125,50)"><path id="SvgjsPath1121" d="M 0 45Q 9 45 9 40.5L 9 27Q 9 22.5 22 22.5Q 9 22.5 9 18L 9 4.5Q 9 0 0 0" stroke="rgba(33,41,48,1)" stroke-width="1.5" fill="none"></path><path id="SvgjsPath1122" d="M 0 0L 120 0L 120 45L 0 45Z" stroke="none" fill="none"></path><g id="SvgjsG1123"><text id="SvgjsText1124" font-family="&quot;Comic Sans MS&quot;" text-anchor="start" font-size="13px" width="93px" fill="#323232" font-weight="400" align="middle" lineHeight="125%" anchor="start" family="&quot;Comic Sans MS&quot;" size="13px" weight="400" font-style="" opacity="1" y="12.375" transform="rotate(0)"></text></g></g><g id="SvgjsG1125" transform="matrix(6.123233995736766e-17,1,-1,6.123233995736766e-17,533.8125,49.99999999999999)"><path id="SvgjsPath1126" d="M 0 139Q 9 139 9 130L 9 78.5Q 9 69.5 22 69.5Q 9 69.5 9 60.5L 9 9Q 9 0 0 0" stroke="rgba(33,41,48,1)" stroke-width="1.5" fill="none"></path><path id="SvgjsPath1127" d="M 0 0L 120 0L 120 139L 0 139Z" stroke="none" fill="none"></path><g id="SvgjsG1128"><text id="SvgjsText1129" font-family="&quot;Comic Sans MS&quot;" text-anchor="start" font-size="13px" width="93px" fill="#323232" font-weight="400" align="middle" lineHeight="125%" anchor="start" family="&quot;Comic Sans MS&quot;" size="13px" weight="400" font-style="" opacity="1" y="59.375" transform="rotate(0)"></text></g></g><g id="SvgjsG1130" transform="translate(162.57306098937988,72.03400039672852)"><path id="SvgjsPath1131" d="M 0 0L 100 0L 100 40L 0 40Z" stroke="none" fill="none"></path><g id="SvgjsG1132"><text id="SvgjsText1133" font-family="&quot;Comic Sans MS&quot;" text-anchor="middle" font-size="13px" width="100px" fill="#323232" font-weight="400" align="middle" lineHeight="125%" anchor="middle" family="&quot;Comic Sans MS&quot;" size="13px" weight="400" font-style="" opacity="1" y="1.875" transform="rotate(0)"><tspan id="SvgjsTspan1134" dy="16.25" x="50"><tspan id="SvgjsTspan1135" style="">时间 + 版本</tspan></tspan><tspan id="SvgjsTspan1136" dy="16.25" x="50"><tspan id="SvgjsTspan1137" style="">16字节</tspan></tspan></text></g></g><g id="SvgjsG1138" transform="translate(303.8230609893799,72.03400039672852)"><path id="SvgjsPath1139" d="M 0 0L 100 0L 100 40L 0 40Z" stroke="none" fill="none"></path><g id="SvgjsG1140"><text id="SvgjsText1141" font-family="&quot;Comic Sans MS&quot;" text-anchor="middle" font-size="13px" width="100px" fill="#323232" font-weight="400" align="middle" lineHeight="125%" anchor="middle" family="&quot;Comic Sans MS&quot;" size="13px" weight="400" font-style="" opacity="1" y="1.875" transform="rotate(0)"><tspan id="SvgjsTspan1142" dy="16.25" x="50"><tspan id="SvgjsTspan1143" style="">时钟序列</tspan></tspan><tspan id="SvgjsTspan1144" dy="16.25" x="50"><tspan id="SvgjsTspan1145" style="">4字节</tspan></tspan></text></g></g><g id="SvgjsG1146" transform="translate(413.1980609893799,72.03400039672852)"><path id="SvgjsPath1147" d="M 0 0L 100 0L 100 40L 0 40Z" stroke="none" fill="none"></path><g id="SvgjsG1148"><text id="SvgjsText1149" font-family="&quot;Comic Sans MS&quot;" text-anchor="middle" font-size="13px" width="100px" fill="#323232" font-weight="400" align="middle" lineHeight="125%" anchor="middle" family="&quot;Comic Sans MS&quot;" size="13px" weight="400" font-style="" opacity="1" y="1.875" transform="rotate(0)"><tspan id="SvgjsTspan1150" dy="16.25" x="50"><tspan id="SvgjsTspan1151" style="">MAC地址</tspan></tspan><tspan id="SvgjsTspan1152" dy="16.25" x="50"><tspan id="SvgjsTspan1153" style="">12字节</tspan></tspan></text></g></g><g id="SvgjsG1154" transform="translate(25,185.67646026611328)"><path id="SvgjsPath1155" d="M 0 0L 85.625 0L 85.625 39.375L 0 39.375Z" stroke="rgba(33,41,48,1)" stroke-width="1.5" fill-opacity="1" fill="#fbeada"></path><g id="SvgjsG1156"><text id="SvgjsText1157" font-family="&quot;Comic Sans MS&quot;" text-anchor="middle" font-size="13px" width="66px" fill="#323232" font-weight="400" align="middle" lineHeight="125%" anchor="middle" family="&quot;Comic Sans MS&quot;" size="13px" weight="400" font-style="" opacity="1" y="1.5625" transform="rotate(0)"><tspan id="SvgjsTspan1158" dy="16.25" x="43"><tspan id="SvgjsTspan1159" style="">时间低位</tspan></tspan><tspan id="SvgjsTspan1160" dy="16.25" x="43"><tspan id="SvgjsTspan1161" style="">32位</tspan></tspan></text></g></g><g id="SvgjsG1162" transform="translate(121.66666666666669,185.67646026611328)"><path id="SvgjsPath1163" d="M 0 0L 85.625 0L 85.625 39.375L 0 39.375Z" stroke="rgba(33,41,48,1)" stroke-width="1.5" fill-opacity="1" fill="#caedb4"></path><g id="SvgjsG1164"><text id="SvgjsText1165" font-family="&quot;Comic Sans MS&quot;" text-anchor="middle" font-size="13px" width="66px" fill="#323232" font-weight="400" align="middle" lineHeight="125%" anchor="middle" family="&quot;Comic Sans MS&quot;" size="13px" weight="400" font-style="" opacity="1" y="1.5625" transform="rotate(0)"><tspan id="SvgjsTspan1166" dy="16.25" x="43"><tspan id="SvgjsTspan1167" style="">时间中位</tspan></tspan><tspan id="SvgjsTspan1168" dy="16.25" x="43"><tspan id="SvgjsTspan1169" style="">16位</tspan></tspan></text></g></g><g id="SvgjsG1170" transform="translate(218.33333333333337,185.67646026611328)"><path id="SvgjsPath1171" d="M 0 0L 85.625 0L 85.625 39.375L 0 39.375Z" stroke="rgba(33,41,48,1)" stroke-width="1.5" fill-opacity="1" fill="#d2d6f9"></path><g id="SvgjsG1172"><text id="SvgjsText1173" font-family="&quot;Comic Sans MS&quot;" text-anchor="middle" font-size="13px" width="66px" fill="#323232" font-weight="400" align="middle" lineHeight="125%" anchor="middle" family="&quot;Comic Sans MS&quot;" size="13px" weight="400" font-style="" opacity="1" y="1.5625" transform="rotate(0)"><tspan id="SvgjsTspan1174" dy="16.25" x="43"><tspan id="SvgjsTspan1175" style="">时间高位</tspan></tspan><tspan id="SvgjsTspan1176" dy="16.25" x="43"><tspan id="SvgjsTspan1177" style="">12位</tspan></tspan></text></g></g><g id="SvgjsG1178" transform="translate(315,185.67646026611328)"><path id="SvgjsPath1179" d="M 0 0L 85.625 0L 85.625 39.375L 0 39.375Z" stroke="rgba(33,41,48,1)" stroke-width="1.5" fill-opacity="1" fill="#f2f2f2"></path><g id="SvgjsG1180"><text id="SvgjsText1181" font-family="&quot;Comic Sans MS&quot;" text-anchor="middle" font-size="13px" width="66px" fill="#323232" font-weight="400" align="middle" lineHeight="125%" anchor="middle" family="&quot;Comic Sans MS&quot;" size="13px" weight="400" font-style="" opacity="1" y="1.5625" transform="rotate(0)"><tspan id="SvgjsTspan1182" dy="16.25" x="43"><tspan id="SvgjsTspan1183" style="">UUID版本</tspan></tspan><tspan id="SvgjsTspan1184" dy="16.25" x="43"><tspan id="SvgjsTspan1185" style="">4位</tspan></tspan></text></g></g><g id="SvgjsG1186"><path id="SvgjsPath1187" d="M212.57306098937988 112.78400039672852L212.57306098937988 148.8552303314209L67.8125 148.8552303314209L67.8125 183.62646026611327" stroke="#323232" stroke-width="1" fill="none" marker-end="url(#SvgjsMarker1188)"></path></g><g id="SvgjsG1190"><path id="SvgjsPath1191" d="M212.57306098937988 112.78400039672852L212.57306098937988 148.8552303314209L164.47916666666669 148.8552303314209L164.47916666666669 183.62646026611327" stroke="#323232" stroke-width="1" fill="none" marker-end="url(#SvgjsMarker1192)"></path></g><g id="SvgjsG1194"><path id="SvgjsPath1195" d="M212.57306098937988 112.78400039672852L212.57306098937988 148.8552303314209L261.14583333333337 148.8552303314209L261.14583333333337 183.62646026611327" stroke="#323232" stroke-width="1" fill="none" marker-end="url(#SvgjsMarker1196)"></path></g><g id="SvgjsG1198"><path id="SvgjsPath1199" d="M212.57306098937988 112.78400039672852L212.57306098937988 148.8552303314209L357.8125 148.8552303314209L357.8125 183.62646026611327" stroke="#323232" stroke-width="1" fill="none" marker-end="url(#SvgjsMarker1200)"></path></g></svg>