<svg id="SvgjsSvg1006" width="817" height="325" xmlns="http://www.w3.org/2000/svg" version="1.1" xmlns:xlink="http://www.w3.org/1999/xlink" xmlns:svgjs="http://svgjs.com/svgjs"><defs id="SvgjsDefs1007"><pattern patternUnits="userSpaceOnUse" id="pattern_mark_0" width="300" height="300"><text x="150" y="100" fill="rgba(229,229,229,0.8)" font-size="18" transform="rotate(-45, 150, 150)" style="dominant-baseline: middle; text-anchor: middle;"></text></pattern><pattern patternUnits="userSpaceOnUse" id="pattern_mark_1" width="300" height="300"><text x="150" y="200" fill="rgba(229,229,229,0.8)" font-size="18" transform="rotate(-45, 150, 150)" style="dominant-baseline: middle; text-anchor: middle;"></text></pattern><marker id="SvgjsMarker1129" markerWidth="13" markerHeight="9" refX="9.5" refY="4.5" viewBox="0 0 13 9" orient="auto" markerUnits="userSpaceOnUse" stroke-dasharray="0,0"><path id="SvgjsPath1130" d="M0,0 L13,4.5 L0,9 L0,0" fill="#323232" stroke="#323232" stroke-width="1"></path></marker><marker id="SvgjsMarker1133" markerWidth="13" markerHeight="9" refX="9.5" refY="4.5" viewBox="0 0 13 9" orient="auto" markerUnits="userSpaceOnUse" stroke-dasharray="0,0"><path id="SvgjsPath1134" d="M0,0 L13,4.5 L0,9 L0,0" fill="#323232" stroke="#323232" stroke-width="1"></path></marker><marker id="SvgjsMarker1137" markerWidth="13" markerHeight="9" refX="9.5" refY="4.5" viewBox="0 0 13 9" orient="auto" markerUnits="userSpaceOnUse" stroke-dasharray="0,0"><path id="SvgjsPath1138" d="M0,0 L13,4.5 L0,9 L0,0" fill="#323232" stroke="#323232" stroke-width="1"></path></marker><marker id="SvgjsMarker1141" markerWidth="13" markerHeight="9" refX="3.5" refY="4.5" viewBox="0 0 13 9" orient="auto" markerUnits="userSpaceOnUse" stroke-dasharray="0,0"><path id="SvgjsPath1142" d="M13,0 L0,4.5 L13,9 L13,0" fill="#323232" stroke="#323232" stroke-width="1"></path></marker><marker id="SvgjsMarker1143" markerWidth="13" markerHeight="9" refX="9.5" refY="4.5" viewBox="0 0 13 9" orient="auto" markerUnits="userSpaceOnUse" stroke-dasharray="0,0"><path id="SvgjsPath1144" d="M0,0 L13,4.5 L0,9 L0,0" fill="#323232" stroke="#323232" stroke-width="1"></path></marker><marker id="SvgjsMarker1147" markerWidth="13" markerHeight="9" refX="9.5" refY="4.5" viewBox="0 0 13 9" orient="auto" markerUnits="userSpaceOnUse" stroke-dasharray="0,0"><path id="SvgjsPath1148" d="M0,0 L13,4.5 L0,9 L0,0" fill="#323232" stroke="#323232" stroke-width="1"></path></marker><marker id="SvgjsMarker1155" markerWidth="13" markerHeight="9" refX="9.5" refY="4.5" viewBox="0 0 13 9" orient="auto" markerUnits="userSpaceOnUse" stroke-dasharray="0,0"><path id="SvgjsPath1156" d="M0,0 L13,4.5 L0,9 L0,0" fill="#323232" stroke="#323232" stroke-width="1"></path></marker><marker id="SvgjsMarker1163" markerWidth="13" markerHeight="9" refX="9.5" refY="4.5" viewBox="0 0 13 9" orient="auto" markerUnits="userSpaceOnUse" stroke-dasharray="0,0"><path id="SvgjsPath1164" d="M0,0 L13,4.5 L0,9 L0,0" fill="#323232" stroke="#323232" stroke-width="1"></path></marker><marker id="SvgjsMarker1167" markerWidth="13" markerHeight="9" refX="9.5" refY="4.5" viewBox="0 0 13 9" orient="auto" markerUnits="userSpaceOnUse" stroke-dasharray="0,0"><path id="SvgjsPath1168" d="M0,0 L13,4.5 L0,9 L0,0" fill="#323232" stroke="#323232" stroke-width="1"></path></marker><marker id="SvgjsMarker1171" markerWidth="13" markerHeight="9" refX="9.5" refY="4.5" viewBox="0 0 13 9" orient="auto" markerUnits="userSpaceOnUse" stroke-dasharray="0,0"><path id="SvgjsPath1172" d="M0,0 L13,4.5 L0,9 L0,0" fill="#323232" stroke="#323232" stroke-width="1"></path></marker><marker id="SvgjsMarker1175" markerWidth="13" markerHeight="9" refX="9.5" refY="4.5" viewBox="0 0 13 9" orient="auto" markerUnits="userSpaceOnUse" stroke-dasharray="0,0"><path id="SvgjsPath1176" d="M0,0 L13,4.5 L0,9 L0,0" fill="#323232" stroke="#323232" stroke-width="1"></path></marker><marker id="SvgjsMarker1179" markerWidth="13" markerHeight="9" refX="9.5" refY="4.5" viewBox="0 0 13 9" orient="auto" markerUnits="userSpaceOnUse" stroke-dasharray="0,0"><path id="SvgjsPath1180" d="M0,0 L13,4.5 L0,9 L0,0" fill="#323232" stroke="#323232" stroke-width="1"></path></marker><marker id="SvgjsMarker1183" markerWidth="13" markerHeight="9" refX="9.5" refY="4.5" viewBox="0 0 13 9" orient="auto" markerUnits="userSpaceOnUse" stroke-dasharray="0,0"><path id="SvgjsPath1184" d="M0,0 L13,4.5 L0,9 L0,0" fill="#323232" stroke="#323232" stroke-width="1"></path></marker></defs><rect id="svgbackgroundid" width="817" height="325" fill="transparent"></rect><rect id="SvgjsRect1009" width="817" height="325" fill="url(#pattern_mark_0)"></rect><rect id="SvgjsRect1010" width="817" height="325" fill="url(#pattern_mark_1)"></rect><g id="SvgjsG1011" transform="translate(333,25)"><path id="SvgjsPath1012" d="M 0 4Q 0 0 4 0L 455 0Q 459 0 459 4L 459 271Q 459 275 455 275L 4 275Q 0 275 0 271Z" stroke="rgba(33,41,48,1)" stroke-width="1.5" fill-opacity="1" fill="#dfdfdf"></path><g id="SvgjsG1013"><text id="SvgjsText1014" font-family="&quot;Comic Sans MS&quot;" text-anchor="middle" font-size="15px" width="439px" fill="#323232" font-weight="700" align="middle" lineHeight="125%" anchor="middle" family="&quot;Comic Sans MS&quot;" size="15px" weight="700" font-style="" opacity="1" y="12.625" transform="rotate(0)"><tspan id="SvgjsTspan1015" dy="18.75" x="229.5"><tspan id="SvgjsTspan1016" style=""> </tspan></tspan><tspan id="SvgjsTspan1017" dy="18.75" x="229.5"><tspan id="SvgjsTspan1018" style=""> </tspan></tspan><tspan id="SvgjsTspan1019" dy="18.75" x="229.5"><tspan id="SvgjsTspan1020" style=""> </tspan></tspan><tspan id="SvgjsTspan1021" dy="18.75" x="229.5"><tspan id="SvgjsTspan1022" style=""> </tspan></tspan><tspan id="SvgjsTspan1023" dy="18.75" x="229.5"><tspan id="SvgjsTspan1024" style=""> </tspan></tspan><tspan id="SvgjsTspan1025" dy="18.75" x="229.5"><tspan id="SvgjsTspan1026" style=""> </tspan></tspan><tspan id="SvgjsTspan1027" dy="18.75" x="229.5"><tspan id="SvgjsTspan1028" style=""> </tspan></tspan><tspan id="SvgjsTspan1029" dy="18.75" x="229.5"><tspan id="SvgjsTspan1030" style=""> </tspan></tspan><tspan id="SvgjsTspan1031" dy="18.75" x="229.5"><tspan id="SvgjsTspan1032" style=""> </tspan></tspan><tspan id="SvgjsTspan1033" dy="18.75" x="229.5"><tspan id="SvgjsTspan1034" style=""> </tspan></tspan><tspan id="SvgjsTspan1035" dy="18.75" x="229.5"><tspan id="SvgjsTspan1036" style=""> </tspan></tspan><tspan id="SvgjsTspan1037" dy="18.75" x="229.5"><tspan id="SvgjsTspan1038" style=""> </tspan></tspan><tspan id="SvgjsTspan1039" dy="18.75" x="229.5"><tspan id="SvgjsTspan1040" style="">数据库服务器</tspan></tspan></text></g></g><g id="SvgjsG1041" transform="translate(365,88)"><path id="SvgjsPath1042" d="M 0 4Q 0 0 4 0L 92 0Q 96 0 96 4L 96 145Q 96 149 92 149L 4 149Q 0 149 0 145Z" stroke="rgba(33,41,48,1)" stroke-width="1.5" fill-opacity="1" fill="#7396f6"></path><g id="SvgjsG1043"><text id="SvgjsText1044" font-family="&quot;Comic Sans MS&quot;" text-anchor="middle" font-size="15px" width="76px" fill="#323232" font-weight="700" align="middle" lineHeight="125%" anchor="middle" family="&quot;Comic Sans MS&quot;" size="15px" weight="700" font-style="" opacity="1" y="34.125" transform="rotate(0)"><tspan id="SvgjsTspan1045" dy="18.75" x="48"><tspan id="SvgjsTspan1046" style="">MySQL</tspan></tspan><tspan id="SvgjsTspan1047" dy="18.75" x="48"><tspan id="SvgjsTspan1048" style="">数据库管理</tspan></tspan><tspan id="SvgjsTspan1049" dy="18.75" x="48"><tspan id="SvgjsTspan1050" style="">系统</tspan></tspan><tspan id="SvgjsTspan1051" dy="18.75" x="48"><tspan id="SvgjsTspan1052" style="">(DBMS)</tspan></tspan></text></g></g><g id="SvgjsG1053" transform="translate(520.5,64.72030651340997)"><path id="SvgjsPath1054" d="M 15.225 0L 93.50989782886334 0C 103.67911877394636 0 103.67911877394636 47.940613026819925 93.50989782886334 47.940613026819925L 15.225 47.940613026819925C -5.075 47.940613026819925 -5.075 0 15.225 0ZM 93.50989782886334 0C 83.52227011494253 0 83.52227011494253 47.940613026819925 93.50989782886334 47.940613026819925C 83.52227011494253 47.940613026819925 83.52227011494253 0 93.50989782886334 0" stroke="rgba(33,41,48,1)" stroke-width="1.5" fill-opacity="1" fill="#9d9d9d"></path><g id="SvgjsG1055"><text id="SvgjsText1056" font-family="&quot;Comic Sans MS&quot;" text-anchor="middle" font-size="15px" width="82px" fill="#323232" font-weight="700" align="middle" lineHeight="125%" anchor="middle" family="&quot;Comic Sans MS&quot;" size="15px" weight="700" font-style="" opacity="1" y="11.595306513409962" transform="rotate(0)"><tspan id="SvgjsTspan1057" dy="18.75" x="41"><tspan id="SvgjsTspan1058" style="">数据库</tspan></tspan></text></g></g><g id="SvgjsG1059" transform="translate(520.5,210.27969348659002)"><path id="SvgjsPath1060" d="M 15.225 0L 93.50989782886334 0C 103.67911877394636 0 103.67911877394636 47.940613026819925 93.50989782886334 47.940613026819925L 15.225 47.940613026819925C -5.075 47.940613026819925 -5.075 0 15.225 0ZM 93.50989782886334 0C 83.52227011494253 0 83.52227011494253 47.940613026819925 93.50989782886334 47.940613026819925C 83.52227011494253 47.940613026819925 83.52227011494253 0 93.50989782886334 0" stroke="rgba(33,41,48,1)" stroke-width="1.5" fill-opacity="1" fill="#9d9d9d"></path><g id="SvgjsG1061"><text id="SvgjsText1062" font-family="&quot;Comic Sans MS&quot;" text-anchor="middle" font-size="15px" width="82px" fill="#323232" font-weight="700" align="middle" lineHeight="125%" anchor="middle" family="&quot;Comic Sans MS&quot;" size="15px" weight="700" font-style="" opacity="1" y="11.595306513409962" transform="rotate(0)"><tspan id="SvgjsTspan1063" dy="18.75" x="41"><tspan id="SvgjsTspan1064" style="">数据库</tspan></tspan></text></g></g><g id="SvgjsG1065" transform="translate(672,38.44061302681992)"><path id="SvgjsPath1066" d="M 0 0L 50 0L 50 20L 0 20Z" stroke="rgba(33,41,48,1)" stroke-width="1.5" fill-opacity="1" fill="#ccddfd"></path><g id="SvgjsG1067"><text id="SvgjsText1068" font-family="&quot;Comic Sans MS&quot;" text-anchor="middle" font-size="13px" width="30px" fill="#323232" font-weight="400" align="middle" lineHeight="125%" anchor="middle" family="&quot;Comic Sans MS&quot;" size="13px" weight="400" font-style="" opacity="1" y="-0.625" transform="rotate(0)"><tspan id="SvgjsTspan1069" dy="16.25" x="25"><tspan id="SvgjsTspan1070" style="">表1</tspan></tspan></text></g></g><g id="SvgjsG1071" transform="translate(672,78.69061302681992)"><path id="SvgjsPath1072" d="M 0 0L 50 0L 50 20L 0 20Z" stroke="rgba(33,41,48,1)" stroke-width="1.5" fill-opacity="1" fill="#ccddfd"></path><g id="SvgjsG1073"><text id="SvgjsText1074" font-family="&quot;Comic Sans MS&quot;" text-anchor="middle" font-size="13px" width="30px" fill="#323232" font-weight="400" align="middle" lineHeight="125%" anchor="middle" family="&quot;Comic Sans MS&quot;" size="13px" weight="400" font-style="" opacity="1" y="-0.625" transform="rotate(0)"><tspan id="SvgjsTspan1075" dy="16.25" x="25"><tspan id="SvgjsTspan1076" style="">表2</tspan></tspan></text></g></g><g id="SvgjsG1077" transform="translate(672,118.94061302681993)"><path id="SvgjsPath1078" d="M 0 0L 50 0L 50 20L 0 20Z" stroke="rgba(33,41,48,1)" stroke-width="1.5" fill-opacity="1" fill="#ccddfd"></path><g id="SvgjsG1079"><text id="SvgjsText1080" font-family="&quot;Comic Sans MS&quot;" text-anchor="middle" font-size="13px" width="30px" fill="#323232" font-weight="400" align="middle" lineHeight="125%" anchor="middle" family="&quot;Comic Sans MS&quot;" size="13px" weight="400" font-style="" opacity="1" y="-0.625" transform="rotate(0)"><tspan id="SvgjsTspan1081" dy="16.25" x="25"><tspan id="SvgjsTspan1082" style="">表3</tspan></tspan></text></g></g><g id="SvgjsG1083" transform="translate(672,184)"><path id="SvgjsPath1084" d="M 0 0L 50 0L 50 20L 0 20Z" stroke="rgba(33,41,48,1)" stroke-width="1.5" fill-opacity="1" fill="#ccddfd"></path><g id="SvgjsG1085"><text id="SvgjsText1086" font-family="&quot;Comic Sans MS&quot;" text-anchor="middle" font-size="13px" width="30px" fill="#323232" font-weight="400" align="middle" lineHeight="125%" anchor="middle" family="&quot;Comic Sans MS&quot;" size="13px" weight="400" font-style="" opacity="1" y="-0.625" transform="rotate(0)"><tspan id="SvgjsTspan1087" dy="16.25" x="25"><tspan id="SvgjsTspan1088" style="">表1</tspan></tspan></text></g></g><g id="SvgjsG1089" transform="translate(672,224.25)"><path id="SvgjsPath1090" d="M 0 0L 50 0L 50 20L 0 20Z" stroke="rgba(33,41,48,1)" stroke-width="1.5" fill-opacity="1" fill="#ccddfd"></path><g id="SvgjsG1091"><text id="SvgjsText1092" font-family="&quot;Comic Sans MS&quot;" text-anchor="middle" font-size="13px" width="30px" fill="#323232" font-weight="400" align="middle" lineHeight="125%" anchor="middle" family="&quot;Comic Sans MS&quot;" size="13px" weight="400" font-style="" opacity="1" y="-0.625" transform="rotate(0)"><tspan id="SvgjsTspan1093" dy="16.25" x="25"><tspan id="SvgjsTspan1094" style="">表2</tspan></tspan></text></g></g><g id="SvgjsG1095" transform="translate(672,264.5)"><path id="SvgjsPath1096" d="M 0 0L 50 0L 50 20L 0 20Z" stroke="rgba(33,41,48,1)" stroke-width="1.5" fill-opacity="1" fill="#ccddfd"></path><g id="SvgjsG1097"><text id="SvgjsText1098" font-family="&quot;Comic Sans MS&quot;" text-anchor="middle" font-size="13px" width="30px" fill="#323232" font-weight="400" align="middle" lineHeight="125%" anchor="middle" family="&quot;Comic Sans MS&quot;" size="13px" weight="400" font-style="" opacity="1" y="-0.625" transform="rotate(0)"><tspan id="SvgjsTspan1099" dy="16.25" x="25"><tspan id="SvgjsTspan1100" style="">表3</tspan></tspan></text></g></g><g id="SvgjsG1101" transform="translate(209.5,88.00000000000001)"><path id="SvgjsPath1102" d="M 0 4Q 0 0 4 0L 92 0Q 96 0 96 4L 96 145Q 96 149 92 149L 4 149Q 0 149 0 145Z" stroke="rgba(33,41,48,1)" stroke-width="1.5" fill-opacity="1" fill="#be7170"></path><g id="SvgjsG1103"><text id="SvgjsText1104" font-family="&quot;Comic Sans MS&quot;" text-anchor="middle" font-size="15px" width="76px" fill="#323232" font-weight="700" align="middle" lineHeight="125%" anchor="middle" family="&quot;Comic Sans MS&quot;" size="15px" weight="700" font-style="" opacity="1" y="52.625" transform="rotate(0)"><tspan id="SvgjsTspan1105" dy="18.75" x="48"><tspan id="SvgjsTspan1106" style="">Web</tspan></tspan><tspan id="SvgjsTspan1107" dy="18.75" x="48"><tspan id="SvgjsTspan1108" style="">服务器</tspan></tspan></text></g></g><g id="SvgjsG1109" transform="translate(25,39.47030651340994)"><path id="SvgjsPath1110" d="M 0 34.99999999999999C 0 -11.666666666666664 70 -11.666666666666664 70 34.99999999999999C 70 81.66666666666666 0 81.66666666666666 0 34.99999999999999Z" stroke="rgba(33,41,48,1)" stroke-width="1.5" fill-opacity="1" fill="#a166c9"></path><g id="SvgjsG1111"><text id="SvgjsText1112" font-family="&quot;Comic Sans MS&quot;" text-anchor="middle" font-size="13px" width="50px" fill="#323232" font-weight="400" align="middle" lineHeight="125%" anchor="middle" family="&quot;Comic Sans MS&quot;" size="13px" weight="400" font-style="" opacity="1" y="24.374999999999993" transform="rotate(0)"><tspan id="SvgjsTspan1113" dy="16.25" x="35"><tspan id="SvgjsTspan1114" style="">客户端1</tspan></tspan></text></g></g><g id="SvgjsG1115" transform="translate(25,127.49999999999999)"><path id="SvgjsPath1116" d="M 0 34.99999999999999C 0 -11.666666666666664 70 -11.666666666666664 70 34.99999999999999C 70 81.66666666666666 0 81.66666666666666 0 34.99999999999999Z" stroke="rgba(33,41,48,1)" stroke-width="1.5" fill-opacity="1" fill="#a166c9"></path><g id="SvgjsG1117"><text id="SvgjsText1118" font-family="&quot;Comic Sans MS&quot;" text-anchor="middle" font-size="13px" width="50px" fill="#323232" font-weight="400" align="middle" lineHeight="125%" anchor="middle" family="&quot;Comic Sans MS&quot;" size="13px" weight="400" font-style="" opacity="1" y="24.374999999999993" transform="rotate(0)"><tspan id="SvgjsTspan1119" dy="16.25" x="35"><tspan id="SvgjsTspan1120" style="">客户端1</tspan></tspan></text></g></g><g id="SvgjsG1121" transform="translate(25,215.52969348659002)"><path id="SvgjsPath1122" d="M 0 34.99999999999999C 0 -11.666666666666664 70 -11.666666666666664 70 34.99999999999999C 70 81.66666666666666 0 81.66666666666666 0 34.99999999999999Z" stroke="rgba(33,41,48,1)" stroke-width="1.5" fill-opacity="1" fill="#a166c9"></path><g id="SvgjsG1123"><text id="SvgjsText1124" font-family="&quot;Comic Sans MS&quot;" text-anchor="middle" font-size="13px" width="50px" fill="#323232" font-weight="400" align="middle" lineHeight="125%" anchor="middle" family="&quot;Comic Sans MS&quot;" size="13px" weight="400" font-style="" opacity="1" y="24.374999999999993" transform="rotate(0)"><tspan id="SvgjsTspan1125" dy="16.25" x="35"><tspan id="SvgjsTspan1126" style="">客户端1</tspan></tspan></text></g></g><g id="SvgjsG1127"><path id="SvgjsPath1128" d="M95.59458649818117 74.92743548446803L207.35948860654776 160.8543357041908" stroke="#323232" stroke-width="1.5" fill="none" marker-end="url(#SvgjsMarker1129)"></path></g><g id="SvgjsG1131"><path id="SvgjsPath1132" d="M95.75 162.49999999999997L206.8 162.49999999999997" stroke="#323232" stroke-width="1.5" fill="none" marker-end="url(#SvgjsMarker1133)"></path></g><g id="SvgjsG1135"><path id="SvgjsPath1136" d="M95.59458649818117 250.0725645155319L207.35948860654776 164.1456642958092" stroke="#323232" stroke-width="1.5" fill="none" marker-end="url(#SvgjsMarker1137)"></path></g><g id="SvgjsG1139"><path id="SvgjsPath1140" d="M308.2 162.5L362.3 162.5" stroke="#323232" stroke-width="1.5" fill="none" marker-start="url(#SvgjsMarker1141)" marker-end="url(#SvgjsMarker1143)"></path></g><g id="SvgjsG1145"><path id="SvgjsPath1146" d="M461.47070072870747 161.91609861792057L518.8054773766531 90.7926580023059" stroke="#323232" stroke-width="1.5" fill="none" marker-end="url(#SvgjsMarker1147)"></path><rect id="SvgjsRect1149" width="17" height="18" x="479.8416785913372" y="119.58281452698623" fill="#ffffff"></rect><text id="SvgjsText1150" font-family="&quot;Comic Sans MS&quot;" text-anchor="middle" font-size="13px" width="17px" fill="#323232" font-weight="400" align="top" lineHeight="16px" anchor="middle" family="&quot;Comic Sans MS&quot;" size="13px" weight="400" font-style="" opacity="1" y="116.95781452698623" transform="rotate(0)"><tspan id="SvgjsTspan1151" dy="16.25" x="488.3416785913372"><tspan id="SvgjsTspan1152" style="">sql</tspan></tspan></text></g><g id="SvgjsG1153"><path id="SvgjsPath1154" d="M461.4787519021959 163.07731847029504L518.7764931520948 232.1716535069378" stroke="#323232" stroke-width="1.5" fill="none" marker-end="url(#SvgjsMarker1155)"></path><rect id="SvgjsRect1157" width="17" height="18" x="477.0588641168922" y="183.11510084684065" fill="#ffffff"></rect><text id="SvgjsText1158" font-family="&quot;Comic Sans MS&quot;" text-anchor="middle" font-size="13px" width="17px" fill="#323232" font-weight="400" align="top" lineHeight="16px" anchor="middle" family="&quot;Comic Sans MS&quot;" size="13px" weight="400" font-style="" opacity="1" y="180.49010084684065" transform="rotate(0)"><tspan id="SvgjsTspan1159" dy="16.25" x="485.5588641168922"><tspan id="SvgjsTspan1160" style="">sql</tspan></tspan></text></g><g id="SvgjsG1161"><path id="SvgjsPath1162" d="M622.5842239620031 88.22031273740747L669.8967937367889 50.13369406870479" stroke="#323232" stroke-width="1.5" fill="none" marker-end="url(#SvgjsMarker1163)"></path></g><g id="SvgjsG1165"><path id="SvgjsPath1166" d="M622.75 88.69061302681993L669.3 88.69061302681993" stroke="#323232" stroke-width="1.5" fill="none" marker-end="url(#SvgjsMarker1167)"></path></g><g id="SvgjsG1169"><path id="SvgjsPath1170" d="M622.5842239620031 89.1609133162324L669.8967937367889 127.24753198493507" stroke="#323232" stroke-width="1.5" fill="none" marker-end="url(#SvgjsMarker1171)"></path></g><g id="SvgjsG1173"><path id="SvgjsPath1174" d="M622.5842239620031 233.77969971058752L669.8967937367889 195.69308104188488" stroke="#323232" stroke-width="1.5" fill="none" marker-end="url(#SvgjsMarker1175)"></path></g><g id="SvgjsG1177"><path id="SvgjsPath1178" d="M622.75 234.24999999999997L669.3 234.24999999999997" stroke="#323232" stroke-width="1.5" fill="none" marker-end="url(#SvgjsMarker1179)"></path></g><g id="SvgjsG1181"><path id="SvgjsPath1182" d="M622.5842239620031 234.72030028941245L669.8967937367889 272.80691895811515" stroke="#323232" stroke-width="1.5" fill="none" marker-end="url(#SvgjsMarker1183)"></path></g></svg>