<svg id="SvgjsSvg1006" width="556.3724113724113" height="531" xmlns="http://www.w3.org/2000/svg" version="1.1" xmlns:xlink="http://www.w3.org/1999/xlink" xmlns:svgjs="http://svgjs.com/svgjs"><defs id="SvgjsDefs1007"><pattern patternUnits="userSpaceOnUse" id="pattern_mark_0" width="300" height="300"><text x="150" y="100" fill="rgba(229,229,229,0.8)" font-size="18" transform="rotate(-45, 150, 150)" style="dominant-baseline: middle; text-anchor: middle;"></text></pattern><pattern patternUnits="userSpaceOnUse" id="pattern_mark_1" width="300" height="300"><text x="150" y="200" fill="rgba(229,229,229,0.8)" font-size="18" transform="rotate(-45, 150, 150)" style="dominant-baseline: middle; text-anchor: middle;"></text></pattern><marker id="SvgjsMarker1081" markerWidth="13" markerHeight="9" refX="9.5" refY="4.5" viewBox="0 0 13 9" orient="auto" markerUnits="userSpaceOnUse" stroke-dasharray="0,0"><path id="SvgjsPath1082" d="M0,0 L13,4.5 L0,9 L0,0" fill="#323232" stroke="#323232" stroke-width="1"></path></marker><marker id="SvgjsMarker1089" markerWidth="13" markerHeight="9" refX="3.5" refY="4.5" viewBox="0 0 13 9" orient="auto" markerUnits="userSpaceOnUse" stroke-dasharray="0,0"><path id="SvgjsPath1090" d="M13,0 L0,4.5 L13,9 L13,0" fill="#323232" stroke="#323232" stroke-width="1"></path></marker><marker id="SvgjsMarker1097" markerWidth="13" markerHeight="9" refX="3.5" refY="4.5" viewBox="0 0 13 9" orient="auto" markerUnits="userSpaceOnUse" stroke-dasharray="0,0"><path id="SvgjsPath1098" d="M13,0 L0,4.5 L13,9 L13,0" fill="#323232" stroke="#323232" stroke-width="1"></path></marker><marker id="SvgjsMarker1111" markerWidth="13" markerHeight="9" refX="3.5" refY="4.5" viewBox="0 0 13 9" orient="auto" markerUnits="userSpaceOnUse" stroke-dasharray="0,0"><path id="SvgjsPath1112" d="M13,0 L0,4.5 L13,9 L13,0" fill="#323232" stroke="#323232" stroke-width="1"></path></marker><marker id="SvgjsMarker1131" markerWidth="13" markerHeight="9" refX="9.5" refY="4.5" viewBox="0 0 13 9" orient="auto" markerUnits="userSpaceOnUse" stroke-dasharray="0,0"><path id="SvgjsPath1132" d="M0,0 L13,4.5 L0,9 L0,0" fill="#323232" stroke="#323232" stroke-width="1"></path></marker><marker id="SvgjsMarker1135" markerWidth="13" markerHeight="9" refX="9.5" refY="4.5" viewBox="0 0 13 9" orient="auto" markerUnits="userSpaceOnUse" stroke-dasharray="0,0"><path id="SvgjsPath1136" d="M0,0 L13,4.5 L0,9 L0,0" fill="#323232" stroke="#323232" stroke-width="1"></path></marker><marker id="SvgjsMarker1139" markerWidth="13" markerHeight="9" refX="9.5" refY="4.5" viewBox="0 0 13 9" orient="auto" markerUnits="userSpaceOnUse" stroke-dasharray="0,0"><path id="SvgjsPath1140" d="M0,0 L13,4.5 L0,9 L0,0" fill="#323232" stroke="#323232" stroke-width="1"></path></marker><marker id="SvgjsMarker1143" markerWidth="13" markerHeight="9" refX="9.5" refY="4.5" viewBox="0 0 13 9" orient="auto" markerUnits="userSpaceOnUse" stroke-dasharray="0,0"><path id="SvgjsPath1144" d="M0,0 L13,4.5 L0,9 L0,0" fill="#323232" stroke="#323232" stroke-width="1"></path></marker><marker id="SvgjsMarker1147" markerWidth="13" markerHeight="9" refX="3.5" refY="4.5" viewBox="0 0 13 9" orient="auto" markerUnits="userSpaceOnUse" stroke-dasharray="0,0"><path id="SvgjsPath1148" d="M13,0 L0,4.5 L13,9 L13,0" fill="#323232" stroke="#323232" stroke-width="1"></path></marker><marker id="SvgjsMarker1155" markerWidth="13" markerHeight="9" refX="3.5" refY="4.5" viewBox="0 0 13 9" orient="auto" markerUnits="userSpaceOnUse" stroke-dasharray="0,0"><path id="SvgjsPath1156" d="M13,0 L0,4.5 L13,9 L13,0" fill="#323232" stroke="#323232" stroke-width="1"></path></marker></defs><rect id="svgbackgroundid" width="556.3724113724113" height="531" fill="transparent"></rect><rect id="SvgjsRect1009" width="556.3724113724113" height="531" fill="url(#pattern_mark_0)"></rect><rect id="SvgjsRect1010" width="556.3724113724113" height="531" fill="url(#pattern_mark_1)"></rect><g id="SvgjsG1011" transform="translate(209,192)"><path id="SvgjsPath1012" d="M 17.64 49C -14.700000000000001 35 5.88 24.5 13.229999999999999 21C 10.290000000000001 3.5 47.04 0 61.739999999999995 7C 73.5 -3.5 110.25 0 110.25 10.5C 139.65 7 151.41 21 139.65 38.5C 149.94 52.5 139.65 70 105.83999999999999 63C 98.49000000000001 72.10000000000001 69.08999999999999 72.10000000000001 61.739999999999995 63C 47.04 70 17.64 66.5 17.64 49Z" stroke="rgba(33,41,48,1)" stroke-width="1.5" fill-opacity="1" fill="#f9e0ae"></path><g id="SvgjsG1013"><text id="SvgjsText1014" font-family="&quot;Microsoft YaHei&quot;, 微软雅黑, Arial" text-anchor="middle" font-size="13px" width="127px" fill="#000000" font-weight="400" align="middle" lineHeight="125%" anchor="middle" family="&quot;Microsoft YaHei&quot;, 微软雅黑, Arial" size="13px" weight="400" font-style="" opacity="1" y="24.375" transform="rotate(0)"><tspan id="SvgjsTspan1015" dy="16.25" x="73.5"><tspan id="SvgjsTspan1016" style="">MyCat</tspan></tspan></text></g></g><g id="SvgjsG1017" transform="translate(35,85)"><path id="SvgjsPath1018" d="M 0 4Q 0 0 4 0L 76 0Q 80 0 80 4L 80 36Q 80 40 76 40L 4 40Q 0 40 0 36Z" stroke="rgba(33,41,48,1)" stroke-width="1.5" fill-opacity="1" fill="#c3defd"></path><g id="SvgjsG1019"><text id="SvgjsText1020" font-family="&quot;Microsoft YaHei&quot;, 微软雅黑, Arial" text-anchor="middle" font-size="13px" width="60px" fill="#000000" font-weight="400" align="middle" lineHeight="125%" anchor="middle" family="&quot;Microsoft YaHei&quot;, 微软雅黑, Arial" size="13px" weight="400" font-style="" opacity="1" y="9.375" transform="rotate(0)"><tspan id="SvgjsTspan1021" dy="16.25" x="40"><tspan id="SvgjsTspan1022" style="">客户端1</tspan></tspan></text></g></g><g id="SvgjsG1023" transform="translate(35,163)"><path id="SvgjsPath1024" d="M 0 4Q 0 0 4 0L 76 0Q 80 0 80 4L 80 36Q 80 40 76 40L 4 40Q 0 40 0 36Z" stroke="rgba(33,41,48,1)" stroke-width="1.5" fill-opacity="1" fill="#c3defd"></path><g id="SvgjsG1025"><text id="SvgjsText1026" font-family="&quot;Microsoft YaHei&quot;, 微软雅黑, Arial" text-anchor="middle" font-size="13px" width="60px" fill="#000000" font-weight="400" align="middle" lineHeight="125%" anchor="middle" family="&quot;Microsoft YaHei&quot;, 微软雅黑, Arial" size="13px" weight="400" font-style="" opacity="1" y="9.375" transform="rotate(0)"><tspan id="SvgjsTspan1027" dy="16.25" x="40"><tspan id="SvgjsTspan1028" style="">客户端2</tspan></tspan></text></g></g><g id="SvgjsG1029" transform="translate(35,328)"><path id="SvgjsPath1030" d="M 0 4Q 0 0 4 0L 76 0Q 80 0 80 4L 80 36Q 80 40 76 40L 4 40Q 0 40 0 36Z" stroke="rgba(33,41,48,1)" stroke-width="1.5" fill-opacity="1" fill="#c3defd"></path><g id="SvgjsG1031"><text id="SvgjsText1032" font-family="&quot;Microsoft YaHei&quot;, 微软雅黑, Arial" text-anchor="middle" font-size="13px" width="60px" fill="#000000" font-weight="400" align="middle" lineHeight="125%" anchor="middle" family="&quot;Microsoft YaHei&quot;, 微软雅黑, Arial" size="13px" weight="400" font-style="" opacity="1" y="9.375" transform="rotate(0)"><tspan id="SvgjsTspan1033" dy="16.25" x="40"><tspan id="SvgjsTspan1034" style="">客户端N</tspan></tspan></text></g></g><g id="SvgjsG1035" transform="translate(25,241)"><path id="SvgjsPath1036" d="M 0 0L 100 0L 100 49L 0 49Z" stroke="none" fill="none"></path><g id="SvgjsG1037"><text id="SvgjsText1038" font-family="&quot;Microsoft YaHei&quot;, 微软雅黑, Arial" text-anchor="middle" font-size="13px" width="100px" fill="#000000" font-weight="400" align="middle" lineHeight="125%" anchor="middle" family="&quot;Microsoft YaHei&quot;, 微软雅黑, Arial" size="13px" weight="400" font-style="" opacity="1" y="-2.625" transform="rotate(0)"><tspan id="SvgjsTspan1039" dy="16.25" x="50"><tspan id="SvgjsTspan1040" style="">•</tspan></tspan><tspan id="SvgjsTspan1041" dy="16.25" x="50"><tspan id="SvgjsTspan1042" style="">•</tspan></tspan><tspan id="SvgjsTspan1043" dy="16.25" x="50"><tspan id="SvgjsTspan1044" style="">•</tspan></tspan></text></g></g><g id="SvgjsG1045"><path id="SvgjsPath1046" d="M115.45775360648452 105.59410574458629L208.54224639351548 226.40589425541373" stroke="#323232" stroke-width="1.5" fill="none"></path></g><g id="SvgjsG1047"><path id="SvgjsPath1048" d="M115.67926766991883 183.31795507953646L208.32073233008117 226.68204492046354" stroke="#323232" stroke-width="1.5" fill="none"></path></g><g id="SvgjsG1049"><path id="SvgjsPath1050" d="M115.46011651002135 347.40772236475976L208.53988348997865 227.59227763524024" stroke="#323232" stroke-width="1.5" fill="none"></path></g><g id="SvgjsG1051" transform="translate(440,25)"><path id="SvgjsPath1052" d="M 0 4Q 0 0 4 0L 87.37241137241135 0Q 91.37241137241135 0 91.37241137241135 4L 91.37241137241135 26Q 91.37241137241135 30 87.37241137241135 30L 4 30Q 0 30 0 26Z" stroke="rgba(33,41,48,1)" stroke-width="1.5" fill-opacity="1" fill="#cbe6c7"></path><g id="SvgjsG1053"><text id="SvgjsText1054" font-family="&quot;Microsoft YaHei&quot;, 微软雅黑, Arial" text-anchor="middle" font-size="13px" width="72px" fill="#000000" font-weight="400" align="middle" lineHeight="125%" anchor="middle" family="&quot;Microsoft YaHei&quot;, 微软雅黑, Arial" size="13px" weight="400" font-style="" opacity="1" y="4.375" transform="rotate(0)"><tspan id="SvgjsTspan1055" dy="16.25" x="46"><tspan id="SvgjsTspan1056" style="">master1</tspan></tspan></text></g></g><g id="SvgjsG1057" transform="translate(440,103)"><path id="SvgjsPath1058" d="M 0 4Q 0 0 4 0L 87.37241137241135 0Q 91.37241137241135 0 91.37241137241135 4L 91.37241137241135 26Q 91.37241137241135 30 87.37241137241135 30L 4 30Q 0 30 0 26Z" stroke="rgba(33,41,48,1)" stroke-width="1.5" fill-opacity="1" fill="#cbe6c7"></path><g id="SvgjsG1059"><text id="SvgjsText1060" font-family="&quot;Microsoft YaHei&quot;, 微软雅黑, Arial" text-anchor="middle" font-size="13px" width="72px" fill="#000000" font-weight="400" align="middle" lineHeight="125%" anchor="middle" family="&quot;Microsoft YaHei&quot;, 微软雅黑, Arial" size="13px" weight="400" font-style="" opacity="1" y="4.375" transform="rotate(0)"><tspan id="SvgjsTspan1061" dy="16.25" x="46"><tspan id="SvgjsTspan1062" style="">salve1</tspan></tspan></text></g></g><g id="SvgjsG1063" transform="translate(440,398)"><path id="SvgjsPath1064" d="M 0 4Q 0 0 4 0L 87.37241137241135 0Q 91.37241137241135 0 91.37241137241135 4L 91.37241137241135 26Q 91.37241137241135 30 87.37241137241135 30L 4 30Q 0 30 0 26Z" stroke="rgba(33,41,48,1)" stroke-width="1.5" fill-opacity="1" fill="#cbe6c7"></path><g id="SvgjsG1065"><text id="SvgjsText1066" font-family="&quot;Microsoft YaHei&quot;, 微软雅黑, Arial" text-anchor="middle" font-size="13px" width="72px" fill="#000000" font-weight="400" align="middle" lineHeight="125%" anchor="middle" family="&quot;Microsoft YaHei&quot;, 微软雅黑, Arial" size="13px" weight="400" font-style="" opacity="1" y="4.375" transform="rotate(0)"><tspan id="SvgjsTspan1067" dy="16.25" x="46"><tspan id="SvgjsTspan1068" style="">master N</tspan></tspan></text></g></g><g id="SvgjsG1069" transform="translate(430,321)"><path id="SvgjsPath1070" d="M 0 0L 100 0L 100 49L 0 49Z" stroke="none" fill="none"></path><g id="SvgjsG1071"><text id="SvgjsText1072" font-family="&quot;Microsoft YaHei&quot;, 微软雅黑, Arial" text-anchor="middle" font-size="13px" width="100px" fill="#323232" font-weight="400" align="middle" lineHeight="125%" anchor="middle" family="&quot;Microsoft YaHei&quot;, 微软雅黑, Arial" size="13px" weight="400" font-style="" opacity="1" y="-2.625" transform="rotate(0)"><tspan id="SvgjsTspan1073" dy="16.25" x="50"><tspan id="SvgjsTspan1074" style="">•</tspan></tspan><tspan id="SvgjsTspan1075" dy="16.25" x="50"><tspan id="SvgjsTspan1076" style="">•</tspan></tspan><tspan id="SvgjsTspan1077" dy="16.25" x="50"><tspan id="SvgjsTspan1078" style="">•</tspan></tspan></text></g></g><g id="SvgjsG1079"><path id="SvgjsPath1080" d="M348.79242602682405 230.4366693225206L438.83372613677386 42.43511915025847" stroke="#323232" stroke-width="1.5" fill="none" marker-end="url(#SvgjsMarker1081)"></path><rect id="SvgjsRect1083" width="13" height="18" x="394.2953007395483" y="112.85737240579667" fill="#ffffff"></rect><text id="SvgjsText1084" font-family="&quot;Microsoft YaHei&quot;, 微软雅黑, Arial" text-anchor="middle" font-size="13px" width="13px" fill="#323232" font-weight="400" align="top" lineHeight="16px" anchor="middle" family="&quot;Microsoft YaHei&quot;, 微软雅黑, Arial" size="13px" weight="400" font-style="" opacity="1" y="110.23237240579667" transform="rotate(0)"><tspan id="SvgjsTspan1085" dy="16.25" x="400.7953007395483"><tspan id="SvgjsTspan1086" style="">写</tspan></tspan></text></g><g id="SvgjsG1087"><path id="SvgjsPath1088" d="M438.2896025265235 120.089148267291L349.48484234055746 228.5588541378237" stroke-dasharray="7.5,3" stroke="#323232" stroke-width="1.5" fill="none" marker-start="url(#SvgjsMarker1089)"></path><rect id="SvgjsRect1091" width="13" height="18" x="399.7293514026862" y="150.24882847199706" fill="#ffffff"></rect><text id="SvgjsText1092" font-family="&quot;Microsoft YaHei&quot;, 微软雅黑, Arial" text-anchor="middle" font-size="13px" width="13px" fill="#323232" font-weight="400" align="top" lineHeight="16px" anchor="middle" family="&quot;Microsoft YaHei&quot;, 微软雅黑, Arial" size="13px" weight="400" font-style="" opacity="1" y="147.62382847199706" transform="rotate(0)"><tspan id="SvgjsTspan1093" dy="16.25" x="406.2293514026862"><tspan id="SvgjsTspan1094" style="">读</tspan></tspan></text></g><g id="SvgjsG1095"><path id="SvgjsPath1096" d="M438.8242680745675 410.5694333089753L350.32796266675444 227.6228214579306" stroke="#323232" stroke-width="1.5" fill="none" marker-start="url(#SvgjsMarker1097)"></path><rect id="SvgjsRect1099" width="13" height="18" x="393.4979785898232" y="321.3046349171241" fill="#ffffff"></rect><text id="SvgjsText1100" font-family="&quot;Microsoft YaHei&quot;, 微软雅黑, Arial" text-anchor="middle" font-size="13px" width="13px" fill="#323232" font-weight="400" align="top" lineHeight="16px" anchor="middle" family="&quot;Microsoft YaHei&quot;, 微软雅黑, Arial" size="13px" weight="400" font-style="" opacity="1" y="318.6796349171241" transform="rotate(0)"><tspan id="SvgjsTspan1101" dy="16.25" x="399.9979785898232"><tspan id="SvgjsTspan1102" style="">写</tspan></tspan></text></g><g id="SvgjsG1103" transform="translate(440,476)"><path id="SvgjsPath1104" d="M 0 4Q 0 0 4 0L 87.37241137241135 0Q 91.37241137241135 0 91.37241137241135 4L 91.37241137241135 26Q 91.37241137241135 30 87.37241137241135 30L 4 30Q 0 30 0 26Z" stroke="rgba(33,41,48,1)" stroke-width="1.5" fill-opacity="1" fill="#cbe6c7"></path><g id="SvgjsG1105"><text id="SvgjsText1106" font-family="&quot;Microsoft YaHei&quot;, 微软雅黑, Arial" text-anchor="middle" font-size="13px" width="72px" fill="#000000" font-weight="400" align="middle" lineHeight="125%" anchor="middle" family="&quot;Microsoft YaHei&quot;, 微软雅黑, Arial" size="13px" weight="400" font-style="" opacity="1" y="4.375" transform="rotate(0)"><tspan id="SvgjsTspan1107" dy="16.25" x="46"><tspan id="SvgjsTspan1108" style="">slave N</tspan></tspan></text></g></g><g id="SvgjsG1109"><path id="SvgjsPath1110" d="M439.1107442860455 488.45064237989266L349.0579546575902 230.28332127232412" stroke-dasharray="7.5,3" stroke="#323232" stroke-width="1.5" fill="none" marker-start="url(#SvgjsMarker1111)"></path><rect id="SvgjsRect1113" width="13" height="18" x="390.10012007555605" y="357.5793042868336" fill="#ffffff"></rect><text id="SvgjsText1114" font-family="&quot;Microsoft YaHei&quot;, 微软雅黑, Arial" text-anchor="middle" font-size="13px" width="13px" fill="#323232" font-weight="400" align="top" lineHeight="16px" anchor="middle" family="&quot;Microsoft YaHei&quot;, 微软雅黑, Arial" size="13px" weight="400" font-style="" opacity="1" y="354.9543042868336" transform="rotate(0)"><tspan id="SvgjsTspan1115" dy="16.25" x="396.60012007555605"><tspan id="SvgjsTspan1116" style="">读</tspan></tspan></text></g><g id="SvgjsG1117" transform="translate(440,181)"><path id="SvgjsPath1118" d="M 0 4Q 0 0 4 0L 87.37241137241135 0Q 91.37241137241135 0 91.37241137241135 4L 91.37241137241135 26Q 91.37241137241135 30 87.37241137241135 30L 4 30Q 0 30 0 26Z" stroke="rgba(33,41,48,1)" stroke-width="1.5" fill-opacity="1" fill="#cbe6c7"></path><g id="SvgjsG1119"><text id="SvgjsText1120" font-family="&quot;Microsoft YaHei&quot;, 微软雅黑, Arial" text-anchor="middle" font-size="13px" width="72px" fill="#000000" font-weight="400" align="middle" lineHeight="125%" anchor="middle" family="&quot;Microsoft YaHei&quot;, 微软雅黑, Arial" size="13px" weight="400" font-style="" opacity="1" y="4.375" transform="rotate(0)"><tspan id="SvgjsTspan1121" dy="16.25" x="46"><tspan id="SvgjsTspan1122" style="">master2</tspan></tspan></text></g></g><g id="SvgjsG1123" transform="translate(440,259)"><path id="SvgjsPath1124" d="M 0 4Q 0 0 4 0L 87.37241137241135 0Q 91.37241137241135 0 91.37241137241135 4L 91.37241137241135 26Q 91.37241137241135 30 87.37241137241135 30L 4 30Q 0 30 0 26Z" stroke="rgba(33,41,48,1)" stroke-width="1.5" fill-opacity="1" fill="#cbe6c7"></path><g id="SvgjsG1125"><text id="SvgjsText1126" font-family="&quot;Microsoft YaHei&quot;, 微软雅黑, Arial" text-anchor="middle" font-size="13px" width="72px" fill="#000000" font-weight="400" align="middle" lineHeight="125%" anchor="middle" family="&quot;Microsoft YaHei&quot;, 微软雅黑, Arial" size="13px" weight="400" font-style="" opacity="1" y="4.375" transform="rotate(0)"><tspan id="SvgjsTspan1127" dy="16.25" x="46"><tspan id="SvgjsTspan1128" style="">slave2</tspan></tspan></text></g></g><g id="SvgjsG1129"><path id="SvgjsPath1130" d="M485.68620568620565 55.75L485.68620568620565 79L485.68620568620565 79L485.68620568620565 100.3" stroke="#323232" stroke-width="1.5" fill="none" marker-end="url(#SvgjsMarker1131)"></path></g><g id="SvgjsG1133"><path id="SvgjsPath1134" d="M485.68620568620565 133.75L485.68620568620565 157L485.68620568620565 157L485.68620568620565 178.3" stroke="#323232" stroke-width="1.5" fill="none" marker-end="url(#SvgjsMarker1135)"></path></g><g id="SvgjsG1137"><path id="SvgjsPath1138" d="M485.68620568620565 211.75L485.68620568620565 235L485.68620568620565 235L485.68620568620565 256.3" stroke="#323232" stroke-width="1.5" fill="none" marker-end="url(#SvgjsMarker1139)"></path></g><g id="SvgjsG1141"><path id="SvgjsPath1142" d="M485.68620568620565 428.75L485.68620568620565 452L485.68620568620565 452L485.68620568620565 473.3" stroke="#323232" stroke-width="1.5" fill="none" marker-end="url(#SvgjsMarker1143)"></path></g><g id="SvgjsG1145"><path id="SvgjsPath1146" d="M437.4649598341829 196.92928540163592L349.7345623178137 229.08916152154612" stroke="#323232" stroke-width="1.5" fill="none" marker-start="url(#SvgjsMarker1147)"></path><rect id="SvgjsRect1149" width="13" height="18" x="396.6197958095597" y="200.5194052645237" fill="#ffffff"></rect><text id="SvgjsText1150" font-family="&quot;Microsoft YaHei&quot;, 微软雅黑, Arial" text-anchor="middle" font-size="13px" width="13px" fill="#323232" font-weight="400" align="top" lineHeight="16px" anchor="middle" family="&quot;Microsoft YaHei&quot;, 微软雅黑, Arial" size="13px" weight="400" font-style="" opacity="1" y="197.8944052645237" transform="rotate(0)"><tspan id="SvgjsTspan1151" dy="16.25" x="403.1197958095597"><tspan id="SvgjsTspan1152" style="">写</tspan></tspan></text></g><g id="SvgjsG1153"><path id="SvgjsPath1154" d="M437.5525900203263 272.8597437167927L348.96091274435497 231.58459264166856" stroke-dasharray="7.5,3" stroke="#323232" stroke-width="1.5" fill="none" marker-start="url(#SvgjsMarker1155)"></path><rect id="SvgjsRect1157" width="13" height="18" x="396.6198089070797" y="247.8173988139108" fill="#ffffff"></rect><text id="SvgjsText1158" font-family="&quot;Microsoft YaHei&quot;, 微软雅黑, Arial" text-anchor="middle" font-size="13px" width="13px" fill="#323232" font-weight="400" align="top" lineHeight="16px" anchor="middle" family="&quot;Microsoft YaHei&quot;, 微软雅黑, Arial" size="13px" weight="400" font-style="" opacity="1" y="245.1923988139108" transform="rotate(0)"><tspan id="SvgjsTspan1159" dy="16.25" x="403.1198089070797"><tspan id="SvgjsTspan1160" style="">读</tspan></tspan></text></g><g id="SvgjsG1161"></g></svg>