<svg id="SvgjsSvg1204" width="1211.2232142857142" height="430" xmlns="http://www.w3.org/2000/svg" version="1.1" xmlns:xlink="http://www.w3.org/1999/xlink" xmlns:svgjs="http://svgjs.com/svgjs"><defs id="SvgjsDefs1205"><pattern patternUnits="userSpaceOnUse" id="pattern_mark_0" width="300" height="300"><text x="150" y="100" fill="rgba(229,229,229,0.8)" font-size="18" transform="rotate(-45, 150, 150)" style="dominant-baseline: middle; text-anchor: middle;"></text></pattern><pattern patternUnits="userSpaceOnUse" id="pattern_mark_1" width="300" height="300"><text x="150" y="200" fill="rgba(229,229,229,0.8)" font-size="18" transform="rotate(-45, 150, 150)" style="dominant-baseline: middle; text-anchor: middle;"></text></pattern><marker id="SvgjsMarker1323" markerWidth="13" markerHeight="9" refX="9.5" refY="4.5" viewBox="0 0 13 9" orient="auto" markerUnits="userSpaceOnUse" stroke-dasharray="0,0"><path id="SvgjsPath1324" d="M0,0 L13,4.5 L0,9 L0,0" fill="#323232" stroke="#323232" stroke-width="1"></path></marker><marker id="SvgjsMarker1327" markerWidth="13" markerHeight="9" refX="9.5" refY="4.5" viewBox="0 0 13 9" orient="auto" markerUnits="userSpaceOnUse" stroke-dasharray="0,0"><path id="SvgjsPath1328" d="M0,0 L13,4.5 L0,9 L0,0" fill="#323232" stroke="#323232" stroke-width="1"></path></marker><marker id="SvgjsMarker1331" markerWidth="13" markerHeight="9" refX="9.5" refY="4.5" viewBox="0 0 13 9" orient="auto" markerUnits="userSpaceOnUse" stroke-dasharray="0,0"><path id="SvgjsPath1332" d="M0,0 L13,4.5 L0,9 L0,0" fill="#323232" stroke="#323232" stroke-width="1"></path></marker><marker id="SvgjsMarker1335" markerWidth="13" markerHeight="9" refX="9.5" refY="4.5" viewBox="0 0 13 9" orient="auto" markerUnits="userSpaceOnUse" stroke-dasharray="0,0"><path id="SvgjsPath1336" d="M0,0 L13,4.5 L0,9 L0,0" fill="#323232" stroke="#323232" stroke-width="1"></path></marker><marker id="SvgjsMarker1339" markerWidth="13" markerHeight="9" refX="9.5" refY="4.5" viewBox="0 0 13 9" orient="auto" markerUnits="userSpaceOnUse" stroke-dasharray="0,0"><path id="SvgjsPath1340" d="M0,0 L13,4.5 L0,9 L0,0" fill="#323232" stroke="#323232" stroke-width="1"></path></marker><marker id="SvgjsMarker1343" markerWidth="13" markerHeight="9" refX="9.5" refY="4.5" viewBox="0 0 13 9" orient="auto" markerUnits="userSpaceOnUse" stroke-dasharray="0,0"><path id="SvgjsPath1344" d="M0,0 L13,4.5 L0,9 L0,0" fill="#323232" stroke="#323232" stroke-width="1"></path></marker><marker id="SvgjsMarker1347" markerWidth="13" markerHeight="9" refX="9.5" refY="4.5" viewBox="0 0 13 9" orient="auto" markerUnits="userSpaceOnUse" stroke-dasharray="0,0"><path id="SvgjsPath1348" d="M0,0 L13,4.5 L0,9 L0,0" fill="#323232" stroke="#323232" stroke-width="1"></path></marker><marker id="SvgjsMarker1351" markerWidth="13" markerHeight="9" refX="9.5" refY="4.5" viewBox="0 0 13 9" orient="auto" markerUnits="userSpaceOnUse" stroke-dasharray="0,0"><path id="SvgjsPath1352" d="M0,0 L13,4.5 L0,9 L0,0" fill="#323232" stroke="#323232" stroke-width="1"></path></marker><marker id="SvgjsMarker1355" markerWidth="13" markerHeight="9" refX="9.5" refY="4.5" viewBox="0 0 13 9" orient="auto" markerUnits="userSpaceOnUse" stroke-dasharray="0,0"><path id="SvgjsPath1356" d="M0,0 L13,4.5 L0,9 L0,0" fill="#323232" stroke="#323232" stroke-width="1"></path></marker><marker id="SvgjsMarker1359" markerWidth="13" markerHeight="9" refX="9.5" refY="4.5" viewBox="0 0 13 9" orient="auto" markerUnits="userSpaceOnUse" stroke-dasharray="0,0"><path id="SvgjsPath1360" d="M0,0 L13,4.5 L0,9 L0,0" fill="#323232" stroke="#323232" stroke-width="1"></path></marker><marker id="SvgjsMarker1363" markerWidth="13" markerHeight="9" refX="9.5" refY="4.5" viewBox="0 0 13 9" orient="auto" markerUnits="userSpaceOnUse" stroke-dasharray="0,0"><path id="SvgjsPath1364" d="M0,0 L13,4.5 L0,9 L0,0" fill="#323232" stroke="#323232" stroke-width="1"></path></marker><marker id="SvgjsMarker1367" markerWidth="13" markerHeight="9" refX="9.5" refY="4.5" viewBox="0 0 13 9" orient="auto" markerUnits="userSpaceOnUse" stroke-dasharray="0,0"><path id="SvgjsPath1368" d="M0,0 L13,4.5 L0,9 L0,0" fill="#323232" stroke="#323232" stroke-width="1"></path></marker><marker id="SvgjsMarker1371" markerWidth="13" markerHeight="9" refX="9.5" refY="4.5" viewBox="0 0 13 9" orient="auto" markerUnits="userSpaceOnUse" stroke-dasharray="0,0"><path id="SvgjsPath1372" d="M0,0 L13,4.5 L0,9 L0,0" fill="#323232" stroke="#323232" stroke-width="1"></path></marker><marker id="SvgjsMarker1375" markerWidth="13" markerHeight="9" refX="9.5" refY="4.5" viewBox="0 0 13 9" orient="auto" markerUnits="userSpaceOnUse" stroke-dasharray="0,0"><path id="SvgjsPath1376" d="M0,0 L13,4.5 L0,9 L0,0" fill="#323232" stroke="#323232" stroke-width="1"></path></marker><marker id="SvgjsMarker1379" markerWidth="13" markerHeight="9" refX="9.5" refY="4.5" viewBox="0 0 13 9" orient="auto" markerUnits="userSpaceOnUse" stroke-dasharray="0,0"><path id="SvgjsPath1380" d="M0,0 L13,4.5 L0,9 L0,0" fill="#323232" stroke="#323232" stroke-width="1"></path></marker><marker id="SvgjsMarker1397" markerWidth="13" markerHeight="9" refX="9.5" refY="4.5" viewBox="0 0 13 9" orient="auto" markerUnits="userSpaceOnUse" stroke-dasharray="0,0"><path id="SvgjsPath1398" d="M0,0 L13,4.5 L0,9 L0,0" fill="#323232" stroke="#323232" stroke-width="1"></path></marker><marker id="SvgjsMarker1401" markerWidth="13" markerHeight="9" refX="9.5" refY="4.5" viewBox="0 0 13 9" orient="auto" markerUnits="userSpaceOnUse" stroke-dasharray="0,0"><path id="SvgjsPath1402" d="M0,0 L13,4.5 L0,9 L0,0" fill="#323232" stroke="#323232" stroke-width="1"></path></marker></defs><rect id="svgbackgroundid" width="1211.2232142857142" height="430" fill="transparent"></rect><rect id="SvgjsRect1207" width="1211.2232142857142" height="430" fill="url(#pattern_mark_0)"></rect><rect id="SvgjsRect1208" width="1211.2232142857142" height="430" fill="url(#pattern_mark_1)"></rect><g id="SvgjsG1209" transform="translate(331,25)"><path id="SvgjsPath1210" d="M 0 45C 0 -15 90.44642857142857 -15 90.44642857142857 45C 90.44642857142857 105 0 105 0 45Z" stroke="rgba(33,41,48,1)" stroke-width="1.5" fill-opacity="1" fill="#52a0ff"></path><g id="SvgjsG1211"><text id="SvgjsText1212" font-family="&quot;Microsoft YaHei&quot;, 微软雅黑, Arial" text-anchor="middle" font-size="13px" width="71px" fill="#323232" font-weight="700" align="middle" lineHeight="125%" anchor="middle" family="&quot;Microsoft YaHei&quot;, 微软雅黑, Arial" size="13px" weight="700" font-style="" opacity="1" y="34.375" transform="rotate(0)"><tspan id="SvgjsTspan1213" dy="16.25" x="45.5"><tspan id="SvgjsTspan1214" style="">Clojure</tspan></tspan></text></g></g><g id="SvgjsG1215" transform="translate(1096.2232142857142,25)"><path id="SvgjsPath1216" d="M 0 45C 0 -15 90 -15 90 45C 90 105 0 105 0 45Z" stroke="rgba(33,41,48,1)" stroke-width="1.5" fill-opacity="1" fill="#52a0ff"></path><g id="SvgjsG1217"><text id="SvgjsText1218" font-family="&quot;Microsoft YaHei&quot;, 微软雅黑, Arial" text-anchor="middle" font-size="13px" width="70px" fill="#323232" font-weight="700" align="middle" lineHeight="125%" anchor="middle" family="&quot;Microsoft YaHei&quot;, 微软雅黑, Arial" size="13px" weight="700" font-style="" opacity="1" y="34.375" transform="rotate(0)"><tspan id="SvgjsTspan1219" dy="16.25" x="45"><tspan id="SvgjsTspan1220" style="">JavaScript</tspan></tspan></text></g></g><g id="SvgjsG1221" transform="translate(483.99999999999994,25)"><path id="SvgjsPath1222" d="M 0 45C 0 -15 90.44642857142857 -15 90.44642857142857 45C 90.44642857142857 105 0 105 0 45Z" stroke="rgba(33,41,48,1)" stroke-width="1.5" fill-opacity="1" fill="#52a0ff"></path><g id="SvgjsG1223"><text id="SvgjsText1224" font-family="&quot;Microsoft YaHei&quot;, 微软雅黑, Arial" text-anchor="middle" font-size="13px" width="71px" fill="#323232" font-weight="700" align="middle" lineHeight="125%" anchor="middle" family="&quot;Microsoft YaHei&quot;, 微软雅黑, Arial" size="13px" weight="700" font-style="" opacity="1" y="34.375" transform="rotate(0)"><tspan id="SvgjsTspan1225" dy="16.25" x="45.5"><tspan id="SvgjsTspan1226" style="">Groovy</tspan></tspan></text></g></g><g id="SvgjsG1227" transform="translate(637.0000000000001,25)"><path id="SvgjsPath1228" d="M 0 45C 0 -15 90.44642857142857 -15 90.44642857142857 45C 90.44642857142857 105 0 105 0 45Z" stroke="rgba(33,41,48,1)" stroke-width="1.5" fill-opacity="1" fill="#52a0ff"></path><g id="SvgjsG1229"><text id="SvgjsText1230" font-family="&quot;Microsoft YaHei&quot;, 微软雅黑, Arial" text-anchor="middle" font-size="13px" width="71px" fill="#323232" font-weight="700" align="middle" lineHeight="125%" anchor="middle" family="&quot;Microsoft YaHei&quot;, 微软雅黑, Arial" size="13px" weight="700" font-style="" opacity="1" y="34.375" transform="rotate(0)"><tspan id="SvgjsTspan1231" dy="16.25" x="45.5"><tspan id="SvgjsTspan1232" style="">Scala</tspan></tspan></text></g></g><g id="SvgjsG1233" transform="translate(789.0178571428571,25)"><path id="SvgjsPath1234" d="M 0 45C 0 -15 90.44642857142857 -15 90.44642857142857 45C 90.44642857142857 105 0 105 0 45Z" stroke="rgba(33,41,48,1)" stroke-width="1.5" fill-opacity="1" fill="#52a0ff"></path><g id="SvgjsG1235"><text id="SvgjsText1236" font-family="&quot;Microsoft YaHei&quot;, 微软雅黑, Arial" text-anchor="middle" font-size="13px" width="71px" fill="#323232" font-weight="700" align="middle" lineHeight="125%" anchor="middle" family="&quot;Microsoft YaHei&quot;, 微软雅黑, Arial" size="13px" weight="700" font-style="" opacity="1" y="34.375" transform="rotate(0)"><tspan id="SvgjsTspan1237" dy="16.25" x="45.5"><tspan id="SvgjsTspan1238" style="">Jython</tspan></tspan></text></g></g><g id="SvgjsG1239" transform="translate(942.7767857142858,25)"><path id="SvgjsPath1240" d="M 0 45C 0 -15 90.44642857142857 -15 90.44642857142857 45C 90.44642857142857 105 0 105 0 45Z" stroke="rgba(33,41,48,1)" stroke-width="1.5" fill-opacity="1" fill="#52a0ff"></path><g id="SvgjsG1241"><text id="SvgjsText1242" font-family="&quot;Microsoft YaHei&quot;, 微软雅黑, Arial" text-anchor="middle" font-size="13px" width="71px" fill="#323232" font-weight="700" align="middle" lineHeight="125%" anchor="middle" family="&quot;Microsoft YaHei&quot;, 微软雅黑, Arial" size="13px" weight="700" font-style="" opacity="1" y="34.375" transform="rotate(0)"><tspan id="SvgjsTspan1243" dy="16.25" x="45.5"><tspan id="SvgjsTspan1244" style="">JRuby</tspan></tspan></text></g></g><g id="SvgjsG1245" transform="translate(177.77678571428572,25)"><path id="SvgjsPath1246" d="M 0 45C 0 -15 90.44642857142857 -15 90.44642857142857 45C 90.44642857142857 105 0 105 0 45Z" stroke="rgba(33,41,48,1)" stroke-width="1.5" fill-opacity="1" fill="#52a0ff"></path><g id="SvgjsG1247"><text id="SvgjsText1248" font-family="&quot;Microsoft YaHei&quot;, 微软雅黑, Arial" text-anchor="middle" font-size="13px" width="71px" fill="#323232" font-weight="700" align="middle" lineHeight="125%" anchor="middle" family="&quot;Microsoft YaHei&quot;, 微软雅黑, Arial" size="13px" weight="700" font-style="" opacity="1" y="34.375" transform="rotate(0)"><tspan id="SvgjsTspan1249" dy="16.25" x="45.5"><tspan id="SvgjsTspan1250" style="">Kotlin</tspan></tspan></text></g></g><g id="SvgjsG1251" transform="translate(178.22321428571428,165)"><path id="SvgjsPath1252" d="M 0 0L 90 0L 90 30L 0 30Z" stroke="rgba(33,41,48,1)" stroke-width="1.5" fill-opacity="1" fill="#67f0ff"></path><g id="SvgjsG1253"><text id="SvgjsText1254" font-family="&quot;Microsoft YaHei&quot;, 微软雅黑, Arial" text-anchor="middle" font-size="13px" width="70px" fill="#323232" font-weight="700" align="middle" lineHeight="125%" anchor="middle" family="&quot;Microsoft YaHei&quot;, 微软雅黑, Arial" size="13px" weight="700" font-style="" opacity="1" y="-4.125" transform="rotate(0)"><tspan id="SvgjsTspan1255" dy="16.25" x="45"><tspan id="SvgjsTspan1256" style="">Kotlin</tspan></tspan><tspan id="SvgjsTspan1257" dy="16.25" x="45"><tspan id="SvgjsTspan1258" style="">编译器</tspan></tspan></text></g></g><g id="SvgjsG1259" transform="translate(331.2232142857143,165)"><path id="SvgjsPath1260" d="M 0 0L 90 0L 90 30L 0 30Z" stroke="rgba(33,41,48,1)" stroke-width="1.5" fill-opacity="1" fill="#67f0ff"></path><g id="SvgjsG1261"><text id="SvgjsText1262" font-family="&quot;Microsoft YaHei&quot;, 微软雅黑, Arial" text-anchor="middle" font-size="13px" width="70px" fill="#323232" font-weight="700" align="middle" lineHeight="125%" anchor="middle" family="&quot;Microsoft YaHei&quot;, 微软雅黑, Arial" size="13px" weight="700" font-style="" opacity="1" y="-4.125" transform="rotate(0)"><tspan id="SvgjsTspan1263" dy="16.25" x="45"><tspan id="SvgjsTspan1264" style="">Clojure</tspan></tspan><tspan id="SvgjsTspan1265" dy="16.25" x="45"><tspan id="SvgjsTspan1266" style="">编译器</tspan></tspan></text></g></g><g id="SvgjsG1267" transform="translate(484.2232142857143,165)"><path id="SvgjsPath1268" d="M 0 0L 90 0L 90 30L 0 30Z" stroke="rgba(33,41,48,1)" stroke-width="1.5" fill-opacity="1" fill="#67f0ff"></path><g id="SvgjsG1269"><text id="SvgjsText1270" font-family="&quot;Microsoft YaHei&quot;, 微软雅黑, Arial" text-anchor="middle" font-size="13px" width="70px" fill="#323232" font-weight="700" align="middle" lineHeight="125%" anchor="middle" family="&quot;Microsoft YaHei&quot;, 微软雅黑, Arial" size="13px" weight="700" font-style="" opacity="1" y="-4.125" transform="rotate(0)"><tspan id="SvgjsTspan1271" dy="16.25" x="45"><tspan id="SvgjsTspan1272" style="">Groovy</tspan></tspan><tspan id="SvgjsTspan1273" dy="16.25" x="45"><tspan id="SvgjsTspan1274" style="">编译器</tspan></tspan></text></g></g><g id="SvgjsG1275" transform="translate(637.2232142857143,165)"><path id="SvgjsPath1276" d="M 0 0L 90 0L 90 30L 0 30Z" stroke="rgba(33,41,48,1)" stroke-width="1.5" fill-opacity="1" fill="#67f0ff"></path><g id="SvgjsG1277"><text id="SvgjsText1278" font-family="&quot;Microsoft YaHei&quot;, 微软雅黑, Arial" text-anchor="middle" font-size="13px" width="70px" fill="#323232" font-weight="700" align="middle" lineHeight="125%" anchor="middle" family="&quot;Microsoft YaHei&quot;, 微软雅黑, Arial" size="13px" weight="700" font-style="" opacity="1" y="-4.125" transform="rotate(0)"><tspan id="SvgjsTspan1279" dy="16.25" x="45"><tspan id="SvgjsTspan1280" style="">Scala</tspan></tspan><tspan id="SvgjsTspan1281" dy="16.25" x="45"><tspan id="SvgjsTspan1282" style="">编译器</tspan></tspan></text></g></g><g id="SvgjsG1283" transform="translate(790.2232142857143,165)"><path id="SvgjsPath1284" d="M 0 0L 90 0L 90 30L 0 30Z" stroke="rgba(33,41,48,1)" stroke-width="1.5" fill-opacity="1" fill="#67f0ff"></path><g id="SvgjsG1285"><text id="SvgjsText1286" font-family="&quot;Microsoft YaHei&quot;, 微软雅黑, Arial" text-anchor="middle" font-size="13px" width="70px" fill="#323232" font-weight="700" align="middle" lineHeight="125%" anchor="middle" family="&quot;Microsoft YaHei&quot;, 微软雅黑, Arial" size="13px" weight="700" font-style="" opacity="1" y="-4.125" transform="rotate(0)"><tspan id="SvgjsTspan1287" dy="16.25" x="45"><tspan id="SvgjsTspan1288" style="">Jython</tspan></tspan><tspan id="SvgjsTspan1289" dy="16.25" x="45"><tspan id="SvgjsTspan1290" style="">编译器</tspan></tspan></text></g></g><g id="SvgjsG1291" transform="translate(943.2232142857143,165)"><path id="SvgjsPath1292" d="M 0 0L 90 0L 90 30L 0 30Z" stroke="rgba(33,41,48,1)" stroke-width="1.5" fill-opacity="1" fill="#67f0ff"></path><g id="SvgjsG1293"><text id="SvgjsText1294" font-family="&quot;Microsoft YaHei&quot;, 微软雅黑, Arial" text-anchor="middle" font-size="13px" width="70px" fill="#323232" font-weight="700" align="middle" lineHeight="125%" anchor="middle" family="&quot;Microsoft YaHei&quot;, 微软雅黑, Arial" size="13px" weight="700" font-style="" opacity="1" y="-4.125" transform="rotate(0)"><tspan id="SvgjsTspan1295" dy="16.25" x="45"><tspan id="SvgjsTspan1296" style="">JRuby</tspan></tspan><tspan id="SvgjsTspan1297" dy="16.25" x="45"><tspan id="SvgjsTspan1298" style="">编译器</tspan></tspan></text></g></g><g id="SvgjsG1299" transform="translate(1096.2232142857142,165)"><path id="SvgjsPath1300" d="M 0 0L 90 0L 90 30L 0 30Z" stroke="rgba(33,41,48,1)" stroke-width="1.5" fill-opacity="1" fill="#67f0ff"></path><g id="SvgjsG1301"><text id="SvgjsText1302" font-family="&quot;Microsoft YaHei&quot;, 微软雅黑, Arial" text-anchor="middle" font-size="13px" width="70px" fill="#323232" font-weight="700" align="middle" lineHeight="125%" anchor="middle" family="&quot;Microsoft YaHei&quot;, 微软雅黑, Arial" size="13px" weight="700" font-style="" opacity="1" y="-4.125" transform="rotate(0)"><tspan id="SvgjsTspan1303" dy="16.25" x="45"><tspan id="SvgjsTspan1304" style="">JavaScript</tspan></tspan><tspan id="SvgjsTspan1305" dy="16.25" x="45"><tspan id="SvgjsTspan1306" style="">编译器</tspan></tspan></text></g></g><g id="SvgjsG1307" transform="translate(555.6116071428571,265)"><path id="SvgjsPath1308" d="M 0 0L 100 0L 100 40L 0 40Z" stroke="rgba(33,41,48,1)" stroke-width="1.5" fill-opacity="1" fill="#4ee231"></path><g id="SvgjsG1309"><text id="SvgjsText1310" font-family="&quot;Microsoft YaHei&quot;, 微软雅黑, Arial" text-anchor="middle" font-size="13px" width="80px" fill="#323232" font-weight="700" align="middle" lineHeight="125%" anchor="middle" family="&quot;Microsoft YaHei&quot;, 微软雅黑, Arial" size="13px" weight="700" font-style="" opacity="1" y="0.875" transform="rotate(0)"><tspan id="SvgjsTspan1311" dy="16.25" x="50"><tspan id="SvgjsTspan1312" style="">字节码文件</tspan></tspan><tspan id="SvgjsTspan1313" dy="16.25" x="50"><tspan id="SvgjsTspan1314" style="">(.class)</tspan></tspan></text></g></g><g id="SvgjsG1315" transform="translate(535.6116071428571,345)"><path id="SvgjsPath1316" d="M 0 0L 140 0L 140 60L 0 60Z" stroke="rgba(33,41,48,1)" stroke-width="1.5" fill-opacity="1" fill="#f9f62e"></path><g id="SvgjsG1317"><text id="SvgjsText1318" font-family="&quot;Microsoft YaHei&quot;, 微软雅黑, Arial" text-anchor="middle" font-size="13px" width="120px" fill="#323232" font-weight="700" align="middle" lineHeight="125%" anchor="middle" family="&quot;Microsoft YaHei&quot;, 微软雅黑, Arial" size="13px" weight="700" font-style="" opacity="1" y="19.375" transform="rotate(0)"><tspan id="SvgjsTspan1319" dy="16.25" x="70"><tspan id="SvgjsTspan1320" style="">Java虚拟机</tspan></tspan></text></g></g><g id="SvgjsG1321"><path id="SvgjsPath1322" d="M223 115.75L223 140L223.22321428571428 140L223.22321428571428 162.3" stroke="#323232" stroke-width="1.5" fill="none" marker-end="url(#SvgjsMarker1323)"></path></g><g id="SvgjsG1325"><path id="SvgjsPath1326" d="M376.2232142857143 115.75L376.2232142857143 140L376.2232142857143 140L376.2232142857143 162.3" stroke="#323232" stroke-width="1.5" fill="none" marker-end="url(#SvgjsMarker1327)"></path></g><g id="SvgjsG1329"><path id="SvgjsPath1330" d="M529.2232142857142 115.75L529.2232142857142 140L529.2232142857143 140L529.2232142857143 162.3" stroke="#323232" stroke-width="1.5" fill="none" marker-end="url(#SvgjsMarker1331)"></path></g><g id="SvgjsG1333"><path id="SvgjsPath1334" d="M682.2232142857144 115.75L682.2232142857144 140L682.2232142857143 140L682.2232142857143 162.3" stroke="#323232" stroke-width="1.5" fill="none" marker-end="url(#SvgjsMarker1335)"></path></g><g id="SvgjsG1337"><path id="SvgjsPath1338" d="M834.2410714285714 115.75L834.2410714285714 140L835.2232142857143 140L835.2232142857143 162.3" stroke="#323232" stroke-width="1.5" fill="none" marker-end="url(#SvgjsMarker1339)"></path></g><g id="SvgjsG1341"><path id="SvgjsPath1342" d="M988.0000000000001 115.75L988.0000000000001 140L988.2232142857143 140L988.2232142857143 162.3" stroke="#323232" stroke-width="1.5" fill="none" marker-end="url(#SvgjsMarker1343)"></path></g><g id="SvgjsG1345"><path id="SvgjsPath1346" d="M1141.2232142857142 115.75L1141.2232142857142 140L1141.2232142857142 140L1141.2232142857142 162.3" stroke="#323232" stroke-width="1.5" fill="none" marker-end="url(#SvgjsMarker1347)"></path></g><g id="SvgjsG1349"><path id="SvgjsPath1350" d="M223.22321428571428 195.75L223.22321428571428 230L605.6116071428571 230L605.6116071428571 262.3" stroke="#323232" stroke-width="1.5" fill="none" marker-end="url(#SvgjsMarker1351)"></path></g><g id="SvgjsG1353"><path id="SvgjsPath1354" d="M376.2232142857143 195.75L376.2232142857143 230L605.6116071428571 230L605.6116071428571 262.3" stroke="#323232" stroke-width="1.5" fill="none" marker-end="url(#SvgjsMarker1355)"></path></g><g id="SvgjsG1357"><path id="SvgjsPath1358" d="M529.2232142857143 195.75L529.2232142857143 230L605.6116071428571 230L605.6116071428571 262.3" stroke="#323232" stroke-width="1.5" fill="none" marker-end="url(#SvgjsMarker1359)"></path></g><g id="SvgjsG1361"><path id="SvgjsPath1362" d="M682.2232142857143 195.75L682.2232142857143 230L605.6116071428571 230L605.6116071428571 262.3" stroke="#323232" stroke-width="1.5" fill="none" marker-end="url(#SvgjsMarker1363)"></path></g><g id="SvgjsG1365"><path id="SvgjsPath1366" d="M835.2232142857143 195.75L835.2232142857143 230L605.6116071428571 230L605.6116071428571 262.3" stroke="#323232" stroke-width="1.5" fill="none" marker-end="url(#SvgjsMarker1367)"></path></g><g id="SvgjsG1369"><path id="SvgjsPath1370" d="M988.2232142857143 195.75L988.2232142857143 230L605.6116071428571 230L605.6116071428571 262.3" stroke="#323232" stroke-width="1.5" fill="none" marker-end="url(#SvgjsMarker1371)"></path></g><g id="SvgjsG1373"><path id="SvgjsPath1374" d="M1141.2232142857142 195.75L1141.2232142857142 230L605.6116071428571 230L605.6116071428571 262.3" stroke="#323232" stroke-width="1.5" fill="none" marker-end="url(#SvgjsMarker1375)"></path></g><g id="SvgjsG1377"><path id="SvgjsPath1378" d="M605.6116071428571 305.75L605.6116071428571 325L605.6116071428571 325L605.6116071428571 342.3" stroke="#323232" stroke-width="1.5" fill="none" marker-end="url(#SvgjsMarker1379)"></path></g><g id="SvgjsG1381" transform="translate(25,25)"><path id="SvgjsPath1382" d="M 0 45C 0 -15 90.44642857142857 -15 90.44642857142857 45C 90.44642857142857 105 0 105 0 45Z" stroke="rgba(33,41,48,1)" stroke-width="1.5" fill-opacity="1" fill="#52a0ff"></path><g id="SvgjsG1383"><text id="SvgjsText1384" font-family="&quot;Microsoft YaHei&quot;, 微软雅黑, Arial" text-anchor="middle" font-size="13px" width="71px" fill="#323232" font-weight="700" align="middle" lineHeight="125%" anchor="middle" family="&quot;Microsoft YaHei&quot;, 微软雅黑, Arial" size="13px" weight="700" font-style="" opacity="1" y="34.375" transform="rotate(0)"><tspan id="SvgjsTspan1385" dy="16.25" x="45.5"><tspan id="SvgjsTspan1386" style="">Java</tspan></tspan></text></g></g><g id="SvgjsG1387" transform="translate(25.223214285714285,165)"><path id="SvgjsPath1388" d="M 0 0L 90 0L 90 30L 0 30Z" stroke="rgba(33,41,48,1)" stroke-width="1.5" fill-opacity="1" fill="#67f0ff"></path><g id="SvgjsG1389"><text id="SvgjsText1390" font-family="&quot;Microsoft YaHei&quot;, 微软雅黑, Arial" text-anchor="middle" font-size="13px" width="70px" fill="#323232" font-weight="700" align="middle" lineHeight="125%" anchor="middle" family="&quot;Microsoft YaHei&quot;, 微软雅黑, Arial" size="13px" weight="700" font-style="" opacity="1" y="-4.125" transform="rotate(0)"><tspan id="SvgjsTspan1391" dy="16.25" x="45"><tspan id="SvgjsTspan1392" style="">Java</tspan></tspan><tspan id="SvgjsTspan1393" dy="16.25" x="45"><tspan id="SvgjsTspan1394" style="">编译器</tspan></tspan></text></g></g><g id="SvgjsG1395"><path id="SvgjsPath1396" d="M70.22321428571428 115.75L70.22321428571428 140L70.22321428571428 140L70.22321428571428 162.3" stroke="#323232" stroke-width="1.5" fill="none" marker-end="url(#SvgjsMarker1397)"></path></g><g id="SvgjsG1399"><path id="SvgjsPath1400" d="M70.22321428571428 195.75L70.22321428571428 230L605.6116071428571 230L605.6116071428571 262.3" stroke="#323232" stroke-width="1.5" fill="none" marker-end="url(#SvgjsMarker1401)"></path></g><g id="SvgjsG1403"></g></svg>