<svg id="SvgjsSvg1286" width="475.0000000000001" height="205.83333333333334" xmlns="http://www.w3.org/2000/svg" version="1.1" xmlns:xlink="http://www.w3.org/1999/xlink" xmlns:svgjs="http://svgjs.com/svgjs"><defs id="SvgjsDefs1287"><pattern patternUnits="userSpaceOnUse" id="pattern_mark_0" width="300" height="300"><text x="150" y="100" fill="rgba(229,229,229,0.8)" font-size="18" transform="rotate(-45, 150, 150)" style="dominant-baseline: middle; text-anchor: middle;"></text></pattern><pattern patternUnits="userSpaceOnUse" id="pattern_mark_1" width="300" height="300"><text x="150" y="200" fill="rgba(229,229,229,0.8)" font-size="18" transform="rotate(-45, 150, 150)" style="dominant-baseline: middle; text-anchor: middle;"></text></pattern></defs><rect id="svgbackgroundid" width="475.0000000000001" height="205.83333333333334" fill="transparent"></rect><rect id="SvgjsRect1289" width="475.0000000000001" height="205.83333333333334" fill="url(#pattern_mark_0)"></rect><rect id="SvgjsRect1290" width="475.0000000000001" height="205.83333333333334" fill="url(#pattern_mark_1)"></rect><g id="SvgjsG1291" transform="translate(211.66666666666674,25)"><path id="SvgjsPath1292" d="M 0 10C 0 -3.3333333333333335 20 -3.3333333333333335 20 10C 20 23.333333333333332 0 23.333333333333332 0 10Z" stroke="rgba(33,41,48,1)" stroke-width="1.5" fill-opacity="1" fill="#a6aef3"></path><g id="SvgjsG1293"><text id="SvgjsText1294" font-family="微软雅黑" text-anchor="middle" font-size="13px" width="0px" fill="#323232" font-weight="400" align="middle" lineHeight="125%" anchor="middle" family="微软雅黑" size="13px" weight="400" font-style="" opacity="1" y="-0.625" transform="rotate(0)"></text></g></g><g id="SvgjsG1295" transform="translate(88.33333333333337,75)"><path id="SvgjsPath1296" d="M 0 10C 0 -3.3333333333333335 20 -3.3333333333333335 20 10C 20 23.333333333333332 0 23.333333333333332 0 10Z" stroke="rgba(33,41,48,1)" stroke-width="1.5" fill-opacity="1" fill="#a6aef3"></path><g id="SvgjsG1297"><text id="SvgjsText1298" font-family="微软雅黑" text-anchor="middle" font-size="13px" width="0px" fill="#323232" font-weight="400" align="middle" lineHeight="125%" anchor="middle" family="微软雅黑" size="13px" weight="400" font-style="" opacity="1" y="-0.625" transform="rotate(0)"></text></g></g><g id="SvgjsG1299" transform="translate(155.83333333333343,155)"><path id="SvgjsPath1300" d="M 0 10C 0 -3.3333333333333335 20 -3.3333333333333335 20 10C 20 23.333333333333332 0 23.333333333333332 0 10Z" stroke="rgba(33,41,48,1)" stroke-width="1.5" fill-opacity="1" fill="#a6aef3"></path><g id="SvgjsG1301"><text id="SvgjsText1302" font-family="微软雅黑" text-anchor="middle" font-size="13px" width="0px" fill="#323232" font-weight="400" align="middle" lineHeight="125%" anchor="middle" family="微软雅黑" size="13px" weight="400" font-style="" opacity="1" y="-0.625" transform="rotate(0)"></text></g></g><g id="SvgjsG1303" transform="translate(326.66666666666674,75)"><path id="SvgjsPath1304" d="M 0 10C 0 -3.3333333333333335 20 -3.3333333333333335 20 10C 20 23.333333333333332 0 23.333333333333332 0 10Z" stroke="rgba(33,41,48,1)" stroke-width="1.5" fill-opacity="1" fill="#a6aef3"></path><g id="SvgjsG1305"><text id="SvgjsText1306" font-family="微软雅黑" text-anchor="middle" font-size="13px" width="0px" fill="#323232" font-weight="400" align="middle" lineHeight="125%" anchor="middle" family="微软雅黑" size="13px" weight="400" font-style="" opacity="1" y="-0.625" transform="rotate(0)"></text></g></g><g id="SvgjsG1307" transform="translate(326.66666666666674,155)"><path id="SvgjsPath1308" d="M 0 10C 0 -3.3333333333333335 20 -3.3333333333333335 20 10C 20 23.333333333333332 0 23.333333333333332 0 10Z" stroke="rgba(33,41,48,1)" stroke-width="1.5" fill-opacity="1" fill="#a6aef3"></path><g id="SvgjsG1309"><text id="SvgjsText1310" font-family="微软雅黑" text-anchor="middle" font-size="13px" width="0px" fill="#323232" font-weight="400" align="middle" lineHeight="125%" anchor="middle" family="微软雅黑" size="13px" weight="400" font-style="" opacity="1" y="-0.625" transform="rotate(0)"></text></g></g><g id="SvgjsG1311" transform="translate(25,155)"><path id="SvgjsPath1312" d="M 0 10C 0 -3.3333333333333335 20 -3.3333333333333335 20 10C 20 23.333333333333332 0 23.333333333333332 0 10Z" stroke="rgba(33,41,48,1)" stroke-width="1.5" fill-opacity="1" fill="#a6aef3"></path><g id="SvgjsG1313"><text id="SvgjsText1314" font-family="微软雅黑" text-anchor="middle" font-size="13px" width="0px" fill="#323232" font-weight="400" align="middle" lineHeight="125%" anchor="middle" family="微软雅黑" size="13px" weight="400" font-style="" opacity="1" y="-0.625" transform="rotate(0)"></text></g></g><g id="SvgjsG1315"><path id="SvgjsPath1316" d="M221.66666666666674 45.75L221.66666666666674 60L98.33333333333337 60L98.33333333333337 74.25" stroke="#d2d6f9" stroke-width="1" fill="none"></path></g><g id="SvgjsG1317"><path id="SvgjsPath1318" d="M221.66666666666674 45.75L221.66666666666674 60L336.66666666666674 60L336.66666666666674 74.25" stroke="#d2d6f9" stroke-width="1" fill="none"></path></g><g id="SvgjsG1319"><path id="SvgjsPath1320" d="M98.33333333333337 95.75L98.33333333333337 125L35 125L35 154.25" stroke="#d2d6f9" stroke-width="1" fill="none"></path></g><g id="SvgjsG1321"><path id="SvgjsPath1322" d="M98.33333333333337 95.75L98.33333333333337 125L165.83333333333343 125L165.83333333333343 154.25" stroke="#d2d6f9" stroke-width="1" fill="none"></path></g><g id="SvgjsG1323"><path id="SvgjsPath1324" d="M336.66666666666674 95.75L336.66666666666674 125L336.66666666666674 125L336.66666666666674 154.25" stroke="#d2d6f9" stroke-width="1" fill="none"></path></g><g id="SvgjsG1325" transform="translate(217.50000000000006,25.83333333333333)"><path id="SvgjsPath1326" d="M 0 0L 45 0L 45 20L 0 20Z" stroke="none" fill="none"></path><g id="SvgjsG1327"><text id="SvgjsText1328" font-family="微软雅黑" text-anchor="middle" font-size="13px" width="45px" fill="#323232" font-weight="400" align="middle" lineHeight="125%" anchor="middle" family="微软雅黑" size="13px" weight="400" font-style="" opacity="1" y="-0.625" transform="rotate(0)"><tspan id="SvgjsTspan1329" dy="16.25" x="22.5"><tspan id="SvgjsTspan1330" style="">/</tspan></tspan></text></g></g><g id="SvgjsG1331" transform="translate(109.16666666666674,67.08333333333333)"><path id="SvgjsPath1332" d="M 0 0L 53.33333333333337 0L 53.33333333333337 35.83333333333334L 0 35.83333333333334Z" stroke="none" fill="none"></path><g id="SvgjsG1333"><text id="SvgjsText1334" font-family="微软雅黑" text-anchor="middle" font-size="13px" width="54px" fill="#323232" font-weight="400" align="middle" lineHeight="125%" anchor="middle" family="微软雅黑" size="13px" weight="400" font-style="" opacity="1" y="7.291666666666671" transform="rotate(0)"><tspan id="SvgjsTspan1335" dy="16.25" x="27"><tspan id="SvgjsTspan1336" style="">/znode1</tspan></tspan></text></g></g><g id="SvgjsG1337" transform="translate(360,65)"><path id="SvgjsPath1338" d="M 0 0L 53.33333333333337 0L 53.33333333333337 40L 0 40Z" stroke="none" fill="none"></path><g id="SvgjsG1339"><text id="SvgjsText1340" font-family="微软雅黑" text-anchor="middle" font-size="13px" width="54px" fill="#323232" font-weight="400" align="middle" lineHeight="125%" anchor="middle" family="微软雅黑" size="13px" weight="400" font-style="" opacity="1" y="9.375" transform="rotate(0)"><tspan id="SvgjsTspan1341" dy="16.25" x="27"><tspan id="SvgjsTspan1342" style="">/znode2</tspan></tspan></text></g></g><g id="SvgjsG1343" transform="translate(360,145.00000000000003)"><path id="SvgjsPath1344" d="M 0 0L 90.00000000000011 0L 90.00000000000011 35.833333333333314L 0 35.833333333333314Z" stroke="none" fill="none"></path><g id="SvgjsG1345"><text id="SvgjsText1346" font-family="微软雅黑" text-anchor="middle" font-size="13px" width="91px" fill="#323232" font-weight="400" align="middle" lineHeight="125%" anchor="middle" family="微软雅黑" size="13px" weight="400" font-style="" opacity="1" y="7.291666666666657" transform="rotate(0)"><tspan id="SvgjsTspan1347" dy="16.25" x="45.5"><tspan id="SvgjsTspan1348" style="">/znode2/leaf</tspan></tspan></text></g></g><g id="SvgjsG1349" transform="translate(44.1666666666668,149.16666666666669)"><path id="SvgjsPath1350" d="M 0 0L 86.66666666666669 0L 86.66666666666669 31.666666666666657L 0 31.666666666666657Z" stroke="none" fill="none"></path><g id="SvgjsG1351"><text id="SvgjsText1352" font-family="微软雅黑" text-anchor="middle" font-size="13px" width="87px" fill="#323232" font-weight="400" align="middle" lineHeight="125%" anchor="middle" family="微软雅黑" size="13px" weight="400" font-style="" opacity="1" y="5.208333333333329" transform="rotate(0)"><tspan id="SvgjsTspan1353" dy="16.25" x="43.5"><tspan id="SvgjsTspan1354" style="">/znode1/leaf1</tspan></tspan></text></g></g><g id="SvgjsG1355" transform="translate(178.33333333333337,144.99999999999997)"><path id="SvgjsPath1356" d="M 0 0L 90.83333333333337 0L 90.83333333333337 35.83333333333337L 0 35.83333333333337Z" stroke="none" fill="none"></path><g id="SvgjsG1357"><text id="SvgjsText1358" font-family="微软雅黑" text-anchor="middle" font-size="13px" width="91px" fill="#323232" font-weight="400" align="middle" lineHeight="125%" anchor="middle" family="微软雅黑" size="13px" weight="400" font-style="" opacity="1" y="7.291666666666686" transform="rotate(0)"><tspan id="SvgjsTspan1359" dy="16.25" x="45.5"><tspan id="SvgjsTspan1360" style="">/znode1/leaf2</tspan></tspan></text></g></g></svg>