<svg id="SvgjsSvg1006" width="386" height="357" xmlns="http://www.w3.org/2000/svg" version="1.1" xmlns:xlink="http://www.w3.org/1999/xlink" xmlns:svgjs="http://svgjs.com/svgjs"><defs id="SvgjsDefs1007"><pattern patternUnits="userSpaceOnUse" id="pattern_mark_0" width="300" height="300"><text x="150" y="100" fill="rgba(229,229,229,0.8)" font-size="18" transform="rotate(-45, 150, 150)" style="dominant-baseline: middle; text-anchor: middle;"></text></pattern><pattern patternUnits="userSpaceOnUse" id="pattern_mark_1" width="300" height="300"><text x="150" y="200" fill="rgba(229,229,229,0.8)" font-size="18" transform="rotate(-45, 150, 150)" style="dominant-baseline: middle; text-anchor: middle;"></text></pattern></defs><rect id="svgbackgroundid" width="386" height="357" fill="transparent"></rect><rect id="SvgjsRect1009" width="386" height="357" fill="url(#pattern_mark_0)"></rect><rect id="SvgjsRect1010" width="386" height="357" fill="url(#pattern_mark_1)"></rect><g id="SvgjsG1011" transform="translate(124,25)"><path id="SvgjsPath1012" d="M 0 4Q 0 0 4 0L 215 0Q 219 0 219 4L 219 50Q 219 54 215 54L 4 54Q 0 54 0 50Z" stroke="rgba(33,41,48,1)" stroke-width="1.5" fill-opacity="1" fill="#ffffff"></path><g id="SvgjsG1013"><text id="SvgjsText1014" font-family="&quot;Comic Sans MS&quot;" text-anchor="middle" font-size="13px" width="199px" fill="#323232" font-weight="700" align="middle" lineHeight="125%" anchor="middle" family="&quot;Comic Sans MS&quot;" size="13px" weight="700" font-style="" opacity="1" y="16.375" transform="rotate(0)"><tspan id="SvgjsTspan1015" dy="16.25" x="109.5"><tspan id="SvgjsTspan1016" style="">Application            应用场景</tspan></tspan></text></g></g><g id="SvgjsG1017" transform="translate(105,151.5)"><path id="SvgjsPath1018" d="M 0 4Q 0 0 4 0L 252 0Q 256 0 256 4L 256 50Q 256 54 252 54L 4 54Q 0 54 0 50Z" stroke="rgba(33,41,48,1)" stroke-width="1.5" fill-opacity="1" fill="#ffffff"></path><g id="SvgjsG1019"><text id="SvgjsText1020" font-family="&quot;Comic Sans MS&quot;" text-anchor="middle" font-size="13px" width="236px" fill="#323232" font-weight="700" align="middle" lineHeight="125%" anchor="middle" family="&quot;Comic Sans MS&quot;" size="13px" weight="700" font-style="" opacity="1" y="7.875" transform="rotate(0)"><tspan id="SvgjsTspan1021" dy="16.25" x="128"><tspan id="SvgjsTspan1022" style="">VIEW            整合一张或多张表数</tspan></tspan><tspan id="SvgjsTspan1023" dy="16.25" x="128"><tspan id="SvgjsTspan1024" style="">据</tspan></tspan></text></g></g><g id="SvgjsG1025" transform="translate(124,278)"><path id="SvgjsPath1026" d="M 0 4Q 0 0 4 0L 215 0Q 219 0 219 4L 219 50Q 219 54 215 54L 4 54Q 0 54 0 50Z" stroke="rgba(33,41,48,1)" stroke-width="1.5" fill-opacity="1" fill="#ffffff"></path><g id="SvgjsG1027"><text id="SvgjsText1028" font-family="&quot;Comic Sans MS&quot;" text-anchor="middle" font-size="13px" width="199px" fill="#323232" font-weight="700" align="middle" lineHeight="125%" anchor="middle" family="&quot;Comic Sans MS&quot;" size="13px" weight="700" font-style="" opacity="1" y="16.375" transform="rotate(0)"><tspan id="SvgjsTspan1029" dy="16.25" x="109.5"><tspan id="SvgjsTspan1030" style="">table 1    table 2 ......table n</tspan></tspan></text></g></g><g id="SvgjsG1031" transform="translate(25,32.5)"><path id="SvgjsPath1032" d="M 0 0L 100 0L 100 40L 0 40Z" stroke="none" fill="none"></path><g id="SvgjsG1033"><text id="SvgjsText1034" font-family="&quot;Comic Sans MS&quot;" text-anchor="middle" font-size="15px" width="100px" fill="#323232" font-weight="700" align="middle" lineHeight="125%" anchor="middle" family="&quot;Comic Sans MS&quot;" size="15px" weight="700" font-style="" opacity="1" y="7.625" transform="rotate(0)"><tspan id="SvgjsTspan1035" dy="18.75" x="50"><tspan id="SvgjsTspan1036" style="">用户</tspan></tspan></text></g></g><g id="SvgjsG1037" transform="translate(25,159.5)"><path id="SvgjsPath1038" d="M 0 0L 100 0L 100 40L 0 40Z" stroke="none" fill="none"></path><g id="SvgjsG1039"><text id="SvgjsText1040" font-family="&quot;Comic Sans MS&quot;" text-anchor="middle" font-size="15px" width="100px" fill="#323232" font-weight="700" align="middle" lineHeight="125%" anchor="middle" family="&quot;Comic Sans MS&quot;" size="15px" weight="700" font-style="" opacity="1" y="7.625" transform="rotate(0)"><tspan id="SvgjsTspan1041" dy="18.75" x="50"><tspan id="SvgjsTspan1042" style="">虚拟表</tspan></tspan></text></g></g><g id="SvgjsG1043" transform="translate(25,285.5)"><path id="SvgjsPath1044" d="M 0 0L 100 0L 100 40L 0 40Z" stroke="none" fill="none"></path><g id="SvgjsG1045"><text id="SvgjsText1046" font-family="&quot;Comic Sans MS&quot;" text-anchor="middle" font-size="15px" width="100px" fill="#323232" font-weight="700" align="middle" lineHeight="125%" anchor="middle" family="&quot;Comic Sans MS&quot;" size="15px" weight="700" font-style="" opacity="1" y="7.625" transform="rotate(0)"><tspan id="SvgjsTspan1047" dy="18.75" x="50"><tspan id="SvgjsTspan1048" style="">数据表</tspan></tspan></text></g></g><g id="SvgjsG1049" transform="matrix(6.123233995736766e-17,1,-1,6.123233995736766e-17,249.36363636363635,80.24999653209339)"><path id="SvgjsPath1050" d="M 0 16.36363636363636L 16.36363636363636 0L 16.36363636363636 10.799999999999997L 53.63636363636364 10.799999999999997L 53.63636363636364 0L 70 16.36363636363636L 53.63636363636364 32.72727272727272L 53.63636363636364 21.927272727272722L 16.36363636363636 21.927272727272722L 16.36363636363636 32.72727272727272L 0 16.36363636363636Z" stroke="rgba(33,41,48,1)" stroke-width="1.5" fill-opacity="1" fill="#ffffff"></path><g id="SvgjsG1051"><text id="SvgjsText1052" font-family="微软雅黑" text-anchor="middle" font-size="13px" width="70px" fill="#323232" font-weight="400" align="middle" lineHeight="125%" anchor="middle" family="微软雅黑" size="13px" weight="400" font-style="" opacity="1" y="5.73863636363636" transform="rotate(0)"></text></g></g><g id="SvgjsG1053" transform="matrix(6.123233995736766e-17,1,-1,6.123233995736766e-17,249.36363636363635,206.75000416148794)"><path id="SvgjsPath1054" d="M 0 16.36363636363636L 16.36363636363636 0L 16.36363636363636 10.799999999999997L 53.63636363636364 10.799999999999997L 53.63636363636364 0L 70 16.36363636363636L 53.63636363636364 32.72727272727272L 53.63636363636364 21.927272727272722L 16.36363636363636 21.927272727272722L 16.36363636363636 32.72727272727272L 0 16.36363636363636Z" stroke="rgba(33,41,48,1)" stroke-width="1.5" fill-opacity="1" fill="#ffffff"></path><g id="SvgjsG1055"><text id="SvgjsText1056" font-family="微软雅黑" text-anchor="middle" font-size="13px" width="70px" fill="#323232" font-weight="400" align="middle" lineHeight="125%" anchor="middle" family="微软雅黑" size="13px" weight="400" font-style="" opacity="1" y="5.73863636363636" transform="rotate(0)"></text></g></g></svg>