<svg id="SvgjsSvg1131" width="824.9545454545455" height="400.6363636363636" xmlns="http://www.w3.org/2000/svg" version="1.1" xmlns:xlink="http://www.w3.org/1999/xlink" xmlns:svgjs="http://svgjs.com/svgjs"><defs id="SvgjsDefs1132"><pattern patternUnits="userSpaceOnUse" id="pattern_mark_0" width="300" height="300"><text x="150" y="100" fill="rgba(229,229,229,0.8)" font-size="18" transform="rotate(-45, 150, 150)" style="dominant-baseline: middle; text-anchor: middle;"></text></pattern><pattern patternUnits="userSpaceOnUse" id="pattern_mark_1" width="300" height="300"><text x="150" y="200" fill="rgba(229,229,229,0.8)" font-size="18" transform="rotate(-45, 150, 150)" style="dominant-baseline: middle; text-anchor: middle;"></text></pattern><marker id="SvgjsMarker1192" markerWidth="13" markerHeight="9" refX="9.5" refY="4.5" viewBox="0 0 13 9" orient="auto" markerUnits="userSpaceOnUse" stroke-dasharray="0,0"><path id="SvgjsPath1193" d="M0,0 L13,4.5 L0,9 L0,0" fill="#323232" stroke="#323232" stroke-width="1"></path></marker><marker id="SvgjsMarker1196" markerWidth="13" markerHeight="9" refX="9.5" refY="4.5" viewBox="0 0 13 9" orient="auto" markerUnits="userSpaceOnUse" stroke-dasharray="0,0"><path id="SvgjsPath1197" d="M0,0 L13,4.5 L0,9 L0,0" fill="#323232" stroke="#323232" stroke-width="1"></path></marker><marker id="SvgjsMarker1200" markerWidth="13" markerHeight="9" refX="9.5" refY="4.5" viewBox="0 0 13 9" orient="auto" markerUnits="userSpaceOnUse" stroke-dasharray="0,0"><path id="SvgjsPath1201" d="M0,0 L13,4.5 L0,9 L0,0" fill="#d2d6f9" stroke="#d2d6f9" stroke-width="1"></path></marker><marker id="SvgjsMarker1204" markerWidth="13" markerHeight="9" refX="9.5" refY="4.5" viewBox="0 0 13 9" orient="auto" markerUnits="userSpaceOnUse" stroke-dasharray="0,0"><path id="SvgjsPath1205" d="M0,0 L13,4.5 L0,9 L0,0" fill="#d2d6f9" stroke="#d2d6f9" stroke-width="1"></path></marker><marker id="SvgjsMarker1208" markerWidth="13" markerHeight="9" refX="9.5" refY="4.5" viewBox="0 0 13 9" orient="auto" markerUnits="userSpaceOnUse" stroke-dasharray="0,0"><path id="SvgjsPath1209" d="M0,0 L13,4.5 L0,9 L0,0" fill="#d2d6f9" stroke="#d2d6f9" stroke-width="1"></path></marker><marker id="SvgjsMarker1212" markerWidth="13" markerHeight="9" refX="9.5" refY="4.5" viewBox="0 0 13 9" orient="auto" markerUnits="userSpaceOnUse" stroke-dasharray="0,0"><path id="SvgjsPath1213" d="M0,0 L13,4.5 L0,9 L0,0" fill="#d2d6f9" stroke="#d2d6f9" stroke-width="1"></path></marker><marker id="SvgjsMarker1216" markerWidth="13" markerHeight="9" refX="9.5" refY="4.5" viewBox="0 0 13 9" orient="auto" markerUnits="userSpaceOnUse" stroke-dasharray="0,0"><path id="SvgjsPath1217" d="M0,0 L13,4.5 L0,9 L0,0" fill="#d2d6f9" stroke="#d2d6f9" stroke-width="1"></path></marker><marker id="SvgjsMarker1226" markerWidth="13" markerHeight="9" refX="9.5" refY="4.5" viewBox="0 0 13 9" orient="auto" markerUnits="userSpaceOnUse" stroke-dasharray="0,0"><path id="SvgjsPath1227" d="M0,0 L13,4.5 L0,9 L0,0" fill="#323232" stroke="#323232" stroke-width="1"></path></marker><marker id="SvgjsMarker1230" markerWidth="13" markerHeight="9" refX="9.5" refY="4.5" viewBox="0 0 13 9" orient="auto" markerUnits="userSpaceOnUse" stroke-dasharray="0,0"><path id="SvgjsPath1231" d="M0,0 L13,4.5 L0,9 L0,0" fill="#323232" stroke="#323232" stroke-width="1"></path></marker><marker id="SvgjsMarker1234" markerWidth="13" markerHeight="9" refX="9.5" refY="4.5" viewBox="0 0 13 9" orient="auto" markerUnits="userSpaceOnUse" stroke-dasharray="0,0"><path id="SvgjsPath1235" d="M0,0 L13,4.5 L0,9 L0,0" fill="#323232" stroke="#323232" stroke-width="1"></path></marker><marker id="SvgjsMarker1238" markerWidth="13" markerHeight="9" refX="9.5" refY="4.5" viewBox="0 0 13 9" orient="auto" markerUnits="userSpaceOnUse" stroke-dasharray="0,0"><path id="SvgjsPath1239" d="M0,0 L13,4.5 L0,9 L0,0" fill="#323232" stroke="#323232" stroke-width="1"></path></marker><marker id="SvgjsMarker1242" markerWidth="13" markerHeight="9" refX="9.5" refY="4.5" viewBox="0 0 13 9" orient="auto" markerUnits="userSpaceOnUse" stroke-dasharray="0,0"><path id="SvgjsPath1243" d="M0,0 L13,4.5 L0,9 L0,0" fill="#323232" stroke="#323232" stroke-width="1"></path></marker><marker id="SvgjsMarker1246" markerWidth="13" markerHeight="9" refX="9.5" refY="4.5" viewBox="0 0 13 9" orient="auto" markerUnits="userSpaceOnUse" stroke-dasharray="0,0"><path id="SvgjsPath1247" d="M0,0 L13,4.5 L0,9 L0,0" fill="#323232" stroke="#323232" stroke-width="1"></path></marker><marker id="SvgjsMarker1250" markerWidth="13" markerHeight="9" refX="9.5" refY="4.5" viewBox="0 0 13 9" orient="auto" markerUnits="userSpaceOnUse" stroke-dasharray="0,0"><path id="SvgjsPath1251" d="M0,0 L13,4.5 L0,9 L0,0" fill="#323232" stroke="#323232" stroke-width="1"></path></marker><marker id="SvgjsMarker1254" markerWidth="13" markerHeight="9" refX="9.5" refY="4.5" viewBox="0 0 13 9" orient="auto" markerUnits="userSpaceOnUse" stroke-dasharray="0,0"><path id="SvgjsPath1255" d="M0,0 L13,4.5 L0,9 L0,0" fill="#323232" stroke="#323232" stroke-width="1"></path></marker></defs><rect id="svgbackgroundid" width="824.9545454545455" height="400.6363636363636" fill="transparent"></rect><rect id="SvgjsRect1134" width="824.9545454545455" height="400.6363636363636" fill="url(#pattern_mark_0)"></rect><rect id="SvgjsRect1135" width="824.9545454545455" height="400.6363636363636" fill="url(#pattern_mark_1)"></rect><g id="SvgjsG1136" transform="translate(450.95454545454544,25)"><path id="SvgjsPath1137" d="M 0 0L 95 0L 95 34L 0 34Z" stroke="rgba(33,41,48,1)" stroke-width="1.5" fill-opacity="1" fill="#f6edc1"></path><g id="SvgjsG1138"><text id="SvgjsText1139" font-family="微软雅黑" text-anchor="middle" font-size="13px" width="75px" fill="#323232" font-weight="400" align="middle" lineHeight="125%" anchor="middle" family="微软雅黑" size="13px" weight="400" font-style="" opacity="1" y="6.375" transform="rotate(0)"><tspan id="SvgjsTspan1140" dy="16.25" x="47.5"><tspan id="SvgjsTspan1141" style="">资源(state)</tspan></tspan></text></g></g><g id="SvgjsG1142" transform="translate(196.95454545454544,150)"><path id="SvgjsPath1143" d="M 0 18Q 0 0 18 0L 63 0Q 81 0 81 18L 81 36Q 81 54 63 54L 18 54Q 0 54 0 36L 0 18Z" stroke="rgba(33,41,48,1)" stroke-width="1.5" fill-opacity="1" fill="#f5b9b7"></path><g id="SvgjsG1144"><text id="SvgjsText1145" font-family="微软雅黑" text-anchor="middle" font-size="13px" width="61px" fill="#323232" font-weight="400" align="middle" lineHeight="125%" anchor="middle" family="微软雅黑" size="13px" weight="400" font-style="" opacity="1" y="16.375" transform="rotate(0)"><tspan id="SvgjsTspan1146" dy="16.25" x="40.5"><tspan id="SvgjsTspan1147" style="">占用线程1</tspan></tspan></text></g></g><g id="SvgjsG1148" transform="translate(326.95454545454544,150)"><path id="SvgjsPath1149" d="M 0 18Q 0 0 18 0L 63 0Q 81 0 81 18L 81 36Q 81 54 63 54L 18 54Q 0 54 0 36L 0 18Z" stroke="rgba(33,41,48,1)" stroke-width="1.5" fill-opacity="1" fill="#d2d6f9"></path><g id="SvgjsG1150"><text id="SvgjsText1151" font-family="微软雅黑" text-anchor="middle" font-size="13px" width="61px" fill="#323232" font-weight="400" align="middle" lineHeight="125%" anchor="middle" family="微软雅黑" size="13px" weight="400" font-style="" opacity="1" y="16.375" transform="rotate(0)"><tspan id="SvgjsTspan1152" dy="16.25" x="40.5"><tspan id="SvgjsTspan1153" style="">等待线程2</tspan></tspan></text></g></g><g id="SvgjsG1154" transform="translate(457.95454545454544,150)"><path id="SvgjsPath1155" d="M 0 18Q 0 0 18 0L 63 0Q 81 0 81 18L 81 36Q 81 54 63 54L 18 54Q 0 54 0 36L 0 18Z" stroke="rgba(33,41,48,1)" stroke-width="1.5" fill-opacity="1" fill="#d2d6f9"></path><g id="SvgjsG1156"><text id="SvgjsText1157" font-family="微软雅黑" text-anchor="middle" font-size="13px" width="61px" fill="#323232" font-weight="400" align="middle" lineHeight="125%" anchor="middle" family="微软雅黑" size="13px" weight="400" font-style="" opacity="1" y="16.375" transform="rotate(0)"><tspan id="SvgjsTspan1158" dy="16.25" x="40.5"><tspan id="SvgjsTspan1159" style="">等待线程3</tspan></tspan></text></g></g><g id="SvgjsG1160" transform="translate(587.9545454545455,150)"><path id="SvgjsPath1161" d="M 0 18Q 0 0 18 0L 63 0Q 81 0 81 18L 81 36Q 81 54 63 54L 18 54Q 0 54 0 36L 0 18Z" stroke="rgba(33,41,48,1)" stroke-width="1.5" fill-opacity="1" fill="#d2d6f9"></path><g id="SvgjsG1162"><text id="SvgjsText1163" font-family="微软雅黑" text-anchor="middle" font-size="13px" width="61px" fill="#323232" font-weight="400" align="middle" lineHeight="125%" anchor="middle" family="微软雅黑" size="13px" weight="400" font-style="" opacity="1" y="16.375" transform="rotate(0)"><tspan id="SvgjsTspan1164" dy="16.25" x="40.5"><tspan id="SvgjsTspan1165" style="">等待线程4</tspan></tspan></text></g></g><g id="SvgjsG1166" transform="translate(718.9545454545455,150)"><path id="SvgjsPath1167" d="M 0 18Q 0 0 18 0L 63 0Q 81 0 81 18L 81 36Q 81 54 63 54L 18 54Q 0 54 0 36L 0 18Z" stroke="rgba(33,41,48,1)" stroke-width="1.5" fill-opacity="1" fill="#d2d6f9"></path><g id="SvgjsG1168"><text id="SvgjsText1169" font-family="微软雅黑" text-anchor="middle" font-size="13px" width="61px" fill="#323232" font-weight="400" align="middle" lineHeight="125%" anchor="middle" family="微软雅黑" size="13px" weight="400" font-style="" opacity="1" y="16.375" transform="rotate(0)"><tspan id="SvgjsTspan1170" dy="16.25" x="40.5"><tspan id="SvgjsTspan1171" style="">等待线程n</tspan></tspan></text></g></g><g id="SvgjsG1172" transform="translate(25,156.6818181818182)"><path id="SvgjsPath1173" d="M 0 0L 121.95454545454545 0L 121.95454545454545 40.636363636363626L 0 40.636363636363626Z" stroke="rgba(167,147,44,1)" stroke-width="1.5" fill-opacity="1" fill="#ffffff"></path><g id="SvgjsG1174"><text id="SvgjsText1175" font-family="微软雅黑" text-anchor="middle" font-size="13px" width="102px" fill="#323232" font-weight="400" align="middle" lineHeight="125%" anchor="middle" family="微软雅黑" size="13px" weight="400" font-style="" opacity="1" y="9.693181818181813" transform="rotate(0)"><tspan id="SvgjsTspan1176" dy="16.25" x="61"><tspan id="SvgjsTspan1177" style="">CLH队列(FIFO)</tspan></tspan></text></g></g><g id="SvgjsG1178" transform="translate(218.45454545454544,284)"><path id="SvgjsPath1179" d="M 0 0L 38 0L 38 20L 0 20Z" stroke="none" fill="none"></path><g id="SvgjsG1180"><text id="SvgjsText1181" font-family="微软雅黑" text-anchor="middle" font-size="13px" width="38px" fill="#a7932c" font-weight="700" align="middle" lineHeight="125%" anchor="middle" family="微软雅黑" size="13px" weight="700" font-style="" opacity="1" y="-0.625" transform="rotate(0)"><tspan id="SvgjsTspan1182" dy="16.25" x="19"><tspan id="SvgjsTspan1183" style="">head</tspan></tspan></text></g></g><g id="SvgjsG1184" transform="translate(740.4545454545455,284)"><path id="SvgjsPath1185" d="M 0 0L 38 0L 38 20L 0 20Z" stroke="none" fill="none"></path><g id="SvgjsG1186"><text id="SvgjsText1187" font-family="微软雅黑" text-anchor="middle" font-size="13px" width="38px" fill="#a7932c" font-weight="700" align="middle" lineHeight="125%" anchor="middle" family="微软雅黑" size="13px" weight="700" font-style="" opacity="1" y="-0.625" transform="rotate(0)"><tspan id="SvgjsTspan1188" dy="16.25" x="19"><tspan id="SvgjsTspan1189" style="">tail</tspan></tspan></text></g></g><g id="SvgjsG1190"><path id="SvgjsPath1191" d="M759.4545454545455 283.25L759.4545454545455 243.9545454545454L759.4545454545455 243.9545454545454L759.4545454545455 206.7" stroke="#323232" stroke-width="1.5" fill="none" marker-end="url(#SvgjsMarker1192)"></path></g><g id="SvgjsG1194"><path id="SvgjsPath1195" d="M237.45454545454544 283.25L237.45454545454544 243.9545454545454L237.45454545454544 243.9545454545454L237.45454545454544 206.7" stroke="#323232" stroke-width="1.5" fill="none" marker-end="url(#SvgjsMarker1196)"></path></g><g id="SvgjsG1198"><path id="SvgjsPath1199" d="M237.53284583798904 149.25409849849154C 236.9545454545455 39.56739611871862 497.95454545454544 170.43260388128138 498.15022824332044 61.68279537701858" stroke="#d2d6f9" stroke-width="1.5" fill="none" marker-end="url(#SvgjsMarker1200)"></path></g><g id="SvgjsG1202"><path id="SvgjsPath1203" d="M367.57722316148426 149.26010123650582C 367.45454545454544 86.58990616628927 497.95454545454544 123.41009383371073 497.99891124852365 61.66127741325531" stroke-dasharray="8,5" stroke="#d2d6f9" stroke-width="1.5" fill="none" marker-end="url(#SvgjsMarker1204)"></path></g><g id="SvgjsG1206"><path id="SvgjsPath1207" d="M498.44492622910917 149.250061688869C 497.95454545454544 114 497.95454545454544 96 498.4207822427102 61.69978888906643" stroke-dasharray="8,5" stroke="#d2d6f9" stroke-width="1.5" fill="none" marker-end="url(#SvgjsMarker1208)"></path></g><g id="SvgjsG1210"><path id="SvgjsPath1211" d="M628.3312330397173 149.26020675297133C 628.4545454545455 86.58990616628927 497.95454545454544 123.41009383371073 498.8704502816348 61.667774948305" stroke-dasharray="8,5" stroke="#d2d6f9" stroke-width="1.5" fill="none" marker-end="url(#SvgjsMarker1212)"></path></g><g id="SvgjsG1214"><path id="SvgjsPath1215" d="M759.3692167630634 149.25486980036376C 758.9545454545455 39.56739611871862 497.95454545454544 170.43260388128138 498.7337914569979 61.68552074468143" stroke-dasharray="8,5" stroke="#d2d6f9" stroke-width="1.5" fill="none" marker-end="url(#SvgjsMarker1216)"></path></g><g id="SvgjsG1218" transform="translate(90.45454545454551,341.6363636363636)"><path id="SvgjsPath1219" d="M 0 0L 691.8181818181818 0L 691.8181818181818 34L 0 34Z" stroke="rgba(33,41,48,1)" stroke-width="1.5" fill-opacity="1" fill="#ffffff"></path><g id="SvgjsG1220"><text id="SvgjsText1221" font-family="微软雅黑" text-anchor="middle" font-size="13px" width="672px" fill="#323232" font-weight="400" align="middle" lineHeight="125%" anchor="middle" family="微软雅黑" size="13px" weight="400" font-style="" opacity="1" y="6.375" transform="rotate(0)"><tspan id="SvgjsTspan1222" dy="16.25" x="346"><tspan id="SvgjsTspan1223" style="">CLH：Craig、Landin and Hagersten 队列，是一个单向链表，AQS中的队列是CLH变体的虚拟双向队列FIFO</tspan></tspan></text></g></g><g id="SvgjsG1224"><path id="SvgjsPath1225" d="M278.7044546355651 166.205051652766C 296.8877024466073 165.86323987785843 307.0209315479528 165.86323987785846 324.25484540076087 166.17647849698824" stroke="#323232" stroke-width="1.5" fill="none" marker-end="url(#SvgjsMarker1226)"></path></g><g id="SvgjsG1228"><path id="SvgjsPath1229" d="M408.70454545454544 165.34252626613227L455.25454545454545 165.34252626613227" stroke="#323232" stroke-width="1.5" fill="none" marker-end="url(#SvgjsMarker1230)"></path></g><g id="SvgjsG1232"><path id="SvgjsPath1233" d="M539.7045454545455 162.68496749294277L585.2545454545455 162.68496749294277" stroke="#323232" stroke-width="1.5" fill="none" marker-end="url(#SvgjsMarker1234)"></path></g><g id="SvgjsG1236"><path id="SvgjsPath1237" d="M668.3938174847223 161.75823297976876L716.2545454545455 161.75823297976876" stroke="#323232" stroke-width="1.5" fill="none" marker-end="url(#SvgjsMarker1238)"></path></g><g id="SvgjsG1240"><path id="SvgjsPath1241" d="M718.2045454545455 187.6183820092469L671.6545454545455 187.6183820092469" stroke="#323232" stroke-width="1.5" fill="none" marker-end="url(#SvgjsMarker1242)"></path></g><g id="SvgjsG1244"><path id="SvgjsPath1245" d="M587.2045454545455 189.26690710654782L541.6545454545455 189.26690710654782" stroke="#323232" stroke-width="1.5" fill="none" marker-end="url(#SvgjsMarker1246)"></path></g><g id="SvgjsG1248"><path id="SvgjsPath1249" d="M457.20454545454544 187.1317591116653L410.6545454545454 187.1317591116653" stroke="#323232" stroke-width="1.5" fill="none" marker-end="url(#SvgjsMarker1250)"></path></g><g id="SvgjsG1252"><path id="SvgjsPath1253" d="M326.20454545454544 186.5342166870688L280.6545454545454 186.5342166870688" stroke="#323232" stroke-width="1.5" fill="none" marker-end="url(#SvgjsMarker1254)"></path></g></svg>