<svg id="SvgjsSvg1006" width="582.3333333333333" height="540" xmlns="http://www.w3.org/2000/svg" version="1.1" xmlns:xlink="http://www.w3.org/1999/xlink" xmlns:svgjs="http://svgjs.com/svgjs"><defs id="SvgjsDefs1007"><pattern patternUnits="userSpaceOnUse" id="pattern_mark_0" width="300" height="300"><text x="150" y="100" fill="rgba(229,229,229,0.8)" font-size="18" transform="rotate(-45, 150, 150)" style="dominant-baseline: middle; text-anchor: middle;"></text></pattern><pattern patternUnits="userSpaceOnUse" id="pattern_mark_1" width="300" height="300"><text x="150" y="200" fill="rgba(229,229,229,0.8)" font-size="18" transform="rotate(-45, 150, 150)" style="dominant-baseline: middle; text-anchor: middle;"></text></pattern><marker id="SvgjsMarker1044" markerWidth="13" markerHeight="9" refX="9.5" refY="4.5" viewBox="0 0 13 9" orient="auto" markerUnits="userSpaceOnUse" stroke-dasharray="0,0"><path id="SvgjsPath1045" d="M0,0 L13,4.5 L0,9 L0,0" fill="#323232" stroke="#323232" stroke-width="1"></path></marker><marker id="SvgjsMarker1060" markerWidth="13" markerHeight="9" refX="9.5" refY="4.5" viewBox="0 0 13 9" orient="auto" markerUnits="userSpaceOnUse" stroke-dasharray="0,0"><path id="SvgjsPath1061" d="M0,0 L13,4.5 L0,9 L0,0" fill="#a66a30" stroke="#a66a30" stroke-width="1"></path></marker><marker id="SvgjsMarker1102" markerWidth="13" markerHeight="9" refX="9.5" refY="4.5" viewBox="0 0 13 9" orient="auto" markerUnits="userSpaceOnUse" stroke-dasharray="0,0"><path id="SvgjsPath1103" d="M0,0 L13,4.5 L0,9 L0,0" fill="#323232" stroke="#323232" stroke-width="1"></path></marker></defs><rect id="svgbackgroundid" width="582.3333333333333" height="540" fill="transparent"></rect><rect id="SvgjsRect1009" width="582.3333333333333" height="540" fill="url(#pattern_mark_0)"></rect><rect id="SvgjsRect1010" width="582.3333333333333" height="540" fill="url(#pattern_mark_1)"></rect><g id="SvgjsG1011" transform="translate(135.33333333333331,335)"><path id="SvgjsPath1012" d="M 0 20C 0 -6.666666666666667 40 -6.666666666666667 40 20C 40 46.666666666666664 0 46.666666666666664 0 20Z" stroke="rgba(33,41,48,1)" stroke-width="1.5" fill-opacity="1" fill="#a66a30"></path><path id="SvgjsPath1013" d="M 6.666666666666666 6.666666666666666L 33.333333333333336 33.333333333333336M 33.333333333333336 6.666666666666666L 6.666666666666666 33.333333333333336" stroke="rgba(33,41,48,1)" stroke-width="1.5" fill-opacity="1" fill="#a66a30"></path><path id="SvgjsPath1014" d="M 0 20C 0 -6.666666666666667 40 -6.666666666666667 40 20C 40 46.666666666666664 0 46.666666666666664 0 20Z" stroke="none" fill="none"></path></g><g id="SvgjsG1015" transform="translate(25,25)"><path id="SvgjsPath1016" d="M 35 30L 35 490" stroke-dasharray="3,4" stroke="rgba(33,41,48,1)" stroke-width="2" fill="none"></path><path id="SvgjsPath1017" d="M 0 0L 70 0L 70 30L 0 30Z" stroke="rgba(33,41,48,1)" stroke-width="1.5" fill-opacity="1" fill="#fbeada"></path><g id="SvgjsG1018"><text id="SvgjsText1019" font-family="&quot;Comic Sans MS&quot;" text-anchor="middle" font-size="13px" width="50px" fill="#323232" font-weight="400" align="middle" lineHeight="125%" anchor="middle" family="&quot;Comic Sans MS&quot;" size="13px" weight="400" font-style="" opacity="1" y="4.375" transform="rotate(0)"><tspan id="SvgjsTspan1020" dy="16.25" x="35"><tspan id="SvgjsTspan1021" style="">Service</tspan></tspan></text></g></g><g id="SvgjsG1022" transform="translate(215.66666666666669,25)"><path id="SvgjsPath1023" d="M 35 30L 35 490" stroke-dasharray="3,4" stroke="rgba(33,41,48,1)" stroke-width="2" fill="none"></path><path id="SvgjsPath1024" d="M 0 0L 70 0L 70 30L 0 30Z" stroke="rgba(33,41,48,1)" stroke-width="1.5" fill-opacity="1" fill="#a7932c"></path><g id="SvgjsG1025"><text id="SvgjsText1026" font-family="&quot;Comic Sans MS&quot;" text-anchor="middle" font-size="13px" width="50px" fill="#323232" font-weight="400" align="middle" lineHeight="125%" anchor="middle" family="&quot;Comic Sans MS&quot;" size="13px" weight="400" font-style="" opacity="1" y="4.375" transform="rotate(0)"><tspan id="SvgjsTspan1027" dy="16.25" x="35"><tspan id="SvgjsTspan1028" style="">Redis</tspan></tspan></text></g></g><g id="SvgjsG1029" transform="translate(406.3333333333333,25)"><path id="SvgjsPath1030" d="M 35 30L 35 490" stroke-dasharray="3,4" stroke="rgba(33,41,48,1)" stroke-width="2" fill="none"></path><path id="SvgjsPath1031" d="M 0 0L 70 0L 70 30L 0 30Z" stroke="rgba(33,41,48,1)" stroke-width="1.5" fill-opacity="1" fill="#7985ec"></path><g id="SvgjsG1032"><text id="SvgjsText1033" font-family="&quot;Comic Sans MS&quot;" text-anchor="middle" font-size="13px" width="50px" fill="#323232" font-weight="400" align="middle" lineHeight="125%" anchor="middle" family="&quot;Comic Sans MS&quot;" size="13px" weight="400" font-style="" opacity="1" y="4.375" transform="rotate(0)"><tspan id="SvgjsTspan1034" dy="16.25" x="35"><tspan id="SvgjsTspan1035" style="">MySQL</tspan></tspan></text></g></g><g id="SvgjsG1036" transform="translate(427.3333333333333,96)"><path id="SvgjsPath1037" d="M 0 4Q 0 0 4 0L 26 0Q 30 0 30 4L 30 76Q 30 80 26 80L 4 80Q 0 80 0 76L 0 4Z" stroke="rgba(33,41,48,1)" stroke-width="1.5" fill-opacity="1" fill="#d2d6f9"></path></g><g id="SvgjsG1038" transform="translate(45,190)"><path id="SvgjsPath1039" d="M 0 4Q 0 0 4 0L 26 0Q 30 0 30 4L 30 76Q 30 80 26 80L 4 80Q 0 80 0 76L 0 4Z" stroke="rgba(33,41,48,1)" stroke-width="1.5" fill-opacity="1" fill="#d2d6f9"></path></g><g id="SvgjsG1040" transform="translate(427.3333333333333,190)"><path id="SvgjsPath1041" d="M 0 4Q 0 0 4 0L 26 0Q 30 0 30 4L 30 76Q 30 80 26 80L 4 80Q 0 80 0 76L 0 4Z" stroke="rgba(33,41,48,1)" stroke-width="1.5" fill-opacity="1" fill="#d2d6f9"></path></g><g id="SvgjsG1042"><path id="SvgjsPath1043" d="M75.75 230L251.16666666666669 230L251.16666666666669 230L424.63333333333327 230" stroke="#323232" stroke-width="1.5" fill="none" marker-end="url(#SvgjsMarker1044)"></path><rect id="SvgjsRect1046" width="96" height="18" x="200.0036868110984" y="221" fill="#ffffff"></rect><text id="SvgjsText1047" font-family="&quot;Comic Sans MS&quot;" text-anchor="middle" font-size="13px" width="96px" fill="#323232" font-weight="400" align="top" lineHeight="16px" anchor="middle" family="&quot;Comic Sans MS&quot;" size="13px" weight="400" font-style="" opacity="1" y="218.375" transform="rotate(0)"><tspan id="SvgjsTspan1048" dy="16.25" x="248.0036868110984"><tspan id="SvgjsTspan1049" style="">update key = 80</tspan></tspan></text><rect id="SvgjsRect1050" width="108" height="18" x="207.13156594450777" y="221" fill="#ffffff"></rect><text id="SvgjsText1051" font-family="&quot;Comic Sans MS&quot;" text-anchor="middle" font-size="13px" width="108px" fill="#323232" font-weight="400" align="top" lineHeight="16px" anchor="middle" family="&quot;Comic Sans MS&quot;" size="13px" weight="400" font-style="" opacity="1" y="218.375" transform="rotate(0)"><tspan id="SvgjsTspan1052" dy="16.25" x="261.13156594450777"><tspan id="SvgjsTspan1053" style="">update stock = 99</tspan></tspan></text></g><g id="SvgjsG1054" transform="translate(45,284)"><path id="SvgjsPath1055" d="M 0 4Q 0 0 4 0L 26 0Q 30 0 30 4L 30 76Q 30 80 26 80L 4 80Q 0 80 0 76L 0 4Z" stroke="rgba(33,41,48,1)" stroke-width="1.5" fill-opacity="1" fill="#d2d6f9"></path></g><g id="SvgjsG1056" transform="translate(235.66666666666669,284)"><path id="SvgjsPath1057" d="M 0 4Q 0 0 4 0L 26 0Q 30 0 30 4L 30 76Q 30 80 26 80L 4 80Q 0 80 0 76L 0 4Z" stroke="rgba(33,41,48,1)" stroke-width="1.5" fill-opacity="1" fill="#d2d6f9"></path></g><g id="SvgjsG1058"><path id="SvgjsPath1059" d="M75.75 324L155.33333333333331 324L155.33333333333331 324L232.96666666666664 324" stroke-dasharray="8,5" stroke="#a66a30" stroke-width="1.5" fill="none" marker-end="url(#SvgjsMarker1060)"></path><rect id="SvgjsRect1062" width="108" height="34" x="99.15514455782306" y="307" fill="#ffffff"></rect><text id="SvgjsText1063" font-family="&quot;Comic Sans MS&quot;" text-anchor="middle" font-size="13px" width="108px" fill="#a66a30" font-weight="400" align="top" lineHeight="16px" anchor="middle" family="&quot;Comic Sans MS&quot;" size="13px" weight="400" font-style="" opacity="1" y="304.375" transform="rotate(0)"><tspan id="SvgjsTspan1064" dy="16.25" x="153.15514455782306"><tspan id="SvgjsTspan1065" style="">update stock = 99</tspan></tspan><tspan id="SvgjsTspan1066" dy="16.25" x="153.15514455782306"><tspan id="SvgjsTspan1067" style="">error</tspan></tspan></text></g><g id="SvgjsG1068" transform="translate(235.66666666666669,382)"><path id="SvgjsPath1069" d="M 0 4Q 0 0 4 0L 26 0Q 30 0 30 4L 30 76Q 30 80 26 80L 4 80Q 0 80 0 76L 0 4Z" stroke="rgba(33,41,48,1)" stroke-width="1.5" fill-opacity="1" fill="#d2d6f9"></path></g><g id="SvgjsG1070" transform="translate(447.3333333333333,117)"><path id="SvgjsPath1071" d="M 0 0L 100 0L 100 40L 0 40Z" stroke="none" fill="none"></path><g id="SvgjsG1072"><text id="SvgjsText1073" font-family="&quot;Comic Sans MS&quot;" text-anchor="middle" font-size="13px" width="100px" fill="#323232" font-weight="400" align="middle" lineHeight="125%" anchor="middle" family="&quot;Comic Sans MS&quot;" size="13px" weight="400" font-style="" opacity="1" y="9.375" transform="rotate(0)"><tspan id="SvgjsTspan1074" dy="16.25" x="50"><tspan id="SvgjsTspan1075" style="">stock = 100</tspan></tspan></text></g></g><g id="SvgjsG1076" transform="translate(235.66666666666669,96)"><path id="SvgjsPath1077" d="M 0 4Q 0 0 4 0L 26 0Q 30 0 30 4L 30 76Q 30 80 26 80L 4 80Q 0 80 0 76L 0 4Z" stroke="rgba(33,41,48,1)" stroke-width="1.5" fill-opacity="1" fill="#d2d6f9"></path></g><g id="SvgjsG1078" transform="translate(250.33333333333331,116)"><path id="SvgjsPath1079" d="M 0 0L 100 0L 100 40L 0 40Z" stroke="none" fill="none"></path><g id="SvgjsG1080"><text id="SvgjsText1081" font-family="&quot;Comic Sans MS&quot;" text-anchor="middle" font-size="13px" width="100px" fill="#323232" font-weight="400" align="middle" lineHeight="125%" anchor="middle" family="&quot;Comic Sans MS&quot;" size="13px" weight="400" font-style="" opacity="1" y="9.375" transform="rotate(0)"><tspan id="SvgjsTspan1082" dy="16.25" x="50"><tspan id="SvgjsTspan1083" style="">stock = 100</tspan></tspan></text></g></g><g id="SvgjsG1084" transform="translate(427.3333333333333,382)"><path id="SvgjsPath1085" d="M 0 4Q 0 0 4 0L 26 0Q 30 0 30 4L 30 76Q 30 80 26 80L 4 80Q 0 80 0 76L 0 4Z" stroke="rgba(33,41,48,1)" stroke-width="1.5" fill-opacity="1" fill="#d2d6f9"></path></g><g id="SvgjsG1086" transform="translate(457.3333333333333,402)"><path id="SvgjsPath1087" d="M 0 0L 100 0L 100 40L 0 40Z" stroke="none" fill="none"></path><g id="SvgjsG1088"><text id="SvgjsText1089" font-family="&quot;Comic Sans MS&quot;" text-anchor="middle" font-size="13px" width="100px" fill="#323232" font-weight="400" align="middle" lineHeight="125%" anchor="middle" family="&quot;Comic Sans MS&quot;" size="13px" weight="400" font-style="" opacity="1" y="9.375" transform="rotate(0)"><tspan id="SvgjsTspan1090" dy="16.25" x="50"><tspan id="SvgjsTspan1091" style="">stock = 99</tspan></tspan></text></g></g><g id="SvgjsG1092" transform="translate(265.6666666666667,402)"><path id="SvgjsPath1093" d="M 0 0L 100 0L 100 40L 0 40Z" stroke="none" fill="none"></path><g id="SvgjsG1094"><text id="SvgjsText1095" font-family="&quot;Comic Sans MS&quot;" text-anchor="middle" font-size="13px" width="100px" fill="#323232" font-weight="400" align="middle" lineHeight="125%" anchor="middle" family="&quot;Comic Sans MS&quot;" size="13px" weight="400" font-style="" opacity="1" y="9.375" transform="rotate(0)"><tspan id="SvgjsTspan1096" dy="16.25" x="50"><tspan id="SvgjsTspan1097" style="">stock = 100</tspan></tspan></text></g></g><g id="SvgjsG1098" transform="translate(45,382)"><path id="SvgjsPath1099" d="M 0 4Q 0 0 4 0L 26 0Q 30 0 30 4L 30 76Q 30 80 26 80L 4 80Q 0 80 0 76L 0 4Z" stroke="rgba(33,41,48,1)" stroke-width="1.5" fill-opacity="1" fill="#d2d6f9"></path></g><g id="SvgjsG1100"><path id="SvgjsPath1101" d="M75.75 422L155.33333333333331 422L155.33333333333331 422L232.96666666666664 422" stroke="#323232" stroke-width="1.5" fill="none" marker-end="url(#SvgjsMarker1102)"></path><rect id="SvgjsRect1104" width="101" height="18" x="104.83686030428765" y="413" fill="#ffffff"></rect><text id="SvgjsText1105" font-family="&quot;Comic Sans MS&quot;" text-anchor="middle" font-size="13px" width="101px" fill="#323232" font-weight="400" align="top" lineHeight="16px" anchor="middle" family="&quot;Comic Sans MS&quot;" size="13px" weight="400" font-style="" opacity="1" y="410.375" transform="rotate(0)"><tspan id="SvgjsTspan1106" dy="16.25" x="155.33686030428765"><tspan id="SvgjsTspan1107" style="">read stock = 100</tspan></tspan></text></g></svg>