<svg id="SvgjsSvg1006" width="720" height="505" xmlns="http://www.w3.org/2000/svg" version="1.1" xmlns:xlink="http://www.w3.org/1999/xlink" xmlns:svgjs="http://svgjs.com/svgjs"><defs id="SvgjsDefs1007"><pattern patternUnits="userSpaceOnUse" id="pattern_mark_0" width="300" height="300"><text x="150" y="100" fill="rgba(229,229,229,0.8)" font-size="18" transform="rotate(-45, 150, 150)" style="dominant-baseline: middle; text-anchor: middle;"></text></pattern><pattern patternUnits="userSpaceOnUse" id="pattern_mark_1" width="300" height="300"><text x="150" y="200" fill="rgba(229,229,229,0.8)" font-size="18" transform="rotate(-45, 150, 150)" style="dominant-baseline: middle; text-anchor: middle;"></text></pattern><marker id="SvgjsMarker1115" markerWidth="13" markerHeight="9" refX="9.5" refY="4.5" viewBox="0 0 13 9" orient="auto" markerUnits="userSpaceOnUse" stroke-dasharray="0,0"><path id="SvgjsPath1116" d="M0,0 L13,4.5 L0,9 L0,0" fill="#323232" stroke="#323232" stroke-width="1"></path></marker><marker id="SvgjsMarker1119" markerWidth="13" markerHeight="9" refX="9.5" refY="4.5" viewBox="0 0 13 9" orient="auto" markerUnits="userSpaceOnUse" stroke-dasharray="0,0"><path id="SvgjsPath1120" d="M0,0 L13,4.5 L0,9 L0,0" fill="#323232" stroke="#323232" stroke-width="1"></path></marker><marker id="SvgjsMarker1123" markerWidth="13" markerHeight="9" refX="9.5" refY="4.5" viewBox="0 0 13 9" orient="auto" markerUnits="userSpaceOnUse" stroke-dasharray="0,0"><path id="SvgjsPath1124" d="M0,0 L13,4.5 L0,9 L0,0" fill="#323232" stroke="#323232" stroke-width="1"></path></marker><marker id="SvgjsMarker1127" markerWidth="13" markerHeight="9" refX="9.5" refY="4.5" viewBox="0 0 13 9" orient="auto" markerUnits="userSpaceOnUse" stroke-dasharray="0,0"><path id="SvgjsPath1128" d="M0,0 L13,4.5 L0,9 L0,0" fill="#323232" stroke="#323232" stroke-width="1"></path></marker><marker id="SvgjsMarker1131" markerWidth="13" markerHeight="9" refX="9.5" refY="4.5" viewBox="0 0 13 9" orient="auto" markerUnits="userSpaceOnUse" stroke-dasharray="0,0"><path id="SvgjsPath1132" d="M0,0 L13,4.5 L0,9 L0,0" fill="#323232" stroke="#323232" stroke-width="1"></path></marker><marker id="SvgjsMarker1135" markerWidth="13" markerHeight="9" refX="9.5" refY="4.5" viewBox="0 0 13 9" orient="auto" markerUnits="userSpaceOnUse" stroke-dasharray="0,0"><path id="SvgjsPath1136" d="M0,0 L13,4.5 L0,9 L0,0" fill="#323232" stroke="#323232" stroke-width="1"></path></marker><marker id="SvgjsMarker1139" markerWidth="13" markerHeight="9" refX="9.5" refY="4.5" viewBox="0 0 13 9" orient="auto" markerUnits="userSpaceOnUse" stroke-dasharray="0,0"><path id="SvgjsPath1140" d="M0,0 L13,4.5 L0,9 L0,0" fill="#323232" stroke="#323232" stroke-width="1"></path></marker><marker id="SvgjsMarker1143" markerWidth="13" markerHeight="9" refX="9.5" refY="4.5" viewBox="0 0 13 9" orient="auto" markerUnits="userSpaceOnUse" stroke-dasharray="0,0"><path id="SvgjsPath1144" d="M0,0 L13,4.5 L0,9 L0,0" fill="#323232" stroke="#323232" stroke-width="1"></path></marker><marker id="SvgjsMarker1147" markerWidth="13" markerHeight="9" refX="9.5" refY="4.5" viewBox="0 0 13 9" orient="auto" markerUnits="userSpaceOnUse" stroke-dasharray="0,0"><path id="SvgjsPath1148" d="M0,0 L13,4.5 L0,9 L0,0" fill="#323232" stroke="#323232" stroke-width="1"></path></marker><marker id="SvgjsMarker1151" markerWidth="13" markerHeight="9" refX="9.5" refY="4.5" viewBox="0 0 13 9" orient="auto" markerUnits="userSpaceOnUse" stroke-dasharray="0,0"><path id="SvgjsPath1152" d="M0,0 L13,4.5 L0,9 L0,0" fill="#323232" stroke="#323232" stroke-width="1"></path></marker><marker id="SvgjsMarker1155" markerWidth="13" markerHeight="9" refX="9.5" refY="4.5" viewBox="0 0 13 9" orient="auto" markerUnits="userSpaceOnUse" stroke-dasharray="0,0"><path id="SvgjsPath1156" d="M0,0 L13,4.5 L0,9 L0,0" fill="#323232" stroke="#323232" stroke-width="1"></path></marker><marker id="SvgjsMarker1159" markerWidth="13" markerHeight="9" refX="9.5" refY="4.5" viewBox="0 0 13 9" orient="auto" markerUnits="userSpaceOnUse" stroke-dasharray="0,0"><path id="SvgjsPath1160" d="M0,0 L13,4.5 L0,9 L0,0" fill="#323232" stroke="#323232" stroke-width="1"></path></marker><marker id="SvgjsMarker1163" markerWidth="13" markerHeight="9" refX="9.5" refY="4.5" viewBox="0 0 13 9" orient="auto" markerUnits="userSpaceOnUse" stroke-dasharray="0,0"><path id="SvgjsPath1164" d="M0,0 L13,4.5 L0,9 L0,0" fill="#323232" stroke="#323232" stroke-width="1"></path></marker><marker id="SvgjsMarker1167" markerWidth="13" markerHeight="9" refX="9.5" refY="4.5" viewBox="0 0 13 9" orient="auto" markerUnits="userSpaceOnUse" stroke-dasharray="0,0"><path id="SvgjsPath1168" d="M0,0 L13,4.5 L0,9 L0,0" fill="#323232" stroke="#323232" stroke-width="1"></path></marker><marker id="SvgjsMarker1171" markerWidth="13" markerHeight="9" refX="9.5" refY="4.5" viewBox="0 0 13 9" orient="auto" markerUnits="userSpaceOnUse" stroke-dasharray="0,0"><path id="SvgjsPath1172" d="M0,0 L13,4.5 L0,9 L0,0" fill="#323232" stroke="#323232" stroke-width="1"></path></marker></defs><rect id="svgbackgroundid" width="720" height="505" fill="transparent"></rect><rect id="SvgjsRect1009" width="720" height="505" fill="url(#pattern_mark_0)"></rect><rect id="SvgjsRect1010" width="720" height="505" fill="url(#pattern_mark_1)"></rect><g id="SvgjsG1011" transform="translate(25,240)"><path id="SvgjsPath1012" d="M 0 4Q 0 0 4 0L 96 0Q 100 0 100 4L 100 36Q 100 40 96 40L 4 40Q 0 40 0 36Z" stroke="none" fill-opacity="1" fill="#a8e26f"></path><g id="SvgjsG1013"><text id="SvgjsText1014" font-family="&quot;Comic Sans MS&quot;" text-anchor="middle" font-size="13px" width="80px" fill="#323232" font-weight="400" align="middle" lineHeight="125%" anchor="middle" family="&quot;Comic Sans MS&quot;" size="13px" weight="400" font-style="" opacity="1" y="9.375" transform="rotate(0)"><tspan id="SvgjsTspan1015" dy="16.25" x="50"><tspan id="SvgjsTspan1016" style="">redisObject</tspan></tspan></text></g></g><g id="SvgjsG1017" transform="translate(185,80)"><path id="SvgjsPath1018" d="M 0 4Q 0 0 4 0L 124 0Q 128 0 128 4L 128 36Q 128 40 124 40L 4 40Q 0 40 0 36Z" stroke="none" fill-opacity="1" fill="#97bce3"></path><g id="SvgjsG1019"><text id="SvgjsText1020" font-family="&quot;Comic Sans MS&quot;" text-anchor="middle" font-size="13px" width="108px" fill="#323232" font-weight="400" align="middle" lineHeight="125%" anchor="middle" family="&quot;Comic Sans MS&quot;" size="13px" weight="400" font-style="" opacity="1" y="0.875" transform="rotate(0)"><tspan id="SvgjsTspan1021" dy="16.25" x="64"><tspan id="SvgjsTspan1022" style="">字符串</tspan></tspan><tspan id="SvgjsTspan1023" dy="16.25" x="64"><tspan id="SvgjsTspan1024" style="">REDIS_STRING</tspan></tspan></text></g></g><g id="SvgjsG1025" transform="translate(185,400)"><path id="SvgjsPath1026" d="M 0 4Q 0 0 4 0L 124 0Q 128 0 128 4L 128 36Q 128 40 124 40L 4 40Q 0 40 0 36Z" stroke="none" fill-opacity="1" fill="#97bce3"></path><g id="SvgjsG1027"><text id="SvgjsText1028" font-family="&quot;Comic Sans MS&quot;" text-anchor="middle" font-size="13px" width="108px" fill="#323232" font-weight="400" align="middle" lineHeight="125%" anchor="middle" family="&quot;Comic Sans MS&quot;" size="13px" weight="400" font-style="" opacity="1" y="0.875" transform="rotate(0)"><tspan id="SvgjsTspan1029" dy="16.25" x="64"><tspan id="SvgjsTspan1030" style="">集合</tspan></tspan><tspan id="SvgjsTspan1031" dy="16.25" x="64"><tspan id="SvgjsTspan1032" style="">REDIS_SET</tspan></tspan></text></g></g><g id="SvgjsG1033" transform="translate(185,320)"><path id="SvgjsPath1034" d="M 0 4Q 0 0 4 0L 124 0Q 128 0 128 4L 128 36Q 128 40 124 40L 4 40Q 0 40 0 36Z" stroke="none" fill-opacity="1" fill="#97bce3"></path><g id="SvgjsG1035"><text id="SvgjsText1036" font-family="&quot;Comic Sans MS&quot;" text-anchor="middle" font-size="13px" width="108px" fill="#323232" font-weight="400" align="middle" lineHeight="125%" anchor="middle" family="&quot;Comic Sans MS&quot;" size="13px" weight="400" font-style="" opacity="1" y="0.875" transform="rotate(0)"><tspan id="SvgjsTspan1037" dy="16.25" x="64"><tspan id="SvgjsTspan1038" style="">哈希表</tspan></tspan><tspan id="SvgjsTspan1039" dy="16.25" x="64"><tspan id="SvgjsTspan1040" style="">REDIS_HASH</tspan></tspan></text></g></g><g id="SvgjsG1041" transform="translate(185,160)"><path id="SvgjsPath1042" d="M 0 4Q 0 0 4 0L 124 0Q 128 0 128 4L 128 36Q 128 40 124 40L 4 40Q 0 40 0 36Z" stroke="none" fill-opacity="1" fill="#97bce3"></path><g id="SvgjsG1043"><text id="SvgjsText1044" font-family="&quot;Comic Sans MS&quot;" text-anchor="middle" font-size="13px" width="108px" fill="#323232" font-weight="400" align="middle" lineHeight="125%" anchor="middle" family="&quot;Comic Sans MS&quot;" size="13px" weight="400" font-style="" opacity="1" y="0.875" transform="rotate(0)"><tspan id="SvgjsTspan1045" dy="16.25" x="64"><tspan id="SvgjsTspan1046" style="">列表</tspan></tspan><tspan id="SvgjsTspan1047" dy="16.25" x="64"><tspan id="SvgjsTspan1048" style="">REDIS_LIST</tspan></tspan></text></g></g><g id="SvgjsG1049" transform="translate(185,240)"><path id="SvgjsPath1050" d="M 0 4Q 0 0 4 0L 124 0Q 128 0 128 4L 128 36Q 128 40 124 40L 4 40Q 0 40 0 36Z" stroke="none" fill-opacity="1" fill="#97bce3"></path><g id="SvgjsG1051"><text id="SvgjsText1052" font-family="&quot;Comic Sans MS&quot;" text-anchor="middle" font-size="13px" width="108px" fill="#323232" font-weight="400" align="middle" lineHeight="125%" anchor="middle" family="&quot;Comic Sans MS&quot;" size="13px" weight="400" font-style="" opacity="1" y="0.875" transform="rotate(0)"><tspan id="SvgjsTspan1053" dy="16.25" x="64"><tspan id="SvgjsTspan1054" style="">有序集合</tspan></tspan><tspan id="SvgjsTspan1055" dy="16.25" x="64"><tspan id="SvgjsTspan1056" style="">REDIS_ZSET</tspan></tspan></text></g></g><g id="SvgjsG1057" transform="translate(455,25)"><path id="SvgjsPath1058" d="M 0 4Q 0 0 4 0L 236 0Q 240 0 240 4L 240 36Q 240 40 236 40L 4 40Q 0 40 0 36Z" stroke="none" fill-opacity="1" fill="#f9dcae"></path><g id="SvgjsG1059"><text id="SvgjsText1060" font-family="&quot;Comic Sans MS&quot;" text-anchor="middle" font-size="13px" width="220px" fill="#323232" font-weight="400" align="middle" lineHeight="125%" anchor="middle" family="&quot;Comic Sans MS&quot;" size="13px" weight="400" font-style="" opacity="1" y="0.875" transform="rotate(0)"><tspan id="SvgjsTspan1061" dy="16.25" x="120"><tspan id="SvgjsTspan1062" style="">整数</tspan></tspan><tspan id="SvgjsTspan1063" dy="16.25" x="120"><tspan id="SvgjsTspan1064" style="">REDIS_ENCODING_INT</tspan></tspan></text></g></g><g id="SvgjsG1065" transform="translate(455,94.16666666666667)"><path id="SvgjsPath1066" d="M 0 4Q 0 0 4 0L 236 0Q 240 0 240 4L 240 36Q 240 40 236 40L 4 40Q 0 40 0 36Z" stroke="none" fill-opacity="1" fill="#f9dcae"></path><g id="SvgjsG1067"><text id="SvgjsText1068" font-family="&quot;Comic Sans MS&quot;" text-anchor="middle" font-size="13px" width="220px" fill="#323232" font-weight="400" align="middle" lineHeight="125%" anchor="middle" family="&quot;Comic Sans MS&quot;" size="13px" weight="400" font-style="" opacity="1" y="0.875" transform="rotate(0)"><tspan id="SvgjsTspan1069" dy="16.25" x="120"><tspan id="SvgjsTspan1070" style="">字符串</tspan></tspan><tspan id="SvgjsTspan1071" dy="16.25" x="120"><tspan id="SvgjsTspan1072" style="">REDIS_ENCODING_RAW</tspan></tspan></text></g></g><g id="SvgjsG1073" transform="translate(455,163.33333333333334)"><path id="SvgjsPath1074" d="M 0 4Q 0 0 4 0L 236 0Q 240 0 240 4L 240 36Q 240 40 236 40L 4 40Q 0 40 0 36Z" stroke="none" fill-opacity="1" fill="#f9dcae"></path><g id="SvgjsG1075"><text id="SvgjsText1076" font-family="&quot;Comic Sans MS&quot;" text-anchor="middle" font-size="13px" width="220px" fill="#323232" font-weight="400" align="middle" lineHeight="125%" anchor="middle" family="&quot;Comic Sans MS&quot;" size="13px" weight="400" font-style="" opacity="1" y="0.875" transform="rotate(0)"><tspan id="SvgjsTspan1077" dy="16.25" x="120"><tspan id="SvgjsTspan1078" style="">双端链表</tspan></tspan><tspan id="SvgjsTspan1079" dy="16.25" x="120"><tspan id="SvgjsTspan1080" style="">REDIS_ENCODING_LINKEDLIST</tspan></tspan></text></g></g><g id="SvgjsG1081" transform="translate(455,301.6666666666667)"><path id="SvgjsPath1082" d="M 0 4Q 0 0 4 0L 236 0Q 240 0 240 4L 240 36Q 240 40 236 40L 4 40Q 0 40 0 36Z" stroke="none" fill-opacity="1" fill="#f9dcae"></path><g id="SvgjsG1083"><text id="SvgjsText1084" font-family="&quot;Comic Sans MS&quot;" text-anchor="middle" font-size="13px" width="220px" fill="#323232" font-weight="400" align="middle" lineHeight="125%" anchor="middle" family="&quot;Comic Sans MS&quot;" size="13px" weight="400" font-style="" opacity="1" y="0.875" transform="rotate(0)"><tspan id="SvgjsTspan1085" dy="16.25" x="120"><tspan id="SvgjsTspan1086" style="">压缩列表</tspan></tspan><tspan id="SvgjsTspan1087" dy="16.25" x="120"><tspan id="SvgjsTspan1088" style="">REDIS_ENCODING_ZIPLIST</tspan></tspan></text></g></g><g id="SvgjsG1089" transform="translate(455,440)"><path id="SvgjsPath1090" d="M 0 4Q 0 0 4 0L 236 0Q 240 0 240 4L 240 36Q 240 40 236 40L 4 40Q 0 40 0 36Z" stroke="none" fill-opacity="1" fill="#f9dcae"></path><g id="SvgjsG1091"><text id="SvgjsText1092" font-family="&quot;Comic Sans MS&quot;" text-anchor="middle" font-size="13px" width="220px" fill="#323232" font-weight="400" align="middle" lineHeight="125%" anchor="middle" family="&quot;Comic Sans MS&quot;" size="13px" weight="400" font-style="" opacity="1" y="0.875" transform="rotate(0)"><tspan id="SvgjsTspan1093" dy="16.25" x="120"><tspan id="SvgjsTspan1094" style="">整数集合</tspan></tspan><tspan id="SvgjsTspan1095" dy="16.25" x="120"><tspan id="SvgjsTspan1096" style="">REDIS_ENCODING_INTSET</tspan></tspan></text></g></g><g id="SvgjsG1097" transform="translate(455,370.83333333333337)"><path id="SvgjsPath1098" d="M 0 4Q 0 0 4 0L 236 0Q 240 0 240 4L 240 36Q 240 40 236 40L 4 40Q 0 40 0 36Z" stroke="none" fill-opacity="1" fill="#f9dcae"></path><g id="SvgjsG1099"><text id="SvgjsText1100" font-family="&quot;Comic Sans MS&quot;" text-anchor="middle" font-size="13px" width="220px" fill="#323232" font-weight="400" align="middle" lineHeight="125%" anchor="middle" family="&quot;Comic Sans MS&quot;" size="13px" weight="400" font-style="" opacity="1" y="0.875" transform="rotate(0)"><tspan id="SvgjsTspan1101" dy="16.25" x="120"><tspan id="SvgjsTspan1102" style="">字典</tspan></tspan><tspan id="SvgjsTspan1103" dy="16.25" x="120"><tspan id="SvgjsTspan1104" style="">REDIS_ENCODING_HT</tspan></tspan></text></g></g><g id="SvgjsG1105" transform="translate(455,232.5)"><path id="SvgjsPath1106" d="M 0 4Q 0 0 4 0L 236 0Q 240 0 240 4L 240 36Q 240 40 236 40L 4 40Q 0 40 0 36Z" stroke="none" fill-opacity="1" fill="#f9dcae"></path><g id="SvgjsG1107"><text id="SvgjsText1108" font-family="&quot;Comic Sans MS&quot;" text-anchor="middle" font-size="13px" width="220px" fill="#323232" font-weight="400" align="middle" lineHeight="125%" anchor="middle" family="&quot;Comic Sans MS&quot;" size="13px" weight="400" font-style="" opacity="1" y="0.875" transform="rotate(0)"><tspan id="SvgjsTspan1109" dy="16.25" x="120"><tspan id="SvgjsTspan1110" style="">跳跃表</tspan></tspan><tspan id="SvgjsTspan1111" dy="16.25" x="120"><tspan id="SvgjsTspan1112" style="">REDIS_ENCODING_SKIPLIST</tspan></tspan></text></g></g><g id="SvgjsG1113"><path id="SvgjsPath1114" d="M125 260C 193.35202996254026 259.99999999999994 116.64797003745974 100 183.0817286956788 100.35033584318171" stroke="#323232" stroke-width="1.5" fill="none" marker-end="url(#SvgjsMarker1115)"></path></g><g id="SvgjsG1117"><path id="SvgjsPath1118" d="M125 260C 149 260 161 260 183.05 260" stroke="#323232" stroke-width="1.5" fill="none" marker-end="url(#SvgjsMarker1119)"></path></g><g id="SvgjsG1121"><path id="SvgjsPath1122" d="M125 260C 165 259.99999999999994 145 180 183.1148853615146 180.49884145754743" stroke="#323232" stroke-width="1.5" fill="none" marker-end="url(#SvgjsMarker1123)"></path></g><g id="SvgjsG1125"><path id="SvgjsPath1126" d="M125 260C 165 259.99999999999994 145 340 183.1148853615146 339.5011585424526" stroke="#323232" stroke-width="1.5" fill="none" marker-end="url(#SvgjsMarker1127)"></path></g><g id="SvgjsG1129"><path id="SvgjsPath1130" d="M125 260C 193.35202996254026 259.99999999999994 116.64797003745974 420 183.0817286956788 419.6496641568183" stroke="#323232" stroke-width="1.5" fill="none" marker-end="url(#SvgjsMarker1131)"></path></g><g id="SvgjsG1133"><path id="SvgjsPath1134" d="M313 100C 373.9117394268133 99.99999999999994 394.0882605731867 45 453.05489089582284 45.13802381260925" stroke="#323232" stroke-width="1.5" fill="none" marker-end="url(#SvgjsMarker1135)"></path></g><g id="SvgjsG1137"><path id="SvgjsPath1138" d="M313 100C 370.08196835351 99.99999999999994 397.91803164649 114.16666666666669 453.05041099877803 114.12663260224332" stroke="#323232" stroke-width="1.5" fill="none" marker-end="url(#SvgjsMarker1139)"></path></g><g id="SvgjsG1141"><path id="SvgjsPath1142" d="M313 180C 369.81564729700597 179.99999999999994 398.18435270299403 183.33333333333334 453.05002314169644 183.32383322382194" stroke="#323232" stroke-width="1.5" fill="none" marker-end="url(#SvgjsMarker1143)"></path></g><g id="SvgjsG1145"><path id="SvgjsPath1146" d="M313 180C 393.2331048328002 179.99999999999991 374.7668951671998 321.6666666666667 453.06150927360454 321.45511595482964" stroke="#323232" stroke-width="1.5" fill="none" marker-end="url(#SvgjsMarker1147)"></path></g><g id="SvgjsG1149"><path id="SvgjsPath1150" d="M313 260C 369.8791701767879 259.99999999999994 398.1208298232121 252.5 453.05011668335396 252.52133193534104" stroke="#323232" stroke-width="1.5" fill="none" marker-end="url(#SvgjsMarker1151)"></path></g><g id="SvgjsG1153"><path id="SvgjsPath1154" d="M313 260C 374.92482898195556 259.99999999999994 393.07517101804444 321.6666666666667 453.0557870195023 321.5165470927787" stroke="#323232" stroke-width="1.5" fill="none" marker-end="url(#SvgjsMarker1155)"></path></g><g id="SvgjsG1157"><path id="SvgjsPath1158" d="M313 340C 370.2714394596275 339.99999999999994 397.7285605403725 321.6666666666667 453.0506801226935 321.7181643941682" stroke="#323232" stroke-width="1.5" fill="none" marker-end="url(#SvgjsMarker1159)"></path></g><g id="SvgjsG1161"><path id="SvgjsPath1162" d="M313 340C 373.3297973181118 339.99999999999994 394.6702026818882 390.83333333333337 453.0543274125978 390.7034942689827" stroke="#323232" stroke-width="1.5" fill="none" marker-end="url(#SvgjsMarker1163)"></path></g><g id="SvgjsG1165"><path id="SvgjsPath1166" d="M313 420C 370.98578369834377 419.99999999999994 397.01421630165623 390.83333333333337 453.0516458394677 390.91343367750534" stroke="#323232" stroke-width="1.5" fill="none" marker-end="url(#SvgjsMarker1167)"></path></g><g id="SvgjsG1169"><path id="SvgjsPath1170" d="M313 420C 372.01050753891207 419.99999999999994 395.98949246108793 460 453.05290465317535 459.89360587246574" stroke="#323232" stroke-width="1.5" fill="none" marker-end="url(#SvgjsMarker1171)"></path></g></svg>