<svg id="SvgjsSvg1006" width="650" height="619.3333333333333" xmlns="http://www.w3.org/2000/svg" version="1.1" xmlns:xlink="http://www.w3.org/1999/xlink" xmlns:svgjs="http://svgjs.com/svgjs"><defs id="SvgjsDefs1007"><pattern patternUnits="userSpaceOnUse" id="pattern_mark_0" width="300" height="300"><text x="150" y="100" fill="rgba(229,229,229,0.8)" font-size="18" transform="rotate(-45, 150, 150)" style="dominant-baseline: middle; text-anchor: middle;"></text></pattern><pattern patternUnits="userSpaceOnUse" id="pattern_mark_1" width="300" height="300"><text x="150" y="200" fill="rgba(229,229,229,0.8)" font-size="18" transform="rotate(-45, 150, 150)" style="dominant-baseline: middle; text-anchor: middle;"></text></pattern></defs><rect id="svgbackgroundid" width="650" height="619.3333333333333" fill="transparent"></rect><rect id="SvgjsRect1009" width="650" height="619.3333333333333" fill="url(#pattern_mark_0)"></rect><rect id="SvgjsRect1010" width="650" height="619.3333333333333" fill="url(#pattern_mark_1)"></rect><g id="SvgjsG1011" transform="translate(25,106.99999999999994)"><path id="SvgjsPath1012" d="M 0 0L 200 0L 200 100L 0 100Z" stroke="rgba(33,41,48,1)" stroke-width="1.5" fill-opacity="1" fill="#f29d2e"></path><g id="SvgjsG1013"><text id="SvgjsText1014" font-family="&quot;Microsoft YaHei&quot;, 微软雅黑, Arial" text-anchor="middle" font-size="13px" width="180px" fill="#323232" font-weight="700" align="middle" lineHeight="125%" anchor="middle" family="&quot;Microsoft YaHei&quot;, 微软雅黑, Arial" size="13px" weight="700" font-style="" opacity="1" y="30.875" transform="rotate(0)"><tspan id="SvgjsTspan1015" dy="16.25" x="100"><tspan id="SvgjsTspan1016" style="">伊甸园</tspan></tspan><tspan id="SvgjsTspan1017" dy="16.25" x="100"><tspan id="SvgjsTspan1018" style="">(Eden)</tspan></tspan></text></g></g><g id="SvgjsG1019" transform="translate(25,206.99999999999994)"><path id="SvgjsPath1020" d="M 0 0L 100 0L 100 40L 0 40Z" stroke="rgba(33,41,48,1)" stroke-width="1.5" fill-opacity="1" fill="#ef4630"></path><g id="SvgjsG1021"><text id="SvgjsText1022" font-family="&quot;Microsoft YaHei&quot;, 微软雅黑, Arial" text-anchor="middle" font-size="13px" width="80px" fill="#323232" font-weight="400" align="middle" lineHeight="125%" anchor="middle" family="&quot;Microsoft YaHei&quot;, 微软雅黑, Arial" size="13px" weight="400" font-style="" opacity="1" y="9.375" transform="rotate(0)"><tspan id="SvgjsTspan1023" dy="16.25" x="50"><tspan id="SvgjsTspan1024" style="">S0</tspan></tspan></text></g></g><g id="SvgjsG1025" transform="translate(125,206.99999999999994)"><path id="SvgjsPath1026" d="M 0 0L 100 0L 100 40L 0 40Z" stroke="rgba(33,41,48,1)" stroke-width="1.5" fill-opacity="1" fill="#ef4630"></path><g id="SvgjsG1027"><text id="SvgjsText1028" font-family="&quot;Microsoft YaHei&quot;, 微软雅黑, Arial" text-anchor="middle" font-size="13px" width="80px" fill="#323232" font-weight="400" align="middle" lineHeight="125%" anchor="middle" family="&quot;Microsoft YaHei&quot;, 微软雅黑, Arial" size="13px" weight="400" font-style="" opacity="1" y="9.375" transform="rotate(0)"><tspan id="SvgjsTspan1029" dy="16.25" x="50"><tspan id="SvgjsTspan1030" style="">S0</tspan></tspan></text></g></g><g id="SvgjsG1031" transform="translate(235,106.99999999999994)"><path id="SvgjsPath1032" d="M 0 0L 100 0L 100 140L 0 140Z" stroke="rgba(33,41,48,1)" stroke-width="1.5" fill-opacity="1" fill="#423fff"></path><g id="SvgjsG1033"><text id="SvgjsText1034" font-family="&quot;Microsoft YaHei&quot;, 微软雅黑, Arial" text-anchor="middle" font-size="13px" width="80px" fill="#ffffff" font-weight="700" align="middle" lineHeight="125%" anchor="middle" family="&quot;Microsoft YaHei&quot;, 微软雅黑, Arial" size="13px" weight="700" font-style="" opacity="1" y="42.875" transform="rotate(0)"><tspan id="SvgjsTspan1035" dy="16.25" x="50"><tspan id="SvgjsTspan1036" style="">老年代</tspan></tspan><tspan id="SvgjsTspan1037" dy="16.25" x="50"><tspan id="SvgjsTspan1038" style="">(Tenured/Old </tspan></tspan><tspan id="SvgjsTspan1039" dy="16.25" x="50"><tspan id="SvgjsTspan1040" style="">generation)</tspan></tspan></text></g></g><g id="SvgjsG1041" transform="translate(345,106.99999999999994)"><path id="SvgjsPath1042" d="M 0 0L 100 0L 100 140L 0 140Z" stroke="rgba(33,41,48,1)" stroke-width="1.5" fill-opacity="1" fill="#5daeff"></path><g id="SvgjsG1043"><text id="SvgjsText1044" font-family="&quot;Microsoft YaHei&quot;, 微软雅黑, Arial" text-anchor="middle" font-size="13px" width="80px" fill="#323232" font-weight="700" align="middle" lineHeight="125%" anchor="middle" family="&quot;Microsoft YaHei&quot;, 微软雅黑, Arial" size="13px" weight="700" font-style="" opacity="1" y="42.875" transform="rotate(0)"><tspan id="SvgjsTspan1045" dy="16.25" x="50"><tspan id="SvgjsTspan1046" style="">永久代</tspan></tspan><tspan id="SvgjsTspan1047" dy="16.25" x="50"><tspan id="SvgjsTspan1048" style="">(Permanent </tspan></tspan><tspan id="SvgjsTspan1049" dy="16.25" x="50"><tspan id="SvgjsTspan1050" style="">generation)</tspan></tspan></text></g></g><g id="SvgjsG1051" transform="translate(450,106.99999999999994)"><path id="SvgjsPath1052" d="M 0 140Q 9 140 9 131L 9 79Q 9 70 22 70Q 9 70 9 61L 9 9Q 9 0 0 0" stroke="rgba(33,41,48,1)" stroke-width="1.5" fill="none"></path><path id="SvgjsPath1053" d="M 0 0L 120 0L 120 140L 0 140Z" stroke="none" fill="none"></path><g id="SvgjsG1054"><text id="SvgjsText1055" font-family="&quot;Microsoft YaHei&quot;, 微软雅黑, Arial" text-anchor="start" font-size="13px" width="93px" fill="#323232" font-weight="700" align="middle" lineHeight="125%" anchor="start" family="&quot;Microsoft YaHei&quot;, 微软雅黑, Arial" size="13px" weight="700" font-style="" opacity="1" y="59.375" transform="rotate(0)"><tspan id="SvgjsTspan1056" dy="16.25" x="27"><tspan id="SvgjsTspan1057" style="">方法区</tspan></tspan></text></g></g><g id="SvgjsG1058" transform="matrix(6.123233995736766e-17,1,-1,6.123233995736766e-17,225,252)"><path id="SvgjsPath1059" d="M 0 199Q 4.6000000000000005 199 4.6000000000000005 190L 4.6000000000000005 108.5Q 4.6000000000000005 99.5 22 99.5Q 4.6000000000000005 99.5 4.6000000000000005 90.5L 4.6000000000000005 9Q 4.6000000000000005 0 0 0" stroke="rgba(33,41,48,1)" stroke-width="1.5" fill="none"></path><path id="SvgjsPath1060" d="M 0 0L 46 0L 46 199L 0 199Z" stroke="none" fill="none"></path><g id="SvgjsG1061"><text id="SvgjsText1062" font-family="&quot;Microsoft YaHei&quot;, 微软雅黑, Arial" text-anchor="start" font-size="13px" width="19px" fill="#323232" font-weight="700" align="middle" lineHeight="125%" anchor="start" family="&quot;Microsoft YaHei&quot;, 微软雅黑, Arial" size="13px" weight="700" font-style="" opacity="1" y="88.875" transform="rotate(0)"></text></g></g><g id="SvgjsG1063" transform="matrix(-1.8369701987210297e-16,-1,1,-1.8369701987210297e-16,26,101.00000000000003)"><path id="SvgjsPath1064" d="M 0 308Q 4.6000000000000005 308 4.6000000000000005 299L 4.6000000000000005 163Q 4.6000000000000005 154 22 154Q 4.6000000000000005 154 4.6000000000000005 145L 4.6000000000000005 9Q 4.6000000000000005 0 0 0" stroke="rgba(33,41,48,1)" stroke-width="1.5" fill="none"></path><path id="SvgjsPath1065" d="M 0 0L 46 0L 46 308L 0 308Z" stroke="none" fill="none"></path><g id="SvgjsG1066"><text id="SvgjsText1067" font-family="&quot;Microsoft YaHei&quot;, 微软雅黑, Arial" text-anchor="start" font-size="13px" width="19px" fill="#323232" font-weight="700" align="middle" lineHeight="125%" anchor="start" family="&quot;Microsoft YaHei&quot;, 微软雅黑, Arial" size="13px" weight="700" font-style="" opacity="1" y="143.375" transform="rotate(0)"></text></g></g><g id="SvgjsG1068" transform="translate(25,256.49999999999994)"><path id="SvgjsPath1069" d="M 0 0L 200 0L 200 49L 0 49Z" stroke="none" fill="none"></path><g id="SvgjsG1070"><text id="SvgjsText1071" font-family="&quot;Microsoft YaHei&quot;, 微软雅黑, Arial" text-anchor="middle" font-size="13px" width="200px" fill="#323232" font-weight="400" align="middle" lineHeight="125%" anchor="middle" family="&quot;Microsoft YaHei&quot;, 微软雅黑, Arial" size="13px" weight="400" font-style="" opacity="1" y="13.875" transform="rotate(0)"><tspan id="SvgjsTspan1072" dy="16.25" x="100"><tspan id="SvgjsTspan1073" style="font-weight: bold;">新生代(Young/New generation)</tspan></tspan></text></g></g><g id="SvgjsG1074" transform="translate(80,51.99999999999994)"><path id="SvgjsPath1075" d="M 0 0L 200 0L 200 40L 0 40Z" stroke="none" fill="none"></path><g id="SvgjsG1076"><text id="SvgjsText1077" font-family="&quot;Microsoft YaHei&quot;, 微软雅黑, Arial" text-anchor="middle" font-size="13px" width="200px" fill="#323232" font-weight="400" align="middle" lineHeight="125%" anchor="middle" family="&quot;Microsoft YaHei&quot;, 微软雅黑, Arial" size="13px" weight="400" font-style="" opacity="1" y="9.375" transform="rotate(0)"><tspan id="SvgjsTspan1078" dy="16.25" x="100"><tspan id="SvgjsTspan1079" style="font-weight: bold;">堆空间(The Heap Space)</tspan></tspan></text></g></g><g id="SvgjsG1080" transform="translate(25.99999999999997,370.3333333333333)"><path id="SvgjsPath1081" d="M 0 0L 200 0L 200 100L 0 100Z" stroke="rgba(33,41,48,1)" stroke-width="1.5" fill-opacity="1" fill="#f29d2e"></path><g id="SvgjsG1082"><text id="SvgjsText1083" font-family="&quot;Microsoft YaHei&quot;, 微软雅黑, Arial" text-anchor="middle" font-size="13px" width="180px" fill="#323232" font-weight="700" align="middle" lineHeight="125%" anchor="middle" family="&quot;Microsoft YaHei&quot;, 微软雅黑, Arial" size="13px" weight="700" font-style="" opacity="1" y="30.875" transform="rotate(0)"><tspan id="SvgjsTspan1084" dy="16.25" x="100"><tspan id="SvgjsTspan1085" style="">伊甸园</tspan></tspan><tspan id="SvgjsTspan1086" dy="16.25" x="100"><tspan id="SvgjsTspan1087" style="">(Eden)</tspan></tspan></text></g></g><g id="SvgjsG1088" transform="translate(25.99999999999997,470.3333333333333)"><path id="SvgjsPath1089" d="M 0 0L 100 0L 100 40L 0 40Z" stroke="rgba(33,41,48,1)" stroke-width="1.5" fill-opacity="1" fill="#ef4630"></path><g id="SvgjsG1090"><text id="SvgjsText1091" font-family="&quot;Microsoft YaHei&quot;, 微软雅黑, Arial" text-anchor="middle" font-size="13px" width="80px" fill="#323232" font-weight="400" align="middle" lineHeight="125%" anchor="middle" family="&quot;Microsoft YaHei&quot;, 微软雅黑, Arial" size="13px" weight="400" font-style="" opacity="1" y="9.375" transform="rotate(0)"><tspan id="SvgjsTspan1092" dy="16.25" x="50"><tspan id="SvgjsTspan1093" style="">S0</tspan></tspan></text></g></g><g id="SvgjsG1094" transform="translate(125.99999999999997,470.3333333333333)"><path id="SvgjsPath1095" d="M 0 0L 100 0L 100 40L 0 40Z" stroke="rgba(33,41,48,1)" stroke-width="1.5" fill-opacity="1" fill="#ef4630"></path><g id="SvgjsG1096"><text id="SvgjsText1097" font-family="&quot;Microsoft YaHei&quot;, 微软雅黑, Arial" text-anchor="middle" font-size="13px" width="80px" fill="#323232" font-weight="400" align="middle" lineHeight="125%" anchor="middle" family="&quot;Microsoft YaHei&quot;, 微软雅黑, Arial" size="13px" weight="400" font-style="" opacity="1" y="9.375" transform="rotate(0)"><tspan id="SvgjsTspan1098" dy="16.25" x="50"><tspan id="SvgjsTspan1099" style="">S0</tspan></tspan></text></g></g><g id="SvgjsG1100" transform="translate(236,370.3333333333333)"><path id="SvgjsPath1101" d="M 0 0L 100 0L 100 140L 0 140Z" stroke="rgba(33,41,48,1)" stroke-width="1.5" fill-opacity="1" fill="#423fff"></path><g id="SvgjsG1102"><text id="SvgjsText1103" font-family="&quot;Microsoft YaHei&quot;, 微软雅黑, Arial" text-anchor="middle" font-size="13px" width="80px" fill="#ffffff" font-weight="700" align="middle" lineHeight="125%" anchor="middle" family="&quot;Microsoft YaHei&quot;, 微软雅黑, Arial" size="13px" weight="700" font-style="" opacity="1" y="42.875" transform="rotate(0)"><tspan id="SvgjsTspan1104" dy="16.25" x="50"><tspan id="SvgjsTspan1105" style="">老年代</tspan></tspan><tspan id="SvgjsTspan1106" dy="16.25" x="50"><tspan id="SvgjsTspan1107" style="">(Tenured/Old </tspan></tspan><tspan id="SvgjsTspan1108" dy="16.25" x="50"><tspan id="SvgjsTspan1109" style="">generation)</tspan></tspan></text></g></g><g id="SvgjsG1110" transform="translate(346,370.3333333333333)"><path id="SvgjsPath1111" d="M 0 0L 100 0L 100 140L 0 140Z" stroke="rgba(33,41,48,1)" stroke-width="1.5" fill-opacity="1" fill="#5daeff"></path><g id="SvgjsG1112"><text id="SvgjsText1113" font-family="&quot;Microsoft YaHei&quot;, 微软雅黑, Arial" text-anchor="middle" font-size="13px" width="80px" fill="#323232" font-weight="700" align="middle" lineHeight="125%" anchor="middle" family="&quot;Microsoft YaHei&quot;, 微软雅黑, Arial" size="13px" weight="700" font-style="" opacity="1" y="50.875" transform="rotate(0)"><tspan id="SvgjsTspan1114" dy="16.25" x="50"><tspan id="SvgjsTspan1115" style="">元数据</tspan></tspan><tspan id="SvgjsTspan1116" dy="16.25" x="50"><tspan id="SvgjsTspan1117" style="">(Meta space)</tspan></tspan></text></g></g><g id="SvgjsG1118" transform="translate(451,370.3333333333333)"><path id="SvgjsPath1119" d="M 0 140Q 9 140 9 131L 9 79Q 9 70 22 70Q 9 70 9 61L 9 9Q 9 0 0 0" stroke="rgba(33,41,48,1)" stroke-width="1.5" fill="none"></path><path id="SvgjsPath1120" d="M 0 0L 120 0L 120 140L 0 140Z" stroke="none" fill="none"></path><g id="SvgjsG1121"><text id="SvgjsText1122" font-family="&quot;Microsoft YaHei&quot;, 微软雅黑, Arial" text-anchor="start" font-size="13px" width="93px" fill="#323232" font-weight="700" align="middle" lineHeight="125%" anchor="start" family="&quot;Microsoft YaHei&quot;, 微软雅黑, Arial" size="13px" weight="700" font-style="" opacity="1" y="59.375" transform="rotate(0)"><tspan id="SvgjsTspan1123" dy="16.25" x="27"><tspan id="SvgjsTspan1124" style="">方法区</tspan></tspan></text></g></g><g id="SvgjsG1125" transform="matrix(6.123233995736766e-17,1,-1,6.123233995736766e-17,226,515.3333435058594)"><path id="SvgjsPath1126" d="M 0 199Q 4.6000000000000005 199 4.6000000000000005 190L 4.6000000000000005 108.5Q 4.6000000000000005 99.5 22 99.5Q 4.6000000000000005 99.5 4.6000000000000005 90.5L 4.6000000000000005 9Q 4.6000000000000005 0 0 0" stroke="rgba(33,41,48,1)" stroke-width="1.5" fill="none"></path><path id="SvgjsPath1127" d="M 0 0L 46 0L 46 199L 0 199Z" stroke="none" fill="none"></path><g id="SvgjsG1128"><text id="SvgjsText1129" font-family="&quot;Microsoft YaHei&quot;, 微软雅黑, Arial" text-anchor="start" font-size="13px" width="19px" fill="#323232" font-weight="700" align="middle" lineHeight="125%" anchor="start" family="&quot;Microsoft YaHei&quot;, 微软雅黑, Arial" size="13px" weight="700" font-style="" opacity="1" y="88.875" transform="rotate(0)"></text></g></g><g id="SvgjsG1130" transform="matrix(-1.8369701987210297e-16,-1,1,-1.8369701987210297e-16,27,364.3333282470703)"><path id="SvgjsPath1131" d="M 0 308Q 4.6000000000000005 308 4.6000000000000005 299L 4.6000000000000005 163Q 4.6000000000000005 154 22 154Q 4.6000000000000005 154 4.6000000000000005 145L 4.6000000000000005 9Q 4.6000000000000005 0 0 0" stroke="rgba(33,41,48,1)" stroke-width="1.5" fill="none"></path><path id="SvgjsPath1132" d="M 0 0L 46 0L 46 308L 0 308Z" stroke="none" fill="none"></path><g id="SvgjsG1133"><text id="SvgjsText1134" font-family="&quot;Microsoft YaHei&quot;, 微软雅黑, Arial" text-anchor="start" font-size="13px" width="19px" fill="#323232" font-weight="700" align="middle" lineHeight="125%" anchor="start" family="&quot;Microsoft YaHei&quot;, 微软雅黑, Arial" size="13px" weight="700" font-style="" opacity="1" y="143.375" transform="rotate(0)"></text></g></g><g id="SvgjsG1135" transform="translate(25.99999999999997,519.8333333333333)"><path id="SvgjsPath1136" d="M 0 0L 200 0L 200 49L 0 49Z" stroke="none" fill="none"></path><g id="SvgjsG1137"><text id="SvgjsText1138" font-family="&quot;Microsoft YaHei&quot;, 微软雅黑, Arial" text-anchor="middle" font-size="13px" width="200px" fill="#323232" font-weight="400" align="middle" lineHeight="125%" anchor="middle" family="&quot;Microsoft YaHei&quot;, 微软雅黑, Arial" size="13px" weight="400" font-style="" opacity="1" y="13.875" transform="rotate(0)"><tspan id="SvgjsTspan1139" dy="16.25" x="100"><tspan id="SvgjsTspan1140" style="font-weight: bold;">新生代(Young/New generation)</tspan></tspan></text></g></g><g id="SvgjsG1141" transform="translate(80.99999999999997,315.3333333333333)"><path id="SvgjsPath1142" d="M 0 0L 200 0L 200 40L 0 40Z" stroke="none" fill="none"></path><g id="SvgjsG1143"><text id="SvgjsText1144" font-family="&quot;Microsoft YaHei&quot;, 微软雅黑, Arial" text-anchor="middle" font-size="13px" width="200px" fill="#323232" font-weight="400" align="middle" lineHeight="125%" anchor="middle" family="&quot;Microsoft YaHei&quot;, 微软雅黑, Arial" size="13px" weight="400" font-style="" opacity="1" y="9.375" transform="rotate(0)"><tspan id="SvgjsTspan1145" dy="16.25" x="100"><tspan id="SvgjsTspan1146" style="font-weight: bold;">堆空间(The Heap Space)</tspan></tspan></text></g></g><g id="SvgjsG1147" transform="translate(535.0357142857142,161.96428571428567)"><path id="SvgjsPath1148" d="M 0 0L 89.96428571428567 0L 89.96428571428567 30.071428571428555L 0 30.071428571428555Z" stroke="none" fill-opacity="1" fill="#99c3e7"></path><g id="SvgjsG1149"><text id="SvgjsText1150" font-family="&quot;Microsoft YaHei&quot;, 微软雅黑, Arial" text-anchor="middle" font-size="16px" width="70px" fill="#323232" font-weight="400" align="middle" lineHeight="125%" anchor="middle" family="&quot;Microsoft YaHei&quot;, 微软雅黑, Arial" size="16px" weight="400" font-style="" opacity="1" y="1.0357142857142776" transform="rotate(0)"><tspan id="SvgjsTspan1151" dy="20" x="45"><tspan id="SvgjsTspan1152" style="font-weight: bold;">JDK 7</tspan></tspan></text></g></g><g id="SvgjsG1153" transform="translate(535.0357142857143,425.29761904761904)"><path id="SvgjsPath1154" d="M 0 0L 89.96428571428567 0L 89.96428571428567 30.071428571428555L 0 30.071428571428555Z" stroke="none" fill-opacity="1" fill="#99c3e7"></path><g id="SvgjsG1155"><text id="SvgjsText1156" font-family="&quot;Microsoft YaHei&quot;, 微软雅黑, Arial" text-anchor="middle" font-size="16px" width="70px" fill="#323232" font-weight="400" align="middle" lineHeight="125%" anchor="middle" family="&quot;Microsoft YaHei&quot;, 微软雅黑, Arial" size="16px" weight="400" font-style="" opacity="1" y="1.0357142857142776" transform="rotate(0)"><tspan id="SvgjsTspan1157" dy="20" x="45"><tspan id="SvgjsTspan1158" style="font-weight: bold;">JDK 8</tspan></tspan></text></g></g><g id="SvgjsG1159"></g></svg>