<svg id="SvgjsSvg1006" width="630" height="250" xmlns="http://www.w3.org/2000/svg" version="1.1" xmlns:xlink="http://www.w3.org/1999/xlink" xmlns:svgjs="http://svgjs.com/svgjs"><defs id="SvgjsDefs1007"><pattern patternUnits="userSpaceOnUse" id="pattern_mark_0" width="300" height="300"><text x="150" y="100" fill="rgba(229,229,229,0.8)" font-size="18" transform="rotate(-45, 150, 150)" style="dominant-baseline: middle; text-anchor: middle;"></text></pattern><pattern patternUnits="userSpaceOnUse" id="pattern_mark_1" width="300" height="300"><text x="150" y="200" fill="rgba(229,229,229,0.8)" font-size="18" transform="rotate(-45, 150, 150)" style="dominant-baseline: middle; text-anchor: middle;"></text></pattern><marker id="SvgjsMarker1045" markerWidth="13" markerHeight="9" refX="9.5" refY="4.5" viewBox="0 0 13 9" orient="auto" markerUnits="userSpaceOnUse" stroke-dasharray="0,0"><path id="SvgjsPath1046" d="M0,0 L13,4.5 L0,9 L0,0" fill="#323232" stroke="#323232" stroke-width="1"></path></marker><marker id="SvgjsMarker1049" markerWidth="13" markerHeight="9" refX="9.5" refY="4.5" viewBox="0 0 13 9" orient="auto" markerUnits="userSpaceOnUse" stroke-dasharray="0,0"><path id="SvgjsPath1050" d="M0,0 L13,4.5 L0,9 L0,0" fill="#323232" stroke="#323232" stroke-width="1"></path></marker><marker id="SvgjsMarker1053" markerWidth="13" markerHeight="9" refX="9.5" refY="4.5" viewBox="0 0 13 9" orient="auto" markerUnits="userSpaceOnUse" stroke-dasharray="0,0"><path id="SvgjsPath1054" d="M0,0 L13,4.5 L0,9 L0,0" fill="#323232" stroke="#323232" stroke-width="1"></path></marker><marker id="SvgjsMarker1057" markerWidth="13" markerHeight="9" refX="9.5" refY="4.5" viewBox="0 0 13 9" orient="auto" markerUnits="userSpaceOnUse" stroke-dasharray="0,0"><path id="SvgjsPath1058" d="M0,0 L13,4.5 L0,9 L0,0" fill="#323232" stroke="#323232" stroke-width="1"></path></marker><marker id="SvgjsMarker1061" markerWidth="13" markerHeight="9" refX="9.5" refY="4.5" viewBox="0 0 13 9" orient="auto" markerUnits="userSpaceOnUse" stroke-dasharray="0,0"><path id="SvgjsPath1062" d="M0,0 L13,4.5 L0,9 L0,0" fill="#323232" stroke="#323232" stroke-width="1"></path></marker></defs><rect id="svgbackgroundid" width="630" height="250" fill="transparent"></rect><rect id="SvgjsRect1009" width="630" height="250" fill="url(#pattern_mark_0)"></rect><rect id="SvgjsRect1010" width="630" height="250" fill="url(#pattern_mark_1)"></rect><g id="SvgjsG1011" transform="translate(255,25)"><path id="SvgjsPath1012" d="M 0 0L 120 0L 120 60L 0 60Z" stroke="rgba(33,41,48,1)" stroke-width="1.5" fill-opacity="1" fill="#4f95fe"></path><g id="SvgjsG1013"><text id="SvgjsText1014" font-family="&quot;Microsoft YaHei&quot;, 微软雅黑, Arial" text-anchor="middle" font-size="15px" width="100px" fill="#323232" font-weight="700" align="middle" lineHeight="125%" anchor="middle" family="&quot;Microsoft YaHei&quot;, 微软雅黑, Arial" size="15px" weight="700" font-style="" opacity="1" y="-0.875" transform="rotate(0)"><tspan id="SvgjsTspan1015" dy="18.75" x="60"><tspan id="SvgjsTspan1016" style="">年轻代GC</tspan></tspan><tspan id="SvgjsTspan1017" dy="18.75" x="60"><tspan id="SvgjsTspan1018" style="">+ </tspan></tspan><tspan id="SvgjsTspan1019" dy="18.75" x="60"><tspan id="SvgjsTspan1020" style="">并发标记过程</tspan></tspan></text></g></g><g id="SvgjsG1021" transform="translate(55,25)"><path id="SvgjsPath1022" d="M 0 0L 120 0L 120 60L 0 60Z" stroke="rgba(33,41,48,1)" stroke-width="1.5" fill-opacity="1" fill="#4dde2c"></path><g id="SvgjsG1023"><text id="SvgjsText1024" font-family="&quot;Microsoft YaHei&quot;, 微软雅黑, Arial" text-anchor="middle" font-size="15px" width="100px" fill="#323232" font-weight="700" align="middle" lineHeight="125%" anchor="middle" family="&quot;Microsoft YaHei&quot;, 微软雅黑, Arial" size="15px" weight="700" font-style="" opacity="1" y="17.625" transform="rotate(0)"><tspan id="SvgjsTspan1025" dy="18.75" x="60"><tspan id="SvgjsTspan1026" style="">年轻代GC</tspan></tspan></text></g></g><g id="SvgjsG1027" transform="translate(455,25)"><path id="SvgjsPath1028" d="M 0 0L 120 0L 120 60L 0 60Z" stroke="rgba(33,41,48,1)" stroke-width="1.5" fill-opacity="1" fill="#f08502"></path><g id="SvgjsG1029"><text id="SvgjsText1030" font-family="&quot;Microsoft YaHei&quot;, 微软雅黑, Arial" text-anchor="middle" font-size="14px" width="100px" fill="#323232" font-weight="700" align="middle" lineHeight="125%" anchor="middle" family="&quot;Microsoft YaHei&quot;, 微软雅黑, Arial" size="14px" weight="700" font-style="" opacity="1" y="0.75" transform="rotate(0)"><tspan id="SvgjsTspan1031" dy="17.5" x="60"><tspan id="SvgjsTspan1032" style="">混合回收</tspan></tspan><tspan id="SvgjsTspan1033" dy="17.5" x="60"><tspan id="SvgjsTspan1034" style="font-weight: normal;">(包括年轻代GC</tspan></tspan><tspan id="SvgjsTspan1035" dy="17.5" x="60"><tspan id="SvgjsTspan1036" style="font-weight: normal;">和老年代GC)</tspan></tspan></text></g></g><g id="SvgjsG1037" transform="translate(255,165)"><path id="SvgjsPath1038" d="M 0 0L 120 0L 120 60L 0 60Z" stroke="rgba(33,41,48,1)" stroke-width="1.5" fill-opacity="1" fill="#f427ff"></path><g id="SvgjsG1039"><text id="SvgjsText1040" font-family="&quot;Microsoft YaHei&quot;, 微软雅黑, Arial" text-anchor="middle" font-size="15px" width="100px" fill="#323232" font-weight="700" align="middle" lineHeight="125%" anchor="middle" family="&quot;Microsoft YaHei&quot;, 微软雅黑, Arial" size="15px" weight="700" font-style="" opacity="1" y="17.625" transform="rotate(0)"><tspan id="SvgjsTspan1041" dy="18.75" x="60"><tspan id="SvgjsTspan1042" style="">Full GC</tspan></tspan></text></g></g><g id="SvgjsG1043"><path id="SvgjsPath1044" d="M175.75 55L215 55L215 55L252.3 55" stroke="#323232" stroke-width="1.5" fill="none" marker-end="url(#SvgjsMarker1045)"></path></g><g id="SvgjsG1047"><path id="SvgjsPath1048" d="M375.75 55L415 55L415 55L452.3 55" stroke="#323232" stroke-width="1.5" fill="none" marker-end="url(#SvgjsMarker1049)"></path></g><g id="SvgjsG1051"><path id="SvgjsPath1052" d="M575.75 55L605 55L605 115L25 115L25 55L52.3 55" stroke="#323232" stroke-width="1.5" fill="none" marker-end="url(#SvgjsMarker1053)"></path></g><g id="SvgjsG1055"><path id="SvgjsPath1056" d="M575.75 55L605 55L605 195L377.7 195" stroke-dasharray="7.5,3" stroke="#323232" stroke-width="1.5" fill="none" marker-end="url(#SvgjsMarker1057)"></path></g><g id="SvgjsG1059"><path id="SvgjsPath1060" d="M254.25 195L25 195L25 55L52.3 55" stroke-dasharray="7.5,3" stroke="#323232" stroke-width="1.5" fill="none" marker-end="url(#SvgjsMarker1061)"></path></g><g id="SvgjsG1063"></g></svg>