<svg id="SvgjsSvg1427" width="490" height="227.6818181818182" xmlns="http://www.w3.org/2000/svg" version="1.1" xmlns:xlink="http://www.w3.org/1999/xlink" xmlns:svgjs="http://svgjs.com/svgjs"><defs id="SvgjsDefs1428"><pattern patternUnits="userSpaceOnUse" id="pattern_mark_0" width="300" height="300"><text x="150" y="100" fill="rgba(229,229,229,0.8)" font-size="18" transform="rotate(-45, 150, 150)" style="dominant-baseline: middle; text-anchor: middle;"></text></pattern><pattern patternUnits="userSpaceOnUse" id="pattern_mark_1" width="300" height="300"><text x="150" y="200" fill="rgba(229,229,229,0.8)" font-size="18" transform="rotate(-45, 150, 150)" style="dominant-baseline: middle; text-anchor: middle;"></text></pattern><marker id="SvgjsMarker1498" markerWidth="16" markerHeight="12" refX="0" refY="6" viewBox="0 0 16 12" orient="auto" markerUnits="userSpaceOnUse" stroke-dasharray="0,0"><path id="SvgjsPath1499" d="M1,6 L15,1 L15,11L1,6" fill="#ffffff" stroke="#323232" stroke-width="1.5"></path></marker><marker id="SvgjsMarker1500" markerWidth="14" markerHeight="12" refX="16" refY="6" viewBox="0 0 14 12" orient="auto" markerUnits="userSpaceOnUse" stroke-dasharray="0,0"><path id="SvgjsPath1501" d="M1,1 L14,6 L1,11L1,1" fill="#ffffff" stroke="#323232" stroke-width="1.5"></path></marker><marker id="SvgjsMarker1504" markerWidth="16" markerHeight="12" refX="0" refY="6" viewBox="0 0 16 12" orient="auto" markerUnits="userSpaceOnUse" stroke-dasharray="0,0"><path id="SvgjsPath1505" d="M1,6 L15,1 L15,11L1,6" fill="#ffffff" stroke="#323232" stroke-width="1.5"></path></marker><marker id="SvgjsMarker1506" markerWidth="14" markerHeight="12" refX="16" refY="6" viewBox="0 0 14 12" orient="auto" markerUnits="userSpaceOnUse" stroke-dasharray="0,0"><path id="SvgjsPath1507" d="M1,1 L14,6 L1,11L1,1" fill="#ffffff" stroke="#323232" stroke-width="1.5"></path></marker><marker id="SvgjsMarker1510" markerWidth="16" markerHeight="12" refX="0" refY="6" viewBox="0 0 16 12" orient="auto" markerUnits="userSpaceOnUse" stroke-dasharray="0,0"><path id="SvgjsPath1511" d="M1,6 L15,1 L15,11L1,6" fill="#ffffff" stroke="#323232" stroke-width="1.5"></path></marker><marker id="SvgjsMarker1512" markerWidth="14" markerHeight="12" refX="16" refY="6" viewBox="0 0 14 12" orient="auto" markerUnits="userSpaceOnUse" stroke-dasharray="0,0"><path id="SvgjsPath1513" d="M1,1 L14,6 L1,11L1,1" fill="#ffffff" stroke="#323232" stroke-width="1.5"></path></marker><marker id="SvgjsMarker1516" markerWidth="16" markerHeight="12" refX="0" refY="6" viewBox="0 0 16 12" orient="auto" markerUnits="userSpaceOnUse" stroke-dasharray="0,0"><path id="SvgjsPath1517" d="M1,6 L15,1 L15,11L1,6" fill="#ffffff" stroke="#323232" stroke-width="1.5"></path></marker><marker id="SvgjsMarker1518" markerWidth="14" markerHeight="12" refX="16" refY="6" viewBox="0 0 14 12" orient="auto" markerUnits="userSpaceOnUse" stroke-dasharray="0,0"><path id="SvgjsPath1519" d="M1,1 L14,6 L1,11L1,1" fill="#ffffff" stroke="#323232" stroke-width="1.5"></path></marker><marker id="SvgjsMarker1522" markerWidth="16" markerHeight="12" refX="0" refY="6" viewBox="0 0 16 12" orient="auto" markerUnits="userSpaceOnUse" stroke-dasharray="0,0"><path id="SvgjsPath1523" d="M1,6 L15,1 L15,11L1,6" fill="#ffffff" stroke="#323232" stroke-width="1.5"></path></marker><marker id="SvgjsMarker1524" markerWidth="14" markerHeight="12" refX="16" refY="6" viewBox="0 0 14 12" orient="auto" markerUnits="userSpaceOnUse" stroke-dasharray="0,0"><path id="SvgjsPath1525" d="M1,1 L14,6 L1,11L1,1" fill="#ffffff" stroke="#323232" stroke-width="1.5"></path></marker><marker id="SvgjsMarker1528" markerWidth="16" markerHeight="12" refX="0" refY="6" viewBox="0 0 16 12" orient="auto" markerUnits="userSpaceOnUse" stroke-dasharray="0,0"><path id="SvgjsPath1529" d="M1,6 L15,1 L15,11L1,6" fill="#ffffff" stroke="#323232" stroke-width="1.5"></path></marker><marker id="SvgjsMarker1530" markerWidth="14" markerHeight="12" refX="16" refY="6" viewBox="0 0 14 12" orient="auto" markerUnits="userSpaceOnUse" stroke-dasharray="0,0"><path id="SvgjsPath1531" d="M1,1 L14,6 L1,11L1,1" fill="#ffffff" stroke="#323232" stroke-width="1.5"></path></marker><marker id="SvgjsMarker1534" markerWidth="16" markerHeight="12" refX="0" refY="6" viewBox="0 0 16 12" orient="auto" markerUnits="userSpaceOnUse" stroke-dasharray="0,0"><path id="SvgjsPath1535" d="M1,6 L15,1 L15,11L1,6" fill="#ffffff" stroke="#323232" stroke-width="1.5"></path></marker><marker id="SvgjsMarker1536" markerWidth="14" markerHeight="12" refX="16" refY="6" viewBox="0 0 14 12" orient="auto" markerUnits="userSpaceOnUse" stroke-dasharray="0,0"><path id="SvgjsPath1537" d="M1,1 L14,6 L1,11L1,1" fill="#ffffff" stroke="#323232" stroke-width="1.5"></path></marker></defs><rect id="svgbackgroundid" width="490" height="227.6818181818182" fill="transparent"></rect><rect id="SvgjsRect1430" width="490" height="227.6818181818182" fill="url(#pattern_mark_0)"></rect><rect id="SvgjsRect1431" width="490" height="227.6818181818182" fill="url(#pattern_mark_1)"></rect><g id="SvgjsG1432" transform="translate(25,25)"><path id="SvgjsPath1433" d="M 0 4Q 0 0 4 0L 67.86363636363637 0Q 71.86363636363637 0 71.86363636363637 4L 71.86363636363637 16.181818181818187Q 71.86363636363637 20.181818181818187 67.86363636363637 20.181818181818187L 4 20.181818181818187Q 0 20.181818181818187 0 16.181818181818187Z" stroke="rgba(33,41,48,1)" stroke-width="1.5" fill-opacity="1" fill="#ffffff"></path><g id="SvgjsG1434"><text id="SvgjsText1435" font-family="微软雅黑" text-anchor="middle" font-size="13px" width="52px" fill="#323232" font-weight="700" align="middle" lineHeight="125%" anchor="middle" family="微软雅黑" size="13px" weight="700" font-style="" opacity="1" y="-0.5340909090909065" transform="rotate(0)"><tspan id="SvgjsTspan1436" dy="16.25" x="36"><tspan id="SvgjsTspan1437" style="">处理器</tspan></tspan></text></g></g><g id="SvgjsG1438" transform="translate(25,80.22727272727272)"><path id="SvgjsPath1439" d="M 0 4Q 0 0 4 0L 67.86363636363637 0Q 71.86363636363637 0 71.86363636363637 4L 71.86363636363637 16.181818181818187Q 71.86363636363637 20.181818181818187 67.86363636363637 20.181818181818187L 4 20.181818181818187Q 0 20.181818181818187 0 16.181818181818187Z" stroke="rgba(33,41,48,1)" stroke-width="1.5" fill-opacity="1" fill="#ffffff"></path><g id="SvgjsG1440"><text id="SvgjsText1441" font-family="微软雅黑" text-anchor="middle" font-size="13px" width="52px" fill="#323232" font-weight="700" align="middle" lineHeight="125%" anchor="middle" family="微软雅黑" size="13px" weight="700" font-style="" opacity="1" y="-0.5340909090909065" transform="rotate(0)"><tspan id="SvgjsTspan1442" dy="16.25" x="36"><tspan id="SvgjsTspan1443" style="">处理器</tspan></tspan></text></g></g><g id="SvgjsG1444" transform="translate(25,135.45454545454544)"><path id="SvgjsPath1445" d="M 0 4Q 0 0 4 0L 67.86363636363637 0Q 71.86363636363637 0 71.86363636363637 4L 71.86363636363637 16.181818181818187Q 71.86363636363637 20.181818181818187 67.86363636363637 20.181818181818187L 4 20.181818181818187Q 0 20.181818181818187 0 16.181818181818187Z" stroke="rgba(33,41,48,1)" stroke-width="1.5" fill-opacity="1" fill="#ffffff"></path><g id="SvgjsG1446"><text id="SvgjsText1447" font-family="微软雅黑" text-anchor="middle" font-size="13px" width="52px" fill="#323232" font-weight="700" align="middle" lineHeight="125%" anchor="middle" family="微软雅黑" size="13px" weight="700" font-style="" opacity="1" y="-0.5340909090909065" transform="rotate(0)"><tspan id="SvgjsTspan1448" dy="16.25" x="36"><tspan id="SvgjsTspan1449" style="">处理器</tspan></tspan></text></g></g><g id="SvgjsG1450" transform="translate(179,25)"><path id="SvgjsPath1451" d="M 0 4Q 0 0 4 0L 84.22727272727275 0Q 88.22727272727275 0 88.22727272727275 4L 88.22727272727275 16.181818181818187Q 88.22727272727275 20.181818181818187 84.22727272727275 20.181818181818187L 4 20.181818181818187Q 0 20.181818181818187 0 16.181818181818187Z" stroke="rgba(33,41,48,1)" stroke-width="1.5" fill-opacity="1" fill="#ffffff"></path><g id="SvgjsG1452"><text id="SvgjsText1453" font-family="微软雅黑" text-anchor="middle" font-size="13px" width="69px" fill="#323232" font-weight="700" align="middle" lineHeight="125%" anchor="middle" family="微软雅黑" size="13px" weight="700" font-style="" opacity="1" y="-0.5340909090909065" transform="rotate(0)"><tspan id="SvgjsTspan1454" dy="16.25" x="44.5"><tspan id="SvgjsTspan1455" style="">高速缓存</tspan></tspan></text></g></g><g id="SvgjsG1456" transform="translate(179,80.22727272727272)"><path id="SvgjsPath1457" d="M 0 4Q 0 0 4 0L 84.22727272727275 0Q 88.22727272727275 0 88.22727272727275 4L 88.22727272727275 16.181818181818187Q 88.22727272727275 20.181818181818187 84.22727272727275 20.181818181818187L 4 20.181818181818187Q 0 20.181818181818187 0 16.181818181818187Z" stroke="rgba(33,41,48,1)" stroke-width="1.5" fill-opacity="1" fill="#ffffff"></path><g id="SvgjsG1458"><text id="SvgjsText1459" font-family="微软雅黑" text-anchor="middle" font-size="13px" width="69px" fill="#323232" font-weight="700" align="middle" lineHeight="125%" anchor="middle" family="微软雅黑" size="13px" weight="700" font-style="" opacity="1" y="-0.5340909090909065" transform="rotate(0)"><tspan id="SvgjsTspan1460" dy="16.25" x="44.5"><tspan id="SvgjsTspan1461" style="">高速缓存</tspan></tspan></text></g></g><g id="SvgjsG1462" transform="translate(179,135.45454545454544)"><path id="SvgjsPath1463" d="M 0 4Q 0 0 4 0L 84.22727272727275 0Q 88.22727272727275 0 88.22727272727275 4L 88.22727272727275 16.181818181818187Q 88.22727272727275 20.181818181818187 84.22727272727275 20.181818181818187L 4 20.181818181818187Q 0 20.181818181818187 0 16.181818181818187Z" stroke="rgba(33,41,48,1)" stroke-width="1.5" fill-opacity="1" fill="#ffffff"></path><g id="SvgjsG1464"><text id="SvgjsText1465" font-family="微软雅黑" text-anchor="middle" font-size="13px" width="69px" fill="#323232" font-weight="700" align="middle" lineHeight="125%" anchor="middle" family="微软雅黑" size="13px" weight="700" font-style="" opacity="1" y="-0.5340909090909065" transform="rotate(0)"><tspan id="SvgjsTspan1466" dy="16.25" x="44.5"><tspan id="SvgjsTspan1467" style="">高速缓存</tspan></tspan></text></g></g><g id="SvgjsG1468" transform="translate(317,25)"><path id="SvgjsPath1469" d="M 0 0L 34 0L 34 130.63636363636363L 0 130.63636363636363Z" stroke="rgba(33,41,48,1)" stroke-width="1.5" fill-opacity="1" fill="#ffffff"></path><g id="SvgjsG1470"><text id="SvgjsText1471" font-family="微软雅黑" text-anchor="middle" font-size="13px" width="14px" fill="#323232" font-weight="400" align="middle" lineHeight="125%" anchor="middle" family="微软雅黑" size="13px" weight="400" font-style="" opacity="1" y="5.693181818181813" transform="rotate(0)"><tspan id="SvgjsTspan1472" dy="16.25" x="17"><tspan id="SvgjsTspan1473" style="">缓</tspan></tspan><tspan id="SvgjsTspan1474" dy="16.25" x="17"><tspan id="SvgjsTspan1475" style="">存</tspan></tspan><tspan id="SvgjsTspan1476" dy="16.25" x="17"><tspan id="SvgjsTspan1477" style="">一</tspan></tspan><tspan id="SvgjsTspan1478" dy="16.25" x="17"><tspan id="SvgjsTspan1479" style="">致</tspan></tspan><tspan id="SvgjsTspan1480" dy="16.25" x="17"><tspan id="SvgjsTspan1481" style="">性</tspan></tspan><tspan id="SvgjsTspan1482" dy="16.25" x="17"><tspan id="SvgjsTspan1483" style="">协</tspan></tspan><tspan id="SvgjsTspan1484" dy="16.25" x="17"><tspan id="SvgjsTspan1485" style="">议</tspan></tspan></text></g></g><g id="SvgjsG1486" transform="translate(417,55.31818181818181)"><path id="SvgjsPath1487" d="M 0 35C 0 -11.666666666666666 48 -11.666666666666666 48 35C 48 81.66666666666667 0 81.66666666666667 0 35Z" stroke="rgba(33,41,48,1)" stroke-width="1.5" fill-opacity="1" fill="#ffffff"></path><g id="SvgjsG1488"><text id="SvgjsText1489" font-family="微软雅黑" text-anchor="middle" font-size="13px" width="28px" fill="#323232" font-weight="400" align="middle" lineHeight="125%" anchor="middle" family="微软雅黑" size="13px" weight="400" font-style="" opacity="1" y="7.875" transform="rotate(0)"><tspan id="SvgjsTspan1490" dy="16.25" x="24"><tspan id="SvgjsTspan1491" style="">主</tspan></tspan><tspan id="SvgjsTspan1492" dy="16.25" x="24"><tspan id="SvgjsTspan1493" style="">内</tspan></tspan><tspan id="SvgjsTspan1494" dy="16.25" x="24"><tspan id="SvgjsTspan1495" style="">存</tspan></tspan></text></g></g><g id="SvgjsG1496"><path id="SvgjsPath1497" d="M99.56363636363636 35.09090909090909L176.3 35.09090909090909" stroke="#323232" stroke-width="1.5" fill="none" marker-start="url(#SvgjsMarker1498)" marker-end="url(#SvgjsMarker1500)"></path></g><g id="SvgjsG1502"><path id="SvgjsPath1503" d="M99.56363636363636 90.31818181818181L176.3 90.31818181818181" stroke="#323232" stroke-width="1.5" fill="none" marker-start="url(#SvgjsMarker1504)" marker-end="url(#SvgjsMarker1506)"></path></g><g id="SvgjsG1508"><path id="SvgjsPath1509" d="M99.56363636363636 145.54545454545453L176.3 145.54545454545453" stroke="#323232" stroke-width="1.5" fill="none" marker-start="url(#SvgjsMarker1510)" marker-end="url(#SvgjsMarker1512)"></path></g><g id="SvgjsG1514"><path id="SvgjsPath1515" d="M269.92727272727274 35.09090909090909L314.29999999999995 35.09090909090909" stroke="#323232" stroke-width="1.5" fill="none" marker-start="url(#SvgjsMarker1516)" marker-end="url(#SvgjsMarker1518)"></path></g><g id="SvgjsG1520"><path id="SvgjsPath1521" d="M269.92727272727274 90.31818181818181L314.29999999999995 90.31818181818181" stroke="#323232" stroke-width="1.5" fill="none" marker-start="url(#SvgjsMarker1522)" marker-end="url(#SvgjsMarker1524)"></path></g><g id="SvgjsG1526"><path id="SvgjsPath1527" d="M269.92727272727274 145.54545454545453L314.29999999999995 145.54545454545453" stroke="#323232" stroke-width="1.5" fill="none" marker-start="url(#SvgjsMarker1528)" marker-end="url(#SvgjsMarker1530)"></path></g><g id="SvgjsG1532"><path id="SvgjsPath1533" d="M353.70000000000005 90.31818181818181L414.29999999999995 90.31818181818181" stroke="#323232" stroke-width="1.5" fill="none" marker-start="url(#SvgjsMarker1534)" marker-end="url(#SvgjsMarker1536)"></path></g><g id="SvgjsG1538" transform="translate(96.86363636363637,150.1818181818182)"><path id="SvgjsPath1539" d="M 0 0L 249.77272727272725 0L 249.77272727272725 52.5L 0 52.5Z" stroke="none" fill="none"></path><g id="SvgjsG1540"><text id="SvgjsText1541" font-family="微软雅黑" text-anchor="middle" font-size="13px" width="250px" fill="#323232" font-weight="400" align="middle" lineHeight="125%" anchor="middle" family="微软雅黑" size="13px" weight="400" font-style="" opacity="1" y="15.625" transform="rotate(0)"><tspan id="SvgjsTspan1542" dy="16.25" x="125"><tspan id="SvgjsTspan1543" style="font-weight: bold;">处理器，高速缓存，主内存之间的交互关系</tspan></tspan></text></g></g></svg>