<svg id="SvgjsSvg1006" width="400" height="375" xmlns="http://www.w3.org/2000/svg" version="1.1" xmlns:xlink="http://www.w3.org/1999/xlink" xmlns:svgjs="http://svgjs.com/svgjs"><defs id="SvgjsDefs1007"><pattern patternUnits="userSpaceOnUse" id="pattern_mark_0" width="300" height="300"><text x="150" y="100" fill="rgba(229,229,229,0.8)" font-size="18" transform="rotate(-45, 150, 150)" style="dominant-baseline: middle; text-anchor: middle;"></text></pattern><pattern patternUnits="userSpaceOnUse" id="pattern_mark_1" width="300" height="300"><text x="150" y="200" fill="rgba(229,229,229,0.8)" font-size="18" transform="rotate(-45, 150, 150)" style="dominant-baseline: middle; text-anchor: middle;"></text></pattern><marker id="SvgjsMarker1083" markerWidth="16" markerHeight="12" refX="5" refY="6" viewBox="0 0 16 12" orient="auto" markerUnits="userSpaceOnUse" stroke-dasharray="0,0"><path id="SvgjsPath1084" d="M16,0 L0,6 L16,12 L16,0" fill="#323232" stroke="#323232" stroke-width="1"></path></marker><marker id="SvgjsMarker1085" markerWidth="16" markerHeight="12" refX="11" refY="6" viewBox="0 0 16 12" orient="auto" markerUnits="userSpaceOnUse" stroke-dasharray="0,0"><path id="SvgjsPath1086" d="M0,0 L16,6 L0,12 L0,0" fill="#323232" stroke="#323232" stroke-width="1"></path></marker><marker id="SvgjsMarker1089" markerWidth="16" markerHeight="12" refX="5" refY="6" viewBox="0 0 16 12" orient="auto" markerUnits="userSpaceOnUse" stroke-dasharray="0,0"><path id="SvgjsPath1090" d="M16,0 L0,6 L16,12 L16,0" fill="#323232" stroke="#323232" stroke-width="1"></path></marker><marker id="SvgjsMarker1091" markerWidth="16" markerHeight="12" refX="11" refY="6" viewBox="0 0 16 12" orient="auto" markerUnits="userSpaceOnUse" stroke-dasharray="0,0"><path id="SvgjsPath1092" d="M0,0 L16,6 L0,12 L0,0" fill="#323232" stroke="#323232" stroke-width="1"></path></marker><marker id="SvgjsMarker1095" markerWidth="16" markerHeight="12" refX="5" refY="6" viewBox="0 0 16 12" orient="auto" markerUnits="userSpaceOnUse" stroke-dasharray="0,0"><path id="SvgjsPath1096" d="M16,0 L0,6 L16,12 L16,0" fill="#f1e4a2" stroke="#f1e4a2" stroke-width="1"></path></marker><marker id="SvgjsMarker1097" markerWidth="16" markerHeight="12" refX="11" refY="6" viewBox="0 0 16 12" orient="auto" markerUnits="userSpaceOnUse" stroke-dasharray="0,0"><path id="SvgjsPath1098" d="M0,0 L16,6 L0,12 L0,0" fill="#f1e4a2" stroke="#f1e4a2" stroke-width="1"></path></marker><marker id="SvgjsMarker1101" markerWidth="16" markerHeight="12" refX="5" refY="6" viewBox="0 0 16 12" orient="auto" markerUnits="userSpaceOnUse" stroke-dasharray="0,0"><path id="SvgjsPath1102" d="M16,0 L0,6 L16,12 L16,0" fill="#f1e4a2" stroke="#f1e4a2" stroke-width="1"></path></marker><marker id="SvgjsMarker1103" markerWidth="16" markerHeight="12" refX="11" refY="6" viewBox="0 0 16 12" orient="auto" markerUnits="userSpaceOnUse" stroke-dasharray="0,0"><path id="SvgjsPath1104" d="M0,0 L16,6 L0,12 L0,0" fill="#f1e4a2" stroke="#f1e4a2" stroke-width="1"></path></marker><marker id="SvgjsMarker1107" markerWidth="13" markerHeight="9" refX="3.5" refY="4.5" viewBox="0 0 13 9" orient="0" markerUnits="userSpaceOnUse" stroke-dasharray="0,0"><path id="SvgjsPath1108" d="M13,0 L0,4.5 L13,9 L13,0" fill="#323232" stroke="#323232" stroke-width="1"></path></marker><marker id="SvgjsMarker1109" markerWidth="13" markerHeight="9" refX="9.5" refY="4.5" viewBox="0 0 13 9" orient="auto" markerUnits="userSpaceOnUse" stroke-dasharray="0,0"><path id="SvgjsPath1110" d="M0,0 L13,4.5 L0,9 L0,0" fill="#323232" stroke="#323232" stroke-width="1"></path></marker></defs><rect id="svgbackgroundid" width="400" height="375" fill="transparent"></rect><rect id="SvgjsRect1009" width="400" height="375" fill="url(#pattern_mark_0)"></rect><rect id="SvgjsRect1010" width="400" height="375" fill="url(#pattern_mark_1)"></rect><g id="SvgjsG1011" transform="translate(33,25)"><path id="SvgjsPath1012" d="M 0 0L 114 0L 114 30L 0 30Z" stroke="rgba(33,41,48,1)" stroke-width="1.5" fill-opacity="1" fill="#ffffff"></path><g id="SvgjsG1013"><text id="SvgjsText1014" font-family="微软雅黑" text-anchor="middle" font-size="13px" width="94px" fill="#323232" font-weight="700" align="middle" lineHeight="125%" anchor="middle" family="微软雅黑" size="13px" weight="700" font-style="" opacity="1" y="4.375" transform="rotate(0)"><tspan id="SvgjsTspan1015" dy="16.25" x="57"><tspan id="SvgjsTspan1016" style="">线程A</tspan></tspan></text></g></g><g id="SvgjsG1017" transform="translate(245,25)"><path id="SvgjsPath1018" d="M 0 0L 130 0L 130 30L 0 30Z" stroke="rgba(33,41,48,1)" stroke-width="1.5" fill-opacity="1" fill="#ffffff"></path><g id="SvgjsG1019"><text id="SvgjsText1020" font-family="微软雅黑" text-anchor="middle" font-size="13px" width="110px" fill="#323232" font-weight="700" align="middle" lineHeight="125%" anchor="middle" family="微软雅黑" size="13px" weight="700" font-style="" opacity="1" y="4.375" transform="rotate(0)"><tspan id="SvgjsTspan1021" dy="16.25" x="65"><tspan id="SvgjsTspan1022" style="">线程B</tspan></tspan></text></g></g><g id="SvgjsG1023" transform="translate(25,110)"><path id="SvgjsPath1024" d="M 0 0L 130 0L 130 94L 0 94Z" stroke="rgba(33,41,48,1)" stroke-width="1.5" fill-opacity="1" fill="#ffffff"></path><g id="SvgjsG1025"><text id="SvgjsText1026" font-family="微软雅黑" text-anchor="middle" font-size="13px" width="110px" fill="#323232" font-weight="700" align="middle" lineHeight="125%" anchor="middle" family="微软雅黑" size="13px" weight="700" font-style="" opacity="1" y="11.875" transform="rotate(0)"><tspan id="SvgjsTspan1027" dy="16.25" x="65"><tspan id="SvgjsTspan1028" style="">本地内存A</tspan></tspan><tspan id="SvgjsTspan1029" dy="16.25" x="65"><tspan id="SvgjsTspan1030" style=""> </tspan></tspan><tspan id="SvgjsTspan1031" dy="16.25" x="65"><tspan id="SvgjsTspan1032" style=""> </tspan></tspan><tspan id="SvgjsTspan1033" dy="16.25" x="65"><tspan id="SvgjsTspan1034" style=""> </tspan></tspan></text></g></g><g id="SvgjsG1035" transform="translate(48,146)"><path id="SvgjsPath1036" d="M 0 27C 0 -9 84 -9 84 27C 84 63 0 63 0 27Z" stroke="rgba(33,41,48,1)" stroke-width="1.5" fill-opacity="1" fill="#ffffff"></path><g id="SvgjsG1037"><text id="SvgjsText1038" font-family="微软雅黑" text-anchor="middle" font-size="13px" width="64px" fill="#323232" font-weight="400" align="middle" lineHeight="125%" anchor="middle" family="微软雅黑" size="13px" weight="400" font-style="" opacity="1" y="7.875" transform="rotate(0)"><tspan id="SvgjsTspan1039" dy="16.25" x="42"><tspan id="SvgjsTspan1040" style="font-weight: bold;">共享变量</tspan></tspan><tspan id="SvgjsTspan1041" dy="16.25" x="42"><tspan id="SvgjsTspan1042" style="font-weight: bold;">的副本</tspan></tspan></text></g></g><g id="SvgjsG1043" transform="translate(245,110)"><path id="SvgjsPath1044" d="M 0 0L 130 0L 130 94L 0 94Z" stroke="rgba(33,41,48,1)" stroke-width="1.5" fill-opacity="1" fill="#ffffff"></path><g id="SvgjsG1045"><text id="SvgjsText1046" font-family="微软雅黑" text-anchor="middle" font-size="13px" width="110px" fill="#323232" font-weight="700" align="middle" lineHeight="125%" anchor="middle" family="微软雅黑" size="13px" weight="700" font-style="" opacity="1" y="11.875" transform="rotate(0)"><tspan id="SvgjsTspan1047" dy="16.25" x="65"><tspan id="SvgjsTspan1048" style="">本地内存B</tspan></tspan><tspan id="SvgjsTspan1049" dy="16.25" x="65"><tspan id="SvgjsTspan1050" style=""> </tspan></tspan><tspan id="SvgjsTspan1051" dy="16.25" x="65"><tspan id="SvgjsTspan1052" style=""> </tspan></tspan><tspan id="SvgjsTspan1053" dy="16.25" x="65"><tspan id="SvgjsTspan1054" style=""> </tspan></tspan></text></g></g><g id="SvgjsG1055" transform="translate(268,146)"><path id="SvgjsPath1056" d="M 0 27C 0 -9 84 -9 84 27C 84 63 0 63 0 27Z" stroke="rgba(33,41,48,1)" stroke-width="1.5" fill-opacity="1" fill="#ffffff"></path><g id="SvgjsG1057"><text id="SvgjsText1058" font-family="微软雅黑" text-anchor="middle" font-size="13px" width="64px" fill="#323232" font-weight="400" align="middle" lineHeight="125%" anchor="middle" family="微软雅黑" size="13px" weight="400" font-style="" opacity="1" y="7.875" transform="rotate(0)"><tspan id="SvgjsTspan1059" dy="16.25" x="42"><tspan id="SvgjsTspan1060" style="font-weight: bold;">共享变量</tspan></tspan><tspan id="SvgjsTspan1061" dy="16.25" x="42"><tspan id="SvgjsTspan1062" style="font-weight: bold;">的副本</tspan></tspan></text></g></g><g id="SvgjsG1063" transform="translate(25,275)"><path id="SvgjsPath1064" d="M 0 0L 350 0L 350 75L 0 75Z" stroke="rgba(33,41,48,1)" stroke-width="1.5" fill-opacity="1" fill="#ffffff"></path><g id="SvgjsG1065"><text id="SvgjsText1066" font-family="微软雅黑" text-anchor="middle" font-size="13px" width="330px" fill="#323232" font-weight="700" align="middle" lineHeight="125%" anchor="middle" family="微软雅黑" size="13px" weight="700" font-style="" opacity="1" y="2.375" transform="rotate(0)"><tspan id="SvgjsTspan1067" dy="16.25" x="175"><tspan id="SvgjsTspan1068" style="">主内存</tspan></tspan><tspan id="SvgjsTspan1069" dy="16.25" x="175"><tspan id="SvgjsTspan1070" style=""> </tspan></tspan><tspan id="SvgjsTspan1071" dy="16.25" x="175"><tspan id="SvgjsTspan1072" style=""> </tspan></tspan><tspan id="SvgjsTspan1073" dy="16.25" x="175"><tspan id="SvgjsTspan1074" style=""> </tspan></tspan></text></g></g><g id="SvgjsG1075" transform="translate(143,302)"><path id="SvgjsPath1076" d="M 0 20.5C 0 -6.833333333333333 115 -6.833333333333333 115 20.5C 115 47.833333333333336 0 47.833333333333336 0 20.5Z" stroke="rgba(33,41,48,1)" stroke-width="1.5" fill-opacity="1" fill="#ffffff"></path><g id="SvgjsG1077"><text id="SvgjsText1078" font-family="微软雅黑" text-anchor="middle" font-size="13px" width="95px" fill="#323232" font-weight="700" align="middle" lineHeight="125%" anchor="middle" family="微软雅黑" size="13px" weight="700" font-style="" opacity="1" y="9.875" transform="rotate(0)"><tspan id="SvgjsTspan1079" dy="16.25" x="57.5"><tspan id="SvgjsTspan1080" style="">共享变量</tspan></tspan></text></g></g><g id="SvgjsG1081"><path id="SvgjsPath1082" d="M90 59.65L90 82.5L90 82.5L90 105.35" stroke="#323232" stroke-width="3" fill="none" marker-start="url(#SvgjsMarker1083)" marker-end="url(#SvgjsMarker1085)"></path></g><g id="SvgjsG1087"><path id="SvgjsPath1088" d="M310 59.65L310 82.5L310 82.5L310 105.35" stroke="#323232" stroke-width="3" fill="none" marker-start="url(#SvgjsMarker1089)" marker-end="url(#SvgjsMarker1091)"></path></g><g id="SvgjsG1093"><path id="SvgjsPath1094" d="M90 208.65L90 239.5L90 239.5L90 270.35" stroke="#f1e4a2" stroke-width="3" fill="none" marker-start="url(#SvgjsMarker1095)" marker-end="url(#SvgjsMarker1097)"></path></g><g id="SvgjsG1099"><path id="SvgjsPath1100" d="M310 204.65L310 237.5L310 237.5L310 270.35" stroke="#f1e4a2" stroke-width="3" fill="none" marker-start="url(#SvgjsMarker1101)" marker-end="url(#SvgjsMarker1103)"></path></g><g id="SvgjsG1105"><path id="SvgjsPath1106" d="M93 238L200 238L200 238L307 238" stroke-dasharray="3,3" stroke="#323232" stroke-width="1.5" fill="none" marker-start="url(#SvgjsMarker1107)" marker-end="url(#SvgjsMarker1109)"></path><rect id="SvgjsRect1111" width="56" height="16" x="170.53424657534245" y="230" fill="#ffffff"></rect><text id="SvgjsText1112" font-family="微软雅黑" text-anchor="middle" font-size="13px" width="56px" fill="#323232" font-weight="400" align="top" lineHeight="16px" anchor="middle" family="微软雅黑" size="13px" weight="400" font-style="" opacity="1" y="227.375" transform="rotate(0)"><tspan id="SvgjsTspan1113" dy="16.25" x="198.53424657534245"><tspan id="SvgjsTspan1114" style="">JMM控制</tspan></tspan></text></g></svg>