<svg id="SvgjsSvg1006" width="401" height="325" xmlns="http://www.w3.org/2000/svg" version="1.1" xmlns:xlink="http://www.w3.org/1999/xlink" xmlns:svgjs="http://svgjs.com/svgjs"><defs id="SvgjsDefs1007"><pattern patternUnits="userSpaceOnUse" id="pattern_mark_0" width="300" height="300"><text x="150" y="100" fill="rgba(229,229,229,0.8)" font-size="18" transform="rotate(-45, 150, 150)" style="dominant-baseline: middle; text-anchor: middle;"></text></pattern><pattern patternUnits="userSpaceOnUse" id="pattern_mark_1" width="300" height="300"><text x="150" y="200" fill="rgba(229,229,229,0.8)" font-size="18" transform="rotate(-45, 150, 150)" style="dominant-baseline: middle; text-anchor: middle;"></text></pattern></defs><rect id="svgbackgroundid" width="401" height="325" fill="transparent"></rect><rect id="SvgjsRect1009" width="401" height="325" fill="url(#pattern_mark_0)"></rect><rect id="SvgjsRect1010" width="401" height="325" fill="url(#pattern_mark_1)"></rect><g id="SvgjsG1011" transform="translate(25,96)"><path id="SvgjsPath1012" d="M 100 0Q 91 0 91 9L 91 73Q 91 82 78 82Q 91 82 91 91L 91 155Q 91 164 100 164" stroke="rgba(33,41,48,1)" stroke-width="1.5" fill="none"></path><path id="SvgjsPath1013" d="M 0 0L 100 0L 100 164L 0 164Z" stroke="none" fill="none"></path><g id="SvgjsG1014"><text id="SvgjsText1015" font-family="&quot;Microsoft YaHei&quot;, 微软雅黑, Arial" text-anchor="end" font-size="13px" width="73px" fill="#323232" font-weight="400" align="middle" lineHeight="125%" anchor="end" family="&quot;Microsoft YaHei&quot;, 微软雅黑, Arial" size="13px" weight="400" font-style="" opacity="1" y="71.375" transform="rotate(0)"><tspan id="SvgjsTspan1016" dy="16.25" x="73"><tspan id="SvgjsTspan1017" style="">总共是512B</tspan></tspan></text></g></g><g id="SvgjsG1018" transform="translate(130,80)"><path id="SvgjsPath1019" d="M 80 0Q 72 0 72 4.1000000000000005L 72 16.4Q 72 20.5 58 20.5Q 72 20.5 72 24.6L 72 36.9Q 72 41 80 41" stroke="rgba(33,41,48,1)" stroke-width="1.5" fill="none"></path><path id="SvgjsPath1020" d="M 0 0L 80 0L 80 41L 0 41Z" stroke="none" fill="none"></path><g id="SvgjsG1021"><text id="SvgjsText1022" font-family="&quot;Microsoft YaHei&quot;, 微软雅黑, Arial" text-anchor="start" font-size="13px" width="53px" fill="#323232" font-weight="400" align="middle" lineHeight="125%" anchor="start" family="&quot;Microsoft YaHei&quot;, 微软雅黑, Arial" size="13px" weight="400" font-style="" opacity="1" y="9.875" transform="rotate(0)"><tspan id="SvgjsTspan1023" dy="16.25" x="0"><tspan id="SvgjsTspan1024" style="">12字节</tspan></tspan></text></g></g><g id="SvgjsG1025" transform="translate(256,80)"><path id="SvgjsPath1026" d="M0 0L120 0L120 40 L0 40Z" stroke="rgba(102, 102, 102,1)" stroke-width="1" fill-opacity="1" fill="#cce2fe"></path><path id="SvgjsPath1027" d="M0 40L120 40L120 160 L0 160Z" stroke="rgba(102, 102, 102,1)" stroke-width="1" fill-opacity="1" fill="#f8e3b9"></path><path id="SvgjsPath1028" d="M0 160L120 160L120 200 L0 200Z" stroke="rgba(102, 102, 102,1)" stroke-width="1" fill-opacity="1" fill="#d7e6d1"></path><g id="SvgjsG1029"><text id="SvgjsText1030" font-family="&quot;Microsoft YaHei&quot;, 微软雅黑, Arial" text-anchor="middle" font-size="16px" width="120px" fill="#323232" font-weight="400" align="middle" lineHeight="125%" anchor="middle" family="&quot;Microsoft YaHei&quot;, 微软雅黑, Arial" size="16px" weight="400" font-style="" opacity="1" y="6" transform="rotate(0)"><tspan id="SvgjsTspan1031" dy="20" x="60"><tspan id="SvgjsTspan1032" style="">log block header</tspan></tspan></text></g><g id="SvgjsG1033"><text id="SvgjsText1034" font-family="&quot;Microsoft YaHei&quot;, 微软雅黑, Arial" text-anchor="middle" font-size="16px" width="120px" fill="#323232" font-weight="400" align="middle" lineHeight="125%" anchor="middle" family="&quot;Microsoft YaHei&quot;, 微软雅黑, Arial" size="16px" weight="400" font-style="" opacity="1" y="86" transform="rotate(0)"><tspan id="SvgjsTspan1035" dy="20" x="60"><tspan id="SvgjsTspan1036" style="">log block body</tspan></tspan></text></g><g id="SvgjsG1037"><text id="SvgjsText1038" font-family="&quot;Microsoft YaHei&quot;, 微软雅黑, Arial" text-anchor="middle" font-size="16px" width="120px" fill="#323232" font-weight="400" align="middle" lineHeight="125%" anchor="middle" family="&quot;Microsoft YaHei&quot;, 微软雅黑, Arial" size="16px" weight="400" font-style="" opacity="1" y="166" transform="rotate(0)"><tspan id="SvgjsTspan1039" dy="20" x="60"><tspan id="SvgjsTspan1040" style="">log block trailer</tspan></tspan></text></g></g><g id="SvgjsG1041" transform="translate(130,121)"><path id="SvgjsPath1042" d="M 80 0Q 72 0 72 9L 72 48.49999999999999Q 72 57.49999999999999 58 57.49999999999999Q 72 57.49999999999999 72 66.5L 72 105.99999999999999Q 72 114.99999999999999 80 114.99999999999999" stroke="rgba(33,41,48,1)" stroke-width="1.5" fill="none"></path><path id="SvgjsPath1043" d="M 0 0L 80 0L 80 114.99999999999999L 0 114.99999999999999Z" stroke="none" fill="none"></path><g id="SvgjsG1044"><text id="SvgjsText1045" font-family="&quot;Microsoft YaHei&quot;, 微软雅黑, Arial" text-anchor="start" font-size="13px" width="53px" fill="#323232" font-weight="400" align="middle" lineHeight="125%" anchor="start" family="&quot;Microsoft YaHei&quot;, 微软雅黑, Arial" size="13px" weight="400" font-style="" opacity="1" y="46.87499999999999" transform="rotate(0)"><tspan id="SvgjsTspan1046" dy="16.25" x="0"><tspan id="SvgjsTspan1047" style="">496字节</tspan></tspan></text></g></g><g id="SvgjsG1048" transform="translate(130,237)"><path id="SvgjsPath1049" d="M 80 0Q 72 0 72 4.3L 72 17.2Q 72 21.5 58 21.5Q 72 21.5 72 25.8L 72 38.7Q 72 43 80 43" stroke="rgba(33,41,48,1)" stroke-width="1.5" fill="none"></path><path id="SvgjsPath1050" d="M 0 0L 80 0L 80 43L 0 43Z" stroke="none" fill="none"></path><g id="SvgjsG1051"><text id="SvgjsText1052" font-family="&quot;Microsoft YaHei&quot;, 微软雅黑, Arial" text-anchor="start" font-size="13px" width="53px" fill="#323232" font-weight="400" align="middle" lineHeight="125%" anchor="start" family="&quot;Microsoft YaHei&quot;, 微软雅黑, Arial" size="13px" weight="400" font-style="" opacity="1" y="10.875" transform="rotate(0)"><tspan id="SvgjsTspan1053" dy="16.25" x="0"><tspan id="SvgjsTspan1054" style="">4字节</tspan></tspan></text></g></g><g id="SvgjsG1055" transform="translate(178,260)"><path id="SvgjsPath1056" d="M 0 0L 100 0L 100 40L 0 40Z" stroke="none" fill="none"></path><g id="SvgjsG1057"><text id="SvgjsText1058" font-family="&quot;Microsoft YaHei&quot;, 微软雅黑, Arial" text-anchor="middle" font-size="13px" width="100px" fill="#323232" font-weight="400" align="middle" lineHeight="125%" anchor="middle" family="&quot;Microsoft YaHei&quot;, 微软雅黑, Arial" size="13px" weight="400" font-style="" opacity="1" y="9.375" transform="rotate(0)"><tspan id="SvgjsTspan1059" dy="16.25" x="50"><tspan id="SvgjsTspan1060" style="">512B</tspan></tspan></text></g></g><g id="SvgjsG1061" transform="translate(177,217)"><path id="SvgjsPath1062" d="M 0 0L 100 0L 100 40L 0 40Z" stroke="none" fill="none"></path><g id="SvgjsG1063"><text id="SvgjsText1064" font-family="&quot;Microsoft YaHei&quot;, 微软雅黑, Arial" text-anchor="middle" font-size="13px" width="100px" fill="#323232" font-weight="400" align="middle" lineHeight="125%" anchor="middle" family="&quot;Microsoft YaHei&quot;, 微软雅黑, Arial" size="13px" weight="400" font-style="" opacity="1" y="9.375" transform="rotate(0)"><tspan id="SvgjsTspan1065" dy="16.25" x="50"><tspan id="SvgjsTspan1066" style="">508B</tspan></tspan></text></g></g><g id="SvgjsG1067" transform="translate(177,102)"><path id="SvgjsPath1068" d="M 0 0L 100 0L 100 40L 0 40Z" stroke="none" fill="none"></path><g id="SvgjsG1069"><text id="SvgjsText1070" font-family="&quot;Microsoft YaHei&quot;, 微软雅黑, Arial" text-anchor="middle" font-size="13px" width="100px" fill="#323232" font-weight="400" align="middle" lineHeight="125%" anchor="middle" family="&quot;Microsoft YaHei&quot;, 微软雅黑, Arial" size="13px" weight="400" font-style="" opacity="1" y="9.375" transform="rotate(0)"><tspan id="SvgjsTspan1071" dy="16.25" x="50"><tspan id="SvgjsTspan1072" style="">12B</tspan></tspan></text></g></g><g id="SvgjsG1073" transform="translate(177,62)"><path id="SvgjsPath1074" d="M 0 0L 100 0L 100 40L 0 40Z" stroke="none" fill="none"></path><g id="SvgjsG1075"><text id="SvgjsText1076" font-family="&quot;Microsoft YaHei&quot;, 微软雅黑, Arial" text-anchor="middle" font-size="13px" width="100px" fill="#323232" font-weight="400" align="middle" lineHeight="125%" anchor="middle" family="&quot;Microsoft YaHei&quot;, 微软雅黑, Arial" size="13px" weight="400" font-style="" opacity="1" y="9.375" transform="rotate(0)"><tspan id="SvgjsTspan1077" dy="16.25" x="50"><tspan id="SvgjsTspan1078" style="">0</tspan></tspan></text></g></g><g id="SvgjsG1079" transform="translate(116,25)"><path id="SvgjsPath1080" d="M 0 0L 180 0L 180 40L 0 40Z" stroke="none" fill="none"></path><g id="SvgjsG1081"><text id="SvgjsText1082" font-family="&quot;Microsoft YaHei&quot;, 微软雅黑, Arial" text-anchor="middle" font-size="15px" width="180px" fill="#323232" font-weight="400" align="middle" lineHeight="125%" anchor="middle" family="&quot;Microsoft YaHei&quot;, 微软雅黑, Arial" size="15px" weight="400" font-style="" opacity="1" y="7.625" transform="rotate(0)"><tspan id="SvgjsTspan1083" dy="18.75" x="90"><tspan id="SvgjsTspan1084" style="font-weight: bold;">redo log block结构</tspan></tspan></text></g></g><g id="SvgjsG1085"></g></svg>