<svg xmlns="http://www.w3.org/2000/svg" xlink="http://www.w3.org/1999/xlink" id="mind-svg-con" version="1.1" width="866px" height="700px" style="position: absolute; left: 0px; top: 0px; width: 866px; height: 700px; background: rgb(245, 245, 245); z-index: 999;"><defs></defs><g id="svgbackgroundid"><defs></defs><rect x="0" y="0" width="866" height="700" fill="#f5f5f5"></rect></g><g transform="translate(-9924, -9601)" id="sdjakdjak5"><defs></defs><g class="svg-topic-con" transform="translate(0.5,0.5)"><path part="right" sub="true" id="line_f400053da2b46ce6" d="M 10000 9951 L 10076 9951 L 10076 9688 A 8 8 0 0 1 10084 9680 L 10106 9680" stroke="#746ea6" fill="none" stroke-width="1"></path><path part="right" sub="true" id="line_55ee5bf1ed34aa18" d="M 10000 9951 L 10076 9951 L 10076 9860 A 8 8 0 0 1 10084 9852 L 10106 9852" stroke="#746ea6" fill="none" stroke-width="1"></path><path part="right" sub="true" id="line_8a1afe56926578d1" d="M 10000 9951 L 10076 9951 L 10076 9984.09765625 A 8 8 0 0 0 10084 9992.09765625 L 10106 9992.09765625" stroke="#746ea6" fill="none" stroke-width="1"></path><path part="right" sub="true" id="line_2491be73dc3d3f2a" d="M 10000 9951 L 10076 9951 L 10076 10142 A 8 8 0 0 0 10084 10150 L 10106 10150" stroke="#746ea6" fill="none" stroke-width="1"></path></g><g class="svg-connection-con" transform="translate(0.5,0.5)"></g><g class="svg-freesums-con" transform="translate(0.5,0.5)"></g><g class="svg-freebos-con" transform="translate(0.5,0.5)"></g></g><g id="2491be73dc3d3f2a"><rect x="182" y="531.8984375" rx="6px" ry="6px" width="74" height="34" style="fill: #fee2cc; stroke:#cdbdb3;stroke-width:1px;"></rect><g><text text-anchor="start" align="top" anchor="start" font-size="13px" font-weight="normal" fill="rgb(81, 76, 72)" style="font-size:13px;font-family:arial, 黑体;color:#514c48;font-style:normal;text-align:left;font-weight:normal;"><tspan x="193" y="553"><tspan dx="0">代码流程</tspan></tspan></text></g></g><g id="a9256c53ccbdda3f"><rect x="292" y="536" rx="1px" ry="1px" width="68" height="26" style="fill: transparent; stroke:none;stroke-width:0px;"></rect><g><text text-anchor="start" align="top" anchor="start" font-size="12px" font-weight="normal" fill="rgb(75, 75, 75)" style="font-size:12px;font-family:arial, 黑体;color:#4b4b4b;font-style:normal;text-align:left;font-weight:normal;"><tspan x="302" y="551.1600000000001"><tspan dx="0">循环进行</tspan></tspan></text></g></g><g id="424b42946e2c9061"><rect x="396" y="428" rx="1px" ry="1px" width="92" height="26" style="fill: transparent; stroke:none;stroke-width:0px;"></rect><g><text text-anchor="start" align="top" anchor="start" font-size="12px" font-weight="normal" fill="rgb(75, 75, 75)" style="font-size:12px;font-family:arial, 黑体;color:#4b4b4b;font-style:normal;text-align:left;font-weight:normal;"><tspan x="406" y="443.15999999999997"><tspan dx="0">用户输入算式</tspan></tspan></text></g></g><g id="4c18e30f71939493"><rect x="396" y="554" rx="1px" ry="1px" width="152" height="26" style="fill: transparent; stroke:none;stroke-width:0px;"></rect><g><text text-anchor="start" align="top" anchor="start" font-size="12px" font-weight="normal" fill="rgb(75, 75, 75)" style="font-size:12px;font-family:arial, 黑体;color:#4b4b4b;font-style:normal;text-align:left;font-weight:normal;"><tspan x="406" y="569.1600000000001"><tspan dx="0">根据算式，判断运算类型</tspan></tspan></text></g></g><g id="e263922a666bf069"><rect x="584" y="464" rx="1px" ry="1px" width="44" height="26" style="fill: transparent; stroke:none;stroke-width:0px;"></rect><g><text text-anchor="start" align="top" anchor="start" font-size="12px" font-weight="normal" fill="rgb(75, 75, 75)" style="font-size:12px;font-family:arial, 黑体;color:#4b4b4b;font-style:normal;text-align:left;font-weight:normal;"><tspan x="594" y="479.15999999999997"><tspan dx="0">加法</tspan></tspan></text></g></g><g id="1670fb12238d2daf"><rect x="664" y="464" rx="1px" ry="1px" width="68" height="26" style="fill: transparent; stroke:none;stroke-width:0px;"></rect><g><text text-anchor="start" align="top" anchor="start" font-size="12px" font-weight="normal" fill="rgb(75, 75, 75)" style="font-size:12px;font-family:arial, 黑体;color:#4b4b4b;font-style:normal;text-align:left;font-weight:normal;"><tspan x="674" y="479.15999999999997"><tspan dx="0">加法操作</tspan></tspan></text></g></g><g id="5f1dd5a66686bcb1"><rect x="768" y="464" rx="1px" ry="1px" width="68" height="26" style="fill: transparent; stroke:none;stroke-width:0px;"></rect><g><text text-anchor="start" align="top" anchor="start" font-size="12px" font-weight="normal" fill="rgb(75, 75, 75)" style="font-size:12px;font-family:arial, 黑体;color:#4b4b4b;font-style:normal;text-align:left;font-weight:normal;"><tspan x="778" y="479.15999999999997"><tspan dx="0">打印结果</tspan></tspan></text></g></g><g id="4f095f9efad976f8"><rect x="584" y="500" rx="1px" ry="1px" width="44" height="26" style="fill: transparent; stroke:none;stroke-width:0px;"></rect><g><text text-anchor="start" align="top" anchor="start" font-size="12px" font-weight="normal" fill="rgb(75, 75, 75)" style="font-size:12px;font-family:arial, 黑体;color:#4b4b4b;font-style:normal;text-align:left;font-weight:normal;"><tspan x="594" y="515.16"><tspan dx="0">减法</tspan></tspan></text></g></g><g id="91e29e7673a387ad"><rect x="584" y="536" rx="1px" ry="1px" width="44" height="26" style="fill: transparent; stroke:none;stroke-width:0px;"></rect><g><text text-anchor="start" align="top" anchor="start" font-size="12px" font-weight="normal" fill="rgb(75, 75, 75)" style="font-size:12px;font-family:arial, 黑体;color:#4b4b4b;font-style:normal;text-align:left;font-weight:normal;"><tspan x="594" y="551.1600000000001"><tspan dx="0">乘法</tspan></tspan></text></g></g><g id="88eee7181b21729d"><rect x="584" y="572" rx="1px" ry="1px" width="44" height="26" style="fill: transparent; stroke:none;stroke-width:0px;"></rect><g><text text-anchor="start" align="top" anchor="start" font-size="12px" font-weight="normal" fill="rgb(75, 75, 75)" style="font-size:12px;font-family:arial, 黑体;color:#4b4b4b;font-style:normal;text-align:left;font-weight:normal;"><tspan x="594" y="587.1600000000001"><tspan dx="0">除法</tspan></tspan></text></g></g><g id="3f4d6852c77b73c1"><rect x="584" y="608" rx="1px" ry="1px" width="101" height="26" style="fill: transparent; stroke:none;stroke-width:0px;"></rect><g><text text-anchor="start" align="top" anchor="start" font-size="12px" font-weight="normal" fill="rgb(75, 75, 75)" style="font-size:12px;font-family:arial, 黑体;color:#4b4b4b;font-style:normal;text-align:left;font-weight:normal;"><tspan x="594" y="623.1600000000001"><tspan dx="0">输入C停止程序</tspan></tspan></text></g></g><g id="3f7bdade256c82a1"><rect x="584" y="644" rx="1px" ry="1px" width="104" height="26" style="fill: transparent; stroke:none;stroke-width:0px;"></rect><g><text text-anchor="start" align="top" anchor="start" font-size="12px" font-weight="normal" fill="rgb(75, 75, 75)" style="font-size:12px;font-family:arial, 黑体;color:#4b4b4b;font-style:normal;text-align:left;font-weight:normal;"><tspan x="594" y="659.1600000000001"><tspan dx="0">错误输入的处理</tspan></tspan></text></g></g><g id="7b8c6e6df366f929"><rect x="724" y="644" rx="1px" ry="1px" width="68" height="26" style="fill: transparent; stroke:none;stroke-width:0px;"></rect><g><text text-anchor="start" align="top" anchor="start" font-size="12px" font-weight="normal" fill="rgb(75, 75, 75)" style="font-size:12px;font-family:arial, 黑体;color:#4b4b4b;font-style:normal;text-align:left;font-weight:normal;"><tspan x="734" y="659.1600000000001"><tspan dx="0">错误提示</tspan></tspan></text></g></g><g id="8a1afe56926578d1"><rect x="182" y="374" rx="6px" ry="6px" width="100" height="34" style="fill: #fee2cc; stroke:#cdbdb3;stroke-width:1px;"></rect><g><text text-anchor="start" align="top" anchor="start" font-size="13px" font-weight="normal" fill="rgb(81, 76, 72)" style="font-size:13px;font-family:arial, 黑体;color:#514c48;font-style:normal;text-align:left;font-weight:normal;"><tspan x="193" y="395"><tspan dx="0">数据结构设计</tspan></tspan></text></g></g><g id="79532eb2734e5d68"><rect x="318" y="378.1015625" rx="1px" ry="1px" width="92" height="26" style="fill: transparent; stroke:none;stroke-width:0px;"></rect><g><text text-anchor="start" align="top" anchor="start" font-size="12px" font-weight="normal" fill="rgb(75, 75, 75)" style="font-size:12px;font-family:arial, 黑体;color:#4b4b4b;font-style:normal;text-align:left;font-weight:normal;"><tspan x="328" y="393.15999999999997"><tspan dx="0">存储计算结果</tspan></tspan></text></g></g><g id="55ee5bf1ed34aa18"><rect x="182" y="233.8984375" rx="6px" ry="6px" width="74" height="34" style="fill: #fee2cc; stroke:#cdbdb3;stroke-width:1px;"></rect><g><text text-anchor="start" align="top" anchor="start" font-size="13px" font-weight="normal" fill="rgb(81, 76, 72)" style="font-size:13px;font-family:arial, 黑体;color:#514c48;font-style:normal;text-align:left;font-weight:normal;"><tspan x="193" y="255"><tspan dx="0">任务拆解</tspan></tspan></text></g></g><g id="fbcf177c58914e1c"><rect x="292" y="148" rx="1px" ry="1px" width="68" height="26" style="fill: transparent; stroke:none;stroke-width:0px;"></rect><g><text text-anchor="start" align="top" anchor="start" font-size="12px" font-weight="normal" fill="rgb(75, 75, 75)" style="font-size:12px;font-family:arial, 黑体;color:#4b4b4b;font-style:normal;text-align:left;font-weight:normal;"><tspan x="302" y="163.16"><tspan dx="0">加法运算</tspan></tspan></text></g></g><g id="432d655961ed532b"><rect x="292" y="184" rx="1px" ry="1px" width="68" height="26" style="fill: transparent; stroke:none;stroke-width:0px;"></rect><g><text text-anchor="start" align="top" anchor="start" font-size="12px" font-weight="normal" fill="rgb(75, 75, 75)" style="font-size:12px;font-family:arial, 黑体;color:#4b4b4b;font-style:normal;text-align:left;font-weight:normal;"><tspan x="302" y="199.16"><tspan dx="0">减法运算</tspan></tspan></text></g></g><g id="48af2e1aa8c87011"><rect x="292" y="220" rx="1px" ry="1px" width="68" height="26" style="fill: transparent; stroke:none;stroke-width:0px;"></rect><g><text text-anchor="start" align="top" anchor="start" font-size="12px" font-weight="normal" fill="rgb(75, 75, 75)" style="font-size:12px;font-family:arial, 黑体;color:#4b4b4b;font-style:normal;text-align:left;font-weight:normal;"><tspan x="302" y="235.16"><tspan dx="0">乘法运算</tspan></tspan></text></g></g><g id="1985d994d635ccc0"><rect x="292" y="256" rx="1px" ry="1px" width="68" height="26" style="fill: transparent; stroke:none;stroke-width:0px;"></rect><g><text text-anchor="start" align="top" anchor="start" font-size="12px" font-weight="normal" fill="rgb(75, 75, 75)" style="font-size:12px;font-family:arial, 黑体;color:#4b4b4b;font-style:normal;text-align:left;font-weight:normal;"><tspan x="302" y="271.15999999999997"><tspan dx="0">除法运算</tspan></tspan></text></g></g><g id="bcc9bdee62bd348e"><rect x="292" y="310" rx="1px" ry="1px" width="104" height="26" style="fill: transparent; stroke:none;stroke-width:0px;"></rect><g><text text-anchor="start" align="top" anchor="start" font-size="12px" font-weight="normal" fill="rgb(75, 75, 75)" style="font-size:12px;font-family:arial, 黑体;color:#4b4b4b;font-style:normal;text-align:left;font-weight:normal;"><tspan x="302" y="325.15999999999997"><tspan dx="0">异常情况的处理</tspan></tspan></text></g></g><g id="0bcc72472c490601"><rect x="432" y="310" rx="1px" ry="1px" width="92" height="26" style="fill: transparent; stroke:none;stroke-width:0px;"></rect><g><text text-anchor="start" align="top" anchor="start" font-size="12px" font-weight="normal" fill="rgb(75, 75, 75)" style="font-size:12px;font-family:arial, 黑体;color:#4b4b4b;font-style:normal;text-align:left;font-weight:normal;"><tspan x="442" y="325.15999999999997"><tspan dx="0">错误输入样例</tspan></tspan></text></g></g><g id="09b2f1110f216e18"><rect x="560" y="292" rx="1px" ry="1px" width="40" height="26" style="fill: transparent; stroke:none;stroke-width:0px;"></rect><g><text text-anchor="start" align="top" anchor="start" font-size="12px" font-weight="normal" fill="rgb(75, 75, 75)" style="font-size:12px;font-family:arial, 黑体;color:#4b4b4b;font-style:normal;text-align:left;font-weight:normal;"><tspan x="570" y="307.15999999999997"><tspan dx="0">7x8</tspan></tspan></text></g></g><g id="7ad58d3fb1cfe3d6"><rect x="560" y="328" rx="1px" ry="1px" width="40" height="26" style="fill: transparent; stroke:none;stroke-width:0px;"></rect><g><text text-anchor="start" align="top" anchor="start" font-size="12px" font-weight="normal" fill="rgb(75, 75, 75)" style="font-size:12px;font-family:arial, 黑体;color:#4b4b4b;font-style:normal;text-align:left;font-weight:normal;"><tspan x="570" y="343.15999999999997"><tspan dx="0">6/0</tspan></tspan></text></g></g><g id="f400053da2b46ce6"><rect x="182" y="61.8984375" rx="6px" ry="6px" width="74" height="34" style="fill: #fee2cc; stroke:#cdbdb3;stroke-width:1px;"></rect><g><text text-anchor="start" align="top" anchor="start" font-size="13px" font-weight="normal" fill="rgb(81, 76, 72)" style="font-size:13px;font-family:arial, 黑体;color:#514c48;font-style:normal;text-align:left;font-weight:normal;"><tspan x="193" y="83"><tspan dx="0">需求分析</tspan></tspan></text></g></g><g id="9c4d769edee84cf9"><rect x="292" y="48" rx="1px" ry="1px" width="140" height="26" style="fill: transparent; stroke:none;stroke-width:0px;"></rect><g><text text-anchor="start" align="top" anchor="start" font-size="12px" font-weight="normal" fill="rgb(75, 75, 75)" style="font-size:12px;font-family:arial, 黑体;color:#4b4b4b;font-style:normal;text-align:left;font-weight:normal;"><tspan x="302" y="63.16"><tspan dx="0">支持加减乘除四则运算</tspan></tspan></text></g></g><g id="cb5341e4084eaef1"><rect x="468" y="30" rx="1px" ry="1px" width="100" height="26" style="fill: transparent; stroke:none;stroke-width:0px;"></rect><g><text text-anchor="start" align="top" anchor="start" font-size="12px" font-weight="normal" fill="rgb(75, 75, 75)" style="font-size:12px;font-family:arial, 黑体;color:#4b4b4b;font-style:normal;text-align:left;font-weight:normal;"><tspan x="478" y="45.16"><tspan dx="0">输入样例：4+6</tspan></tspan></text></g></g><g id="013bf26092dec6b7"><rect x="468" y="66" rx="1px" ry="1px" width="98" height="26" style="fill: transparent; stroke:none;stroke-width:0px;"></rect><g><text text-anchor="start" align="top" anchor="start" font-size="12px" font-weight="normal" fill="rgb(75, 75, 75)" style="font-size:12px;font-family:arial, 黑体;color:#4b4b4b;font-style:normal;text-align:left;font-weight:normal;"><tspan x="478" y="81.16"><tspan dx="0">输入样例：4*7</tspan></tspan></text></g></g><g id="eba34c590745f984"><rect x="292" y="102" rx="1px" ry="1px" width="212" height="26" style="fill: transparent; stroke:none;stroke-width:0px;"></rect><g><text text-anchor="start" align="top" anchor="start" font-size="12px" font-weight="normal" fill="rgb(75, 75, 75)" style="font-size:12px;font-family:arial, 黑体;color:#4b4b4b;font-style:normal;text-align:left;font-weight:normal;"><tspan x="302" y="117.16"><tspan dx="0">输入不符合规范的时候给出相应提示</tspan></tspan></text></g></g><g transform="translate(182, 428)" id="sdjakdjak0"><g id="subline_2491be73dc3d3f2a" transform="translate(0.5, 0.5)"><path id="line_a9256c53ccbdda3f" d="M 74 121 L 92 121 L 92 121 L 110 121" p="2491be73dc3d3f2a" stroke="#746e6a" fill="none" stroke-linecap="square" stroke-width="1"></path><path id="line_424b42946e2c9061" d="M 178 121 L 196 121 L 196 17 A 4 4 0 0 1 200 13 L 214 13" p="a9256c53ccbdda3f" stroke="#746e6a" fill="none" stroke-linecap="square" stroke-width="1"></path><path id="line_4c18e30f71939493" d="M 178 121 L 196 121 L 196 135 A 4 4 0 0 0 200 139 L 214 139" p="a9256c53ccbdda3f" stroke="#746e6a" fill="none" stroke-linecap="square" stroke-width="1"></path><path id="line_e263922a666bf069" d="M 366 139 L 384 139 L 384 53 A 4 4 0 0 1 388 49 L 402 49" p="4c18e30f71939493" stroke="#746e6a" fill="none" stroke-linecap="square" stroke-width="1"></path><path id="line_1670fb12238d2daf" d="M 446 49 L 464 49 L 464 49 L 482 49" p="e263922a666bf069" stroke="#746e6a" fill="none" stroke-linecap="square" stroke-width="1"></path><path id="line_5f1dd5a66686bcb1" d="M 550 49 L 568 49 L 568 49 L 586 49" p="1670fb12238d2daf" stroke="#746e6a" fill="none" stroke-linecap="square" stroke-width="1"></path><path id="line_4f095f9efad976f8" d="M 366 139 L 384 139 L 384 89 A 4 4 0 0 1 388 85 L 402 85" p="4c18e30f71939493" stroke="#746e6a" fill="none" stroke-linecap="square" stroke-width="1"></path><path id="line_91e29e7673a387ad" d="M 366 139 L 384 139 L 384 125 A 4 4 0 0 1 388 121 L 402 121" p="4c18e30f71939493" stroke="#746e6a" fill="none" stroke-linecap="square" stroke-width="1"></path><path id="line_88eee7181b21729d" d="M 366 139 L 384 139 L 384 153 A 4 4 0 0 0 388 157 L 402 157" p="4c18e30f71939493" stroke="#746e6a" fill="none" stroke-linecap="square" stroke-width="1"></path><path id="line_3f4d6852c77b73c1" d="M 366 139 L 384 139 L 384 189 A 4 4 0 0 0 388 193 L 402 193" p="4c18e30f71939493" stroke="#746e6a" fill="none" stroke-linecap="square" stroke-width="1"></path><path id="line_3f7bdade256c82a1" d="M 366 139 L 384 139 L 384 225 A 4 4 0 0 0 388 229 L 402 229" p="4c18e30f71939493" stroke="#746e6a" fill="none" stroke-linecap="square" stroke-width="1"></path><path id="line_7b8c6e6df366f929" d="M 506 229 L 524 229 L 524 229 L 542 229" p="3f7bdade256c82a1" stroke="#746e6a" fill="none" stroke-linecap="square" stroke-width="1"></path></g><g transform="translate(0.5,0.5)"></g><g class="svg-summary-con" transform="translate(0.5,0.5)"></g><g class="svg-boundary-con" transform="translate(0.5,0.5)"></g></g><g transform="translate(182, 374)" id="sdjakdjak1"><g id="subline_8a1afe56926578d1" transform="translate(0.5, 0.5)"><path id="line_79532eb2734e5d68" d="M 100 17.09765625 L 118 17.09765625 L 118 17.1015625 L 136 17.1015625" p="8a1afe56926578d1" stroke="#746e6a" fill="none" stroke-linecap="square" stroke-width="1"></path></g><g transform="translate(0.5,0.5)"></g><g class="svg-summary-con" transform="translate(0.5,0.5)"></g><g class="svg-boundary-con" transform="translate(0.5,0.5)"></g></g><g transform="translate(182, 148)" id="sdjakdjak2"><g id="subline_55ee5bf1ed34aa18" transform="translate(0.5, 0.5)"><path id="line_fbcf177c58914e1c" d="M 74 103 L 92 103 L 92 17 A 4 4 0 0 1 96 13 L 110 13" p="55ee5bf1ed34aa18" stroke="#746e6a" fill="none" stroke-linecap="square" stroke-width="1"></path><path id="line_432d655961ed532b" d="M 74 103 L 92 103 L 92 53 A 4 4 0 0 1 96 49 L 110 49" p="55ee5bf1ed34aa18" stroke="#746e6a" fill="none" stroke-linecap="square" stroke-width="1"></path><path id="line_48af2e1aa8c87011" d="M 74 103 L 92 103 L 92 89 A 4 4 0 0 1 96 85 L 110 85" p="55ee5bf1ed34aa18" stroke="#746e6a" fill="none" stroke-linecap="square" stroke-width="1"></path><path id="line_1985d994d635ccc0" d="M 74 103 L 92 103 L 92 117 A 4 4 0 0 0 96 121 L 110 121" p="55ee5bf1ed34aa18" stroke="#746e6a" fill="none" stroke-linecap="square" stroke-width="1"></path><path id="line_bcc9bdee62bd348e" d="M 74 103 L 92 103 L 92 171 A 4 4 0 0 0 96 175 L 110 175" p="55ee5bf1ed34aa18" stroke="#746e6a" fill="none" stroke-linecap="square" stroke-width="1"></path><path id="line_0bcc72472c490601" d="M 214 175 L 232 175 L 232 175 L 250 175" p="bcc9bdee62bd348e" stroke="#746e6a" fill="none" stroke-linecap="square" stroke-width="1"></path><path id="line_09b2f1110f216e18" d="M 342 175 L 360 175 L 360 161 A 4 4 0 0 1 364 157 L 378 157" p="0bcc72472c490601" stroke="#746e6a" fill="none" stroke-linecap="square" stroke-width="1"></path><path id="line_7ad58d3fb1cfe3d6" d="M 342 175 L 360 175 L 360 189 A 4 4 0 0 0 364 193 L 378 193" p="0bcc72472c490601" stroke="#746e6a" fill="none" stroke-linecap="square" stroke-width="1"></path></g><g transform="translate(0.5,0.5)"></g><g class="svg-summary-con" transform="translate(0.5,0.5)"></g><g class="svg-boundary-con" transform="translate(0.5,0.5)"></g></g><g transform="translate(182, 30)" id="sdjakdjak3"><g id="subline_f400053da2b46ce6" transform="translate(0.5, 0.5)"><path id="line_9c4d769edee84cf9" d="M 74 49 L 92 49 L 92 35 A 4 4 0 0 1 96 31 L 110 31" p="f400053da2b46ce6" stroke="#746e6a" fill="none" stroke-linecap="square" stroke-width="1"></path><path id="line_cb5341e4084eaef1" d="M 250 31 L 268 31 L 268 17 A 4 4 0 0 1 272 13 L 286 13" p="9c4d769edee84cf9" stroke="#746e6a" fill="none" stroke-linecap="square" stroke-width="1"></path><path id="line_013bf26092dec6b7" d="M 250 31 L 268 31 L 268 45 A 4 4 0 0 0 272 49 L 286 49" p="9c4d769edee84cf9" stroke="#746e6a" fill="none" stroke-linecap="square" stroke-width="1"></path><path id="line_eba34c590745f984" d="M 74 49 L 92 49 L 92 81 A 4 4 0 0 0 96 85 L 110 85" p="f400053da2b46ce6" stroke="#746e6a" fill="none" stroke-linecap="square" stroke-width="1"></path></g><g transform="translate(0.5,0.5)"></g><g class="svg-summary-con" transform="translate(0.5,0.5)"></g><g class="svg-boundary-con" transform="translate(0.5,0.5)"></g></g><g transform="translate(30, 331)" id="sdjakdjak4"><g id="subline_root" transform="translate(0.5, 0.5)"></g><g transform="translate(0.5,0.5)"></g><g class="svg-summary-con" transform="translate(0.5,0.5)"></g><g class="svg-boundary-con" transform="translate(0.5,0.5)"></g></g><g id="root"><rect x="30" y="331" rx="6px" ry="6px" width="92" height="38" style="fill: #f8caad; stroke:#cdbdb3;stroke-width:1px;"></rect><g><text text-anchor="start" align="top" anchor="start" font-size="14px" font-weight="normal" fill="rgb(68, 63, 59)" style="font-size:14px;font-family:arial, 黑体;color:#443f3b;font-style:normal;text-align:left;font-weight:normal;"><tspan x="41" y="354"><tspan dx="0">简单计算器</tspan></tspan></text></g></g></svg>