<svg id="SvgjsSvg1006" width="672" height="373" xmlns="http://www.w3.org/2000/svg" version="1.1" xmlns:xlink="http://www.w3.org/1999/xlink" xmlns:svgjs="http://svgjs.com/svgjs"><defs id="SvgjsDefs1007"><pattern patternUnits="userSpaceOnUse" id="pattern_mark_0" width="300" height="300"><text x="150" y="100" fill="rgba(229,229,229,0.8)" font-size="18" transform="rotate(-45, 150, 150)" style="dominant-baseline: middle; text-anchor: middle;"></text></pattern><pattern patternUnits="userSpaceOnUse" id="pattern_mark_1" width="300" height="300"><text x="150" y="200" fill="rgba(229,229,229,0.8)" font-size="18" transform="rotate(-45, 150, 150)" style="dominant-baseline: middle; text-anchor: middle;"></text></pattern><marker id="SvgjsMarker1061" markerWidth="13" markerHeight="9" refX="9.5" refY="4.5" viewBox="0 0 13 9" orient="auto" markerUnits="userSpaceOnUse" stroke-dasharray="0,0"><path id="SvgjsPath1062" d="M0,0 L13,4.5 L0,9 L0,0" fill="#323232" stroke="#323232" stroke-width="1"></path></marker><marker id="SvgjsMarker1065" markerWidth="13" markerHeight="9" refX="9.5" refY="4.5" viewBox="0 0 13 9" orient="auto" markerUnits="userSpaceOnUse" stroke-dasharray="0,0"><path id="SvgjsPath1066" d="M0,0 L13,4.5 L0,9 L0,0" fill="#323232" stroke="#323232" stroke-width="1"></path></marker><marker id="SvgjsMarker1069" markerWidth="13" markerHeight="9" refX="9.5" refY="4.5" viewBox="0 0 13 9" orient="auto" markerUnits="userSpaceOnUse" stroke-dasharray="0,0"><path id="SvgjsPath1070" d="M0,0 L13,4.5 L0,9 L0,0" fill="#323232" stroke="#323232" stroke-width="1"></path></marker><marker id="SvgjsMarker1073" markerWidth="13" markerHeight="9" refX="9.5" refY="4.5" viewBox="0 0 13 9" orient="auto" markerUnits="userSpaceOnUse" stroke-dasharray="0,0"><path id="SvgjsPath1074" d="M0,0 L13,4.5 L0,9 L0,0" fill="#323232" stroke="#323232" stroke-width="1"></path></marker><marker id="SvgjsMarker1077" markerWidth="13" markerHeight="9" refX="9.5" refY="4.5" viewBox="0 0 13 9" orient="auto" markerUnits="userSpaceOnUse" stroke-dasharray="0,0"><path id="SvgjsPath1078" d="M0,0 L13,4.5 L0,9 L0,0" fill="#323232" stroke="#323232" stroke-width="1"></path></marker><marker id="SvgjsMarker1081" markerWidth="13" markerHeight="9" refX="9.5" refY="4.5" viewBox="0 0 13 9" orient="auto" markerUnits="userSpaceOnUse" stroke-dasharray="0,0"><path id="SvgjsPath1082" d="M0,0 L13,4.5 L0,9 L0,0" fill="#323232" stroke="#323232" stroke-width="1"></path></marker><marker id="SvgjsMarker1085" markerWidth="13" markerHeight="9" refX="9.5" refY="4.5" viewBox="0 0 13 9" orient="auto" markerUnits="userSpaceOnUse" stroke-dasharray="0,0"><path id="SvgjsPath1086" d="M0,0 L13,4.5 L0,9 L0,0" fill="#323232" stroke="#323232" stroke-width="1"></path></marker><marker id="SvgjsMarker1089" markerWidth="13" markerHeight="9" refX="9.5" refY="4.5" viewBox="0 0 13 9" orient="auto" markerUnits="userSpaceOnUse" stroke-dasharray="0,0"><path id="SvgjsPath1090" d="M0,0 L13,4.5 L0,9 L0,0" fill="#323232" stroke="#323232" stroke-width="1"></path></marker><marker id="SvgjsMarker1093" markerWidth="13" markerHeight="9" refX="9.5" refY="4.5" viewBox="0 0 13 9" orient="auto" markerUnits="userSpaceOnUse" stroke-dasharray="0,0"><path id="SvgjsPath1094" d="M0,0 L13,4.5 L0,9 L0,0" fill="#323232" stroke="#323232" stroke-width="1"></path></marker><marker id="SvgjsMarker1149" markerWidth="13" markerHeight="9" refX="9.5" refY="4.5" viewBox="0 0 13 9" orient="auto" markerUnits="userSpaceOnUse" stroke-dasharray="0,0"><path id="SvgjsPath1150" d="M0,0 L13,4.5 L0,9 L0,0" fill="#323232" stroke="#323232" stroke-width="1"></path></marker><marker id="SvgjsMarker1153" markerWidth="13" markerHeight="9" refX="9.5" refY="4.5" viewBox="0 0 13 9" orient="auto" markerUnits="userSpaceOnUse" stroke-dasharray="0,0"><path id="SvgjsPath1154" d="M0,0 L13,4.5 L0,9 L0,0" fill="#323232" stroke="#323232" stroke-width="1"></path></marker><marker id="SvgjsMarker1157" markerWidth="13" markerHeight="9" refX="9.5" refY="4.5" viewBox="0 0 13 9" orient="auto" markerUnits="userSpaceOnUse" stroke-dasharray="0,0"><path id="SvgjsPath1158" d="M0,0 L13,4.5 L0,9 L0,0" fill="#323232" stroke="#323232" stroke-width="1"></path></marker><marker id="SvgjsMarker1161" markerWidth="13" markerHeight="9" refX="9.5" refY="4.5" viewBox="0 0 13 9" orient="auto" markerUnits="userSpaceOnUse" stroke-dasharray="0,0"><path id="SvgjsPath1162" d="M0,0 L13,4.5 L0,9 L0,0" fill="#323232" stroke="#323232" stroke-width="1"></path></marker><marker id="SvgjsMarker1165" markerWidth="13" markerHeight="9" refX="9.5" refY="4.5" viewBox="0 0 13 9" orient="auto" markerUnits="userSpaceOnUse" stroke-dasharray="0,0"><path id="SvgjsPath1166" d="M0,0 L13,4.5 L0,9 L0,0" fill="#323232" stroke="#323232" stroke-width="1"></path></marker><marker id="SvgjsMarker1169" markerWidth="13" markerHeight="9" refX="9.5" refY="4.5" viewBox="0 0 13 9" orient="auto" markerUnits="userSpaceOnUse" stroke-dasharray="0,0"><path id="SvgjsPath1170" d="M0,0 L13,4.5 L0,9 L0,0" fill="#323232" stroke="#323232" stroke-width="1"></path></marker><marker id="SvgjsMarker1173" markerWidth="13" markerHeight="9" refX="9.5" refY="4.5" viewBox="0 0 13 9" orient="auto" markerUnits="userSpaceOnUse" stroke-dasharray="0,0"><path id="SvgjsPath1174" d="M0,0 L13,4.5 L0,9 L0,0" fill="#323232" stroke="#323232" stroke-width="1"></path></marker><marker id="SvgjsMarker1177" markerWidth="13" markerHeight="9" refX="9.5" refY="4.5" viewBox="0 0 13 9" orient="auto" markerUnits="userSpaceOnUse" stroke-dasharray="0,0"><path id="SvgjsPath1178" d="M0,0 L13,4.5 L0,9 L0,0" fill="#323232" stroke="#323232" stroke-width="1"></path></marker><marker id="SvgjsMarker1181" markerWidth="13" markerHeight="9" refX="9.5" refY="4.5" viewBox="0 0 13 9" orient="auto" markerUnits="userSpaceOnUse" stroke-dasharray="0,0"><path id="SvgjsPath1182" d="M0,0 L13,4.5 L0,9 L0,0" fill="#323232" stroke="#323232" stroke-width="1"></path></marker></defs><rect id="svgbackgroundid" width="672" height="373" fill="transparent"></rect><rect id="SvgjsRect1009" width="672" height="373" fill="url(#pattern_mark_0)"></rect><rect id="SvgjsRect1010" width="672" height="373" fill="url(#pattern_mark_1)"></rect><g id="SvgjsG1011" transform="translate(66,318)"><path id="SvgjsPath1012" d="M 0 15C 0 -5 30 -5 30 15C 30 35 0 35 0 15Z" stroke="none" fill-opacity="1" fill="#f29b06"></path><g id="SvgjsG1013"><text id="SvgjsText1014" font-family="&quot;Comic Sans MS&quot;" text-anchor="middle" font-size="13px" width="10px" fill="#323232" font-weight="700" align="middle" lineHeight="125%" anchor="middle" family="&quot;Comic Sans MS&quot;" size="13px" weight="700" font-style="" opacity="1" y="4.375" transform="rotate(0)"><tspan id="SvgjsTspan1015" dy="16.25" x="15"><tspan id="SvgjsTspan1016" style="">A</tspan></tspan></text></g></g><g id="SvgjsG1017" transform="translate(146,318)"><path id="SvgjsPath1018" d="M 0 15C 0 -5 30 -5 30 15C 30 35 0 35 0 15Z" stroke="none" fill-opacity="1" fill="#f29b06"></path><g id="SvgjsG1019"><text id="SvgjsText1020" font-family="&quot;Comic Sans MS&quot;" text-anchor="middle" font-size="13px" width="10px" fill="#323232" font-weight="700" align="middle" lineHeight="125%" anchor="middle" family="&quot;Comic Sans MS&quot;" size="13px" weight="700" font-style="" opacity="1" y="4.375" transform="rotate(0)"><tspan id="SvgjsTspan1021" dy="16.25" x="15"><tspan id="SvgjsTspan1022" style="">B</tspan></tspan></text></g></g><g id="SvgjsG1023" transform="translate(106,254)"><path id="SvgjsPath1024" d="M 0 15C 0 -5 30 -5 30 15C 30 35 0 35 0 15Z" stroke="none" fill-opacity="1" fill="#f29b06"></path><g id="SvgjsG1025"><text id="SvgjsText1026" font-family="&quot;Comic Sans MS&quot;" text-anchor="middle" font-size="13px" width="10px" fill="#323232" font-weight="700" align="middle" lineHeight="125%" anchor="middle" family="&quot;Comic Sans MS&quot;" size="13px" weight="700" font-style="" opacity="1" y="4.375" transform="rotate(0)"><tspan id="SvgjsTspan1027" dy="16.25" x="15"><tspan id="SvgjsTspan1028" style="">C</tspan></tspan></text></g></g><g id="SvgjsG1029" transform="translate(146,197)"><path id="SvgjsPath1030" d="M 0 15C 0 -5 30 -5 30 15C 30 35 0 35 0 15Z" stroke="none" fill-opacity="1" fill="#f29b06"></path><g id="SvgjsG1031"><text id="SvgjsText1032" font-family="&quot;Comic Sans MS&quot;" text-anchor="middle" font-size="13px" width="10px" fill="#323232" font-weight="700" align="middle" lineHeight="125%" anchor="middle" family="&quot;Comic Sans MS&quot;" size="13px" weight="700" font-style="" opacity="1" y="4.375" transform="rotate(0)"><tspan id="SvgjsTspan1033" dy="16.25" x="15"><tspan id="SvgjsTspan1034" style="">E</tspan></tspan></text></g></g><g id="SvgjsG1035" transform="translate(66,167)"><path id="SvgjsPath1036" d="M 0 15C 0 -5 30 -5 30 15C 30 35 0 35 0 15Z" stroke="none" fill-opacity="1" fill="#f29b06"></path><g id="SvgjsG1037"><text id="SvgjsText1038" font-family="&quot;Comic Sans MS&quot;" text-anchor="middle" font-size="13px" width="10px" fill="#323232" font-weight="700" align="middle" lineHeight="125%" anchor="middle" family="&quot;Comic Sans MS&quot;" size="13px" weight="700" font-style="" opacity="1" y="4.375" transform="rotate(0)"><tspan id="SvgjsTspan1039" dy="16.25" x="15"><tspan id="SvgjsTspan1040" style="">D</tspan></tspan></text></g></g><g id="SvgjsG1041" transform="translate(66,95)"><path id="SvgjsPath1042" d="M 0 15C 0 -5 30 -5 30 15C 30 35 0 35 0 15Z" stroke="none" fill-opacity="1" fill="#f29b06"></path><g id="SvgjsG1043"><text id="SvgjsText1044" font-family="&quot;Comic Sans MS&quot;" text-anchor="middle" font-size="13px" width="10px" fill="#323232" font-weight="700" align="middle" lineHeight="125%" anchor="middle" family="&quot;Comic Sans MS&quot;" size="13px" weight="700" font-style="" opacity="1" y="4.375" transform="rotate(0)"><tspan id="SvgjsTspan1045" dy="16.25" x="15"><tspan id="SvgjsTspan1046" style="">F</tspan></tspan></text></g></g><g id="SvgjsG1047" transform="translate(146,95)"><path id="SvgjsPath1048" d="M 0 15C 0 -5 30 -5 30 15C 30 35 0 35 0 15Z" stroke="none" fill-opacity="1" fill="#f29b06"></path><g id="SvgjsG1049"><text id="SvgjsText1050" font-family="&quot;Comic Sans MS&quot;" text-anchor="middle" font-size="13px" width="10px" fill="#323232" font-weight="700" align="middle" lineHeight="125%" anchor="middle" family="&quot;Comic Sans MS&quot;" size="13px" weight="700" font-style="" opacity="1" y="4.375" transform="rotate(0)"><tspan id="SvgjsTspan1051" dy="16.25" x="15"><tspan id="SvgjsTspan1052" style="">G</tspan></tspan></text></g></g><g id="SvgjsG1053" transform="translate(106,25)"><path id="SvgjsPath1054" d="M 0 15C 0 -5 30 -5 30 15C 30 35 0 35 0 15Z" stroke="none" fill-opacity="1" fill="#f29b06"></path><g id="SvgjsG1055"><text id="SvgjsText1056" font-family="&quot;Comic Sans MS&quot;" text-anchor="middle" font-size="13px" width="10px" fill="#323232" font-weight="700" align="middle" lineHeight="125%" anchor="middle" family="&quot;Comic Sans MS&quot;" size="13px" weight="700" font-style="" opacity="1" y="4.375" transform="rotate(0)"><tspan id="SvgjsTspan1057" dy="16.25" x="15"><tspan id="SvgjsTspan1058" style="">H</tspan></tspan></text></g></g><g id="SvgjsG1059"><path id="SvgjsPath1060" d="M81 318L119.51421833036903 285.2629144191863" stroke="#323232" stroke-width="1.5" fill="none" marker-end="url(#SvgjsMarker1061)"></path></g><g id="SvgjsG1063"><path id="SvgjsPath1064" d="M161 318L122.48578166963097 285.2629144191863" stroke="#323232" stroke-width="1.5" fill="none" marker-end="url(#SvgjsMarker1065)"></path></g><g id="SvgjsG1067"><path id="SvgjsPath1068" d="M121 254L159.3837450855525 228.0909720672521" stroke="#323232" stroke-width="1.5" fill="none" marker-end="url(#SvgjsMarker1069)"></path></g><g id="SvgjsG1071"><path id="SvgjsPath1072" d="M121 254L82.12013021073801 198.5961855503017" stroke="#323232" stroke-width="1.5" fill="none" marker-end="url(#SvgjsMarker1073)"></path></g><g id="SvgjsG1075"><path id="SvgjsPath1076" d="M161 197L161 126.94999999999999" stroke="#323232" stroke-width="1.5" fill="none" marker-end="url(#SvgjsMarker1077)"></path></g><g id="SvgjsG1079"><path id="SvgjsPath1080" d="M90.3419248548899 171.1183858069415L90.3419248548899 122.2186462983808" stroke="#323232" stroke-width="1.5" fill="none" marker-end="url(#SvgjsMarker1081)"></path></g><g id="SvgjsG1083"><path id="SvgjsPath1084" d="M70.93894312557177 121.23410481428215L70.93894312557177 169.77799344025001" stroke="#323232" stroke-width="1.5" fill="none" marker-end="url(#SvgjsMarker1085)"></path></g><g id="SvgjsG1087"><path id="SvgjsPath1088" d="M81 95L119.62114177668622 56.37885822331377" stroke="#323232" stroke-width="1.5" fill="none" marker-end="url(#SvgjsMarker1089)"></path></g><g id="SvgjsG1091"><path id="SvgjsPath1092" d="M161 95L122.37885822331378 56.37885822331377" stroke="#323232" stroke-width="1.5" fill="none" marker-end="url(#SvgjsMarker1093)"></path></g><g id="SvgjsG1095" transform="translate(456,318)"><path id="SvgjsPath1096" d="M 0 15C 0 -5 30 -5 30 15C 30 35 0 35 0 15Z" stroke="none" fill-opacity="1" fill="#f29b06"></path><g id="SvgjsG1097"><text id="SvgjsText1098" font-family="&quot;Comic Sans MS&quot;" text-anchor="middle" font-size="13px" width="10px" fill="#323232" font-weight="700" align="middle" lineHeight="125%" anchor="middle" family="&quot;Comic Sans MS&quot;" size="13px" weight="700" font-style="" opacity="1" y="4.375" transform="rotate(0)"></text></g></g><g id="SvgjsG1099" transform="translate(456,232)"><path id="SvgjsPath1100" d="M 0 15C 0 -5 30 -5 30 15C 30 35 0 35 0 15Z" stroke="none" fill-opacity="1" fill="#f29b06"></path><g id="SvgjsG1101"><text id="SvgjsText1102" font-family="&quot;Comic Sans MS&quot;" text-anchor="middle" font-size="13px" width="10px" fill="#323232" font-weight="700" align="middle" lineHeight="125%" anchor="middle" family="&quot;Comic Sans MS&quot;" size="13px" weight="700" font-style="" opacity="1" y="4.375" transform="rotate(0)"><tspan id="SvgjsTspan1103" dy="16.25" x="15"><tspan id="SvgjsTspan1104" style="">B</tspan></tspan></text></g></g><g id="SvgjsG1105" transform="translate(516,232)"><path id="SvgjsPath1106" d="M 0 15C 0 -5 30 -5 30 15C 30 35 0 35 0 15Z" stroke="none" fill-opacity="1" fill="#f29b06"></path><g id="SvgjsG1107"><text id="SvgjsText1108" font-family="&quot;Comic Sans MS&quot;" text-anchor="middle" font-size="13px" width="10px" fill="#323232" font-weight="700" align="middle" lineHeight="125%" anchor="middle" family="&quot;Comic Sans MS&quot;" size="13px" weight="700" font-style="" opacity="1" y="4.375" transform="rotate(0)"><tspan id="SvgjsTspan1109" dy="16.25" x="15"><tspan id="SvgjsTspan1110" style="">C</tspan></tspan></text></g></g><g id="SvgjsG1111" transform="translate(396,232)"><path id="SvgjsPath1112" d="M 0 15C 0 -5 30 -5 30 15C 30 35 0 35 0 15Z" stroke="none" fill-opacity="1" fill="#f29b06"></path><g id="SvgjsG1113"><text id="SvgjsText1114" font-family="&quot;Comic Sans MS&quot;" text-anchor="middle" font-size="13px" width="10px" fill="#323232" font-weight="700" align="middle" lineHeight="125%" anchor="middle" family="&quot;Comic Sans MS&quot;" size="13px" weight="700" font-style="" opacity="1" y="4.375" transform="rotate(0)"><tspan id="SvgjsTspan1115" dy="16.25" x="15"><tspan id="SvgjsTspan1116" style="">A</tspan></tspan></text></g></g><g id="SvgjsG1117" transform="translate(516,146)"><path id="SvgjsPath1118" d="M 0 15C 0 -5 30 -5 30 15C 30 35 0 35 0 15Z" stroke="none" fill-opacity="1" fill="#f29b06"></path><g id="SvgjsG1119"><text id="SvgjsText1120" font-family="&quot;Comic Sans MS&quot;" text-anchor="middle" font-size="13px" width="10px" fill="#323232" font-weight="700" align="middle" lineHeight="125%" anchor="middle" family="&quot;Comic Sans MS&quot;" size="13px" weight="700" font-style="" opacity="1" y="4.375" transform="rotate(0)"><tspan id="SvgjsTspan1121" dy="16.25" x="15"><tspan id="SvgjsTspan1122" style="">E</tspan></tspan></text></g></g><g id="SvgjsG1123" transform="translate(456,146)"><path id="SvgjsPath1124" d="M 0 15C 0 -5 30 -5 30 15C 30 35 0 35 0 15Z" stroke="none" fill-opacity="1" fill="#f29b06"></path><g id="SvgjsG1125"><text id="SvgjsText1126" font-family="&quot;Comic Sans MS&quot;" text-anchor="middle" font-size="13px" width="10px" fill="#323232" font-weight="700" align="middle" lineHeight="125%" anchor="middle" family="&quot;Comic Sans MS&quot;" size="13px" weight="700" font-style="" opacity="1" y="4.375" transform="rotate(0)"><tspan id="SvgjsTspan1127" dy="16.25" x="15"><tspan id="SvgjsTspan1128" style="">D</tspan></tspan></text></g></g><g id="SvgjsG1129" transform="translate(576,146)"><path id="SvgjsPath1130" d="M 0 15C 0 -5 30 -5 30 15C 30 35 0 35 0 15Z" stroke="none" fill-opacity="1" fill="#f29b06"></path><g id="SvgjsG1131"><text id="SvgjsText1132" font-family="&quot;Comic Sans MS&quot;" text-anchor="middle" font-size="13px" width="10px" fill="#323232" font-weight="700" align="middle" lineHeight="125%" anchor="middle" family="&quot;Comic Sans MS&quot;" size="13px" weight="700" font-style="" opacity="1" y="4.375" transform="rotate(0)"><tspan id="SvgjsTspan1133" dy="16.25" x="15"><tspan id="SvgjsTspan1134" style="">H</tspan></tspan></text></g></g><g id="SvgjsG1135" transform="translate(516,60)"><path id="SvgjsPath1136" d="M 0 15C 0 -5 30 -5 30 15C 30 35 0 35 0 15Z" stroke="none" fill-opacity="1" fill="#f29b06"></path><g id="SvgjsG1137"><text id="SvgjsText1138" font-family="&quot;Comic Sans MS&quot;" text-anchor="middle" font-size="13px" width="10px" fill="#323232" font-weight="700" align="middle" lineHeight="125%" anchor="middle" family="&quot;Comic Sans MS&quot;" size="13px" weight="700" font-style="" opacity="1" y="4.375" transform="rotate(0)"><tspan id="SvgjsTspan1139" dy="16.25" x="15"><tspan id="SvgjsTspan1140" style="">G</tspan></tspan></text></g></g><g id="SvgjsG1141" transform="translate(456,60)"><path id="SvgjsPath1142" d="M 0 15C 0 -5 30 -5 30 15C 30 35 0 35 0 15Z" stroke="none" fill-opacity="1" fill="#f29b06"></path><g id="SvgjsG1143"><text id="SvgjsText1144" font-family="&quot;Comic Sans MS&quot;" text-anchor="middle" font-size="13px" width="10px" fill="#323232" font-weight="700" align="middle" lineHeight="125%" anchor="middle" family="&quot;Comic Sans MS&quot;" size="13px" weight="700" font-style="" opacity="1" y="4.375" transform="rotate(0)"><tspan id="SvgjsTspan1145" dy="16.25" x="15"><tspan id="SvgjsTspan1146" style="">F</tspan></tspan></text></g></g><g id="SvgjsG1147"><path id="SvgjsPath1148" d="M471 318L471 263.95" stroke="#323232" stroke-width="1.5" fill="none" marker-end="url(#SvgjsMarker1149)"></path></g><g id="SvgjsG1151"><path id="SvgjsPath1152" d="M471 318L412.4255577730736 263.33052058820203" stroke="#323232" stroke-width="1.5" fill="none" marker-end="url(#SvgjsMarker1153)"></path></g><g id="SvgjsG1155"><path id="SvgjsPath1156" d="M471 318L529.5744422269264 263.33052058820203" stroke="#323232" stroke-width="1.5" fill="none" marker-end="url(#SvgjsMarker1157)"></path></g><g id="SvgjsG1159"><path id="SvgjsPath1160" d="M531 232L531 177.95" stroke="#323232" stroke-width="1.5" fill="none" marker-end="url(#SvgjsMarker1161)"></path></g><g id="SvgjsG1163"><path id="SvgjsPath1164" d="M531 232L472.4255577730736 177.33052058820203" stroke="#323232" stroke-width="1.5" fill="none" marker-end="url(#SvgjsMarker1165)"></path></g><g id="SvgjsG1167"><path id="SvgjsPath1168" d="M531 232L589.5744422269264 177.33052058820203" stroke="#323232" stroke-width="1.5" fill="none" marker-end="url(#SvgjsMarker1169)"></path></g><g id="SvgjsG1171"><path id="SvgjsPath1172" d="M531 146L531 91.94999999999999" stroke="#323232" stroke-width="1.5" fill="none" marker-end="url(#SvgjsMarker1173)"></path></g><g id="SvgjsG1175"><path id="SvgjsPath1176" d="M471 146L471 91.94999999999999" stroke="#323232" stroke-width="1.5" fill="none" marker-end="url(#SvgjsMarker1177)"></path></g><g id="SvgjsG1179"><path id="SvgjsPath1180" d="M224 186L276 186L276 186L328 186" stroke="#323232" stroke-width="1.5" fill="none" marker-end="url(#SvgjsMarker1181)"></path></g><g id="SvgjsG1183"></g></svg>