<svg id="SvgjsSvg1006" width="535" height="389" xmlns="http://www.w3.org/2000/svg" version="1.1" xmlns:xlink="http://www.w3.org/1999/xlink" xmlns:svgjs="http://svgjs.com/svgjs"><defs id="SvgjsDefs1007"><pattern patternUnits="userSpaceOnUse" id="pattern_mark_0" width="300" height="300"><text x="150" y="100" fill="rgba(229,229,229,0.8)" font-size="18" transform="rotate(-45, 150, 150)" style="dominant-baseline: middle; text-anchor: middle;"></text></pattern><pattern patternUnits="userSpaceOnUse" id="pattern_mark_1" width="300" height="300"><text x="150" y="200" fill="rgba(229,229,229,0.8)" font-size="18" transform="rotate(-45, 150, 150)" style="dominant-baseline: middle; text-anchor: middle;"></text></pattern><marker id="SvgjsMarker1049" markerWidth="13" markerHeight="9" refX="9.5" refY="4.5" viewBox="0 0 13 9" orient="auto" markerUnits="userSpaceOnUse" stroke-dasharray="0,0"><path id="SvgjsPath1050" d="M0,0 L13,4.5 L0,9 L0,0" fill="#e9d66f" stroke="#e9d66f" stroke-width="1"></path></marker><marker id="SvgjsMarker1053" markerWidth="13" markerHeight="9" refX="9.5" refY="4.5" viewBox="0 0 13 9" orient="auto" markerUnits="userSpaceOnUse" stroke-dasharray="0,0"><path id="SvgjsPath1054" d="M0,0 L13,4.5 L0,9 L0,0" fill="#e9d66f" stroke="#e9d66f" stroke-width="1"></path></marker><marker id="SvgjsMarker1057" markerWidth="13" markerHeight="9" refX="9.5" refY="4.5" viewBox="0 0 13 9" orient="auto" markerUnits="userSpaceOnUse" stroke-dasharray="0,0"><path id="SvgjsPath1058" d="M0,0 L13,4.5 L0,9 L0,0" fill="#e9d66f" stroke="#e9d66f" stroke-width="1"></path></marker><marker id="SvgjsMarker1061" markerWidth="13" markerHeight="9" refX="9.5" refY="4.5" viewBox="0 0 13 9" orient="auto" markerUnits="userSpaceOnUse" stroke-dasharray="0,0"><path id="SvgjsPath1062" d="M0,0 L13,4.5 L0,9 L0,0" fill="#e9d66f" stroke="#e9d66f" stroke-width="1"></path></marker><marker id="SvgjsMarker1083" markerWidth="13" markerHeight="9" refX="9.5" refY="4.5" viewBox="0 0 13 9" orient="auto" markerUnits="userSpaceOnUse" stroke-dasharray="0,0"><path id="SvgjsPath1084" d="M0,0 L13,4.5 L0,9 L0,0" fill="#e9d66f" stroke="#e9d66f" stroke-width="1"></path></marker><marker id="SvgjsMarker1087" markerWidth="13" markerHeight="9" refX="9.5" refY="4.5" viewBox="0 0 13 9" orient="auto" markerUnits="userSpaceOnUse" stroke-dasharray="0,0"><path id="SvgjsPath1088" d="M0,0 L13,4.5 L0,9 L0,0" fill="#e9d66f" stroke="#e9d66f" stroke-width="1"></path></marker></defs><rect id="svgbackgroundid" width="535" height="389" fill="transparent"></rect><rect id="SvgjsRect1009" width="535" height="389" fill="url(#pattern_mark_0)"></rect><rect id="SvgjsRect1010" width="535" height="389" fill="url(#pattern_mark_1)"></rect><g id="SvgjsG1011" transform="translate(60,25)"><path id="SvgjsPath1012" d="M 0 0L 450 0L 450 100L 0 100Z" stroke="none" fill-opacity="1" fill="#9bc0ea"></path><g id="SvgjsG1013"><text id="SvgjsText1014" font-family="&quot;Microsoft YaHei&quot;, 微软雅黑, Arial" text-anchor="end" font-size="15px" width="430px" fill="#323232" font-weight="700" align="bottom" lineHeight="125%" anchor="end" family="&quot;Microsoft YaHei&quot;, 微软雅黑, Arial" size="15px" weight="700" font-style="" opacity="1" y="78.125" transform="rotate(0)"><tspan id="SvgjsTspan1015" dy="18.75" x="440"><tspan id="SvgjsTspan1016" style="">GC Root Set</tspan></tspan></text></g></g><g id="SvgjsG1017" transform="translate(99,66)"><path id="SvgjsPath1018" d="M 0 4Q 0 0 4 0L 86 0Q 90 0 90 4L 90 36Q 90 40 86 40L 4 40Q 0 40 0 36Z" stroke="none" fill-opacity="1" fill="#5a96da"></path><g id="SvgjsG1019"><text id="SvgjsText1020" font-family="&quot;Microsoft YaHei&quot;, 微软雅黑, Arial" text-anchor="middle" font-size="13px" width="70px" fill="#ffffff" font-weight="700" align="middle" lineHeight="125%" anchor="middle" family="&quot;Microsoft YaHei&quot;, 微软雅黑, Arial" size="13px" weight="700" font-style="" opacity="1" y="9.375" transform="rotate(0)"><tspan id="SvgjsTspan1021" dy="16.25" x="45"><tspan id="SvgjsTspan1022" style="">GC Roots</tspan></tspan></text></g></g><g id="SvgjsG1023" transform="translate(99,146)"><path id="SvgjsPath1024" d="M 0 4Q 0 0 4 0L 86 0Q 90 0 90 4L 90 36Q 90 40 86 40L 4 40Q 0 40 0 36Z" stroke="none" fill-opacity="1" fill="#5a96da"></path><g id="SvgjsG1025"><text id="SvgjsText1026" font-family="&quot;Microsoft YaHei&quot;, 微软雅黑, Arial" text-anchor="middle" font-size="13px" width="70px" fill="#ffffff" font-weight="700" align="middle" lineHeight="125%" anchor="middle" family="&quot;Microsoft YaHei&quot;, 微软雅黑, Arial" size="13px" weight="700" font-style="" opacity="1" y="9.375" transform="rotate(0)"><tspan id="SvgjsTspan1027" dy="16.25" x="45"><tspan id="SvgjsTspan1028" style="">object 1</tspan></tspan></text></g></g><g id="SvgjsG1029" transform="translate(25,226)"><path id="SvgjsPath1030" d="M 0 4Q 0 0 4 0L 86 0Q 90 0 90 4L 90 36Q 90 40 86 40L 4 40Q 0 40 0 36Z" stroke="none" fill-opacity="1" fill="#5a96da"></path><g id="SvgjsG1031"><text id="SvgjsText1032" font-family="&quot;Microsoft YaHei&quot;, 微软雅黑, Arial" text-anchor="middle" font-size="13px" width="70px" fill="#ffffff" font-weight="700" align="middle" lineHeight="125%" anchor="middle" family="&quot;Microsoft YaHei&quot;, 微软雅黑, Arial" size="13px" weight="700" font-style="" opacity="1" y="9.375" transform="rotate(0)"><tspan id="SvgjsTspan1033" dy="16.25" x="45"><tspan id="SvgjsTspan1034" style="">object 2</tspan></tspan></text></g></g><g id="SvgjsG1035" transform="translate(165,226)"><path id="SvgjsPath1036" d="M 0 4Q 0 0 4 0L 86 0Q 90 0 90 4L 90 36Q 90 40 86 40L 4 40Q 0 40 0 36Z" stroke="none" fill-opacity="1" fill="#5a96da"></path><g id="SvgjsG1037"><text id="SvgjsText1038" font-family="&quot;Microsoft YaHei&quot;, 微软雅黑, Arial" text-anchor="middle" font-size="13px" width="70px" fill="#ffffff" font-weight="700" align="middle" lineHeight="125%" anchor="middle" family="&quot;Microsoft YaHei&quot;, 微软雅黑, Arial" size="13px" weight="700" font-style="" opacity="1" y="9.375" transform="rotate(0)"><tspan id="SvgjsTspan1039" dy="16.25" x="45"><tspan id="SvgjsTspan1040" style="">object 3</tspan></tspan></text></g></g><g id="SvgjsG1041" transform="translate(99,306)"><path id="SvgjsPath1042" d="M 0 4Q 0 0 4 0L 86 0Q 90 0 90 4L 90 36Q 90 40 86 40L 4 40Q 0 40 0 36Z" stroke="none" fill-opacity="1" fill="#5a96da"></path><g id="SvgjsG1043"><text id="SvgjsText1044" font-family="&quot;Microsoft YaHei&quot;, 微软雅黑, Arial" text-anchor="middle" font-size="13px" width="70px" fill="#ffffff" font-weight="700" align="middle" lineHeight="125%" anchor="middle" family="&quot;Microsoft YaHei&quot;, 微软雅黑, Arial" size="13px" weight="700" font-style="" opacity="1" y="9.375" transform="rotate(0)"><tspan id="SvgjsTspan1045" dy="16.25" x="45"><tspan id="SvgjsTspan1046" style="">object 4</tspan></tspan></text></g></g><g id="SvgjsG1047"><path id="SvgjsPath1048" d="M144 106L144 126L144 126L144 144.05" stroke="#e9d66f" stroke-width="1.5" fill="none" marker-end="url(#SvgjsMarker1049)"></path></g><g id="SvgjsG1051"><path id="SvgjsPath1052" d="M144 186L71.71542770147346 225.07274178298732" stroke="#e9d66f" stroke-width="1.5" fill="none" marker-end="url(#SvgjsMarker1053)"></path></g><g id="SvgjsG1055"><path id="SvgjsPath1056" d="M144 186L208.33236422846966 224.989311653618" stroke="#e9d66f" stroke-width="1.5" fill="none" marker-end="url(#SvgjsMarker1057)"></path></g><g id="SvgjsG1059"><path id="SvgjsPath1060" d="M70 266L142.28457229852654 305.07274178298735" stroke="#e9d66f" stroke-width="1.5" fill="none" marker-end="url(#SvgjsMarker1061)"></path></g><g id="SvgjsG1063" transform="translate(354,146)"><path id="SvgjsPath1064" d="M 0 4Q 0 0 4 0L 86 0Q 90 0 90 4L 90 36Q 90 40 86 40L 4 40Q 0 40 0 36Z" stroke="none" fill-opacity="1" fill="#d5d9e6"></path><g id="SvgjsG1065"><text id="SvgjsText1066" font-family="&quot;Microsoft YaHei&quot;, 微软雅黑, Arial" text-anchor="middle" font-size="13px" width="70px" fill="#000000" font-weight="700" align="middle" lineHeight="125%" anchor="middle" family="&quot;Microsoft YaHei&quot;, 微软雅黑, Arial" size="13px" weight="700" font-style="" opacity="1" y="9.375" transform="rotate(0)"><tspan id="SvgjsTspan1067" dy="16.25" x="45"><tspan id="SvgjsTspan1068" style="">object 5</tspan></tspan></text></g></g><g id="SvgjsG1069" transform="translate(280,226)"><path id="SvgjsPath1070" d="M 0 4Q 0 0 4 0L 86 0Q 90 0 90 4L 90 36Q 90 40 86 40L 4 40Q 0 40 0 36Z" stroke="none" fill-opacity="1" fill="#d5d9e6"></path><g id="SvgjsG1071"><text id="SvgjsText1072" font-family="&quot;Microsoft YaHei&quot;, 微软雅黑, Arial" text-anchor="middle" font-size="13px" width="70px" fill="#000000" font-weight="700" align="middle" lineHeight="125%" anchor="middle" family="&quot;Microsoft YaHei&quot;, 微软雅黑, Arial" size="13px" weight="700" font-style="" opacity="1" y="9.375" transform="rotate(0)"><tspan id="SvgjsTspan1073" dy="16.25" x="45"><tspan id="SvgjsTspan1074" style="">object 6</tspan></tspan></text></g></g><g id="SvgjsG1075" transform="translate(420,226)"><path id="SvgjsPath1076" d="M 0 4Q 0 0 4 0L 86 0Q 90 0 90 4L 90 36Q 90 40 86 40L 4 40Q 0 40 0 36Z" stroke="none" fill-opacity="1" fill="#d5d9e6"></path><g id="SvgjsG1077"><text id="SvgjsText1078" font-family="&quot;Microsoft YaHei&quot;, 微软雅黑, Arial" text-anchor="middle" font-size="13px" width="70px" fill="#000000" font-weight="700" align="middle" lineHeight="125%" anchor="middle" family="&quot;Microsoft YaHei&quot;, 微软雅黑, Arial" size="13px" weight="700" font-style="" opacity="1" y="9.375" transform="rotate(0)"><tspan id="SvgjsTspan1079" dy="16.25" x="45"><tspan id="SvgjsTspan1080" style="">object 7</tspan></tspan></text></g></g><g id="SvgjsG1081"><path id="SvgjsPath1082" d="M399 186L326.71542770147346 225.07274178298732" stroke="#e9d66f" stroke-width="1.5" fill="none" marker-end="url(#SvgjsMarker1083)"></path></g><g id="SvgjsG1085"><path id="SvgjsPath1086" d="M399 186L463.3323642284697 224.989311653618" stroke="#e9d66f" stroke-width="1.5" fill="none" marker-end="url(#SvgjsMarker1087)"></path></g><g id="SvgjsG1089" transform="translate(280,330)"><path id="SvgjsPath1090" d="M 0 4Q 0 0 4 0L 56 0Q 60 0 60 4L 60 26Q 60 30 56 30L 4 30Q 0 30 0 26Z" stroke="none" fill-opacity="1" fill="#d5d9e6"></path><g id="SvgjsG1091"><text id="SvgjsText1092" font-family="&quot;Microsoft YaHei&quot;, 微软雅黑, Arial" text-anchor="middle" font-size="13px" width="40px" fill="#000000" font-weight="700" align="middle" lineHeight="125%" anchor="middle" family="&quot;Microsoft YaHei&quot;, 微软雅黑, Arial" size="13px" weight="700" font-style="" opacity="1" y="4.375" transform="rotate(0)"></text></g></g><g id="SvgjsG1093" transform="translate(280,286)"><path id="SvgjsPath1094" d="M 0 4Q 0 0 4 0L 56 0Q 60 0 60 4L 60 26Q 60 30 56 30L 4 30Q 0 30 0 26Z" stroke="none" fill-opacity="1" fill="#5a96da"></path><g id="SvgjsG1095"><text id="SvgjsText1096" font-family="&quot;Microsoft YaHei&quot;, 微软雅黑, Arial" text-anchor="middle" font-size="13px" width="40px" fill="#ffffff" font-weight="700" align="middle" lineHeight="125%" anchor="middle" family="&quot;Microsoft YaHei&quot;, 微软雅黑, Arial" size="13px" weight="700" font-style="" opacity="1" y="4.375" transform="rotate(0)"></text></g></g><g id="SvgjsG1097" transform="translate(316,278)"><path id="SvgjsPath1098" d="M 0 0L 100 0L 100 40L 0 40Z" stroke="none" fill="none"></path><g id="SvgjsG1099"><text id="SvgjsText1100" font-family="&quot;Microsoft YaHei&quot;, 微软雅黑, Arial" text-anchor="middle" font-size="13px" width="100px" fill="#323232" font-weight="400" align="middle" lineHeight="125%" anchor="middle" family="&quot;Microsoft YaHei&quot;, 微软雅黑, Arial" size="13px" weight="400" font-style="" opacity="1" y="9.375" transform="rotate(0)"><tspan id="SvgjsTspan1101" dy="16.25" x="50"><tspan id="SvgjsTspan1102" style="">存活对象</tspan></tspan></text></g></g><g id="SvgjsG1103" transform="translate(325,324)"><path id="SvgjsPath1104" d="M 0 0L 100 0L 100 40L 0 40Z" stroke="none" fill="none"></path><g id="SvgjsG1105"><text id="SvgjsText1106" font-family="&quot;Microsoft YaHei&quot;, 微软雅黑, Arial" text-anchor="middle" font-size="13px" width="100px" fill="#323232" font-weight="400" align="middle" lineHeight="125%" anchor="middle" family="&quot;Microsoft YaHei&quot;, 微软雅黑, Arial" size="13px" weight="400" font-style="" opacity="1" y="9.375" transform="rotate(0)"><tspan id="SvgjsTspan1107" dy="16.25" x="50"><tspan id="SvgjsTspan1108" style="">可回收对象</tspan></tspan></text></g></g><g id="SvgjsG1109"></g></svg>