<svg id="SvgjsSvg1006" width="345" height="494" xmlns="http://www.w3.org/2000/svg" version="1.1" xmlns:xlink="http://www.w3.org/1999/xlink" xmlns:svgjs="http://svgjs.com/svgjs"><defs id="SvgjsDefs1007"><pattern patternUnits="userSpaceOnUse" id="pattern_mark_0" width="300" height="300"><text x="150" y="100" fill="rgba(229,229,229,0.8)" font-size="18" transform="rotate(-45, 150, 150)" style="dominant-baseline: middle; text-anchor: middle;"></text></pattern><pattern patternUnits="userSpaceOnUse" id="pattern_mark_1" width="300" height="300"><text x="150" y="200" fill="rgba(229,229,229,0.8)" font-size="18" transform="rotate(-45, 150, 150)" style="dominant-baseline: middle; text-anchor: middle;"></text></pattern><marker id="SvgjsMarker1019" markerWidth="13" markerHeight="9" refX="9.5" refY="4.5" viewBox="0 0 13 9" orient="auto" markerUnits="userSpaceOnUse" stroke-dasharray="0,0"><path id="SvgjsPath1020" d="M0,0 L13,4.5 L0,9 L0,0" fill="#323232" stroke="#323232" stroke-width="1"></path></marker><marker id="SvgjsMarker1029" markerWidth="13" markerHeight="9" refX="9.5" refY="4.5" viewBox="0 0 13 9" orient="auto" markerUnits="userSpaceOnUse" stroke-dasharray="0,0"><path id="SvgjsPath1030" d="M0,0 L13,4.5 L0,9 L0,0" fill="#323232" stroke="#323232" stroke-width="1"></path></marker><marker id="SvgjsMarker1043" markerWidth="13" markerHeight="9" refX="9.5" refY="4.5" viewBox="0 0 13 9" orient="auto" markerUnits="userSpaceOnUse" stroke-dasharray="0,0"><path id="SvgjsPath1044" d="M0,0 L13,4.5 L0,9 L0,0" fill="#323232" stroke="#323232" stroke-width="1"></path></marker><marker id="SvgjsMarker1067" markerWidth="13" markerHeight="9" refX="9.5" refY="4.5" viewBox="0 0 13 9" orient="auto" markerUnits="userSpaceOnUse" stroke-dasharray="0,0"><path id="SvgjsPath1068" d="M0,0 L13,4.5 L0,9 L0,0" fill="#323232" stroke="#323232" stroke-width="1"></path></marker></defs><rect id="svgbackgroundid" width="345" height="494" fill="transparent"></rect><rect id="SvgjsRect1009" width="345" height="494" fill="url(#pattern_mark_0)"></rect><rect id="SvgjsRect1010" width="345" height="494" fill="url(#pattern_mark_1)"></rect><g id="SvgjsG1011" transform="translate(122.5,25)"><path id="SvgjsPath1012" d="M 16.666666666666668 0L 83.33333333333333 0C 105.55555555555556 0 105.55555555555556 50 83.33333333333333 50L 16.666666666666668 50C -5.555555555555556 50 -5.555555555555556 0 16.666666666666668 0Z" stroke="rgba(33,41,48,1)" stroke-width="1.5" fill-opacity="1" fill="#cee2ff"></path><g id="SvgjsG1013"><text id="SvgjsText1014" font-family="&quot;Microsoft YaHei&quot;, 微软雅黑, Arial" text-anchor="middle" font-size="13px" width="80px" fill="#323232" font-weight="400" align="middle" lineHeight="125%" anchor="middle" family="&quot;Microsoft YaHei&quot;, 微软雅黑, Arial" size="13px" weight="400" font-style="" opacity="1" y="14.375" transform="rotate(0)"><tspan id="SvgjsTspan1015" dy="16.25" x="50"><tspan id="SvgjsTspan1016" style="">用户层</tspan></tspan></text></g></g><g id="SvgjsG1017"><path id="SvgjsPath1018" d="M172.5 75.75L172.5 112.5L172.5 112.5L172.5 147.3" stroke="#323232" stroke-width="1.5" fill="none" marker-end="url(#SvgjsMarker1019)"></path></g><g id="SvgjsG1021" transform="translate(124.5,150)"><path id="SvgjsPath1022" d="M 0 4Q 0 0 4 0L 92 0Q 96 0 96 4L 96 50Q 96 54 92 54L 4 54Q 0 54 0 50Z" stroke="rgba(33,41,48,1)" stroke-width="1.5" fill-opacity="1" fill="#cee2ff"></path><g id="SvgjsG1023"><text id="SvgjsText1024" font-family="&quot;Microsoft YaHei&quot;, 微软雅黑, Arial" text-anchor="middle" font-size="13px" width="76px" fill="#323232" font-weight="400" align="middle" lineHeight="125%" anchor="middle" family="&quot;Microsoft YaHei&quot;, 微软雅黑, Arial" size="13px" weight="400" font-style="" opacity="1" y="16.375" transform="rotate(0)"><tspan id="SvgjsTspan1025" dy="16.25" x="48"><tspan id="SvgjsTspan1026" style="">业务层</tspan></tspan></text></g></g><g id="SvgjsG1027"><path id="SvgjsPath1028" d="M172.5 204.75L172.5 241.5L172 241.5L172 276.3" stroke="#323232" stroke-width="1.5" fill="none" marker-end="url(#SvgjsMarker1029)"></path><rect id="SvgjsRect1031" width="39" height="18" x="152.7666325941069" y="229.14487578329852" fill="#ffffff"></rect><text id="SvgjsText1032" font-family="&quot;Microsoft YaHei&quot;, 微软雅黑, Arial" text-anchor="middle" font-size="13px" width="39px" fill="#323232" font-weight="400" align="top" lineHeight="16px" anchor="middle" family="&quot;Microsoft YaHei&quot;, 微软雅黑, Arial" size="13px" weight="400" font-style="" opacity="1" y="226.51987578329852" transform="rotate(0)"><tspan id="SvgjsTspan1033" dy="16.25" x="172.2666325941069"><tspan id="SvgjsTspan1034" style="">读请求</tspan></tspan></text></g><g id="SvgjsG1035" transform="translate(120.5,279)"><path id="SvgjsPath1036" d="M 0 35L 51.5 0L 103 35L 51.5 70Z" stroke="rgba(33,41,48,1)" stroke-width="1.5" fill-opacity="1" fill="#f8e2b9"></path><g id="SvgjsG1037"><text id="SvgjsText1038" font-family="&quot;Microsoft YaHei&quot;, 微软雅黑, Arial" text-anchor="middle" font-size="13px" width="83px" fill="#323232" font-weight="400" align="middle" lineHeight="125%" anchor="middle" family="&quot;Microsoft YaHei&quot;, 微软雅黑, Arial" size="13px" weight="400" font-style="" opacity="1" y="24.725" transform="rotate(0)"><tspan id="SvgjsTspan1039" dy="16.25" x="51.5"><tspan id="SvgjsTspan1040" style="">是否在缓存中</tspan></tspan></text></g></g><g id="SvgjsG1041"><path id="SvgjsPath1042" d="M172 349.75L172 386.5L270.25 386.5L270.25 421.3" stroke="#323232" stroke-width="1.5" fill="none" marker-end="url(#SvgjsMarker1043)"></path><rect id="SvgjsRect1045" width="13" height="18" x="213.03744588744587" y="377.5" fill="#ffffff"></rect><text id="SvgjsText1046" font-family="&quot;Microsoft YaHei&quot;, 微软雅黑, Arial" text-anchor="middle" font-size="13px" width="13px" fill="#323232" font-weight="400" align="top" lineHeight="16px" anchor="middle" family="&quot;Microsoft YaHei&quot;, 微软雅黑, Arial" size="13px" weight="400" font-style="" opacity="1" y="374.875" transform="rotate(0)"><tspan id="SvgjsTspan1047" dy="16.25" x="219.53744588744587"><tspan id="SvgjsTspan1048" style="">是</tspan></tspan></text></g><g id="SvgjsG1049" transform="translate(220.5,424)"><path id="SvgjsPath1050" d="M 0 22.5C 0 -7.5 99.5 -7.5 99.5 22.5C 99.5 52.5 0 52.5 0 22.5Z" stroke="rgba(33,41,48,1)" stroke-width="1.5" fill-opacity="1" fill="#d7e6d1"></path><g id="SvgjsG1051"><text id="SvgjsText1052" font-family="&quot;Microsoft YaHei&quot;, 微软雅黑, Arial" text-anchor="middle" font-size="13px" width="80px" fill="#323232" font-weight="400" align="middle" lineHeight="125%" anchor="middle" family="&quot;Microsoft YaHei&quot;, 微软雅黑, Arial" size="13px" weight="400" font-style="" opacity="1" y="3.375" transform="rotate(0)"><tspan id="SvgjsTspan1053" dy="16.25" x="50"><tspan id="SvgjsTspan1054" style="">缓存数据库</tspan></tspan><tspan id="SvgjsTspan1055" dy="16.25" x="50"><tspan id="SvgjsTspan1056" style="">Redis</tspan></tspan></text></g></g><g id="SvgjsG1057" transform="translate(25,424)"><path id="SvgjsPath1058" d="M 0 22.5C 0 -7.5 99.5 -7.5 99.5 22.5C 99.5 52.5 0 52.5 0 22.5Z" stroke="rgba(33,41,48,1)" stroke-width="1.5" fill-opacity="1" fill="#d7e6d1"></path><g id="SvgjsG1059"><text id="SvgjsText1060" font-family="&quot;Microsoft YaHei&quot;, 微软雅黑, Arial" text-anchor="middle" font-size="13px" width="80px" fill="#323232" font-weight="400" align="middle" lineHeight="125%" anchor="middle" family="&quot;Microsoft YaHei&quot;, 微软雅黑, Arial" size="13px" weight="400" font-style="" opacity="1" y="3.375" transform="rotate(0)"><tspan id="SvgjsTspan1061" dy="16.25" x="50"><tspan id="SvgjsTspan1062" style="">关系型数据库</tspan></tspan><tspan id="SvgjsTspan1063" dy="16.25" x="50"><tspan id="SvgjsTspan1064" style="">MySQL</tspan></tspan></text></g></g><g id="SvgjsG1065"><path id="SvgjsPath1066" d="M172 349.75L172 386.5L74.75 386.5L74.75 421.3" stroke="#323232" stroke-width="1.5" fill="none" marker-end="url(#SvgjsMarker1067)"></path><rect id="SvgjsRect1069" width="13" height="18" x="116.99252539912916" y="377.5" fill="#ffffff"></rect><text id="SvgjsText1070" font-family="&quot;Microsoft YaHei&quot;, 微软雅黑, Arial" text-anchor="middle" font-size="13px" width="13px" fill="#323232" font-weight="400" align="top" lineHeight="16px" anchor="middle" family="&quot;Microsoft YaHei&quot;, 微软雅黑, Arial" size="13px" weight="400" font-style="" opacity="1" y="374.875" transform="rotate(0)"><tspan id="SvgjsTspan1071" dy="16.25" x="123.49252539912916"><tspan id="SvgjsTspan1072" style="">否</tspan></tspan></text></g><g id="SvgjsG1073"></g></svg>