<svg id="SvgjsSvg1006" width="1086.9999999999995" height="120" xmlns="http://www.w3.org/2000/svg" version="1.1" xmlns:xlink="http://www.w3.org/1999/xlink" xmlns:svgjs="http://svgjs.com/svgjs"><defs id="SvgjsDefs1007"><pattern patternUnits="userSpaceOnUse" id="pattern_mark_0" width="300" height="300"><text x="150" y="100" fill="rgba(229,229,229,0.8)" font-size="18" transform="rotate(-45, 150, 150)" style="dominant-baseline: middle; text-anchor: middle;"></text></pattern><pattern patternUnits="userSpaceOnUse" id="pattern_mark_1" width="300" height="300"><text x="150" y="200" fill="rgba(229,229,229,0.8)" font-size="18" transform="rotate(-45, 150, 150)" style="dominant-baseline: middle; text-anchor: middle;"></text></pattern><marker id="SvgjsMarker1137" markerWidth="16" markerHeight="16" refX="11" refY="8" viewBox="0 0 16 16" orient="auto" markerUnits="userSpaceOnUse" stroke-dasharray="0,0"><path id="SvgjsPath1138" d="M0,0 L10,8 L0,16" fill="none" stroke="#323232" stroke-width="1.5"></path></marker><marker id="SvgjsMarker1141" markerWidth="16" markerHeight="16" refX="11" refY="8" viewBox="0 0 16 16" orient="auto" markerUnits="userSpaceOnUse" stroke-dasharray="0,0"><path id="SvgjsPath1142" d="M0,0 L10,8 L0,16" fill="none" stroke="#323232" stroke-width="1.5"></path></marker><marker id="SvgjsMarker1145" markerWidth="16" markerHeight="16" refX="11" refY="8" viewBox="0 0 16 16" orient="auto" markerUnits="userSpaceOnUse" stroke-dasharray="0,0"><path id="SvgjsPath1146" d="M0,0 L10,8 L0,16" fill="none" stroke="#323232" stroke-width="1.5"></path></marker><marker id="SvgjsMarker1149" markerWidth="16" markerHeight="16" refX="11" refY="8" viewBox="0 0 16 16" orient="auto" markerUnits="userSpaceOnUse" stroke-dasharray="0,0"><path id="SvgjsPath1150" d="M0,0 L10,8 L0,16" fill="none" stroke="#323232" stroke-width="1.5"></path></marker><marker id="SvgjsMarker1153" markerWidth="16" markerHeight="16" refX="11" refY="8" viewBox="0 0 16 16" orient="auto" markerUnits="userSpaceOnUse" stroke-dasharray="0,0"><path id="SvgjsPath1154" d="M0,0 L10,8 L0,16" fill="none" stroke="#323232" stroke-width="1.5"></path></marker><marker id="SvgjsMarker1157" markerWidth="16" markerHeight="16" refX="11" refY="8" viewBox="0 0 16 16" orient="auto" markerUnits="userSpaceOnUse" stroke-dasharray="0,0"><path id="SvgjsPath1158" d="M0,0 L10,8 L0,16" fill="none" stroke="#323232" stroke-width="1.5"></path></marker><marker id="SvgjsMarker1161" markerWidth="16" markerHeight="16" refX="11" refY="8" viewBox="0 0 16 16" orient="auto" markerUnits="userSpaceOnUse" stroke-dasharray="0,0"><path id="SvgjsPath1162" d="M0,0 L10,8 L0,16" fill="none" stroke="#323232" stroke-width="1.5"></path></marker><marker id="SvgjsMarker1165" markerWidth="16" markerHeight="16" refX="11" refY="8" viewBox="0 0 16 16" orient="auto" markerUnits="userSpaceOnUse" stroke-dasharray="0,0"><path id="SvgjsPath1166" d="M0,0 L10,8 L0,16" fill="none" stroke="#323232" stroke-width="1.5"></path></marker><marker id="SvgjsMarker1169" markerWidth="16" markerHeight="16" refX="11" refY="8" viewBox="0 0 16 16" orient="auto" markerUnits="userSpaceOnUse" stroke-dasharray="0,0"><path id="SvgjsPath1170" d="M0,0 L10,8 L0,16" fill="none" stroke="#323232" stroke-width="1.5"></path></marker><marker id="SvgjsMarker1173" markerWidth="16" markerHeight="16" refX="11" refY="8" viewBox="0 0 16 16" orient="auto" markerUnits="userSpaceOnUse" stroke-dasharray="0,0"><path id="SvgjsPath1174" d="M0,0 L10,8 L0,16" fill="none" stroke="#323232" stroke-width="1.5"></path></marker><marker id="SvgjsMarker1177" markerWidth="16" markerHeight="16" refX="11" refY="8" viewBox="0 0 16 16" orient="auto" markerUnits="userSpaceOnUse" stroke-dasharray="0,0"><path id="SvgjsPath1178" d="M0,0 L10,8 L0,16" fill="none" stroke="#323232" stroke-width="1.5"></path></marker></defs><rect id="svgbackgroundid" width="1086.9999999999995" height="120" fill="transparent"></rect><rect id="SvgjsRect1009" width="1086.9999999999995" height="120" fill="url(#pattern_mark_0)"></rect><rect id="SvgjsRect1010" width="1086.9999999999995" height="120" fill="url(#pattern_mark_1)"></rect><g id="SvgjsG1011" transform="translate(144,50)"><path id="SvgjsPath1012" d="M 0 4Q 0 0 4 0L 36 0Q 40 0 40 4L 40 16Q 40 20 36 20L 4 20Q 0 20 0 16Z" stroke="none" fill-opacity="1" fill="#f3b21c"></path><g id="SvgjsG1013"><text id="SvgjsText1014" font-family="&quot;Comic Sans MS&quot;" text-anchor="middle" font-size="13px" width="20px" fill="#323232" font-weight="700" align="middle" lineHeight="125%" anchor="middle" family="&quot;Comic Sans MS&quot;" size="13px" weight="700" font-style="" opacity="1" y="-0.625" transform="rotate(0)"></text></g></g><g id="SvgjsG1015" transform="translate(128,50)"><path id="SvgjsPath1016" d="M 0 4Q 0 0 4 0L 36 0Q 40 0 40 4L 40 16Q 40 20 36 20L 4 20Q 0 20 0 16Z" stroke="none" fill-opacity="1" fill="#ef6b06"></path><g id="SvgjsG1017"><text id="SvgjsText1018" font-family="&quot;Comic Sans MS&quot;" text-anchor="middle" font-size="13px" width="20px" fill="#323232" font-weight="700" align="middle" lineHeight="125%" anchor="middle" family="&quot;Comic Sans MS&quot;" size="13px" weight="700" font-style="" opacity="1" y="-0.625" transform="rotate(0)"><tspan id="SvgjsTspan1019" dy="16.25" x="20"><tspan id="SvgjsTspan1020" style="">1</tspan></tspan></text></g></g><g id="SvgjsG1021" transform="translate(223.8181818181818,50)"><path id="SvgjsPath1022" d="M 0 4Q 0 0 4 0L 36 0Q 40 0 40 4L 40 16Q 40 20 36 20L 4 20Q 0 20 0 16Z" stroke="none" fill-opacity="1" fill="#f3b21c"></path><g id="SvgjsG1023"><text id="SvgjsText1024" font-family="&quot;Comic Sans MS&quot;" text-anchor="middle" font-size="13px" width="20px" fill="#323232" font-weight="700" align="middle" lineHeight="125%" anchor="middle" family="&quot;Comic Sans MS&quot;" size="13px" weight="700" font-style="" opacity="1" y="-0.625" transform="rotate(0)"></text></g></g><g id="SvgjsG1025" transform="translate(207.8181818181818,50)"><path id="SvgjsPath1026" d="M 0 4Q 0 0 4 0L 36 0Q 40 0 40 4L 40 16Q 40 20 36 20L 4 20Q 0 20 0 16Z" stroke="none" fill-opacity="1" fill="#ef6b06"></path><g id="SvgjsG1027"><text id="SvgjsText1028" font-family="&quot;Comic Sans MS&quot;" text-anchor="middle" font-size="13px" width="20px" fill="#323232" font-weight="700" align="middle" lineHeight="125%" anchor="middle" family="&quot;Comic Sans MS&quot;" size="13px" weight="700" font-style="" opacity="1" y="-0.625" transform="rotate(0)"><tspan id="SvgjsTspan1029" dy="16.25" x="20"><tspan id="SvgjsTspan1030" style="">3</tspan></tspan></text></g></g><g id="SvgjsG1031" transform="translate(303.6363636363636,50)"><path id="SvgjsPath1032" d="M 0 4Q 0 0 4 0L 36 0Q 40 0 40 4L 40 16Q 40 20 36 20L 4 20Q 0 20 0 16Z" stroke="none" fill-opacity="1" fill="#f3b21c"></path><g id="SvgjsG1033"><text id="SvgjsText1034" font-family="&quot;Comic Sans MS&quot;" text-anchor="middle" font-size="13px" width="20px" fill="#323232" font-weight="700" align="middle" lineHeight="125%" anchor="middle" family="&quot;Comic Sans MS&quot;" size="13px" weight="700" font-style="" opacity="1" y="-0.625" transform="rotate(0)"></text></g></g><g id="SvgjsG1035" transform="translate(287.6363636363636,50)"><path id="SvgjsPath1036" d="M 0 4Q 0 0 4 0L 36 0Q 40 0 40 4L 40 16Q 40 20 36 20L 4 20Q 0 20 0 16Z" stroke="none" fill-opacity="1" fill="#ef6b06"></path><g id="SvgjsG1037"><text id="SvgjsText1038" font-family="&quot;Comic Sans MS&quot;" text-anchor="middle" font-size="13px" width="20px" fill="#323232" font-weight="700" align="middle" lineHeight="125%" anchor="middle" family="&quot;Comic Sans MS&quot;" size="13px" weight="700" font-style="" opacity="1" y="-0.625" transform="rotate(0)"><tspan id="SvgjsTspan1039" dy="16.25" x="20"><tspan id="SvgjsTspan1040" style="">4</tspan></tspan></text></g></g><g id="SvgjsG1041" transform="translate(383.45454545454544,50)"><path id="SvgjsPath1042" d="M 0 4Q 0 0 4 0L 36 0Q 40 0 40 4L 40 16Q 40 20 36 20L 4 20Q 0 20 0 16Z" stroke="none" fill-opacity="1" fill="#f3b21c"></path><g id="SvgjsG1043"><text id="SvgjsText1044" font-family="&quot;Comic Sans MS&quot;" text-anchor="middle" font-size="13px" width="20px" fill="#323232" font-weight="700" align="middle" lineHeight="125%" anchor="middle" family="&quot;Comic Sans MS&quot;" size="13px" weight="700" font-style="" opacity="1" y="-0.625" transform="rotate(0)"></text></g></g><g id="SvgjsG1045" transform="translate(367.45454545454544,50)"><path id="SvgjsPath1046" d="M 0 4Q 0 0 4 0L 36 0Q 40 0 40 4L 40 16Q 40 20 36 20L 4 20Q 0 20 0 16Z" stroke="none" fill-opacity="1" fill="#ef6b06"></path><g id="SvgjsG1047"><text id="SvgjsText1048" font-family="&quot;Comic Sans MS&quot;" text-anchor="middle" font-size="13px" width="20px" fill="#323232" font-weight="700" align="middle" lineHeight="125%" anchor="middle" family="&quot;Comic Sans MS&quot;" size="13px" weight="700" font-style="" opacity="1" y="-0.625" transform="rotate(0)"><tspan id="SvgjsTspan1049" dy="16.25" x="20"><tspan id="SvgjsTspan1050" style="">5</tspan></tspan></text></g></g><g id="SvgjsG1051" transform="translate(463.27272727272725,50)"><path id="SvgjsPath1052" d="M 0 4Q 0 0 4 0L 36 0Q 40 0 40 4L 40 16Q 40 20 36 20L 4 20Q 0 20 0 16Z" stroke="none" fill-opacity="1" fill="#f3b21c"></path><g id="SvgjsG1053"><text id="SvgjsText1054" font-family="&quot;Comic Sans MS&quot;" text-anchor="middle" font-size="13px" width="20px" fill="#323232" font-weight="700" align="middle" lineHeight="125%" anchor="middle" family="&quot;Comic Sans MS&quot;" size="13px" weight="700" font-style="" opacity="1" y="-0.625" transform="rotate(0)"></text></g></g><g id="SvgjsG1055" transform="translate(447.27272727272725,50)"><path id="SvgjsPath1056" d="M 0 4Q 0 0 4 0L 36 0Q 40 0 40 4L 40 16Q 40 20 36 20L 4 20Q 0 20 0 16Z" stroke="none" fill-opacity="1" fill="#ef6b06"></path><g id="SvgjsG1057"><text id="SvgjsText1058" font-family="&quot;Comic Sans MS&quot;" text-anchor="middle" font-size="13px" width="20px" fill="#323232" font-weight="700" align="middle" lineHeight="125%" anchor="middle" family="&quot;Comic Sans MS&quot;" size="13px" weight="700" font-style="" opacity="1" y="-0.625" transform="rotate(0)"><tspan id="SvgjsTspan1059" dy="16.25" x="20"><tspan id="SvgjsTspan1060" style="">7</tspan></tspan></text></g></g><g id="SvgjsG1061" transform="translate(1021.9999999999995,50)"><path id="SvgjsPath1062" d="M 0 4Q 0 0 4 0L 36 0Q 40 0 40 4L 40 16Q 40 20 36 20L 4 20Q 0 20 0 16Z" stroke="none" fill-opacity="1" fill="#f3b21c"></path><g id="SvgjsG1063"><text id="SvgjsText1064" font-family="&quot;Comic Sans MS&quot;" text-anchor="middle" font-size="12px" width="20px" fill="#323232" font-weight="700" align="middle" lineHeight="125%" anchor="middle" family="&quot;Comic Sans MS&quot;" size="12px" weight="700" font-style="" opacity="1" y="-7.5" transform="rotate(0)"><tspan id="SvgjsTspan1065" dy="15" x="20"><tspan id="SvgjsTspan1066" style="">    </tspan></tspan><tspan id="SvgjsTspan1067" dy="15" x="20"><tspan id="SvgjsTspan1068" style="">•</tspan></tspan></text></g></g><g id="SvgjsG1069" transform="translate(1005.9999999999995,50)"><path id="SvgjsPath1070" d="M 0 4Q 0 0 4 0L 36 0Q 40 0 40 4L 40 16Q 40 20 36 20L 4 20Q 0 20 0 16Z" stroke="none" fill-opacity="1" fill="#ef6b06"></path><g id="SvgjsG1071"><text id="SvgjsText1072" font-family="&quot;Comic Sans MS&quot;" text-anchor="middle" font-size="12px" width="20px" fill="#323232" font-weight="700" align="middle" lineHeight="125%" anchor="middle" family="&quot;Comic Sans MS&quot;" size="12px" weight="700" font-style="" opacity="1" y="0" transform="rotate(0)"><tspan id="SvgjsTspan1073" dy="15" x="20"><tspan id="SvgjsTspan1074" style="">18</tspan></tspan></text></g></g><g id="SvgjsG1075" transform="translate(543.090909090909,50)"><path id="SvgjsPath1076" d="M 0 4Q 0 0 4 0L 36 0Q 40 0 40 4L 40 16Q 40 20 36 20L 4 20Q 0 20 0 16Z" stroke="none" fill-opacity="1" fill="#f3b21c"></path><g id="SvgjsG1077"><text id="SvgjsText1078" font-family="&quot;Comic Sans MS&quot;" text-anchor="middle" font-size="13px" width="20px" fill="#323232" font-weight="700" align="middle" lineHeight="125%" anchor="middle" family="&quot;Comic Sans MS&quot;" size="13px" weight="700" font-style="" opacity="1" y="-0.625" transform="rotate(0)"></text></g></g><g id="SvgjsG1079" transform="translate(527.090909090909,50)"><path id="SvgjsPath1080" d="M 0 4Q 0 0 4 0L 36 0Q 40 0 40 4L 40 16Q 40 20 36 20L 4 20Q 0 20 0 16Z" stroke="none" fill-opacity="1" fill="#ef6b06"></path><g id="SvgjsG1081"><text id="SvgjsText1082" font-family="&quot;Comic Sans MS&quot;" text-anchor="middle" font-size="13px" width="20px" fill="#323232" font-weight="700" align="middle" lineHeight="125%" anchor="middle" family="&quot;Comic Sans MS&quot;" size="13px" weight="700" font-style="" opacity="1" y="-0.625" transform="rotate(0)"><tspan id="SvgjsTspan1083" dy="16.25" x="20"><tspan id="SvgjsTspan1084" style="">8</tspan></tspan></text></g></g><g id="SvgjsG1085" transform="translate(622.9090909090908,50)"><path id="SvgjsPath1086" d="M 0 4Q 0 0 4 0L 36 0Q 40 0 40 4L 40 16Q 40 20 36 20L 4 20Q 0 20 0 16Z" stroke="none" fill-opacity="1" fill="#f3b21c"></path><g id="SvgjsG1087"><text id="SvgjsText1088" font-family="&quot;Comic Sans MS&quot;" text-anchor="middle" font-size="13px" width="20px" fill="#323232" font-weight="700" align="middle" lineHeight="125%" anchor="middle" family="&quot;Comic Sans MS&quot;" size="13px" weight="700" font-style="" opacity="1" y="-0.625" transform="rotate(0)"></text></g></g><g id="SvgjsG1089" transform="translate(606.9090909090908,50)"><path id="SvgjsPath1090" d="M 0 4Q 0 0 4 0L 36 0Q 40 0 40 4L 40 16Q 40 20 36 20L 4 20Q 0 20 0 16Z" stroke="none" fill-opacity="1" fill="#ef6b06"></path><g id="SvgjsG1091"><text id="SvgjsText1092" font-family="&quot;Comic Sans MS&quot;" text-anchor="middle" font-size="13px" width="20px" fill="#323232" font-weight="700" align="middle" lineHeight="125%" anchor="middle" family="&quot;Comic Sans MS&quot;" size="13px" weight="700" font-style="" opacity="1" y="-0.625" transform="rotate(0)"><tspan id="SvgjsTspan1093" dy="16.25" x="20"><tspan id="SvgjsTspan1094" style="">9</tspan></tspan></text></g></g><g id="SvgjsG1095" transform="translate(702.7272727272725,50)"><path id="SvgjsPath1096" d="M 0 4Q 0 0 4 0L 36 0Q 40 0 40 4L 40 16Q 40 20 36 20L 4 20Q 0 20 0 16Z" stroke="none" fill-opacity="1" fill="#f3b21c"></path><g id="SvgjsG1097"><text id="SvgjsText1098" font-family="&quot;Comic Sans MS&quot;" text-anchor="middle" font-size="13px" width="20px" fill="#323232" font-weight="700" align="middle" lineHeight="125%" anchor="middle" family="&quot;Comic Sans MS&quot;" size="13px" weight="700" font-style="" opacity="1" y="-0.625" transform="rotate(0)"></text></g></g><g id="SvgjsG1099" transform="translate(686.7272727272725,50)"><path id="SvgjsPath1100" d="M 0 4Q 0 0 4 0L 36 0Q 40 0 40 4L 40 16Q 40 20 36 20L 4 20Q 0 20 0 16Z" stroke="none" fill-opacity="1" fill="#ef6b06"></path><g id="SvgjsG1101"><text id="SvgjsText1102" font-family="&quot;Comic Sans MS&quot;" text-anchor="middle" font-size="13px" width="20px" fill="#323232" font-weight="700" align="middle" lineHeight="125%" anchor="middle" family="&quot;Comic Sans MS&quot;" size="13px" weight="700" font-style="" opacity="1" y="-0.625" transform="rotate(0)"><tspan id="SvgjsTspan1103" dy="16.25" x="20"><tspan id="SvgjsTspan1104" style="">10</tspan></tspan></text></g></g><g id="SvgjsG1105" transform="translate(782.5454545454543,50)"><path id="SvgjsPath1106" d="M 0 4Q 0 0 4 0L 36 0Q 40 0 40 4L 40 16Q 40 20 36 20L 4 20Q 0 20 0 16Z" stroke="none" fill-opacity="1" fill="#f3b21c"></path><g id="SvgjsG1107"><text id="SvgjsText1108" font-family="&quot;Comic Sans MS&quot;" text-anchor="middle" font-size="13px" width="20px" fill="#323232" font-weight="700" align="middle" lineHeight="125%" anchor="middle" family="&quot;Comic Sans MS&quot;" size="13px" weight="700" font-style="" opacity="1" y="-0.625" transform="rotate(0)"></text></g></g><g id="SvgjsG1109" transform="translate(766.5454545454543,50)"><path id="SvgjsPath1110" d="M 0 4Q 0 0 4 0L 36 0Q 40 0 40 4L 40 16Q 40 20 36 20L 4 20Q 0 20 0 16Z" stroke="none" fill-opacity="1" fill="#ef6b06"></path><g id="SvgjsG1111"><text id="SvgjsText1112" font-family="&quot;Comic Sans MS&quot;" text-anchor="middle" font-size="13px" width="20px" fill="#323232" font-weight="700" align="middle" lineHeight="125%" anchor="middle" family="&quot;Comic Sans MS&quot;" size="13px" weight="700" font-style="" opacity="1" y="-0.625" transform="rotate(0)"><tspan id="SvgjsTspan1113" dy="16.25" x="20"><tspan id="SvgjsTspan1114" style="">13</tspan></tspan></text></g></g><g id="SvgjsG1115" transform="translate(862.363636363636,50)"><path id="SvgjsPath1116" d="M 0 4Q 0 0 4 0L 36 0Q 40 0 40 4L 40 16Q 40 20 36 20L 4 20Q 0 20 0 16Z" stroke="none" fill-opacity="1" fill="#f3b21c"></path><g id="SvgjsG1117"><text id="SvgjsText1118" font-family="&quot;Comic Sans MS&quot;" text-anchor="middle" font-size="13px" width="20px" fill="#323232" font-weight="700" align="middle" lineHeight="125%" anchor="middle" family="&quot;Comic Sans MS&quot;" size="13px" weight="700" font-style="" opacity="1" y="-0.625" transform="rotate(0)"></text></g></g><g id="SvgjsG1119" transform="translate(846.363636363636,50)"><path id="SvgjsPath1120" d="M 0 4Q 0 0 4 0L 36 0Q 40 0 40 4L 40 16Q 40 20 36 20L 4 20Q 0 20 0 16Z" stroke="none" fill-opacity="1" fill="#ef6b06"></path><g id="SvgjsG1121"><text id="SvgjsText1122" font-family="&quot;Comic Sans MS&quot;" text-anchor="middle" font-size="13px" width="20px" fill="#323232" font-weight="700" align="middle" lineHeight="125%" anchor="middle" family="&quot;Comic Sans MS&quot;" size="13px" weight="700" font-style="" opacity="1" y="-0.625" transform="rotate(0)"><tspan id="SvgjsTspan1123" dy="16.25" x="20"><tspan id="SvgjsTspan1124" style="">16</tspan></tspan></text></g></g><g id="SvgjsG1125" transform="translate(942.1818181818178,50)"><path id="SvgjsPath1126" d="M 0 4Q 0 0 4 0L 36 0Q 40 0 40 4L 40 16Q 40 20 36 20L 4 20Q 0 20 0 16Z" stroke="none" fill-opacity="1" fill="#f3b21c"></path><g id="SvgjsG1127"><text id="SvgjsText1128" font-family="&quot;Comic Sans MS&quot;" text-anchor="middle" font-size="13px" width="20px" fill="#323232" font-weight="700" align="middle" lineHeight="125%" anchor="middle" family="&quot;Comic Sans MS&quot;" size="13px" weight="700" font-style="" opacity="1" y="-0.625" transform="rotate(0)"></text></g></g><g id="SvgjsG1129" transform="translate(926.1818181818178,50)"><path id="SvgjsPath1130" d="M 0 4Q 0 0 4 0L 36 0Q 40 0 40 4L 40 16Q 40 20 36 20L 4 20Q 0 20 0 16Z" stroke="none" fill-opacity="1" fill="#ef6b06"></path><g id="SvgjsG1131"><text id="SvgjsText1132" font-family="&quot;Comic Sans MS&quot;" text-anchor="middle" font-size="13px" width="20px" fill="#323232" font-weight="700" align="middle" lineHeight="125%" anchor="middle" family="&quot;Comic Sans MS&quot;" size="13px" weight="700" font-style="" opacity="1" y="-0.625" transform="rotate(0)"><tspan id="SvgjsTspan1133" dy="16.25" x="20"><tspan id="SvgjsTspan1134" style="">17</tspan></tspan></text></g></g><g id="SvgjsG1135"><path id="SvgjsPath1136" d="M168 60L187.9090909090909 60L187.9090909090909 60L207.0681818181818 60" stroke="#323232" stroke-width="1.5" fill="none" marker-end="url(#SvgjsMarker1137)"></path></g><g id="SvgjsG1139"><path id="SvgjsPath1140" d="M247.8181818181818 60L267.72727272727275 60L267.72727272727275 60L286.8863636363636 60" stroke="#323232" stroke-width="1.5" fill="none" marker-end="url(#SvgjsMarker1141)"></path></g><g id="SvgjsG1143"><path id="SvgjsPath1144" d="M327.6363636363636 60L347.5454545454545 60L347.5454545454545 60L366.70454545454544 60" stroke="#323232" stroke-width="1.5" fill="none" marker-end="url(#SvgjsMarker1145)"></path></g><g id="SvgjsG1147"><path id="SvgjsPath1148" d="M407.45454545454544 60L427.3636363636364 60L427.3636363636364 60L446.52272727272725 60" stroke="#323232" stroke-width="1.5" fill="none" marker-end="url(#SvgjsMarker1149)"></path></g><g id="SvgjsG1151"><path id="SvgjsPath1152" d="M487.27272727272725 60L507.18181818181813 60L507.18181818181813 60L526.340909090909 60" stroke="#323232" stroke-width="1.5" fill="none" marker-end="url(#SvgjsMarker1153)"></path></g><g id="SvgjsG1155"><path id="SvgjsPath1156" d="M567.090909090909 60L586.9999999999999 60L586.9999999999999 60L606.1590909090908 60" stroke="#323232" stroke-width="1.5" fill="none" marker-end="url(#SvgjsMarker1157)"></path></g><g id="SvgjsG1159"><path id="SvgjsPath1160" d="M646.9090909090908 60L666.8181818181816 60L666.8181818181816 60L685.9772727272725 60" stroke="#323232" stroke-width="1.5" fill="none" marker-end="url(#SvgjsMarker1161)"></path></g><g id="SvgjsG1163"><path id="SvgjsPath1164" d="M726.7272727272725 60L746.6363636363634 60L746.6363636363634 60L765.7954545454543 60" stroke="#323232" stroke-width="1.5" fill="none" marker-end="url(#SvgjsMarker1165)"></path></g><g id="SvgjsG1167"><path id="SvgjsPath1168" d="M806.5454545454543 60L826.4545454545452 60L826.4545454545452 60L845.613636363636 60" stroke="#323232" stroke-width="1.5" fill="none" marker-end="url(#SvgjsMarker1169)"></path></g><g id="SvgjsG1171"><path id="SvgjsPath1172" d="M886.363636363636 60L906.2727272727269 60L906.2727272727269 60L925.4318181818178 60" stroke="#323232" stroke-width="1.5" fill="none" marker-end="url(#SvgjsMarker1173)"></path></g><g id="SvgjsG1175"><path id="SvgjsPath1176" d="M966.1818181818178 60L986.0909090909087 60L986.0909090909087 60L1005.2499999999995 60" stroke="#323232" stroke-width="1.5" fill="none" marker-end="url(#SvgjsMarker1177)"></path></g><g id="SvgjsG1179" transform="translate(25,25)"><path id="SvgjsPath1180" d="M 10.799999999999999 49C -9 35 3.6 24.5 8.1 21C 6.300000000000001 3.5 28.8 0 37.8 7C 45 -3.5 67.5 0 67.5 10.5C 85.5 7 92.7 21 85.5 38.5C 91.8 52.5 85.5 70 64.8 63C 60.300000000000004 72.10000000000001 42.3 72.10000000000001 37.8 63C 28.8 70 10.799999999999999 66.5 10.799999999999999 49Z" stroke="none" fill-opacity="1" fill="#b9b5ac"></path><g id="SvgjsG1181"><text id="SvgjsText1182" font-family="苍耳与墨" text-anchor="middle" font-size="20px" width="70px" fill="#000000" font-weight="400" align="middle" lineHeight="125%" anchor="middle" family="苍耳与墨" size="20px" weight="400" font-style="" opacity="1" y="4.5" transform="rotate(0)"><tspan id="SvgjsTspan1183" dy="25" x="45"><tspan id="SvgjsTspan1184" style="">原始</tspan></tspan><tspan id="SvgjsTspan1185" dy="25" x="45"><tspan id="SvgjsTspan1186" style="">链表</tspan></tspan></text></g></g></svg>