<svg id="SvgjsSvg1006" width="606.25" height="488.5" xmlns="http://www.w3.org/2000/svg" version="1.1" xmlns:xlink="http://www.w3.org/1999/xlink" xmlns:svgjs="http://svgjs.com/svgjs"><defs id="SvgjsDefs1007"><pattern patternUnits="userSpaceOnUse" id="pattern_mark_0" width="300" height="300"><text x="150" y="100" fill="rgba(229,229,229,0.8)" font-size="18" transform="rotate(-45, 150, 150)" style="dominant-baseline: middle; text-anchor: middle;"></text></pattern><pattern patternUnits="userSpaceOnUse" id="pattern_mark_1" width="300" height="300"><text x="150" y="200" fill="rgba(229,229,229,0.8)" font-size="18" transform="rotate(-45, 150, 150)" style="dominant-baseline: middle; text-anchor: middle;"></text></pattern></defs><rect id="svgbackgroundid" width="606.25" height="488.5" fill="transparent"></rect><rect id="SvgjsRect1009" width="606.25" height="488.5" fill="url(#pattern_mark_0)"></rect><rect id="SvgjsRect1010" width="606.25" height="488.5" fill="url(#pattern_mark_1)"></rect><g id="SvgjsG1011" transform="translate(26.25,187)"><path id="SvgjsPath1012" d="M 0 4Q 0 0 4 0L 494 0Q 498 0 498 4L 498 164Q 498 168 494 168L 4 168Q 0 168 0 164Z" stroke="none" fill-opacity="1" fill="#f9d7ce"></path><g id="SvgjsG1013"><text id="SvgjsText1014" font-family="&quot;Microsoft YaHei&quot;, 微软雅黑, Arial" text-anchor="middle" font-size="13px" width="478px" fill="#cf5d4e" font-weight="400" align="middle" lineHeight="125%" anchor="middle" family="&quot;Microsoft YaHei&quot;, 微软雅黑, Arial" size="13px" weight="400" font-style="" opacity="1" y="-0.125" transform="rotate(0)"><tspan id="SvgjsTspan1015" dy="16.25" x="249"><tspan id="SvgjsTspan1016" style="">运行时数据区(Runtime Data Area)</tspan></tspan><tspan id="SvgjsTspan1017" dy="16.25" x="249"><tspan id="SvgjsTspan1018" style=""> </tspan></tspan><tspan id="SvgjsTspan1019" dy="16.25" x="249"><tspan id="SvgjsTspan1020" style=""> </tspan></tspan><tspan id="SvgjsTspan1021" dy="16.25" x="249"><tspan id="SvgjsTspan1022" style=""> </tspan></tspan><tspan id="SvgjsTspan1023" dy="16.25" x="249"><tspan id="SvgjsTspan1024" style=""> </tspan></tspan><tspan id="SvgjsTspan1025" dy="16.25" x="249"><tspan id="SvgjsTspan1026" style=""> </tspan></tspan><tspan id="SvgjsTspan1027" dy="16.25" x="249"><tspan id="SvgjsTspan1028" style=""> </tspan></tspan><tspan id="SvgjsTspan1029" dy="16.25" x="249"><tspan id="SvgjsTspan1030" style=""> </tspan></tspan><tspan id="SvgjsTspan1031" dy="16.25" x="249"><tspan id="SvgjsTspan1032" style=""> </tspan></tspan><tspan id="SvgjsTspan1033" dy="16.25" x="249"><tspan id="SvgjsTspan1034" style=""> </tspan></tspan></text></g></g><g id="SvgjsG1035" transform="translate(171.25,79.5)"><path id="SvgjsPath1036" d="M 0 51L 0 0L 48 0L 48 51Q 36 43 24 51Q 12 59 0 51Z" stroke="rgba(138,118,170,1)" stroke-width="1.5" fill-opacity="1" fill="#ffffff"></path><g id="SvgjsG1037"><text id="SvgjsText1038" font-family="&quot;Microsoft YaHei&quot;, 微软雅黑, Arial" text-anchor="middle" font-size="13px" width="48px" fill="#323232" font-weight="400" align="middle" lineHeight="125%" anchor="middle" family="&quot;Microsoft YaHei&quot;, 微软雅黑, Arial" size="13px" weight="400" font-style="" opacity="1" y="14.125" transform="rotate(0)"></text></g></g><g id="SvgjsG1039" transform="translate(167.25,83.5)"><path id="SvgjsPath1040" d="M 0 51L 0 0L 48 0L 48 51Q 36 43 24 51Q 12 59 0 51Z" stroke="rgba(138,118,170,1)" stroke-width="1.5" fill-opacity="1" fill="#ffffff"></path><g id="SvgjsG1041"><text id="SvgjsText1042" font-family="&quot;Microsoft YaHei&quot;, 微软雅黑, Arial" text-anchor="middle" font-size="13px" width="48px" fill="#323232" font-weight="400" align="middle" lineHeight="125%" anchor="middle" family="&quot;Microsoft YaHei&quot;, 微软雅黑, Arial" size="13px" weight="400" font-style="" opacity="1" y="14.125" transform="rotate(0)"></text></g></g><g id="SvgjsG1043" transform="translate(162.25,88.5)"><path id="SvgjsPath1044" d="M 0 51L 0 0L 48 0L 48 51Q 36 43 24 51Q 12 59 0 51Z" stroke="rgba(138,118,170,1)" stroke-width="1.5" fill-opacity="1" fill="#ffffff"></path><g id="SvgjsG1045"><text id="SvgjsText1046" font-family="&quot;Microsoft YaHei&quot;, 微软雅黑, Arial" text-anchor="middle" font-size="13px" width="48px" fill="#323232" font-weight="400" align="middle" lineHeight="125%" anchor="middle" family="&quot;Microsoft YaHei&quot;, 微软雅黑, Arial" size="13px" weight="400" font-style="" opacity="1" y="14.125" transform="rotate(0)"></text></g></g><g id="SvgjsG1047" transform="translate(140.75,47.5)"><path id="SvgjsPath1048" d="M 0 0L 100 0L 100 40L 0 40Z" stroke="none" fill="none"></path><g id="SvgjsG1049"><text id="SvgjsText1050" font-family="&quot;Microsoft YaHei&quot;, 微软雅黑, Arial" text-anchor="middle" font-size="13px" width="100px" fill="#323232" font-weight="400" align="middle" lineHeight="125%" anchor="middle" family="&quot;Microsoft YaHei&quot;, 微软雅黑, Arial" size="13px" weight="400" font-style="" opacity="1" y="9.375" transform="rotate(0)"><tspan id="SvgjsTspan1051" dy="16.25" x="50"><tspan id="SvgjsTspan1052" style="">Class files</tspan></tspan></text></g></g><g id="SvgjsG1053" transform="translate(292.25,78.5)"><path id="SvgjsPath1054" d="M 0 4Q 0 0 4 0L 146 0Q 150 0 150 4L 150 46Q 150 50 146 50L 4 50Q 0 50 0 46Z" stroke="none" fill-opacity="1" fill="#f9f630"></path><g id="SvgjsG1055"><text id="SvgjsText1056" font-family="&quot;Microsoft YaHei&quot;, 微软雅黑, Arial" text-anchor="middle" font-size="13px" width="130px" fill="#000000" font-weight="400" align="middle" lineHeight="125%" anchor="middle" family="&quot;Microsoft YaHei&quot;, 微软雅黑, Arial" size="13px" weight="400" font-style="" opacity="1" y="5.875" transform="rotate(0)"><tspan id="SvgjsTspan1057" dy="16.25" x="75"><tspan id="SvgjsTspan1058" style="">类装载器子系统</tspan></tspan><tspan id="SvgjsTspan1059" dy="16.25" x="75"><tspan id="SvgjsTspan1060" style="">Class loader</tspan></tspan></text></g></g><g id="SvgjsG1061" transform="translate(37,413.5)"><path id="SvgjsPath1062" d="M 0 4Q 0 0 4 0L 125.5 0Q 129.5 0 129.5 4L 129.5 46Q 129.5 50 125.5 50L 4 50Q 0 50 0 46Z" stroke="none" fill-opacity="1" fill="#f45dff"></path><g id="SvgjsG1063"><text id="SvgjsText1064" font-family="&quot;Microsoft YaHei&quot;, 微软雅黑, Arial" text-anchor="middle" font-size="13px" width="110px" fill="#ffffff" font-weight="400" align="middle" lineHeight="125%" anchor="middle" family="&quot;Microsoft YaHei&quot;, 微软雅黑, Arial" size="13px" weight="400" font-style="" opacity="1" y="5.875" transform="rotate(0)"><tspan id="SvgjsTspan1065" dy="16.25" x="65"><tspan id="SvgjsTspan1066" style="">执行引擎</tspan></tspan><tspan id="SvgjsTspan1067" dy="16.25" x="65"><tspan id="SvgjsTspan1068" style="">Execution Engine</tspan></tspan></text></g></g><g id="SvgjsG1069" transform="translate(270.75,413.5)"><path id="SvgjsPath1070" d="M 0 4Q 0 0 4 0L 146 0Q 150 0 150 4L 150 46Q 150 50 146 50L 4 50Q 0 50 0 46Z" stroke-dasharray="7.5,3" stroke="rgba(87,131,165,1)" stroke-width="1.5" fill-opacity="1" fill="#ffffff"></path><g id="SvgjsG1071"><text id="SvgjsText1072" font-family="&quot;Microsoft YaHei&quot;, 微软雅黑, Arial" text-anchor="middle" font-size="13px" width="130px" fill="#000000" font-weight="400" align="middle" lineHeight="125%" anchor="middle" family="&quot;Microsoft YaHei&quot;, 微软雅黑, Arial" size="13px" weight="400" font-style="" opacity="1" y="5.875" transform="rotate(0)"><tspan id="SvgjsTspan1073" dy="16.25" x="75"><tspan id="SvgjsTspan1074" style="">本地方法接口</tspan></tspan><tspan id="SvgjsTspan1075" dy="16.25" x="75"><tspan id="SvgjsTspan1076" style="">Native Interface</tspan></tspan></text></g></g><g id="SvgjsG1077" transform="translate(53.75,209)"><path id="SvgjsPath1078" d="M 0 0L 96 0L 96 54L 0 54Z" stroke="none" fill-opacity="1" fill="#ef5135"></path><g id="SvgjsG1079"><text id="SvgjsText1080" font-family="&quot;Microsoft YaHei&quot;, 微软雅黑, Arial" text-anchor="middle" font-size="13px" width="76px" fill="#323232" font-weight="400" align="middle" lineHeight="125%" anchor="middle" family="&quot;Microsoft YaHei&quot;, 微软雅黑, Arial" size="13px" weight="400" font-style="" opacity="1" y="7.875" transform="rotate(0)"><tspan id="SvgjsTspan1081" dy="16.25" x="48"><tspan id="SvgjsTspan1082" style="">方法区</tspan></tspan><tspan id="SvgjsTspan1083" dy="16.25" x="48"><tspan id="SvgjsTspan1084" style="">Method Area</tspan></tspan></text></g></g><g id="SvgjsG1085" transform="translate(53.75,282.75)"><path id="SvgjsPath1086" d="M 0 0L 96 0L 96 54L 0 54Z" stroke="none" fill-opacity="1" fill="#ef5135"></path><g id="SvgjsG1087"><text id="SvgjsText1088" font-family="&quot;Microsoft YaHei&quot;, 微软雅黑, Arial" text-anchor="middle" font-size="13px" width="76px" fill="#323232" font-weight="400" align="middle" lineHeight="125%" anchor="middle" family="&quot;Microsoft YaHei&quot;, 微软雅黑, Arial" size="13px" weight="400" font-style="" opacity="1" y="7.875" transform="rotate(0)"><tspan id="SvgjsTspan1089" dy="16.25" x="48"><tspan id="SvgjsTspan1090" style="">堆</tspan></tspan><tspan id="SvgjsTspan1091" dy="16.25" x="48"><tspan id="SvgjsTspan1092" style="">heap</tspan></tspan></text></g></g><g id="SvgjsG1093" transform="translate(169.25,209)"><path id="SvgjsPath1094" d="M 0 0L 177 0L 177 54L 0 54Z" stroke="rgba(33,41,48,1)" stroke-width="1.5" fill-opacity="1" fill="#d2d5d2"></path><g id="SvgjsG1095"><text id="SvgjsText1096" font-family="&quot;Microsoft YaHei&quot;, 微软雅黑, Arial" text-anchor="middle" font-size="13px" width="157px" fill="#323232" font-weight="400" align="middle" lineHeight="125%" anchor="middle" family="&quot;Microsoft YaHei&quot;, 微软雅黑, Arial" size="13px" weight="400" font-style="" opacity="1" y="7.875" transform="rotate(0)"><tspan id="SvgjsTspan1097" dy="16.25" x="88.5"><tspan id="SvgjsTspan1098" style="">程序计数器</tspan></tspan><tspan id="SvgjsTspan1099" dy="16.25" x="88.5"><tspan id="SvgjsTspan1100" style="">Program Counter Register</tspan></tspan></text></g></g><g id="SvgjsG1101" transform="translate(365.75,209)"><path id="SvgjsPath1102" d="M 0 0L 141.5 0L 141.5 54L 0 54Z" stroke="rgba(33,41,48,1)" stroke-width="1.5" fill-opacity="1" fill="#d2d5d2"></path><g id="SvgjsG1103"><text id="SvgjsText1104" font-family="&quot;Microsoft YaHei&quot;, 微软雅黑, Arial" text-anchor="middle" font-size="13px" width="122px" fill="#323232" font-weight="400" align="middle" lineHeight="125%" anchor="middle" family="&quot;Microsoft YaHei&quot;, 微软雅黑, Arial" size="13px" weight="400" font-style="" opacity="1" y="7.875" transform="rotate(0)"><tspan id="SvgjsTspan1105" dy="16.25" x="71"><tspan id="SvgjsTspan1106" style="">本地方法栈</tspan></tspan><tspan id="SvgjsTspan1107" dy="16.25" x="71"><tspan id="SvgjsTspan1108" style="">Native Method Stack</tspan></tspan></text></g></g><g id="SvgjsG1109" transform="translate(169.25,282.75)"><path id="SvgjsPath1110" d="M 0 0L 339 0L 339 54L 0 54Z" stroke="rgba(33,41,48,1)" stroke-width="1.5" fill-opacity="1" fill="#d2d5d2"></path><g id="SvgjsG1111"><text id="SvgjsText1112" font-family="&quot;Microsoft YaHei&quot;, 微软雅黑, Arial" text-anchor="middle" font-size="13px" width="319px" fill="#323232" font-weight="400" align="middle" lineHeight="125%" anchor="middle" family="&quot;Microsoft YaHei&quot;, 微软雅黑, Arial" size="13px" weight="400" font-style="" opacity="1" y="7.875" transform="rotate(0)"><tspan id="SvgjsTspan1113" dy="16.25" x="169.5"><tspan id="SvgjsTspan1114" style="">虚拟机栈</tspan></tspan><tspan id="SvgjsTspan1115" dy="16.25" x="169.5"><tspan id="SvgjsTspan1116" style="">Java Virtual Machine Stack</tspan></tspan></text></g></g><g id="SvgjsG1117" transform="translate(223.25,89.5)"><path id="SvgjsPath1118" d="M 0 11.55L 47.5 11.55L 47.5 0L 65 17.5L 47.5 35L 47.5 23.450000000000003L 0 23.450000000000003L 0 11.55Z" stroke="none" fill-opacity="1" fill="#c0c0be"></path><g id="SvgjsG1119"><text id="SvgjsText1120" font-family="&quot;Microsoft YaHei&quot;, 微软雅黑, Arial" text-anchor="middle" font-size="13px" width="65px" fill="#323232" font-weight="400" align="middle" lineHeight="125%" anchor="middle" family="&quot;Microsoft YaHei&quot;, 微软雅黑, Arial" size="13px" weight="400" font-style="" opacity="1" y="6.875" transform="rotate(0)"></text></g></g><g id="SvgjsG1121" transform="translate(321.25,135)"><path id="SvgjsPath1122" d="M 11.55 0L 23.450000000000003 0L 23.450000000000003 31L 35 31L 17.5 48.5L 0 31L 11.55 31L 11.55 0Z" stroke="none" fill-opacity="1" fill="#c0c0be"></path><g id="SvgjsG1123"><text id="SvgjsText1124" font-family="&quot;Microsoft YaHei&quot;, 微软雅黑, Arial" text-anchor="middle" font-size="13px" width="49px" fill="#323232" font-weight="400" align="middle" lineHeight="125%" anchor="middle" family="&quot;Microsoft YaHei&quot;, 微软雅黑, Arial" size="13px" weight="400" font-style="" opacity="1" y="11.2" transform="rotate(0)"></text></g></g><g id="SvgjsG1125" transform="translate(173.7604895104895,436.5)"><path id="SvgjsPath1126" d="M 0 13.5L 13.5 0L 13.5 8.91L 90.20979020979019 8.91L 90.20979020979019 18.09L 13.5 18.09L 13.5 27L 0 13.5Z" stroke="none" fill-opacity="1" fill="#c0c0be"></path><g id="SvgjsG1127"><text id="SvgjsText1128" font-family="&quot;Microsoft YaHei&quot;, 微软雅黑, Arial" text-anchor="middle" font-size="13px" width="91px" fill="#323232" font-weight="400" align="middle" lineHeight="125%" anchor="middle" family="&quot;Microsoft YaHei&quot;, 微软雅黑, Arial" size="13px" weight="400" font-style="" opacity="1" y="2.875000000000001" transform="rotate(0)"></text></g></g><g id="SvgjsG1129" transform="translate(369.75,135)"><path id="SvgjsPath1130" d="M 17.5 0L 35 17.5L 23.450000000000003 17.5L 23.450000000000003 48.5L 11.55 48.5L 11.55 17.5L 0 17.5L 17.5 0Z" stroke="none" fill-opacity="1" fill="#c0c0be"></path><g id="SvgjsG1131"><text id="SvgjsText1132" font-family="&quot;Microsoft YaHei&quot;, 微软雅黑, Arial" text-anchor="middle" font-size="13px" width="49px" fill="#323232" font-weight="400" align="middle" lineHeight="125%" anchor="middle" family="&quot;Microsoft YaHei&quot;, 微软雅黑, Arial" size="13px" weight="400" font-style="" opacity="1" y="16.05" transform="rotate(0)"></text></g></g><g id="SvgjsG1133" transform="translate(304,359)"><path id="SvgjsPath1134" d="M 11.55 0L 23.450000000000003 0L 23.450000000000003 31L 35 31L 17.5 48.5L 0 31L 11.55 31L 11.55 0Z" stroke="none" fill-opacity="1" fill="#c0c0be"></path><g id="SvgjsG1135"><text id="SvgjsText1136" font-family="&quot;Microsoft YaHei&quot;, 微软雅黑, Arial" text-anchor="middle" font-size="13px" width="49px" fill="#323232" font-weight="400" align="middle" lineHeight="125%" anchor="middle" family="&quot;Microsoft YaHei&quot;, 微软雅黑, Arial" size="13px" weight="400" font-style="" opacity="1" y="11.2" transform="rotate(0)"></text></g></g><g id="SvgjsG1137" transform="translate(352.5,359)"><path id="SvgjsPath1138" d="M 17.5 0L 35 17.5L 23.450000000000003 17.5L 23.450000000000003 48.5L 11.55 48.5L 11.55 17.5L 0 17.5L 17.5 0Z" stroke="none" fill-opacity="1" fill="#c0c0be"></path><g id="SvgjsG1139"><text id="SvgjsText1140" font-family="&quot;Microsoft YaHei&quot;, 微软雅黑, Arial" text-anchor="middle" font-size="13px" width="49px" fill="#323232" font-weight="400" align="middle" lineHeight="125%" anchor="middle" family="&quot;Microsoft YaHei&quot;, 微软雅黑, Arial" size="13px" weight="400" font-style="" opacity="1" y="16.05" transform="rotate(0)"></text></g></g><g id="SvgjsG1141" transform="translate(60,359)"><path id="SvgjsPath1142" d="M 11.55 0L 23.450000000000003 0L 23.450000000000003 31L 35 31L 17.5 48.5L 0 31L 11.55 31L 11.55 0Z" stroke="none" fill-opacity="1" fill="#c0c0be"></path><g id="SvgjsG1143"><text id="SvgjsText1144" font-family="&quot;Microsoft YaHei&quot;, 微软雅黑, Arial" text-anchor="middle" font-size="13px" width="49px" fill="#323232" font-weight="400" align="middle" lineHeight="125%" anchor="middle" family="&quot;Microsoft YaHei&quot;, 微软雅黑, Arial" size="13px" weight="400" font-style="" opacity="1" y="11.2" transform="rotate(0)"></text></g></g><g id="SvgjsG1145" transform="translate(108.5,359)"><path id="SvgjsPath1146" d="M 17.5 0L 35 17.5L 23.450000000000003 17.5L 23.450000000000003 48.5L 11.55 48.5L 11.55 17.5L 0 17.5L 17.5 0Z" stroke="none" fill-opacity="1" fill="#c0c0be"></path><g id="SvgjsG1147"><text id="SvgjsText1148" font-family="&quot;Microsoft YaHei&quot;, 微软雅黑, Arial" text-anchor="middle" font-size="13px" width="49px" fill="#323232" font-weight="400" align="middle" lineHeight="125%" anchor="middle" family="&quot;Microsoft YaHei&quot;, 微软雅黑, Arial" size="13px" weight="400" font-style="" opacity="1" y="16.05" transform="rotate(0)"></text></g></g><g id="SvgjsG1149" transform="translate(169.25,416)"><path id="SvgjsPath1150" d="M 0 7.92L 85.72727272727269 7.92L 85.72727272727269 0L 97.72727272727269 12L 85.72727272727269 24L 85.72727272727269 16.080000000000002L 0 16.080000000000002L 0 7.92Z" stroke="none" fill-opacity="1" fill="#c0c0be"></path><g id="SvgjsG1151"><text id="SvgjsText1152" font-family="&quot;Microsoft YaHei&quot;, 微软雅黑, Arial" text-anchor="middle" font-size="13px" width="98px" fill="#323232" font-weight="400" align="middle" lineHeight="125%" anchor="middle" family="&quot;Microsoft YaHei&quot;, 微软雅黑, Arial" size="13px" weight="400" font-style="" opacity="1" y="1.375" transform="rotate(0)"></text></g></g><g id="SvgjsG1153" transform="translate(432.25,421)"><path id="SvgjsPath1154" d="M 0 17.5L 17.5 0L 17.5 11.55L 60 11.55L 60 23.450000000000003L 17.5 23.450000000000003L 17.5 35L 0 17.5Z" stroke="none" fill-opacity="1" fill="#c0c0be"></path><g id="SvgjsG1155"><text id="SvgjsText1156" font-family="&quot;Microsoft YaHei&quot;, 微软雅黑, Arial" text-anchor="middle" font-size="13px" width="60px" fill="#323232" font-weight="400" align="middle" lineHeight="125%" anchor="middle" family="&quot;Microsoft YaHei&quot;, 微软雅黑, Arial" size="13px" weight="400" font-style="" opacity="1" y="6.875" transform="rotate(0)"></text></g></g><g id="SvgjsG1157" transform="translate(481.25,418.5)"><path id="SvgjsPath1158" d="M 0 0L 100 0L 100 40L 0 40Z" stroke="none" fill="none"></path><g id="SvgjsG1159"><text id="SvgjsText1160" font-family="&quot;Microsoft YaHei&quot;, 微软雅黑, Arial" text-anchor="middle" font-size="13px" width="100px" fill="#323232" font-weight="400" align="middle" lineHeight="125%" anchor="middle" family="&quot;Microsoft YaHei&quot;, 微软雅黑, Arial" size="13px" weight="400" font-style="" opacity="1" y="9.375" transform="rotate(0)"><tspan id="SvgjsTspan1161" dy="16.25" x="50"><tspan id="SvgjsTspan1162" style="">本地方法库</tspan></tspan></text></g></g><g id="SvgjsG1163" transform="translate(211.5,25)"><path id="SvgjsPath1164" d="M 0 0L 200 0L 200 40L 0 40Z" stroke="none" fill="none"></path><g id="SvgjsG1165"><text id="SvgjsText1166" font-family="&quot;Microsoft YaHei&quot;, 微软雅黑, Arial" text-anchor="middle" font-size="15px" width="200px" fill="#323232" font-weight="400" align="middle" lineHeight="125%" anchor="middle" family="&quot;Microsoft YaHei&quot;, 微软雅黑, Arial" size="15px" weight="400" font-style="" opacity="1" y="7.625" transform="rotate(0)"><tspan id="SvgjsTspan1167" dy="18.75" x="100"><tspan id="SvgjsTspan1168" style="font-weight: bold;">HotSpot JVM Architecture</tspan></tspan></text></g></g><g id="SvgjsG1169"></g></svg>