<svg id="SvgjsSvg1006" width="679" height="359" xmlns="http://www.w3.org/2000/svg" version="1.1" xmlns:xlink="http://www.w3.org/1999/xlink" xmlns:svgjs="http://svgjs.com/svgjs"><defs id="SvgjsDefs1007"><pattern patternUnits="userSpaceOnUse" id="pattern_mark_0" width="300" height="300"><text x="150" y="100" fill="rgba(229,229,229,0.8)" font-size="18" transform="rotate(-45, 150, 150)" style="dominant-baseline: middle; text-anchor: middle;"></text></pattern><pattern patternUnits="userSpaceOnUse" id="pattern_mark_1" width="300" height="300"><text x="150" y="200" fill="rgba(229,229,229,0.8)" font-size="18" transform="rotate(-45, 150, 150)" style="dominant-baseline: middle; text-anchor: middle;"></text></pattern><marker id="SvgjsMarker1039" markerWidth="13" markerHeight="9" refX="9.5" refY="4.5" viewBox="0 0 13 9" orient="auto" markerUnits="userSpaceOnUse" stroke-dasharray="0,0"><path id="SvgjsPath1040" d="M0,0 L13,4.5 L0,9 L0,0" fill="#323232" stroke="#323232" stroke-width="1"></path></marker><marker id="SvgjsMarker1043" markerWidth="13" markerHeight="9" refX="9.5" refY="4.5" viewBox="0 0 13 9" orient="auto" markerUnits="userSpaceOnUse" stroke-dasharray="0,0"><path id="SvgjsPath1044" d="M0,0 L13,4.5 L0,9 L0,0" fill="#323232" stroke="#323232" stroke-width="1"></path></marker><marker id="SvgjsMarker1083" markerWidth="13" markerHeight="9" refX="9.5" refY="4.5" viewBox="0 0 13 9" orient="auto" markerUnits="userSpaceOnUse" stroke-dasharray="0,0"><path id="SvgjsPath1084" d="M0,0 L13,4.5 L0,9 L0,0" fill="#323232" stroke="#323232" stroke-width="1"></path></marker><marker id="SvgjsMarker1087" markerWidth="13" markerHeight="9" refX="9.5" refY="4.5" viewBox="0 0 13 9" orient="auto" markerUnits="userSpaceOnUse" stroke-dasharray="0,0"><path id="SvgjsPath1088" d="M0,0 L13,4.5 L0,9 L0,0" fill="#323232" stroke="#323232" stroke-width="1"></path></marker><marker id="SvgjsMarker1111" markerWidth="13" markerHeight="9" refX="9.5" refY="4.5" viewBox="0 0 13 9" orient="auto" markerUnits="userSpaceOnUse" stroke-dasharray="0,0"><path id="SvgjsPath1112" d="M0,0 L13,4.5 L0,9 L0,0" fill="#323232" stroke="#323232" stroke-width="1"></path></marker><marker id="SvgjsMarker1115" markerWidth="13" markerHeight="9" refX="9.5" refY="4.5" viewBox="0 0 13 9" orient="auto" markerUnits="userSpaceOnUse" stroke-dasharray="0,0"><path id="SvgjsPath1116" d="M0,0 L13,4.5 L0,9 L0,0" fill="#323232" stroke="#323232" stroke-width="1"></path></marker><marker id="SvgjsMarker1119" markerWidth="13" markerHeight="9" refX="9.5" refY="4.5" viewBox="0 0 13 9" orient="auto" markerUnits="userSpaceOnUse" stroke-dasharray="0,0"><path id="SvgjsPath1120" d="M0,0 L13,4.5 L0,9 L0,0" fill="#323232" stroke="#323232" stroke-width="1"></path></marker><marker id="SvgjsMarker1153" markerWidth="13" markerHeight="9" refX="9.5" refY="4.5" viewBox="0 0 13 9" orient="auto" markerUnits="userSpaceOnUse" stroke-dasharray="0,0"><path id="SvgjsPath1154" d="M0,0 L13,4.5 L0,9 L0,0" fill="#323232" stroke="#323232" stroke-width="1"></path></marker><marker id="SvgjsMarker1157" markerWidth="13" markerHeight="9" refX="9.5" refY="4.5" viewBox="0 0 13 9" orient="auto" markerUnits="userSpaceOnUse" stroke-dasharray="0,0"><path id="SvgjsPath1158" d="M0,0 L13,4.5 L0,9 L0,0" fill="#323232" stroke="#323232" stroke-width="1"></path></marker><marker id="SvgjsMarker1185" markerWidth="13" markerHeight="9" refX="9.5" refY="4.5" viewBox="0 0 13 9" orient="auto" markerUnits="userSpaceOnUse" stroke-dasharray="0,0"><path id="SvgjsPath1186" d="M0,0 L13,4.5 L0,9 L0,0" fill="#323232" stroke="#323232" stroke-width="1"></path></marker><marker id="SvgjsMarker1189" markerWidth="13" markerHeight="9" refX="3.5" refY="4.5" viewBox="0 0 13 9" orient="0" markerUnits="userSpaceOnUse" stroke-dasharray="0,0"><path id="SvgjsPath1190" d="M13,0 L0,4.5 L13,9 L13,0" fill="#323232" stroke="#323232" stroke-width="1"></path></marker></defs><rect id="svgbackgroundid" width="679" height="359" fill="transparent"></rect><rect id="SvgjsRect1009" width="679" height="359" fill="url(#pattern_mark_0)"></rect><rect id="SvgjsRect1010" width="679" height="359" fill="url(#pattern_mark_1)"></rect><g id="SvgjsG1011" transform="translate(167,61)"><path id="SvgjsPath1012" d="M 0 4Q 0 0 4 0L 290 0Q 294 0 294 4L 294 269Q 294 273 290 273L 4 273Q 0 273 0 269Z" stroke="rgba(33,41,48,1)" stroke-width="1.5" fill-opacity="1" fill="#c3defd"></path><g id="SvgjsG1013"><text id="SvgjsText1014" font-family="&quot;Microsoft YaHei&quot;, 微软雅黑, Arial" text-anchor="middle" font-size="13px" width="274px" fill="#323232" font-weight="400" align="middle" lineHeight="125%" anchor="middle" family="&quot;Microsoft YaHei&quot;, 微软雅黑, Arial" size="13px" weight="400" font-style="" opacity="1" y="125.875" transform="rotate(0)"></text></g></g><g id="SvgjsG1015" transform="translate(523,61)"><path id="SvgjsPath1016" d="M 0 4Q 0 0 4 0L 120 0Q 124 0 124 4L 124 269Q 124 273 120 273L 4 273Q 0 273 0 269Z" stroke="rgba(33,41,48,1)" stroke-width="1.5" fill-opacity="1" fill="#c3defd"></path><g id="SvgjsG1017"><text id="SvgjsText1018" font-family="&quot;Microsoft YaHei&quot;, 微软雅黑, Arial" text-anchor="middle" font-size="13px" width="104px" fill="#323232" font-weight="400" align="middle" lineHeight="125%" anchor="middle" family="&quot;Microsoft YaHei&quot;, 微软雅黑, Arial" size="13px" weight="400" font-style="" opacity="1" y="125.875" transform="rotate(0)"></text></g></g><g id="SvgjsG1019" transform="translate(540,100)"><path id="SvgjsPath1020" d="M 0 0L 90 0L 90 30L 0 30Z" stroke="rgba(33,41,48,1)" stroke-width="1.5" fill-opacity="1" fill="#cbe6c7"></path><g id="SvgjsG1021"><text id="SvgjsText1022" font-family="&quot;Microsoft YaHei&quot;, 微软雅黑, Arial" text-anchor="middle" font-size="13px" width="70px" fill="#323232" font-weight="400" align="middle" lineHeight="125%" anchor="middle" family="&quot;Microsoft YaHei&quot;, 微软雅黑, Arial" size="13px" weight="400" font-style="" opacity="1" y="4.375" transform="rotate(0)"><tspan id="SvgjsTspan1023" dy="16.25" x="45"><tspan id="SvgjsTspan1024" style="">接受Binlog</tspan></tspan></text></g></g><g id="SvgjsG1025" transform="translate(540,185)"><path id="SvgjsPath1026" d="M 0 0L 90 0L 90 30L 0 30Z" stroke="rgba(33,41,48,1)" stroke-width="1.5" fill-opacity="1" fill="#cbe6c7"></path><g id="SvgjsG1027"><text id="SvgjsText1028" font-family="&quot;Microsoft YaHei&quot;, 微软雅黑, Arial" text-anchor="middle" font-size="13px" width="70px" fill="#323232" font-weight="400" align="middle" lineHeight="125%" anchor="middle" family="&quot;Microsoft YaHei&quot;, 微软雅黑, Arial" size="13px" weight="400" font-style="" opacity="1" y="4.375" transform="rotate(0)"><tspan id="SvgjsTspan1029" dy="16.25" x="45"><tspan id="SvgjsTspan1030" style="">写中继日志</tspan></tspan></text></g></g><g id="SvgjsG1031" transform="translate(540,270)"><path id="SvgjsPath1032" d="M 0 0L 90 0L 90 30L 0 30Z" stroke="rgba(33,41,48,1)" stroke-width="1.5" fill-opacity="1" fill="#cbe6c7"></path><g id="SvgjsG1033"><text id="SvgjsText1034" font-family="&quot;Microsoft YaHei&quot;, 微软雅黑, Arial" text-anchor="middle" font-size="13px" width="70px" fill="#323232" font-weight="400" align="middle" lineHeight="125%" anchor="middle" family="&quot;Microsoft YaHei&quot;, 微软雅黑, Arial" size="13px" weight="400" font-style="" opacity="1" y="4.375" transform="rotate(0)"><tspan id="SvgjsTspan1035" dy="16.25" x="45"><tspan id="SvgjsTspan1036" style="">发动ACK</tspan></tspan></text></g></g><g id="SvgjsG1037"><path id="SvgjsPath1038" d="M585 130.75L585 157.5L585 157.5L585 182.3" stroke="#323232" stroke-width="1.5" fill="none" marker-end="url(#SvgjsMarker1039)"></path></g><g id="SvgjsG1041"><path id="SvgjsPath1042" d="M585 215.75L585 242.5L585 242.5L585 267.3" stroke="#323232" stroke-width="1.5" fill="none" marker-end="url(#SvgjsMarker1043)"></path></g><g id="SvgjsG1045" transform="translate(589,142.5)"><path id="SvgjsPath1046" d="M 0 15C 0 -5 30 -5 30 15C 30 35 0 35 0 15Z" stroke="rgba(33,41,48,1)" stroke-width="1.5" fill-opacity="1" fill="#f9e0ae"></path><g id="SvgjsG1047"><text id="SvgjsText1048" font-family="&quot;Microsoft YaHei&quot;, 微软雅黑, Arial" text-anchor="middle" font-size="13px" width="10px" fill="#323232" font-weight="400" align="middle" lineHeight="125%" anchor="middle" family="&quot;Microsoft YaHei&quot;, 微软雅黑, Arial" size="13px" weight="400" font-style="" opacity="1" y="4.375" transform="rotate(0)"><tspan id="SvgjsTspan1049" dy="16.25" x="15"><tspan id="SvgjsTspan1050" style="">5</tspan></tspan></text></g></g><g id="SvgjsG1051" transform="translate(589,227.5)"><path id="SvgjsPath1052" d="M 0 15C 0 -5 30 -5 30 15C 30 35 0 35 0 15Z" stroke="rgba(33,41,48,1)" stroke-width="1.5" fill-opacity="1" fill="#f9e0ae"></path><g id="SvgjsG1053"><text id="SvgjsText1054" font-family="&quot;Microsoft YaHei&quot;, 微软雅黑, Arial" text-anchor="middle" font-size="13px" width="10px" fill="#323232" font-weight="400" align="middle" lineHeight="125%" anchor="middle" family="&quot;Microsoft YaHei&quot;, 微软雅黑, Arial" size="13px" weight="400" font-style="" opacity="1" y="4.375" transform="rotate(0)"><tspan id="SvgjsTspan1055" dy="16.25" x="15"><tspan id="SvgjsTspan1056" style="">6</tspan></tspan></text></g></g><g id="SvgjsG1057" transform="translate(535,65)"><path id="SvgjsPath1058" d="M 0 0L 100 0L 100 40L 0 40Z" stroke="none" fill="none"></path><g id="SvgjsG1059"><text id="SvgjsText1060" font-family="&quot;Microsoft YaHei&quot;, 微软雅黑, Arial" text-anchor="middle" font-size="13px" width="100px" fill="#323232" font-weight="400" align="middle" lineHeight="125%" anchor="middle" family="&quot;Microsoft YaHei&quot;, 微软雅黑, Arial" size="13px" weight="400" font-style="" opacity="1" y="9.375" transform="rotate(0)"><tspan id="SvgjsTspan1061" dy="16.25" x="50"><tspan id="SvgjsTspan1062" style="">从库I/O线程</tspan></tspan></text></g></g><g id="SvgjsG1063" transform="translate(189,100)"><path id="SvgjsPath1064" d="M 0 0L 90 0L 90 30L 0 30Z" stroke="rgba(33,41,48,1)" stroke-width="1.5" fill-opacity="1" fill="#cbe6c7"></path><g id="SvgjsG1065"><text id="SvgjsText1066" font-family="&quot;Microsoft YaHei&quot;, 微软雅黑, Arial" text-anchor="middle" font-size="13px" width="70px" fill="#323232" font-weight="400" align="middle" lineHeight="125%" anchor="middle" family="&quot;Microsoft YaHei&quot;, 微软雅黑, Arial" size="13px" weight="400" font-style="" opacity="1" y="4.375" transform="rotate(0)"><tspan id="SvgjsTspan1067" dy="16.25" x="45"><tspan id="SvgjsTspan1068" style="">事务提交</tspan></tspan></text></g></g><g id="SvgjsG1069" transform="translate(189,185)"><path id="SvgjsPath1070" d="M 0 0L 90 0L 90 30L 0 30Z" stroke="rgba(33,41,48,1)" stroke-width="1.5" fill-opacity="1" fill="#cbe6c7"></path><g id="SvgjsG1071"><text id="SvgjsText1072" font-family="&quot;Microsoft YaHei&quot;, 微软雅黑, Arial" text-anchor="middle" font-size="13px" width="70px" fill="#323232" font-weight="400" align="middle" lineHeight="125%" anchor="middle" family="&quot;Microsoft YaHei&quot;, 微软雅黑, Arial" size="13px" weight="400" font-style="" opacity="1" y="4.375" transform="rotate(0)"><tspan id="SvgjsTspan1073" dy="16.25" x="45"><tspan id="SvgjsTspan1074" style="">写Binlog</tspan></tspan></text></g></g><g id="SvgjsG1075" transform="translate(189,270)"><path id="SvgjsPath1076" d="M 0 0L 90 0L 90 30L 0 30Z" stroke="rgba(33,41,48,1)" stroke-width="1.5" fill-opacity="1" fill="#cbe6c7"></path><g id="SvgjsG1077"><text id="SvgjsText1078" font-family="&quot;Microsoft YaHei&quot;, 微软雅黑, Arial" text-anchor="middle" font-size="13px" width="70px" fill="#323232" font-weight="400" align="middle" lineHeight="125%" anchor="middle" family="&quot;Microsoft YaHei&quot;, 微软雅黑, Arial" size="13px" weight="400" font-style="" opacity="1" y="4.375" transform="rotate(0)"><tspan id="SvgjsTspan1079" dy="16.25" x="45"><tspan id="SvgjsTspan1080" style="">成功返回</tspan></tspan></text></g></g><g id="SvgjsG1081"><path id="SvgjsPath1082" d="M234 130.75L234 157.5L234 157.5L234 182.3" stroke="#323232" stroke-width="1.5" fill="none" marker-end="url(#SvgjsMarker1083)"></path></g><g id="SvgjsG1085"><path id="SvgjsPath1086" d="M234 215.75L234 242.5L234 242.5L234 267.3" stroke="#323232" stroke-width="1.5" fill="none" marker-end="url(#SvgjsMarker1087)"></path></g><g id="SvgjsG1089" transform="translate(184,65)"><path id="SvgjsPath1090" d="M 0 0L 100 0L 100 40L 0 40Z" stroke="none" fill="none"></path><g id="SvgjsG1091"><text id="SvgjsText1092" font-family="&quot;Microsoft YaHei&quot;, 微软雅黑, Arial" text-anchor="middle" font-size="13px" width="100px" fill="#323232" font-weight="400" align="middle" lineHeight="125%" anchor="middle" family="&quot;Microsoft YaHei&quot;, 微软雅黑, Arial" size="13px" weight="400" font-style="" opacity="1" y="9.375" transform="rotate(0)"><tspan id="SvgjsTspan1093" dy="16.25" x="50"><tspan id="SvgjsTspan1094" style="">用户线程</tspan></tspan></text></g></g><g id="SvgjsG1095" transform="translate(350,227.5)"><path id="SvgjsPath1096" d="M 0 0L 90 0L 90 30L 0 30Z" stroke="rgba(33,41,48,1)" stroke-width="1.5" fill-opacity="1" fill="#cbe6c7"></path><g id="SvgjsG1097"><text id="SvgjsText1098" font-family="&quot;Microsoft YaHei&quot;, 微软雅黑, Arial" text-anchor="middle" font-size="13px" width="70px" fill="#323232" font-weight="400" align="middle" lineHeight="125%" anchor="middle" family="&quot;Microsoft YaHei&quot;, 微软雅黑, Arial" size="13px" weight="400" font-style="" opacity="1" y="4.375" transform="rotate(0)"><tspan id="SvgjsTspan1099" dy="16.25" x="45"><tspan id="SvgjsTspan1100" style="">等待ACK</tspan></tspan></text></g></g><g id="SvgjsG1101" transform="translate(350,136.25)"><path id="SvgjsPath1102" d="M 0 0L 90 0L 90 42.5L 0 42.5Z" stroke="rgba(33,41,48,1)" stroke-width="1.5" fill-opacity="1" fill="#cbe6c7"></path><g id="SvgjsG1103"><text id="SvgjsText1104" font-family="&quot;Microsoft YaHei&quot;, 微软雅黑, Arial" text-anchor="middle" font-size="13px" width="70px" fill="#323232" font-weight="400" align="middle" lineHeight="125%" anchor="middle" family="&quot;Microsoft YaHei&quot;, 微软雅黑, Arial" size="13px" weight="400" font-style="" opacity="1" y="2.125" transform="rotate(0)"><tspan id="SvgjsTspan1105" dy="16.25" x="45"><tspan id="SvgjsTspan1106" style="">转储并发送</tspan></tspan><tspan id="SvgjsTspan1107" dy="16.25" x="45"><tspan id="SvgjsTspan1108" style="">Binlog</tspan></tspan></text></g></g><g id="SvgjsG1109"><path id="SvgjsPath1110" d="M395 179.5L395 203.125L395 203.125L395 224.8" stroke="#323232" stroke-width="1.5" fill="none" marker-end="url(#SvgjsMarker1111)"></path></g><g id="SvgjsG1113"><path id="SvgjsPath1114" d="M279.64351921592896 199.61479483553546L347.68333082265565 158.8867385920723" stroke="#323232" stroke-width="1.5" fill="none" marker-end="url(#SvgjsMarker1115)"></path></g><g id="SvgjsG1117"><path id="SvgjsPath1118" d="M349.25 242.5L236 242.5" stroke="#323232" stroke-width="1.5" fill="none" marker-end="url(#SvgjsMarker1119)"></path></g><g id="SvgjsG1121" transform="translate(289,130)"><path id="SvgjsPath1122" d="M 0 15C 0 -5 30 -5 30 15C 30 35 0 35 0 15Z" stroke="rgba(33,41,48,1)" stroke-width="1.5" fill-opacity="1" fill="#f9e0ae"></path><g id="SvgjsG1123"><text id="SvgjsText1124" font-family="&quot;Microsoft YaHei&quot;, 微软雅黑, Arial" text-anchor="middle" font-size="13px" width="10px" fill="#323232" font-weight="400" align="middle" lineHeight="125%" anchor="middle" family="&quot;Microsoft YaHei&quot;, 微软雅黑, Arial" size="13px" weight="400" font-style="" opacity="1" y="4.375" transform="rotate(0)"><tspan id="SvgjsTspan1125" dy="16.25" x="15"><tspan id="SvgjsTspan1126" style="">3</tspan></tspan></text></g></g><g id="SvgjsG1127" transform="translate(254,149)"><path id="SvgjsPath1128" d="M 0 0L 100 0L 100 40L 0 40Z" stroke="none" fill="none"></path><g id="SvgjsG1129"><text id="SvgjsText1130" font-family="&quot;Microsoft YaHei&quot;, 微软雅黑, Arial" text-anchor="middle" font-size="13px" width="100px" fill="#323232" font-weight="400" align="middle" lineHeight="125%" anchor="middle" family="&quot;Microsoft YaHei&quot;, 微软雅黑, Arial" size="13px" weight="400" font-style="" opacity="1" y="9.375" transform="rotate(0)"><tspan id="SvgjsTspan1131" dy="16.25" x="50"><tspan id="SvgjsTspan1132" style="">通知</tspan></tspan></text></g></g><g id="SvgjsG1133" transform="translate(254,215)"><path id="SvgjsPath1134" d="M 0 0L 100 0L 100 40L 0 40Z" stroke="none" fill="none"></path><g id="SvgjsG1135"><text id="SvgjsText1136" font-family="&quot;Microsoft YaHei&quot;, 微软雅黑, Arial" text-anchor="middle" font-size="13px" width="100px" fill="#323232" font-weight="400" align="middle" lineHeight="125%" anchor="middle" family="&quot;Microsoft YaHei&quot;, 微软雅黑, Arial" size="13px" weight="400" font-style="" opacity="1" y="9.375" transform="rotate(0)"><tspan id="SvgjsTspan1137" dy="16.25" x="50"><tspan id="SvgjsTspan1138" style="">通知</tspan></tspan></text></g></g><g id="SvgjsG1139" transform="translate(289,197.5)"><path id="SvgjsPath1140" d="M 0 15C 0 -5 30 -5 30 15C 30 35 0 35 0 15Z" stroke="rgba(33,41,48,1)" stroke-width="1.5" fill-opacity="1" fill="#f9e0ae"></path><g id="SvgjsG1141"><text id="SvgjsText1142" font-family="&quot;Microsoft YaHei&quot;, 微软雅黑, Arial" text-anchor="middle" font-size="13px" width="10px" fill="#323232" font-weight="400" align="middle" lineHeight="125%" anchor="middle" family="&quot;Microsoft YaHei&quot;, 微软雅黑, Arial" size="13px" weight="400" font-style="" opacity="1" y="4.375" transform="rotate(0)"><tspan id="SvgjsTspan1143" dy="16.25" x="15"><tspan id="SvgjsTspan1144" style="">8</tspan></tspan></text></g></g><g id="SvgjsG1145" transform="translate(195,142.5)"><path id="SvgjsPath1146" d="M 0 15C 0 -5 30 -5 30 15C 30 35 0 35 0 15Z" stroke="rgba(33,41,48,1)" stroke-width="1.5" fill-opacity="1" fill="#f9e0ae"></path><g id="SvgjsG1147"><text id="SvgjsText1148" font-family="&quot;Microsoft YaHei&quot;, 微软雅黑, Arial" text-anchor="middle" font-size="13px" width="10px" fill="#323232" font-weight="400" align="middle" lineHeight="125%" anchor="middle" family="&quot;Microsoft YaHei&quot;, 微软雅黑, Arial" size="13px" weight="400" font-style="" opacity="1" y="4.375" transform="rotate(0)"><tspan id="SvgjsTspan1149" dy="16.25" x="15"><tspan id="SvgjsTspan1150" style="">2</tspan></tspan></text></g></g><g id="SvgjsG1151"><path id="SvgjsPath1152" d="M440.69024818884384 157.20664451974136L537.5151065201621 116.0560797289311" stroke="#323232" stroke-width="1.5" fill="none" marker-end="url(#SvgjsMarker1153)"></path></g><g id="SvgjsG1155"><path id="SvgjsPath1156" d="M539.3097518111562 284.70664451974136L442.48489347983787 243.5560797289311" stroke="#323232" stroke-width="1.5" fill="none" marker-end="url(#SvgjsMarker1157)"></path></g><g id="SvgjsG1159" transform="translate(477,77)"><path id="SvgjsPath1160" d="M 0 15C 0 -5 30 -5 30 15C 30 35 0 35 0 15Z" stroke="rgba(33,41,48,1)" stroke-width="1.5" fill-opacity="1" fill="#f9e0ae"></path><g id="SvgjsG1161"><text id="SvgjsText1162" font-family="&quot;Microsoft YaHei&quot;, 微软雅黑, Arial" text-anchor="middle" font-size="13px" width="10px" fill="#323232" font-weight="400" align="middle" lineHeight="125%" anchor="middle" family="&quot;Microsoft YaHei&quot;, 微软雅黑, Arial" size="13px" weight="400" font-style="" opacity="1" y="4.375" transform="rotate(0)"><tspan id="SvgjsTspan1163" dy="16.25" x="15"><tspan id="SvgjsTspan1164" style="">4</tspan></tspan></text></g></g><g id="SvgjsG1165" transform="translate(444,96.25)"><path id="SvgjsPath1166" d="M 0 0L 100 0L 100 40L 0 40Z" stroke="none" fill="none"></path><g id="SvgjsG1167"><text id="SvgjsText1168" font-family="&quot;Microsoft YaHei&quot;, 微软雅黑, Arial" text-anchor="middle" font-size="13px" width="100px" fill="#323232" font-weight="400" align="middle" lineHeight="125%" anchor="middle" family="&quot;Microsoft YaHei&quot;, 微软雅黑, Arial" size="13px" weight="400" font-style="" opacity="1" y="9.375" transform="rotate(0)"><tspan id="SvgjsTspan1169" dy="16.25" x="50"><tspan id="SvgjsTspan1170" style="">Binlog</tspan></tspan></text></g></g><g id="SvgjsG1171" transform="translate(477,212.875)"><path id="SvgjsPath1172" d="M 0 15C 0 -5 30 -5 30 15C 30 35 0 35 0 15Z" stroke="rgba(33,41,48,1)" stroke-width="1.5" fill-opacity="1" fill="#f9e0ae"></path><g id="SvgjsG1173"><text id="SvgjsText1174" font-family="&quot;Microsoft YaHei&quot;, 微软雅黑, Arial" text-anchor="middle" font-size="13px" width="10px" fill="#323232" font-weight="400" align="middle" lineHeight="125%" anchor="middle" family="&quot;Microsoft YaHei&quot;, 微软雅黑, Arial" size="13px" weight="400" font-style="" opacity="1" y="4.375" transform="rotate(0)"><tspan id="SvgjsTspan1175" dy="16.25" x="15"><tspan id="SvgjsTspan1176" style="">7</tspan></tspan></text></g></g><g id="SvgjsG1177" transform="translate(444,232.125)"><path id="SvgjsPath1178" d="M 0 0L 100 0L 100 40L 0 40Z" stroke="none" fill="none"></path><g id="SvgjsG1179"><text id="SvgjsText1180" font-family="&quot;Microsoft YaHei&quot;, 微软雅黑, Arial" text-anchor="middle" font-size="13px" width="100px" fill="#323232" font-weight="400" align="middle" lineHeight="125%" anchor="middle" family="&quot;Microsoft YaHei&quot;, 微软雅黑, Arial" size="13px" weight="400" font-style="" opacity="1" y="9.375" transform="rotate(0)"><tspan id="SvgjsTspan1181" dy="16.25" x="50"><tspan id="SvgjsTspan1182" style="">ACK</tspan></tspan></text></g></g><g id="SvgjsG1183"><path id="SvgjsPath1184" d="M25 115L107 115L107 115L186.3 115" stroke="#323232" stroke-width="1.5" fill="none" marker-end="url(#SvgjsMarker1185)"></path></g><g id="SvgjsG1187"><path id="SvgjsPath1188" d="M27 285L108 285L108 285L188.25 285" stroke="#323232" stroke-width="1.5" fill="none" marker-start="url(#SvgjsMarker1189)"></path></g><g id="SvgjsG1191" transform="translate(86,65)"><path id="SvgjsPath1192" d="M 0 15C 0 -5 30 -5 30 15C 30 35 0 35 0 15Z" stroke="rgba(33,41,48,1)" stroke-width="1.5" fill-opacity="1" fill="#f9e0ae"></path><g id="SvgjsG1193"><text id="SvgjsText1194" font-family="&quot;Microsoft YaHei&quot;, 微软雅黑, Arial" text-anchor="middle" font-size="13px" width="10px" fill="#323232" font-weight="400" align="middle" lineHeight="125%" anchor="middle" family="&quot;Microsoft YaHei&quot;, 微软雅黑, Arial" size="13px" weight="400" font-style="" opacity="1" y="4.375" transform="rotate(0)"><tspan id="SvgjsTspan1195" dy="16.25" x="15"><tspan id="SvgjsTspan1196" style="">1</tspan></tspan></text></g></g><g id="SvgjsG1197" transform="translate(51,84)"><path id="SvgjsPath1198" d="M 0 0L 100 0L 100 40L 0 40Z" stroke="none" fill="none"></path><g id="SvgjsG1199"><text id="SvgjsText1200" font-family="&quot;Microsoft YaHei&quot;, 微软雅黑, Arial" text-anchor="middle" font-size="13px" width="100px" fill="#323232" font-weight="400" align="middle" lineHeight="125%" anchor="middle" family="&quot;Microsoft YaHei&quot;, 微软雅黑, Arial" size="13px" weight="400" font-style="" opacity="1" y="9.375" transform="rotate(0)"><tspan id="SvgjsTspan1201" dy="16.25" x="50"><tspan id="SvgjsTspan1202" style="">客户端提交</tspan></tspan></text></g></g><g id="SvgjsG1203" transform="translate(86,237)"><path id="SvgjsPath1204" d="M 0 15C 0 -5 30 -5 30 15C 30 35 0 35 0 15Z" stroke="rgba(33,41,48,1)" stroke-width="1.5" fill-opacity="1" fill="#f9e0ae"></path><g id="SvgjsG1205"><text id="SvgjsText1206" font-family="&quot;Microsoft YaHei&quot;, 微软雅黑, Arial" text-anchor="middle" font-size="13px" width="10px" fill="#323232" font-weight="400" align="middle" lineHeight="125%" anchor="middle" family="&quot;Microsoft YaHei&quot;, 微软雅黑, Arial" size="13px" weight="400" font-style="" opacity="1" y="4.375" transform="rotate(0)"><tspan id="SvgjsTspan1207" dy="16.25" x="15"><tspan id="SvgjsTspan1208" style="">9</tspan></tspan></text></g></g><g id="SvgjsG1209" transform="translate(51,256)"><path id="SvgjsPath1210" d="M 0 0L 100 0L 100 40L 0 40Z" stroke="none" fill="none"></path><g id="SvgjsG1211"><text id="SvgjsText1212" font-family="&quot;Microsoft YaHei&quot;, 微软雅黑, Arial" text-anchor="middle" font-size="13px" width="100px" fill="#323232" font-weight="400" align="middle" lineHeight="125%" anchor="middle" family="&quot;Microsoft YaHei&quot;, 微软雅黑, Arial" size="13px" weight="400" font-style="" opacity="1" y="9.375" transform="rotate(0)"><tspan id="SvgjsTspan1213" dy="16.25" x="50"><tspan id="SvgjsTspan1214" style="">返回客户端</tspan></tspan></text></g></g><g id="SvgjsG1215" transform="translate(269.5,25)"><path id="SvgjsPath1216" d="M 0 0L 100 0L 100 40L 0 40Z" stroke="none" fill="none"></path><g id="SvgjsG1217"><text id="SvgjsText1218" font-family="&quot;Microsoft YaHei&quot;, 微软雅黑, Arial" text-anchor="middle" font-size="13px" width="100px" fill="#323232" font-weight="400" align="middle" lineHeight="125%" anchor="middle" family="&quot;Microsoft YaHei&quot;, 微软雅黑, Arial" size="13px" weight="400" font-style="" opacity="1" y="9.375" transform="rotate(0)"><tspan id="SvgjsTspan1219" dy="16.25" x="50"><tspan id="SvgjsTspan1220" style="font-weight: bold;">主库</tspan></tspan></text></g></g><g id="SvgjsG1221" transform="translate(530,25)"><path id="SvgjsPath1222" d="M 0 0L 100 0L 100 40L 0 40Z" stroke="none" fill="none"></path><g id="SvgjsG1223"><text id="SvgjsText1224" font-family="&quot;Microsoft YaHei&quot;, 微软雅黑, Arial" text-anchor="middle" font-size="13px" width="100px" fill="#323232" font-weight="400" align="middle" lineHeight="125%" anchor="middle" family="&quot;Microsoft YaHei&quot;, 微软雅黑, Arial" size="13px" weight="400" font-style="" opacity="1" y="9.375" transform="rotate(0)"><tspan id="SvgjsTspan1225" dy="16.25" x="50"><tspan id="SvgjsTspan1226" style="font-weight: bold;">从库</tspan></tspan></text></g></g><g id="SvgjsG1227"></g></svg>