<svg id="SvgjsSvg1051" width="230" height="315" xmlns="http://www.w3.org/2000/svg" version="1.1" xmlns:xlink="http://www.w3.org/1999/xlink" xmlns:svgjs="http://svgjs.com/svgjs"><defs id="SvgjsDefs1052"><pattern patternUnits="userSpaceOnUse" id="pattern_mark_0" width="300" height="300"><text x="150" y="100" fill="rgba(229,229,229,0.8)" font-size="18" transform="rotate(-45, 150, 150)" style="dominant-baseline: middle; text-anchor: middle;"></text></pattern><pattern patternUnits="userSpaceOnUse" id="pattern_mark_1" width="300" height="300"><text x="150" y="200" fill="rgba(229,229,229,0.8)" font-size="18" transform="rotate(-45, 150, 150)" style="dominant-baseline: middle; text-anchor: middle;"></text></pattern></defs><rect id="svgbackgroundid" width="230" height="315" fill="transparent"></rect><rect id="SvgjsRect1054" width="230" height="315" fill="url(#pattern_mark_0)"></rect><rect id="SvgjsRect1055" width="230" height="315" fill="url(#pattern_mark_1)"></rect><g id="SvgjsG1056" transform="translate(25,25)"><path id="SvgjsPath1057" d="M 0 4Q 0 0 4 0L 176 0Q 180 0 180 4L 180 261Q 180 265 176 265L 4 265Q 0 265 0 261Z" stroke="rgba(33,41,48,1)" stroke-width="1.5" fill-opacity="1" fill="#ffffff"></path><g id="SvgjsG1058"><text id="SvgjsText1059" font-family="&quot;Comic Sans MS&quot;" text-anchor="middle" font-size="13px" width="160px" fill="#323232" font-weight="400" align="middle" lineHeight="125%" anchor="middle" family="&quot;Comic Sans MS&quot;" size="13px" weight="400" font-style="" opacity="1" y="121.875" transform="rotate(0)"></text></g></g><g id="SvgjsG1060" transform="translate(32,160)"><path id="SvgjsPath1061" d="M 0 4Q 0 0 4 0L 163 0Q 167 0 167 4L 167 26Q 167 30 163 30L 4 30Q 0 30 0 26Z" stroke="rgba(33,41,48,1)" stroke-width="1.5" fill-opacity="1" fill="#99ffce"></path><g id="SvgjsG1062"><text id="SvgjsText1063" font-family="&quot;Comic Sans MS&quot;" text-anchor="middle" font-size="13px" width="147px" fill="#323232" font-weight="400" align="middle" lineHeight="125%" anchor="middle" family="&quot;Comic Sans MS&quot;" size="13px" weight="400" font-style="" opacity="1" y="4.375" transform="rotate(0)"><tspan id="SvgjsTspan1064" dy="16.25" x="83.5"><tspan id="SvgjsTspan1065" style="">lru</tspan></tspan></text></g></g><g id="SvgjsG1066" transform="translate(32,205.5)"><path id="SvgjsPath1067" d="M 0 4Q 0 0 4 0L 163 0Q 167 0 167 4L 167 26Q 167 30 163 30L 4 30Q 0 30 0 26Z" stroke="rgba(33,41,48,1)" stroke-width="1.5" fill-opacity="1" fill="#99ffce"></path><g id="SvgjsG1068"><text id="SvgjsText1069" font-family="&quot;Comic Sans MS&quot;" text-anchor="middle" font-size="13px" width="147px" fill="#323232" font-weight="400" align="middle" lineHeight="125%" anchor="middle" family="&quot;Comic Sans MS&quot;" size="13px" weight="400" font-style="" opacity="1" y="4.375" transform="rotate(0)"><tspan id="SvgjsTspan1070" dy="16.25" x="83.5"><tspan id="SvgjsTspan1071" style="">refcount</tspan></tspan></text></g></g><g id="SvgjsG1072" transform="translate(32,251)"><path id="SvgjsPath1073" d="M 0 4Q 0 0 4 0L 163 0Q 167 0 167 4L 167 26Q 167 30 163 30L 4 30Q 0 30 0 26Z" stroke="rgba(33,41,48,1)" stroke-width="1.5" fill-opacity="1" fill="#99ffce"></path><g id="SvgjsG1074"><text id="SvgjsText1075" font-family="&quot;Comic Sans MS&quot;" text-anchor="middle" font-size="13px" width="147px" fill="#323232" font-weight="400" align="middle" lineHeight="125%" anchor="middle" family="&quot;Comic Sans MS&quot;" size="13px" weight="400" font-style="" opacity="1" y="4.375" transform="rotate(0)"><tspan id="SvgjsTspan1076" dy="16.25" x="83.5"><tspan id="SvgjsTspan1077" style="">void *ptr(数字);</tspan></tspan></text></g></g><g id="SvgjsG1078" transform="translate(32,114.5)"><path id="SvgjsPath1079" d="M 0 4Q 0 0 4 0L 163 0Q 167 0 167 4L 167 26Q 167 30 163 30L 4 30Q 0 30 0 26Z" stroke="rgba(33,41,48,1)" stroke-width="1.5" fill-opacity="1" fill="#99ffce"></path><g id="SvgjsG1080"><text id="SvgjsText1081" font-family="&quot;Comic Sans MS&quot;" text-anchor="middle" font-size="13px" width="147px" fill="#323232" font-weight="400" align="middle" lineHeight="125%" anchor="middle" family="&quot;Comic Sans MS&quot;" size="13px" weight="400" font-style="" opacity="1" y="4.375" transform="rotate(0)"><tspan id="SvgjsTspan1082" dy="16.25" x="83.5"><tspan id="SvgjsTspan1083" style="">encoding:int</tspan></tspan></text></g></g><g id="SvgjsG1084" transform="translate(32,69)"><path id="SvgjsPath1085" d="M 0 4Q 0 0 4 0L 163 0Q 167 0 167 4L 167 26Q 167 30 163 30L 4 30Q 0 30 0 26Z" stroke="rgba(33,41,48,1)" stroke-width="1.5" fill-opacity="1" fill="#99ffce"></path><g id="SvgjsG1086"><text id="SvgjsText1087" font-family="&quot;Comic Sans MS&quot;" text-anchor="middle" font-size="13px" width="147px" fill="#323232" font-weight="400" align="middle" lineHeight="125%" anchor="middle" family="&quot;Comic Sans MS&quot;" size="13px" weight="400" font-style="" opacity="1" y="4.375" transform="rotate(0)"><tspan id="SvgjsTspan1088" dy="16.25" x="83.5"><tspan id="SvgjsTspan1089" style="">type:(string)</tspan></tspan></text></g></g><g id="SvgjsG1090" transform="translate(56,31)"><path id="SvgjsPath1091" d="M 0 0L 119 0L 119 35L 0 35Z" stroke="none" fill="none"></path><g id="SvgjsG1092"><text id="SvgjsText1093" font-family="&quot;Comic Sans MS&quot;" text-anchor="middle" font-size="20px" width="119px" fill="#323232" font-weight="700" align="middle" lineHeight="125%" anchor="middle" family="&quot;Comic Sans MS&quot;" size="20px" weight="700" font-style="" opacity="1" y="-0.5" transform="rotate(0)"><tspan id="SvgjsTspan1094" dy="25" x="59.5"><tspan id="SvgjsTspan1095" style="">redisObject</tspan></tspan></text></g></g></svg>