<svg id="SvgjsSvg1006" width="563" height="110" xmlns="http://www.w3.org/2000/svg" version="1.1" xmlns:xlink="http://www.w3.org/1999/xlink" xmlns:svgjs="http://svgjs.com/svgjs"><defs id="SvgjsDefs1007"><pattern patternUnits="userSpaceOnUse" id="pattern_mark_0" width="300" height="300"><text x="150" y="100" fill="rgba(229,229,229,0.8)" font-size="18" transform="rotate(-45, 150, 150)" style="dominant-baseline: middle; text-anchor: middle;"></text></pattern><pattern patternUnits="userSpaceOnUse" id="pattern_mark_1" width="300" height="300"><text x="150" y="200" fill="rgba(229,229,229,0.8)" font-size="18" transform="rotate(-45, 150, 150)" style="dominant-baseline: middle; text-anchor: middle;"></text></pattern></defs><rect id="svgbackgroundid" width="563" height="110" fill="transparent"></rect><rect id="SvgjsRect1009" width="563" height="110" fill="url(#pattern_mark_0)"></rect><rect id="SvgjsRect1010" width="563" height="110" fill="url(#pattern_mark_1)"></rect><g id="SvgjsG1011" transform="translate(147,45)"><path id="SvgjsPath1012" d="M 0 0L 120 0L 120 20L 0 20Z" stroke="rgba(33,41,48,1)" stroke-width="1.5" fill-opacity="1" fill="#e0c431"></path><g id="SvgjsG1013"><text id="SvgjsText1014" font-family="微软雅黑" text-anchor="middle" font-size="13px" width="100px" fill="#323232" font-weight="400" align="middle" lineHeight="125%" anchor="middle" family="微软雅黑" size="13px" weight="400" font-style="" opacity="1" y="-0.625" transform="rotate(0)"><tspan id="SvgjsTspan1015" dy="16.25" x="60"><tspan id="SvgjsTspan1016" style="">线程ID</tspan></tspan></text></g></g><g id="SvgjsG1017" transform="translate(147,25)"><path id="SvgjsPath1018" d="M 0 0L 120 0L 120 20L 0 20Z" stroke="rgba(33,41,48,1)" stroke-width="1.5" fill-opacity="1" fill="#e0c431"></path><g id="SvgjsG1019"><text id="SvgjsText1020" font-family="微软雅黑" text-anchor="middle" font-size="13px" width="100px" fill="#323232" font-weight="400" align="middle" lineHeight="125%" anchor="middle" family="微软雅黑" size="13px" weight="400" font-style="" opacity="1" y="-0.625" transform="rotate(0)"><tspan id="SvgjsTspan1021" dy="16.25" x="60"><tspan id="SvgjsTspan1022" style="">数据</tspan></tspan></text></g></g><g id="SvgjsG1023" transform="translate(267,25)"><path id="SvgjsPath1024" d="M 0 0L 75 0L 75 20L 0 20Z" stroke="rgba(33,41,48,1)" stroke-width="1.5" fill-opacity="1" fill="#e0c431"></path><g id="SvgjsG1025"><text id="SvgjsText1026" font-family="微软雅黑" text-anchor="middle" font-size="13px" width="55px" fill="#323232" font-weight="400" align="middle" lineHeight="125%" anchor="middle" family="微软雅黑" size="13px" weight="400" font-style="" opacity="1" y="-0.625" transform="rotate(0)"><tspan id="SvgjsTspan1027" dy="16.25" x="37.5"><tspan id="SvgjsTspan1028" style="">偏向锁位</tspan></tspan></text></g></g><g id="SvgjsG1029" transform="translate(342,25)"><path id="SvgjsPath1030" d="M 0 0L 75 0L 75 20L 0 20Z" stroke="rgba(33,41,48,1)" stroke-width="1.5" fill-opacity="1" fill="#e0c431"></path><g id="SvgjsG1031"><text id="SvgjsText1032" font-family="微软雅黑" text-anchor="middle" font-size="13px" width="55px" fill="#323232" font-weight="400" align="middle" lineHeight="125%" anchor="middle" family="微软雅黑" size="13px" weight="400" font-style="" opacity="1" y="-0.625" transform="rotate(0)"><tspan id="SvgjsTspan1033" dy="16.25" x="37.5"><tspan id="SvgjsTspan1034" style="">锁标识位</tspan></tspan></text></g></g><g id="SvgjsG1035" transform="translate(147,65)"><path id="SvgjsPath1036" d="M 0 0L 270 0L 270 20L 0 20Z" stroke="rgba(33,41,48,1)" stroke-width="1.5" fill-opacity="1" fill="#e0c431"></path><g id="SvgjsG1037"><text id="SvgjsText1038" font-family="微软雅黑" text-anchor="middle" font-size="13px" width="250px" fill="#323232" font-weight="400" align="middle" lineHeight="125%" anchor="middle" family="微软雅黑" size="13px" weight="400" font-style="" opacity="1" y="-0.625" transform="rotate(0)"><tspan id="SvgjsTspan1039" dy="16.25" x="135"><tspan id="SvgjsTspan1040" style="">指针类型等信息</tspan></tspan></text></g></g><g id="SvgjsG1041" transform="translate(267,45)"><path id="SvgjsPath1042" d="M 0 0L 75 0L 75 20L 0 20Z" stroke="rgba(33,41,48,1)" stroke-width="1.5" fill-opacity="1" fill="#e0c431"></path><g id="SvgjsG1043"><text id="SvgjsText1044" font-family="微软雅黑" text-anchor="middle" font-size="13px" width="55px" fill="#323232" font-weight="400" align="middle" lineHeight="125%" anchor="middle" family="微软雅黑" size="13px" weight="400" font-style="" opacity="1" y="-0.625" transform="rotate(0)"><tspan id="SvgjsTspan1045" dy="16.25" x="37.5"><tspan id="SvgjsTspan1046" style="">1</tspan></tspan></text></g></g><g id="SvgjsG1047" transform="translate(342,45)"><path id="SvgjsPath1048" d="M 0 0L 75 0L 75 20L 0 20Z" stroke="rgba(33,41,48,1)" stroke-width="1.5" fill-opacity="1" fill="#e0c431"></path><g id="SvgjsG1049"><text id="SvgjsText1050" font-family="微软雅黑" text-anchor="middle" font-size="13px" width="55px" fill="#323232" font-weight="400" align="middle" lineHeight="125%" anchor="middle" family="微软雅黑" size="13px" weight="400" font-style="" opacity="1" y="-0.625" transform="rotate(0)"><tspan id="SvgjsTspan1051" dy="16.25" x="37.5"><tspan id="SvgjsTspan1052" style="">01</tspan></tspan></text></g></g><g id="SvgjsG1053" transform="translate(25,25)"><path id="SvgjsPath1054" d="M 122 0Q 113 0 113 6L 113 24Q 113 30 100 30Q 113 30 113 36L 113 54Q 113 60 122 60" stroke="rgba(33,41,48,1)" stroke-width="1.5" fill="none"></path><path id="SvgjsPath1055" d="M 0 0L 122 0L 122 60L 0 60Z" stroke="none" fill="none"></path><g id="SvgjsG1056"><text id="SvgjsText1057" font-family="微软雅黑" text-anchor="end" font-size="13px" width="95px" fill="#323232" font-weight="400" align="middle" lineHeight="125%" anchor="end" family="微软雅黑" size="13px" weight="400" font-style="" opacity="1" y="19.375" transform="rotate(0)"><tspan id="SvgjsTspan1058" dy="16.25" x="95"><tspan id="SvgjsTspan1059" style="">对象头</tspan></tspan></text></g></g><g id="SvgjsG1060" transform="translate(418,25)"><path id="SvgjsPath1061" d="M 0 40Q 9 40 9 36L 9 24Q 9 20 22 20Q 9 20 9 16L 9 4Q 9 0 0 0" stroke="rgba(33,41,48,1)" stroke-width="1.5" fill="none"></path><path id="SvgjsPath1062" d="M 0 0L 120 0L 120 40L 0 40Z" stroke="none" fill="none"></path><g id="SvgjsG1063"><text id="SvgjsText1064" font-family="微软雅黑" text-anchor="start" font-size="13px" width="93px" fill="#323232" font-weight="400" align="middle" lineHeight="125%" anchor="start" family="微软雅黑" size="13px" weight="400" font-style="" opacity="1" y="9.375" transform="rotate(0)"><tspan id="SvgjsTspan1065" dy="16.25" x="27"><tspan id="SvgjsTspan1066" style="">Mark Word</tspan></tspan></text></g></g></svg>