<svg id="SvgjsSvg1006" width="784" height="253.50000000000006" xmlns="http://www.w3.org/2000/svg" version="1.1" xmlns:xlink="http://www.w3.org/1999/xlink" xmlns:svgjs="http://svgjs.com/svgjs"><defs id="SvgjsDefs1007"><pattern patternUnits="userSpaceOnUse" id="pattern_mark_0" width="300" height="300"><text x="150" y="100" fill="rgba(229,229,229,0.8)" font-size="18" transform="rotate(-45, 150, 150)" style="dominant-baseline: middle; text-anchor: middle;"></text></pattern><pattern patternUnits="userSpaceOnUse" id="pattern_mark_1" width="300" height="300"><text x="150" y="200" fill="rgba(229,229,229,0.8)" font-size="18" transform="rotate(-45, 150, 150)" style="dominant-baseline: middle; text-anchor: middle;"></text></pattern></defs><rect id="svgbackgroundid" width="784" height="253.50000000000006" fill="transparent"></rect><rect id="SvgjsRect1009" width="784" height="253.50000000000006" fill="url(#pattern_mark_0)"></rect><rect id="SvgjsRect1010" width="784" height="253.50000000000006" fill="url(#pattern_mark_1)"></rect><g id="SvgjsG1011" transform="translate(25.000000000000057,81.5)"><path id="SvgjsPath1012" d="M0 0L18.3768 0L18.3768 41 L0 41Z" stroke="rgba(102, 102, 102,1)" stroke-width="1" fill-opacity="1" fill="#cfe2ff"></path><path id="SvgjsPath1013" d="M18.3768 0L36.7536 0L36.7536 41 L18.3768 41Z" stroke="rgba(102, 102, 102,1)" stroke-width="1" fill-opacity="1" fill="#cfe2ff"></path><path id="SvgjsPath1014" d="M36.8125 0L55.2482 0L55.2482 41 L36.8125 41Z" stroke="rgba(102, 102, 102,1)" stroke-width="1" fill-opacity="1" fill="#cfe2ff"></path><path id="SvgjsPath1015" d="M55.1893 0L73.625 0L73.625 41 L55.1893 41Z" stroke="rgba(102, 102, 102,1)" stroke-width="1" fill-opacity="1" fill="#cfe2ff"></path><path id="SvgjsPath1016" d="M73.625 0L92.0607 0L92.0607 41 L73.625 41Z" stroke="rgba(102, 102, 102,1)" stroke-width="1" fill-opacity="1" fill="#cfe2ff"></path><path id="SvgjsPath1017" d="M92.0018 0L110.4375 0L110.4375 41 L92.0018 41Z" stroke="rgba(102, 102, 102,1)" stroke-width="1" fill-opacity="1" fill="#cfe2ff"></path><path id="SvgjsPath1018" d="M110.4375 0L128.8732 0L128.8732 41 L110.4375 41Z" stroke="rgba(102, 102, 102,1)" stroke-width="1" fill-opacity="1" fill="#cfe2ff"></path><path id="SvgjsPath1019" d="M128.8143 0L147.25 0L147.25 41 L128.8143 41Z" stroke="rgba(102, 102, 102,1)" stroke-width="1" fill-opacity="1" fill="#cfe2ff"></path><path id="SvgjsPath1020" d="M147.25 0L165.6857 0L165.6857 41 L147.25 41Z" stroke="rgba(102, 102, 102,1)" stroke-width="1" fill-opacity="1" fill="#cfe2ff"></path><path id="SvgjsPath1021" d="M165.6268 0L184.0625 0L184.0625 41 L165.6268 41Z" stroke="rgba(102, 102, 102,1)" stroke-width="1" fill-opacity="1" fill="#cfe2ff"></path><path id="SvgjsPath1022" d="M184.0625 0L202.4982 0L202.4982 41 L184.0625 41Z" stroke="rgba(102, 102, 102,1)" stroke-width="1" fill-opacity="1" fill="#cfe2ff"></path><path id="SvgjsPath1023" d="M202.4393 0L220.875 0L220.875 41 L202.4393 41Z" stroke="rgba(102, 102, 102,1)" stroke-width="1" fill-opacity="1" fill="#cfe2ff"></path><path id="SvgjsPath1024" d="M220.875 0L239.3107 0L239.3107 41 L220.875 41Z" stroke="rgba(102, 102, 102,1)" stroke-width="1" fill-opacity="1" fill="#cfe2ff"></path><path id="SvgjsPath1025" d="M239.2518 0L257.6875 0L257.6875 41 L239.2518 41Z" stroke="rgba(102, 102, 102,1)" stroke-width="1" fill-opacity="1" fill="#cfe2ff"></path><path id="SvgjsPath1026" d="M257.6875 0L276.1232 0L276.1232 41 L257.6875 41Z" stroke="rgba(102, 102, 102,1)" stroke-width="1" fill-opacity="1" fill="#cfe2ff"></path><path id="SvgjsPath1027" d="M276.0643 0L294.5 0L294.5 41 L276.0643 41Z" stroke="rgba(102, 102, 102,1)" stroke-width="1" fill-opacity="1" fill="#cfe2ff"></path><path id="SvgjsPath1028" d="M294.5 0L312.9357 0L312.9357 41 L294.5 41Z" stroke="rgba(102, 102, 102,1)" stroke-width="1" fill-opacity="1" fill="#cfe2ff"></path><path id="SvgjsPath1029" d="M312.8768 0L331.3125 0L331.3125 41 L312.8768 41Z" stroke="rgba(102, 102, 102,1)" stroke-width="1" fill-opacity="1" fill="#cfe2ff"></path><path id="SvgjsPath1030" d="M331.3125 0L349.7482 0L349.7482 41 L331.3125 41Z" stroke="rgba(102, 102, 102,1)" stroke-width="1" fill-opacity="1" fill="#cfe2ff"></path><path id="SvgjsPath1031" d="M349.6893 0L368.125 0L368.125 41 L349.6893 41Z" stroke="rgba(102, 102, 102,1)" stroke-width="1" fill-opacity="1" fill="#cfe2ff"></path><path id="SvgjsPath1032" d="M368.125 0L386.5607 0L386.5607 41 L368.125 41Z" stroke="rgba(102, 102, 102,1)" stroke-width="1" fill-opacity="1" fill="#cfe2ff"></path><path id="SvgjsPath1033" d="M386.5018 0L404.9375 0L404.9375 41 L386.5018 41Z" stroke="rgba(102, 102, 102,1)" stroke-width="1" fill-opacity="1" fill="#cfe2ff"></path><path id="SvgjsPath1034" d="M404.9375 0L423.3732 0L423.3732 41 L404.9375 41Z" stroke="rgba(102, 102, 102,1)" stroke-width="1" fill-opacity="1" fill="#cfe2ff"></path><path id="SvgjsPath1035" d="M423.3143 0L441.75 0L441.75 41 L423.3143 41Z" stroke="rgba(102, 102, 102,1)" stroke-width="1" fill-opacity="1" fill="#cfe2ff"></path><path id="SvgjsPath1036" d="M441.75 0L460.1857 0L460.1857 41 L441.75 41Z" stroke="rgba(102, 102, 102,1)" stroke-width="1" fill-opacity="1" fill="#f6edc1"></path><path id="SvgjsPath1037" d="M460.1268 0L478.5625 0L478.5625 41 L460.1268 41Z" stroke="rgba(102, 102, 102,1)" stroke-width="1" fill-opacity="1" fill="#f6edc1"></path><path id="SvgjsPath1038" d="M478.5625 0L496.9982 0L496.9982 41 L478.5625 41Z" stroke="rgba(102, 102, 102,1)" stroke-width="1" fill-opacity="1" fill="#f6edc1"></path><path id="SvgjsPath1039" d="M496.9393 0L515.375 0L515.375 41 L496.9393 41Z" stroke="rgba(102, 102, 102,1)" stroke-width="1" fill-opacity="1" fill="#f6edc1"></path><path id="SvgjsPath1040" d="M515.375 0L533.8107 0L533.8107 41 L515.375 41Z" stroke="rgba(102, 102, 102,1)" stroke-width="1" fill-opacity="1" fill="#dbe4d4"></path><path id="SvgjsPath1041" d="M533.7518 0L552.1875 0L552.1875 41 L533.7518 41Z" stroke="rgba(102, 102, 102,1)" stroke-width="1" fill-opacity="1" fill="#dbe4d4"></path><path id="SvgjsPath1042" d="M552.1875 0L570.6232 0L570.6232 41 L552.1875 41Z" stroke="rgba(102, 102, 102,1)" stroke-width="1" fill-opacity="1" fill="#dbe4d4"></path><path id="SvgjsPath1043" d="M570.5643 0L589 0L589 41 L570.5643 41Z" stroke="rgba(102, 102, 102,1)" stroke-width="1" fill-opacity="1" fill="#dbe4d4"></path><g id="SvgjsG1044"><text id="SvgjsText1045" font-family="&quot;Microsoft YaHei&quot;, 微软雅黑, Arial" text-anchor="middle" font-size="16px" width="19px" fill="#323232" font-weight="400" align="middle" lineHeight="125%" anchor="middle" family="&quot;Microsoft YaHei&quot;, 微软雅黑, Arial" size="16px" weight="400" font-style="" opacity="1" y="6.5" transform="rotate(0)"></text></g><g id="SvgjsG1046"><text id="SvgjsText1047" font-family="&quot;Microsoft YaHei&quot;, 微软雅黑, Arial" text-anchor="middle" font-size="16px" width="19px" fill="#323232" font-weight="400" align="middle" lineHeight="125%" anchor="middle" family="&quot;Microsoft YaHei&quot;, 微软雅黑, Arial" size="16px" weight="400" font-style="" opacity="1" y="6.5" transform="rotate(0)"></text></g><g id="SvgjsG1048"><text id="SvgjsText1049" font-family="&quot;Microsoft YaHei&quot;, 微软雅黑, Arial" text-anchor="middle" font-size="16px" width="19px" fill="#323232" font-weight="400" align="middle" lineHeight="125%" anchor="middle" family="&quot;Microsoft YaHei&quot;, 微软雅黑, Arial" size="16px" weight="400" font-style="" opacity="1" y="6.5" transform="rotate(0)"></text></g><g id="SvgjsG1050"><text id="SvgjsText1051" font-family="&quot;Microsoft YaHei&quot;, 微软雅黑, Arial" text-anchor="middle" font-size="16px" width="19px" fill="#323232" font-weight="400" align="middle" lineHeight="125%" anchor="middle" family="&quot;Microsoft YaHei&quot;, 微软雅黑, Arial" size="16px" weight="400" font-style="" opacity="1" y="6.5" transform="rotate(0)"></text></g><g id="SvgjsG1052"><text id="SvgjsText1053" font-family="&quot;Microsoft YaHei&quot;, 微软雅黑, Arial" text-anchor="middle" font-size="16px" width="19px" fill="#323232" font-weight="400" align="middle" lineHeight="125%" anchor="middle" family="&quot;Microsoft YaHei&quot;, 微软雅黑, Arial" size="16px" weight="400" font-style="" opacity="1" y="6.5" transform="rotate(0)"></text></g><g id="SvgjsG1054"><text id="SvgjsText1055" font-family="&quot;Microsoft YaHei&quot;, 微软雅黑, Arial" text-anchor="middle" font-size="16px" width="19px" fill="#323232" font-weight="400" align="middle" lineHeight="125%" anchor="middle" family="&quot;Microsoft YaHei&quot;, 微软雅黑, Arial" size="16px" weight="400" font-style="" opacity="1" y="6.5" transform="rotate(0)"></text></g><g id="SvgjsG1056"><text id="SvgjsText1057" font-family="&quot;Microsoft YaHei&quot;, 微软雅黑, Arial" text-anchor="middle" font-size="16px" width="19px" fill="#323232" font-weight="400" align="middle" lineHeight="125%" anchor="middle" family="&quot;Microsoft YaHei&quot;, 微软雅黑, Arial" size="16px" weight="400" font-style="" opacity="1" y="6.5" transform="rotate(0)"></text></g><g id="SvgjsG1058"><text id="SvgjsText1059" font-family="&quot;Microsoft YaHei&quot;, 微软雅黑, Arial" text-anchor="middle" font-size="16px" width="19px" fill="#323232" font-weight="400" align="middle" lineHeight="125%" anchor="middle" family="&quot;Microsoft YaHei&quot;, 微软雅黑, Arial" size="16px" weight="400" font-style="" opacity="1" y="6.5" transform="rotate(0)"></text></g><g id="SvgjsG1060"><text id="SvgjsText1061" font-family="&quot;Microsoft YaHei&quot;, 微软雅黑, Arial" text-anchor="middle" font-size="16px" width="19px" fill="#323232" font-weight="400" align="middle" lineHeight="125%" anchor="middle" family="&quot;Microsoft YaHei&quot;, 微软雅黑, Arial" size="16px" weight="400" font-style="" opacity="1" y="6.5" transform="rotate(0)"></text></g><g id="SvgjsG1062"><text id="SvgjsText1063" font-family="&quot;Microsoft YaHei&quot;, 微软雅黑, Arial" text-anchor="middle" font-size="16px" width="19px" fill="#323232" font-weight="400" align="middle" lineHeight="125%" anchor="middle" family="&quot;Microsoft YaHei&quot;, 微软雅黑, Arial" size="16px" weight="400" font-style="" opacity="1" y="6.5" transform="rotate(0)"></text></g><g id="SvgjsG1064"><text id="SvgjsText1065" font-family="&quot;Microsoft YaHei&quot;, 微软雅黑, Arial" text-anchor="middle" font-size="16px" width="19px" fill="#323232" font-weight="400" align="middle" lineHeight="125%" anchor="middle" family="&quot;Microsoft YaHei&quot;, 微软雅黑, Arial" size="16px" weight="400" font-style="" opacity="1" y="6.5" transform="rotate(0)"></text></g><g id="SvgjsG1066"><text id="SvgjsText1067" font-family="&quot;Microsoft YaHei&quot;, 微软雅黑, Arial" text-anchor="middle" font-size="16px" width="19px" fill="#323232" font-weight="400" align="middle" lineHeight="125%" anchor="middle" family="&quot;Microsoft YaHei&quot;, 微软雅黑, Arial" size="16px" weight="400" font-style="" opacity="1" y="6.5" transform="rotate(0)"></text></g><g id="SvgjsG1068"><text id="SvgjsText1069" font-family="&quot;Microsoft YaHei&quot;, 微软雅黑, Arial" text-anchor="middle" font-size="16px" width="19px" fill="#323232" font-weight="400" align="middle" lineHeight="125%" anchor="middle" family="&quot;Microsoft YaHei&quot;, 微软雅黑, Arial" size="16px" weight="400" font-style="" opacity="1" y="6.5" transform="rotate(0)"></text></g><g id="SvgjsG1070"><text id="SvgjsText1071" font-family="&quot;Microsoft YaHei&quot;, 微软雅黑, Arial" text-anchor="middle" font-size="16px" width="19px" fill="#323232" font-weight="400" align="middle" lineHeight="125%" anchor="middle" family="&quot;Microsoft YaHei&quot;, 微软雅黑, Arial" size="16px" weight="400" font-style="" opacity="1" y="6.5" transform="rotate(0)"></text></g><g id="SvgjsG1072"><text id="SvgjsText1073" font-family="&quot;Microsoft YaHei&quot;, 微软雅黑, Arial" text-anchor="middle" font-size="16px" width="19px" fill="#323232" font-weight="400" align="middle" lineHeight="125%" anchor="middle" family="&quot;Microsoft YaHei&quot;, 微软雅黑, Arial" size="16px" weight="400" font-style="" opacity="1" y="6.5" transform="rotate(0)"></text></g><g id="SvgjsG1074"><text id="SvgjsText1075" font-family="&quot;Microsoft YaHei&quot;, 微软雅黑, Arial" text-anchor="middle" font-size="16px" width="19px" fill="#323232" font-weight="400" align="middle" lineHeight="125%" anchor="middle" family="&quot;Microsoft YaHei&quot;, 微软雅黑, Arial" size="16px" weight="400" font-style="" opacity="1" y="6.5" transform="rotate(0)"></text></g><g id="SvgjsG1076"><text id="SvgjsText1077" font-family="&quot;Microsoft YaHei&quot;, 微软雅黑, Arial" text-anchor="middle" font-size="16px" width="19px" fill="#323232" font-weight="400" align="middle" lineHeight="125%" anchor="middle" family="&quot;Microsoft YaHei&quot;, 微软雅黑, Arial" size="16px" weight="400" font-style="" opacity="1" y="6.5" transform="rotate(0)"></text></g><g id="SvgjsG1078"><text id="SvgjsText1079" font-family="&quot;Microsoft YaHei&quot;, 微软雅黑, Arial" text-anchor="middle" font-size="16px" width="19px" fill="#323232" font-weight="400" align="middle" lineHeight="125%" anchor="middle" family="&quot;Microsoft YaHei&quot;, 微软雅黑, Arial" size="16px" weight="400" font-style="" opacity="1" y="6.5" transform="rotate(0)"></text></g><g id="SvgjsG1080"><text id="SvgjsText1081" font-family="&quot;Microsoft YaHei&quot;, 微软雅黑, Arial" text-anchor="middle" font-size="16px" width="19px" fill="#323232" font-weight="400" align="middle" lineHeight="125%" anchor="middle" family="&quot;Microsoft YaHei&quot;, 微软雅黑, Arial" size="16px" weight="400" font-style="" opacity="1" y="6.5" transform="rotate(0)"></text></g><g id="SvgjsG1082"><text id="SvgjsText1083" font-family="&quot;Microsoft YaHei&quot;, 微软雅黑, Arial" text-anchor="middle" font-size="16px" width="19px" fill="#323232" font-weight="400" align="middle" lineHeight="125%" anchor="middle" family="&quot;Microsoft YaHei&quot;, 微软雅黑, Arial" size="16px" weight="400" font-style="" opacity="1" y="6.5" transform="rotate(0)"></text></g><g id="SvgjsG1084"><text id="SvgjsText1085" font-family="&quot;Microsoft YaHei&quot;, 微软雅黑, Arial" text-anchor="middle" font-size="16px" width="19px" fill="#323232" font-weight="400" align="middle" lineHeight="125%" anchor="middle" family="&quot;Microsoft YaHei&quot;, 微软雅黑, Arial" size="16px" weight="400" font-style="" opacity="1" y="6.5" transform="rotate(0)"></text></g><g id="SvgjsG1086"><text id="SvgjsText1087" font-family="&quot;Microsoft YaHei&quot;, 微软雅黑, Arial" text-anchor="middle" font-size="16px" width="19px" fill="#323232" font-weight="400" align="middle" lineHeight="125%" anchor="middle" family="&quot;Microsoft YaHei&quot;, 微软雅黑, Arial" size="16px" weight="400" font-style="" opacity="1" y="6.5" transform="rotate(0)"></text></g><g id="SvgjsG1088"><text id="SvgjsText1089" font-family="&quot;Microsoft YaHei&quot;, 微软雅黑, Arial" text-anchor="middle" font-size="16px" width="19px" fill="#323232" font-weight="400" align="middle" lineHeight="125%" anchor="middle" family="&quot;Microsoft YaHei&quot;, 微软雅黑, Arial" size="16px" weight="400" font-style="" opacity="1" y="6.5" transform="rotate(0)"></text></g><g id="SvgjsG1090"><text id="SvgjsText1091" font-family="&quot;Microsoft YaHei&quot;, 微软雅黑, Arial" text-anchor="middle" font-size="16px" width="19px" fill="#323232" font-weight="400" align="middle" lineHeight="125%" anchor="middle" family="&quot;Microsoft YaHei&quot;, 微软雅黑, Arial" size="16px" weight="400" font-style="" opacity="1" y="6.5" transform="rotate(0)"></text></g><g id="SvgjsG1092"><text id="SvgjsText1093" font-family="&quot;Microsoft YaHei&quot;, 微软雅黑, Arial" text-anchor="middle" font-size="16px" width="19px" fill="#323232" font-weight="400" align="middle" lineHeight="125%" anchor="middle" family="&quot;Microsoft YaHei&quot;, 微软雅黑, Arial" size="16px" weight="400" font-style="" opacity="1" y="6.5" transform="rotate(0)"></text></g><g id="SvgjsG1094"><text id="SvgjsText1095" font-family="&quot;Microsoft YaHei&quot;, 微软雅黑, Arial" text-anchor="middle" font-size="16px" width="19px" fill="#323232" font-weight="400" align="middle" lineHeight="125%" anchor="middle" family="&quot;Microsoft YaHei&quot;, 微软雅黑, Arial" size="16px" weight="400" font-style="" opacity="1" y="6.5" transform="rotate(0)"></text></g><g id="SvgjsG1096"><text id="SvgjsText1097" font-family="&quot;Microsoft YaHei&quot;, 微软雅黑, Arial" text-anchor="middle" font-size="16px" width="19px" fill="#323232" font-weight="400" align="middle" lineHeight="125%" anchor="middle" family="&quot;Microsoft YaHei&quot;, 微软雅黑, Arial" size="16px" weight="400" font-style="" opacity="1" y="6.5" transform="rotate(0)"></text></g><g id="SvgjsG1098"><text id="SvgjsText1099" font-family="&quot;Microsoft YaHei&quot;, 微软雅黑, Arial" text-anchor="middle" font-size="16px" width="19px" fill="#323232" font-weight="400" align="middle" lineHeight="125%" anchor="middle" family="&quot;Microsoft YaHei&quot;, 微软雅黑, Arial" size="16px" weight="400" font-style="" opacity="1" y="6.5" transform="rotate(0)"></text></g><g id="SvgjsG1100"><text id="SvgjsText1101" font-family="&quot;Microsoft YaHei&quot;, 微软雅黑, Arial" text-anchor="middle" font-size="16px" width="19px" fill="#323232" font-weight="400" align="middle" lineHeight="125%" anchor="middle" family="&quot;Microsoft YaHei&quot;, 微软雅黑, Arial" size="16px" weight="400" font-style="" opacity="1" y="6.5" transform="rotate(0)"></text></g><g id="SvgjsG1102"><text id="SvgjsText1103" font-family="&quot;Microsoft YaHei&quot;, 微软雅黑, Arial" text-anchor="middle" font-size="16px" width="19px" fill="#323232" font-weight="400" align="middle" lineHeight="125%" anchor="middle" family="&quot;Microsoft YaHei&quot;, 微软雅黑, Arial" size="16px" weight="400" font-style="" opacity="1" y="6.5" transform="rotate(0)"></text></g><g id="SvgjsG1104"><text id="SvgjsText1105" font-family="&quot;Microsoft YaHei&quot;, 微软雅黑, Arial" text-anchor="middle" font-size="16px" width="19px" fill="#323232" font-weight="400" align="middle" lineHeight="125%" anchor="middle" family="&quot;Microsoft YaHei&quot;, 微软雅黑, Arial" size="16px" weight="400" font-style="" opacity="1" y="6.5" transform="rotate(0)"></text></g><g id="SvgjsG1106"><text id="SvgjsText1107" font-family="&quot;Microsoft YaHei&quot;, 微软雅黑, Arial" text-anchor="middle" font-size="16px" width="19px" fill="#323232" font-weight="400" align="middle" lineHeight="125%" anchor="middle" family="&quot;Microsoft YaHei&quot;, 微软雅黑, Arial" size="16px" weight="400" font-style="" opacity="1" y="6.5" transform="rotate(0)"></text></g></g><g id="SvgjsG1108" transform="translate(144.00000000000006,25)"><path id="SvgjsPath1109" d="M 0 0L 352 0L 352 49L 0 49Z" stroke="none" fill="none"></path><g id="SvgjsG1110"><text id="SvgjsText1111" font-family="&quot;Microsoft YaHei&quot;, 微软雅黑, Arial" text-anchor="middle" font-size="15px" width="352px" fill="#323232" font-weight="400" align="middle" lineHeight="125%" anchor="middle" family="&quot;Microsoft YaHei&quot;, 微软雅黑, Arial" size="15px" weight="400" font-style="" opacity="1" y="12.125" transform="rotate(0)"><tspan id="SvgjsTspan1112" dy="18.75" x="176"><tspan id="SvgjsTspan1113" style="">type_mode的各个二机制位的作用</tspan></tspan></text></g></g><g id="SvgjsG1114" transform="matrix(6.123233995736766e-17,1,-1,6.123233995736766e-17,466,128.5)"><path id="SvgjsPath1115" d="M 0 441.00000000000006Q 4 441.00000000000006 4 432.00000000000006L 4 229.50000000000003Q 4 220.50000000000003 22 220.50000000000003Q 4 220.50000000000003 4 211.50000000000003L 4 9Q 4 0 0 0" stroke="rgba(33,41,48,1)" stroke-width="1.5" fill="none"></path><path id="SvgjsPath1116" d="M 0 0L 40 0L 40 441.00000000000006L 0 441.00000000000006Z" stroke="none" fill="none"></path><g id="SvgjsG1117"><text id="SvgjsText1118" font-family="&quot;Microsoft YaHei&quot;, 微软雅黑, Arial" text-anchor="start" font-size="13px" width="13px" fill="#323232" font-weight="400" align="middle" lineHeight="125%" anchor="start" family="&quot;Microsoft YaHei&quot;, 微软雅黑, Arial" size="13px" weight="400" font-style="" opacity="1" y="209.87500000000003" transform="rotate(0)"></text></g></g><g id="SvgjsG1119" transform="matrix(6.123233995736766e-17,1,-1,6.123233995736766e-17,540,127.5)"><path id="SvgjsPath1120" d="M 0 73Q 4 73 4 65.7L 4 43.8Q 4 36.5 22 36.5Q 4 36.5 4 29.2L 4 7.300000000000001Q 4 0 0 0" stroke="rgba(33,41,48,1)" stroke-width="1.5" fill="none"></path><path id="SvgjsPath1121" d="M 0 0L 40 0L 40 73L 0 73Z" stroke="none" fill="none"></path><g id="SvgjsG1122"><text id="SvgjsText1123" font-family="&quot;Microsoft YaHei&quot;, 微软雅黑, Arial" text-anchor="start" font-size="13px" width="13px" fill="#323232" font-weight="400" align="middle" lineHeight="125%" anchor="start" family="&quot;Microsoft YaHei&quot;, 微软雅黑, Arial" size="13px" weight="400" font-style="" opacity="1" y="25.875" transform="rotate(0)"></text></g></g><g id="SvgjsG1124" transform="matrix(6.123233995736766e-17,1,-1,6.123233995736766e-17,614,128.5)"><path id="SvgjsPath1125" d="M 0 73Q 4 73 4 65.7L 4 43.8Q 4 36.5 22 36.5Q 4 36.5 4 29.2L 4 7.300000000000001Q 4 0 0 0" stroke="rgba(33,41,48,1)" stroke-width="1.5" fill="none"></path><path id="SvgjsPath1126" d="M 0 0L 40 0L 40 73L 0 73Z" stroke="none" fill="none"></path><g id="SvgjsG1127"><text id="SvgjsText1128" font-family="&quot;Microsoft YaHei&quot;, 微软雅黑, Arial" text-anchor="start" font-size="13px" width="13px" fill="#323232" font-weight="400" align="middle" lineHeight="125%" anchor="start" family="&quot;Microsoft YaHei&quot;, 微软雅黑, Arial" size="13px" weight="400" font-style="" opacity="1" y="25.875" transform="rotate(0)"></text></g></g><g id="SvgjsG1129" transform="matrix(-1,1.2246467991473532e-16,-1.2246467991473532e-16,-1,236,228.5)"><path id="SvgjsPath1130" d="M 0 35C 0 -11.666666666666666 140 -11.666666666666666 140 35Q 137.2 68.6 70 70Q 46.666666666666664 70 23.333333333333332 63L 0 70L 16.380000000000003 59.99Q 0 49 0 35" stroke="rgba(33,41,48,1)" stroke-width="1.5" fill-opacity="1" fill="#f5e3c1"></path><g id="SvgjsG1131"><text id="SvgjsText1132" font-family="&quot;Microsoft YaHei&quot;, 微软雅黑, Arial" text-anchor="middle" font-size="13px" width="120px" fill="#323232" font-weight="400" align="middle" lineHeight="125%" anchor="middle" family="&quot;Microsoft YaHei&quot;, 微软雅黑, Arial" size="13px" weight="400" font-style="" opacity="1" y="24.375" transform="rotate(0)"></text></g></g><g id="SvgjsG1133" transform="translate(117.00000000000006,173.5)"><path id="SvgjsPath1134" d="M 0 0L 100 0L 100 40L 0 40Z" stroke="none" fill="none"></path><g id="SvgjsG1135"><text id="SvgjsText1136" font-family="&quot;Microsoft YaHei&quot;, 微软雅黑, Arial" text-anchor="middle" font-size="13px" width="100px" fill="#323232" font-weight="400" align="middle" lineHeight="125%" anchor="middle" family="&quot;Microsoft YaHei&quot;, 微软雅黑, Arial" size="13px" weight="400" font-style="" opacity="1" y="0.875" transform="rotate(0)"><tspan id="SvgjsTspan1137" dy="16.25" x="50"><tspan id="SvgjsTspan1138" style="">其余的位表示</tspan></tspan><tspan id="SvgjsTspan1139" dy="16.25" x="50"><tspan id="SvgjsTspan1140" style="">rec_lock_type</tspan></tspan></text></g></g><g id="SvgjsG1141" transform="matrix(-1,1.2246467991473532e-16,-1.2246467991473532e-16,-1,500,223.5)"><path id="SvgjsPath1142" d="M 0 35C 0 -11.666666666666666 140 -11.666666666666666 140 35Q 137.2 68.6 70 70Q 46.666666666666664 70 23.333333333333332 63L 0 70L 16.380000000000003 59.99Q 0 49 0 35" stroke="rgba(33,41,48,1)" stroke-width="1.5" fill-opacity="1" fill="#f5e3c1"></path><g id="SvgjsG1143"><text id="SvgjsText1144" font-family="&quot;Microsoft YaHei&quot;, 微软雅黑, Arial" text-anchor="middle" font-size="13px" width="120px" fill="#323232" font-weight="400" align="middle" lineHeight="125%" anchor="middle" family="&quot;Microsoft YaHei&quot;, 微软雅黑, Arial" size="13px" weight="400" font-style="" opacity="1" y="24.375" transform="rotate(0)"></text></g></g><g id="SvgjsG1145" transform="translate(381.00000000000006,168.5)"><path id="SvgjsPath1146" d="M 0 0L 100 0L 100 40L 0 40Z" stroke="none" fill="none"></path><g id="SvgjsG1147"><text id="SvgjsText1148" font-family="&quot;Microsoft YaHei&quot;, 微软雅黑, Arial" text-anchor="middle" font-size="13px" width="100px" fill="#323232" font-weight="400" align="middle" lineHeight="125%" anchor="middle" family="&quot;Microsoft YaHei&quot;, 微软雅黑, Arial" size="13px" weight="400" font-style="" opacity="1" y="0.875" transform="rotate(0)"><tspan id="SvgjsTspan1149" dy="16.25" x="50"><tspan id="SvgjsTspan1150" style="">低5～8位表示</tspan></tspan><tspan id="SvgjsTspan1151" dy="16.25" x="50"><tspan id="SvgjsTspan1152" style="">lock_type</tspan></tspan></text></g></g><g id="SvgjsG1153" transform="translate(619,67)"><path id="SvgjsPath1154" d="M 0 35C 0 -11.666666666666666 140 -11.666666666666666 140 35Q 137.2 68.6 70 70Q 46.666666666666664 70 23.333333333333332 63L 0 70L 16.380000000000003 59.99Q 0 49 0 35" stroke="rgba(33,41,48,1)" stroke-width="1.5" fill-opacity="1" fill="#f5e3c1"></path><g id="SvgjsG1155"><text id="SvgjsText1156" font-family="&quot;Microsoft YaHei&quot;, 微软雅黑, Arial" text-anchor="middle" font-size="13px" width="120px" fill="#323232" font-weight="400" align="middle" lineHeight="125%" anchor="middle" family="&quot;Microsoft YaHei&quot;, 微软雅黑, Arial" size="13px" weight="400" font-style="" opacity="1" y="24.375" transform="rotate(0)"></text></g></g><g id="SvgjsG1157" transform="translate(638,82)"><path id="SvgjsPath1158" d="M 0 0L 100 0L 100 40L 0 40Z" stroke="none" fill="none"></path><g id="SvgjsG1159"><text id="SvgjsText1160" font-family="&quot;Microsoft YaHei&quot;, 微软雅黑, Arial" text-anchor="middle" font-size="13px" width="100px" fill="#323232" font-weight="400" align="middle" lineHeight="125%" anchor="middle" family="&quot;Microsoft YaHei&quot;, 微软雅黑, Arial" size="13px" weight="400" font-style="" opacity="1" y="0.875" transform="rotate(0)"><tspan id="SvgjsTspan1161" dy="16.25" x="50"><tspan id="SvgjsTspan1162" style="">低4位表示</tspan></tspan><tspan id="SvgjsTspan1163" dy="16.25" x="50"><tspan id="SvgjsTspan1164" style="">lock_mode</tspan></tspan></text></g></g><g id="SvgjsG1165"></g></svg>