<svg id="SvgjsSvg1006" width="450" height="254" xmlns="http://www.w3.org/2000/svg" version="1.1" xmlns:xlink="http://www.w3.org/1999/xlink" xmlns:svgjs="http://svgjs.com/svgjs"><defs id="SvgjsDefs1007"><pattern patternUnits="userSpaceOnUse" id="pattern_mark_0" width="300" height="300"><text x="150" y="100" fill="rgba(229,229,229,0.8)" font-size="18" transform="rotate(-45, 150, 150)" style="dominant-baseline: middle; text-anchor: middle;"></text></pattern><pattern patternUnits="userSpaceOnUse" id="pattern_mark_1" width="300" height="300"><text x="150" y="200" fill="rgba(229,229,229,0.8)" font-size="18" transform="rotate(-45, 150, 150)" style="dominant-baseline: middle; text-anchor: middle;"></text></pattern></defs><rect id="svgbackgroundid" width="450" height="254" fill="transparent"></rect><rect id="SvgjsRect1009" width="450" height="254" fill="url(#pattern_mark_0)"></rect><rect id="SvgjsRect1010" width="450" height="254" fill="url(#pattern_mark_1)"></rect><g id="SvgjsG1011" transform="translate(25,28)"><path id="SvgjsPath1012" d="M 0 4Q 0 0 4 0L 396 0Q 400 0 400 4L 400 197Q 400 201 396 201L 4 201Q 0 201 0 197Z" stroke="rgba(33,41,48,1)" stroke-width="1.5" fill-opacity="1" fill="#93cbff"></path><g id="SvgjsG1013"><text id="SvgjsText1014" font-family="&quot;Microsoft YaHei&quot;, 微软雅黑, Arial" text-anchor="middle" font-size="13px" width="380px" fill="#323232" font-weight="400" align="middle" lineHeight="125%" anchor="middle" family="&quot;Microsoft YaHei&quot;, 微软雅黑, Arial" size="13px" weight="400" font-style="" opacity="1" y="89.875" transform="rotate(0)"></text></g></g><g id="SvgjsG1015" transform="translate(44,57)"><path id="SvgjsPath1016" d="M 0 4Q 0 0 4 0L 358 0Q 362 0 362 4L 362 62Q 362 66 358 66L 4 66Q 0 66 0 62Z" stroke-dasharray="7.5,3" stroke="rgba(33,41,48,1)" stroke-width="1.5" fill-opacity="1" fill="#ffffff"></path><g id="SvgjsG1017"><text id="SvgjsText1018" font-family="&quot;Microsoft YaHei&quot;, 微软雅黑, Arial" text-anchor="middle" font-size="13px" width="342px" fill="#323232" font-weight="400" align="middle" lineHeight="125%" anchor="middle" family="&quot;Microsoft YaHei&quot;, 微软雅黑, Arial" size="13px" weight="400" font-style="" opacity="1" y="22.375" transform="rotate(0)"></text></g></g><g id="SvgjsG1019" transform="translate(55,65)"><path id="SvgjsPath1020" d="M 0 4Q 0 0 4 0L 156 0Q 160 0 160 4L 160 46Q 160 50 156 50L 4 50Q 0 50 0 46Z" stroke="rgba(33,41,48,1)" stroke-width="1.5" fill-opacity="1" fill="#f4a395"></path><g id="SvgjsG1021"><text id="SvgjsText1022" font-family="&quot;Microsoft YaHei&quot;, 微软雅黑, Arial" text-anchor="middle" font-size="13px" width="140px" fill="#323232" font-weight="400" align="middle" lineHeight="125%" anchor="middle" family="&quot;Microsoft YaHei&quot;, 微软雅黑, Arial" size="13px" weight="400" font-style="" opacity="1" y="14.375" transform="rotate(0)"><tspan id="SvgjsTspan1023" dy="16.25" x="80"><tspan id="SvgjsTspan1024" style="">Eden</tspan></tspan></text></g></g><g id="SvgjsG1025" transform="translate(225,65)"><path id="SvgjsPath1026" d="M 0 4Q 0 0 4 0L 76 0Q 80 0 80 4L 80 46Q 80 50 76 50L 4 50Q 0 50 0 46Z" stroke="rgba(33,41,48,1)" stroke-width="1.5" fill-opacity="1" fill="#8eed99"></path><g id="SvgjsG1027"><text id="SvgjsText1028" font-family="&quot;Microsoft YaHei&quot;, 微软雅黑, Arial" text-anchor="middle" font-size="13px" width="60px" fill="#323232" font-weight="400" align="middle" lineHeight="125%" anchor="middle" family="&quot;Microsoft YaHei&quot;, 微软雅黑, Arial" size="13px" weight="400" font-style="" opacity="1" y="5.875" transform="rotate(0)"><tspan id="SvgjsTspan1029" dy="16.25" x="40"><tspan id="SvgjsTspan1030" style="">Servivor 0</tspan></tspan><tspan id="SvgjsTspan1031" dy="16.25" x="40"><tspan id="SvgjsTspan1032" style="">(From)</tspan></tspan></text></g></g><g id="SvgjsG1033" transform="translate(315,65)"><path id="SvgjsPath1034" d="M 0 4Q 0 0 4 0L 76 0Q 80 0 80 4L 80 46Q 80 50 76 50L 4 50Q 0 50 0 46Z" stroke="rgba(33,41,48,1)" stroke-width="1.5" fill-opacity="1" fill="#8eed99"></path><g id="SvgjsG1035"><text id="SvgjsText1036" font-family="&quot;Microsoft YaHei&quot;, 微软雅黑, Arial" text-anchor="middle" font-size="13px" width="60px" fill="#323232" font-weight="400" align="middle" lineHeight="125%" anchor="middle" family="&quot;Microsoft YaHei&quot;, 微软雅黑, Arial" size="13px" weight="400" font-style="" opacity="1" y="5.875" transform="rotate(0)"><tspan id="SvgjsTspan1037" dy="16.25" x="40"><tspan id="SvgjsTspan1038" style="">Servivor 1</tspan></tspan><tspan id="SvgjsTspan1039" dy="16.25" x="40"><tspan id="SvgjsTspan1040" style="">(To)</tspan></tspan></text></g></g><g id="SvgjsG1041" transform="translate(44,153)"><path id="SvgjsPath1042" d="M 0 4Q 0 0 4 0L 358 0Q 362 0 362 4L 362 62Q 362 66 358 66L 4 66Q 0 66 0 62Z" stroke-dasharray="7.5,3" stroke="rgba(33,41,48,1)" stroke-width="1.5" fill-opacity="1" fill="#ffffff"></path><g id="SvgjsG1043"><text id="SvgjsText1044" font-family="&quot;Microsoft YaHei&quot;, 微软雅黑, Arial" text-anchor="middle" font-size="13px" width="342px" fill="#323232" font-weight="400" align="middle" lineHeight="125%" anchor="middle" family="&quot;Microsoft YaHei&quot;, 微软雅黑, Arial" size="13px" weight="400" font-style="" opacity="1" y="22.375" transform="rotate(0)"></text></g></g><g id="SvgjsG1045" transform="translate(55,161)"><path id="SvgjsPath1046" d="M 0 4Q 0 0 4 0L 336 0Q 340 0 340 4L 340 46Q 340 50 336 50L 4 50Q 0 50 0 46Z" stroke="rgba(33,41,48,1)" stroke-width="1.5" fill-opacity="1" fill="#b676ff"></path><g id="SvgjsG1047"><text id="SvgjsText1048" font-family="&quot;Microsoft YaHei&quot;, 微软雅黑, Arial" text-anchor="middle" font-size="13px" width="320px" fill="#323232" font-weight="400" align="middle" lineHeight="125%" anchor="middle" family="&quot;Microsoft YaHei&quot;, 微软雅黑, Arial" size="13px" weight="400" font-style="" opacity="1" y="14.375" transform="rotate(0)"><tspan id="SvgjsTspan1049" dy="16.25" x="170"><tspan id="SvgjsTspan1050" style="">Old Gen</tspan></tspan></text></g></g><g id="SvgjsG1051" transform="translate(38,25)"><path id="SvgjsPath1052" d="M 0 0L 123 0L 123 40L 0 40Z" stroke="none" fill="none"></path><g id="SvgjsG1053"><text id="SvgjsText1054" font-family="&quot;Microsoft YaHei&quot;, 微软雅黑, Arial" text-anchor="middle" font-size="13px" width="123px" fill="#323232" font-weight="400" align="middle" lineHeight="125%" anchor="middle" family="&quot;Microsoft YaHei&quot;, 微软雅黑, Arial" size="13px" weight="400" font-style="" opacity="1" y="9.375" transform="rotate(0)"><tspan id="SvgjsTspan1055" dy="16.25" x="61.5"><tspan id="SvgjsTspan1056" style="font-weight: bold;">年轻代(YoungGen)</tspan></tspan></text></g></g><g id="SvgjsG1057" transform="translate(28,124)"><path id="SvgjsPath1058" d="M 0 0L 123 0L 123 40L 0 40Z" stroke="none" fill="none"></path><g id="SvgjsG1059"><text id="SvgjsText1060" font-family="&quot;Microsoft YaHei&quot;, 微软雅黑, Arial" text-anchor="middle" font-size="13px" width="123px" fill="#323232" font-weight="400" align="middle" lineHeight="125%" anchor="middle" family="&quot;Microsoft YaHei&quot;, 微软雅黑, Arial" size="13px" weight="400" font-style="" opacity="1" y="9.375" transform="rotate(0)"><tspan id="SvgjsTspan1061" dy="16.25" x="61.5"><tspan id="SvgjsTspan1062" style="font-weight: bold;">老年代(OldGen)</tspan></tspan></text></g></g><g id="SvgjsG1063"></g></svg>