<svg id="SvgjsSvg1006" width="256.3533003224902" height="324" xmlns="http://www.w3.org/2000/svg" version="1.1" xmlns:xlink="http://www.w3.org/1999/xlink" xmlns:svgjs="http://svgjs.com/svgjs"><defs id="SvgjsDefs1007"><pattern patternUnits="userSpaceOnUse" id="pattern_mark_0" width="300" height="300"><text x="150" y="100" fill="rgba(229,229,229,0.8)" font-size="18" transform="rotate(-45, 150, 150)" style="dominant-baseline: middle; text-anchor: middle;"></text></pattern><pattern patternUnits="userSpaceOnUse" id="pattern_mark_1" width="300" height="300"><text x="150" y="200" fill="rgba(229,229,229,0.8)" font-size="18" transform="rotate(-45, 150, 150)" style="dominant-baseline: middle; text-anchor: middle;"></text></pattern><marker id="SvgjsMarker1057" markerWidth="13" markerHeight="9" refX="9.5" refY="4.5" viewBox="0 0 13 9" orient="auto" markerUnits="userSpaceOnUse" stroke-dasharray="0,0"><path id="SvgjsPath1058" d="M0,0 L13,4.5 L0,9 L0,0" fill="#d4bd63" stroke="#d4bd63" stroke-width="1"></path></marker><marker id="SvgjsMarker1067" markerWidth="13" markerHeight="9" refX="9.5" refY="4.5" viewBox="0 0 13 9" orient="auto" markerUnits="userSpaceOnUse" stroke-dasharray="0,0"><path id="SvgjsPath1068" d="M0,0 L13,4.5 L0,9 L0,0" fill="#a2b574" stroke="#a2b574" stroke-width="1"></path></marker><marker id="SvgjsMarker1071" markerWidth="13" markerHeight="9" refX="9.5" refY="4.5" viewBox="0 0 13 9" orient="auto" markerUnits="userSpaceOnUse" stroke-dasharray="0,0"><path id="SvgjsPath1072" d="M0,0 L13,4.5 L0,9 L0,0" fill="#323232" stroke="#323232" stroke-width="1"></path></marker><marker id="SvgjsMarker1079" markerWidth="13" markerHeight="9" refX="9.5" refY="4.5" viewBox="0 0 13 9" orient="auto" markerUnits="userSpaceOnUse" stroke-dasharray="0,0"><path id="SvgjsPath1080" d="M0,0 L13,4.5 L0,9 L0,0" fill="#323232" stroke="#323232" stroke-width="1"></path></marker></defs><rect id="svgbackgroundid" width="256.3533003224902" height="324" fill="transparent"></rect><rect id="SvgjsRect1009" width="256.3533003224902" height="324" fill="url(#pattern_mark_0)"></rect><rect id="SvgjsRect1010" width="256.3533003224902" height="324" fill="url(#pattern_mark_1)"></rect><g id="SvgjsG1011" transform="translate(42.353300322490185,104)"><path id="SvgjsPath1012" d="M 0 65C 0 -21.666666666666668 130 -21.666666666666668 130 65C 130 151.66666666666666 0 151.66666666666666 0 65Z" stroke="rgba(200,186,144,1)" stroke-width="1.5" fill-opacity="1" fill="#fcf3d3"></path><g id="SvgjsG1013"><text id="SvgjsText1014" font-family="&quot;Microsoft YaHei&quot;, 微软雅黑, Arial" text-anchor="middle" font-size="13px" width="110px" fill="#323232" font-weight="400" align="middle" lineHeight="125%" anchor="middle" family="&quot;Microsoft YaHei&quot;, 微软雅黑, Arial" size="13px" weight="400" font-style="" opacity="1" y="54.375" transform="rotate(0)"></text></g></g><g id="SvgjsG1015"><path id="SvgjsPath1016" d="M107.35330032249018 104.75L107.35330032249018 233.25" stroke="#323232" stroke-width="1.5" fill="none"></path></g><g id="SvgjsG1017"><path id="SvgjsPath1018" d="M43.103300322490185 169L171.60330032249018 169" stroke="#323232" stroke-width="1.5" fill="none"></path></g><g id="SvgjsG1019" transform="translate(67.35330032249018,129)"><path id="SvgjsPath1020" d="M 0 40C 0 -13.333333333333334 80 -13.333333333333334 80 40C 80 93.33333333333333 0 93.33333333333333 0 40Z" stroke="rgba(33,41,48,1)" stroke-width="1.5" fill-opacity="1" fill="#ffffff"></path><g id="SvgjsG1021"><text id="SvgjsText1022" font-family="&quot;Microsoft YaHei&quot;, 微软雅黑, Arial" text-anchor="middle" font-size="13px" width="60px" fill="#323232" font-weight="400" align="middle" lineHeight="125%" anchor="middle" family="&quot;Microsoft YaHei&quot;, 微软雅黑, Arial" size="13px" weight="400" font-style="" opacity="1" y="29.375" transform="rotate(0)"><tspan id="SvgjsTspan1023" dy="16.25" x="40"><tspan id="SvgjsTspan1024" style="">ib_logfile</tspan></tspan></text></g></g><g id="SvgjsG1025" transform="matrix(0.6427876096865393,-0.7660444431189781,0.7660444431189781,0.6427876096865393,47.944074401248905,141.97790165771673)"><path id="SvgjsPath1026" d="M 0 0L 35 0L 35 20L 0 20Z" stroke="none" fill="none"></path><g id="SvgjsG1027"><text id="SvgjsText1028" font-family="&quot;Microsoft YaHei&quot;, 微软雅黑, Arial" text-anchor="middle" font-size="13px" width="35px" fill="#323232" font-weight="400" align="middle" lineHeight="125%" anchor="middle" family="&quot;Microsoft YaHei&quot;, 微软雅黑, Arial" size="13px" weight="400" font-style="" opacity="1" y="-0.625" transform="rotate(0)"><tspan id="SvgjsTspan1029" dy="16.25" x="17.5"><tspan id="SvgjsTspan1030" style="">0</tspan></tspan></text></g></g><g id="SvgjsG1031" transform="matrix(-0.7071067811865475,0.7071067811865476,-0.7071067811865476,-0.7071067811865475,171.36980629644864,205.76776695296635)"><path id="SvgjsPath1032" d="M 0 0L 35 0L 35 40L 0 40Z" stroke="none" fill="none"></path><g id="SvgjsG1033"><text id="SvgjsText1034" font-family="&quot;Microsoft YaHei&quot;, 微软雅黑, Arial" text-anchor="middle" font-size="13px" width="35px" fill="#323232" font-weight="400" align="middle" lineHeight="125%" anchor="middle" family="&quot;Microsoft YaHei&quot;, 微软雅黑, Arial" size="13px" weight="400" font-style="" opacity="1" y="9.375" transform="rotate(0)"><tspan id="SvgjsTspan1035" dy="16.25" x="17.5"><tspan id="SvgjsTspan1036" style="">2</tspan></tspan></text></g></g><g id="SvgjsG1037" transform="matrix(0.6427876096865394,0.766044443118978,-0.766044443118978,0.6427876096865394,150.92540769481823,111.7384700516871)"><path id="SvgjsPath1038" d="M 0 0L 35 0L 35 40L 0 40Z" stroke="none" fill="none"></path><g id="SvgjsG1039"><text id="SvgjsText1040" font-family="&quot;Microsoft YaHei&quot;, 微软雅黑, Arial" text-anchor="middle" font-size="13px" width="35px" fill="#323232" font-weight="400" align="middle" lineHeight="125%" anchor="middle" family="&quot;Microsoft YaHei&quot;, 微软雅黑, Arial" size="13px" weight="400" font-style="" opacity="1" y="9.375" transform="rotate(0)"><tspan id="SvgjsTspan1041" dy="16.25" x="17.5"><tspan id="SvgjsTspan1042" style="">1</tspan></tspan></text></g></g><g id="SvgjsG1043" transform="matrix(-0.6427876096865395,-0.7660444431189779,0.7660444431189779,-0.6427876096865395,66.781196309088,230.2615299483129)"><path id="SvgjsPath1044" d="M 0 0L 35 0L 35 40L 0 40Z" stroke="none" fill="none"></path><g id="SvgjsG1045"><text id="SvgjsText1046" font-family="&quot;Microsoft YaHei&quot;, 微软雅黑, Arial" text-anchor="middle" font-size="13px" width="35px" fill="#323232" font-weight="400" align="middle" lineHeight="125%" anchor="middle" family="&quot;Microsoft YaHei&quot;, 微软雅黑, Arial" size="13px" weight="400" font-style="" opacity="1" y="9.375" transform="rotate(0)"><tspan id="SvgjsTspan1047" dy="16.25" x="17.5"><tspan id="SvgjsTspan1048" style="">3</tspan></tspan></text></g></g><g id="SvgjsG1049" transform="translate(63.353300322490185,25)"><path id="SvgjsPath1050" d="M 0 4Q 0 0 4 0L 84 0Q 88 0 88 4L 88 16Q 88 20 84 20L 4 20Q 0 20 0 16Z" stroke="rgba(200,186,144,1)" stroke-width="1.5" fill-opacity="1" fill="#fcf3d3"></path><g id="SvgjsG1051"><text id="SvgjsText1052" font-family="&quot;Microsoft YaHei&quot;, 微软雅黑, Arial" text-anchor="middle" font-size="13px" width="68px" fill="#323232" font-weight="400" align="middle" lineHeight="125%" anchor="middle" family="&quot;Microsoft YaHei&quot;, 微软雅黑, Arial" size="13px" weight="400" font-style="" opacity="1" y="-0.625" transform="rotate(0)"><tspan id="SvgjsTspan1053" dy="16.25" x="44"><tspan id="SvgjsTspan1054" style="">checkpoint</tspan></tspan></text></g></g><g id="SvgjsG1055"><path id="SvgjsPath1056" d="M107.35330032249018 45.75L107.35330032249018 101.30000000000001" stroke="#d4bd63" stroke-width="1.5" fill="none" marker-end="url(#SvgjsMarker1057)"></path></g><g id="SvgjsG1059" transform="translate(102.85330032249016,279)"><path id="SvgjsPath1060" d="M 0 4Q 0 0 4 0L 70.50000000000003 0Q 74.50000000000003 0 74.50000000000003 4L 74.50000000000003 16Q 74.50000000000003 20 70.50000000000003 20L 4 20Q 0 20 0 16Z" stroke="rgba(200,186,144,1)" stroke-width="1.5" fill-opacity="1" fill="#e0eadb"></path><g id="SvgjsG1061"><text id="SvgjsText1062" font-family="&quot;Microsoft YaHei&quot;, 微软雅黑, Arial" text-anchor="middle" font-size="13px" width="55px" fill="#323232" font-weight="400" align="middle" lineHeight="125%" anchor="middle" family="&quot;Microsoft YaHei&quot;, 微软雅黑, Arial" size="13px" weight="400" font-style="" opacity="1" y="-0.625" transform="rotate(0)"><tspan id="SvgjsTspan1063" dy="16.25" x="37.5"><tspan id="SvgjsTspan1064" style="">write pos</tspan></tspan></text></g></g><g id="SvgjsG1065"><path id="SvgjsPath1066" d="M140.10330032249018 278.25L140.10330032249018 226.87157287525378" stroke="#a2b574" stroke-width="1.5" fill="none" marker-end="url(#SvgjsMarker1067)"></path></g><g id="SvgjsG1069"><path id="SvgjsPath1070" d="M152.10296741379383 35.02234395256647C 185.81310589337497 35.601498143653544 217.35330032249018 38 231.35330032249018 67" stroke-dasharray="7.5,3" stroke="#323232" stroke-width="1.5" fill="none" marker-end="url(#SvgjsMarker1071)"></path><rect id="SvgjsRect1073" width="26" height="18" x="177.529864420834" y="29.176673491812686" fill="#ffffff"></rect><text id="SvgjsText1074" font-family="&quot;Microsoft YaHei&quot;, 微软雅黑, Arial" text-anchor="middle" font-size="13px" width="26px" fill="#323232" font-weight="400" align="top" lineHeight="16px" anchor="middle" family="&quot;Microsoft YaHei&quot;, 微软雅黑, Arial" size="13px" weight="400" font-style="" opacity="1" y="26.551673491812686" transform="rotate(0)"><tspan id="SvgjsTspan1075" dy="16.25" x="190.529864420834"><tspan id="SvgjsTspan1076" style="">后移</tspan></tspan></text></g><g id="SvgjsG1077"><path id="SvgjsPath1078" d="M102.10399574397943 288.9677099299648C 74.81403390911106 289.4894272157851 49.353300322490185 280 37.353300322490185 264" stroke-dasharray="7.5,3" stroke="#323232" stroke-width="1.5" fill="none" marker-end="url(#SvgjsMarker1079)"></path><rect id="SvgjsRect1081" width="26" height="18" x="48.32600979966119" y="272.6063567478964" fill="#ffffff"></rect><text id="SvgjsText1082" font-family="&quot;Microsoft YaHei&quot;, 微软雅黑, Arial" text-anchor="middle" font-size="13px" width="26px" fill="#323232" font-weight="400" align="top" lineHeight="16px" anchor="middle" family="&quot;Microsoft YaHei&quot;, 微软雅黑, Arial" size="13px" weight="400" font-style="" opacity="1" y="269.9813567478964" transform="rotate(0)"><tspan id="SvgjsTspan1083" dy="16.25" x="61.32600979966119"><tspan id="SvgjsTspan1084" style="">后移</tspan></tspan></text></g><g id="SvgjsG1085"></g></svg>