<svg id="SvgjsSvg1006" width="925.2728695824769" height="468.00847457627134" xmlns="http://www.w3.org/2000/svg" version="1.1" xmlns:xlink="http://www.w3.org/1999/xlink" xmlns:svgjs="http://svgjs.com/svgjs"><defs id="SvgjsDefs1007"><pattern patternUnits="userSpaceOnUse" id="pattern_mark_0" width="300" height="300"><text x="150" y="100" fill="rgba(229,229,229,0.8)" font-size="18" transform="rotate(-45, 150, 150)" style="dominant-baseline: middle; text-anchor: middle;"></text></pattern><pattern patternUnits="userSpaceOnUse" id="pattern_mark_1" width="300" height="300"><text x="150" y="200" fill="rgba(229,229,229,0.8)" font-size="18" transform="rotate(-45, 150, 150)" style="dominant-baseline: middle; text-anchor: middle;"></text></pattern><marker id="SvgjsMarker1135" markerWidth="13" markerHeight="9" refX="3.5" refY="4.5" viewBox="0 0 13 9" orient="0" markerUnits="userSpaceOnUse" stroke-dasharray="0,0"><path id="SvgjsPath1136" d="M13,0 L0,4.5 L13,9 L13,0" fill="#73a0cb" stroke="#73a0cb" stroke-width="1"></path></marker><marker id="SvgjsMarker1137" markerWidth="13" markerHeight="9" refX="9.5" refY="4.5" viewBox="0 0 13 9" orient="auto" markerUnits="userSpaceOnUse" stroke-dasharray="0,0"><path id="SvgjsPath1138" d="M0,0 L13,4.5 L0,9 L0,0" fill="#73a0cb" stroke="#73a0cb" stroke-width="1"></path></marker><marker id="SvgjsMarker1292" markerWidth="13" markerHeight="9" refX="3.5" refY="4.5" viewBox="0 0 13 9" orient="0" markerUnits="userSpaceOnUse" stroke-dasharray="0,0"><path id="SvgjsPath1293" d="M13,0 L0,4.5 L13,9 L13,0" fill="#73a0cb" stroke="#73a0cb" stroke-width="1"></path></marker><marker id="SvgjsMarker1294" markerWidth="13" markerHeight="9" refX="9.5" refY="4.5" viewBox="0 0 13 9" orient="auto" markerUnits="userSpaceOnUse" stroke-dasharray="0,0"><path id="SvgjsPath1295" d="M0,0 L13,4.5 L0,9 L0,0" fill="#73a0cb" stroke="#73a0cb" stroke-width="1"></path></marker><marker id="SvgjsMarker1313" markerWidth="14" markerHeight="10" refX="10" refY="5" viewBox="0 0 14 10" orient="auto" markerUnits="userSpaceOnUse" stroke-dasharray="0,0"><path id="SvgjsPath1314" d="M0,0 L14,5 L0,10 L0,0" fill="#d2d6f9" stroke="#d2d6f9" stroke-width="1"></path></marker><marker id="SvgjsMarker1323" markerWidth="16" markerHeight="12" refX="11" refY="6" viewBox="0 0 16 12" orient="auto" markerUnits="userSpaceOnUse" stroke-dasharray="0,0"><path id="SvgjsPath1324" d="M0,0 L16,6 L0,12 L0,0" fill="#a7932c" stroke="#a7932c" stroke-width="1"></path></marker></defs><rect id="svgbackgroundid" width="925.2728695824769" height="468.00847457627134" fill="transparent"></rect><rect id="SvgjsRect1009" width="925.2728695824769" height="468.00847457627134" fill="url(#pattern_mark_0)"></rect><rect id="SvgjsRect1010" width="925.2728695824769" height="468.00847457627134" fill="url(#pattern_mark_1)"></rect><g id="SvgjsG1011" transform="translate(483.24415443096166,25)"><path id="SvgjsPath1012" d="M 0 0L 404.16507878787877 0L 404.16507878787877 155.83333333333334L 0 155.83333333333334Z" stroke="rgba(244,193,143,1)" stroke-width="1.5" fill-opacity="1" fill="#ffffff"></path><g id="SvgjsG1013"><text id="SvgjsText1014" font-family="&quot;Microsoft YaHei&quot;, 微软雅黑, Arial" text-anchor="middle" font-size="13px" width="385px" fill="#323232" font-weight="400" align="middle" lineHeight="125%" anchor="middle" family="&quot;Microsoft YaHei&quot;, 微软雅黑, Arial" size="13px" weight="400" font-style="" opacity="1" y="67.29166666666667" transform="rotate(0)"></text></g></g><g id="SvgjsG1015" transform="translate(82.95468776429502,100)"><path id="SvgjsPath1016" d="M0 0L50.02453456 0L50.02453456 20 L0 20Z" stroke="rgba(102, 102, 102,1)" stroke-width="1" fill-opacity="1" fill="#e0ead9"></path><path id="SvgjsPath1017" d="M50.02453456 0L100.04906912 0L100.04906912 20 L50.02453456 20Z" stroke="rgba(102, 102, 102,1)" stroke-width="1" fill-opacity="1" fill="#e0ead9"></path><path id="SvgjsPath1018" d="M100.04906912 0L150.07360368 0L150.07360368 20 L100.04906912 20Z" stroke="rgba(102, 102, 102,1)" stroke-width="1" fill-opacity="1" fill="#e0ead9"></path><path id="SvgjsPath1019" d="M150.07360368000002 0L200.09813824000003 0L200.09813824000003 20 L150.07360368000002 20Z" stroke="rgba(102, 102, 102,1)" stroke-width="1" fill-opacity="1" fill="#e0ead9"></path><path id="SvgjsPath1020" d="M200.09813824 0L250.1226728 0L250.1226728 20 L200.09813824 20Z" stroke="rgba(102, 102, 102,1)" stroke-width="1" fill-opacity="1" fill="#b4c4e9"></path><path id="SvgjsPath1021" d="M250.12267279999998 0L300.0972328 0L300.0972328 20 L250.12267279999998 20Z" stroke="rgba(102, 102, 102,1)" stroke-width="1" fill-opacity="1" fill="#b4c4e9"></path><path id="SvgjsPath1022" d="M300.14720736000004 0L350.0717928 0L350.0717928 20 L300.14720736000004 20Z" stroke="rgba(102, 102, 102,1)" stroke-width="1" fill-opacity="1" fill="#f8e293"></path><path id="SvgjsPath1023" d="M350.0717928 0L399.99637824 0L399.99637824 20 L350.0717928 20Z" stroke="rgba(102, 102, 102,1)" stroke-width="1" fill-opacity="1" fill="#f8e293"></path><path id="SvgjsPath1024" d="M399.99637824 0L449.82101456000004 0L449.82101456000004 20 L399.99637824 20Z" stroke="rgba(102, 102, 102,1)" stroke-width="1" fill-opacity="1" fill="#f7cda8"></path><path id="SvgjsPath1025" d="M449.87098912000005 0L499.7456 0L499.7456 20 L449.87098912000005 20Z" stroke="rgba(102, 102, 102,1)" stroke-width="1" fill-opacity="1" fill="#f7cda8"></path><g id="SvgjsG1026"><text id="SvgjsText1027" font-family="&quot;Microsoft YaHei&quot;, 微软雅黑, Arial" text-anchor="middle" font-size="16px" width="51px" fill="#323232" font-weight="400" align="middle" lineHeight="125%" anchor="middle" family="&quot;Microsoft YaHei&quot;, 微软雅黑, Arial" size="16px" weight="400" font-style="" opacity="1" y="-4" transform="rotate(0)"><tspan id="SvgjsTspan1028" dy="20" x="25.5"><tspan id="SvgjsTspan1029" style="">CA</tspan></tspan></text></g><g id="SvgjsG1030"><text id="SvgjsText1031" font-family="&quot;Microsoft YaHei&quot;, 微软雅黑, Arial" text-anchor="middle" font-size="16px" width="51px" fill="#323232" font-weight="400" align="middle" lineHeight="125%" anchor="middle" family="&quot;Microsoft YaHei&quot;, 微软雅黑, Arial" size="16px" weight="400" font-style="" opacity="1" y="-4" transform="rotate(0)"><tspan id="SvgjsTspan1032" dy="20" x="75.52453456"><tspan id="SvgjsTspan1033" style="">FE</tspan></tspan></text></g><g id="SvgjsG1034"><text id="SvgjsText1035" font-family="&quot;Microsoft YaHei&quot;, 微软雅黑, Arial" text-anchor="middle" font-size="16px" width="51px" fill="#323232" font-weight="400" align="middle" lineHeight="125%" anchor="middle" family="&quot;Microsoft YaHei&quot;, 微软雅黑, Arial" size="16px" weight="400" font-style="" opacity="1" y="-4" transform="rotate(0)"><tspan id="SvgjsTspan1036" dy="20" x="125.54906912"><tspan id="SvgjsTspan1037" style="">BA</tspan></tspan></text></g><g id="SvgjsG1038"><text id="SvgjsText1039" font-family="&quot;Microsoft YaHei&quot;, 微软雅黑, Arial" text-anchor="middle" font-size="16px" width="51px" fill="#323232" font-weight="400" align="middle" lineHeight="125%" anchor="middle" family="&quot;Microsoft YaHei&quot;, 微软雅黑, Arial" size="16px" weight="400" font-style="" opacity="1" y="-4" transform="rotate(0)"><tspan id="SvgjsTspan1040" dy="20" x="175.57360368000002"><tspan id="SvgjsTspan1041" style="">BE</tspan></tspan></text></g><g id="SvgjsG1042"><text id="SvgjsText1043" font-family="&quot;Microsoft YaHei&quot;, 微软雅黑, Arial" text-anchor="middle" font-size="16px" width="51px" fill="#323232" font-weight="400" align="middle" lineHeight="125%" anchor="middle" family="&quot;Microsoft YaHei&quot;, 微软雅黑, Arial" size="16px" weight="400" font-style="" opacity="1" y="-4" transform="rotate(0)"></text></g><g id="SvgjsG1044"><text id="SvgjsText1045" font-family="&quot;Microsoft YaHei&quot;, 微软雅黑, Arial" text-anchor="middle" font-size="16px" width="50px" fill="#323232" font-weight="400" align="middle" lineHeight="125%" anchor="middle" family="&quot;Microsoft YaHei&quot;, 微软雅黑, Arial" size="16px" weight="400" font-style="" opacity="1" y="-4" transform="rotate(0)"></text></g><g id="SvgjsG1046"><text id="SvgjsText1047" font-family="&quot;Microsoft YaHei&quot;, 微软雅黑, Arial" text-anchor="middle" font-size="16px" width="50px" fill="#323232" font-weight="400" align="middle" lineHeight="125%" anchor="middle" family="&quot;Microsoft YaHei&quot;, 微软雅黑, Arial" size="16px" weight="400" font-style="" opacity="1" y="-4" transform="rotate(0)"></text></g><g id="SvgjsG1048"><text id="SvgjsText1049" font-family="&quot;Microsoft YaHei&quot;, 微软雅黑, Arial" text-anchor="middle" font-size="16px" width="50px" fill="#323232" font-weight="400" align="middle" lineHeight="125%" anchor="middle" family="&quot;Microsoft YaHei&quot;, 微软雅黑, Arial" size="16px" weight="400" font-style="" opacity="1" y="-4" transform="rotate(0)"></text></g><g id="SvgjsG1050"><text id="SvgjsText1051" font-family="&quot;Microsoft YaHei&quot;, 微软雅黑, Arial" text-anchor="middle" font-size="16px" width="50px" fill="#323232" font-weight="400" align="middle" lineHeight="125%" anchor="middle" family="&quot;Microsoft YaHei&quot;, 微软雅黑, Arial" size="16px" weight="400" font-style="" opacity="1" y="-4" transform="rotate(0)"></text></g><g id="SvgjsG1052"><text id="SvgjsText1053" font-family="&quot;Microsoft YaHei&quot;, 微软雅黑, Arial" text-anchor="middle" font-size="16px" width="50px" fill="#323232" font-weight="400" align="middle" lineHeight="125%" anchor="middle" family="&quot;Microsoft YaHei&quot;, 微软雅黑, Arial" size="16px" weight="400" font-style="" opacity="1" y="-4" transform="rotate(0)"></text></g></g><g id="SvgjsG1054" transform="translate(83.53046655217389,302.50000000000006)"><path id="SvgjsPath1055" d="M0 0L50.00398371 0L50.00398371 20 L0 20Z" stroke="rgba(102, 102, 102,1)" stroke-width="1" fill-opacity="1" fill="#ebedeb"></path><path id="SvgjsPath1056" d="M50.00398371 0L100.00796742 0L100.00796742 20 L50.00398371 20Z" stroke="rgba(102, 102, 102,1)" stroke-width="1" fill-opacity="1" fill="#ebedeb"></path><path id="SvgjsPath1057" d="M100.00796742 0L150.01195113 0L150.01195113 20 L100.00796742 20Z" stroke="rgba(102, 102, 102,1)" stroke-width="1" fill-opacity="1" fill="#dbdadc"></path><path id="SvgjsPath1058" d="M150.01195113000003 0L199.97596363000002 0L199.97596363000002 20 L150.01195113000003 20Z" stroke="rgba(102, 102, 102,1)" stroke-width="1" fill-opacity="1" fill="#dbdadc"></path><path id="SvgjsPath1059" d="M199.97596363 0L249.90000492 0L249.90000492 20 L199.97596363 20Z" stroke="rgba(102, 102, 102,1)" stroke-width="1" fill-opacity="1" fill="#c2dbb6"></path><path id="SvgjsPath1060" d="M249.90000492000001 0L299.82404621 0L299.82404621 20 L249.90000492000001 20Z" stroke="rgba(102, 102, 102,1)" stroke-width="1" fill-opacity="1" fill="#c2dbb6"></path><path id="SvgjsPath1061" d="M299.82404621 0L349.66814508 0L349.66814508 20 L299.82404621 20Z" stroke="rgba(102, 102, 102,1)" stroke-width="1" fill-opacity="1" fill="#a4c78c"></path><path id="SvgjsPath1062" d="M349.66814508000004 0L399.7121 0L399.7121 20 L349.66814508000004 20Z" stroke="rgba(102, 102, 102,1)" stroke-width="1" fill-opacity="1" fill="#a4c78c"></path><g id="SvgjsG1063"><text id="SvgjsText1064" font-family="&quot;Microsoft YaHei&quot;, 微软雅黑, Arial" text-anchor="middle" font-size="16px" width="51px" fill="#323232" font-weight="400" align="middle" lineHeight="125%" anchor="middle" family="&quot;Microsoft YaHei&quot;, 微软雅黑, Arial" size="16px" weight="400" font-style="" opacity="1" y="-4" transform="rotate(0)"></text></g><g id="SvgjsG1065"><text id="SvgjsText1066" font-family="&quot;Microsoft YaHei&quot;, 微软雅黑, Arial" text-anchor="middle" font-size="16px" width="51px" fill="#323232" font-weight="400" align="middle" lineHeight="125%" anchor="middle" family="&quot;Microsoft YaHei&quot;, 微软雅黑, Arial" size="16px" weight="400" font-style="" opacity="1" y="-4" transform="rotate(0)"></text></g><g id="SvgjsG1067"><text id="SvgjsText1068" font-family="&quot;Microsoft YaHei&quot;, 微软雅黑, Arial" text-anchor="middle" font-size="16px" width="51px" fill="#323232" font-weight="400" align="middle" lineHeight="125%" anchor="middle" family="&quot;Microsoft YaHei&quot;, 微软雅黑, Arial" size="16px" weight="400" font-style="" opacity="1" y="-4" transform="rotate(0)"></text></g><g id="SvgjsG1069"><text id="SvgjsText1070" font-family="&quot;Microsoft YaHei&quot;, 微软雅黑, Arial" text-anchor="middle" font-size="16px" width="50px" fill="#323232" font-weight="400" align="middle" lineHeight="125%" anchor="middle" family="&quot;Microsoft YaHei&quot;, 微软雅黑, Arial" size="16px" weight="400" font-style="" opacity="1" y="-4" transform="rotate(0)"></text></g><g id="SvgjsG1071"><text id="SvgjsText1072" font-family="&quot;Microsoft YaHei&quot;, 微软雅黑, Arial" text-anchor="middle" font-size="16px" width="50px" fill="#323232" font-weight="400" align="middle" lineHeight="125%" anchor="middle" family="&quot;Microsoft YaHei&quot;, 微软雅黑, Arial" size="16px" weight="400" font-style="" opacity="1" y="-4" transform="rotate(0)"></text></g><g id="SvgjsG1073"><text id="SvgjsText1074" font-family="&quot;Microsoft YaHei&quot;, 微软雅黑, Arial" text-anchor="middle" font-size="16px" width="50px" fill="#323232" font-weight="400" align="middle" lineHeight="125%" anchor="middle" family="&quot;Microsoft YaHei&quot;, 微软雅黑, Arial" size="16px" weight="400" font-style="" opacity="1" y="-4" transform="rotate(0)"></text></g><g id="SvgjsG1075"><text id="SvgjsText1076" font-family="&quot;Microsoft YaHei&quot;, 微软雅黑, Arial" text-anchor="middle" font-size="16px" width="50px" fill="#323232" font-weight="400" align="middle" lineHeight="125%" anchor="middle" family="&quot;Microsoft YaHei&quot;, 微软雅黑, Arial" size="16px" weight="400" font-style="" opacity="1" y="-4" transform="rotate(0)"></text></g><g id="SvgjsG1077"><text id="SvgjsText1078" font-family="&quot;Microsoft YaHei&quot;, 微软雅黑, Arial" text-anchor="middle" font-size="16px" width="51px" fill="#323232" font-weight="400" align="middle" lineHeight="125%" anchor="middle" family="&quot;Microsoft YaHei&quot;, 微软雅黑, Arial" size="16px" weight="400" font-style="" opacity="1" y="-4" transform="rotate(0)"></text></g></g><g id="SvgjsG1079" transform="translate(630.6202295824768,100)"><path id="SvgjsPath1080" d="M0 0L70 0L70 20 L0 20Z" stroke="rgba(102, 102, 102,1)" stroke-width="1" fill-opacity="1" fill="#e0ead9"></path><g id="SvgjsG1081"><text id="SvgjsText1082" font-family="&quot;Microsoft YaHei&quot;, 微软雅黑, Arial" text-anchor="middle" font-size="16px" width="70px" fill="#a57213" font-weight="400" align="middle" lineHeight="125%" anchor="middle" family="&quot;Microsoft YaHei&quot;, 微软雅黑, Arial" size="16px" weight="400" font-style="" opacity="1" y="-4" transform="rotate(0)"><tspan id="SvgjsTspan1083" dy="20" x="35"><tspan id="SvgjsTspan1084" style="">cp_info</tspan></tspan></text></g></g><g id="SvgjsG1085" transform="translate(748.5401714006587,100)"><path id="SvgjsPath1086" d="M0 0L70 0L70 20 L0 20Z" stroke="rgba(102, 102, 102,1)" stroke-width="1" fill-opacity="1" fill="#e0ead9"></path><g id="SvgjsG1087"><text id="SvgjsText1088" font-family="&quot;Microsoft YaHei&quot;, 微软雅黑, Arial" text-anchor="middle" font-size="16px" width="70px" fill="#a57213" font-weight="400" align="middle" lineHeight="125%" anchor="middle" family="&quot;Microsoft YaHei&quot;, 微软雅黑, Arial" size="16px" weight="400" font-style="" opacity="1" y="-4" transform="rotate(0)"><tspan id="SvgjsTspan1089" dy="20" x="35"><tspan id="SvgjsTspan1090" style="">cp_info</tspan></tspan></text></g></g><g id="SvgjsG1091" transform="translate(594.4329859461131,100)"><path id="SvgjsPath1092" d="M 0 0L 24.454545454545382 0L 24.454545454545382 20L 0 20Z" stroke="none" fill="none"></path><g id="SvgjsG1093"><text id="SvgjsText1094" font-family="&quot;Microsoft YaHei&quot;, 微软雅黑, Arial" text-anchor="middle" font-size="14px" width="25px" fill="#a6aef3" font-weight="400" align="middle" lineHeight="125%" anchor="middle" family="&quot;Microsoft YaHei&quot;, 微软雅黑, Arial" size="14px" weight="400" font-style="" opacity="1" y="-1.75" transform="rotate(0)"><tspan id="SvgjsTspan1095" dy="17.5" x="12.5"><tspan id="SvgjsTspan1096" style="">•••</tspan></tspan></text></g></g><g id="SvgjsG1097" transform="translate(712.352927764295,100)"><path id="SvgjsPath1098" d="M 0 0L 24.454545454545382 0L 24.454545454545382 20L 0 20Z" stroke="none" fill="none"></path><g id="SvgjsG1099"><text id="SvgjsText1100" font-family="&quot;Microsoft YaHei&quot;, 微软雅黑, Arial" text-anchor="middle" font-size="14px" width="25px" fill="#a6aef3" font-weight="400" align="middle" lineHeight="125%" anchor="middle" family="&quot;Microsoft YaHei&quot;, 微软雅黑, Arial" size="14px" weight="400" font-style="" opacity="1" y="-1.75" transform="rotate(0)"><tspan id="SvgjsTspan1101" dy="17.5" x="12.5"><tspan id="SvgjsTspan1102" style="">•••</tspan></tspan></text></g></g><g id="SvgjsG1103" transform="translate(830.2728695824769,100)"><path id="SvgjsPath1104" d="M 0 0L 24.454545454545382 0L 24.454545454545382 20L 0 20Z" stroke="none" fill="none"></path><g id="SvgjsG1105"><text id="SvgjsText1106" font-family="&quot;Microsoft YaHei&quot;, 微软雅黑, Arial" text-anchor="middle" font-size="14px" width="25px" fill="#a6aef3" font-weight="400" align="middle" lineHeight="125%" anchor="middle" family="&quot;Microsoft YaHei&quot;, 微软雅黑, Arial" size="14px" weight="400" font-style="" opacity="1" y="-1.75" transform="rotate(0)"><tspan id="SvgjsTspan1107" dy="17.5" x="12.5"><tspan id="SvgjsTspan1108" style="">•••</tspan></tspan></text></g></g><g id="SvgjsG1109" transform="matrix(-1.8369701987210297e-16,-1,1,-1.8369701987210297e-16,83.24256896972659,242.50000000000003)"><path id="SvgjsPath1110" d="M 120 0Q 111 0 111 9L 111 89.74999999999999Q 111 98.74999999999999 98 98.74999999999999Q 111 98.74999999999999 111 107.74999999999999L 111 188.49999999999997Q 111 197.49999999999997 120 197.49999999999997" stroke="rgba(215,214,215,1)" stroke-width="1.5" fill="none"></path><path id="SvgjsPath1111" d="M 0 0L 120 0L 120 197.49999999999997L 0 197.49999999999997Z" stroke="none" fill="none"></path><g id="SvgjsG1112"><text id="SvgjsText1113" font-family="&quot;Microsoft YaHei&quot;, 微软雅黑, Arial" text-anchor="end" font-size="13px" width="93px" fill="#323232" font-weight="400" align="middle" lineHeight="125%" anchor="end" family="&quot;Microsoft YaHei&quot;, 微软雅黑, Arial" size="13px" weight="400" font-style="" opacity="1" y="88.12499999999999" transform="rotate(0)"></text></g></g><g id="SvgjsG1114" transform="matrix(-1.8369701987210297e-16,-1,1,-1.8369701987210297e-16,282.4092305501302,242.499994913737)"><path id="SvgjsPath1115" d="M 120 0Q 111 0 111 9L 111 41.4166666666667Q 111 50.4166666666667 98 50.4166666666667Q 111 50.4166666666667 111 59.4166666666667L 111 91.8333333333334Q 111 100.8333333333334 120 100.8333333333334" stroke="rgba(215,214,215,1)" stroke-width="1.5" fill="none"></path><path id="SvgjsPath1116" d="M 0 0L 120 0L 120 100.8333333333334L 0 100.8333333333334Z" stroke="none" fill="none"></path><g id="SvgjsG1117"><text id="SvgjsText1118" font-family="&quot;Microsoft YaHei&quot;, 微软雅黑, Arial" text-anchor="end" font-size="13px" width="93px" fill="#323232" font-weight="400" align="middle" lineHeight="125%" anchor="end" family="&quot;Microsoft YaHei&quot;, 微软雅黑, Arial" size="13px" weight="400" font-style="" opacity="1" y="39.7916666666667" transform="rotate(0)"></text></g></g><g id="SvgjsG1119" transform="matrix(-1.8369701987210297e-16,-1,1,-1.8369701987210297e-16,384.0758870442708,242.499994913737)"><path id="SvgjsPath1120" d="M 120 0Q 111 0 111 9L 111 40.166666666666686Q 111 49.166666666666686 98 49.166666666666686Q 111 49.166666666666686 111 58.166666666666686L 111 89.33333333333337Q 111 98.33333333333337 120 98.33333333333337" stroke="rgba(215,214,215,1)" stroke-width="1.5" fill="none"></path><path id="SvgjsPath1121" d="M 0 0L 120 0L 120 98.33333333333337L 0 98.33333333333337Z" stroke="none" fill="none"></path><g id="SvgjsG1122"><text id="SvgjsText1123" font-family="&quot;Microsoft YaHei&quot;, 微软雅黑, Arial" text-anchor="end" font-size="13px" width="93px" fill="#323232" font-weight="400" align="middle" lineHeight="125%" anchor="end" family="&quot;Microsoft YaHei&quot;, 微软雅黑, Arial" size="13px" weight="400" font-style="" opacity="1" y="38.541666666666686" transform="rotate(0)"></text></g></g><g id="SvgjsG1124" transform="matrix(-1.8369701987210297e-16,-1,1,-1.8369701987210297e-16,484.0758870442708,242.499994913737)"><path id="SvgjsPath1125" d="M 120 0Q 111 0 111 9L 111 40.166666666666686Q 111 49.166666666666686 98 49.166666666666686Q 111 49.166666666666686 111 58.166666666666686L 111 89.33333333333337Q 111 98.33333333333337 120 98.33333333333337" stroke="rgba(215,214,215,1)" stroke-width="1.5" fill="none"></path><path id="SvgjsPath1126" d="M 0 0L 120 0L 120 98.33333333333337L 0 98.33333333333337Z" stroke="none" fill="none"></path><g id="SvgjsG1127"><text id="SvgjsText1128" font-family="&quot;Microsoft YaHei&quot;, 微软雅黑, Arial" text-anchor="end" font-size="13px" width="93px" fill="#323232" font-weight="400" align="middle" lineHeight="125%" anchor="end" family="&quot;Microsoft YaHei&quot;, 微软雅黑, Arial" size="13px" weight="400" font-style="" opacity="1" y="38.541666666666686" transform="rotate(0)"></text></g></g><g id="SvgjsG1129"><path id="SvgjsPath1130" d="M584.0758998855072 121.83333333333334L584.0758998855072 86.83333333333334L584.0758998855072 86.83333333333334L584.0758998855072 51.83333333333334" stroke="#73a0cb" stroke-width="1.5" fill="none"></path></g><g id="SvgjsG1131"><path id="SvgjsPath1132" d="M859.9092332188405 122.33333333333337L859.9092332188405 87.33333333333336L859.9092332188405 87.33333333333336L859.9092332188405 52.33333333333334" stroke="#73a0cb" stroke-width="1.5" fill="none"></path></g><g id="SvgjsG1133"><path id="SvgjsPath1134" d="M586.575899885507 60.1666666666666L721.9925665521737 60.1666666666666L721.9925665521737 60.1666666666666L857.4092332188404 60.1666666666666" stroke="#73a0cb" stroke-width="1.5" fill="none" marker-start="url(#SvgjsMarker1135)" marker-end="url(#SvgjsMarker1137)"></path><rect id="SvgjsRect1139" width="201" height="18" x="626.6164404260476" y="51.1666666666666" fill="#ffffff"></rect><text id="SvgjsText1140" font-family="&quot;Microsoft YaHei&quot;, 微软雅黑, Arial" text-anchor="middle" font-size="13px" width="201px" fill="#323232" font-weight="400" align="top" lineHeight="16px" anchor="middle" family="&quot;Microsoft YaHei&quot;, 微软雅黑, Arial" size="13px" weight="400" font-style="" opacity="1" y="48.5416666666666" transform="rotate(0)"><tspan id="SvgjsTspan1141" dy="16.25" x="727.1164404260476"><tspan id="SvgjsTspan1142" style="">constant_pool_count个cp_info结构</tspan></tspan></text></g><g id="SvgjsG1143" transform="matrix(-1.8369701987210297e-16,-1,1,-1.8369701987210297e-16,583.2425944010416,242.50000127156582)"><path id="SvgjsPath1144" d="M 120 0Q 111 0 111 9L 111 129.33333333333337Q 111 138.33333333333337 98 138.33333333333337Q 111 138.33333333333337 111 147.33333333333337L 111 267.66666666666674Q 111 276.66666666666674 120 276.66666666666674" stroke="rgba(215,214,215,1)" stroke-width="1.5" fill="none"></path><path id="SvgjsPath1145" d="M 0 0L 120 0L 120 276.66666666666674L 0 276.66666666666674Z" stroke="none" fill="none"></path><g id="SvgjsG1146"><text id="SvgjsText1147" font-family="&quot;Microsoft YaHei&quot;, 微软雅黑, Arial" text-anchor="end" font-size="13px" width="93px" fill="#323232" font-weight="400" align="middle" lineHeight="125%" anchor="end" family="&quot;Microsoft YaHei&quot;, 微软雅黑, Arial" size="13px" weight="400" font-style="" opacity="1" y="127.70833333333337" transform="rotate(0)"></text></g></g><g id="SvgjsG1148" transform="translate(132.40923321884046,140.83333333333334)"><path id="SvgjsPath1149" d="M 0 0L 100 0L 100 40L 0 40Z" stroke="none" fill="none"></path><g id="SvgjsG1150"><text id="SvgjsText1151" font-family="&quot;Microsoft YaHei&quot;, 微软雅黑, Arial" text-anchor="middle" font-size="12px" width="100px" fill="#323232" font-weight="400" align="middle" lineHeight="125%" anchor="middle" family="&quot;Microsoft YaHei&quot;, 微软雅黑, Arial" size="12px" weight="400" font-style="" opacity="1" y="2.5" transform="rotate(0)"><tspan id="SvgjsTspan1152" dy="15" x="50"><tspan id="SvgjsTspan1153" style="">魔数</tspan></tspan><tspan id="SvgjsTspan1154" dy="15" x="50"><tspan id="SvgjsTspan1155" style="">[</tspan><tspan id="SvgjsTspan1156" style="fill: rgb(165, 114, 19);">magic</tspan><tspan id="SvgjsTspan1157" style="">]</tspan></tspan></text></g></g><g id="SvgjsG1158" transform="translate(282.8274877642951,140.83333333333334)"><path id="SvgjsPath1159" d="M 0 0L 100 0L 100 40L 0 40Z" stroke="none" fill="none"></path><g id="SvgjsG1160"><text id="SvgjsText1161" font-family="&quot;Microsoft YaHei&quot;, 微软雅黑, Arial" text-anchor="middle" font-size="12px" width="100px" fill="#323232" font-weight="400" align="middle" lineHeight="125%" anchor="middle" family="&quot;Microsoft YaHei&quot;, 微软雅黑, Arial" size="12px" weight="400" font-style="" opacity="1" y="2.5" transform="rotate(0)"><tspan id="SvgjsTspan1162" dy="15" x="50"><tspan id="SvgjsTspan1163" style="">副版本号</tspan></tspan><tspan id="SvgjsTspan1164" dy="15" x="50"><tspan id="SvgjsTspan1165" style="">[</tspan><tspan id="SvgjsTspan1166" style="fill: rgb(165, 114, 19);">minor_version</tspan><tspan id="SvgjsTspan1167" style="">]</tspan></tspan></text></g></g><g id="SvgjsG1168" transform="translate(383.2425665521739,140.83333333333334)"><path id="SvgjsPath1169" d="M 0 0L 100 0L 100 40L 0 40Z" stroke="none" fill="none"></path><g id="SvgjsG1170"><text id="SvgjsText1171" font-family="&quot;Microsoft YaHei&quot;, 微软雅黑, Arial" text-anchor="middle" font-size="12px" width="100px" fill="#323232" font-weight="400" align="middle" lineHeight="125%" anchor="middle" family="&quot;Microsoft YaHei&quot;, 微软雅黑, Arial" size="12px" weight="400" font-style="" opacity="1" y="2.5" transform="rotate(0)"><tspan id="SvgjsTspan1172" dy="15" x="50"><tspan id="SvgjsTspan1173" style="">主版本号</tspan></tspan><tspan id="SvgjsTspan1174" dy="15" x="50"><tspan id="SvgjsTspan1175" style="">[</tspan><tspan id="SvgjsTspan1176" style="fill: rgb(165, 114, 19);">major_version</tspan><tspan id="SvgjsTspan1177" style="">]</tspan></tspan></text></g></g><g id="SvgjsG1178" transform="translate(470.200287764295,136.33333333333334)"><path id="SvgjsPath1179" d="M 0 0L 128.8756121212122 0L 128.8756121212122 49L 0 49Z" stroke="none" fill="none"></path><g id="SvgjsG1180"><text id="SvgjsText1181" font-family="&quot;Microsoft YaHei&quot;, 微软雅黑, Arial" text-anchor="middle" font-size="12px" width="129px" fill="#323232" font-weight="400" align="middle" lineHeight="125%" anchor="middle" family="&quot;Microsoft YaHei&quot;, 微软雅黑, Arial" size="12px" weight="400" font-style="" opacity="1" y="7" transform="rotate(0)"><tspan id="SvgjsTspan1182" dy="15" x="64.5"><tspan id="SvgjsTspan1183" style="">常量池计数器</tspan></tspan><tspan id="SvgjsTspan1184" dy="15" x="64.5"><tspan id="SvgjsTspan1185" style="">[</tspan><tspan id="SvgjsTspan1186" style="fill: rgb(165, 114, 19);">constant_pool_count</tspan><tspan id="SvgjsTspan1187" style="">]</tspan></tspan></text></g></g><g id="SvgjsG1188" transform="translate(656.0336210976283,140.83333333333334)"><path id="SvgjsPath1189" d="M 0 0L 128.8756121212122 0L 128.8756121212122 40L 0 40Z" stroke="none" fill="none"></path><g id="SvgjsG1190"><text id="SvgjsText1191" font-family="&quot;Microsoft YaHei&quot;, 微软雅黑, Arial" text-anchor="middle" font-size="12px" width="129px" fill="#323232" font-weight="400" align="middle" lineHeight="125%" anchor="middle" family="&quot;Microsoft YaHei&quot;, 微软雅黑, Arial" size="12px" weight="400" font-style="" opacity="1" y="10" transform="rotate(0)"><tspan id="SvgjsTspan1192" dy="15" x="64.5"><tspan id="SvgjsTspan1193" style="">常量池数据区</tspan></tspan></text></g></g><g id="SvgjsG1194" transform="matrix(-1.8369701987210297e-16,-1,1,-1.8369701987210297e-16,82.40923055013019,442.50001017252606)"><path id="SvgjsPath1195" d="M 120 0Q 111 0 111 9L 111 41.4166666666667Q 111 50.4166666666667 98 50.4166666666667Q 111 50.4166666666667 111 59.4166666666667L 111 91.8333333333334Q 111 100.8333333333334 120 100.8333333333334" stroke="rgba(215,214,215,1)" stroke-width="1.5" fill="none"></path><path id="SvgjsPath1196" d="M 0 0L 120 0L 120 100.8333333333334L 0 100.8333333333334Z" stroke="none" fill="none"></path><g id="SvgjsG1197"><text id="SvgjsText1198" font-family="&quot;Microsoft YaHei&quot;, 微软雅黑, Arial" text-anchor="end" font-size="13px" width="93px" fill="#323232" font-weight="400" align="middle" lineHeight="125%" anchor="end" family="&quot;Microsoft YaHei&quot;, 微软雅黑, Arial" size="13px" weight="400" font-style="" opacity="1" y="39.7916666666667" transform="rotate(0)"></text></g></g><g id="SvgjsG1199" transform="translate(82.82748776429506,340.8333333333333)"><path id="SvgjsPath1200" d="M 0 0L 100 0L 100 40L 0 40Z" stroke="none" fill="none"></path><g id="SvgjsG1201"><text id="SvgjsText1202" font-family="&quot;Microsoft YaHei&quot;, 微软雅黑, Arial" text-anchor="middle" font-size="12px" width="100px" fill="#323232" font-weight="400" align="middle" lineHeight="125%" anchor="middle" family="&quot;Microsoft YaHei&quot;, 微软雅黑, Arial" size="12px" weight="400" font-style="" opacity="1" y="2.5" transform="rotate(0)"><tspan id="SvgjsTspan1203" dy="15" x="50"><tspan id="SvgjsTspan1204" style="">访问标志</tspan></tspan><tspan id="SvgjsTspan1205" dy="15" x="50"><tspan id="SvgjsTspan1206" style="">[</tspan><tspan id="SvgjsTspan1207" style="fill: rgb(165, 114, 19);">access_flags</tspan><tspan id="SvgjsTspan1208" style="">]</tspan></tspan></text></g></g><g id="SvgjsG1209" transform="matrix(-1.8369701987210297e-16,-1,1,-1.8369701987210297e-16,183.24257405598956,442.50001017252606)"><path id="SvgjsPath1210" d="M 120 0Q 111 0 111 9L 111 41.4166666666667Q 111 50.4166666666667 98 50.4166666666667Q 111 50.4166666666667 111 59.4166666666667L 111 91.8333333333334Q 111 100.8333333333334 120 100.8333333333334" stroke="rgba(215,214,215,1)" stroke-width="1.5" fill="none"></path><path id="SvgjsPath1211" d="M 0 0L 120 0L 120 100.8333333333334L 0 100.8333333333334Z" stroke="none" fill="none"></path><g id="SvgjsG1212"><text id="SvgjsText1213" font-family="&quot;Microsoft YaHei&quot;, 微软雅黑, Arial" text-anchor="end" font-size="13px" width="93px" fill="#323232" font-weight="400" align="middle" lineHeight="125%" anchor="end" family="&quot;Microsoft YaHei&quot;, 微软雅黑, Arial" size="13px" weight="400" font-style="" opacity="1" y="39.7916666666667" transform="rotate(0)"></text></g></g><g id="SvgjsG1214" transform="translate(183.6608210976284,340.8333333333333)"><path id="SvgjsPath1215" d="M 0 0L 100 0L 100 40L 0 40Z" stroke="none" fill="none"></path><g id="SvgjsG1216"><text id="SvgjsText1217" font-family="&quot;Microsoft YaHei&quot;, 微软雅黑, Arial" text-anchor="middle" font-size="12px" width="100px" fill="#323232" font-weight="400" align="middle" lineHeight="125%" anchor="middle" family="&quot;Microsoft YaHei&quot;, 微软雅黑, Arial" size="12px" weight="400" font-style="" opacity="1" y="2.5" transform="rotate(0)"><tspan id="SvgjsTspan1218" dy="15" x="50"><tspan id="SvgjsTspan1219" style="">类索引</tspan></tspan><tspan id="SvgjsTspan1220" dy="15" x="50"><tspan id="SvgjsTspan1221" style="">[</tspan><tspan id="SvgjsTspan1222" style="fill: rgb(165, 114, 19);">this_class</tspan><tspan id="SvgjsTspan1223" style="">]</tspan></tspan></text></g></g><g id="SvgjsG1224" transform="matrix(-1.8369701987210297e-16,-1,1,-1.8369701987210297e-16,282.4092305501302,442.50001017252606)"><path id="SvgjsPath1225" d="M 120 0Q 111 0 111 9L 111 41.4166666666667Q 111 50.4166666666667 98 50.4166666666667Q 111 50.4166666666667 111 59.4166666666667L 111 91.8333333333334Q 111 100.8333333333334 120 100.8333333333334" stroke="rgba(215,214,215,1)" stroke-width="1.5" fill="none"></path><path id="SvgjsPath1226" d="M 0 0L 120 0L 120 100.8333333333334L 0 100.8333333333334Z" stroke="none" fill="none"></path><g id="SvgjsG1227"><text id="SvgjsText1228" font-family="&quot;Microsoft YaHei&quot;, 微软雅黑, Arial" text-anchor="end" font-size="13px" width="93px" fill="#323232" font-weight="400" align="middle" lineHeight="125%" anchor="end" family="&quot;Microsoft YaHei&quot;, 微软雅黑, Arial" size="13px" weight="400" font-style="" opacity="1" y="39.7916666666667" transform="rotate(0)"></text></g></g><g id="SvgjsG1229" transform="translate(282.8274877642951,340.83333333333326)"><path id="SvgjsPath1230" d="M 0 0L 100 0L 100 40L 0 40Z" stroke="none" fill="none"></path><g id="SvgjsG1231"><text id="SvgjsText1232" font-family="&quot;Microsoft YaHei&quot;, 微软雅黑, Arial" text-anchor="middle" font-size="12px" width="100px" fill="#323232" font-weight="400" align="middle" lineHeight="125%" anchor="middle" family="&quot;Microsoft YaHei&quot;, 微软雅黑, Arial" size="12px" weight="400" font-style="" opacity="1" y="2.5" transform="rotate(0)"><tspan id="SvgjsTspan1233" dy="15" x="50"><tspan id="SvgjsTspan1234" style="">父类索引</tspan></tspan><tspan id="SvgjsTspan1235" dy="15" x="50"><tspan id="SvgjsTspan1236" style="">[</tspan><tspan id="SvgjsTspan1237" style="fill: rgb(165, 114, 19);">super_class</tspan><tspan id="SvgjsTspan1238" style="">]</tspan></tspan></text></g></g><g id="SvgjsG1239" transform="matrix(-1.8369701987210297e-16,-1,1,-1.8369701987210297e-16,382.8258870442708,442.50001017252606)"><path id="SvgjsPath1240" d="M 120 0Q 111 0 111 9L 111 41.4166666666667Q 111 50.4166666666667 98 50.4166666666667Q 111 50.4166666666667 111 59.4166666666667L 111 91.8333333333334Q 111 100.8333333333334 120 100.8333333333334" stroke="rgba(215,214,215,1)" stroke-width="1.5" fill="none"></path><path id="SvgjsPath1241" d="M 0 0L 120 0L 120 100.8333333333334L 0 100.8333333333334Z" stroke="none" fill="none"></path><g id="SvgjsG1242"><text id="SvgjsText1243" font-family="&quot;Microsoft YaHei&quot;, 微软雅黑, Arial" text-anchor="end" font-size="13px" width="93px" fill="#323232" font-weight="400" align="middle" lineHeight="125%" anchor="end" family="&quot;Microsoft YaHei&quot;, 微软雅黑, Arial" size="13px" weight="400" font-style="" opacity="1" y="39.7916666666667" transform="rotate(0)"></text></g></g><g id="SvgjsG1244" transform="translate(383.2441544309617,340.83333333333326)"><path id="SvgjsPath1245" d="M 0 0L 100 0L 100 40L 0 40Z" stroke="none" fill="none"></path><g id="SvgjsG1246"><text id="SvgjsText1247" font-family="&quot;Microsoft YaHei&quot;, 微软雅黑, Arial" text-anchor="middle" font-size="12px" width="100px" fill="#323232" font-weight="400" align="middle" lineHeight="125%" anchor="middle" family="&quot;Microsoft YaHei&quot;, 微软雅黑, Arial" size="12px" weight="400" font-style="" opacity="1" y="2.5" transform="rotate(0)"><tspan id="SvgjsTspan1248" dy="15" x="50"><tspan id="SvgjsTspan1249" style="">接口计数器</tspan></tspan><tspan id="SvgjsTspan1250" dy="15" x="50"><tspan id="SvgjsTspan1251" style="">[</tspan><tspan id="SvgjsTspan1252" style="fill: rgb(165, 114, 19);">interface_count</tspan><tspan id="SvgjsTspan1253" style="">]</tspan></tspan></text></g></g><g id="SvgjsG1254" transform="translate(523.5808084915677,302.50000000000006)"><path id="SvgjsPath1255" d="M0 0L50.01925000000002 0L50.01925000000002 20 L0 20Z" stroke="rgba(102, 102, 102,1)" stroke-width="1" fill-opacity="1" fill="#e1b246"></path><path id="SvgjsPath1256" d="M50.01925000000002 0L100.03850000000004 0L100.03850000000004 20 L50.01925000000002 20Z" stroke="rgba(102, 102, 102,1)" stroke-width="1" fill-opacity="1" fill="#e1b246"></path><g id="SvgjsG1257"><text id="SvgjsText1258" font-family="&quot;Microsoft YaHei&quot;, 微软雅黑, Arial" text-anchor="middle" font-size="16px" width="51px" fill="#323232" font-weight="400" align="middle" lineHeight="125%" anchor="middle" family="&quot;Microsoft YaHei&quot;, 微软雅黑, Arial" size="16px" weight="400" font-style="" opacity="1" y="-4" transform="rotate(0)"></text></g><g id="SvgjsG1259"><text id="SvgjsText1260" font-family="&quot;Microsoft YaHei&quot;, 微软雅黑, Arial" text-anchor="middle" font-size="16px" width="51px" fill="#323232" font-weight="400" align="middle" lineHeight="125%" anchor="middle" family="&quot;Microsoft YaHei&quot;, 微软雅黑, Arial" size="16px" weight="400" font-style="" opacity="1" y="-4" transform="rotate(0)"></text></g></g><g id="SvgjsG1261" transform="translate(491.3927481279315,302.50000000000006)"><path id="SvgjsPath1262" d="M 0 0L 24.454545454545382 0L 24.454545454545382 20L 0 20Z" stroke="none" fill="none"></path><g id="SvgjsG1263"><text id="SvgjsText1264" font-family="&quot;Microsoft YaHei&quot;, 微软雅黑, Arial" text-anchor="middle" font-size="14px" width="25px" fill="#a6aef3" font-weight="400" align="middle" lineHeight="125%" anchor="middle" family="&quot;Microsoft YaHei&quot;, 微软雅黑, Arial" size="14px" weight="400" font-style="" opacity="1" y="-1.75" transform="rotate(0)"><tspan id="SvgjsTspan1265" dy="17.5" x="12.5"><tspan id="SvgjsTspan1266" style="">•••</tspan></tspan></text></g></g><g id="SvgjsG1267" transform="translate(631.3528234006587,302.50000000000006)"><path id="SvgjsPath1268" d="M 0 0L 24.454545454545382 0L 24.454545454545382 20L 0 20Z" stroke="none" fill="none"></path><g id="SvgjsG1269"><text id="SvgjsText1270" font-family="&quot;Microsoft YaHei&quot;, 微软雅黑, Arial" text-anchor="middle" font-size="14px" width="25px" fill="#a6aef3" font-weight="400" align="middle" lineHeight="125%" anchor="middle" family="&quot;Microsoft YaHei&quot;, 微软雅黑, Arial" size="14px" weight="400" font-style="" opacity="1" y="-1.75" transform="rotate(0)"><tspan id="SvgjsTspan1271" dy="17.5" x="12.5"><tspan id="SvgjsTspan1272" style="">•••</tspan></tspan></text></g></g><g id="SvgjsG1273" transform="translate(771.3128986733859,302.50000000000006)"><path id="SvgjsPath1274" d="M 0 0L 24.454545454545382 0L 24.454545454545382 20L 0 20Z" stroke="none" fill="none"></path><g id="SvgjsG1275"><text id="SvgjsText1276" font-family="&quot;Microsoft YaHei&quot;, 微软雅黑, Arial" text-anchor="middle" font-size="14px" width="25px" fill="#a6aef3" font-weight="400" align="middle" lineHeight="125%" anchor="middle" family="&quot;Microsoft YaHei&quot;, 微软雅黑, Arial" size="14px" weight="400" font-style="" opacity="1" y="-1.75" transform="rotate(0)"><tspan id="SvgjsTspan1277" dy="17.5" x="12.5"><tspan id="SvgjsTspan1278" style="">•••</tspan></tspan></text></g></g><g id="SvgjsG1279" transform="translate(663.540883764295,302.50000000000006)"><path id="SvgjsPath1280" d="M0 0L50.01925000000002 0L50.01925000000002 20 L0 20Z" stroke="rgba(102, 102, 102,1)" stroke-width="1" fill-opacity="1" fill="#e1b246"></path><path id="SvgjsPath1281" d="M50.01925000000002 0L100.03850000000004 0L100.03850000000004 20 L50.01925000000002 20Z" stroke="rgba(102, 102, 102,1)" stroke-width="1" fill-opacity="1" fill="#e1b246"></path><g id="SvgjsG1282"><text id="SvgjsText1283" font-family="&quot;Microsoft YaHei&quot;, 微软雅黑, Arial" text-anchor="middle" font-size="16px" width="51px" fill="#323232" font-weight="400" align="middle" lineHeight="125%" anchor="middle" family="&quot;Microsoft YaHei&quot;, 微软雅黑, Arial" size="16px" weight="400" font-style="" opacity="1" y="-4" transform="rotate(0)"></text></g><g id="SvgjsG1284"><text id="SvgjsText1285" font-family="&quot;Microsoft YaHei&quot;, 微软雅黑, Arial" text-anchor="middle" font-size="16px" width="51px" fill="#323232" font-weight="400" align="middle" lineHeight="125%" anchor="middle" family="&quot;Microsoft YaHei&quot;, 微软雅黑, Arial" size="16px" weight="400" font-style="" opacity="1" y="-4" transform="rotate(0)"></text></g></g><g id="SvgjsG1286"><path id="SvgjsPath1287" d="M484.4037687379662 325.9644808743169L484.4037687379662 255.96448087431696" stroke="#73a0cb" stroke-width="1.5" fill="none"></path></g><g id="SvgjsG1288"><path id="SvgjsPath1289" d="M794.5677031641957 325.5710382513664L794.5677031641957 255.57103825136613" stroke="#73a0cb" stroke-width="1.5" fill="none"></path></g><g id="SvgjsG1290"><path id="SvgjsPath1291" d="M487.931832088897 266.4378531073445L639.7891767216654 266.4378531073445L639.7891767216654 266.4378531073445L791.6465213544337 266.4378531073445" stroke="#73a0cb" stroke-width="1.5" fill="none" marker-start="url(#SvgjsMarker1292)" marker-end="url(#SvgjsMarker1294)"></path><rect id="SvgjsRect1296" width="178" height="18" x="556.5351303023648" y="257.4378531073445" fill="#ffffff"></rect><text id="SvgjsText1297" font-family="&quot;Microsoft YaHei&quot;, 微软雅黑, Arial" text-anchor="middle" font-size="13px" width="178px" fill="#323232" font-weight="400" align="top" lineHeight="16px" anchor="middle" family="&quot;Microsoft YaHei&quot;, 微软雅黑, Arial" size="13px" weight="400" font-style="" opacity="1" y="254.8128531073445" transform="rotate(0)"><tspan id="SvgjsTspan1298" dy="16.25" x="645.5351303023648"><tspan id="SvgjsTspan1299" style="">interface_count个interface信息</tspan></tspan></text></g><g id="SvgjsG1300" transform="matrix(-1.8369701987210297e-16,-1,1,-1.8369701987210297e-16,485.02926756433175,443.0084674210199)"><path id="SvgjsPath1301" d="M 120 0Q 111 0 111 9L 111 145.579802259887Q 111 154.579802259887 98 154.579802259887Q 111 154.579802259887 111 163.579802259887L 111 300.159604519774Q 111 309.159604519774 120 309.159604519774" stroke="rgba(215,214,215,1)" stroke-width="1.5" fill="none"></path><path id="SvgjsPath1302" d="M 0 0L 120 0L 120 309.159604519774L 0 309.159604519774Z" stroke="none" fill="none"></path><g id="SvgjsG1303"><text id="SvgjsText1304" font-family="&quot;Microsoft YaHei&quot;, 微软雅黑, Arial" text-anchor="end" font-size="13px" width="93px" fill="#323232" font-weight="400" align="middle" lineHeight="125%" anchor="end" family="&quot;Microsoft YaHei&quot;, 微软雅黑, Arial" size="13px" weight="400" font-style="" opacity="1" y="143.954802259887" transform="rotate(0)"></text></g></g><g id="SvgjsG1305" transform="translate(588.4953503652196,340.83333333333326)"><path id="SvgjsPath1306" d="M 0 0L 100 0L 100 40L 0 40Z" stroke="none" fill="none"></path><g id="SvgjsG1307"><text id="SvgjsText1308" font-family="&quot;Microsoft YaHei&quot;, 微软雅黑, Arial" text-anchor="middle" font-size="12px" width="100px" fill="#323232" font-weight="400" align="middle" lineHeight="125%" anchor="middle" family="&quot;Microsoft YaHei&quot;, 微软雅黑, Arial" size="12px" weight="400" font-style="" opacity="1" y="10" transform="rotate(0)"><tspan id="SvgjsTspan1309" dy="15" x="50"><tspan id="SvgjsTspan1310" style="">接口信息数据区</tspan></tspan></text></g></g><g id="SvgjsG1311"><path id="SvgjsPath1312" d="M862.0469143782608 90.21739130434783C 1067.617566552174 234.375 -269.8824334478262 198.95833333333334 80.5944870242422 311.50500039619817" stroke-dasharray="2,3" stroke="#d2d6f9" stroke-width="2" fill="none" marker-end="url(#SvgjsMarker1313)"></path></g><g id="SvgjsG1315" transform="translate(211.40923321884046,25)"><path id="SvgjsPath1316" d="M 0 0L 188 0L 188 40L 0 40Z" stroke="none" fill="none"></path><g id="SvgjsG1317"><text id="SvgjsText1318" font-family="&quot;Microsoft YaHei&quot;, 微软雅黑, Arial" text-anchor="middle" font-size="15px" width="188px" fill="#a7932c" font-weight="400" align="middle" lineHeight="125%" anchor="middle" family="&quot;Microsoft YaHei&quot;, 微软雅黑, Arial" size="15px" weight="400" font-style="" opacity="1" y="7.625" transform="rotate(0)"><tspan id="SvgjsTspan1319" dy="18.75" x="94"><tspan id="SvgjsTspan1320" style="font-weight: bold;">常量池在class文件中的位置</tspan></tspan></text></g></g><g id="SvgjsG1321"><path id="SvgjsPath1322" d="M400.1592332188405 45L441.4092332188405 45L441.4092332188405 45L478.7592332188405 45" stroke="#a7932c" stroke-width="3" fill="none" marker-end="url(#SvgjsMarker1323)"></path></g><g id="SvgjsG1325"></g></svg>