<svg id="SvgjsSvg1006" width="702" height="738" xmlns="http://www.w3.org/2000/svg" version="1.1" xmlns:xlink="http://www.w3.org/1999/xlink" xmlns:svgjs="http://svgjs.com/svgjs"><defs id="SvgjsDefs1007"><pattern patternUnits="userSpaceOnUse" id="pattern_mark_0" width="300" height="300"><text x="150" y="100" fill="rgba(229,229,229,0.8)" font-size="18" transform="rotate(-45, 150, 150)" style="dominant-baseline: middle; text-anchor: middle;"></text></pattern><pattern patternUnits="userSpaceOnUse" id="pattern_mark_1" width="300" height="300"><text x="150" y="200" fill="rgba(229,229,229,0.8)" font-size="18" transform="rotate(-45, 150, 150)" style="dominant-baseline: middle; text-anchor: middle;"></text></pattern><marker id="SvgjsMarker1043" markerWidth="13" markerHeight="9" refX="9.5" refY="4.5" viewBox="0 0 13 9" orient="auto" markerUnits="userSpaceOnUse" stroke-dasharray="0,0"><path id="SvgjsPath1044" d="M0,0 L13,4.5 L0,9 L0,0" fill="#323232" stroke="#323232" stroke-width="1"></path></marker><marker id="SvgjsMarker1053" markerWidth="13" markerHeight="9" refX="9.5" refY="4.5" viewBox="0 0 13 9" orient="auto" markerUnits="userSpaceOnUse" stroke-dasharray="0,0"><path id="SvgjsPath1054" d="M0,0 L13,4.5 L0,9 L0,0" fill="#323232" stroke="#323232" stroke-width="1"></path></marker><marker id="SvgjsMarker1067" markerWidth="13" markerHeight="9" refX="9.5" refY="4.5" viewBox="0 0 13 9" orient="auto" markerUnits="userSpaceOnUse" stroke-dasharray="0,0"><path id="SvgjsPath1068" d="M0,0 L13,4.5 L0,9 L0,0" fill="#323232" stroke="#323232" stroke-width="1"></path></marker><marker id="SvgjsMarker1075" markerWidth="13" markerHeight="9" refX="9.5" refY="4.5" viewBox="0 0 13 9" orient="auto" markerUnits="userSpaceOnUse" stroke-dasharray="0,0"><path id="SvgjsPath1076" d="M0,0 L13,4.5 L0,9 L0,0" fill="#323232" stroke="#323232" stroke-width="1"></path></marker><marker id="SvgjsMarker1085" markerWidth="13" markerHeight="9" refX="9.5" refY="4.5" viewBox="0 0 13 9" orient="auto" markerUnits="userSpaceOnUse" stroke-dasharray="0,0"><path id="SvgjsPath1086" d="M0,0 L13,4.5 L0,9 L0,0" fill="#323232" stroke="#323232" stroke-width="1"></path></marker><marker id="SvgjsMarker1093" markerWidth="13" markerHeight="9" refX="9.5" refY="4.5" viewBox="0 0 13 9" orient="auto" markerUnits="userSpaceOnUse" stroke-dasharray="0,0"><path id="SvgjsPath1094" d="M0,0 L13,4.5 L0,9 L0,0" fill="#323232" stroke="#323232" stroke-width="1"></path></marker><marker id="SvgjsMarker1101" markerWidth="13" markerHeight="9" refX="9.5" refY="4.5" viewBox="0 0 13 9" orient="auto" markerUnits="userSpaceOnUse" stroke-dasharray="0,0"><path id="SvgjsPath1102" d="M0,0 L13,4.5 L0,9 L0,0" fill="#323232" stroke="#323232" stroke-width="1"></path></marker><marker id="SvgjsMarker1111" markerWidth="13" markerHeight="9" refX="9.5" refY="4.5" viewBox="0 0 13 9" orient="auto" markerUnits="userSpaceOnUse" stroke-dasharray="0,0"><path id="SvgjsPath1112" d="M0,0 L13,4.5 L0,9 L0,0" fill="#323232" stroke="#323232" stroke-width="1"></path></marker><marker id="SvgjsMarker1119" markerWidth="13" markerHeight="9" refX="9.5" refY="4.5" viewBox="0 0 13 9" orient="auto" markerUnits="userSpaceOnUse" stroke-dasharray="0,0"><path id="SvgjsPath1120" d="M0,0 L13,4.5 L0,9 L0,0" fill="#323232" stroke="#323232" stroke-width="1"></path></marker><marker id="SvgjsMarker1127" markerWidth="13" markerHeight="9" refX="9.5" refY="4.5" viewBox="0 0 13 9" orient="auto" markerUnits="userSpaceOnUse" stroke-dasharray="0,0"><path id="SvgjsPath1128" d="M0,0 L13,4.5 L0,9 L0,0" fill="#323232" stroke="#323232" stroke-width="1"></path></marker></defs><rect id="svgbackgroundid" width="702" height="738" fill="transparent"></rect><rect id="SvgjsRect1009" width="702" height="738" fill="url(#pattern_mark_0)"></rect><rect id="SvgjsRect1010" width="702" height="738" fill="url(#pattern_mark_1)"></rect><g id="SvgjsG1011" transform="translate(25,25)"><path id="SvgjsPath1012" d="M 35 30L 35 688" stroke-dasharray="3,4" stroke="rgba(33,41,48,1)" stroke-width="2" fill="none"></path><path id="SvgjsPath1013" d="M 0 0L 70 0L 70 30L 0 30Z" stroke="rgba(33,41,48,1)" stroke-width="1.5" fill-opacity="1" fill="#fbeada"></path><g id="SvgjsG1014"><text id="SvgjsText1015" font-family="&quot;Comic Sans MS&quot;" text-anchor="middle" font-size="13px" width="50px" fill="#7985ec" font-weight="700" align="middle" lineHeight="125%" anchor="middle" family="&quot;Comic Sans MS&quot;" size="13px" weight="700" font-style="" opacity="1" y="4.375" transform="rotate(0)"><tspan id="SvgjsTspan1016" dy="16.25" x="35"><tspan id="SvgjsTspan1017" style="">线程A</tspan></tspan></text></g></g><g id="SvgjsG1018" transform="translate(219,25)"><path id="SvgjsPath1019" d="M 35 30L 35 663" stroke-dasharray="3,4" stroke="rgba(33,41,48,1)" stroke-width="2" fill="none"></path><path id="SvgjsPath1020" d="M 0 0L 70 0L 70 30L 0 30Z" stroke="rgba(33,41,48,1)" stroke-width="1.5" fill-opacity="1" fill="#fbeada"></path><g id="SvgjsG1021"><text id="SvgjsText1022" font-family="&quot;Comic Sans MS&quot;" text-anchor="middle" font-size="13px" width="50px" fill="#7985ec" font-weight="700" align="middle" lineHeight="125%" anchor="middle" family="&quot;Comic Sans MS&quot;" size="13px" weight="700" font-style="" opacity="1" y="4.375" transform="rotate(0)"><tspan id="SvgjsTspan1023" dy="16.25" x="35"><tspan id="SvgjsTspan1024" style="">线程B</tspan></tspan></text></g></g><g id="SvgjsG1025" transform="translate(413,25)"><path id="SvgjsPath1026" d="M 35 30L 35 678" stroke-dasharray="3,4" stroke="rgba(33,41,48,1)" stroke-width="2" fill="none"></path><path id="SvgjsPath1027" d="M 0 0L 70 0L 70 30L 0 30Z" stroke="rgba(33,41,48,1)" stroke-width="1.5" fill-opacity="1" fill="#e7ebed"></path><g id="SvgjsG1028"><text id="SvgjsText1029" font-family="&quot;Comic Sans MS&quot;" text-anchor="middle" font-size="13px" width="50px" fill="#7985ec" font-weight="700" align="middle" lineHeight="125%" anchor="middle" family="&quot;Comic Sans MS&quot;" size="13px" weight="700" font-style="" opacity="1" y="4.375" transform="rotate(0)"><tspan id="SvgjsTspan1030" dy="16.25" x="35"><tspan id="SvgjsTspan1031" style="">Redis</tspan></tspan></text></g></g><g id="SvgjsG1032" transform="translate(607,25)"><path id="SvgjsPath1033" d="M 35 30L 35 688" stroke-dasharray="3,4" stroke="rgba(33,41,48,1)" stroke-width="2" fill="none"></path><path id="SvgjsPath1034" d="M 0 0L 70 0L 70 30L 0 30Z" stroke="rgba(33,41,48,1)" stroke-width="1.5" fill-opacity="1" fill="#f1e4a2"></path><g id="SvgjsG1035"><text id="SvgjsText1036" font-family="&quot;Comic Sans MS&quot;" text-anchor="middle" font-size="13px" width="50px" fill="#7985ec" font-weight="700" align="middle" lineHeight="125%" anchor="middle" family="&quot;Comic Sans MS&quot;" size="13px" weight="700" font-style="" opacity="1" y="4.375" transform="rotate(0)"><tspan id="SvgjsTspan1037" dy="16.25" x="35"><tspan id="SvgjsTspan1038" style="">MySQL</tspan></tspan></text></g></g><g id="SvgjsG1039" transform="translate(45,96)"><path id="SvgjsPath1040" d="M 0 4Q 0 0 4 0L 26 0Q 30 0 30 4L 30 584Q 30 588 26 588L 4 588Q 0 588 0 584L 0 4Z" stroke="rgba(33,41,48,1)" stroke-width="1.5" fill-opacity="1" fill="#d2d6f9"></path></g><g id="SvgjsG1041"><path id="SvgjsPath1042" d="M75 116L254 116L254 116L430.29999999999995 116" stroke="#323232" stroke-width="1.5" fill="none" marker-end="url(#SvgjsMarker1043)"></path><rect id="SvgjsRect1045" width="85" height="18" x="215.248123620309" y="107" fill="#ffffff"></rect><text id="SvgjsText1046" font-family="&quot;Comic Sans MS&quot;" text-anchor="middle" font-size="13px" width="85px" fill="#7985ec" font-weight="700" align="top" lineHeight="16px" anchor="middle" family="&quot;Comic Sans MS&quot;" size="13px" weight="700" font-style="" opacity="1" y="104.375" transform="rotate(0)"><tspan id="SvgjsTspan1047" dy="16.25" x="257.748123620309"><tspan id="SvgjsTspan1048" style="">1. delete key</tspan></tspan></text></g><g id="SvgjsG1049" transform="translate(642,190)"><path id="SvgjsPath1050" d="M 0 4Q 0 0 4 0L 26 0Q 30 0 30 4L 30 490Q 30 494 26 494L 4 494Q 0 494 0 490L 0 4Z" stroke="rgba(33,41,48,1)" stroke-width="1.5" fill-opacity="1" fill="#d2d6f9"></path></g><g id="SvgjsG1051"><path id="SvgjsPath1052" d="M75.75 230L639.3 230" stroke="#323232" stroke-width="1.5" fill="none" marker-end="url(#SvgjsMarker1053)"></path><rect id="SvgjsRect1055" width="228" height="18" x="239.99076396807294" y="221" fill="#ffffff"></rect><text id="SvgjsText1056" font-family="&quot;Comic Sans MS&quot;" text-anchor="middle" font-size="13px" width="228px" fill="#7985ec" font-weight="700" align="top" lineHeight="16px" anchor="middle" family="&quot;Comic Sans MS&quot;" size="13px" weight="700" font-style="" opacity="1" y="218.375" transform="rotate(0)"><tspan id="SvgjsTspan1057" dy="16.25" x="353.99076396807294"><tspan id="SvgjsTspan1058" style="">2. update key = 80 where key = 90</tspan></tspan></text></g><g id="SvgjsG1059" transform="translate(433,96)"><path id="SvgjsPath1060" d="M 0 4Q 0 0 4 0L 26 0Q 30 0 30 4L 30 76Q 30 80 26 80L 4 80Q 0 80 0 76L 0 4Z" stroke="rgba(33,41,48,1)" stroke-width="1.5" fill-opacity="1" fill="#d2d6f9"></path></g><g id="SvgjsG1061" transform="translate(239,293)"><path id="SvgjsPath1062" d="M 0 4Q 0 0 4 0L 26 0Q 30 0 30 4L 30 341Q 30 345 26 345L 4 345Q 0 345 0 341L 0 4Z" stroke="rgba(33,41,48,1)" stroke-width="1.5" fill-opacity="1" fill="#d2d6f9"></path></g><g id="SvgjsG1063" transform="translate(433,293)"><path id="SvgjsPath1064" d="M 0 4Q 0 0 4 0L 26 0Q 30 0 30 4L 30 110Q 30 114 26 114L 4 114Q 0 114 0 110L 0 4Z" stroke="rgba(33,41,48,1)" stroke-width="1.5" fill-opacity="1" fill="#d2d6f9"></path></g><g id="SvgjsG1065"><path id="SvgjsPath1066" d="M269.75 333L351 333L351 333L430.29999999999995 333" stroke="#323232" stroke-width="1.5" fill="none" marker-end="url(#SvgjsMarker1067)"></path><rect id="SvgjsRect1069" width="75" height="18" x="308.60914634146343" y="324" fill="#ffffff"></rect><text id="SvgjsText1070" font-family="&quot;Comic Sans MS&quot;" text-anchor="middle" font-size="13px" width="75px" fill="#7985ec" font-weight="700" align="top" lineHeight="16px" anchor="middle" family="&quot;Comic Sans MS&quot;" size="13px" weight="700" font-style="" opacity="1" y="321.375" transform="rotate(0)"><tspan id="SvgjsTspan1071" dy="16.25" x="346.10914634146343"><tspan id="SvgjsTspan1072" style="">3. read key</tspan></tspan></text></g><g id="SvgjsG1073"><path id="SvgjsPath1074" d="M432.25 378L351 378L351 378L271.7 378" stroke-dasharray="8,5" stroke="#323232" stroke-width="1.5" fill="none" marker-end="url(#SvgjsMarker1075)"></path><rect id="SvgjsRect1077" width="93" height="18" x="305.475" y="369" fill="#ffffff"></rect><text id="SvgjsText1078" font-family="&quot;Comic Sans MS&quot;" text-anchor="middle" font-size="13px" width="93px" fill="#7985ec" font-weight="700" align="top" lineHeight="16px" anchor="middle" family="&quot;Comic Sans MS&quot;" size="13px" weight="700" font-style="" opacity="1" y="366.375" transform="rotate(0)"><tspan id="SvgjsTspan1079" dy="16.25" x="351.975"><tspan id="SvgjsTspan1080" style="">3.1 return null</tspan></tspan></text></g><g id="SvgjsG1081" transform="translate(612,293)"><path id="SvgjsPath1082" d="M 0 4Q 0 0 4 0L 26 0Q 30 0 30 4L 30 218Q 30 222 26 222L 4 222Q 0 222 0 218L 0 4Z" stroke="rgba(33,41,48,1)" stroke-width="1.5" fill-opacity="1" fill="#d2d6f9"></path></g><g id="SvgjsG1083"><path id="SvgjsPath1084" d="M432.25 155L254 155L254 155L75 155" stroke-dasharray="8,5" stroke="#323232" stroke-width="1.5" fill="none" marker-end="url(#SvgjsMarker1085)"></path><rect id="SvgjsRect1087" width="118" height="18" x="192.62918994413405" y="146" fill="#ffffff"></rect><text id="SvgjsText1088" font-family="&quot;Comic Sans MS&quot;" text-anchor="middle" font-size="13px" width="118px" fill="#7985ec" font-weight="700" align="top" lineHeight="16px" anchor="middle" family="&quot;Comic Sans MS&quot;" size="13px" weight="700" font-style="" opacity="1" y="143.375" transform="rotate(0)"><tspan id="SvgjsTspan1089" dy="16.25" x="251.62918994413405"><tspan id="SvgjsTspan1090" style="">1.1 delete success</tspan></tspan></text></g><g id="SvgjsG1091"><path id="SvgjsPath1092" d="M269.75 433L440.5 433L440.5 433L609.3 433" stroke="#323232" stroke-width="1.5" fill="none" marker-end="url(#SvgjsMarker1093)"></path><rect id="SvgjsRect1095" width="75" height="18" x="401.53002915451896" y="424" fill="#ffffff"></rect><text id="SvgjsText1096" font-family="&quot;Comic Sans MS&quot;" text-anchor="middle" font-size="13px" width="75px" fill="#7985ec" font-weight="700" align="top" lineHeight="16px" anchor="middle" family="&quot;Comic Sans MS&quot;" size="13px" weight="700" font-style="" opacity="1" y="421.375" transform="rotate(0)"><tspan id="SvgjsTspan1097" dy="16.25" x="439.03002915451896"><tspan id="SvgjsTspan1098" style="">4. read key</tspan></tspan></text></g><g id="SvgjsG1099"><path id="SvgjsPath1100" d="M611.25 493L440.5 493L440.5 493L271.7 493" stroke-dasharray="8,5" stroke="#323232" stroke-width="1.5" fill="none" marker-end="url(#SvgjsMarker1101)"></path><rect id="SvgjsRect1103" width="129" height="18" x="376.4800291545189" y="484" fill="#ffffff"></rect><text id="SvgjsText1104" font-family="&quot;Comic Sans MS&quot;" text-anchor="middle" font-size="13px" width="129px" fill="#7985ec" font-weight="700" align="top" lineHeight="16px" anchor="middle" family="&quot;Comic Sans MS&quot;" size="13px" weight="700" font-style="" opacity="1" y="481.375" transform="rotate(0)"><tspan id="SvgjsTspan1105" dy="16.25" x="440.9800291545189"><tspan id="SvgjsTspan1106" style="">4.1 return key = 90</tspan></tspan></text></g><g id="SvgjsG1107" transform="translate(433,535)"><path id="SvgjsPath1108" d="M 0 4Q 0 0 4 0L 26 0Q 30 0 30 4L 30 99Q 30 103 26 103L 4 103Q 0 103 0 99L 0 4Z" stroke="rgba(33,41,48,1)" stroke-width="1.5" fill-opacity="1" fill="#d2d6f9"></path></g><g id="SvgjsG1109"><path id="SvgjsPath1110" d="M269.75 556L351 556L351 556L430.29999999999995 556" stroke="#323232" stroke-width="1.5" fill="none" marker-end="url(#SvgjsMarker1111)"></path><rect id="SvgjsRect1113" width="123" height="18" x="285.58810975609754" y="547" fill="#ffffff"></rect><text id="SvgjsText1114" font-family="&quot;Comic Sans MS&quot;" text-anchor="middle" font-size="13px" width="123px" fill="#7985ec" font-weight="700" align="top" lineHeight="16px" anchor="middle" family="&quot;Comic Sans MS&quot;" size="13px" weight="700" font-style="" opacity="1" y="544.375" transform="rotate(0)"><tspan id="SvgjsTspan1115" dy="16.25" x="347.08810975609754"><tspan id="SvgjsTspan1116" style="">5. update key = 90</tspan></tspan></text></g><g id="SvgjsG1117"><path id="SvgjsPath1118" d="M432.25 609L351 609L351 609L271.7 609" stroke-dasharray="8,5" stroke="#323232" stroke-width="1.5" fill="none" marker-end="url(#SvgjsMarker1119)"></path><rect id="SvgjsRect1121" width="121" height="18" x="292.45396341463413" y="600" fill="#ffffff"></rect><text id="SvgjsText1122" font-family="&quot;Comic Sans MS&quot;" text-anchor="middle" font-size="13px" width="121px" fill="#7985ec" font-weight="700" align="top" lineHeight="16px" anchor="middle" family="&quot;Comic Sans MS&quot;" size="13px" weight="700" font-style="" opacity="1" y="597.375" transform="rotate(0)"><tspan id="SvgjsTspan1123" dy="16.25" x="352.95396341463413"><tspan id="SvgjsTspan1124" style="">5.1 update success</tspan></tspan></text></g><g id="SvgjsG1125"><path id="SvgjsPath1126" d="M641.25 663L77.69999999999999 663" stroke-dasharray="8,5" stroke="#323232" stroke-width="1.5" fill="none" marker-end="url(#SvgjsMarker1127)"></path><rect id="SvgjsRect1129" width="183" height="18" x="268.4719576719576" y="654" fill="#ffffff"></rect><text id="SvgjsText1130" font-family="&quot;Comic Sans MS&quot;" text-anchor="middle" font-size="13px" width="183px" fill="#7985ec" font-weight="700" align="top" lineHeight="16px" anchor="middle" family="&quot;Comic Sans MS&quot;" size="13px" weight="700" font-style="" opacity="1" y="651.375" transform="rotate(0)"><tspan id="SvgjsTspan1131" dy="16.25" x="359.9719576719576"><tspan id="SvgjsTspan1132" style="">2.1 update key = 80 success</tspan></tspan></text></g></svg>