<svg id="SvgjsSvg1006" width="706.3636363636364" height="472" xmlns="http://www.w3.org/2000/svg" version="1.1" xmlns:xlink="http://www.w3.org/1999/xlink" xmlns:svgjs="http://svgjs.com/svgjs"><defs id="SvgjsDefs1007"><pattern patternUnits="userSpaceOnUse" id="pattern_mark_0" width="300" height="300"><text x="150" y="100" fill="rgba(229,229,229,0.8)" font-size="18" transform="rotate(-45, 150, 150)" style="dominant-baseline: middle; text-anchor: middle;"></text></pattern><pattern patternUnits="userSpaceOnUse" id="pattern_mark_1" width="300" height="300"><text x="150" y="200" fill="rgba(229,229,229,0.8)" font-size="18" transform="rotate(-45, 150, 150)" style="dominant-baseline: middle; text-anchor: middle;"></text></pattern><pattern id="SvgjsPattern1055" x="0" y="0" width="100" height="100" patternUnits="userSpaceOnUse"><image id="SvgjsImage1056" xlink:href="https://iconsapi.com/5ee2b241e4b0b788a9360ef2.svg" width="100" height="100" preserveAspectRatio="none" crossOrigin="anonymous" x="0" y="0"></image></pattern><pattern id="SvgjsPattern1059" x="0" y="0" width="50" height="50" patternUnits="userSpaceOnUse"><image id="SvgjsImage1060" xlink:href="https://iconsapi.com/5ee26338e4b0b788a932b243.svg" width="50" height="50" preserveAspectRatio="none" crossOrigin="anonymous" x="0" y="0"></image></pattern></defs><rect id="svgbackgroundid" width="706.3636363636364" height="472" fill="transparent"></rect><rect id="SvgjsRect1009" width="706.3636363636364" height="472" fill="url(#pattern_mark_0)"></rect><rect id="SvgjsRect1010" width="706.3636363636364" height="472" fill="url(#pattern_mark_1)"></rect><g id="SvgjsG1011" transform="translate(39,25)"><path id="SvgjsPath1012" d="M 0 4Q 0 0 4 0L 467 0Q 471 0 471 4L 471 233Q 471 237 467 237L 4 237Q 0 237 0 233Z" stroke="rgba(33,41,48,1)" stroke-width="1.5" fill-opacity="1" fill="#dae896"></path><g id="SvgjsG1013"><text id="SvgjsText1014" font-family="&quot;Comic Sans MS&quot;" text-anchor="middle" font-size="13px" width="451px" fill="#323232" font-weight="400" align="middle" lineHeight="125%" anchor="middle" family="&quot;Comic Sans MS&quot;" size="13px" weight="400" font-style="" opacity="1" y="107.875" transform="rotate(0)"></text></g></g><g id="SvgjsG1015" transform="translate(72,134)"><path id="SvgjsPath1016" d="M 0 4Q 0 0 4 0L 212 0Q 216 0 216 4L 216 78Q 216 82 212 82L 4 82Q 0 82 0 78Z" stroke="rgba(33,41,48,1)" stroke-width="1.5" fill-opacity="1" fill="#f1d7d3"></path><g id="SvgjsG1017"><text id="SvgjsText1018" font-family="&quot;Comic Sans MS&quot;" text-anchor="middle" font-size="13px" width="196px" fill="#323232" font-weight="700" align="middle" lineHeight="125%" anchor="middle" family="&quot;Comic Sans MS&quot;" size="13px" weight="700" font-style="" opacity="1" y="21.875" transform="rotate(0)"><tspan id="SvgjsTspan1019" dy="16.25" x="108"><tspan id="SvgjsTspan1020" style="">缓冲池</tspan></tspan><tspan id="SvgjsTspan1021" dy="16.25" x="108"><tspan id="SvgjsTspan1022" style="">(Buffer Pool)</tspan></tspan></text></g></g><g id="SvgjsG1023" transform="translate(335,134)"><path id="SvgjsPath1024" d="M 0 4Q 0 0 4 0L 133 0Q 137 0 137 4L 137 40Q 137 44 133 44L 4 44Q 0 44 0 40Z" stroke="rgba(33,41,48,1)" stroke-width="1.5" fill-opacity="1" fill="#f1d7d3"></path><g id="SvgjsG1025"><text id="SvgjsText1026" font-family="&quot;Comic Sans MS&quot;" text-anchor="middle" font-size="13px" width="117px" fill="#323232" font-weight="700" align="middle" lineHeight="125%" anchor="middle" family="&quot;Comic Sans MS&quot;" size="13px" weight="700" font-style="" opacity="1" y="2.875" transform="rotate(0)"><tspan id="SvgjsTspan1027" dy="16.25" x="68.5"><tspan id="SvgjsTspan1028" style="">重做日志缓存</tspan></tspan><tspan id="SvgjsTspan1029" dy="16.25" x="68.5"><tspan id="SvgjsTspan1030" style="">(redo log buffer)</tspan></tspan></text></g></g><g id="SvgjsG1031" transform="translate(223,27)"><path id="SvgjsPath1032" d="M 0 0L 100 0L 100 40L 0 40Z" stroke="none" fill="none"></path><g id="SvgjsG1033"><text id="SvgjsText1034" font-family="&quot;Comic Sans MS&quot;" text-anchor="middle" font-size="13px" width="100px" fill="#323232" font-weight="700" align="middle" lineHeight="125%" anchor="middle" family="&quot;Comic Sans MS&quot;" size="13px" weight="700" font-style="" opacity="1" y="9.375" transform="rotate(0)"><tspan id="SvgjsTspan1035" dy="16.25" x="50"><tspan id="SvgjsTspan1036" style="">InnoDB存储引擎</tspan></tspan></text></g></g><g id="SvgjsG1037" transform="translate(202,57)"><path id="SvgjsPath1038" d="M 8.91 0L 18.09 0L 18.09 52.5L 27 52.5L 13.5 66L 0 52.5L 8.91 52.5L 8.91 0Z" stroke="rgba(33,41,48,1)" stroke-width="1.5" fill-opacity="1" fill="#f6d6d3"></path><g id="SvgjsG1039"><text id="SvgjsText1040" font-family="&quot;Comic Sans MS&quot;" text-anchor="middle" font-size="13px" width="38px" fill="#323232" font-weight="400" align="middle" lineHeight="125%" anchor="middle" family="&quot;Comic Sans MS&quot;" size="13px" weight="400" font-style="" opacity="1" y="19.075000000000003" transform="rotate(0)"></text></g></g><g id="SvgjsG1041" transform="translate(202,233)"><path id="SvgjsPath1042" d="M 13.5 0L 27 13.5L 18.09 13.5L 18.09 64L 8.91 64L 8.91 13.5L 0 13.5L 13.5 0Z" stroke="rgba(33,41,48,1)" stroke-width="1.5" fill-opacity="1" fill="#dce8ff"></path><g id="SvgjsG1043"><text id="SvgjsText1044" font-family="&quot;Comic Sans MS&quot;" text-anchor="middle" font-size="13px" width="38px" fill="#323232" font-weight="400" align="middle" lineHeight="125%" anchor="middle" family="&quot;Comic Sans MS&quot;" size="13px" weight="400" font-style="" opacity="1" y="24.575" transform="rotate(0)"></text></g></g><g id="SvgjsG1045" transform="translate(329,57)"><path id="SvgjsPath1046" d="M 8.91 0L 18.09 0L 18.09 52.5L 27 52.5L 13.5 66L 0 52.5L 8.91 52.5L 8.91 0Z" stroke="rgba(33,41,48,1)" stroke-width="1.5" fill-opacity="1" fill="#f6d6d3"></path><g id="SvgjsG1047"><text id="SvgjsText1048" font-family="&quot;Comic Sans MS&quot;" text-anchor="middle" font-size="13px" width="38px" fill="#323232" font-weight="400" align="middle" lineHeight="125%" anchor="middle" family="&quot;Comic Sans MS&quot;" size="13px" weight="400" font-style="" opacity="1" y="19.075000000000003" transform="rotate(0)"></text></g></g><g id="SvgjsG1049" transform="translate(329,187)"><path id="SvgjsPath1050" d="M 8.91 0L 18.09 0L 18.09 96.5L 27 96.5L 13.5 110L 0 96.5L 8.91 96.5L 8.91 0Z" stroke="rgba(33,41,48,1)" stroke-width="1.5" fill-opacity="1" fill="#dce8ff"></path><g id="SvgjsG1051"><text id="SvgjsText1052" font-family="&quot;Comic Sans MS&quot;" text-anchor="middle" font-size="13px" width="38px" fill="#323232" font-weight="400" align="middle" lineHeight="125%" anchor="middle" family="&quot;Comic Sans MS&quot;" size="13px" weight="400" font-style="" opacity="1" y="38.875" transform="rotate(0)"></text></g></g><g id="SvgjsG1053" transform="translate(188,314)"><path id="SvgjsPath1054" d="M 0 0L 100 0L 100 100L 0 100Z" stroke="none" fill="url(#SvgjsPattern1055)"></path></g><g id="SvgjsG1057" transform="translate(297,327)"><path id="SvgjsPath1058" d="M 0 0L 50 0L 50 50L 0 50Z" stroke="none" fill="url(#SvgjsPattern1059)"></path></g><g id="SvgjsG1061" transform="translate(25,262)"><path id="SvgjsPath1062" d="M 0 0L 177 0L 177 40L 0 40Z" stroke="none" fill="none"></path><g id="SvgjsG1063"><text id="SvgjsText1064" font-family="&quot;Comic Sans MS&quot;" text-anchor="middle" font-size="13px" width="177px" fill="#b03c4d" font-weight="400" align="middle" lineHeight="125%" anchor="middle" family="&quot;Comic Sans MS&quot;" size="13px" weight="400" font-style="" opacity="1" y="9.375" transform="rotate(0)"><tspan id="SvgjsTspan1065" dy="16.25" x="88.5"><tspan id="SvgjsTspan1066" style="font-weight: bold;">1. 磁盘加载数据放入到缓冲池</tspan></tspan></text></g></g><g id="SvgjsG1067" transform="translate(59,64)"><path id="SvgjsPath1068" d="M 0 0L 177 0L 177 40L 0 40Z" stroke="none" fill="none"></path><g id="SvgjsG1069"><text id="SvgjsText1070" font-family="&quot;Comic Sans MS&quot;" text-anchor="middle" font-size="13px" width="177px" fill="#b03c4d" font-weight="400" align="middle" lineHeight="125%" anchor="middle" family="&quot;Comic Sans MS&quot;" size="13px" weight="400" font-style="" opacity="1" y="9.375" transform="rotate(0)"><tspan id="SvgjsTspan1071" dy="16.25" x="88.5"><tspan id="SvgjsTspan1072" style="font-weight: bold;">2. 直接更新缓存数据</tspan></tspan></text></g></g><g id="SvgjsG1073" transform="translate(309,64)"><path id="SvgjsPath1074" d="M 0 0L 177 0L 177 40L 0 40Z" stroke="none" fill="none"></path><g id="SvgjsG1075"><text id="SvgjsText1076" font-family="&quot;Comic Sans MS&quot;" text-anchor="middle" font-size="13px" width="177px" fill="#b03c4d" font-weight="400" align="middle" lineHeight="125%" anchor="middle" family="&quot;Comic Sans MS&quot;" size="13px" weight="400" font-style="" opacity="1" y="9.375" transform="rotate(0)"><tspan id="SvgjsTspan1077" dy="16.25" x="88.5"><tspan id="SvgjsTspan1078" style="font-weight: bold;">3. 记录更新信息</tspan></tspan></text></g></g><g id="SvgjsG1079" transform="translate(329,262)"><path id="SvgjsPath1080" d="M 0 0L 177 0L 177 40L 0 40Z" stroke="none" fill="none"></path><g id="SvgjsG1081"><text id="SvgjsText1082" font-family="&quot;Comic Sans MS&quot;" text-anchor="middle" font-size="13px" width="177px" fill="#b03c4d" font-weight="400" align="middle" lineHeight="125%" anchor="middle" family="&quot;Comic Sans MS&quot;" size="13px" weight="400" font-style="" opacity="1" y="0.875" transform="rotate(0)"><tspan id="SvgjsTspan1083" dy="16.25" x="88.5"><tspan id="SvgjsTspan1084" style="font-weight: bold;">4. 清空redo log buffer</tspan></tspan><tspan id="SvgjsTspan1085" dy="16.25" x="88.5"><tspan id="SvgjsTspan1086" style="font-weight: bold;">刷盘到redo日志中</tspan></tspan></text></g></g><g id="SvgjsG1087" transform="translate(184,407)"><path id="SvgjsPath1088" d="M 0 0L 100 0L 100 40L 0 40Z" stroke="none" fill="none"></path><g id="SvgjsG1089"><text id="SvgjsText1090" font-family="&quot;Microsoft YaHei&quot;, 微软雅黑, Arial" text-anchor="middle" font-size="13px" width="100px" fill="#323232" font-weight="400" align="middle" lineHeight="125%" anchor="middle" family="&quot;Microsoft YaHei&quot;, 微软雅黑, Arial" size="13px" weight="400" font-style="" opacity="1" y="9.375" transform="rotate(0)"><tspan id="SvgjsTspan1091" dy="16.25" x="50"><tspan id="SvgjsTspan1092" style="font-weight: bold;">硬盘</tspan></tspan></text></g></g><g id="SvgjsG1093" transform="translate(270,370)"><path id="SvgjsPath1094" d="M 0 0L 100 0L 100 40L 0 40Z" stroke="none" fill="none"></path><g id="SvgjsG1095"><text id="SvgjsText1096" font-family="&quot;Microsoft YaHei&quot;, 微软雅黑, Arial" text-anchor="middle" font-size="13px" width="100px" fill="#323232" font-weight="400" align="middle" lineHeight="125%" anchor="middle" family="&quot;Microsoft YaHei&quot;, 微软雅黑, Arial" size="13px" weight="400" font-style="" opacity="1" y="9.375" transform="rotate(0)"><tspan id="SvgjsTspan1097" dy="16.25" x="50"><tspan id="SvgjsTspan1098" style="">redo.file</tspan></tspan></text></g></g><g id="SvgjsG1099" transform="translate(469,294)"><path id="SvgjsPath1100" d="M 0 10C 0 -3.3333333333333335 37 -3.3333333333333335 37 10C 37 23.333333333333332 0 23.333333333333332 0 10Z" stroke="rgba(33,41,48,1)" stroke-width="0.5" fill-opacity="1" fill="#fcf3d3"></path><g id="SvgjsG1101"><text id="SvgjsText1102" font-family="&quot;Microsoft YaHei&quot;, 微软雅黑, Arial" text-anchor="middle" font-size="13px" width="17px" fill="#323232" font-weight="400" align="middle" lineHeight="125%" anchor="middle" family="&quot;Microsoft YaHei&quot;, 微软雅黑, Arial" size="13px" weight="400" font-style="" opacity="1" y="-0.625" transform="rotate(0)"></text></g></g><g id="SvgjsG1103" transform="translate(486,321.27272727272725)"><path id="SvgjsPath1104" d="M 0 13.999999999999972C 0 -4.666666666666657 56 -4.666666666666657 56 13.999999999999972C 56 32.6666666666666 0 32.6666666666666 0 13.999999999999972Z" stroke="rgba(33,41,48,1)" stroke-width="0.5" fill-opacity="1" fill="#fcf3d3"></path><g id="SvgjsG1105"><text id="SvgjsText1106" font-family="&quot;Microsoft YaHei&quot;, 微软雅黑, Arial" text-anchor="middle" font-size="13px" width="36px" fill="#323232" font-weight="400" align="middle" lineHeight="125%" anchor="middle" family="&quot;Microsoft YaHei&quot;, 微软雅黑, Arial" size="13px" weight="400" font-style="" opacity="1" y="3.3749999999999716" transform="rotate(0)"></text></g></g><g id="SvgjsG1107" transform="translate(510,344)"><path id="SvgjsPath1108" d="M 20.563636363636363 49C -17.136363636363637 35 6.854545454545455 24.5 15.422727272727274 21C 11.995454545454548 3.5 54.83636363636364 0 71.97272727272727 7C 85.68181818181819 -3.5 128.52272727272728 0 128.52272727272728 10.5C 162.79545454545456 7 176.50454545454548 21 162.79545454545456 38.5C 174.7909090909091 52.5 162.79545454545456 70 123.38181818181819 63C 114.81363636363638 72.10000000000001 80.5409090909091 72.10000000000001 71.97272727272727 63C 54.83636363636364 70 20.563636363636363 66.5 20.563636363636363 49Z" stroke="rgba(33,41,48,1)" stroke-width="1.5" fill-opacity="1" fill="#fcf3d3"></path><g id="SvgjsG1109"><text id="SvgjsText1110" font-family="&quot;Microsoft YaHei&quot;, 微软雅黑, Arial" text-anchor="middle" font-size="13px" width="152px" fill="#323232" font-weight="700" align="middle" lineHeight="125%" anchor="middle" family="&quot;Microsoft YaHei&quot;, 微软雅黑, Arial" size="13px" weight="700" font-style="" opacity="1" y="15.875" transform="rotate(0)"><tspan id="SvgjsTspan1111" dy="16.25" x="86"><tspan id="SvgjsTspan1112" style="">什么时候刷盘呢？</tspan></tspan><tspan id="SvgjsTspan1113" dy="16.25" x="86"><tspan id="SvgjsTspan1114" style="">提交事务的时候吗？</tspan></tspan></text></g></g><g id="SvgjsG1115"></g></svg>