<svg id="SvgjsSvg1006" width="448.83333333333337" height="303" xmlns="http://www.w3.org/2000/svg" version="1.1" xmlns:xlink="http://www.w3.org/1999/xlink" xmlns:svgjs="http://svgjs.com/svgjs"><defs id="SvgjsDefs1007"><pattern patternUnits="userSpaceOnUse" id="pattern_mark_0" width="300" height="300"><text x="150" y="100" fill="rgba(229,229,229,0.8)" font-size="18" transform="rotate(-45, 150, 150)" style="dominant-baseline: middle; text-anchor: middle;"></text></pattern><pattern patternUnits="userSpaceOnUse" id="pattern_mark_1" width="300" height="300"><text x="150" y="200" fill="rgba(229,229,229,0.8)" font-size="18" transform="rotate(-45, 150, 150)" style="dominant-baseline: middle; text-anchor: middle;"></text></pattern><marker id="SvgjsMarker1071" markerWidth="13" markerHeight="9" refX="9.5" refY="4.5" viewBox="0 0 13 9" orient="auto" markerUnits="userSpaceOnUse" stroke-dasharray="0,0"><path id="SvgjsPath1072" d="M0,0 L13,4.5 L0,9 L0,0" fill="#323232" stroke="#323232" stroke-width="1"></path></marker><marker id="SvgjsMarker1075" markerWidth="13" markerHeight="9" refX="9.5" refY="4.5" viewBox="0 0 13 9" orient="auto" markerUnits="userSpaceOnUse" stroke-dasharray="0,0"><path id="SvgjsPath1076" d="M0,0 L13,4.5 L0,9 L0,0" fill="#323232" stroke="#323232" stroke-width="1"></path></marker><marker id="SvgjsMarker1083" markerWidth="13" markerHeight="9" refX="9.5" refY="4.5" viewBox="0 0 13 9" orient="auto" markerUnits="userSpaceOnUse" stroke-dasharray="0,0"><path id="SvgjsPath1084" d="M0,0 L13,4.5 L0,9 L0,0" fill="#323232" stroke="#323232" stroke-width="1"></path></marker><marker id="SvgjsMarker1091" markerWidth="13" markerHeight="9" refX="9.5" refY="4.5" viewBox="0 0 13 9" orient="auto" markerUnits="userSpaceOnUse" stroke-dasharray="0,0"><path id="SvgjsPath1092" d="M0,0 L13,4.5 L0,9 L0,0" fill="#323232" stroke="#323232" stroke-width="1"></path></marker><marker id="SvgjsMarker1099" markerWidth="13" markerHeight="9" refX="9.5" refY="4.5" viewBox="0 0 13 9" orient="auto" markerUnits="userSpaceOnUse" stroke-dasharray="0,0"><path id="SvgjsPath1100" d="M0,0 L13,4.5 L0,9 L0,0" fill="#323232" stroke="#323232" stroke-width="1"></path></marker></defs><rect id="svgbackgroundid" width="448.83333333333337" height="303" fill="transparent"></rect><rect id="SvgjsRect1009" width="448.83333333333337" height="303" fill="url(#pattern_mark_0)"></rect><rect id="SvgjsRect1010" width="448.83333333333337" height="303" fill="url(#pattern_mark_1)"></rect><g id="SvgjsG1011" transform="translate(52,96)"><path id="SvgjsPath1012" d="M 0 4Q 0 0 4 0L 367.83333333333337 0Q 371.83333333333337 0 371.83333333333337 4L 371.83333333333337 178Q 371.83333333333337 182 367.83333333333337 182L 4 182Q 0 182 0 178Z" stroke="rgba(33,41,48,1)" stroke-width="1.5" fill-opacity="1" fill="#ffffff"></path><g id="SvgjsG1013"><text id="SvgjsText1014" font-family="&quot;Microsoft YaHei&quot;, 微软雅黑, Arial" text-anchor="middle" font-size="13px" width="352px" fill="#323232" font-weight="400" align="middle" lineHeight="125%" anchor="middle" family="&quot;Microsoft YaHei&quot;, 微软雅黑, Arial" size="13px" weight="400" font-style="" opacity="1" y="80.375" transform="rotate(0)"></text></g></g><g id="SvgjsG1015" transform="translate(71,110)"><path id="SvgjsPath1016" d="M 0 4Q 0 0 4 0L 104 0Q 108 0 108 4L 108 150Q 108 154 104 154L 4 154Q 0 154 0 150Z" stroke="rgba(33,41,48,1)" stroke-width="1.5" fill-opacity="1" fill="#d0d3d0"></path><path id="SvgjsPath1017" d="M 0 30L 108 30" stroke="rgba(33,41,48,1)" stroke-width="1.5" fill="none"></path><path id="SvgjsPath1018" d="M 0 0L 108 0L 108 154L 0 154Z" stroke="none" fill="none"></path><g id="SvgjsG1019"><text id="SvgjsText1020" font-family="&quot;Microsoft YaHei&quot;, 微软雅黑, Arial" text-anchor="middle" font-size="13px" width="88px" fill="#323232" font-weight="700" align="middle" lineHeight="125%" anchor="middle" family="&quot;Microsoft YaHei&quot;, 微软雅黑, Arial" size="13px" weight="700" font-style="" opacity="1" y="4.375" transform="rotate(0)"><tspan id="SvgjsTspan1021" dy="16.25" x="54"><tspan id="SvgjsTspan1022" style="">Car 实例</tspan></tspan></text></g><g id="SvgjsG1023"><text id="SvgjsText1024" font-family="&quot;Microsoft YaHei&quot;, 微软雅黑, Arial" text-anchor="start" font-size="13px" width="88px" fill="#323232" font-weight="400" align="middle" lineHeight="125%" anchor="start" family="&quot;Microsoft YaHei&quot;, 微软雅黑, Arial" size="13px" weight="400" font-style="" opacity="1" y="81.375" transform="rotate(0)"></text></g></g><g id="SvgjsG1025" transform="translate(277,25)"><path id="SvgjsPath1026" d="M 0 0L 64 0L 80 16L 80 45L 0 45L 0 0Z" stroke="none" fill-opacity="1" fill="#e6e9e6"></path><path id="SvgjsPath1027" d="M 64 0L 64 16L 80 16Z" stroke="none" fill-opacity="1" fill="#e4d089"></path><path id="SvgjsPath1028" d="M 0 0L 64 0L 80 16L 80 45L 0 45L 0 0Z" stroke="none" fill="none"></path><g id="SvgjsG1029"><text id="SvgjsText1030" font-family="&quot;Microsoft YaHei&quot;, 微软雅黑, Arial" text-anchor="middle" font-size="13px" width="60px" fill="#323232" font-weight="400" align="middle" lineHeight="125%" anchor="middle" family="&quot;Microsoft YaHei&quot;, 微软雅黑, Arial" size="13px" weight="400" font-style="" opacity="1" y="11.875" transform="rotate(0)"><tspan id="SvgjsTspan1031" dy="16.25" x="40"><tspan id="SvgjsTspan1032" style="">Car.class</tspan></tspan></text></g></g><g id="SvgjsG1033" transform="translate(267,110)"><path id="SvgjsPath1034" d="M 0 0L 100 0L 100 45L 0 45Z" stroke="rgba(33,41,48,1)" stroke-width="1.5" fill-opacity="1" fill="#e7e9e7"></path><g id="SvgjsG1035"><text id="SvgjsText1036" font-family="&quot;Microsoft YaHei&quot;, 微软雅黑, Arial" text-anchor="middle" font-size="13px" width="80px" fill="#323232" font-weight="400" align="middle" lineHeight="125%" anchor="middle" family="&quot;Microsoft YaHei&quot;, 微软雅黑, Arial" size="13px" weight="400" font-style="" opacity="1" y="11.875" transform="rotate(0)"><tspan id="SvgjsTspan1037" dy="16.25" x="50"><tspan id="SvgjsTspan1038" style="">ClassLoader</tspan></tspan></text></g></g><g id="SvgjsG1039" transform="translate(274.5,215)"><path id="SvgjsPath1040" d="M 0 20C 0 -6.666666666666667 85 -6.666666666666667 85 20C 85 46.666666666666664 0 46.666666666666664 0 20Z" stroke="rgba(33,41,48,1)" stroke-width="1.5" fill-opacity="1" fill="#e7e9e9"></path><g id="SvgjsG1041"><text id="SvgjsText1042" font-family="&quot;Microsoft YaHei&quot;, 微软雅黑, Arial" text-anchor="middle" font-size="13px" width="65px" fill="#323232" font-weight="400" align="middle" lineHeight="125%" anchor="middle" family="&quot;Microsoft YaHei&quot;, 微软雅黑, Arial" size="13px" weight="400" font-style="" opacity="1" y="9.375" transform="rotate(0)"><tspan id="SvgjsTspan1043" dy="16.25" x="42.5"><tspan id="SvgjsTspan1044" style="">Car Class</tspan></tspan></text></g></g><g id="SvgjsG1045" transform="translate(85,145)"><path id="SvgjsPath1046" d="M 0 4Q 0 0 4 0L 76 0Q 80 0 80 4L 80 26Q 80 30 76 30L 4 30Q 0 30 0 26Z" stroke="rgba(33,41,48,1)" stroke-width="1.5" fill-opacity="1" fill="#e7e9e7"></path><g id="SvgjsG1047"><text id="SvgjsText1048" font-family="&quot;Microsoft YaHei&quot;, 微软雅黑, Arial" text-anchor="middle" font-size="13px" width="60px" fill="#323232" font-weight="400" align="middle" lineHeight="125%" anchor="middle" family="&quot;Microsoft YaHei&quot;, 微软雅黑, Arial" size="13px" weight="400" font-style="" opacity="1" y="4.375" transform="rotate(0)"><tspan id="SvgjsTspan1049" dy="16.25" x="40"><tspan id="SvgjsTspan1050" style="">car1</tspan></tspan></text></g></g><g id="SvgjsG1051" transform="translate(85,185)"><path id="SvgjsPath1052" d="M 0 4Q 0 0 4 0L 76 0Q 80 0 80 4L 80 26Q 80 30 76 30L 4 30Q 0 30 0 26Z" stroke="rgba(33,41,48,1)" stroke-width="1.5" fill-opacity="1" fill="#e7e9e7"></path><g id="SvgjsG1053"><text id="SvgjsText1054" font-family="&quot;Microsoft YaHei&quot;, 微软雅黑, Arial" text-anchor="middle" font-size="13px" width="60px" fill="#323232" font-weight="400" align="middle" lineHeight="125%" anchor="middle" family="&quot;Microsoft YaHei&quot;, 微软雅黑, Arial" size="13px" weight="400" font-style="" opacity="1" y="4.375" transform="rotate(0)"><tspan id="SvgjsTspan1055" dy="16.25" x="40"><tspan id="SvgjsTspan1056" style="">car2</tspan></tspan></text></g></g><g id="SvgjsG1057" transform="translate(85,225)"><path id="SvgjsPath1058" d="M 0 4Q 0 0 4 0L 76 0Q 80 0 80 4L 80 26Q 80 30 76 30L 4 30Q 0 30 0 26Z" stroke="rgba(33,41,48,1)" stroke-width="1.5" fill-opacity="1" fill="#e7e9e7"></path><g id="SvgjsG1059"><text id="SvgjsText1060" font-family="&quot;Microsoft YaHei&quot;, 微软雅黑, Arial" text-anchor="middle" font-size="13px" width="60px" fill="#323232" font-weight="400" align="middle" lineHeight="125%" anchor="middle" family="&quot;Microsoft YaHei&quot;, 微软雅黑, Arial" size="13px" weight="400" font-style="" opacity="1" y="4.375" transform="rotate(0)"><tspan id="SvgjsTspan1061" dy="16.25" x="40"><tspan id="SvgjsTspan1062" style="">car3</tspan></tspan></text></g></g><g id="SvgjsG1063" transform="translate(25,83)"><path id="SvgjsPath1064" d="M 0 0L 100 0L 100 40L 0 40Z" stroke="none" fill="none"></path><g id="SvgjsG1065"><text id="SvgjsText1066" font-family="&quot;Microsoft YaHei&quot;, 微软雅黑, Arial" text-anchor="middle" font-size="13px" width="100px" fill="#323232" font-weight="400" align="middle" lineHeight="125%" anchor="middle" family="&quot;Microsoft YaHei&quot;, 微软雅黑, Arial" size="13px" weight="400" font-style="" opacity="1" y="9.375" transform="rotate(0)"><tspan id="SvgjsTspan1067" dy="16.25" x="50"><tspan id="SvgjsTspan1068" style="">JVM</tspan></tspan></text></g></g><g id="SvgjsG1069"><path id="SvgjsPath1070" d="M317 70L317 90L317 90L317 107.3" stroke="#323232" stroke-width="1.5" fill="none" marker-end="url(#SvgjsMarker1071)"></path></g><g id="SvgjsG1073"><path id="SvgjsPath1074" d="M317 155.75L317 185L317 185L317 212.3" stroke="#323232" stroke-width="1.5" fill="none" marker-end="url(#SvgjsMarker1075)"></path><rect id="SvgjsRect1077" width="78" height="18" x="278" y="170.78375" fill="#ffffff"></rect><text id="SvgjsText1078" font-family="&quot;Microsoft YaHei&quot;, 微软雅黑, Arial" text-anchor="middle" font-size="13px" width="78px" fill="#323232" font-weight="400" align="top" lineHeight="16px" anchor="middle" family="&quot;Microsoft YaHei&quot;, 微软雅黑, Arial" size="13px" weight="400" font-style="" opacity="1" y="168.15875" transform="rotate(0)"><tspan id="SvgjsTspan1079" dy="16.25" x="317"><tspan id="SvgjsTspan1080" style="">加载并初始化</tspan></tspan></text></g><g id="SvgjsG1081"><path id="SvgjsPath1082" d="M273.75 235L226.41666666666669 235L226.41666666666669 235L181.03333333333333 235" stroke="#323232" stroke-width="1.5" fill="none" marker-end="url(#SvgjsMarker1083)"></path><rect id="SvgjsRect1085" width="39" height="18" x="208.3093093093093" y="226" fill="#ffffff"></rect><text id="SvgjsText1086" font-family="&quot;Microsoft YaHei&quot;, 微软雅黑, Arial" text-anchor="middle" font-size="13px" width="39px" fill="#323232" font-weight="400" align="top" lineHeight="16px" anchor="middle" family="&quot;Microsoft YaHei&quot;, 微软雅黑, Arial" size="13px" weight="400" font-style="" opacity="1" y="223.375" transform="rotate(0)"><tspan id="SvgjsTspan1087" dy="16.25" x="227.8093093093093"><tspan id="SvgjsTspan1088" style="">实例化</tspan></tspan></text></g><g id="SvgjsG1089"><path id="SvgjsPath1090" d="M165.74937042677587 160.03072398857162C 218.18434398136418 159.99999999999994 247.676609803168 183.38706500276268 279.4148804855533 222.64755626121996" stroke-dasharray="7.5,3" stroke="#323232" stroke-width="1.5" fill="none" marker-end="url(#SvgjsMarker1091)"></path><rect id="SvgjsRect1093" width="59" height="18" x="187.46861432658744" y="160.72631056061593" fill="#ffffff"></rect><text id="SvgjsText1094" font-family="&quot;Microsoft YaHei&quot;, 微软雅黑, Arial" text-anchor="middle" font-size="13px" width="59px" fill="#323232" font-weight="400" align="top" lineHeight="16px" anchor="middle" family="&quot;Microsoft YaHei&quot;, 微软雅黑, Arial" size="13px" weight="400" font-style="" opacity="1" y="158.10131056061593" transform="rotate(0)"><tspan id="SvgjsTspan1095" dy="16.25" x="216.96861432658744"><tspan id="SvgjsTspan1096" style="">getClass()</tspan></tspan></text></g><g id="SvgjsG1097"><path id="SvgjsPath1098" d="M357.6812080012401 227.42132736044516C 384.65570507506567 217.79811677929757 363 184.03307551722492 363.26194507243514 157.35393010351595" stroke-dasharray="7.5,3" stroke="#323232" stroke-width="1.5" fill="none" marker-end="url(#SvgjsMarker1099)"></path><rect id="SvgjsRect1101" width="100" height="18" x="320.71331614339783" y="191.33060748926428" fill="#ffffff"></rect><text id="SvgjsText1102" font-family="&quot;Microsoft YaHei&quot;, 微软雅黑, Arial" text-anchor="middle" font-size="13px" width="100px" fill="#323232" font-weight="400" align="top" lineHeight="16px" anchor="middle" family="&quot;Microsoft YaHei&quot;, 微软雅黑, Arial" size="13px" weight="400" font-style="" opacity="1" y="188.70560748926428" transform="rotate(0)"><tspan id="SvgjsTspan1103" dy="16.25" x="370.71331614339783"><tspan id="SvgjsTspan1104" style="">getClassLoader()</tspan></tspan></text></g><g id="SvgjsG1105"></g></svg>