<svg id="SvgjsSvg1006" width="493.25" height="315" xmlns="http://www.w3.org/2000/svg" version="1.1" xmlns:xlink="http://www.w3.org/1999/xlink" xmlns:svgjs="http://svgjs.com/svgjs"><defs id="SvgjsDefs1007"><pattern patternUnits="userSpaceOnUse" id="pattern_mark_0" width="300" height="300"><text x="150" y="100" fill="rgba(229,229,229,0.8)" font-size="18" transform="rotate(-45, 150, 150)" style="dominant-baseline: middle; text-anchor: middle;"></text></pattern><pattern patternUnits="userSpaceOnUse" id="pattern_mark_1" width="300" height="300"><text x="150" y="200" fill="rgba(229,229,229,0.8)" font-size="18" transform="rotate(-45, 150, 150)" style="dominant-baseline: middle; text-anchor: middle;"></text></pattern></defs><rect id="svgbackgroundid" width="493.25" height="315" fill="transparent"></rect><rect id="SvgjsRect1009" width="493.25" height="315" fill="url(#pattern_mark_0)"></rect><rect id="SvgjsRect1010" width="493.25" height="315" fill="url(#pattern_mark_1)"></rect><g id="SvgjsG1011" transform="translate(25,25)"><path id="SvgjsPath1012" d="M 0 4Q 0 0 4 0L 433 0Q 437 0 437 4L 437 261Q 437 265 433 265L 4 265Q 0 265 0 261Z" stroke="rgba(33,41,48,1)" stroke-width="1.5" fill-opacity="1" fill="#ffffff"></path><g id="SvgjsG1013"><text id="SvgjsText1014" font-family="&quot;Microsoft YaHei&quot;, 微软雅黑, Arial" text-anchor="start" font-size="13px" width="417px" fill="#323232" font-weight="700" align="top" lineHeight="125%" anchor="start" family="&quot;Microsoft YaHei&quot;, 微软雅黑, Arial" size="13px" weight="700" font-style="" opacity="1" y="-2.625" transform="rotate(0)"><tspan id="SvgjsTspan1015" dy="16.25" x="10"><tspan id="SvgjsTspan1016" style="fill: rgb(219, 151, 100);">STW(Stop-The-World)</tspan><tspan id="SvgjsTspan1017" style=""> VS </tspan><tspan id="SvgjsTspan1018" style="fill: rgb(219, 151, 100);">并发(Concurrent)</tspan></tspan></text></g></g><g id="SvgjsG1019" transform="translate(67,56)"><path id="SvgjsPath1020" d="M 9.9 0L 20.1 0L 20.1 45L 30 45L 15 60L 0 45L 9.9 45L 9.9 0Z" stroke="none" fill-opacity="1" fill="#9db74f"></path><g id="SvgjsG1021"><text id="SvgjsText1022" font-family="&quot;Microsoft YaHei&quot;, 微软雅黑, Arial" text-anchor="middle" font-size="13px" width="42px" fill="#323232" font-weight="400" align="middle" lineHeight="125%" anchor="middle" family="&quot;Microsoft YaHei&quot;, 微软雅黑, Arial" size="13px" weight="400" font-style="" opacity="1" y="16.375" transform="rotate(0)"></text></g></g><g id="SvgjsG1023" transform="translate(98,56)"><path id="SvgjsPath1024" d="M 9.9 0L 20.1 0L 20.1 45L 30 45L 15 60L 0 45L 9.9 45L 9.9 0Z" stroke="none" fill-opacity="1" fill="#9db74f"></path><g id="SvgjsG1025"><text id="SvgjsText1026" font-family="&quot;Microsoft YaHei&quot;, 微软雅黑, Arial" text-anchor="middle" font-size="13px" width="42px" fill="#323232" font-weight="400" align="middle" lineHeight="125%" anchor="middle" family="&quot;Microsoft YaHei&quot;, 微软雅黑, Arial" size="13px" weight="400" font-style="" opacity="1" y="16.375" transform="rotate(0)"></text></g></g><g id="SvgjsG1027" transform="translate(129,56)"><path id="SvgjsPath1028" d="M 9.9 0L 20.1 0L 20.1 45L 30 45L 15 60L 0 45L 9.9 45L 9.9 0Z" stroke="none" fill-opacity="1" fill="#9db74f"></path><g id="SvgjsG1029"><text id="SvgjsText1030" font-family="&quot;Microsoft YaHei&quot;, 微软雅黑, Arial" text-anchor="middle" font-size="13px" width="42px" fill="#323232" font-weight="400" align="middle" lineHeight="125%" anchor="middle" family="&quot;Microsoft YaHei&quot;, 微软雅黑, Arial" size="13px" weight="400" font-style="" opacity="1" y="16.375" transform="rotate(0)"></text></g></g><g id="SvgjsG1031" transform="translate(160,56)"><path id="SvgjsPath1032" d="M 9.9 0L 20.1 0L 20.1 45L 30 45L 15 60L 0 45L 9.9 45L 9.9 0Z" stroke="none" fill-opacity="1" fill="#9db74f"></path><g id="SvgjsG1033"><text id="SvgjsText1034" font-family="&quot;Microsoft YaHei&quot;, 微软雅黑, Arial" text-anchor="middle" font-size="13px" width="42px" fill="#323232" font-weight="400" align="middle" lineHeight="125%" anchor="middle" family="&quot;Microsoft YaHei&quot;, 微软雅黑, Arial" size="13px" weight="400" font-style="" opacity="1" y="16.375" transform="rotate(0)"></text></g></g><g id="SvgjsG1035" transform="translate(67,116)"><path id="SvgjsPath1036" d="M 0 0L 123 0L 123 20L 0 20Z" stroke="none" fill-opacity="1" fill="#b74f41"></path><g id="SvgjsG1037"><text id="SvgjsText1038" font-family="&quot;Microsoft YaHei&quot;, 微软雅黑, Arial" text-anchor="middle" font-size="13px" width="103px" fill="#323232" font-weight="400" align="middle" lineHeight="125%" anchor="middle" family="&quot;Microsoft YaHei&quot;, 微软雅黑, Arial" size="13px" weight="400" font-style="" opacity="1" y="-0.625" transform="rotate(0)"></text></g></g><g id="SvgjsG1039" transform="translate(67,196)"><path id="SvgjsPath1040" d="M 0 0L 123 0L 123 20L 0 20Z" stroke="none" fill-opacity="1" fill="#b74f41"></path><g id="SvgjsG1041"><text id="SvgjsText1042" font-family="&quot;Microsoft YaHei&quot;, 微软雅黑, Arial" text-anchor="middle" font-size="13px" width="103px" fill="#323232" font-weight="400" align="middle" lineHeight="125%" anchor="middle" family="&quot;Microsoft YaHei&quot;, 微软雅黑, Arial" size="13px" weight="400" font-style="" opacity="1" y="-0.625" transform="rotate(0)"></text></g></g><g id="SvgjsG1043" transform="translate(114,136)"><path id="SvgjsPath1044" d="M 9.9 0L 20.1 0L 20.1 45L 30 45L 15 60L 0 45L 9.9 45L 9.9 0Z" stroke="none" fill-opacity="1" fill="#cc4c3e"></path><g id="SvgjsG1045"><text id="SvgjsText1046" font-family="&quot;Microsoft YaHei&quot;, 微软雅黑, Arial" text-anchor="middle" font-size="13px" width="42px" fill="#323232" font-weight="400" align="middle" lineHeight="125%" anchor="middle" family="&quot;Microsoft YaHei&quot;, 微软雅黑, Arial" size="13px" weight="400" font-style="" opacity="1" y="16.375" transform="rotate(0)"></text></g></g><g id="SvgjsG1047" transform="translate(67.5,216)"><path id="SvgjsPath1048" d="M 9.9 0L 20.1 0L 20.1 45L 30 45L 15 60L 0 45L 9.9 45L 9.9 0Z" stroke="none" fill-opacity="1" fill="#9db74f"></path><g id="SvgjsG1049"><text id="SvgjsText1050" font-family="&quot;Microsoft YaHei&quot;, 微软雅黑, Arial" text-anchor="middle" font-size="13px" width="42px" fill="#323232" font-weight="400" align="middle" lineHeight="125%" anchor="middle" family="&quot;Microsoft YaHei&quot;, 微软雅黑, Arial" size="13px" weight="400" font-style="" opacity="1" y="16.375" transform="rotate(0)"></text></g></g><g id="SvgjsG1051" transform="translate(98.5,216)"><path id="SvgjsPath1052" d="M 9.9 0L 20.1 0L 20.1 45L 30 45L 15 60L 0 45L 9.9 45L 9.9 0Z" stroke="none" fill-opacity="1" fill="#9db74f"></path><g id="SvgjsG1053"><text id="SvgjsText1054" font-family="&quot;Microsoft YaHei&quot;, 微软雅黑, Arial" text-anchor="middle" font-size="13px" width="42px" fill="#323232" font-weight="400" align="middle" lineHeight="125%" anchor="middle" family="&quot;Microsoft YaHei&quot;, 微软雅黑, Arial" size="13px" weight="400" font-style="" opacity="1" y="16.375" transform="rotate(0)"></text></g></g><g id="SvgjsG1055" transform="translate(129.5,216)"><path id="SvgjsPath1056" d="M 9.9 0L 20.1 0L 20.1 45L 30 45L 15 60L 0 45L 9.9 45L 9.9 0Z" stroke="none" fill-opacity="1" fill="#9db74f"></path><g id="SvgjsG1057"><text id="SvgjsText1058" font-family="&quot;Microsoft YaHei&quot;, 微软雅黑, Arial" text-anchor="middle" font-size="13px" width="42px" fill="#323232" font-weight="400" align="middle" lineHeight="125%" anchor="middle" family="&quot;Microsoft YaHei&quot;, 微软雅黑, Arial" size="13px" weight="400" font-style="" opacity="1" y="16.375" transform="rotate(0)"></text></g></g><g id="SvgjsG1059" transform="translate(160.5,216)"><path id="SvgjsPath1060" d="M 9.9 0L 20.1 0L 20.1 45L 30 45L 15 60L 0 45L 9.9 45L 9.9 0Z" stroke="none" fill-opacity="1" fill="#9db74f"></path><g id="SvgjsG1061"><text id="SvgjsText1062" font-family="&quot;Microsoft YaHei&quot;, 微软雅黑, Arial" text-anchor="middle" font-size="13px" width="42px" fill="#323232" font-weight="400" align="middle" lineHeight="125%" anchor="middle" family="&quot;Microsoft YaHei&quot;, 微软雅黑, Arial" size="13px" weight="400" font-style="" opacity="1" y="16.375" transform="rotate(0)"></text></g></g><g id="SvgjsG1063" transform="translate(270,56)"><path id="SvgjsPath1064" d="M 9.9 0L 20.1 0L 20.1 205L 30 205L 15 220L 0 205L 9.9 205L 9.9 0Z" stroke="none" fill-opacity="1" fill="#9db74f"></path><g id="SvgjsG1065"><text id="SvgjsText1066" font-family="&quot;Microsoft YaHei&quot;, 微软雅黑, Arial" text-anchor="middle" font-size="13px" width="42px" fill="#323232" font-weight="400" align="middle" lineHeight="125%" anchor="middle" family="&quot;Microsoft YaHei&quot;, 微软雅黑, Arial" size="13px" weight="400" font-style="" opacity="1" y="88.375" transform="rotate(0)"></text></g></g><g id="SvgjsG1067" transform="translate(301,56)"><path id="SvgjsPath1068" d="M 9.9 0L 20.1 0L 20.1 205L 30 205L 15 220L 0 205L 9.9 205L 9.9 0Z" stroke="none" fill-opacity="1" fill="#9db74f"></path><g id="SvgjsG1069"><text id="SvgjsText1070" font-family="&quot;Microsoft YaHei&quot;, 微软雅黑, Arial" text-anchor="middle" font-size="13px" width="42px" fill="#323232" font-weight="400" align="middle" lineHeight="125%" anchor="middle" family="&quot;Microsoft YaHei&quot;, 微软雅黑, Arial" size="13px" weight="400" font-style="" opacity="1" y="88.375" transform="rotate(0)"></text></g></g><g id="SvgjsG1071" transform="translate(332,56)"><path id="SvgjsPath1072" d="M 9.9 0L 20.1 0L 20.1 205L 30 205L 15 220L 0 205L 9.9 205L 9.9 0Z" stroke="none" fill-opacity="1" fill="#9db74f"></path><g id="SvgjsG1073"><text id="SvgjsText1074" font-family="&quot;Microsoft YaHei&quot;, 微软雅黑, Arial" text-anchor="middle" font-size="13px" width="42px" fill="#323232" font-weight="400" align="middle" lineHeight="125%" anchor="middle" family="&quot;Microsoft YaHei&quot;, 微软雅黑, Arial" size="13px" weight="400" font-style="" opacity="1" y="88.375" transform="rotate(0)"></text></g></g><g id="SvgjsG1075" transform="translate(363,56)"><path id="SvgjsPath1076" d="M 9.9 0L 20.1 0L 20.1 205L 30 205L 15 220L 0 205L 9.9 205L 9.9 0Z" stroke="none" fill-opacity="1" fill="#ca4b3a"></path><g id="SvgjsG1077"><text id="SvgjsText1078" font-family="&quot;Microsoft YaHei&quot;, 微软雅黑, Arial" text-anchor="middle" font-size="13px" width="42px" fill="#323232" font-weight="400" align="middle" lineHeight="125%" anchor="middle" family="&quot;Microsoft YaHei&quot;, 微软雅黑, Arial" size="13px" weight="400" font-style="" opacity="1" y="88.375" transform="rotate(0)"></text></g></g><g id="SvgjsG1079" transform="translate(368.25,146)"><path id="SvgjsPath1080" d="M 0 0L 100 0L 100 40L 0 40Z" stroke="none" fill="none"></path><g id="SvgjsG1081"><text id="SvgjsText1082" font-family="&quot;Microsoft YaHei&quot;, 微软雅黑, Arial" text-anchor="middle" font-size="13px" width="100px" fill="#323232" font-weight="400" align="middle" lineHeight="125%" anchor="middle" family="&quot;Microsoft YaHei&quot;, 微软雅黑, Arial" size="13px" weight="400" font-style="" opacity="1" y="9.375" transform="rotate(0)"><tspan id="SvgjsTspan1083" dy="16.25" x="50"><tspan id="SvgjsTspan1084" style="font-weight: bold;">Concurrent</tspan></tspan></text></g></g><g id="SvgjsG1085" transform="translate(147.17307692307693,136)"><path id="SvgjsPath1086" d="M 0 25C 0 -8.333333333333334 119.65384615384613 -8.333333333333334 119.65384615384613 25Q 117.26076923076921 49 59.826923076923066 50Q 39.88461538461538 50 19.94230769230769 45L 0 50L 13.999499999999998 42.85Q 0 35 0 25" stroke="none" fill-opacity="1" fill="#d84f3d"></path><g id="SvgjsG1087"><text id="SvgjsText1088" font-family="&quot;Microsoft YaHei&quot;, 微软雅黑, Arial" text-anchor="middle" font-size="13px" width="100px" fill="#ffffff" font-weight="700" align="middle" lineHeight="125%" anchor="middle" family="&quot;Microsoft YaHei&quot;, 微软雅黑, Arial" size="13px" weight="700" font-style="" opacity="1" y="14.375" transform="rotate(0)"><tspan id="SvgjsTspan1089" dy="16.25" x="60"><tspan id="SvgjsTspan1090" style="">Stop the World!</tspan></tspan></text></g></g><g id="SvgjsG1091"></g></svg>