<svg id="SvgjsSvg1058" width="589.32" height="200" xmlns="http://www.w3.org/2000/svg" version="1.1" xmlns:xlink="http://www.w3.org/1999/xlink" xmlns:svgjs="http://svgjs.com/svgjs"><defs id="SvgjsDefs1059"><pattern patternUnits="userSpaceOnUse" id="pattern_mark_0" width="300" height="300"><text x="150" y="100" fill="rgba(229,229,229,0.8)" font-size="18" transform="rotate(-45, 150, 150)" style="dominant-baseline: middle; text-anchor: middle;"></text></pattern><pattern patternUnits="userSpaceOnUse" id="pattern_mark_1" width="300" height="300"><text x="150" y="200" fill="rgba(229,229,229,0.8)" font-size="18" transform="rotate(-45, 150, 150)" style="dominant-baseline: middle; text-anchor: middle;"></text></pattern><marker id="SvgjsMarker1089" markerWidth="13" markerHeight="9" refX="9.5" refY="4.5" viewBox="0 0 13 9" orient="auto" markerUnits="userSpaceOnUse" stroke-dasharray="0,0"><path id="SvgjsPath1090" d="M0,0 L13,4.5 L0,9 L0,0" fill="#323232" stroke="#323232" stroke-width="1"></path></marker><marker id="SvgjsMarker1093" markerWidth="13" markerHeight="9" refX="9.5" refY="4.5" viewBox="0 0 13 9" orient="auto" markerUnits="userSpaceOnUse" stroke-dasharray="0,0"><path id="SvgjsPath1094" d="M0,0 L13,4.5 L0,9 L0,0" fill="#323232" stroke="#323232" stroke-width="1"></path></marker><marker id="SvgjsMarker1097" markerWidth="13" markerHeight="9" refX="9.5" refY="4.5" viewBox="0 0 13 9" orient="auto" markerUnits="userSpaceOnUse" stroke-dasharray="0,0"><path id="SvgjsPath1098" d="M0,0 L13,4.5 L0,9 L0,0" fill="#323232" stroke="#323232" stroke-width="1"></path></marker><marker id="SvgjsMarker1101" markerWidth="13" markerHeight="9" refX="9.5" refY="4.5" viewBox="0 0 13 9" orient="auto" markerUnits="userSpaceOnUse" stroke-dasharray="0,0"><path id="SvgjsPath1102" d="M0,0 L13,4.5 L0,9 L0,0" fill="#323232" stroke="#323232" stroke-width="1"></path></marker></defs><rect id="svgbackgroundid" width="589.32" height="200" fill="transparent"></rect><rect id="SvgjsRect1061" width="589.32" height="200" fill="url(#pattern_mark_0)"></rect><rect id="SvgjsRect1062" width="589.32" height="200" fill="url(#pattern_mark_1)"></rect><g id="SvgjsG1063" transform="translate(54.155,135)"><path id="SvgjsPath1064" d="M 0 5Q 19.75 15 39.5 5Q 59.25 -5 79 5L 79 35Q 59.25 25 39.5 35Q 19.75 45 0 35L 0 5Z" stroke="rgba(33,41,48,1)" stroke-width="1.5" fill-opacity="1" fill="#d4e3fe"></path><g id="SvgjsG1065"><text id="SvgjsText1066" font-family="&quot;Microsoft YaHei&quot;, 微软雅黑, Arial" text-anchor="middle" font-size="13px" width="79px" fill="#323232" font-weight="400" align="middle" lineHeight="125%" anchor="middle" family="&quot;Microsoft YaHei&quot;, 微软雅黑, Arial" size="13px" weight="400" font-style="" opacity="1" y="9.375" transform="rotate(0)"><tspan id="SvgjsTspan1067" dy="16.25" x="39.5"><tspan id="SvgjsTspan1068" style="">ib_logfile 0</tspan></tspan></text></g></g><g id="SvgjsG1069" transform="translate(208.26611111111114,135)"><path id="SvgjsPath1070" d="M 0 5Q 19.75 15 39.5 5Q 59.25 -5 79 5L 79 35Q 59.25 25 39.5 35Q 19.75 45 0 35L 0 5Z" stroke="rgba(33,41,48,1)" stroke-width="1.5" fill-opacity="1" fill="#d4e3fe"></path><g id="SvgjsG1071"><text id="SvgjsText1072" font-family="&quot;Microsoft YaHei&quot;, 微软雅黑, Arial" text-anchor="middle" font-size="13px" width="79px" fill="#323232" font-weight="400" align="middle" lineHeight="125%" anchor="middle" family="&quot;Microsoft YaHei&quot;, 微软雅黑, Arial" size="13px" weight="400" font-style="" opacity="1" y="9.375" transform="rotate(0)"><tspan id="SvgjsTspan1073" dy="16.25" x="39.5"><tspan id="SvgjsTspan1074" style="">ib_logfile 1</tspan></tspan></text></g></g><g id="SvgjsG1075" transform="translate(466.1550000000001,135)"><path id="SvgjsPath1076" d="M 0 5Q 19.75 15 39.5 5Q 59.25 -5 79 5L 79 35Q 59.25 25 39.5 35Q 19.75 45 0 35L 0 5Z" stroke="rgba(33,41,48,1)" stroke-width="1.5" fill-opacity="1" fill="#d4e3fe"></path><g id="SvgjsG1077"><text id="SvgjsText1078" font-family="&quot;Microsoft YaHei&quot;, 微软雅黑, Arial" text-anchor="middle" font-size="13px" width="79px" fill="#323232" font-weight="400" align="middle" lineHeight="125%" anchor="middle" family="&quot;Microsoft YaHei&quot;, 微软雅黑, Arial" size="13px" weight="400" font-style="" opacity="1" y="9.375" transform="rotate(0)"><tspan id="SvgjsTspan1079" dy="16.25" x="39.5"><tspan id="SvgjsTspan1080" style="">ib_logfile n</tspan></tspan></text></g></g><g id="SvgjsG1081" transform="translate(362.37722222222226,135)"><path id="SvgjsPath1082" d="M 0 0L 28.666666666666742 0L 28.666666666666742 40L 0 40Z" stroke="none" fill="none"></path><g id="SvgjsG1083"><text id="SvgjsText1084" font-family="&quot;Microsoft YaHei&quot;, 微软雅黑, Arial" text-anchor="middle" font-size="13px" width="29px" fill="#323232" font-weight="400" align="middle" lineHeight="125%" anchor="middle" family="&quot;Microsoft YaHei&quot;, 微软雅黑, Arial" size="13px" weight="400" font-style="" opacity="1" y="9.375" transform="rotate(0)"><tspan id="SvgjsTspan1085" dy="16.25" x="14.5"><tspan id="SvgjsTspan1086" style="">•••</tspan></tspan></text></g></g><g id="SvgjsG1087"><path id="SvgjsPath1088" d="M133.905 155L170.71055555555554 155L170.71055555555554 155L205.56611111111116 155" stroke="#323232" stroke-width="1.5" fill="none" marker-end="url(#SvgjsMarker1089)"></path></g><g id="SvgjsG1091"><path id="SvgjsPath1092" d="M288.0161111111112 155L324.8216666666667 155L324.8216666666667 155L359.6772222222223 155" stroke="#323232" stroke-width="1.5" fill="none" marker-end="url(#SvgjsMarker1093)"></path></g><g id="SvgjsG1095"><path id="SvgjsPath1096" d="M391.793888888889 155L428.59944444444454 155L428.59944444444454 155L463.45500000000004 155" stroke="#323232" stroke-width="1.5" fill="none" marker-end="url(#SvgjsMarker1097)"></path></g><g id="SvgjsG1099"><path id="SvgjsPath1100" d="M545.7142718853831 154.50028512307512C 702.155 33 -139.845 41 51.90037960735398 153.51450786435444" stroke="#323232" stroke-width="1.5" fill="none" marker-end="url(#SvgjsMarker1101)"></path></g><g id="SvgjsG1103" transform="translate(233.04388888888903,25)"><path id="SvgjsPath1104" d="M 0 0L 158 0L 158 40L 0 40Z" stroke="none" fill="none"></path><g id="SvgjsG1105"><text id="SvgjsText1106" font-family="&quot;Microsoft YaHei&quot;, 微软雅黑, Arial" text-anchor="middle" font-size="15px" width="158px" fill="#323232" font-weight="400" align="middle" lineHeight="125%" anchor="middle" family="&quot;Microsoft YaHei&quot;, 微软雅黑, Arial" size="15px" weight="400" font-style="" opacity="1" y="7.625" transform="rotate(0)"><tspan id="SvgjsTspan1107" dy="18.75" x="79"><tspan id="SvgjsTspan1108" style="">redo日志文件组示意图</tspan></tspan></text></g></g><g id="SvgjsG1109"></g></svg>