<svg id="SvgjsSvg1006" width="636" height="515" xmlns="http://www.w3.org/2000/svg" version="1.1" xmlns:xlink="http://www.w3.org/1999/xlink" xmlns:svgjs="http://svgjs.com/svgjs"><defs id="SvgjsDefs1007"><pattern patternUnits="userSpaceOnUse" id="pattern_mark_0" width="300" height="300"><text x="150" y="100" fill="rgba(72,75,86,0.8)" font-size="18" transform="rotate(-45, 150, 150)" style="dominant-baseline: middle; text-anchor: middle;"></text></pattern><pattern patternUnits="userSpaceOnUse" id="pattern_mark_1" width="300" height="300"><text x="150" y="200" fill="rgba(72,75,86,0.8)" font-size="18" transform="rotate(-45, 150, 150)" style="dominant-baseline: middle; text-anchor: middle;"></text></pattern><marker id="SvgjsMarker1139" markerWidth="13" markerHeight="9" refX="9.5" refY="4.5" viewBox="0 0 13 9" orient="auto" markerUnits="userSpaceOnUse" stroke-dasharray="0,0"><path id="SvgjsPath1140" d="M0,0 L13,4.5 L0,9 L0,0" fill="#ffffff" stroke="#ffffff" stroke-width="1"></path></marker><marker id="SvgjsMarker1143" markerWidth="13" markerHeight="9" refX="9.5" refY="4.5" viewBox="0 0 13 9" orient="auto" markerUnits="userSpaceOnUse" stroke-dasharray="0,0"><path id="SvgjsPath1144" d="M0,0 L13,4.5 L0,9 L0,0" fill="#ffffff" stroke="#ffffff" stroke-width="1"></path></marker><marker id="SvgjsMarker1147" markerWidth="13" markerHeight="9" refX="9.5" refY="4.5" viewBox="0 0 13 9" orient="auto" markerUnits="userSpaceOnUse" stroke-dasharray="0,0"><path id="SvgjsPath1148" d="M0,0 L13,4.5 L0,9 L0,0" fill="#ffffff" stroke="#ffffff" stroke-width="1"></path></marker></defs><rect id="svgbackgroundid" width="636" height="515" fill="#505460"></rect><rect id="SvgjsRect1009" width="636" height="515" fill="url(#pattern_mark_0)"></rect><rect id="SvgjsRect1010" width="636" height="515" fill="url(#pattern_mark_1)"></rect><g id="SvgjsG1011" transform="translate(280,25)"><path id="SvgjsPath1012" d="M 0 0L 331 0L 331 403L 0 403Z" stroke-dasharray="7.5,3" stroke="rgba(255,255,255,1)" stroke-width="1.5" fill-opacity="1" fill="#505460"></path><g id="SvgjsG1013"><text id="SvgjsText1014" font-family="&quot;Microsoft YaHei&quot;, 微软雅黑, Arial" text-anchor="start" font-size="13px" width="311px" fill="#ffffff" font-weight="400" align="top" lineHeight="125%" anchor="start" family="&quot;Microsoft YaHei&quot;, 微软雅黑, Arial" size="13px" weight="400" font-style="" opacity="1" y="-2.625" transform="rotate(0)"><tspan id="SvgjsTspan1015" dy="16.25" x="10"><tspan id="SvgjsTspan1016" style="">应用程序</tspan></tspan></text></g></g><g id="SvgjsG1017" transform="translate(298,182)"><path id="SvgjsPath1018" d="M 0 4Q 0 0 4 0L 291 0Q 295 0 295 4L 295 97Q 295 101 291 101L 4 101Q 0 101 0 97Z" stroke="rgba(180,190,229,1)" stroke-width="1.5" fill-opacity="1" fill="#505460"></path><g id="SvgjsG1019"><text id="SvgjsText1020" font-family="&quot;Microsoft YaHei&quot;, 微软雅黑, Arial" text-anchor="start" font-size="13px" width="275px" fill="#b4bee5" font-weight="400" align="top" lineHeight="125%" anchor="start" family="&quot;Microsoft YaHei&quot;, 微软雅黑, Arial" size="13px" weight="400" font-style="" opacity="1" y="-2.625" transform="rotate(0)"><tspan id="SvgjsTspan1021" dy="16.25" x="10"><tspan id="SvgjsTspan1022" style="">处理线程</tspan></tspan></text></g></g><g id="SvgjsG1023" transform="translate(25,106)"><path id="SvgjsPath1024" d="M 11.667 0L 73.333 0C 88.889 0 88.889 35 73.333 35L 11.667 35C -3.889 35 -3.889 0 11.667 0Z" stroke="rgba(220,186,132,1)" stroke-width="1.5" fill-opacity="1" fill="#505460"></path><g id="SvgjsG1025"><text id="SvgjsText1026" font-family="&quot;Microsoft YaHei&quot;, 微软雅黑, Arial" text-anchor="middle" font-size="13px" width="65px" fill="#dcba84" font-weight="400" align="middle" lineHeight="125%" anchor="middle" family="&quot;Microsoft YaHei&quot;, 微软雅黑, Arial" size="13px" weight="400" font-style="" opacity="1" y="6.875" transform="rotate(0)"><tspan id="SvgjsTspan1027" dy="16.25" x="42.5"><tspan id="SvgjsTspan1028" style="">client</tspan></tspan></text></g></g><g id="SvgjsG1029" transform="translate(25,227)"><path id="SvgjsPath1030" d="M 11.667 0L 73.333 0C 88.889 0 88.889 35 73.333 35L 11.667 35C -3.889 35 -3.889 0 11.667 0Z" stroke="rgba(220,186,132,1)" stroke-width="1.5" fill-opacity="1" fill="#505460"></path><g id="SvgjsG1031"><text id="SvgjsText1032" font-family="&quot;Microsoft YaHei&quot;, 微软雅黑, Arial" text-anchor="middle" font-size="13px" width="65px" fill="#dcba84" font-weight="400" align="middle" lineHeight="125%" anchor="middle" family="&quot;Microsoft YaHei&quot;, 微软雅黑, Arial" size="13px" weight="400" font-style="" opacity="1" y="6.875" transform="rotate(0)"><tspan id="SvgjsTspan1033" dy="16.25" x="42.5"><tspan id="SvgjsTspan1034" style="">client</tspan></tspan></text></g></g><g id="SvgjsG1035" transform="translate(25,348)"><path id="SvgjsPath1036" d="M 11.667 0L 73.333 0C 88.889 0 88.889 35 73.333 35L 11.667 35C -3.889 35 -3.889 0 11.667 0Z" stroke="rgba(220,186,132,1)" stroke-width="1.5" fill-opacity="1" fill="#505460"></path><g id="SvgjsG1037"><text id="SvgjsText1038" font-family="&quot;Microsoft YaHei&quot;, 微软雅黑, Arial" text-anchor="middle" font-size="13px" width="65px" fill="#dcba84" font-weight="400" align="middle" lineHeight="125%" anchor="middle" family="&quot;Microsoft YaHei&quot;, 微软雅黑, Arial" size="13px" weight="400" font-style="" opacity="1" y="6.875" transform="rotate(0)"><tspan id="SvgjsTspan1039" dy="16.25" x="42.5"><tspan id="SvgjsTspan1040" style="">client</tspan></tspan></text></g></g><g id="SvgjsG1041" transform="translate(310,214)"><path id="SvgjsPath1042" d="M 0 4Q 0 0 4 0L 267 0Q 271 0 271 4L 271 57Q 271 61 267 61L 4 61Q 0 61 0 57Z" stroke="rgba(220,186,132,1)" stroke-width="1.5" fill-opacity="1" fill="#505460"></path><g id="SvgjsG1043"><text id="SvgjsText1044" font-family="&quot;Microsoft YaHei&quot;, 微软雅黑, Arial" text-anchor="middle" font-size="13px" width="251px" fill="#dcba84" font-weight="400" align="top" lineHeight="125%" anchor="middle" family="&quot;Microsoft YaHei&quot;, 微软雅黑, Arial" size="13px" weight="400" font-style="" opacity="1" y="-2.625" transform="rotate(0)"><tspan id="SvgjsTspan1045" dy="16.25" x="135.5"><tspan id="SvgjsTspan1046" style="">Handler</tspan></tspan></text></g></g><g id="SvgjsG1047" transform="translate(408,239)"><path id="SvgjsPath1048" d="M 0 4Q 0 0 4 0L 71 0Q 75 0 75 4L 75 21Q 75 25 71 25L 4 25Q 0 25 0 21Z" stroke="rgba(255,255,255,1)" stroke-width="1.5" fill-opacity="1" fill="#505460"></path><g id="SvgjsG1049"><text id="SvgjsText1050" font-family="&quot;Microsoft YaHei&quot;, 微软雅黑, Arial" text-anchor="middle" font-size="13px" width="55px" fill="#ffffff" font-weight="400" align="middle" lineHeight="125%" anchor="middle" family="&quot;Microsoft YaHei&quot;, 微软雅黑, Arial" size="13px" weight="400" font-style="" opacity="1" y="1.875" transform="rotate(0)"><tspan id="SvgjsTspan1051" dy="16.25" x="37.5"><tspan id="SvgjsTspan1052" style="">业务处理</tspan></tspan></text></g></g><g id="SvgjsG1053" transform="translate(493,239)"><path id="SvgjsPath1054" d="M 0 4Q 0 0 4 0L 71 0Q 75 0 75 4L 75 21Q 75 25 71 25L 4 25Q 0 25 0 21Z" stroke="rgba(255,255,255,1)" stroke-width="1.5" fill-opacity="1" fill="#505460"></path><g id="SvgjsG1055"><text id="SvgjsText1056" font-family="&quot;Microsoft YaHei&quot;, 微软雅黑, Arial" text-anchor="middle" font-size="13px" width="55px" fill="#ffffff" font-weight="400" align="middle" lineHeight="125%" anchor="middle" family="&quot;Microsoft YaHei&quot;, 微软雅黑, Arial" size="13px" weight="400" font-style="" opacity="1" y="1.875" transform="rotate(0)"><tspan id="SvgjsTspan1057" dy="16.25" x="37.5"><tspan id="SvgjsTspan1058" style="">send</tspan></tspan></text></g></g><g id="SvgjsG1059" transform="translate(323,239)"><path id="SvgjsPath1060" d="M 0 4Q 0 0 4 0L 71 0Q 75 0 75 4L 75 21Q 75 25 71 25L 4 25Q 0 25 0 21Z" stroke="rgba(255,255,255,1)" stroke-width="1.5" fill-opacity="1" fill="#505460"></path><g id="SvgjsG1061"><text id="SvgjsText1062" font-family="&quot;Microsoft YaHei&quot;, 微软雅黑, Arial" text-anchor="middle" font-size="13px" width="55px" fill="#ffffff" font-weight="400" align="middle" lineHeight="125%" anchor="middle" family="&quot;Microsoft YaHei&quot;, 微软雅黑, Arial" size="13px" weight="400" font-style="" opacity="1" y="1.875" transform="rotate(0)"><tspan id="SvgjsTspan1063" dy="16.25" x="37.5"><tspan id="SvgjsTspan1064" style="">read</tspan></tspan></text></g></g><g id="SvgjsG1065" transform="translate(298,61)"><path id="SvgjsPath1066" d="M 0 4Q 0 0 4 0L 291 0Q 295 0 295 4L 295 97Q 295 101 291 101L 4 101Q 0 101 0 97Z" stroke="rgba(180,190,229,1)" stroke-width="1.5" fill-opacity="1" fill="#505460"></path><g id="SvgjsG1067"><text id="SvgjsText1068" font-family="&quot;Microsoft YaHei&quot;, 微软雅黑, Arial" text-anchor="start" font-size="13px" width="275px" fill="#b4bee5" font-weight="400" align="top" lineHeight="125%" anchor="start" family="&quot;Microsoft YaHei&quot;, 微软雅黑, Arial" size="13px" weight="400" font-style="" opacity="1" y="-2.625" transform="rotate(0)"><tspan id="SvgjsTspan1069" dy="16.25" x="10"><tspan id="SvgjsTspan1070" style="">处理线程</tspan></tspan></text></g></g><g id="SvgjsG1071" transform="translate(310,93)"><path id="SvgjsPath1072" d="M 0 4Q 0 0 4 0L 267 0Q 271 0 271 4L 271 57Q 271 61 267 61L 4 61Q 0 61 0 57Z" stroke="rgba(220,186,132,1)" stroke-width="1.5" fill-opacity="1" fill="#505460"></path><g id="SvgjsG1073"><text id="SvgjsText1074" font-family="&quot;Microsoft YaHei&quot;, 微软雅黑, Arial" text-anchor="middle" font-size="13px" width="251px" fill="#dcba84" font-weight="400" align="top" lineHeight="125%" anchor="middle" family="&quot;Microsoft YaHei&quot;, 微软雅黑, Arial" size="13px" weight="400" font-style="" opacity="1" y="-2.625" transform="rotate(0)"><tspan id="SvgjsTspan1075" dy="16.25" x="135.5"><tspan id="SvgjsTspan1076" style="">Handler</tspan></tspan></text></g></g><g id="SvgjsG1077" transform="translate(408,118)"><path id="SvgjsPath1078" d="M 0 4Q 0 0 4 0L 71 0Q 75 0 75 4L 75 21Q 75 25 71 25L 4 25Q 0 25 0 21Z" stroke="rgba(255,255,255,1)" stroke-width="1.5" fill-opacity="1" fill="#505460"></path><g id="SvgjsG1079"><text id="SvgjsText1080" font-family="&quot;Microsoft YaHei&quot;, 微软雅黑, Arial" text-anchor="middle" font-size="13px" width="55px" fill="#ffffff" font-weight="400" align="middle" lineHeight="125%" anchor="middle" family="&quot;Microsoft YaHei&quot;, 微软雅黑, Arial" size="13px" weight="400" font-style="" opacity="1" y="1.875" transform="rotate(0)"><tspan id="SvgjsTspan1081" dy="16.25" x="37.5"><tspan id="SvgjsTspan1082" style="">业务处理</tspan></tspan></text></g></g><g id="SvgjsG1083" transform="translate(493,118)"><path id="SvgjsPath1084" d="M 0 4Q 0 0 4 0L 71 0Q 75 0 75 4L 75 21Q 75 25 71 25L 4 25Q 0 25 0 21Z" stroke="rgba(255,255,255,1)" stroke-width="1.5" fill-opacity="1" fill="#505460"></path><g id="SvgjsG1085"><text id="SvgjsText1086" font-family="&quot;Microsoft YaHei&quot;, 微软雅黑, Arial" text-anchor="middle" font-size="13px" width="55px" fill="#ffffff" font-weight="400" align="middle" lineHeight="125%" anchor="middle" family="&quot;Microsoft YaHei&quot;, 微软雅黑, Arial" size="13px" weight="400" font-style="" opacity="1" y="1.875" transform="rotate(0)"><tspan id="SvgjsTspan1087" dy="16.25" x="37.5"><tspan id="SvgjsTspan1088" style="">send</tspan></tspan></text></g></g><g id="SvgjsG1089" transform="translate(323,118)"><path id="SvgjsPath1090" d="M 0 4Q 0 0 4 0L 71 0Q 75 0 75 4L 75 21Q 75 25 71 25L 4 25Q 0 25 0 21Z" stroke="rgba(255,255,255,1)" stroke-width="1.5" fill-opacity="1" fill="#505460"></path><g id="SvgjsG1091"><text id="SvgjsText1092" font-family="&quot;Microsoft YaHei&quot;, 微软雅黑, Arial" text-anchor="middle" font-size="13px" width="55px" fill="#ffffff" font-weight="400" align="middle" lineHeight="125%" anchor="middle" family="&quot;Microsoft YaHei&quot;, 微软雅黑, Arial" size="13px" weight="400" font-style="" opacity="1" y="1.875" transform="rotate(0)"><tspan id="SvgjsTspan1093" dy="16.25" x="37.5"><tspan id="SvgjsTspan1094" style="">read</tspan></tspan></text></g></g><g id="SvgjsG1095" transform="translate(298,303)"><path id="SvgjsPath1096" d="M 0 4Q 0 0 4 0L 291 0Q 295 0 295 4L 295 97Q 295 101 291 101L 4 101Q 0 101 0 97Z" stroke="rgba(180,190,229,1)" stroke-width="1.5" fill-opacity="1" fill="#505460"></path><g id="SvgjsG1097"><text id="SvgjsText1098" font-family="&quot;Microsoft YaHei&quot;, 微软雅黑, Arial" text-anchor="start" font-size="13px" width="275px" fill="#b4bee5" font-weight="400" align="top" lineHeight="125%" anchor="start" family="&quot;Microsoft YaHei&quot;, 微软雅黑, Arial" size="13px" weight="400" font-style="" opacity="1" y="-2.625" transform="rotate(0)"><tspan id="SvgjsTspan1099" dy="16.25" x="10"><tspan id="SvgjsTspan1100" style="">处理线程</tspan></tspan></text></g></g><g id="SvgjsG1101" transform="translate(310,335)"><path id="SvgjsPath1102" d="M 0 4Q 0 0 4 0L 267 0Q 271 0 271 4L 271 57Q 271 61 267 61L 4 61Q 0 61 0 57Z" stroke="rgba(220,186,132,1)" stroke-width="1.5" fill-opacity="1" fill="#505460"></path><g id="SvgjsG1103"><text id="SvgjsText1104" font-family="&quot;Microsoft YaHei&quot;, 微软雅黑, Arial" text-anchor="middle" font-size="13px" width="251px" fill="#dcba84" font-weight="400" align="top" lineHeight="125%" anchor="middle" family="&quot;Microsoft YaHei&quot;, 微软雅黑, Arial" size="13px" weight="400" font-style="" opacity="1" y="-2.625" transform="rotate(0)"><tspan id="SvgjsTspan1105" dy="16.25" x="135.5"><tspan id="SvgjsTspan1106" style="">Handler</tspan></tspan></text></g></g><g id="SvgjsG1107" transform="translate(408,360)"><path id="SvgjsPath1108" d="M 0 4Q 0 0 4 0L 71 0Q 75 0 75 4L 75 21Q 75 25 71 25L 4 25Q 0 25 0 21Z" stroke="rgba(255,255,255,1)" stroke-width="1.5" fill-opacity="1" fill="#505460"></path><g id="SvgjsG1109"><text id="SvgjsText1110" font-family="&quot;Microsoft YaHei&quot;, 微软雅黑, Arial" text-anchor="middle" font-size="13px" width="55px" fill="#ffffff" font-weight="400" align="middle" lineHeight="125%" anchor="middle" family="&quot;Microsoft YaHei&quot;, 微软雅黑, Arial" size="13px" weight="400" font-style="" opacity="1" y="1.875" transform="rotate(0)"><tspan id="SvgjsTspan1111" dy="16.25" x="37.5"><tspan id="SvgjsTspan1112" style="">业务处理</tspan></tspan></text></g></g><g id="SvgjsG1113" transform="translate(493,360)"><path id="SvgjsPath1114" d="M 0 4Q 0 0 4 0L 71 0Q 75 0 75 4L 75 21Q 75 25 71 25L 4 25Q 0 25 0 21Z" stroke="rgba(255,255,255,1)" stroke-width="1.5" fill-opacity="1" fill="#505460"></path><g id="SvgjsG1115"><text id="SvgjsText1116" font-family="&quot;Microsoft YaHei&quot;, 微软雅黑, Arial" text-anchor="middle" font-size="13px" width="55px" fill="#ffffff" font-weight="400" align="middle" lineHeight="125%" anchor="middle" family="&quot;Microsoft YaHei&quot;, 微软雅黑, Arial" size="13px" weight="400" font-style="" opacity="1" y="1.875" transform="rotate(0)"><tspan id="SvgjsTspan1117" dy="16.25" x="37.5"><tspan id="SvgjsTspan1118" style="">send</tspan></tspan></text></g></g><g id="SvgjsG1119" transform="translate(323,360)"><path id="SvgjsPath1120" d="M 0 4Q 0 0 4 0L 71 0Q 75 0 75 4L 75 21Q 75 25 71 25L 4 25Q 0 25 0 21Z" stroke="rgba(255,255,255,1)" stroke-width="1.5" fill-opacity="1" fill="#505460"></path><g id="SvgjsG1121"><text id="SvgjsText1122" font-family="&quot;Microsoft YaHei&quot;, 微软雅黑, Arial" text-anchor="middle" font-size="13px" width="55px" fill="#ffffff" font-weight="400" align="middle" lineHeight="125%" anchor="middle" family="&quot;Microsoft YaHei&quot;, 微软雅黑, Arial" size="13px" weight="400" font-style="" opacity="1" y="1.875" transform="rotate(0)"><tspan id="SvgjsTspan1123" dy="16.25" x="37.5"><tspan id="SvgjsTspan1124" style="">read</tspan></tspan></text></g></g><g id="SvgjsG1125" transform="translate(339,456)"><path id="SvgjsPath1126" d="M 0 4Q 0 0 4 0L 59 0Q 63 0 63 4L 63 24Q 63 28 59 28L 4 28Q 0 28 0 24Z" stroke="rgba(220,186,132,1)" stroke-width="1.5" fill-opacity="1" fill="#505460"></path><g id="SvgjsG1127"><text id="SvgjsText1128" font-family="&quot;Microsoft YaHei&quot;, 微软雅黑, Arial" text-anchor="middle" font-size="13px" width="43px" fill="#dcba84" font-weight="400" align="middle" lineHeight="125%" anchor="middle" family="&quot;Microsoft YaHei&quot;, 微软雅黑, Arial" size="13px" weight="400" font-style="" opacity="1" y="3.375" transform="rotate(0)"><tspan id="SvgjsTspan1129" dy="16.25" x="31.5"><tspan id="SvgjsTspan1130" style="">对象</tspan></tspan></text></g></g><g id="SvgjsG1131" transform="translate(156,450)"><path id="SvgjsPath1132" d="M 0 0L 132 0L 132 40L 0 40Z" stroke="none" fill="none"></path><g id="SvgjsG1133"><text id="SvgjsText1134" font-family="&quot;Microsoft YaHei&quot;, 微软雅黑, Arial" text-anchor="middle" font-size="13px" width="132px" fill="#ffffff" font-weight="400" align="middle" lineHeight="125%" anchor="middle" family="&quot;Microsoft YaHei&quot;, 微软雅黑, Arial" size="13px" weight="400" font-style="" opacity="1" y="9.375" transform="rotate(0)"><tspan id="SvgjsTspan1135" dy="16.25" x="66"><tspan id="SvgjsTspan1136" style="">传统阻塞I/O服务模型</tspan></tspan></text></g></g><g id="SvgjsG1137"><path id="SvgjsPath1138" d="M110.75 123.5L210 123.5L210 123.5L307.29999999999995 123.5" stroke="#ffffff" stroke-width="1.5" fill="none" marker-end="url(#SvgjsMarker1139)"></path></g><g id="SvgjsG1141"><path id="SvgjsPath1142" d="M110.75 244.5L210 244.5L210 244.5L307.29999999999995 244.5" stroke="#ffffff" stroke-width="1.5" fill="none" marker-end="url(#SvgjsMarker1143)"></path></g><g id="SvgjsG1145"><path id="SvgjsPath1146" d="M110.75 365.5L210 365.5L210 365.5L307.29999999999995 365.5" stroke="#ffffff" stroke-width="1.5" fill="none" marker-end="url(#SvgjsMarker1147)"></path></g><g id="SvgjsG1149"></g></svg>