<svg id="SvgjsSvg1150" width="648" height="297.66666666666674" xmlns="http://www.w3.org/2000/svg" version="1.1" xmlns:xlink="http://www.w3.org/1999/xlink" xmlns:svgjs="http://svgjs.com/svgjs"><defs id="SvgjsDefs1151"><pattern patternUnits="userSpaceOnUse" id="pattern_mark_0" width="300" height="300"><text x="150" y="100" fill="rgba(229,229,229,0.8)" font-size="18" transform="rotate(-45, 150, 150)" style="dominant-baseline: middle; text-anchor: middle;"></text></pattern><pattern patternUnits="userSpaceOnUse" id="pattern_mark_1" width="300" height="300"><text x="150" y="200" fill="rgba(229,229,229,0.8)" font-size="18" transform="rotate(-45, 150, 150)" style="dominant-baseline: middle; text-anchor: middle;"></text></pattern><linearGradient id="SvgjsLinearGradient1157" x1="0.5" y1="0" x2="0.5" y2="1"><stop id="SvgjsStop1158" stop-opacity="1" stop-color="#f4ffe3" offset="0"></stop><stop id="SvgjsStop1159" stop-opacity="1" stop-color="#dcfdad" offset="1"></stop></linearGradient><marker id="SvgjsMarker1236" markerWidth="16" markerHeight="16" refX="11" refY="8" viewBox="0 0 16 16" orient="auto" markerUnits="userSpaceOnUse" stroke-dasharray="0,0"><path id="SvgjsPath1237" d="M0,0 L10,8 L0,16" fill="none" stroke="#4f81bd" stroke-width="1.5"></path></marker><marker id="SvgjsMarker1240" markerWidth="16" markerHeight="16" refX="11" refY="8" viewBox="0 0 16 16" orient="auto" markerUnits="userSpaceOnUse" stroke-dasharray="0,0"><path id="SvgjsPath1241" d="M0,0 L10,8 L0,16" fill="none" stroke="#4f81bd" stroke-width="1.5"></path></marker><marker id="SvgjsMarker1244" markerWidth="16" markerHeight="16" refX="11" refY="8" viewBox="0 0 16 16" orient="auto" markerUnits="userSpaceOnUse" stroke-dasharray="0,0"><path id="SvgjsPath1245" d="M0,0 L10,8 L0,16" fill="none" stroke="#4f81bd" stroke-width="1.5"></path></marker><marker id="SvgjsMarker1248" markerWidth="16" markerHeight="16" refX="11" refY="8" viewBox="0 0 16 16" orient="auto" markerUnits="userSpaceOnUse" stroke-dasharray="0,0"><path id="SvgjsPath1249" d="M0,0 L10,8 L0,16" fill="none" stroke="#4f81bd" stroke-width="1.5"></path></marker><marker id="SvgjsMarker1252" markerWidth="14" markerHeight="10" refX="10" refY="5" viewBox="0 0 14 10" orient="auto" markerUnits="userSpaceOnUse" stroke-dasharray="0,0"><path id="SvgjsPath1253" d="M0,0 L14,5 L0,10 L0,0" fill="#a66a30" stroke="#a66a30" stroke-width="1"></path></marker><marker id="SvgjsMarker1256" markerWidth="14" markerHeight="10" refX="10" refY="5" viewBox="0 0 14 10" orient="auto" markerUnits="userSpaceOnUse" stroke-dasharray="0,0"><path id="SvgjsPath1257" d="M0,0 L14,5 L0,10 L0,0" fill="#a66a30" stroke="#a66a30" stroke-width="1"></path></marker><marker id="SvgjsMarker1260" markerWidth="14" markerHeight="10" refX="10" refY="5" viewBox="0 0 14 10" orient="auto" markerUnits="userSpaceOnUse" stroke-dasharray="0,0"><path id="SvgjsPath1261" d="M0,0 L14,5 L0,10 L0,0" fill="#a66a30" stroke="#a66a30" stroke-width="1"></path></marker></defs><rect id="svgbackgroundid" width="648" height="297.66666666666674" fill="transparent"></rect><rect id="SvgjsRect1153" width="648" height="297.66666666666674" fill="url(#pattern_mark_0)"></rect><rect id="SvgjsRect1154" width="648" height="297.66666666666674" fill="url(#pattern_mark_1)"></rect><g id="SvgjsG1155" transform="translate(226,25)"><path id="SvgjsPath1156" d="M 0 0L 397 0L 397 247.667L 0 247.667Z" stroke="rgba(241,172,106,1)" stroke-width="1.5" fill="url(#SvgjsLinearGradient1157)"></path><g id="SvgjsG1160"><text id="SvgjsText1161" font-family="&quot;Microsoft YaHei&quot;, 微软雅黑, Arial" text-anchor="middle" font-size="13px" width="377px" fill="#323232" font-weight="400" align="middle" lineHeight="125%" anchor="middle" family="&quot;Microsoft YaHei&quot;, 微软雅黑, Arial" size="13px" weight="400" font-style="" opacity="1" y="113.2085" transform="rotate(0)"></text></g></g><g id="SvgjsG1162" transform="translate(423,53.83333333333337)"><path id="SvgjsPath1163" d="M 0 4Q 0 0 4 0L 178 0Q 182 0 182 4L 182 186Q 182 190 178 190L 4 190Q 0 190 0 186Z" stroke="rgba(33,41,48,1)" stroke-width="1.5" fill-opacity="1" fill="#4f81bd"></path><g id="SvgjsG1164"><text id="SvgjsText1165" font-family="&quot;Microsoft YaHei&quot;, 微软雅黑, Arial" text-anchor="middle" font-size="13px" width="162px" fill="#323232" font-weight="400" align="middle" lineHeight="125%" anchor="middle" family="&quot;Microsoft YaHei&quot;, 微软雅黑, Arial" size="13px" weight="400" font-style="" opacity="1" y="84.375" transform="rotate(0)"></text></g></g><g id="SvgjsG1166" transform="translate(25,49)"><path id="SvgjsPath1167" d="M 0 4Q 0 0 4 0L 81 0Q 85 0 85 4L 85 26Q 85 30 81 30L 4 30Q 0 30 0 26Z" stroke="rgba(33,41,48,1)" stroke-width="1.5" fill-opacity="1" fill="#4f81bd"></path><g id="SvgjsG1168"><text id="SvgjsText1169" font-family="&quot;Microsoft YaHei&quot;, 微软雅黑, Arial" text-anchor="middle" font-size="13px" width="65px" fill="#ffffff" font-weight="700" align="middle" lineHeight="125%" anchor="middle" family="&quot;Microsoft YaHei&quot;, 微软雅黑, Arial" size="13px" weight="700" font-style="" opacity="1" y="4.375" transform="rotate(0)"><tspan id="SvgjsTspan1170" dy="16.25" x="42.5"><tspan id="SvgjsTspan1171" style="">C1</tspan></tspan></text></g></g><g id="SvgjsG1172" transform="translate(25,105.33333333333331)"><path id="SvgjsPath1173" d="M 0 4Q 0 0 4 0L 81 0Q 85 0 85 4L 85 26Q 85 30 81 30L 4 30Q 0 30 0 26Z" stroke="rgba(33,41,48,1)" stroke-width="1.5" fill-opacity="1" fill="#4f81bd"></path><g id="SvgjsG1174"><text id="SvgjsText1175" font-family="&quot;Microsoft YaHei&quot;, 微软雅黑, Arial" text-anchor="middle" font-size="13px" width="65px" fill="#ffffff" font-weight="700" align="middle" lineHeight="125%" anchor="middle" family="&quot;Microsoft YaHei&quot;, 微软雅黑, Arial" size="13px" weight="700" font-style="" opacity="1" y="4.375" transform="rotate(0)"><tspan id="SvgjsTspan1176" dy="16.25" x="42.5"><tspan id="SvgjsTspan1177" style="">C2</tspan></tspan></text></g></g><g id="SvgjsG1178" transform="translate(25,161.66666666666663)"><path id="SvgjsPath1179" d="M 0 4Q 0 0 4 0L 81 0Q 85 0 85 4L 85 26Q 85 30 81 30L 4 30Q 0 30 0 26Z" stroke="rgba(33,41,48,1)" stroke-width="1.5" fill-opacity="1" fill="#4f81bd"></path><g id="SvgjsG1180"><text id="SvgjsText1181" font-family="&quot;Microsoft YaHei&quot;, 微软雅黑, Arial" text-anchor="middle" font-size="13px" width="65px" fill="#ffffff" font-weight="700" align="middle" lineHeight="125%" anchor="middle" family="&quot;Microsoft YaHei&quot;, 微软雅黑, Arial" size="13px" weight="700" font-style="" opacity="1" y="4.375" transform="rotate(0)"><tspan id="SvgjsTspan1182" dy="16.25" x="42.5"><tspan id="SvgjsTspan1183" style="">C3</tspan></tspan></text></g></g><g id="SvgjsG1184" transform="translate(25,217.99999999999994)"><path id="SvgjsPath1185" d="M 0 4Q 0 0 4 0L 81 0Q 85 0 85 4L 85 26Q 85 30 81 30L 4 30Q 0 30 0 26Z" stroke="rgba(33,41,48,1)" stroke-width="1.5" fill-opacity="1" fill="#4f81bd"></path><g id="SvgjsG1186"><text id="SvgjsText1187" font-family="&quot;Microsoft YaHei&quot;, 微软雅黑, Arial" text-anchor="middle" font-size="13px" width="65px" fill="#ffffff" font-weight="700" align="middle" lineHeight="125%" anchor="middle" family="&quot;Microsoft YaHei&quot;, 微软雅黑, Arial" size="13px" weight="700" font-style="" opacity="1" y="4.375" transform="rotate(0)"><tspan id="SvgjsTspan1188" dy="16.25" x="42.5"><tspan id="SvgjsTspan1189" style="">C4</tspan></tspan></text></g></g><g id="SvgjsG1190" transform="translate(265,113.83333333333337)"><path id="SvgjsPath1191" d="M 0 35C 0 -11.667 118 -11.667 118 35C 118 81.667 0 81.667 0 35Z" stroke="rgba(33,41,48,1)" stroke-width="1.5" fill-opacity="1" fill="#4f81bd"></path><g id="SvgjsG1192"><text id="SvgjsText1193" font-family="&quot;Microsoft YaHei&quot;, 微软雅黑, Arial" text-anchor="middle" font-size="13px" width="98px" fill="#ffffff" font-weight="700" align="middle" lineHeight="125%" anchor="middle" family="&quot;Microsoft YaHei&quot;, 微软雅黑, Arial" size="13px" weight="700" font-style="" opacity="1" y="15.875" transform="rotate(0)"><tspan id="SvgjsTspan1194" dy="16.25" x="59"><tspan id="SvgjsTspan1195" style="">Service</tspan></tspan><tspan id="SvgjsTspan1196" dy="16.25" x="59"><tspan id="SvgjsTspan1197" style="">Handler</tspan></tspan></text></g></g><g id="SvgjsG1198" transform="translate(496,67.83333333333337)"><path id="SvgjsPath1199" d="M 0 4Q 0 0 4 0L 92 0Q 96 0 96 4L 96 50Q 96 54 92 54L 4 54Q 0 54 0 50Z" stroke="rgba(255,255,255,1)" stroke-width="1.5" fill-opacity="1" fill="#4f81bd"></path><g id="SvgjsG1200"><text id="SvgjsText1201" font-family="&quot;Microsoft YaHei&quot;, 微软雅黑, Arial" text-anchor="start" font-size="13px" width="76px" fill="#ffffff" font-weight="700" align="middle" lineHeight="125%" anchor="start" family="&quot;Microsoft YaHei&quot;, 微软雅黑, Arial" size="13px" weight="700" font-style="" opacity="1" y="16.375" transform="rotate(0)"><tspan id="SvgjsTspan1202" dy="16.25" x="10"><tspan id="SvgjsTspan1203" style="">线程1:</tspan></tspan></text></g></g><g id="SvgjsG1204" transform="translate(550,84.83333333333337)"><path id="SvgjsPath1205" d="M 0 4Q 0 0 4 0L 31 0Q 35 0 35 4L 35 16Q 35 20 31 20L 4 20Q 0 20 0 16Z" stroke="rgba(255,255,255,1)" stroke-width="1.5" fill-opacity="1" fill="#000000"></path><g id="SvgjsG1206"><text id="SvgjsText1207" font-family="&quot;Microsoft YaHei&quot;, 微软雅黑, Arial" text-anchor="middle" font-size="13px" width="15px" fill="#ffffff" font-weight="700" align="middle" lineHeight="125%" anchor="middle" family="&quot;Microsoft YaHei&quot;, 微软雅黑, Arial" size="13px" weight="700" font-style="" opacity="1" y="-0.625" transform="rotate(0)"><tspan id="SvgjsTspan1208" dy="16.25" x="17.5"><tspan id="SvgjsTspan1209" style="">H</tspan></tspan></text></g></g><g id="SvgjsG1210" transform="translate(496,121.83333333333337)"><path id="SvgjsPath1211" d="M 0 4Q 0 0 4 0L 92 0Q 96 0 96 4L 96 50Q 96 54 92 54L 4 54Q 0 54 0 50Z" stroke="rgba(255,255,255,1)" stroke-width="1.5" fill-opacity="1" fill="#4f81bd"></path><g id="SvgjsG1212"><text id="SvgjsText1213" font-family="&quot;Microsoft YaHei&quot;, 微软雅黑, Arial" text-anchor="start" font-size="13px" width="76px" fill="#ffffff" font-weight="700" align="middle" lineHeight="125%" anchor="start" family="&quot;Microsoft YaHei&quot;, 微软雅黑, Arial" size="13px" weight="700" font-style="" opacity="1" y="16.375" transform="rotate(0)"><tspan id="SvgjsTspan1214" dy="16.25" x="10"><tspan id="SvgjsTspan1215" style="">线程2:</tspan></tspan></text></g></g><g id="SvgjsG1216" transform="translate(550,138.83333333333337)"><path id="SvgjsPath1217" d="M 0 4Q 0 0 4 0L 31 0Q 35 0 35 4L 35 16Q 35 20 31 20L 4 20Q 0 20 0 16Z" stroke="rgba(255,255,255,1)" stroke-width="1.5" fill-opacity="1" fill="#000000"></path><g id="SvgjsG1218"><text id="SvgjsText1219" font-family="&quot;Microsoft YaHei&quot;, 微软雅黑, Arial" text-anchor="middle" font-size="13px" width="15px" fill="#ffffff" font-weight="700" align="middle" lineHeight="125%" anchor="middle" family="&quot;Microsoft YaHei&quot;, 微软雅黑, Arial" size="13px" weight="700" font-style="" opacity="1" y="-0.625" transform="rotate(0)"><tspan id="SvgjsTspan1220" dy="16.25" x="17.5"><tspan id="SvgjsTspan1221" style="">H</tspan></tspan></text></g></g><g id="SvgjsG1222" transform="translate(496,175.83333333333337)"><path id="SvgjsPath1223" d="M 0 4Q 0 0 4 0L 92 0Q 96 0 96 4L 96 50Q 96 54 92 54L 4 54Q 0 54 0 50Z" stroke="rgba(255,255,255,1)" stroke-width="1.5" fill-opacity="1" fill="#4f81bd"></path><g id="SvgjsG1224"><text id="SvgjsText1225" font-family="&quot;Microsoft YaHei&quot;, 微软雅黑, Arial" text-anchor="start" font-size="13px" width="76px" fill="#ffffff" font-weight="700" align="middle" lineHeight="125%" anchor="start" family="&quot;Microsoft YaHei&quot;, 微软雅黑, Arial" size="13px" weight="700" font-style="" opacity="1" y="16.375" transform="rotate(0)"><tspan id="SvgjsTspan1226" dy="16.25" x="10"><tspan id="SvgjsTspan1227" style="">线程3:</tspan></tspan></text></g></g><g id="SvgjsG1228" transform="translate(550,192.83333333333337)"><path id="SvgjsPath1229" d="M 0 4Q 0 0 4 0L 31 0Q 35 0 35 4L 35 16Q 35 20 31 20L 4 20Q 0 20 0 16Z" stroke="rgba(255,255,255,1)" stroke-width="1.5" fill-opacity="1" fill="#000000"></path><g id="SvgjsG1230"><text id="SvgjsText1231" font-family="&quot;Microsoft YaHei&quot;, 微软雅黑, Arial" text-anchor="middle" font-size="13px" width="15px" fill="#ffffff" font-weight="700" align="middle" lineHeight="125%" anchor="middle" family="&quot;Microsoft YaHei&quot;, 微软雅黑, Arial" size="13px" weight="700" font-style="" opacity="1" y="-0.625" transform="rotate(0)"><tspan id="SvgjsTspan1232" dy="16.25" x="17.5"><tspan id="SvgjsTspan1233" style="">H</tspan></tspan></text></g></g><g id="SvgjsG1234"><path id="SvgjsPath1235" d="M110.65790733292619 64.36008046501016L263.68418533414757 148.11317240331306" stroke="#4f81bd" stroke-width="1.5" fill="none" marker-end="url(#SvgjsMarker1236)"></path></g><g id="SvgjsG1238"><path id="SvgjsPath1239" d="M110.73763447660968 120.46896289838736L263.52473104678063 148.56207420322528" stroke="#4f81bd" stroke-width="1.5" fill="none" marker-end="url(#SvgjsMarker1240)"></path></g><g id="SvgjsG1242"><path id="SvgjsPath1243" d="M110.73819278576121 176.53410946750307L263.5236144284776 149.09844773166054" stroke="#4f81bd" stroke-width="1.5" fill="none" marker-end="url(#SvgjsMarker1244)"></path></g><g id="SvgjsG1246"><path id="SvgjsPath1247" d="M110.65909761817989 232.6421029062571L263.6818047636402 149.54912752081907" stroke="#4f81bd" stroke-width="1.5" fill="none" marker-end="url(#SvgjsMarker1248)"></path></g><g id="SvgjsG1250"><path id="SvgjsPath1251" d="M383.75 148.83333333333337L492.65 148.83333333333337" stroke="#a66a30" stroke-width="2" fill="none" marker-end="url(#SvgjsMarker1252)"></path></g><g id="SvgjsG1254"><path id="SvgjsPath1255" d="M383.676701977112 148.50995362745687L492.97739783556665 96.27776268624845" stroke="#a66a30" stroke-width="2" fill="none" marker-end="url(#SvgjsMarker1256)"></path></g><g id="SvgjsG1258"><path id="SvgjsPath1259" d="M383.676701977112 149.15671303920988L492.97739783556665 201.38890398041832" stroke="#a66a30" stroke-width="2" fill="none" marker-end="url(#SvgjsMarker1260)"></path></g><g id="SvgjsG1262"></g></svg>