<svg id="SvgjsSvg1006" width="850.7724678809604" height="420.14491633648004" xmlns="http://www.w3.org/2000/svg" version="1.1" xmlns:xlink="http://www.w3.org/1999/xlink" xmlns:svgjs="http://svgjs.com/svgjs"><defs id="SvgjsDefs1007"><pattern patternUnits="userSpaceOnUse" id="pattern_mark_0" width="300" height="300"><text x="150" y="100" fill="rgba(229,229,229,0.8)" font-size="18" transform="rotate(-45, 150, 150)" style="dominant-baseline: middle; text-anchor: middle;"></text></pattern><pattern patternUnits="userSpaceOnUse" id="pattern_mark_1" width="300" height="300"><text x="150" y="200" fill="rgba(229,229,229,0.8)" font-size="18" transform="rotate(-45, 150, 150)" style="dominant-baseline: middle; text-anchor: middle;"></text></pattern></defs><rect id="svgbackgroundid" width="850.7724678809604" height="420.14491633648004" fill="transparent"></rect><rect id="SvgjsRect1009" width="850.7724678809604" height="420.14491633648004" fill="url(#pattern_mark_0)"></rect><rect id="SvgjsRect1010" width="850.7724678809604" height="420.14491633648004" fill="url(#pattern_mark_1)"></rect><g id="SvgjsG1011" transform="translate(25,25)"><path id="SvgjsPath1012" d="M 0 4Q 0 0 4 0L 796.772 0Q 800.772 0 800.772 4L 800.772 41Q 800.772 45 796.772 45L 4 45Q 0 45 0 41Z" stroke="none" fill-opacity="1" fill="#ffc002"></path><g id="SvgjsG1013"><text id="SvgjsText1014" font-family="&quot;Microsoft YaHei&quot;, 微软雅黑, Arial" text-anchor="middle" font-size="13px" width="781px" fill="#000000" font-weight="700" align="middle" lineHeight="125%" anchor="middle" family="&quot;Microsoft YaHei&quot;, 微软雅黑, Arial" size="13px" weight="700" font-style="" opacity="1" y="11.875" transform="rotate(0)"><tspan id="SvgjsTspan1015" dy="16.25" x="400.5"><tspan id="SvgjsTspan1016" style="">Ambari/Cloudera Manager</tspan></tspan></text></g></g><g id="SvgjsG1017" transform="translate(25,77.50334187676845)"><path id="SvgjsPath1018" d="M 0 4Q 0 0 4 0L 796.772 0Q 800.772 0 800.772 4L 800.772 41Q 800.772 45 796.772 45L 4 45Q 0 45 0 41Z" stroke="none" fill-opacity="1" fill="#bdd7ee"></path><g id="SvgjsG1019"><text id="SvgjsText1020" font-family="&quot;Microsoft YaHei&quot;, 微软雅黑, Arial" text-anchor="middle" font-size="13px" width="781px" fill="#000000" font-weight="700" align="middle" lineHeight="125%" anchor="middle" family="&quot;Microsoft YaHei&quot;, 微软雅黑, Arial" size="13px" weight="700" font-style="" opacity="1" y="11.875" transform="rotate(0)"><tspan id="SvgjsTspan1021" dy="16.25" x="400.5"><tspan id="SvgjsTspan1022" style="">Hue</tspan></tspan></text></g></g><g id="SvgjsG1023" transform="translate(25,130.00668375353678)"><path id="SvgjsPath1024" d="M 0 4Q 0 0 4 0L 796.772 0Q 800.772 0 800.772 4L 800.772 41Q 800.772 45 796.772 45L 4 45Q 0 45 0 41Z" stroke="none" fill-opacity="1" fill="#bdd7ee"></path><g id="SvgjsG1025"><text id="SvgjsText1026" font-family="&quot;Microsoft YaHei&quot;, 微软雅黑, Arial" text-anchor="middle" font-size="13px" width="781px" fill="#000000" font-weight="700" align="middle" lineHeight="125%" anchor="middle" family="&quot;Microsoft YaHei&quot;, 微软雅黑, Arial" size="13px" weight="700" font-style="" opacity="1" y="11.875" transform="rotate(0)"><tspan id="SvgjsTspan1027" dy="16.25" x="400.5"><tspan id="SvgjsTspan1028" style="">BigTop</tspan></tspan></text></g></g><g id="SvgjsG1029" transform="translate(25,182.1448000450086)"><path id="SvgjsPath1030" d="M 0 4Q 0 0 4 0L 153.448 0Q 157.448 0 157.448 4L 157.448 41Q 157.448 45 153.448 45L 4 45Q 0 45 0 41Z" stroke="none" fill-opacity="1" fill="#70ac48"></path><g id="SvgjsG1031"><text id="SvgjsText1032" font-family="&quot;Microsoft YaHei&quot;, 微软雅黑, Arial" text-anchor="middle" font-size="13px" width="138px" fill="#000000" font-weight="700" align="middle" lineHeight="125%" anchor="middle" family="&quot;Microsoft YaHei&quot;, 微软雅黑, Arial" size="13px" weight="700" font-style="" opacity="1" y="11.875" transform="rotate(0)"><tspan id="SvgjsTspan1033" dy="16.25" x="79"><tspan id="SvgjsTspan1034" style="">Shark</tspan></tspan></text></g></g><g id="SvgjsG1035" transform="translate(668.3242602582498,182.1448000450086)"><path id="SvgjsPath1036" d="M 0 4Q 0 0 4 0L 153.448 0Q 157.448 0 157.448 4L 157.448 41Q 157.448 45 153.448 45L 4 45Q 0 45 0 41Z" stroke="none" fill-opacity="1" fill="#70ac48"></path><g id="SvgjsG1037"><text id="SvgjsText1038" font-family="&quot;Microsoft YaHei&quot;, 微软雅黑, Arial" text-anchor="middle" font-size="13px" width="138px" fill="#000000" font-weight="700" align="middle" lineHeight="125%" anchor="middle" family="&quot;Microsoft YaHei&quot;, 微软雅黑, Arial" size="13px" weight="700" font-style="" opacity="1" y="11.875" transform="rotate(0)"><tspan id="SvgjsTspan1039" dy="16.25" x="79"><tspan id="SvgjsTspan1040" style="">Tez</tspan></tspan></text></g></g><g id="SvgjsG1041" transform="translate(185.83106506456238,182.1448000450086)"><path id="SvgjsPath1042" d="M 0 4Q 0 0 4 0L 153.448 0Q 157.448 0 157.448 4L 157.448 41Q 157.448 45 153.448 45L 4 45Q 0 45 0 41Z" stroke="none" fill-opacity="1" fill="#70ac48"></path><g id="SvgjsG1043"><text id="SvgjsText1044" font-family="&quot;Microsoft YaHei&quot;, 微软雅黑, Arial" text-anchor="middle" font-size="13px" width="138px" fill="#000000" font-weight="700" align="middle" lineHeight="125%" anchor="middle" family="&quot;Microsoft YaHei&quot;, 微软雅黑, Arial" size="13px" weight="700" font-style="" opacity="1" y="11.875" transform="rotate(0)"><tspan id="SvgjsTspan1045" dy="16.25" x="79"><tspan id="SvgjsTspan1046" style="">Storm</tspan></tspan></text></g></g><g id="SvgjsG1047" transform="translate(507.4931951936878,182.1448000450086)"><path id="SvgjsPath1048" d="M 0 4Q 0 0 4 0L 153.448 0Q 157.448 0 157.448 4L 157.448 41Q 157.448 45 153.448 45L 4 45Q 0 45 0 41Z" stroke="none" fill-opacity="1" fill="#70ac48"></path><g id="SvgjsG1049"><text id="SvgjsText1050" font-family="&quot;Microsoft YaHei&quot;, 微软雅黑, Arial" text-anchor="middle" font-size="13px" width="138px" fill="#000000" font-weight="700" align="middle" lineHeight="125%" anchor="middle" family="&quot;Microsoft YaHei&quot;, 微软雅黑, Arial" size="13px" weight="700" font-style="" opacity="1" y="11.875" transform="rotate(0)"><tspan id="SvgjsTspan1051" dy="16.25" x="79"><tspan id="SvgjsTspan1052" style="">Mesos</tspan></tspan></text></g></g><g id="SvgjsG1053" transform="translate(346.66213012912465,182.1448000450086)"><path id="SvgjsPath1054" d="M 0 4Q 0 0 4 0L 153.448 0Q 157.448 0 157.448 4L 157.448 41Q 157.448 45 153.448 45L 4 45Q 0 45 0 41Z" stroke="none" fill-opacity="1" fill="#70ac48"></path><g id="SvgjsG1055"><text id="SvgjsText1056" font-family="&quot;Microsoft YaHei&quot;, 微软雅黑, Arial" text-anchor="middle" font-size="13px" width="138px" fill="#000000" font-weight="700" align="middle" lineHeight="125%" anchor="middle" family="&quot;Microsoft YaHei&quot;, 微软雅黑, Arial" size="13px" weight="700" font-style="" opacity="1" y="11.875" transform="rotate(0)"><tspan id="SvgjsTspan1057" dy="16.25" x="79"><tspan id="SvgjsTspan1058" style="">Spark</tspan></tspan></text></g></g><g id="SvgjsG1059" transform="translate(25,234.28291633648024)"><path id="SvgjsPath1060" d="M 0 4Q 0 0 4 0L 82.709 0Q 86.709 0 86.709 4L 86.709 30.862Q 86.709 34.862 82.709 34.862L 4 34.862Q 0 34.862 0 30.862Z" stroke="none" fill-opacity="1" fill="#569dd3"></path><g id="SvgjsG1061"><text id="SvgjsText1062" font-family="&quot;Microsoft YaHei&quot;, 微软雅黑, Arial" text-anchor="middle" font-size="12px" width="67px" fill="#000000" font-weight="700" align="middle" lineHeight="125%" anchor="middle" family="&quot;Microsoft YaHei&quot;, 微软雅黑, Arial" size="12px" weight="700" font-style="" opacity="1" y="7.431000000000001" transform="rotate(0)"><tspan id="SvgjsTspan1063" dy="15" x="43.5"><tspan id="SvgjsTspan1064" style="">Flume</tspan></tspan></text></g></g><g id="SvgjsG1065" transform="translate(739.0632349339492,234.28291633648024)"><path id="SvgjsPath1066" d="M 0 4Q 0 0 4 0L 82.709 0Q 86.709 0 86.709 4L 86.709 30.862Q 86.709 34.862 82.709 34.862L 4 34.862Q 0 34.862 0 30.862Z" stroke="none" fill-opacity="1" fill="#569dd3"></path><g id="SvgjsG1067"><text id="SvgjsText1068" font-family="&quot;Microsoft YaHei&quot;, 微软雅黑, Arial" text-anchor="middle" font-size="12px" width="67px" fill="#000000" font-weight="700" align="middle" lineHeight="125%" anchor="middle" family="&quot;Microsoft YaHei&quot;, 微软雅黑, Arial" size="12px" weight="700" font-style="" opacity="1" y="7.431000000000001" transform="rotate(0)"><tspan id="SvgjsTspan1069" dy="15" x="43.5"><tspan id="SvgjsTspan1070" style="">Search</tspan></tspan></text></g></g><g id="SvgjsG1071" transform="translate(114.25790436674356,234.28291633648024)"><path id="SvgjsPath1072" d="M 0 4Q 0 0 4 0L 82.709 0Q 86.709 0 86.709 4L 86.709 30.862Q 86.709 34.862 82.709 34.862L 4 34.862Q 0 34.862 0 30.862Z" stroke="none" fill-opacity="1" fill="#569dd3"></path><g id="SvgjsG1073"><text id="SvgjsText1074" font-family="&quot;Microsoft YaHei&quot;, 微软雅黑, Arial" text-anchor="middle" font-size="12px" width="67px" fill="#000000" font-weight="700" align="middle" lineHeight="125%" anchor="middle" family="&quot;Microsoft YaHei&quot;, 微软雅黑, Arial" size="12px" weight="700" font-style="" opacity="1" y="7.431000000000001" transform="rotate(0)"><tspan id="SvgjsTspan1075" dy="15" x="43.5"><tspan id="SvgjsTspan1076" style="">Sqoop</tspan></tspan></text></g></g><g id="SvgjsG1077" transform="translate(203.51580873348757,234.28291633648024)"><path id="SvgjsPath1078" d="M 0 4Q 0 0 4 0L 82.709 0Q 86.709 0 86.709 4L 86.709 30.862Q 86.709 34.862 82.709 34.862L 4 34.862Q 0 34.862 0 30.862Z" stroke="none" fill-opacity="1" fill="#569dd3"></path><g id="SvgjsG1079"><text id="SvgjsText1080" font-family="&quot;Microsoft YaHei&quot;, 微软雅黑, Arial" text-anchor="middle" font-size="12px" width="67px" fill="#000000" font-weight="700" align="middle" lineHeight="125%" anchor="middle" family="&quot;Microsoft YaHei&quot;, 微软雅黑, Arial" size="12px" weight="700" font-style="" opacity="1" y="7.431000000000001" transform="rotate(0)"><tspan id="SvgjsTspan1081" dy="15" x="43.5"><tspan id="SvgjsTspan1082" style="">Chukwa</tspan></tspan></text></g></g><g id="SvgjsG1083" transform="translate(292.77371310023074,234.28291633648024)"><path id="SvgjsPath1084" d="M 0 4Q 0 0 4 0L 82.709 0Q 86.709 0 86.709 4L 86.709 30.862Q 86.709 34.862 82.709 34.862L 4 34.862Q 0 34.862 0 30.862Z" stroke="none" fill-opacity="1" fill="#569dd3"></path><g id="SvgjsG1085"><text id="SvgjsText1086" font-family="&quot;Microsoft YaHei&quot;, 微软雅黑, Arial" text-anchor="middle" font-size="12px" width="67px" fill="#000000" font-weight="700" align="middle" lineHeight="125%" anchor="middle" family="&quot;Microsoft YaHei&quot;, 微软雅黑, Arial" size="12px" weight="700" font-style="" opacity="1" y="7.431000000000001" transform="rotate(0)"><tspan id="SvgjsTspan1087" dy="15" x="43.5"><tspan id="SvgjsTspan1088" style="">HBase</tspan></tspan></text></g></g><g id="SvgjsG1089" transform="translate(382.031617466975,234.28291633648024)"><path id="SvgjsPath1090" d="M 0 4Q 0 0 4 0L 82.709 0Q 86.709 0 86.709 4L 86.709 30.862Q 86.709 34.862 82.709 34.862L 4 34.862Q 0 34.862 0 30.862Z" stroke="none" fill-opacity="1" fill="#569dd3"></path><g id="SvgjsG1091"><text id="SvgjsText1092" font-family="&quot;Microsoft YaHei&quot;, 微软雅黑, Arial" text-anchor="middle" font-size="12px" width="67px" fill="#000000" font-weight="700" align="middle" lineHeight="125%" anchor="middle" family="&quot;Microsoft YaHei&quot;, 微软雅黑, Arial" size="12px" weight="700" font-style="" opacity="1" y="7.431000000000001" transform="rotate(0)"><tspan id="SvgjsTspan1093" dy="15" x="43.5"><tspan id="SvgjsTspan1094" style="">Cassandra</tspan></tspan></text></g></g><g id="SvgjsG1095" transform="translate(471.2895218337185,234.28291633648024)"><path id="SvgjsPath1096" d="M 0 4Q 0 0 4 0L 82.709 0Q 86.709 0 86.709 4L 86.709 30.862Q 86.709 34.862 82.709 34.862L 4 34.862Q 0 34.862 0 30.862Z" stroke="none" fill-opacity="1" fill="#569dd3"></path><g id="SvgjsG1097"><text id="SvgjsText1098" font-family="&quot;Microsoft YaHei&quot;, 微软雅黑, Arial" text-anchor="middle" font-size="12px" width="67px" fill="#000000" font-weight="700" align="middle" lineHeight="125%" anchor="middle" family="&quot;Microsoft YaHei&quot;, 微软雅黑, Arial" size="12px" weight="700" font-style="" opacity="1" y="7.431000000000001" transform="rotate(0)"><tspan id="SvgjsTspan1099" dy="15" x="43.5"><tspan id="SvgjsTspan1100" style="">Accumulo</tspan></tspan></text></g></g><g id="SvgjsG1101" transform="translate(560.547426200462,234.28291633648024)"><path id="SvgjsPath1102" d="M 0 4Q 0 0 4 0L 82.709 0Q 86.709 0 86.709 4L 86.709 30.862Q 86.709 34.862 82.709 34.862L 4 34.862Q 0 34.862 0 30.862Z" stroke="none" fill-opacity="1" fill="#569dd3"></path><g id="SvgjsG1103"><text id="SvgjsText1104" font-family="&quot;Microsoft YaHei&quot;, 微软雅黑, Arial" text-anchor="middle" font-size="12px" width="67px" fill="#000000" font-weight="700" align="middle" lineHeight="125%" anchor="middle" family="&quot;Microsoft YaHei&quot;, 微软雅黑, Arial" size="12px" weight="700" font-style="" opacity="1" y="7.431000000000001" transform="rotate(0)"><tspan id="SvgjsTspan1105" dy="15" x="43.5"><tspan id="SvgjsTspan1106" style="">Phoenix</tspan></tspan></text></g></g><g id="SvgjsG1107" transform="translate(649.8053305672058,234.28291633648024)"><path id="SvgjsPath1108" d="M 0 4Q 0 0 4 0L 82.709 0Q 86.709 0 86.709 4L 86.709 30.862Q 86.709 34.862 82.709 34.862L 4 34.862Q 0 34.862 0 30.862Z" stroke="none" fill-opacity="1" fill="#569dd3"></path><g id="SvgjsG1109"><text id="SvgjsText1110" font-family="&quot;Microsoft YaHei&quot;, 微软雅黑, Arial" text-anchor="middle" font-size="12px" width="67px" fill="#000000" font-weight="700" align="middle" lineHeight="125%" anchor="middle" family="&quot;Microsoft YaHei&quot;, 微软雅黑, Arial" size="12px" weight="700" font-style="" opacity="1" y="7.431000000000001" transform="rotate(0)"><tspan id="SvgjsTspan1111" dy="15" x="43.5"><tspan id="SvgjsTspan1112" style="">Drill</tspan></tspan></text></g></g><g id="SvgjsG1113" transform="translate(25,276.28291633648024)"><path id="SvgjsPath1114" d="M 0 4Q 0 0 4 0L 82.709 0Q 86.709 0 86.709 4L 86.709 30.862Q 86.709 34.862 82.709 34.862L 4 34.862Q 0 34.862 0 30.862Z" stroke="none" fill-opacity="1" fill="#efeceb"></path><g id="SvgjsG1115"><text id="SvgjsText1116" font-family="&quot;Microsoft YaHei&quot;, 微软雅黑, Arial" text-anchor="middle" font-size="12px" width="67px" fill="#000000" font-weight="700" align="middle" lineHeight="125%" anchor="middle" family="&quot;Microsoft YaHei&quot;, 微软雅黑, Arial" size="12px" weight="700" font-style="" opacity="1" y="7.431000000000001" transform="rotate(0)"><tspan id="SvgjsTspan1117" dy="15" x="43.5"><tspan id="SvgjsTspan1118" style="">Flume</tspan></tspan></text></g></g><g id="SvgjsG1119" transform="translate(25,318.28291633648024)"><path id="SvgjsPath1120" d="M 0 4Q 0 0 4 0L 82.709 0Q 86.709 0 86.709 4L 86.709 30.862Q 86.709 34.862 82.709 34.862L 4 34.862Q 0 34.862 0 30.862Z" stroke="none" fill-opacity="1" fill="#efeceb"></path><g id="SvgjsG1121"><text id="SvgjsText1122" font-family="&quot;Microsoft YaHei&quot;, 微软雅黑, Arial" text-anchor="middle" font-size="12px" width="67px" fill="#000000" font-weight="700" align="middle" lineHeight="125%" anchor="middle" family="&quot;Microsoft YaHei&quot;, 微软雅黑, Arial" size="12px" weight="700" font-style="" opacity="1" y="7.431000000000001" transform="rotate(0)"><tspan id="SvgjsTspan1123" dy="15" x="43.5"><tspan id="SvgjsTspan1124" style="">Flume</tspan></tspan></text></g></g><g id="SvgjsG1125" transform="translate(25,360.28291633648)"><path id="SvgjsPath1126" d="M 0 4Q 0 0 4 0L 82.709 0Q 86.709 0 86.709 4L 86.709 30.862Q 86.709 34.862 82.709 34.862L 4 34.862Q 0 34.862 0 30.862Z" stroke="none" fill-opacity="1" fill="#efeceb"></path><g id="SvgjsG1127"><text id="SvgjsText1128" font-family="&quot;Microsoft YaHei&quot;, 微软雅黑, Arial" text-anchor="middle" font-size="12px" width="67px" fill="#000000" font-weight="700" align="middle" lineHeight="125%" anchor="middle" family="&quot;Microsoft YaHei&quot;, 微软雅黑, Arial" size="12px" weight="700" font-style="" opacity="1" y="7.431000000000001" transform="rotate(0)"><tspan id="SvgjsTspan1129" dy="15" x="43.5"><tspan id="SvgjsTspan1130" style="">Flume</tspan></tspan></text></g></g><g id="SvgjsG1131" transform="translate(739.0632349339492,276.28291633648024)"><path id="SvgjsPath1132" d="M 0 4Q 0 0 4 0L 82.709 0Q 86.709 0 86.709 4L 86.709 30.862Q 86.709 34.862 82.709 34.862L 4 34.862Q 0 34.862 0 30.862Z" stroke="none" fill-opacity="1" fill="#569dd3"></path><g id="SvgjsG1133"><text id="SvgjsText1134" font-family="&quot;Microsoft YaHei&quot;, 微软雅黑, Arial" text-anchor="middle" font-size="12px" width="67px" fill="#000000" font-weight="700" align="middle" lineHeight="125%" anchor="middle" family="&quot;Microsoft YaHei&quot;, 微软雅黑, Arial" size="12px" weight="700" font-style="" opacity="1" y="7.431000000000001" transform="rotate(0)"><tspan id="SvgjsTspan1135" dy="15" x="43.5"><tspan id="SvgjsTspan1136" style="">Whirr</tspan></tspan></text></g></g><g id="SvgjsG1137" transform="translate(739.0632349339492,318.28291633648024)"><path id="SvgjsPath1138" d="M 0 4Q 0 0 4 0L 82.709 0Q 86.709 0 86.709 4L 86.709 30.862Q 86.709 34.862 82.709 34.862L 4 34.862Q 0 34.862 0 30.862Z" stroke="none" fill-opacity="1" fill="#efeceb"></path><g id="SvgjsG1139"><text id="SvgjsText1140" font-family="&quot;Microsoft YaHei&quot;, 微软雅黑, Arial" text-anchor="middle" font-size="12px" width="67px" fill="#000000" font-weight="700" align="middle" lineHeight="125%" anchor="middle" family="&quot;Microsoft YaHei&quot;, 微软雅黑, Arial" size="12px" weight="700" font-style="" opacity="1" y="7.431000000000001" transform="rotate(0)"><tspan id="SvgjsTspan1141" dy="15" x="43.5"><tspan id="SvgjsTspan1142" style="">Flume</tspan></tspan></text></g></g><g id="SvgjsG1143" transform="translate(739.0632349339492,360.28291633648)"><path id="SvgjsPath1144" d="M 0 4Q 0 0 4 0L 82.709 0Q 86.709 0 86.709 4L 86.709 30.862Q 86.709 34.862 82.709 34.862L 4 34.862Q 0 34.862 0 30.862Z" stroke="none" fill-opacity="1" fill="#efeceb"></path><g id="SvgjsG1145"><text id="SvgjsText1146" font-family="&quot;Microsoft YaHei&quot;, 微软雅黑, Arial" text-anchor="middle" font-size="12px" width="67px" fill="#000000" font-weight="700" align="middle" lineHeight="125%" anchor="middle" family="&quot;Microsoft YaHei&quot;, 微软雅黑, Arial" size="12px" weight="700" font-style="" opacity="1" y="7.431000000000001" transform="rotate(0)"><tspan id="SvgjsTspan1147" dy="15" x="43.5"><tspan id="SvgjsTspan1148" style="">Flume</tspan></tspan></text></g></g><g id="SvgjsG1149" transform="translate(114.25790436674356,276.28291633648024)"><path id="SvgjsPath1150" d="M 0 4Q 0 0 4 0L 71.254 0Q 75.254 0 75.254 4L 75.254 30.862Q 75.254 34.862 71.254 34.862L 4 34.862Q 0 34.862 0 30.862Z" stroke="none" fill-opacity="1" fill="#ed7c30"></path><g id="SvgjsG1151"><text id="SvgjsText1152" font-family="&quot;Microsoft YaHei&quot;, 微软雅黑, Arial" text-anchor="middle" font-size="12px" width="56px" fill="#000000" font-weight="700" align="middle" lineHeight="125%" anchor="middle" family="&quot;Microsoft YaHei&quot;, 微软雅黑, Arial" size="12px" weight="700" font-style="" opacity="1" y="-0.06899999999999906" transform="rotate(0)"><tspan id="SvgjsTspan1153" dy="15" x="38"><tspan id="SvgjsTspan1154" style="">Map</tspan></tspan><tspan id="SvgjsTspan1155" dy="15" x="38"><tspan id="SvgjsTspan1156" style="">Reduce</tspan></tspan></text></g></g><g id="SvgjsG1157" transform="translate(192.3956883263495,276.28291633648024)"><path id="SvgjsPath1158" d="M 0 4Q 0 0 4 0L 71.254 0Q 75.254 0 75.254 4L 75.254 30.862Q 75.254 34.862 71.254 34.862L 4 34.862Q 0 34.862 0 30.862Z" stroke="none" fill-opacity="1" fill="#3f70ca"></path><g id="SvgjsG1159"><text id="SvgjsText1160" font-family="&quot;Microsoft YaHei&quot;, 微软雅黑, Arial" text-anchor="middle" font-size="12px" width="56px" fill="#000000" font-weight="700" align="middle" lineHeight="125%" anchor="middle" family="&quot;Microsoft YaHei&quot;, 微软雅黑, Arial" size="12px" weight="700" font-style="" opacity="1" y="7.431000000000001" transform="rotate(0)"><tspan id="SvgjsTspan1161" dy="15" x="38"><tspan id="SvgjsTspan1162" style="">Pig</tspan></tspan></text></g></g><g id="SvgjsG1163" transform="translate(270.53347228595527,276.28291633648024)"><path id="SvgjsPath1164" d="M 0 4Q 0 0 4 0L 71.254 0Q 75.254 0 75.254 4L 75.254 30.862Q 75.254 34.862 71.254 34.862L 4 34.862Q 0 34.862 0 30.862Z" stroke="none" fill-opacity="1" fill="#3f70ca"></path><g id="SvgjsG1165"><text id="SvgjsText1166" font-family="&quot;Microsoft YaHei&quot;, 微软雅黑, Arial" text-anchor="middle" font-size="12px" width="56px" fill="#000000" font-weight="700" align="middle" lineHeight="125%" anchor="middle" family="&quot;Microsoft YaHei&quot;, 微软雅黑, Arial" size="12px" weight="700" font-style="" opacity="1" y="7.431000000000001" transform="rotate(0)"><tspan id="SvgjsTspan1167" dy="15" x="38"><tspan id="SvgjsTspan1168" style="">Hive</tspan></tspan></text></g></g><g id="SvgjsG1169" transform="translate(348.67125624556127,276.28291633648024)"><path id="SvgjsPath1170" d="M 0 4Q 0 0 4 0L 71.254 0Q 75.254 0 75.254 4L 75.254 30.862Q 75.254 34.862 71.254 34.862L 4 34.862Q 0 34.862 0 30.862Z" stroke="none" fill-opacity="1" fill="#3f70ca"></path><g id="SvgjsG1171"><text id="SvgjsText1172" font-family="&quot;Microsoft YaHei&quot;, 微软雅黑, Arial" text-anchor="middle" font-size="12px" width="56px" fill="#000000" font-weight="700" align="middle" lineHeight="125%" anchor="middle" family="&quot;Microsoft YaHei&quot;, 微软雅黑, Arial" size="12px" weight="700" font-style="" opacity="1" y="7.431000000000001" transform="rotate(0)"><tspan id="SvgjsTspan1173" dy="15" x="38"><tspan id="SvgjsTspan1174" style="">Impala</tspan></tspan></text></g></g><g id="SvgjsG1175" transform="translate(426.8090402051673,276.28291633648024)"><path id="SvgjsPath1176" d="M 0 4Q 0 0 4 0L 71.254 0Q 75.254 0 75.254 4L 75.254 30.862Q 75.254 34.862 71.254 34.862L 4 34.862Q 0 34.862 0 30.862Z" stroke="none" fill-opacity="1" fill="#70ac43"></path><g id="SvgjsG1177"><text id="SvgjsText1178" font-family="&quot;Microsoft YaHei&quot;, 微软雅黑, Arial" text-anchor="middle" font-size="12px" width="56px" fill="#000000" font-weight="700" align="middle" lineHeight="125%" anchor="middle" family="&quot;Microsoft YaHei&quot;, 微软雅黑, Arial" size="12px" weight="700" font-style="" opacity="1" y="7.431000000000001" transform="rotate(0)"><tspan id="SvgjsTspan1179" dy="15" x="38"><tspan id="SvgjsTspan1180" style="">Mahout</tspan></tspan></text></g></g><g id="SvgjsG1181" transform="translate(504.94682416477326,276.28291633648024)"><path id="SvgjsPath1182" d="M 0 4Q 0 0 4 0L 71.254 0Q 75.254 0 75.254 4L 75.254 30.862Q 75.254 34.862 71.254 34.862L 4 34.862Q 0 34.862 0 30.862Z" stroke="none" fill-opacity="1" fill="#70ac43"></path><g id="SvgjsG1183"><text id="SvgjsText1184" font-family="&quot;Microsoft YaHei&quot;, 微软雅黑, Arial" text-anchor="middle" font-size="12px" width="56px" fill="#000000" font-weight="700" align="middle" lineHeight="125%" anchor="middle" family="&quot;Microsoft YaHei&quot;, 微软雅黑, Arial" size="12px" weight="700" font-style="" opacity="1" y="7.431000000000001" transform="rotate(0)"><tspan id="SvgjsTspan1185" dy="15" x="38"><tspan id="SvgjsTspan1186" style="">RHadoop</tspan></tspan></text></g></g><g id="SvgjsG1187" transform="translate(583.0846081243792,276.28291633648024)"><path id="SvgjsPath1188" d="M 0 4Q 0 0 4 0L 71.254 0Q 75.254 0 75.254 4L 75.254 30.862Q 75.254 34.862 71.254 34.862L 4 34.862Q 0 34.862 0 30.862Z" stroke="none" fill-opacity="1" fill="#70ac43"></path><g id="SvgjsG1189"><text id="SvgjsText1190" font-family="&quot;Microsoft YaHei&quot;, 微软雅黑, Arial" text-anchor="middle" font-size="12px" width="56px" fill="#000000" font-weight="700" align="middle" lineHeight="125%" anchor="middle" family="&quot;Microsoft YaHei&quot;, 微软雅黑, Arial" size="12px" weight="700" font-style="" opacity="1" y="7.431000000000001" transform="rotate(0)"><tspan id="SvgjsTspan1191" dy="15" x="38"><tspan id="SvgjsTspan1192" style="">Giraph</tspan></tspan></text></g></g><g id="SvgjsG1193" transform="translate(661.2223920839849,276.28291633648024)"><path id="SvgjsPath1194" d="M 0 4Q 0 0 4 0L 71.254 0Q 75.254 0 75.254 4L 75.254 30.862Q 75.254 34.862 71.254 34.862L 4 34.862Q 0 34.862 0 30.862Z" stroke="none" fill-opacity="1" fill="#70ac43"></path><g id="SvgjsG1195"><text id="SvgjsText1196" font-family="&quot;Microsoft YaHei&quot;, 微软雅黑, Arial" text-anchor="middle" font-size="12px" width="56px" fill="#000000" font-weight="700" align="middle" lineHeight="125%" anchor="middle" family="&quot;Microsoft YaHei&quot;, 微软雅黑, Arial" size="12px" weight="700" font-style="" opacity="1" y="7.431000000000001" transform="rotate(0)"><tspan id="SvgjsTspan1197" dy="15" x="38"><tspan id="SvgjsTspan1198" style="">Hama</tspan></tspan></text></g></g><g id="SvgjsG1199" transform="translate(114.25790436674333,318.28291633648024)"><path id="SvgjsPath1200" d="M 0 4Q 0 0 4 0L 618.219 0Q 622.219 0 622.219 4L 622.219 30.862Q 622.219 34.862 618.219 34.862L 4 34.862Q 0 34.862 0 30.862Z" stroke="none" fill-opacity="1" fill="#efbc02"></path><g id="SvgjsG1201"><text id="SvgjsText1202" font-family="&quot;Microsoft YaHei&quot;, 微软雅黑, Arial" text-anchor="middle" font-size="12px" width="603px" fill="#000000" font-weight="700" align="middle" lineHeight="125%" anchor="middle" family="&quot;Microsoft YaHei&quot;, 微软雅黑, Arial" size="12px" weight="700" font-style="" opacity="1" y="7.431000000000001" transform="rotate(0)"><tspan id="SvgjsTspan1203" dy="15" x="311.5"><tspan id="SvgjsTspan1204" style="">YARN：分布式操作系统</tspan></tspan></text></g></g><g id="SvgjsG1205" transform="translate(113.96545033710072,360.28291633648)"><path id="SvgjsPath1206" d="M 0 4Q 0 0 4 0L 618.219 0Q 622.219 0 622.219 4L 622.219 30.862Q 622.219 34.862 618.219 34.862L 4 34.862Q 0 34.862 0 30.862Z" stroke="none" fill-opacity="1" fill="#a1c1e6"></path><g id="SvgjsG1207"><text id="SvgjsText1208" font-family="&quot;Microsoft YaHei&quot;, 微软雅黑, Arial" text-anchor="middle" font-size="12px" width="603px" fill="#000000" font-weight="700" align="middle" lineHeight="125%" anchor="middle" family="&quot;Microsoft YaHei&quot;, 微软雅黑, Arial" size="12px" weight="700" font-style="" opacity="1" y="7.431000000000001" transform="rotate(0)"><tspan id="SvgjsTspan1209" dy="15" x="311.5"><tspan id="SvgjsTspan1210" style="">HDFS：分布式存储</tspan></tspan></text></g></g><g id="SvgjsG1211" transform="translate(141.13455836740422,304.71385819074436)"><path id="SvgjsPath1212" d="M 7.206 0L 14.63 0L 14.63 11L 21.836 11L 10.918 20L 0 11L 7.206 11L 7.206 0Z" stroke="none" fill-opacity="1" fill="#ed7c30"></path><g id="SvgjsG1213"><text id="SvgjsText1214" font-family="&quot;Microsoft YaHei&quot;, 微软雅黑, Arial" text-anchor="middle" font-size="13px" width="31px" fill="#323232" font-weight="400" align="middle" lineHeight="125%" anchor="middle" family="&quot;Microsoft YaHei&quot;, 微软雅黑, Arial" size="13px" weight="400" font-style="" opacity="1" y="-1.625" transform="rotate(0)"></text></g></g><g id="SvgjsG1215" transform="translate(215.0906238322268,304.71385819074436)"><path id="SvgjsPath1216" d="M 7.206 0L 14.63 0L 14.63 11L 21.836 11L 10.918 20L 0 11L 7.206 11L 7.206 0Z" stroke="none" fill-opacity="1" fill="#3f70ca"></path><g id="SvgjsG1217"><text id="SvgjsText1218" font-family="&quot;Microsoft YaHei&quot;, 微软雅黑, Arial" text-anchor="middle" font-size="13px" width="31px" fill="#323232" font-weight="400" align="middle" lineHeight="125%" anchor="middle" family="&quot;Microsoft YaHei&quot;, 微软雅黑, Arial" size="13px" weight="400" font-style="" opacity="1" y="-1.625" transform="rotate(0)"></text></g></g><g id="SvgjsG1219" transform="translate(297.2427052329661,304.71385819074436)"><path id="SvgjsPath1220" d="M 7.206 0L 14.63 0L 14.63 11L 21.836 11L 10.918 20L 0 11L 7.206 11L 7.206 0Z" stroke="none" fill-opacity="1" fill="#3f70ca"></path><g id="SvgjsG1221"><text id="SvgjsText1222" font-family="&quot;Microsoft YaHei&quot;, 微软雅黑, Arial" text-anchor="middle" font-size="13px" width="31px" fill="#323232" font-weight="400" align="middle" lineHeight="125%" anchor="middle" family="&quot;Microsoft YaHei&quot;, 微软雅黑, Arial" size="13px" weight="400" font-style="" opacity="1" y="-1.625" transform="rotate(0)"></text></g></g><g id="SvgjsG1223" transform="translate(375.3804891925726,304.71385819074436)"><path id="SvgjsPath1224" d="M 7.206 0L 14.63 0L 14.63 11L 21.836 11L 10.918 20L 0 11L 7.206 11L 7.206 0Z" stroke="none" fill-opacity="1" fill="#3f70ca"></path><g id="SvgjsG1225"><text id="SvgjsText1226" font-family="&quot;Microsoft YaHei&quot;, 微软雅黑, Arial" text-anchor="middle" font-size="13px" width="31px" fill="#323232" font-weight="400" align="middle" lineHeight="125%" anchor="middle" family="&quot;Microsoft YaHei&quot;, 微软雅黑, Arial" size="13px" weight="400" font-style="" opacity="1" y="-1.625" transform="rotate(0)"></text></g></g><g id="SvgjsG1227" transform="translate(687.783154476175,304.71385819074436)"><path id="SvgjsPath1228" d="M 7.206 0L 14.63 0L 14.63 11L 21.836 11L 10.918 20L 0 11L 7.206 11L 7.206 0Z" stroke="none" fill-opacity="1" fill="#70ac43"></path><g id="SvgjsG1229"><text id="SvgjsText1230" font-family="&quot;Microsoft YaHei&quot;, 微软雅黑, Arial" text-anchor="middle" font-size="13px" width="31px" fill="#323232" font-weight="400" align="middle" lineHeight="125%" anchor="middle" family="&quot;Microsoft YaHei&quot;, 微软雅黑, Arial" size="13px" weight="400" font-style="" opacity="1" y="-1.625" transform="rotate(0)"></text></g></g><g id="SvgjsG1231" transform="translate(609.7938410713903,304.71385819074436)"><path id="SvgjsPath1232" d="M 7.206 0L 14.63 0L 14.63 11L 21.836 11L 10.918 20L 0 11L 7.206 11L 7.206 0Z" stroke="none" fill-opacity="1" fill="#70ac43"></path><g id="SvgjsG1233"><text id="SvgjsText1234" font-family="&quot;Microsoft YaHei&quot;, 微软雅黑, Arial" text-anchor="middle" font-size="13px" width="31px" fill="#323232" font-weight="400" align="middle" lineHeight="125%" anchor="middle" family="&quot;Microsoft YaHei&quot;, 微软雅黑, Arial" size="13px" weight="400" font-style="" opacity="1" y="-1.625" transform="rotate(0)"></text></g></g><g id="SvgjsG1235" transform="translate(531.6560571117841,304.71385819074436)"><path id="SvgjsPath1236" d="M 7.206 0L 14.63 0L 14.63 11L 21.836 11L 10.918 20L 0 11L 7.206 11L 7.206 0Z" stroke="none" fill-opacity="1" fill="#70ac43"></path><g id="SvgjsG1237"><text id="SvgjsText1238" font-family="&quot;Microsoft YaHei&quot;, 微软雅黑, Arial" text-anchor="middle" font-size="13px" width="31px" fill="#323232" font-weight="400" align="middle" lineHeight="125%" anchor="middle" family="&quot;Microsoft YaHei&quot;, 微软雅黑, Arial" size="13px" weight="400" font-style="" opacity="1" y="-1.625" transform="rotate(0)"></text></g></g><g id="SvgjsG1239" transform="translate(453.5182731521786,304.71385819074436)"><path id="SvgjsPath1240" d="M 7.206 0L 14.63 0L 14.63 11L 21.836 11L 10.918 20L 0 11L 7.206 11L 7.206 0Z" stroke="none" fill-opacity="1" fill="#70ac43"></path><g id="SvgjsG1241"><text id="SvgjsText1242" font-family="&quot;Microsoft YaHei&quot;, 微软雅黑, Arial" text-anchor="middle" font-size="13px" width="31px" fill="#323232" font-weight="400" align="middle" lineHeight="125%" anchor="middle" family="&quot;Microsoft YaHei&quot;, 微软雅黑, Arial" size="13px" weight="400" font-style="" opacity="1" y="-1.625" transform="rotate(0)"></text></g></g><g id="SvgjsG1243"></g></svg>