<svg id="SvgjsSvg1006" width="686" height="445" xmlns="http://www.w3.org/2000/svg" version="1.1" xmlns:xlink="http://www.w3.org/1999/xlink" xmlns:svgjs="http://svgjs.com/svgjs"><defs id="SvgjsDefs1007"><pattern patternUnits="userSpaceOnUse" id="pattern_mark_0" width="300" height="300"><text x="150" y="100" fill="rgba(72,75,86,0.8)" font-size="18" transform="rotate(-45, 150, 150)" style="dominant-baseline: middle; text-anchor: middle;"></text></pattern><pattern patternUnits="userSpaceOnUse" id="pattern_mark_1" width="300" height="300"><text x="150" y="200" fill="rgba(72,75,86,0.8)" font-size="18" transform="rotate(-45, 150, 150)" style="dominant-baseline: middle; text-anchor: middle;"></text></pattern><marker id="SvgjsMarker1115" markerWidth="13" markerHeight="9" refX="9.5" refY="4.5" viewBox="0 0 13 9" orient="auto" markerUnits="userSpaceOnUse" stroke-dasharray="0,0"><path id="SvgjsPath1116" d="M0,0 L13,4.5 L0,9 L0,0" fill="#ffffff" stroke="#ffffff" stroke-width="1"></path></marker><marker id="SvgjsMarker1123" markerWidth="13" markerHeight="9" refX="9.5" refY="4.5" viewBox="0 0 13 9" orient="auto" markerUnits="userSpaceOnUse" stroke-dasharray="0,0"><path id="SvgjsPath1124" d="M0,0 L13,4.5 L0,9 L0,0" fill="#ffffff" stroke="#ffffff" stroke-width="1"></path></marker><marker id="SvgjsMarker1131" markerWidth="13" markerHeight="9" refX="9.5" refY="4.5" viewBox="0 0 13 9" orient="auto" markerUnits="userSpaceOnUse" stroke-dasharray="0,0"><path id="SvgjsPath1132" d="M0,0 L13,4.5 L0,9 L0,0" fill="#ffffff" stroke="#ffffff" stroke-width="1"></path></marker><marker id="SvgjsMarker1139" markerWidth="13" markerHeight="9" refX="9.5" refY="4.5" viewBox="0 0 13 9" orient="auto" markerUnits="userSpaceOnUse" stroke-dasharray="0,0"><path id="SvgjsPath1140" d="M0,0 L13,4.5 L0,9 L0,0" fill="#ffffff" stroke="#ffffff" stroke-width="1"></path></marker><marker id="SvgjsMarker1147" markerWidth="13" markerHeight="9" refX="9.5" refY="4.5" viewBox="0 0 13 9" orient="auto" markerUnits="userSpaceOnUse" stroke-dasharray="0,0"><path id="SvgjsPath1148" d="M0,0 L13,4.5 L0,9 L0,0" fill="#ffffff" stroke="#ffffff" stroke-width="1"></path></marker></defs><rect id="svgbackgroundid" width="686" height="445" fill="#505460"></rect><rect id="SvgjsRect1009" width="686" height="445" fill="url(#pattern_mark_0)"></rect><rect id="SvgjsRect1010" width="686" height="445" fill="url(#pattern_mark_1)"></rect><g id="SvgjsG1011" transform="translate(210,25)"><path id="SvgjsPath1012" d="M 0 0L 451 0L 451 340L 0 340Z" stroke-dasharray="7.5,3" stroke="rgba(255,255,255,1)" stroke-width="1.5" fill-opacity="1" fill="#505460"></path><g id="SvgjsG1013"><text id="SvgjsText1014" font-family="&quot;Microsoft YaHei&quot;, 微软雅黑, Arial" text-anchor="start" font-size="13px" width="431px" fill="#ffffff" font-weight="400" align="top" lineHeight="125%" anchor="start" family="&quot;Microsoft YaHei&quot;, 微软雅黑, Arial" size="13px" weight="400" font-style="" opacity="1" y="-2.625" transform="rotate(0)"><tspan id="SvgjsTspan1015" dy="16.25" x="10"><tspan id="SvgjsTspan1016" style="">应用程序</tspan></tspan></text></g></g><g id="SvgjsG1017" transform="translate(25,106)"><path id="SvgjsPath1018" d="M 11.667 0L 73.333 0C 88.889 0 88.889 35 73.333 35L 11.667 35C -3.889 35 -3.889 0 11.667 0Z" stroke="rgba(220,186,132,1)" stroke-width="1.5" fill-opacity="1" fill="#505460"></path><g id="SvgjsG1019"><text id="SvgjsText1020" font-family="&quot;Microsoft YaHei&quot;, 微软雅黑, Arial" text-anchor="middle" font-size="13px" width="65px" fill="#dcba84" font-weight="400" align="middle" lineHeight="125%" anchor="middle" family="&quot;Microsoft YaHei&quot;, 微软雅黑, Arial" size="13px" weight="400" font-style="" opacity="1" y="6.875" transform="rotate(0)"><tspan id="SvgjsTspan1021" dy="16.25" x="42.5"><tspan id="SvgjsTspan1022" style="">client</tspan></tspan></text></g></g><g id="SvgjsG1023" transform="translate(25,191)"><path id="SvgjsPath1024" d="M 11.667 0L 73.333 0C 88.889 0 88.889 35 73.333 35L 11.667 35C -3.889 35 -3.889 0 11.667 0Z" stroke="rgba(220,186,132,1)" stroke-width="1.5" fill-opacity="1" fill="#505460"></path><g id="SvgjsG1025"><text id="SvgjsText1026" font-family="&quot;Microsoft YaHei&quot;, 微软雅黑, Arial" text-anchor="middle" font-size="13px" width="65px" fill="#dcba84" font-weight="400" align="middle" lineHeight="125%" anchor="middle" family="&quot;Microsoft YaHei&quot;, 微软雅黑, Arial" size="13px" weight="400" font-style="" opacity="1" y="6.875" transform="rotate(0)"><tspan id="SvgjsTspan1027" dy="16.25" x="42.5"><tspan id="SvgjsTspan1028" style="">client</tspan></tspan></text></g></g><g id="SvgjsG1029" transform="translate(25,280)"><path id="SvgjsPath1030" d="M 11.667 0L 73.333 0C 88.889 0 88.889 35 73.333 35L 11.667 35C -3.889 35 -3.889 0 11.667 0Z" stroke="rgba(220,186,132,1)" stroke-width="1.5" fill-opacity="1" fill="#505460"></path><g id="SvgjsG1031"><text id="SvgjsText1032" font-family="&quot;Microsoft YaHei&quot;, 微软雅黑, Arial" text-anchor="middle" font-size="13px" width="65px" fill="#dcba84" font-weight="400" align="middle" lineHeight="125%" anchor="middle" family="&quot;Microsoft YaHei&quot;, 微软雅黑, Arial" size="13px" weight="400" font-style="" opacity="1" y="6.875" transform="rotate(0)"><tspan id="SvgjsTspan1033" dy="16.25" x="42.5"><tspan id="SvgjsTspan1034" style="">client</tspan></tspan></text></g></g><g id="SvgjsG1035" transform="translate(228,55.37220843672458)"><path id="SvgjsPath1036" d="M 0 4Q 0 0 4 0L 411 0Q 415 0 415 4L 415 288.754Q 415 292.754 411 292.754L 4 292.754Q 0 292.754 0 288.754Z" stroke="rgba(180,190,229,1)" stroke-width="1.5" fill-opacity="1" fill="#505460"></path><g id="SvgjsG1037"><text id="SvgjsText1038" font-family="&quot;Microsoft YaHei&quot;, 微软雅黑, Arial" text-anchor="start" font-size="13px" width="395px" fill="#b4bee5" font-weight="400" align="top" lineHeight="125%" anchor="start" family="&quot;Microsoft YaHei&quot;, 微软雅黑, Arial" size="13px" weight="400" font-style="" opacity="1" y="-2.625" transform="rotate(0)"><tspan id="SvgjsTspan1039" dy="16.25" x="10"><tspan id="SvgjsTspan1040" style="">Reactor单线程</tspan></tspan></text></g></g><g id="SvgjsG1041" transform="translate(318,93)"><path id="SvgjsPath1042" d="M 0 4Q 0 0 4 0L 185 0Q 189 0 189 4L 189 63Q 189 67 185 67L 4 67Q 0 67 0 63Z" stroke="rgba(220,186,132,1)" stroke-width="1.5" fill-opacity="1" fill="#505460"></path><g id="SvgjsG1043"><text id="SvgjsText1044" font-family="&quot;Microsoft YaHei&quot;, 微软雅黑, Arial" text-anchor="middle" font-size="13px" width="169px" fill="#dcba84" font-weight="400" align="top" lineHeight="125%" anchor="middle" family="&quot;Microsoft YaHei&quot;, 微软雅黑, Arial" size="13px" weight="400" font-style="" opacity="1" y="-2.625" transform="rotate(0)"><tspan id="SvgjsTspan1045" dy="16.25" x="94.5"><tspan id="SvgjsTspan1046" style="">Reactor</tspan></tspan></text></g></g><g id="SvgjsG1047" transform="translate(419,121)"><path id="SvgjsPath1048" d="M 0 4Q 0 0 4 0L 75 0Q 79 0 79 4L 79 21Q 79 25 75 25L 4 25Q 0 25 0 21Z" stroke="rgba(255,255,255,1)" stroke-width="1.5" fill-opacity="1" fill="#505460"></path><g id="SvgjsG1049"><text id="SvgjsText1050" font-family="&quot;Microsoft YaHei&quot;, 微软雅黑, Arial" text-anchor="middle" font-size="13px" width="59px" fill="#ffffff" font-weight="400" align="middle" lineHeight="125%" anchor="middle" family="&quot;Microsoft YaHei&quot;, 微软雅黑, Arial" size="13px" weight="400" font-style="" opacity="1" y="1.875" transform="rotate(0)"><tspan id="SvgjsTspan1051" dy="16.25" x="39.5"><tspan id="SvgjsTspan1052" style="">dispatch</tspan></tspan></text></g></g><g id="SvgjsG1053" transform="translate(389,386)"><path id="SvgjsPath1054" d="M 0 4Q 0 0 4 0L 59 0Q 63 0 63 4L 63 24Q 63 28 59 28L 4 28Q 0 28 0 24Z" stroke="rgba(220,186,132,1)" stroke-width="1.5" fill-opacity="1" fill="#505460"></path><g id="SvgjsG1055"><text id="SvgjsText1056" font-family="&quot;Microsoft YaHei&quot;, 微软雅黑, Arial" text-anchor="middle" font-size="13px" width="43px" fill="#dcba84" font-weight="400" align="middle" lineHeight="125%" anchor="middle" family="&quot;Microsoft YaHei&quot;, 微软雅黑, Arial" size="13px" weight="400" font-style="" opacity="1" y="3.375" transform="rotate(0)"><tspan id="SvgjsTspan1057" dy="16.25" x="31.5"><tspan id="SvgjsTspan1058" style="">对象</tspan></tspan></text></g></g><g id="SvgjsG1059" transform="translate(206,380)"><path id="SvgjsPath1060" d="M 0 0L 132 0L 132 40L 0 40Z" stroke="none" fill="none"></path><g id="SvgjsG1061"><text id="SvgjsText1062" font-family="&quot;Microsoft YaHei&quot;, 微软雅黑, Arial" text-anchor="middle" font-size="13px" width="132px" fill="#ffffff" font-weight="400" align="middle" lineHeight="125%" anchor="middle" family="&quot;Microsoft YaHei&quot;, 微软雅黑, Arial" size="13px" weight="400" font-style="" opacity="1" y="9.375" transform="rotate(0)"><tspan id="SvgjsTspan1063" dy="16.25" x="66"><tspan id="SvgjsTspan1064" style="">单Reactor单线程</tspan></tspan></text></g></g><g id="SvgjsG1065" transform="translate(487,386)"><path id="SvgjsPath1066" d="M 0 4Q 0 0 4 0L 59 0Q 63 0 63 4L 63 24Q 63 28 59 28L 4 28Q 0 28 0 24Z" stroke="rgba(180,189,229,1)" stroke-width="1.5" fill-opacity="1" fill="#505460"></path><g id="SvgjsG1067"><text id="SvgjsText1068" font-family="&quot;Microsoft YaHei&quot;, 微软雅黑, Arial" text-anchor="middle" font-size="13px" width="43px" fill="#b4bde5" font-weight="400" align="middle" lineHeight="125%" anchor="middle" family="&quot;Microsoft YaHei&quot;, 微软雅黑, Arial" size="13px" weight="400" font-style="" opacity="1" y="3.375" transform="rotate(0)"><tspan id="SvgjsTspan1069" dy="16.25" x="31.5"><tspan id="SvgjsTspan1070" style="">线程</tspan></tspan></text></g></g><g id="SvgjsG1071" transform="translate(327,121)"><path id="SvgjsPath1072" d="M 0 4Q 0 0 4 0L 75 0Q 79 0 79 4L 79 21Q 79 25 75 25L 4 25Q 0 25 0 21Z" stroke="rgba(255,255,255,1)" stroke-width="1.5" fill-opacity="1" fill="#505460"></path><g id="SvgjsG1073"><text id="SvgjsText1074" font-family="&quot;Microsoft YaHei&quot;, 微软雅黑, Arial" text-anchor="middle" font-size="13px" width="59px" fill="#ffffff" font-weight="400" align="middle" lineHeight="125%" anchor="middle" family="&quot;Microsoft YaHei&quot;, 微软雅黑, Arial" size="13px" weight="400" font-style="" opacity="1" y="1.875" transform="rotate(0)"><tspan id="SvgjsTspan1075" dy="16.25" x="39.5"><tspan id="SvgjsTspan1076" style="">select</tspan></tspan></text></g></g><g id="SvgjsG1077" transform="translate(249,218)"><path id="SvgjsPath1078" d="M 0 4Q 0 0 4 0L 93 0Q 97 0 97 4L 97 63Q 97 67 93 67L 4 67Q 0 67 0 63Z" stroke="rgba(220,186,132,1)" stroke-width="1.5" fill-opacity="1" fill="#505460"></path><g id="SvgjsG1079"><text id="SvgjsText1080" font-family="&quot;Microsoft YaHei&quot;, 微软雅黑, Arial" text-anchor="middle" font-size="13px" width="77px" fill="#dcba84" font-weight="400" align="top" lineHeight="125%" anchor="middle" family="&quot;Microsoft YaHei&quot;, 微软雅黑, Arial" size="13px" weight="400" font-style="" opacity="1" y="-2.625" transform="rotate(0)"><tspan id="SvgjsTspan1081" dy="16.25" x="48.5"><tspan id="SvgjsTspan1082" style="">Acceptor</tspan></tspan></text></g></g><g id="SvgjsG1083" transform="translate(258,246)"><path id="SvgjsPath1084" d="M 0 4Q 0 0 4 0L 75 0Q 79 0 79 4L 79 21Q 79 25 75 25L 4 25Q 0 25 0 21Z" stroke="rgba(255,255,255,1)" stroke-width="1.5" fill-opacity="1" fill="#505460"></path><g id="SvgjsG1085"><text id="SvgjsText1086" font-family="&quot;Microsoft YaHei&quot;, 微软雅黑, Arial" text-anchor="middle" font-size="13px" width="59px" fill="#ffffff" font-weight="400" align="middle" lineHeight="125%" anchor="middle" family="&quot;Microsoft YaHei&quot;, 微软雅黑, Arial" size="13px" weight="400" font-style="" opacity="1" y="1.875" transform="rotate(0)"><tspan id="SvgjsTspan1087" dy="16.25" x="39.5"><tspan id="SvgjsTspan1088" style="">accept</tspan></tspan></text></g></g><g id="SvgjsG1089" transform="translate(419,218)"><path id="SvgjsPath1090" d="M 0 4Q 0 0 4 0L 185 0Q 189 0 189 4L 189 94Q 189 98 185 98L 4 98Q 0 98 0 94Z" stroke="rgba(220,186,132,1)" stroke-width="1.5" fill-opacity="1" fill="#505460"></path><g id="SvgjsG1091"><text id="SvgjsText1092" font-family="&quot;Microsoft YaHei&quot;, 微软雅黑, Arial" text-anchor="middle" font-size="13px" width="169px" fill="#dcba84" font-weight="400" align="top" lineHeight="125%" anchor="middle" family="&quot;Microsoft YaHei&quot;, 微软雅黑, Arial" size="13px" weight="400" font-style="" opacity="1" y="-2.625" transform="rotate(0)"><tspan id="SvgjsTspan1093" dy="16.25" x="94.5"><tspan id="SvgjsTspan1094" style="">Handler</tspan></tspan></text></g></g><g id="SvgjsG1095" transform="translate(520,246)"><path id="SvgjsPath1096" d="M 0 4Q 0 0 4 0L 75 0Q 79 0 79 4L 79 21Q 79 25 75 25L 4 25Q 0 25 0 21Z" stroke="rgba(255,255,255,1)" stroke-width="1.5" fill-opacity="1" fill="#505460"></path><g id="SvgjsG1097"><text id="SvgjsText1098" font-family="&quot;Microsoft YaHei&quot;, 微软雅黑, Arial" text-anchor="middle" font-size="13px" width="59px" fill="#ffffff" font-weight="400" align="middle" lineHeight="125%" anchor="middle" family="&quot;Microsoft YaHei&quot;, 微软雅黑, Arial" size="13px" weight="400" font-style="" opacity="1" y="1.875" transform="rotate(0)"><tspan id="SvgjsTspan1099" dy="16.25" x="39.5"><tspan id="SvgjsTspan1100" style="">业务处理</tspan></tspan></text></g></g><g id="SvgjsG1101" transform="translate(428,246)"><path id="SvgjsPath1102" d="M 0 4Q 0 0 4 0L 75 0Q 79 0 79 4L 79 21Q 79 25 75 25L 4 25Q 0 25 0 21Z" stroke="rgba(255,255,255,1)" stroke-width="1.5" fill-opacity="1" fill="#505460"></path><g id="SvgjsG1103"><text id="SvgjsText1104" font-family="&quot;Microsoft YaHei&quot;, 微软雅黑, Arial" text-anchor="middle" font-size="13px" width="59px" fill="#ffffff" font-weight="400" align="middle" lineHeight="125%" anchor="middle" family="&quot;Microsoft YaHei&quot;, 微软雅黑, Arial" size="13px" weight="400" font-style="" opacity="1" y="1.875" transform="rotate(0)"><tspan id="SvgjsTspan1105" dy="16.25" x="39.5"><tspan id="SvgjsTspan1106" style="">read</tspan></tspan></text></g></g><g id="SvgjsG1107" transform="translate(428,285)"><path id="SvgjsPath1108" d="M 0 4Q 0 0 4 0L 75 0Q 79 0 79 4L 79 21Q 79 25 75 25L 4 25Q 0 25 0 21Z" stroke="rgba(255,255,255,1)" stroke-width="1.5" fill-opacity="1" fill="#505460"></path><g id="SvgjsG1109"><text id="SvgjsText1110" font-family="&quot;Microsoft YaHei&quot;, 微软雅黑, Arial" text-anchor="middle" font-size="13px" width="59px" fill="#ffffff" font-weight="400" align="middle" lineHeight="125%" anchor="middle" family="&quot;Microsoft YaHei&quot;, 微软雅黑, Arial" size="13px" weight="400" font-style="" opacity="1" y="1.875" transform="rotate(0)"><tspan id="SvgjsTspan1111" dy="16.25" x="39.5"><tspan id="SvgjsTspan1112" style="">send</tspan></tspan></text></g></g><g id="SvgjsG1113"><path id="SvgjsPath1114" d="M110.74992200273834 123.51081618273179L315.3002807901419 126.4610617421655" stroke="#ffffff" stroke-width="1.5" fill="none" marker-end="url(#SvgjsMarker1115)"></path><rect id="SvgjsRect1117" width="26" height="18" x="164.57279416316473" y="115.47460760812257" fill="#ffffff"></rect><text id="SvgjsText1118" font-family="&quot;Microsoft YaHei&quot;, 微软雅黑, Arial" text-anchor="middle" font-size="13px" width="26px" fill="#323232" font-weight="400" align="top" lineHeight="16px" anchor="middle" family="&quot;Microsoft YaHei&quot;, 微软雅黑, Arial" size="13px" weight="400" font-style="" opacity="1" y="112.84960760812257" transform="rotate(0)"><tspan id="SvgjsTspan1119" dy="16.25" x="177.57279416316473"><tspan id="SvgjsTspan1120" style="">请求</tspan></tspan></text></g><g id="SvgjsG1121"><path id="SvgjsPath1122" d="M110.69773694243736 208.22493062846223L315.48814700722556 127.49024973753609" stroke="#ffffff" stroke-width="1.5" fill="none" marker-end="url(#SvgjsMarker1123)"></path><rect id="SvgjsRect1125" width="26" height="18" x="163.8486281826577" y="173.14621388952918" fill="#ffffff"></rect><text id="SvgjsText1126" font-family="&quot;Microsoft YaHei&quot;, 微软雅黑, Arial" text-anchor="middle" font-size="13px" width="26px" fill="#323232" font-weight="400" align="top" lineHeight="16px" anchor="middle" family="&quot;Microsoft YaHei&quot;, 微软雅黑, Arial" size="13px" weight="400" font-style="" opacity="1" y="170.52121388952918" transform="rotate(0)"><tspan id="SvgjsTspan1127" dy="16.25" x="176.8486281826577"><tspan id="SvgjsTspan1128" style="">请求</tspan></tspan></text></g><g id="SvgjsG1129"><path id="SvgjsPath1130" d="M110.57934947788863 297.0237078811589L315.91434187960095 128.21465162782806" stroke="#ffffff" stroke-width="1.5" fill="none" marker-end="url(#SvgjsMarker1131)"></path><rect id="SvgjsRect1133" width="26" height="18" x="162.74534965249174" y="234.44973658376878" fill="#ffffff"></rect><text id="SvgjsText1134" font-family="&quot;Microsoft YaHei&quot;, 微软雅黑, Arial" text-anchor="middle" font-size="13px" width="26px" fill="#323232" font-weight="400" align="top" lineHeight="16px" anchor="middle" family="&quot;Microsoft YaHei&quot;, 微软雅黑, Arial" size="13px" weight="400" font-style="" opacity="1" y="231.82473658376878" transform="rotate(0)"><tspan id="SvgjsTspan1135" dy="16.25" x="175.74534965249174"><tspan id="SvgjsTspan1136" style="">请求</tspan></tspan></text></g><g id="SvgjsG1137"><path id="SvgjsPath1138" d="M411.8303482622464 160.33773739817138L299.91074625591295 216.784145366583" stroke="#ffffff" stroke-width="1.5" fill="none" marker-end="url(#SvgjsMarker1139)"></path><rect id="SvgjsRect1141" width="52" height="18" x="326.3825471242146" y="181.32010666778737" fill="#ffffff"></rect><text id="SvgjsText1142" font-family="&quot;Microsoft YaHei&quot;, 微软雅黑, Arial" text-anchor="middle" font-size="13px" width="52px" fill="#323232" font-weight="400" align="top" lineHeight="16px" anchor="middle" family="&quot;Microsoft YaHei&quot;, 微软雅黑, Arial" size="13px" weight="400" font-style="" opacity="1" y="178.69510666778737" transform="rotate(0)"><tspan id="SvgjsTspan1143" dy="16.25" x="352.3825471242146"><tspan id="SvgjsTspan1144" style="">建立连接</tspan></tspan></text></g><g id="SvgjsG1145"><path id="SvgjsPath1146" d="M413.15038832711025 160.37349032645938L511.1586020224031 216.6554348247463" stroke="#ffffff" stroke-width="1.5" fill="none" marker-end="url(#SvgjsMarker1147)"></path><rect id="SvgjsRect1149" width="52" height="18" x="431.2486656797989" y="176.6972535586964" fill="#ffffff"></rect><text id="SvgjsText1150" font-family="&quot;Microsoft YaHei&quot;, 微软雅黑, Arial" text-anchor="middle" font-size="13px" width="52px" fill="#323232" font-weight="400" align="top" lineHeight="16px" anchor="middle" family="&quot;Microsoft YaHei&quot;, 微软雅黑, Arial" size="13px" weight="400" font-style="" opacity="1" y="174.0722535586964" transform="rotate(0)"><tspan id="SvgjsTspan1151" dy="16.25" x="457.2486656797989"><tspan id="SvgjsTspan1152" style="">处理请求</tspan></tspan></text></g><g id="SvgjsG1153"></g></svg>