<svg id="SvgjsSvg1318" width="497" height="577" xmlns="http://www.w3.org/2000/svg" version="1.1" xmlns:xlink="http://www.w3.org/1999/xlink" xmlns:svgjs="http://svgjs.com/svgjs"><defs id="SvgjsDefs1319"><pattern patternUnits="userSpaceOnUse" id="pattern_mark_0" width="300" height="300"><text x="150" y="100" fill="rgba(229,229,229,0.8)" font-size="18" transform="rotate(-45, 150, 150)" style="dominant-baseline: middle; text-anchor: middle;"></text></pattern><pattern patternUnits="userSpaceOnUse" id="pattern_mark_1" width="300" height="300"><text x="150" y="200" fill="rgba(229,229,229,0.8)" font-size="18" transform="rotate(-45, 150, 150)" style="dominant-baseline: middle; text-anchor: middle;"></text></pattern><pattern id="SvgjsPattern1373" x="0" y="0" width="75" height="75" patternUnits="userSpaceOnUse"><image id="SvgjsImage1374" xlink:href="/v5_editor/static/assets/images/designer/network_huaweiyun/huawei_other/Application-CAE.svg" width="75" height="75" preserveAspectRatio="none" crossOrigin="anonymous" x="0" y="0"></image></pattern><pattern id="SvgjsPattern1381" x="0" y="0" width="75" height="75" patternUnits="userSpaceOnUse"><image id="SvgjsImage1382" xlink:href="/v5_editor/static/assets/images/designer/network_huaweiyun/huawei_other/Application-CAE.svg" width="75" height="75" preserveAspectRatio="none" crossOrigin="anonymous" x="0" y="0"></image></pattern><pattern id="SvgjsPattern1389" x="0" y="0" width="75" height="75" patternUnits="userSpaceOnUse"><image id="SvgjsImage1390" xlink:href="/v5_editor/static/assets/images/designer/network_huaweiyun/huawei_other/Application-CAE.svg" width="75" height="75" preserveAspectRatio="none" crossOrigin="anonymous" x="0" y="0"></image></pattern><marker id="SvgjsMarker1399" markerWidth="13" markerHeight="9" refX="9.5" refY="4.5" viewBox="0 0 13 9" orient="auto" markerUnits="userSpaceOnUse" stroke-dasharray="0,0"><path id="SvgjsPath1400" d="M0,0 L13,4.5 L0,9 L0,0" fill="#323232" stroke="#323232" stroke-width="1"></path></marker><marker id="SvgjsMarker1403" markerWidth="13" markerHeight="9" refX="9.5" refY="4.5" viewBox="0 0 13 9" orient="auto" markerUnits="userSpaceOnUse" stroke-dasharray="0,0"><path id="SvgjsPath1404" d="M0,0 L13,4.5 L0,9 L0,0" fill="#323232" stroke="#323232" stroke-width="1"></path></marker><marker id="SvgjsMarker1407" markerWidth="13" markerHeight="9" refX="9.5" refY="4.5" viewBox="0 0 13 9" orient="auto" markerUnits="userSpaceOnUse" stroke-dasharray="0,0"><path id="SvgjsPath1408" d="M0,0 L13,4.5 L0,9 L0,0" fill="#323232" stroke="#323232" stroke-width="1"></path></marker><marker id="SvgjsMarker1411" markerWidth="13" markerHeight="9" refX="9.5" refY="4.5" viewBox="0 0 13 9" orient="auto" markerUnits="userSpaceOnUse" stroke-dasharray="0,0"><path id="SvgjsPath1412" d="M0,0 L13,4.5 L0,9 L0,0" fill="#323232" stroke="#323232" stroke-width="1"></path></marker><marker id="SvgjsMarker1415" markerWidth="13" markerHeight="9" refX="9.5" refY="4.5" viewBox="0 0 13 9" orient="auto" markerUnits="userSpaceOnUse" stroke-dasharray="0,0"><path id="SvgjsPath1416" d="M0,0 L13,4.5 L0,9 L0,0" fill="#323232" stroke="#323232" stroke-width="1"></path></marker><marker id="SvgjsMarker1419" markerWidth="13" markerHeight="9" refX="9.5" refY="4.5" viewBox="0 0 13 9" orient="auto" markerUnits="userSpaceOnUse" stroke-dasharray="0,0"><path id="SvgjsPath1420" d="M0,0 L13,4.5 L0,9 L0,0" fill="#323232" stroke="#323232" stroke-width="1"></path></marker><marker id="SvgjsMarker1423" markerWidth="13" markerHeight="9" refX="9.5" refY="4.5" viewBox="0 0 13 9" orient="auto" markerUnits="userSpaceOnUse" stroke-dasharray="0,0"><path id="SvgjsPath1424" d="M0,0 L13,4.5 L0,9 L0,0" fill="#323232" stroke="#323232" stroke-width="1"></path></marker><marker id="SvgjsMarker1427" markerWidth="13" markerHeight="9" refX="9.5" refY="4.5" viewBox="0 0 13 9" orient="auto" markerUnits="userSpaceOnUse" stroke-dasharray="0,0"><path id="SvgjsPath1428" d="M0,0 L13,4.5 L0,9 L0,0" fill="#323232" stroke="#323232" stroke-width="1"></path></marker><marker id="SvgjsMarker1431" markerWidth="13" markerHeight="9" refX="9.5" refY="4.5" viewBox="0 0 13 9" orient="auto" markerUnits="userSpaceOnUse" stroke-dasharray="0,0"><path id="SvgjsPath1432" d="M0,0 L13,4.5 L0,9 L0,0" fill="#323232" stroke="#323232" stroke-width="1"></path></marker></defs><rect id="svgbackgroundid" width="497" height="577" fill="transparent"></rect><rect id="SvgjsRect1321" width="497" height="577" fill="url(#pattern_mark_0)"></rect><rect id="SvgjsRect1322" width="497" height="577" fill="url(#pattern_mark_1)"></rect><g id="SvgjsG1323" transform="translate(200.5,25)"><path id="SvgjsPath1324" d="M 0 4Q 0 0 4 0L 92 0Q 96 0 96 4L 96 50Q 96 54 92 54L 4 54Q 0 54 0 50Z" stroke="rgba(33,41,48,1)" stroke-width="1.5" fill-opacity="1" fill="#99ff99"></path><g id="SvgjsG1325"><text id="SvgjsText1326" font-family="&quot;Microsoft YaHei&quot;, 微软雅黑, Arial" text-anchor="middle" font-size="13px" width="76px" fill="#323232" font-weight="400" align="middle" lineHeight="125%" anchor="middle" family="&quot;Microsoft YaHei&quot;, 微软雅黑, Arial" size="13px" weight="400" font-style="" opacity="1" y="16.375" transform="rotate(0)"><tspan id="SvgjsTspan1327" dy="16.25" x="48"><tspan id="SvgjsTspan1328" style="">Thread</tspan></tspan></text></g></g><g id="SvgjsG1329" transform="translate(200.5,129)"><path id="SvgjsPath1330" d="M 0 30C 0 -10 96 -10 96 30C 96 70 0 70 0 30Z" stroke="rgba(33,41,48,1)" stroke-width="1.5" fill-opacity="1" fill="#99ff99"></path><g id="SvgjsG1331"><text id="SvgjsText1332" font-family="&quot;Microsoft YaHei&quot;, 微软雅黑, Arial" text-anchor="middle" font-size="13px" width="76px" fill="#323232" font-weight="400" align="middle" lineHeight="125%" anchor="middle" family="&quot;Microsoft YaHei&quot;, 微软雅黑, Arial" size="13px" weight="400" font-style="" opacity="1" y="19.375" transform="rotate(0)"><tspan id="SvgjsTspan1333" dy="16.25" x="48"><tspan id="SvgjsTspan1334" style="">Selector</tspan></tspan></text></g></g><g id="SvgjsG1335" transform="translate(200.5,239)"><path id="SvgjsPath1336" d="M 0 0L 96 0L 96 54L 0 54Z" stroke="rgba(33,41,48,1)" stroke-width="1.5" fill-opacity="1" fill="#3399ff"></path><g id="SvgjsG1337"><text id="SvgjsText1338" font-family="&quot;Microsoft YaHei&quot;, 微软雅黑, Arial" text-anchor="middle" font-size="13px" width="76px" fill="#323232" font-weight="400" align="middle" lineHeight="125%" anchor="middle" family="&quot;Microsoft YaHei&quot;, 微软雅黑, Arial" size="13px" weight="400" font-style="" opacity="1" y="16.375" transform="rotate(0)"><tspan id="SvgjsTspan1339" dy="16.25" x="48"><tspan id="SvgjsTspan1340" style="">Channel</tspan></tspan></text></g></g><g id="SvgjsG1341" transform="translate(366.5,239)"><path id="SvgjsPath1342" d="M 0 0L 96 0L 96 54L 0 54Z" stroke="rgba(33,41,48,1)" stroke-width="1.5" fill-opacity="1" fill="#3399ff"></path><g id="SvgjsG1343"><text id="SvgjsText1344" font-family="&quot;Microsoft YaHei&quot;, 微软雅黑, Arial" text-anchor="middle" font-size="13px" width="76px" fill="#323232" font-weight="400" align="middle" lineHeight="125%" anchor="middle" family="&quot;Microsoft YaHei&quot;, 微软雅黑, Arial" size="13px" weight="400" font-style="" opacity="1" y="16.375" transform="rotate(0)"><tspan id="SvgjsTspan1345" dy="16.25" x="48"><tspan id="SvgjsTspan1346" style="">Channel</tspan></tspan></text></g></g><g id="SvgjsG1347" transform="translate(34.5,239)"><path id="SvgjsPath1348" d="M 0 0L 96 0L 96 54L 0 54Z" stroke="rgba(33,41,48,1)" stroke-width="1.5" fill-opacity="1" fill="#3399ff"></path><g id="SvgjsG1349"><text id="SvgjsText1350" font-family="&quot;Microsoft YaHei&quot;, 微软雅黑, Arial" text-anchor="middle" font-size="13px" width="76px" fill="#323232" font-weight="400" align="middle" lineHeight="125%" anchor="middle" family="&quot;Microsoft YaHei&quot;, 微软雅黑, Arial" size="13px" weight="400" font-style="" opacity="1" y="16.375" transform="rotate(0)"><tspan id="SvgjsTspan1351" dy="16.25" x="48"><tspan id="SvgjsTspan1352" style="">Channel</tspan></tspan></text></g></g><g id="SvgjsG1353" transform="translate(200.5,343)"><path id="SvgjsPath1354" d="M 0 4Q 0 0 4 0L 92 0Q 96 0 96 4L 96 50Q 96 54 92 54L 4 54Q 0 54 0 50Z" stroke="rgba(33,41,48,1)" stroke-width="1.5" fill-opacity="1" fill="#000000"></path><g id="SvgjsG1355"><text id="SvgjsText1356" font-family="&quot;Microsoft YaHei&quot;, 微软雅黑, Arial" text-anchor="middle" font-size="13px" width="76px" fill="#ffffff" font-weight="400" align="middle" lineHeight="125%" anchor="middle" family="&quot;Microsoft YaHei&quot;, 微软雅黑, Arial" size="13px" weight="400" font-style="" opacity="1" y="16.375" transform="rotate(0)"><tspan id="SvgjsTspan1357" dy="16.25" x="48"><tspan id="SvgjsTspan1358" style="">Buffer</tspan></tspan></text></g></g><g id="SvgjsG1359" transform="translate(366.5,343)"><path id="SvgjsPath1360" d="M 0 4Q 0 0 4 0L 92 0Q 96 0 96 4L 96 50Q 96 54 92 54L 4 54Q 0 54 0 50Z" stroke="rgba(33,41,48,1)" stroke-width="1.5" fill-opacity="1" fill="#000000"></path><g id="SvgjsG1361"><text id="SvgjsText1362" font-family="&quot;Microsoft YaHei&quot;, 微软雅黑, Arial" text-anchor="middle" font-size="13px" width="76px" fill="#ffffff" font-weight="400" align="middle" lineHeight="125%" anchor="middle" family="&quot;Microsoft YaHei&quot;, 微软雅黑, Arial" size="13px" weight="400" font-style="" opacity="1" y="16.375" transform="rotate(0)"><tspan id="SvgjsTspan1363" dy="16.25" x="48"><tspan id="SvgjsTspan1364" style="">Buffer</tspan></tspan></text></g></g><g id="SvgjsG1365" transform="translate(34.5,343)"><path id="SvgjsPath1366" d="M 0 4Q 0 0 4 0L 92 0Q 96 0 96 4L 96 50Q 96 54 92 54L 4 54Q 0 54 0 50Z" stroke="rgba(33,41,48,1)" stroke-width="1.5" fill-opacity="1" fill="#000000"></path><g id="SvgjsG1367"><text id="SvgjsText1368" font-family="&quot;Microsoft YaHei&quot;, 微软雅黑, Arial" text-anchor="middle" font-size="13px" width="76px" fill="#ffffff" font-weight="400" align="middle" lineHeight="125%" anchor="middle" family="&quot;Microsoft YaHei&quot;, 微软雅黑, Arial" size="13px" weight="400" font-style="" opacity="1" y="16.375" transform="rotate(0)"><tspan id="SvgjsTspan1369" dy="16.25" x="48"><tspan id="SvgjsTspan1370" style="">Buffer</tspan></tspan></text></g></g><g id="SvgjsG1371" transform="translate(45,447)"><path id="SvgjsPath1372" d="M 0 0L 75 0L 75 75L 0 75Z" stroke="none" fill="url(#SvgjsPattern1373)" opacity="1"></path><g id="SvgjsG1375"><text id="SvgjsText1376" font-family="&quot;Microsoft YaHei&quot;, 微软雅黑, Arial" text-anchor="middle" font-size="13px" width="115px" fill="#323232" font-weight="400" align="middle" lineHeight="125%" anchor="middle" family="&quot;Microsoft YaHei&quot;, 微软雅黑, Arial" size="13px" weight="400" font-style="" opacity="1" y="79.375" transform="rotate(0)"><tspan id="SvgjsTspan1377" dy="16.25" x="37.5"><tspan id="SvgjsTspan1378" style="">program</tspan></tspan></text></g></g><g id="SvgjsG1379" transform="translate(211,447)"><path id="SvgjsPath1380" d="M 0 0L 75 0L 75 75L 0 75Z" stroke="none" fill="url(#SvgjsPattern1381)" opacity="1"></path><g id="SvgjsG1383"><text id="SvgjsText1384" font-family="&quot;Microsoft YaHei&quot;, 微软雅黑, Arial" text-anchor="middle" font-size="13px" width="115px" fill="#323232" font-weight="400" align="middle" lineHeight="125%" anchor="middle" family="&quot;Microsoft YaHei&quot;, 微软雅黑, Arial" size="13px" weight="400" font-style="" opacity="1" y="79.375" transform="rotate(0)"><tspan id="SvgjsTspan1385" dy="16.25" x="37.5"><tspan id="SvgjsTspan1386" style="">program</tspan></tspan></text></g></g><g id="SvgjsG1387" transform="translate(377,447)"><path id="SvgjsPath1388" d="M 0 0L 75 0L 75 75L 0 75Z" stroke="none" fill="url(#SvgjsPattern1389)" opacity="1"></path><g id="SvgjsG1391"><text id="SvgjsText1392" font-family="&quot;Microsoft YaHei&quot;, 微软雅黑, Arial" text-anchor="middle" font-size="13px" width="115px" fill="#323232" font-weight="400" align="middle" lineHeight="125%" anchor="middle" family="&quot;Microsoft YaHei&quot;, 微软雅黑, Arial" size="13px" weight="400" font-style="" opacity="1" y="79.375" transform="rotate(0)"><tspan id="SvgjsTspan1393" dy="16.25" x="37.5"><tspan id="SvgjsTspan1394" style="">program</tspan></tspan></text></g></g><g id="SvgjsG1395"><path id="SvgjsPath1396" d="M248.5 79.75C 248.5 99 248.5 109 248.5 128.25" stroke="#323232" stroke-width="1.5" fill="none"></path></g><g id="SvgjsG1397"><path id="SvgjsPath1398" d="M248.5 189.75C 248.5 209 248.5 219 248.5 236.3" stroke="#323232" stroke-width="1.5" fill="none" marker-end="url(#SvgjsMarker1399)"></path></g><g id="SvgjsG1401"><path id="SvgjsPath1402" d="M248.36282564852752 189.7373487623222C 248.5 258.34666538486186 82.5 169.65333461513814 82.99382766530078 236.34554445563998" stroke="#323232" stroke-width="1.5" fill="none" marker-end="url(#SvgjsMarker1403)"></path></g><g id="SvgjsG1405"><path id="SvgjsPath1406" d="M248.63717435147248 189.7373487623222C 248.5 258.34666538486186 414.5 169.65333461513814 414.0061723346993 236.34554445563998" stroke="#323232" stroke-width="1.5" fill="none" marker-end="url(#SvgjsMarker1407)"></path></g><g id="SvgjsG1409"><path id="SvgjsPath1410" d="M248.5 293.75C 248.5 313 248.5 323 248.5 340.3" stroke="#323232" stroke-width="1.5" fill="none" marker-end="url(#SvgjsMarker1411)"></path></g><g id="SvgjsG1413"><path id="SvgjsPath1414" d="M82.5 293.75C 82.5 313 82.5 323 82.5 340.3" stroke="#323232" stroke-width="1.5" fill="none" marker-end="url(#SvgjsMarker1415)"></path></g><g id="SvgjsG1417"><path id="SvgjsPath1418" d="M82.5 397.75C 82.5 417 82.5 427 82.5 445.04999999999995" stroke="#323232" stroke-width="1.5" fill="none" marker-end="url(#SvgjsMarker1419)"></path></g><g id="SvgjsG1421"><path id="SvgjsPath1422" d="M248.5 397.75C 248.5 417 248.5 427 248.5 445.04999999999995" stroke="#323232" stroke-width="1.5" fill="none" marker-end="url(#SvgjsMarker1423)"></path></g><g id="SvgjsG1425"><path id="SvgjsPath1426" d="M414.5 293.75C 414.5 313 414.5 323 414.5 340.3" stroke="#323232" stroke-width="1.5" fill="none" marker-end="url(#SvgjsMarker1427)"></path></g><g id="SvgjsG1429"><path id="SvgjsPath1430" d="M414.5 397.75C 414.5 417 414.5 427 414.5 445.04999999999995" stroke="#323232" stroke-width="1.5" fill="none" marker-end="url(#SvgjsMarker1431)"></path></g><g id="SvgjsG1433"></g></svg>