<svg id="SvgjsSvg1618" width="765.7586206896551" height="486" xmlns="http://www.w3.org/2000/svg" version="1.1" xmlns:xlink="http://www.w3.org/1999/xlink" xmlns:svgjs="http://svgjs.com/svgjs"><defs id="SvgjsDefs1619"><pattern patternUnits="userSpaceOnUse" id="pattern_mark_0" width="300" height="300"><text x="150" y="100" fill="rgba(229,229,229,0.8)" font-size="18" transform="rotate(-45, 150, 150)" style="dominant-baseline: middle; text-anchor: middle;"></text></pattern><pattern patternUnits="userSpaceOnUse" id="pattern_mark_1" width="300" height="300"><text x="150" y="200" fill="rgba(229,229,229,0.8)" font-size="18" transform="rotate(-45, 150, 150)" style="dominant-baseline: middle; text-anchor: middle;"></text></pattern><marker id="SvgjsMarker1769" markerWidth="13" markerHeight="9" refX="9.5" refY="4.5" viewBox="0 0 13 9" orient="auto" markerUnits="userSpaceOnUse" stroke-dasharray="0,0"><path id="SvgjsPath1770" d="M0,0 L13,4.5 L0,9 L0,0" fill="#323232" stroke="#323232" stroke-width="1"></path></marker><marker id="SvgjsMarker1773" markerWidth="13" markerHeight="9" refX="9.5" refY="4.5" viewBox="0 0 13 9" orient="auto" markerUnits="userSpaceOnUse" stroke-dasharray="0,0"><path id="SvgjsPath1774" d="M0,0 L13,4.5 L0,9 L0,0" fill="#323232" stroke="#323232" stroke-width="1"></path></marker><marker id="SvgjsMarker1777" markerWidth="13" markerHeight="9" refX="9.5" refY="4.5" viewBox="0 0 13 9" orient="auto" markerUnits="userSpaceOnUse" stroke-dasharray="0,0"><path id="SvgjsPath1778" d="M0,0 L13,4.5 L0,9 L0,0" fill="#323232" stroke="#323232" stroke-width="1"></path></marker><marker id="SvgjsMarker1781" markerWidth="13" markerHeight="9" refX="9.5" refY="4.5" viewBox="0 0 13 9" orient="auto" markerUnits="userSpaceOnUse" stroke-dasharray="0,0"><path id="SvgjsPath1782" d="M0,0 L13,4.5 L0,9 L0,0" fill="#323232" stroke="#323232" stroke-width="1"></path></marker><marker id="SvgjsMarker1785" markerWidth="13" markerHeight="9" refX="9.5" refY="4.5" viewBox="0 0 13 9" orient="auto" markerUnits="userSpaceOnUse" stroke-dasharray="0,0"><path id="SvgjsPath1786" d="M0,0 L13,4.5 L0,9 L0,0" fill="#323232" stroke="#323232" stroke-width="1"></path></marker><marker id="SvgjsMarker1789" markerWidth="13" markerHeight="9" refX="9.5" refY="4.5" viewBox="0 0 13 9" orient="auto" markerUnits="userSpaceOnUse" stroke-dasharray="0,0"><path id="SvgjsPath1790" d="M0,0 L13,4.5 L0,9 L0,0" fill="#323232" stroke="#323232" stroke-width="1"></path></marker><marker id="SvgjsMarker1793" markerWidth="13" markerHeight="9" refX="9.5" refY="4.5" viewBox="0 0 13 9" orient="auto" markerUnits="userSpaceOnUse" stroke-dasharray="0,0"><path id="SvgjsPath1794" d="M0,0 L13,4.5 L0,9 L0,0" fill="#323232" stroke="#323232" stroke-width="1"></path></marker><marker id="SvgjsMarker1797" markerWidth="13" markerHeight="9" refX="9.5" refY="4.5" viewBox="0 0 13 9" orient="auto" markerUnits="userSpaceOnUse" stroke-dasharray="0,0"><path id="SvgjsPath1798" d="M0,0 L13,4.5 L0,9 L0,0" fill="#323232" stroke="#323232" stroke-width="1"></path></marker><marker id="SvgjsMarker1801" markerWidth="13" markerHeight="9" refX="9.5" refY="4.5" viewBox="0 0 13 9" orient="auto" markerUnits="userSpaceOnUse" stroke-dasharray="0,0"><path id="SvgjsPath1802" d="M0,0 L13,4.5 L0,9 L0,0" fill="#323232" stroke="#323232" stroke-width="1"></path></marker><marker id="SvgjsMarker1805" markerWidth="13" markerHeight="9" refX="9.5" refY="4.5" viewBox="0 0 13 9" orient="auto" markerUnits="userSpaceOnUse" stroke-dasharray="0,0"><path id="SvgjsPath1806" d="M0,0 L13,4.5 L0,9 L0,0" fill="#323232" stroke="#323232" stroke-width="1"></path></marker><marker id="SvgjsMarker1809" markerWidth="13" markerHeight="9" refX="9.5" refY="4.5" viewBox="0 0 13 9" orient="auto" markerUnits="userSpaceOnUse" stroke-dasharray="0,0"><path id="SvgjsPath1810" d="M0,0 L13,4.5 L0,9 L0,0" fill="#323232" stroke="#323232" stroke-width="1"></path></marker><marker id="SvgjsMarker1813" markerWidth="13" markerHeight="9" refX="9.5" refY="4.5" viewBox="0 0 13 9" orient="auto" markerUnits="userSpaceOnUse" stroke-dasharray="0,0"><path id="SvgjsPath1814" d="M0,0 L13,4.5 L0,9 L0,0" fill="#323232" stroke="#323232" stroke-width="1"></path></marker><marker id="SvgjsMarker1817" markerWidth="13" markerHeight="9" refX="9.5" refY="4.5" viewBox="0 0 13 9" orient="auto" markerUnits="userSpaceOnUse" stroke-dasharray="0,0"><path id="SvgjsPath1818" d="M0,0 L13,4.5 L0,9 L0,0" fill="#323232" stroke="#323232" stroke-width="1"></path></marker><marker id="SvgjsMarker1821" markerWidth="13" markerHeight="9" refX="9.5" refY="4.5" viewBox="0 0 13 9" orient="auto" markerUnits="userSpaceOnUse" stroke-dasharray="0,0"><path id="SvgjsPath1822" d="M0,0 L13,4.5 L0,9 L0,0" fill="#323232" stroke="#323232" stroke-width="1"></path></marker><marker id="SvgjsMarker1825" markerWidth="13" markerHeight="9" refX="9.5" refY="4.5" viewBox="0 0 13 9" orient="auto" markerUnits="userSpaceOnUse" stroke-dasharray="0,0"><path id="SvgjsPath1826" d="M0,0 L13,4.5 L0,9 L0,0" fill="#323232" stroke="#323232" stroke-width="1"></path></marker><marker id="SvgjsMarker1829" markerWidth="13" markerHeight="9" refX="9.5" refY="4.5" viewBox="0 0 13 9" orient="auto" markerUnits="userSpaceOnUse" stroke-dasharray="0,0"><path id="SvgjsPath1830" d="M0,0 L13,4.5 L0,9 L0,0" fill="#323232" stroke="#323232" stroke-width="1"></path></marker><marker id="SvgjsMarker1833" markerWidth="13" markerHeight="9" refX="9.5" refY="4.5" viewBox="0 0 13 9" orient="auto" markerUnits="userSpaceOnUse" stroke-dasharray="0,0"><path id="SvgjsPath1834" d="M0,0 L13,4.5 L0,9 L0,0" fill="#323232" stroke="#323232" stroke-width="1"></path></marker></defs><rect id="svgbackgroundid" width="765.7586206896551" height="486" fill="transparent"></rect><rect id="SvgjsRect1621" width="765.7586206896551" height="486" fill="url(#pattern_mark_0)"></rect><rect id="SvgjsRect1622" width="765.7586206896551" height="486" fill="url(#pattern_mark_1)"></rect><g id="SvgjsG1623" transform="translate(156.75862068965512,35)"><path id="SvgjsPath1624" d="M 0 20C 0 -6.667 70 -6.667 70 20C 70 46.667 0 46.667 0 20Z" stroke="rgba(33,41,48,1)" stroke-width="1.5" fill-opacity="1" fill="#00b9f6"></path><g id="SvgjsG1625"><text id="SvgjsText1626" font-family="&quot;Microsoft YaHei&quot;, 微软雅黑, Arial" text-anchor="middle" font-size="13px" width="50px" fill="#323232" font-weight="400" align="middle" lineHeight="125%" anchor="middle" family="&quot;Microsoft YaHei&quot;, 微软雅黑, Arial" size="13px" weight="400" font-style="" opacity="1" y="9.375" transform="rotate(0)"><tspan id="SvgjsTspan1627" dy="16.25" x="35"><tspan id="SvgjsTspan1628" style="">client</tspan></tspan></text></g></g><g id="SvgjsG1629" transform="translate(156.75862068965512,109.5)"><path id="SvgjsPath1630" d="M 0 20C 0 -6.667 70 -6.667 70 20C 70 46.667 0 46.667 0 20Z" stroke="rgba(33,41,48,1)" stroke-width="1.5" fill-opacity="1" fill="#00b9f6"></path><g id="SvgjsG1631"><text id="SvgjsText1632" font-family="&quot;Microsoft YaHei&quot;, 微软雅黑, Arial" text-anchor="middle" font-size="13px" width="50px" fill="#323232" font-weight="400" align="middle" lineHeight="125%" anchor="middle" family="&quot;Microsoft YaHei&quot;, 微软雅黑, Arial" size="13px" weight="400" font-style="" opacity="1" y="9.375" transform="rotate(0)"><tspan id="SvgjsTspan1633" dy="16.25" x="35"><tspan id="SvgjsTspan1634" style="">client</tspan></tspan></text></g></g><g id="SvgjsG1635" transform="translate(156.75862068965512,184)"><path id="SvgjsPath1636" d="M 0 20C 0 -6.667 70 -6.667 70 20C 70 46.667 0 46.667 0 20Z" stroke="rgba(33,41,48,1)" stroke-width="1.5" fill-opacity="1" fill="#00b9f6"></path><g id="SvgjsG1637"><text id="SvgjsText1638" font-family="&quot;Microsoft YaHei&quot;, 微软雅黑, Arial" text-anchor="middle" font-size="13px" width="50px" fill="#323232" font-weight="400" align="middle" lineHeight="125%" anchor="middle" family="&quot;Microsoft YaHei&quot;, 微软雅黑, Arial" size="13px" weight="400" font-style="" opacity="1" y="9.375" transform="rotate(0)"><tspan id="SvgjsTspan1639" dy="16.25" x="35"><tspan id="SvgjsTspan1640" style="">client</tspan></tspan></text></g></g><g id="SvgjsG1641" transform="translate(287.7586206896551,25)"><path id="SvgjsPath1642" d="M 0 30C 0 -10 110 -10 110 30C 110 70 0 70 0 30Z" stroke="rgba(33,41,48,1)" stroke-width="1.5" fill-opacity="1" fill="#ffca99"></path><g id="SvgjsG1643"><text id="SvgjsText1644" font-family="&quot;Microsoft YaHei&quot;, 微软雅黑, Arial" text-anchor="middle" font-size="13px" width="90px" fill="#323232" font-weight="400" align="middle" lineHeight="125%" anchor="middle" family="&quot;Microsoft YaHei&quot;, 微软雅黑, Arial" size="13px" weight="400" font-style="" opacity="1" y="19.375" transform="rotate(0)"><tspan id="SvgjsTspan1645" dy="16.25" x="55"><tspan id="SvgjsTspan1646" style="">mainReactor</tspan></tspan></text></g></g><g id="SvgjsG1647" transform="translate(497.7586206896551,25)"><path id="SvgjsPath1648" d="M 0 30C 0 -10 110 -10 110 30C 110 70 0 70 0 30Z" stroke="rgba(33,41,48,1)" stroke-width="1.5" fill-opacity="1" fill="#ffca99"></path><g id="SvgjsG1649"><text id="SvgjsText1650" font-family="&quot;Microsoft YaHei&quot;, 微软雅黑, Arial" text-anchor="middle" font-size="13px" width="90px" fill="#323232" font-weight="400" align="middle" lineHeight="125%" anchor="middle" family="&quot;Microsoft YaHei&quot;, 微软雅黑, Arial" size="13px" weight="400" font-style="" opacity="1" y="19.375" transform="rotate(0)"><tspan id="SvgjsTspan1651" dy="16.25" x="55"><tspan id="SvgjsTspan1652" style="">mainReactor</tspan></tspan></text></g></g><g id="SvgjsG1653" transform="translate(246.75862068965512,180)"><path id="SvgjsPath1654" d="M 0 24C 0 -8 86 -8 86 24C 86 56 0 56 0 24Z" stroke="rgba(33,41,48,1)" stroke-width="1.5" fill-opacity="1" fill="#28fa2f"></path><g id="SvgjsG1655"><text id="SvgjsText1656" font-family="&quot;Microsoft YaHei&quot;, 微软雅黑, Arial" text-anchor="middle" font-size="13px" width="66px" fill="#323232" font-weight="400" align="middle" lineHeight="125%" anchor="middle" family="&quot;Microsoft YaHei&quot;, 微软雅黑, Arial" size="13px" weight="400" font-style="" opacity="1" y="13.375" transform="rotate(0)"><tspan id="SvgjsTspan1657" dy="16.25" x="43"><tspan id="SvgjsTspan1658" style="">acceptor</tspan></tspan></text></g></g><g id="SvgjsG1659" transform="translate(382.7586206896551,133)"><path id="SvgjsPath1660" d="M 0 13C 0 -4.333 50 -4.333 50 13C 50 30.333 0 30.333 0 13Z" stroke="rgba(33,41,48,1)" stroke-width="1.5" fill-opacity="1" fill="#fbf42e"></path><g id="SvgjsG1661"><text id="SvgjsText1662" font-family="&quot;Microsoft YaHei&quot;, 微软雅黑, Arial" text-anchor="middle" font-size="13px" width="30px" fill="#323232" font-weight="400" align="middle" lineHeight="125%" anchor="middle" family="&quot;Microsoft YaHei&quot;, 微软雅黑, Arial" size="13px" weight="400" font-style="" opacity="1" y="2.375" transform="rotate(0)"><tspan id="SvgjsTspan1663" dy="16.25" x="25"><tspan id="SvgjsTspan1664" style="">read</tspan></tspan></text></g></g><g id="SvgjsG1665" transform="translate(382.7586206896551,169)"><path id="SvgjsPath1666" d="M 0 13C 0 -4.333 50 -4.333 50 13C 50 30.333 0 30.333 0 13Z" stroke="rgba(33,41,48,1)" stroke-width="1.5" fill-opacity="1" fill="#fbf42e"></path><g id="SvgjsG1667"><text id="SvgjsText1668" font-family="&quot;Microsoft YaHei&quot;, 微软雅黑, Arial" text-anchor="middle" font-size="13px" width="30px" fill="#323232" font-weight="400" align="middle" lineHeight="125%" anchor="middle" family="&quot;Microsoft YaHei&quot;, 微软雅黑, Arial" size="13px" weight="400" font-style="" opacity="1" y="2.375" transform="rotate(0)"><tspan id="SvgjsTspan1669" dy="16.25" x="25"><tspan id="SvgjsTspan1670" style="">read</tspan></tspan></text></g></g><g id="SvgjsG1671" transform="translate(382.7586206896551,205)"><path id="SvgjsPath1672" d="M 0 13C 0 -4.333 50 -4.333 50 13C 50 30.333 0 30.333 0 13Z" stroke="rgba(33,41,48,1)" stroke-width="1.5" fill-opacity="1" fill="#fbf42e"></path><g id="SvgjsG1673"><text id="SvgjsText1674" font-family="&quot;Microsoft YaHei&quot;, 微软雅黑, Arial" text-anchor="middle" font-size="13px" width="30px" fill="#323232" font-weight="400" align="middle" lineHeight="125%" anchor="middle" family="&quot;Microsoft YaHei&quot;, 微软雅黑, Arial" size="13px" weight="400" font-style="" opacity="1" y="2.375" transform="rotate(0)"><tspan id="SvgjsTspan1675" dy="16.25" x="25"><tspan id="SvgjsTspan1676" style="">read</tspan></tspan></text></g></g><g id="SvgjsG1677" transform="translate(607.7586206896551,133)"><path id="SvgjsPath1678" d="M 0 13C 0 -4.333 50 -4.333 50 13C 50 30.333 0 30.333 0 13Z" stroke="rgba(33,41,48,1)" stroke-width="1.5" fill-opacity="1" fill="#fbf42e"></path><g id="SvgjsG1679"><text id="SvgjsText1680" font-family="&quot;Microsoft YaHei&quot;, 微软雅黑, Arial" text-anchor="middle" font-size="13px" width="30px" fill="#323232" font-weight="400" align="middle" lineHeight="125%" anchor="middle" family="&quot;Microsoft YaHei&quot;, 微软雅黑, Arial" size="13px" weight="400" font-style="" opacity="1" y="2.375" transform="rotate(0)"><tspan id="SvgjsTspan1681" dy="16.25" x="25"><tspan id="SvgjsTspan1682" style="">send</tspan></tspan></text></g></g><g id="SvgjsG1683" transform="translate(607.7586206896551,169)"><path id="SvgjsPath1684" d="M 0 13C 0 -4.333 50 -4.333 50 13C 50 30.333 0 30.333 0 13Z" stroke="rgba(33,41,48,1)" stroke-width="1.5" fill-opacity="1" fill="#fbf42e"></path><g id="SvgjsG1685"><text id="SvgjsText1686" font-family="&quot;Microsoft YaHei&quot;, 微软雅黑, Arial" text-anchor="middle" font-size="13px" width="30px" fill="#323232" font-weight="400" align="middle" lineHeight="125%" anchor="middle" family="&quot;Microsoft YaHei&quot;, 微软雅黑, Arial" size="13px" weight="400" font-style="" opacity="1" y="2.375" transform="rotate(0)"><tspan id="SvgjsTspan1687" dy="16.25" x="25"><tspan id="SvgjsTspan1688" style="">send</tspan></tspan></text></g></g><g id="SvgjsG1689" transform="translate(607.7586206896551,205)"><path id="SvgjsPath1690" d="M 0 13C 0 -4.333 50 -4.333 50 13C 50 30.333 0 30.333 0 13Z" stroke="rgba(33,41,48,1)" stroke-width="1.5" fill-opacity="1" fill="#fbf42e"></path><g id="SvgjsG1691"><text id="SvgjsText1692" font-family="&quot;Microsoft YaHei&quot;, 微软雅黑, Arial" text-anchor="middle" font-size="13px" width="30px" fill="#323232" font-weight="400" align="middle" lineHeight="125%" anchor="middle" family="&quot;Microsoft YaHei&quot;, 微软雅黑, Arial" size="13px" weight="400" font-style="" opacity="1" y="2.375" transform="rotate(0)"><tspan id="SvgjsTspan1693" dy="16.25" x="25"><tspan id="SvgjsTspan1694" style="">send</tspan></tspan></text></g></g><g id="SvgjsG1695" transform="translate(407.7586206896551,262)"><path id="SvgjsPath1696" d="M 0 16C 0 -5.333 77.241 -5.333 77.241 16C 77.241 37.333 0 37.333 0 16Z" stroke="rgba(33,41,48,1)" stroke-width="1.5" fill-opacity="1" fill="#fbf42e"></path><g id="SvgjsG1697"><text id="SvgjsText1698" font-family="&quot;Microsoft YaHei&quot;, 微软雅黑, Arial" text-anchor="middle" font-size="13px" width="58px" fill="#323232" font-weight="400" align="middle" lineHeight="125%" anchor="middle" family="&quot;Microsoft YaHei&quot;, 微软雅黑, Arial" size="13px" weight="400" font-style="" opacity="1" y="5.375" transform="rotate(0)"><tspan id="SvgjsTspan1699" dy="16.25" x="39"><tspan id="SvgjsTspan1700" style="">decode</tspan></tspan></text></g></g><g id="SvgjsG1701" transform="translate(490.51724137931024,262)"><path id="SvgjsPath1702" d="M 0 16C 0 -5.333 77.241 -5.333 77.241 16C 77.241 37.333 0 37.333 0 16Z" stroke="rgba(33,41,48,1)" stroke-width="1.5" fill-opacity="1" fill="#fbf42e"></path><g id="SvgjsG1703"><text id="SvgjsText1704" font-family="&quot;Microsoft YaHei&quot;, 微软雅黑, Arial" text-anchor="middle" font-size="13px" width="58px" fill="#323232" font-weight="400" align="middle" lineHeight="125%" anchor="middle" family="&quot;Microsoft YaHei&quot;, 微软雅黑, Arial" size="13px" weight="400" font-style="" opacity="1" y="5.375" transform="rotate(0)"><tspan id="SvgjsTspan1705" dy="16.25" x="39"><tspan id="SvgjsTspan1706" style="">compute</tspan></tspan></text></g></g><g id="SvgjsG1707" transform="translate(573.2758620689654,262)"><path id="SvgjsPath1708" d="M 0 16C 0 -5.333 77.241 -5.333 77.241 16C 77.241 37.333 0 37.333 0 16Z" stroke="rgba(33,41,48,1)" stroke-width="1.5" fill-opacity="1" fill="#fbf42e"></path><g id="SvgjsG1709"><text id="SvgjsText1710" font-family="&quot;Microsoft YaHei&quot;, 微软雅黑, Arial" text-anchor="middle" font-size="13px" width="58px" fill="#323232" font-weight="400" align="middle" lineHeight="125%" anchor="middle" family="&quot;Microsoft YaHei&quot;, 微软雅黑, Arial" size="13px" weight="400" font-style="" opacity="1" y="5.375" transform="rotate(0)"><tspan id="SvgjsTspan1711" dy="16.25" x="39"><tspan id="SvgjsTspan1712" style="">encode</tspan></tspan></text></g></g><g id="SvgjsG1713" transform="translate(397.7586206896551,251)"><path id="SvgjsPath1714" d="M 0 27C 0 -9 262.759 -9 262.759 27C 262.759 63 0 63 0 27Z" stroke="rgba(33,41,48,1)" stroke-width="1.5" fill="none"></path><g id="SvgjsG1715"><text id="SvgjsText1716" font-family="&quot;Microsoft YaHei&quot;, 微软雅黑, Arial" text-anchor="middle" font-size="13px" width="243px" fill="#323232" font-weight="400" align="middle" lineHeight="125%" anchor="middle" family="&quot;Microsoft YaHei&quot;, 微软雅黑, Arial" size="13px" weight="400" font-style="" opacity="1" y="16.375" transform="rotate(0)"></text></g></g><g id="SvgjsG1717" transform="translate(271.7586206896551,271)"><path id="SvgjsPath1718" d="M 0 30C 0 -10 111 -10 111 30C 111 70 0 70 0 30Z" stroke="rgba(33,41,48,1)" stroke-width="1.5" fill-opacity="1" fill="#ff36fc"></path><g id="SvgjsG1719"><text id="SvgjsText1720" font-family="&quot;Microsoft YaHei&quot;, 微软雅黑, Arial" text-anchor="middle" font-size="13px" width="91px" fill="#323232" font-weight="400" align="middle" lineHeight="125%" anchor="middle" family="&quot;Microsoft YaHei&quot;, 微软雅黑, Arial" size="13px" weight="400" font-style="" opacity="1" y="19.375" transform="rotate(0)"><tspan id="SvgjsTspan1721" dy="16.25" x="55.5"><tspan id="SvgjsTspan1722" style="">Thread Pool</tspan></tspan></text></g></g><g id="SvgjsG1723" transform="translate(407.7586206896551,326)"><path id="SvgjsPath1724" d="M 0 16C 0 -5.333 77.241 -5.333 77.241 16C 77.241 37.333 0 37.333 0 16Z" stroke="rgba(33,41,48,1)" stroke-width="1.5" fill-opacity="1" fill="#fbf42e"></path><g id="SvgjsG1725"><text id="SvgjsText1726" font-family="&quot;Microsoft YaHei&quot;, 微软雅黑, Arial" text-anchor="middle" font-size="13px" width="58px" fill="#323232" font-weight="400" align="middle" lineHeight="125%" anchor="middle" family="&quot;Microsoft YaHei&quot;, 微软雅黑, Arial" size="13px" weight="400" font-style="" opacity="1" y="5.375" transform="rotate(0)"><tspan id="SvgjsTspan1727" dy="16.25" x="39"><tspan id="SvgjsTspan1728" style="">decode</tspan></tspan></text></g></g><g id="SvgjsG1729" transform="translate(490.51724137931024,326)"><path id="SvgjsPath1730" d="M 0 16C 0 -5.333 77.241 -5.333 77.241 16C 77.241 37.333 0 37.333 0 16Z" stroke="rgba(33,41,48,1)" stroke-width="1.5" fill-opacity="1" fill="#fbf42e"></path><g id="SvgjsG1731"><text id="SvgjsText1732" font-family="&quot;Microsoft YaHei&quot;, 微软雅黑, Arial" text-anchor="middle" font-size="13px" width="58px" fill="#323232" font-weight="400" align="middle" lineHeight="125%" anchor="middle" family="&quot;Microsoft YaHei&quot;, 微软雅黑, Arial" size="13px" weight="400" font-style="" opacity="1" y="5.375" transform="rotate(0)"><tspan id="SvgjsTspan1733" dy="16.25" x="39"><tspan id="SvgjsTspan1734" style="">compute</tspan></tspan></text></g></g><g id="SvgjsG1735" transform="translate(573.2758620689654,326)"><path id="SvgjsPath1736" d="M 0 16C 0 -5.333 77.241 -5.333 77.241 16C 77.241 37.333 0 37.333 0 16Z" stroke="rgba(33,41,48,1)" stroke-width="1.5" fill-opacity="1" fill="#fbf42e"></path><g id="SvgjsG1737"><text id="SvgjsText1738" font-family="&quot;Microsoft YaHei&quot;, 微软雅黑, Arial" text-anchor="middle" font-size="13px" width="58px" fill="#323232" font-weight="400" align="middle" lineHeight="125%" anchor="middle" family="&quot;Microsoft YaHei&quot;, 微软雅黑, Arial" size="13px" weight="400" font-style="" opacity="1" y="5.375" transform="rotate(0)"><tspan id="SvgjsTspan1739" dy="16.25" x="39"><tspan id="SvgjsTspan1740" style="">encode</tspan></tspan></text></g></g><g id="SvgjsG1741" transform="translate(397.7586206896551,315)"><path id="SvgjsPath1742" d="M 0 27C 0 -9 262.759 -9 262.759 27C 262.759 63 0 63 0 27Z" stroke="rgba(33,41,48,1)" stroke-width="1.5" fill="none"></path><g id="SvgjsG1743"><text id="SvgjsText1744" font-family="&quot;Microsoft YaHei&quot;, 微软雅黑, Arial" text-anchor="middle" font-size="13px" width="243px" fill="#323232" font-weight="400" align="middle" lineHeight="125%" anchor="middle" family="&quot;Microsoft YaHei&quot;, 微软雅黑, Arial" size="13px" weight="400" font-style="" opacity="1" y="16.375" transform="rotate(0)"></text></g></g><g id="SvgjsG1745" transform="translate(35,380)"><path id="SvgjsPath1746" d="M 0 16C 0 -5.333 77.241 -5.333 77.241 16C 77.241 37.333 0 37.333 0 16Z" stroke="rgba(33,41,48,1)" stroke-width="1.5" fill-opacity="1" fill="#fbf42e"></path><g id="SvgjsG1747"><text id="SvgjsText1748" font-family="&quot;Microsoft YaHei&quot;, 微软雅黑, Arial" text-anchor="middle" font-size="13px" width="58px" fill="#323232" font-weight="400" align="middle" lineHeight="125%" anchor="middle" family="&quot;Microsoft YaHei&quot;, 微软雅黑, Arial" size="13px" weight="400" font-style="" opacity="1" y="5.375" transform="rotate(0)"><tspan id="SvgjsTspan1749" dy="16.25" x="39"><tspan id="SvgjsTspan1750" style="">decode</tspan></tspan></text></g></g><g id="SvgjsG1751" transform="translate(117.75862068965512,380)"><path id="SvgjsPath1752" d="M 0 16C 0 -5.333 77.241 -5.333 77.241 16C 77.241 37.333 0 37.333 0 16Z" stroke="rgba(33,41,48,1)" stroke-width="1.5" fill-opacity="1" fill="#fbf42e"></path><g id="SvgjsG1753"><text id="SvgjsText1754" font-family="&quot;Microsoft YaHei&quot;, 微软雅黑, Arial" text-anchor="middle" font-size="13px" width="58px" fill="#323232" font-weight="400" align="middle" lineHeight="125%" anchor="middle" family="&quot;Microsoft YaHei&quot;, 微软雅黑, Arial" size="13px" weight="400" font-style="" opacity="1" y="5.375" transform="rotate(0)"><tspan id="SvgjsTspan1755" dy="16.25" x="39"><tspan id="SvgjsTspan1756" style="">compute</tspan></tspan></text></g></g><g id="SvgjsG1757" transform="translate(200.51724137931024,380)"><path id="SvgjsPath1758" d="M 0 16C 0 -5.333 77.241 -5.333 77.241 16C 77.241 37.333 0 37.333 0 16Z" stroke="rgba(33,41,48,1)" stroke-width="1.5" fill-opacity="1" fill="#fbf42e"></path><g id="SvgjsG1759"><text id="SvgjsText1760" font-family="&quot;Microsoft YaHei&quot;, 微软雅黑, Arial" text-anchor="middle" font-size="13px" width="58px" fill="#323232" font-weight="400" align="middle" lineHeight="125%" anchor="middle" family="&quot;Microsoft YaHei&quot;, 微软雅黑, Arial" size="13px" weight="400" font-style="" opacity="1" y="5.375" transform="rotate(0)"><tspan id="SvgjsTspan1761" dy="16.25" x="39"><tspan id="SvgjsTspan1762" style="">encode</tspan></tspan></text></g></g><g id="SvgjsG1763" transform="translate(25,369)"><path id="SvgjsPath1764" d="M 0 27C 0 -9 262.759 -9 262.759 27C 262.759 63 0 63 0 27Z" stroke="rgba(33,41,48,1)" stroke-width="1.5" fill="none"></path><g id="SvgjsG1765"><text id="SvgjsText1766" font-family="&quot;Microsoft YaHei&quot;, 微软雅黑, Arial" text-anchor="middle" font-size="13px" width="243px" fill="#323232" font-weight="400" align="middle" lineHeight="125%" anchor="middle" family="&quot;Microsoft YaHei&quot;, 微软雅黑, Arial" size="13px" weight="400" font-style="" opacity="1" y="16.375" transform="rotate(0)"></text></g></g><g id="SvgjsG1767"><path id="SvgjsPath1768" d="M227.50862068965512 55L285.05862068965513 55" stroke="#323232" stroke-width="1.5" fill="none" marker-end="url(#SvgjsMarker1769)"></path></g><g id="SvgjsG1771"><path id="SvgjsPath1772" d="M227.2337610824668 128.9197055858284L286.0481152755331 57.089059891017826" stroke="#323232" stroke-width="1.5" fill="none" marker-end="url(#SvgjsMarker1773)"></path></g><g id="SvgjsG1775"><path id="SvgjsPath1776" d="M227.04277669919816 203.3059140094768L286.7356590553001 57.4987095658835" stroke="#323232" stroke-width="1.5" fill="none" marker-end="url(#SvgjsMarker1777)"></path></g><g id="SvgjsG1779"><path id="SvgjsPath1780" d="M342.39321832751176 85.65496649818144L291.07406919337114 177.64212060654677" stroke="#323232" stroke-width="1.5" fill="none" marker-end="url(#SvgjsMarker1781)"></path></g><g id="SvgjsG1783"><path id="SvgjsPath1784" d="M312.4480051711821 183.42596079672853L495.5394530169086 56.53795150776509" stroke="#323232" stroke-width="1.5" fill="none" marker-end="url(#SvgjsMarker1785)"></path></g><g id="SvgjsG1787"><path id="SvgjsPath1788" d="M552.0900436941337 85.33985997272339L435.1654978735322 144.7765040981958" stroke="#323232" stroke-width="1.5" fill="none" marker-end="url(#SvgjsMarker1789)"></path></g><g id="SvgjsG1791"><path id="SvgjsPath1792" d="M552.1753476107592 85.47147907210748L434.85840377368027 180.30267534041303" stroke="#323232" stroke-width="1.5" fill="none" marker-end="url(#SvgjsMarker1793)"></path></g><g id="SvgjsG1795"><path id="SvgjsPath1796" d="M552.2562035833838 85.55684562611734L434.56732227223165 215.99535574597763" stroke="#323232" stroke-width="1.5" fill="none" marker-end="url(#SvgjsMarker1797)"></path></g><g id="SvgjsG1799"><path id="SvgjsPath1800" d="M553.260848531003 85.55701633313129L605.9506004608027 143.99474120072733" stroke="#323232" stroke-width="1.5" fill="none" marker-end="url(#SvgjsMarker1801)"></path></g><g id="SvgjsG1803"><path id="SvgjsPath1804" d="M553.1285498113675 85.65242045101999L606.4268758514906 179.65128637632807" stroke="#323232" stroke-width="1.5" fill="none" marker-end="url(#SvgjsMarker1805)"></path></g><g id="SvgjsG1807"><path id="SvgjsPath1808" d="M553.0452311039696 85.69307609279682L606.726823198123 215.5049260659315" stroke="#323232" stroke-width="1.5" fill="none" marker-end="url(#SvgjsMarker1809)"></path></g><g id="SvgjsG1811"><path id="SvgjsPath1812" d="M382.45427126296136 146.68547168174268L328.35427862575267 268.53230194572626" stroke="#323232" stroke-width="1.5" fill="none" marker-end="url(#SvgjsMarker1813)"></path></g><g id="SvgjsG1815"><path id="SvgjsPath1816" d="M382.36176443489194 182.63640012025087L328.6873032068026 268.7089595670968" stroke="#323232" stroke-width="1.5" fill="none" marker-end="url(#SvgjsMarker1817)"></path></g><g id="SvgjsG1819"><path id="SvgjsPath1820" d="M382.21621498161346 218.51797301849018L329.211281238605 269.13529713343524" stroke="#323232" stroke-width="1.5" fill="none" marker-end="url(#SvgjsMarker1821)"></path></g><g id="SvgjsG1823"><path id="SvgjsPath1824" d="M383.1683215250653 300.37179205237106L396.2836976821784 280.26154861146426" stroke="#323232" stroke-width="1.5" fill="none" marker-end="url(#SvgjsMarker1825)"></path></g><g id="SvgjsG1827"><path id="SvgjsPath1828" d="M383.01630683810276 301.7043421390902L396.8309505552436 339.4643682992751" stroke="#323232" stroke-width="1.5" fill="none" marker-end="url(#SvgjsMarker1829)"></path></g><g id="SvgjsG1831"><path id="SvgjsPath1832" d="M271.11248751242306 301.380804303127L158.7050794380354 367.6291045087429" stroke="#323232" stroke-width="1.5" fill="none" marker-end="url(#SvgjsMarker1833)"></path></g><g id="SvgjsG1835" transform="translate(640.7586206896551,291)"><path id="SvgjsPath1836" d="M 0 0L 100 0L 100 40L 0 40Z" stroke="none" fill="none"></path><g id="SvgjsG1837"><text id="SvgjsText1838" font-family="&quot;Microsoft YaHei&quot;, 微软雅黑, Arial" text-anchor="middle" font-size="13px" width="100px" fill="#323232" font-weight="400" align="middle" lineHeight="125%" anchor="middle" family="&quot;Microsoft YaHei&quot;, 微软雅黑, Arial" size="13px" weight="400" font-style="" opacity="1" y="0.875" transform="rotate(0)"><tspan id="SvgjsTspan1839" dy="16.25" x="50"><tspan id="SvgjsTspan1840" style="">worker</tspan></tspan><tspan id="SvgjsTspan1841" dy="16.25" x="50"><tspan id="SvgjsTspan1842" style="">threads</tspan></tspan></text></g></g><g id="SvgjsG1843" transform="translate(106.37931034482756,421)"><path id="SvgjsPath1844" d="M 0 0L 100 0L 100 40L 0 40Z" stroke="none" fill="none"></path><g id="SvgjsG1845"><text id="SvgjsText1846" font-family="&quot;Microsoft YaHei&quot;, 微软雅黑, Arial" text-anchor="middle" font-size="13px" width="100px" fill="#323232" font-weight="400" align="middle" lineHeight="125%" anchor="middle" family="&quot;Microsoft YaHei&quot;, 微软雅黑, Arial" size="13px" weight="400" font-style="" opacity="1" y="9.375" transform="rotate(0)"><tspan id="SvgjsTspan1847" dy="16.25" x="50"><tspan id="SvgjsTspan1848" style="">queued tasks</tspan></tspan></text></g></g><g id="SvgjsG1849"></g></svg>