<svg id="SvgjsSvg1154" width="686" height="555" xmlns="http://www.w3.org/2000/svg" version="1.1" xmlns:xlink="http://www.w3.org/1999/xlink" xmlns:svgjs="http://svgjs.com/svgjs"><defs id="SvgjsDefs1155"><pattern patternUnits="userSpaceOnUse" id="pattern_mark_0" width="300" height="300"><text x="150" y="100" fill="rgba(72,75,86,0.8)" font-size="18" transform="rotate(-45, 150, 150)" style="dominant-baseline: middle; text-anchor: middle;"></text></pattern><pattern patternUnits="userSpaceOnUse" id="pattern_mark_1" width="300" height="300"><text x="150" y="200" fill="rgba(72,75,86,0.8)" font-size="18" transform="rotate(-45, 150, 150)" style="dominant-baseline: middle; text-anchor: middle;"></text></pattern><marker id="SvgjsMarker1257" markerWidth="13" markerHeight="9" refX="9.5" refY="4.5" viewBox="0 0 13 9" orient="auto" markerUnits="userSpaceOnUse" stroke-dasharray="0,0"><path id="SvgjsPath1258" d="M0,0 L13,4.5 L0,9 L0,0" fill="#ffffff" stroke="#ffffff" stroke-width="1"></path></marker><marker id="SvgjsMarker1265" markerWidth="13" markerHeight="9" refX="9.5" refY="4.5" viewBox="0 0 13 9" orient="auto" markerUnits="userSpaceOnUse" stroke-dasharray="0,0"><path id="SvgjsPath1266" d="M0,0 L13,4.5 L0,9 L0,0" fill="#ffffff" stroke="#ffffff" stroke-width="1"></path></marker><marker id="SvgjsMarker1273" markerWidth="13" markerHeight="9" refX="9.5" refY="4.5" viewBox="0 0 13 9" orient="auto" markerUnits="userSpaceOnUse" stroke-dasharray="0,0"><path id="SvgjsPath1274" d="M0,0 L13,4.5 L0,9 L0,0" fill="#ffffff" stroke="#ffffff" stroke-width="1"></path></marker><marker id="SvgjsMarker1281" markerWidth="13" markerHeight="9" refX="9.5" refY="4.5" viewBox="0 0 13 9" orient="auto" markerUnits="userSpaceOnUse" stroke-dasharray="0,0"><path id="SvgjsPath1282" d="M0,0 L13,4.5 L0,9 L0,0" fill="#ffffff" stroke="#ffffff" stroke-width="1"></path></marker><marker id="SvgjsMarker1289" markerWidth="13" markerHeight="9" refX="9.5" refY="4.5" viewBox="0 0 13 9" orient="auto" markerUnits="userSpaceOnUse" stroke-dasharray="0,0"><path id="SvgjsPath1290" d="M0,0 L13,4.5 L0,9 L0,0" fill="#ffffff" stroke="#ffffff" stroke-width="1"></path></marker><marker id="SvgjsMarker1315" markerWidth="13" markerHeight="9" refX="9.5" refY="4.5" viewBox="0 0 13 9" orient="auto" markerUnits="userSpaceOnUse" stroke-dasharray="0,0"><path id="SvgjsPath1316" d="M0,0 L13,4.5 L0,9 L0,0" fill="#ffffff" stroke="#ffffff" stroke-width="1"></path></marker><marker id="SvgjsMarker1365" markerWidth="13" markerHeight="9" refX="9.5" refY="4.5" viewBox="0 0 13 9" orient="auto" markerUnits="userSpaceOnUse" stroke-dasharray="0,0"><path id="SvgjsPath1366" d="M0,0 L13,4.5 L0,9 L0,0" fill="#ffffff" stroke="#ffffff" stroke-width="1"></path></marker><marker id="SvgjsMarker1369" markerWidth="13" markerHeight="9" refX="9.5" refY="4.5" viewBox="0 0 13 9" orient="auto" markerUnits="userSpaceOnUse" stroke-dasharray="0,0"><path id="SvgjsPath1370" d="M0,0 L13,4.5 L0,9 L0,0" fill="#ffffff" stroke="#ffffff" stroke-width="1"></path></marker></defs><rect id="svgbackgroundid" width="686" height="555" fill="#505460"></rect><rect id="SvgjsRect1157" width="686" height="555" fill="url(#pattern_mark_0)"></rect><rect id="SvgjsRect1158" width="686" height="555" fill="url(#pattern_mark_1)"></rect><g id="SvgjsG1159" transform="translate(210,25)"><path id="SvgjsPath1160" d="M 0 0L 451 0L 451 453L 0 453Z" stroke-dasharray="7.5,3" stroke="rgba(255,255,255,1)" stroke-width="1.5" fill-opacity="1" fill="#505460"></path><g id="SvgjsG1161"><text id="SvgjsText1162" font-family="&quot;Microsoft YaHei&quot;, 微软雅黑, Arial" text-anchor="start" font-size="13px" width="431px" fill="#ffffff" font-weight="400" align="top" lineHeight="125%" anchor="start" family="&quot;Microsoft YaHei&quot;, 微软雅黑, Arial" size="13px" weight="400" font-style="" opacity="1" y="-2.625" transform="rotate(0)"><tspan id="SvgjsTspan1163" dy="16.25" x="10"><tspan id="SvgjsTspan1164" style="">应用程序</tspan></tspan></text></g></g><g id="SvgjsG1165" transform="translate(25,106)"><path id="SvgjsPath1166" d="M 11.667 0L 73.333 0C 88.889 0 88.889 35 73.333 35L 11.667 35C -3.889 35 -3.889 0 11.667 0Z" stroke="rgba(220,186,132,1)" stroke-width="1.5" fill-opacity="1" fill="#505460"></path><g id="SvgjsG1167"><text id="SvgjsText1168" font-family="&quot;Microsoft YaHei&quot;, 微软雅黑, Arial" text-anchor="middle" font-size="13px" width="65px" fill="#dcba84" font-weight="400" align="middle" lineHeight="125%" anchor="middle" family="&quot;Microsoft YaHei&quot;, 微软雅黑, Arial" size="13px" weight="400" font-style="" opacity="1" y="6.875" transform="rotate(0)"><tspan id="SvgjsTspan1169" dy="16.25" x="42.5"><tspan id="SvgjsTspan1170" style="">client</tspan></tspan></text></g></g><g id="SvgjsG1171" transform="translate(25,191)"><path id="SvgjsPath1172" d="M 11.667 0L 73.333 0C 88.889 0 88.889 35 73.333 35L 11.667 35C -3.889 35 -3.889 0 11.667 0Z" stroke="rgba(220,186,132,1)" stroke-width="1.5" fill-opacity="1" fill="#505460"></path><g id="SvgjsG1173"><text id="SvgjsText1174" font-family="&quot;Microsoft YaHei&quot;, 微软雅黑, Arial" text-anchor="middle" font-size="13px" width="65px" fill="#dcba84" font-weight="400" align="middle" lineHeight="125%" anchor="middle" family="&quot;Microsoft YaHei&quot;, 微软雅黑, Arial" size="13px" weight="400" font-style="" opacity="1" y="6.875" transform="rotate(0)"><tspan id="SvgjsTspan1175" dy="16.25" x="42.5"><tspan id="SvgjsTspan1176" style="">client</tspan></tspan></text></g></g><g id="SvgjsG1177" transform="translate(25,280)"><path id="SvgjsPath1178" d="M 11.667 0L 73.333 0C 88.889 0 88.889 35 73.333 35L 11.667 35C -3.889 35 -3.889 0 11.667 0Z" stroke="rgba(220,186,132,1)" stroke-width="1.5" fill-opacity="1" fill="#505460"></path><g id="SvgjsG1179"><text id="SvgjsText1180" font-family="&quot;Microsoft YaHei&quot;, 微软雅黑, Arial" text-anchor="middle" font-size="13px" width="65px" fill="#dcba84" font-weight="400" align="middle" lineHeight="125%" anchor="middle" family="&quot;Microsoft YaHei&quot;, 微软雅黑, Arial" size="13px" weight="400" font-style="" opacity="1" y="6.875" transform="rotate(0)"><tspan id="SvgjsTspan1181" dy="16.25" x="42.5"><tspan id="SvgjsTspan1182" style="">client</tspan></tspan></text></g></g><g id="SvgjsG1183" transform="translate(228,65.46650124069481)"><path id="SvgjsPath1184" d="M 0 4Q 0 0 4 0L 411 0Q 415 0 415 4L 415 256.533Q 415 260.533 411 260.533L 4 260.533Q 0 260.533 0 256.533Z" stroke="rgba(180,190,229,1)" stroke-width="1.5" fill-opacity="1" fill="#505460"></path><g id="SvgjsG1185"><text id="SvgjsText1186" font-family="&quot;Microsoft YaHei&quot;, 微软雅黑, Arial" text-anchor="start" font-size="13px" width="395px" fill="#b4bee5" font-weight="400" align="top" lineHeight="125%" anchor="start" family="&quot;Microsoft YaHei&quot;, 微软雅黑, Arial" size="13px" weight="400" font-style="" opacity="1" y="-2.625" transform="rotate(0)"><tspan id="SvgjsTspan1187" dy="16.25" x="10"><tspan id="SvgjsTspan1188" style="">Reactor单线程</tspan></tspan></text></g></g><g id="SvgjsG1189" transform="translate(318,93)"><path id="SvgjsPath1190" d="M 0 4Q 0 0 4 0L 185 0Q 189 0 189 4L 189 63Q 189 67 185 67L 4 67Q 0 67 0 63Z" stroke="rgba(220,186,132,1)" stroke-width="1.5" fill-opacity="1" fill="#505460"></path><g id="SvgjsG1191"><text id="SvgjsText1192" font-family="&quot;Microsoft YaHei&quot;, 微软雅黑, Arial" text-anchor="middle" font-size="13px" width="169px" fill="#dcba84" font-weight="400" align="top" lineHeight="125%" anchor="middle" family="&quot;Microsoft YaHei&quot;, 微软雅黑, Arial" size="13px" weight="400" font-style="" opacity="1" y="-2.625" transform="rotate(0)"><tspan id="SvgjsTspan1193" dy="16.25" x="94.5"><tspan id="SvgjsTspan1194" style="">Reactor</tspan></tspan></text></g></g><g id="SvgjsG1195" transform="translate(419,121)"><path id="SvgjsPath1196" d="M 0 4Q 0 0 4 0L 75 0Q 79 0 79 4L 79 21Q 79 25 75 25L 4 25Q 0 25 0 21Z" stroke="rgba(255,255,255,1)" stroke-width="1.5" fill-opacity="1" fill="#505460"></path><g id="SvgjsG1197"><text id="SvgjsText1198" font-family="&quot;Microsoft YaHei&quot;, 微软雅黑, Arial" text-anchor="middle" font-size="13px" width="59px" fill="#ffffff" font-weight="400" align="middle" lineHeight="125%" anchor="middle" family="&quot;Microsoft YaHei&quot;, 微软雅黑, Arial" size="13px" weight="400" font-style="" opacity="1" y="1.875" transform="rotate(0)"><tspan id="SvgjsTspan1199" dy="16.25" x="39.5"><tspan id="SvgjsTspan1200" style="">dispatch</tspan></tspan></text></g></g><g id="SvgjsG1201" transform="translate(389,496)"><path id="SvgjsPath1202" d="M 0 4Q 0 0 4 0L 59 0Q 63 0 63 4L 63 24Q 63 28 59 28L 4 28Q 0 28 0 24Z" stroke="rgba(220,186,132,1)" stroke-width="1.5" fill-opacity="1" fill="#505460"></path><g id="SvgjsG1203"><text id="SvgjsText1204" font-family="&quot;Microsoft YaHei&quot;, 微软雅黑, Arial" text-anchor="middle" font-size="13px" width="43px" fill="#dcba84" font-weight="400" align="middle" lineHeight="125%" anchor="middle" family="&quot;Microsoft YaHei&quot;, 微软雅黑, Arial" size="13px" weight="400" font-style="" opacity="1" y="3.375" transform="rotate(0)"><tspan id="SvgjsTspan1205" dy="16.25" x="31.5"><tspan id="SvgjsTspan1206" style="">对象</tspan></tspan></text></g></g><g id="SvgjsG1207" transform="translate(206,490)"><path id="SvgjsPath1208" d="M 0 0L 132 0L 132 40L 0 40Z" stroke="none" fill="none"></path><g id="SvgjsG1209"><text id="SvgjsText1210" font-family="&quot;Microsoft YaHei&quot;, 微软雅黑, Arial" text-anchor="middle" font-size="13px" width="132px" fill="#ffffff" font-weight="400" align="middle" lineHeight="125%" anchor="middle" family="&quot;Microsoft YaHei&quot;, 微软雅黑, Arial" size="13px" weight="400" font-style="" opacity="1" y="9.375" transform="rotate(0)"><tspan id="SvgjsTspan1211" dy="16.25" x="66"><tspan id="SvgjsTspan1212" style="">单Reactor单线程</tspan></tspan></text></g></g><g id="SvgjsG1213" transform="translate(487,496)"><path id="SvgjsPath1214" d="M 0 4Q 0 0 4 0L 59 0Q 63 0 63 4L 63 24Q 63 28 59 28L 4 28Q 0 28 0 24Z" stroke="rgba(180,189,229,1)" stroke-width="1.5" fill-opacity="1" fill="#505460"></path><g id="SvgjsG1215"><text id="SvgjsText1216" font-family="&quot;Microsoft YaHei&quot;, 微软雅黑, Arial" text-anchor="middle" font-size="13px" width="43px" fill="#b4bde5" font-weight="400" align="middle" lineHeight="125%" anchor="middle" family="&quot;Microsoft YaHei&quot;, 微软雅黑, Arial" size="13px" weight="400" font-style="" opacity="1" y="3.375" transform="rotate(0)"><tspan id="SvgjsTspan1217" dy="16.25" x="31.5"><tspan id="SvgjsTspan1218" style="">线程</tspan></tspan></text></g></g><g id="SvgjsG1219" transform="translate(327,121)"><path id="SvgjsPath1220" d="M 0 4Q 0 0 4 0L 75 0Q 79 0 79 4L 79 21Q 79 25 75 25L 4 25Q 0 25 0 21Z" stroke="rgba(255,255,255,1)" stroke-width="1.5" fill-opacity="1" fill="#505460"></path><g id="SvgjsG1221"><text id="SvgjsText1222" font-family="&quot;Microsoft YaHei&quot;, 微软雅黑, Arial" text-anchor="middle" font-size="13px" width="59px" fill="#ffffff" font-weight="400" align="middle" lineHeight="125%" anchor="middle" family="&quot;Microsoft YaHei&quot;, 微软雅黑, Arial" size="13px" weight="400" font-style="" opacity="1" y="1.875" transform="rotate(0)"><tspan id="SvgjsTspan1223" dy="16.25" x="39.5"><tspan id="SvgjsTspan1224" style="">select</tspan></tspan></text></g></g><g id="SvgjsG1225" transform="translate(249,218)"><path id="SvgjsPath1226" d="M 0 4Q 0 0 4 0L 93 0Q 97 0 97 4L 97 63Q 97 67 93 67L 4 67Q 0 67 0 63Z" stroke="rgba(220,186,132,1)" stroke-width="1.5" fill-opacity="1" fill="#505460"></path><g id="SvgjsG1227"><text id="SvgjsText1228" font-family="&quot;Microsoft YaHei&quot;, 微软雅黑, Arial" text-anchor="middle" font-size="13px" width="77px" fill="#dcba84" font-weight="400" align="top" lineHeight="125%" anchor="middle" family="&quot;Microsoft YaHei&quot;, 微软雅黑, Arial" size="13px" weight="400" font-style="" opacity="1" y="-2.625" transform="rotate(0)"><tspan id="SvgjsTspan1229" dy="16.25" x="48.5"><tspan id="SvgjsTspan1230" style="">Acceptor</tspan></tspan></text></g></g><g id="SvgjsG1231" transform="translate(258,246)"><path id="SvgjsPath1232" d="M 0 4Q 0 0 4 0L 75 0Q 79 0 79 4L 79 21Q 79 25 75 25L 4 25Q 0 25 0 21Z" stroke="rgba(255,255,255,1)" stroke-width="1.5" fill-opacity="1" fill="#505460"></path><g id="SvgjsG1233"><text id="SvgjsText1234" font-family="&quot;Microsoft YaHei&quot;, 微软雅黑, Arial" text-anchor="middle" font-size="13px" width="59px" fill="#ffffff" font-weight="400" align="middle" lineHeight="125%" anchor="middle" family="&quot;Microsoft YaHei&quot;, 微软雅黑, Arial" size="13px" weight="400" font-style="" opacity="1" y="1.875" transform="rotate(0)"><tspan id="SvgjsTspan1235" dy="16.25" x="39.5"><tspan id="SvgjsTspan1236" style="">accept</tspan></tspan></text></g></g><g id="SvgjsG1237" transform="translate(389,218)"><path id="SvgjsPath1238" d="M 0 4Q 0 0 4 0L 93 0Q 97 0 97 4L 97 94Q 97 98 93 98L 4 98Q 0 98 0 94Z" stroke="rgba(220,186,132,1)" stroke-width="1.5" fill-opacity="1" fill="#505460"></path><g id="SvgjsG1239"><text id="SvgjsText1240" font-family="&quot;Microsoft YaHei&quot;, 微软雅黑, Arial" text-anchor="middle" font-size="13px" width="77px" fill="#dcba84" font-weight="400" align="top" lineHeight="125%" anchor="middle" family="&quot;Microsoft YaHei&quot;, 微软雅黑, Arial" size="13px" weight="400" font-style="" opacity="1" y="-2.625" transform="rotate(0)"><tspan id="SvgjsTspan1241" dy="16.25" x="48.5"><tspan id="SvgjsTspan1242" style="">Handler1</tspan></tspan></text></g></g><g id="SvgjsG1243" transform="translate(398,246)"><path id="SvgjsPath1244" d="M 0 4Q 0 0 4 0L 75 0Q 79 0 79 4L 79 21Q 79 25 75 25L 4 25Q 0 25 0 21Z" stroke="rgba(255,255,255,1)" stroke-width="1.5" fill-opacity="1" fill="#505460"></path><g id="SvgjsG1245"><text id="SvgjsText1246" font-family="&quot;Microsoft YaHei&quot;, 微软雅黑, Arial" text-anchor="middle" font-size="13px" width="59px" fill="#ffffff" font-weight="400" align="middle" lineHeight="125%" anchor="middle" family="&quot;Microsoft YaHei&quot;, 微软雅黑, Arial" size="13px" weight="400" font-style="" opacity="1" y="1.875" transform="rotate(0)"><tspan id="SvgjsTspan1247" dy="16.25" x="39.5"><tspan id="SvgjsTspan1248" style="">read</tspan></tspan></text></g></g><g id="SvgjsG1249" transform="translate(398,285)"><path id="SvgjsPath1250" d="M 0 4Q 0 0 4 0L 75 0Q 79 0 79 4L 79 21Q 79 25 75 25L 4 25Q 0 25 0 21Z" stroke="rgba(255,255,255,1)" stroke-width="1.5" fill-opacity="1" fill="#505460"></path><g id="SvgjsG1251"><text id="SvgjsText1252" font-family="&quot;Microsoft YaHei&quot;, 微软雅黑, Arial" text-anchor="middle" font-size="13px" width="59px" fill="#ffffff" font-weight="400" align="middle" lineHeight="125%" anchor="middle" family="&quot;Microsoft YaHei&quot;, 微软雅黑, Arial" size="13px" weight="400" font-style="" opacity="1" y="1.875" transform="rotate(0)"><tspan id="SvgjsTspan1253" dy="16.25" x="39.5"><tspan id="SvgjsTspan1254" style="">send</tspan></tspan></text></g></g><g id="SvgjsG1255"><path id="SvgjsPath1256" d="M110.74992200273834 123.51081618273179L315.30028079014187 126.4610617421655" stroke="#ffffff" stroke-width="1.5" fill="none" marker-end="url(#SvgjsMarker1257)"></path><rect id="SvgjsRect1259" width="26" height="18" x="164.5727941631647" y="115.47460760812257" fill="#ffffff"></rect><text id="SvgjsText1260" font-family="&quot;Microsoft YaHei&quot;, 微软雅黑, Arial" text-anchor="middle" font-size="13px" width="26px" fill="#323232" font-weight="400" align="top" lineHeight="16px" anchor="middle" family="&quot;Microsoft YaHei&quot;, 微软雅黑, Arial" size="13px" weight="400" font-style="" opacity="1" y="112.84960760812257" transform="rotate(0)"><tspan id="SvgjsTspan1261" dy="16.25" x="177.5727941631647"><tspan id="SvgjsTspan1262" style="">请求</tspan></tspan></text></g><g id="SvgjsG1263"><path id="SvgjsPath1264" d="M110.69773694243736 208.22493062846223L315.4881470072256 127.49024973753609" stroke="#ffffff" stroke-width="1.5" fill="none" marker-end="url(#SvgjsMarker1265)"></path><rect id="SvgjsRect1267" width="26" height="18" x="163.84862818265773" y="173.14621388952918" fill="#ffffff"></rect><text id="SvgjsText1268" font-family="&quot;Microsoft YaHei&quot;, 微软雅黑, Arial" text-anchor="middle" font-size="13px" width="26px" fill="#323232" font-weight="400" align="top" lineHeight="16px" anchor="middle" family="&quot;Microsoft YaHei&quot;, 微软雅黑, Arial" size="13px" weight="400" font-style="" opacity="1" y="170.52121388952918" transform="rotate(0)"><tspan id="SvgjsTspan1269" dy="16.25" x="176.84862818265773"><tspan id="SvgjsTspan1270" style="">请求</tspan></tspan></text></g><g id="SvgjsG1271"><path id="SvgjsPath1272" d="M110.57934947788863 297.0237078811589L315.9143418796009 128.21465162782806" stroke="#ffffff" stroke-width="1.5" fill="none" marker-end="url(#SvgjsMarker1273)"></path><rect id="SvgjsRect1275" width="26" height="18" x="162.7453496524917" y="234.44973658376878" fill="#ffffff"></rect><text id="SvgjsText1276" font-family="&quot;Microsoft YaHei&quot;, 微软雅黑, Arial" text-anchor="middle" font-size="13px" width="26px" fill="#323232" font-weight="400" align="top" lineHeight="16px" anchor="middle" family="&quot;Microsoft YaHei&quot;, 微软雅黑, Arial" size="13px" weight="400" font-style="" opacity="1" y="231.82473658376878" transform="rotate(0)"><tspan id="SvgjsTspan1277" dy="16.25" x="175.7453496524917"><tspan id="SvgjsTspan1278" style="">请求</tspan></tspan></text></g><g id="SvgjsG1279"><path id="SvgjsPath1280" d="M411.8303482622464 160.33773739817138L299.91074625591295 216.784145366583" stroke="#ffffff" stroke-width="1.5" fill="none" marker-end="url(#SvgjsMarker1281)"></path><rect id="SvgjsRect1283" width="52" height="18" x="326.3825471242146" y="181.32010666778737" fill="#ffffff"></rect><text id="SvgjsText1284" font-family="&quot;Microsoft YaHei&quot;, 微软雅黑, Arial" text-anchor="middle" font-size="13px" width="52px" fill="#323232" font-weight="400" align="top" lineHeight="16px" anchor="middle" family="&quot;Microsoft YaHei&quot;, 微软雅黑, Arial" size="13px" weight="400" font-style="" opacity="1" y="178.69510666778737" transform="rotate(0)"><tspan id="SvgjsTspan1285" dy="16.25" x="352.3825471242146"><tspan id="SvgjsTspan1286" style="">建立连接</tspan></tspan></text></g><g id="SvgjsG1287"><path id="SvgjsPath1288" d="M412.79687201067884 160.68874306477488L436.43126076155625 215.5205249668104" stroke="#ffffff" stroke-width="1.5" fill="none" marker-end="url(#SvgjsMarker1289)"></path><rect id="SvgjsRect1291" width="52" height="18" x="397.43104021863905" y="176.36001330724258" fill="#ffffff"></rect><text id="SvgjsText1292" font-family="&quot;Microsoft YaHei&quot;, 微软雅黑, Arial" text-anchor="middle" font-size="13px" width="52px" fill="#323232" font-weight="400" align="top" lineHeight="16px" anchor="middle" family="&quot;Microsoft YaHei&quot;, 微软雅黑, Arial" size="13px" weight="400" font-style="" opacity="1" y="173.73501330724258" transform="rotate(0)"><tspan id="SvgjsTspan1293" dy="16.25" x="423.43104021863905"><tspan id="SvgjsTspan1294" style="">处理请求</tspan></tspan></text></g><g id="SvgjsG1295" transform="translate(531,218)"><path id="SvgjsPath1296" d="M 0 4Q 0 0 4 0L 93 0Q 97 0 97 4L 97 94Q 97 98 93 98L 4 98Q 0 98 0 94Z" stroke="rgba(220,186,132,1)" stroke-width="1.5" fill-opacity="1" fill="#505460"></path><g id="SvgjsG1297"><text id="SvgjsText1298" font-family="&quot;Microsoft YaHei&quot;, 微软雅黑, Arial" text-anchor="middle" font-size="13px" width="77px" fill="#dcba84" font-weight="400" align="top" lineHeight="125%" anchor="middle" family="&quot;Microsoft YaHei&quot;, 微软雅黑, Arial" size="13px" weight="400" font-style="" opacity="1" y="-2.625" transform="rotate(0)"><tspan id="SvgjsTspan1299" dy="16.25" x="48.5"><tspan id="SvgjsTspan1300" style="">Handler2</tspan></tspan></text></g></g><g id="SvgjsG1301" transform="translate(540,246)"><path id="SvgjsPath1302" d="M 0 4Q 0 0 4 0L 75 0Q 79 0 79 4L 79 21Q 79 25 75 25L 4 25Q 0 25 0 21Z" stroke="rgba(255,255,255,1)" stroke-width="1.5" fill-opacity="1" fill="#505460"></path><g id="SvgjsG1303"><text id="SvgjsText1304" font-family="&quot;Microsoft YaHei&quot;, 微软雅黑, Arial" text-anchor="middle" font-size="13px" width="59px" fill="#ffffff" font-weight="400" align="middle" lineHeight="125%" anchor="middle" family="&quot;Microsoft YaHei&quot;, 微软雅黑, Arial" size="13px" weight="400" font-style="" opacity="1" y="1.875" transform="rotate(0)"><tspan id="SvgjsTspan1305" dy="16.25" x="39.5"><tspan id="SvgjsTspan1306" style="">read</tspan></tspan></text></g></g><g id="SvgjsG1307" transform="translate(540,285)"><path id="SvgjsPath1308" d="M 0 4Q 0 0 4 0L 75 0Q 79 0 79 4L 79 21Q 79 25 75 25L 4 25Q 0 25 0 21Z" stroke="rgba(255,255,255,1)" stroke-width="1.5" fill-opacity="1" fill="#505460"></path><g id="SvgjsG1309"><text id="SvgjsText1310" font-family="&quot;Microsoft YaHei&quot;, 微软雅黑, Arial" text-anchor="middle" font-size="13px" width="59px" fill="#ffffff" font-weight="400" align="middle" lineHeight="125%" anchor="middle" family="&quot;Microsoft YaHei&quot;, 微软雅黑, Arial" size="13px" weight="400" font-style="" opacity="1" y="1.875" transform="rotate(0)"><tspan id="SvgjsTspan1311" dy="16.25" x="39.5"><tspan id="SvgjsTspan1312" style="">send</tspan></tspan></text></g></g><g id="SvgjsG1313"><path id="SvgjsPath1314" d="M413.20848698818963 160.24606134919162L576.9494468425173 217.1141791429102" stroke="#ffffff" stroke-width="1.5" fill="none" marker-end="url(#SvgjsMarker1315)"></path><rect id="SvgjsRect1317" width="52" height="18" x="463.18485819503485" y="177.6330645228265" fill="#ffffff"></rect><text id="SvgjsText1318" font-family="&quot;Microsoft YaHei&quot;, 微软雅黑, Arial" text-anchor="middle" font-size="13px" width="52px" fill="#323232" font-weight="400" align="top" lineHeight="16px" anchor="middle" family="&quot;Microsoft YaHei&quot;, 微软雅黑, Arial" size="13px" weight="400" font-style="" opacity="1" y="175.0080645228265" transform="rotate(0)"><tspan id="SvgjsTspan1319" dy="16.25" x="489.18485819503485"><tspan id="SvgjsTspan1320" style="">处理请求</tspan></tspan></text></g><g id="SvgjsG1321" transform="translate(229,340)"><path id="SvgjsPath1322" d="M 0 4Q 0 0 4 0L 411 0Q 415 0 415 4L 415 121Q 415 125 411 125L 4 125Q 0 125 0 121Z" stroke-dasharray="7.5,3" stroke="rgba(255,255,255,1)" stroke-width="1.5" fill-opacity="1" fill="#505460"></path><g id="SvgjsG1323"><text id="SvgjsText1324" font-family="&quot;Microsoft YaHei&quot;, 微软雅黑, Arial" text-anchor="start" font-size="13px" width="395px" fill="#ffffff" font-weight="400" align="top" lineHeight="125%" anchor="start" family="&quot;Microsoft YaHei&quot;, 微软雅黑, Arial" size="13px" weight="400" font-style="" opacity="1" y="-2.625" transform="rotate(0)"><tspan id="SvgjsTspan1325" dy="16.25" x="10"><tspan id="SvgjsTspan1326" style="">Worker线程池</tspan></tspan></text></g></g><g id="SvgjsG1327" transform="translate(279,357.73325062034746)"><path id="SvgjsPath1328" d="M 0 4Q 0 0 4 0L 115 0Q 119 0 119 4L 119 96.533Q 119 100.533 115 100.533L 4 100.533Q 0 100.533 0 96.533Z" stroke="rgba(180,190,229,1)" stroke-width="1.5" fill-opacity="1" fill="#505460"></path><g id="SvgjsG1329"><text id="SvgjsText1330" font-family="&quot;Microsoft YaHei&quot;, 微软雅黑, Arial" text-anchor="start" font-size="13px" width="99px" fill="#b4bee5" font-weight="400" align="top" lineHeight="125%" anchor="start" family="&quot;Microsoft YaHei&quot;, 微软雅黑, Arial" size="13px" weight="400" font-style="" opacity="1" y="-2.625" transform="rotate(0)"><tspan id="SvgjsTspan1331" dy="16.25" x="10"><tspan id="SvgjsTspan1332" style="">Worker线程1</tspan></tspan></text></g></g><g id="SvgjsG1333" transform="translate(290,383.26674937965265)"><path id="SvgjsPath1334" d="M 0 4Q 0 0 4 0L 93 0Q 97 0 97 4L 97 63Q 97 67 93 67L 4 67Q 0 67 0 63Z" stroke="rgba(220,186,132,1)" stroke-width="1.5" fill-opacity="1" fill="#505460"></path><g id="SvgjsG1335"><text id="SvgjsText1336" font-family="&quot;Microsoft YaHei&quot;, 微软雅黑, Arial" text-anchor="middle" font-size="13px" width="77px" fill="#dcba84" font-weight="400" align="top" lineHeight="125%" anchor="middle" family="&quot;Microsoft YaHei&quot;, 微软雅黑, Arial" size="13px" weight="400" font-style="" opacity="1" y="-2.625" transform="rotate(0)"><tspan id="SvgjsTspan1337" dy="16.25" x="48.5"><tspan id="SvgjsTspan1338" style="">Worker1</tspan></tspan></text></g></g><g id="SvgjsG1339" transform="translate(299,411.26674937965265)"><path id="SvgjsPath1340" d="M 0 4Q 0 0 4 0L 75 0Q 79 0 79 4L 79 21Q 79 25 75 25L 4 25Q 0 25 0 21Z" stroke="rgba(255,255,255,1)" stroke-width="1.5" fill-opacity="1" fill="#505460"></path><g id="SvgjsG1341"><text id="SvgjsText1342" font-family="&quot;Microsoft YaHei&quot;, 微软雅黑, Arial" text-anchor="middle" font-size="13px" width="59px" fill="#ffffff" font-weight="400" align="middle" lineHeight="125%" anchor="middle" family="&quot;Microsoft YaHei&quot;, 微软雅黑, Arial" size="13px" weight="400" font-style="" opacity="1" y="1.875" transform="rotate(0)"><tspan id="SvgjsTspan1343" dy="16.25" x="39.5"><tspan id="SvgjsTspan1344" style="">业务处理</tspan></tspan></text></g></g><g id="SvgjsG1345" transform="translate(459,357.73325062034746)"><path id="SvgjsPath1346" d="M 0 4Q 0 0 4 0L 115 0Q 119 0 119 4L 119 96.533Q 119 100.533 115 100.533L 4 100.533Q 0 100.533 0 96.533Z" stroke="rgba(180,190,229,1)" stroke-width="1.5" fill-opacity="1" fill="#505460"></path><g id="SvgjsG1347"><text id="SvgjsText1348" font-family="&quot;Microsoft YaHei&quot;, 微软雅黑, Arial" text-anchor="start" font-size="13px" width="99px" fill="#b4bee5" font-weight="400" align="top" lineHeight="125%" anchor="start" family="&quot;Microsoft YaHei&quot;, 微软雅黑, Arial" size="13px" weight="400" font-style="" opacity="1" y="-2.625" transform="rotate(0)"><tspan id="SvgjsTspan1349" dy="16.25" x="10"><tspan id="SvgjsTspan1350" style="">Worker线程2</tspan></tspan></text></g></g><g id="SvgjsG1351" transform="translate(470,383.26674937965265)"><path id="SvgjsPath1352" d="M 0 4Q 0 0 4 0L 93 0Q 97 0 97 4L 97 63Q 97 67 93 67L 4 67Q 0 67 0 63Z" stroke="rgba(220,186,132,1)" stroke-width="1.5" fill-opacity="1" fill="#505460"></path><g id="SvgjsG1353"><text id="SvgjsText1354" font-family="&quot;Microsoft YaHei&quot;, 微软雅黑, Arial" text-anchor="middle" font-size="13px" width="77px" fill="#dcba84" font-weight="400" align="top" lineHeight="125%" anchor="middle" family="&quot;Microsoft YaHei&quot;, 微软雅黑, Arial" size="13px" weight="400" font-style="" opacity="1" y="-2.625" transform="rotate(0)"><tspan id="SvgjsTspan1355" dy="16.25" x="48.5"><tspan id="SvgjsTspan1356" style="">Worker2</tspan></tspan></text></g></g><g id="SvgjsG1357" transform="translate(479,411.26674937965265)"><path id="SvgjsPath1358" d="M 0 4Q 0 0 4 0L 75 0Q 79 0 79 4L 79 21Q 79 25 75 25L 4 25Q 0 25 0 21Z" stroke="rgba(255,255,255,1)" stroke-width="1.5" fill-opacity="1" fill="#505460"></path><g id="SvgjsG1359"><text id="SvgjsText1360" font-family="&quot;Microsoft YaHei&quot;, 微软雅黑, Arial" text-anchor="middle" font-size="13px" width="59px" fill="#ffffff" font-weight="400" align="middle" lineHeight="125%" anchor="middle" family="&quot;Microsoft YaHei&quot;, 微软雅黑, Arial" size="13px" weight="400" font-style="" opacity="1" y="1.875" transform="rotate(0)"><tspan id="SvgjsTspan1361" dy="16.25" x="39.5"><tspan id="SvgjsTspan1362" style="">业务处理</tspan></tspan></text></g></g><g id="SvgjsG1363"><path id="SvgjsPath1364" d="M436.8971382287551 310.44615881115527L340.6703023764816 381.6605776594937" stroke="#ffffff" stroke-width="1.5" fill="none" marker-end="url(#SvgjsMarker1365)"></path></g><g id="SvgjsG1367"><path id="SvgjsPath1368" d="M578.9961812919732 316.5555778158298L520.3137473488964 381.26666924266533" stroke="#ffffff" stroke-width="1.5" fill="none" marker-end="url(#SvgjsMarker1369)"></path></g><g id="SvgjsG1371"></g></svg>