<svg id="SvgjsSvg1263" width="686" height="515" xmlns="http://www.w3.org/2000/svg" version="1.1" xmlns:xlink="http://www.w3.org/1999/xlink" xmlns:svgjs="http://svgjs.com/svgjs"><defs id="SvgjsDefs1264"><pattern patternUnits="userSpaceOnUse" id="pattern_mark_0" width="300" height="300"><text x="150" y="100" fill="rgba(72,75,86,0.8)" font-size="18" transform="rotate(-45, 150, 150)" style="dominant-baseline: middle; text-anchor: middle;"></text></pattern><pattern patternUnits="userSpaceOnUse" id="pattern_mark_1" width="300" height="300"><text x="150" y="200" fill="rgba(72,75,86,0.8)" font-size="18" transform="rotate(-45, 150, 150)" style="dominant-baseline: middle; text-anchor: middle;"></text></pattern><marker id="SvgjsMarker1348" markerWidth="13" markerHeight="9" refX="9.5" refY="4.5" viewBox="0 0 13 9" orient="auto" markerUnits="userSpaceOnUse" stroke-dasharray="0,0"><path id="SvgjsPath1349" d="M0,0 L13,4.5 L0,9 L0,0" fill="#ffffff" stroke="#ffffff" stroke-width="1"></path></marker><marker id="SvgjsMarker1356" markerWidth="13" markerHeight="9" refX="9.5" refY="4.5" viewBox="0 0 13 9" orient="auto" markerUnits="userSpaceOnUse" stroke-dasharray="0,0"><path id="SvgjsPath1357" d="M0,0 L13,4.5 L0,9 L0,0" fill="#ffffff" stroke="#ffffff" stroke-width="1"></path></marker><marker id="SvgjsMarker1364" markerWidth="13" markerHeight="9" refX="9.5" refY="4.5" viewBox="0 0 13 9" orient="auto" markerUnits="userSpaceOnUse" stroke-dasharray="0,0"><path id="SvgjsPath1365" d="M0,0 L13,4.5 L0,9 L0,0" fill="#ffffff" stroke="#ffffff" stroke-width="1"></path></marker><marker id="SvgjsMarker1396" markerWidth="14" markerHeight="10" refX="10" refY="5" viewBox="0 0 14 10" orient="auto" markerUnits="userSpaceOnUse" stroke-dasharray="0,0"><path id="SvgjsPath1397" d="M0,0 L14,5 L0,10 L0,0" fill="#ffffff" stroke="#ffffff" stroke-width="1"></path></marker><marker id="SvgjsMarker1404" markerWidth="14" markerHeight="10" refX="10" refY="5" viewBox="0 0 14 10" orient="auto" markerUnits="userSpaceOnUse" stroke-dasharray="0,0"><path id="SvgjsPath1405" d="M0,0 L14,5 L0,10 L0,0" fill="#ffffff" stroke="#ffffff" stroke-width="1"></path></marker><marker id="SvgjsMarker1412" markerWidth="14" markerHeight="10" refX="10" refY="5" viewBox="0 0 14 10" orient="auto" markerUnits="userSpaceOnUse" stroke-dasharray="0,0"><path id="SvgjsPath1413" d="M0,0 L14,5 L0,10 L0,0" fill="#ffffff" stroke="#ffffff" stroke-width="1"></path></marker></defs><rect id="svgbackgroundid" width="686" height="515" fill="#505460"></rect><rect id="SvgjsRect1266" width="686" height="515" fill="url(#pattern_mark_0)"></rect><rect id="SvgjsRect1267" width="686" height="515" fill="url(#pattern_mark_1)"></rect><g id="SvgjsG1268" transform="translate(210,25)"><path id="SvgjsPath1269" d="M 0 0L 451 0L 451 403L 0 403Z" stroke-dasharray="7.5,3" stroke="rgba(255,255,255,1)" stroke-width="1.5" fill-opacity="1" fill="#505460"></path><g id="SvgjsG1270"><text id="SvgjsText1271" font-family="&quot;Microsoft YaHei&quot;, 微软雅黑, Arial" text-anchor="start" font-size="13px" width="431px" fill="#ffffff" font-weight="400" align="top" lineHeight="125%" anchor="start" family="&quot;Microsoft YaHei&quot;, 微软雅黑, Arial" size="13px" weight="400" font-style="" opacity="1" y="-2.625" transform="rotate(0)"><tspan id="SvgjsTspan1272" dy="16.25" x="10"><tspan id="SvgjsTspan1273" style="">应用程序</tspan></tspan></text></g></g><g id="SvgjsG1274" transform="translate(504.16610169491514,182)"><path id="SvgjsPath1275" d="M 0 4Q 0 0 4 0L 134.834 0Q 138.834 0 138.834 4L 138.834 97Q 138.834 101 134.834 101L 4 101Q 0 101 0 97Z" stroke="rgba(180,190,229,1)" stroke-width="1.5" fill-opacity="1" fill="#505460"></path><g id="SvgjsG1276"><text id="SvgjsText1277" font-family="&quot;Microsoft YaHei&quot;, 微软雅黑, Arial" text-anchor="start" font-size="13px" width="119px" fill="#b4bee5" font-weight="400" align="top" lineHeight="125%" anchor="start" family="&quot;Microsoft YaHei&quot;, 微软雅黑, Arial" size="13px" weight="400" font-style="" opacity="1" y="-2.625" transform="rotate(0)"><tspan id="SvgjsTspan1278" dy="16.25" x="10"><tspan id="SvgjsTspan1279" style="">处理线程</tspan></tspan></text></g></g><g id="SvgjsG1280" transform="translate(25,106)"><path id="SvgjsPath1281" d="M 11.667 0L 73.333 0C 88.889 0 88.889 35 73.333 35L 11.667 35C -3.889 35 -3.889 0 11.667 0Z" stroke="rgba(220,186,132,1)" stroke-width="1.5" fill-opacity="1" fill="#505460"></path><g id="SvgjsG1282"><text id="SvgjsText1283" font-family="&quot;Microsoft YaHei&quot;, 微软雅黑, Arial" text-anchor="middle" font-size="13px" width="65px" fill="#dcba84" font-weight="400" align="middle" lineHeight="125%" anchor="middle" family="&quot;Microsoft YaHei&quot;, 微软雅黑, Arial" size="13px" weight="400" font-style="" opacity="1" y="6.875" transform="rotate(0)"><tspan id="SvgjsTspan1284" dy="16.25" x="42.5"><tspan id="SvgjsTspan1285" style="">client</tspan></tspan></text></g></g><g id="SvgjsG1286" transform="translate(25,227)"><path id="SvgjsPath1287" d="M 11.667 0L 73.333 0C 88.889 0 88.889 35 73.333 35L 11.667 35C -3.889 35 -3.889 0 11.667 0Z" stroke="rgba(220,186,132,1)" stroke-width="1.5" fill-opacity="1" fill="#505460"></path><g id="SvgjsG1288"><text id="SvgjsText1289" font-family="&quot;Microsoft YaHei&quot;, 微软雅黑, Arial" text-anchor="middle" font-size="13px" width="65px" fill="#dcba84" font-weight="400" align="middle" lineHeight="125%" anchor="middle" family="&quot;Microsoft YaHei&quot;, 微软雅黑, Arial" size="13px" weight="400" font-style="" opacity="1" y="6.875" transform="rotate(0)"><tspan id="SvgjsTspan1290" dy="16.25" x="42.5"><tspan id="SvgjsTspan1291" style="">client</tspan></tspan></text></g></g><g id="SvgjsG1292" transform="translate(25,348)"><path id="SvgjsPath1293" d="M 11.667 0L 73.333 0C 88.889 0 88.889 35 73.333 35L 11.667 35C -3.889 35 -3.889 0 11.667 0Z" stroke="rgba(220,186,132,1)" stroke-width="1.5" fill-opacity="1" fill="#505460"></path><g id="SvgjsG1294"><text id="SvgjsText1295" font-family="&quot;Microsoft YaHei&quot;, 微软雅黑, Arial" text-anchor="middle" font-size="13px" width="65px" fill="#dcba84" font-weight="400" align="middle" lineHeight="125%" anchor="middle" family="&quot;Microsoft YaHei&quot;, 微软雅黑, Arial" size="13px" weight="400" font-style="" opacity="1" y="6.875" transform="rotate(0)"><tspan id="SvgjsTspan1296" dy="16.25" x="42.5"><tspan id="SvgjsTspan1297" style="">client</tspan></tspan></text></g></g><g id="SvgjsG1298" transform="translate(511,214)"><path id="SvgjsPath1299" d="M 0 4Q 0 0 4 0L 121.166 0Q 125.166 0 125.166 4L 125.166 57Q 125.166 61 121.166 61L 4 61Q 0 61 0 57Z" stroke="rgba(220,186,132,1)" stroke-width="1.5" fill-opacity="1" fill="#505460"></path><g id="SvgjsG1300"><text id="SvgjsText1301" font-family="&quot;Microsoft YaHei&quot;, 微软雅黑, Arial" text-anchor="middle" font-size="13px" width="106px" fill="#dcba84" font-weight="400" align="top" lineHeight="125%" anchor="middle" family="&quot;Microsoft YaHei&quot;, 微软雅黑, Arial" size="13px" weight="400" font-style="" opacity="1" y="-2.625" transform="rotate(0)"><tspan id="SvgjsTspan1302" dy="16.25" x="63"><tspan id="SvgjsTspan1303" style="">EventHandler</tspan></tspan></text></g></g><g id="SvgjsG1304" transform="translate(504.16610169491514,61)"><path id="SvgjsPath1305" d="M 0 4Q 0 0 4 0L 134.834 0Q 138.834 0 138.834 4L 138.834 97Q 138.834 101 134.834 101L 4 101Q 0 101 0 97Z" stroke="rgba(180,190,229,1)" stroke-width="1.5" fill-opacity="1" fill="#505460"></path><g id="SvgjsG1306"><text id="SvgjsText1307" font-family="&quot;Microsoft YaHei&quot;, 微软雅黑, Arial" text-anchor="start" font-size="13px" width="119px" fill="#b4bee5" font-weight="400" align="top" lineHeight="125%" anchor="start" family="&quot;Microsoft YaHei&quot;, 微软雅黑, Arial" size="13px" weight="400" font-style="" opacity="1" y="-2.625" transform="rotate(0)"><tspan id="SvgjsTspan1308" dy="16.25" x="10"><tspan id="SvgjsTspan1309" style="">处理线程</tspan></tspan></text></g></g><g id="SvgjsG1310" transform="translate(511,93)"><path id="SvgjsPath1311" d="M 0 4Q 0 0 4 0L 121.166 0Q 125.166 0 125.166 4L 125.166 57Q 125.166 61 121.166 61L 4 61Q 0 61 0 57Z" stroke="rgba(220,186,132,1)" stroke-width="1.5" fill-opacity="1" fill="#505460"></path><g id="SvgjsG1312"><text id="SvgjsText1313" font-family="&quot;Microsoft YaHei&quot;, 微软雅黑, Arial" text-anchor="middle" font-size="13px" width="106px" fill="#dcba84" font-weight="400" align="top" lineHeight="125%" anchor="middle" family="&quot;Microsoft YaHei&quot;, 微软雅黑, Arial" size="13px" weight="400" font-style="" opacity="1" y="-2.625" transform="rotate(0)"><tspan id="SvgjsTspan1314" dy="16.25" x="63"><tspan id="SvgjsTspan1315" style="">EventHandler</tspan></tspan></text></g></g><g id="SvgjsG1316" transform="translate(526,116)"><path id="SvgjsPath1317" d="M 0 4Q 0 0 4 0L 95.19 0Q 99.19 0 99.19 4L 99.19 21Q 99.19 25 95.19 25L 4 25Q 0 25 0 21Z" stroke="rgba(255,255,255,1)" stroke-width="1.5" fill-opacity="1" fill="#505460"></path><g id="SvgjsG1318"><text id="SvgjsText1319" font-family="&quot;Microsoft YaHei&quot;, 微软雅黑, Arial" text-anchor="middle" font-size="13px" width="80px" fill="#ffffff" font-weight="400" align="middle" lineHeight="125%" anchor="middle" family="&quot;Microsoft YaHei&quot;, 微软雅黑, Arial" size="13px" weight="400" font-style="" opacity="1" y="1.875" transform="rotate(0)"><tspan id="SvgjsTspan1320" dy="16.25" x="50"><tspan id="SvgjsTspan1321" style="">eventHandle</tspan></tspan></text></g></g><g id="SvgjsG1322" transform="translate(504.16610169491514,303)"><path id="SvgjsPath1323" d="M 0 4Q 0 0 4 0L 134.834 0Q 138.834 0 138.834 4L 138.834 97Q 138.834 101 134.834 101L 4 101Q 0 101 0 97Z" stroke="rgba(180,190,229,1)" stroke-width="1.5" fill-opacity="1" fill="#505460"></path><g id="SvgjsG1324"><text id="SvgjsText1325" font-family="&quot;Microsoft YaHei&quot;, 微软雅黑, Arial" text-anchor="start" font-size="13px" width="119px" fill="#b4bee5" font-weight="400" align="top" lineHeight="125%" anchor="start" family="&quot;Microsoft YaHei&quot;, 微软雅黑, Arial" size="13px" weight="400" font-style="" opacity="1" y="-2.625" transform="rotate(0)"><tspan id="SvgjsTspan1326" dy="16.25" x="10"><tspan id="SvgjsTspan1327" style="">处理线程</tspan></tspan></text></g></g><g id="SvgjsG1328" transform="translate(511,335)"><path id="SvgjsPath1329" d="M 0 4Q 0 0 4 0L 121.166 0Q 125.166 0 125.166 4L 125.166 57Q 125.166 61 121.166 61L 4 61Q 0 61 0 57Z" stroke="rgba(220,186,132,1)" stroke-width="1.5" fill-opacity="1" fill="#505460"></path><g id="SvgjsG1330"><text id="SvgjsText1331" font-family="&quot;Microsoft YaHei&quot;, 微软雅黑, Arial" text-anchor="middle" font-size="13px" width="106px" fill="#dcba84" font-weight="400" align="top" lineHeight="125%" anchor="middle" family="&quot;Microsoft YaHei&quot;, 微软雅黑, Arial" size="13px" weight="400" font-style="" opacity="1" y="-2.625" transform="rotate(0)"><tspan id="SvgjsTspan1332" dy="16.25" x="63"><tspan id="SvgjsTspan1333" style="">EventHandler</tspan></tspan></text></g></g><g id="SvgjsG1334" transform="translate(389,456)"><path id="SvgjsPath1335" d="M 0 4Q 0 0 4 0L 59 0Q 63 0 63 4L 63 24Q 63 28 59 28L 4 28Q 0 28 0 24Z" stroke="rgba(220,186,132,1)" stroke-width="1.5" fill-opacity="1" fill="#505460"></path><g id="SvgjsG1336"><text id="SvgjsText1337" font-family="&quot;Microsoft YaHei&quot;, 微软雅黑, Arial" text-anchor="middle" font-size="13px" width="43px" fill="#dcba84" font-weight="400" align="middle" lineHeight="125%" anchor="middle" family="&quot;Microsoft YaHei&quot;, 微软雅黑, Arial" size="13px" weight="400" font-style="" opacity="1" y="3.375" transform="rotate(0)"><tspan id="SvgjsTspan1338" dy="16.25" x="31.5"><tspan id="SvgjsTspan1339" style="">对象</tspan></tspan></text></g></g><g id="SvgjsG1340" transform="translate(206,450)"><path id="SvgjsPath1341" d="M 0 0L 132 0L 132 40L 0 40Z" stroke="none" fill="none"></path><g id="SvgjsG1342"><text id="SvgjsText1343" font-family="&quot;Microsoft YaHei&quot;, 微软雅黑, Arial" text-anchor="middle" font-size="13px" width="132px" fill="#ffffff" font-weight="400" align="middle" lineHeight="125%" anchor="middle" family="&quot;Microsoft YaHei&quot;, 微软雅黑, Arial" size="13px" weight="400" font-style="" opacity="1" y="9.375" transform="rotate(0)"><tspan id="SvgjsTspan1344" dy="16.25" x="66"><tspan id="SvgjsTspan1345" style="">传统阻塞I/O服务模型</tspan></tspan></text></g></g><g id="SvgjsG1346"><path id="SvgjsPath1347" d="M110.61459079235397 123.92985829985449L280.78747314752593 242.95251012052387" stroke="#ffffff" stroke-width="1.5" fill="none" marker-end="url(#SvgjsMarker1348)"></path><rect id="SvgjsRect1350" width="69" height="18" x="111.61459079235397" y="133.98229512764377" fill="#ffffff"></rect><text id="SvgjsText1351" font-family="&quot;Microsoft YaHei&quot;, 微软雅黑, Arial" text-anchor="middle" font-size="13px" width="69px" fill="#323232" font-weight="700" align="top" lineHeight="16px" anchor="middle" family="&quot;Microsoft YaHei&quot;, 微软雅黑, Arial" size="13px" weight="700" font-style="" opacity="1" y="131.35729512764377" transform="rotate(0)"><tspan id="SvgjsTspan1352" dy="16.25" x="146.11459079235397"><tspan id="SvgjsTspan1353" style="">请求(Event)</tspan></tspan></text></g><g id="SvgjsG1354"><path id="SvgjsPath1355" d="M110.75 244.5L196.5 244.5L196.5 244.5L280.29999999999995 244.5" stroke="#ffffff" stroke-width="1.5" fill="none" marker-end="url(#SvgjsMarker1356)"></path><rect id="SvgjsRect1358" width="69" height="18" x="117.41242774566473" y="235.5" fill="#ffffff"></rect><text id="SvgjsText1359" font-family="&quot;Microsoft YaHei&quot;, 微软雅黑, Arial" text-anchor="middle" font-size="13px" width="69px" fill="#323232" font-weight="700" align="top" lineHeight="16px" anchor="middle" family="&quot;Microsoft YaHei&quot;, 微软雅黑, Arial" size="13px" weight="700" font-style="" opacity="1" y="232.875" transform="rotate(0)"><tspan id="SvgjsTspan1360" dy="16.25" x="151.91242774566473"><tspan id="SvgjsTspan1361" style="">请求(Event)</tspan></tspan></text></g><g id="SvgjsG1362"><path id="SvgjsPath1363" d="M110.61459079235397 365.07014170014554L280.78747314752593 246.04748987947613" stroke="#ffffff" stroke-width="1.5" fill="none" marker-end="url(#SvgjsMarker1364)"></path><rect id="SvgjsRect1366" width="69" height="18" x="112.1364902444488" y="330.87563399087685" fill="#ffffff"></rect><text id="SvgjsText1367" font-family="&quot;Microsoft YaHei&quot;, 微软雅黑, Arial" text-anchor="middle" font-size="13px" width="69px" fill="#323232" font-weight="700" align="top" lineHeight="16px" anchor="middle" family="&quot;Microsoft YaHei&quot;, 微软雅黑, Arial" size="13px" weight="700" font-style="" opacity="1" y="328.25063399087685" transform="rotate(0)"><tspan id="SvgjsTspan1368" dy="16.25" x="146.6364902444488"><tspan id="SvgjsTspan1369" style="">请求(Event)</tspan></tspan></text></g><g id="SvgjsG1370" transform="translate(526,237)"><path id="SvgjsPath1371" d="M 0 4Q 0 0 4 0L 95.19 0Q 99.19 0 99.19 4L 99.19 21Q 99.19 25 95.19 25L 4 25Q 0 25 0 21Z" stroke="rgba(255,255,255,1)" stroke-width="1.5" fill-opacity="1" fill="#505460"></path><g id="SvgjsG1372"><text id="SvgjsText1373" font-family="&quot;Microsoft YaHei&quot;, 微软雅黑, Arial" text-anchor="middle" font-size="13px" width="80px" fill="#ffffff" font-weight="400" align="middle" lineHeight="125%" anchor="middle" family="&quot;Microsoft YaHei&quot;, 微软雅黑, Arial" size="13px" weight="400" font-style="" opacity="1" y="1.875" transform="rotate(0)"><tspan id="SvgjsTspan1374" dy="16.25" x="50"><tspan id="SvgjsTspan1375" style="">eventHandle</tspan></tspan></text></g></g><g id="SvgjsG1376" transform="translate(526,358)"><path id="SvgjsPath1377" d="M 0 4Q 0 0 4 0L 95.19 0Q 99.19 0 99.19 4L 99.19 21Q 99.19 25 95.19 25L 4 25Q 0 25 0 21Z" stroke="rgba(255,255,255,1)" stroke-width="1.5" fill-opacity="1" fill="#505460"></path><g id="SvgjsG1378"><text id="SvgjsText1379" font-family="&quot;Microsoft YaHei&quot;, 微软雅黑, Arial" text-anchor="middle" font-size="13px" width="80px" fill="#ffffff" font-weight="400" align="middle" lineHeight="125%" anchor="middle" family="&quot;Microsoft YaHei&quot;, 微软雅黑, Arial" size="13px" weight="400" font-style="" opacity="1" y="1.875" transform="rotate(0)"><tspan id="SvgjsTspan1380" dy="16.25" x="50"><tspan id="SvgjsTspan1381" style="">eventHandle</tspan></tspan></text></g></g><g id="SvgjsG1382" transform="translate(283,214)"><path id="SvgjsPath1383" d="M 0 4Q 0 0 4 0L 117.683 0Q 121.683 0 121.683 4L 121.683 57Q 121.683 61 117.683 61L 4 61Q 0 61 0 57Z" stroke="rgba(220,186,132,1)" stroke-width="1.5" fill-opacity="1" fill="#505460"></path><g id="SvgjsG1384"><text id="SvgjsText1385" font-family="&quot;Microsoft YaHei&quot;, 微软雅黑, Arial" text-anchor="middle" font-size="13px" width="102px" fill="#dcba84" font-weight="400" align="top" lineHeight="125%" anchor="middle" family="&quot;Microsoft YaHei&quot;, 微软雅黑, Arial" size="13px" weight="400" font-style="" opacity="1" y="-2.625" transform="rotate(0)"><tspan id="SvgjsTspan1386" dy="16.25" x="61"><tspan id="SvgjsTspan1387" style="">ServiceHandler</tspan></tspan></text></g></g><g id="SvgjsG1388" transform="translate(289.1584330298509,237)"><path id="SvgjsPath1389" d="M 0 4Q 0 0 4 0L 105.366 0Q 109.366 0 109.366 4L 109.366 21Q 109.366 25 105.366 25L 4 25Q 0 25 0 21Z" stroke="rgba(255,255,255,1)" stroke-width="1.5" fill-opacity="1" fill="#505460"></path><g id="SvgjsG1390"><text id="SvgjsText1391" font-family="&quot;Microsoft YaHei&quot;, 微软雅黑, Arial" text-anchor="middle" font-size="13px" width="90px" fill="#ffffff" font-weight="400" align="middle" lineHeight="125%" anchor="middle" family="&quot;Microsoft YaHei&quot;, 微软雅黑, Arial" size="13px" weight="400" font-style="" opacity="1" y="1.875" transform="rotate(0)"><tspan id="SvgjsTspan1392" dy="16.25" x="55"><tspan id="SvgjsTspan1393" style="">eventDispatch</tspan></tspan></text></g></g><g id="SvgjsG1394"><path id="SvgjsPath1395" d="M405.17804304167976 243.93658861665347L508.7888077471637 126.01657084561447" stroke="#ffffff" stroke-width="2" fill="none" marker-end="url(#SvgjsMarker1396)"></path><rect id="SvgjsRect1398" width="54" height="18" x="424.17927887704286" y="182.5823128556846" fill="#ffffff"></rect><text id="SvgjsText1399" font-family="&quot;Microsoft YaHei&quot;, 微软雅黑, Arial" text-anchor="middle" font-size="13px" width="54px" fill="#323232" font-weight="400" align="top" lineHeight="16px" anchor="middle" family="&quot;Microsoft YaHei&quot;, 微软雅黑, Arial" size="13px" weight="400" font-style="" opacity="1" y="179.9573128556846" transform="rotate(0)"><tspan id="SvgjsTspan1400" dy="16.25" x="451.17927887704286"><tspan id="SvgjsTspan1401" style="">Dispatch</tspan></tspan></text></g><g id="SvgjsG1402"><path id="SvgjsPath1403" d="M405.433 244.5L507.65 244.5" stroke="#ffffff" stroke-width="2" fill="none" marker-end="url(#SvgjsMarker1404)"></path><rect id="SvgjsRect1406" width="54" height="18" x="427.77101545378446" y="235.5" fill="#ffffff"></rect><text id="SvgjsText1407" font-family="&quot;Microsoft YaHei&quot;, 微软雅黑, Arial" text-anchor="middle" font-size="13px" width="54px" fill="#323232" font-weight="400" align="top" lineHeight="16px" anchor="middle" family="&quot;Microsoft YaHei&quot;, 微软雅黑, Arial" size="13px" weight="400" font-style="" opacity="1" y="232.875" transform="rotate(0)"><tspan id="SvgjsTspan1408" dy="16.25" x="454.77101545378446"><tspan id="SvgjsTspan1409" style="">Dispatch</tspan></tspan></text></g><g id="SvgjsG1410"><path id="SvgjsPath1411" d="M405.17804304167976 245.06341138334653L508.7888077471637 362.98342915438553" stroke="#ffffff" stroke-width="2" fill="none" marker-end="url(#SvgjsMarker1412)"></path><rect id="SvgjsRect1414" width="54" height="18" x="427.69324160919234" y="292.41694869787784" fill="#ffffff"></rect><text id="SvgjsText1415" font-family="&quot;Microsoft YaHei&quot;, 微软雅黑, Arial" text-anchor="middle" font-size="13px" width="54px" fill="#323232" font-weight="400" align="top" lineHeight="16px" anchor="middle" family="&quot;Microsoft YaHei&quot;, 微软雅黑, Arial" size="13px" weight="400" font-style="" opacity="1" y="289.79194869787784" transform="rotate(0)"><tspan id="SvgjsTspan1416" dy="16.25" x="454.69324160919234"><tspan id="SvgjsTspan1417" style="">Dispatch</tspan></tspan></text></g><g id="SvgjsG1418" transform="translate(487,456)"><path id="SvgjsPath1419" d="M 0 4Q 0 0 4 0L 59 0Q 63 0 63 4L 63 24Q 63 28 59 28L 4 28Q 0 28 0 24Z" stroke="rgba(255,255,255,1)" stroke-width="1.5" fill-opacity="1" fill="#505460"></path><g id="SvgjsG1420"><text id="SvgjsText1421" font-family="&quot;Microsoft YaHei&quot;, 微软雅黑, Arial" text-anchor="middle" font-size="13px" width="43px" fill="#ffffff" font-weight="400" align="middle" lineHeight="125%" anchor="middle" family="&quot;Microsoft YaHei&quot;, 微软雅黑, Arial" size="13px" weight="400" font-style="" opacity="1" y="3.375" transform="rotate(0)"><tspan id="SvgjsTspan1422" dy="16.25" x="31.5"><tspan id="SvgjsTspan1423" style="">对象</tspan></tspan></text></g></g><g id="SvgjsG1424"></g></svg>