<svg id="SvgjsSvg1660" width="660.0000000000001" height="135.45454545454544" xmlns="http://www.w3.org/2000/svg" version="1.1" xmlns:xlink="http://www.w3.org/1999/xlink" xmlns:svgjs="http://svgjs.com/svgjs"><defs id="SvgjsDefs1661"><pattern patternUnits="userSpaceOnUse" id="pattern_mark_0" width="300" height="300"><text x="150" y="100" fill="rgba(229,229,229,0.8)" font-size="18" transform="rotate(-45, 150, 150)" style="dominant-baseline: middle; text-anchor: middle;"></text></pattern><pattern patternUnits="userSpaceOnUse" id="pattern_mark_1" width="300" height="300"><text x="150" y="200" fill="rgba(229,229,229,0.8)" font-size="18" transform="rotate(-45, 150, 150)" style="dominant-baseline: middle; text-anchor: middle;"></text></pattern><marker id="SvgjsMarker1693" markerWidth="13" markerHeight="9" refX="3.5" refY="4.5" viewBox="0 0 13 9" orient="auto" markerUnits="userSpaceOnUse" stroke-dasharray="0,0"><path id="SvgjsPath1694" d="M13,0 L0,4.5 L13,9 L13,0" fill="#323232" stroke="#323232" stroke-width="1"></path></marker><marker id="SvgjsMarker1695" markerWidth="13" markerHeight="9" refX="9.5" refY="4.5" viewBox="0 0 13 9" orient="auto" markerUnits="userSpaceOnUse" stroke-dasharray="0,0"><path id="SvgjsPath1696" d="M0,0 L13,4.5 L0,9 L0,0" fill="#323232" stroke="#323232" stroke-width="1"></path></marker><marker id="SvgjsMarker1703" markerWidth="13" markerHeight="9" refX="3.5" refY="4.5" viewBox="0 0 13 9" orient="auto" markerUnits="userSpaceOnUse" stroke-dasharray="0,0"><path id="SvgjsPath1704" d="M13,0 L0,4.5 L13,9 L13,0" fill="#323232" stroke="#323232" stroke-width="1"></path></marker><marker id="SvgjsMarker1705" markerWidth="13" markerHeight="9" refX="9.5" refY="4.5" viewBox="0 0 13 9" orient="auto" markerUnits="userSpaceOnUse" stroke-dasharray="0,0"><path id="SvgjsPath1706" d="M0,0 L13,4.5 L0,9 L0,0" fill="#323232" stroke="#323232" stroke-width="1"></path></marker></defs><rect id="svgbackgroundid" width="660.0000000000001" height="135.45454545454544" fill="transparent"></rect><rect id="SvgjsRect1663" width="660.0000000000001" height="135.45454545454544" fill="url(#pattern_mark_0)"></rect><rect id="SvgjsRect1664" width="660.0000000000001" height="135.45454545454544" fill="url(#pattern_mark_1)"></rect><g id="SvgjsG1665" transform="translate(25,40.72727272727275)"><path id="SvgjsPath1666" d="M 0 4Q 0 0 4 0L 92 0Q 96 0 96 4L 96 50Q 96 54 92 54L 4 54Q 0 54 0 50Z" stroke="rgba(33,41,48,1)" stroke-width="1.5" fill-opacity="1" fill="#ff9aff"></path><g id="SvgjsG1667"><text id="SvgjsText1668" font-family="&quot;Microsoft YaHei&quot;, 微软雅黑, Arial" text-anchor="middle" font-size="13px" width="76px" fill="#323232" font-weight="400" align="middle" lineHeight="125%" anchor="middle" family="&quot;Microsoft YaHei&quot;, 微软雅黑, Arial" size="13px" weight="400" font-style="" opacity="1" y="16.375" transform="rotate(0)"><tspan id="SvgjsTspan1669" dy="16.25" x="48"><tspan id="SvgjsTspan1670" style="">NIO</tspan></tspan></text></g></g><g id="SvgjsG1671" transform="translate(271.3636363636364,40.72727272727275)"><path id="SvgjsPath1672" d="M 0 0L 96 0L 96 54L 0 54Z" stroke="rgba(33,41,48,1)" stroke-width="1.5" fill-opacity="1" fill="#3399ff"></path><g id="SvgjsG1673"><text id="SvgjsText1674" font-family="&quot;Microsoft YaHei&quot;, 微软雅黑, Arial" text-anchor="middle" font-size="13px" width="76px" fill="#323232" font-weight="400" align="middle" lineHeight="125%" anchor="middle" family="&quot;Microsoft YaHei&quot;, 微软雅黑, Arial" size="13px" weight="400" font-style="" opacity="1" y="16.375" transform="rotate(0)"><tspan id="SvgjsTspan1675" dy="16.25" x="48"><tspan id="SvgjsTspan1676" style="">Buffer</tspan></tspan></text></g></g><g id="SvgjsG1677" transform="translate(535.0000000000001,25)"><path id="SvgjsPath1678" d="M 0 61.667L 0 0L 100 0L 100 61.667Q 75 45 50 61.667Q 25 78.333 0 61.667Z" stroke="rgba(33,41,48,1)" stroke-width="1.5" fill-opacity="1" fill="#99ccff"></path><g id="SvgjsG1679"><text id="SvgjsText1680" font-family="&quot;Microsoft YaHei&quot;, 微软雅黑, Arial" text-anchor="middle" font-size="13px" width="100px" fill="#323232" font-weight="400" align="middle" lineHeight="125%" anchor="middle" family="&quot;Microsoft YaHei&quot;, 微软雅黑, Arial" size="13px" weight="400" font-style="" opacity="1" y="20.875" transform="rotate(0)"></text></g></g><g id="SvgjsG1681" transform="translate(525.9090909090909,31.363636363636374)"><path id="SvgjsPath1682" d="M 0 61.667L 0 0L 100 0L 100 61.667Q 75 45 50 61.667Q 25 78.333 0 61.667Z" stroke="rgba(33,41,48,1)" stroke-width="1.5" fill-opacity="1" fill="#99ccff"></path><g id="SvgjsG1683"><text id="SvgjsText1684" font-family="&quot;Microsoft YaHei&quot;, 微软雅黑, Arial" text-anchor="middle" font-size="13px" width="100px" fill="#323232" font-weight="400" align="middle" lineHeight="125%" anchor="middle" family="&quot;Microsoft YaHei&quot;, 微软雅黑, Arial" size="13px" weight="400" font-style="" opacity="1" y="20.875" transform="rotate(0)"></text></g></g><g id="SvgjsG1685" transform="translate(517.7272727272727,40.45454545454544)"><path id="SvgjsPath1686" d="M 0 61.667L 0 0L 100 0L 100 61.667Q 75 45 50 61.667Q 25 78.333 0 61.667Z" stroke="rgba(33,41,48,1)" stroke-width="1.5" fill-opacity="1" fill="#99ccff"></path><g id="SvgjsG1687"><text id="SvgjsText1688" font-family="&quot;Microsoft YaHei&quot;, 微软雅黑, Arial" text-anchor="middle" font-size="13px" width="100px" fill="#323232" font-weight="400" align="middle" lineHeight="125%" anchor="middle" family="&quot;Microsoft YaHei&quot;, 微软雅黑, Arial" size="13px" weight="400" font-style="" opacity="1" y="20.875" transform="rotate(0)"><tspan id="SvgjsTspan1689" dy="16.25" x="50"><tspan id="SvgjsTspan1690" style="">File</tspan></tspan></text></g></g><g id="SvgjsG1691"><path id="SvgjsPath1692" d="M123.69999999999999 67.72727272727275L268.6636363636364 67.72727272727275" stroke="#323232" stroke-width="1.5" fill="none" marker-start="url(#SvgjsMarker1693)" marker-end="url(#SvgjsMarker1695)"></path><rect id="SvgjsRect1697" width="29" height="18" x="179.4907112234803" y="58.72727272727275" fill="#ffffff"></rect><text id="SvgjsText1698" font-family="&quot;Microsoft YaHei&quot;, 微软雅黑, Arial" text-anchor="middle" font-size="13px" width="29px" fill="#323232" font-weight="400" align="top" lineHeight="16px" anchor="middle" family="&quot;Microsoft YaHei&quot;, 微软雅黑, Arial" size="13px" weight="400" font-style="" opacity="1" y="56.10227272727275" transform="rotate(0)"><tspan id="SvgjsTspan1699" dy="16.25" x="193.9907112234803"><tspan id="SvgjsTspan1700" style="">Data</tspan></tspan></text></g><g id="SvgjsG1701"><path id="SvgjsPath1702" d="M370.0636363636364 67.72727272727275L515.1181818181817 67.72727272727275" stroke="#323232" stroke-width="1.5" fill="none" marker-start="url(#SvgjsMarker1703)" marker-end="url(#SvgjsMarker1705)"></path><rect id="SvgjsRect1707" width="51" height="18" x="416.6088547102445" y="58.72727272727275" fill="#ffffff"></rect><text id="SvgjsText1708" font-family="&quot;Microsoft YaHei&quot;, 微软雅黑, Arial" text-anchor="middle" font-size="13px" width="51px" fill="#323232" font-weight="400" align="top" lineHeight="16px" anchor="middle" family="&quot;Microsoft YaHei&quot;, 微软雅黑, Arial" size="13px" weight="400" font-style="" opacity="1" y="56.10227272727275" transform="rotate(0)"><tspan id="SvgjsTspan1709" dy="16.25" x="442.1088547102445"><tspan id="SvgjsTspan1710" style="">Channel</tspan></tspan></text></g><g id="SvgjsG1711"></g></svg>