<svg id="SvgjsSvg1372" width="686" height="655" xmlns="http://www.w3.org/2000/svg" version="1.1" xmlns:xlink="http://www.w3.org/1999/xlink" xmlns:svgjs="http://svgjs.com/svgjs"><defs id="SvgjsDefs1373"><pattern patternUnits="userSpaceOnUse" id="pattern_mark_0" width="300" height="300"><text x="150" y="100" fill="rgba(72,75,86,0.8)" font-size="18" transform="rotate(-45, 150, 150)" style="dominant-baseline: middle; text-anchor: middle;"></text></pattern><pattern patternUnits="userSpaceOnUse" id="pattern_mark_1" width="300" height="300"><text x="150" y="200" fill="rgba(72,75,86,0.8)" font-size="18" transform="rotate(-45, 150, 150)" style="dominant-baseline: middle; text-anchor: middle;"></text></pattern><marker id="SvgjsMarker1457" markerWidth="13" markerHeight="9" refX="9.5" refY="4.5" viewBox="0 0 13 9" orient="auto" markerUnits="userSpaceOnUse" stroke-dasharray="0,0"><path id="SvgjsPath1458" d="M0,0 L13,4.5 L0,9 L0,0" fill="#ffffff" stroke="#ffffff" stroke-width="1"></path></marker><marker id="SvgjsMarker1465" markerWidth="13" markerHeight="9" refX="9.5" refY="4.5" viewBox="0 0 13 9" orient="auto" markerUnits="userSpaceOnUse" stroke-dasharray="0,0"><path id="SvgjsPath1466" d="M0,0 L13,4.5 L0,9 L0,0" fill="#ffffff" stroke="#ffffff" stroke-width="1"></path></marker><marker id="SvgjsMarker1473" markerWidth="13" markerHeight="9" refX="9.5" refY="4.5" viewBox="0 0 13 9" orient="auto" markerUnits="userSpaceOnUse" stroke-dasharray="0,0"><path id="SvgjsPath1474" d="M0,0 L13,4.5 L0,9 L0,0" fill="#ffffff" stroke="#ffffff" stroke-width="1"></path></marker><marker id="SvgjsMarker1583" markerWidth="13" markerHeight="9" refX="9.5" refY="4.5" viewBox="0 0 13 9" orient="auto" markerUnits="userSpaceOnUse" stroke-dasharray="0,0"><path id="SvgjsPath1584" d="M0,0 L13,4.5 L0,9 L0,0" fill="#ffffff" stroke="#ffffff" stroke-width="1"></path></marker><marker id="SvgjsMarker1591" markerWidth="13" markerHeight="9" refX="9.5" refY="4.5" viewBox="0 0 13 9" orient="auto" markerUnits="userSpaceOnUse" stroke-dasharray="0,0"><path id="SvgjsPath1592" d="M0,0 L13,4.5 L0,9 L0,0" fill="#ffffff" stroke="#ffffff" stroke-width="1"></path></marker><marker id="SvgjsMarker1595" markerWidth="13" markerHeight="9" refX="9.5" refY="4.5" viewBox="0 0 13 9" orient="auto" markerUnits="userSpaceOnUse" stroke-dasharray="0,0"><path id="SvgjsPath1596" d="M0,0 L13,4.5 L0,9 L0,0" fill="#ffffff" stroke="#ffffff" stroke-width="1"></path></marker><marker id="SvgjsMarker1603" markerWidth="13" markerHeight="9" refX="9.5" refY="4.5" viewBox="0 0 13 9" orient="auto" markerUnits="userSpaceOnUse" stroke-dasharray="0,0"><path id="SvgjsPath1604" d="M0,0 L13,4.5 L0,9 L0,0" fill="#ffffff" stroke="#ffffff" stroke-width="1"></path></marker><marker id="SvgjsMarker1611" markerWidth="13" markerHeight="9" refX="9.5" refY="4.5" viewBox="0 0 13 9" orient="auto" markerUnits="userSpaceOnUse" stroke-dasharray="0,0"><path id="SvgjsPath1612" d="M0,0 L13,4.5 L0,9 L0,0" fill="#ffffff" stroke="#ffffff" stroke-width="1"></path></marker><marker id="SvgjsMarker1615" markerWidth="13" markerHeight="9" refX="9.5" refY="4.5" viewBox="0 0 13 9" orient="auto" markerUnits="userSpaceOnUse" stroke-dasharray="0,0"><path id="SvgjsPath1616" d="M0,0 L13,4.5 L0,9 L0,0" fill="#ffffff" stroke="#ffffff" stroke-width="1"></path></marker></defs><rect id="svgbackgroundid" width="686" height="655" fill="#505460"></rect><rect id="SvgjsRect1375" width="686" height="655" fill="url(#pattern_mark_0)"></rect><rect id="SvgjsRect1376" width="686" height="655" fill="url(#pattern_mark_1)"></rect><g id="SvgjsG1377" transform="translate(210,25)"><path id="SvgjsPath1378" d="M 0 0L 451 0L 451 555L 0 555Z" stroke-dasharray="7.5,3" stroke="rgba(255,255,255,1)" stroke-width="1.5" fill-opacity="1" fill="#505460"></path><g id="SvgjsG1379"><text id="SvgjsText1380" font-family="&quot;Microsoft YaHei&quot;, 微软雅黑, Arial" text-anchor="start" font-size="13px" width="431px" fill="#ffffff" font-weight="400" align="top" lineHeight="125%" anchor="start" family="&quot;Microsoft YaHei&quot;, 微软雅黑, Arial" size="13px" weight="400" font-style="" opacity="1" y="-2.625" transform="rotate(0)"><tspan id="SvgjsTspan1381" dy="16.25" x="10"><tspan id="SvgjsTspan1382" style="">应用程序</tspan></tspan></text></g></g><g id="SvgjsG1383" transform="translate(25,106)"><path id="SvgjsPath1384" d="M 11.667 0L 73.333 0C 88.889 0 88.889 35 73.333 35L 11.667 35C -3.889 35 -3.889 0 11.667 0Z" stroke="rgba(220,186,132,1)" stroke-width="1.5" fill-opacity="1" fill="#505460"></path><g id="SvgjsG1385"><text id="SvgjsText1386" font-family="&quot;Microsoft YaHei&quot;, 微软雅黑, Arial" text-anchor="middle" font-size="13px" width="65px" fill="#dcba84" font-weight="400" align="middle" lineHeight="125%" anchor="middle" family="&quot;Microsoft YaHei&quot;, 微软雅黑, Arial" size="13px" weight="400" font-style="" opacity="1" y="6.875" transform="rotate(0)"><tspan id="SvgjsTspan1387" dy="16.25" x="42.5"><tspan id="SvgjsTspan1388" style="">client</tspan></tspan></text></g></g><g id="SvgjsG1389" transform="translate(25,191)"><path id="SvgjsPath1390" d="M 11.667 0L 73.333 0C 88.889 0 88.889 35 73.333 35L 11.667 35C -3.889 35 -3.889 0 11.667 0Z" stroke="rgba(220,186,132,1)" stroke-width="1.5" fill-opacity="1" fill="#505460"></path><g id="SvgjsG1391"><text id="SvgjsText1392" font-family="&quot;Microsoft YaHei&quot;, 微软雅黑, Arial" text-anchor="middle" font-size="13px" width="65px" fill="#dcba84" font-weight="400" align="middle" lineHeight="125%" anchor="middle" family="&quot;Microsoft YaHei&quot;, 微软雅黑, Arial" size="13px" weight="400" font-style="" opacity="1" y="6.875" transform="rotate(0)"><tspan id="SvgjsTspan1393" dy="16.25" x="42.5"><tspan id="SvgjsTspan1394" style="">client</tspan></tspan></text></g></g><g id="SvgjsG1395" transform="translate(25,280)"><path id="SvgjsPath1396" d="M 11.667 0L 73.333 0C 88.889 0 88.889 35 73.333 35L 11.667 35C -3.889 35 -3.889 0 11.667 0Z" stroke="rgba(220,186,132,1)" stroke-width="1.5" fill-opacity="1" fill="#505460"></path><g id="SvgjsG1397"><text id="SvgjsText1398" font-family="&quot;Microsoft YaHei&quot;, 微软雅黑, Arial" text-anchor="middle" font-size="13px" width="65px" fill="#dcba84" font-weight="400" align="middle" lineHeight="125%" anchor="middle" family="&quot;Microsoft YaHei&quot;, 微软雅黑, Arial" size="13px" weight="400" font-style="" opacity="1" y="6.875" transform="rotate(0)"><tspan id="SvgjsTspan1399" dy="16.25" x="42.5"><tspan id="SvgjsTspan1400" style="">client</tspan></tspan></text></g></g><g id="SvgjsG1401" transform="translate(228,65.46650124069481)"><path id="SvgjsPath1402" d="M 0 4Q 0 0 4 0L 411 0Q 415 0 415 4L 415 107.533Q 415 111.533 411 111.533L 4 111.533Q 0 111.533 0 107.533Z" stroke="rgba(180,190,229,1)" stroke-width="1.5" fill-opacity="1" fill="#505460"></path><g id="SvgjsG1403"><text id="SvgjsText1404" font-family="&quot;Microsoft YaHei&quot;, 微软雅黑, Arial" text-anchor="start" font-size="13px" width="395px" fill="#b4bee5" font-weight="400" align="top" lineHeight="125%" anchor="start" family="&quot;Microsoft YaHei&quot;, 微软雅黑, Arial" size="13px" weight="400" font-style="" opacity="1" y="-2.625" transform="rotate(0)"><tspan id="SvgjsTspan1405" dy="16.25" x="10"><tspan id="SvgjsTspan1406" style="">Reactor主线程</tspan></tspan></text></g></g><g id="SvgjsG1407" transform="translate(239,95)"><path id="SvgjsPath1408" d="M 0 4Q 0 0 4 0L 185 0Q 189 0 189 4L 189 63Q 189 67 185 67L 4 67Q 0 67 0 63Z" stroke="rgba(220,186,132,1)" stroke-width="1.5" fill-opacity="1" fill="#505460"></path><g id="SvgjsG1409"><text id="SvgjsText1410" font-family="&quot;Microsoft YaHei&quot;, 微软雅黑, Arial" text-anchor="middle" font-size="13px" width="169px" fill="#dcba84" font-weight="400" align="top" lineHeight="125%" anchor="middle" family="&quot;Microsoft YaHei&quot;, 微软雅黑, Arial" size="13px" weight="400" font-style="" opacity="1" y="-2.625" transform="rotate(0)"><tspan id="SvgjsTspan1411" dy="16.25" x="94.5"><tspan id="SvgjsTspan1412" style="">MainReactor</tspan></tspan></text></g></g><g id="SvgjsG1413" transform="translate(340,123)"><path id="SvgjsPath1414" d="M 0 4Q 0 0 4 0L 75 0Q 79 0 79 4L 79 21Q 79 25 75 25L 4 25Q 0 25 0 21Z" stroke="rgba(255,255,255,1)" stroke-width="1.5" fill-opacity="1" fill="#505460"></path><g id="SvgjsG1415"><text id="SvgjsText1416" font-family="&quot;Microsoft YaHei&quot;, 微软雅黑, Arial" text-anchor="middle" font-size="13px" width="59px" fill="#ffffff" font-weight="400" align="middle" lineHeight="125%" anchor="middle" family="&quot;Microsoft YaHei&quot;, 微软雅黑, Arial" size="13px" weight="400" font-style="" opacity="1" y="1.875" transform="rotate(0)"><tspan id="SvgjsTspan1417" dy="16.25" x="39.5"><tspan id="SvgjsTspan1418" style="">dispatch</tspan></tspan></text></g></g><g id="SvgjsG1419" transform="translate(389,596)"><path id="SvgjsPath1420" d="M 0 4Q 0 0 4 0L 59 0Q 63 0 63 4L 63 24Q 63 28 59 28L 4 28Q 0 28 0 24Z" stroke="rgba(220,186,132,1)" stroke-width="1.5" fill-opacity="1" fill="#505460"></path><g id="SvgjsG1421"><text id="SvgjsText1422" font-family="&quot;Microsoft YaHei&quot;, 微软雅黑, Arial" text-anchor="middle" font-size="13px" width="43px" fill="#dcba84" font-weight="400" align="middle" lineHeight="125%" anchor="middle" family="&quot;Microsoft YaHei&quot;, 微软雅黑, Arial" size="13px" weight="400" font-style="" opacity="1" y="3.375" transform="rotate(0)"><tspan id="SvgjsTspan1423" dy="16.25" x="31.5"><tspan id="SvgjsTspan1424" style="">对象</tspan></tspan></text></g></g><g id="SvgjsG1425" transform="translate(206,590)"><path id="SvgjsPath1426" d="M 0 0L 132 0L 132 40L 0 40Z" stroke="none" fill="none"></path><g id="SvgjsG1427"><text id="SvgjsText1428" font-family="&quot;Microsoft YaHei&quot;, 微软雅黑, Arial" text-anchor="middle" font-size="13px" width="132px" fill="#ffffff" font-weight="400" align="middle" lineHeight="125%" anchor="middle" family="&quot;Microsoft YaHei&quot;, 微软雅黑, Arial" size="13px" weight="400" font-style="" opacity="1" y="9.375" transform="rotate(0)"><tspan id="SvgjsTspan1429" dy="16.25" x="66"><tspan id="SvgjsTspan1430" style="">主从Reactor多线程</tspan></tspan></text></g></g><g id="SvgjsG1431" transform="translate(487,596)"><path id="SvgjsPath1432" d="M 0 4Q 0 0 4 0L 59 0Q 63 0 63 4L 63 24Q 63 28 59 28L 4 28Q 0 28 0 24Z" stroke="rgba(180,189,229,1)" stroke-width="1.5" fill-opacity="1" fill="#505460"></path><g id="SvgjsG1433"><text id="SvgjsText1434" font-family="&quot;Microsoft YaHei&quot;, 微软雅黑, Arial" text-anchor="middle" font-size="13px" width="43px" fill="#b4bde5" font-weight="400" align="middle" lineHeight="125%" anchor="middle" family="&quot;Microsoft YaHei&quot;, 微软雅黑, Arial" size="13px" weight="400" font-style="" opacity="1" y="3.375" transform="rotate(0)"><tspan id="SvgjsTspan1435" dy="16.25" x="31.5"><tspan id="SvgjsTspan1436" style="">线程</tspan></tspan></text></g></g><g id="SvgjsG1437" transform="translate(248,123)"><path id="SvgjsPath1438" d="M 0 4Q 0 0 4 0L 75 0Q 79 0 79 4L 79 21Q 79 25 75 25L 4 25Q 0 25 0 21Z" stroke="rgba(255,255,255,1)" stroke-width="1.5" fill-opacity="1" fill="#505460"></path><g id="SvgjsG1439"><text id="SvgjsText1440" font-family="&quot;Microsoft YaHei&quot;, 微软雅黑, Arial" text-anchor="middle" font-size="13px" width="59px" fill="#ffffff" font-weight="400" align="middle" lineHeight="125%" anchor="middle" family="&quot;Microsoft YaHei&quot;, 微软雅黑, Arial" size="13px" weight="400" font-style="" opacity="1" y="1.875" transform="rotate(0)"><tspan id="SvgjsTspan1441" dy="16.25" x="39.5"><tspan id="SvgjsTspan1442" style="">select</tspan></tspan></text></g></g><g id="SvgjsG1443" transform="translate(521,95)"><path id="SvgjsPath1444" d="M 0 4Q 0 0 4 0L 93 0Q 97 0 97 4L 97 63Q 97 67 93 67L 4 67Q 0 67 0 63Z" stroke="rgba(220,186,132,1)" stroke-width="1.5" fill-opacity="1" fill="#505460"></path><g id="SvgjsG1445"><text id="SvgjsText1446" font-family="&quot;Microsoft YaHei&quot;, 微软雅黑, Arial" text-anchor="middle" font-size="13px" width="77px" fill="#dcba84" font-weight="400" align="top" lineHeight="125%" anchor="middle" family="&quot;Microsoft YaHei&quot;, 微软雅黑, Arial" size="13px" weight="400" font-style="" opacity="1" y="-2.625" transform="rotate(0)"><tspan id="SvgjsTspan1447" dy="16.25" x="48.5"><tspan id="SvgjsTspan1448" style="">Acceptor</tspan></tspan></text></g></g><g id="SvgjsG1449" transform="translate(530,123)"><path id="SvgjsPath1450" d="M 0 4Q 0 0 4 0L 75 0Q 79 0 79 4L 79 21Q 79 25 75 25L 4 25Q 0 25 0 21Z" stroke="rgba(255,255,255,1)" stroke-width="1.5" fill-opacity="1" fill="#505460"></path><g id="SvgjsG1451"><text id="SvgjsText1452" font-family="&quot;Microsoft YaHei&quot;, 微软雅黑, Arial" text-anchor="middle" font-size="13px" width="59px" fill="#ffffff" font-weight="400" align="middle" lineHeight="125%" anchor="middle" family="&quot;Microsoft YaHei&quot;, 微软雅黑, Arial" size="13px" weight="400" font-style="" opacity="1" y="1.875" transform="rotate(0)"><tspan id="SvgjsTspan1453" dy="16.25" x="39.5"><tspan id="SvgjsTspan1454" style="">accept</tspan></tspan></text></g></g><g id="SvgjsG1455"><path id="SvgjsPath1456" d="M110.74943726638634 123.5290479560615L236.30202584100914 128.39542735817867" stroke="#ffffff" stroke-width="1.5" fill="none" marker-end="url(#SvgjsMarker1457)"></path><rect id="SvgjsRect1459" width="26" height="18" x="138.76517845338876" y="116.11880536641044" fill="#ffffff"></rect><text id="SvgjsText1460" font-family="&quot;Microsoft YaHei&quot;, 微软雅黑, Arial" text-anchor="middle" font-size="13px" width="26px" fill="#323232" font-weight="400" align="top" lineHeight="16px" anchor="middle" family="&quot;Microsoft YaHei&quot;, 微软雅黑, Arial" size="13px" weight="400" font-style="" opacity="1" y="113.49380536641044" transform="rotate(0)"><tspan id="SvgjsTspan1461" dy="16.25" x="151.76517845338876"><tspan id="SvgjsTspan1462" style="">请求</tspan></tspan></text></g><g id="SvgjsG1463"><path id="SvgjsPath1464" d="M110.63738275893667 208.10472387042688L236.70542206782807 129.92299406646322" stroke="#ffffff" stroke-width="1.5" fill="none" marker-end="url(#SvgjsMarker1465)"></path><rect id="SvgjsRect1467" width="26" height="18" x="138.35956869797542" y="173.850655071023" fill="#ffffff"></rect><text id="SvgjsText1468" font-family="&quot;Microsoft YaHei&quot;, 微软雅黑, Arial" text-anchor="middle" font-size="13px" width="26px" fill="#323232" font-weight="400" align="top" lineHeight="16px" anchor="middle" family="&quot;Microsoft YaHei&quot;, 微软雅黑, Arial" size="13px" weight="400" font-style="" opacity="1" y="171.225655071023" transform="rotate(0)"><tspan id="SvgjsTspan1469" dy="16.25" x="151.35956869797542"><tspan id="SvgjsTspan1470" style="">请求</tspan></tspan></text></g><g id="SvgjsG1471"><path id="SvgjsPath1472" d="M110.45506365241204 296.90383133908813L237.36177085131675 130.64620717928267" stroke="#ffffff" stroke-width="1.5" fill="none" marker-end="url(#SvgjsMarker1473)"></path><rect id="SvgjsRect1475" width="26" height="18" x="137.7307244482247" y="235.13959355232578" fill="#ffffff"></rect><text id="SvgjsText1476" font-family="&quot;Microsoft YaHei&quot;, 微软雅黑, Arial" text-anchor="middle" font-size="13px" width="26px" fill="#323232" font-weight="400" align="top" lineHeight="16px" anchor="middle" family="&quot;Microsoft YaHei&quot;, 微软雅黑, Arial" size="13px" weight="400" font-style="" opacity="1" y="232.51459355232578" transform="rotate(0)"><tspan id="SvgjsTspan1477" dy="16.25" x="150.7307244482247"><tspan id="SvgjsTspan1478" style="">请求</tspan></tspan></text></g><g id="SvgjsG1479" transform="translate(229,440)"><path id="SvgjsPath1480" d="M 0 4Q 0 0 4 0L 411 0Q 415 0 415 4L 415 121Q 415 125 411 125L 4 125Q 0 125 0 121Z" stroke-dasharray="7.5,3" stroke="rgba(255,255,255,1)" stroke-width="1.5" fill-opacity="1" fill="#505460"></path><g id="SvgjsG1481"><text id="SvgjsText1482" font-family="&quot;Microsoft YaHei&quot;, 微软雅黑, Arial" text-anchor="start" font-size="13px" width="395px" fill="#ffffff" font-weight="400" align="top" lineHeight="125%" anchor="start" family="&quot;Microsoft YaHei&quot;, 微软雅黑, Arial" size="13px" weight="400" font-style="" opacity="1" y="-2.625" transform="rotate(0)"><tspan id="SvgjsTspan1483" dy="16.25" x="10"><tspan id="SvgjsTspan1484" style="">Worker线程池</tspan></tspan></text></g></g><g id="SvgjsG1485" transform="translate(279,457.73325062034746)"><path id="SvgjsPath1486" d="M 0 4Q 0 0 4 0L 115 0Q 119 0 119 4L 119 96.533Q 119 100.533 115 100.533L 4 100.533Q 0 100.533 0 96.533Z" stroke="rgba(180,190,229,1)" stroke-width="1.5" fill-opacity="1" fill="#505460"></path><g id="SvgjsG1487"><text id="SvgjsText1488" font-family="&quot;Microsoft YaHei&quot;, 微软雅黑, Arial" text-anchor="start" font-size="13px" width="99px" fill="#b4bee5" font-weight="400" align="top" lineHeight="125%" anchor="start" family="&quot;Microsoft YaHei&quot;, 微软雅黑, Arial" size="13px" weight="400" font-style="" opacity="1" y="-2.625" transform="rotate(0)"><tspan id="SvgjsTspan1489" dy="16.25" x="10"><tspan id="SvgjsTspan1490" style="">Worker线程1</tspan></tspan></text></g></g><g id="SvgjsG1491" transform="translate(290,483.26674937965265)"><path id="SvgjsPath1492" d="M 0 4Q 0 0 4 0L 93 0Q 97 0 97 4L 97 63Q 97 67 93 67L 4 67Q 0 67 0 63Z" stroke="rgba(220,186,132,1)" stroke-width="1.5" fill-opacity="1" fill="#505460"></path><g id="SvgjsG1493"><text id="SvgjsText1494" font-family="&quot;Microsoft YaHei&quot;, 微软雅黑, Arial" text-anchor="middle" font-size="13px" width="77px" fill="#dcba84" font-weight="400" align="top" lineHeight="125%" anchor="middle" family="&quot;Microsoft YaHei&quot;, 微软雅黑, Arial" size="13px" weight="400" font-style="" opacity="1" y="-2.625" transform="rotate(0)"><tspan id="SvgjsTspan1495" dy="16.25" x="48.5"><tspan id="SvgjsTspan1496" style="">Worker1</tspan></tspan></text></g></g><g id="SvgjsG1497" transform="translate(299,511.26674937965265)"><path id="SvgjsPath1498" d="M 0 4Q 0 0 4 0L 75 0Q 79 0 79 4L 79 21Q 79 25 75 25L 4 25Q 0 25 0 21Z" stroke="rgba(255,255,255,1)" stroke-width="1.5" fill-opacity="1" fill="#505460"></path><g id="SvgjsG1499"><text id="SvgjsText1500" font-family="&quot;Microsoft YaHei&quot;, 微软雅黑, Arial" text-anchor="middle" font-size="13px" width="59px" fill="#ffffff" font-weight="400" align="middle" lineHeight="125%" anchor="middle" family="&quot;Microsoft YaHei&quot;, 微软雅黑, Arial" size="13px" weight="400" font-style="" opacity="1" y="1.875" transform="rotate(0)"><tspan id="SvgjsTspan1501" dy="16.25" x="39.5"><tspan id="SvgjsTspan1502" style="">业务处理</tspan></tspan></text></g></g><g id="SvgjsG1503" transform="translate(459,457.73325062034746)"><path id="SvgjsPath1504" d="M 0 4Q 0 0 4 0L 115 0Q 119 0 119 4L 119 96.533Q 119 100.533 115 100.533L 4 100.533Q 0 100.533 0 96.533Z" stroke="rgba(180,190,229,1)" stroke-width="1.5" fill-opacity="1" fill="#505460"></path><g id="SvgjsG1505"><text id="SvgjsText1506" font-family="&quot;Microsoft YaHei&quot;, 微软雅黑, Arial" text-anchor="start" font-size="13px" width="99px" fill="#b4bee5" font-weight="400" align="top" lineHeight="125%" anchor="start" family="&quot;Microsoft YaHei&quot;, 微软雅黑, Arial" size="13px" weight="400" font-style="" opacity="1" y="-2.625" transform="rotate(0)"><tspan id="SvgjsTspan1507" dy="16.25" x="10"><tspan id="SvgjsTspan1508" style="">Worker线程2</tspan></tspan></text></g></g><g id="SvgjsG1509" transform="translate(470,483.26674937965265)"><path id="SvgjsPath1510" d="M 0 4Q 0 0 4 0L 93 0Q 97 0 97 4L 97 63Q 97 67 93 67L 4 67Q 0 67 0 63Z" stroke="rgba(220,186,132,1)" stroke-width="1.5" fill-opacity="1" fill="#505460"></path><g id="SvgjsG1511"><text id="SvgjsText1512" font-family="&quot;Microsoft YaHei&quot;, 微软雅黑, Arial" text-anchor="middle" font-size="13px" width="77px" fill="#dcba84" font-weight="400" align="top" lineHeight="125%" anchor="middle" family="&quot;Microsoft YaHei&quot;, 微软雅黑, Arial" size="13px" weight="400" font-style="" opacity="1" y="-2.625" transform="rotate(0)"><tspan id="SvgjsTspan1513" dy="16.25" x="48.5"><tspan id="SvgjsTspan1514" style="">Worker2</tspan></tspan></text></g></g><g id="SvgjsG1515" transform="translate(479,511.26674937965265)"><path id="SvgjsPath1516" d="M 0 4Q 0 0 4 0L 75 0Q 79 0 79 4L 79 21Q 79 25 75 25L 4 25Q 0 25 0 21Z" stroke="rgba(255,255,255,1)" stroke-width="1.5" fill-opacity="1" fill="#505460"></path><g id="SvgjsG1517"><text id="SvgjsText1518" font-family="&quot;Microsoft YaHei&quot;, 微软雅黑, Arial" text-anchor="middle" font-size="13px" width="59px" fill="#ffffff" font-weight="400" align="middle" lineHeight="125%" anchor="middle" family="&quot;Microsoft YaHei&quot;, 微软雅黑, Arial" size="13px" weight="400" font-style="" opacity="1" y="1.875" transform="rotate(0)"><tspan id="SvgjsTspan1519" dy="16.25" x="39.5"><tspan id="SvgjsTspan1520" style="">业务处理</tspan></tspan></text></g></g><g id="SvgjsG1521" transform="translate(228,191)"><path id="SvgjsPath1522" d="M 0 4Q 0 0 4 0L 411 0Q 415 0 415 4L 415 228Q 415 232 411 232L 4 232Q 0 232 0 228Z" stroke="rgba(180,190,229,1)" stroke-width="1.5" fill-opacity="1" fill="#505460"></path><g id="SvgjsG1523"><text id="SvgjsText1524" font-family="&quot;Microsoft YaHei&quot;, 微软雅黑, Arial" text-anchor="start" font-size="13px" width="395px" fill="#b4bee5" font-weight="400" align="top" lineHeight="125%" anchor="start" family="&quot;Microsoft YaHei&quot;, 微软雅黑, Arial" size="13px" weight="400" font-style="" opacity="1" y="-2.625" transform="rotate(0)"><tspan id="SvgjsTspan1525" dy="16.25" x="10"><tspan id="SvgjsTspan1526" style="">Reactor子线程</tspan></tspan></text></g></g><g id="SvgjsG1527" transform="translate(332,202)"><path id="SvgjsPath1528" d="M 0 4Q 0 0 4 0L 185 0Q 189 0 189 4L 189 63Q 189 67 185 67L 4 67Q 0 67 0 63Z" stroke="rgba(220,186,132,1)" stroke-width="1.5" fill-opacity="1" fill="#505460"></path><g id="SvgjsG1529"><text id="SvgjsText1530" font-family="&quot;Microsoft YaHei&quot;, 微软雅黑, Arial" text-anchor="middle" font-size="13px" width="169px" fill="#dcba84" font-weight="400" align="top" lineHeight="125%" anchor="middle" family="&quot;Microsoft YaHei&quot;, 微软雅黑, Arial" size="13px" weight="400" font-style="" opacity="1" y="-2.625" transform="rotate(0)"><tspan id="SvgjsTspan1531" dy="16.25" x="94.5"><tspan id="SvgjsTspan1532" style="">SubReactor</tspan></tspan></text></g></g><g id="SvgjsG1533" transform="translate(433,230)"><path id="SvgjsPath1534" d="M 0 4Q 0 0 4 0L 75 0Q 79 0 79 4L 79 21Q 79 25 75 25L 4 25Q 0 25 0 21Z" stroke="rgba(255,255,255,1)" stroke-width="1.5" fill-opacity="1" fill="#505460"></path><g id="SvgjsG1535"><text id="SvgjsText1536" font-family="&quot;Microsoft YaHei&quot;, 微软雅黑, Arial" text-anchor="middle" font-size="13px" width="59px" fill="#ffffff" font-weight="400" align="middle" lineHeight="125%" anchor="middle" family="&quot;Microsoft YaHei&quot;, 微软雅黑, Arial" size="13px" weight="400" font-style="" opacity="1" y="1.875" transform="rotate(0)"><tspan id="SvgjsTspan1537" dy="16.25" x="39.5"><tspan id="SvgjsTspan1538" style="">dispatch</tspan></tspan></text></g></g><g id="SvgjsG1539" transform="translate(341,230)"><path id="SvgjsPath1540" d="M 0 4Q 0 0 4 0L 75 0Q 79 0 79 4L 79 21Q 79 25 75 25L 4 25Q 0 25 0 21Z" stroke="rgba(255,255,255,1)" stroke-width="1.5" fill-opacity="1" fill="#505460"></path><g id="SvgjsG1541"><text id="SvgjsText1542" font-family="&quot;Microsoft YaHei&quot;, 微软雅黑, Arial" text-anchor="middle" font-size="13px" width="59px" fill="#ffffff" font-weight="400" align="middle" lineHeight="125%" anchor="middle" family="&quot;Microsoft YaHei&quot;, 微软雅黑, Arial" size="13px" weight="400" font-style="" opacity="1" y="1.875" transform="rotate(0)"><tspan id="SvgjsTspan1543" dy="16.25" x="39.5"><tspan id="SvgjsTspan1544" style="">select</tspan></tspan></text></g></g><g id="SvgjsG1545" transform="translate(243,333)"><path id="SvgjsPath1546" d="M 0 4Q 0 0 4 0L 177 0Q 181 0 181 4L 181 64Q 181 68 177 68L 4 68Q 0 68 0 64Z" stroke="rgba(220,186,132,1)" stroke-width="1.5" fill-opacity="1" fill="#505460"></path><g id="SvgjsG1547"><text id="SvgjsText1548" font-family="&quot;Microsoft YaHei&quot;, 微软雅黑, Arial" text-anchor="middle" font-size="13px" width="161px" fill="#dcba84" font-weight="400" align="top" lineHeight="125%" anchor="middle" family="&quot;Microsoft YaHei&quot;, 微软雅黑, Arial" size="13px" weight="400" font-style="" opacity="1" y="-2.625" transform="rotate(0)"><tspan id="SvgjsTspan1549" dy="16.25" x="90.5"><tspan id="SvgjsTspan1550" style="">Handler1</tspan></tspan></text></g></g><g id="SvgjsG1551" transform="translate(252,361)"><path id="SvgjsPath1552" d="M 0 4Q 0 0 4 0L 75 0Q 79 0 79 4L 79 21Q 79 25 75 25L 4 25Q 0 25 0 21Z" stroke="rgba(255,255,255,1)" stroke-width="1.5" fill-opacity="1" fill="#505460"></path><g id="SvgjsG1553"><text id="SvgjsText1554" font-family="&quot;Microsoft YaHei&quot;, 微软雅黑, Arial" text-anchor="middle" font-size="13px" width="59px" fill="#ffffff" font-weight="400" align="middle" lineHeight="125%" anchor="middle" family="&quot;Microsoft YaHei&quot;, 微软雅黑, Arial" size="13px" weight="400" font-style="" opacity="1" y="1.875" transform="rotate(0)"><tspan id="SvgjsTspan1555" dy="16.25" x="39.5"><tspan id="SvgjsTspan1556" style="">read</tspan></tspan></text></g></g><g id="SvgjsG1557" transform="translate(337,361)"><path id="SvgjsPath1558" d="M 0 4Q 0 0 4 0L 75 0Q 79 0 79 4L 79 21Q 79 25 75 25L 4 25Q 0 25 0 21Z" stroke="rgba(255,255,255,1)" stroke-width="1.5" fill-opacity="1" fill="#505460"></path><g id="SvgjsG1559"><text id="SvgjsText1560" font-family="&quot;Microsoft YaHei&quot;, 微软雅黑, Arial" text-anchor="middle" font-size="13px" width="59px" fill="#ffffff" font-weight="400" align="middle" lineHeight="125%" anchor="middle" family="&quot;Microsoft YaHei&quot;, 微软雅黑, Arial" size="13px" weight="400" font-style="" opacity="1" y="1.875" transform="rotate(0)"><tspan id="SvgjsTspan1561" dy="16.25" x="39.5"><tspan id="SvgjsTspan1562" style="">send</tspan></tspan></text></g></g><g id="SvgjsG1563" transform="translate(447,333)"><path id="SvgjsPath1564" d="M 0 4Q 0 0 4 0L 177 0Q 181 0 181 4L 181 64Q 181 68 177 68L 4 68Q 0 68 0 64Z" stroke="rgba(220,186,132,1)" stroke-width="1.5" fill-opacity="1" fill="#505460"></path><g id="SvgjsG1565"><text id="SvgjsText1566" font-family="&quot;Microsoft YaHei&quot;, 微软雅黑, Arial" text-anchor="middle" font-size="13px" width="161px" fill="#dcba84" font-weight="400" align="top" lineHeight="125%" anchor="middle" family="&quot;Microsoft YaHei&quot;, 微软雅黑, Arial" size="13px" weight="400" font-style="" opacity="1" y="-2.625" transform="rotate(0)"><tspan id="SvgjsTspan1567" dy="16.25" x="90.5"><tspan id="SvgjsTspan1568" style="">Handler1</tspan></tspan></text></g></g><g id="SvgjsG1569" transform="translate(456,361)"><path id="SvgjsPath1570" d="M 0 4Q 0 0 4 0L 75 0Q 79 0 79 4L 79 21Q 79 25 75 25L 4 25Q 0 25 0 21Z" stroke="rgba(255,255,255,1)" stroke-width="1.5" fill-opacity="1" fill="#505460"></path><g id="SvgjsG1571"><text id="SvgjsText1572" font-family="&quot;Microsoft YaHei&quot;, 微软雅黑, Arial" text-anchor="middle" font-size="13px" width="59px" fill="#ffffff" font-weight="400" align="middle" lineHeight="125%" anchor="middle" family="&quot;Microsoft YaHei&quot;, 微软雅黑, Arial" size="13px" weight="400" font-style="" opacity="1" y="1.875" transform="rotate(0)"><tspan id="SvgjsTspan1573" dy="16.25" x="39.5"><tspan id="SvgjsTspan1574" style="">read</tspan></tspan></text></g></g><g id="SvgjsG1575" transform="translate(541,361)"><path id="SvgjsPath1576" d="M 0 4Q 0 0 4 0L 75 0Q 79 0 79 4L 79 21Q 79 25 75 25L 4 25Q 0 25 0 21Z" stroke="rgba(255,255,255,1)" stroke-width="1.5" fill-opacity="1" fill="#505460"></path><g id="SvgjsG1577"><text id="SvgjsText1578" font-family="&quot;Microsoft YaHei&quot;, 微软雅黑, Arial" text-anchor="middle" font-size="13px" width="59px" fill="#ffffff" font-weight="400" align="middle" lineHeight="125%" anchor="middle" family="&quot;Microsoft YaHei&quot;, 微软雅黑, Arial" size="13px" weight="400" font-style="" opacity="1" y="1.875" transform="rotate(0)"><tspan id="SvgjsTspan1579" dy="16.25" x="39.5"><tspan id="SvgjsTspan1580" style="">send</tspan></tspan></text></g></g><g id="SvgjsG1581"><path id="SvgjsPath1582" d="M428.75 128.5L518.3 128.5" stroke="#ffffff" stroke-width="1.5" fill="none" marker-end="url(#SvgjsMarker1583)"></path><rect id="SvgjsRect1585" width="52" height="18" x="443.1919354838709" y="119.5" fill="#ffffff"></rect><text id="SvgjsText1586" font-family="&quot;Microsoft YaHei&quot;, 微软雅黑, Arial" text-anchor="middle" font-size="13px" width="52px" fill="#323232" font-weight="400" align="top" lineHeight="16px" anchor="middle" family="&quot;Microsoft YaHei&quot;, 微软雅黑, Arial" size="13px" weight="400" font-style="" opacity="1" y="116.875" transform="rotate(0)"><tspan id="SvgjsTspan1587" dy="16.25" x="469.1919354838709"><tspan id="SvgjsTspan1588" style="">建立连接</tspan></tspan></text></g><g id="SvgjsG1589"><path id="SvgjsPath1590" d="M334.18897500301955 162.2963333346321L424.01968998912946 200.93319999532451" stroke="#ffffff" stroke-width="1.5" fill="none" marker-end="url(#SvgjsMarker1591)"></path></g><g id="SvgjsG1593"><path id="SvgjsPath1594" d="M425.8710943603743 269.408629045036L330.2640603026524 331.5289354378705" stroke="#ffffff" stroke-width="1.5" fill="none" marker-end="url(#SvgjsMarker1595)"></path><rect id="SvgjsRect1597" width="52" height="18" x="352.78385491350497" y="291.0033836094992" fill="#ffffff"></rect><text id="SvgjsText1598" font-family="&quot;Microsoft YaHei&quot;, 微软雅黑, Arial" text-anchor="middle" font-size="13px" width="52px" fill="#323232" font-weight="400" align="top" lineHeight="16px" anchor="middle" family="&quot;Microsoft YaHei&quot;, 微软雅黑, Arial" size="13px" weight="400" font-style="" opacity="1" y="288.3783836094992" transform="rotate(0)"><tspan id="SvgjsTspan1599" dy="16.25" x="378.78385491350497"><tspan id="SvgjsTspan1600" style="">处理请求</tspan></tspan></text></g><g id="SvgjsG1601"><path id="SvgjsPath1602" d="M427.1497366173501 269.3746229145081L535.1609481775399 331.65135750777074" stroke="#ffffff" stroke-width="1.5" fill="none" marker-end="url(#SvgjsMarker1603)"></path><rect id="SvgjsRect1605" width="52" height="18" x="450.97095240217914" y="289.1003689526077" fill="#ffffff"></rect><text id="SvgjsText1606" font-family="&quot;Microsoft YaHei&quot;, 微软雅黑, Arial" text-anchor="middle" font-size="13px" width="52px" fill="#323232" font-weight="400" align="top" lineHeight="16px" anchor="middle" family="&quot;Microsoft YaHei&quot;, 微软雅黑, Arial" size="13px" weight="400" font-style="" opacity="1" y="286.4753689526077" transform="rotate(0)"><tspan id="SvgjsTspan1607" dy="16.25" x="476.97095240217914"><tspan id="SvgjsTspan1608" style="">处理请求</tspan></tspan></text></g><g id="SvgjsG1609"><path id="SvgjsPath1610" d="M333.5454994635944 401.74861859368616L338.33620193106015 480.57172244238257" stroke="#ffffff" stroke-width="1.5" fill="none" marker-end="url(#SvgjsMarker1611)"></path></g><g id="SvgjsG1613"><path id="SvgjsPath1614" d="M537.3312257840619 401.73076348022767L519.1075871773771 480.63600085083294" stroke="#ffffff" stroke-width="1.5" fill="none" marker-end="url(#SvgjsMarker1615)"></path></g><g id="SvgjsG1617"></g></svg>