<svg id="SvgjsSvg1096" width="891.890756302521" height="573" xmlns="http://www.w3.org/2000/svg" version="1.1" xmlns:xlink="http://www.w3.org/1999/xlink" xmlns:svgjs="http://svgjs.com/svgjs"><defs id="SvgjsDefs1097"><pattern patternUnits="userSpaceOnUse" id="pattern_mark_0" width="300" height="300"><text x="150" y="100" fill="rgba(229,229,229,0.8)" font-size="18" transform="rotate(-45, 150, 150)" style="dominant-baseline: middle; text-anchor: middle;"></text></pattern><pattern patternUnits="userSpaceOnUse" id="pattern_mark_1" width="300" height="300"><text x="150" y="200" fill="rgba(229,229,229,0.8)" font-size="18" transform="rotate(-45, 150, 150)" style="dominant-baseline: middle; text-anchor: middle;"></text></pattern><marker id="SvgjsMarker1145" markerWidth="13" markerHeight="9" refX="9.5" refY="4.5" viewBox="0 0 13 9" orient="auto" markerUnits="userSpaceOnUse" stroke-dasharray="0,0"><path id="SvgjsPath1146" d="M0,0 L13,4.5 L0,9 L0,0" fill="#323232" stroke="#323232" stroke-width="1"></path></marker><marker id="SvgjsMarker1149" markerWidth="13" markerHeight="9" refX="9.5" refY="4.5" viewBox="0 0 13 9" orient="auto" markerUnits="userSpaceOnUse" stroke-dasharray="0,0"><path id="SvgjsPath1150" d="M0,0 L13,4.5 L0,9 L0,0" fill="#323232" stroke="#323232" stroke-width="1"></path></marker></defs><rect id="svgbackgroundid" width="891.890756302521" height="573" fill="transparent"></rect><rect id="SvgjsRect1099" width="891.890756302521" height="573" fill="url(#pattern_mark_0)"></rect><rect id="SvgjsRect1100" width="891.890756302521" height="573" fill="url(#pattern_mark_1)"></rect><g id="SvgjsG1101" transform="translate(392,25)"><path id="SvgjsPath1102" d="M 0 4Q 0 0 4 0L 102.891 0Q 106.891 0 106.891 4L 106.891 50Q 106.891 54 102.891 54L 4 54Q 0 54 0 50Z" stroke="rgba(33,41,48,1)" stroke-width="1.5" fill-opacity="1" fill="#3399ff"></path><g id="SvgjsG1103"><text id="SvgjsText1104" font-family="&quot;Microsoft YaHei&quot;, 微软雅黑, Arial" text-anchor="middle" font-size="13px" width="87px" fill="#323232" font-weight="400" align="middle" lineHeight="125%" anchor="middle" family="&quot;Microsoft YaHei&quot;, 微软雅黑, Arial" size="13px" weight="400" font-style="" opacity="1" y="16.375" transform="rotate(0)"><tspan id="SvgjsTspan1105" dy="16.25" x="53.5"><tspan id="SvgjsTspan1106" style="">Server</tspan></tspan></text></g></g><g id="SvgjsG1107" transform="translate(621.90756302521,162)"><path id="SvgjsPath1108" d="M 0 27C 0 -9 89.076 -9 89.076 27C 89.076 63 0 63 0 27Z" stroke="rgba(33,41,48,1)" stroke-width="1.5" fill-opacity="1" fill="#65ff65"></path><g id="SvgjsG1109"><text id="SvgjsText1110" font-family="&quot;Microsoft YaHei&quot;, 微软雅黑, Arial" text-anchor="middle" font-size="13px" width="70px" fill="#323232" font-weight="400" align="middle" lineHeight="125%" anchor="middle" family="&quot;Microsoft YaHei&quot;, 微软雅黑, Arial" size="13px" weight="400" font-style="" opacity="1" y="16.375" transform="rotate(0)"><tspan id="SvgjsTspan1111" dy="16.25" x="45"><tspan id="SvgjsTspan1112" style="">Thread</tspan></tspan></text></g></g><g id="SvgjsG1113" transform="translate(180.9075630252101,162)"><path id="SvgjsPath1114" d="M 0 27C 0 -9 89.076 -9 89.076 27C 89.076 63 0 63 0 27Z" stroke="rgba(33,41,48,1)" stroke-width="1.5" fill-opacity="1" fill="#65ff65"></path><g id="SvgjsG1115"><text id="SvgjsText1116" font-family="&quot;Microsoft YaHei&quot;, 微软雅黑, Arial" text-anchor="middle" font-size="13px" width="70px" fill="#323232" font-weight="400" align="middle" lineHeight="125%" anchor="middle" family="&quot;Microsoft YaHei&quot;, 微软雅黑, Arial" size="13px" weight="400" font-style="" opacity="1" y="16.375" transform="rotate(0)"><tspan id="SvgjsTspan1117" dy="16.25" x="45"><tspan id="SvgjsTspan1118" style="">Thread</tspan></tspan></text></g></g><g id="SvgjsG1119" transform="translate(613,380)"><path id="SvgjsPath1120" d="M 0 0L 106.891 0L 106.891 54L 0 54Z" stroke="rgba(33,41,48,1)" stroke-width="1.5" fill-opacity="1" fill="#ff9999"></path><g id="SvgjsG1121"><text id="SvgjsText1122" font-family="&quot;Microsoft YaHei&quot;, 微软雅黑, Arial" text-anchor="middle" font-size="13px" width="87px" fill="#323232" font-weight="400" align="middle" lineHeight="125%" anchor="middle" family="&quot;Microsoft YaHei&quot;, 微软雅黑, Arial" size="13px" weight="400" font-style="" opacity="1" y="16.375" transform="rotate(0)"><tspan id="SvgjsTspan1123" dy="16.25" x="53.5"><tspan id="SvgjsTspan1124" style="">Read/Write</tspan></tspan></text></g></g><g id="SvgjsG1125" transform="translate(172,380)"><path id="SvgjsPath1126" d="M 0 0L 106.891 0L 106.891 54L 0 54Z" stroke="rgba(33,41,48,1)" stroke-width="1.5" fill-opacity="1" fill="#ff9999"></path><g id="SvgjsG1127"><text id="SvgjsText1128" font-family="&quot;Microsoft YaHei&quot;, 微软雅黑, Arial" text-anchor="middle" font-size="13px" width="87px" fill="#323232" font-weight="400" align="middle" lineHeight="125%" anchor="middle" family="&quot;Microsoft YaHei&quot;, 微软雅黑, Arial" size="13px" weight="400" font-style="" opacity="1" y="16.375" transform="rotate(0)"><tspan id="SvgjsTspan1129" dy="16.25" x="53.5"><tspan id="SvgjsTspan1130" style="">Read/Write</tspan></tspan></text></g></g><g id="SvgjsG1131" transform="translate(172,494)"><path id="SvgjsPath1132" d="M 0 0L 106.891 0L 106.891 54L 0 54Z" stroke="rgba(33,41,48,1)" stroke-width="1.5" fill-opacity="1" fill="#66ffff"></path><g id="SvgjsG1133"><text id="SvgjsText1134" font-family="&quot;Microsoft YaHei&quot;, 微软雅黑, Arial" text-anchor="middle" font-size="13px" width="87px" fill="#323232" font-weight="400" align="middle" lineHeight="125%" anchor="middle" family="&quot;Microsoft YaHei&quot;, 微软雅黑, Arial" size="13px" weight="400" font-style="" opacity="1" y="16.375" transform="rotate(0)"><tspan id="SvgjsTspan1135" dy="16.25" x="53.5"><tspan id="SvgjsTspan1136" style="">Client(Socket)</tspan></tspan></text></g></g><g id="SvgjsG1137" transform="translate(613,494)"><path id="SvgjsPath1138" d="M 0 0L 106.891 0L 106.891 54L 0 54Z" stroke="rgba(33,41,48,1)" stroke-width="1.5" fill-opacity="1" fill="#66ffff"></path><g id="SvgjsG1139"><text id="SvgjsText1140" font-family="&quot;Microsoft YaHei&quot;, 微软雅黑, Arial" text-anchor="middle" font-size="13px" width="87px" fill="#323232" font-weight="400" align="middle" lineHeight="125%" anchor="middle" family="&quot;Microsoft YaHei&quot;, 微软雅黑, Arial" size="13px" weight="400" font-style="" opacity="1" y="16.375" transform="rotate(0)"><tspan id="SvgjsTspan1141" dy="16.25" x="53.5"><tspan id="SvgjsTspan1142" style="">Client(Socket)</tspan></tspan></text></g></g><g id="SvgjsG1143"><path id="SvgjsPath1144" d="M445.3492265610306 79.74385983114294C 445.44499999999994 173.0542416006632 225.4455630252101 67.9457583993368 225.79034740549952 159.32210460788542" stroke="#323232" stroke-width="1.5" fill="none" marker-end="url(#SvgjsMarker1145)"></path></g><g id="SvgjsG1147"><path id="SvgjsPath1148" d="M445.54044163356843 79.74390247652616C 445.44499999999994 173.42901999488072 666.44556302521 67.57098000511928 666.1019731443633 159.32195108450577" stroke="#323232" stroke-width="1.5" fill="none" marker-end="url(#SvgjsMarker1149)"></path></g><g id="SvgjsG1151"><path id="SvgjsPath1152" d="M225.4455619287861 216.7499999999992C 225.4455630252101 240.00000000011391 225.44537815126046 251.99999999988609 225.4453792476844 275.2500000000008" stroke="#323232" stroke-width="1.5" fill="none"></path></g><g id="SvgjsG1153"><path id="SvgjsPath1154" d="M225.445 434.75C 225.445 458 225.445 470 225.445 493.25" stroke="#323232" stroke-width="1.5" fill="none"></path></g><g id="SvgjsG1155"><path id="SvgjsPath1156" d="M666.4455619287861 216.7499999999992C 666.44556302521 240.00000000011391 666.4453781512605 251.99999999988609 666.4453792476844 275.2500000000008" stroke="#323232" stroke-width="1.5" fill="none"></path></g><g id="SvgjsG1157"><path id="SvgjsPath1158" d="M666.445 434.75C 666.445 458 666.445 470 666.445 493.25" stroke="#323232" stroke-width="1.5" fill="none"></path></g><g id="SvgjsG1159" transform="translate(158.44537815126046,276)"><path id="SvgjsPath1160" d="M 0 0L 134 0L 134 44L 0 44Z" stroke="rgba(33,41,48,1)" stroke-width="1.5" fill-opacity="1" fill="#cc99ff"></path><g id="SvgjsG1161"><text id="SvgjsText1162" font-family="&quot;Microsoft YaHei&quot;, 微软雅黑, Arial" text-anchor="middle" font-size="13px" width="114px" fill="#323232" font-weight="400" align="middle" lineHeight="125%" anchor="middle" family="&quot;Microsoft YaHei&quot;, 微软雅黑, Arial" size="13px" weight="400" font-style="" opacity="1" y="11.375" transform="rotate(0)"><tspan id="SvgjsTspan1163" dy="16.25" x="67"><tspan id="SvgjsTspan1164" style="">Selector(选择器)</tspan></tspan></text></g></g><g id="SvgjsG1165"><path id="SvgjsPath1166" d="M225.4453792476844 320.7499999999992C 225.44537815126046 344.0000000001139 225.4455630252101 355.9999999998861 225.4455619287861 379.2500000000008" stroke="#323232" stroke-width="1.5" fill="none"></path></g><g id="SvgjsG1167" transform="translate(599.4453781512605,276)"><path id="SvgjsPath1168" d="M 0 0L 134 0L 134 44L 0 44Z" stroke="rgba(33,41,48,1)" stroke-width="1.5" fill-opacity="1" fill="#cc99ff"></path><g id="SvgjsG1169"><text id="SvgjsText1170" font-family="&quot;Microsoft YaHei&quot;, 微软雅黑, Arial" text-anchor="middle" font-size="13px" width="114px" fill="#323232" font-weight="400" align="middle" lineHeight="125%" anchor="middle" family="&quot;Microsoft YaHei&quot;, 微软雅黑, Arial" size="13px" weight="400" font-style="" opacity="1" y="11.375" transform="rotate(0)"><tspan id="SvgjsTspan1171" dy="16.25" x="67"><tspan id="SvgjsTspan1172" style="">Selector(选择器)</tspan></tspan></text></g></g><g id="SvgjsG1173"><path id="SvgjsPath1174" d="M666.4453792476844 320.7499999999992C 666.4453781512605 344.0000000001139 666.44556302521 355.9999999998861 666.4455619287861 379.2500000000008" stroke="#323232" stroke-width="1.5" fill="none"></path></g><g id="SvgjsG1175" transform="translate(319,380)"><path id="SvgjsPath1176" d="M 0 0L 106.891 0L 106.891 54L 0 54Z" stroke="rgba(33,41,48,1)" stroke-width="1.5" fill-opacity="1" fill="#ff9999"></path><g id="SvgjsG1177"><text id="SvgjsText1178" font-family="&quot;Microsoft YaHei&quot;, 微软雅黑, Arial" text-anchor="middle" font-size="13px" width="87px" fill="#323232" font-weight="400" align="middle" lineHeight="125%" anchor="middle" family="&quot;Microsoft YaHei&quot;, 微软雅黑, Arial" size="13px" weight="400" font-style="" opacity="1" y="16.375" transform="rotate(0)"><tspan id="SvgjsTspan1179" dy="16.25" x="53.5"><tspan id="SvgjsTspan1180" style="">Read/Write</tspan></tspan></text></g></g><g id="SvgjsG1181" transform="translate(319,494)"><path id="SvgjsPath1182" d="M 0 0L 106.891 0L 106.891 54L 0 54Z" stroke="rgba(33,41,48,1)" stroke-width="1.5" fill-opacity="1" fill="#66ffff"></path><g id="SvgjsG1183"><text id="SvgjsText1184" font-family="&quot;Microsoft YaHei&quot;, 微软雅黑, Arial" text-anchor="middle" font-size="13px" width="87px" fill="#323232" font-weight="400" align="middle" lineHeight="125%" anchor="middle" family="&quot;Microsoft YaHei&quot;, 微软雅黑, Arial" size="13px" weight="400" font-style="" opacity="1" y="16.375" transform="rotate(0)"><tspan id="SvgjsTspan1185" dy="16.25" x="53.5"><tspan id="SvgjsTspan1186" style="">Client(Socket)</tspan></tspan></text></g></g><g id="SvgjsG1187"><path id="SvgjsPath1188" d="M372.445 434.75C 372.445 458 372.445 470 372.445 493.25" stroke="#323232" stroke-width="1.5" fill="none"></path></g><g id="SvgjsG1189" transform="translate(466,380)"><path id="SvgjsPath1190" d="M 0 0L 106.891 0L 106.891 54L 0 54Z" stroke="rgba(33,41,48,1)" stroke-width="1.5" fill-opacity="1" fill="#ff9999"></path><g id="SvgjsG1191"><text id="SvgjsText1192" font-family="&quot;Microsoft YaHei&quot;, 微软雅黑, Arial" text-anchor="middle" font-size="13px" width="87px" fill="#323232" font-weight="400" align="middle" lineHeight="125%" anchor="middle" family="&quot;Microsoft YaHei&quot;, 微软雅黑, Arial" size="13px" weight="400" font-style="" opacity="1" y="16.375" transform="rotate(0)"><tspan id="SvgjsTspan1193" dy="16.25" x="53.5"><tspan id="SvgjsTspan1194" style="">Read/Write</tspan></tspan></text></g></g><g id="SvgjsG1195" transform="translate(466,494)"><path id="SvgjsPath1196" d="M 0 0L 106.891 0L 106.891 54L 0 54Z" stroke="rgba(33,41,48,1)" stroke-width="1.5" fill-opacity="1" fill="#66ffff"></path><g id="SvgjsG1197"><text id="SvgjsText1198" font-family="&quot;Microsoft YaHei&quot;, 微软雅黑, Arial" text-anchor="middle" font-size="13px" width="87px" fill="#323232" font-weight="400" align="middle" lineHeight="125%" anchor="middle" family="&quot;Microsoft YaHei&quot;, 微软雅黑, Arial" size="13px" weight="400" font-style="" opacity="1" y="16.375" transform="rotate(0)"><tspan id="SvgjsTspan1199" dy="16.25" x="53.5"><tspan id="SvgjsTspan1200" style="">Client(Socket)</tspan></tspan></text></g></g><g id="SvgjsG1201"><path id="SvgjsPath1202" d="M519.4449999999999 434.75C 519.4449999999999 458 519.4449999999999 470 519.4449999999999 493.25" stroke="#323232" stroke-width="1.5" fill="none"></path></g><g id="SvgjsG1203" transform="translate(760,380)"><path id="SvgjsPath1204" d="M 0 0L 106.891 0L 106.891 54L 0 54Z" stroke="rgba(33,41,48,1)" stroke-width="1.5" fill-opacity="1" fill="#ff9999"></path><g id="SvgjsG1205"><text id="SvgjsText1206" font-family="&quot;Microsoft YaHei&quot;, 微软雅黑, Arial" text-anchor="middle" font-size="13px" width="87px" fill="#323232" font-weight="400" align="middle" lineHeight="125%" anchor="middle" family="&quot;Microsoft YaHei&quot;, 微软雅黑, Arial" size="13px" weight="400" font-style="" opacity="1" y="16.375" transform="rotate(0)"><tspan id="SvgjsTspan1207" dy="16.25" x="53.5"><tspan id="SvgjsTspan1208" style="">Read/Write</tspan></tspan></text></g></g><g id="SvgjsG1209" transform="translate(760,494)"><path id="SvgjsPath1210" d="M 0 0L 106.891 0L 106.891 54L 0 54Z" stroke="rgba(33,41,48,1)" stroke-width="1.5" fill-opacity="1" fill="#66ffff"></path><g id="SvgjsG1211"><text id="SvgjsText1212" font-family="&quot;Microsoft YaHei&quot;, 微软雅黑, Arial" text-anchor="middle" font-size="13px" width="87px" fill="#323232" font-weight="400" align="middle" lineHeight="125%" anchor="middle" family="&quot;Microsoft YaHei&quot;, 微软雅黑, Arial" size="13px" weight="400" font-style="" opacity="1" y="16.375" transform="rotate(0)"><tspan id="SvgjsTspan1213" dy="16.25" x="53.5"><tspan id="SvgjsTspan1214" style="">Client(Socket)</tspan></tspan></text></g></g><g id="SvgjsG1215"><path id="SvgjsPath1216" d="M813.4449999999999 434.75C 813.4449999999999 458 813.4449999999999 470 813.4449999999999 493.25" stroke="#323232" stroke-width="1.5" fill="none"></path></g><g id="SvgjsG1217" transform="translate(25,380)"><path id="SvgjsPath1218" d="M 0 0L 106.891 0L 106.891 54L 0 54Z" stroke="rgba(33,41,48,1)" stroke-width="1.5" fill-opacity="1" fill="#ff9999"></path><g id="SvgjsG1219"><text id="SvgjsText1220" font-family="&quot;Microsoft YaHei&quot;, 微软雅黑, Arial" text-anchor="middle" font-size="13px" width="87px" fill="#323232" font-weight="400" align="middle" lineHeight="125%" anchor="middle" family="&quot;Microsoft YaHei&quot;, 微软雅黑, Arial" size="13px" weight="400" font-style="" opacity="1" y="16.375" transform="rotate(0)"><tspan id="SvgjsTspan1221" dy="16.25" x="53.5"><tspan id="SvgjsTspan1222" style="">Read/Write</tspan></tspan></text></g></g><g id="SvgjsG1223" transform="translate(25,494)"><path id="SvgjsPath1224" d="M 0 0L 106.891 0L 106.891 54L 0 54Z" stroke="rgba(33,41,48,1)" stroke-width="1.5" fill-opacity="1" fill="#66ffff"></path><g id="SvgjsG1225"><text id="SvgjsText1226" font-family="&quot;Microsoft YaHei&quot;, 微软雅黑, Arial" text-anchor="middle" font-size="13px" width="87px" fill="#323232" font-weight="400" align="middle" lineHeight="125%" anchor="middle" family="&quot;Microsoft YaHei&quot;, 微软雅黑, Arial" size="13px" weight="400" font-style="" opacity="1" y="16.375" transform="rotate(0)"><tspan id="SvgjsTspan1227" dy="16.25" x="53.5"><tspan id="SvgjsTspan1228" style="">Client(Socket)</tspan></tspan></text></g></g><g id="SvgjsG1229"><path id="SvgjsPath1230" d="M78.445 434.75C 78.445 458 78.445 470 78.445 493.25" stroke="#323232" stroke-width="1.5" fill="none"></path></g><g id="SvgjsG1231"><path id="SvgjsPath1232" d="M78.58845219080382 379.2638468440918C 78.44500000000002 316.4904905682765 225.44537815126046 383.5095094317235 225.30192596045663 320.7361531559082" stroke="#323232" stroke-width="1.5" fill="none"></path></g><g id="SvgjsG1233"><path id="SvgjsPath1234" d="M372.3015472821818 379.2638469467899C 372.445 316.4907706566393 225.44537815126046 383.5092293433607 225.58883086907866 320.7361530532101" stroke="#323232" stroke-width="1.5" fill="none"></path></g><g id="SvgjsG1235"><path id="SvgjsPath1236" d="M519.5884521908039 379.2638468440918C 519.445 316.4904905682765 666.4453781512605 383.5095094317235 666.3019259604566 320.7361531559082" stroke="#323232" stroke-width="1.5" fill="none"></path></g><g id="SvgjsG1237"><path id="SvgjsPath1238" d="M813.3015472821819 379.2638469467899C 813.445 316.49077065663926 666.4453781512605 383.50922934336074 666.5888308690787 320.7361530532101" stroke="#323232" stroke-width="1.5" fill="none"></path></g><g id="SvgjsG1239"></g></svg>