<svg id="SvgjsSvg1006" width="580.0000000000001" height="466" xmlns="http://www.w3.org/2000/svg" version="1.1" xmlns:xlink="http://www.w3.org/1999/xlink" xmlns:svgjs="http://svgjs.com/svgjs"><defs id="SvgjsDefs1007"><pattern patternUnits="userSpaceOnUse" id="pattern_mark_0" width="300" height="300"><text x="150" y="100" fill="rgba(229,229,229,0.8)" font-size="18" transform="rotate(-45, 150, 150)" style="dominant-baseline: middle; text-anchor: middle;"></text></pattern><pattern patternUnits="userSpaceOnUse" id="pattern_mark_1" width="300" height="300"><text x="150" y="200" fill="rgba(229,229,229,0.8)" font-size="18" transform="rotate(-45, 150, 150)" style="dominant-baseline: middle; text-anchor: middle;"></text></pattern><marker id="SvgjsMarker1073" markerWidth="13" markerHeight="9" refX="9.5" refY="4.5" viewBox="0 0 13 9" orient="auto" markerUnits="userSpaceOnUse" stroke-dasharray="0,0"><path id="SvgjsPath1074" d="M0,0 L13,4.5 L0,9 L0,0" fill="#323232" stroke="#323232" stroke-width="1"></path></marker><marker id="SvgjsMarker1077" markerWidth="13" markerHeight="9" refX="9.5" refY="4.5" viewBox="0 0 13 9" orient="auto" markerUnits="userSpaceOnUse" stroke-dasharray="0,0"><path id="SvgjsPath1078" d="M0,0 L13,4.5 L0,9 L0,0" fill="#323232" stroke="#323232" stroke-width="1"></path></marker><marker id="SvgjsMarker1081" markerWidth="13" markerHeight="9" refX="9.5" refY="4.5" viewBox="0 0 13 9" orient="auto" markerUnits="userSpaceOnUse" stroke-dasharray="0,0"><path id="SvgjsPath1082" d="M0,0 L13,4.5 L0,9 L0,0" fill="#323232" stroke="#323232" stroke-width="1"></path></marker></defs><rect id="svgbackgroundid" width="580.0000000000001" height="466" fill="transparent"></rect><rect id="SvgjsRect1009" width="580.0000000000001" height="466" fill="url(#pattern_mark_0)"></rect><rect id="SvgjsRect1010" width="580.0000000000001" height="466" fill="url(#pattern_mark_1)"></rect><g id="SvgjsG1011" transform="translate(236.55462184873954,25)"><path id="SvgjsPath1012" d="M 0 4Q 0 0 4 0L 102.891 0Q 106.891 0 106.891 4L 106.891 50Q 106.891 54 102.891 54L 4 54Q 0 54 0 50Z" stroke="rgba(33,41,48,1)" stroke-width="1.5" fill-opacity="1" fill="#3399ff"></path><g id="SvgjsG1013"><text id="SvgjsText1014" font-family="&quot;Microsoft YaHei&quot;, 微软雅黑, Arial" text-anchor="middle" font-size="13px" width="87px" fill="#323232" font-weight="400" align="middle" lineHeight="125%" anchor="middle" family="&quot;Microsoft YaHei&quot;, 微软雅黑, Arial" size="13px" weight="400" font-style="" opacity="1" y="16.375" transform="rotate(0)"><tspan id="SvgjsTspan1015" dy="16.25" x="53.5"><tspan id="SvgjsTspan1016" style="">Server</tspan></tspan></text></g></g><g id="SvgjsG1017" transform="translate(245.46218487394958,159)"><path id="SvgjsPath1018" d="M 0 27C 0 -9 89.076 -9 89.076 27C 89.076 63 0 63 0 27Z" stroke="rgba(33,41,48,1)" stroke-width="1.5" fill-opacity="1" fill="#65ff65"></path><g id="SvgjsG1019"><text id="SvgjsText1020" font-family="&quot;Microsoft YaHei&quot;, 微软雅黑, Arial" text-anchor="middle" font-size="13px" width="70px" fill="#323232" font-weight="400" align="middle" lineHeight="125%" anchor="middle" family="&quot;Microsoft YaHei&quot;, 微软雅黑, Arial" size="13px" weight="400" font-style="" opacity="1" y="16.375" transform="rotate(0)"><tspan id="SvgjsTspan1021" dy="16.25" x="45"><tspan id="SvgjsTspan1022" style="">Thread</tspan></tspan></text></g></g><g id="SvgjsG1023" transform="translate(457.0168067226891,159)"><path id="SvgjsPath1024" d="M 0 27C 0 -9 89.076 -9 89.076 27C 89.076 63 0 63 0 27Z" stroke="rgba(33,41,48,1)" stroke-width="1.5" fill-opacity="1" fill="#65ff65"></path><g id="SvgjsG1025"><text id="SvgjsText1026" font-family="&quot;Microsoft YaHei&quot;, 微软雅黑, Arial" text-anchor="middle" font-size="13px" width="70px" fill="#323232" font-weight="400" align="middle" lineHeight="125%" anchor="middle" family="&quot;Microsoft YaHei&quot;, 微软雅黑, Arial" size="13px" weight="400" font-style="" opacity="1" y="16.375" transform="rotate(0)"><tspan id="SvgjsTspan1027" dy="16.25" x="45"><tspan id="SvgjsTspan1028" style="">Thread</tspan></tspan></text></g></g><g id="SvgjsG1029" transform="translate(33.907563025210095,159)"><path id="SvgjsPath1030" d="M 0 27C 0 -9 89.076 -9 89.076 27C 89.076 63 0 63 0 27Z" stroke="rgba(33,41,48,1)" stroke-width="1.5" fill-opacity="1" fill="#65ff65"></path><g id="SvgjsG1031"><text id="SvgjsText1032" font-family="&quot;Microsoft YaHei&quot;, 微软雅黑, Arial" text-anchor="middle" font-size="13px" width="70px" fill="#323232" font-weight="400" align="middle" lineHeight="125%" anchor="middle" family="&quot;Microsoft YaHei&quot;, 微软雅黑, Arial" size="13px" weight="400" font-style="" opacity="1" y="16.375" transform="rotate(0)"><tspan id="SvgjsTspan1033" dy="16.25" x="45"><tspan id="SvgjsTspan1034" style="">Thread</tspan></tspan></text></g></g><g id="SvgjsG1035" transform="translate(236.55462184873954,273)"><path id="SvgjsPath1036" d="M 0 0L 106.891 0L 106.891 54L 0 54Z" stroke="rgba(33,41,48,1)" stroke-width="1.5" fill-opacity="1" fill="#ff9999"></path><g id="SvgjsG1037"><text id="SvgjsText1038" font-family="&quot;Microsoft YaHei&quot;, 微软雅黑, Arial" text-anchor="middle" font-size="13px" width="87px" fill="#323232" font-weight="400" align="middle" lineHeight="125%" anchor="middle" family="&quot;Microsoft YaHei&quot;, 微软雅黑, Arial" size="13px" weight="400" font-style="" opacity="1" y="16.375" transform="rotate(0)"><tspan id="SvgjsTspan1039" dy="16.25" x="53.5"><tspan id="SvgjsTspan1040" style="">Read/Write</tspan></tspan></text></g></g><g id="SvgjsG1041" transform="translate(448.1092436974791,273)"><path id="SvgjsPath1042" d="M 0 0L 106.891 0L 106.891 54L 0 54Z" stroke="rgba(33,41,48,1)" stroke-width="1.5" fill-opacity="1" fill="#ff9999"></path><g id="SvgjsG1043"><text id="SvgjsText1044" font-family="&quot;Microsoft YaHei&quot;, 微软雅黑, Arial" text-anchor="middle" font-size="13px" width="87px" fill="#323232" font-weight="400" align="middle" lineHeight="125%" anchor="middle" family="&quot;Microsoft YaHei&quot;, 微软雅黑, Arial" size="13px" weight="400" font-style="" opacity="1" y="16.375" transform="rotate(0)"><tspan id="SvgjsTspan1045" dy="16.25" x="53.5"><tspan id="SvgjsTspan1046" style="">Read/Write</tspan></tspan></text></g></g><g id="SvgjsG1047" transform="translate(25,273)"><path id="SvgjsPath1048" d="M 0 0L 106.891 0L 106.891 54L 0 54Z" stroke="rgba(33,41,48,1)" stroke-width="1.5" fill-opacity="1" fill="#ff9999"></path><g id="SvgjsG1049"><text id="SvgjsText1050" font-family="&quot;Microsoft YaHei&quot;, 微软雅黑, Arial" text-anchor="middle" font-size="13px" width="87px" fill="#323232" font-weight="400" align="middle" lineHeight="125%" anchor="middle" family="&quot;Microsoft YaHei&quot;, 微软雅黑, Arial" size="13px" weight="400" font-style="" opacity="1" y="16.375" transform="rotate(0)"><tspan id="SvgjsTspan1051" dy="16.25" x="53.5"><tspan id="SvgjsTspan1052" style="">Read/Write</tspan></tspan></text></g></g><g id="SvgjsG1053" transform="translate(25,387)"><path id="SvgjsPath1054" d="M 0 0L 106.891 0L 106.891 54L 0 54Z" stroke="rgba(33,41,48,1)" stroke-width="1.5" fill-opacity="1" fill="#66ffff"></path><g id="SvgjsG1055"><text id="SvgjsText1056" font-family="&quot;Microsoft YaHei&quot;, 微软雅黑, Arial" text-anchor="middle" font-size="13px" width="87px" fill="#323232" font-weight="400" align="middle" lineHeight="125%" anchor="middle" family="&quot;Microsoft YaHei&quot;, 微软雅黑, Arial" size="13px" weight="400" font-style="" opacity="1" y="16.375" transform="rotate(0)"><tspan id="SvgjsTspan1057" dy="16.25" x="53.5"><tspan id="SvgjsTspan1058" style="">Client(Socket)</tspan></tspan></text></g></g><g id="SvgjsG1059" transform="translate(236.55462184873954,387)"><path id="SvgjsPath1060" d="M 0 0L 106.891 0L 106.891 54L 0 54Z" stroke="rgba(33,41,48,1)" stroke-width="1.5" fill-opacity="1" fill="#66ffff"></path><g id="SvgjsG1061"><text id="SvgjsText1062" font-family="&quot;Microsoft YaHei&quot;, 微软雅黑, Arial" text-anchor="middle" font-size="13px" width="87px" fill="#323232" font-weight="400" align="middle" lineHeight="125%" anchor="middle" family="&quot;Microsoft YaHei&quot;, 微软雅黑, Arial" size="13px" weight="400" font-style="" opacity="1" y="16.375" transform="rotate(0)"><tspan id="SvgjsTspan1063" dy="16.25" x="53.5"><tspan id="SvgjsTspan1064" style="">Client(Socket)</tspan></tspan></text></g></g><g id="SvgjsG1065" transform="translate(448.1092436974791,387)"><path id="SvgjsPath1066" d="M 0 0L 106.891 0L 106.891 54L 0 54Z" stroke="rgba(33,41,48,1)" stroke-width="1.5" fill-opacity="1" fill="#66ffff"></path><g id="SvgjsG1067"><text id="SvgjsText1068" font-family="&quot;Microsoft YaHei&quot;, 微软雅黑, Arial" text-anchor="middle" font-size="13px" width="87px" fill="#323232" font-weight="400" align="middle" lineHeight="125%" anchor="middle" family="&quot;Microsoft YaHei&quot;, 微软雅黑, Arial" size="13px" weight="400" font-style="" opacity="1" y="16.375" transform="rotate(0)"><tspan id="SvgjsTspan1069" dy="16.25" x="53.5"><tspan id="SvgjsTspan1070" style="">Client(Socket)</tspan></tspan></text></g></g><g id="SvgjsG1071"><path id="SvgjsPath1072" d="M289.99962184873954 79.75L289.99962184873954 119L289.99962184873954 119L289.99962184873954 156.3" stroke="#323232" stroke-width="1.5" fill="none" marker-end="url(#SvgjsMarker1073)"></path></g><g id="SvgjsG1075"><path id="SvgjsPath1076" d="M289.8998584632361 79.74333523185229C 289.99962184873954 169.46999043192994 78.4455630252101 68.53000956807006 78.8047112130223 156.32399316533176" stroke="#323232" stroke-width="1.5" fill="none" marker-end="url(#SvgjsMarker1077)"></path></g><g id="SvgjsG1079"><path id="SvgjsPath1080" d="M290.09938482965396 79.74333528615227C 289.99962184873954 169.47041173515328 501.55480672268914 68.52958826484672 501.1956599913973 156.32399296985184" stroke="#323232" stroke-width="1.5" fill="none" marker-end="url(#SvgjsMarker1081)"></path></g><g id="SvgjsG1083"><path id="SvgjsPath1084" d="M290.0001848739496 213.75C 290.0001848739496 237 290.0001848739496 249 290.0001848739496 272.25" stroke="#323232" stroke-width="1.5" fill="none"></path></g><g id="SvgjsG1085"><path id="SvgjsPath1086" d="M78.4455630252101 213.75C 78.4455630252101 237 78.4455630252101 249 78.4455630252101 272.25" stroke="#323232" stroke-width="1.5" fill="none"></path></g><g id="SvgjsG1087"><path id="SvgjsPath1088" d="M78.445 327.75C 78.445 351 78.445 363 78.445 386.25" stroke="#323232" stroke-width="1.5" fill="none"></path></g><g id="SvgjsG1089"><path id="SvgjsPath1090" d="M289.99962184873954 327.75C 289.99962184873954 351 289.99962184873954 363 289.99962184873954 386.25" stroke="#323232" stroke-width="1.5" fill="none"></path></g><g id="SvgjsG1091"><path id="SvgjsPath1092" d="M501.55480672268914 213.75C 501.55480672268914 237 501.55480672268914 249 501.55480672268914 272.25" stroke="#323232" stroke-width="1.5" fill="none"></path></g><g id="SvgjsG1093"><path id="SvgjsPath1094" d="M501.55424369747914 327.75C 501.55424369747914 351 501.55424369747914 363 501.55424369747914 386.25" stroke="#323232" stroke-width="1.5" fill="none"></path></g><g id="SvgjsG1095"></g></svg>