<svg id="SvgjsSvg2486" width="860.5238095238096" height="561.1192380952381" xmlns="http://www.w3.org/2000/svg" version="1.1" xmlns:xlink="http://www.w3.org/1999/xlink" xmlns:svgjs="http://svgjs.com/svgjs"><defs id="SvgjsDefs2487"><pattern patternUnits="userSpaceOnUse" id="pattern_mark_0" width="300" height="300"><text x="150" y="100" fill="rgba(229,229,229,0.8)" font-size="18" transform="rotate(-45, 150, 150)" style="dominant-baseline: middle; text-anchor: middle;"></text></pattern><pattern patternUnits="userSpaceOnUse" id="pattern_mark_1" width="300" height="300"><text x="150" y="200" fill="rgba(229,229,229,0.8)" font-size="18" transform="rotate(-45, 150, 150)" style="dominant-baseline: middle; text-anchor: middle;"></text></pattern><linearGradient id="SvgjsLinearGradient2493" x1="0.5" y1="0" x2="0.5" y2="1"><stop id="SvgjsStop2494" stop-opacity="1" stop-color="#ffffff" offset="0"></stop><stop id="SvgjsStop2495" stop-opacity="1" stop-color="#c3c3c3" offset="1"></stop></linearGradient><radialGradient id="SvgjsRadialGradient2500" r="0.75"><stop id="SvgjsStop2501" stop-opacity="1" stop-color="#ffffff" offset="0"></stop><stop id="SvgjsStop2502" stop-opacity="1" stop-color="#c3c3c3" offset="1"></stop></radialGradient><radialGradient id="SvgjsRadialGradient2523" r="0.75"><stop id="SvgjsStop2524" stop-opacity="1" stop-color="#ffffff" offset="0"></stop><stop id="SvgjsStop2525" stop-opacity="1" stop-color="#c3c3c3" offset="1"></stop></radialGradient><linearGradient id="SvgjsLinearGradient2546" x1="0.5" y1="0" x2="0.5" y2="1"><stop id="SvgjsStop2547" stop-opacity="1" stop-color="#ffffff" offset="0"></stop><stop id="SvgjsStop2548" stop-opacity="1" stop-color="#fcf9ea" offset="1"></stop></linearGradient><radialGradient id="SvgjsRadialGradient2601" r="0.75"><stop id="SvgjsStop2602" stop-opacity="1" stop-color="#ffffff" offset="0"></stop><stop id="SvgjsStop2603" stop-opacity="1" stop-color="#c3c3c3" offset="1"></stop></radialGradient><linearGradient id="SvgjsLinearGradient2608" x1="0.5" y1="0" x2="0.5" y2="1"><stop id="SvgjsStop2609" stop-opacity="1" stop-color="#ffffff" offset="0"></stop><stop id="SvgjsStop2610" stop-opacity="1" stop-color="#fcf9ea" offset="1"></stop></linearGradient><linearGradient id="SvgjsLinearGradient2615" x1="0.5" y1="0" x2="0.5" y2="1"><stop id="SvgjsStop2616" stop-opacity="1" stop-color="#ffffff" offset="0"></stop><stop id="SvgjsStop2617" stop-opacity="1" stop-color="#fcf9ea" offset="1"></stop></linearGradient><linearGradient id="SvgjsLinearGradient2656" x1="0.5" y1="0" x2="0.5" y2="1"><stop id="SvgjsStop2657" stop-opacity="1" stop-color="#e5f6da" offset="0"></stop><stop id="SvgjsStop2658" stop-opacity="1" stop-color="#b0e38f" offset="1"></stop></linearGradient><linearGradient id="SvgjsLinearGradient2665" x1="0.5" y1="0" x2="0.5" y2="1"><stop id="SvgjsStop2666" stop-opacity="1" stop-color="#e5f6da" offset="0"></stop><stop id="SvgjsStop2667" stop-opacity="1" stop-color="#b0e38f" offset="1"></stop></linearGradient><linearGradient id="SvgjsLinearGradient2674" x1="0.5" y1="0" x2="0.5" y2="1"><stop id="SvgjsStop2675" stop-opacity="1" stop-color="#e5f6da" offset="0"></stop><stop id="SvgjsStop2676" stop-opacity="1" stop-color="#b0e38f" offset="1"></stop></linearGradient><linearGradient id="SvgjsLinearGradient2683" x1="0.5" y1="0" x2="0.5" y2="1"><stop id="SvgjsStop2684" stop-opacity="1" stop-color="#e5f6da" offset="0"></stop><stop id="SvgjsStop2685" stop-opacity="1" stop-color="#b0e38f" offset="1"></stop></linearGradient><linearGradient id="SvgjsLinearGradient2692" x1="0.5" y1="0" x2="0.5" y2="1"><stop id="SvgjsStop2693" stop-opacity="1" stop-color="#e5f6da" offset="0"></stop><stop id="SvgjsStop2694" stop-opacity="1" stop-color="#b0e38f" offset="1"></stop></linearGradient><marker id="SvgjsMarker2707" markerWidth="13" markerHeight="9" refX="9.5" refY="4.5" viewBox="0 0 13 9" orient="auto" markerUnits="userSpaceOnUse" stroke-dasharray="0,0"><path id="SvgjsPath2708" d="M0,0 L13,4.5 L0,9 L0,0" fill="#7985ec" stroke="#7985ec" stroke-width="1"></path></marker><marker id="SvgjsMarker2711" markerWidth="13" markerHeight="9" refX="9.5" refY="4.5" viewBox="0 0 13 9" orient="auto" markerUnits="userSpaceOnUse" stroke-dasharray="0,0"><path id="SvgjsPath2712" d="M0,0 L13,4.5 L0,9 L0,0" fill="#7985ec" stroke="#7985ec" stroke-width="1"></path></marker><marker id="SvgjsMarker2715" markerWidth="13" markerHeight="9" refX="9.5" refY="4.5" viewBox="0 0 13 9" orient="auto" markerUnits="userSpaceOnUse" stroke-dasharray="0,0"><path id="SvgjsPath2716" d="M0,0 L13,4.5 L0,9 L0,0" fill="#7985ec" stroke="#7985ec" stroke-width="1"></path></marker><marker id="SvgjsMarker2719" markerWidth="13" markerHeight="9" refX="9.5" refY="4.5" viewBox="0 0 13 9" orient="auto" markerUnits="userSpaceOnUse" stroke-dasharray="0,0"><path id="SvgjsPath2720" d="M0,0 L13,4.5 L0,9 L0,0" fill="#7985ec" stroke="#7985ec" stroke-width="1"></path></marker><marker id="SvgjsMarker2723" markerWidth="13" markerHeight="9" refX="9.5" refY="4.5" viewBox="0 0 13 9" orient="auto" markerUnits="userSpaceOnUse" stroke-dasharray="0,0"><path id="SvgjsPath2724" d="M0,0 L13,4.5 L0,9 L0,0" fill="#7985ec" stroke="#7985ec" stroke-width="1"></path></marker><marker id="SvgjsMarker2727" markerWidth="13" markerHeight="9" refX="9.5" refY="4.5" viewBox="0 0 13 9" orient="auto" markerUnits="userSpaceOnUse" stroke-dasharray="0,0"><path id="SvgjsPath2728" d="M0,0 L13,4.5 L0,9 L0,0" fill="#7985ec" stroke="#7985ec" stroke-width="1"></path></marker><marker id="SvgjsMarker2731" markerWidth="13" markerHeight="9" refX="9.5" refY="4.5" viewBox="0 0 13 9" orient="auto" markerUnits="userSpaceOnUse" stroke-dasharray="0,0"><path id="SvgjsPath2732" d="M0,0 L13,4.5 L0,9 L0,0" fill="#7985ec" stroke="#7985ec" stroke-width="1"></path></marker><marker id="SvgjsMarker2735" markerWidth="13" markerHeight="9" refX="9.5" refY="4.5" viewBox="0 0 13 9" orient="auto" markerUnits="userSpaceOnUse" stroke-dasharray="0,0"><path id="SvgjsPath2736" d="M0,0 L13,4.5 L0,9 L0,0" fill="#7985ec" stroke="#7985ec" stroke-width="1"></path></marker><marker id="SvgjsMarker2739" markerWidth="13" markerHeight="9" refX="9.5" refY="4.5" viewBox="0 0 13 9" orient="auto" markerUnits="userSpaceOnUse" stroke-dasharray="0,0"><path id="SvgjsPath2740" d="M0,0 L13,4.5 L0,9 L0,0" fill="#7985ec" stroke="#7985ec" stroke-width="1"></path></marker></defs><rect id="svgbackgroundid" width="860.5238095238096" height="561.1192380952381" fill="transparent"></rect><rect id="SvgjsRect2489" width="860.5238095238096" height="561.1192380952381" fill="url(#pattern_mark_0)"></rect><rect id="SvgjsRect2490" width="860.5238095238096" height="561.1192380952381" fill="url(#pattern_mark_1)"></rect><g id="SvgjsG2491" transform="translate(139.47619047619054,42.071428571428584)"><path id="SvgjsPath2492" d="M 0 0L 582.524 0L 582.524 225L 0 225Z" stroke="rgba(33,41,48,1)" stroke-width="1.5" fill="url(#SvgjsLinearGradient2493)"></path><g id="SvgjsG2496"><text id="SvgjsText2497" font-family="&quot;Microsoft YaHei&quot;, 微软雅黑, Arial" text-anchor="middle" font-size="13px" width="563px" fill="#323232" font-weight="400" align="middle" lineHeight="125%" anchor="middle" family="&quot;Microsoft YaHei&quot;, 微软雅黑, Arial" size="13px" weight="400" font-style="" opacity="1" y="101.875" transform="rotate(0)"></text></g></g><g id="SvgjsG2498" transform="translate(51.76190476190476,65.16666666666669)"><path id="SvgjsPath2499" d="M 0 19.762L 19.762 0L 19.762 13.043L 264.964 13.043L 264.964 26.481L 19.762 26.481L 19.762 39.524L 0 19.762Z" stroke="rgba(33,41,48,1)" stroke-width="1.5" fill="url(#SvgjsRadialGradient2500)"></path><g id="SvgjsG2503"><text id="SvgjsText2504" font-family="&quot;Microsoft YaHei&quot;, 微软雅黑, Arial" text-anchor="middle" font-size="13px" width="265px" fill="#323232" font-weight="400" align="middle" lineHeight="125%" anchor="middle" family="&quot;Microsoft YaHei&quot;, 微软雅黑, Arial" size="13px" weight="400" font-style="" opacity="1" y="9.137" transform="rotate(0)"></text></g></g><g id="SvgjsG2505" transform="translate(167.23809523809524,59.928571428571445)"><path id="SvgjsPath2506" d="M 16.667 0L 83.333 0C 105.556 0 105.556 50 83.333 50L 16.667 50C -5.556 50 -5.556 0 16.667 0Z" stroke="rgba(33,41,48,1)" stroke-width="1.5" fill-opacity="1" fill="#ffffff"></path><g id="SvgjsG2507"><text id="SvgjsText2508" font-family="&quot;Microsoft YaHei&quot;, 微软雅黑, Arial" text-anchor="middle" font-size="13px" width="80px" fill="#323232" font-weight="400" align="middle" lineHeight="125%" anchor="middle" family="&quot;Microsoft YaHei&quot;, 微软雅黑, Arial" size="13px" weight="400" font-style="" opacity="1" y="5.875" transform="rotate(0)"><tspan id="SvgjsTspan2509" dy="16.25" x="50"><tspan id="SvgjsTspan2510" style="">Outbound</tspan></tspan><tspan id="SvgjsTspan2511" dy="16.25" x="50"><tspan id="SvgjsTspan2512" style="">Event</tspan></tspan></text></g></g><g id="SvgjsG2513" transform="translate(316.85714285714283,25)"><path id="SvgjsPath2514" d="M 0 0L 84.905 0L 84.905 119.857L 0 119.857Z" stroke="rgba(33,41,48,1)" stroke-width="1.5" fill-opacity="1" fill="#ffffff"></path><g id="SvgjsG2515"><text id="SvgjsText2516" font-family="&quot;Microsoft YaHei&quot;, 微软雅黑, Arial" text-anchor="middle" font-size="13px" width="65px" fill="#323232" font-weight="400" align="middle" lineHeight="125%" anchor="middle" family="&quot;Microsoft YaHei&quot;, 微软雅黑, Arial" size="13px" weight="400" font-style="" opacity="1" y="40.8035" transform="rotate(0)"><tspan id="SvgjsTspan2517" dy="16.25" x="42.5"><tspan id="SvgjsTspan2518" style="">OutBound</tspan></tspan><tspan id="SvgjsTspan2519" dy="16.25" x="42.5"><tspan id="SvgjsTspan2520" style="">Handler</tspan></tspan></text></g></g><g id="SvgjsG2521" transform="translate(404.14285714285717,65.16666666666669)"><path id="SvgjsPath2522" d="M 0 19.762L 19.762 0L 19.762 13.043L 198.976 13.043L 198.976 26.481L 19.762 26.481L 19.762 39.524L 0 19.762Z" stroke="rgba(33,41,48,1)" stroke-width="1.5" fill="url(#SvgjsRadialGradient2523)"></path><g id="SvgjsG2526"><text id="SvgjsText2527" font-family="&quot;Microsoft YaHei&quot;, 微软雅黑, Arial" text-anchor="middle" font-size="13px" width="199px" fill="#323232" font-weight="400" align="middle" lineHeight="125%" anchor="middle" family="&quot;Microsoft YaHei&quot;, 微软雅黑, Arial" size="13px" weight="400" font-style="" opacity="1" y="9.137" transform="rotate(0)"></text></g></g><g id="SvgjsG2528" transform="translate(451.38095238095235,59.928571428571445)"><path id="SvgjsPath2529" d="M 16.667 0L 83.333 0C 105.556 0 105.556 50 83.333 50L 16.667 50C -5.556 50 -5.556 0 16.667 0Z" stroke="rgba(33,41,48,1)" stroke-width="1.5" fill-opacity="1" fill="#ffffff"></path><g id="SvgjsG2530"><text id="SvgjsText2531" font-family="&quot;Microsoft YaHei&quot;, 微软雅黑, Arial" text-anchor="middle" font-size="13px" width="80px" fill="#323232" font-weight="400" align="middle" lineHeight="125%" anchor="middle" family="&quot;Microsoft YaHei&quot;, 微软雅黑, Arial" size="13px" weight="400" font-style="" opacity="1" y="5.875" transform="rotate(0)"><tspan id="SvgjsTspan2532" dy="16.25" x="50"><tspan id="SvgjsTspan2533" style="">Outbound</tspan></tspan><tspan id="SvgjsTspan2534" dy="16.25" x="50"><tspan id="SvgjsTspan2535" style="">Event</tspan></tspan></text></g></g><g id="SvgjsG2536" transform="translate(601,25)"><path id="SvgjsPath2537" d="M 0 0L 84.905 0L 84.905 119.857L 0 119.857Z" stroke="rgba(33,41,48,1)" stroke-width="1.5" fill-opacity="1" fill="#ffffff"></path><g id="SvgjsG2538"><text id="SvgjsText2539" font-family="&quot;Microsoft YaHei&quot;, 微软雅黑, Arial" text-anchor="middle" font-size="13px" width="65px" fill="#323232" font-weight="400" align="middle" lineHeight="125%" anchor="middle" family="&quot;Microsoft YaHei&quot;, 微软雅黑, Arial" size="13px" weight="400" font-style="" opacity="1" y="40.8035" transform="rotate(0)"><tspan id="SvgjsTspan2540" dy="16.25" x="42.5"><tspan id="SvgjsTspan2541" style="">OutBound</tspan></tspan><tspan id="SvgjsTspan2542" dy="16.25" x="42.5"><tspan id="SvgjsTspan2543" style="">Handler</tspan></tspan></text></g></g><g id="SvgjsG2544" transform="translate(259.14285714285717,210.16666666666669)"><path id="SvgjsPath2545" d="M 0 13.043L 180.024 13.043L 180.024 0L 199.786 19.762L 180.024 39.524L 180.024 26.481L 0 26.481L 0 13.043Z" stroke="rgba(33,41,48,1)" stroke-width="1.5" fill="url(#SvgjsLinearGradient2546)"></path><g id="SvgjsG2549"><text id="SvgjsText2550" font-family="&quot;Microsoft YaHei&quot;, 微软雅黑, Arial" text-anchor="middle" font-size="13px" width="200px" fill="#323232" font-weight="400" align="middle" lineHeight="125%" anchor="middle" family="&quot;Microsoft YaHei&quot;, 微软雅黑, Arial" size="13px" weight="400" font-style="" opacity="1" y="9.137" transform="rotate(0)"></text></g></g><g id="SvgjsG2551" transform="translate(25,204.92857142857144)"><path id="SvgjsPath2552" d="M 16.667 0L 83.333 0C 105.556 0 105.556 50 83.333 50L 16.667 50C -5.556 50 -5.556 0 16.667 0Z" stroke="rgba(33,41,48,1)" stroke-width="1.5" fill-opacity="1" fill="#ffffff"></path><g id="SvgjsG2553"><text id="SvgjsText2554" font-family="&quot;Microsoft YaHei&quot;, 微软雅黑, Arial" text-anchor="middle" font-size="13px" width="80px" fill="#323232" font-weight="400" align="middle" lineHeight="125%" anchor="middle" family="&quot;Microsoft YaHei&quot;, 微软雅黑, Arial" size="13px" weight="400" font-style="" opacity="1" y="5.875" transform="rotate(0)"><tspan id="SvgjsTspan2555" dy="16.25" x="50"><tspan id="SvgjsTspan2556" style="">Outbound</tspan></tspan><tspan id="SvgjsTspan2557" dy="16.25" x="50"><tspan id="SvgjsTspan2558" style="">Event</tspan></tspan></text></g></g><g id="SvgjsG2559" transform="translate(174.78571428571428,170)"><path id="SvgjsPath2560" d="M 0 0L 84.905 0L 84.905 119.857L 0 119.857Z" stroke="rgba(33,41,48,1)" stroke-width="1.5" fill-opacity="1" fill="#ffffff"></path><g id="SvgjsG2561"><text id="SvgjsText2562" font-family="&quot;Microsoft YaHei&quot;, 微软雅黑, Arial" text-anchor="middle" font-size="13px" width="65px" fill="#323232" font-weight="400" align="middle" lineHeight="125%" anchor="middle" family="&quot;Microsoft YaHei&quot;, 微软雅黑, Arial" size="13px" weight="400" font-style="" opacity="1" y="40.8035" transform="rotate(0)"><tspan id="SvgjsTspan2563" dy="16.25" x="42.5"><tspan id="SvgjsTspan2564" style="">OutBound</tspan></tspan><tspan id="SvgjsTspan2565" dy="16.25" x="42.5"><tspan id="SvgjsTspan2566" style="">Handler</tspan></tspan></text></g></g><g id="SvgjsG2567" transform="translate(309.3095238095238,204.92857142857144)"><path id="SvgjsPath2568" d="M 16.667 0L 83.333 0C 105.556 0 105.556 50 83.333 50L 16.667 50C -5.556 50 -5.556 0 16.667 0Z" stroke="rgba(33,41,48,1)" stroke-width="1.5" fill-opacity="1" fill="#ffffff"></path><g id="SvgjsG2569"><text id="SvgjsText2570" font-family="&quot;Microsoft YaHei&quot;, 微软雅黑, Arial" text-anchor="middle" font-size="13px" width="80px" fill="#323232" font-weight="400" align="middle" lineHeight="125%" anchor="middle" family="&quot;Microsoft YaHei&quot;, 微软雅黑, Arial" size="13px" weight="400" font-style="" opacity="1" y="5.875" transform="rotate(0)"><tspan id="SvgjsTspan2571" dy="16.25" x="50"><tspan id="SvgjsTspan2572" style="">Outbound</tspan></tspan><tspan id="SvgjsTspan2573" dy="16.25" x="50"><tspan id="SvgjsTspan2574" style="">Event</tspan></tspan></text></g></g><g id="SvgjsG2575" transform="translate(458.92857142857133,170)"><path id="SvgjsPath2576" d="M 0 0L 84.905 0L 84.905 119.857L 0 119.857Z" stroke="rgba(33,41,48,1)" stroke-width="1.5" fill-opacity="1" fill="#ffffff"></path><g id="SvgjsG2577"><text id="SvgjsText2578" font-family="&quot;Microsoft YaHei&quot;, 微软雅黑, Arial" text-anchor="middle" font-size="13px" width="65px" fill="#323232" font-weight="400" align="middle" lineHeight="125%" anchor="middle" family="&quot;Microsoft YaHei&quot;, 微软雅黑, Arial" size="13px" weight="400" font-style="" opacity="1" y="40.8035" transform="rotate(0)"><tspan id="SvgjsTspan2579" dy="16.25" x="42.5"><tspan id="SvgjsTspan2580" style="">OutBound</tspan></tspan><tspan id="SvgjsTspan2581" dy="16.25" x="42.5"><tspan id="SvgjsTspan2582" style="">Handler</tspan></tspan></text></g></g><g id="SvgjsG2583" transform="translate(593.452380952381,204.92857142857144)"><path id="SvgjsPath2584" d="M 16.667 0L 83.333 0C 105.556 0 105.556 50 83.333 50L 16.667 50C -5.556 50 -5.556 0 16.667 0Z" stroke="rgba(33,41,48,1)" stroke-width="1.5" fill-opacity="1" fill="#ffffff"></path><g id="SvgjsG2585"><text id="SvgjsText2586" font-family="&quot;Microsoft YaHei&quot;, 微软雅黑, Arial" text-anchor="middle" font-size="13px" width="80px" fill="#323232" font-weight="400" align="middle" lineHeight="125%" anchor="middle" family="&quot;Microsoft YaHei&quot;, 微软雅黑, Arial" size="13px" weight="400" font-style="" opacity="1" y="5.875" transform="rotate(0)"><tspan id="SvgjsTspan2587" dy="16.25" x="50"><tspan id="SvgjsTspan2588" style="">Outbound</tspan></tspan><tspan id="SvgjsTspan2589" dy="16.25" x="50"><tspan id="SvgjsTspan2590" style="">Event</tspan></tspan></text></g></g><g id="SvgjsG2591" transform="translate(735.5238095238096,59.928571428571445)"><path id="SvgjsPath2592" d="M 16.667 0L 83.333 0C 105.556 0 105.556 50 83.333 50L 16.667 50C -5.556 50 -5.556 0 16.667 0Z" stroke="rgba(33,41,48,1)" stroke-width="1.5" fill-opacity="1" fill="#ffffff"></path><g id="SvgjsG2593"><text id="SvgjsText2594" font-family="&quot;Microsoft YaHei&quot;, 微软雅黑, Arial" text-anchor="middle" font-size="13px" width="80px" fill="#323232" font-weight="400" align="middle" lineHeight="125%" anchor="middle" family="&quot;Microsoft YaHei&quot;, 微软雅黑, Arial" size="13px" weight="400" font-style="" opacity="1" y="5.875" transform="rotate(0)"><tspan id="SvgjsTspan2595" dy="16.25" x="50"><tspan id="SvgjsTspan2596" style="">Outbound</tspan></tspan><tspan id="SvgjsTspan2597" dy="16.25" x="50"><tspan id="SvgjsTspan2598" style="">Event</tspan></tspan></text></g></g><g id="SvgjsG2599" transform="translate(685.9047619047619,65.16666666666669)"><path id="SvgjsPath2600" d="M 0 19.762L 19.762 0L 19.762 13.043L 49.619 13.043L 49.619 26.481L 19.762 26.481L 19.762 39.524L 0 19.762Z" stroke="rgba(33,41,48,1)" stroke-width="1.5" fill="url(#SvgjsRadialGradient2601)"></path><g id="SvgjsG2604"><text id="SvgjsText2605" font-family="&quot;Microsoft YaHei&quot;, 微软雅黑, Arial" text-anchor="middle" font-size="13px" width="50px" fill="#323232" font-weight="400" align="middle" lineHeight="125%" anchor="middle" family="&quot;Microsoft YaHei&quot;, 微软雅黑, Arial" size="13px" weight="400" font-style="" opacity="1" y="9.137" transform="rotate(0)"></text></g></g><g id="SvgjsG2606" transform="translate(543.2857142857143,210.16666666666669)"><path id="SvgjsPath2607" d="M 0 13.043L 30.405 13.043L 30.405 0L 50.167 19.762L 30.405 39.524L 30.405 26.481L 0 26.481L 0 13.043Z" stroke="rgba(33,41,48,1)" stroke-width="1.5" fill="url(#SvgjsLinearGradient2608)"></path><g id="SvgjsG2611"><text id="SvgjsText2612" font-family="&quot;Microsoft YaHei&quot;, 微软雅黑, Arial" text-anchor="middle" font-size="13px" width="51px" fill="#323232" font-weight="400" align="middle" lineHeight="125%" anchor="middle" family="&quot;Microsoft YaHei&quot;, 微软雅黑, Arial" size="13px" weight="400" font-style="" opacity="1" y="9.137" transform="rotate(0)"></text></g></g><g id="SvgjsG2613" transform="translate(125.16666666666663,210.16666666666669)"><path id="SvgjsPath2614" d="M 0 13.043L 30.405 13.043L 30.405 0L 50.167 19.762L 30.405 39.524L 30.405 26.481L 0 26.481L 0 13.043Z" stroke="rgba(33,41,48,1)" stroke-width="1.5" fill="url(#SvgjsLinearGradient2615)"></path><g id="SvgjsG2618"><text id="SvgjsText2619" font-family="&quot;Microsoft YaHei&quot;, 微软雅黑, Arial" text-anchor="middle" font-size="13px" width="51px" fill="#323232" font-weight="400" align="middle" lineHeight="125%" anchor="middle" family="&quot;Microsoft YaHei&quot;, 微软雅黑, Arial" size="13px" weight="400" font-style="" opacity="1" y="9.137" transform="rotate(0)"></text></g></g><g id="SvgjsG2620" transform="translate(97,346.0238095238096)"><path id="SvgjsPath2621" d="M 0 0L 96 0L 96 54L 0 54Z" stroke="rgba(33,41,48,1)" stroke-width="1.5" fill-opacity="1" fill="#4181c2"></path><g id="SvgjsG2622"><text id="SvgjsText2623" font-family="&quot;Microsoft YaHei&quot;, 微软雅黑, Arial" text-anchor="start" font-size="13px" width="76px" fill="#ffffff" font-weight="700" align="top" lineHeight="125%" anchor="start" family="&quot;Microsoft YaHei&quot;, 微软雅黑, Arial" size="13px" weight="700" font-style="" opacity="1" y="-2.625" transform="rotate(0)"><tspan id="SvgjsTspan2624" dy="16.25" x="10"><tspan id="SvgjsTspan2625" style="">读取数据</tspan></tspan></text></g></g><g id="SvgjsG2626" transform="translate(239.23809523809524,346.02380952380963)"><path id="SvgjsPath2627" d="M 0 0L 96 0L 96 54L 0 54Z" stroke="rgba(33,41,48,1)" stroke-width="1.5" fill-opacity="1" fill="#4181c2"></path><g id="SvgjsG2628"><text id="SvgjsText2629" font-family="&quot;Microsoft YaHei&quot;, 微软雅黑, Arial" text-anchor="start" font-size="13px" width="76px" fill="#ffffff" font-weight="700" align="top" lineHeight="125%" anchor="start" family="&quot;Microsoft YaHei&quot;, 微软雅黑, Arial" size="13px" weight="700" font-style="" opacity="1" y="-2.625" transform="rotate(0)"><tspan id="SvgjsTspan2630" dy="16.25" x="10"><tspan id="SvgjsTspan2631" style="">数据处理</tspan></tspan><tspan id="SvgjsTspan2632" dy="16.25" x="10"><tspan id="SvgjsTspan2633" style="">(编码)</tspan></tspan></text></g></g><g id="SvgjsG2634" transform="translate(381.3095238095238,346.02380952380963)"><path id="SvgjsPath2635" d="M 0 0L 96 0L 96 54L 0 54Z" stroke="rgba(33,41,48,1)" stroke-width="1.5" fill-opacity="1" fill="#4181c2"></path><g id="SvgjsG2636"><text id="SvgjsText2637" font-family="&quot;Microsoft YaHei&quot;, 微软雅黑, Arial" text-anchor="start" font-size="13px" width="76px" fill="#ffffff" font-weight="700" align="top" lineHeight="125%" anchor="start" family="&quot;Microsoft YaHei&quot;, 微软雅黑, Arial" size="13px" weight="700" font-style="" opacity="1" y="-2.625" transform="rotate(0)"><tspan id="SvgjsTspan2638" dy="16.25" x="10"><tspan id="SvgjsTspan2639" style="">数据传输</tspan></tspan></text></g></g><g id="SvgjsG2640" transform="translate(523.3809523809523,346.02380952380963)"><path id="SvgjsPath2641" d="M 0 0L 96 0L 96 54L 0 54Z" stroke="rgba(33,41,48,1)" stroke-width="1.5" fill-opacity="1" fill="#4181c2"></path><g id="SvgjsG2642"><text id="SvgjsText2643" font-family="&quot;Microsoft YaHei&quot;, 微软雅黑, Arial" text-anchor="start" font-size="13px" width="76px" fill="#ffffff" font-weight="700" align="top" lineHeight="125%" anchor="start" family="&quot;Microsoft YaHei&quot;, 微软雅黑, Arial" size="13px" weight="700" font-style="" opacity="1" y="-2.625" transform="rotate(0)"><tspan id="SvgjsTspan2644" dy="16.25" x="10"><tspan id="SvgjsTspan2645" style="">数据处理</tspan></tspan><tspan id="SvgjsTspan2646" dy="16.25" x="10"><tspan id="SvgjsTspan2647" style="">(解码)</tspan></tspan></text></g></g><g id="SvgjsG2648" transform="translate(665.452380952381,346.02380952380963)"><path id="SvgjsPath2649" d="M 0 0L 96 0L 96 54L 0 54Z" stroke="rgba(33,41,48,1)" stroke-width="1.5" fill-opacity="1" fill="#4181c2"></path><g id="SvgjsG2650"><text id="SvgjsText2651" font-family="&quot;Microsoft YaHei&quot;, 微软雅黑, Arial" text-anchor="start" font-size="13px" width="76px" fill="#ffffff" font-weight="700" align="top" lineHeight="125%" anchor="start" family="&quot;Microsoft YaHei&quot;, 微软雅黑, Arial" size="13px" weight="700" font-style="" opacity="1" y="-2.625" transform="rotate(0)"><tspan id="SvgjsTspan2652" dy="16.25" x="10"><tspan id="SvgjsTspan2653" style="">显示数据</tspan></tspan></text></g></g><g id="SvgjsG2654" transform="translate(239.23809523809524,449.5952380952381)"><path id="SvgjsPath2655" d="M 0 4Q 0 0 4 0L 92 0Q 96 0 96 4L 96 50Q 96 54 92 54L 4 54Q 0 54 0 50Z" stroke="rgba(33,41,48,1)" stroke-width="1.5" fill="url(#SvgjsLinearGradient2656)"></path><g id="SvgjsG2659"><text id="SvgjsText2660" font-family="&quot;Microsoft YaHei&quot;, 微软雅黑, Arial" text-anchor="start" font-size="13px" width="76px" fill="#323232" font-weight="400" align="top" lineHeight="125%" anchor="start" family="&quot;Microsoft YaHei&quot;, 微软雅黑, Arial" size="13px" weight="400" font-style="" opacity="1" y="-2.625" transform="rotate(0)"><tspan id="SvgjsTspan2661" dy="16.25" x="10"><tspan id="SvgjsTspan2662" style="">handler</tspan></tspan></text></g></g><g id="SvgjsG2663" transform="translate(381.3095238095238,449.5952380952381)"><path id="SvgjsPath2664" d="M 0 4Q 0 0 4 0L 92 0Q 96 0 96 4L 96 50Q 96 54 92 54L 4 54Q 0 54 0 50Z" stroke="rgba(33,41,48,1)" stroke-width="1.5" fill="url(#SvgjsLinearGradient2665)"></path><g id="SvgjsG2668"><text id="SvgjsText2669" font-family="&quot;Microsoft YaHei&quot;, 微软雅黑, Arial" text-anchor="start" font-size="13px" width="76px" fill="#323232" font-weight="400" align="top" lineHeight="125%" anchor="start" family="&quot;Microsoft YaHei&quot;, 微软雅黑, Arial" size="13px" weight="400" font-style="" opacity="1" y="-2.625" transform="rotate(0)"><tspan id="SvgjsTspan2670" dy="16.25" x="10"><tspan id="SvgjsTspan2671" style="">handler</tspan></tspan></text></g></g><g id="SvgjsG2672" transform="translate(523.3809523809523,449.5952380952381)"><path id="SvgjsPath2673" d="M 0 4Q 0 0 4 0L 92 0Q 96 0 96 4L 96 50Q 96 54 92 54L 4 54Q 0 54 0 50Z" stroke="rgba(33,41,48,1)" stroke-width="1.5" fill="url(#SvgjsLinearGradient2674)"></path><g id="SvgjsG2677"><text id="SvgjsText2678" font-family="&quot;Microsoft YaHei&quot;, 微软雅黑, Arial" text-anchor="start" font-size="13px" width="76px" fill="#323232" font-weight="400" align="top" lineHeight="125%" anchor="start" family="&quot;Microsoft YaHei&quot;, 微软雅黑, Arial" size="13px" weight="400" font-style="" opacity="1" y="-2.625" transform="rotate(0)"><tspan id="SvgjsTspan2679" dy="16.25" x="10"><tspan id="SvgjsTspan2680" style="">handler</tspan></tspan></text></g></g><g id="SvgjsG2681" transform="translate(665.452380952381,449.5952380952381)"><path id="SvgjsPath2682" d="M 0 4Q 0 0 4 0L 92 0Q 96 0 96 4L 96 50Q 96 54 92 54L 4 54Q 0 54 0 50Z" stroke="rgba(33,41,48,1)" stroke-width="1.5" fill="url(#SvgjsLinearGradient2683)"></path><g id="SvgjsG2686"><text id="SvgjsText2687" font-family="&quot;Microsoft YaHei&quot;, 微软雅黑, Arial" text-anchor="start" font-size="13px" width="76px" fill="#323232" font-weight="400" align="top" lineHeight="125%" anchor="start" family="&quot;Microsoft YaHei&quot;, 微软雅黑, Arial" size="13px" weight="400" font-style="" opacity="1" y="-2.625" transform="rotate(0)"><tspan id="SvgjsTspan2688" dy="16.25" x="10"><tspan id="SvgjsTspan2689" style="">handler</tspan></tspan></text></g></g><g id="SvgjsG2690" transform="translate(34.85714285714286,449.5952380952381)"><path id="SvgjsPath2691" d="M 0 4Q 0 0 4 0L 154.143 0Q 158.143 0 158.143 4L 158.143 82.524Q 158.143 86.524 154.143 86.524L 4 86.524Q 0 86.524 0 82.524Z" stroke="rgba(33,41,48,1)" stroke-width="1.5" fill="url(#SvgjsLinearGradient2692)"></path><g id="SvgjsG2695"><text id="SvgjsText2696" font-family="&quot;Microsoft YaHei&quot;, 微软雅黑, Arial" text-anchor="start" font-size="13px" width="139px" fill="#323232" font-weight="400" align="top" lineHeight="125%" anchor="start" family="&quot;Microsoft YaHei&quot;, 微软雅黑, Arial" size="13px" weight="400" font-style="" opacity="1" y="-2.625" transform="rotate(0)"><tspan id="SvgjsTspan2697" dy="16.25" x="10"><tspan id="SvgjsTspan2698" style="">handler</tspan></tspan><tspan id="SvgjsTspan2699" dy="16.25" x="10"><tspan id="SvgjsTspan2700" style="">在handler处理中</tspan></tspan><tspan id="SvgjsTspan2701" dy="16.25" x="10"><tspan id="SvgjsTspan2702" style="">可以使用callback 或者 </tspan></tspan><tspan id="SvgjsTspan2703" dy="16.25" x="10"><tspan id="SvgjsTspan2704" style="">future 实现异步</tspan></tspan></text></g></g><g id="SvgjsG2705"><path id="SvgjsPath2706" d="M193.75 373.0238095238096C 211.4952380952381 373.0238095238096 220.74285714285713 373.0238095238096 236.53809523809525 373.0238095238096" stroke="#7985ec" stroke-width="1.5" fill="none" marker-end="url(#SvgjsMarker2707)"></path></g><g id="SvgjsG2709"><path id="SvgjsPath2710" d="M335.98809523809524 373.02380952380963C 353.6666666666667 373.02380952380963 362.88095238095235 373.02380952380963 378.6095238095238 373.02380952380963" stroke="#7985ec" stroke-width="1.5" fill="none" marker-end="url(#SvgjsMarker2711)"></path></g><g id="SvgjsG2713"><path id="SvgjsPath2714" d="M478.05952380952385 373.02380952380963C 495.7380952380952 373.02380952380963 504.95238095238096 373.02380952380963 520.6809523809522 373.02380952380963" stroke="#7985ec" stroke-width="1.5" fill="none" marker-end="url(#SvgjsMarker2715)"></path></g><g id="SvgjsG2717"><path id="SvgjsPath2718" d="M620.1309523809523 373.02380952380963C 637.8095238095237 373.02380952380963 647.0238095238095 373.02380952380963 662.7523809523809 373.02380952380963" stroke="#7985ec" stroke-width="1.5" fill="none" marker-end="url(#SvgjsMarker2719)"></path></g><g id="SvgjsG2721"><path id="SvgjsPath2722" d="M713.2662409426499 400.75034369146954C 713.452380952381 422.76411607297723 686.047619047619 427.0930267841658 686.7177230826508 447.2178103297575" stroke="#7985ec" stroke-width="1.5" fill="none" marker-end="url(#SvgjsMarker2723)"></path></g><g id="SvgjsG2725"><path id="SvgjsPath2726" d="M571.2071528610945 400.7533941500849C 571.3809523809523 422.2484307095142 546.7619047619048 427.6087121476288 547.3875830333927 447.20682867874245" stroke="#7985ec" stroke-width="1.5" fill="none" marker-end="url(#SvgjsMarker2727)"></path></g><g id="SvgjsG2729"><path id="SvgjsPath2730" d="M429.14355188115894 400.7552145545517C 429.3095238095238 421.9731492573694 406.2857142857143 427.8839935997736 406.8832132278277 447.20027522266184" stroke="#7985ec" stroke-width="1.5" fill="none" marker-end="url(#SvgjsMarker2731)"></path></g><g id="SvgjsG2733"><path id="SvgjsPath2734" d="M287.0681981195892 400.75431275386643C 287.23809523809524 422.1068603498809 263.42857142857144 427.7502825072621 264.04020105519317 447.2035217051291" stroke="#7985ec" stroke-width="1.5" fill="none" marker-end="url(#SvgjsMarker2735)"></path></g><g id="SvgjsG2737"><path id="SvgjsPath2738" d="M144.79872025288358 400.7462958305316C 145 423.4256447917312 113.92814285714286 426.1934028273165 114.65274994676196 446.99428739103894" stroke="#7985ec" stroke-width="1.5" fill="none" marker-end="url(#SvgjsMarker2739)"></path></g><g id="SvgjsG2741"></g></svg>