<svg id="SvgjsSvg1550" width="478" height="542" xmlns="http://www.w3.org/2000/svg" version="1.1" xmlns:xlink="http://www.w3.org/1999/xlink" xmlns:svgjs="http://svgjs.com/svgjs"><defs id="SvgjsDefs1551"><pattern patternUnits="userSpaceOnUse" id="pattern_mark_0" width="300" height="300"><text x="150" y="100" fill="rgba(229,229,229,0.8)" font-size="18" transform="rotate(-45, 150, 150)" style="dominant-baseline: middle; text-anchor: middle;"></text></pattern><pattern patternUnits="userSpaceOnUse" id="pattern_mark_1" width="300" height="300"><text x="150" y="200" fill="rgba(229,229,229,0.8)" font-size="18" transform="rotate(-45, 150, 150)" style="dominant-baseline: middle; text-anchor: middle;"></text></pattern><marker id="SvgjsMarker1607" markerWidth="13" markerHeight="9" refX="9.5" refY="4.5" viewBox="0 0 13 9" orient="auto" markerUnits="userSpaceOnUse" stroke-dasharray="0,0"><path id="SvgjsPath1608" d="M0,0 L13,4.5 L0,9 L0,0" fill="#323232" stroke="#323232" stroke-width="1"></path></marker><marker id="SvgjsMarker1611" markerWidth="13" markerHeight="9" refX="9.5" refY="4.5" viewBox="0 0 13 9" orient="auto" markerUnits="userSpaceOnUse" stroke-dasharray="0,0"><path id="SvgjsPath1612" d="M0,0 L13,4.5 L0,9 L0,0" fill="#323232" stroke="#323232" stroke-width="1"></path></marker><marker id="SvgjsMarker1615" markerWidth="13" markerHeight="9" refX="9.5" refY="4.5" viewBox="0 0 13 9" orient="auto" markerUnits="userSpaceOnUse" stroke-dasharray="0,0"><path id="SvgjsPath1616" d="M0,0 L13,4.5 L0,9 L0,0" fill="#323232" stroke="#323232" stroke-width="1"></path></marker><marker id="SvgjsMarker1619" markerWidth="13" markerHeight="9" refX="9.5" refY="4.5" viewBox="0 0 13 9" orient="auto" markerUnits="userSpaceOnUse" stroke-dasharray="0,0"><path id="SvgjsPath1620" d="M0,0 L13,4.5 L0,9 L0,0" fill="#323232" stroke="#323232" stroke-width="1"></path></marker><marker id="SvgjsMarker1623" markerWidth="13" markerHeight="9" refX="9.5" refY="4.5" viewBox="0 0 13 9" orient="auto" markerUnits="userSpaceOnUse" stroke-dasharray="0,0"><path id="SvgjsPath1624" d="M0,0 L13,4.5 L0,9 L0,0" fill="#323232" stroke="#323232" stroke-width="1"></path></marker><marker id="SvgjsMarker1627" markerWidth="13" markerHeight="9" refX="9.5" refY="4.5" viewBox="0 0 13 9" orient="auto" markerUnits="userSpaceOnUse" stroke-dasharray="0,0"><path id="SvgjsPath1628" d="M0,0 L13,4.5 L0,9 L0,0" fill="#323232" stroke="#323232" stroke-width="1"></path></marker><marker id="SvgjsMarker1637" markerWidth="13" markerHeight="9" refX="9.5" refY="4.5" viewBox="0 0 13 9" orient="auto" markerUnits="userSpaceOnUse" stroke-dasharray="0,0"><path id="SvgjsPath1638" d="M0,0 L13,4.5 L0,9 L0,0" fill="#323232" stroke="#323232" stroke-width="1"></path></marker><marker id="SvgjsMarker1653" markerWidth="13" markerHeight="9" refX="9.5" refY="4.5" viewBox="0 0 13 9" orient="auto" markerUnits="userSpaceOnUse" stroke-dasharray="0,0"><path id="SvgjsPath1654" d="M0,0 L13,4.5 L0,9 L0,0" fill="#323232" stroke="#323232" stroke-width="1"></path></marker><marker id="SvgjsMarker1657" markerWidth="13" markerHeight="9" refX="9.5" refY="4.5" viewBox="0 0 13 9" orient="auto" markerUnits="userSpaceOnUse" stroke-dasharray="0,0"><path id="SvgjsPath1658" d="M0,0 L13,4.5 L0,9 L0,0" fill="#323232" stroke="#323232" stroke-width="1"></path></marker></defs><rect id="svgbackgroundid" width="478" height="542" fill="transparent"></rect><rect id="SvgjsRect1553" width="478" height="542" fill="url(#pattern_mark_0)"></rect><rect id="SvgjsRect1554" width="478" height="542" fill="url(#pattern_mark_1)"></rect><g id="SvgjsG1555" transform="translate(191,25)"><path id="SvgjsPath1556" d="M 0 4Q 0 0 4 0L 92 0Q 96 0 96 4L 96 50Q 96 54 92 54L 4 54Q 0 54 0 50Z" stroke="rgba(33,41,48,1)" stroke-width="1.5" fill-opacity="1" fill="#99ff99"></path><g id="SvgjsG1557"><text id="SvgjsText1558" font-family="&quot;Microsoft YaHei&quot;, 微软雅黑, Arial" text-anchor="middle" font-size="13px" width="76px" fill="#323232" font-weight="400" align="middle" lineHeight="125%" anchor="middle" family="&quot;Microsoft YaHei&quot;, 微软雅黑, Arial" size="13px" weight="400" font-style="" opacity="1" y="16.375" transform="rotate(0)"><tspan id="SvgjsTspan1559" dy="16.25" x="48"><tspan id="SvgjsTspan1560" style="">Thread</tspan></tspan></text></g></g><g id="SvgjsG1561" transform="translate(191,129)"><path id="SvgjsPath1562" d="M 0 30C 0 -10 96 -10 96 30C 96 70 0 70 0 30Z" stroke="rgba(33,41,48,1)" stroke-width="1.5" fill-opacity="1" fill="#99ff99"></path><g id="SvgjsG1563"><text id="SvgjsText1564" font-family="&quot;Microsoft YaHei&quot;, 微软雅黑, Arial" text-anchor="middle" font-size="13px" width="76px" fill="#323232" font-weight="400" align="middle" lineHeight="125%" anchor="middle" family="&quot;Microsoft YaHei&quot;, 微软雅黑, Arial" size="13px" weight="400" font-style="" opacity="1" y="19.375" transform="rotate(0)"><tspan id="SvgjsTspan1565" dy="16.25" x="48"><tspan id="SvgjsTspan1566" style="">Selector</tspan></tspan></text></g></g><g id="SvgjsG1567" transform="translate(191,239)"><path id="SvgjsPath1568" d="M 0 0L 96 0L 96 54L 0 54Z" stroke="rgba(33,41,48,1)" stroke-width="1.5" fill-opacity="1" fill="#3399ff"></path><g id="SvgjsG1569"><text id="SvgjsText1570" font-family="&quot;Microsoft YaHei&quot;, 微软雅黑, Arial" text-anchor="middle" font-size="13px" width="76px" fill="#323232" font-weight="400" align="middle" lineHeight="125%" anchor="middle" family="&quot;Microsoft YaHei&quot;, 微软雅黑, Arial" size="13px" weight="400" font-style="" opacity="1" y="16.375" transform="rotate(0)"><tspan id="SvgjsTspan1571" dy="16.25" x="48"><tspan id="SvgjsTspan1572" style="">Channel</tspan></tspan></text></g></g><g id="SvgjsG1573" transform="translate(357,239)"><path id="SvgjsPath1574" d="M 0 0L 96 0L 96 54L 0 54Z" stroke="rgba(33,41,48,1)" stroke-width="1.5" fill-opacity="1" fill="#3399ff"></path><g id="SvgjsG1575"><text id="SvgjsText1576" font-family="&quot;Microsoft YaHei&quot;, 微软雅黑, Arial" text-anchor="middle" font-size="13px" width="76px" fill="#323232" font-weight="400" align="middle" lineHeight="125%" anchor="middle" family="&quot;Microsoft YaHei&quot;, 微软雅黑, Arial" size="13px" weight="400" font-style="" opacity="1" y="16.375" transform="rotate(0)"><tspan id="SvgjsTspan1577" dy="16.25" x="48"><tspan id="SvgjsTspan1578" style="">Channel</tspan></tspan></text></g></g><g id="SvgjsG1579" transform="translate(25,239)"><path id="SvgjsPath1580" d="M 0 0L 96 0L 96 54L 0 54Z" stroke="rgba(33,41,48,1)" stroke-width="1.5" fill-opacity="1" fill="#3399ff"></path><g id="SvgjsG1581"><text id="SvgjsText1582" font-family="&quot;Microsoft YaHei&quot;, 微软雅黑, Arial" text-anchor="middle" font-size="13px" width="76px" fill="#323232" font-weight="400" align="middle" lineHeight="125%" anchor="middle" family="&quot;Microsoft YaHei&quot;, 微软雅黑, Arial" size="13px" weight="400" font-style="" opacity="1" y="16.375" transform="rotate(0)"><tspan id="SvgjsTspan1583" dy="16.25" x="48"><tspan id="SvgjsTspan1584" style="">Channel</tspan></tspan></text></g></g><g id="SvgjsG1585" transform="translate(191,343)"><path id="SvgjsPath1586" d="M 0 4Q 0 0 4 0L 92 0Q 96 0 96 4L 96 50Q 96 54 92 54L 4 54Q 0 54 0 50Z" stroke="rgba(33,41,48,1)" stroke-width="1.5" fill-opacity="1" fill="#000000"></path><g id="SvgjsG1587"><text id="SvgjsText1588" font-family="&quot;Microsoft YaHei&quot;, 微软雅黑, Arial" text-anchor="middle" font-size="13px" width="76px" fill="#ffffff" font-weight="400" align="middle" lineHeight="125%" anchor="middle" family="&quot;Microsoft YaHei&quot;, 微软雅黑, Arial" size="13px" weight="400" font-style="" opacity="1" y="16.375" transform="rotate(0)"><tspan id="SvgjsTspan1589" dy="16.25" x="48"><tspan id="SvgjsTspan1590" style="">Buffer</tspan></tspan></text></g></g><g id="SvgjsG1591" transform="translate(357,343)"><path id="SvgjsPath1592" d="M 0 4Q 0 0 4 0L 92 0Q 96 0 96 4L 96 50Q 96 54 92 54L 4 54Q 0 54 0 50Z" stroke="rgba(33,41,48,1)" stroke-width="1.5" fill-opacity="1" fill="#000000"></path><g id="SvgjsG1593"><text id="SvgjsText1594" font-family="&quot;Microsoft YaHei&quot;, 微软雅黑, Arial" text-anchor="middle" font-size="13px" width="76px" fill="#ffffff" font-weight="400" align="middle" lineHeight="125%" anchor="middle" family="&quot;Microsoft YaHei&quot;, 微软雅黑, Arial" size="13px" weight="400" font-style="" opacity="1" y="16.375" transform="rotate(0)"><tspan id="SvgjsTspan1595" dy="16.25" x="48"><tspan id="SvgjsTspan1596" style="">Buffer</tspan></tspan></text></g></g><g id="SvgjsG1597" transform="translate(25,343)"><path id="SvgjsPath1598" d="M 0 4Q 0 0 4 0L 92 0Q 96 0 96 4L 96 50Q 96 54 92 54L 4 54Q 0 54 0 50Z" stroke="rgba(33,41,48,1)" stroke-width="1.5" fill-opacity="1" fill="#000000"></path><g id="SvgjsG1599"><text id="SvgjsText1600" font-family="&quot;Microsoft YaHei&quot;, 微软雅黑, Arial" text-anchor="middle" font-size="13px" width="76px" fill="#ffffff" font-weight="400" align="middle" lineHeight="125%" anchor="middle" family="&quot;Microsoft YaHei&quot;, 微软雅黑, Arial" size="13px" weight="400" font-style="" opacity="1" y="16.375" transform="rotate(0)"><tspan id="SvgjsTspan1601" dy="16.25" x="48"><tspan id="SvgjsTspan1602" style="">Buffer</tspan></tspan></text></g></g><g id="SvgjsG1603"><path id="SvgjsPath1604" d="M239 79.75C 239 99 239 109 239 128.25" stroke="#323232" stroke-width="1.5" fill="none"></path></g><g id="SvgjsG1605"><path id="SvgjsPath1606" d="M239 189.75C 239 209 239 219 239 236.3" stroke="#323232" stroke-width="1.5" fill="none" marker-end="url(#SvgjsMarker1607)"></path></g><g id="SvgjsG1609"><path id="SvgjsPath1610" d="M238.86282564852752 189.7373487623222C 239 258.34666538486186 73 169.65333461513814 73.49382766530078 236.34554445563998" stroke="#323232" stroke-width="1.5" fill="none" marker-end="url(#SvgjsMarker1611)"></path></g><g id="SvgjsG1613"><path id="SvgjsPath1614" d="M239.13717435147248 189.7373487623222C 239 258.34666538486186 405 169.65333461513814 404.5061723346993 236.34554445563998" stroke="#323232" stroke-width="1.5" fill="none" marker-end="url(#SvgjsMarker1615)"></path></g><g id="SvgjsG1617"><path id="SvgjsPath1618" d="M239 293.75C 239 313 239 323 239 340.3" stroke="#323232" stroke-width="1.5" fill="none" marker-end="url(#SvgjsMarker1619)"></path></g><g id="SvgjsG1621"><path id="SvgjsPath1622" d="M73 293.75C 73 313 73 323 73 340.3" stroke="#323232" stroke-width="1.5" fill="none" marker-end="url(#SvgjsMarker1623)"></path></g><g id="SvgjsG1625"><path id="SvgjsPath1626" d="M405 293.75C 405 313 405 323 405 340.3" stroke="#323232" stroke-width="1.5" fill="none" marker-end="url(#SvgjsMarker1627)"></path></g><g id="SvgjsG1629" transform="translate(28,447)"><path id="SvgjsPath1630" d="M 10.8 49C -9 35 3.6 24.5 8.1 21C 6.3 3.5 28.8 0 37.8 7C 45 -3.5 67.5 0 67.5 10.5C 85.5 7 92.7 21 85.5 38.5C 91.8 52.5 85.5 70 64.8 63C 60.3 72.1 42.3 72.1 37.8 63C 28.8 70 10.8 66.5 10.8 49Z" stroke="rgba(33,41,48,1)" stroke-width="1.5" fill-opacity="1" fill="#ffffff"></path><g id="SvgjsG1631"><text id="SvgjsText1632" font-family="&quot;Microsoft YaHei&quot;, 微软雅黑, Arial" text-anchor="middle" font-size="13px" width="70px" fill="#323232" font-weight="400" align="middle" lineHeight="125%" anchor="middle" family="&quot;Microsoft YaHei&quot;, 微软雅黑, Arial" size="13px" weight="400" font-style="" opacity="1" y="24.375" transform="rotate(0)"><tspan id="SvgjsTspan1633" dy="16.25" x="45"><tspan id="SvgjsTspan1634" style="">program</tspan></tspan></text></g></g><g id="SvgjsG1635"><path id="SvgjsPath1636" d="M73 397.75L73 446.1977774788671" stroke="#323232" stroke-width="1.5" fill="none" marker-end="url(#SvgjsMarker1637)"></path></g><g id="SvgjsG1639" transform="translate(360,447)"><path id="SvgjsPath1640" d="M 10.8 49C -9 35 3.6 24.5 8.1 21C 6.3 3.5 28.8 0 37.8 7C 45 -3.5 67.5 0 67.5 10.5C 85.5 7 92.7 21 85.5 38.5C 91.8 52.5 85.5 70 64.8 63C 60.3 72.1 42.3 72.1 37.8 63C 28.8 70 10.8 66.5 10.8 49Z" stroke="rgba(33,41,48,1)" stroke-width="1.5" fill-opacity="1" fill="#ffffff"></path><g id="SvgjsG1641"><text id="SvgjsText1642" font-family="&quot;Microsoft YaHei&quot;, 微软雅黑, Arial" text-anchor="middle" font-size="13px" width="70px" fill="#323232" font-weight="400" align="middle" lineHeight="125%" anchor="middle" family="&quot;Microsoft YaHei&quot;, 微软雅黑, Arial" size="13px" weight="400" font-style="" opacity="1" y="24.375" transform="rotate(0)"><tspan id="SvgjsTspan1643" dy="16.25" x="45"><tspan id="SvgjsTspan1644" style="">program</tspan></tspan></text></g></g><g id="SvgjsG1645" transform="translate(194,447)"><path id="SvgjsPath1646" d="M 10.8 49C -9 35 3.6 24.5 8.1 21C 6.3 3.5 28.8 0 37.8 7C 45 -3.5 67.5 0 67.5 10.5C 85.5 7 92.7 21 85.5 38.5C 91.8 52.5 85.5 70 64.8 63C 60.3 72.1 42.3 72.1 37.8 63C 28.8 70 10.8 66.5 10.8 49Z" stroke="rgba(33,41,48,1)" stroke-width="1.5" fill-opacity="1" fill="#ffffff"></path><g id="SvgjsG1647"><text id="SvgjsText1648" font-family="&quot;Microsoft YaHei&quot;, 微软雅黑, Arial" text-anchor="middle" font-size="13px" width="70px" fill="#323232" font-weight="400" align="middle" lineHeight="125%" anchor="middle" family="&quot;Microsoft YaHei&quot;, 微软雅黑, Arial" size="13px" weight="400" font-style="" opacity="1" y="24.375" transform="rotate(0)"><tspan id="SvgjsTspan1649" dy="16.25" x="45"><tspan id="SvgjsTspan1650" style="">program</tspan></tspan></text></g></g><g id="SvgjsG1651"><path id="SvgjsPath1652" d="M239 397.75L239 446.3769533379078" stroke="#323232" stroke-width="1.5" fill="none" marker-end="url(#SvgjsMarker1653)"></path></g><g id="SvgjsG1655"><path id="SvgjsPath1656" d="M405 397.75L405 446.30089604417583" stroke="#323232" stroke-width="1.5" fill="none" marker-end="url(#SvgjsMarker1657)"></path></g><g id="SvgjsG1659"></g></svg>