<svg id="SvgjsSvg1712" width="1087.2727272727273" height="135.77318181818185" xmlns="http://www.w3.org/2000/svg" version="1.1" xmlns:xlink="http://www.w3.org/1999/xlink" xmlns:svgjs="http://svgjs.com/svgjs"><defs id="SvgjsDefs1713"><pattern patternUnits="userSpaceOnUse" id="pattern_mark_0" width="300" height="300"><text x="150" y="100" fill="rgba(229,229,229,0.8)" font-size="18" transform="rotate(-45, 150, 150)" style="dominant-baseline: middle; text-anchor: middle;"></text></pattern><pattern patternUnits="userSpaceOnUse" id="pattern_mark_1" width="300" height="300"><text x="150" y="200" fill="rgba(229,229,229,0.8)" font-size="18" transform="rotate(-45, 150, 150)" style="dominant-baseline: middle; text-anchor: middle;"></text></pattern><marker id="SvgjsMarker1785" markerWidth="13" markerHeight="9" refX="9.5" refY="4.5" viewBox="0 0 13 9" orient="auto" markerUnits="userSpaceOnUse" stroke-dasharray="0,0"><path id="SvgjsPath1786" d="M0,0 L13,4.5 L0,9 L0,0" fill="#323232" stroke="#323232" stroke-width="1"></path></marker><marker id="SvgjsMarker1789" markerWidth="13" markerHeight="9" refX="9.5" refY="4.5" viewBox="0 0 13 9" orient="auto" markerUnits="userSpaceOnUse" stroke-dasharray="0,0"><path id="SvgjsPath1790" d="M0,0 L13,4.5 L0,9 L0,0" fill="#323232" stroke="#323232" stroke-width="1"></path></marker><marker id="SvgjsMarker1793" markerWidth="13" markerHeight="9" refX="9.5" refY="4.5" viewBox="0 0 13 9" orient="auto" markerUnits="userSpaceOnUse" stroke-dasharray="0,0"><path id="SvgjsPath1794" d="M0,0 L13,4.5 L0,9 L0,0" fill="#323232" stroke="#323232" stroke-width="1"></path></marker><marker id="SvgjsMarker1797" markerWidth="13" markerHeight="9" refX="9.5" refY="4.5" viewBox="0 0 13 9" orient="auto" markerUnits="userSpaceOnUse" stroke-dasharray="0,0"><path id="SvgjsPath1798" d="M0,0 L13,4.5 L0,9 L0,0" fill="#323232" stroke="#323232" stroke-width="1"></path></marker></defs><rect id="svgbackgroundid" width="1087.2727272727273" height="135.77318181818185" fill="transparent"></rect><rect id="SvgjsRect1715" width="1087.2727272727273" height="135.77318181818185" fill="url(#pattern_mark_0)"></rect><rect id="SvgjsRect1716" width="1087.2727272727273" height="135.77318181818185" fill="url(#pattern_mark_1)"></rect><g id="SvgjsG1717" transform="translate(42.272727272727366,25.000000000000057)"><path id="SvgjsPath1718" d="M 0 61.667L 0 0L 100 0L 100 61.667Q 75 45 50 61.667Q 25 78.333 0 61.667Z" stroke="rgba(33,41,48,1)" stroke-width="1.5" fill-opacity="1" fill="#99ccff"></path><g id="SvgjsG1719"><text id="SvgjsText1720" font-family="&quot;Microsoft YaHei&quot;, 微软雅黑, Arial" text-anchor="middle" font-size="13px" width="100px" fill="#323232" font-weight="400" align="middle" lineHeight="125%" anchor="middle" family="&quot;Microsoft YaHei&quot;, 微软雅黑, Arial" size="13px" weight="400" font-style="" opacity="1" y="20.875" transform="rotate(0)"></text></g></g><g id="SvgjsG1721" transform="translate(33.18181818181813,31.36363636363643)"><path id="SvgjsPath1722" d="M 0 61.667L 0 0L 100 0L 100 61.667Q 75 45 50 61.667Q 25 78.333 0 61.667Z" stroke="rgba(33,41,48,1)" stroke-width="1.5" fill-opacity="1" fill="#99ccff"></path><g id="SvgjsG1723"><text id="SvgjsText1724" font-family="&quot;Microsoft YaHei&quot;, 微软雅黑, Arial" text-anchor="middle" font-size="13px" width="100px" fill="#323232" font-weight="400" align="middle" lineHeight="125%" anchor="middle" family="&quot;Microsoft YaHei&quot;, 微软雅黑, Arial" size="13px" weight="400" font-style="" opacity="1" y="20.875" transform="rotate(0)"></text></g></g><g id="SvgjsG1725" transform="translate(25,40.454545454545496)"><path id="SvgjsPath1726" d="M 0 61.667L 0 0L 100 0L 100 61.667Q 75 45 50 61.667Q 25 78.333 0 61.667Z" stroke="rgba(33,41,48,1)" stroke-width="1.5" fill-opacity="1" fill="#99ccff"></path><g id="SvgjsG1727"><text id="SvgjsText1728" font-family="&quot;Microsoft YaHei&quot;, 微软雅黑, Arial" text-anchor="middle" font-size="13px" width="100px" fill="#323232" font-weight="400" align="middle" lineHeight="125%" anchor="middle" family="&quot;Microsoft YaHei&quot;, 微软雅黑, Arial" size="13px" weight="400" font-style="" opacity="1" y="12.375" transform="rotate(0)"><tspan id="SvgjsTspan1729" dy="16.25" x="50"><tspan id="SvgjsTspan1730" style="">1.txt</tspan></tspan><tspan id="SvgjsTspan1731" dy="16.25" x="50"><tspan id="SvgjsTspan1732" style="">hello...</tspan></tspan></text></g></g><g id="SvgjsG1733" transform="translate(962.2727272727273,25.000000000000057)"><path id="SvgjsPath1734" d="M 0 61.667L 0 0L 100 0L 100 61.667Q 75 45 50 61.667Q 25 78.333 0 61.667Z" stroke="rgba(33,41,48,1)" stroke-width="1.5" fill-opacity="1" fill="#99ccff"></path><g id="SvgjsG1735"><text id="SvgjsText1736" font-family="&quot;Microsoft YaHei&quot;, 微软雅黑, Arial" text-anchor="middle" font-size="13px" width="100px" fill="#323232" font-weight="400" align="middle" lineHeight="125%" anchor="middle" family="&quot;Microsoft YaHei&quot;, 微软雅黑, Arial" size="13px" weight="400" font-style="" opacity="1" y="20.875" transform="rotate(0)"></text></g></g><g id="SvgjsG1737" transform="translate(953.181818181818,31.36363636363643)"><path id="SvgjsPath1738" d="M 0 61.667L 0 0L 100 0L 100 61.667Q 75 45 50 61.667Q 25 78.333 0 61.667Z" stroke="rgba(33,41,48,1)" stroke-width="1.5" fill-opacity="1" fill="#99ccff"></path><g id="SvgjsG1739"><text id="SvgjsText1740" font-family="&quot;Microsoft YaHei&quot;, 微软雅黑, Arial" text-anchor="middle" font-size="13px" width="100px" fill="#323232" font-weight="400" align="middle" lineHeight="125%" anchor="middle" family="&quot;Microsoft YaHei&quot;, 微软雅黑, Arial" size="13px" weight="400" font-style="" opacity="1" y="20.875" transform="rotate(0)"></text></g></g><g id="SvgjsG1741" transform="translate(945,40.454545454545496)"><path id="SvgjsPath1742" d="M 0 61.667L 0 0L 100 0L 100 61.667Q 75 45 50 61.667Q 25 78.333 0 61.667Z" stroke="rgba(33,41,48,1)" stroke-width="1.5" fill-opacity="1" fill="#99ccff"></path><g id="SvgjsG1743"><text id="SvgjsText1744" font-family="&quot;Microsoft YaHei&quot;, 微软雅黑, Arial" text-anchor="middle" font-size="13px" width="100px" fill="#323232" font-weight="400" align="middle" lineHeight="125%" anchor="middle" family="&quot;Microsoft YaHei&quot;, 微软雅黑, Arial" size="13px" weight="400" font-style="" opacity="1" y="12.375" transform="rotate(0)"><tspan id="SvgjsTspan1745" dy="16.25" x="50"><tspan id="SvgjsTspan1746" style="">2.txt</tspan></tspan><tspan id="SvgjsTspan1747" dy="16.25" x="50"><tspan id="SvgjsTspan1748" style="">hello...</tspan></tspan></text></g></g><g id="SvgjsG1749" transform="translate(236.31818181818198,25.000000000000057)"><path id="SvgjsPath1750" d="M 0 0L 164.364 0L 164.364 85.455L 0 85.455Z" stroke="rgba(33,41,48,1)" stroke-width="1.5" fill-opacity="1" fill="#ff6565"></path><g id="SvgjsG1751"><text id="SvgjsText1752" font-family="&quot;Microsoft YaHei&quot;, 微软雅黑, Arial" text-anchor="start" font-size="13px" width="145px" fill="#323232" font-weight="400" align="top" lineHeight="125%" anchor="start" family="&quot;Microsoft YaHei&quot;, 微软雅黑, Arial" size="13px" weight="400" font-style="" opacity="1" y="-2.625" transform="rotate(0)"><tspan id="SvgjsTspan1753" dy="16.25" x="10"><tspan id="SvgjsTspan1754" style="">Java输入流对象</tspan></tspan></text></g></g><g id="SvgjsG1755" transform="translate(276.31818181818187,75.27272727272731)"><path id="SvgjsPath1756" d="M 0 0L 125.273 0L 125.273 35.182L 0 35.182Z" stroke="rgba(33,41,48,1)" stroke-width="1.5" fill-opacity="1" fill="#03cb00"></path><g id="SvgjsG1757"><text id="SvgjsText1758" font-family="&quot;Microsoft YaHei&quot;, 微软雅黑, Arial" text-anchor="middle" font-size="13px" width="106px" fill="#323232" font-weight="400" align="middle" lineHeight="125%" anchor="middle" family="&quot;Microsoft YaHei&quot;, 微软雅黑, Arial" size="13px" weight="400" font-style="" opacity="1" y="6.966000000000001" transform="rotate(0)"><tspan id="SvgjsTspan1759" dy="16.25" x="63"><tspan id="SvgjsTspan1760" style="">NIO FileChannel</tspan></tspan></text></g></g><g id="SvgjsG1761" transform="translate(685.6818181818182,25)"><path id="SvgjsPath1762" d="M 0 0L 164.364 0L 164.364 85.455L 0 85.455Z" stroke="rgba(33,41,48,1)" stroke-width="1.5" fill-opacity="1" fill="#ff6565"></path><g id="SvgjsG1763"><text id="SvgjsText1764" font-family="&quot;Microsoft YaHei&quot;, 微软雅黑, Arial" text-anchor="start" font-size="13px" width="145px" fill="#323232" font-weight="400" align="top" lineHeight="125%" anchor="start" family="&quot;Microsoft YaHei&quot;, 微软雅黑, Arial" size="13px" weight="400" font-style="" opacity="1" y="-2.625" transform="rotate(0)"><tspan id="SvgjsTspan1765" dy="16.25" x="10"><tspan id="SvgjsTspan1766" style="">Java输入流对象</tspan></tspan></text></g></g><g id="SvgjsG1767" transform="translate(725.681818181818,75.27272727272725)"><path id="SvgjsPath1768" d="M 0 0L 125.273 0L 125.273 35.182L 0 35.182Z" stroke="rgba(33,41,48,1)" stroke-width="1.5" fill-opacity="1" fill="#03cb00"></path><g id="SvgjsG1769"><text id="SvgjsText1770" font-family="&quot;Microsoft YaHei&quot;, 微软雅黑, Arial" text-anchor="middle" font-size="13px" width="106px" fill="#323232" font-weight="400" align="middle" lineHeight="125%" anchor="middle" family="&quot;Microsoft YaHei&quot;, 微软雅黑, Arial" size="13px" weight="400" font-style="" opacity="1" y="6.966000000000001" transform="rotate(0)"><tspan id="SvgjsTspan1771" dy="16.25" x="63"><tspan id="SvgjsTspan1772" style="">NIO FileChannel</tspan></tspan></text></g></g><g id="SvgjsG1773" transform="translate(495.6363636363637,25.31818181818187)"><path id="SvgjsPath1774" d="M 0 4Q 0 0 4 0L 92 0Q 96 0 96 4L 96 81.455Q 96 85.455 92 85.455L 4 85.455Q 0 85.455 0 81.455Z" stroke="rgba(33,41,48,1)" stroke-width="1.5" fill-opacity="1" fill="#000000"></path><g id="SvgjsG1775"><text id="SvgjsText1776" font-family="&quot;Microsoft YaHei&quot;, 微软雅黑, Arial" text-anchor="middle" font-size="13px" width="76px" fill="#ffffff" font-weight="400" align="middle" lineHeight="125%" anchor="middle" family="&quot;Microsoft YaHei&quot;, 微软雅黑, Arial" size="13px" weight="400" font-style="" opacity="1" y="15.6025" transform="rotate(0)"><tspan id="SvgjsTspan1777" dy="16.25" x="48"><tspan id="SvgjsTspan1778" style="">ByteBuffer</tspan></tspan><tspan id="SvgjsTspan1779" dy="16.25" x="48"><tspan id="SvgjsTspan1780" style=""> </tspan></tspan><tspan id="SvgjsTspan1781" dy="16.25" x="48"><tspan id="SvgjsTspan1782" style="">hello...</tspan></tspan></text></g></g><g id="SvgjsG1783"><path id="SvgjsPath1784" d="M143.02174788718276 60.03831604260512C 197.478826145303 60.00000000000006 221.11208294560623 92.86372727272732 273.6217076061426 92.72578951934912" stroke="#323232" stroke-width="1.5" fill="none" marker-end="url(#SvgjsMarker1785)"></path></g><g id="SvgjsG1787"><path id="SvgjsPath1788" d="M402.3389492748059 92.80590140642153C 440.49713287288654 92.86372727272732 456.730412581659 68.04518181818185 492.9444007925171 68.25335493688283" stroke="#323232" stroke-width="1.5" fill="none" marker-end="url(#SvgjsMarker1789)"></path></g><g id="SvgjsG1791"><path id="SvgjsPath1792" d="M592.3857796539207 68.07477290854536C 646.1658332215732 68.04518181818185 671.1523485966086 92.86372727272726 722.9839205186126 92.75719934741869" stroke="#323232" stroke-width="1.5" fill="none" marker-end="url(#SvgjsMarker1793)"></path></g><g id="SvgjsG1795"><path id="SvgjsPath1796" d="M851.7036535334955 92.82194670214898C 889.2120022596739 92.86372727272726 906.742815922144 75.4545454545455 942.3041927339605 75.60495550862737" stroke="#323232" stroke-width="1.5" fill="none" marker-end="url(#SvgjsMarker1797)"></path></g><g id="SvgjsG1799"></g></svg>