<svg id="SvgjsSvg1240" width="615" height="380" xmlns="http://www.w3.org/2000/svg" version="1.1" xmlns:xlink="http://www.w3.org/1999/xlink" xmlns:svgjs="http://svgjs.com/svgjs"><defs id="SvgjsDefs1241"><pattern patternUnits="userSpaceOnUse" id="pattern_mark_0" width="300" height="300"><text x="150" y="100" fill="rgba(229,229,229,0.8)" font-size="18" transform="rotate(-45, 150, 150)" style="dominant-baseline: middle; text-anchor: middle;"></text></pattern><pattern patternUnits="userSpaceOnUse" id="pattern_mark_1" width="300" height="300"><text x="150" y="200" fill="rgba(229,229,229,0.8)" font-size="18" transform="rotate(-45, 150, 150)" style="dominant-baseline: middle; text-anchor: middle;"></text></pattern></defs><rect id="svgbackgroundid" width="615" height="380" fill="transparent"></rect><rect id="SvgjsRect1243" width="615" height="380" fill="url(#pattern_mark_0)"></rect><rect id="SvgjsRect1244" width="615" height="380" fill="url(#pattern_mark_1)"></rect><g id="SvgjsG1245" transform="translate(25,25)"><path id="SvgjsPath1246" d="M 0 4Q 0 0 4 0L 92 0Q 96 0 96 4L 96 42Q 96 46 92 46L 4 46Q 0 46 0 42Z" stroke="rgba(33,41,48,1)" stroke-width="1.5" fill-opacity="1" fill="#ffb84d"></path><g id="SvgjsG1247"><text id="SvgjsText1248" font-family="&quot;Microsoft YaHei&quot;, 微软雅黑, Arial" text-anchor="middle" font-size="13px" width="76px" fill="#323232" font-weight="400" align="middle" lineHeight="125%" anchor="middle" family="&quot;Microsoft YaHei&quot;, 微软雅黑, Arial" size="13px" weight="400" font-style="" opacity="1" y="12.375" transform="rotate(0)"><tspan id="SvgjsTspan1249" dy="16.25" x="48"><tspan id="SvgjsTspan1250" style="">socket</tspan></tspan></text></g></g><g id="SvgjsG1251" transform="translate(25,131)"><path id="SvgjsPath1252" d="M 0 4Q 0 0 4 0L 92 0Q 96 0 96 4L 96 42Q 96 46 92 46L 4 46Q 0 46 0 42Z" stroke="rgba(33,41,48,1)" stroke-width="1.5" fill-opacity="1" fill="#80c784"></path><g id="SvgjsG1253"><text id="SvgjsText1254" font-family="&quot;Microsoft YaHei&quot;, 微软雅黑, Arial" text-anchor="middle" font-size="13px" width="76px" fill="#323232" font-weight="400" align="middle" lineHeight="125%" anchor="middle" family="&quot;Microsoft YaHei&quot;, 微软雅黑, Arial" size="13px" weight="400" font-style="" opacity="1" y="12.375" transform="rotate(0)"><tspan id="SvgjsTspan1255" dy="16.25" x="48"><tspan id="SvgjsTspan1256" style="">read/write</tspan></tspan></text></g></g><g id="SvgjsG1257" transform="translate(25,237)"><path id="SvgjsPath1258" d="M 0 4Q 0 0 4 0L 92 0Q 96 0 96 4L 96 42Q 96 46 92 46L 4 46Q 0 46 0 42Z" stroke="rgba(33,41,48,1)" stroke-width="1.5" fill-opacity="1" fill="#ba68c8"></path><g id="SvgjsG1259"><text id="SvgjsText1260" font-family="&quot;Microsoft YaHei&quot;, 微软雅黑, Arial" text-anchor="middle" font-size="13px" width="76px" fill="#323232" font-weight="400" align="middle" lineHeight="125%" anchor="middle" family="&quot;Microsoft YaHei&quot;, 微软雅黑, Arial" size="13px" weight="400" font-style="" opacity="1" y="12.375" transform="rotate(0)"><tspan id="SvgjsTspan1261" dy="16.25" x="48"><tspan id="SvgjsTspan1262" style="">Thread</tspan></tspan></text></g></g><g id="SvgjsG1263"><path id="SvgjsPath1264" d="M73 71.75C 73 95 73 107 73 130.25" stroke="#323232" stroke-width="1.5" fill="none"></path></g><g id="SvgjsG1265"><path id="SvgjsPath1266" d="M73 177.75C 73 201 73 213 73 236.25" stroke="#323232" stroke-width="1.5" fill="none"></path></g><g id="SvgjsG1267" transform="translate(259.5,25)"><path id="SvgjsPath1268" d="M 0 4Q 0 0 4 0L 92 0Q 96 0 96 4L 96 42Q 96 46 92 46L 4 46Q 0 46 0 42Z" stroke="rgba(33,41,48,1)" stroke-width="1.5" fill-opacity="1" fill="#ffb84d"></path><g id="SvgjsG1269"><text id="SvgjsText1270" font-family="&quot;Microsoft YaHei&quot;, 微软雅黑, Arial" text-anchor="middle" font-size="13px" width="76px" fill="#323232" font-weight="400" align="middle" lineHeight="125%" anchor="middle" family="&quot;Microsoft YaHei&quot;, 微软雅黑, Arial" size="13px" weight="400" font-style="" opacity="1" y="12.375" transform="rotate(0)"><tspan id="SvgjsTspan1271" dy="16.25" x="48"><tspan id="SvgjsTspan1272" style="">socket</tspan></tspan></text></g></g><g id="SvgjsG1273" transform="translate(259.5,131)"><path id="SvgjsPath1274" d="M 0 4Q 0 0 4 0L 92 0Q 96 0 96 4L 96 42Q 96 46 92 46L 4 46Q 0 46 0 42Z" stroke="rgba(33,41,48,1)" stroke-width="1.5" fill-opacity="1" fill="#80c784"></path><g id="SvgjsG1275"><text id="SvgjsText1276" font-family="&quot;Microsoft YaHei&quot;, 微软雅黑, Arial" text-anchor="middle" font-size="13px" width="76px" fill="#323232" font-weight="400" align="middle" lineHeight="125%" anchor="middle" family="&quot;Microsoft YaHei&quot;, 微软雅黑, Arial" size="13px" weight="400" font-style="" opacity="1" y="12.375" transform="rotate(0)"><tspan id="SvgjsTspan1277" dy="16.25" x="48"><tspan id="SvgjsTspan1278" style="">read/write</tspan></tspan></text></g></g><g id="SvgjsG1279" transform="translate(259.5,237)"><path id="SvgjsPath1280" d="M 0 4Q 0 0 4 0L 92 0Q 96 0 96 4L 96 42Q 96 46 92 46L 4 46Q 0 46 0 42Z" stroke="rgba(33,41,48,1)" stroke-width="1.5" fill-opacity="1" fill="#ba68c8"></path><g id="SvgjsG1281"><text id="SvgjsText1282" font-family="&quot;Microsoft YaHei&quot;, 微软雅黑, Arial" text-anchor="middle" font-size="13px" width="76px" fill="#323232" font-weight="400" align="middle" lineHeight="125%" anchor="middle" family="&quot;Microsoft YaHei&quot;, 微软雅黑, Arial" size="13px" weight="400" font-style="" opacity="1" y="12.375" transform="rotate(0)"><tspan id="SvgjsTspan1283" dy="16.25" x="48"><tspan id="SvgjsTspan1284" style="">Thread</tspan></tspan></text></g></g><g id="SvgjsG1285"><path id="SvgjsPath1286" d="M307.5 71.75C 307.5 95 307.5 107 307.5 130.25" stroke="#323232" stroke-width="1.5" fill="none"></path></g><g id="SvgjsG1287"><path id="SvgjsPath1288" d="M307.5 177.75C 307.5 201 307.5 213 307.5 236.25" stroke="#323232" stroke-width="1.5" fill="none"></path></g><g id="SvgjsG1289" transform="translate(494,25)"><path id="SvgjsPath1290" d="M 0 4Q 0 0 4 0L 92 0Q 96 0 96 4L 96 42Q 96 46 92 46L 4 46Q 0 46 0 42Z" stroke="rgba(33,41,48,1)" stroke-width="1.5" fill-opacity="1" fill="#ffb84d"></path><g id="SvgjsG1291"><text id="SvgjsText1292" font-family="&quot;Microsoft YaHei&quot;, 微软雅黑, Arial" text-anchor="middle" font-size="13px" width="76px" fill="#323232" font-weight="400" align="middle" lineHeight="125%" anchor="middle" family="&quot;Microsoft YaHei&quot;, 微软雅黑, Arial" size="13px" weight="400" font-style="" opacity="1" y="12.375" transform="rotate(0)"><tspan id="SvgjsTspan1293" dy="16.25" x="48"><tspan id="SvgjsTspan1294" style="">socket</tspan></tspan></text></g></g><g id="SvgjsG1295" transform="translate(494,131)"><path id="SvgjsPath1296" d="M 0 4Q 0 0 4 0L 92 0Q 96 0 96 4L 96 42Q 96 46 92 46L 4 46Q 0 46 0 42Z" stroke="rgba(33,41,48,1)" stroke-width="1.5" fill-opacity="1" fill="#80c784"></path><g id="SvgjsG1297"><text id="SvgjsText1298" font-family="&quot;Microsoft YaHei&quot;, 微软雅黑, Arial" text-anchor="middle" font-size="13px" width="76px" fill="#323232" font-weight="400" align="middle" lineHeight="125%" anchor="middle" family="&quot;Microsoft YaHei&quot;, 微软雅黑, Arial" size="13px" weight="400" font-style="" opacity="1" y="12.375" transform="rotate(0)"><tspan id="SvgjsTspan1299" dy="16.25" x="48"><tspan id="SvgjsTspan1300" style="">read/write</tspan></tspan></text></g></g><g id="SvgjsG1301" transform="translate(494,237)"><path id="SvgjsPath1302" d="M 0 4Q 0 0 4 0L 92 0Q 96 0 96 4L 96 42Q 96 46 92 46L 4 46Q 0 46 0 42Z" stroke="rgba(33,41,48,1)" stroke-width="1.5" fill-opacity="1" fill="#ba68c8"></path><g id="SvgjsG1303"><text id="SvgjsText1304" font-family="&quot;Microsoft YaHei&quot;, 微软雅黑, Arial" text-anchor="middle" font-size="13px" width="76px" fill="#323232" font-weight="400" align="middle" lineHeight="125%" anchor="middle" family="&quot;Microsoft YaHei&quot;, 微软雅黑, Arial" size="13px" weight="400" font-style="" opacity="1" y="12.375" transform="rotate(0)"><tspan id="SvgjsTspan1305" dy="16.25" x="48"><tspan id="SvgjsTspan1306" style="">Thread</tspan></tspan></text></g></g><g id="SvgjsG1307"><path id="SvgjsPath1308" d="M542 71.75C 542 95 542 107 542 130.25" stroke="#323232" stroke-width="1.5" fill="none"></path></g><g id="SvgjsG1309"><path id="SvgjsPath1310" d="M542 177.75C 542 201 542 213 542 236.25" stroke="#323232" stroke-width="1.5" fill="none"></path></g><g id="SvgjsG1311" transform="translate(227.75,323)"><path id="SvgjsPath1312" d="M 0 4Q 0 0 4 0L 155.5 0Q 159.5 0 159.5 4L 159.5 28Q 159.5 32 155.5 32L 4 32Q 0 32 0 28Z" stroke="rgba(33,41,48,1)" stroke-width="1.5" fill-opacity="1" fill="#ffffff"></path><g id="SvgjsG1313"><text id="SvgjsText1314" font-family="&quot;Microsoft YaHei&quot;, 微软雅黑, Arial" text-anchor="middle" font-size="13px" width="140px" fill="#323232" font-weight="400" align="middle" lineHeight="125%" anchor="middle" family="&quot;Microsoft YaHei&quot;, 微软雅黑, Arial" size="13px" weight="400" font-style="" opacity="1" y="5.375" transform="rotate(0)"><tspan id="SvgjsTspan1315" dy="16.25" x="80"><tspan id="SvgjsTspan1316" style="">Blocking I/O</tspan></tspan></text></g></g><g id="SvgjsG1317"></g></svg>