<svg id="SvgjsSvg1874" width="853.8269774011309" height="572.9237288135594" xmlns="http://www.w3.org/2000/svg" version="1.1" xmlns:xlink="http://www.w3.org/1999/xlink" xmlns:svgjs="http://svgjs.com/svgjs"><defs id="SvgjsDefs1875"><pattern patternUnits="userSpaceOnUse" id="pattern_mark_0" width="300" height="300"><text x="150" y="100" fill="rgba(229,229,229,0.8)" font-size="18" transform="rotate(-45, 150, 150)" style="dominant-baseline: middle; text-anchor: middle;"></text></pattern><pattern patternUnits="userSpaceOnUse" id="pattern_mark_1" width="300" height="300"><text x="150" y="200" fill="rgba(229,229,229,0.8)" font-size="18" transform="rotate(-45, 150, 150)" style="dominant-baseline: middle; text-anchor: middle;"></text></pattern><marker id="SvgjsMarker1906" markerWidth="14" markerHeight="10" refX="10" refY="5" viewBox="0 0 14 10" orient="auto" markerUnits="userSpaceOnUse" stroke-dasharray="0,0"><path id="SvgjsPath1907" d="M0,0 L14,5 L0,10 L0,0" fill="#fe932f" stroke="#fe932f" stroke-width="1"></path></marker><marker id="SvgjsMarker1910" markerWidth="14" markerHeight="10" refX="10" refY="5" viewBox="0 0 14 10" orient="auto" markerUnits="userSpaceOnUse" stroke-dasharray="0,0"><path id="SvgjsPath1911" d="M0,0 L14,5 L0,10 L0,0" fill="#fe932f" stroke="#fe932f" stroke-width="1"></path></marker><marker id="SvgjsMarker1918" markerWidth="14" markerHeight="10" refX="10" refY="5" viewBox="0 0 14 10" orient="auto" markerUnits="userSpaceOnUse" stroke-dasharray="0,0"><path id="SvgjsPath1919" d="M0,0 L14,5 L0,10 L0,0" fill="#fe932f" stroke="#fe932f" stroke-width="1"></path></marker><marker id="SvgjsMarker1922" markerWidth="14" markerHeight="10" refX="10" refY="5" viewBox="0 0 14 10" orient="auto" markerUnits="userSpaceOnUse" stroke-dasharray="0,0"><path id="SvgjsPath1923" d="M0,0 L14,5 L0,10 L0,0" fill="#fe932f" stroke="#fe932f" stroke-width="1"></path></marker><marker id="SvgjsMarker1930" markerWidth="14" markerHeight="10" refX="10" refY="5" viewBox="0 0 14 10" orient="auto" markerUnits="userSpaceOnUse" stroke-dasharray="0,0"><path id="SvgjsPath1931" d="M0,0 L14,5 L0,10 L0,0" fill="#fe932f" stroke="#fe932f" stroke-width="1"></path></marker><marker id="SvgjsMarker1934" markerWidth="14" markerHeight="10" refX="10" refY="5" viewBox="0 0 14 10" orient="auto" markerUnits="userSpaceOnUse" stroke-dasharray="0,0"><path id="SvgjsPath1935" d="M0,0 L14,5 L0,10 L0,0" fill="#fe932f" stroke="#fe932f" stroke-width="1"></path></marker><marker id="SvgjsMarker1942" markerWidth="14" markerHeight="10" refX="10" refY="5" viewBox="0 0 14 10" orient="auto" markerUnits="userSpaceOnUse" stroke-dasharray="0,0"><path id="SvgjsPath1943" d="M0,0 L14,5 L0,10 L0,0" fill="#fe932f" stroke="#fe932f" stroke-width="1"></path></marker><marker id="SvgjsMarker1946" markerWidth="14" markerHeight="10" refX="10" refY="5" viewBox="0 0 14 10" orient="auto" markerUnits="userSpaceOnUse" stroke-dasharray="0,0"><path id="SvgjsPath1947" d="M0,0 L14,5 L0,10 L0,0" fill="#fe932f" stroke="#fe932f" stroke-width="1"></path></marker><marker id="SvgjsMarker1954" markerWidth="14" markerHeight="10" refX="10" refY="5" viewBox="0 0 14 10" orient="auto" markerUnits="userSpaceOnUse" stroke-dasharray="0,0"><path id="SvgjsPath1955" d="M0,0 L14,5 L0,10 L0,0" fill="#fe932f" stroke="#fe932f" stroke-width="1"></path></marker><marker id="SvgjsMarker1958" markerWidth="14" markerHeight="10" refX="10" refY="5" viewBox="0 0 14 10" orient="auto" markerUnits="userSpaceOnUse" stroke-dasharray="0,0"><path id="SvgjsPath1959" d="M0,0 L14,5 L0,10 L0,0" fill="#fe932f" stroke="#fe932f" stroke-width="1"></path></marker><marker id="SvgjsMarker1990" markerWidth="13" markerHeight="9" refX="3.5" refY="4.5" viewBox="0 0 13 9" orient="auto" markerUnits="userSpaceOnUse" stroke-dasharray="0,0"><path id="SvgjsPath1991" d="M13,0 L0,4.5 L13,9 L13,0" fill="#b2ccff" stroke="#b2ccff" stroke-width="1"></path></marker><marker id="SvgjsMarker1998" markerWidth="13" markerHeight="9" refX="3.5" refY="4.5" viewBox="0 0 13 9" orient="auto" markerUnits="userSpaceOnUse" stroke-dasharray="0,0"><path id="SvgjsPath1999" d="M13,0 L0,4.5 L13,9 L13,0" fill="#b2ccff" stroke="#b2ccff" stroke-width="1"></path></marker><marker id="SvgjsMarker2006" markerWidth="13" markerHeight="9" refX="3.5" refY="4.5" viewBox="0 0 13 9" orient="auto" markerUnits="userSpaceOnUse" stroke-dasharray="0,0"><path id="SvgjsPath2007" d="M13,0 L0,4.5 L13,9 L13,0" fill="#b2ccff" stroke="#b2ccff" stroke-width="1"></path></marker><marker id="SvgjsMarker2014" markerWidth="13" markerHeight="9" refX="3.5" refY="4.5" viewBox="0 0 13 9" orient="auto" markerUnits="userSpaceOnUse" stroke-dasharray="0,0"><path id="SvgjsPath2015" d="M13,0 L0,4.5 L13,9 L13,0" fill="#b2ccff" stroke="#b2ccff" stroke-width="1"></path></marker><marker id="SvgjsMarker2022" markerWidth="13" markerHeight="9" refX="3.5" refY="4.5" viewBox="0 0 13 9" orient="auto" markerUnits="userSpaceOnUse" stroke-dasharray="0,0"><path id="SvgjsPath2023" d="M13,0 L0,4.5 L13,9 L13,0" fill="#b2ccff" stroke="#b2ccff" stroke-width="1"></path></marker><marker id="SvgjsMarker2030" markerWidth="13" markerHeight="9" refX="9.5" refY="4.5" viewBox="0 0 13 9" orient="auto" markerUnits="userSpaceOnUse" stroke-dasharray="0,0"><path id="SvgjsPath2031" d="M0,0 L13,4.5 L0,9 L0,0" fill="#323232" stroke="#323232" stroke-width="1"></path></marker><marker id="SvgjsMarker2068" markerWidth="13" markerHeight="9" refX="9.5" refY="4.5" viewBox="0 0 13 9" orient="auto" markerUnits="userSpaceOnUse" stroke-dasharray="0,0"><path id="SvgjsPath2069" d="M0,0 L13,4.5 L0,9 L0,0" fill="#b2ccff" stroke="#b2ccff" stroke-width="1"></path></marker><marker id="SvgjsMarker2076" markerWidth="13" markerHeight="9" refX="9.5" refY="4.5" viewBox="0 0 13 9" orient="auto" markerUnits="userSpaceOnUse" stroke-dasharray="0,0"><path id="SvgjsPath2077" d="M0,0 L13,4.5 L0,9 L0,0" fill="#ec7270" stroke="#ec7270" stroke-width="1"></path></marker></defs><rect id="svgbackgroundid" width="853.8269774011309" height="572.9237288135594" fill="transparent"></rect><rect id="SvgjsRect1877" width="853.8269774011309" height="572.9237288135594" fill="url(#pattern_mark_0)"></rect><rect id="SvgjsRect1878" width="853.8269774011309" height="572.9237288135594" fill="url(#pattern_mark_1)"></rect><g id="SvgjsG1879" transform="translate(417.16031073446413,35.83333333333332)"><path id="SvgjsPath1880" d="M 10 0L 100 0L 100 70L 10 70L 10 56L 0 56L 0 42L 10 42L 10 28L 0 28L 0 14L 10 14L 10 0Z" stroke="rgba(33,41,48,1)" stroke-width="1.5" fill-opacity="1" fill="#4d81bd"></path><path id="SvgjsPath1881" d="M 10 56L 20 56L 20 42L 10 42M 10 28L 20 28L 20 14L 10 14" stroke="rgba(33,41,48,1)" stroke-width="1.5" fill="none"></path><path id="SvgjsPath1882" d="M 10 0L 100 0L 100 70L 10 70L 10 56L 0 56L 0 42L 10 42L 10 28L 0 28L 0 14L 10 14L 10 0Z" stroke="none" fill="none"></path><g id="SvgjsG1883"><line id="SvgjsLine1884" x1="18.5" y1="41.25" x2="94.734375" y2="41.25" stroke="#ffffff" stroke-width="1"></line><text id="SvgjsText1885" font-family="&quot;Microsoft YaHei&quot;, 微软雅黑, Arial" text-anchor="middle" font-size="13px" width="78px" fill="#ffffff" font-weight="400" align="middle" lineHeight="125%" anchor="middle" family="&quot;Microsoft YaHei&quot;, 微软雅黑, Arial" size="13px" weight="400" font-style="" opacity="1" y="24.375" transform="rotate(0)"><tspan id="SvgjsTspan1886" dy="16.25" x="56.5"><tspan id="SvgjsTspan1887" style="">Selector实例</tspan></tspan></text></g></g><g id="SvgjsG1888" transform="translate(668.9964689265546,25)"><path id="SvgjsPath1889" d="M 0 25.417C 0 -8.472 91.667 -8.472 91.667 25.417C 91.667 59.306 0 59.306 0 25.417Z" stroke="rgba(33,41,48,1)" stroke-width="1.5" fill-opacity="1" fill="#4d81bd"></path><g id="SvgjsG1890"><text id="SvgjsText1891" font-family="&quot;Microsoft YaHei&quot;, 微软雅黑, Arial" text-anchor="middle" font-size="13px" width="72px" fill="#ffffff" font-weight="400" align="middle" lineHeight="125%" anchor="middle" family="&quot;Microsoft YaHei&quot;, 微软雅黑, Arial" size="13px" weight="400" font-style="" opacity="1" y="14.7915" transform="rotate(0)"><tspan id="SvgjsTspan1892" dy="16.25" x="46"><tspan id="SvgjsTspan1893" style="">Thread</tspan></tspan></text></g></g><g id="SvgjsG1894" transform="translate(417.3269774011308,145.49999999999997)"><path id="SvgjsPath1895" d="M 0 0L 99.667 0L 99.667 30.333L 0 30.333Z" stroke="none" fill-opacity="1" fill="#70d5d7"></path><g id="SvgjsG1896"><text id="SvgjsText1897" font-family="&quot;Microsoft YaHei&quot;, 微软雅黑, Arial" text-anchor="middle" font-size="13px" width="80px" fill="#000000" font-weight="400" align="middle" lineHeight="125%" anchor="middle" family="&quot;Microsoft YaHei&quot;, 微软雅黑, Arial" size="13px" weight="400" font-style="" opacity="1" y="4.541499999999999" transform="rotate(0)"><tspan id="SvgjsTspan1898" dy="16.25" x="50"><tspan id="SvgjsTspan1899" style="">SelectionKey</tspan></tspan></text></g></g><g id="SvgjsG1900" transform="translate(416.2436440677975,255.49999999999997)"><path id="SvgjsPath1901" d="M 0 0L 34.667 0L 34.667 250.333L 0 250.333Z" stroke="rgba(33,41,48,1)" stroke-width="1.5" fill-opacity="1" fill="#000000"></path><g id="SvgjsG1902"><text id="SvgjsText1903" font-family="&quot;Microsoft YaHei&quot;, 微软雅黑, Arial" text-anchor="middle" font-size="13px" width="15px" fill="#323232" font-weight="400" align="middle" lineHeight="125%" anchor="middle" family="&quot;Microsoft YaHei&quot;, 微软雅黑, Arial" size="13px" weight="400" font-style="" opacity="1" y="114.5415" transform="rotate(0)"></text></g></g><g id="SvgjsG1904"><path id="SvgjsPath1905" d="M440.8974902216436 256.9423076923076L440.8974902216436 503.91025641025647" stroke="#fe932f" stroke-width="2" fill="none" marker-end="url(#SvgjsMarker1906)"></path></g><g id="SvgjsG1908"><path id="SvgjsPath1909" d="M425.00005432420767 504.72435897435923L425.00005432420767 257.75641025641016" stroke="#fe932f" stroke-width="2" fill="none" marker-end="url(#SvgjsMarker1910)"></path></g><g id="SvgjsG1912" transform="translate(349.0769774011309,255.49999999999997)"><path id="SvgjsPath1913" d="M 0 0L 34.667 0L 34.667 250.333L 0 250.333Z" stroke="rgba(33,41,48,1)" stroke-width="1.5" fill-opacity="1" fill="#000000"></path><g id="SvgjsG1914"><text id="SvgjsText1915" font-family="&quot;Microsoft YaHei&quot;, 微软雅黑, Arial" text-anchor="middle" font-size="13px" width="15px" fill="#323232" font-weight="400" align="middle" lineHeight="125%" anchor="middle" family="&quot;Microsoft YaHei&quot;, 微软雅黑, Arial" size="13px" weight="400" font-style="" opacity="1" y="114.5415" transform="rotate(0)"></text></g></g><g id="SvgjsG1916"><path id="SvgjsPath1917" d="M373.73082355497695 256.9423076923076L373.73082355497695 503.9102564102565" stroke="#fe932f" stroke-width="2" fill="none" marker-end="url(#SvgjsMarker1918)"></path></g><g id="SvgjsG1920"><path id="SvgjsPath1921" d="M357.83338765754104 504.72435897435935L357.83338765754104 257.75641025641016" stroke="#fe932f" stroke-width="2" fill="none" marker-end="url(#SvgjsMarker1922)"></path></g><g id="SvgjsG1924" transform="translate(483.41031073446425,255.49999999999997)"><path id="SvgjsPath1925" d="M 0 0L 34.667 0L 34.667 250.333L 0 250.333Z" stroke="rgba(33,41,48,1)" stroke-width="1.5" fill-opacity="1" fill="#000000"></path><g id="SvgjsG1926"><text id="SvgjsText1927" font-family="&quot;Microsoft YaHei&quot;, 微软雅黑, Arial" text-anchor="middle" font-size="13px" width="15px" fill="#323232" font-weight="400" align="middle" lineHeight="125%" anchor="middle" family="&quot;Microsoft YaHei&quot;, 微软雅黑, Arial" size="13px" weight="400" font-style="" opacity="1" y="114.5415" transform="rotate(0)"></text></g></g><g id="SvgjsG1928"><path id="SvgjsPath1929" d="M508.0641568883102 256.9423076923076L508.0641568883102 503.91025641025675" stroke="#fe932f" stroke-width="2" fill="none" marker-end="url(#SvgjsMarker1930)"></path></g><g id="SvgjsG1932"><path id="SvgjsPath1933" d="M492.1667209908744 504.7243589743596L492.1667209908744 257.75641025641016" stroke="#fe932f" stroke-width="2" fill="none" marker-end="url(#SvgjsMarker1934)"></path></g><g id="SvgjsG1936" transform="translate(281.9103107344642,255.49999999999997)"><path id="SvgjsPath1937" d="M 0 0L 34.667 0L 34.667 250.333L 0 250.333Z" stroke="rgba(33,41,48,1)" stroke-width="1.5" fill-opacity="1" fill="#000000"></path><g id="SvgjsG1938"><text id="SvgjsText1939" font-family="&quot;Microsoft YaHei&quot;, 微软雅黑, Arial" text-anchor="middle" font-size="13px" width="15px" fill="#323232" font-weight="400" align="middle" lineHeight="125%" anchor="middle" family="&quot;Microsoft YaHei&quot;, 微软雅黑, Arial" size="13px" weight="400" font-style="" opacity="1" y="114.5415" transform="rotate(0)"></text></g></g><g id="SvgjsG1940"><path id="SvgjsPath1941" d="M306.56415688831027 256.9423076923076L306.56415688831027 503.91025641025635" stroke="#fe932f" stroke-width="2" fill="none" marker-end="url(#SvgjsMarker1942)"></path></g><g id="SvgjsG1944"><path id="SvgjsPath1945" d="M290.66672099087435 504.7243589743591L290.66672099087435 257.75641025641016" stroke="#fe932f" stroke-width="2" fill="none" marker-end="url(#SvgjsMarker1946)"></path></g><g id="SvgjsG1948" transform="translate(617.7436440677982,255.49999999999997)"><path id="SvgjsPath1949" d="M 0 0L 34.667 0L 34.667 250.333L 0 250.333Z" stroke="rgba(33,41,48,1)" stroke-width="1.5" fill-opacity="1" fill="#000000"></path><g id="SvgjsG1950"><text id="SvgjsText1951" font-family="&quot;Microsoft YaHei&quot;, 微软雅黑, Arial" text-anchor="middle" font-size="13px" width="15px" fill="#323232" font-weight="400" align="middle" lineHeight="125%" anchor="middle" family="&quot;Microsoft YaHei&quot;, 微软雅黑, Arial" size="13px" weight="400" font-style="" opacity="1" y="114.5415" transform="rotate(0)"></text></g></g><g id="SvgjsG1952"><path id="SvgjsPath1953" d="M642.3974902216444 256.9423076923076L642.3974902216444 503.9102564102564" stroke="#fe932f" stroke-width="2" fill="none" marker-end="url(#SvgjsMarker1954)"></path></g><g id="SvgjsG1956"><path id="SvgjsPath1957" d="M626.5000543242083 504.7243589743591L626.5000543242083 257.75641025641016" stroke="#fe932f" stroke-width="2" fill="none" marker-end="url(#SvgjsMarker1958)"></path></g><g id="SvgjsG1960" transform="translate(540.3184754521981,298.1653826399589)"><path id="SvgjsPath1961" d="M 0 34.078L 0 0L 66.706 0L 66.706 34.078Q 50.029 24.341 33.353 34.078Q 16.676 43.815 0 34.078Z" stroke="rgba(33,41,48,1)" stroke-width="1.5" fill-opacity="1" fill="#d1d1d1"></path><g id="SvgjsG1962"><text id="SvgjsText1963" font-family="&quot;Microsoft YaHei&quot;, 微软雅黑, Arial" text-anchor="middle" font-size="13px" width="67px" fill="#323232" font-weight="400" align="middle" lineHeight="125%" anchor="middle" family="&quot;Microsoft YaHei&quot;, 微软雅黑, Arial" size="13px" weight="400" font-style="" opacity="1" y="6.901" transform="rotate(0)"></text></g></g><g id="SvgjsG1964" transform="translate(534.2543358297219,301.70596334786745)"><path id="SvgjsPath1965" d="M 0 34.078L 0 0L 66.706 0L 66.706 34.078Q 50.029 24.341 33.353 34.078Q 16.676 43.815 0 34.078Z" stroke="rgba(33,41,48,1)" stroke-width="1.5" fill-opacity="1" fill="#d1d1d1"></path><g id="SvgjsG1966"><text id="SvgjsText1967" font-family="&quot;Microsoft YaHei&quot;, 微软雅黑, Arial" text-anchor="middle" font-size="13px" width="67px" fill="#323232" font-weight="400" align="middle" lineHeight="125%" anchor="middle" family="&quot;Microsoft YaHei&quot;, 微软雅黑, Arial" size="13px" weight="400" font-style="" opacity="1" y="6.901" transform="rotate(0)"></text></g></g><g id="SvgjsG1968" transform="translate(528.7966101694934,306.7639357877367)"><path id="SvgjsPath1969" d="M 0 34.078L 0 0L 66.706 0L 66.706 34.078Q 50.029 24.341 33.353 34.078Q 16.676 43.815 0 34.078Z" stroke="rgba(33,41,48,1)" stroke-width="1.5" fill-opacity="1" fill="#d1d1d1"></path><g id="SvgjsG1970"><text id="SvgjsText1971" font-family="&quot;Microsoft YaHei&quot;, 微软雅黑, Arial" text-anchor="middle" font-size="13px" width="67px" fill="#323232" font-weight="400" align="middle" lineHeight="125%" anchor="middle" family="&quot;Microsoft YaHei&quot;, 微软雅黑, Arial" size="13px" weight="400" font-style="" opacity="1" y="6.901" transform="rotate(0)"><tspan id="SvgjsTspan1972" dy="16.25" x="33.5"><tspan id="SvgjsTspan1973" style="">多个</tspan></tspan></text></g></g><g id="SvgjsG1974" transform="translate(540.3184754521981,415.62300975860296)"><path id="SvgjsPath1975" d="M 0 34.078L 0 0L 66.706 0L 66.706 34.078Q 50.029 24.341 33.353 34.078Q 16.676 43.815 0 34.078Z" stroke="rgba(33,41,48,1)" stroke-width="1.5" fill-opacity="1" fill="#d1d1d1"></path><g id="SvgjsG1976"><text id="SvgjsText1977" font-family="&quot;Microsoft YaHei&quot;, 微软雅黑, Arial" text-anchor="middle" font-size="13px" width="67px" fill="#323232" font-weight="400" align="middle" lineHeight="125%" anchor="middle" family="&quot;Microsoft YaHei&quot;, 微软雅黑, Arial" size="13px" weight="400" font-style="" opacity="1" y="6.901" transform="rotate(0)"></text></g></g><g id="SvgjsG1978" transform="translate(534.2543358297219,419.16359046651144)"><path id="SvgjsPath1979" d="M 0 34.078L 0 0L 66.706 0L 66.706 34.078Q 50.029 24.341 33.353 34.078Q 16.676 43.815 0 34.078Z" stroke="rgba(33,41,48,1)" stroke-width="1.5" fill-opacity="1" fill="#d1d1d1"></path><g id="SvgjsG1980"><text id="SvgjsText1981" font-family="&quot;Microsoft YaHei&quot;, 微软雅黑, Arial" text-anchor="middle" font-size="13px" width="67px" fill="#323232" font-weight="400" align="middle" lineHeight="125%" anchor="middle" family="&quot;Microsoft YaHei&quot;, 微软雅黑, Arial" size="13px" weight="400" font-style="" opacity="1" y="6.901" transform="rotate(0)"></text></g></g><g id="SvgjsG1982" transform="translate(528.7966101694934,424.22156290638065)"><path id="SvgjsPath1983" d="M 0 34.078L 0 0L 66.706 0L 66.706 34.078Q 50.029 24.341 33.353 34.078Q 16.676 43.815 0 34.078Z" stroke="rgba(33,41,48,1)" stroke-width="1.5" fill-opacity="1" fill="#d1d1d1"></path><g id="SvgjsG1984"><text id="SvgjsText1985" font-family="&quot;Microsoft YaHei&quot;, 微软雅黑, Arial" text-anchor="middle" font-size="13px" width="67px" fill="#323232" font-weight="400" align="middle" lineHeight="125%" anchor="middle" family="&quot;Microsoft YaHei&quot;, 微软雅黑, Arial" size="13px" weight="400" font-style="" opacity="1" y="6.901" transform="rotate(0)"><tspan id="SvgjsTspan1986" dy="16.25" x="33.5"><tspan id="SvgjsTspan1987" style="">多个</tspan></tspan></text></g></g><g id="SvgjsG1988"><path id="SvgjsPath1989" d="M466.8548385341468 177.7589777443822C 467.15997740113085 250.17581440294757 299.2433107344643 181.1571855970524 299.3606718371504 254.75923932908373" stroke="#b2ccff" stroke-width="1.5" fill="none" marker-start="url(#SvgjsMarker1990)"></path><rect id="SvgjsRect1992" width="26" height="18" x="300.6691603210578" y="218.2202452013234" fill="#ffffff"></rect><text id="SvgjsText1993" font-family="&quot;Microsoft YaHei&quot;, 微软雅黑, Arial" text-anchor="middle" font-size="13px" width="26px" fill="#323232" font-weight="400" align="top" lineHeight="16px" anchor="middle" family="&quot;Microsoft YaHei&quot;, 微软雅黑, Arial" size="13px" weight="400" font-style="" opacity="1" y="215.5952452013234" transform="rotate(0)"><tspan id="SvgjsTspan1994" dy="16.25" x="313.6691603210578"><tspan id="SvgjsTspan1995" style="">注册</tspan></tspan></text></g><g id="SvgjsG1996"><path id="SvgjsPath1997" d="M466.78346441385895 177.74630550890743C 467.15997740113085 227.20987166653882 366.40997740113085 204.12312833346115 366.55479008854314 254.7641132658048" stroke="#b2ccff" stroke-width="1.5" fill="none" marker-start="url(#SvgjsMarker1998)"></path><rect id="SvgjsRect2000" width="26" height="18" x="367.55479008854314" y="223.05662539620016" fill="#ffffff"></rect><text id="SvgjsText2001" font-family="&quot;Microsoft YaHei&quot;, 微软雅黑, Arial" text-anchor="middle" font-size="13px" width="26px" fill="#323232" font-weight="400" align="top" lineHeight="16px" anchor="middle" family="&quot;Microsoft YaHei&quot;, 微软雅黑, Arial" size="13px" weight="400" font-style="" opacity="1" y="220.43162539620016" transform="rotate(0)"><tspan id="SvgjsTspan2002" dy="16.25" x="380.55479008854314"><tspan id="SvgjsTspan2003" style="">注册</tspan></tspan></text></g><g id="SvgjsG2004"><path id="SvgjsPath2005" d="M466.9008492598027 177.76570603206275C 467.15997740113085 210.41547224656506 433.5766440677975 220.91752775343488 433.6763087375391 254.75665152612967" stroke="#b2ccff" stroke-width="1.5" fill="none" marker-start="url(#SvgjsMarker2006)"></path><rect id="SvgjsRect2008" width="26" height="18" x="426.2426548143835" y="223.29545195249958" fill="#ffffff"></rect><text id="SvgjsText2009" font-family="&quot;Microsoft YaHei&quot;, 微软雅黑, Arial" text-anchor="middle" font-size="13px" width="26px" fill="#323232" font-weight="400" align="top" lineHeight="16px" anchor="middle" family="&quot;Microsoft YaHei&quot;, 微软雅黑, Arial" size="13px" weight="400" font-style="" opacity="1" y="220.67045195249958" transform="rotate(0)"><tspan id="SvgjsTspan2010" dy="16.25" x="439.2426548143835"><tspan id="SvgjsTspan2011" style="">注册</tspan></tspan></text></g><g id="SvgjsG2012"><path id="SvgjsPath2013" d="M467.41910554245896 177.76570603206275C 467.15997740113085 210.41547224656506 500.7433107344642 220.91752775343488 500.6436460647226 254.75665152612967" stroke="#b2ccff" stroke-width="1.5" fill="none" marker-start="url(#SvgjsMarker2014)"></path><rect id="SvgjsRect2016" width="26" height="18" x="482.8284545238255" y="224.79634622159494" fill="#ffffff"></rect><text id="SvgjsText2017" font-family="&quot;Microsoft YaHei&quot;, 微软雅黑, Arial" text-anchor="middle" font-size="13px" width="26px" fill="#323232" font-weight="400" align="top" lineHeight="16px" anchor="middle" family="&quot;Microsoft YaHei&quot;, 微软雅黑, Arial" size="13px" weight="400" font-style="" opacity="1" y="222.17134622159494" transform="rotate(0)"><tspan id="SvgjsTspan2018" dy="16.25" x="495.8284545238255"><tspan id="SvgjsTspan2019" style="">注册</tspan></tspan></text></g><g id="SvgjsG2020"><path id="SvgjsPath2021" d="M467.4651162681149 177.7589777443822C 467.15997740113085 250.1758144029478 635.0766440677982 181.15718559705215 634.9592829651119 254.75923932908373" stroke="#b2ccff" stroke-width="1.5" fill="none" marker-start="url(#SvgjsMarker2022)"></path><rect id="SvgjsRect2024" width="26" height="18" x="572.4427551178735" y="208.46701902803625" fill="#ffffff"></rect><text id="SvgjsText2025" font-family="&quot;Microsoft YaHei&quot;, 微软雅黑, Arial" text-anchor="middle" font-size="13px" width="26px" fill="#323232" font-weight="400" align="top" lineHeight="16px" anchor="middle" family="&quot;Microsoft YaHei&quot;, 微软雅黑, Arial" size="13px" weight="400" font-style="" opacity="1" y="205.84201902803625" transform="rotate(0)"><tspan id="SvgjsTspan2026" dy="16.25" x="585.4427551178735"><tspan id="SvgjsTspan2027" style="">注册</tspan></tspan></text></g><g id="SvgjsG2028"><path id="SvgjsPath2029" d="M467.15997740113085 145.49999999999997C 467.15997740113085 129.6333333333333 467.15997740113085 121.69999999999999 467.15997740113085 108.53333333333333" stroke="#323232" stroke-width="1.5" fill="none" marker-end="url(#SvgjsMarker2030)"></path></g><g id="SvgjsG2032" transform="translate(696.0812146892665,213.80508474576268)"><path id="SvgjsPath2033" d="M 0 0L 132.746 0L 132.746 36.322L 0 36.322Z" stroke="none" fill-opacity="1" fill="#c5d9f0"></path><g id="SvgjsG2034"><text id="SvgjsText2035" font-family="&quot;Microsoft YaHei&quot;, 微软雅黑, Arial" text-anchor="middle" font-size="13px" width="113px" fill="#323232" font-weight="400" align="middle" lineHeight="125%" anchor="middle" family="&quot;Microsoft YaHei&quot;, 微软雅黑, Arial" size="13px" weight="400" font-style="" opacity="1" y="-0.9639999999999986" transform="rotate(0)"><tspan id="SvgjsTspan2036" dy="16.25" x="66.5"><tspan id="SvgjsTspan2037" style="">服务器端</tspan></tspan><tspan id="SvgjsTspan2038" dy="16.25" x="66.5"><tspan id="SvgjsTspan2039" style="">SocketChannel</tspan></tspan></text></g></g><g id="SvgjsG2040" transform="translate(696.0812146892664,485.61299435028246)"><path id="SvgjsPath2041" d="M 0 0L 132.746 0L 132.746 36.322L 0 36.322Z" stroke="none" fill-opacity="1" fill="#c5d9f0"></path><g id="SvgjsG2042"><text id="SvgjsText2043" font-family="&quot;Microsoft YaHei&quot;, 微软雅黑, Arial" text-anchor="middle" font-size="13px" width="113px" fill="#323232" font-weight="400" align="middle" lineHeight="125%" anchor="middle" family="&quot;Microsoft YaHei&quot;, 微软雅黑, Arial" size="13px" weight="400" font-style="" opacity="1" y="-0.9639999999999986" transform="rotate(0)"><tspan id="SvgjsTspan2044" dy="16.25" x="66.5"><tspan id="SvgjsTspan2045" style="">客户端</tspan></tspan><tspan id="SvgjsTspan2046" dy="16.25" x="66.5"><tspan id="SvgjsTspan2047" style="">SocketChannel</tspan></tspan></text></g></g><g id="SvgjsG2048" transform="translate(25,226.07627118644066)"><path id="SvgjsPath2049" d="M 0 0L 179.024 0L 179.024 130.831L 0 130.831Z" stroke="rgba(91,121,232,1)" stroke-width="1.5" fill-opacity="1" fill="#b2ccff"></path><g id="SvgjsG2050"><text id="SvgjsText2051" font-family="&quot;Microsoft YaHei&quot;, 微软雅黑, Arial" text-anchor="start" font-size="13px" width="160px" fill="#323232" font-weight="400" align="top" lineHeight="125%" anchor="start" family="&quot;Microsoft YaHei&quot;, 微软雅黑, Arial" size="13px" weight="400" font-style="" opacity="1" y="-2.625" transform="rotate(0)"><tspan id="SvgjsTspan2052" dy="16.25" x="10"><tspan id="SvgjsTspan2053" style="">服务器</tspan></tspan><tspan id="SvgjsTspan2054" dy="16.25" x="10"><tspan id="SvgjsTspan2055" style="">ServerSocketChannel</tspan></tspan><tspan id="SvgjsTspan2056" dy="16.25" x="10"><tspan id="SvgjsTspan2057" style="">1. 监听端口</tspan></tspan><tspan id="SvgjsTspan2058" dy="16.25" x="10"><tspan id="SvgjsTspan2059" style="">2. 获得和客户端连接的通道</tspan></tspan><tspan id="SvgjsTspan2060" dy="16.25" x="10"><tspan id="SvgjsTspan2061" style="">SocketChannel</tspan></tspan><tspan id="SvgjsTspan2062" dy="16.25" x="10"><tspan id="SvgjsTspan2063" style="">3. 每个客户端都会生成对应</tspan></tspan><tspan id="SvgjsTspan2064" dy="16.25" x="10"><tspan id="SvgjsTspan2065" style="">通道SocketChannel</tspan></tspan></text></g></g><g id="SvgjsG2066"><path id="SvgjsPath2067" d="M114.54307608134353 225.32691527823127C 114.51200000000004 87.37418929661436 278.4582288446378 56.83333333333332 414.4603928343192 56.85438879525609" stroke="#b2ccff" stroke-width="1.5" fill="none" marker-end="url(#SvgjsMarker2068)"></path><rect id="SvgjsRect2070" width="26" height="18" x="174.06163954134993" y="93.6551824228493" fill="#ffffff"></rect><text id="SvgjsText2071" font-family="&quot;Microsoft YaHei&quot;, 微软雅黑, Arial" text-anchor="middle" font-size="13px" width="26px" fill="#323232" font-weight="400" align="top" lineHeight="16px" anchor="middle" family="&quot;Microsoft YaHei&quot;, 微软雅黑, Arial" size="13px" weight="400" font-style="" opacity="1" y="91.0301824228493" transform="rotate(0)"><tspan id="SvgjsTspan2072" dy="16.25" x="187.06163954134993"><tspan id="SvgjsTspan2073" style="">注册</tspan></tspan></text></g><g id="SvgjsG2074"><path id="SvgjsPath2075" d="M204.7670200367029 291.3891867848014C 246.5745703549798 291.4912711864407 245.77612994350363 241.65254237288133 294.08121468926635 234.87288135593218" stroke="#ec7270" stroke-width="1.5" fill="none" marker-end="url(#SvgjsMarker2076)"></path></g><g id="SvgjsG2078"><path id="SvgjsPath2079" d="M668.2467170766427 50.43629154098797C 607.7154172367393 50.417 578.4413624242794 70.83333333333334 517.9100625843761 70.81404179234536" stroke="#323232" stroke-width="1.5" fill="none"></path></g><g id="SvgjsG2080" transform="translate(272.50423728813655,525.6355932203389)"><path id="SvgjsPath2081" d="M 5.348 0L 53.479 0L 53.479 22.288L 5.348 22.288L 5.348 17.831L 0 17.831L 0 13.373L 5.348 13.373L 5.348 8.915L 0 8.915L 0 4.458L 5.348 4.458L 5.348 0Z" stroke="rgba(33,41,48,1)" stroke-width="1.5" fill-opacity="1" fill="#ffffff"></path><path id="SvgjsPath2082" d="M 5.348 17.831L 10.696 17.831L 10.696 13.373L 5.348 13.373M 5.348 8.915L 10.696 8.915L 10.696 4.458L 5.348 4.458" stroke="rgba(33,41,48,1)" stroke-width="1.5" fill="none"></path><path id="SvgjsPath2083" d="M 5.348 0L 53.479 0L 53.479 22.288L 5.348 22.288L 5.348 17.831L 0 17.831L 0 13.373L 5.348 13.373L 5.348 8.915L 0 8.915L 0 4.458L 5.348 4.458L 5.348 0Z" stroke="none" fill="none"></path><g id="SvgjsG2084"><text id="SvgjsText2085" font-family="&quot;Microsoft YaHei&quot;, 微软雅黑, Arial" text-anchor="middle" font-size="13px" width="37px" fill="#323232" font-weight="700" align="middle" lineHeight="125%" anchor="middle" family="&quot;Microsoft YaHei&quot;, 微软雅黑, Arial" size="13px" weight="700" font-style="" opacity="1" y="0.5190000000000001" transform="rotate(0)"><tspan id="SvgjsTspan2086" dy="16.25" x="30.185000000000002"><tspan id="SvgjsTspan2087" style="">Client</tspan></tspan></text></g></g><g id="SvgjsG2088" transform="translate(339.67090395480324,525.6355932203389)"><path id="SvgjsPath2089" d="M 5.348 0L 53.479 0L 53.479 22.288L 5.348 22.288L 5.348 17.831L 0 17.831L 0 13.373L 5.348 13.373L 5.348 8.915L 0 8.915L 0 4.458L 5.348 4.458L 5.348 0Z" stroke="rgba(33,41,48,1)" stroke-width="1.5" fill-opacity="1" fill="#ffffff"></path><path id="SvgjsPath2090" d="M 5.348 17.831L 10.696 17.831L 10.696 13.373L 5.348 13.373M 5.348 8.915L 10.696 8.915L 10.696 4.458L 5.348 4.458" stroke="rgba(33,41,48,1)" stroke-width="1.5" fill="none"></path><path id="SvgjsPath2091" d="M 5.348 0L 53.479 0L 53.479 22.288L 5.348 22.288L 5.348 17.831L 0 17.831L 0 13.373L 5.348 13.373L 5.348 8.915L 0 8.915L 0 4.458L 5.348 4.458L 5.348 0Z" stroke="none" fill="none"></path><g id="SvgjsG2092"><text id="SvgjsText2093" font-family="&quot;Microsoft YaHei&quot;, 微软雅黑, Arial" text-anchor="middle" font-size="13px" width="37px" fill="#323232" font-weight="700" align="middle" lineHeight="125%" anchor="middle" family="&quot;Microsoft YaHei&quot;, 微软雅黑, Arial" size="13px" weight="700" font-style="" opacity="1" y="0.5190000000000001" transform="rotate(0)"><tspan id="SvgjsTspan2094" dy="16.25" x="30.185000000000002"><tspan id="SvgjsTspan2095" style="">Client</tspan></tspan></text></g></g><g id="SvgjsG2096" transform="translate(406.83757062146987,525.6355932203389)"><path id="SvgjsPath2097" d="M 5.348 0L 53.479 0L 53.479 22.288L 5.348 22.288L 5.348 17.831L 0 17.831L 0 13.373L 5.348 13.373L 5.348 8.915L 0 8.915L 0 4.458L 5.348 4.458L 5.348 0Z" stroke="rgba(33,41,48,1)" stroke-width="1.5" fill-opacity="1" fill="#ffffff"></path><path id="SvgjsPath2098" d="M 5.348 17.831L 10.696 17.831L 10.696 13.373L 5.348 13.373M 5.348 8.915L 10.696 8.915L 10.696 4.458L 5.348 4.458" stroke="rgba(33,41,48,1)" stroke-width="1.5" fill="none"></path><path id="SvgjsPath2099" d="M 5.348 0L 53.479 0L 53.479 22.288L 5.348 22.288L 5.348 17.831L 0 17.831L 0 13.373L 5.348 13.373L 5.348 8.915L 0 8.915L 0 4.458L 5.348 4.458L 5.348 0Z" stroke="none" fill="none"></path><g id="SvgjsG2100"><text id="SvgjsText2101" font-family="&quot;Microsoft YaHei&quot;, 微软雅黑, Arial" text-anchor="middle" font-size="13px" width="37px" fill="#323232" font-weight="700" align="middle" lineHeight="125%" anchor="middle" family="&quot;Microsoft YaHei&quot;, 微软雅黑, Arial" size="13px" weight="700" font-style="" opacity="1" y="0.5190000000000001" transform="rotate(0)"><tspan id="SvgjsTspan2102" dy="16.25" x="30.185000000000002"><tspan id="SvgjsTspan2103" style="">Client</tspan></tspan></text></g></g><g id="SvgjsG2104" transform="translate(474.00423728813655,525.635593220339)"><path id="SvgjsPath2105" d="M 5.348 0L 53.479 0L 53.479 22.288L 5.348 22.288L 5.348 17.831L 0 17.831L 0 13.373L 5.348 13.373L 5.348 8.915L 0 8.915L 0 4.458L 5.348 4.458L 5.348 0Z" stroke="rgba(33,41,48,1)" stroke-width="1.5" fill-opacity="1" fill="#ffffff"></path><path id="SvgjsPath2106" d="M 5.348 17.831L 10.696 17.831L 10.696 13.373L 5.348 13.373M 5.348 8.915L 10.696 8.915L 10.696 4.458L 5.348 4.458" stroke="rgba(33,41,48,1)" stroke-width="1.5" fill="none"></path><path id="SvgjsPath2107" d="M 5.348 0L 53.479 0L 53.479 22.288L 5.348 22.288L 5.348 17.831L 0 17.831L 0 13.373L 5.348 13.373L 5.348 8.915L 0 8.915L 0 4.458L 5.348 4.458L 5.348 0Z" stroke="none" fill="none"></path><g id="SvgjsG2108"><text id="SvgjsText2109" font-family="&quot;Microsoft YaHei&quot;, 微软雅黑, Arial" text-anchor="middle" font-size="13px" width="37px" fill="#323232" font-weight="700" align="middle" lineHeight="125%" anchor="middle" family="&quot;Microsoft YaHei&quot;, 微软雅黑, Arial" size="13px" weight="700" font-style="" opacity="1" y="0.5190000000000001" transform="rotate(0)"><tspan id="SvgjsTspan2110" dy="16.25" x="30.185000000000002"><tspan id="SvgjsTspan2111" style="">Client</tspan></tspan></text></g></g><g id="SvgjsG2112" transform="translate(608.3375706214705,525.6355932203389)"><path id="SvgjsPath2113" d="M 5.348 0L 53.479 0L 53.479 22.288L 5.348 22.288L 5.348 17.831L 0 17.831L 0 13.373L 5.348 13.373L 5.348 8.915L 0 8.915L 0 4.458L 5.348 4.458L 5.348 0Z" stroke="rgba(33,41,48,1)" stroke-width="1.5" fill-opacity="1" fill="#ffffff"></path><path id="SvgjsPath2114" d="M 5.348 17.831L 10.696 17.831L 10.696 13.373L 5.348 13.373M 5.348 8.915L 10.696 8.915L 10.696 4.458L 5.348 4.458" stroke="rgba(33,41,48,1)" stroke-width="1.5" fill="none"></path><path id="SvgjsPath2115" d="M 5.348 0L 53.479 0L 53.479 22.288L 5.348 22.288L 5.348 17.831L 0 17.831L 0 13.373L 5.348 13.373L 5.348 8.915L 0 8.915L 0 4.458L 5.348 4.458L 5.348 0Z" stroke="none" fill="none"></path><g id="SvgjsG2116"><text id="SvgjsText2117" font-family="&quot;Microsoft YaHei&quot;, 微软雅黑, Arial" text-anchor="middle" font-size="13px" width="37px" fill="#323232" font-weight="700" align="middle" lineHeight="125%" anchor="middle" family="&quot;Microsoft YaHei&quot;, 微软雅黑, Arial" size="13px" weight="700" font-style="" opacity="1" y="0.5190000000000001" transform="rotate(0)"><tspan id="SvgjsTspan2118" dy="16.25" x="30.185000000000002"><tspan id="SvgjsTspan2119" style="">Client</tspan></tspan></text></g></g><g id="SvgjsG2120"></g></svg>