<svg id="SvgjsSvg2248" width="842.4285714285716" height="706.8571428571429" xmlns="http://www.w3.org/2000/svg" version="1.1" xmlns:xlink="http://www.w3.org/1999/xlink" xmlns:svgjs="http://svgjs.com/svgjs"><defs id="SvgjsDefs2249"><pattern patternUnits="userSpaceOnUse" id="pattern_mark_0" width="300" height="300"><text x="150" y="100" fill="rgba(72,75,86,0.8)" font-size="18" transform="rotate(-45, 150, 150)" style="dominant-baseline: middle; text-anchor: middle;"></text></pattern><pattern patternUnits="userSpaceOnUse" id="pattern_mark_1" width="300" height="300"><text x="150" y="200" fill="rgba(72,75,86,0.8)" font-size="18" transform="rotate(-45, 150, 150)" style="dominant-baseline: middle; text-anchor: middle;"></text></pattern><marker id="SvgjsMarker2379" markerWidth="13" markerHeight="9" refX="9.5" refY="4.5" viewBox="0 0 13 9" orient="auto" markerUnits="userSpaceOnUse" stroke-dasharray="0,0"><path id="SvgjsPath2380" d="M0,0 L13,4.5 L0,9 L0,0" fill="#ffffff" stroke="#ffffff" stroke-width="1"></path></marker><marker id="SvgjsMarker2411" markerWidth="13" markerHeight="9" refX="9.5" refY="4.5" viewBox="0 0 13 9" orient="auto" markerUnits="userSpaceOnUse" stroke-dasharray="0,0"><path id="SvgjsPath2412" d="M0,0 L13,4.5 L0,9 L0,0" fill="#ffffff" stroke="#ffffff" stroke-width="1"></path></marker><marker id="SvgjsMarker2415" markerWidth="13" markerHeight="9" refX="9.5" refY="4.5" viewBox="0 0 13 9" orient="auto" markerUnits="userSpaceOnUse" stroke-dasharray="0,0"><path id="SvgjsPath2416" d="M0,0 L13,4.5 L0,9 L0,0" fill="#ffffff" stroke="#ffffff" stroke-width="1"></path></marker><marker id="SvgjsMarker2419" markerWidth="13" markerHeight="9" refX="9.5" refY="4.5" viewBox="0 0 13 9" orient="auto" markerUnits="userSpaceOnUse" stroke-dasharray="0,0"><path id="SvgjsPath2420" d="M0,0 L13,4.5 L0,9 L0,0" fill="#ffffff" stroke="#ffffff" stroke-width="1"></path></marker><marker id="SvgjsMarker2441" markerWidth="13" markerHeight="9" refX="9.5" refY="4.5" viewBox="0 0 13 9" orient="auto" markerUnits="userSpaceOnUse" stroke-dasharray="0,0"><path id="SvgjsPath2442" d="M0,0 L13,4.5 L0,9 L0,0" fill="#ffffff" stroke="#ffffff" stroke-width="1"></path></marker><marker id="SvgjsMarker2445" markerWidth="13" markerHeight="9" refX="9.5" refY="4.5" viewBox="0 0 13 9" orient="auto" markerUnits="userSpaceOnUse" stroke-dasharray="0,0"><path id="SvgjsPath2446" d="M0,0 L13,4.5 L0,9 L0,0" fill="#ffffff" stroke="#ffffff" stroke-width="1"></path></marker><marker id="SvgjsMarker2449" markerWidth="13" markerHeight="9" refX="9.5" refY="4.5" viewBox="0 0 13 9" orient="auto" markerUnits="userSpaceOnUse" stroke-dasharray="0,0"><path id="SvgjsPath2450" d="M0,0 L13,4.5 L0,9 L0,0" fill="#ffffff" stroke="#ffffff" stroke-width="1"></path></marker><marker id="SvgjsMarker2453" markerWidth="13" markerHeight="9" refX="9.5" refY="4.5" viewBox="0 0 13 9" orient="auto" markerUnits="userSpaceOnUse" stroke-dasharray="0,0"><path id="SvgjsPath2454" d="M0,0 L13,4.5 L0,9 L0,0" fill="#ffffff" stroke="#ffffff" stroke-width="1"></path></marker><marker id="SvgjsMarker2457" markerWidth="13" markerHeight="9" refX="9.5" refY="4.5" viewBox="0 0 13 9" orient="auto" markerUnits="userSpaceOnUse" stroke-dasharray="0,0"><path id="SvgjsPath2458" d="M0,0 L13,4.5 L0,9 L0,0" fill="#ffffff" stroke="#ffffff" stroke-width="1"></path></marker></defs><rect id="svgbackgroundid" width="842.4285714285716" height="706.8571428571429" fill="#505460"></rect><rect id="SvgjsRect2251" width="842.4285714285716" height="706.8571428571429" fill="url(#pattern_mark_0)"></rect><rect id="SvgjsRect2252" width="842.4285714285716" height="706.8571428571429" fill="url(#pattern_mark_1)"></rect><g id="SvgjsG2253" transform="translate(593.0238095238095,550.9047619047619)"><path id="SvgjsPath2254" d="M 0 4Q 0 0 4 0L 146.952 0Q 150.952 0 150.952 4L 150.952 126.952Q 150.952 130.952 146.952 130.952L 4 130.952Q 0 130.952 0 126.952Z" stroke="rgba(216,188,149,1)" stroke-width="1.5" fill-opacity="1" fill="#505460"></path><g id="SvgjsG2255"><text id="SvgjsText2256" font-family="&quot;Microsoft YaHei&quot;, 微软雅黑, Arial" text-anchor="middle" font-size="13px" width="131px" fill="#d8bc95" font-weight="400" align="top" lineHeight="125%" anchor="middle" family="&quot;Microsoft YaHei&quot;, 微软雅黑, Arial" size="13px" weight="400" font-style="" opacity="1" y="-2.625" transform="rotate(0)"><tspan id="SvgjsTspan2257" dy="16.25" x="75.5"><tspan id="SvgjsTspan2258" style="">Pipeline</tspan></tspan></text></g></g><g id="SvgjsG2259" transform="translate(205.14285714285714,25)"><path id="SvgjsPath2260" d="M 0 4Q 0 0 4 0L 231.476 0Q 235.476 0 235.476 4L 235.476 106.333Q 235.476 110.333 231.476 110.333L 4 110.333Q 0 110.333 0 106.333Z" stroke-dasharray="7.5,3" stroke="rgba(255,255,255,1)" stroke-width="1.5" fill-opacity="1" fill="#505460"></path><g id="SvgjsG2261"><text id="SvgjsText2262" font-family="&quot;Microsoft YaHei&quot;, 微软雅黑, Arial" text-anchor="middle" font-size="13px" width="216px" fill="#ffffff" font-weight="400" align="top" lineHeight="125%" anchor="middle" family="&quot;Microsoft YaHei&quot;, 微软雅黑, Arial" size="13px" weight="400" font-style="" opacity="1" y="-2.625" transform="rotate(0)"><tspan id="SvgjsTspan2263" dy="16.25" x="118"><tspan id="SvgjsTspan2264" style="">Boss Group</tspan></tspan></text></g></g><g id="SvgjsG2265" transform="translate(218.7142857142857,62.42857142857136)"><path id="SvgjsPath2266" d="M 0 4Q 0 0 4 0L 204.333 0Q 208.333 0 208.333 4L 208.333 58.19Q 208.333 62.19 204.333 62.19L 4 62.19Q 0 62.19 0 58.19Z" stroke="rgba(175,184,207,1)" stroke-width="1.5" fill-opacity="1" fill="#505460"></path><g id="SvgjsG2267"><text id="SvgjsText2268" font-family="&quot;Microsoft YaHei&quot;, 微软雅黑, Arial" text-anchor="middle" font-size="13px" width="189px" fill="#ffffff" font-weight="400" align="top" lineHeight="125%" anchor="middle" family="&quot;Microsoft YaHei&quot;, 微软雅黑, Arial" size="13px" weight="400" font-style="" opacity="1" y="-2.625" transform="rotate(0)"><tspan id="SvgjsTspan2269" dy="16.25" x="104.5"><tspan id="SvgjsTspan2270" style="">NioEventGroup</tspan></tspan></text></g></g><g id="SvgjsG2271" transform="translate(25,25)"><path id="SvgjsPath2272" d="M 0 4Q 0 0 4 0L 66 0Q 70 0 70 4L 70 26Q 70 30 66 30L 4 30Q 0 30 0 26Z" stroke="rgba(216,188,149,1)" stroke-width="1.5" fill-opacity="1" fill="#505460"></path><g id="SvgjsG2273"><text id="SvgjsText2274" font-family="&quot;Microsoft YaHei&quot;, 微软雅黑, Arial" text-anchor="middle" font-size="13px" width="50px" fill="#d8bc95" font-weight="400" align="middle" lineHeight="125%" anchor="middle" family="&quot;Microsoft YaHei&quot;, 微软雅黑, Arial" size="13px" weight="400" font-style="" opacity="1" y="4.375" transform="rotate(0)"><tspan id="SvgjsTspan2275" dy="16.25" x="35"><tspan id="SvgjsTspan2276" style="">Client</tspan></tspan></text></g></g><g id="SvgjsG2277" transform="translate(25,92.61904761904765)"><path id="SvgjsPath2278" d="M 0 4Q 0 0 4 0L 66 0Q 70 0 70 4L 70 26Q 70 30 66 30L 4 30Q 0 30 0 26Z" stroke="rgba(216,188,149,1)" stroke-width="1.5" fill-opacity="1" fill="#505460"></path><g id="SvgjsG2279"><text id="SvgjsText2280" font-family="&quot;Microsoft YaHei&quot;, 微软雅黑, Arial" text-anchor="middle" font-size="13px" width="50px" fill="#d8bc95" font-weight="400" align="middle" lineHeight="125%" anchor="middle" family="&quot;Microsoft YaHei&quot;, 微软雅黑, Arial" size="13px" weight="400" font-style="" opacity="1" y="4.375" transform="rotate(0)"><tspan id="SvgjsTspan2281" dy="16.25" x="35"><tspan id="SvgjsTspan2282" style="">Client</tspan></tspan></text></g></g><g id="SvgjsG2283" transform="translate(25,160.23809523809513)"><path id="SvgjsPath2284" d="M 0 4Q 0 0 4 0L 66 0Q 70 0 70 4L 70 26Q 70 30 66 30L 4 30Q 0 30 0 26Z" stroke="rgba(216,188,149,1)" stroke-width="1.5" fill-opacity="1" fill="#505460"></path><g id="SvgjsG2285"><text id="SvgjsText2286" font-family="&quot;Microsoft YaHei&quot;, 微软雅黑, Arial" text-anchor="middle" font-size="13px" width="50px" fill="#d8bc95" font-weight="400" align="middle" lineHeight="125%" anchor="middle" family="&quot;Microsoft YaHei&quot;, 微软雅黑, Arial" size="13px" weight="400" font-style="" opacity="1" y="4.375" transform="rotate(0)"><tspan id="SvgjsTspan2287" dy="16.25" x="35"><tspan id="SvgjsTspan2288" style="">Client</tspan></tspan></text></g></g><g id="SvgjsG2289" transform="translate(327.7619047619048,86.42857142857139)"><path id="SvgjsPath2290" d="M 0 4Q 0 0 4 0L 86.286 0Q 90.286 0 90.286 4L 90.286 26Q 90.286 30 86.286 30L 4 30Q 0 30 0 26Z" stroke="rgba(216,188,149,1)" stroke-width="1.5" fill-opacity="1" fill="#505460"></path><g id="SvgjsG2291"><text id="SvgjsText2292" font-family="&quot;Microsoft YaHei&quot;, 微软雅黑, Arial" text-anchor="middle" font-size="13px" width="71px" fill="#d8bc95" font-weight="400" align="middle" lineHeight="125%" anchor="middle" family="&quot;Microsoft YaHei&quot;, 微软雅黑, Arial" size="13px" weight="400" font-style="" opacity="1" y="4.375" transform="rotate(0)"><tspan id="SvgjsTspan2293" dy="16.25" x="45.5"><tspan id="SvgjsTspan2294" style="">TaskQueue</tspan></tspan></text></g></g><g id="SvgjsG2295" transform="translate(227.5238095238095,86.42857142857139)"><path id="SvgjsPath2296" d="M 0 4Q 0 0 4 0L 86.286 0Q 90.286 0 90.286 4L 90.286 26Q 90.286 30 86.286 30L 4 30Q 0 30 0 26Z" stroke="rgba(216,188,149,1)" stroke-width="1.5" fill-opacity="1" fill="#505460"></path><g id="SvgjsG2297"><text id="SvgjsText2298" font-family="&quot;Microsoft YaHei&quot;, 微软雅黑, Arial" text-anchor="middle" font-size="13px" width="71px" fill="#d8bc95" font-weight="400" align="middle" lineHeight="125%" anchor="middle" family="&quot;Microsoft YaHei&quot;, 微软雅黑, Arial" size="13px" weight="400" font-style="" opacity="1" y="4.375" transform="rotate(0)"><tspan id="SvgjsTspan2299" dy="16.25" x="45.5"><tspan id="SvgjsTspan2300" style="">Selector</tspan></tspan></text></g></g><g id="SvgjsG2301" transform="translate(550.7619047619047,25)"><path id="SvgjsPath2302" d="M 0 4Q 0 0 4 0L 231.476 0Q 235.476 0 235.476 4L 235.476 208.81Q 235.476 212.81 231.476 212.81L 4 212.81Q 0 212.81 0 208.81Z" stroke-dasharray="7.5,3" stroke="rgba(255,255,255,1)" stroke-width="1.5" fill-opacity="1" fill="#505460"></path><g id="SvgjsG2303"><text id="SvgjsText2304" font-family="&quot;Microsoft YaHei&quot;, 微软雅黑, Arial" text-anchor="middle" font-size="13px" width="216px" fill="#ffffff" font-weight="400" align="top" lineHeight="125%" anchor="middle" family="&quot;Microsoft YaHei&quot;, 微软雅黑, Arial" size="13px" weight="400" font-style="" opacity="1" y="-2.625" transform="rotate(0)"><tspan id="SvgjsTspan2305" dy="16.25" x="118"><tspan id="SvgjsTspan2306" style="">Worker Group</tspan></tspan></text></g></g><g id="SvgjsG2307" transform="translate(564.3333333333331,62.42857142857136)"><path id="SvgjsPath2308" d="M 0 4Q 0 0 4 0L 204.333 0Q 208.333 0 208.333 4L 208.333 58.19Q 208.333 62.19 204.333 62.19L 4 62.19Q 0 62.19 0 58.19Z" stroke="rgba(175,184,207,1)" stroke-width="1.5" fill-opacity="1" fill="#505460"></path><g id="SvgjsG2309"><text id="SvgjsText2310" font-family="&quot;Microsoft YaHei&quot;, 微软雅黑, Arial" text-anchor="middle" font-size="13px" width="189px" fill="#ffffff" font-weight="400" align="top" lineHeight="125%" anchor="middle" family="&quot;Microsoft YaHei&quot;, 微软雅黑, Arial" size="13px" weight="400" font-style="" opacity="1" y="-2.625" transform="rotate(0)"><tspan id="SvgjsTspan2311" dy="16.25" x="104.5"><tspan id="SvgjsTspan2312" style="">NioEventGroup</tspan></tspan></text></g></g><g id="SvgjsG2313" transform="translate(673.3809523809523,86.42857142857133)"><path id="SvgjsPath2314" d="M 0 4Q 0 0 4 0L 86.286 0Q 90.286 0 90.286 4L 90.286 26Q 90.286 30 86.286 30L 4 30Q 0 30 0 26Z" stroke="rgba(216,188,149,1)" stroke-width="1.5" fill-opacity="1" fill="#505460"></path><g id="SvgjsG2315"><text id="SvgjsText2316" font-family="&quot;Microsoft YaHei&quot;, 微软雅黑, Arial" text-anchor="middle" font-size="13px" width="71px" fill="#d8bc95" font-weight="400" align="middle" lineHeight="125%" anchor="middle" family="&quot;Microsoft YaHei&quot;, 微软雅黑, Arial" size="13px" weight="400" font-style="" opacity="1" y="4.375" transform="rotate(0)"><tspan id="SvgjsTspan2317" dy="16.25" x="45.5"><tspan id="SvgjsTspan2318" style="">TaskQueue</tspan></tspan></text></g></g><g id="SvgjsG2319" transform="translate(573.142857142857,86.42857142857133)"><path id="SvgjsPath2320" d="M 0 4Q 0 0 4 0L 86.286 0Q 90.286 0 90.286 4L 90.286 26Q 90.286 30 86.286 30L 4 30Q 0 30 0 26Z" stroke="rgba(216,188,149,1)" stroke-width="1.5" fill-opacity="1" fill="#505460"></path><g id="SvgjsG2321"><text id="SvgjsText2322" font-family="&quot;Microsoft YaHei&quot;, 微软雅黑, Arial" text-anchor="middle" font-size="13px" width="71px" fill="#d8bc95" font-weight="400" align="middle" lineHeight="125%" anchor="middle" family="&quot;Microsoft YaHei&quot;, 微软雅黑, Arial" size="13px" weight="400" font-style="" opacity="1" y="4.375" transform="rotate(0)"><tspan id="SvgjsTspan2323" dy="16.25" x="45.5"><tspan id="SvgjsTspan2324" style="">Selector</tspan></tspan></text></g></g><g id="SvgjsG2325" transform="translate(564.3333333333333,164.1428571428572)"><path id="SvgjsPath2326" d="M 0 4Q 0 0 4 0L 204.333 0Q 208.333 0 208.333 4L 208.333 58.19Q 208.333 62.19 204.333 62.19L 4 62.19Q 0 62.19 0 58.19Z" stroke="rgba(175,184,207,1)" stroke-width="1.5" fill-opacity="1" fill="#505460"></path><g id="SvgjsG2327"><text id="SvgjsText2328" font-family="&quot;Microsoft YaHei&quot;, 微软雅黑, Arial" text-anchor="middle" font-size="13px" width="189px" fill="#ffffff" font-weight="400" align="top" lineHeight="125%" anchor="middle" family="&quot;Microsoft YaHei&quot;, 微软雅黑, Arial" size="13px" weight="400" font-style="" opacity="1" y="-2.625" transform="rotate(0)"><tspan id="SvgjsTspan2329" dy="16.25" x="104.5"><tspan id="SvgjsTspan2330" style="">NioEventGroup</tspan></tspan></text></g></g><g id="SvgjsG2331" transform="translate(673.3809523809524,188.14285714285717)"><path id="SvgjsPath2332" d="M 0 4Q 0 0 4 0L 86.286 0Q 90.286 0 90.286 4L 90.286 26Q 90.286 30 86.286 30L 4 30Q 0 30 0 26Z" stroke="rgba(216,188,149,1)" stroke-width="1.5" fill-opacity="1" fill="#505460"></path><g id="SvgjsG2333"><text id="SvgjsText2334" font-family="&quot;Microsoft YaHei&quot;, 微软雅黑, Arial" text-anchor="middle" font-size="13px" width="71px" fill="#d8bc95" font-weight="400" align="middle" lineHeight="125%" anchor="middle" family="&quot;Microsoft YaHei&quot;, 微软雅黑, Arial" size="13px" weight="400" font-style="" opacity="1" y="4.375" transform="rotate(0)"><tspan id="SvgjsTspan2335" dy="16.25" x="45.5"><tspan id="SvgjsTspan2336" style="">TaskQueue</tspan></tspan></text></g></g><g id="SvgjsG2337" transform="translate(573.1428571428571,188.14285714285717)"><path id="SvgjsPath2338" d="M 0 4Q 0 0 4 0L 86.286 0Q 90.286 0 90.286 4L 90.286 26Q 90.286 30 86.286 30L 4 30Q 0 30 0 26Z" stroke="rgba(216,188,149,1)" stroke-width="1.5" fill-opacity="1" fill="#505460"></path><g id="SvgjsG2339"><text id="SvgjsText2340" font-family="&quot;Microsoft YaHei&quot;, 微软雅黑, Arial" text-anchor="middle" font-size="13px" width="71px" fill="#d8bc95" font-weight="400" align="middle" lineHeight="125%" anchor="middle" family="&quot;Microsoft YaHei&quot;, 微软雅黑, Arial" size="13px" weight="400" font-style="" opacity="1" y="4.375" transform="rotate(0)"><tspan id="SvgjsTspan2341" dy="16.25" x="45.5"><tspan id="SvgjsTspan2342" style="">Selector</tspan></tspan></text></g></g><g id="SvgjsG2343" transform="translate(615.6666666666665,124.95238095238113)"><path id="SvgjsPath2344" d="M 0 0L 100 0L 100 40L 0 40Z" stroke="none" fill="none"></path><g id="SvgjsG2345"><text id="SvgjsText2346" font-family="&quot;Microsoft YaHei&quot;, 微软雅黑, Arial" text-anchor="middle" font-size="13px" width="100px" fill="#ffffff" font-weight="700" align="middle" lineHeight="125%" anchor="middle" family="&quot;Microsoft YaHei&quot;, 微软雅黑, Arial" size="13px" weight="700" font-style="" opacity="1" y="9.375" transform="rotate(0)"><tspan id="SvgjsTspan2347" dy="16.25" x="50"><tspan id="SvgjsTspan2348" style="">......</tspan></tspan></text></g></g><g id="SvgjsG2349" transform="translate(593.5,327.9523809523809)"><path id="SvgjsPath2350" d="M 0 75C 0 -25 150 -25 150 75C 150 175 0 175 0 75Z" stroke="rgba(175,184,207,1)" stroke-width="1.5" fill-opacity="1" fill="#505460"></path><g id="SvgjsG2351"><text id="SvgjsText2352" font-family="&quot;Microsoft YaHei&quot;, 微软雅黑, Arial" text-anchor="middle" font-size="13px" width="130px" fill="#323232" font-weight="400" align="middle" lineHeight="125%" anchor="middle" family="&quot;Microsoft YaHei&quot;, 微软雅黑, Arial" size="13px" weight="400" font-style="" opacity="1" y="64.375" transform="rotate(0)"></text></g></g><g id="SvgjsG2353" transform="translate(667.8571428571429,382.90476190476187)"><path id="SvgjsPath2354" d="M 0 4Q 0 0 4 0L 145.571 0Q 149.571 0 149.571 4L 149.571 36.095Q 149.571 40.095 145.571 40.095L 4 40.095Q 0 40.095 0 36.095Z" stroke="rgba(255,255,255,1)" stroke-width="1.5" fill-opacity="1" fill="#505460"></path><g id="SvgjsG2355"><text id="SvgjsText2356" font-family="&quot;Microsoft YaHei&quot;, 微软雅黑, Arial" text-anchor="middle" font-size="13px" width="130px" fill="#ffffff" font-weight="400" align="middle" lineHeight="125%" anchor="middle" family="&quot;Microsoft YaHei&quot;, 微软雅黑, Arial" size="13px" weight="400" font-style="" opacity="1" y="0.9224999999999994" transform="rotate(0)"><tspan id="SvgjsTspan2357" dy="16.25" x="75"><tspan id="SvgjsTspan2358" style="">step 2:</tspan></tspan><tspan id="SvgjsTspan2359" dy="16.25" x="75"><tspan id="SvgjsTspan2360" style="">processSelectedKeys</tspan></tspan></text></g></g><g id="SvgjsG2361" transform="translate(550.7619047619047,382.90476190476187)"><path id="SvgjsPath2362" d="M 0 4Q 0 0 4 0L 86.476 0Q 90.476 0 90.476 4L 90.476 36.095Q 90.476 40.095 86.476 40.095L 4 40.095Q 0 40.095 0 36.095Z" stroke="rgba(255,255,255,1)" stroke-width="1.5" fill-opacity="1" fill="#505460"></path><g id="SvgjsG2363"><text id="SvgjsText2364" font-family="&quot;Microsoft YaHei&quot;, 微软雅黑, Arial" text-anchor="middle" font-size="13px" width="71px" fill="#ffffff" font-weight="400" align="middle" lineHeight="125%" anchor="middle" family="&quot;Microsoft YaHei&quot;, 微软雅黑, Arial" size="13px" weight="400" font-style="" opacity="1" y="0.9224999999999994" transform="rotate(0)"><tspan id="SvgjsTspan2365" dy="16.25" x="45.5"><tspan id="SvgjsTspan2366" style="">step 3:</tspan></tspan><tspan id="SvgjsTspan2367" dy="16.25" x="45.5"><tspan id="SvgjsTspan2368" style="">runAllTasks</tspan></tspan></text></g></g><g id="SvgjsG2369" transform="translate(636.0476190476192,313.6190476190476)"><path id="SvgjsPath2370" d="M 0 4Q 0 0 4 0L 60.905 0Q 64.905 0 64.905 4L 64.905 36.095Q 64.905 40.095 60.905 40.095L 4 40.095Q 0 40.095 0 36.095Z" stroke="rgba(255,255,255,1)" stroke-width="1.5" fill-opacity="1" fill="#505460"></path><g id="SvgjsG2371"><text id="SvgjsText2372" font-family="&quot;Microsoft YaHei&quot;, 微软雅黑, Arial" text-anchor="middle" font-size="13px" width="45px" fill="#ffffff" font-weight="400" align="middle" lineHeight="125%" anchor="middle" family="&quot;Microsoft YaHei&quot;, 微软雅黑, Arial" size="13px" weight="400" font-style="" opacity="1" y="0.9224999999999994" transform="rotate(0)"><tspan id="SvgjsTspan2373" dy="16.25" x="32.5"><tspan id="SvgjsTspan2374" style="">step 1:</tspan></tspan><tspan id="SvgjsTspan2375" dy="16.25" x="32.5"><tspan id="SvgjsTspan2376" style="">select</tspan></tspan></text></g></g><g id="SvgjsG2377"><path id="SvgjsPath2378" d="M719.8095238095239 327.9523809523809C 742.4285714285714 332 749.5714285714286 345.09523809523813 754.3333333333334 366.5238095238095" stroke="#ffffff" stroke-width="1.5" fill="none" marker-end="url(#SvgjsMarker2379)"></path></g><g id="SvgjsG2381" transform="translate(247.88095238095244,335.1190476190476)"><path id="SvgjsPath2382" d="M 0 75C 0 -25 150 -25 150 75C 150 175 0 175 0 75Z" stroke="rgba(175,184,207,1)" stroke-width="1.5" fill-opacity="1" fill="#505460"></path><g id="SvgjsG2383"><text id="SvgjsText2384" font-family="&quot;Microsoft YaHei&quot;, 微软雅黑, Arial" text-anchor="middle" font-size="13px" width="130px" fill="#323232" font-weight="400" align="middle" lineHeight="125%" anchor="middle" family="&quot;Microsoft YaHei&quot;, 微软雅黑, Arial" size="13px" weight="400" font-style="" opacity="1" y="64.375" transform="rotate(0)"></text></g></g><g id="SvgjsG2385" transform="translate(322.2380952380954,390.07142857142856)"><path id="SvgjsPath2386" d="M 0 4Q 0 0 4 0L 145.571 0Q 149.571 0 149.571 4L 149.571 36.095Q 149.571 40.095 145.571 40.095L 4 40.095Q 0 40.095 0 36.095Z" stroke="rgba(255,255,255,1)" stroke-width="1.5" fill-opacity="1" fill="#505460"></path><g id="SvgjsG2387"><text id="SvgjsText2388" font-family="&quot;Microsoft YaHei&quot;, 微软雅黑, Arial" text-anchor="middle" font-size="13px" width="130px" fill="#ffffff" font-weight="400" align="middle" lineHeight="125%" anchor="middle" family="&quot;Microsoft YaHei&quot;, 微软雅黑, Arial" size="13px" weight="400" font-style="" opacity="1" y="0.9224999999999994" transform="rotate(0)"><tspan id="SvgjsTspan2389" dy="16.25" x="75"><tspan id="SvgjsTspan2390" style="">step 2:</tspan></tspan><tspan id="SvgjsTspan2391" dy="16.25" x="75"><tspan id="SvgjsTspan2392" style="">processSelectedKeys</tspan></tspan></text></g></g><g id="SvgjsG2393" transform="translate(205.14285714285714,390.07142857142856)"><path id="SvgjsPath2394" d="M 0 4Q 0 0 4 0L 86.476 0Q 90.476 0 90.476 4L 90.476 36.095Q 90.476 40.095 86.476 40.095L 4 40.095Q 0 40.095 0 36.095Z" stroke="rgba(255,255,255,1)" stroke-width="1.5" fill-opacity="1" fill="#505460"></path><g id="SvgjsG2395"><text id="SvgjsText2396" font-family="&quot;Microsoft YaHei&quot;, 微软雅黑, Arial" text-anchor="middle" font-size="13px" width="71px" fill="#ffffff" font-weight="400" align="middle" lineHeight="125%" anchor="middle" family="&quot;Microsoft YaHei&quot;, 微软雅黑, Arial" size="13px" weight="400" font-style="" opacity="1" y="0.9224999999999994" transform="rotate(0)"><tspan id="SvgjsTspan2397" dy="16.25" x="45.5"><tspan id="SvgjsTspan2398" style="">step 3:</tspan></tspan><tspan id="SvgjsTspan2399" dy="16.25" x="45.5"><tspan id="SvgjsTspan2400" style="">runAllTasks</tspan></tspan></text></g></g><g id="SvgjsG2401" transform="translate(290.42857142857156,320.7857142857143)"><path id="SvgjsPath2402" d="M 0 4Q 0 0 4 0L 60.905 0Q 64.905 0 64.905 4L 64.905 36.095Q 64.905 40.095 60.905 40.095L 4 40.095Q 0 40.095 0 36.095Z" stroke="rgba(255,255,255,1)" stroke-width="1.5" fill-opacity="1" fill="#505460"></path><g id="SvgjsG2403"><text id="SvgjsText2404" font-family="&quot;Microsoft YaHei&quot;, 微软雅黑, Arial" text-anchor="middle" font-size="13px" width="45px" fill="#ffffff" font-weight="400" align="middle" lineHeight="125%" anchor="middle" family="&quot;Microsoft YaHei&quot;, 微软雅黑, Arial" size="13px" weight="400" font-style="" opacity="1" y="0.9224999999999994" transform="rotate(0)"><tspan id="SvgjsTspan2405" dy="16.25" x="32.5"><tspan id="SvgjsTspan2406" style="">step 1:</tspan></tspan><tspan id="SvgjsTspan2407" dy="16.25" x="32.5"><tspan id="SvgjsTspan2408" style="">select</tspan></tspan></text></g></g><g id="SvgjsG2409"><path id="SvgjsPath2410" d="M374.1904761904764 335.1190476190476C 396.80952380952385 339.1666666666667 403.95238095238096 352.2619047619048 408.7142857142858 373.6904761904762" stroke="#ffffff" stroke-width="1.5" fill="none" marker-end="url(#SvgjsMarker2411)"></path></g><g id="SvgjsG2413"><path id="SvgjsPath2414" d="M322.88085714285717 136.083L322.88085714285717 228.05935714285715L322.88057142857156 228.05935714285715L322.88057142857156 318.0857142857143" stroke="#ffffff" stroke-width="1.5" fill="none" marker-end="url(#SvgjsMarker2415)"></path></g><g id="SvgjsG2417"><path id="SvgjsPath2418" d="M668.4999047619046 238.56L668.4999047619046 275.71452380952377L668.4999047619046 275.71452380952377L668.4999047619046 310.9190476190476" stroke="#ffffff" stroke-width="1.5" fill="none" marker-end="url(#SvgjsMarker2419)"></path></g><g id="SvgjsG2421" transform="translate(606,579.2857142857142)"><path id="SvgjsPath2422" d="M 0 4Q 0 0 4 0L 121 0Q 125 0 125 4L 125 26Q 125 30 121 30L 4 30Q 0 30 0 26Z" stroke="rgba(216,188,149,1)" stroke-width="1.5" fill-opacity="1" fill="#505460"></path><g id="SvgjsG2423"><text id="SvgjsText2424" font-family="&quot;Microsoft YaHei&quot;, 微软雅黑, Arial" text-anchor="middle" font-size="13px" width="105px" fill="#d8bc95" font-weight="400" align="middle" lineHeight="125%" anchor="middle" family="&quot;Microsoft YaHei&quot;, 微软雅黑, Arial" size="13px" weight="400" font-style="" opacity="1" y="4.375" transform="rotate(0)"><tspan id="SvgjsTspan2425" dy="16.25" x="62.5"><tspan id="SvgjsTspan2426" style="">ChannelHandler</tspan></tspan></text></g></g><g id="SvgjsG2427" transform="translate(606,639.7619047619048)"><path id="SvgjsPath2428" d="M 0 4Q 0 0 4 0L 121 0Q 125 0 125 4L 125 26Q 125 30 121 30L 4 30Q 0 30 0 26Z" stroke="rgba(216,188,149,1)" stroke-width="1.5" fill-opacity="1" fill="#505460"></path><g id="SvgjsG2429"><text id="SvgjsText2430" font-family="&quot;Microsoft YaHei&quot;, 微软雅黑, Arial" text-anchor="middle" font-size="13px" width="105px" fill="#d8bc95" font-weight="400" align="middle" lineHeight="125%" anchor="middle" family="&quot;Microsoft YaHei&quot;, 微软雅黑, Arial" size="13px" weight="400" font-style="" opacity="1" y="4.375" transform="rotate(0)"><tspan id="SvgjsTspan2431" dy="16.25" x="62.5"><tspan id="SvgjsTspan2432" style="">ChannelHandler</tspan></tspan></text></g></g><g id="SvgjsG2433" transform="translate(615.6428571428571,603.5238095238096)"><path id="SvgjsPath2434" d="M 0 0L 100 0L 100 40L 0 40Z" stroke="none" fill="none"></path><g id="SvgjsG2435"><text id="SvgjsText2436" font-family="&quot;Microsoft YaHei&quot;, 微软雅黑, Arial" text-anchor="middle" font-size="13px" width="100px" fill="#ffffff" font-weight="700" align="middle" lineHeight="125%" anchor="middle" family="&quot;Microsoft YaHei&quot;, 微软雅黑, Arial" size="13px" weight="700" font-style="" opacity="1" y="9.375" transform="rotate(0)"><tspan id="SvgjsTspan2437" dy="16.25" x="50"><tspan id="SvgjsTspan2438" style="">......</tspan></tspan></text></g></g><g id="SvgjsG2439"><path id="SvgjsPath2440" d="M95.70460838413875 40.256957243527765L202.60626695995765 79.24195392330004" stroke="#ffffff" stroke-width="1.5" fill="none" marker-end="url(#SvgjsMarker2441)"></path></g><g id="SvgjsG2443"><path id="SvgjsPath2444" d="M95.72773676039972 107.43766623201213L202.52300480541814 80.81997299332781" stroke="#ffffff" stroke-width="1.5" fill="none" marker-end="url(#SvgjsMarker2445)"></path></g><g id="SvgjsG2447"><path id="SvgjsPath2448" d="M95.56775054642 174.74803471424138L203.09895517574515 81.93121788587345" stroke="#ffffff" stroke-width="1.5" fill="none" marker-end="url(#SvgjsMarker2449)"></path></g><g id="SvgjsG2451"><path id="SvgjsPath2452" d="M472.55318062289064 410.02542357084855C 565.390994662902 410.1194285714286 470.75143390852656 195.2378571428572 561.6546259480702 195.57627514494524" stroke="#ffffff" stroke-width="1.5" fill="none" marker-end="url(#SvgjsMarker2453)"></path></g><g id="SvgjsG2455"><path id="SvgjsPath2456" d="M742.5663945036529 423.74582469718393C 742.643142857143 482.13610998649966 668.4998095238095 491.7684138230242 668.7761035963737 548.2189358520427" stroke="#ffffff" stroke-width="1.5" fill="none" marker-end="url(#SvgjsMarker2457)"></path></g><g id="SvgjsG2459" transform="translate(302.6428571428572,282.23809523809524)"><path id="SvgjsPath2460" d="M 0 0L 100 0L 100 40L 0 40Z" stroke="none" fill="none"></path><g id="SvgjsG2461"><text id="SvgjsText2462" font-family="&quot;Microsoft YaHei&quot;, 微软雅黑, Arial" text-anchor="middle" font-size="13px" width="100px" fill="#ffffff" font-weight="400" align="middle" lineHeight="125%" anchor="middle" family="&quot;Microsoft YaHei&quot;, 微软雅黑, Arial" size="13px" weight="400" font-style="" opacity="1" y="9.375" transform="rotate(0)"><tspan id="SvgjsTspan2463" dy="16.25" x="50"><tspan id="SvgjsTspan2464" style="">Accept</tspan></tspan></text></g></g><g id="SvgjsG2465" transform="translate(662.4047619047622,282.23809523809524)"><path id="SvgjsPath2466" d="M 0 0L 100 0L 100 40L 0 40Z" stroke="none" fill="none"></path><g id="SvgjsG2467"><text id="SvgjsText2468" font-family="&quot;Microsoft YaHei&quot;, 微软雅黑, Arial" text-anchor="middle" font-size="13px" width="100px" fill="#ffffff" font-weight="400" align="middle" lineHeight="125%" anchor="middle" family="&quot;Microsoft YaHei&quot;, 微软雅黑, Arial" size="13px" weight="400" font-style="" opacity="1" y="9.375" transform="rotate(0)"><tspan id="SvgjsTspan2469" dy="16.25" x="50"><tspan id="SvgjsTspan2470" style="">Read/Write</tspan></tspan></text></g></g><g id="SvgjsG2471" transform="translate(427.04761904761904,282.23809523809524)"><path id="SvgjsPath2472" d="M 0 0L 100 0L 100 40L 0 40Z" stroke="none" fill="none"></path><g id="SvgjsG2473"><text id="SvgjsText2474" font-family="&quot;Microsoft YaHei&quot;, 微软雅黑, Arial" text-anchor="start" font-size="13px" width="100px" fill="#ffffff" font-weight="400" align="middle" lineHeight="125%" anchor="start" family="&quot;Microsoft YaHei&quot;, 微软雅黑, Arial" size="13px" weight="400" font-style="" opacity="1" y="0.875" transform="rotate(0)"><tspan id="SvgjsTspan2475" dy="16.25" x="0"><tspan id="SvgjsTspan2476" style="">注册Channel到</tspan></tspan><tspan id="SvgjsTspan2477" dy="16.25" x="0"><tspan id="SvgjsTspan2478" style="">Selector</tspan></tspan></text></g></g><g id="SvgjsG2479" transform="translate(302.6428571428572,629.7619047619048)"><path id="SvgjsPath2480" d="M 0 0L 159.714 0L 159.714 40L 0 40Z" stroke="none" fill="none"></path><g id="SvgjsG2481"><text id="SvgjsText2482" font-family="&quot;Microsoft YaHei&quot;, 微软雅黑, Arial" text-anchor="middle" font-size="13px" width="160px" fill="#ffffff" font-weight="700" align="middle" lineHeight="125%" anchor="middle" family="&quot;Microsoft YaHei&quot;, 微软雅黑, Arial" size="13px" weight="700" font-style="" opacity="1" y="9.375" transform="rotate(0)"><tspan id="SvgjsTspan2483" dy="16.25" x="80"><tspan id="SvgjsTspan2484" style="">Netty Readtor工作架构图</tspan></tspan></text></g></g><g id="SvgjsG2485"></g></svg>