<svg id="SvgjsSvg1954" width="1088.1886792452829" height="555.7547169811321" xmlns="http://www.w3.org/2000/svg" version="1.1" xmlns:xlink="http://www.w3.org/1999/xlink" xmlns:svgjs="http://svgjs.com/svgjs"><defs id="SvgjsDefs1955"><pattern patternUnits="userSpaceOnUse" id="pattern_mark_0" width="300" height="300"><text x="150" y="100" fill="rgba(229,229,229,0.8)" font-size="18" transform="rotate(-45, 150, 150)" style="dominant-baseline: middle; text-anchor: middle;"></text></pattern><pattern patternUnits="userSpaceOnUse" id="pattern_mark_1" width="300" height="300"><text x="150" y="200" fill="rgba(229,229,229,0.8)" font-size="18" transform="rotate(-45, 150, 150)" style="dominant-baseline: middle; text-anchor: middle;"></text></pattern><marker id="SvgjsMarker2055" markerWidth="13" markerHeight="9" refX="9.5" refY="4.5" viewBox="0 0 13 9" orient="auto" markerUnits="userSpaceOnUse" stroke-dasharray="0,0"><path id="SvgjsPath2056" d="M0,0 L13,4.5 L0,9 L0,0" fill="#813bc7" stroke="#813bc7" stroke-width="1"></path></marker><marker id="SvgjsMarker2063" markerWidth="13" markerHeight="9" refX="9.5" refY="4.5" viewBox="0 0 13 9" orient="auto" markerUnits="userSpaceOnUse" stroke-dasharray="0,0"><path id="SvgjsPath2064" d="M0,0 L13,4.5 L0,9 L0,0" fill="#813bc7" stroke="#813bc7" stroke-width="1"></path></marker><marker id="SvgjsMarker2071" markerWidth="13" markerHeight="9" refX="9.5" refY="4.5" viewBox="0 0 13 9" orient="auto" markerUnits="userSpaceOnUse" stroke-dasharray="0,0"><path id="SvgjsPath2072" d="M0,0 L13,4.5 L0,9 L0,0" fill="#813bc7" stroke="#813bc7" stroke-width="1"></path></marker><marker id="SvgjsMarker2075" markerWidth="13" markerHeight="9" refX="9.5" refY="4.5" viewBox="0 0 13 9" orient="auto" markerUnits="userSpaceOnUse" stroke-dasharray="0,0"><path id="SvgjsPath2076" d="M0,0 L13,4.5 L0,9 L0,0" fill="#813bc7" stroke="#813bc7" stroke-width="1"></path></marker><marker id="SvgjsMarker2079" markerWidth="13" markerHeight="9" refX="9.5" refY="4.5" viewBox="0 0 13 9" orient="auto" markerUnits="userSpaceOnUse" stroke-dasharray="0,0"><path id="SvgjsPath2080" d="M0,0 L13,4.5 L0,9 L0,0" fill="#813bc7" stroke="#813bc7" stroke-width="1"></path></marker><marker id="SvgjsMarker2083" markerWidth="13" markerHeight="9" refX="9.5" refY="4.5" viewBox="0 0 13 9" orient="auto" markerUnits="userSpaceOnUse" stroke-dasharray="0,0"><path id="SvgjsPath2084" d="M0,0 L13,4.5 L0,9 L0,0" fill="#813bc7" stroke="#813bc7" stroke-width="1"></path></marker><marker id="SvgjsMarker2087" markerWidth="13" markerHeight="9" refX="9.5" refY="4.5" viewBox="0 0 13 9" orient="auto" markerUnits="userSpaceOnUse" stroke-dasharray="0,0"><path id="SvgjsPath2088" d="M0,0 L13,4.5 L0,9 L0,0" fill="#813bc7" stroke="#813bc7" stroke-width="1"></path></marker><marker id="SvgjsMarker2091" markerWidth="13" markerHeight="9" refX="9.5" refY="4.5" viewBox="0 0 13 9" orient="auto" markerUnits="userSpaceOnUse" stroke-dasharray="0,0"><path id="SvgjsPath2092" d="M0,0 L13,4.5 L0,9 L0,0" fill="#813bc7" stroke="#813bc7" stroke-width="1"></path></marker><marker id="SvgjsMarker2095" markerWidth="13" markerHeight="9" refX="9.5" refY="4.5" viewBox="0 0 13 9" orient="auto" markerUnits="userSpaceOnUse" stroke-dasharray="0,0"><path id="SvgjsPath2096" d="M0,0 L13,4.5 L0,9 L0,0" fill="#813bc7" stroke="#813bc7" stroke-width="1"></path></marker><marker id="SvgjsMarker2099" markerWidth="13" markerHeight="9" refX="9.5" refY="4.5" viewBox="0 0 13 9" orient="auto" markerUnits="userSpaceOnUse" stroke-dasharray="0,0"><path id="SvgjsPath2100" d="M0,0 L13,4.5 L0,9 L0,0" fill="#813bc7" stroke="#813bc7" stroke-width="1"></path></marker><marker id="SvgjsMarker2197" markerWidth="13" markerHeight="9" refX="9.5" refY="4.5" viewBox="0 0 13 9" orient="auto" markerUnits="userSpaceOnUse" stroke-dasharray="0,0"><path id="SvgjsPath2198" d="M0,0 L13,4.5 L0,9 L0,0" fill="#813bc7" stroke="#813bc7" stroke-width="1"></path></marker><marker id="SvgjsMarker2205" markerWidth="13" markerHeight="9" refX="9.5" refY="4.5" viewBox="0 0 13 9" orient="auto" markerUnits="userSpaceOnUse" stroke-dasharray="0,0"><path id="SvgjsPath2206" d="M0,0 L13,4.5 L0,9 L0,0" fill="#813bc7" stroke="#813bc7" stroke-width="1"></path></marker><marker id="SvgjsMarker2213" markerWidth="13" markerHeight="9" refX="9.5" refY="4.5" viewBox="0 0 13 9" orient="auto" markerUnits="userSpaceOnUse" stroke-dasharray="0,0"><path id="SvgjsPath2214" d="M0,0 L13,4.5 L0,9 L0,0" fill="#813bc7" stroke="#813bc7" stroke-width="1"></path></marker><marker id="SvgjsMarker2217" markerWidth="13" markerHeight="9" refX="9.5" refY="4.5" viewBox="0 0 13 9" orient="auto" markerUnits="userSpaceOnUse" stroke-dasharray="0,0"><path id="SvgjsPath2218" d="M0,0 L13,4.5 L0,9 L0,0" fill="#813bc7" stroke="#813bc7" stroke-width="1"></path></marker><marker id="SvgjsMarker2221" markerWidth="13" markerHeight="9" refX="9.5" refY="4.5" viewBox="0 0 13 9" orient="auto" markerUnits="userSpaceOnUse" stroke-dasharray="0,0"><path id="SvgjsPath2222" d="M0,0 L13,4.5 L0,9 L0,0" fill="#813bc7" stroke="#813bc7" stroke-width="1"></path></marker><marker id="SvgjsMarker2225" markerWidth="13" markerHeight="9" refX="9.5" refY="4.5" viewBox="0 0 13 9" orient="auto" markerUnits="userSpaceOnUse" stroke-dasharray="0,0"><path id="SvgjsPath2226" d="M0,0 L13,4.5 L0,9 L0,0" fill="#813bc7" stroke="#813bc7" stroke-width="1"></path></marker><marker id="SvgjsMarker2229" markerWidth="13" markerHeight="9" refX="9.5" refY="4.5" viewBox="0 0 13 9" orient="auto" markerUnits="userSpaceOnUse" stroke-dasharray="0,0"><path id="SvgjsPath2230" d="M0,0 L13,4.5 L0,9 L0,0" fill="#813bc7" stroke="#813bc7" stroke-width="1"></path></marker><marker id="SvgjsMarker2233" markerWidth="13" markerHeight="9" refX="9.5" refY="4.5" viewBox="0 0 13 9" orient="auto" markerUnits="userSpaceOnUse" stroke-dasharray="0,0"><path id="SvgjsPath2234" d="M0,0 L13,4.5 L0,9 L0,0" fill="#813bc7" stroke="#813bc7" stroke-width="1"></path></marker><marker id="SvgjsMarker2237" markerWidth="13" markerHeight="9" refX="9.5" refY="4.5" viewBox="0 0 13 9" orient="auto" markerUnits="userSpaceOnUse" stroke-dasharray="0,0"><path id="SvgjsPath2238" d="M0,0 L13,4.5 L0,9 L0,0" fill="#813bc7" stroke="#813bc7" stroke-width="1"></path></marker><marker id="SvgjsMarker2241" markerWidth="13" markerHeight="9" refX="9.5" refY="4.5" viewBox="0 0 13 9" orient="auto" markerUnits="userSpaceOnUse" stroke-dasharray="0,0"><path id="SvgjsPath2242" d="M0,0 L13,4.5 L0,9 L0,0" fill="#813bc7" stroke="#813bc7" stroke-width="1"></path></marker></defs><rect id="svgbackgroundid" width="1088.1886792452829" height="555.7547169811321" fill="transparent"></rect><rect id="SvgjsRect1957" width="1088.1886792452829" height="555.7547169811321" fill="url(#pattern_mark_0)"></rect><rect id="SvgjsRect1958" width="1088.1886792452829" height="555.7547169811321" fill="url(#pattern_mark_1)"></rect><g id="SvgjsG1959" transform="translate(25,151.5094339622642)"><path id="SvgjsPath1960" d="M 0 4Q 0 0 4 0L 464.868 0Q 468.868 0 468.868 4L 468.868 375.245Q 468.868 379.245 464.868 379.245L 4 379.245Q 0 379.245 0 375.245Z" stroke="rgba(185,188,184,1)" stroke-width="1.5" fill-opacity="1" fill="#f4f5f8"></path><g id="SvgjsG1961"><text id="SvgjsText1962" font-family="&quot;Microsoft YaHei&quot;, 微软雅黑, Arial" text-anchor="middle" font-size="13px" width="449px" fill="#323232" font-weight="700" align="bottom" lineHeight="125%" anchor="middle" family="&quot;Microsoft YaHei&quot;, 微软雅黑, Arial" size="13px" weight="700" font-style="" opacity="1" y="360.62" transform="rotate(0)"><tspan id="SvgjsTspan1963" dy="16.25" x="234.5"><tspan id="SvgjsTspan1964" style="">Boss Group</tspan></tspan></text></g></g><g id="SvgjsG1965" transform="translate(40.169811320754775,164.7169811320755)"><path id="SvgjsPath1966" d="M 0 4Q 0 0 4 0L 207.208 0Q 211.208 0 211.208 4L 211.208 332.792Q 211.208 336.792 207.208 336.792L 4 336.792Q 0 336.792 0 332.792Z" stroke="rgba(216,199,140,1)" stroke-width="1.5" fill-opacity="1" fill="#f7e4c3"></path><g id="SvgjsG1967"><text id="SvgjsText1968" font-family="&quot;Microsoft YaHei&quot;, 微软雅黑, Arial" text-anchor="middle" font-size="13px" width="192px" fill="#323232" font-weight="700" align="bottom" lineHeight="125%" anchor="middle" family="&quot;Microsoft YaHei&quot;, 微软雅黑, Arial" size="13px" weight="700" font-style="" opacity="1" y="318.167" transform="rotate(0)"><tspan id="SvgjsTspan1969" dy="16.25" x="106"><tspan id="SvgjsTspan1970" style="">NioEventLoop</tspan></tspan></text></g></g><g id="SvgjsG1971" transform="translate(62.811320754716974,239.03773584905662)"><path id="SvgjsPath1972" d="M 0 4Q 0 0 4 0L 161.925 0Q 165.925 0 165.925 4L 165.925 229.226Q 165.925 233.226 161.925 233.226L 4 233.226Q 0 233.226 0 229.226Z" stroke="rgba(192,149,136,1)" stroke-width="1.5" fill-opacity="1" fill="#f4cecb"></path><g id="SvgjsG1973"><text id="SvgjsText1974" font-family="&quot;Microsoft YaHei&quot;, 微软雅黑, Arial" text-anchor="middle" font-size="13px" width="146px" fill="#323232" font-weight="700" align="bottom" lineHeight="125%" anchor="middle" family="&quot;Microsoft YaHei&quot;, 微软雅黑, Arial" size="13px" weight="700" font-style="" opacity="1" y="214.601" transform="rotate(0)"><tspan id="SvgjsTspan1975" dy="16.25" x="83"><tspan id="SvgjsTspan1976" style="">Thread</tspan></tspan></text></g></g><g id="SvgjsG1977" transform="translate(80.73584905660374,281.1132075471697)"><path id="SvgjsPath1978" d="M 0 4Q 0 0 4 0L 126.075 0Q 130.075 0 130.075 4L 130.075 25.83Q 130.075 29.83 126.075 29.83L 4 29.83Q 0 29.83 0 25.83Z" stroke="rgba(193,166,180,1)" stroke-width="1.5" fill-opacity="1" fill="#e3d4ea"></path><g id="SvgjsG1979"><text id="SvgjsText1980" font-family="&quot;Microsoft YaHei&quot;, 微软雅黑, Arial" text-anchor="middle" font-size="13px" width="111px" fill="#9458cc" font-weight="400" align="middle" lineHeight="125%" anchor="middle" family="&quot;Microsoft YaHei&quot;, 微软雅黑, Arial" size="13px" weight="400" font-style="" opacity="1" y="4.289999999999999" transform="rotate(0)"><tspan id="SvgjsTspan1981" dy="16.25" x="65.5"><tspan id="SvgjsTspan1982" style="">轮询监听的IO事件</tspan></tspan></text></g></g><g id="SvgjsG1983" transform="translate(80.73584905660374,340.7358490566036)"><path id="SvgjsPath1984" d="M 0 4Q 0 0 4 0L 126.075 0Q 130.075 0 130.075 4L 130.075 25.83Q 130.075 29.83 126.075 29.83L 4 29.83Q 0 29.83 0 25.83Z" stroke="rgba(193,166,180,1)" stroke-width="1.5" fill-opacity="1" fill="#e3d4ea"></path><g id="SvgjsG1985"><text id="SvgjsText1986" font-family="&quot;Microsoft YaHei&quot;, 微软雅黑, Arial" text-anchor="middle" font-size="13px" width="111px" fill="#9458cc" font-weight="400" align="middle" lineHeight="125%" anchor="middle" family="&quot;Microsoft YaHei&quot;, 微软雅黑, Arial" size="13px" weight="400" font-style="" opacity="1" y="4.289999999999999" transform="rotate(0)"><tspan id="SvgjsTspan1987" dy="16.25" x="65.5"><tspan id="SvgjsTspan1988" style="">处理IO事件</tspan></tspan></text></g></g><g id="SvgjsG1989" transform="translate(80.73584905660374,400.35849056603746)"><path id="SvgjsPath1990" d="M 0 4Q 0 0 4 0L 126.075 0Q 130.075 0 130.075 4L 130.075 25.83Q 130.075 29.83 126.075 29.83L 4 29.83Q 0 29.83 0 25.83Z" stroke="rgba(193,166,180,1)" stroke-width="1.5" fill-opacity="1" fill="#e3d4ea"></path><g id="SvgjsG1991"><text id="SvgjsText1992" font-family="&quot;Microsoft YaHei&quot;, 微软雅黑, Arial" text-anchor="middle" font-size="13px" width="111px" fill="#9458cc" font-weight="400" align="middle" lineHeight="125%" anchor="middle" family="&quot;Microsoft YaHei&quot;, 微软雅黑, Arial" size="13px" weight="400" font-style="" opacity="1" y="4.289999999999999" transform="rotate(0)"><tspan id="SvgjsTspan1993" dy="16.25" x="65.5"><tspan id="SvgjsTspan1994" style="">处理任务队列</tspan></tspan></text></g></g><g id="SvgjsG1995" transform="translate(62.811320754716974,178.8679245283019)"><path id="SvgjsPath1996" d="M 0 4Q 0 0 4 0L 161.925 0Q 165.925 0 165.925 4L 165.925 35.811Q 165.925 39.811 161.925 39.811L 4 39.811Q 0 39.811 0 35.811Z" stroke="rgba(192,149,136,1)" stroke-width="1.5" fill-opacity="1" fill="#f4cecb"></path><g id="SvgjsG1997"><text id="SvgjsText1998" font-family="&quot;Microsoft YaHei&quot;, 微软雅黑, Arial" text-anchor="middle" font-size="13px" width="146px" fill="#323232" font-weight="700" align="middle" lineHeight="125%" anchor="middle" family="&quot;Microsoft YaHei&quot;, 微软雅黑, Arial" size="13px" weight="700" font-style="" opacity="1" y="9.2805" transform="rotate(0)"><tspan id="SvgjsTspan1999" dy="16.25" x="83"><tspan id="SvgjsTspan2000" style="">selector</tspan></tspan></text></g></g><g id="SvgjsG2001" transform="translate(266.7735849056604,164.71698113207555)"><path id="SvgjsPath2002" d="M 0 4Q 0 0 4 0L 207.208 0Q 211.208 0 211.208 4L 211.208 332.792Q 211.208 336.792 207.208 336.792L 4 336.792Q 0 336.792 0 332.792Z" stroke="rgba(216,199,140,1)" stroke-width="1.5" fill-opacity="1" fill="#f7e4c3"></path><g id="SvgjsG2003"><text id="SvgjsText2004" font-family="&quot;Microsoft YaHei&quot;, 微软雅黑, Arial" text-anchor="middle" font-size="13px" width="192px" fill="#323232" font-weight="700" align="bottom" lineHeight="125%" anchor="middle" family="&quot;Microsoft YaHei&quot;, 微软雅黑, Arial" size="13px" weight="700" font-style="" opacity="1" y="318.167" transform="rotate(0)"><tspan id="SvgjsTspan2005" dy="16.25" x="106"><tspan id="SvgjsTspan2006" style="">NioEventLoop</tspan></tspan></text></g></g><g id="SvgjsG2007" transform="translate(289.4150943396226,239.03773584905673)"><path id="SvgjsPath2008" d="M 0 4Q 0 0 4 0L 161.925 0Q 165.925 0 165.925 4L 165.925 229.226Q 165.925 233.226 161.925 233.226L 4 233.226Q 0 233.226 0 229.226Z" stroke="rgba(192,149,136,1)" stroke-width="1.5" fill-opacity="1" fill="#f4cecb"></path><g id="SvgjsG2009"><text id="SvgjsText2010" font-family="&quot;Microsoft YaHei&quot;, 微软雅黑, Arial" text-anchor="middle" font-size="13px" width="146px" fill="#323232" font-weight="700" align="bottom" lineHeight="125%" anchor="middle" family="&quot;Microsoft YaHei&quot;, 微软雅黑, Arial" size="13px" weight="700" font-style="" opacity="1" y="214.601" transform="rotate(0)"><tspan id="SvgjsTspan2011" dy="16.25" x="83"><tspan id="SvgjsTspan2012" style="">Thread</tspan></tspan></text></g></g><g id="SvgjsG2013" transform="translate(307.3396226415094,281.1132075471699)"><path id="SvgjsPath2014" d="M 0 4Q 0 0 4 0L 126.075 0Q 130.075 0 130.075 4L 130.075 25.83Q 130.075 29.83 126.075 29.83L 4 29.83Q 0 29.83 0 25.83Z" stroke="rgba(193,166,180,1)" stroke-width="1.5" fill-opacity="1" fill="#e3d4ea"></path><g id="SvgjsG2015"><text id="SvgjsText2016" font-family="&quot;Microsoft YaHei&quot;, 微软雅黑, Arial" text-anchor="middle" font-size="13px" width="111px" fill="#9458cc" font-weight="400" align="middle" lineHeight="125%" anchor="middle" family="&quot;Microsoft YaHei&quot;, 微软雅黑, Arial" size="13px" weight="400" font-style="" opacity="1" y="4.289999999999999" transform="rotate(0)"><tspan id="SvgjsTspan2017" dy="16.25" x="65.5"><tspan id="SvgjsTspan2018" style="">轮询监听的IO事件</tspan></tspan></text></g></g><g id="SvgjsG2019" transform="translate(307.3396226415094,340.73584905660385)"><path id="SvgjsPath2020" d="M 0 4Q 0 0 4 0L 126.075 0Q 130.075 0 130.075 4L 130.075 25.83Q 130.075 29.83 126.075 29.83L 4 29.83Q 0 29.83 0 25.83Z" stroke="rgba(193,166,180,1)" stroke-width="1.5" fill-opacity="1" fill="#e3d4ea"></path><g id="SvgjsG2021"><text id="SvgjsText2022" font-family="&quot;Microsoft YaHei&quot;, 微软雅黑, Arial" text-anchor="middle" font-size="13px" width="111px" fill="#9458cc" font-weight="400" align="middle" lineHeight="125%" anchor="middle" family="&quot;Microsoft YaHei&quot;, 微软雅黑, Arial" size="13px" weight="400" font-style="" opacity="1" y="4.289999999999999" transform="rotate(0)"><tspan id="SvgjsTspan2023" dy="16.25" x="65.5"><tspan id="SvgjsTspan2024" style="">处理IO事件</tspan></tspan></text></g></g><g id="SvgjsG2025" transform="translate(307.3396226415094,400.3584905660377)"><path id="SvgjsPath2026" d="M 0 4Q 0 0 4 0L 126.075 0Q 130.075 0 130.075 4L 130.075 25.83Q 130.075 29.83 126.075 29.83L 4 29.83Q 0 29.83 0 25.83Z" stroke="rgba(193,166,180,1)" stroke-width="1.5" fill-opacity="1" fill="#e3d4ea"></path><g id="SvgjsG2027"><text id="SvgjsText2028" font-family="&quot;Microsoft YaHei&quot;, 微软雅黑, Arial" text-anchor="middle" font-size="13px" width="111px" fill="#9458cc" font-weight="400" align="middle" lineHeight="125%" anchor="middle" family="&quot;Microsoft YaHei&quot;, 微软雅黑, Arial" size="13px" weight="400" font-style="" opacity="1" y="4.289999999999999" transform="rotate(0)"><tspan id="SvgjsTspan2029" dy="16.25" x="65.5"><tspan id="SvgjsTspan2030" style="">处理任务队列</tspan></tspan></text></g></g><g id="SvgjsG2031" transform="translate(289.4150943396226,178.86792452830196)"><path id="SvgjsPath2032" d="M 0 4Q 0 0 4 0L 161.925 0Q 165.925 0 165.925 4L 165.925 35.811Q 165.925 39.811 161.925 39.811L 4 39.811Q 0 39.811 0 35.811Z" stroke="rgba(192,149,136,1)" stroke-width="1.5" fill-opacity="1" fill="#f4cecb"></path><g id="SvgjsG2033"><text id="SvgjsText2034" font-family="&quot;Microsoft YaHei&quot;, 微软雅黑, Arial" text-anchor="middle" font-size="13px" width="146px" fill="#323232" font-weight="700" align="middle" lineHeight="125%" anchor="middle" family="&quot;Microsoft YaHei&quot;, 微软雅黑, Arial" size="13px" weight="700" font-style="" opacity="1" y="9.2805" transform="rotate(0)"><tspan id="SvgjsTspan2035" dy="16.25" x="83"><tspan id="SvgjsTspan2036" style="">selector</tspan></tspan></text></g></g><g id="SvgjsG2037" transform="translate(93.0849056603773,25)"><path id="SvgjsPath2038" d="M 0 35C 0 -11.667 105.377 -11.667 105.377 35C 105.377 81.667 0 81.667 0 35Z" stroke="rgba(185,201,180,1)" stroke-width="1.5" fill-opacity="1" fill="#d6e7d2"></path><g id="SvgjsG2039"><text id="SvgjsText2040" font-family="&quot;Microsoft YaHei&quot;, 微软雅黑, Arial" text-anchor="middle" font-size="13px" width="86px" fill="#84aa5b" font-weight="400" align="middle" lineHeight="125%" anchor="middle" family="&quot;Microsoft YaHei&quot;, 微软雅黑, Arial" size="13px" weight="400" font-style="" opacity="1" y="15.875" transform="rotate(0)"><tspan id="SvgjsTspan2041" dy="16.25" x="53"><tspan id="SvgjsTspan2042" style="">ServerSocket</tspan></tspan><tspan id="SvgjsTspan2043" dy="16.25" x="53"><tspan id="SvgjsTspan2044" style="">Channel</tspan></tspan></text></g></g><g id="SvgjsG2045" transform="translate(319.68867924528297,25)"><path id="SvgjsPath2046" d="M 0 35C 0 -11.667 105.377 -11.667 105.377 35C 105.377 81.667 0 81.667 0 35Z" stroke="rgba(185,201,180,1)" stroke-width="1.5" fill-opacity="1" fill="#d6e7d2"></path><g id="SvgjsG2047"><text id="SvgjsText2048" font-family="&quot;Microsoft YaHei&quot;, 微软雅黑, Arial" text-anchor="middle" font-size="13px" width="86px" fill="#84aa5b" font-weight="400" align="middle" lineHeight="125%" anchor="middle" family="&quot;Microsoft YaHei&quot;, 微软雅黑, Arial" size="13px" weight="400" font-style="" opacity="1" y="15.875" transform="rotate(0)"><tspan id="SvgjsTspan2049" dy="16.25" x="53"><tspan id="SvgjsTspan2050" style="">ServerSocket</tspan></tspan><tspan id="SvgjsTspan2051" dy="16.25" x="53"><tspan id="SvgjsTspan2052" style="">Channel</tspan></tspan></text></g></g><g id="SvgjsG2053"><path id="SvgjsPath2054" d="M145.7739056603773 95.75L145.7739056603773 129.85849056603774L145.7739056603773 129.85849056603774L145.7739056603773 162.0169811320755" stroke-dasharray="1.5,2.25" stroke="#813bc7" stroke-width="1.5" fill="none" marker-end="url(#SvgjsMarker2055)"></path><rect id="SvgjsRect2057" width="26" height="18" x="132.7739056603773" y="117.14852043812395" fill="#ffffff"></rect><text id="SvgjsText2058" font-family="&quot;Microsoft YaHei&quot;, 微软雅黑, Arial" text-anchor="middle" font-size="13px" width="26px" fill="#813bc7" font-weight="400" align="top" lineHeight="16px" anchor="middle" family="&quot;Microsoft YaHei&quot;, 微软雅黑, Arial" size="13px" weight="400" font-style="" opacity="1" y="114.52352043812395" transform="rotate(0)"><tspan id="SvgjsTspan2059" dy="16.25" x="145.7739056603773"><tspan id="SvgjsTspan2060" style="">注册</tspan></tspan></text></g><g id="SvgjsG2061"><path id="SvgjsPath2062" d="M372.377679245283 95.75L372.377679245283 129.85849056603774L372.377679245283 129.85849056603774L372.377679245283 162.01698113207556" stroke-dasharray="1.5,2.25" stroke="#813bc7" stroke-width="1.5" fill="none" marker-end="url(#SvgjsMarker2063)"></path><rect id="SvgjsRect2065" width="26" height="18" x="359.37767924528293" y="116.25180892077515" fill="#ffffff"></rect><text id="SvgjsText2066" font-family="&quot;Microsoft YaHei&quot;, 微软雅黑, Arial" text-anchor="middle" font-size="13px" width="26px" fill="#813bc7" font-weight="400" align="top" lineHeight="16px" anchor="middle" family="&quot;Microsoft YaHei&quot;, 微软雅黑, Arial" size="13px" weight="400" font-style="" opacity="1" y="113.62680892077515" transform="rotate(0)"><tspan id="SvgjsTspan2067" dy="16.25" x="372.37767924528293"><tspan id="SvgjsTspan2068" style="">注册</tspan></tspan></text></g><g id="SvgjsG2069"><path id="SvgjsPath2070" d="M145.77384905660375 311.69320754716966L145.77384905660375 325.8395283018867L145.77384905660375 325.8395283018867L145.77384905660375 338.03584905660364" stroke="#813bc7" stroke-width="1.5" fill="none" marker-end="url(#SvgjsMarker2071)"></path></g><g id="SvgjsG2073"><path id="SvgjsPath2074" d="M145.77384905660375 371.3158490566036L145.77384905660375 385.4621698113205L145.77384905660375 385.4621698113205L145.77384905660375 397.6584905660375" stroke="#813bc7" stroke-width="1.5" fill="none" marker-end="url(#SvgjsMarker2075)"></path></g><g id="SvgjsG2077"><path id="SvgjsPath2078" d="M145.77384905660375 430.93849056603744L145.77384905660375 454.5281132075469L221 454.5281132075469L221 254.88679245283004L145.77384905660375 254.88679245283004L145.77384905660375 278.4132075471697" stroke="#813bc7" stroke-width="1.5" fill="none" marker-end="url(#SvgjsMarker2079)"></path></g><g id="SvgjsG2081"><path id="SvgjsPath2082" d="M372.3776226415094 311.6932075471699L372.3776226415094 325.8395283018869L372.3776226415094 325.8395283018869L372.3776226415094 338.03584905660387" stroke="#813bc7" stroke-width="1.5" fill="none" marker-end="url(#SvgjsMarker2083)"></path></g><g id="SvgjsG2085"><path id="SvgjsPath2086" d="M372.3776226415094 371.31584905660384L372.3776226415094 382.73575471698115L372.3776226415094 382.73575471698115L372.3776226415094 394.90566037735846" stroke="#813bc7" stroke-width="1.5" fill="none" marker-end="url(#SvgjsMarker2087)"></path></g><g id="SvgjsG2089"><path id="SvgjsPath2090" d="M372.3776226415094 430.9384905660377L372.3776226415094 454.5281132075471L449.4905660377358 454.5281132075471L449.4905660377358 254.88679245283032L372.3776226415094 254.88679245283032L372.3776226415094 278.4132075471699" stroke="#813bc7" stroke-width="1.5" fill="none" marker-end="url(#SvgjsMarker2091)"></path></g><g id="SvgjsG2093"><path id="SvgjsPath2094" d="M371.9808835060843 219.3157266760581L334.5584344724361 279.4622292492098" stroke-dasharray="1.5,2.25" stroke="#813bc7" stroke-width="1.5" fill="none" marker-end="url(#SvgjsMarker2095)"></path></g><g id="SvgjsG2097"><path id="SvgjsPath2098" d="M145.37848594574245 219.31658076297862L108.13838644438371 279.4591545362959" stroke-dasharray="1.5,2.25" stroke="#813bc7" stroke-width="1.5" fill="none" marker-end="url(#SvgjsMarker2099)"></path></g><g id="SvgjsG2101" transform="translate(594.320754716981,151.5094339622642)"><path id="SvgjsPath2102" d="M 0 4Q 0 0 4 0L 464.868 0Q 468.868 0 468.868 4L 468.868 375.245Q 468.868 379.245 464.868 379.245L 4 379.245Q 0 379.245 0 375.245Z" stroke="rgba(185,188,184,1)" stroke-width="1.5" fill-opacity="1" fill="#f4f5f8"></path><g id="SvgjsG2103"><text id="SvgjsText2104" font-family="&quot;Microsoft YaHei&quot;, 微软雅黑, Arial" text-anchor="middle" font-size="13px" width="449px" fill="#323232" font-weight="700" align="bottom" lineHeight="125%" anchor="middle" family="&quot;Microsoft YaHei&quot;, 微软雅黑, Arial" size="13px" weight="700" font-style="" opacity="1" y="360.62" transform="rotate(0)"><tspan id="SvgjsTspan2105" dy="16.25" x="234.5"><tspan id="SvgjsTspan2106" style="">Worker Group</tspan></tspan></text></g></g><g id="SvgjsG2107" transform="translate(609.4905660377359,164.7169811320755)"><path id="SvgjsPath2108" d="M 0 4Q 0 0 4 0L 207.208 0Q 211.208 0 211.208 4L 211.208 332.792Q 211.208 336.792 207.208 336.792L 4 336.792Q 0 336.792 0 332.792Z" stroke="rgba(216,199,140,1)" stroke-width="1.5" fill-opacity="1" fill="#f7e4c3"></path><g id="SvgjsG2109"><text id="SvgjsText2110" font-family="&quot;Microsoft YaHei&quot;, 微软雅黑, Arial" text-anchor="middle" font-size="13px" width="192px" fill="#323232" font-weight="700" align="bottom" lineHeight="125%" anchor="middle" family="&quot;Microsoft YaHei&quot;, 微软雅黑, Arial" size="13px" weight="700" font-style="" opacity="1" y="318.167" transform="rotate(0)"><tspan id="SvgjsTspan2111" dy="16.25" x="106"><tspan id="SvgjsTspan2112" style="">NioEventLoop</tspan></tspan></text></g></g><g id="SvgjsG2113" transform="translate(632.1320754716979,239.03773584905667)"><path id="SvgjsPath2114" d="M 0 4Q 0 0 4 0L 161.925 0Q 165.925 0 165.925 4L 165.925 229.226Q 165.925 233.226 161.925 233.226L 4 233.226Q 0 233.226 0 229.226Z" stroke="rgba(192,149,136,1)" stroke-width="1.5" fill-opacity="1" fill="#f4cecb"></path><g id="SvgjsG2115"><text id="SvgjsText2116" font-family="&quot;Microsoft YaHei&quot;, 微软雅黑, Arial" text-anchor="middle" font-size="13px" width="146px" fill="#323232" font-weight="700" align="bottom" lineHeight="125%" anchor="middle" family="&quot;Microsoft YaHei&quot;, 微软雅黑, Arial" size="13px" weight="700" font-style="" opacity="1" y="214.601" transform="rotate(0)"><tspan id="SvgjsTspan2117" dy="16.25" x="83"><tspan id="SvgjsTspan2118" style="">Thread</tspan></tspan></text></g></g><g id="SvgjsG2119" transform="translate(650.0566037735847,281.1132075471697)"><path id="SvgjsPath2120" d="M 0 4Q 0 0 4 0L 126.075 0Q 130.075 0 130.075 4L 130.075 25.83Q 130.075 29.83 126.075 29.83L 4 29.83Q 0 29.83 0 25.83Z" stroke="rgba(193,166,180,1)" stroke-width="1.5" fill-opacity="1" fill="#e3d4ea"></path><g id="SvgjsG2121"><text id="SvgjsText2122" font-family="&quot;Microsoft YaHei&quot;, 微软雅黑, Arial" text-anchor="middle" font-size="13px" width="111px" fill="#9458cc" font-weight="400" align="middle" lineHeight="125%" anchor="middle" family="&quot;Microsoft YaHei&quot;, 微软雅黑, Arial" size="13px" weight="400" font-style="" opacity="1" y="4.289999999999999" transform="rotate(0)"><tspan id="SvgjsTspan2123" dy="16.25" x="65.5"><tspan id="SvgjsTspan2124" style="">轮询监听的IO事件</tspan></tspan></text></g></g><g id="SvgjsG2125" transform="translate(650.0566037735847,340.7358490566036)"><path id="SvgjsPath2126" d="M 0 4Q 0 0 4 0L 126.075 0Q 130.075 0 130.075 4L 130.075 25.83Q 130.075 29.83 126.075 29.83L 4 29.83Q 0 29.83 0 25.83Z" stroke="rgba(193,166,180,1)" stroke-width="1.5" fill-opacity="1" fill="#e3d4ea"></path><g id="SvgjsG2127"><text id="SvgjsText2128" font-family="&quot;Microsoft YaHei&quot;, 微软雅黑, Arial" text-anchor="middle" font-size="13px" width="111px" fill="#9458cc" font-weight="400" align="middle" lineHeight="125%" anchor="middle" family="&quot;Microsoft YaHei&quot;, 微软雅黑, Arial" size="13px" weight="400" font-style="" opacity="1" y="4.289999999999999" transform="rotate(0)"><tspan id="SvgjsTspan2129" dy="16.25" x="65.5"><tspan id="SvgjsTspan2130" style="">处理IO事件</tspan></tspan></text></g></g><g id="SvgjsG2131" transform="translate(650.0566037735847,400.35849056603746)"><path id="SvgjsPath2132" d="M 0 4Q 0 0 4 0L 126.075 0Q 130.075 0 130.075 4L 130.075 25.83Q 130.075 29.83 126.075 29.83L 4 29.83Q 0 29.83 0 25.83Z" stroke="rgba(193,166,180,1)" stroke-width="1.5" fill-opacity="1" fill="#e3d4ea"></path><g id="SvgjsG2133"><text id="SvgjsText2134" font-family="&quot;Microsoft YaHei&quot;, 微软雅黑, Arial" text-anchor="middle" font-size="13px" width="111px" fill="#9458cc" font-weight="400" align="middle" lineHeight="125%" anchor="middle" family="&quot;Microsoft YaHei&quot;, 微软雅黑, Arial" size="13px" weight="400" font-style="" opacity="1" y="4.289999999999999" transform="rotate(0)"><tspan id="SvgjsTspan2135" dy="16.25" x="65.5"><tspan id="SvgjsTspan2136" style="">处理任务队列</tspan></tspan></text></g></g><g id="SvgjsG2137" transform="translate(632.1320754716979,178.8679245283019)"><path id="SvgjsPath2138" d="M 0 4Q 0 0 4 0L 161.925 0Q 165.925 0 165.925 4L 165.925 35.811Q 165.925 39.811 161.925 39.811L 4 39.811Q 0 39.811 0 35.811Z" stroke="rgba(192,149,136,1)" stroke-width="1.5" fill-opacity="1" fill="#f4cecb"></path><g id="SvgjsG2139"><text id="SvgjsText2140" font-family="&quot;Microsoft YaHei&quot;, 微软雅黑, Arial" text-anchor="middle" font-size="13px" width="146px" fill="#323232" font-weight="700" align="middle" lineHeight="125%" anchor="middle" family="&quot;Microsoft YaHei&quot;, 微软雅黑, Arial" size="13px" weight="700" font-style="" opacity="1" y="9.2805" transform="rotate(0)"><tspan id="SvgjsTspan2141" dy="16.25" x="83"><tspan id="SvgjsTspan2142" style="">selector</tspan></tspan></text></g></g><g id="SvgjsG2143" transform="translate(836.0943396226413,164.71698113207555)"><path id="SvgjsPath2144" d="M 0 4Q 0 0 4 0L 207.208 0Q 211.208 0 211.208 4L 211.208 332.792Q 211.208 336.792 207.208 336.792L 4 336.792Q 0 336.792 0 332.792Z" stroke="rgba(216,199,140,1)" stroke-width="1.5" fill-opacity="1" fill="#f7e4c3"></path><g id="SvgjsG2145"><text id="SvgjsText2146" font-family="&quot;Microsoft YaHei&quot;, 微软雅黑, Arial" text-anchor="middle" font-size="13px" width="192px" fill="#323232" font-weight="700" align="bottom" lineHeight="125%" anchor="middle" family="&quot;Microsoft YaHei&quot;, 微软雅黑, Arial" size="13px" weight="700" font-style="" opacity="1" y="318.167" transform="rotate(0)"><tspan id="SvgjsTspan2147" dy="16.25" x="106"><tspan id="SvgjsTspan2148" style="">NioEventLoop</tspan></tspan></text></g></g><g id="SvgjsG2149" transform="translate(858.7358490566036,239.0377358490568)"><path id="SvgjsPath2150" d="M 0 4Q 0 0 4 0L 161.925 0Q 165.925 0 165.925 4L 165.925 229.226Q 165.925 233.226 161.925 233.226L 4 233.226Q 0 233.226 0 229.226Z" stroke="rgba(192,149,136,1)" stroke-width="1.5" fill-opacity="1" fill="#f4cecb"></path><g id="SvgjsG2151"><text id="SvgjsText2152" font-family="&quot;Microsoft YaHei&quot;, 微软雅黑, Arial" text-anchor="middle" font-size="13px" width="146px" fill="#323232" font-weight="700" align="bottom" lineHeight="125%" anchor="middle" family="&quot;Microsoft YaHei&quot;, 微软雅黑, Arial" size="13px" weight="700" font-style="" opacity="1" y="214.601" transform="rotate(0)"><tspan id="SvgjsTspan2153" dy="16.25" x="83"><tspan id="SvgjsTspan2154" style="">Thread</tspan></tspan></text></g></g><g id="SvgjsG2155" transform="translate(876.6603773584903,281.1132075471699)"><path id="SvgjsPath2156" d="M 0 4Q 0 0 4 0L 126.075 0Q 130.075 0 130.075 4L 130.075 25.83Q 130.075 29.83 126.075 29.83L 4 29.83Q 0 29.83 0 25.83Z" stroke="rgba(193,166,180,1)" stroke-width="1.5" fill-opacity="1" fill="#e3d4ea"></path><g id="SvgjsG2157"><text id="SvgjsText2158" font-family="&quot;Microsoft YaHei&quot;, 微软雅黑, Arial" text-anchor="middle" font-size="13px" width="111px" fill="#9458cc" font-weight="400" align="middle" lineHeight="125%" anchor="middle" family="&quot;Microsoft YaHei&quot;, 微软雅黑, Arial" size="13px" weight="400" font-style="" opacity="1" y="4.289999999999999" transform="rotate(0)"><tspan id="SvgjsTspan2159" dy="16.25" x="65.5"><tspan id="SvgjsTspan2160" style="">轮询监听的IO事件</tspan></tspan></text></g></g><g id="SvgjsG2161" transform="translate(876.6603773584903,340.73584905660385)"><path id="SvgjsPath2162" d="M 0 4Q 0 0 4 0L 126.075 0Q 130.075 0 130.075 4L 130.075 25.83Q 130.075 29.83 126.075 29.83L 4 29.83Q 0 29.83 0 25.83Z" stroke="rgba(193,166,180,1)" stroke-width="1.5" fill-opacity="1" fill="#e3d4ea"></path><g id="SvgjsG2163"><text id="SvgjsText2164" font-family="&quot;Microsoft YaHei&quot;, 微软雅黑, Arial" text-anchor="middle" font-size="13px" width="111px" fill="#9458cc" font-weight="400" align="middle" lineHeight="125%" anchor="middle" family="&quot;Microsoft YaHei&quot;, 微软雅黑, Arial" size="13px" weight="400" font-style="" opacity="1" y="4.289999999999999" transform="rotate(0)"><tspan id="SvgjsTspan2165" dy="16.25" x="65.5"><tspan id="SvgjsTspan2166" style="">处理IO事件</tspan></tspan></text></g></g><g id="SvgjsG2167" transform="translate(876.6603773584903,400.3584905660377)"><path id="SvgjsPath2168" d="M 0 4Q 0 0 4 0L 126.075 0Q 130.075 0 130.075 4L 130.075 25.83Q 130.075 29.83 126.075 29.83L 4 29.83Q 0 29.83 0 25.83Z" stroke="rgba(193,166,180,1)" stroke-width="1.5" fill-opacity="1" fill="#e3d4ea"></path><g id="SvgjsG2169"><text id="SvgjsText2170" font-family="&quot;Microsoft YaHei&quot;, 微软雅黑, Arial" text-anchor="middle" font-size="13px" width="111px" fill="#9458cc" font-weight="400" align="middle" lineHeight="125%" anchor="middle" family="&quot;Microsoft YaHei&quot;, 微软雅黑, Arial" size="13px" weight="400" font-style="" opacity="1" y="4.289999999999999" transform="rotate(0)"><tspan id="SvgjsTspan2171" dy="16.25" x="65.5"><tspan id="SvgjsTspan2172" style="">处理任务队列</tspan></tspan></text></g></g><g id="SvgjsG2173" transform="translate(858.7358490566036,178.86792452830196)"><path id="SvgjsPath2174" d="M 0 4Q 0 0 4 0L 161.925 0Q 165.925 0 165.925 4L 165.925 35.811Q 165.925 39.811 161.925 39.811L 4 39.811Q 0 39.811 0 35.811Z" stroke="rgba(192,149,136,1)" stroke-width="1.5" fill-opacity="1" fill="#f4cecb"></path><g id="SvgjsG2175"><text id="SvgjsText2176" font-family="&quot;Microsoft YaHei&quot;, 微软雅黑, Arial" text-anchor="middle" font-size="13px" width="146px" fill="#323232" font-weight="700" align="middle" lineHeight="125%" anchor="middle" family="&quot;Microsoft YaHei&quot;, 微软雅黑, Arial" size="13px" weight="700" font-style="" opacity="1" y="9.2805" transform="rotate(0)"><tspan id="SvgjsTspan2177" dy="16.25" x="83"><tspan id="SvgjsTspan2178" style="">selector</tspan></tspan></text></g></g><g id="SvgjsG2179" transform="translate(662.4056603773582,25)"><path id="SvgjsPath2180" d="M 0 35C 0 -11.667 105.377 -11.667 105.377 35C 105.377 81.667 0 81.667 0 35Z" stroke="rgba(185,201,180,1)" stroke-width="1.5" fill-opacity="1" fill="#d6e7d2"></path><g id="SvgjsG2181"><text id="SvgjsText2182" font-family="&quot;Microsoft YaHei&quot;, 微软雅黑, Arial" text-anchor="middle" font-size="13px" width="86px" fill="#84aa5b" font-weight="400" align="middle" lineHeight="125%" anchor="middle" family="&quot;Microsoft YaHei&quot;, 微软雅黑, Arial" size="13px" weight="400" font-style="" opacity="1" y="15.875" transform="rotate(0)"><tspan id="SvgjsTspan2183" dy="16.25" x="53"><tspan id="SvgjsTspan2184" style="">ServerSocket</tspan></tspan><tspan id="SvgjsTspan2185" dy="16.25" x="53"><tspan id="SvgjsTspan2186" style="">Channel</tspan></tspan></text></g></g><g id="SvgjsG2187" transform="translate(889.0094339622641,25)"><path id="SvgjsPath2188" d="M 0 35C 0 -11.667 105.377 -11.667 105.377 35C 105.377 81.667 0 81.667 0 35Z" stroke="rgba(185,201,180,1)" stroke-width="1.5" fill-opacity="1" fill="#d6e7d2"></path><g id="SvgjsG2189"><text id="SvgjsText2190" font-family="&quot;Microsoft YaHei&quot;, 微软雅黑, Arial" text-anchor="middle" font-size="13px" width="86px" fill="#84aa5b" font-weight="400" align="middle" lineHeight="125%" anchor="middle" family="&quot;Microsoft YaHei&quot;, 微软雅黑, Arial" size="13px" weight="400" font-style="" opacity="1" y="15.875" transform="rotate(0)"><tspan id="SvgjsTspan2191" dy="16.25" x="53"><tspan id="SvgjsTspan2192" style="">ServerSocket</tspan></tspan><tspan id="SvgjsTspan2193" dy="16.25" x="53"><tspan id="SvgjsTspan2194" style="">Channel</tspan></tspan></text></g></g><g id="SvgjsG2195"><path id="SvgjsPath2196" d="M715.0946603773583 95.75000000000001L715.0946603773583 129.85849056603774L715.0946603773583 129.85849056603774L715.0946603773583 162.0169811320755" stroke-dasharray="1.5,2.25" stroke="#813bc7" stroke-width="1.5" fill="none" marker-end="url(#SvgjsMarker2197)"></path><rect id="SvgjsRect2199" width="26" height="18" x="702.0946603773583" y="117.14852043812397" fill="#ffffff"></rect><text id="SvgjsText2200" font-family="&quot;Microsoft YaHei&quot;, 微软雅黑, Arial" text-anchor="middle" font-size="13px" width="26px" fill="#813bc7" font-weight="400" align="top" lineHeight="16px" anchor="middle" family="&quot;Microsoft YaHei&quot;, 微软雅黑, Arial" size="13px" weight="400" font-style="" opacity="1" y="114.52352043812397" transform="rotate(0)"><tspan id="SvgjsTspan2201" dy="16.25" x="715.0946603773583"><tspan id="SvgjsTspan2202" style="">注册</tspan></tspan></text></g><g id="SvgjsG2203"><path id="SvgjsPath2204" d="M941.6984339622642 95.75000000000001L941.6984339622642 129.85849056603774L941.6984339622642 129.85849056603774L941.6984339622642 162.01698113207556" stroke-dasharray="1.5,2.25" stroke="#813bc7" stroke-width="1.5" fill="none" marker-end="url(#SvgjsMarker2205)"></path><rect id="SvgjsRect2207" width="26" height="18" x="928.6984339622641" y="116.25180892077516" fill="#ffffff"></rect><text id="SvgjsText2208" font-family="&quot;Microsoft YaHei&quot;, 微软雅黑, Arial" text-anchor="middle" font-size="13px" width="26px" fill="#813bc7" font-weight="400" align="top" lineHeight="16px" anchor="middle" family="&quot;Microsoft YaHei&quot;, 微软雅黑, Arial" size="13px" weight="400" font-style="" opacity="1" y="113.62680892077516" transform="rotate(0)"><tspan id="SvgjsTspan2209" dy="16.25" x="941.6984339622641"><tspan id="SvgjsTspan2210" style="">注册</tspan></tspan></text></g><g id="SvgjsG2211"><path id="SvgjsPath2212" d="M715.0946037735847 311.6932075471697L715.0946037735847 325.8395283018867L715.0946037735847 325.8395283018867L715.0946037735847 338.03584905660364" stroke="#813bc7" stroke-width="1.5" fill="none" marker-end="url(#SvgjsMarker2213)"></path></g><g id="SvgjsG2215"><path id="SvgjsPath2216" d="M715.0946037735847 371.31584905660367L715.0946037735847 385.46216981132056L715.0946037735847 385.46216981132056L715.0946037735847 397.6584905660375" stroke="#813bc7" stroke-width="1.5" fill="none" marker-end="url(#SvgjsMarker2217)"></path></g><g id="SvgjsG2219"><path id="SvgjsPath2220" d="M715.0946037735847 430.9384905660375L715.0946037735847 454.52811320754694L790.320754716981 454.52811320754694L790.320754716981 254.8867924528301L715.0946037735847 254.8867924528301L715.0946037735847 278.4132075471697" stroke="#813bc7" stroke-width="1.5" fill="none" marker-end="url(#SvgjsMarker2221)"></path></g><g id="SvgjsG2223"><path id="SvgjsPath2224" d="M941.6983773584906 311.69320754716995L941.6983773584906 325.8395283018869L941.6983773584906 325.8395283018869L941.6983773584906 338.03584905660387" stroke="#813bc7" stroke-width="1.5" fill="none" marker-end="url(#SvgjsMarker2225)"></path></g><g id="SvgjsG2227"><path id="SvgjsPath2228" d="M941.6983773584906 371.3158490566039L941.6983773584906 382.7357547169812L941.6983773584906 382.7357547169812L941.6983773584906 394.9056603773585" stroke="#813bc7" stroke-width="1.5" fill="none" marker-end="url(#SvgjsMarker2229)"></path></g><g id="SvgjsG2231"><path id="SvgjsPath2232" d="M941.6983773584906 430.93849056603773L941.6983773584906 454.52811320754716L1018.8113207547185 454.52811320754716L1018.8113207547185 254.88679245283032L941.6983773584906 254.88679245283032L941.6983773584906 278.4132075471699" stroke="#813bc7" stroke-width="1.5" fill="none" marker-end="url(#SvgjsMarker2233)"></path></g><g id="SvgjsG2235"><path id="SvgjsPath2236" d="M941.3016382230654 219.3157266760581L903.8791891894173 279.4622292492098" stroke-dasharray="1.5,2.25" stroke="#813bc7" stroke-width="1.5" fill="none" marker-end="url(#SvgjsMarker2237)"></path></g><g id="SvgjsG2239"><path id="SvgjsPath2240" d="M714.6992406627235 219.31658076297862L677.4591411613646 279.4591545362959" stroke-dasharray="1.5,2.25" stroke="#813bc7" stroke-width="1.5" fill="none" marker-end="url(#SvgjsMarker2241)"></path></g><g id="SvgjsG2243" transform="translate(499.0943396226414,330.94339622641485)"><path id="SvgjsPath2244" d="M 0 13.075L 70.189 13.075L 70.189 0L 90 19.811L 70.189 39.623L 70.189 26.547L 0 26.547L 0 13.075Z" stroke="rgba(169,153,188,1)" stroke-width="1.5" fill-opacity="1" fill="#e0d4f2"></path><g id="SvgjsG2245"><text id="SvgjsText2246" font-family="&quot;Microsoft YaHei&quot;, 微软雅黑, Arial" text-anchor="middle" font-size="13px" width="90px" fill="#323232" font-weight="400" align="middle" lineHeight="125%" anchor="middle" family="&quot;Microsoft YaHei&quot;, 微软雅黑, Arial" size="13px" weight="400" font-style="" opacity="1" y="9.186" transform="rotate(0)"></text></g></g><g id="SvgjsG2247"></g></svg>