<svg id="SvgjsSvg1850" width="741.5283018867924" height="206.13207547169839" xmlns="http://www.w3.org/2000/svg" version="1.1" xmlns:xlink="http://www.w3.org/1999/xlink" xmlns:svgjs="http://svgjs.com/svgjs"><defs id="SvgjsDefs1851"><pattern patternUnits="userSpaceOnUse" id="pattern_mark_0" width="300" height="300"><text x="150" y="100" fill="rgba(229,229,229,0.8)" font-size="18" transform="rotate(-45, 150, 150)" style="dominant-baseline: middle; text-anchor: middle;"></text></pattern><pattern patternUnits="userSpaceOnUse" id="pattern_mark_1" width="300" height="300"><text x="150" y="200" fill="rgba(229,229,229,0.8)" font-size="18" transform="rotate(-45, 150, 150)" style="dominant-baseline: middle; text-anchor: middle;"></text></pattern><marker id="SvgjsMarker1923" markerWidth="12" markerHeight="8" refX="9" refY="4" viewBox="0 0 12 8" orient="auto" markerUnits="userSpaceOnUse" stroke-dasharray="0,0"><path id="SvgjsPath1924" d="M0,0 L12,4 L0,8 L0,0" fill="#4f81bd" stroke="#4f81bd" stroke-width="1"></path></marker><marker id="SvgjsMarker1927" markerWidth="12" markerHeight="8" refX="9" refY="4" viewBox="0 0 12 8" orient="auto" markerUnits="userSpaceOnUse" stroke-dasharray="0,0"><path id="SvgjsPath1928" d="M0,0 L12,4 L0,8 L0,0" fill="#4f81bd" stroke="#4f81bd" stroke-width="1"></path></marker><marker id="SvgjsMarker1931" markerWidth="12" markerHeight="8" refX="9" refY="4" viewBox="0 0 12 8" orient="auto" markerUnits="userSpaceOnUse" stroke-dasharray="0,0"><path id="SvgjsPath1932" d="M0,0 L12,4 L0,8 L0,0" fill="#4f81bd" stroke="#4f81bd" stroke-width="1"></path></marker><marker id="SvgjsMarker1935" markerWidth="12" markerHeight="8" refX="9" refY="4" viewBox="0 0 12 8" orient="auto" markerUnits="userSpaceOnUse" stroke-dasharray="0,0"><path id="SvgjsPath1936" d="M0,0 L12,4 L0,8 L0,0" fill="#4f81bd" stroke="#4f81bd" stroke-width="1"></path></marker><marker id="SvgjsMarker1939" markerWidth="12" markerHeight="8" refX="9" refY="4" viewBox="0 0 12 8" orient="auto" markerUnits="userSpaceOnUse" stroke-dasharray="0,0"><path id="SvgjsPath1940" d="M0,0 L12,4 L0,8 L0,0" fill="#4f81bd" stroke="#4f81bd" stroke-width="1"></path></marker><marker id="SvgjsMarker1947" markerWidth="14" markerHeight="10" refX="10" refY="5" viewBox="0 0 14 10" orient="auto" markerUnits="userSpaceOnUse" stroke-dasharray="0,0"><path id="SvgjsPath1948" d="M0,0 L14,5 L0,10 L0,0" fill="#9abb59" stroke="#9abb59" stroke-width="1"></path></marker><marker id="SvgjsMarker1951" markerWidth="14" markerHeight="10" refX="10" refY="5" viewBox="0 0 14 10" orient="auto" markerUnits="userSpaceOnUse" stroke-dasharray="0,0"><path id="SvgjsPath1952" d="M0,0 L14,5 L0,10 L0,0" fill="#9abb59" stroke="#9abb59" stroke-width="1"></path></marker></defs><rect id="svgbackgroundid" width="741.5283018867924" height="206.13207547169839" fill="transparent"></rect><rect id="SvgjsRect1853" width="741.5283018867924" height="206.13207547169839" fill="url(#pattern_mark_0)"></rect><rect id="SvgjsRect1854" width="741.5283018867924" height="206.13207547169839" fill="url(#pattern_mark_1)"></rect><g id="SvgjsG1855" transform="translate(222.52830188679246,25)"><path id="SvgjsPath1856" d="M 0 0L 182 0L 182 72L 0 72Z" stroke="rgba(33,41,48,1)" stroke-width="1.5" fill-opacity="1" fill="#4f81bd"></path><g id="SvgjsG1857"><text id="SvgjsText1858" font-family="&quot;Microsoft YaHei&quot;, 微软雅黑, Arial" text-anchor="start" font-size="13px" width="162px" fill="#ffffff" font-weight="400" align="top" lineHeight="125%" anchor="start" family="&quot;Microsoft YaHei&quot;, 微软雅黑, Arial" size="13px" weight="400" font-style="" opacity="1" y="-2.625" transform="rotate(0)"><tspan id="SvgjsTspan1859" dy="16.25" x="10"><tspan id="SvgjsTspan1860" style="">BossGroup</tspan></tspan></text></g></g><g id="SvgjsG1861" transform="translate(229.52830188679246,50)"><path id="SvgjsPath1862" d="M 0 4Q 0 0 4 0L 76 0Q 80 0 80 4L 80 26Q 80 30 76 30L 4 30Q 0 30 0 26Z" stroke="rgba(255,255,255,1)" stroke-width="1.5" fill-opacity="1" fill="#c0504c"></path><g id="SvgjsG1863"><text id="SvgjsText1864" font-family="&quot;Microsoft YaHei&quot;, 微软雅黑, Arial" text-anchor="middle" font-size="13px" width="60px" fill="#ffffff" font-weight="400" align="middle" lineHeight="125%" anchor="middle" family="&quot;Microsoft YaHei&quot;, 微软雅黑, Arial" size="13px" weight="400" font-style="" opacity="1" y="4.375" transform="rotate(0)"><tspan id="SvgjsTspan1865" dy="16.25" x="40"><tspan id="SvgjsTspan1866" style="">selector</tspan></tspan></text></g></g><g id="SvgjsG1867" transform="translate(319.52830188679246,50)"><path id="SvgjsPath1868" d="M 0 4Q 0 0 4 0L 76 0Q 80 0 80 4L 80 26Q 80 30 76 30L 4 30Q 0 30 0 26Z" stroke="rgba(255,255,255,1)" stroke-width="1.5" fill-opacity="1" fill="#c0504c"></path><g id="SvgjsG1869"><text id="SvgjsText1870" font-family="&quot;Microsoft YaHei&quot;, 微软雅黑, Arial" text-anchor="middle" font-size="13px" width="60px" fill="#ffffff" font-weight="400" align="middle" lineHeight="125%" anchor="middle" family="&quot;Microsoft YaHei&quot;, 微软雅黑, Arial" size="13px" weight="400" font-style="" opacity="1" y="4.375" transform="rotate(0)"><tspan id="SvgjsTspan1871" dy="16.25" x="40"><tspan id="SvgjsTspan1872" style="">accept</tspan></tspan></text></g></g><g id="SvgjsG1873" transform="translate(454.52830188679246,25)"><path id="SvgjsPath1874" d="M 0 0L 182 0L 182 72L 0 72Z" stroke="rgba(33,41,48,1)" stroke-width="1.5" fill-opacity="1" fill="#4f81bd"></path><g id="SvgjsG1875"><text id="SvgjsText1876" font-family="&quot;Microsoft YaHei&quot;, 微软雅黑, Arial" text-anchor="start" font-size="13px" width="162px" fill="#ffffff" font-weight="400" align="top" lineHeight="125%" anchor="start" family="&quot;Microsoft YaHei&quot;, 微软雅黑, Arial" size="13px" weight="400" font-style="" opacity="1" y="-2.625" transform="rotate(0)"><tspan id="SvgjsTspan1877" dy="16.25" x="10"><tspan id="SvgjsTspan1878" style="">WorkerGroup</tspan></tspan></text></g></g><g id="SvgjsG1879" transform="translate(461.52830188679246,50)"><path id="SvgjsPath1880" d="M 0 4Q 0 0 4 0L 76 0Q 80 0 80 4L 80 26Q 80 30 76 30L 4 30Q 0 30 0 26Z" stroke="rgba(255,255,255,1)" stroke-width="1.5" fill-opacity="1" fill="#c0504c"></path><g id="SvgjsG1881"><text id="SvgjsText1882" font-family="&quot;Microsoft YaHei&quot;, 微软雅黑, Arial" text-anchor="middle" font-size="13px" width="60px" fill="#ffffff" font-weight="400" align="middle" lineHeight="125%" anchor="middle" family="&quot;Microsoft YaHei&quot;, 微软雅黑, Arial" size="13px" weight="400" font-style="" opacity="1" y="4.375" transform="rotate(0)"><tspan id="SvgjsTspan1883" dy="16.25" x="40"><tspan id="SvgjsTspan1884" style="">selector</tspan></tspan></text></g></g><g id="SvgjsG1885" transform="translate(256.02830188679246,143)"><path id="SvgjsPath1886" d="M 0 4Q 0 0 4 0L 111 0Q 115 0 115 4L 115 31Q 115 35 111 35L 4 35Q 0 35 0 31Z" stroke="rgba(33,41,48,1)" stroke-width="1.5" fill-opacity="1" fill="#4f81bd"></path><g id="SvgjsG1887"><text id="SvgjsText1888" font-family="&quot;Microsoft YaHei&quot;, 微软雅黑, Arial" text-anchor="middle" font-size="13px" width="95px" fill="#ffffff" font-weight="400" align="middle" lineHeight="125%" anchor="middle" family="&quot;Microsoft YaHei&quot;, 微软雅黑, Arial" size="13px" weight="400" font-style="" opacity="1" y="6.875" transform="rotate(0)"><tspan id="SvgjsTspan1889" dy="16.25" x="57.5"><tspan id="SvgjsTspan1890" style="">SocketChannel</tspan></tspan></text></g></g><g id="SvgjsG1891" transform="translate(461.52830188679246,143)"><path id="SvgjsPath1892" d="M 0 4Q 0 0 4 0L 141 0Q 145 0 145 4L 145 31Q 145 35 141 35L 4 35Q 0 35 0 31Z" stroke="rgba(33,41,48,1)" stroke-width="1.5" fill-opacity="1" fill="#4f81bd"></path><g id="SvgjsG1893"><text id="SvgjsText1894" font-family="&quot;Microsoft YaHei&quot;, 微软雅黑, Arial" text-anchor="middle" font-size="13px" width="125px" fill="#ffffff" font-weight="400" align="middle" lineHeight="125%" anchor="middle" family="&quot;Microsoft YaHei&quot;, 微软雅黑, Arial" size="13px" weight="400" font-style="" opacity="1" y="6.875" transform="rotate(0)"><tspan id="SvgjsTspan1895" dy="16.25" x="72.5"><tspan id="SvgjsTspan1896" style="">NIOSocketChannel</tspan></tspan></text></g></g><g id="SvgjsG1897" transform="translate(636.5283018867924,113)"><path id="SvgjsPath1898" d="M 0 4Q 0 0 4 0L 76 0Q 80 0 80 4L 80 26Q 80 30 76 30L 4 30Q 0 30 0 26Z" stroke="rgba(255,255,255,1)" stroke-width="1.5" fill-opacity="1" fill="#c0504c"></path><g id="SvgjsG1899"><text id="SvgjsText1900" font-family="&quot;Microsoft YaHei&quot;, 微软雅黑, Arial" text-anchor="middle" font-size="13px" width="60px" fill="#ffffff" font-weight="400" align="middle" lineHeight="125%" anchor="middle" family="&quot;Microsoft YaHei&quot;, 微软雅黑, Arial" size="13px" weight="400" font-style="" opacity="1" y="4.375" transform="rotate(0)"><tspan id="SvgjsTspan1901" dy="16.25" x="40"><tspan id="SvgjsTspan1902" style="">handler</tspan></tspan></text></g></g><g id="SvgjsG1903" transform="translate(25,25)"><path id="SvgjsPath1904" d="M 0 17.972C 0 -5.991 59.528 -5.991 59.528 17.972C 59.528 41.934 0 41.934 0 17.972Z" stroke="rgba(33,41,48,1)" stroke-width="1.5" fill-opacity="1" fill="#4f81bd"></path><g id="SvgjsG1905"><text id="SvgjsText1906" font-family="&quot;Microsoft YaHei&quot;, 微软雅黑, Arial" text-anchor="middle" font-size="13px" width="40px" fill="#ffffff" font-weight="400" align="middle" lineHeight="125%" anchor="middle" family="&quot;Microsoft YaHei&quot;, 微软雅黑, Arial" size="13px" weight="400" font-style="" opacity="1" y="7.346499999999999" transform="rotate(0)"><tspan id="SvgjsTspan1907" dy="16.25" x="30"><tspan id="SvgjsTspan1908" style="">c1</tspan></tspan></text></g></g><g id="SvgjsG1909" transform="translate(25,85.09433962264143)"><path id="SvgjsPath1910" d="M 0 17.972C 0 -5.991 59.528 -5.991 59.528 17.972C 59.528 41.934 0 41.934 0 17.972Z" stroke="rgba(33,41,48,1)" stroke-width="1.5" fill-opacity="1" fill="#4f81bd"></path><g id="SvgjsG1911"><text id="SvgjsText1912" font-family="&quot;Microsoft YaHei&quot;, 微软雅黑, Arial" text-anchor="middle" font-size="13px" width="40px" fill="#ffffff" font-weight="400" align="middle" lineHeight="125%" anchor="middle" family="&quot;Microsoft YaHei&quot;, 微软雅黑, Arial" size="13px" weight="400" font-style="" opacity="1" y="7.346499999999999" transform="rotate(0)"><tspan id="SvgjsTspan1913" dy="16.25" x="30"><tspan id="SvgjsTspan1914" style="">c1</tspan></tspan></text></g></g><g id="SvgjsG1915" transform="translate(25,145.1886792452833)"><path id="SvgjsPath1916" d="M 0 17.972C 0 -5.991 59.528 -5.991 59.528 17.972C 59.528 41.934 0 41.934 0 17.972Z" stroke="rgba(33,41,48,1)" stroke-width="1.5" fill-opacity="1" fill="#4f81bd"></path><g id="SvgjsG1917"><text id="SvgjsText1918" font-family="&quot;Microsoft YaHei&quot;, 微软雅黑, Arial" text-anchor="middle" font-size="13px" width="40px" fill="#ffffff" font-weight="400" align="middle" lineHeight="125%" anchor="middle" family="&quot;Microsoft YaHei&quot;, 微软雅黑, Arial" size="13px" weight="400" font-style="" opacity="1" y="7.346499999999999" transform="rotate(0)"><tspan id="SvgjsTspan1919" dy="16.25" x="30"><tspan id="SvgjsTspan1920" style="">c1</tspan></tspan></text></g></g><g id="SvgjsG1921"><path id="SvgjsPath1922" d="M85.2777169484371 42.99260333046308C 140.19715426675117 42.97200000000001 166.8591476200413 61 220.4790755610644 60.94368423006756" stroke="#4f81bd" stroke-width="1" fill="none" marker-end="url(#SvgjsMarker1923)"></path></g><g id="SvgjsG1925"><path id="SvgjsPath1926" d="M85.2766470619714 103.02131100283606C 142.23576065673427 103.06633962264144 164.82054123005827 61 220.48199991740393 61.123078227468056" stroke="#4f81bd" stroke-width="1" fill="none" marker-end="url(#SvgjsMarker1927)"></path></g><g id="SvgjsG1929"><path id="SvgjsPath1930" d="M85.27381221082965 163.08153288606536C 153.20799732638727 163.1606792452833 153.8483045604052 61 220.48974851052486 61.2163333818624" stroke="#4f81bd" stroke-width="1" fill="none" marker-end="url(#SvgjsMarker1931)"></path></g><g id="SvgjsG1933"><path id="SvgjsPath1934" d="M371.77830188679246 160.5C 407.2283018867925 160.5 425.3283018867924 160.5 459.4783018867925 160.5" stroke="#4f81bd" stroke-width="1" fill="none" marker-end="url(#SvgjsMarker1935)"></path></g><g id="SvgjsG1937"><path id="SvgjsPath1938" d="M545.2910704966034 97.71149228211488C 545.5283018867924 121.01931108693128 507.75471698113205 119.65993419608759 508.40314944764856 141.7344997119049" stroke="#4f81bd" stroke-width="1" fill="none" marker-end="url(#SvgjsMarker1939)"></path><rect id="SvgjsRect1941" width="26" height="18" x="517.0383883302006" y="109.24855319254125" fill="#ffffff"></rect><text id="SvgjsText1942" font-family="&quot;Microsoft YaHei&quot;, 微软雅黑, Arial" text-anchor="middle" font-size="13px" width="26px" fill="#323232" font-weight="400" align="top" lineHeight="16px" anchor="middle" family="&quot;Microsoft YaHei&quot;, 微软雅黑, Arial" size="13px" weight="400" font-style="" opacity="1" y="106.62355319254125" transform="rotate(0)"><tspan id="SvgjsTspan1943" dy="16.25" x="530.0383883302006"><tspan id="SvgjsTspan1944" style="">注册</tspan></tspan></text></g><g id="SvgjsG1945"><path id="SvgjsPath1946" d="M345.3486178653167 80.73644464581318C 345.49056603773585 108.25763282273923 313.52830188679246 114.7423671772608 314.1623370569309 139.71054724870118" stroke="#9abb59" stroke-width="2" fill="none" marker-end="url(#SvgjsMarker1947)"></path></g><g id="SvgjsG1949"><path id="SvgjsPath1950" d="M542.2782625244743 64.9923161254699C 598.8400807808382 65.00000000000003 676.5283018867924 55.68822110595414 676.126124284204 109.67422893512253" stroke="#9abb59" stroke-width="2" fill="none" marker-end="url(#SvgjsMarker1951)"></path></g><g id="SvgjsG1953"></g></svg>