<svg id="SvgjsSvg1800" width="458.72727272727275" height="519.7272727272727" xmlns="http://www.w3.org/2000/svg" version="1.1" xmlns:xlink="http://www.w3.org/1999/xlink" xmlns:svgjs="http://svgjs.com/svgjs"><defs id="SvgjsDefs1801"><pattern patternUnits="userSpaceOnUse" id="pattern_mark_0" width="300" height="300"><text x="150" y="100" fill="rgba(72,75,88,0.8)" font-size="18" transform="rotate(-45, 150, 150)" style="dominant-baseline: middle; text-anchor: middle;"></text></pattern><pattern patternUnits="userSpaceOnUse" id="pattern_mark_1" width="300" height="300"><text x="150" y="200" fill="rgba(72,75,88,0.8)" font-size="18" transform="rotate(-45, 150, 150)" style="dominant-baseline: middle; text-anchor: middle;"></text></pattern></defs><rect id="svgbackgroundid" width="458.72727272727275" height="519.7272727272727" fill="#505362"></rect><rect id="SvgjsRect1803" width="458.72727272727275" height="519.7272727272727" fill="url(#pattern_mark_0)"></rect><rect id="SvgjsRect1804" width="458.72727272727275" height="519.7272727272727" fill="url(#pattern_mark_1)"></rect><g id="SvgjsG1805" transform="translate(25,145)"><path id="SvgjsPath1806" d="M 0 4Q 0 0 4 0L 92 0Q 96 0 96 4L 96 25.727Q 96 29.727 92 29.727L 4 29.727Q 0 29.727 0 25.727Z" stroke="rgba(255,255,255,1)" stroke-width="1.5" fill-opacity="1" fill="#505362"></path><g id="SvgjsG1807"><text id="SvgjsText1808" font-family="&quot;Microsoft YaHei&quot;, 微软雅黑, Arial" text-anchor="middle" font-size="13px" width="76px" fill="#ffffff" font-weight="400" align="middle" lineHeight="125%" anchor="middle" family="&quot;Microsoft YaHei&quot;, 微软雅黑, Arial" size="13px" weight="400" font-style="" opacity="1" y="4.2385" transform="rotate(0)"><tspan id="SvgjsTspan1809" dy="16.25" x="48"><tspan id="SvgjsTspan1810" style="">read/write</tspan></tspan></text></g></g><g id="SvgjsG1811" transform="translate(181.36363636363637,145)"><path id="SvgjsPath1812" d="M 0 4Q 0 0 4 0L 92 0Q 96 0 96 4L 96 25.727Q 96 29.727 92 29.727L 4 29.727Q 0 29.727 0 25.727Z" stroke="rgba(255,255,255,1)" stroke-width="1.5" fill-opacity="1" fill="#505362"></path><g id="SvgjsG1813"><text id="SvgjsText1814" font-family="&quot;Microsoft YaHei&quot;, 微软雅黑, Arial" text-anchor="middle" font-size="13px" width="76px" fill="#ffffff" font-weight="400" align="middle" lineHeight="125%" anchor="middle" family="&quot;Microsoft YaHei&quot;, 微软雅黑, Arial" size="13px" weight="400" font-style="" opacity="1" y="4.2385" transform="rotate(0)"><tspan id="SvgjsTspan1815" dy="16.25" x="48"><tspan id="SvgjsTspan1816" style="">read/write</tspan></tspan></text></g></g><g id="SvgjsG1817" transform="translate(337.72727272727275,145)"><path id="SvgjsPath1818" d="M 0 4Q 0 0 4 0L 92 0Q 96 0 96 4L 96 25.727Q 96 29.727 92 29.727L 4 29.727Q 0 29.727 0 25.727Z" stroke="rgba(255,255,255,1)" stroke-width="1.5" fill-opacity="1" fill="#505362"></path><g id="SvgjsG1819"><text id="SvgjsText1820" font-family="&quot;Microsoft YaHei&quot;, 微软雅黑, Arial" text-anchor="middle" font-size="13px" width="76px" fill="#ffffff" font-weight="400" align="middle" lineHeight="125%" anchor="middle" family="&quot;Microsoft YaHei&quot;, 微软雅黑, Arial" size="13px" weight="400" font-style="" opacity="1" y="4.2385" transform="rotate(0)"><tspan id="SvgjsTspan1821" dy="16.25" x="48"><tspan id="SvgjsTspan1822" style="">read/write</tspan></tspan></text></g></g><g id="SvgjsG1823" transform="translate(181.36363636363637,265)"><path id="SvgjsPath1824" d="M 0 4Q 0 0 4 0L 92 0Q 96 0 96 4L 96 25.727Q 96 29.727 92 29.727L 4 29.727Q 0 29.727 0 25.727Z" stroke="rgba(255,255,255,1)" stroke-width="1.5" fill-opacity="1" fill="#505362"></path><g id="SvgjsG1825"><text id="SvgjsText1826" font-family="&quot;Microsoft YaHei&quot;, 微软雅黑, Arial" text-anchor="middle" font-size="13px" width="76px" fill="#ffffff" font-weight="400" align="middle" lineHeight="125%" anchor="middle" family="&quot;Microsoft YaHei&quot;, 微软雅黑, Arial" size="13px" weight="400" font-style="" opacity="1" y="4.2385" transform="rotate(0)"><tspan id="SvgjsTspan1827" dy="16.25" x="48"><tspan id="SvgjsTspan1828" style="">Selector</tspan></tspan></text></g></g><g id="SvgjsG1829" transform="translate(25,25.000000000000014)"><path id="SvgjsPath1830" d="M 0 4Q 0 0 4 0L 92 0Q 96 0 96 4L 96 25.727Q 96 29.727 92 29.727L 4 29.727Q 0 29.727 0 25.727Z" stroke="rgba(255,255,255,1)" stroke-width="1.5" fill-opacity="1" fill="#505362"></path><g id="SvgjsG1831"><text id="SvgjsText1832" font-family="&quot;Microsoft YaHei&quot;, 微软雅黑, Arial" text-anchor="middle" font-size="13px" width="76px" fill="#ffffff" font-weight="400" align="middle" lineHeight="125%" anchor="middle" family="&quot;Microsoft YaHei&quot;, 微软雅黑, Arial" size="13px" weight="400" font-style="" opacity="1" y="4.2385" transform="rotate(0)"><tspan id="SvgjsTspan1833" dy="16.25" x="48"><tspan id="SvgjsTspan1834" style="">Socket</tspan></tspan></text></g></g><g id="SvgjsG1835" transform="translate(181.36363636363637,25)"><path id="SvgjsPath1836" d="M 0 4Q 0 0 4 0L 92 0Q 96 0 96 4L 96 25.727Q 96 29.727 92 29.727L 4 29.727Q 0 29.727 0 25.727Z" stroke="rgba(255,255,255,1)" stroke-width="1.5" fill-opacity="1" fill="#505362"></path><g id="SvgjsG1837"><text id="SvgjsText1838" font-family="&quot;Microsoft YaHei&quot;, 微软雅黑, Arial" text-anchor="middle" font-size="13px" width="76px" fill="#ffffff" font-weight="400" align="middle" lineHeight="125%" anchor="middle" family="&quot;Microsoft YaHei&quot;, 微软雅黑, Arial" size="13px" weight="400" font-style="" opacity="1" y="4.2385" transform="rotate(0)"><tspan id="SvgjsTspan1839" dy="16.25" x="48"><tspan id="SvgjsTspan1840" style="">Socket</tspan></tspan></text></g></g><g id="SvgjsG1841" transform="translate(337.72727272727275,25.000000000000014)"><path id="SvgjsPath1842" d="M 0 4Q 0 0 4 0L 92 0Q 96 0 96 4L 96 25.727Q 96 29.727 92 29.727L 4 29.727Q 0 29.727 0 25.727Z" stroke="rgba(255,255,255,1)" stroke-width="1.5" fill-opacity="1" fill="#505362"></path><g id="SvgjsG1843"><text id="SvgjsText1844" font-family="&quot;Microsoft YaHei&quot;, 微软雅黑, Arial" text-anchor="middle" font-size="13px" width="76px" fill="#ffffff" font-weight="400" align="middle" lineHeight="125%" anchor="middle" family="&quot;Microsoft YaHei&quot;, 微软雅黑, Arial" size="13px" weight="400" font-style="" opacity="1" y="4.2385" transform="rotate(0)"><tspan id="SvgjsTspan1845" dy="16.25" x="48"><tspan id="SvgjsTspan1846" style="">Socket</tspan></tspan></text></g></g><g id="SvgjsG1847" transform="translate(181.36363636363637,385)"><path id="SvgjsPath1848" d="M 0 4Q 0 0 4 0L 92 0Q 96 0 96 4L 96 25.727Q 96 29.727 92 29.727L 4 29.727Q 0 29.727 0 25.727Z" stroke="rgba(255,255,255,1)" stroke-width="1.5" fill-opacity="1" fill="#505362"></path><g id="SvgjsG1849"><text id="SvgjsText1850" font-family="&quot;Microsoft YaHei&quot;, 微软雅黑, Arial" text-anchor="middle" font-size="13px" width="76px" fill="#ffffff" font-weight="400" align="middle" lineHeight="125%" anchor="middle" family="&quot;Microsoft YaHei&quot;, 微软雅黑, Arial" size="13px" weight="400" font-style="" opacity="1" y="4.2385" transform="rotate(0)"><tspan id="SvgjsTspan1851" dy="16.25" x="48"><tspan id="SvgjsTspan1852" style="">Thread</tspan></tspan></text></g></g><g id="SvgjsG1853" transform="translate(173.4545454545455,454.7272727272727)"><path id="SvgjsPath1854" d="M 0 0L 111.818 0L 111.818 40L 0 40Z" stroke="none" fill="none"></path><g id="SvgjsG1855"><text id="SvgjsText1856" font-family="&quot;Microsoft YaHei&quot;, 微软雅黑, Arial" text-anchor="middle" font-size="13px" width="112px" fill="#ffffff" font-weight="400" align="middle" lineHeight="125%" anchor="middle" family="&quot;Microsoft YaHei&quot;, 微软雅黑, Arial" size="13px" weight="400" font-style="" opacity="1" y="9.375" transform="rotate(0)"><tspan id="SvgjsTspan1857" dy="16.25" x="56"><tspan id="SvgjsTspan1858" style="">Nonblocking I/O</tspan></tspan></text></g></g><g id="SvgjsG1859"><path id="SvgjsPath1860" d="M229.36363636363637 55.47699999999999C 229.36363636363637 90.8362 229.36363636363637 108.8908 229.36363636363637 144.25" stroke="#ffffff" stroke-width="1.5" fill="none"></path></g><g id="SvgjsG1861"><path id="SvgjsPath1862" d="M73 55.47700000000002L73 144.25" stroke="#ffffff" stroke-width="1.5" fill="none"></path></g><g id="SvgjsG1863"><path id="SvgjsPath1864" d="M385.72727272727275 55.47700000000002L385.72727272727275 144.25" stroke="#ffffff" stroke-width="1.5" fill="none"></path></g><g id="SvgjsG1865"><path id="SvgjsPath1866" d="M229.36363636363637 175.47699999999998L229.36363636363637 264.25" stroke="#ffffff" stroke-width="1.5" fill="none"></path></g><g id="SvgjsG1867"><path id="SvgjsPath1868" d="M229.36363636363637 295.477L229.36363636363637 384.25" stroke="#ffffff" stroke-width="1.5" fill="none"></path></g><g id="SvgjsG1869"><path id="SvgjsPath1870" d="M73.64952550569609 175.10198882310038L228.71411085794034 264.6250111768996" stroke="#ffffff" stroke-width="1.5" fill="none"></path></g><g id="SvgjsG1871"><path id="SvgjsPath1872" d="M385.0777472215767 175.10198882310038L230.0131618693324 264.6250111768996" stroke="#ffffff" stroke-width="1.5" fill="none"></path></g><g id="SvgjsG1873"></g></svg>