<svg id="SvgjsSvg1087" width="602" height="540" xmlns="http://www.w3.org/2000/svg" version="1.1" xmlns:xlink="http://www.w3.org/1999/xlink" xmlns:svgjs="http://svgjs.com/svgjs"><defs id="SvgjsDefs1088"><pattern patternUnits="userSpaceOnUse" id="pattern_mark_0" width="300" height="300"><text x="150" y="100" fill="rgba(229,229,229,0.8)" font-size="18" transform="rotate(-45, 150, 150)" style="dominant-baseline: middle; text-anchor: middle;"></text></pattern><pattern patternUnits="userSpaceOnUse" id="pattern_mark_1" width="300" height="300"><text x="150" y="200" fill="rgba(229,229,229,0.8)" font-size="18" transform="rotate(-45, 150, 150)" style="dominant-baseline: middle; text-anchor: middle;"></text></pattern><marker id="SvgjsMarker1130" markerWidth="13" markerHeight="9" refX="9.5" refY="4.5" viewBox="0 0 13 9" orient="auto" markerUnits="userSpaceOnUse" stroke-dasharray="0,0"><path id="SvgjsPath1131" d="M0,0 L13,4.5 L0,9 L0,0" fill="#323232" stroke="#323232" stroke-width="1"></path></marker><marker id="SvgjsMarker1140" markerWidth="13" markerHeight="9" refX="9.5" refY="4.5" viewBox="0 0 13 9" orient="auto" markerUnits="userSpaceOnUse" stroke-dasharray="0,0"><path id="SvgjsPath1141" d="M0,0 L13,4.5 L0,9 L0,0" fill="#323232" stroke="#323232" stroke-width="1"></path></marker><marker id="SvgjsMarker1154" markerWidth="13" markerHeight="9" refX="9.5" refY="4.5" viewBox="0 0 13 9" orient="auto" markerUnits="userSpaceOnUse" stroke-dasharray="0,0"><path id="SvgjsPath1155" d="M0,0 L13,4.5 L0,9 L0,0" fill="#323232" stroke="#323232" stroke-width="1"></path></marker><marker id="SvgjsMarker1162" markerWidth="13" markerHeight="9" refX="9.5" refY="4.5" viewBox="0 0 13 9" orient="auto" markerUnits="userSpaceOnUse" stroke-dasharray="0,0"><path id="SvgjsPath1163" d="M0,0 L13,4.5 L0,9 L0,0" fill="#323232" stroke="#323232" stroke-width="1"></path></marker></defs><rect id="svgbackgroundid" width="602" height="540" fill="transparent"></rect><rect id="SvgjsRect1090" width="602" height="540" fill="url(#pattern_mark_0)"></rect><rect id="SvgjsRect1091" width="602" height="540" fill="url(#pattern_mark_1)"></rect><g id="SvgjsG1092" transform="translate(25,25)"><path id="SvgjsPath1093" d="M 35 30L 35 490" stroke-dasharray="3,4" stroke="rgba(33,41,48,1)" stroke-width="2" fill="none"></path><path id="SvgjsPath1094" d="M 0 0L 70 0L 70 30L 0 30Z" stroke="rgba(33,41,48,1)" stroke-width="1.5" fill-opacity="1" fill="#fbeada"></path><g id="SvgjsG1095"><text id="SvgjsText1096" font-family="&quot;Comic Sans MS&quot;" text-anchor="middle" font-size="13px" width="50px" fill="#323232" font-weight="400" align="middle" lineHeight="125%" anchor="middle" family="&quot;Comic Sans MS&quot;" size="13px" weight="400" font-style="" opacity="1" y="4.375" transform="rotate(0)"><tspan id="SvgjsTspan1097" dy="16.25" x="35"><tspan id="SvgjsTspan1098" style="">线程A</tspan></tspan></text></g></g><g id="SvgjsG1099" transform="translate(185.66666666666669,25)"><path id="SvgjsPath1100" d="M 35 30L 35 490" stroke-dasharray="3,4" stroke="rgba(33,41,48,1)" stroke-width="2" fill="none"></path><path id="SvgjsPath1101" d="M 0 0L 70 0L 70 30L 0 30Z" stroke="rgba(33,41,48,1)" stroke-width="1.5" fill-opacity="1" fill="#fbeada"></path><g id="SvgjsG1102"><text id="SvgjsText1103" font-family="&quot;Comic Sans MS&quot;" text-anchor="middle" font-size="13px" width="50px" fill="#323232" font-weight="400" align="middle" lineHeight="125%" anchor="middle" family="&quot;Comic Sans MS&quot;" size="13px" weight="400" font-style="" opacity="1" y="4.375" transform="rotate(0)"><tspan id="SvgjsTspan1104" dy="16.25" x="35"><tspan id="SvgjsTspan1105" style="">线程B</tspan></tspan></text></g></g><g id="SvgjsG1106" transform="translate(45,96)"><path id="SvgjsPath1107" d="M 0 4Q 0 0 4 0L 26 0Q 30 0 30 4L 30 76Q 30 80 26 80L 4 80Q 0 80 0 76L 0 4Z" stroke="rgba(33,41,48,1)" stroke-width="1.5" fill-opacity="1" fill="#d2d6f9"></path></g><g id="SvgjsG1108" transform="translate(205.66666666666669,379)"><path id="SvgjsPath1109" d="M 0 4Q 0 0 4 0L 26 0Q 30 0 30 4L 30 76Q 30 80 26 80L 4 80Q 0 80 0 76L 0 4Z" stroke="rgba(33,41,48,1)" stroke-width="1.5" fill-opacity="1" fill="#d2d6f9"></path></g><g id="SvgjsG1110" transform="translate(346.33333333333337,25)"><path id="SvgjsPath1111" d="M 35 30L 35 490" stroke-dasharray="3,4" stroke="rgba(33,41,48,1)" stroke-width="2" fill="none"></path><path id="SvgjsPath1112" d="M 0 0L 70 0L 70 30L 0 30Z" stroke="rgba(33,41,48,1)" stroke-width="1.5" fill-opacity="1" fill="#a7932c"></path><g id="SvgjsG1113"><text id="SvgjsText1114" font-family="&quot;Comic Sans MS&quot;" text-anchor="middle" font-size="13px" width="50px" fill="#323232" font-weight="400" align="middle" lineHeight="125%" anchor="middle" family="&quot;Comic Sans MS&quot;" size="13px" weight="400" font-style="" opacity="1" y="4.375" transform="rotate(0)"><tspan id="SvgjsTspan1115" dy="16.25" x="35"><tspan id="SvgjsTspan1116" style="">Redis</tspan></tspan></text></g></g><g id="SvgjsG1117" transform="translate(507,25)"><path id="SvgjsPath1118" d="M 35 30L 35 490" stroke-dasharray="3,4" stroke="rgba(33,41,48,1)" stroke-width="2" fill="none"></path><path id="SvgjsPath1119" d="M 0 0L 70 0L 70 30L 0 30Z" stroke="rgba(33,41,48,1)" stroke-width="1.5" fill-opacity="1" fill="#7985ec"></path><g id="SvgjsG1120"><text id="SvgjsText1121" font-family="&quot;Comic Sans MS&quot;" text-anchor="middle" font-size="13px" width="50px" fill="#323232" font-weight="400" align="middle" lineHeight="125%" anchor="middle" family="&quot;Comic Sans MS&quot;" size="13px" weight="400" font-style="" opacity="1" y="4.375" transform="rotate(0)"><tspan id="SvgjsTspan1122" dy="16.25" x="35"><tspan id="SvgjsTspan1123" style="">MySQL</tspan></tspan></text></g></g><g id="SvgjsG1124" transform="translate(528,96)"><path id="SvgjsPath1125" d="M 0 4Q 0 0 4 0L 26 0Q 30 0 30 4L 30 76Q 30 80 26 80L 4 80Q 0 80 0 76L 0 4Z" stroke="rgba(33,41,48,1)" stroke-width="1.5" fill-opacity="1" fill="#d2d6f9"></path></g><g id="SvgjsG1126" transform="translate(45,190)"><path id="SvgjsPath1127" d="M 0 4Q 0 0 4 0L 26 0Q 30 0 30 4L 30 76Q 30 80 26 80L 4 80Q 0 80 0 76L 0 4Z" stroke="rgba(33,41,48,1)" stroke-width="1.5" fill-opacity="1" fill="#d2d6f9"></path></g><g id="SvgjsG1128"><path id="SvgjsPath1129" d="M75.75 136L301.5 136L301.5 136L525.3 136" stroke="#323232" stroke-width="1.5" fill="none" marker-end="url(#SvgjsMarker1130)"></path><rect id="SvgjsRect1132" width="102" height="18" x="255.97549668874166" y="127" fill="#ffffff"></rect><text id="SvgjsText1133" font-family="&quot;Comic Sans MS&quot;" text-anchor="middle" font-size="13px" width="102px" fill="#323232" font-weight="400" align="top" lineHeight="16px" anchor="middle" family="&quot;Comic Sans MS&quot;" size="13px" weight="400" font-style="" opacity="1" y="124.375" transform="rotate(0)"><tspan id="SvgjsTspan1134" dy="16.25" x="306.97549668874166"><tspan id="SvgjsTspan1135" style="">update key = 100</tspan></tspan></text></g><g id="SvgjsG1136" transform="translate(527,284)"><path id="SvgjsPath1137" d="M 0 4Q 0 0 4 0L 26 0Q 30 0 30 4L 30 76Q 30 80 26 80L 4 80Q 0 80 0 76L 0 4Z" stroke="rgba(33,41,48,1)" stroke-width="1.5" fill-opacity="1" fill="#d2d6f9"></path></g><g id="SvgjsG1138"><path id="SvgjsPath1139" d="M75.75 230L220.66666666666669 230L220.66666666666669 230L363.6333333333333 230" stroke="#323232" stroke-width="1.5" fill="none" marker-end="url(#SvgjsMarker1140)"></path><rect id="SvgjsRect1142" width="102" height="18" x="166.88624097301403" y="221" fill="#ffffff"></rect><text id="SvgjsText1143" font-family="&quot;Comic Sans MS&quot;" text-anchor="middle" font-size="13px" width="102px" fill="#323232" font-weight="400" align="top" lineHeight="16px" anchor="middle" family="&quot;Comic Sans MS&quot;" size="13px" weight="400" font-style="" opacity="1" y="218.375" transform="rotate(0)"><tspan id="SvgjsTspan1144" dy="16.25" x="217.88624097301403"><tspan id="SvgjsTspan1145" style="">update key = 100</tspan></tspan></text></g><g id="SvgjsG1146" transform="translate(205.66666666666669,284)"><path id="SvgjsPath1147" d="M 0 4Q 0 0 4 0L 26 0Q 30 0 30 4L 30 76Q 30 80 26 80L 4 80Q 0 80 0 76L 0 4Z" stroke="rgba(33,41,48,1)" stroke-width="1.5" fill-opacity="1" fill="#d2d6f9"></path></g><g id="SvgjsG1148" transform="translate(366.33333333333337,190)"><path id="SvgjsPath1149" d="M 0 4Q 0 0 4 0L 26 0Q 30 0 30 4L 30 76Q 30 80 26 80L 4 80Q 0 80 0 76L 0 4Z" stroke="rgba(33,41,48,1)" stroke-width="1.5" fill-opacity="1" fill="#d2d6f9"></path></g><g id="SvgjsG1150" transform="translate(366.33333333333337,379)"><path id="SvgjsPath1151" d="M 0 4Q 0 0 4 0L 26 0Q 30 0 30 4L 30 76Q 30 80 26 80L 4 80Q 0 80 0 76L 0 4Z" stroke="rgba(33,41,48,1)" stroke-width="1.5" fill-opacity="1" fill="#d2d6f9"></path></g><g id="SvgjsG1152"><path id="SvgjsPath1153" d="M236.41666666666669 419L301 419L301 419L363.6333333333333 419" stroke="#323232" stroke-width="1.5" fill="none" marker-end="url(#SvgjsMarker1154)"></path><rect id="SvgjsRect1156" width="96" height="18" x="252.17055682684975" y="410" fill="#ffffff"></rect><text id="SvgjsText1157" font-family="&quot;Comic Sans MS&quot;" text-anchor="middle" font-size="13px" width="96px" fill="#323232" font-weight="400" align="top" lineHeight="16px" anchor="middle" family="&quot;Comic Sans MS&quot;" size="13px" weight="400" font-style="" opacity="1" y="407.375" transform="rotate(0)"><tspan id="SvgjsTspan1158" dy="16.25" x="300.17055682684975"><tspan id="SvgjsTspan1159" style="">update key = 80</tspan></tspan></text></g><g id="SvgjsG1160"><path id="SvgjsPath1161" d="M236.41666666666669 324L381.33333333333337 324L381.33333333333337 324L524.3 324" stroke="#323232" stroke-width="1.5" fill="none" marker-end="url(#SvgjsMarker1162)"></path><rect id="SvgjsRect1164" width="96" height="18" x="332.02894736842103" y="315" fill="#ffffff"></rect><text id="SvgjsText1165" font-family="&quot;Comic Sans MS&quot;" text-anchor="middle" font-size="13px" width="96px" fill="#323232" font-weight="400" align="top" lineHeight="16px" anchor="middle" family="&quot;Comic Sans MS&quot;" size="13px" weight="400" font-style="" opacity="1" y="312.375" transform="rotate(0)"><tspan id="SvgjsTspan1166" dy="16.25" x="380.02894736842103"><tspan id="SvgjsTspan1167" style="">update key = 80</tspan></tspan></text></g></svg>